<svg xmlns="http://www.w3.org/2000/svg" viewBox="0 0 172 70" fill="none"><path fill="url(#a)" fill-opacity=".8" fill-rule="evenodd" d="M171.191 4.374a1.285 1.285 0 0 1-.658 1.675c-4.823 2.106-62.819 27.716-65.885 28.896-.702.27-1.07.382-1.446.765-.376.383-.067.793.56.957 7.347 1.927 13.443 3.424 19 4.7 2.457.564 4.614 1.06 6.358 1.48.728.176 1.377.433 1.874.828.535.425.893 1.016.936 1.732.039.655-.198 1.236-.461 1.682-.27.458-.635.887-1.02 1.276-1.253 1.266-3.194 2.548-4.399 3.345-.229.151-.431.285-.597.398-6.122 4.156-9.739 6.529-17.008 8.714-4.169 1.252-8.184.226-13.58-1.154l-.176-.045a1.229 1.229 0 0 1-.056-.016l-28.515-8.74-.024-.007c-9.149-3.007-13.402-2.282-15.826-1.473-4.007 1.336-13.69 5.49-23.654 9.823-1.915.833-3.838 1.672-5.731 2.497-7.907 3.447-15.27 6.658-19.175 8.206a1.246 1.246 0 0 1-1.622-.727 1.284 1.284 0 0 1 .713-1.652c3.861-1.53 11.168-4.716 19.071-8.163l5.76-2.509c9.904-4.307 19.72-8.52 23.858-9.901 3.048-1.017 7.856-1.657 17.364 1.465l28.475 8.728c5.651 1.445 8.983 2.249 12.408 1.22 6.896-2.073 10.259-4.27 16.328-8.39.21-.143.448-.301.705-.471 1.225-.813 2.727-1.77 3.773-2.826.436-.44.791-1.165 0-1.356-1.702-.41-3.831-.9-6.27-1.46-5.569-1.279-12.75-2.927-20.133-4.864-.921-.241-1.804-.624-2.308-1.331a2.07 2.07 0 0 1-.389-1.354 2.44 2.44 0 0 1 .416-1.172c.393-.599 1.02-1.096 1.653-1.493a13.268 13.268 0 0 1 2.252-1.1c2.999-1.154 60.921-26.731 65.783-28.854a1.245 1.245 0 0 1 1.646.67Z" clip-rule="evenodd"/><path fill="url(#b)" fill-rule="evenodd" d="M171.898.774a1.285 1.285 0 0 1-.658 1.676c-4.823 2.105-63.452 27.867-66.518 29.047-.702.27-1.07.382-1.446.765-.375.383-.066.793.56.957 7.347 1.927 13.444 3.425 19 4.7 2.458.565 4.614 1.06 6.358 1.48.728.177 1.377.434 1.875.829.534.425.893 1.016.935 1.731.039.655-.197 1.236-.461 1.683-.27.457-.635.887-1.019 1.275-1.254 1.266-3.194 2.549-4.399 3.345-.229.151-.432.285-.598.398-6.121 4.156-9.739 6.53-17.008 8.714-4.169 1.253-8.184.226-13.58-1.154l-.176-.045a1.19 1.19 0 0 1-.056-.016l-28.515-8.74-.024-.007c-9.149-3.006-13.401-2.281-15.826-1.473-4.006 1.337-13.69 5.49-23.654 9.823-1.915.833-3.838 1.672-5.73 2.497-7.908 3.448-15.271 6.658-19.176 8.206A1.246 1.246 0 0 1 .16 65.74a1.284 1.284 0 0 1 .713-1.653c3.862-1.53 11.168-4.716 19.071-8.162l5.76-2.51c9.904-4.307 19.72-8.52 23.858-9.9 3.048-1.017 7.857-1.658 17.364 1.464l28.475 8.728c5.651 1.445 8.983 2.249 12.408 1.22 6.896-2.073 10.259-4.27 16.328-8.39.21-.143.448-.3.705-.471 1.226-.813 2.727-1.77 3.774-2.826.435-.44.79-1.164 0-1.355-1.703-.411-3.832-.9-6.271-1.46-5.569-1.28-12.75-2.928-20.133-4.864-.921-.242-1.804-.625-2.308-1.332a2.07 2.07 0 0 1-.388-1.354 2.44 2.44 0 0 1 .415-1.172c.393-.598 1.02-1.096 1.653-1.492a13.335 13.335 0 0 1 2.252-1.1c2.999-1.155 61.554-26.884 66.417-29.006a1.244 1.244 0 0 1 1.645.67Z" clip-rule="evenodd"/><defs><linearGradient id="a" x1="5.969" x2="176.128" y1="78.549" y2="10.495" gradientUnits="userSpaceOnUse"><stop stop-color="#F6F8FB" stop-opacity="0"/><stop offset=".121" stop-color="#F2F5F9"/><stop offset=".897" stop-color="#F2F5F9"/><stop offset="1" stop-color="#F6F8FB" stop-opacity="0"/></linearGradient><linearGradient id="b" x1="57.278" x2="189.238" y1="126.534" y2="9.613" gradientUnits="userSpaceOnUse"><stop stop-color="#70FF5E" stop-opacity="0"/><stop offset=".187" stop-color="#70FF5E"/><stop offset=".724" stop-color="#70FF5E"/><stop offset=".929" stop-color="#70FF5E" stop-opacity="0"/></linearGradient></defs></svg>