<svg xmlns="http://www.w3.org/2000/svg" viewBox="0 0 172 70" fill="none"><path fill="url(#a)" fill-rule="evenodd" d="M162.317 10.031c-9.575 4.767-20.977 10.7-23.81 11.915-3.343 1.432-5.677 2.505-8.127 2.846-2.452.34-4.828.581-7.972.18-1.032-.132-2.928-.569-5.024-.935-1.996-.349-4.293-.878-6.538-1.229-2.334-.364-4.643-1.193-6.599-1.357-2.249-.19-3.768-.31-4.75-.064-1.397.352-2.847.876-4.988 1.678-.668.25-1.355.511-2.049.774-1.504.572-3.039 1.283-4.468 1.79-.971.346-.931.348-1.256.768-.386.5.13 1.054.446 1.224.63.337 1.589.662 2.928.908 1.674.308 7.704 1.518 13.845 2.75 5.939 1.19 11.981 3.302 14.284 3.739.997.189 1.823.47 2.386.909.295.23.547.525.687.896.143.38.142.764.048 1.119-.174.658-.779 1.457-1.308 1.918-.553.483-1.681.983-2.493 1.438-4.987 2.8-13.104 7.3-15.972 8.641-3.14 1.468-7.706 1.593-11.775.51-1.942-.518-4.86-1.242-8.025-2.027-3.326-.825-7.447-1.847-10.483-2.64-2.858-.748-4.923-.74-6.74-.42-1.296.228-2.442.602-3.717 1.018-.575.187-1.272.44-2.036.701L2.045 70.001.654 67.96l57.053-23.578a76.96 76.96 0 0 1 2.208-.77c1.34-.437 2.61-.795 4.047-1.047 2.112-.371 4.463-.362 7.58.453 2.947.77 7.086 1.797 10.44 2.63 3.207.796 6.172 1.532 8.077 2.039 3.81 1.015 7.471.942 10.046-.262 2.847-1.331 10.993-5.222 15.92-7.989.747-.42 1.248-.82 1.757-1.184.257-.184.452-.486.452-.614 0-.193-.065-.293-.26-.386-.27-.128-.37-.172-1.271-.343-2.365-.448-8.424-2.563-14.358-3.754-6.1-1.224-12.069-2.421-13.76-2.732-1.454-.268-2.63-.642-3.5-1.11-.847-.453-1.558-1.079-1.79-1.921-.252-.915.145-1.74.766-2.35.609-.597 1.516-1.09 2.623-1.484 1.409-.5 2.91-1.199 4.403-1.766.7-.265 1.397-.53 2.082-.787 2.129-.797 3.93-1.42 5.452-1.803 1.948-.49 3.118-.357 5.142-.186 2.024.17 4.387 1.007 6.737 1.374 2.354.367 4.669.772 6.651 1.12 2.029.355 3.71.65 4.727.779 3.091.394 5.261.256 7.452-.049 2.194-.305 4.471-1.043 7.753-2.449 2.778-1.19 14.048-6.93 23.596-11.683 3.734-1.859 7.205-3.587 9.802-4.868L172 5.223c-2.555 1.26-5.982 2.966-9.683 4.808Z" clip-rule="evenodd"/><path fill="url(#b)" fill-rule="evenodd" d="M161.046 6.816c-9.538 4.785-20.897 10.612-23.719 11.83-3.33 1.439-5.655 2.516-8.095 2.858-2.443.342-4.81.325-7.942-.077-1.028-.133-2.917-.571-5.005-.939-1.989-.35-4.277-.882-6.514-1.233-2.325-.366-4.625-.682-6.573-.847-2.241-.19-3.754-.312-4.731-.064-1.393.353-2.838.88-4.97 1.684-.665.251-1.35.513-2.04.778a227.555 227.555 0 0 1-4.452 1.668c-.968.346-.928.349-1.251.77-.385.502.13 1.058.444 1.228.627.34 1.583.665 2.917.912 1.667.31 7.675 1.524 13.792 2.76 5.916 1.196 11.936 2.413 14.23 2.851.992.19 1.815.472 2.376.912.294.23.545.527.685.9.142.381.141.767.048 1.123-.174.66-.777 1.463-1.303 1.926-.552.485-1.676.986-2.484 1.444-4.968 2.81-13.054 7.327-15.911 8.673-3.128 1.474-7.676 1.599-11.73.511-1.935-.52-4.84-1.245-7.995-2.034-3.313-.828-6.9-1.724-9.925-2.522-2.847-.75-4.904-.74-6.715-.42-1.29.228-2.432.604-3.702 1.021-.573.189-1.267.441-2.029.704L1.385 66.111 0 64.064l57.353-23.539c.631-.232 1.56-.563 2.2-.773 1.335-.44 2.6-.798 4.032-1.051 2.103-.373 4.445-.364 7.55.455 2.936.773 6.541 1.675 9.883 2.51 3.195.8 6.148 1.538 8.046 2.048 3.796 1.018 7.443.945 10.008-.263 2.836-1.337 10.951-5.242 15.859-8.02.744-.42 1.243-.822 1.75-1.189.256-.184.45-.487.45-.616 0-.194-.065-.294-.259-.387-.268-.129-.369-.173-1.265-.344-2.357-.45-8.393-1.67-14.304-2.866-6.077-1.229-12.023-2.43-13.708-2.743-1.448-.269-2.619-.644-3.487-1.113-.843-.456-1.551-1.084-1.782-1.93-.251-.917.144-1.745.763-2.357.606-.6 1.51-1.096 2.612-1.49a224.007 224.007 0 0 0 4.387-1.645c.697-.266 1.391-.532 2.075-.79 2.12-.8 3.914-1.425 5.43-1.81 1.94-.491 3.106-.358 5.122-.187 2.017.171 4.371.496 6.712.864 2.345.369 4.651.776 6.626 1.124 2.021.357 3.695.652 4.709.782 3.078.396 5.24.515 7.423.21 2.186-.306 4.454-1.047 7.723-2.46 2.768-1.194 13.995-6.826 23.507-11.598 3.72-1.866 7.177-3.6 9.764-4.886l1.513 1.989c-2.545 1.265-5.959 2.978-9.646 4.827Z" clip-rule="evenodd"/><defs><linearGradient id="a" x1="6.625" x2="176.436" y1="78.48" y2="9.986" gradientUnits="userSpaceOnUse"><stop stop-color="#F6F8FB" stop-opacity="0"/><stop offset=".121" stop-color="#F2F5F9"/><stop offset=".897" stop-color="#F2F5F9"/><stop offset="1" stop-color="#F6F8FB" stop-opacity="0"/></linearGradient><linearGradient id="b" x1="-37.866" x2="92.294" y1="53.03" y2="146.266" gradientUnits="userSpaceOnUse"><stop offset=".225" stop-color="#C5F1F4" stop-opacity="0"/><stop offset=".439" stop-color="#69CEFF"/><stop offset=".69" stop-color="#69D2FF"/><stop offset=".905" stop-color="#8ECEF9" stop-opacity="0"/></linearGradient></defs></svg>