<svg xmlns="http://www.w3.org/2000/svg" viewBox="0 0 177 75" fill="none"><path fill="url(#a)" fill-rule="evenodd" d="M175.089 5.15c.26.532-.051 1.137-.695 1.352-2.854.951-10.173 3.72-18.548 6.887a3346.108 3346.108 0 0 1-16.33 6.144c-26.818 9.978-65.75 24.733-95.684 36.078-19.595 7.426-35.335 13.391-41.299 15.6-.634.234-1.378 0-1.663-.523-.284-.523 0-1.137.633-1.372 5.997-2.22 21.738-8.186 41.33-15.611 29.9-11.332 68.768-26.063 95.649-36.065 5.213-1.94 10.899-4.09 16.189-6.09 8.442-3.193 15.877-6.005 18.78-6.973.644-.215 1.377.042 1.638.573Z" clip-rule="evenodd"/><path fill="url(#b)" fill-rule="evenodd" d="M92.879 36.782c.177-.554.865-.886 1.537-.74l-.32 1.004-.32 1.004c-.672-.146-1.074-.714-.897-1.268Zm24.674 3.75c-5.32-.889-11.098-2.01-15.554-2.91a668.28 668.28 0 0 1-7.442-1.55l-.106-.022-.035-.008-.32 1.004-.32 1.004.037.008.108.023.418.09 1.57.334c1.346.283 3.25.68 5.491 1.133 4.478.905 10.306 2.036 15.682 2.934l.029.005.03.003c1.043.133 2.403.433 3.253.853.426.21.544.364.564.404v.002c-.005.018-.031.096-.161.235l-.004.003a5.404 5.404 0 0 1-.491.34c-.341.218-.809.497-1.399.834a181.34 181.34 0 0 1-4.755 2.585c-3.915 2.07-9.146 4.753-14.842 7.664l-3.296 1.684C85.453 62.576 73.913 68.47 66.515 72.547c-.577.319-.733.963-.347 1.44s1.167.605 1.745.286c7.36-4.055 18.859-9.929 29.428-15.327l3.29-1.68c5.694-2.91 10.941-5.602 14.875-7.682a182.855 182.855 0 0 0 4.828-2.626 36.27 36.27 0 0 0 1.51-.9c.353-.226.723-.48.944-.715.627-.67.883-1.454.527-2.234-.313-.686-1.009-1.15-1.627-1.457-1.251-.619-2.969-.97-4.135-1.12Z" clip-rule="evenodd"/><path fill="url(#c)" fill-rule="evenodd" d="M25.677 38.382c-.245-.537.083-1.136.733-1.338 12.792-3.98 25.648-7.832 27.658-8.365 4.45-1.18 7.877-.744 11.456-.023l.052.01.199.036.806.15c.724.134 1.824.34 3.332.628 3.018.577 7.673 1.48 14.224 2.788.675.135 1.09.696.927 1.253-.163.557-.843.9-1.519.765a1751.988 1751.988 0 0 0-14.199-2.783 700.04 700.04 0 0 0-4.117-.774l-.195-.036-.078-.014-.015-.003c-3.398-.686-6.293-1.031-10.103-.02-1.938.514-14.728 4.344-27.54 8.33-.65.203-1.376-.068-1.62-.604Z" clip-rule="evenodd"/><path fill="url(#d)" fill-rule="evenodd" d="M176.422 1.523a1.5 1.5 0 0 1-.944 1.9c-4.84 1.625-15.707 5.624-29.809 10.908-27.827 10.427-68.227 25.847-99.29 37.703-20.334 7.76-36.667 13.994-42.855 16.301a1.5 1.5 0 0 1-1.048-2.81c6.223-2.321 22.558-8.556 42.888-16.315 31.026-11.842 71.358-27.236 99.253-37.688 14.085-5.278 25.006-9.298 29.905-10.944a1.5 1.5 0 0 1 1.9.945Z" clip-rule="evenodd"/><path fill="url(#e)" fill-rule="evenodd" d="M23.183 36.365a1.5 1.5 0 0 1 .983-1.88c13.273-4.16 26.614-8.184 28.7-8.741 4.614-1.233 8.162-.777 11.88-.021l.016.003.016.004.396.089 1.167.26c1.024.226 2.532.557 4.465.973 3.865.833 9.427 2.007 16.214 3.372a1.5 1.5 0 1 1-.591 2.94 1221.115 1221.115 0 0 1-16.255-3.379 810.416 810.416 0 0 1-5.656-1.239l-.386-.087c-3.522-.714-6.535-1.074-10.492-.017-2.01.537-15.283 4.54-28.577 8.706a1.5 1.5 0 0 1-1.88-.983Z" clip-rule="evenodd"/><path fill="url(#f)" fill-rule="evenodd" d="M94.192 34.296a1.5 1.5 0 0 1 1.774-1.163l.122.026.358.074 1.366.278c1.18.238 2.867.576 4.902.972 4.063.791 9.504 1.813 15.031 2.743 1.202.156 2.987.522 4.297 1.174.617.308 1.442.828 1.836 1.698.219.486.282 1.035.141 1.593-.135.529-.429.973-.767 1.337-.261.28-.675.561-1.033.792-.411.265-.944.583-1.574.946-1.263.726-2.975 1.66-5.015 2.746-4.082 2.174-9.529 4.987-15.436 8.028l-3.414 1.756c-10.969 5.642-22.9 11.779-30.534 16.016a1.5 1.5 0 0 1-1.456-2.623c7.68-4.262 19.656-10.422 30.61-16.057 1.154-.593 2.296-1.18 3.42-1.76 5.912-3.042 11.339-5.845 15.4-8.008a186.55 186.55 0 0 0 4.93-2.7 34.888 34.888 0 0 0 1.444-.866 9.42 9.42 0 0 0 .228-.15 4.032 4.032 0 0 0-.118-.062c-.87-.434-2.28-.749-3.369-.888l-.03-.004-.029-.005a616.563 616.563 0 0 1-15.136-2.761 672.66 672.66 0 0 1-6.298-1.257l-.362-.075-.125-.025.254-1.22-.254 1.22a1.5 1.5 0 0 1-1.163-1.775Z" clip-rule="evenodd"/><defs><linearGradient id="a" x1="-9.538" x2="-4.39" y1="81.614" y2="-3.46" gradientUnits="userSpaceOnUse"><stop offset=".203" stop-color="#F6FBF7" stop-opacity="0"/><stop offset=".303" stop-color="#F6F8FB"/><stop offset=".771" stop-color="#EEF3FA"/><stop offset=".971" stop-color="#EEF3FA" stop-opacity="0"/></linearGradient><linearGradient id="b" x1="79.782" x2="67.526" y1="80.93" y2="44.546" gradientUnits="userSpaceOnUse"><stop offset=".203" stop-color="#F6F8FB" stop-opacity="0"/><stop offset=".566" stop-color="#F6F8FB"/><stop offset=".78" stop-color="#EEF3FA"/><stop offset="1" stop-color="#EEF3FA"/></linearGradient><linearGradient id="c" x1="16.697" x2="80.041" y1="23.34" y2="9.514" gradientUnits="userSpaceOnUse"><stop offset=".117" stop-color="#F6F8FB" stop-opacity="0"/><stop offset=".315" stop-color="#F6F8FB"/><stop offset=".78" stop-color="#EEF3FA"/><stop offset="1" stop-color="#EEF3FA"/></linearGradient><linearGradient id="d" x1="-3.772" x2="161.663" y1="73.056" y2="-20.144" gradientUnits="userSpaceOnUse"><stop offset=".061" stop-color="#CF9EFF" stop-opacity="0"/><stop offset=".281" stop-color="#CF9EFF" stop-opacity=".34"/><stop offset=".487" stop-color="#CF9EFF"/><stop offset=".903" stop-color="#CF9EFF"/><stop offset="1" stop-color="#CF9EFF" stop-opacity="0"/></linearGradient><linearGradient id="e" x1="93.362" x2="47.186" y1="26.407" y2="-9.676" gradientUnits="userSpaceOnUse"><stop offset=".228" stop-color="#CF9EFF"/><stop offset=".532" stop-color="#CF9EFF" stop-opacity=".35"/><stop offset=".838" stop-color="#CF9EFF" stop-opacity="0"/></linearGradient><linearGradient id="f" x1="89.036" x2="97.254" y1="25.074" y2="72.611" gradientUnits="userSpaceOnUse"><stop offset=".237" stop-color="#CF9EFF"/><stop offset=".677" stop-color="#CF9EFF" stop-opacity="0"/></linearGradient></defs></svg>