<svg xmlns="http://www.w3.org/2000/svg" viewBox="0 0 172 70" fill="none"><path fill="url(#a)" fill-rule="evenodd" d="M92.2 35.599c5.056 1.157 22.94 5.399 25.901 6.3.98.299 1.762.695 2.233 1.266.545.66.557 1.405.288 2.03-.238.552-.683 1.002-1.075 1.329-.41.34-.859.627-1.222.836-.707.406-8.22 4.066-17.42 8.497-9.235 4.45-20.253 9.716-28.04 13.363l-.931-1.821c7.776-3.642 18.786-8.905 28.02-13.353 9.268-4.465 16.663-8.07 17.281-8.425.3-.172.637-.39.921-.626.301-.251.456-.452.508-.573a.188.188 0 0 1 .003-.007c-.085-.098-.384-.332-1.208-.584-2.867-.873-20.654-5.094-25.752-6.26l.492-1.972Z" clip-rule="evenodd"/><path fill="url(#b)" fill-rule="evenodd" d="m171.989 7.211-1.335 1.434c-4.078 1.358-13.252 4.745-25.161 9.23-13.965 5.258-28.81 11.148-46.373 17.88-3.125 1.198-1.98.53-1.866-.098-.004.002-1.44.098-1.28-.276l-.16.308c.013-.005 2.594-1.37 2.594-1.37-1.54.814-8.12 2.39-2.929.355 17.564-6.733 35.263-13.491 49.235-18.753 11.896-4.48 20.621-7.673 24.747-9.047l2.528.337Z" clip-rule="evenodd"/><path fill="url(#c)" fill-rule="evenodd" d="M3.658 53.863a1.039 1.039 0 0 1 .628-1.35c10.96-4.015 54.452-20.961 56.174-21.499 3.813-1.191 6.75-.751 9.816-.023l.044.01a130.078 130.078 0 0 1 .862.186c.62.136 1.562.345 2.855.635 2.585.582 6.573 1.493 12.186 2.813.579.136.934.702.794 1.264s-.722.907-1.3.771a1300.952 1300.952 0 0 0-12.166-2.807 536.955 536.955 0 0 0-3.528-.782l-.167-.036-.067-.014-.013-.003c-2.911-.692-5.39-1.04-8.656-.02-1.66.518-45.097 17.444-56.073 21.465a1.088 1.088 0 0 1-1.39-.61Z" clip-rule="evenodd"/><path fill="url(#d)" fill-rule="evenodd" d="M95.718 34.597c.144-.56.73-.901 1.307-.76l-.262 1.015-.262 1.016a1.046 1.046 0 0 1-.783-1.27Zm1.045.255-.262 1.016.11.026c.07.018.176.043.314.076.275.066.679.163 1.192.284 1.027.243 2.494.586 4.256.986l-.538-1.27 1.029-.77a484.588 484.588 0 0 1-5.733-1.338l-.106-.026-.262 1.016Zm8.557 1.975 1.289-.791c1.705.373 3.544.766 5.438 1.155l-1.023.888.577 1.161a433.612 433.612 0 0 1-5.466-1.161l-.815-1.252Zm8.43 1.832 1.23-.876c.999.15 2.486.504 3.567 1.134.531.309 1.127.777 1.395 1.47.304.787.086 1.578-.452 2.254-.198.249-.543.522-.876.77-.37.276-.855.612-1.434.998v-1.455l-1.219-.273a33.392 33.392 0 0 0 1.342-.932c.352-.262.473-.38.481-.389.112-.14.134-.219.138-.237l.001-.002c-.018-.04-.119-.195-.484-.408-.728-.424-1.893-.726-2.787-.86l-.902-1.194Z" clip-rule="evenodd"/><path fill="url(#e)" fill-rule="evenodd" d="m115.632 44.782-.932 1.342c-1.905.95-4.218 2.073-6.794 3.31l.395-1.395-1.35-.483a531.15 531.15 0 0 0 6.765-3.295l1.916.521Z" clip-rule="evenodd"/><path fill="url(#f)" fill-rule="evenodd" d="m91.255 56.276-.487 1.404c-7.772 3.745-15.494 7.503-20.835 10.298a1.094 1.094 0 0 1-1.46-.425 1.032 1.032 0 0 1 .437-1.418c5.378-2.815 13.133-6.589 20.9-10.332l1.445.473Z" clip-rule="evenodd"/><path fill="url(#g)" fill-rule="evenodd" d="M105.22 49.596 104.736 51c-2.819 1.365-7.744 3.704-9.879 4.73l.468-1.395-1.424-.481c2.131-1.025 7.054-3.363 9.873-4.728l1.446.47Z" clip-rule="evenodd"/><path fill="url(#h)" fill-rule="evenodd" d="M87.017 33.29c-.14.562-.723.907-1.301.771-2.257-.53-4.86-1.08-7.12-1.557a419.12 419.12 0 0 1-5.213-1.156l1.17-.884-.676-1.155c.9.206 3.526.799 5.062 1.123 2.32.491 5.058 1.07 7.284 1.594.578.136.934.702.794 1.264Zm-36.623-.145-1.08-.766c1.136-.405 3.996-1.472 5.308-1.915.937-.317 2.268-.75 2.86-.958l1.38.629-.647 1.34c-.666.234-2.015.674-2.955.99-1.268.429-4.045 1.468-5.204 1.88l.338-1.2Zm11.338-4.054-1.272-.686c3.818-1.193 6.757-.75 9.828-.02l.791 1.266-1.303.768c-2.911-.692-5.391-1.04-8.656-.02l.612-1.308Z" clip-rule="evenodd"/><path fill="url(#i)" fill-rule="evenodd" d="m171.988 4.22-1.335 1.434c-4.077 1.358-13.251 4.744-25.16 9.229-13.966 5.259-28.81 11.148-46.373 17.88-3.125 1.199-1.981.532-1.866-.097-.005.002-1.441.098-1.28-.277l-.161.309c.014-.006 2.595-1.37 2.595-1.37-1.54.814-8.12 2.39-2.93.355 17.564-6.733 35.263-13.491 49.236-18.753 11.895-4.48 20.62-7.673 24.747-9.047l2.527.337Z" clip-rule="evenodd"/><path fill="url(#j)" fill-rule="evenodd" d="m48.418 33.605-1.39-.61a532.191 532.191 0 0 0-7.085 2.673l1.33.651-.538 1.297a528.006 528.006 0 0 1 7.055-2.662l.628-1.35Zm-9.637 3.593-1.4-.587c-2.927 1.128-8.007 3.132-10.218 3.991l1.307.581-.506 1.364c2.208-.859 7.285-2.861 10.213-3.99l.604-1.36Zm-14.44 5.647-1.4-.584c-8.058 3.124-16.092 6.205-21.8 8.204a1.04 1.04 0 0 0-.648 1.34c.202.544.82.826 1.38.63 5.747-2.013 13.814-5.107 21.866-8.229l.602-1.36Z" clip-rule="evenodd"/><defs><radialGradient id="d" cx="0" cy="0" r="1" gradientTransform="rotate(99.163 30.593 54.173) scale(44.7333 132.996)" gradientUnits="userSpaceOnUse"><stop offset=".124" stop-color="#EB307E"/><stop offset=".336" stop-color="#EB307E"/><stop offset=".667" stop-color="#EB307E" stop-opacity="0"/></radialGradient><radialGradient id="e" cx="0" cy="0" r="1" gradientTransform="rotate(105.039 33.99 49.892) scale(44.7863 132.839)" gradientUnits="userSpaceOnUse"><stop offset=".124" stop-color="#EB307E"/><stop offset=".336" stop-color="#EB307E"/><stop offset=".667" stop-color="#EB307E" stop-opacity="0"/></radialGradient><radialGradient id="f" cx="0" cy="0" r="1" gradientTransform="rotate(142.284 46.568 36.802) scale(49.0325 140.844)" gradientUnits="userSpaceOnUse"><stop offset=".251" stop-color="#EB307E"/><stop offset=".764" stop-color="#EB307E" stop-opacity="0"/></radialGradient><radialGradient id="g" cx="0" cy="0" r="1" gradientTransform="rotate(104.738 33.342 49.971) scale(44.783 132.849)" gradientUnits="userSpaceOnUse"><stop offset=".124" stop-color="#EB307E"/><stop offset=".336" stop-color="#EB307E"/><stop offset=".667" stop-color="#EB307E" stop-opacity="0"/></radialGradient><radialGradient id="h" cx="0" cy="0" r="1" gradientTransform="matrix(-54.76301 4.82774 -16.51458 -187.33147 91.874 33.333)" gradientUnits="userSpaceOnUse"><stop stop-color="#EB307E"/><stop offset=".104" stop-color="#EB307E"/><stop offset=".353" stop-color="#EB307E"/></radialGradient><radialGradient id="j" cx="0" cy="0" r="1" gradientTransform="rotate(-178.008 27.413 25.125) scale(53.776 151.108)" gradientUnits="userSpaceOnUse"><stop offset=".124" stop-color="#EB307E"/><stop offset=".344" stop-color="#EB307E"/><stop offset=".898" stop-color="#EB307E" stop-opacity="0"/></radialGradient><linearGradient id="a" x1="120.755" x2="68.834" y1="19.663" y2="68.771" gradientUnits="userSpaceOnUse"><stop offset=".22" stop-color="#F6F8FB"/><stop offset=".509" stop-color="#EEF3FA"/><stop offset=".863" stop-color="#EEF3FA" stop-opacity="0"/></linearGradient><linearGradient id="b" x1="174.635" x2="119.807" y1="-10.636" y2="61" gradientUnits="userSpaceOnUse"><stop offset=".22" stop-color="#F6F8FB"/><stop offset=".509" stop-color="#EEF3FA"/></linearGradient><linearGradient id="c" x1="-.258" x2="63.063" y1="56.633" y2="9.433" gradientUnits="userSpaceOnUse"><stop offset=".117" stop-color="#F6F8FB" stop-opacity="0"/><stop offset=".315" stop-color="#F6F8FB"/><stop offset=".78" stop-color="#EEF3FA"/><stop offset="1" stop-color="#EEF3FA"/></linearGradient><linearGradient id="i" x1="19.111" x2="177.573" y1="65.439" y2="1.297" gradientUnits="userSpaceOnUse"><stop offset=".082" stop-color="#FFE8F2"/><stop offset=".249" stop-color="#FD9AC4"/><stop offset=".472" stop-color="#FE67A6"/><stop offset=".526" stop-color="#FF006A"/><stop offset=".958" stop-color="#FFE8F2"/></linearGradient></defs></svg>