<svg xmlns="http://www.w3.org/2000/svg" viewBox="0 0 172 76" fill="none"><path fill="url(#a)" fill-rule="evenodd" d="M171.888.45c.243.42.077.942-.371 1.17l-69.251 35.124a8.703 8.703 0 0 1-5.97.68l-30.164-7.332a6.765 6.765 0 0 0-3.929.224L31.337 41.712a.526.526 0 0 0-.03.99l16.345 7.043c1.848.797 1.884 3.24.06 4.083L1.331 75.26c-.457.21-1.01.036-1.236-.39-.226-.427-.039-.944.418-1.155l46.379-21.433a.524.524 0 0 0-.014-.972l-16.345-7.044c-1.935-.834-1.857-3.427.124-4.158l30.867-11.396a8.734 8.734 0 0 1 5.072-.29l30.164 7.333c1.558.379 3.21.19 4.625-.527L170.637.105c.448-.228 1.008-.073 1.251.346Z" clip-rule="evenodd"/><path fill="url(#b)" fill-rule="evenodd" d="M163.484 2.186c.241.42.072.942-.378 1.166l-60.991 30.515a8.702 8.702 0 0 1-5.78.695l-30.603-6.874a6.765 6.765 0 0 0-3.797.244l-30.83 11.284a.526.526 0 0 0-.016.996l16.206 6.485c1.935.774 1.965 3.327.048 4.14L2.297 69.94c-.464.197-1.011.005-1.222-.428-.21-.434-.005-.945.459-1.141L46.58 49.267a.525.525 0 0 0-.011-.986l-16.207-6.484c-1.991-.797-1.947-3.448.07-4.186l30.83-11.284a8.734 8.734 0 0 1 4.902-.315l30.602 6.873a6.742 6.742 0 0 0 4.478-.537l60.991-30.515c.449-.225 1.009-.067 1.249.353Z" clip-rule="evenodd"/><defs><radialGradient id="b" cx="0" cy="0" r="1" gradientTransform="matrix(162.45035 -66.50919 44.67995 109.1319 -.634 69.102)" gradientUnits="userSpaceOnUse"><stop offset=".053" stop-color="#4791FF" stop-opacity="0"/><stop offset=".215" stop-color="#4791FF"/><stop offset=".616" stop-color="#4791FF"/><stop offset="1" stop-color="#4791FF" stop-opacity="0"/></radialGradient><linearGradient id="a" x1="-.807" x2="3.079" y1="74.273" y2="-5.304" gradientUnits="userSpaceOnUse"><stop offset=".203" stop-color="#F6F8FB" stop-opacity="0"/><stop offset=".303" stop-color="#F6F8FB"/><stop offset=".836" stop-color="#EEF3FA"/><stop offset=".982" stop-color="#EEF3FA" stop-opacity="0"/></linearGradient></defs></svg>