<svg xmlns="http://www.w3.org/2000/svg" viewBox="0 0 172 70" fill="none"><path fill="url(#a)" fill-rule="evenodd" d="M14.067 25.826c-3.82 3.242-5.667 6.582-5.667 9.86 0 3.28 1.847 6.618 5.667 9.861 3.812 3.236 9.42 6.22 16.485 8.757C44.67 59.373 64.272 62.537 86 62.537c21.727 0 41.33-3.164 55.447-8.233 7.065-2.537 12.673-5.52 16.485-8.757 3.821-3.242 5.667-6.582 5.667-9.86 0-3.28-1.846-6.619-5.667-9.861-3.812-3.236-9.42-6.22-16.485-8.757C127.33 12 107.727 8.836 86 8.836c-21.727 0-41.33 3.164-55.448 8.233-7.065 2.537-12.673 5.52-16.485 8.757Zm15.454-11.707C44.05 8.903 64.017 5.706 86 5.706c21.982 0 41.951 3.197 56.478 8.413 7.257 2.605 13.239 5.744 17.437 9.307 4.189 3.557 6.772 7.693 6.772 12.26 0 4.569-2.583 8.704-6.772 12.26-4.198 3.564-10.18 6.703-17.437 9.308-14.527 5.216-34.496 8.413-56.478 8.413-21.983 0-41.951-3.197-56.478-8.413-7.257-2.605-13.24-5.744-17.437-9.307-4.19-3.557-6.773-7.693-6.773-12.26 0-4.568 2.583-8.704 6.773-12.26 4.197-3.564 10.18-6.703 17.437-9.308Z" clip-rule="evenodd"/><path fill="url(#b)" fill-rule="evenodd" d="M14.016 23.817c-3.786 3.241-5.62 6.581-5.62 9.865 0 3.283 1.834 6.623 5.62 9.864 3.779 3.235 9.338 6.218 16.343 8.755 13.996 5.067 33.433 8.231 54.977 8.231 21.543 0 40.98-3.164 54.976-8.231 7.005-2.537 12.564-5.52 16.343-8.755 3.786-3.241 5.62-6.581 5.62-9.864 0-3.284-1.834-6.624-5.62-9.865-3.779-3.235-9.338-6.218-16.343-8.754-13.996-5.068-33.433-8.232-54.976-8.232-21.544 0-40.98 3.164-54.977 8.232-7.005 2.536-12.564 5.52-16.343 8.754Zm15.307-11.702C43.731 6.898 63.535 3.7 85.336 3.7c21.8 0 41.604 3.197 56.012 8.414 7.198 2.606 13.132 5.745 17.296 9.31 4.156 3.558 6.715 7.693 6.715 12.257 0 4.563-2.559 8.698-6.715 12.256-4.164 3.565-10.098 6.704-17.296 9.31-14.408 5.217-34.212 8.414-56.012 8.414-21.801 0-41.605-3.197-56.013-8.414-7.198-2.606-13.131-5.745-17.295-9.31-4.157-3.558-6.716-7.693-6.716-12.256 0-4.564 2.559-8.699 6.716-12.257 4.164-3.565 10.097-6.704 17.295-9.31Z" clip-rule="evenodd"/><defs><radialGradient id="a" cx="0" cy="0" r="1" gradientTransform="rotate(-8.96 212.175 -536.096) scale(80.121 233.645)" gradientUnits="userSpaceOnUse"><stop stop-color="#F6F8FB" stop-opacity="0"/><stop offset=".121" stop-color="#F2F5F9"/><stop offset=".897" stop-color="#F2F5F9"/><stop offset="1" stop-color="#F6F8FB" stop-opacity="0"/></radialGradient><radialGradient id="b" cx="0" cy="0" r="1" gradientTransform="rotate(-20.71 149.48 -213.995) scale(120.471 263.007)" gradientUnits="userSpaceOnUse"><stop offset=".114" stop-color="#25E4F2" stop-opacity="0"/><stop offset=".476" stop-color="#25E4F2" stop-opacity=".67"/><stop offset=".744" stop-color="#1FDED0" stop-opacity=".7"/><stop offset=".838" stop-color="#1FDED0" stop-opacity="0"/></radialGradient></defs></svg>