<svg fill="none" viewBox="0 0 172 71" xmlns="http://www.w3.org/2000/svg" xmlns:xlink="http://www.w3.org/1999/xlink"><linearGradient id="a" gradientUnits="userSpaceOnUse" x1="79.587" x2="162.106" y1="50.752" y2="4.356"><stop offset="0" stop-color="#f6f8fb" stop-opacity="0"/><stop offset=".121" stop-color="#f2f5f9"/><stop offset=".75" stop-color="#f2f5f9"/><stop offset=".965" stop-color="#f6f8fb" stop-opacity="0"/></linearGradient><linearGradient id="b" gradientUnits="userSpaceOnUse" x1="-156.008" x2="146.866" y1="143.079" y2="177.826"><stop offset=".596" stop-color="#ffc100"/><stop offset=".898" stop-color="#ff7a3f" stop-opacity="0"/></linearGradient><linearGradient id="c" gradientUnits="userSpaceOnUse" x1="2.771" x2="154.7" y1="68.239" y2="88.709"><stop offset="0" stop-color="#ffc100" stop-opacity="0"/><stop offset=".414" stop-color="#ffc100" stop-opacity=".568"/><stop offset=".614" stop-color="#ffc100"/><stop offset=".898" stop-color="#ff8149" stop-opacity="0"/></linearGradient><linearGradient id="d" gradientUnits="userSpaceOnUse" x1="190.173" x2="100.645" y1="16.399" y2="-51.283"><stop offset="0" stop-color="#ff6826" stop-opacity="0"/><stop offset=".139" stop-color="#ff7336" stop-opacity="0"/><stop offset=".628" stop-color="#ffc100"/></linearGradient><radialGradient id="e" cx="0" cy="0" gradientTransform="matrix(15.69805 -47.31494 235.88516 78.26147 58.009 36.406)" gradientUnits="userSpaceOnUse" r="1"><stop offset=".121" stop-color="#f2f5f9"/><stop offset=".69" stop-color="#f2f5f9"/><stop offset=".866" stop-color="#f6f8fb" stop-opacity="0"/><stop offset=".95" stop-color="#f6f8fb" stop-opacity="0"/></radialGradient><g clip-rule="evenodd" fill-rule="evenodd"><path d="m61.678 29.862c-.557.23-1.017.429-1.378.594.14.065.307.136.5.212 1.343.532 3.472 1.13 6.004 1.743 4.9 1.184 11.066 2.366 15.306 3.177l70.989-31.504.9 1.847-71.307 31.622-81.446 33.447-.977-1.817 78.409-32.2-.5-.096c-3.78-.735-8.241-1.636-11.986-2.542l-.28-.068c-2.43-.593-4.598-1.202-6.06-1.78-.726-.288-1.43-.625-1.87-1.031-.224-.206-.508-.547-.532-1.01-.026-.514.278-.898.594-1.136.247-.186.632-.381 1.027-.567.427-.2.976-.437 1.625-.705 1.3-.537 3.044-1.215 5.12-1.998 4.153-1.567 9.669-3.57 15.683-5.73 3.462-1.244 7.09-2.54 10.72-3.838l.002-.001c8.99-3.214 17.994-6.432 24.542-8.869l.9 1.847c-6.564 2.442-15.594 5.67-24.591 8.887h-.002c-3.626 1.296-7.246 2.59-10.698 3.83-6.013 2.161-11.513 4.157-15.646 5.716-2.068.78-3.784 1.448-5.048 1.97zm-2.038.215.004.004-.006-.007.002.002z" fill="url(#e)"/><path d="m128.812 46.446c-1.275.488-2.436.839-3.333.9-.831.056-1.988-.038-3.328-.218-1.366-.183-3.008-.467-4.851-.824-3.687-.715-8.228-1.734-13.052-2.859-9.366-2.184-18.545-4.89-27.998-6.861l.534-1.955c9.472 1.976 18.671 4.686 28.056 6.875 4.819 1.123 9.321 2.133 12.957 2.838 1.819.352 3.407.626 4.702.8 1.32.177 2.253.238 2.801.2.482-.032 1.337-.257 2.59-.737 1.218-.466 2.703-1.13 4.403-1.956 3.397-1.65 7.58-3.914 12.064-6.449 7.599-4.295 16.01-9.338 22.834-13.43 1.226-.735 2.401-1.44 3.511-2.104l1.298 1.659a5391.09 5391.09 0 0 0 -3.504 2.099c-6.822 4.09-15.263 9.152-22.891 13.464-4.499 2.543-8.732 4.835-12.196 6.518-1.731.84-3.286 1.538-4.597 2.04z" fill="url(#a)"/><path d="m60.135 27.386c.36-.166.82-.364 1.375-.594 1.262-.522 2.976-1.189 5.04-1.969 4.126-1.558 9.617-3.553 15.62-5.712 3.446-1.24 7.061-2.533 10.681-3.83 8.982-3.213 17.997-6.44 24.55-8.88l-.898-1.846c-6.537 2.435-15.526 5.652-24.5 8.863a7115.248 7115.248 0 0 0 -10.705 3.837c-6.004 2.16-11.51 4.16-15.657 5.727-2.072.782-3.814 1.46-5.111 1.997-.648.268-1.195.505-1.622.705-.395.185-.779.38-1.026.566-.314.238-.618.622-.592 1.136.023.462.307.803.53 1.009.44.406 1.142.742 1.868 1.03 1.515.6 3.79 1.233 6.329 1.848 4.984 1.207 11.24 2.405 15.461 3.213l.297.057.49-1.96-.274-.052c-4.235-.811-10.44-2-15.363-3.192-2.528-.612-4.653-1.21-5.994-1.741a10.377 10.377 0 0 1 -.5-.212zm-.655-.376a.092.092 0 0 0 0 0z" fill="url(#b)"/><path d="m82.423 34.479 71.229-31.631-.9-1.848-70.911 31.513c-4.32-.827-10.64-2.039-15.58-3.246l-.619 1.934c3.967.97 8.792 1.938 12.767 2.708l-78.409 32.216.977 1.817 81.446-33.462z" fill="url(#c)"/><path d="m128.554 43.386c-1.275.488-2.436.839-3.333.9-1.572.107-4.206-.256-7.366-.853-3.216-.608-7.138-1.492-11.374-2.508-4.79-1.15-10.036-2.48-15.145-3.774-3.896-.988-7.713-1.956-11.186-2.807l.62-1.934c3.526.864 7.353 1.834 11.247 2.822 5.08 1.287 10.274 2.605 15.072 3.755 4.223 1.013 8.097 1.886 11.251 2.482 3.209.607 5.518.894 6.703.814.482-.033 1.336-.258 2.589-.737 1.218-.466 2.703-1.13 4.402-1.956 3.396-1.65 7.578-3.914 12.061-6.449 7.597-4.295 16.006-9.337 22.828-13.428 1.226-.736 2.401-1.44 3.511-2.104l1.297 1.658-3.503 2.099c-6.82 4.09-15.259 9.151-22.886 13.463-4.497 2.542-8.729 4.834-12.192 6.517-1.73.841-3.286 1.538-4.596 2.04z" fill="url(#d)"/></g></svg>