<svg fill="none" viewBox="0 0 177 75" xmlns="http://www.w3.org/2000/svg" xmlns:xlink="http://www.w3.org/1999/xlink"><linearGradient id="a" gradientUnits="userSpaceOnUse" x1="-9.53808" x2="-4.38982" y1="81.614" y2="-3.46044"><stop offset=".202924" stop-color="#f6fbf7" stop-opacity="0"/><stop offset=".302721" stop-color="#f6f8fb"/><stop offset=".770833" stop-color="#eef3fa"/><stop offset=".970684" stop-color="#eef3fa" stop-opacity="0"/></linearGradient><linearGradient id="b" gradientUnits="userSpaceOnUse" x1="79.7816" x2="67.5256" y1="80.9295" y2="44.5456"><stop offset=".202924" stop-color="#f6f8fb" stop-opacity="0"/><stop offset=".565962" stop-color="#f6f8fb"/><stop offset=".779906" stop-color="#eef3fa"/><stop offset="1" stop-color="#eef3fa"/></linearGradient><linearGradient id="c" gradientUnits="userSpaceOnUse" x1="16.697" x2="80.0411" y1="23.34" y2="9.51415"><stop offset=".116934" stop-color="#f6f8fb" stop-opacity="0"/><stop offset=".315365" stop-color="#f6f8fb"/><stop offset=".779906" stop-color="#eef3fa"/><stop offset="1" stop-color="#eef3fa"/></linearGradient><linearGradient id="d" gradientUnits="userSpaceOnUse" x1="-3.77219" x2="161.663" y1="73.0565" y2="-20.1442"><stop offset=".0610648" stop-color="#cf9eff" stop-opacity="0"/><stop offset=".281259" stop-color="#cf9eff" stop-opacity=".34"/><stop offset=".486626" stop-color="#cf9eff"/><stop offset=".902699" stop-color="#cf9eff"/><stop offset="1" stop-color="#cf9eff" stop-opacity="0"/></linearGradient><linearGradient id="e" gradientUnits="userSpaceOnUse" x1="93.3619" x2="47.1857" y1="26.4072" y2="-9.67591"><stop offset=".227656" stop-color="#cf9eff"/><stop offset=".53213" stop-color="#cf9eff" stop-opacity=".35"/><stop offset=".837782" stop-color="#cf9eff" stop-opacity="0"/></linearGradient><linearGradient id="f" gradientUnits="userSpaceOnUse" x1="89.0364" x2="97.2544" y1="25.0741" y2="72.6111"><stop offset=".236751" stop-color="#cf9eff"/><stop offset=".677083" stop-color="#cf9eff" stop-opacity="0"/></linearGradient><g clip-rule="evenodd" fill-rule="evenodd"><path d="m175.089 5.15023c.26.5315-.051 1.13654-.695 1.3514-2.854.95183-10.173 3.72017-18.548 6.88757-5.309 2.0078-11.042 4.1759-16.33 6.1434-26.818 9.9781-65.7496 24.733-95.6844 36.078-19.5947 7.4262-35.33439 13.3914-41.29822 15.5996-.63395.2347-1.37851.001-1.663009-.522-.284504-.5231-.001223-1.1374.632729-1.3721 5.99689-2.2204 21.7383-8.1863 41.3297-15.6115 29.9003-11.3321 68.7682-26.063 95.6492-36.0645 5.213-1.9398 10.899-4.09 16.189-6.0907 8.442-3.19259 15.877-6.00435 18.78-6.97249.644-.21486 1.377.04183 1.638.57332z" fill="url(#a)"/><path d="m92.8789 36.7819c.1769-.5544.865-.8856 1.537-.7397l-.3202 1.0039-.3202 1.0038c-.672-.1459-1.0734-.7136-.8966-1.268zm24.6741 3.7503c-5.32-.889-11.098-2.0099-15.554-2.9105-2.2309-.4509-4.1277-.8459-5.4665-1.1283-.6693-.1411-1.1991-.254-1.5613-.3316-.181-.0388-.3202-.0688-.4139-.089-.0469-.0101-.0824-.0178-.1061-.0229l-.0353-.0077c-.0001 0 0 0-.3202 1.0039-.3202 1.0038-.3202 1.0038-.32 1.0039l.037.008c.0243.0053.0605.0131.108.0233.0951.0205.2356.0508.4181.0899.365.0782.8979.1918 1.5706.3336 1.3454.2837 3.2504.6805 5.4906 1.1333 4.478.905 10.306 2.0358 15.682 2.9336l.029.0048.03.0037c1.043.1324 2.403.4324 3.253.8527.426.2109.544.3645.564.4042v.0018c-.005.018-.031.0959-.161.2349 0-.0004-.001.0004-.004.0027-.022.0179-.152.1236-.491.3403-.341.2181-.809.4971-1.399.834-1.179.6726-2.797 1.5495-4.755 2.5852-3.915 2.0703-9.146 4.7534-14.8417 7.6643-1.0837.5539-2.1844 1.116-3.2959 1.6837-10.5573 5.392-22.0969 11.2856-29.4949 15.363-.5778.3185-.7333.9631-.3473 1.4398.3859.4767 1.1672.605 1.745.2865 7.3589-4.0558 18.8586-9.9291 29.4283-15.3275 1.1088-.5663 2.2074-1.1274 3.2895-1.6806 5.694-2.9096 10.941-5.601 14.875-7.6814 1.965-1.0396 3.613-1.9321 4.828-2.6257.607-.3462 1.117-.6495 1.51-.9008.353-.2256.723-.4786.944-.7141.627-.6696.883-1.454.527-2.2341-.313-.6862-1.009-1.1506-1.627-1.4567-1.251-.6189-2.969-.9701-4.135-1.1202z" fill="url(#b)"/><path d="m25.6772 38.3817c-.2452-.5364.0831-1.1352.7332-1.3375 12.7912-3.9803 25.6474-7.8318 27.6573-8.365 4.4498-1.1806 7.8768-.7446 11.4564-.0231l.0518.0095c.0442.008.1104.0201.1991.0363.1774.0326.4449.0819.8065.1492.7232.1345 1.8231.341 3.332.6292 3.0178.5764 7.6723 1.4796 14.2236 2.7878.6754.1349 1.0904.6959.9269 1.2531-.1634.5572-.8434.8996-1.5188.7647-6.5439-1.3067-11.1902-2.2083-14.1992-2.783-1.5045-.2874-2.5997-.493-3.3181-.6266-.3592-.0669-.6242-.1157-.799-.1478-.0874-.016-.1523-.0279-.1952-.0357l-.078-.0141-.0148-.003c-3.398-.6856-6.2925-1.0311-10.1029-.0201-1.9375.514-14.7284 4.3445-27.5396 8.331-.6501.2024-1.376-.0685-1.6212-.6049z" fill="url(#c)"/><path d="m176.422 1.52281c.264.78531-.159 1.63576-.944 1.89953-4.84 1.62545-15.707 5.62497-29.809 10.90886-27.827 10.4268-68.2272 25.8464-99.2909 37.7024-20.3332 7.7606-36.66613 13.9943-42.85412 16.3017-.77622.2894-1.6401-.1052-1.92953-.8814-.28944-.7763.10518-1.6401.8814-1.9296 6.22352-2.3206 22.55815-8.5551 42.88775-16.3144 31.0265-11.8421 71.3584-27.2358 99.2534-37.688 14.085-5.27775 25.006-9.29794 29.905-10.943427.786-.263771 1.636.159022 1.9.944337z" fill="url(#d)"/><path d="m23.1832 36.3651c-.2477-.7905.1923-1.6321.9828-1.8799 13.2733-4.1595 26.6143-8.1844 28.6999-8.7416 4.6146-1.233 8.1618-.7762 11.8793-.0208l.0165.0033.0163.0037.3964.0892c.2629.0589.6541.1462 1.1663.2595 1.0243.2267 2.5323.5576 4.4648.9739 3.8651.8326 9.4277 2.0066 16.2145 3.3714.8122.1633 1.3382.9541 1.1749 1.7662-.1633.8122-.9541 1.3382-1.7663 1.1749-6.802-1.3679-12.3782-2.5447-16.2548-3.3798-1.9384-.4175-3.4519-.7496-4.4814-.9775-.5148-.1139-.9085-.2018-1.1739-.2612l-.3867-.087c-3.5216-.7148-6.5343-1.0748-10.4915-.0175-2.0105.5372-15.2832 4.5401-28.5772 8.7061-.7905.2477-1.6322-.1923-1.8799-.9829z" fill="url(#e)"/><path d="m94.192 34.296c.1689-.811.9634-1.3316 1.7744-1.1626l.1216.0252.3584.0739c.3144.0646.7764.1591 1.3658.2784 1.1789.2386 2.8668.5763 4.9018.9723 4.063.7908 9.504 1.8132 15.031 2.743 1.202.1559 2.987.5218 4.297 1.1742.617.3075 1.442.828 1.836 1.6979.219.4855.282 1.0348.141 1.5926-.135.5291-.429.973-.767 1.3371-.261.2802-.675.5614-1.033.7917-.411.2651-.944.5837-1.574.946-1.263.7261-2.975 1.6596-5.015 2.7462-4.082 2.1745-9.529 4.9876-15.436 8.0281-1.1235.5781-2.2633 1.1643-3.4138 1.756-10.9688 5.6418-22.8998 11.7785-30.5339 16.0158-.7243.402-1.6374.1407-2.0395-.5836-.402-.7243-.1407-1.6374.5836-2.0395 7.6789-4.2621 19.6554-10.4221 30.6099-16.0565 1.1536-.5933 2.2958-1.1808 3.4205-1.7596 5.9112-3.0422 11.3382-5.8456 15.3992-8.0085 2.032-1.0822 3.709-1.9977 4.93-2.6993.612-.3516 1.094-.6415 1.444-.8669.091-.0587.167-.1088.228-.1508-.036-.0195-.075-.04-.118-.0615-.87-.4335-2.28-.7482-3.369-.8875l-.03-.0038-.029-.0049c-5.571-.9368-11.051-1.9664-15.136-2.7615-2.043-.3976-3.7379-.7367-4.9229-.9766-.5925-.1199-1.0576-.215-1.3747-.2802l-.3624-.0747-.1248-.0259c-.0001-.0001-.0006-.0002.2534-1.2193l-.2534 1.2193c-.811-.169-1.3321-.9635-1.1632-1.7745z" fill="url(#f)"/></g></svg>