<svg viewBox="0 0 124 125" fill="none" xmlns="http://www.w3.org/2000/svg"><g clip-path="url(#a)"><g opacity=".38"><path d="M0 .996h124v124H0v-124Z" fill="#F0F9FF"/><path d="M9.863 10.86h104.273v104.272H9.863V10.859Z" fill="#D5EBFF"/><path d="M19.727 20.723h84.545v84.545H19.727V20.723Z" fill="#AED3F3"/></g><path d="M29.592 27.77h67.636v67.636H29.592V27.769Z" fill="#fff"/><path d="M28.887 26.36c0 14.731-.762 49.67-.762 75.033m-1.352-72.568c14.732 0 49.67.763 75.035.763M26.773 95.053c14.732 0 49.67.762 75.035.762M97.99 27.416c0 14.732-.762 49.67-.762 75.034m-40.57-22.369c-5.333 2.71-7.75 4.072-12.976 6.986m12.661-14.146c-5.277-2.816-5.283-3.204-10.664-5.815m17.528-1.922c-2.264-5.538-2.077-6.606-4.553-12.052" stroke="#4F5162" stroke-width="1.409" stroke-linecap="round"/><path d="M73.626 81.628c2.294.576 3.147 3.032 3.452 5.087.544-6.922 7.84-5.562 7.84 2.995 2.054-12.21 6.674-5.87 6.674 1.893 0 5.31-2.634 14.723-11.873 16.292-18.914 3.212-18.036-35.034-13.794-35.034 2.225-.092 3.853 5.247 3.853 19.084.578-1.939-.258-11.349 3.848-10.317Z" fill="#fff" stroke="#4F5162" stroke-width="1.409" stroke-linecap="round" stroke-linejoin="round"/></g><defs><clipPath id="a"><path fill="#fff" transform="translate(0 .996)" d="M0 0h124v124H0z"/></clipPath></defs></svg>