<svg fill="none" height="26" viewBox="0 0 707 637" width="28" xmlns="http://www.w3.org/2000/svg" xmlns:xlink="http://www.w3.org/1999/xlink"><mask id="a" height="282" maskUnits="userSpaceOnUse" width="277" x="4" y="355"><rect fill="#c4c4c4" height="282" mask="url(#b)" rx="21" stroke="#3dc7f6" stroke-width="98" width="277" x="4" y="355"/></mask><mask id="b" fill="#fff"><rect fill="#fff" height="282" rx="21" width="277" x="4" y="355"/></mask><mask id="c" height="282" maskUnits="userSpaceOnUse" width="277" x="427" y="181"><rect fill="#c4c4c4" height="282" mask="url(#d)" rx="21" stroke="#3dc7f6" stroke-width="98" width="277" x="427" y="181"/></mask><mask id="d" fill="#fff"><rect fill="#fff" height="282" rx="21" width="277" x="427" y="181"/></mask><mask id="e" height="282" maskUnits="userSpaceOnUse" width="277" x="76" y="3"><rect fill="#c4c4c4" height="282" mask="url(#f)" rx="21" stroke="#3dc7f6" stroke-width="98" width="277" x="76" y="3"/></mask><mask id="f" fill="#fff"><rect fill="#fff" height="282" rx="21" width="277" x="76" y="3"/></mask><g stroke="#3dc7f6"><g mask="url(#a)"><path d="m-63.8809-324.691 728.1579 738.448" stroke-width="2.5"/><g stroke-width="16.5"><path d="m-287.928-324.691 858.853 870.99"/><path d="m-175.902-324.691 802.84 814.187"/><path d="m-362.611-286.823 877.523 889.925"/><path d="m-399.951-154.28 821.511 833.122"/><path d="m-362.611-230.019 840.181 852.057"/><path d="m-399.951-97.4766 784.169 795.2526"/><path d="m-418.625-2.80322 746.828 757.38322"/><path d="m-381.277-192.149 840.181 852.056"/><path d="m-418.625-59.6074 784.169 795.2524"/><path d="m-437.291 35.0654 728.157 738.4486"/></g><path d="m-474.635 224.411 616.133 624.841" stroke-width="2.5"/><path d="m-437.291 148.673 653.475 662.71" stroke-width="16.5"/><path d="m-455.965 186.542 634.804 643.776" stroke-width="2.5"/><path d="m-493.305 262.281 597.463 605.906" stroke-width="2.5"/><path d="m-493.305 319.084 560.1214 568.037" stroke-width="2.5"/><path d="m-493.305 375.889 522.78 530.168" stroke-width="2.5"/><path d="m-455.965 72.9346 728.158 738.4484" stroke-width="16.5"/><path d="m-119.893-324.691 765.499 776.317" stroke-width="16.5"/><path d="m-343.938-324.691 877.523 889.925" stroke-width="16.5"/><path d="m-231.916-324.691 821.511 833.121" stroke-width="16.5"/><path d="m-7.86719-324.691 709.48619 719.514" stroke-width="2.5"/></g><rect height="278" rx="18" stroke-width="6" width="278" x="3" y="355"/><g mask="url(#c)"><path d="m359.119-498.691 728.161 738.448" stroke-width="2.5"/><g stroke-width="16.5"><path d="m135.072-498.691 858.853 870.99"/><path d="m247.098-498.691 802.842 814.187"/><path d="m60.3887-460.823 877.5233 889.925"/><path d="m23.0488-328.28 821.5112 833.122"/><path d="m60.3887-404.019 840.1813 852.057"/><path d="m23.0488-271.477 784.1692 795.253"/><path d="m4.375-176.803 746.828 757.383"/><path d="m41.7227-366.149 840.1813 852.056"/><path d="m4.375-233.607 784.169 795.252"/><path d="m-14.291-138.935 728.157 738.449"/></g><path d="m-51.6348 50.4111 616.1328 624.8409" stroke-width="2.5"/><path d="m-14.291-25.3271 653.475 662.7101" stroke-width="16.5"/><path d="m-32.9648 12.5425 634.8038 643.7755" stroke-width="2.5"/><path d="m-70.3047 88.2808 597.4627 605.9062" stroke-width="2.5"/><path d="m-70.3047 145.084 560.1207 568.037" stroke-width="2.5"/><path d="m-70.3047 201.889 522.7797 530.168" stroke-width="2.5"/><path d="m-32.9648-101.065 728.1578 738.448" stroke-width="16.5"/><path d="m303.107-498.691 765.503 776.317" stroke-width="16.5"/><path d="m79.0625-498.691 877.5225 889.925" stroke-width="16.5"/><path d="m191.084-498.691 821.506 833.121" stroke-width="16.5"/><path d="m415.133-498.691 709.487 719.514" stroke-width="2.5"/></g><rect height="278" rx="18" stroke-width="6" width="278" x="426" y="181"/><g mask="url(#e)"><path d="m8.11914-676.691 728.15786 738.4484" stroke-width="2.5"/><g stroke-width="16.5"><path d="m-215.928-676.691 858.853 870.99"/><path d="m-103.902-676.691 802.84 814.187"/><path d="m-290.611-638.823 877.523 889.925"/><path d="m-327.951-506.28 821.511 833.122"/><path d="m-290.611-582.019 840.181 852.057"/><path d="m-327.951-449.477 784.169 795.253"/><path d="m-346.625-354.803 746.828 757.383"/><path d="m-309.277-544.149 840.181 852.056"/><path d="m-346.625-411.607 784.169 795.252"/><path d="m-365.291-316.935 728.157 738.449"/></g><path d="m-402.635-127.589 616.133 624.841" stroke-width="2.5"/><path d="m-365.291-203.327 653.475 662.71" stroke-width="16.5"/><path d="m-383.965-165.458 634.804 643.776" stroke-width="2.5"/><path d="m-421.305-89.7192 597.463 605.9062" stroke-width="2.5"/><path d="m-421.305-32.916 560.121 568.037" stroke-width="2.5"/><path d="m-421.305 23.8887 522.78 530.1683" stroke-width="2.5"/><path d="m-383.965-279.065 728.158 738.448" stroke-width="16.5"/><path d="m-47.8926-676.691 765.4986 776.3174" stroke-width="16.5"/><path d="m-271.938-676.691 877.523 889.925" stroke-width="16.5"/><path d="m-159.916-676.691 821.511 833.121" stroke-width="16.5"/><path d="m64.1328-676.691 709.4862 719.5138" stroke-width="2.5"/></g><rect height="278" rx="18" stroke-width="6" width="278" x="75" y="3"/></g></svg>