<svg fill="none" viewBox="0 0 32 32" xmlns="http://www.w3.org/2000/svg"><rect fill="#526eb3" height="15.2105" opacity=".7" rx="2" width="13.5227" x="2" y="3"/><rect fill="#36559e" height="15.2105" rx="2" width="13.5227" x="3.93182" y="4.78943"/><path d="m7.79547 9.4696h1.78323v7.158h-1.78323z" fill="#fff"/><path d="m12.2535 9.46975h2.3776l-5.05244 4.95555v-2.2025z" fill="#fff"/><path d="m12.848 16.6276h2.3776l-3.5665-4.6802-1.1888 1.3766z" fill="#fff"/><g fill="#36559e"><path d="m22 15h6c.5523 0 1 .4477 1 1v2c0 .5523-.4477 1-1 1h-6c-.5523 0-1-.4477-1-1v-2c0-.5523.4477-1 1-1z"/><path d="m3.33333 24.3333h24.66667c.5523 0 1 .4477 1 1v2c0 .5523-.4477 1-1 1h-24.66667c-.55228 0-1-.4477-1-1v-2c0-.5523.44772-1 1-1z"/><path d="m23 6h5c.5523 0 1 .44772 1 1v2c0 .55228-.4477 1-1 1h-5c-.5523 0-1-.44772-1-1v-2c0-.55228.4477-1 1-1z"/></g></svg>