<svg fill="none" height="114" viewBox="0 0 1062 114" width="1062" xmlns="http://www.w3.org/2000/svg"><rect fill="#fff" height="114" rx="5" width="286" x="40"/><path d="m63.1619 63.0044h.8523c-.0391-1.0973-1.0512-1.9176-2.4574-1.9176-1.392 0-2.4858.8097-2.4858 2.0313 0 .9801.7102 1.5625 1.8466 1.8892l.8949.2557c.767.213 1.4488.4829 1.4488 1.2073 0 .7955-.767 1.3211-1.7755 1.3211-.8665 0-1.6335-.3836-1.7046-1.2074h-.9091c.0853 1.1932 1.0512 2.0028 2.6137 2.0028 1.6761 0 2.6278-.9233 2.6278-2.1022 0-1.3637-1.2926-1.804-2.0454-2.0029l-.7387-.1989c-.5397-.142-1.4062-.4261-1.4062-1.2073 0-.6961.6392-1.2074 1.6051-1.2074.8807 0 1.5483.419 1.6335 1.1363zm4.6582 0h-1.1648v-1.3068h-.838v1.3068h-.8239v.7103h.8239v3.4091c0 .9517.767 1.4062 1.4772 1.4062.3125 0 .5114-.0568.625-.0994l-.1704-.7529c-.071.0142-.1847.0426-.3693.0426-.3693 0-.7245-.1136-.7245-.8238v-3.1818h1.1648zm2.8658 5.5824c.9517 0 1.4488-.5113 1.6193-.8665h.0426v.7387h.8381v-3.5938c0-1.7329-1.321-1.9318-2.0171-1.9318-.8238 0-1.7613.2841-2.1875 1.2784l.7955.2841c.1846-.3977.6214-.8238 1.4204-.8238.7706 0 1.1506.4083 1.1506 1.1079v.0284c0 .4048-.4119.3693-1.4062.4972-1.0121.1314-2.1165.3551-2.1165 1.6051 0 1.0653.8238 1.6761 1.8608 1.6761zm.1278-.7528c-.6676 0-1.1505-.2983-1.1505-.8807 0-.6392.5823-.8381 1.2357-.9233.3552-.0426 1.3069-.142 1.4489-.3125v.7671c0 .6818-.5398 1.3494-1.5341 1.3494zm3.9018.625h.8381v-3.4517c0-.7387.5824-1.2784 1.3778-1.2784.2238 0 .4546.0426.5114.0568v-.8523c-.0959-.0071-.316-.0142-.4403-.0142-.6534 0-1.2216.3693-1.4205.9091h-.0568v-.8239h-.8097zm6.4347-5.4546h-1.1648v-1.3068h-.8381v1.3068h-.8238v.7103h.8238v3.4091c0 .9517.7671 1.4062 1.4773 1.4062.3125 0 .5114-.0568.625-.0994l-.1704-.7529c-.0711.0142-.1847.0426-.3693.0426-.3694 0-.7245-.1136-.7245-.8238v-3.1818h1.1648zm6.2891 5.5682c1.4772 0 2.4715-1.1221 2.4715-2.8125 0-1.7045-.9943-2.8267-2.4715-2.8267-1.4773 0-2.4716 1.1222-2.4716 2.8267 0 1.6904.9943 2.8125 2.4716 2.8125zm0-.7528c-1.1222 0-1.6336-.9659-1.6336-2.0597 0-1.0937.5114-2.0738 1.6336-2.0738 1.1221 0 1.6335.9801 1.6335 2.0738 0 1.0938-.5114 2.0597-1.6335 2.0597zm6.1798-4.8154h-1.2216v-.5539c0-.5398.2273-.8239.7813-.8239.2415 0 .3835.0568.4687.0852l.2415-.7244c-.1278-.0568-.3835-.1421-.7954-.1421-.7813 0-1.5341.4688-1.5341 1.4063v.7528h-.8807v.7103h.8807v4.7443h.838v-4.7443h1.2216zm3.6035 0h-1.2216v-.5539c0-.5398.2273-.8239.7813-.8239.2415 0 .3835.0568.4687.0852l.2415-.7244c-.1278-.0568-.3835-.1421-.7954-.1421-.7813 0-1.5341.4688-1.5341 1.4063v.7528h-.8807v.7103h.8807v4.7443h.838v-4.7443h1.2216zm5.2224 5.4546h.824l1.194-4.1904h.085l1.193 4.1904h.824l1.662-5.4546h-.881l-1.179 4.162h-.057l-1.15-4.162h-.895l-1.165 4.1762h-.057l-1.179-4.1762h-.88zm6.89 0h.838v-5.4546h-.838zm.426-6.3637c.327 0 .596-.2556.596-.5681s-.269-.5682-.596-.5682-.597.2557-.597.5682.27.5681.597.5681zm4.319.9091h-1.165v-1.3068h-.838v1.3068h-.824v.7103h.824v3.4091c0 .9517.767 1.4062 1.477 1.4062.313 0 .512-.0568.625-.0994l-.17-.7529c-.071.0142-.185.0426-.369.0426-.37 0-.725-.1136-.725-.8238v-3.1818h1.165zm2.216 2.1733c0-.9517.607-1.4914 1.434-1.4914.789 0 1.265.4971 1.265 1.3636v3.4091h.838v-3.4659c0-1.4027-.746-2.0597-1.861-2.0597-.859 0-1.35.3587-1.605.9233h-.071v-2.6704h-.838v7.2727h.838zm9.488 3.4091c.951 0 1.448-.5113 1.619-.8665h.042v.7387h.839v-3.5938c0-1.7329-1.321-1.9318-2.018-1.9318-.823 0-1.761.2841-2.187 1.2784l.795.2841c.185-.3977.622-.8238 1.421-.8238.77 0 1.15.4083 1.15 1.1079v.0284c0 .4048-.411.3693-1.406.4972-1.012.1314-2.116.3551-2.116 1.6051 0 1.0653.824 1.6761 1.861 1.6761zm.127-.7528c-.667 0-1.15-.2983-1.15-.8807 0-.6392.582-.8381 1.236-.9233.355-.0426 1.306-.142 1.448-.3125v.7671c0 .6818-.539 1.3494-1.534 1.3494zm10.578-3.608c-.262-.7741-.852-1.2926-1.931-1.2926-1.151 0-2.003.6534-2.003 1.5767 0 .7529.447 1.2571 1.449 1.4915l.909.2131c.55.1278.809.3906.809.767 0 .4688-.497.8523-1.278.8523-.685 0-1.115-.2948-1.264-.8807l-.796.1989c.196.9268.959 1.4204 2.074 1.4204 1.268 0 2.131-.6925 2.131-1.6335 0-.7599-.476-1.2393-1.449-1.4773l-.81-.1988c-.646-.1598-.937-.3765-.937-.7955 0-.4687.497-.8097 1.165-.8097.731 0 1.033.4049 1.178.7813zm1.361 4.233h.838v-5.4546h-.838zm.426-6.3637c.327 0 .597-.2556.597-.5681s-.27-.5682-.597-.5682c-.326 0-.596.2557-.596.5682s.27.5681.596.5681zm1.947 6.3637h.838v-3.4091c0-.799.583-1.3636 1.236-1.3636.636 0 1.08.4154 1.08 1.0369v3.7358h.852v-3.5512c0-.7031.44-1.2215 1.207-1.2215.597 0 1.108.316 1.108 1.1221v3.6506h.838v-3.6506c0-1.2819-.688-1.875-1.661-1.875-.782 0-1.353.3587-1.634.9233h-.057c-.27-.5824-.746-.9233-1.463-.9233-.71 0-1.236.3409-1.463.9233h-.071v-.8523h-.81zm8.692 2.0454h.838v-2.8835h.071c.185.2983.54.9517 1.591.9517 1.363 0 2.315-1.0937 2.315-2.8267 0-1.7187-.952-2.8125-2.329-2.8125-1.066 0-1.392.6534-1.577.9375h-.1v-.8665h-.809zm.824-4.7727c0-1.2216.539-2.0454 1.562-2.0454 1.065 0 1.591.8948 1.591 2.0454 0 1.1648-.54 2.0881-1.591 2.0881-1.008 0-1.562-.8523-1.562-2.0881zm6.108-4.5454h-.838v7.2727h.838zm3.821 7.3863c1.108 0 1.918-.554 2.174-1.3778l-.81-.2273c-.213.5682-.707.8523-1.364.8523-.983 0-1.661-.6357-1.701-1.804h3.96v-.3551c0-2.0313-1.207-2.7273-2.344-2.7273-1.477 0-2.457 1.1648-2.457 2.8409 0 1.6762.966 2.7983 2.542 2.7983zm-1.701-3.2812c.057-.8488.657-1.6051 1.616-1.6051.909 0 1.492.6818 1.492 1.6051zm8.161 3.1676h2.628c1.719 0 2.429-.8381 2.429-1.9318 0-1.1506-.796-1.7756-1.463-1.8182v-.071c.625-.1705 1.179-.5824 1.179-1.5199 0-1.0654-.711-1.9318-2.23-1.9318h-2.543zm.881-.7813v-2.5284h1.789c.952 0 1.549.6392 1.549 1.3779 0 .6392-.441 1.1505-1.591 1.1505zm0-3.2954v-2.4148h1.662c.966 0 1.392.5114 1.392 1.1506 0 .767-.625 1.2642-1.421 1.2642zm7.725 4.1903c1.477 0 2.472-1.1221 2.472-2.8125 0-1.7045-.995-2.8267-2.472-2.8267s-2.471 1.1222-2.471 2.8267c0 1.6904.994 2.8125 2.471 2.8125zm0-.7528c-1.122 0-1.633-.9659-1.633-2.0597 0-1.0937.511-2.0738 1.633-2.0738s1.634.9801 1.634 2.0738c0 1.0938-.512 2.0597-1.634 2.0597zm5.967.7528c1.477 0 2.472-1.1221 2.472-2.8125 0-1.7045-.995-2.8267-2.472-2.8267s-2.472 1.1222-2.472 2.8267c0 1.6904.995 2.8125 2.472 2.8125zm0-.7528c-1.122 0-1.634-.9659-1.634-2.0597 0-1.0937.512-2.0738 1.634-2.0738s1.633.9801 1.633 2.0738c0 1.0938-.511 2.0597-1.633 2.0597zm4.589-6.6335h-.838v7.2727h.838zm3.822 7.3863c1.108 0 1.917-.554 2.173-1.3778l-.81-.2273c-.213.5682-.706.8523-1.363.8523-.984 0-1.662-.6357-1.701-1.804h3.959v-.3551c0-2.0313-1.207-2.7273-2.343-2.7273-1.478 0-2.458 1.1648-2.458 2.8409 0 1.6762.966 2.7983 2.543 2.7983zm-1.701-3.2812c.057-.8488.657-1.6051 1.616-1.6051.909 0 1.491.6818 1.491 1.6051zm6.839 3.2954c.952 0 1.449-.5113 1.62-.8665h.042v.7387h.838v-3.5938c0-1.7329-1.321-1.9318-2.017-1.9318-.824 0-1.761.2841-2.187 1.2784l.795.2841c.185-.3977.622-.8238 1.421-.8238.77 0 1.15.4083 1.15 1.1079v.0284c0 .4048-.412.3693-1.406.4972-1.012.1314-2.116.3551-2.116 1.6051 0 1.0653.823 1.6761 1.86 1.6761zm.128-.7528c-.667 0-1.15-.2983-1.15-.8807 0-.6392.582-.8381 1.235-.9233.356-.0426 1.307-.142 1.449-.3125v.7671c0 .6818-.54 1.3494-1.534 1.3494zm4.74-2.6563c0-.9517.59-1.4914 1.392-1.4914.778 0 1.25.5078 1.25 1.3636v3.4091h.838v-3.4659c0-1.3921-.742-2.0597-1.846-2.0597-.824 0-1.336.3693-1.591.9233h-.071v-.8523h-.81v5.4546h.838zm10.253-2.1733h-1.222v-.5539c0-.5398.228-.8239.782-.8239.241 0 .383.0568.468.0852l.242-.7244c-.128-.0568-.384-.1421-.795-.1421-.782 0-1.535.4688-1.535 1.4063v.7528h-.88v.7103h.88v4.7443h.838v-4.7443h1.222zm2.013-1.8181h-.838v7.2727h.838zm3.14 7.4005c.951 0 1.449-.5113 1.619-.8665h.043v.7387h.838v-3.5938c0-1.7329-1.321-1.9318-2.017-1.9318-.824 0-1.762.2841-2.188 1.2784l.796.2841c.184-.3977.621-.8238 1.42-.8238.771 0 1.151.4083 1.151 1.1079v.0284c0 .4048-.412.3693-1.407.4972-1.012.1314-2.116.3551-2.116 1.6051 0 1.0653.824 1.6761 1.861 1.6761zm.128-.7528c-.668 0-1.151-.2983-1.151-.8807 0-.6392.582-.8381 1.236-.9233.355-.0426 1.307-.142 1.449-.3125v.7671c0 .6818-.54 1.3494-1.534 1.3494zm6.103 2.7841c1.307 0 2.358-.5966 2.358-2.0029v-5.6108h-.81v.8665h-.085c-.184-.2841-.525-.9375-1.591-.9375-1.378 0-2.329 1.0938-2.329 2.7699 0 1.7045.994 2.6705 2.315 2.6705 1.065 0 1.406-.625 1.591-.9233h.071v1.1079c0 .9091-.639 1.321-1.52 1.321-.991 0-1.339-.522-1.562-.8238l-.668.4687c.341.5718 1.012 1.0938 2.23 1.0938zm-.028-2.9972c-1.051 0-1.591-.7954-1.591-1.9318 0-1.108.525-2.0028 1.591-2.0028 1.022 0 1.562.8238 1.562 2.0028 0 1.2074-.554 1.9318-1.562 1.9318zm5.17-.1562h-.909l-.043.3977c-.103.9624-.305 1.9212-.397 2.3722h.639c.17-.483.533-1.5768.653-2.3864zm5.601.9943h.824l1.193-4.1904h.085l1.194 4.1904h.824l1.661-5.4546h-.88l-1.179 4.162h-.057l-1.151-4.162h-.894l-1.165 4.1762h-.057l-1.179-4.1762h-.881zm7.727-3.2813c0-.9517.608-1.4914 1.435-1.4914.788 0 1.264.4971 1.264 1.3636v3.4091h.838v-3.4659c0-1.4027-.745-2.0597-1.86-2.0597-.86 0-1.35.3587-1.606.9233h-.071v-2.6704h-.838v7.2727h.838zm7.358 3.3949c1.107 0 1.917-.554 2.173-1.3778l-.81-.2273c-.213.5682-.706.8523-1.363.8523-.984 0-1.662-.6357-1.701-1.804h3.959v-.3551c0-2.0313-1.207-2.7273-2.344-2.7273-1.477 0-2.457 1.1648-2.457 2.8409 0 1.6762.966 2.7983 2.543 2.7983zm-1.701-3.2812c.056-.8488.657-1.6051 1.615-1.6051.909 0 1.492.6818 1.492 1.6051zm5.234 3.1676h.838v-3.4517c0-.7387.582-1.2784 1.378-1.2784.224 0 .454.0426.511.0568v-.8523c-.096-.0071-.316-.0142-.44-.0142-.654 0-1.222.3693-1.421.9091h-.056v-.8239h-.81zm5.842.1136c1.107 0 1.917-.554 2.173-1.3778l-.81-.2273c-.213.5682-.706.8523-1.363.8523-.984 0-1.662-.6357-1.701-1.804h3.959v-.3551c0-2.0313-1.207-2.7273-2.344-2.7273-1.477 0-2.457 1.1648-2.457 2.8409 0 1.6762.966 2.7983 2.543 2.7983zm-1.701-3.2812c.056-.8488.657-1.6051 1.615-1.6051.909 0 1.492.6818 1.492 1.6051zm8.586 5.213c.757 0 1.289-.4012 1.605-1.25l2.323-6.2358-.916-.0142-1.506 4.3466h-.057l-1.506-4.3466h-.909l2.017 5.483-.156.4261c-.305.831-.682.9091-1.293.7529l-.213.7386c.086.0426.327.0994.611.0994zm7.057-1.9318c1.477 0 2.472-1.1221 2.472-2.8125 0-1.7045-.995-2.8267-2.472-2.8267s-2.471 1.1222-2.471 2.8267c0 1.6904.994 2.8125 2.471 2.8125zm0-.7528c-1.122 0-1.633-.9659-1.633-2.0597 0-1.0937.511-2.0738 1.633-2.0738s1.634.9801 1.634 2.0738c0 1.0938-.512 2.0597-1.634 2.0597zm7.189-1.5909c0 1.0227-.782 1.4914-1.407 1.4914-.696 0-1.193-.5113-1.193-1.3068v-3.4091h-.838v3.4659c0 1.3921.739 2.0597 1.761 2.0597.824 0 1.364-.4403 1.62-.9943h.057v.9233h.838v-5.4546h-.838zm7.401 2.3437c1.207 0 2.003-.7386 2.145-1.7045h-.838c-.156.5966-.654.9517-1.307.9517-.994 0-1.633-.8239-1.633-2.0881 0-1.2358.653-2.0454 1.633-2.0454.739 0 1.179.4545 1.307.9517h.838c-.142-1.0228-1.009-1.7046-2.159-1.7046-1.477 0-2.458 1.1648-2.458 2.8267 0 1.6335.938 2.8125 2.472 2.8125zm4.975.0142c.952 0 1.449-.5113 1.619-.8665h.043v.7387h.838v-3.5938c0-1.7329-1.321-1.9318-2.017-1.9318-.824 0-1.761.2841-2.187 1.2784l.795.2841c.185-.3977.622-.8238 1.421-.8238.77 0 1.15.4083 1.15 1.1079v.0284c0 .4048-.412.3693-1.406.4972-1.012.1314-2.117.3551-2.117 1.6051 0 1.0653.824 1.6761 1.861 1.6761zm.128-.7528c-.668 0-1.151-.2983-1.151-.8807 0-.6392.583-.8381 1.236-.9233.355-.0426 1.307-.142 1.449-.3125v.7671c0 .6818-.54 1.3494-1.534 1.3494zm4.74-2.6563c0-.9517.589-1.4914 1.392-1.4914.778 0 1.25.5078 1.25 1.3636v3.4091h.838v-3.4659c0-1.3921-.742-2.0597-1.847-2.0597-.823 0-1.335.3693-1.59.9233h-.072v-.8523h-.809v5.4546h.838zm-231.8245 19.0512c0 1.0227-.7812 1.4914-1.4062 1.4914-.6961 0-1.1932-.5113-1.1932-1.3068v-3.4091h-.8381v3.4659c0 1.3921.7386 2.0597 1.7614 2.0597.8238 0 1.3636-.4403 1.6193-.9943h.0568v.9233h.8381v-5.4546h-.8381zm6.2367-2.0029c-.2628-.7741-.8523-1.2926-1.9318-1.2926-1.1506 0-2.0029.6534-2.0029 1.5767 0 .7529.4475 1.2571 1.4489 1.4915l.9091.2131c.5504.1278.8096.3906.8096.767 0 .4688-.4971.8523-1.2784.8523-.6853 0-1.115-.2948-1.2642-.8807l-.7954.1989c.1953.9268.9588 1.4204 2.0738 1.4204 1.2678 0 2.1307-.6925 2.1307-1.6335 0-.7599-.4758-1.2393-1.4488-1.4773l-.8097-.1988c-.6463-.1598-.9375-.3765-.9375-.7955 0-.4687.4972-.8097 1.1648-.8097.7315 0 1.0333.4049 1.1789.7813zm3.6479 4.3466c1.1079 0 1.9176-.554 2.1733-1.3778l-.8097-.2273c-.213.5682-.7067.8523-1.3636.8523-.9837 0-1.6619-.6357-1.701-1.804h3.9595v-.3551c0-2.0313-1.2074-2.7273-2.3437-2.7273-1.4773 0-2.4574 1.1648-2.4574 2.8409 0 1.6762.9659 2.7983 2.5426 2.7983zm-1.701-3.2812c.0568-.8488.657-1.6051 1.6158-1.6051.9091 0 1.4914.6818 1.4914 1.6051zm8.0469 3.1676h.838v-5.4546h-.838zm.4261-6.3637c.3267 0 .5966-.2556.5966-.5681s-.2699-.5682-.5966-.5682-.5966.2557-.5966.5682.2699.5681.5966.5681zm4.3191.9091h-1.1648v-1.3068h-.8381v1.3068h-.8238v.7103h.8238v3.4091c0 .9517.7671 1.4062 1.4773 1.4062.3125 0 .5114-.0568.625-.0994l-.1704-.7529c-.0711.0142-.1847.0426-.3694.0426-.3693 0-.7244-.1136-.7244-.8238v-3.1818h1.1648zm6.4453 0h-1.1648v-1.3068h-.8381v1.3068h-.8238v.7103h.8238v3.4091c0 .9517.7671 1.4062 1.4773 1.4062.3125 0 .5114-.0568.625-.0994l-.1704-.7529c-.0711.0142-.1847.0426-.3694.0426-.3693 0-.7244-.1136-.7244-.8238v-3.1818h1.1648zm3.418 5.5682c1.4772 0 2.4715-1.1221 2.4715-2.8125 0-1.7045-.9943-2.8267-2.4715-2.8267-1.4773 0-2.4716 1.1222-2.4716 2.8267 0 1.6904.9943 2.8125 2.4716 2.8125zm0-.7528c-1.1222 0-1.6336-.9659-1.6336-2.0597 0-1.0937.5114-2.0738 1.6336-2.0738 1.1221 0 1.6335.9801 1.6335 2.0738 0 1.0938-.5114 2.0597-1.6335 2.0597zm8.9355-4.8154h-1.165v-1.3068h-.838v1.3068h-.8237v.7103h.8237v3.4091c0 .9517.767 1.4062 1.477 1.4062.313 0 .512-.0568.625-.0994l-.17-.7529c-.071.0142-.185.0426-.369.0426-.37 0-.725-.1136-.725-.8238v-3.1818h1.165zm3.418 5.5682c1.477 0 2.472-1.1221 2.472-2.8125 0-1.7045-.995-2.8267-2.472-2.8267s-2.472 1.1222-2.472 2.8267c0 1.6904.995 2.8125 2.472 2.8125zm0-.7528c-1.122 0-1.634-.9659-1.634-2.0597 0-1.0937.512-2.0738 1.634-2.0738s1.633.9801 1.633 2.0738c0 1.0938-.511 2.0597-1.633 2.0597zm5.953 2.7983c1.306 0 2.358-.5966 2.358-2.0029v-5.6108h-.81v.8665h-.085c-.185-.2841-.526-.9375-1.591-.9375-1.378 0-2.33 1.0938-2.33 2.7699 0 1.7045.994 2.6705 2.316 2.6705 1.065 0 1.406-.625 1.59-.9233h.071v1.1079c0 .9091-.639 1.321-1.519 1.321-.991 0-1.339-.522-1.563-.8238l-.668.4687c.341.5718 1.013 1.0938 2.231 1.0938zm-.029-2.9972c-1.051 0-1.591-.7954-1.591-1.9318 0-1.108.526-2.0028 1.591-2.0028 1.023 0 1.563.8238 1.563 2.0028 0 1.2074-.554 1.9318-1.563 1.9318zm6.122 2.9972c1.307 0 2.358-.5966 2.358-2.0029v-5.6108h-.809v.8665h-.086c-.184-.2841-.525-.9375-1.591-.9375-1.377 0-2.329 1.0938-2.329 2.7699 0 1.7045.994 2.6705 2.315 2.6705 1.066 0 1.407-.625 1.591-.9233h.071v1.1079c0 .9091-.639 1.321-1.52 1.321-.99 0-1.338-.522-1.562-.8238l-.668.4687c.341.5718 1.012 1.0938 2.23 1.0938zm-.028-2.9972c-1.051 0-1.591-.7954-1.591-1.9318 0-1.108.526-2.0028 1.591-2.0028 1.023 0 1.562.8238 1.562 2.0028 0 1.2074-.554 1.9318-1.562 1.9318zm4.758-6.4346h-.838v7.2727h.838zm3.822 7.3863c1.108 0 1.918-.554 2.174-1.3778l-.81-.2273c-.213.5682-.707.8523-1.364.8523-.983 0-1.662-.6357-1.701-1.804h3.96v-.3551c0-2.0313-1.208-2.7273-2.344-2.7273-1.477 0-2.457 1.1648-2.457 2.8409 0 1.6762.966 2.7983 2.542 2.7983zm-1.701-3.2812c.057-.8488.657-1.6051 1.616-1.6051.909 0 1.492.6818 1.492 1.6051zm10.476-2.287h-1.221v-.5539c0-.5398.227-.8239.781-.8239.241 0 .383.0568.469.0852l.241-.7244c-.128-.0568-.383-.1421-.795-.1421-.782 0-1.534.4688-1.534 1.4063v.7528h-.881v.7103h.881v4.7443h.838v-4.7443h1.221zm3.237 5.5682c1.108 0 1.918-.554 2.173-1.3778l-.809-.2273c-.213.5682-.707.8523-1.364.8523-.984 0-1.662-.6357-1.701-1.804h3.96v-.3551c0-2.0313-1.208-2.7273-2.344-2.7273-1.477 0-2.458 1.1648-2.458 2.8409 0 1.6762.966 2.7983 2.543 2.7983zm-1.701-3.2812c.057-.8488.657-1.6051 1.616-1.6051.909 0 1.491.6818 1.491 1.6051zm6.84 3.2954c.951 0 1.448-.5113 1.619-.8665h.042v.7387h.839v-3.5938c0-1.7329-1.321-1.9318-2.017-1.9318-.824 0-1.762.2841-2.188 1.2784l.795.2841c.185-.3977.622-.8238 1.421-.8238.771 0 1.15.4083 1.15 1.1079v.0284c0 .4048-.411.3693-1.406.4972-1.012.1314-2.116.3551-2.116 1.6051 0 1.0653.824 1.6761 1.861 1.6761zm.127-.7528c-.667 0-1.15-.2983-1.15-.8807 0-.6392.582-.8381 1.236-.9233.355-.0426 1.306-.142 1.448-.3125v.7671c0 .6818-.539 1.3494-1.534 1.3494zm6.274-4.8296h-1.164v-1.3068h-.838v1.3068h-.824v.7103h.824v3.4091c0 .9517.767 1.4062 1.477 1.4062.312 0 .511-.0568.625-.0994l-.171-.7529c-.071.0142-.184.0426-.369.0426-.369 0-.724-.1136-.724-.8238v-3.1818h1.164zm4.699 3.2245c0 1.0227-.782 1.4914-1.407 1.4914-.696 0-1.193-.5113-1.193-1.3068v-3.4091h-.838v3.4659c0 1.3921.739 2.0597 1.761 2.0597.824 0 1.364-.4403 1.62-.9943h.057v.9233h.838v-5.4546h-.838zm2.373 2.2301h.838v-3.4517c0-.7387.582-1.2784 1.377-1.2784.224 0 .455.0426.512.0568v-.8523c-.096-.0071-.316-.0142-.441-.0142-.653 0-1.221.3693-1.42.9091h-.057v-.8239h-.809zm5.841.1136c1.108 0 1.918-.554 2.173-1.3778l-.809-.2273c-.213.5682-.707.8523-1.364.8523-.983 0-1.662-.6357-1.701-1.804h3.96v-.3551c0-2.0313-1.208-2.7273-2.344-2.7273-1.477 0-2.457 1.1648-2.457 2.8409 0 1.6762.965 2.7983 2.542 2.7983zm-1.701-3.2812c.057-.8488.657-1.6051 1.616-1.6051.909 0 1.491.6818 1.491 1.6051zm9.098-1.0654c-.263-.7741-.852-1.2926-1.932-1.2926-1.15 0-2.002.6534-2.002 1.5767 0 .7529.447 1.2571 1.448 1.4915l.909.2131c.551.1278.81.3906.81.767 0 .4688-.497.8523-1.278.8523-.686 0-1.115-.2948-1.264-.8807l-.796.1989c.195.9268.959 1.4204 2.074 1.4204 1.268 0 2.131-.6925 2.131-1.6335 0-.7599-.476-1.2393-1.449-1.4773l-.81-.1988c-.646-.1598-.937-.3765-.937-.7955 0-.4687.497-.8097 1.164-.8097.732 0 1.034.4049 1.179.7813zm10.424.5966c0-2.3011-1.35-3.7358-3.211-3.7358-1.86 0-3.21 1.4347-3.21 3.7358 0 2.3012 1.35 3.7358 3.21 3.7358 1.861 0 3.211-1.4346 3.211-3.7358zm-.853 0c0 1.8892-1.037 2.912-2.358 2.912s-2.358-1.0228-2.358-2.912 1.037-2.9119 2.358-2.9119 2.358 1.0227 2.358 2.9119zm8.101-3.6363h-.867v5.7244h-.071l-3.977-5.7244h-.853v7.2727h.881v-5.7102h.071l3.963 5.7102h.853zm4.219-.341h-.767l-2.344 8.7074h.767zm7.244 3.9773c0-2.3011-1.35-3.7358-3.211-3.7358-1.86 0-3.21 1.4347-3.21 3.7358 0 2.3012 1.35 3.7358 3.21 3.7358 1.861 0 3.211-1.4346 3.211-3.7358zm-.853 0c0 1.8892-1.037 2.912-2.358 2.912s-2.358-1.0228-2.358-2.912 1.037-2.9119 2.358-2.9119 2.358 1.0227 2.358 2.9119zm2.333 3.6364h.881v-3.2529h3.154v-.7812h-3.154v-2.4574h3.48v-.7812h-4.361zm5.87 0h.88v-3.2529h3.154v-.7812h-3.154v-2.4574h3.48v-.7812h-4.36zm6.024.0568c.352 0 .639-.2876.639-.6392s-.287-.6392-.639-.6392c-.351 0-.639.2876-.639.6392s.288.6392.639.6392z" fill="#22222a"/><path d="m63.838 31.5531h-1.7102l-2.9034 1.8977v1.6818l2.7841-1.8181h.0682v9.875h1.7613zm3.6236 11.7443c.6193 0 1.1363-.5057 1.1363-1.1364 0-.6193-.517-1.1306-1.1363-1.1306-.625 0-1.1364.5113-1.1364 1.1306 0 .6307.5114 1.1364 1.1364 1.1364zm17.2399-7.9602c-.3977-2.4887-2.3466-3.9432-4.8068-3.9432-3.0114 0-5.233 2.2557-5.233 5.9773s2.2103 5.9772 5.233 5.9772c2.5568 0 4.4261-1.6022 4.8068-3.9034l-1.7727-.0056c-.3012 1.4886-1.5512 2.3068-3.0227 2.3068-1.9944 0-3.5-1.5284-3.5-4.375 0-2.8239 1.5-4.375 3.5056-4.375 1.483 0 2.7273.8352 3.0171 2.3409zm1.9545 7.8523h1.6989v-5.3296c0-1.142.8806-1.9659 2.0852-1.9659.3523 0 .75.0625.8864.1023v-1.625c-.1705-.0228-.5057-.0398-.7216-.0398-1.0228 0-1.8978.5795-2.2159 1.517h-.091v-1.3863h-1.642zm9.5795.1761c1.9034 0 3.25-.9375 3.6364-2.358l-1.608-.2897c-.3068.8238-1.0455 1.2443-2.0114 1.2443-1.4545 0-2.4318-.9432-2.4772-2.625h6.2045v-.6023c0-3.1534-1.8864-4.3864-3.8636-4.3864-2.4318 0-4.0341 1.8523-4.0341 4.5341 0 2.7103 1.5795 4.483 4.1534 4.483zm-2.4546-5.3011c.0682-1.2387.966-2.3125 2.3466-2.3125 1.3182 0 2.1819.9772 2.1875 2.3125zm10.6141 5.3181c1.443 0 2.255-.7329 2.579-1.3863h.068v1.1932h1.659v-5.7955c0-2.5398-2-3.0455-3.386-3.0455-1.58 0-3.034.6364-3.602 2.2273l1.596.3637c.25-.6194.887-1.216 2.029-1.216 1.096 0 1.659.5739 1.659 1.5625v.0398c0 .6193-.637.608-2.205.7898-1.653.1932-3.346.625-3.346 2.6079 0 1.716 1.289 2.6591 2.949 2.6591zm.369-1.3636c-.96 0-1.654-.4318-1.654-1.2727 0-.9091.807-1.233 1.79-1.3637.551-.0738 1.858-.2216 2.102-.4659v1.125c0 1.0341-.823 1.9773-2.238 1.9773zm10.264-7.5568h-1.79v-2.0909h-1.699v2.0909h-1.278v1.3636h1.278v5.1534c-.005 1.5853 1.205 2.3523 2.546 2.3239.54-.0057.903-.108 1.102-.1818l-.307-1.4034c-.113.0227-.324.0738-.596.0738-.551 0-1.046-.1818-1.046-1.1647v-4.8012h1.79zm5.537 8.9034c1.903 0 3.25-.9375 3.636-2.358l-1.608-.2897c-.307.8238-1.045 1.2443-2.011 1.2443-1.455 0-2.432-.9432-2.477-2.625h6.204v-.6023c0-3.1534-1.886-4.3864-3.863-4.3864-2.432 0-4.035 1.8523-4.035 4.5341 0 2.7103 1.58 4.483 4.154 4.483zm-2.455-5.3011c.068-1.2387.966-2.3125 2.347-2.3125 1.318 0 2.182.9772 2.187 2.3125zm14.838 5.3181c1.443 0 2.256-.7329 2.58-1.3863h.068v1.1932h1.659v-5.7955c0-2.5398-2-3.0455-3.386-3.0455-1.58 0-3.034.6364-3.603 2.2273l1.597.3637c.25-.6194.886-1.216 2.028-1.216 1.097 0 1.66.5739 1.66 1.5625v.0398c0 .6193-.637.608-2.205.7898-1.653.1932-3.347.625-3.347 2.6079 0 1.716 1.29 2.6591 2.949 2.6591zm.37-1.3636c-.961 0-1.654-.4318-1.654-1.2727 0-.9091.807-1.233 1.79-1.3637.551-.0738 1.858-.2216 2.102-.4659v1.125c0 1.0341-.824 1.9773-2.238 1.9773zm10.551 1.1705h1.755v-5.0739h4.943v-1.5057h-4.943v-3.5454h5.461v-1.5114h-7.216zm10.927-11.6364h-1.699v11.6364h1.699zm4.815 11.8295c1.444 0 2.256-.7329 2.58-1.3863h.068v1.1932h1.659v-5.7955c0-2.5398-2-3.0455-3.386-3.0455-1.58 0-3.034.6364-3.602 2.2273l1.596.3637c.25-.6194.887-1.216 2.029-1.216 1.096 0 1.659.5739 1.659 1.5625v.0398c0 .6193-.637.608-2.205.7898-1.653.1932-3.346.625-3.346 2.6079 0 1.716 1.289 2.6591 2.948 2.6591zm.37-1.3636c-.961 0-1.654-.4318-1.654-1.2727 0-.9091.807-1.233 1.79-1.3637.551-.0738 1.858-.2216 2.102-.4659v1.125c0 1.0341-.824 1.9773-2.238 1.9773zm9.849 4.625c2.222 0 3.938-1.017 3.938-3.2614v-8.9204h-1.665v1.4148h-.125c-.301-.5398-.904-1.5285-2.529-1.5285-2.108 0-3.659 1.6648-3.659 4.4432 0 2.7841 1.586 4.2671 3.648 4.2671 1.602 0 2.222-.9034 2.528-1.4603h.108v1.716c0 1.3693-.937 1.9602-2.227 1.9602-1.415 0-1.966-.7102-2.267-1.2102l-1.46.6022c.46 1.0682 1.625 1.9773 3.71 1.9773zm-.017-4.9943c-1.517 0-2.307-1.1648-2.307-2.8807 0-1.6761.773-2.9773 2.307-2.9773 1.483 0 2.278 1.2103 2.278 2.9773 0 1.8011-.812 2.8807-2.278 2.8807z" fill="#22222a"/><path d="m18.0422 84.9642.4533-.2111zm5.7282-3.7808.4533-.211zm-16.83132-36.1557-.45329.211zm.59625 1.3378-.4949-.0713-.0212.1473.06281.135zm10.66957 22.9195-.4533.211.5942 1.2764.344-1.3652zm24.7951-16.3655.4673.1779.0751-.1974-.0891-.1915zm-10.6696-22.9195.4533-.211-.5423-1.1649-.3877 1.225zm-29.65292 14.0904c-.87196.5755-1.52736 1.3993-1.88114 2.2727-.351895.8688-.42159 1.8339-.038711 2.6564l.906581-.4221c-.23427-.5032-.22059-1.1686.05899-1.8589.27769-.6856.80186-1.3493 1.50514-1.8135zm-1.919851 4.9291 16.831271 36.1557.9066-.4221-16.83129-36.1557zm16.831271 36.1557c.3903.8384 1.1537 1.3185 2.0225 1.4318.8599.1122 1.8211-.1304 2.6924-.7055l-.5508-.8346c-.7039.4646-1.4272.6248-2.0123.5485-.5762-.0752-1.0183-.3749-1.2452-.8623zm4.7149.7263c.872-.5756 1.5274-1.3993 1.8812-2.2728.3519-.8687.4216-1.8338.0387-2.6563l-.9066.422c.2343.5033.2206 1.1687-.059 1.8589-.2777.6856-.8018 1.3494-1.5051 1.8136zm1.9199-4.9291-16.83133-36.1557-.90658.422 16.83131 36.1557zm-16.83133-36.1557c-.39028-.8384-1.15367-1.3185-2.02241-1.4318-.8599-.1122-1.82114.1304-2.69248.7055l.55086.8346c.70391-.4646 1.42718-.6249 2.01227-.5485.57625.0751 1.01832.3749 1.24518.8622zm-.31033 1.7598 10.66956 22.9195.9066-.422-10.66958-22.9196zm11.60776 22.8307c.6161-2.4454 2.0745-3.8734 4.0407-4.8503 2.0016-.9945 4.4909-1.5044 7.1492-2.105 5.2478-1.1858 11.0555-2.7028 13.5876-9.3545l-.9346-.3557c-2.3247 6.1069-7.5968 7.5425-12.8734 8.7347-2.604.5884-5.2381 1.1239-7.3738 2.185-2.1711 1.0787-3.8638 2.7166-4.5654 5.5014zm24.7635-16.6987-10.6696-22.9195-.9066.422 10.6696 22.9196zm-11.5996-22.8594c-1.0657 3.3672-2.9659 5.2665-5.2455 6.4362-2.3095 1.1851-5.0235 1.6309-7.7452 2.0335-2.681.3967-5.402.7534-7.5502 1.8142-1.0876.5371-2.04476 1.2608-2.7878 2.2715-.74306 1.0106-1.25334 2.2829-1.48457 3.8897l.9898.1425c.2118-1.4719.67021-2.5827 1.30045-3.4399.63027-.8573 1.45102-1.4863 2.42492-1.9672 1.9748-.9752 4.5112-1.3158 7.2537-1.7215 2.7019-.3998 5.5774-.8615 8.0554-2.133 2.5079-1.2869 4.5931-3.393 5.7424-7.0242z" fill="#9293ab"/><rect fill="#fff" height="114" rx="5" width="286" x="420"/><path d="m445.037 63.459c-.27-1.4915-1.463-2.3722-2.926-2.3722-1.861 0-3.21 1.4347-3.21 3.7358 0 2.3012 1.349 3.7358 3.21 3.7358 1.463 0 2.656-.8807 2.926-2.3721h-.881c-.213 1.0085-1.079 1.5483-2.045 1.5483-1.321 0-2.358-1.0228-2.358-2.912s1.037-2.9119 2.358-2.9119c.966 0 1.832.5398 2.045 1.5483zm3.525 5.1136c1.478 0 2.472-1.1221 2.472-2.8125 0-1.7045-.994-2.8267-2.472-2.8267-1.477 0-2.471 1.1222-2.471 2.8267 0 1.6904.994 2.8125 2.471 2.8125zm0-.7528c-1.122 0-1.633-.9659-1.633-2.0597 0-1.0937.511-2.0738 1.633-2.0738s1.634.9801 1.634 2.0738c0 1.0938-.512 2.0597-1.634 2.0597zm4.589-2.6421c0-.9517.59-1.4914 1.392-1.4914.778 0 1.25.5078 1.25 1.3636v3.4091h.838v-3.4659c0-1.3921-.742-2.0597-1.846-2.0597-.824 0-1.335.3693-1.591.9233h-.071v-.8523h-.81v5.4546h.838zm5.85 0c0-.9517.589-1.4914 1.392-1.4914.778 0 1.25.5078 1.25 1.3636v3.4091h.838v-3.4659c0-1.3921-.742-2.0597-1.847-2.0597-.823 0-1.335.3693-1.591.9233h-.071v-.8523h-.809v5.4546h.838zm7.298 3.3949c1.108 0 1.918-.554 2.174-1.3778l-.81-.2273c-.213.5682-.707.8523-1.364.8523-.983 0-1.662-.6357-1.701-1.804h3.96v-.3551c0-2.0313-1.208-2.7273-2.344-2.7273-1.477 0-2.457 1.1648-2.457 2.8409 0 1.6762.966 2.7983 2.542 2.7983zm-1.701-3.2812c.057-.8488.657-1.6051 1.616-1.6051.909 0 1.492.6818 1.492 1.6051zm7.451 3.2812c1.207 0 2.002-.7386 2.145-1.7045h-.839c-.156.5966-.653.9517-1.306.9517-.995 0-1.634-.8239-1.634-2.0881 0-1.2358.654-2.0454 1.634-2.0454.738 0 1.179.4545 1.306.9517h.839c-.143-1.0228-1.009-1.7046-2.16-1.7046-1.477 0-2.457 1.1648-2.457 2.8267 0 1.6335.938 2.8125 2.472 2.8125zm5.742-5.5682h-1.165v-1.3068h-.838v1.3068h-.824v.7103h.824v3.4091c0 .9517.767 1.4062 1.477 1.4062.313 0 .512-.0568.625-.0994l-.17-.7529c-.071.0142-.185.0426-.37.0426-.369 0-.724-.1136-.724-.8238v-3.1818h1.165zm4.613 7.5c.756 0 1.289-.4012 1.605-1.25l2.322-6.2358-.916-.0142-1.506 4.3466h-.056l-1.506-4.3466h-.909l2.017 5.483-.156.4261c-.306.831-.682.9091-1.293.7529l-.213.7386c.085.0426.327.0994.611.0994zm7.057-1.9318c1.477 0 2.471-1.1221 2.471-2.8125 0-1.7045-.994-2.8267-2.471-2.8267-1.478 0-2.472 1.1222-2.472 2.8267 0 1.6904.994 2.8125 2.472 2.8125zm0-.7528c-1.122 0-1.634-.9659-1.634-2.0597 0-1.0937.512-2.0738 1.634-2.0738s1.633.9801 1.633 2.0738c0 1.0938-.511 2.0597-1.633 2.0597zm7.188-1.5909c0 1.0227-.781 1.4914-1.406 1.4914-.696 0-1.193-.5113-1.193-1.3068v-3.4091h-.838v3.4659c0 1.3921.738 2.0597 1.761 2.0597.824 0 1.364-.4403 1.619-.9943h.057v.9233h.838v-5.4546h-.838zm2.373 2.2301h.838v-3.4517c0-.7387.583-1.2784 1.378-1.2784.224 0 .455.0426.511.0568v-.8523c-.095-.0071-.316-.0142-.44-.0142-.653 0-1.221.3693-1.42.9091h-.057v-.8239h-.81zm8.962-5.4546h-1.221v-.5539c0-.5398.227-.8239.781-.8239.241 0 .384.0568.469.0852l.241-.7244c-.128-.0568-.383-.1421-.795-.1421-.781 0-1.534.4688-1.534 1.4063v.7528h-.881v.7103h.881v4.7443h.838v-4.7443h1.221zm2.013-1.8181h-.838v7.2727h.838zm3.14 7.4005c.952 0 1.449-.5113 1.619-.8665h.043v.7387h.838v-3.5938c0-1.7329-1.321-1.9318-2.017-1.9318-.824 0-1.761.2841-2.187 1.2784l.795.2841c.185-.3977.621-.8238 1.42-.8238.771 0 1.151.4083 1.151 1.1079v.0284c0 .4048-.412.3693-1.406.4972-1.012.1314-2.117.3551-2.117 1.6051 0 1.0653.824 1.6761 1.861 1.6761zm.128-.7528c-.668 0-1.151-.2983-1.151-.8807 0-.6392.583-.8381 1.236-.9233.355-.0426 1.307-.142 1.449-.3125v.7671c0 .6818-.54 1.3494-1.534 1.3494zm6.103 2.7841c1.307 0 2.358-.5966 2.358-2.0029v-5.6108h-.809v.8665h-.086c-.184-.2841-.525-.9375-1.59-.9375-1.378 0-2.33 1.0938-2.33 2.7699 0 1.7045.994 2.6705 2.315 2.6705 1.066 0 1.407-.625 1.591-.9233h.071v1.1079c0 .9091-.639 1.321-1.52 1.321-.99 0-1.338-.522-1.562-.8238l-.668.4687c.341.5718 1.012 1.0938 2.23 1.0938zm-.028-2.9972c-1.051 0-1.591-.7954-1.591-1.9318 0-1.108.526-2.0028 1.591-2.0028 1.023 0 1.562.8238 1.562 2.0028 0 1.2074-.553 1.9318-1.562 1.9318zm9.105-4.6165h-1.165v-1.3068h-.838v1.3068h-.824v.7103h.824v3.4091c0 .9517.767 1.4062 1.478 1.4062.312 0 .511-.0568.625-.0994l-.171-.7529c-.071.0142-.185.0426-.369.0426-.37 0-.725-.1136-.725-.8238v-3.1818h1.165zm3.418 5.5682c1.477 0 2.472-1.1221 2.472-2.8125 0-1.7045-.995-2.8267-2.472-2.8267s-2.472 1.1222-2.472 2.8267c0 1.6904.995 2.8125 2.472 2.8125zm0-.7528c-1.122 0-1.633-.9659-1.633-2.0597 0-1.0937.511-2.0738 1.633-2.0738s1.634.9801 1.634 2.0738c0 1.0938-.512 2.0597-1.634 2.0597zm8.169.767c.951 0 1.448-.5113 1.619-.8665h.043v.7387h.838v-3.5938c0-1.7329-1.321-1.9318-2.017-1.9318-.824 0-1.762.2841-2.188 1.2784l.795.2841c.185-.3977.622-.8238 1.421-.8238.771 0 1.151.4083 1.151 1.1079v.0284c0 .4048-.412.3693-1.407.4972-1.012.1314-2.116.3551-2.116 1.6051 0 1.0653.824 1.6761 1.861 1.6761zm.127-.7528c-.667 0-1.15-.2983-1.15-.8807 0-.6392.582-.8381 1.236-.9233.355-.0426 1.306-.142 1.449-.3125v.7671c0 .6818-.54 1.3494-1.535 1.3494zm10.578-3.608c-.262-.7741-.852-1.2926-1.931-1.2926-1.151 0-2.003.6534-2.003 1.5767 0 .7529.447 1.2571 1.449 1.4915l.909.2131c.55.1278.809.3906.809.767 0 .4688-.497.8523-1.278.8523-.685 0-1.115-.2948-1.264-.8807l-.796.1989c.196.9268.959 1.4204 2.074 1.4204 1.268 0 2.131-.6925 2.131-1.6335 0-.7599-.476-1.2393-1.449-1.4773l-.81-.1988c-.646-.1598-.937-.3765-.937-.7955 0-.4687.497-.8097 1.165-.8097.731 0 1.033.4049 1.179.7813zm2.966 4.3608c.952 0 1.449-.5113 1.62-.8665h.042v.7387h.838v-3.5938c0-1.7329-1.321-1.9318-2.017-1.9318-.823 0-1.761.2841-2.187 1.2784l.795.2841c.185-.3977.622-.8238 1.421-.8238.77 0 1.15.4083 1.15 1.1079v.0284c0 .4048-.412.3693-1.406.4972-1.012.1314-2.116.3551-2.116 1.6051 0 1.0653.824 1.6761 1.86 1.6761zm.128-.7528c-.667 0-1.15-.2983-1.15-.8807 0-.6392.582-.8381 1.236-.9233.355-.0426 1.306-.142 1.448-.3125v.7671c0 .6818-.539 1.3494-1.534 1.3494zm3.902.625h.838v-3.4091c0-.799.583-1.3636 1.236-1.3636.636 0 1.08.4154 1.08 1.0369v3.7358h.852v-3.5512c0-.7031.44-1.2215 1.207-1.2215.597 0 1.108.316 1.108 1.1221v3.6506h.838v-3.6506c0-1.2819-.689-1.875-1.662-1.875-.781 0-1.353.3587-1.633.9233h-.057c-.27-.5824-.746-.9233-1.463-.9233-.71 0-1.236.3409-1.463.9233h-.071v-.8523h-.81zm8.692 2.0454h.838v-2.8835h.071c.184.2983.539.9517 1.591.9517 1.363 0 2.315-1.0937 2.315-2.8267 0-1.7187-.952-2.8125-2.33-2.8125-1.065 0-1.392.6534-1.576.9375h-.1v-.8665h-.809zm.823-4.7727c0-1.2216.54-2.0454 1.563-2.0454 1.065 0 1.591.8948 1.591 2.0454 0 1.1648-.54 2.0881-1.591 2.0881-1.009 0-1.563-.8523-1.563-2.0881zm6.108-4.5454h-.838v7.2727h.838zm3.822 7.3863c1.108 0 1.918-.554 2.174-1.3778l-.81-.2273c-.213.5682-.707.8523-1.364.8523-.983 0-1.662-.6357-1.701-1.804h3.96v-.3551c0-2.0313-1.208-2.7273-2.344-2.7273-1.477 0-2.457 1.1648-2.457 2.8409 0 1.6762.966 2.7983 2.542 2.7983zm-1.701-3.2812c.057-.8488.657-1.6051 1.616-1.6051.909 0 1.491.6818 1.491 1.6051zm9.652 3.2954c.952 0 1.449-.5113 1.62-.8665h.042v.7387h.838v-3.5938c0-1.7329-1.321-1.9318-2.017-1.9318-.824 0-1.761.2841-2.187 1.2784l.795.2841c.185-.3977.622-.8238 1.421-.8238.77 0 1.15.4083 1.15 1.1079v.0284c0 .4048-.412.3693-1.406.4972-1.012.1314-2.117.3551-2.117 1.6051 0 1.0653.824 1.6761 1.861 1.6761zm.128-.7528c-.668 0-1.15-.2983-1.15-.8807 0-.6392.582-.8381 1.235-.9233.355-.0426 1.307-.142 1.449-.3125v.7671c0 .6818-.54 1.3494-1.534 1.3494zm3.902 2.6704h.838v-2.8835h.071c.185.2983.54.9517 1.591.9517 1.364 0 2.315-1.0937 2.315-2.8267 0-1.7187-.951-2.8125-2.329-2.8125-1.066 0-1.392.6534-1.577.9375h-.099v-.8665h-.81zm.824-4.7727c0-1.2216.54-2.0454 1.562-2.0454 1.066 0 1.591.8948 1.591 2.0454 0 1.1648-.54 2.0881-1.591 2.0881-1.008 0-1.562-.8523-1.562-2.0881zm5.27 4.7727h.838v-2.8835h.071c.184.2983.54.9517 1.591.9517 1.363 0 2.315-1.0937 2.315-2.8267 0-1.7187-.952-2.8125-2.33-2.8125-1.065 0-1.392.6534-1.576.9375h-.1v-.8665h-.809zm.824-4.7727c0-1.2216.539-2.0454 1.562-2.0454 1.065 0 1.591.8948 1.591 2.0454 0 1.1648-.54 2.0881-1.591 2.0881-1.009 0-1.562-.8523-1.562-2.0881zm6.107-4.5454h-.838v7.2727h.838zm1.535 7.2727h.839v-5.4546h-.839zm.427-6.3637c.326 0 .596-.2556.596-.5681s-.27-.5682-.596-.5682c-.327 0-.597.2557-.597.5682s.27.5681.597.5681zm4.162 6.4773c1.208 0 2.003-.7386 2.145-1.7045h-.838c-.156.5966-.653.9517-1.307.9517-.994 0-1.633-.8239-1.633-2.0881 0-1.2358.653-2.0454 1.633-2.0454.739 0 1.179.4545 1.307.9517h.838c-.142-1.0228-1.008-1.7046-2.159-1.7046-1.477 0-2.457 1.1648-2.457 2.8267 0 1.6335.937 2.8125 2.471 2.8125zm4.976.0142c.951 0 1.448-.5113 1.619-.8665h.042v.7387h.839v-3.5938c0-1.7329-1.321-1.9318-2.018-1.9318-.823 0-1.761.2841-2.187 1.2784l.795.2841c.185-.3977.622-.8238 1.421-.8238.77 0 1.15.4083 1.15 1.1079v.0284c0 .4048-.411.3693-1.406.4972-1.012.1314-2.116.3551-2.116 1.6051 0 1.0653.824 1.6761 1.861 1.6761zm.127-.7528c-.667 0-1.15-.2983-1.15-.8807 0-.6392.582-.8381 1.236-.9233.355-.0426 1.306-.142 1.448-.3125v.7671c0 .6818-.539 1.3494-1.534 1.3494zm6.274-4.8296h-1.164v-1.3068h-.838v1.3068h-.824v.7103h.824v3.4091c0 .9517.767 1.4062 1.477 1.4062.312 0 .511-.0568.625-.0994l-.171-.7529c-.071.0142-.184.0426-.369.0426-.369 0-.724-.1136-.724-.8238v-3.1818h1.164zm1.261 5.4546h.838v-5.4546h-.838zm.426-6.3637c.327 0 .597-.2556.597-.5681s-.27-.5682-.597-.5682-.596.2557-.596.5682.269.5681.596.5681zm4.163 6.4773c1.477 0 2.472-1.1221 2.472-2.8125 0-1.7045-.995-2.8267-2.472-2.8267s-2.472 1.1222-2.472 2.8267c0 1.6904.995 2.8125 2.472 2.8125zm0-.7528c-1.122 0-1.634-.9659-1.634-2.0597 0-1.0937.512-2.0738 1.634-2.0738s1.633.9801 1.633 2.0738c0 1.0938-.511 2.0597-1.633 2.0597zm4.589-2.6421c0-.9517.589-1.4914 1.392-1.4914.778 0 1.25.5078 1.25 1.3636v3.4091h.838v-3.4659c0-1.3921-.742-2.0597-1.847-2.0597-.823 0-1.335.3693-1.59.9233h-.071v-.8523h-.81v5.4546h.838zm7.938 3.2813h.809v-.8381h.1c.184.2983.539.9517 1.591.9517 1.363 0 2.315-1.0937 2.315-2.8267 0-1.7187-.952-2.8125-2.33-2.8125-1.065 0-1.392.6534-1.576.9375h-.071v-2.6846h-.838zm.823-2.7273c0-1.2216.54-2.0454 1.563-2.0454 1.065 0 1.591.8948 1.591 2.0454 0 1.1648-.54 2.0881-1.591 2.0881-1.009 0-1.563-.8523-1.563-2.0881zm5.618 4.7727c.757 0 1.289-.4012 1.605-1.25l2.323-6.2358-.916-.0142-1.506 4.3466h-.057l-1.505-4.3466h-.91l2.017 5.483-.156.4261c-.305.831-.682.9091-1.292.7529l-.213.7386c.085.0426.326.0994.61.0994zm-205.432 15.9546h.838v-5.4546h-.838zm.426-6.3637c.327 0 .597-.2556.597-.5681s-.27-.5682-.597-.5682-.596.2557-.596.5682.269.5681.596.5681zm2.785 3.0824c0-.9517.59-1.4914 1.392-1.4914.778 0 1.25.5078 1.25 1.3636v3.4091h.838v-3.4659c0-1.3921-.742-2.0597-1.846-2.0597-.824 0-1.336.3693-1.591.9233h-.071v-.8523h-.81v5.4546h.838zm8.875-.9517c-.262-.7741-.852-1.2926-1.932-1.2926-1.15 0-2.002.6534-2.002 1.5767 0 .7529.447 1.2571 1.448 1.4915l.91.2131c.55.1278.809.3906.809.767 0 .4688-.497.8523-1.278.8523-.686 0-1.115-.2948-1.264-.8807l-.796.1989c.195.9268.959 1.4204 2.074 1.4204 1.268 0 2.131-.6925 2.131-1.6335 0-.7599-.476-1.2393-1.449-1.4773l-.81-.1988c-.646-.1598-.937-.3765-.937-.7955 0-.4687.497-.8097 1.164-.8097.732 0 1.034.4049 1.179.7813zm3.733-1.2216h-1.164v-1.3068h-.838v1.3068h-.824v.7103h.824v3.4091c0 .9517.767 1.4062 1.477 1.4062.312 0 .511-.0568.625-.0994l-.171-.7529c-.071.0142-.184.0426-.369.0426-.369 0-.724-.1136-.724-.8238v-3.1818h1.164zm2.866 5.5824c.952 0 1.449-.5113 1.62-.8665h.042v.7387h.838v-3.5938c0-1.7329-1.321-1.9318-2.017-1.9318-.824 0-1.761.2841-2.187 1.2784l.795.2841c.185-.3977.622-.8238 1.421-.8238.77 0 1.15.4083 1.15 1.1079v.0284c0 .4048-.412.3693-1.406.4972-1.012.1314-2.117.3551-2.117 1.6051 0 1.0653.824 1.6761 1.861 1.6761zm.128-.7528c-.668 0-1.151-.2983-1.151-.8807 0-.6392.583-.8381 1.236-.9233.355-.0426 1.307-.142 1.449-.3125v.7671c0 .6818-.54 1.3494-1.534 1.3494zm4.74-6.6477h-.838v7.2727h.838zm2.373 0h-.838v7.2727h.838zm1.535 7.2727h.838v-5.4546h-.838zm.426-6.3637c.327 0 .597-.2556.597-.5681s-.27-.5682-.597-.5682-.597.2557-.597.5682.27.5681.597.5681zm2.785 3.0824c0-.9517.59-1.4914 1.392-1.4914.778 0 1.25.5078 1.25 1.3636v3.4091h.838v-3.4659c0-1.3921-.742-2.0597-1.846-2.0597-.824 0-1.336.3693-1.591.9233h-.071v-.8523h-.81v5.4546h.838zm7.213 5.4404c1.307 0 2.358-.5966 2.358-2.0029v-5.6108h-.809v.8665h-.086c-.184-.2841-.525-.9375-1.591-.9375-1.377 0-2.329 1.0938-2.329 2.7699 0 1.7045.994 2.6705 2.315 2.6705 1.066 0 1.407-.625 1.591-.9233h.071v1.1079c0 .9091-.639 1.321-1.52 1.321-.99 0-1.338-.522-1.562-.8238l-.668.4687c.341.5718 1.012 1.0938 2.23 1.0938zm-.028-2.9972c-1.051 0-1.591-.7954-1.591-1.9318 0-1.108.526-2.0028 1.591-2.0028 1.023 0 1.562.8238 1.562 2.0028 0 1.2074-.554 1.9318-1.562 1.9318zm8.338.9659c.952 0 1.449-.5113 1.619-.8665h.043v.7387h.838v-3.5938c0-1.7329-1.321-1.9318-2.017-1.9318-.824 0-1.761.2841-2.188 1.2784l.796.2841c.185-.3977.621-.8238 1.42-.8238.771 0 1.151.4083 1.151 1.1079v.0284c0 .4048-.412.3693-1.406.4972-1.012.1314-2.117.3551-2.117 1.6051 0 1.0653.824 1.6761 1.861 1.6761zm.128-.7528c-.668 0-1.151-.2983-1.151-.8807 0-.6392.583-.8381 1.236-.9233.355-.0426 1.307-.142 1.449-.3125v.7671c0 .6818-.54 1.3494-1.534 1.3494zm4.74-2.6563c0-.9517.589-1.4914 1.392-1.4914.777 0 1.25.5078 1.25 1.3636v3.4091h.838v-3.4659c0-1.3921-.742-2.0597-1.847-2.0597-.824 0-1.335.3693-1.591.9233h-.071v-.8523h-.809v5.4546h.838zm11.915-2.1733h.852c-.039-1.0973-1.051-1.9176-2.457-1.9176-1.393 0-2.486.8097-2.486 2.0313 0 .9801.71 1.5625 1.846 1.8892l.895.2557c.767.213 1.449.4829 1.449 1.2073 0 .7955-.767 1.3211-1.776 1.3211-.866 0-1.633-.3836-1.704-1.2074h-.909c.085 1.1932 1.051 2.0028 2.613 2.0028 1.677 0 2.628-.9233 2.628-2.1022 0-1.3637-1.292-1.804-2.045-2.0029l-.739-.1989c-.54-.142-1.406-.4261-1.406-1.2073 0-.6961.639-1.2074 1.605-1.2074.881 0 1.548.419 1.634 1.1363zm4.644 5.4546c2.216 0 3.466-1.3779 3.466-3.6506 0-2.2585-1.25-3.6221-3.367-3.6221h-2.344v7.2727zm-1.364-.7813v-5.7102h1.406c1.705 0 2.571 1.0796 2.571 2.8409 0 1.7756-.866 2.8693-2.67 2.8693zm6.307.7813h.88v-2.358l.91-1.0227 2.528 3.3807h1.065l-3.054-3.9915 3.054-3.2812h-1.15l-3.267 3.6079h-.086v-3.6079h-.88zm13.086-4.233c-.263-.7741-.853-1.2926-1.932-1.2926-1.151 0-2.003.6534-2.003 1.5767 0 .7529.448 1.2571 1.449 1.4915l.909.2131c.55.1278.81.3906.81.767 0 .4688-.497.8523-1.279.8523-.685 0-1.115-.2948-1.264-.8807l-.795.1989c.195.9268.958 1.4204 2.073 1.4204 1.268 0 2.131-.6925 2.131-1.6335 0-.7599-.476-1.2393-1.449-1.4773l-.809-.1988c-.647-.1598-.938-.3765-.938-.7955 0-.4687.497-.8097 1.165-.8097.731 0 1.033.4049 1.179.7813zm3.648 4.3466c1.108 0 1.917-.554 2.173-1.3778l-.81-.2273c-.213.5682-.706.8523-1.363.8523-.984 0-1.662-.6357-1.701-1.804h3.959v-.3551c0-2.0313-1.207-2.7273-2.344-2.7273-1.477 0-2.457 1.1648-2.457 2.8409 0 1.6762.966 2.7983 2.543 2.7983zm-1.701-3.2812c.056-.8488.657-1.6051 1.615-1.6051.91 0 1.492.6818 1.492 1.6051zm7.606-2.287h-1.165v-1.3068h-.838v1.3068h-.824v.7103h.824v3.4091c0 .9517.767 1.4062 1.478 1.4062.312 0 .511-.0568.625-.0994l-.171-.7529c-.071.0142-.184.0426-.369.0426-.369 0-.725-.1136-.725-.8238v-3.1818h1.165zm3.633 0h-1.165v-1.3068h-.838v1.3068h-.824v.7103h.824v3.4091c0 .9517.767 1.4062 1.477 1.4062.313 0 .512-.0568.625-.0994l-.17-.7529c-.071.0142-.185.0426-.369.0426-.37 0-.725-.1136-.725-.8238v-3.1818h1.165zm1.261 5.4546h.838v-5.4546h-.838zm.426-6.3637c.326 0 .596-.2556.596-.5681s-.27-.5682-.596-.5682c-.327 0-.597.2557-.597.5682s.27.5681.597.5681zm2.785 3.0824c0-.9517.589-1.4914 1.392-1.4914.778 0 1.25.5078 1.25 1.3636v3.4091h.838v-3.4659c0-1.3921-.742-2.0597-1.847-2.0597-.824 0-1.335.3693-1.591.9233h-.071v-.8523h-.809v5.4546h.838zm7.213 5.4404c1.307 0 2.358-.5966 2.358-2.0029v-5.6108h-.81v.8665h-.085c-.185-.2841-.525-.9375-1.591-.9375-1.378 0-2.329 1.0938-2.329 2.7699 0 1.7045.994 2.6705 2.315 2.6705 1.065 0 1.406-.625 1.591-.9233h.071v1.1079c0 .9091-.639 1.321-1.52 1.321-.991 0-1.339-.522-1.562-.8238l-.668.4687c.341.5718 1.012 1.0938 2.23 1.0938zm-.028-2.9972c-1.052 0-1.591-.7954-1.591-1.9318 0-1.108.525-2.0028 1.591-2.0028 1.022 0 1.562.8238 1.562 2.0028 0 1.2074-.554 1.9318-1.562 1.9318zm10.17-1.392c0 1.0227-.781 1.4914-1.406 1.4914-.696 0-1.193-.5113-1.193-1.3068v-3.4091h-.838v3.4659c0 1.3921.738 2.0597 1.761 2.0597.824 0 1.364-.4403 1.619-.9943h.057v.9233h.838v-5.4546h-.838zm2.373 4.2755h.838v-2.8835h.071c.185.2983.54.9517 1.591.9517 1.364 0 2.315-1.0937 2.315-2.8267 0-1.7187-.951-2.8125-2.329-2.8125-1.065 0-1.392.6534-1.577.9375h-.099v-.8665h-.81zm.824-4.7727c0-1.2216.54-2.0454 1.562-2.0454 1.066 0 1.591.8948 1.591 2.0454 0 1.1648-.539 2.0881-1.591 2.0881-1.008 0-1.562-.8523-1.562-2.0881zm8.622 4.7727c.757 0 1.289-.4012 1.605-1.25l2.323-6.2358-.917-.0142-1.505 4.3466h-.057l-1.506-4.3466h-.909l2.017 5.483-.156.4261c-.305.831-.682.9091-1.293.7529l-.213.7386c.086.0426.327.0994.611.0994zm7.057-1.9318c1.477 0 2.472-1.1221 2.472-2.8125 0-1.7045-.995-2.8267-2.472-2.8267s-2.471 1.1222-2.471 2.8267c0 1.6904.994 2.8125 2.471 2.8125zm0-.7528c-1.122 0-1.633-.9659-1.633-2.0597 0-1.0937.511-2.0738 1.633-2.0738s1.634.9801 1.634 2.0738c0 1.0938-.512 2.0597-1.634 2.0597zm7.189-1.5909c0 1.0227-.782 1.4914-1.407 1.4914-.696 0-1.193-.5113-1.193-1.3068v-3.4091h-.838v3.4659c0 1.3921.739 2.0597 1.761 2.0597.824 0 1.364-.4403 1.62-.9943h.057v.9233h.838v-5.4546h-.838zm2.373 2.2301h.838v-3.4517c0-.7387.582-1.2784 1.377-1.2784.224 0 .455.0426.512.0568v-.8523c-.096-.0071-.316-.0142-.441-.0142-.653 0-1.221.3693-1.42.9091h-.057v-.8239h-.809zm8.749.1136c1.207 0 2.003-.7386 2.145-1.7045h-.839c-.156.5966-.653.9517-1.306.9517-.995 0-1.634-.8239-1.634-2.0881 0-1.2358.654-2.0454 1.634-2.0454.738 0 1.179.4545 1.306.9517h.839c-.142-1.0228-1.009-1.7046-2.16-1.7046-1.477 0-2.457 1.1648-2.457 2.8267 0 1.6335.938 2.8125 2.472 2.8125zm5.586 0c1.477 0 2.471-1.1221 2.471-2.8125 0-1.7045-.994-2.8267-2.471-2.8267-1.478 0-2.472 1.1222-2.472 2.8267 0 1.6904.994 2.8125 2.472 2.8125zm0-.7528c-1.123 0-1.634-.9659-1.634-2.0597 0-1.0937.511-2.0738 1.634-2.0738 1.122 0 1.633.9801 1.633 2.0738 0 1.0938-.511 2.0597-1.633 2.0597zm5.81.7528c1.051 0 1.406-.6534 1.591-.9517h.1v.8381h.809v-7.2727h-.838v2.6846h-.071c-.185-.2841-.511-.9375-1.577-.9375-1.377 0-2.329 1.0938-2.329 2.8125 0 1.733.952 2.8267 2.315 2.8267zm.114-.7528c-1.051 0-1.591-.9233-1.591-2.0881 0-1.1506.525-2.0454 1.591-2.0454 1.023 0 1.562.8238 1.562 2.0454 0 1.2358-.554 2.0881-1.562 2.0881zm6.324.7528c1.108 0 1.918-.554 2.174-1.3778l-.81-.2273c-.213.5682-.707.8523-1.364.8523-.983 0-1.662-.6357-1.701-1.804h3.96v-.3551c0-2.0313-1.207-2.7273-2.344-2.7273-1.477 0-2.457 1.1648-2.457 2.8409 0 1.6762.966 2.7983 2.542 2.7983zm-1.701-3.2812c.057-.8488.657-1.6051 1.616-1.6051.909 0 1.492.6818 1.492 1.6051zm5.846 3.2244c.351 0 .639-.2876.639-.6392s-.288-.6392-.639-.6392c-.352 0-.64.2876-.64.6392s.288.6392.64.6392z" fill="#22222a"/><path d="m439.423 43.1895h7.659v-1.5057h-5.238v-.0853l2.312-2.4204c2.131-2.1534 2.739-3.1818 2.739-4.483 0-1.8693-1.523-3.3011-3.716-3.3011-2.176 0-3.767 1.4091-3.767 3.5341h1.676c-.006-1.25.801-2.0682 2.057-2.0682 1.182 0 2.079.7273 2.079 1.8864 0 1.0284-.613 1.767-1.863 3.0909l-3.938 4.0795zm10.945.1079c.619 0 1.136-.5057 1.136-1.1364 0-.6193-.517-1.1306-1.136-1.1306-.625 0-1.137.5113-1.137 1.1306 0 .6307.512 1.1364 1.137 1.1364zm13.922-8.6875h1.693c-.051-1.8636-1.699-3.2159-4.063-3.2159-2.335 0-4.125 1.3352-4.125 3.3409 0 1.6193 1.159 2.5682 3.029 3.0739l1.375.375c1.244.3295 2.204.7386 2.204 1.7727 0 1.1364-1.085 1.8864-2.579 1.8864-1.353 0-2.478-.6023-2.58-1.8694h-1.761c.113 2.108 1.744 3.4091 4.352 3.4091 2.733 0 4.307-1.4375 4.307-3.4091 0-2.0965-1.869-2.909-3.347-3.2727l-1.136-.2954c-.909-.233-2.119-.6591-2.114-1.7728 0-.9886.904-1.7216 2.335-1.7216 1.336 0 2.285.625 2.41 1.6989zm7.565 8.7557c1.903 0 3.25-.9375 3.636-2.358l-1.608-.2897c-.307.8238-1.045 1.2443-2.011 1.2443-1.455 0-2.432-.9432-2.477-2.625h6.204v-.6023c0-3.1534-1.886-4.3864-3.863-4.3864-2.432 0-4.035 1.8523-4.035 4.5341 0 2.7103 1.58 4.483 4.154 4.483zm-2.455-5.3011c.068-1.2387.966-2.3125 2.347-2.3125 1.318 0 2.182.9772 2.187 2.3125zm12.148-3.6023h-1.79v-2.0909h-1.699v2.0909h-1.278v1.3636h1.278v5.1534c-.005 1.5853 1.205 2.3523 2.546 2.3239.54-.0057.903-.108 1.102-.1818l-.307-1.4034c-.113.0227-.324.0738-.596.0738-.551 0-1.046-.1818-1.046-1.1647v-4.8012h1.79zm11.622 5.1079c.006 1.483-1.097 2.1875-2.051 2.1875-1.051 0-1.779-.7613-1.779-1.9488v-5.3466h-1.698v5.5511c0 2.1648 1.187 3.2898 2.863 3.2898 1.313 0 2.205-.6932 2.608-1.625h.091v1.5114h1.671v-8.7273h-1.705zm3.977 6.8921h1.699v-4.6307h.102c.307.5568.932 1.5284 2.523 1.5284 2.114 0 3.648-1.6932 3.648-4.517 0-2.8296-1.557-4.4944-3.665-4.4944-1.619 0-2.204.9887-2.506 1.5285h-.142v-1.4148h-1.659zm1.665-7.6364c0-1.8238.795-3.0341 2.278-3.0341 1.54 0 2.313 1.3012 2.313 3.0341 0 1.75-.796 3.0852-2.313 3.0852-1.46 0-2.278-1.25-2.278-3.0852zm11.663-7.2727 4.222 7.0682v4.5682h1.75v-4.5682l4.221-7.0682h-1.994l-3.04 5.2898h-.125l-3.039-5.2898zm13.959 11.8125c2.46 0 4.068-1.8011 4.068-4.5 0-2.7159-1.608-4.5171-4.068-4.5171s-4.068 1.8012-4.068 4.5171c0 2.6989 1.608 4.5 4.068 4.5zm.006-1.4261c-1.608 0-2.358-1.4035-2.358-3.0796 0-1.6704.75-3.0909 2.358-3.0909 1.596 0 2.346 1.4205 2.346 3.0909 0 1.6761-.75 3.0796-2.346 3.0796zm11.477-2.3694c.006 1.483-1.097 2.1875-2.051 2.1875-1.051 0-1.779-.7613-1.779-1.9488v-5.3466h-1.699v5.5511c0 2.1648 1.188 3.2898 2.864 3.2898 1.313 0 2.205-.6932 2.608-1.625h.091v1.5114h1.67v-8.7273h-1.704zm3.977 3.6194h1.699v-5.3296c0-1.142.881-1.9659 2.085-1.9659.352 0 .75.0625.887.1023v-1.625c-.171-.0228-.506-.0398-.722-.0398-1.023 0-1.898.5795-2.216 1.517h-.091v-1.3863h-1.642zm11.474 0 1.069-3.0796h4.545l1.063 3.0796h1.863l-4.187-11.6364h-2.029l-4.187 11.6364zm1.58-4.5569 1.716-4.9659h.091l1.716 4.9659zm8.494 7.8296h1.699v-4.6307h.102c.307.5568.932 1.5284 2.523 1.5284 2.114 0 3.648-1.6932 3.648-4.517 0-2.8296-1.557-4.4944-3.665-4.4944-1.619 0-2.204.9887-2.506 1.5285h-.142v-1.4148h-1.659zm1.665-7.6364c0-1.8238.795-3.0341 2.278-3.0341 1.54 0 2.313 1.3012 2.313 3.0341 0 1.75-.796 3.0852-2.313 3.0852-1.46 0-2.278-1.25-2.278-3.0852zm8.2 7.6364h1.699v-4.6307h.102c.307.5568.932 1.5284 2.523 1.5284 2.114 0 3.648-1.6932 3.648-4.517 0-2.8296-1.557-4.4944-3.665-4.4944-1.619 0-2.204.9887-2.506 1.5285h-.142v-1.4148h-1.659zm1.665-7.6364c0-1.8238.795-3.0341 2.278-3.0341 1.54 0 2.313 1.3012 2.313 3.0341 0 1.75-.796 3.0852-2.313 3.0852-1.46 0-2.278-1.25-2.278-3.0852zm9.899-7.2727h-1.699v11.6364h1.699zm2.276 11.6364h1.698v-8.7273h-1.698zm.858-10.0739c.585 0 1.073-.4546 1.073-1.0114s-.488-1.017-1.073-1.017c-.591 0-1.074.4602-1.074 1.017s.483 1.0114 1.074 1.0114zm6.792 10.25c2.063 0 3.398-1.2386 3.585-2.9375h-1.653c-.216.9432-.949 1.5-1.92 1.5-1.438 0-2.364-1.1989-2.364-3.1023 0-1.8693.943-3.0454 2.364-3.0454 1.079 0 1.738.6818 1.92 1.5h1.653c-.181-1.7614-1.619-2.9319-3.602-2.9319-2.46 0-4.051 1.8523-4.051 4.5171 0 2.6307 1.534 4.5 4.068 4.5zm7.932.017c1.443 0 2.256-.7329 2.579-1.3863h.069v1.1932h1.659v-5.7955c0-2.5398-2-3.0455-3.387-3.0455-1.579 0-3.034.6364-3.602 2.2273l1.597.3637c.25-.6194.886-1.216 2.028-1.216 1.097 0 1.659.5739 1.659 1.5625v.0398c0 .6193-.636.608-2.204.7898-1.654.1932-3.347.625-3.347 2.6079 0 1.716 1.29 2.6591 2.949 2.6591zm.369-1.3636c-.96 0-1.653-.4318-1.653-1.2727 0-.9091.807-1.233 1.79-1.3637.551-.0738 1.858-.2216 2.102-.4659v1.125c0 1.0341-.824 1.9773-2.239 1.9773zm10.264-7.5568h-1.789v-2.0909h-1.699v2.0909h-1.279v1.3636h1.279v5.1534c-.006 1.5853 1.204 2.3523 2.545 2.3239.54-.0057.904-.108 1.102-.1818l-.306-1.4034c-.114.0227-.324.0738-.597.0738-.551 0-1.045-.1818-1.045-1.1647v-4.8012h1.789zm1.87 8.7273h1.698v-8.7273h-1.698zm.858-10.0739c.585 0 1.073-.4546 1.073-1.0114s-.488-1.017-1.073-1.017c-.591 0-1.074.4602-1.074 1.017s.483 1.0114 1.074 1.0114zm6.792 10.25c2.46 0 4.068-1.8011 4.068-4.5 0-2.7159-1.608-4.5171-4.068-4.5171s-4.068 1.8012-4.068 4.5171c0 2.6989 1.608 4.5 4.068 4.5zm.006-1.4261c-1.608 0-2.358-1.4035-2.358-3.0796 0-1.6704.75-3.0909 2.358-3.0909 1.596 0 2.346 1.4205 2.346 3.0909 0 1.6761-.75 3.0796-2.346 3.0796zm7.647-3.9319c0-1.392.853-2.1875 2.035-2.1875 1.153 0 1.852.7557 1.852 2.0228v5.3466h1.699v-5.5512c0-2.1591-1.188-3.2898-2.972-3.2898-1.312 0-2.17.608-2.574 1.5341h-.108v-1.4204h-1.63v8.7273h1.698z" fill="#22222a"/><rect fill="#fff" height="114" rx="5" width="286" x="776"/><path d="m795.185 68.459h.88v-2.8409h1.591c.064 0 .125 0 .185-.0036l1.534 2.8445h1.023l-1.644-3.0043c.926-.316 1.36-1.0724 1.36-2.0383 0-1.2855-.767-2.2301-2.472-2.2301h-2.457zm.88-3.6364v-2.8551h1.549c1.179 0 1.633.5753 1.633 1.4489s-.454 1.4062-1.619 1.4062zm8.84 1.4063c0 1.0227-.781 1.4914-1.406 1.4914-.696 0-1.193-.5113-1.193-1.3068v-3.4091h-.839v3.4659c0 1.3921.739 2.0597 1.762 2.0597.824 0 1.363-.4403 1.619-.9943h.057v.9233h.838v-5.4546h-.838zm3.211-1.0512c0-.9517.59-1.4914 1.392-1.4914.778 0 1.25.5078 1.25 1.3636v3.4091h.838v-3.4659c0-1.3921-.742-2.0597-1.846-2.0597-.824 0-1.336.3693-1.591.9233h-.071v-.8523h-.81v5.4546h.838zm8.364 5.3267c.756 0 1.289-.4012 1.605-1.25l2.322-6.2358-.916-.0142-1.505 4.3466h-.057l-1.506-4.3466h-.909l2.017 5.483-.156.4261c-.306.831-.682.9091-1.293.7529l-.213.7386c.085.0426.327.0994.611.0994zm7.057-1.9318c1.477 0 2.472-1.1221 2.472-2.8125 0-1.7045-.995-2.8267-2.472-2.8267s-2.472 1.1222-2.472 2.8267c0 1.6904.995 2.8125 2.472 2.8125zm0-.7528c-1.122 0-1.634-.9659-1.634-2.0597 0-1.0937.512-2.0738 1.634-2.0738s1.633.9801 1.633 2.0738c0 1.0938-.511 2.0597-1.633 2.0597zm7.188-1.5909c0 1.0227-.781 1.4914-1.406 1.4914-.696 0-1.193-.5113-1.193-1.3068v-3.4091h-.838v3.4659c0 1.3921.738 2.0597 1.761 2.0597.824 0 1.364-.4403 1.619-.9943h.057v.9233h.838v-5.4546h-.838zm2.373 2.2301h.838v-3.4517c0-.7387.583-1.2784 1.378-1.2784.224 0 .455.0426.512.0568v-.8523c-.096-.0071-.316-.0142-.441-.0142-.653 0-1.221.3693-1.42.9091h-.057v-.8239h-.81zm10.397-4.233c-.263-.7741-.852-1.2926-1.932-1.2926-1.15 0-2.002.6534-2.002 1.5767 0 .7529.447 1.2571 1.448 1.4915l.909.2131c.551.1278.81.3906.81.767 0 .4688-.497.8523-1.278.8523-.686 0-1.115-.2948-1.264-.8807l-.796.1989c.195.9268.959 1.4204 2.074 1.4204 1.268 0 2.131-.6925 2.131-1.6335 0-.7599-.476-1.2393-1.449-1.4773l-.81-.1988c-.646-.1598-.937-.3765-.937-.7955 0-.4687.497-.8097 1.164-.8097.732 0 1.034.4049 1.179.7813zm2.966 4.3608c.952 0 1.449-.5113 1.62-.8665h.042v.7387h.838v-3.5938c0-1.7329-1.321-1.9318-2.017-1.9318-.824 0-1.761.2841-2.187 1.2784l.795.2841c.185-.3977.622-.8238 1.421-.8238.77 0 1.15.4083 1.15 1.1079v.0284c0 .4048-.412.3693-1.406.4972-1.012.1314-2.117.3551-2.117 1.6051 0 1.0653.824 1.6761 1.861 1.6761zm.128-.7528c-.668 0-1.15-.2983-1.15-.8807 0-.6392.582-.8381 1.235-.9233.355-.0426 1.307-.142 1.449-.3125v.7671c0 .6818-.54 1.3494-1.534 1.3494zm3.902.625h.838v-3.4091c0-.799.582-1.3636 1.236-1.3636.635 0 1.079.4154 1.079 1.0369v3.7358h.853v-3.5512c0-.7031.44-1.2215 1.207-1.2215.597 0 1.108.316 1.108 1.1221v3.6506h.838v-3.6506c0-1.2819-.689-1.875-1.662-1.875-.781 0-1.353.3587-1.633.9233h-.057c-.27-.5824-.746-.9233-1.463-.9233-.711 0-1.236.3409-1.463.9233h-.071v-.8523h-.81zm8.691 2.0454h.838v-2.8835h.071c.185.2983.54.9517 1.591.9517 1.364 0 2.316-1.0937 2.316-2.8267 0-1.7187-.952-2.8125-2.33-2.8125-1.065 0-1.392.6534-1.577.9375h-.099v-.8665h-.81zm.824-4.7727c0-1.2216.54-2.0454 1.563-2.0454 1.065 0 1.591.8948 1.591 2.0454 0 1.1648-.54 2.0881-1.591 2.0881-1.009 0-1.563-.8523-1.563-2.0881zm6.108-4.5454h-.838v7.2727h.838zm3.822 7.3863c1.108 0 1.918-.554 2.173-1.3778l-.809-.2273c-.213.5682-.707.8523-1.364.8523-.984 0-1.662-.6357-1.701-1.804h3.96v-.3551c0-2.0313-1.208-2.7273-2.344-2.7273-1.477 0-2.458 1.1648-2.458 2.8409 0 1.6762.966 2.7983 2.543 2.7983zm-1.701-3.2812c.057-.8488.657-1.6051 1.616-1.6051.909 0 1.491.6818 1.491 1.6051zm9.652 3.2954c.952 0 1.449-.5113 1.619-.8665h.043v.7387h.838v-3.5938c0-1.7329-1.321-1.9318-2.017-1.9318-.824 0-1.761.2841-2.187 1.2784l.795.2841c.185-.3977.621-.8238 1.42-.8238.771 0 1.151.4083 1.151 1.1079v.0284c0 .4048-.412.3693-1.406.4972-1.012.1314-2.117.3551-2.117 1.6051 0 1.0653.824 1.6761 1.861 1.6761zm.128-.7528c-.668 0-1.151-.2983-1.151-.8807 0-.6392.583-.8381 1.236-.9233.355-.0426 1.307-.142 1.449-.3125v.7671c0 .6818-.54 1.3494-1.534 1.3494zm3.902 2.6704h.838v-2.8835h.071c.184.2983.54.9517 1.591.9517 1.363 0 2.315-1.0937 2.315-2.8267 0-1.7187-.952-2.8125-2.33-2.8125-1.065 0-1.392.6534-1.576.9375h-.1v-.8665h-.809zm.824-4.7727c0-1.2216.539-2.0454 1.562-2.0454 1.065 0 1.591.8948 1.591 2.0454 0 1.1648-.54 2.0881-1.591 2.0881-1.008 0-1.562-.8523-1.562-2.0881zm5.269 4.7727h.839v-2.8835h.071c.184.2983.539.9517 1.59.9517 1.364 0 2.316-1.0937 2.316-2.8267 0-1.7187-.952-2.8125-2.33-2.8125-1.065 0-1.392.6534-1.576.9375h-.1v-.8665h-.81zm.824-4.7727c0-1.2216.54-2.0454 1.563-2.0454 1.065 0 1.591.8948 1.591 2.0454 0 1.1648-.54 2.0881-1.591 2.0881-1.009 0-1.563-.8523-1.563-2.0881zm6.108-4.5454h-.838v7.2727h.838zm1.535 7.2727h.838v-5.4546h-.838zm.426-6.3637c.327 0 .597-.2556.597-.5681s-.27-.5682-.597-.5682c-.326 0-.596.2557-.596.5682s.27.5681.596.5681zm4.163 6.4773c1.208 0 2.003-.7386 2.145-1.7045h-.838c-.156.5966-.653.9517-1.307.9517-.994 0-1.633-.8239-1.633-2.0881 0-1.2358.653-2.0454 1.633-2.0454.739 0 1.179.4545 1.307.9517h.838c-.142-1.0228-1.008-1.7046-2.159-1.7046-1.477 0-2.457 1.1648-2.457 2.8267 0 1.6335.937 2.8125 2.471 2.8125zm4.975.0142c.952 0 1.449-.5113 1.62-.8665h.042v.7387h.838v-3.5938c0-1.7329-1.321-1.9318-2.017-1.9318-.824 0-1.761.2841-2.187 1.2784l.795.2841c.185-.3977.622-.8238 1.421-.8238.77 0 1.15.4083 1.15 1.1079v.0284c0 .4048-.412.3693-1.406.4972-1.012.1314-2.116.3551-2.116 1.6051 0 1.0653.823 1.6761 1.86 1.6761zm.128-.7528c-.667 0-1.15-.2983-1.15-.8807 0-.6392.582-.8381 1.235-.9233.356-.0426 1.307-.142 1.449-.3125v.7671c0 .6818-.539 1.3494-1.534 1.3494zm6.274-4.8296h-1.165v-1.3068h-.838v1.3068h-.824v.7103h.824v3.4091c0 .9517.767 1.4062 1.478 1.4062.312 0 .511-.0568.625-.0994l-.171-.7529c-.071.0142-.185.0426-.369.0426-.369 0-.725-.1136-.725-.8238v-3.1818h1.165zm1.261 5.4546h.838v-5.4546h-.838zm.426-6.3637c.327 0 .597-.2556.597-.5681s-.27-.5682-.597-.5682-.597.2557-.597.5682.27.5681.597.5681zm4.163 6.4773c1.477 0 2.471-1.1221 2.471-2.8125 0-1.7045-.994-2.8267-2.471-2.8267-1.478 0-2.472 1.1222-2.472 2.8267 0 1.6904.994 2.8125 2.472 2.8125zm0-.7528c-1.122 0-1.634-.9659-1.634-2.0597 0-1.0937.512-2.0738 1.634-2.0738s1.633.9801 1.633 2.0738c0 1.0938-.511 2.0597-1.633 2.0597zm4.589-2.6421c0-.9517.589-1.4914 1.392-1.4914.777 0 1.25.5078 1.25 1.3636v3.4091h.838v-3.4659c0-1.3921-.742-2.0597-1.847-2.0597-.824 0-1.335.3693-1.591.9233h-.071v-.8523h-.809v5.4546h.838zm10.196-2.1733h-1.165v-1.3068h-.838v1.3068h-.824v.7103h.824v3.4091c0 .9517.767 1.4062 1.477 1.4062.313 0 .512-.0568.625-.0994l-.17-.7529c-.071.0142-.185.0426-.369.0426-.37 0-.725-.1136-.725-.8238v-3.1818h1.165zm3.418 5.5682c1.477 0 2.471-1.1221 2.471-2.8125 0-1.7045-.994-2.8267-2.471-2.8267s-2.472 1.1222-2.472 2.8267c0 1.6904.995 2.8125 2.472 2.8125zm0-.7528c-1.122 0-1.634-.9659-1.634-2.0597 0-1.0937.512-2.0738 1.634-2.0738s1.633.9801 1.633 2.0738c0 1.0938-.511 2.0597-1.633 2.0597zm8.779.7528c1.208 0 2.003-.7386 2.145-1.7045h-.838c-.156.5966-.653.9517-1.307.9517-.994 0-1.633-.8239-1.633-2.0881 0-1.2358.653-2.0454 1.633-2.0454.739 0 1.179.4545 1.307.9517h.838c-.142-1.0228-1.008-1.7046-2.159-1.7046-1.477 0-2.457 1.1648-2.457 2.8267 0 1.6335.937 2.8125 2.471 2.8125zm5.586 0c1.477 0 2.472-1.1221 2.472-2.8125 0-1.7045-.995-2.8267-2.472-2.8267s-2.471 1.1222-2.471 2.8267c0 1.6904.994 2.8125 2.471 2.8125zm0-.7528c-1.122 0-1.633-.9659-1.633-2.0597 0-1.0937.511-2.0738 1.633-2.0738s1.634.9801 1.634 2.0738c0 1.0938-.512 2.0597-1.634 2.0597zm4.589-2.6421c0-.9517.59-1.4914 1.392-1.4914.778 0 1.25.5078 1.25 1.3636v3.4091h.838v-3.4659c0-1.3921-.742-2.0597-1.846-2.0597-.824 0-1.336.3693-1.591.9233h-.071v-.8523h-.81v5.4546h.838zm7.441-2.1733h-1.222v-.5539c0-.5398.227-.8239.781-.8239.242 0 .384.0568.469.0852l.241-.7244c-.127-.0568-.383-.1421-.795-.1421-.781 0-1.534.4688-1.534 1.4063v.7528h-.881v.7103h.881v4.7443h.838v-4.7443h1.222zm1.174 5.4546h.838v-5.4546h-.838zm.426-6.3637c.327 0 .597-.2556.597-.5681s-.27-.5682-.597-.5682c-.326 0-.596.2557-.596.5682s.27.5681.596.5681zm1.947 6.3637h.838v-3.4517c0-.7387.583-1.2784 1.378-1.2784.224 0 .455.0426.511.0568v-.8523c-.095-.0071-.316-.0142-.44-.0142-.653 0-1.221.3693-1.42.9091h-.057v-.8239h-.81zm3.721 0h.838v-3.4091c0-.799.582-1.3636 1.236-1.3636.635 0 1.079.4154 1.079 1.0369v3.7358h.853v-3.5512c0-.7031.44-1.2215 1.207-1.2215.597 0 1.108.316 1.108 1.1221v3.6506h.838v-3.6506c0-1.2819-.689-1.875-1.662-1.875-.781 0-1.353.3587-1.633.9233h-.057c-.27-.5824-.746-.9233-1.463-.9233-.711 0-1.236.3409-1.463.9233h-.071v-.8523h-.81zm12.74 0h.823l1.194-4.1904h.085l1.193 4.1904h.824l1.662-5.4546h-.881l-1.179 4.162h-.057l-1.15-4.162h-.895l-1.165 4.1762h-.057l-1.179-4.1762h-.88zm8.99.1136c1.108 0 1.918-.554 2.173-1.3778l-.809-.2273c-.213.5682-.707.8523-1.364.8523-.983 0-1.662-.6357-1.701-1.804h3.96v-.3551c0-2.0313-1.208-2.7273-2.344-2.7273-1.477 0-2.457 1.1648-2.457 2.8409 0 1.6762.965 2.7983 2.542 2.7983zm-1.701-3.2812c.057-.8488.657-1.6051 1.616-1.6051.909 0 1.491.6818 1.491 1.6051zm8.885-.1137c0-.9517.607-1.4914 1.437-1.4914.79 0 1.26.4971 1.26 1.3636v3.4091h.84v-3.4659c0-1.4027-.75-2.0597-1.86-2.0597-.86 0-1.35.3587-1.606.9233h-.071v-2.6704h-.838v7.2727h.838zm6.677 3.4091c.95 0 1.45-.5113 1.62-.8665h.04v.7387h.84v-3.5938c0-1.7329-1.32-1.9318-2.02-1.9318-.82 0-1.76.2841-2.19 1.2784l.8.2841c.18-.3977.62-.8238 1.42-.8238.77 0 1.15.4083 1.15 1.1079v.0284c0 .4048-.41.3693-1.41.4972-1.01.1314-2.11.3551-2.11 1.6051 0 1.0653.82 1.6761 1.86 1.6761zm.13-.7528c-.67 0-1.15-.2983-1.15-.8807 0-.6392.58-.8381 1.23-.9233.36-.0426 1.31-.142 1.45-.3125v.7671c0 .6818-.54 1.3494-1.53 1.3494zm8.16-4.8296h-.91l-1.5 4.3466h-.06l-1.5-4.3466h-.91l2.01 5.4546h.86zm3.2 5.5682c1.11 0 1.92-.554 2.17-1.3778l-.81-.2273c-.21.5682-.7.8523-1.36.8523-.98 0-1.66-.6357-1.7-1.804h3.96v-.3551c0-2.0313-1.21-2.7273-2.34-2.7273-1.48 0-2.46 1.1648-2.46 2.8409 0 1.6762.96 2.7983 2.54 2.7983zm-1.7-3.2812c.06-.8488.66-1.6051 1.62-1.6051.9 0 1.49.6818 1.49 1.6051zm-220.469 21.1676h.838v-3.4517c0-.7387.582-1.2784 1.378-1.2784.224 0 .454.0426.511.0568v-.8523c-.096-.0071-.316-.0142-.44-.0142-.653 0-1.222.3693-1.421.9091h-.056v-.8239h-.81zm5.842.1136c1.108 0 1.917-.554 2.173-1.3778l-.81-.2273c-.213.5682-.706.8523-1.363.8523-.984 0-1.662-.6357-1.701-1.804h3.959v-.3551c0-2.0313-1.207-2.7273-2.344-2.7273-1.477 0-2.457 1.1648-2.457 2.8409 0 1.6762.966 2.7983 2.543 2.7983zm-1.701-3.2812c.056-.8488.657-1.6051 1.615-1.6051.909 0 1.492.6818 1.492 1.6051zm7.45 3.2812c1.207 0 2.003-.7386 2.145-1.7045h-.838c-.157.5966-.654.9517-1.307.9517-.994 0-1.634-.8239-1.634-2.0881 0-1.2358.654-2.0454 1.634-2.0454.739 0 1.179.4545 1.307.9517h.838c-.142-1.0228-1.009-1.7046-2.159-1.7046-1.478 0-2.458 1.1648-2.458 2.8267 0 1.6335.938 2.8125 2.472 2.8125zm5.657 0c1.108 0 1.917-.554 2.173-1.3778l-.809-.2273c-.214.5682-.707.8523-1.364.8523-.984 0-1.662-.6357-1.701-1.804h3.959v-.3551c0-2.0313-1.207-2.7273-2.343-2.7273-1.478 0-2.458 1.1648-2.458 2.8409 0 1.6762.966 2.7983 2.543 2.7983zm-1.701-3.2812c.057-.8488.657-1.6051 1.616-1.6051.909 0 1.491.6818 1.491 1.6051zm5.234 3.1676h.838v-5.4546h-.838zm.426-6.3637c.327 0 .597-.2556.597-.5681s-.27-.5682-.597-.5682c-.326 0-.596.2557-.596.5682s.27.5681.596.5681zm6.408.9091h-.91l-1.505 4.3466h-.057l-1.506-4.3466h-.909l2.017 5.4546h.852zm3.197 5.5682c1.108 0 1.918-.554 2.174-1.3778l-.81-.2273c-.213.5682-.707.8523-1.364.8523-.983 0-1.662-.6357-1.701-1.804h3.96v-.3551c0-2.0313-1.208-2.7273-2.344-2.7273-1.477 0-2.457 1.1648-2.457 2.8409 0 1.6762.966 2.7983 2.542 2.7983zm-1.701-3.2812c.057-.8488.657-1.6051 1.616-1.6051.909 0 1.492.6818 1.492 1.6051zm7.294 3.2812c1.051 0 1.407-.6534 1.591-.9517h.1v.8381h.809v-7.2727h-.838v2.6846h-.071c-.184-.2841-.511-.9375-1.576-.9375-1.378 0-2.33 1.0938-2.33 2.8125 0 1.733.952 2.8267 2.315 2.8267zm.114-.7528c-1.051 0-1.591-.9233-1.591-2.0881 0-1.1506.526-2.0454 1.591-2.0454 1.023 0 1.562.8238 1.562 2.0454 0 1.2358-.553 2.0881-1.562 2.0881zm8.455.767c.952 0 1.449-.5113 1.62-.8665h.042v.7387h.838v-3.5938c0-1.7329-1.321-1.9318-2.017-1.9318-.824 0-1.761.2841-2.187 1.2784l.795.2841c.185-.3977.622-.8238 1.421-.8238.77 0 1.15.4083 1.15 1.1079v.0284c0 .4048-.412.3693-1.406.4972-1.012.1314-2.117.3551-2.117 1.6051 0 1.0653.824 1.6761 1.861 1.6761zm.128-.7528c-.668 0-1.15-.2983-1.15-.8807 0-.6392.582-.8381 1.235-.9233.355-.0426 1.307-.142 1.449-.3125v.7671c0 .6818-.54 1.3494-1.534 1.3494zm4.74-2.6563c0-.9517.589-1.4914 1.392-1.4914.778 0 1.25.5078 1.25 1.3636v3.4091h.838v-3.4659c0-1.3921-.742-2.0597-1.847-2.0597-.823 0-1.335.3693-1.59.9233h-.071v-.8523h-.81v5.4546h.838zm10.111 3.3949c1.108 0 1.918-.554 2.173-1.3778l-.809-.2273c-.213.5682-.707.8523-1.364.8523-.984 0-1.662-.6357-1.701-1.804h3.959v-.3551c0-2.0313-1.207-2.7273-2.343-2.7273-1.478 0-2.458 1.1648-2.458 2.8409 0 1.6762.966 2.7983 2.543 2.7983zm-1.701-3.2812c.057-.8488.657-1.6051 1.616-1.6051.909 0 1.491.6818 1.491 1.6051zm9.529-2.287h-.91l-1.505 4.3466h-.057l-1.506-4.3466h-.909l2.017 5.4546h.852zm3.197 5.5682c1.108 0 1.918-.554 2.174-1.3778l-.81-.2273c-.213.5682-.707.8523-1.364.8523-.983 0-1.662-.6357-1.701-1.804h3.96v-.3551c0-2.0313-1.208-2.7273-2.344-2.7273-1.477 0-2.457 1.1648-2.457 2.8409 0 1.6762.966 2.7983 2.542 2.7983zm-1.701-3.2812c.057-.8488.657-1.6051 1.616-1.6051.909 0 1.492.6818 1.492 1.6051zm6.073-.1137c0-.9517.589-1.4914 1.392-1.4914.778 0 1.25.5078 1.25 1.3636v3.4091h.838v-3.4659c0-1.3921-.742-2.0597-1.847-2.0597-.824 0-1.335.3693-1.591.9233h-.071v-.8523h-.809v5.4546h.838zm7.383-2.1733h-1.164v-1.3068h-.838v1.3068h-.824v.7103h.824v3.4091c0 .9517.767 1.4062 1.477 1.4062.312 0 .511-.0568.625-.0994l-.171-.7529c-.071.0142-.184.0426-.369.0426-.369 0-.724-.1136-.724-.8238v-3.1818h1.164zm1.872 5.5114c.351 0 .639-.2876.639-.6392s-.288-.6392-.639-.6392c-.352 0-.639.2876-.639.6392s.287.6392.639.6392z" fill="#22222a"/><path d="m799.474 43.3485c2.375 0 4.12-1.4204 4.114-3.3522.006-1.4716-.886-2.5284-2.432-2.7671v-.0909c1.216-.3125 2.006-1.267 2-2.5738.006-1.7103-1.397-3.1705-3.636-3.1705-2.136 0-3.852 1.2898-3.909 3.1818h1.699c.039-1.0682 1.045-1.7159 2.187-1.7159 1.188 0 1.966.7216 1.96 1.7955.006 1.125-.897 1.8636-2.187 1.8636h-.983v1.4318h.983c1.614 0 2.545.8182 2.545 1.9887 0 1.1306-.983 1.8977-2.352 1.8977-1.261 0-2.244-.6477-2.312-1.6818h-1.785c.074 1.8977 1.756 3.1931 4.108 3.1931zm7.034-.0511c.62 0 1.137-.5057 1.137-1.1364 0-.6193-.517-1.1306-1.137-1.1306-.625 0-1.136.5113-1.136 1.1306 0 .6307.511 1.1364 1.136 1.1364zm7.002-10.2329h3.625v10.125h1.75v-10.125h3.63v-1.5114h-9.005zm13.345 10.3011c1.903 0 3.25-.9375 3.636-2.358l-1.608-.2897c-.307.8238-1.045 1.2443-2.011 1.2443-1.455 0-2.432-.9432-2.477-2.625h6.204v-.6023c0-3.1534-1.886-4.3864-3.863-4.3864-2.432 0-4.035 1.8523-4.035 4.5341 0 2.7103 1.58 4.483 4.154 4.483zm-2.455-5.3011c.068-1.2387.966-2.3125 2.347-2.3125 1.318 0 2.182.9772 2.187 2.3125zm14.614-1.4716c-.352-1.358-1.415-2.2444-3.301-2.2444-1.972 0-3.37 1.0398-3.37 2.5853 0 1.2386.75 2.0625 2.387 2.4261l1.477.3239c.841.1875 1.233.5625 1.233 1.1079 0 .6762-.722 1.2046-1.835 1.2046-1.017 0-1.671-.4375-1.875-1.2955l-1.642.25c.284 1.5455 1.568 2.4148 3.528 2.4148 2.108 0 3.568-1.1193 3.568-2.6989 0-1.2329-.784-1.9943-2.386-2.3636l-1.386-.3182c-.961-.2273-1.375-.5511-1.37-1.142-.005-.6705.722-1.1478 1.688-1.1478 1.057 0 1.545.5853 1.744 1.1705zm6.102-2.1307h-1.79v-2.0909h-1.699v2.0909h-1.278v1.3636h1.278v5.1534c-.005 1.5853 1.205 2.3523 2.546 2.3239.54-.0057.903-.108 1.102-.1818l-.307-1.4034c-.113.0227-.323.0738-.596.0738-.551 0-1.046-.1818-1.046-1.1647v-4.8012h1.79zm5.332-2.9091 4.222 7.0682v4.5682h1.75v-4.5682l4.222-7.0682h-1.995l-3.04 5.2898h-.125l-3.039-5.2898zm13.959 11.8125c2.46 0 4.068-1.8011 4.068-4.5 0-2.7159-1.608-4.5171-4.068-4.5171s-4.068 1.8012-4.068 4.5171c0 2.6989 1.608 4.5 4.068 4.5zm.006-1.4261c-1.608 0-2.358-1.4035-2.358-3.0796 0-1.6704.75-3.0909 2.358-3.0909 1.596 0 2.346 1.4205 2.346 3.0909 0 1.6761-.75 3.0796-2.346 3.0796zm11.477-2.3694c.006 1.483-1.097 2.1875-2.051 2.1875-1.051 0-1.779-.7613-1.779-1.9488v-5.3466h-1.698v5.5511c0 2.1648 1.187 3.2898 2.863 3.2898 1.313 0 2.205-.6932 2.608-1.625h.091v1.5114h1.671v-8.7273h-1.705zm3.977 3.6194h1.699v-5.3296c0-1.142.881-1.9659 2.085-1.9659.353 0 .75.0625.887.1023v-1.625c-.171-.0228-.506-.0398-.722-.0398-1.023 0-1.898.5795-2.216 1.517h-.091v-1.3863h-1.642zm10.492 0h1.755v-5.0739h4.943v-1.5057h-4.943v-3.5454h5.461v-1.5114h-7.216zm10.927-11.6364h-1.699v11.6364h1.699zm4.815 11.8295c1.444 0 2.256-.7329 2.58-1.3863h.068v1.1932h1.659v-5.7955c0-2.5398-2-3.0455-3.386-3.0455-1.58 0-3.034.6364-3.602 2.2273l1.596.3637c.25-.6194.887-1.216 2.029-1.216 1.096 0 1.659.5739 1.659 1.5625v.0398c0 .6193-.637.608-2.205.7898-1.653.1932-3.346.625-3.346 2.6079 0 1.716 1.289 2.6591 2.948 2.6591zm.37-1.3636c-.961 0-1.654-.4318-1.654-1.2727 0-.9091.807-1.233 1.79-1.3637.551-.0738 1.858-.2216 2.102-.4659v1.125c0 1.0341-.824 1.9773-2.238 1.9773zm9.849 4.625c2.222 0 3.938-1.017 3.938-3.2614v-8.9204h-1.665v1.4148h-.125c-.301-.5398-.904-1.5285-2.529-1.5285-2.108 0-3.659 1.6648-3.659 4.4432 0 2.7841 1.586 4.2671 3.648 4.2671 1.602 0 2.222-.9034 2.528-1.4603h.108v1.716c0 1.3693-.937 1.9602-2.227 1.9602-1.415 0-1.966-.7102-2.267-1.2102l-1.46.6022c.46 1.0682 1.625 1.9773 3.71 1.9773zm-.017-4.9943c-1.517 0-2.307-1.1648-2.307-2.8807 0-1.6761.773-2.9773 2.307-2.9773 1.483 0 2.278 1.2103 2.278 2.9773 0 1.8011-.812 2.8807-2.278 2.8807z" fill="#22222a"/><g fill="#aeaeae"><path clip-rule="evenodd" d="m783 38.711c0-1.4973-1.224-2.711-2.733-2.711h-35.534c-1.509 0-2.733 1.2137-2.733 2.711v6.7775c0 1.4972 1.224 2.7109 2.733 2.7109h35.534c1.509 0 2.733-1.2137 2.733-2.7109zm-38.267-1.3555h35.534l.159.0091c.68.0783 1.207.6513 1.207 1.3464v6.7775l-.009.158c-.079.6742-.656 1.1975-1.357 1.1975h-35.534l-.159-.0092c-.68-.0783-1.207-.6512-1.207-1.3463v-6.7775l.009-.1581c.079-.6741.656-1.1974 1.357-1.1974zm32.8 4.7453c0-1.1229-.918-2.0332-2.05-2.0332s-2.05.9103-2.05 2.0332.918 2.0332 2.05 2.0332 2.05-.9103 2.05-2.0332zm-2.733-.0002c0-.3743.306-.6777.683-.6777.378 0 .684.3034.684.6777s-.306.6778-.684.6778c-.377 0-.683-.3035-.683-.6778zm-3.772-.0002c0-.3743-.306-.6777-.683-.6777h-22.886l-.122.0109c-.319.0574-.561.3341-.561.6668 0 .3744.306.6778.683.6778h22.886l.123-.0109c.319-.0574.56-.3341.56-.6669z" fill-rule="evenodd"/><path d="m780.267 37.3555.007-.125h-.007zm.159.0091.014-.1244-.007-.0004zm1.207 8.1239.125.0072v-.0072zm-.009.158.125.0146v-.0073zm-36.891 1.1975-.007.125h.007zm-.159-.0092-.014.1244.007.0004zm-1.207-8.1238-.125-.0073v.0073zm.009-.1581-.124-.0145-.001.0073zm4.083 2.8698v-.1255l-.011.001zm-.122.0109-.012-.125-.011.002zm23.008 1.3446v.1255l.011-.001zm.123-.0109.011.125.011-.002zm9.799-6.6423c1.441 0 2.608 1.1588 2.608 2.586h.25c0-1.5673-1.281-2.836-2.858-2.836zm-35.534 0h35.534v-.25h-35.534zm-2.608 2.586c0-1.4272 1.167-2.586 2.608-2.586v-.25c-1.577 0-2.858 1.2687-2.858 2.836zm0 6.7775v-6.7775h-.25v6.7775zm2.608 2.5859c-1.441 0-2.608-1.1587-2.608-2.5859h-.25c0 1.5672 1.281 2.8359 2.858 2.8359zm35.534 0h-35.534v.25h35.534zm2.608-2.5859c0 1.4272-1.167 2.5859-2.608 2.5859v.25c1.577 0 2.858-1.2687 2.858-2.8359zm0-6.7775v6.7775h.25v-6.7775zm-2.608-1.4805h-35.534v.25h35.534zm.166.0093-.159-.0091-.014.2496.159.0091zm1.325 1.4712c0-.7602-.576-1.3852-1.318-1.4705l-.028.2483c.618.0712 1.096.5921 1.096 1.2222zm0 6.7775v-6.7775h-.25v6.7775zm-.009.1653.009-.1581-.249-.0145-.01.1581zm-1.482 1.3152c.764 0 1.395-.5707 1.481-1.3079l-.248-.0291c-.072.6111-.596 1.087-1.233 1.087zm-35.534 0h35.534v-.25h-35.534zm-.166-.0094.159.0092.014-.2496-.159-.0092zm-1.325-1.4711c0 .7602.576 1.3851 1.318 1.4705l.028-.2483c-.618-.0712-1.096-.5921-1.096-1.2222zm0-6.7775v6.7775h.25v-6.7775zm.009-.1653-.009.158.249.0146.01-.1581zm1.482-1.3152c-.764 0-1.395.5707-1.481 1.3079l.248.0291c.072-.6111.596-1.087 1.233-1.087zm30.75 2.9621c1.064 0 1.925.8553 1.925 1.9082h.25c0-1.1929-.975-2.1582-2.175-2.1582zm-1.925 1.9082c0-1.0529.861-1.9082 1.925-1.9082v-.25c-1.2 0-2.175.9653-2.175 2.1582zm1.925 1.9082c-1.064 0-1.925-.8553-1.925-1.9082h-.25c0 1.1929.975 2.1582 2.175 2.1582zm1.925-1.9082c0 1.0529-.861 1.9082-1.925 1.9082v.25c1.2 0 2.175-.9653 2.175-2.1582zm-1.925-.8029c-.445 0-.808.3584-.808.8027h.25c0-.3043.249-.5527.558-.5527zm.809.8027c0-.4443-.363-.8027-.809-.8027v.25c.31 0 .559.2484.559.5527zm-.809.8028c.446 0 .809-.3585.809-.8028h-.25c0 .3043-.249.5528-.559.5528zm-.808-.8028c0 .4443.363.8028.808.8028v-.25c-.309 0-.558-.2485-.558-.5528zm-4.33-.5529c.309 0 .558.2484.558.5527h.25c0-.4443-.362-.8027-.808-.8027zm-22.886 0h22.886v-.25h-22.886zm-.111.0104.122-.0109-.022-.249-.123.0109zm-.447.5423c0-.2704.197-.4968.458-.5438l-.045-.246c-.376.0678-.663.3948-.663.7898zm.558.5528c-.309 0-.558-.2484-.558-.5528h-.25c0 .4444.363.8028.808.8028zm22.886 0h-22.886v.25h22.886zm.112-.0104-.123.0109.022.249.123-.0109zm.446-.5424c0 .2705-.196.4969-.457.5439l.044.246c.377-.0678.663-.3949.663-.7899z"/><path clip-rule="evenodd" d="m783 49.5557c0-1.4972-1.224-2.711-2.733-2.711h-35.534c-1.509 0-2.733 1.2138-2.733 2.711v6.7775c0 1.4972 1.224 2.711 2.733 2.711h35.534c1.509 0 2.733-1.2138 2.733-2.711zm-38.267-1.3555h35.534l.159.0091c.68.0783 1.207.6512 1.207 1.3464v6.7774l-.009.1581c-.079.6741-.656 1.1974-1.357 1.1974h-35.534l-.159-.0091c-.68-.0783-1.207-.6512-1.207-1.3464v-6.7774l.009-.1581c.079-.6742.656-1.1974 1.357-1.1974zm32.8 4.7453c0-1.123-.918-2.0333-2.05-2.0333s-2.05.9103-2.05 2.0333c0 1.1229.918 2.0332 2.05 2.0332s2.05-.9103 2.05-2.0332zm-2.733-.0003c0-.3743.306-.6777.683-.6777.378 0 .684.3034.684.6777s-.306.6778-.684.6778c-.377 0-.683-.3035-.683-.6778zm-3.772-.0001c0-.3743-.306-.6777-.683-.6777h-22.886l-.122.0109c-.319.0574-.561.3341-.561.6668 0 .3743.306.6777.683.6777h22.886l.123-.0109c.319-.0574.56-.3341.56-.6668z" fill-rule="evenodd"/><path d="m780.267 48.2002.007-.125h-.007zm.159.0091.014-.1244-.007-.0004zm1.207 8.1238.125.0073v-.0073zm-.009.1581.125.0146v-.0073zm-36.891 1.1974-.007.125h.007zm-.159-.0091-.014.1244.007.0004zm-1.207-8.1238-.125-.0073v.0073zm.009-.1581-.124-.0146-.001.0073zm4.083 2.8698v-.1255l-.011.0009zm-.122.0109-.012-.125-.011.002zm23.008 1.3445v.1255l.011-.0009zm.123-.0109.011.125.011-.0019zm9.799-6.6422c1.441 0 2.608 1.1588 2.608 2.586h.25c0-1.5672-1.281-2.836-2.858-2.836zm-35.534 0h35.534v-.25h-35.534zm-2.608 2.586c0-1.4272 1.167-2.586 2.608-2.586v-.25c-1.577 0-2.858 1.2688-2.858 2.836zm0 6.7775v-6.7775h-.25v6.7775zm2.608 2.586c-1.441 0-2.608-1.1588-2.608-2.586h-.25c0 1.5672 1.281 2.836 2.858 2.836zm35.534 0h-35.534v.25h35.534zm2.608-2.586c0 1.4272-1.167 2.586-2.608 2.586v.25c1.577 0 2.858-1.2688 2.858-2.836zm0-6.7775v6.7775h.25v-6.7775zm-2.608-1.4805h-35.534v.25h35.534zm.166.0093-.159-.0091-.014.2496.159.0091zm1.325 1.4712c0-.7602-.576-1.3852-1.318-1.4706l-.028.2484c.618.0712 1.096.5921 1.096 1.2222zm0 6.7774v-6.7774h-.25v6.7774zm-.009.1654.009-.1581-.249-.0145-.01.158zm-1.482 1.3151c.764 0 1.395-.5707 1.481-1.3079l-.248-.029c-.072.6111-.596 1.0869-1.233 1.0869zm-35.534 0h35.534v-.25h-35.534zm-.166-.0093.159.0091.014-.2496-.159-.0091zm-1.325-1.4712c0 .7602.576 1.3852 1.318 1.4706l.028-.2484c-.618-.0712-1.096-.5921-1.096-1.2222zm0-6.7774v6.7774h.25v-6.7774zm.009-.1654-.009.1581.249.0145.01-.1581zm1.482-1.3151c-.764 0-1.395.5707-1.481 1.3078l.248.0291c.072-.6111.596-1.0869 1.233-1.0869zm30.75 2.962c1.064 0 1.925.8553 1.925 1.9083h.25c0-1.193-.975-2.1583-2.175-2.1583zm-1.925 1.9083c0-1.053.861-1.9083 1.925-1.9083v-.25c-1.2 0-2.175.9653-2.175 2.1583zm1.925 1.9082c-1.064 0-1.925-.8553-1.925-1.9082h-.25c0 1.1929.975 2.1582 2.175 2.1582zm1.925-1.9082c0 1.0529-.861 1.9082-1.925 1.9082v.25c1.2 0 2.175-.9653 2.175-2.1582zm-1.925-.803c-.445 0-.808.3584-.808.8027h.25c0-.3043.249-.5527.558-.5527zm.809.8027c0-.4443-.363-.8027-.809-.8027v.25c.31 0 .559.2484.559.5527zm-.809.8028c.446 0 .809-.3585.809-.8028h-.25c0 .3043-.249.5528-.559.5528zm-.808-.8028c0 .4443.363.8028.808.8028v-.25c-.309 0-.558-.2485-.558-.5528zm-4.33-.5528c.309 0 .558.2484.558.5527h.25c0-.4443-.362-.8027-.808-.8027zm-22.886 0h22.886v-.25h-22.886zm-.111.0104.122-.0109-.022-.2491-.123.011zm-.447.5423c0-.2704.197-.4968.458-.5438l-.045-.246c-.376.0677-.663.3948-.663.7898zm.558.5527c-.309 0-.558-.2484-.558-.5527h-.25c0 .4443.363.8027.808.8027zm22.886 0h-22.886v.25h22.886zm.112-.0104-.123.0109.022.2491.123-.011zm.446-.5423c0 .2704-.196.4968-.457.5438l.044.2461c.377-.0678.663-.3949.663-.7899z"/><path clip-rule="evenodd" d="m783 60.3985c0-1.4973-1.224-2.711-2.733-2.711h-35.534c-1.509 0-2.733 1.2137-2.733 2.711v6.7775c0 1.4972 1.224 2.7109 2.733 2.7109h35.534c1.509 0 2.733-1.2137 2.733-2.7109zm-38.267-1.3555h35.534l.159.0092c.68.0783 1.207.6512 1.207 1.3463v6.7775l-.009.1581c-.079.6741-.656 1.1974-1.357 1.1974h-35.534l-.159-.0091c-.68-.0783-1.207-.6513-1.207-1.3464v-6.7775l.009-.158c.079-.6742.656-1.1975 1.357-1.1975zm32.8 4.7453c0-1.1229-.918-2.0332-2.05-2.0332s-2.05.9103-2.05 2.0332c0 1.123.918 2.0333 2.05 2.0333s2.05-.9103 2.05-2.0333zm-2.733-.0001c0-.3743.306-.6778.683-.6778.378 0 .684.3035.684.6778s-.306.6777-.684.6777c-.377 0-.683-.3034-.683-.6777zm-3.772-.0002c0-.3743-.306-.6778-.683-.6778h-22.886l-.122.011c-.319.0573-.561.3341-.561.6668 0 .3743.306.6777.683.6777h22.886l.123-.0109c.319-.0574.56-.3341.56-.6668z" fill-rule="evenodd"/><path d="m780.267 59.043.007-.125h-.007zm.159.0092.014-.1244-.007-.0004zm1.207 8.1238.125.0073v-.0073zm-.009.1581.125.0145v-.0073zm-36.891 1.1974-.007.125h.007zm-.159-.0091-.014.1244.007.0004zm-1.207-8.1239-.125-.0072v.0072zm.009-.158-.124-.0146-.001.0073zm4.083 2.8697v-.1255l-.011.001zm-.122.011-.012-.1251-.011.002zm23.008 1.3445v.1255l.011-.001zm.123-.0109.011.125.011-.002zm9.799-6.6423c1.441 0 2.608 1.1588 2.608 2.586h.25c0-1.5673-1.281-2.836-2.858-2.836zm-35.534 0h35.534v-.25h-35.534zm-2.608 2.586c0-1.4272 1.167-2.586 2.608-2.586v-.25c-1.577 0-2.858 1.2687-2.858 2.836zm0 6.7775v-6.7775h-.25v6.7775zm2.608 2.5859c-1.441 0-2.608-1.1587-2.608-2.5859h-.25c0 1.5672 1.281 2.8359 2.858 2.8359zm35.534 0h-35.534v.25h35.534zm2.608-2.5859c0 1.4272-1.167 2.5859-2.608 2.5859v.25c1.577 0 2.858-1.2687 2.858-2.8359zm0-6.7775v6.7775h.25v-6.7775zm-2.608-1.4805h-35.534v.25h35.534zm.166.0094-.159-.0092-.014.2496.159.0092zm1.325 1.4711c0-.7601-.576-1.3851-1.318-1.4705l-.028.2483c.618.0713 1.096.5921 1.096 1.2222zm0 6.7775v-6.7775h-.25v6.7775zm-.009.1653.009-.158-.249-.0146-.01.1581zm-1.482 1.3152c.764 0 1.395-.5707 1.481-1.3079l-.248-.0291c-.072.6111-.596 1.087-1.233 1.087zm-35.534 0h35.534v-.25h-35.534zm-.166-.0093.159.0091.014-.2496-.159-.0091zm-1.325-1.4712c0 .7602.576 1.3852 1.318 1.4706l.028-.2484c-.618-.0712-1.096-.5921-1.096-1.2222zm0-6.7775v6.7775h.25v-6.7775zm.009-.1653-.009.1581.249.0145.01-.1581zm1.482-1.3152c-.764 0-1.395.5707-1.481 1.3079l.248.0291c.072-.6111.596-1.087 1.233-1.087zm30.75 2.9621c1.064 0 1.925.8553 1.925 1.9082h.25c0-1.1929-.975-2.1582-2.175-2.1582zm-1.925 1.9082c0-1.0529.861-1.9082 1.925-1.9082v-.25c-1.2 0-2.175.9653-2.175 2.1582zm1.925 1.9083c-1.064 0-1.925-.8553-1.925-1.9083h-.25c0 1.193.975 2.1583 2.175 2.1583zm1.925-1.9083c0 1.053-.861 1.9083-1.925 1.9083v.25c1.2 0 2.175-.9653 2.175-2.1583zm-1.925-.8029c-.445 0-.808.3585-.808.8028h.25c0-.3043.249-.5528.558-.5528zm.809.8028c0-.4443-.363-.8028-.809-.8028v.25c.31 0 .559.2485.559.5528zm-.809.8027c.446 0 .809-.3584.809-.8027h-.25c0 .3043-.249.5527-.559.5527zm-.808-.8027c0 .4443.363.8027.808.8027v-.25c-.309 0-.558-.2484-.558-.5527zm-4.33-.553c.309 0 .558.2485.558.5528h.25c0-.4443-.362-.8028-.808-.8028zm-22.886 0h22.886v-.25h-22.886zm-.111.0105.122-.011-.022-.249-.123.0109zm-.447.5423c0-.2705.197-.4968.458-.5438l-.045-.2461c-.376.0678-.663.3949-.663.7899zm.558.5527c-.309 0-.558-.2484-.558-.5527h-.25c0 .4443.363.8027.808.8027zm22.886 0h-22.886v.25h22.886zm.112-.0104-.123.0109.022.249.123-.0109zm.446-.5423c0 .2704-.196.4968-.457.5438l.044.246c.377-.0678.663-.3948.663-.7898z"/></g><path clip-rule="evenodd" d="m729.3 51.6598c-1.049.6922-1.57 1.9809-1.16 2.8636l11.207 24.0738c.411.8827 1.606 1.0385 2.655.3463 1.048-.6923 1.57-1.9809 1.159-2.8636l-11.207-24.0739c-.41-.8827-1.605-1.0385-2.654-.3462zm3.051 1.237 7.105 15.2607c1.754-6.9649 13.275-2.4016 16.509-10.8968l-7.104-15.2607c-2.95 9.3196-15.33 2.697-16.51 10.8968z" fill="#fff" fill-rule="evenodd"/><path d="m728.14 54.5234-.453.211zm11.207 24.0738.454-.211zm3.814-2.5173-.453.211zm-11.207-24.0739.454-.211zm.397.8908-.494-.0713-.022.1473.063.135zm7.105 15.2607-.454.211.595 1.2763.343-1.3652zm16.509-10.8968.467.1779.076-.1974-.09-.1915zm-7.104-15.2607.453-.211-.542-1.1649-.388 1.225zm-19.836 9.2425c-.609.4018-1.067.977-1.315 1.5899-.247.6083-.303 1.301-.023 1.902l.907-.4221c-.131-.2817-.132-.6747.042-1.1044.173-.4252.5-.8404.94-1.1308zm-1.338 3.4919 11.207 24.0738.907-.422-11.207-24.0739zm11.207 24.0738c.287.6169.849.9667 1.477 1.0486.618.0806 1.298-.0946 1.906-.496l-.551-.8346c-.441.2909-.882.3838-1.226.339-.335-.0437-.576-.2132-.699-.479zm3.383.5526c.609-.4018 1.067-.9771 1.315-1.59.247-.6083.302-1.301.023-1.902l-.907.4221c.131.2817.132.6747-.043 1.1045-.172.4251-.499.8403-.939 1.1308zm1.338-3.492-11.207-24.0738-.907.422 11.207 24.0739zm-11.207-24.0738c-.287-.6169-.849-.9667-1.477-1.0485-.618-.0807-1.298.0946-1.906.496l.551.8346c.44-.2909.882-.3839 1.226-.339.335.0436.575.2131.699.4789zm-.51 1.3128 7.104 15.2607.907-.4221-7.104-15.2607zm8.042 15.1718c.396-1.5715 1.328-2.4872 2.603-3.1206 1.311-.6511 2.944-.9864 4.723-1.3883 3.489-.7885 7.446-1.8121 9.166-6.3321l-.934-.3558c-1.513 3.9752-4.934 4.9175-8.452 5.7125-1.725.3897-3.503.7505-4.948 1.4681-1.48.7353-2.646 1.861-3.127 3.7719zm16.478-11.2299-7.104-15.2607-.906.422 7.104 15.2607zm-8.034-15.2006c-.695 2.1979-1.93 3.428-3.409 4.1873-1.51.7746-3.29 1.0687-5.106 1.3373-1.774.2626-3.617.5028-5.076 1.2234-.744.367-1.404.8648-1.917 1.5633-.514.6986-.862 1.5726-1.019 2.6651l.989.1425c.138-.9575.435-1.6701.835-2.2153.401-.5451.925-.9481 1.554-1.2589 1.286-.6351 2.944-.8592 4.781-1.1309 1.795-.2656 3.737-.5758 5.415-1.4368 1.708-.8764 3.127-2.3133 3.907-4.7752z" fill="#9293ab"/><path d="m392.833 78.6892c-1.667-.4961-3.249-1.1883-4.721-2.0497l-.498.4979c-1.204 1.2041-3.156 1.2041-4.36 0l-3.392-3.3915c-1.204-1.2041-1.204-3.1564 0-4.3605l.498-.4978c-.861-1.4716-1.553-3.0542-2.05-4.7213h-.893c-1.703 0-3.084-1.3804-3.084-3.0833v-6.1667c0-1.7028 1.381-3.0833 3.084-3.0833h.893c.497-1.667 1.189-3.2497 2.05-4.7212l-.498-.4979c-1.204-1.2041-1.204-3.1563 0-4.3604l3.392-3.3915c1.204-1.2042 3.156-1.2042 4.36 0l.498.4978c1.472-.8614 3.054-1.5535 4.721-2.0497v-.8938c0-1.7028 1.381-3.0833 3.084-3.0833h6.166c1.703 0 3.084 1.3805 3.084 3.0833v.8938c1.667.4962 3.249 1.1883 4.721 2.0497l.498-.4978c1.204-1.2042 3.156-1.2042 4.36 0l3.392 3.3915c1.204 1.2041 1.204 3.1563 0 4.3604l-.498.4979c.861 1.4715 1.553 3.0542 2.049 4.7212h.894c1.703 0 3.084 1.3805 3.084 3.0833v6.1667c0 1.7029-1.381 3.0833-3.084 3.0833h-.894c-.496 1.6671-1.188 3.2497-2.049 4.7213l.498.4978c1.204 1.2041 1.204 3.1564 0 4.3605l-3.392 3.3915c-1.204 1.2041-3.156 1.2041-4.36 0l-.498-.4979c-1.472.8614-3.054 1.5536-4.721 2.0497v.8938c0 1.7029-1.381 3.0833-3.084 3.0833h-6.166c-1.703 0-3.084-1.3804-3.084-3.0833z" stroke="#6b6d85" stroke-linecap="round" stroke-linejoin="round"/><path d="m399 67.25c5.109 0 9.25-4.1414 9.25-9.25s-4.141-9.25-9.25-9.25-9.25 4.1414-9.25 9.25 4.141 9.25 9.25 9.25z" style="opacity:.3;fill-rule:evenodd;clip-rule:evenodd;stroke:#6b6d85;stroke-linecap:round;stroke-linejoin:round"/></svg>