<svg fill="none" viewBox="0 0 279 247" xmlns="http://www.w3.org/2000/svg" xmlns:xlink="http://www.w3.org/1999/xlink"><radialGradient id="a" cx="0" cy="0" gradientTransform="matrix(0 61.6957 -138.325 0 138.325 61.6957)" gradientUnits="userSpaceOnUse" r="1"><stop offset="0" stop-color="#c4c4c4" stop-opacity=".5"/><stop offset="1" stop-color="#c4c4c4" stop-opacity="0"/></radialGradient><clipPath id="b"><path d="m64.001 0h132v134h-132z"/></clipPath><g clip-path="url(#b)"><g clip-rule="evenodd" fill="#000" fill-rule="evenodd"><path d="m133.434 67.2459c1.386.9724 2.469 2.8645 4.299.8874 1.969 1.1424 3.301 2.8628 4.871 4.3129 2.894 2.669 5.811 5.321 8.729 7.9696 1.086.9843 2.234 1.9023 3.283 2.9223.956.9282 1.007 2.2542 1.351 3.451.125.4403.297 1.0217.638 1.2257 3.484 2.0825 6.174 5.1153 9.323 7.5922 3.698 2.9104 7.479 5.717 11.25 8.534 2.141 1.598 4.333 3.143 6.51 4.695 1.452 1.034 2.98 1.971 4.364 3.089 1.468 1.18 2.864.713 4.266.048 2.134-1.012 3.383-2.844 4.338-4.908.265-.575.445-1.192.624-1.802.758-2.596.446-3.349-1.69-4.962-4.009-3.0297-7.987-6.0965-11.951-9.1837-4.32-3.3592-8.631-6.7286-12.888-10.1592-1.235-.9979-2.395-2.1284-3.38-3.3643-.733-.918-1.581-1.3362-2.627-1.1883-2.028.2822-3.495-.5627-4.964-1.8411-3.021-2.6265-6.143-5.1391-9.258-7.65-1.283-1.0336-2.669-1.9465-4.014-2.9053-1.458-1.0421-2.642-2.2661-3.485-3.9117-.491-.9571-1.574-1.6218-2.281-2.3086.843-3.0056 1.846-5.8276 2.378-8.7329.394-2.159.321-4.4302.212-6.647-.217-4.5254-1.767-8.653-4.043-12.5562-1.716-2.9427-3.869-5.4927-6.418-7.7401-.095-.0833-.162-.204-.264-.272-3.439-2.2797-6.627-4.9249-10.437-6.6334-2.094-.9367-4.242-1.2784-6.511-1.1951-3.04.1122-6.063-.1496-9.101.6783-2.934.8041-5.561 2.21-8.2443 3.4867-3.0842 1.4637-5.6618 3.6414-7.557 6.5331-.6926 1.0608-1.2982 2.1845-1.9789 3.2538-2.1102 3.3099-2.4684 7.1383-3.1968 10.8443-.7352 3.7094-.7898 7.4851-.0597 11.1826.7438 3.7995 1.9532 7.4256 4.582 10.5111 1.9481 2.2865 3.8621 4.539 6.2742 6.3529 2.361 1.7697 4.9555 3.1161 7.7275 4.0494 4.464 1.5062 9.101 1.8513 13.782 1.5946 1.075-.0595 2.151-.2601 3.199-.5219 1.973-.4879 3.947-.9894 5.876-1.6235 1.38-.4556 2.699-1.1067 4.016-1.7323.846-.4029 1.644-.9197 2.456-1.3753zm22.979 17.8262c4.527-.6885 6.376-3.7315 7.129-7.7061 1.395-.1071 2.475.3298 3.387 1.2036.642.6205 1.21 1.3175 1.887 1.8955 1.935 1.6507 3.883 3.2912 5.867 4.8807 3.867 3.111 7.739 6.2118 11.653 9.2599 2.813 2.1879 5.709 4.2704 8.543 6.4273 1.603 1.224 1.91 2.078 1.293 3.961-.372 1.134-.949 2.204-1.466 3.286-.732 1.522-1.975 2.494-3.572 2.938-.558.162-1.315.173-1.805-.083-1.634-.842-3.254-1.75-4.762-2.797-3.19-2.21-6.367-4.445-9.429-6.822-4.522-3.5052-8.942-7.1466-13.394-10.7353-.691-.5559-1.326-1.1798-2.013-1.7425-1.273-1.0404-2.641-2.0009-3.318-3.9661zm-70.3697-39.1663c.0938-1.4569.1979-2.9121.2695-4.3724.2508-5.3584 1.7639-10.37 4.5513-14.9243 1.6172-2.6435 3.5687-5.1119 6.525-6.5178 1.7212-.816 3.4199-1.6915 5.0849-2.6163 2.675-1.4892 5.58-2.091 8.586-2.312 1.525-.1122 3.064-.2057 4.589-.1496 1.957.0629 3.94.0408 5.778.9741 2.847 1.4518 5.515 3.1484 8.137 4.981 4.046 2.8203 7.374 6.2016 9.587 10.6369 2.101 4.2143 3.381 8.6326 3.348 13.3688-.032 4.3316-1.168 8.4065-3.114 12.2621-.516 1.02-1.116 1.9975-1.665 3.0005-2.58 4.7158-6.5 7.7418-11.65 9.2174-2.076.595-4.172 1.1458-6.26 1.7-.616.1615-1.256.3944-1.874.3672-2.528-.1224-5.051-.3893-7.584-.5015-4.326-.1904-8.277-1.6864-11.8626-3.8913-3.7734-2.3205-6.7655-5.6185-9.0838-9.3908-2.2074-3.5921-3.1184-7.6228-3.3623-11.832zm56.6297 16.2486c.299.1955.736.4437 1.13.7531 3.661 2.8611 7.33 5.7035 10.948 8.6139 1.974 1.5861 3.881 3.264 5.771 4.9487 1.331 1.1849 1.655 2.5636.986 3.9287-.605 1.2308-1.564 2.1607-2.767 2.7999-1.119.595-2.124.5083-3.152-.3876-1.624-1.4246-3.375-2.7047-5.065-4.0562-.452-.3553-.897-.7157-1.308-1.1118-3.109-3.0124-6.21-6.0248-9.294-9.0627-.433-.4267-.752-.9707-1.036-1.3464 1.328-1.785 2.537-3.4051 3.787-5.0796zm-7.957 4.3401c1.886-2.6639 3.684-5.202 5.487-7.7486 1.701 1.4382 1.653 1.4875.99 3.2453-.85 2.2474-2.687 3.621-4.379 5.1119-.819.7208-1.107.5712-2.098-.6086z"/><path d="m88.1587 43.2812c-.087 3.5037.6908 6.8442 1.9054 10.0691 1.914 5.0796 5.4776 8.8247 10.0429 11.6331 3.06 1.8802 6.347 3.2334 9.971 3.6414.685.0765 1.352.3417 2.026.527 2.997.8109 5.955.323 8.886-.3196 2.115-.4624 4.244-.9469 6.262-1.7 1.389-.5253 2.87-1.2903 3.832-2.3681 2.238-2.5007 4.5-5.0779 6.172-7.9594 2.166-3.7332 3.643-7.7554 3.009-12.3284-.498-3.6074-.959-7.1961-2.697-10.4346-1.136-2.1165-2.407-4.1905-3.874-6.0894-3.006-3.8794-6.928-6.7745-11.266-8.942-3.441-1.717-7.272-2.3477-11.148-1.734-2.564.4046-5.15.8653-7.62 1.6388-3.651 1.139-6.745 3.1943-9.1111 6.3019-2.291 3.0124-3.8672 6.4005-5.4759 9.7767-.2149.4522-.3463.969-.3906 1.4637-.203 2.2746-.3531 4.5492-.5237 6.8238zm1.1634-2.3341c0-.8857-.087-1.785.0222-2.6605.1245-.9928.2524-2.0468.684-2.9308 1.404-2.8951 2.5878-5.882 4.5957-8.5034 1.7417-2.2763 3.7273-4.1752 6.097-5.6933.948-.6086 2.059-1.0217 3.152-1.3226 1.711-.4692 3.501-.6715 5.205-1.1611 3.765-1.0778 7.431-.6868 11.08.4879 3.017.9741 5.539 2.771 7.937 4.7702.879.731 1.883 1.343 2.663 2.1675 3.995 4.2279 7.096 8.9369 8.009 14.841.485 3.1433.768 6.273-.072 9.3806-1.306 4.8365-4.02 8.8655-7.349 12.546-1.895 2.0944-4.095 3.5751-6.944 4.0188-.814.1275-1.592.4437-2.394.6409-3.611.8891-7.219 1.6507-10.881.2159-.468-.1802-.993-.2159-1.5-.2992-3.894-.6375-7.484-2.0536-10.6411-4.4166-3.3981-2.5483-6.3101-5.5709-7.9136-9.5761-1.5967-4.0001-2.2961-8.1787-1.7502-12.5052z"/><path d="m99.1338 26.5781c-1.6786.7565-1.6154 2.091-1.6683 3.2351-.087 1.8377.0358 3.6839.087 5.5216.0222.8228.2422 1.6694.0989 2.4582-.22 1.2291.5067 2.1896.6994 3.2929.1212.6987.8052.9129 1.8172.6307.133-1.1237.394-2.3579.406-3.5938.035-3.0464-.091-6.0962-.057-9.1443.017-1.1577-.769-1.6303-1.3832-2.4004zm.3327 13.5048c-.1791-.0051-.36-.0119-.5408-.017-.2235-1.921-.7591-3.8709-.5851-5.7545.1774-1.8598-.7557-3.8658.6022-5.7817.2473.3043.568.51.5732.731.1586 3.6125.59 7.2301-.0495 10.8222z"/><path d="m131.247 43.6797c-.95.7922-1.602 1.4331-1.641 2.363-.119 2.5806-.155 5.168-.205 7.7503-.005.3111.072.6307.15.9333.191.7395.604 1.2954 1.442 1.2495 1.032-.0527.924-.8942.916-1.5589-.024-3.0957-.067-6.1948-.142-9.2871-.013-.3944-.276-.7854-.52-1.4501zm-.583 4.0154c.551 2.3307.728 4.6597.018 6.9853-1.076-2.3341-.179-4.6563-.018-6.9853z"/></g><path d="m70.0011 59.0275c.184 1.1616.3487 1.9339.679 3.9636" stroke="#000" stroke-linecap="round"/><path d="m72.0927 46.7984c.5005-2 .5001-1.4996 1.3453-3.767" stroke="#000" stroke-linecap="round"/></g><ellipse fill="url(#a)" fill-opacity=".5" opacity=".5" rx="138.325" ry="61.6957" transform="matrix(-1 0 -.0110309 -.999939 139.005 184.691)"/><path d="m180.514 164.393c9.686-1.268 22.87-14.802 28.251-21.41-4.843-6.343-23.408-11.893-23.408-11.893 5.65-5.552 11.3-24.583-16.143-15.86-14.29 4.541-.807 20.617 5.65 19.031-1.614 6.079-4.843 19.824-4.843 26.168 0 7.929-1.614 5.55 10.493 3.964z" fill="#fff"/><g stroke="#000" stroke-linecap="round" stroke-linejoin="round"><path d="m178.693 112.034c4.877-.094 8.779 2.717 10.954 6.991 1.555 3.054.551 5.361-1.32 7.864-2.687 3.595-6.793 6.179-11.305 6.809-4.047.566-7.575.237-10.479-2.817-2.455-2.58-4.325-6.799-3.466-10.376.968-4.028 5.725-6.481 9.407-7.448 4.922-1.293 10.048-.443 14.709 1.388 3.487 1.371 7.514 3.99 7.622 8.076.109 4.134-3.501 6.54-6.467 8.847"/><path d="m185.007 131c4.284.083 25.412 9.604 23.166 12.363-7.865 9.658-16.145 16.648-27.621 21.198-5.796 2.298-12.889 4.182-11.058-4.813 4.941-24.27 4.374-19.263 5.487-27.289"/><path d="m191.877 134.104c2.981-1.269 4.548-3.758 6.499-6.313 1.66-2.175 3.588-4.511 4.373-7.185.495-1.686.474-3.69.454-5.431-.06-5.046-2.945-9.286-6.045-13.092-.299-.368-1.382-2.2285-1.382-.993 0 .642.426.798.929 1.094"/><path d="m177.024 139.578c-9.471 3.539-19.127 6.773-28.798 9.738-2.646.812-5.58 1.551-8.385 1.551-.556 0-1.416-.214-.939-.933.806-1.213 2.867-1.924 4.146-2.472 1.535-.659 3.182-1.38 4.817-1.753.627-.143 2.448-.661 3.043-.183 1.257 1.01-2.034 2.807-2.62 2.99-.558.174-2.083.863-2.083-.183 0-.473.944-1.929 1.444-1.094.889 1.485-2.044 1.179-2.373 1.824"/><path d="m199.119 105.284c-.551-.835-1.238-2.418-2.331-2.716-.79-.215-3.733-.802-4.311.021-.686.974 1.861 2.76 2.465 3.05.907.435 1.981 1.165 3.053.902 1.073-.264.325-2.004-.031-2.493-.777-1.068-1.842-1.928-3.074-2.412-.786-.309-.657.17-.309.73.346.556.743 1.091 1.103 1.641.334.51 1.201.468 1.764.548"/><path d="m178.324 122.977c-7.426 5.836-13.395 4.711-14.844 3.455"/></g><path d="m52.8019 158.865c3.7704-4.11 12.3178-15.56 20.0975-22.043l17.6172-10.281s-12.2607-7.384.2819-18.254c5.7683-4.999 15.5765-6.083 19.5415.44 8.151 13.411-5.667 19.553-5.667 19.553-9.0829 13.08 2.572 37.08 1.29 39.013-1.282 1.932-37.0514 4.001-53.1611-8.428z" fill="#fff"/><path d="m77.4377 124.499c.5186 1.038 4.5381 5.187 6.483 7.132l1.9449 1.296 3.2416-2.593c-1.5128-.864-4.9272-3.112-6.4831-5.186-1.9449-2.593-1.9449-5.835-1.9449-8.428 0-2.075 1.7288-8.644 2.5932-11.67-.8644-.216-3.2415.778-5.8347 6.483-3.2416 7.132-.6483 11.67 0 12.966z" fill="#fff"/><path d="m86.5155 129.041c-3.8899-1.945-6.2335-6.589-6.0599-9.644.1895-3.336 1.6322-6.396 2.7013-9.509.3365-.979 1.5646-3.691.6933-4.727-.5837-.694-2.2514 1.059-2.5572 1.369-2.8597 2.897-4.5787 6.964-5.0154 10.985-.604 5.562 2.34 10.095 6.8343 12.984" stroke="#000" stroke-linecap="round" stroke-linejoin="round"/><path d="m89.8146 126.942c-.0843.382-.1801.925-.3725 1.261-28.5988 7.53-32.4915 33.182-33.1364 34.111" stroke="#000" stroke-linecap="round" stroke-linejoin="round"/><path d="m54.3604 161.023c7.1389 5.695 41.5075 12.132 55.1056 7.78" stroke="#000" stroke-linecap="round" stroke-linejoin="round"/><path d="m103.631 129.899c-7.1315 12.967-3.242 25.933 5.186 38.899" stroke="#000" stroke-linecap="round" stroke-linejoin="round"/><path d="m90.4771 108.982c-1.4398.937-3.3028 2.163-4.6141 3.37-1.5553 1.433-1.9733 4.383-1.6022 6.399.9026 4.903 7.2504 8.084 11.5196 9.398 2.0453.629 4.4256 1.15 6.5776.952 2.197-.201 4.216-1.301 5.953-2.598 2.449-1.828 3.901-4.066 4.821-6.974.816-2.583 1.156-4.858-.23-7.286-4.278-7.492-16.9232-8.401-23.5399-3.933-3.8095 2.572-7.1552 7.332-5.5733 12.143 1.6052 4.882 7.2321 8.471 11.7919 9.322" stroke="#000" stroke-linecap="round" stroke-linejoin="round"/><path d="m99.3721 118.106c3.3489 3.807 12.4259 1.862 9.6059-2.356" stroke="#000" stroke-linecap="round" stroke-linejoin="round"/><path d="m105.964 145.898c5.834-3.241 13.614-5.186 14.262-5.186 1.297.432 2.594 1.685-2.593 3.241-6.483 1.945-12.318 8.428-14.263 11.67-1.945 3.241-4.5378 5.186-6.4827 5.835-1.5559.518-1.9449-1.513-1.9449-2.594 1.7288-3.241 6.3536-10.372 11.0216-12.966z" fill="#fff"/><path d="m133.192 142.657-1.296-3.242c1.945.649 8.428.649 11.021 0 2.075-.518 7.348-3.674 9.725-5.186 1.728-.649 5.056-1.427 4.538.648-.648 2.593-7.78 5.835-11.021 7.78-2.594 1.556-9.725.648-12.967 0z" fill="#fff"/><path d="m149.833 185.017c-.927 2.126-33.906 9.567-51.9289.124 7.4109-15.259 13.8369-31.576 20.9319-46.54 0 0-13.357-5.143-2.892-18.026 4.812-5.925 14.284-8.696 19.321-2.96 10.355 11.792-2.186 20.239-2.186 20.239 3.916 12.779 17.682 45.037 16.754 47.163z" fill="#fff"/><path d="m118.215 139.124c-.017.391-.017.942-.148 1.306-.858 2.38-3.781 8.628-4.255 9.655-4.78 10.361-9.777 20.623-14.5516 30.986-.7074 1.536-1.1616 3.081-1.4833 4.73" stroke="#000" stroke-linecap="round" stroke-linejoin="round"/><path d="m96.541 183.922c8.176 7.362 40.785 10.197 53.224-.193" stroke="#000" stroke-linecap="round" stroke-linejoin="round"/><path d="m133.504 139.781c.079 1.08.269 1.686.655 2.86 2.7 8.226 5.751 16.341 8.686 24.485 1.53 4.247 3.108 8.497 4.431 12.815.733 2.393 1.436 4.79 2.215 7.169.371 1.132.906 2.212 1.115 3.386" stroke="#000" stroke-linecap="round" stroke-linejoin="round"/><path d="m115.748 121.315c-1.255 1.173-2.877 2.704-3.959 4.121-1.283 1.681-1.182 4.658-.467 6.579 1.741 4.672 8.544 6.702 12.977 7.255 2.123.265 4.558.364 6.643-.204 2.128-.58 3.926-2.014 5.411-3.593 2.094-2.225 3.136-4.681 3.537-7.705.356-2.685.295-4.985-1.492-7.135-5.514-6.636-18.125-5.335-23.865.214-3.305 3.194-5.773 8.463-3.38 12.926 2.429 4.53 8.593 7.087 13.232 7.133" stroke="#000" stroke-linecap="round" stroke-linejoin="round"/><path d="m118.281 140.711c-4.538 1.945-11.043 4.073-14.911 7.78-1.136 1.088-11.0216 10.373-6.4833 12.966 4.5383 0 5.5103-5.835 8.4283-9.077 3.5-3.889 7.779-7.131 11.669-8.428" stroke="#000" stroke-linecap="round" stroke-linejoin="round"/><path d="m134.489 142.905c7.78 2.341 18.091-2.222 20.746-6.087 3.89-3.89.409-5.756-5.187-1.297-3.995 3.184-9.076 5.835-16.856 3.89" stroke="#000" stroke-linecap="round" stroke-linejoin="round"/></svg>