<svg fill="none" height="16" viewBox="0 0 16 16" width="16" xmlns="http://www.w3.org/2000/svg" xmlns:xlink="http://www.w3.org/1999/xlink"><mask id="a" fill="#fff"><path clip-rule="evenodd" d="m6 5.8335c-.27614 0-.5.22385-.5.5 0 .27614.22386.5.5.5h4c.2761 0 .5-.22386.5-.5 0-.27615-.2239-.5-.5-.5zm-.5 2.5c0-.27615.22386-.5.5-.5h4c.2761 0 .5.22385.5.5 0 .27614-.2239.5-.5.5h-4c-.27614 0-.5-.22386-.5-.5zm0 2c0-.2761.22386-.5.5-.5h4c.2761 0 .5.2239.5.5s-.2239.5-.5.5h-4c-.27614 0-.5-.2239-.5-.5z" fill="#fff" fill-rule="evenodd"/></mask><path d="m3.33325 2h7.33335l2 2.66667v9.33333h-9.33335z" stroke="#383946" stroke-linecap="round" stroke-linejoin="round"/><path d="m6.5 6.3335c0 .27614-.22386.5-.5.5v-2c-.82843 0-1.5.67157-1.5 1.5zm-.5-.5c.27614 0 .5.22385.5.5h-2c0 .82842.67157 1.5 1.5 1.5zm4 0h-4v2h4zm-.5.5c0-.27615.22386-.5.5-.5v2c.8284 0 1.5-.67158 1.5-1.5zm.5.5c-.27614 0-.5-.22386-.5-.5h2c0-.82843-.6716-1.5-1.5-1.5zm-4 0h4v-2h-4zm0 0c-.82843 0-1.5.67157-1.5 1.5h2c0 .27614-.22386.5-.5.5zm4 0h-4v2h4zm1.5 1.5c0-.82843-.6716-1.5-1.5-1.5v2c-.27614 0-.5-.22386-.5-.5zm-1.5 1.5c.8284 0 1.5-.67158 1.5-1.5h-2c0-.27615.22386-.5.5-.5zm-4 0h4v-2h-4zm-1.5-1.5c0 .82842.67157 1.5 1.5 1.5v-2c.27614 0 .5.22385.5.5zm1.5.5c-.82843 0-1.5.67157-1.5 1.5h2c0 .2761-.22386.5-.5.5zm4 0h-4v2h4zm1.5 1.5c0-.82843-.6716-1.5-1.5-1.5v2c-.27614 0-.5-.2239-.5-.5zm-1.5 1.5c.8284 0 1.5-.6716 1.5-1.5h-2c0-.2761.22386-.5.5-.5zm-4 0h4v-2h-4zm-1.5-1.5c0 .8284.67157 1.5 1.5 1.5v-2c.27614 0 .5.2239.5.5z" fill="#383946" mask="url(#a)" opacity=".3"/></svg>