<svg fill="none" height="16" viewBox="0 0 16 16" width="16" xmlns="http://www.w3.org/2000/svg"><path d="m12.5 14.5h-9v-12h7l2 2.5z" fill="#fff"/><path clip-rule="evenodd" d="m3 2.5c0-.27614.22386-.5.5-.5h7.3333c.1574 0 .3056.0741.4.2l2 2.66667c.0649.08654.1.19181.1.3v9.33333c0 .2761-.2238.5-.5.5h-9.3333c-.27614 0-.5-.2239-.5-.5zm1 .5v11h8.3333v-8.66667l-1.75-2.33333z" fill="#07a0ab" fill-rule="evenodd"/><path d="m4 8h8.25v6h-8.25z" fill="#a2e7d7" opacity=".2"/><g fill="#07a0ab"><path d="m5.40682 13c-.05862 0-.11199-.0042-.16011-.0126-.04811-.0076-.08398-.016-.10761-.0251l.09449-.2801c.07174.0167.13561.024.1916.0217s.10542-.0206.14829-.0549c.04374-.0343.08224-.0903.11548-.1681l.04856-.1166-.73752-1.7789h.41994l.51049 1.3628h.021l.51048-1.3628h.42126l-.8307 1.9904c-.03849.0915-.08748.1689-.14698.2321-.05949.0641-.13035.1121-.21259.1441s-.1776.048-.28608.048z"/><path d="m7.19378 12.3415v-1.7561h.37664v.2858h.02493c.042-.0968.11067-.1723.20604-.2264.09536-.0549.20953-.0823.34251-.0823.13473 0 .24759.0274.33857.0823.09187.0549.15967.1304.20341.2264h.021c.04812-.0938.12467-.1685.22965-.2241.10499-.0564.2301-.0846.37533-.0846.18284 0 .33201.0499.44749.1498.11636.0998.17454.2504.17454.4516v1.1776h-.39238v-1.1456c0-.1189-.03718-.205-.11155-.2584-.07436-.0534-.16316-.08-.2664-.08-.12773 0-.22703.0343-.29789.1029-.07087.0678-.1063.1551-.1063.2618v1.1193h-.39107v-1.1673c0-.0953-.03412-.1719-.10236-.2298-.06824-.058-.15704-.0869-.2664-.0869-.07436 0-.14304.0171-.20603.0514-.06212.0336-.11242.0804-.15091.1406-.03762.0603-.05643.13-.05643.2093v1.0827z"/><path d="m11 10v2.3415h-.3924v-2.3415z"/></g></svg>