<svg fill="none" height="24" viewBox="0 0 24 24" width="24" xmlns="http://www.w3.org/2000/svg" xmlns:xlink="http://www.w3.org/1999/xlink"><mask id="a" fill="#fff"><path clip-rule="evenodd" d="m9 9c-.27614 0-.5.22386-.5.5s.22386.5.5.5h6c.2761 0 .5-.22386.5-.5s-.2239-.5-.5-.5zm-.5 3.5c0-.2761.22386-.5.5-.5h6c.2761 0 .5.2239.5.5s-.2239.5-.5.5h-6c-.27614 0-.5-.2239-.5-.5zm0 3c0-.2761.22386-.5.5-.5h6c.2761 0 .5.2239.5.5s-.2239.5-.5.5h-6c-.27614 0-.5-.2239-.5-.5z" fill="#fff" fill-rule="evenodd"/></mask><path d="m5 3h11l3 4v14h-14z" stroke="#0278d5" stroke-linecap="round" stroke-linejoin="round"/><path d="m9.5 9.5c0 .27614-.22386.5-.5.5v-2c-.82843 0-1.5.67157-1.5 1.5zm-.5-.5c.27614 0 .5.22386.5.5h-2c0 .8284.67157 1.5 1.5 1.5zm6 0h-6v2h6zm-.5.5c0-.27614.2239-.5.5-.5v2c.8284 0 1.5-.6716 1.5-1.5zm.5.5c-.2761 0-.5-.22386-.5-.5h2c0-.82843-.6716-1.5-1.5-1.5zm-6 0h6v-2h-6zm0 1c-.82843 0-1.5.6716-1.5 1.5h2c0 .2761-.22386.5-.5.5zm6 0h-6v2h6zm1.5 1.5c0-.8284-.6716-1.5-1.5-1.5v2c-.2761 0-.5-.2239-.5-.5zm-1.5 1.5c.8284 0 1.5-.6716 1.5-1.5h-2c0-.2761.2239-.5.5-.5zm-6 0h6v-2h-6zm-1.5-1.5c0 .8284.67157 1.5 1.5 1.5v-2c.27614 0 .5.2239.5.5zm1.5 1.5c-.82843 0-1.5.6716-1.5 1.5h2c0 .2761-.22386.5-.5.5zm6 0h-6v2h6zm1.5 1.5c0-.8284-.6716-1.5-1.5-1.5v2c-.2761 0-.5-.2239-.5-.5zm-1.5 1.5c.8284 0 1.5-.6716 1.5-1.5h-2c0-.2761.2239-.5.5-.5zm-6 0h6v-2h-6zm-1.5-1.5c0 .8284.67157 1.5 1.5 1.5v-2c.27614 0 .5.2239.5.5z" fill="#383946" mask="url(#a)" opacity=".3"/></svg>