<svg width="306" height="136" viewBox="0 0 306 136" fill="none" xmlns="http://www.w3.org/2000/svg"><path opacity=".2" fill-rule="evenodd" clip-rule="evenodd" d="M172.644 4.185c6.512 3.537 11.762 9.54 14.635 18.445 5.078 15.744 3.434 27.121-3.959 34.718-6.873 7.063-17.605 9.518-27.148 10.774-9.767 1.285-19.335 1.61-28.563-.594a50.269 50.269 0 0 1-16.081-6.942c-3.918 9.109-6.897 17.717-7.533 24.076-.083.837-.167 1.653-.249 2.451-.424 4.127-.799 7.774-.835 11.2-.044 4.028.402 7.274 1.576 9.998 2.167 5.028 7.673 10.09 23.571 13.463 6.15 1.304 17.173 2.266 31.344 2.915 14.057.643 30.877.968 48.424 1.076 35.088.216 72.93-.433 97.056-1.098l.276 9.996c-24.207.668-62.165 1.319-97.394 1.102-17.611-.109-34.578-.435-48.819-1.087-14.127-.647-25.912-1.627-32.962-3.122-17.103-3.628-26.597-9.816-30.68-19.287-1.95-4.526-2.442-9.343-2.392-14.064.042-3.927.474-8.117.899-12.234.08-.77.159-1.54.235-2.304.843-8.424 4.798-19.193 9.388-29.537a67.778 67.778 0 0 1-2.006-1.988c-10.98-11.346-19.96-10.43-21.651-9.796l-.85.319H14.02v-10h63.208c6.484-1.875 18.537-.34 30.694 11.82 3.107-6.417 6.26-12.493 8.868-17.517l.011-.021c2.713-5.226 4.71-9.084 5.611-11.223.978-2.322 2.74-4.302 4.626-5.906 1.939-1.65 4.306-3.153 6.901-4.447 5.18-2.584 11.666-4.531 18.375-5.045 6.701-.513 13.936.386 20.33 3.86Zm-56.922 47.16c.348-.732.698-1.463 1.05-2.193 3.09-6.395 6.245-12.475 8.905-17.598l.147-.284c2.537-4.888 4.726-9.103 5.804-11.665.139-.33.637-1.105 1.889-2.17 1.198-1.02 2.849-2.1 4.885-3.115 4.082-2.036 9.317-3.613 14.675-4.023 5.365-.411 10.543.367 14.794 2.676 4.134 2.245 7.763 6.132 9.891 12.727 4.498 13.946 2.143 20.819-1.609 24.674-4.271 4.39-11.828 6.59-21.285 7.834-9.232 1.214-17.415 1.39-24.936-.407-4.88-1.165-9.597-3.188-14.21-6.457Z" fill="url(#a)"/><path fill-rule="evenodd" clip-rule="evenodd" d="M156.165 3.347c14.29 1.484 27.031 11.617 27.696 26.693.387 8.768-1.805 16.924-6.383 22.9-4.588 5.99-11.549 9.756-20.605 9.756-2.419 0-4.84.028-7.242.055-6.406.074-12.684.145-18.466-.313-7.954-.63-15.078-2.27-20.425-6.358a24.92 24.92 0 0 1-1.257-1.03 1657.28 1657.28 0 0 1-3.981 9.806c-1.218 2.982-2.28 5.58-3.197 7.896-3.473 8.763-4.858 13.428-4.858 19.407 0 9.976 2.66 18.695 11.323 24.953 8.706 6.29 23.556 10.155 48.103 10.155h147.209a.5.5 0 1 1 0 1H156.873c-24.608 0-39.721-3.866-48.689-10.344-9.011-6.51-11.737-15.595-11.737-25.764 0-6.179 1.447-10.99 4.928-19.776.922-2.325 1.987-4.931 3.207-7.918 1.213-2.97 2.58-6.314 4.112-10.134-1.653-1.574-2.978-3.25-4.177-4.92a125.08 125.08 0 0 1-1.561-2.244c-1.046-1.526-2.053-2.996-3.211-4.367-1.697-2.01-3.683-3.756-6.484-5.006-2.805-1.253-6.46-2.021-11.513-2.021-12.017 0-18.688 4.39-22.485 9.044-3.167 3.883-4.353 7.951-4.957 10.023-.126.432-.227.777-.315 1.015-2.396 6.504-4.278 10.43-6.94 12.697-2.695 2.296-6.11 2.83-11.333 2.83H.544a.5.5 0 0 1 0-1h35.174c5.2 0 8.285-.547 10.685-2.591 2.433-2.073 4.242-5.746 6.65-12.281.073-.199.161-.503.275-.896.584-2.02 1.839-6.357 5.16-10.43 3.998-4.899 10.96-9.411 23.26-9.411 5.152 0 8.954.783 11.92 2.107 2.972 1.327 5.073 3.182 6.841 5.275 1.19 1.41 2.246 2.95 3.308 4.499.498.726.998 1.455 1.513 2.173 1.107 1.543 2.307 3.068 3.766 4.501a1024.89 1024.89 0 0 0 9.529-24.743c7.247-19.546 23.209-26.726 37.54-25.238Zm-46.287 50.718c.463.416.952.824 1.47 1.22 5.114 3.912 12.002 5.53 19.896 6.156 5.734.455 11.942.384 18.331.31 2.412-.027 4.85-.055 7.298-.055 8.748 0 15.414-3.624 19.811-9.364 4.407-5.752 6.557-13.663 6.178-22.248-.637-14.453-12.865-24.295-26.801-25.742-13.895-1.443-29.416 5.49-36.499 24.591a1020.89 1020.89 0 0 1-9.684 25.132Z" fill="#000"/><path fill-rule="evenodd" clip-rule="evenodd" d="M292.761 123.677a.5.5 0 0 1 .648-.283c3.972 1.558 8.018 2.665 12.168 3.702a.5.5 0 0 1-.243.971c-4.159-1.04-8.256-2.16-12.29-3.742a.5.5 0 0 1-.283-.648Z" fill="#000"/><path fill-rule="evenodd" clip-rule="evenodd" d="M305.492 127.41a.5.5 0 0 1-.299.641c-1.162.422-2.193.793-3.132 1.13-2.937 1.055-4.974 1.787-7.264 2.768a.5.5 0 0 1-.394-.919c2.32-.994 4.393-1.739 7.34-2.797.936-.336 1.96-.704 3.108-1.122a.501.501 0 0 1 .641.299ZM176.861 126.241a.5.5 0 0 1-.223.671c-3.48 1.74-5.231 2.615-9.592 4.36a.5.5 0 0 1-.371-.929c4.323-1.729 6.046-2.591 9.513-4.324l.002-.001a.5.5 0 0 1 .671.223ZM129.476 48.58c3.919 5.288 10.576 10.014 20.598 13.139 17.218 5.369 23.389 20.73 21.298 34.692-2.088 13.94-12.446 26.645-28.395 26.645-15.702 0-25.103-3.816-30.55-10.441-5.43-6.603-6.829-15.878-6.829-26.535 0-.873.008-1.807.016-2.79.067-7.8.161-18.785-3.473-28.247-2.039-5.312-5.246-10.118-10.277-13.6-5.032-3.482-11.93-5.67-21.406-5.67h-57.32a.5.5 0 1 1 0-1h57.32c9.632 0 16.741 2.226 21.975 5.848 5.233 3.622 8.548 8.61 10.642 14.063 3.707 9.655 3.609 20.843 3.54 28.624-.009.981-.017 1.909-.017 2.772 0 10.62 1.407 19.584 6.601 25.9 5.175 6.294 14.215 10.076 29.778 10.076 15.317 0 25.369-12.194 27.406-25.793 2.034-13.578-3.953-28.397-20.607-33.59-10.171-3.171-17.029-8-21.103-13.498-4.078-5.504-5.346-11.653-4.373-17.405 1.944-11.497 12.809-21.315 27.796-21.315 9.565 0 15.114 2.922 18.837 7.371 3.059 3.655 4.862 8.327 6.694 13.073.371.962.743 1.926 1.127 2.885 2.297 5.739 5.037 11.386 10.446 15.615 5.404 4.225 13.541 7.086 26.731 7.086h85.546a.5.5 0 0 1 0 1h-85.546c-13.332 0-21.712-2.892-27.347-7.298-5.629-4.401-8.449-10.261-10.758-16.031-.396-.988-.776-1.972-1.152-2.944-1.833-4.745-3.566-9.228-6.508-12.744-3.499-4.181-8.744-7.013-18.07-7.013-14.541 0-24.954 9.506-26.81 20.482-.927 5.483.275 11.357 4.19 16.642Z" fill="#000"/><path fill-rule="evenodd" clip-rule="evenodd" d="M165.965 121.93a.5.5 0 0 1 .654-.269c2.006.836 3.493 1.477 4.76 2.023 2.04.879 3.508 1.511 5.645 2.313a.5.5 0 1 1-.351.936c-2.157-.809-3.657-1.455-5.717-2.343-1.268-.546-2.747-1.183-4.722-2.006a.5.5 0 0 1-.269-.654ZM262.363 107.176a.5.5 0 0 1 .648-.283c3.973 1.557 8.019 2.665 12.169 3.702a.5.5 0 0 1-.243.97c-4.16-1.04-8.256-2.159-12.291-3.741a.5.5 0 0 1-.283-.648Z" fill="#000"/><path fill-rule="evenodd" clip-rule="evenodd" d="M275.094 110.909a.5.5 0 0 1-.299.641c-1.161.422-2.192.792-3.132 1.13-2.936 1.054-4.974 1.786-7.264 2.768a.5.5 0 0 1-.394-.92c2.32-.994 4.394-1.739 7.34-2.797.936-.336 1.96-.704 3.108-1.121a.499.499 0 0 1 .641.299ZM286.863 61.509a.499.499 0 0 1 .299-.641c3.085-1.122 8.26-2.955 13.681-4.063a.5.5 0 0 1 .2.98c-5.343 1.092-10.459 2.902-13.539 4.023a.5.5 0 0 1-.641-.3Z" fill="#000"/><path fill-rule="evenodd" clip-rule="evenodd" d="M287.689 47.936a.5.5 0 0 1 .707.022c2.227 2.376 3.956 3.979 5.847 5.293 1.892 1.315 3.965 2.354 6.893 3.583a.5.5 0 0 1-.387.922c-2.956-1.24-5.102-2.311-7.076-3.684-1.974-1.372-3.758-3.032-6.006-5.43a.5.5 0 0 1 .022-.706ZM59.231 35.662a.5.5 0 0 1-.452.543c-3.024.275-5.168.549-7.997.91-1.633.21-3.495.447-5.885.731a.5.5 0 1 1-.118-.993 622.41 622.41 0 0 0 5.854-.727c2.844-.363 5.015-.64 8.055-.917a.5.5 0 0 1 .543.453Z" fill="#000"/><path fill-rule="evenodd" clip-rule="evenodd" d="M46.981 29.87a.5.5 0 0 1 .654-.27c5.246 2.186 7.445 3.505 11.048 5.904a.5.5 0 0 1-.555.832c-3.558-2.369-5.7-3.655-10.877-5.812a.5.5 0 0 1-.27-.654ZM8.36 47.063v-1h25.187c4.86 0 8.967 1.24 12.049 3.9 3.082 2.663 5.077 6.697 5.816 12.166 1.072 7.932 4.278 13.887 9.157 17.864 4.883 3.98 11.492 6.021 19.442 6.021 7.909 0 14.074-2.656 19.648-6.202 2.793-1.776 5.431-3.77 8.072-5.77l.058-.044c2.616-1.981 5.237-3.966 7.987-5.716 1.926-1.225 5.894-3.045 10.877-4.55 4.99-1.508 11.033-2.712 17.112-2.682 6.078.03 12.224 1.292 17.382 4.751 5.168 3.466 9.295 9.104 11.383 17.786.488 2.03.848 4.267 1.214 6.54.127.791.255 1.587.389 2.38.523 3.088 1.145 6.152 2.197 8.869 1.051 2.713 2.519 5.05 4.716 6.711 2.192 1.658 5.156 2.679 9.264 2.679h83.375v1H190.31c-4.282 0-7.469-1.067-9.867-2.881-2.393-1.81-3.953-4.328-5.045-7.148-1.091-2.817-1.726-5.965-2.251-9.063a267.77 267.77 0 0 1-.396-2.422c-.364-2.26-.715-4.442-1.193-6.431-2.037-8.47-6.035-13.88-10.968-17.19-4.944-3.315-10.877-4.552-16.83-4.581-5.952-.03-11.893 1.151-16.817 2.639-4.931 1.49-8.807 3.276-10.63 4.437-2.716 1.728-5.309 3.692-7.936 5.68l-.042.033c-2.636 1.996-5.306 4.016-8.139 5.817-5.675 3.61-12.026 6.358-20.185 6.358-8.117 0-14.97-2.085-20.074-6.246-5.11-4.165-8.416-10.369-9.516-18.505-.716-5.297-2.629-9.08-5.48-11.542-2.85-2.463-6.701-3.657-11.394-3.657H8.36Z" fill="#000"/><path fill-rule="evenodd" clip-rule="evenodd" d="m139.231 22.627 7.378-6.066 4.611 1.866 1.845 2.334h3.689l3.227-6.067 7.378 4.667 2.306 4.2-2.306 3.266 2.306 2.8h4.15l1.384 2.8-1.384 9.8h-5.072l-3.689 5.599 1.844 4.2-7.839 5.133-2.305-4.2h-5.534l-3.689 5.133-7.378-4.2-3.228-1.866 3.228-5.6V44.56h-3.228l-3.689-3.266V31.96l5.072-.466 3.228-4.667-2.305-4.2Zm9.222 13.066 7.378-6.066 2.306 2.333-.461 7.466-6.456 5.133-2.767-2.333v-6.533Z" fill="#fff"/><path fill-rule="evenodd" clip-rule="evenodd" d="m139.231 22.627 7.378-6.066 4.611 1.866 1.845 2.334h3.689l3.227-6.067 7.378 4.667 2.306 4.2-2.306 3.266 2.306 2.8h4.15l1.384 2.8-1.384 9.8h-5.072l-3.689 5.599 1.844 4.2-7.839 5.133-2.305-4.2h-5.534l-3.689 5.133-7.378-4.2-3.228-1.866 3.228-5.6V44.56h-3.228l-3.689-3.266V31.96l5.072-.466 3.228-4.667-2.305-4.2Zm9.222 13.066 7.378-6.066 2.306 2.333-.461 7.466-6.456 5.133-2.767-2.333v-6.533Z" fill="#fff"/><path fill-rule="evenodd" clip-rule="evenodd" d="M146.046 27.207a.5.5 0 0 1 .192.681l-4.381 7.816a.5.5 0 0 1-.872-.489l4.38-7.816a.5.5 0 0 1 .681-.192Z" fill="#000"/><path fill-rule="evenodd" clip-rule="evenodd" d="M142.585 23.928a.5.5 0 0 1 .669.23l.327.677c.704 1.456 1.383 2.863 2.285 4.156a.5.5 0 0 1-.82.572c-.952-1.363-1.669-2.849-2.369-4.301l-.322-.665a.5.5 0 0 1 .23-.669ZM151.746 18.422a.5.5 0 0 1 .637.307c.466 1.326.849 2.674 1.229 4.008l.215.75c.177.618.29.996.577 1.432a.5.5 0 0 1-.835.55c-.379-.576-.527-1.09-.701-1.696l-.002-.01-.217-.759c-.38-1.335-.755-2.648-1.209-3.944a.499.499 0 0 1 .306-.638Z" fill="#000"/><path fill-rule="evenodd" clip-rule="evenodd" d="M152.456 17.354a.5.5 0 0 1-.173.686c-3.435 2.054-6.817 4.384-9.45 7.368a.5.5 0 1 1-.75-.662c2.736-3.1 6.225-5.494 9.687-7.564a.5.5 0 0 1 .686.172ZM155.803 24.457c-.892-.053-1.81.01-2.585.069a.5.5 0 1 1-.076-.997c.773-.06 1.753-.128 2.72-.07.959.056 1.966.239 2.765.724a.5.5 0 0 1-.519.855c-.593-.36-1.405-.528-2.305-.581Z" fill="#000"/><path fill-rule="evenodd" clip-rule="evenodd" d="M163.181 17.575a.5.5 0 0 1 .068.704c-1.455 1.767-2.535 3.97-3.586 6.117l-.386.786a.5.5 0 0 1-.897-.443l.385-.784c1.043-2.131 2.177-4.447 3.712-6.312a.5.5 0 0 1 .704-.068ZM170.016 23.088c.197.194.199.51.004.707-1.264 1.28-2.223 2.957-3.169 4.613l-.443.77a.5.5 0 1 1-.865-.502c.142-.245.286-.496.431-.75.94-1.647 1.971-3.453 3.335-4.834a.5.5 0 0 1 .707-.004Z" fill="#000"/><path fill-rule="evenodd" clip-rule="evenodd" d="M166.177 26.983a.5.5 0 0 1 .687.168c.977 1.607 1.674 3.232 2.24 5.008a.5.5 0 0 1-.953.303c-.547-1.715-1.212-3.264-2.141-4.792a.5.5 0 0 1 .167-.687Z" fill="#000"/><path fill-rule="evenodd" clip-rule="evenodd" d="M175.006 32.528a.5.5 0 0 1-.484.515c-.455.014-.913.031-1.373.048-1.46.055-2.944.11-4.42.069a.5.5 0 1 1 .028-1c1.44.04 2.879-.013 4.332-.067.465-.018.933-.035 1.402-.05a.5.5 0 0 1 .515.485Z" fill="#000"/><path fill-rule="evenodd" clip-rule="evenodd" d="M175.36 32.162a.5.5 0 0 1 .451.544c-.103 1.117-.235 2.227-.366 3.332-.278 2.348-.554 4.676-.554 7.005a.5.5 0 0 1-1 0c0-2.388.288-4.817.569-7.197.129-1.09.257-2.17.356-3.232a.5.5 0 0 1 .544-.452Z" fill="#000"/><path fill-rule="evenodd" clip-rule="evenodd" d="M175.813 42.197a.5.5 0 0 1-.47.529c-2.306.137-4.615.26-6.927.35a.5.5 0 0 1-.039-1c2.303-.089 4.604-.212 6.907-.349a.5.5 0 0 1 .529.47Z" fill="#000"/><path fill-rule="evenodd" clip-rule="evenodd" d="M169.64 39.788a.5.5 0 0 1 .25.661c-1.074 2.378-2.448 4.563-3.81 6.73-.24.381-.48.763-.717 1.145a.5.5 0 0 1-.849-.529c.242-.389.485-.775.727-1.16 1.362-2.168 2.694-4.288 3.738-6.598a.5.5 0 0 1 .661-.25Z" fill="#000"/><path fill-rule="evenodd" clip-rule="evenodd" d="M164.442 46.936a.5.5 0 0 1 .689.157c.523.831.996 1.688 1.461 2.531l.051.092c.449.816.891 1.619 1.372 2.397a.5.5 0 0 1-.851.526c-.494-.8-.947-1.623-1.393-2.433l-.055-.1c-.466-.845-.926-1.677-1.432-2.48a.5.5 0 0 1 .158-.69ZM157.934 52.387a.5.5 0 0 1-.383.594c-2.488.54-4.701.68-7.246.117a.5.5 0 1 1 .216-.977c2.368.524 4.43.401 6.818-.117a.5.5 0 0 1 .595.383Z" fill="#000"/><path fill-rule="evenodd" clip-rule="evenodd" d="M156.78 52.153a.5.5 0 0 1 .661.253c.705 1.582 1.485 3.09 2.292 4.639a.5.5 0 0 1-.887.462c-.806-1.546-1.599-3.08-2.319-4.694a.5.5 0 0 1 .253-.66Z" fill="#000"/><path fill-rule="evenodd" clip-rule="evenodd" d="M167.543 52.33a.5.5 0 0 1-.135.694l-.262.177c-2.512 1.695-5.095 3.438-7.872 4.76a.5.5 0 0 1-.43-.903c2.709-1.289 5.236-2.995 7.765-4.701l.24-.162a.5.5 0 0 1 .694.135ZM151.376 51.201a.5.5 0 0 1 .319.631c-.405 1.228-.957 2.396-1.518 3.531l-.303.609c-.463.93-.918 1.842-1.305 2.778a.5.5 0 1 1-.924-.382c.402-.972.875-1.922 1.34-2.853.099-.2.198-.397.295-.595.559-1.13 1.084-2.245 1.465-3.4a.5.5 0 0 1 .631-.319ZM145.339 47.697a.5.5 0 0 1 .018.707c-1.222 1.286-2.308 2.657-3.414 4.052-.46.581-.924 1.167-1.403 1.753a.5.5 0 0 1-.774-.633c.457-.56.91-1.13 1.364-1.704 1.117-1.41 2.247-2.836 3.502-4.157a.5.5 0 0 1 .707-.018Z" fill="#000"/><path fill-rule="evenodd" clip-rule="evenodd" d="M139.379 53.4a.5.5 0 0 1 .687-.168c2.099 1.274 4.082 2.712 6.05 4.138l.76.55.107.084.063.05.025.018a.5.5 0 0 1 .589.33c.021.064.065.211.026.376a.547.547 0 0 1-.194.303.546.546 0 0 1-.309.113.686.686 0 0 1-.308-.064 1.407 1.407 0 0 1-.171-.093 5.63 5.63 0 0 1-.414-.306l-.761-.551c-1.972-1.43-3.92-2.841-5.982-4.093a.5.5 0 0 1-.168-.687Zm7.331 5.315a.06.06 0 0 1-.001-.003l.001.003ZM142.033 43.6a.5.5 0 0 1 .573.414c.257 1.605 1.047 3.376 2.168 4.51a.5.5 0 0 1-.712.703c-1.294-1.31-2.16-3.286-2.443-5.055a.5.5 0 0 1 .414-.573Z" fill="#000"/><path fill-rule="evenodd" clip-rule="evenodd" d="M135.284 43.633a.5.5 0 0 1 .598-.377c1.688.382 3.477.364 5.289.345.39-.004.781-.008 1.172-.008a.5.5 0 0 1 0 1c-.367 0-.742.004-1.121.008-1.816.02-3.747.04-5.56-.37a.5.5 0 0 1-.378-.598ZM135.638 34.503a.5.5 0 0 1 .62-.34c2.215.65 4.363.515 6.714.218a.5.5 0 0 1 .126.992c-2.377.3-4.698.46-7.121-.25a.5.5 0 0 1-.339-.62Z" fill="#000"/><path fill-rule="evenodd" clip-rule="evenodd" d="M136.471 34.144a.5.5 0 0 1 .493.507 153.327 153.327 0 0 1-.107 3.602l-.005.117c-.046 1.236-.092 2.465-.106 3.694-.011.99.006 1.638.302 2.439a.5.5 0 1 1-.937.347c-.366-.987-.376-1.796-.365-2.798.014-1.243.06-2.485.107-3.72l.004-.112c.045-1.2.09-2.391.107-3.584a.5.5 0 0 1 .507-.492Z" fill="#000"/><path fill-rule="evenodd" clip-rule="evenodd" d="M132.976 31.396a.5.5 0 0 1 .706-.044c1.272 1.122 2.358 2.3 3.479 3.518l.016.018a.5.5 0 0 1-.735.678l-.001-.001c-1.132-1.23-2.187-2.376-3.421-3.463a.5.5 0 0 1-.044-.706Z" fill="#000"/><path fill-rule="evenodd" clip-rule="evenodd" d="M139.383 31.343a.5.5 0 0 1-.465.533c-.629.042-1.237.107-1.854.171a78.7 78.7 0 0 1-1.182.12c-1.022.092-2.068.148-3.148.058a.5.5 0 0 1 .082-.996c.996.082 1.976.032 2.976-.059.37-.033.749-.073 1.134-.114a51.617 51.617 0 0 1 1.925-.178.5.5 0 0 1 .532.465Z" fill="#000"/><path fill-rule="evenodd" clip-rule="evenodd" d="M142.402 27.001a.5.5 0 0 1-.112.698c-1.5 1.084-2.286 2.948-2.808 4.86a.5.5 0 1 1-.964-.264c.532-1.95 1.392-4.11 3.186-5.406a.5.5 0 0 1 .698.112Z" fill="#000"/><path fill-rule="evenodd" clip-rule="evenodd" d="M138.615 21.973a.5.5 0 0 1 .69.151c1 1.56 1.832 3.163 2.574 4.852a.5.5 0 0 1-.916.402c-.725-1.65-1.532-3.206-2.499-4.714a.5.5 0 0 1 .151-.69Z" fill="#000"/><path fill-rule="evenodd" clip-rule="evenodd" d="M138.31 22.08a.5.5 0 0 1 .657-.262c1.012.434 1.944.986 2.842 1.527l.177.106c.844.509 1.661 1.002 2.529 1.407a.5.5 0 1 1-.424.906c-.917-.429-1.777-.947-2.612-1.45l-.185-.112c-.902-.543-1.78-1.061-2.722-1.465a.5.5 0 0 1-.262-.657ZM141.569 26.92a.5.5 0 0 1 .686-.171c.919.553 1.867.999 2.864 1.468l.03.014c.288.136.602.283.893.578a.5.5 0 0 1-.711.703c-.154-.155-.316-.239-.613-.379l-.045-.02c-.983-.463-1.971-.928-2.933-1.507a.5.5 0 0 1-.171-.686ZM138.484 31.083a.5.5 0 0 1 .696.125c1.029 1.48 2.052 2.883 3.288 4.134a.5.5 0 0 1-.711.703c-1.301-1.317-2.365-2.78-3.398-4.266a.5.5 0 0 1 .125-.696Z" fill="#000"/><path fill-rule="evenodd" clip-rule="evenodd" d="M148.436 15.514a.5.5 0 0 1-.214.674c-3.735 1.932-7.283 4.243-9.738 7.664a.5.5 0 0 1-.813-.583c2.594-3.614 6.313-6.014 10.091-7.969a.5.5 0 0 1 .674.214Z" fill="#000"/><path fill-rule="evenodd" clip-rule="evenodd" d="M145.939 15.739a.5.5 0 0 1 .678-.2c1.798.979 3.608 1.883 5.486 2.66a.5.5 0 1 1-.383.924c-1.92-.795-3.763-1.716-5.581-2.706a.5.5 0 0 1-.2-.679ZM156.984 21.26c-1.588 0-3.108.052-4.633.342a.5.5 0 0 1-.187-.983c1.62-.307 3.216-.358 4.82-.358a.5.5 0 0 1 0 1Z" fill="#000"/><path fill-rule="evenodd" clip-rule="evenodd" d="M156.412 20.198a.5.5 0 0 1 .672.22c.76 1.498 1.477 3.018 2.19 4.528l.237.5a.5.5 0 0 1-.904.428 118.36 118.36 0 0 1-.236-.5c-.715-1.512-1.426-3.019-2.179-4.504a.5.5 0 0 1 .22-.672Z" fill="#000"/><path fill-rule="evenodd" clip-rule="evenodd" d="M160.318 14.363a.5.5 0 0 1 .227.67 73.294 73.294 0 0 1-1.155 2.208c-.759 1.41-1.501 2.788-2.053 4.277a.5.5 0 1 1-.937-.348c.574-1.55 1.374-3.039 2.153-4.487.38-.706.754-1.403 1.095-2.093a.5.5 0 0 1 .67-.227Z" fill="#000"/><path fill-rule="evenodd" clip-rule="evenodd" d="M160.47 14.47a.5.5 0 0 1 .66.255c.66 1.487 1.357 2.949 2.068 4.418a.5.5 0 0 1-.9.436 147.053 147.053 0 0 1-2.082-4.448.5.5 0 0 1 .254-.66Z" fill="#000"/><path fill-rule="evenodd" clip-rule="evenodd" d="M162.313 18.182a.5.5 0 0 1 .681-.19c1.733.98 3.34 2.163 4.919 3.325.414.304.826.608 1.238.905a.5.5 0 1 1-.586.81c-.428-.308-.85-.619-1.27-.928-1.573-1.157-3.118-2.293-4.793-3.241a.5.5 0 0 1-.189-.681ZM160.398 14.615a.5.5 0 0 1 .703-.078c1.031.827 2.138 1.496 3.284 2.148.274.156.551.311.83.467.878.492 1.775.995 2.645 1.555a.499.499 0 1 1-.541.84c-.842-.541-1.701-1.023-2.573-1.511a132.77 132.77 0 0 1-.855-.482c-1.158-.658-2.32-1.359-3.415-2.236a.5.5 0 0 1-.078-.703Z" fill="#000"/><path fill-rule="evenodd" clip-rule="evenodd" d="M167.084 18.304a.5.5 0 0 1 .634.313c.272.806.621 1.576.988 2.36l.161.34c.315.67.638 1.354.917 2.06a.5.5 0 0 1-.93.367c-.266-.673-.574-1.325-.889-1.995l-.164-.348c-.369-.787-.739-1.6-1.031-2.463a.5.5 0 0 1 .314-.634ZM167.223 26.512a.5.5 0 0 1 .684.18c.541.934 1.079 1.868 1.615 2.803a.5.5 0 0 1-.867.498 660.464 660.464 0 0 0-1.613-2.798.5.5 0 0 1 .181-.683Z" fill="#000"/><path fill-rule="evenodd" clip-rule="evenodd" d="M169.461 28.331a.5.5 0 0 1 .337.622c-.385 1.3-.411 2.743-.436 4.192l-.004.225a.5.5 0 1 1-1-.019l.004-.262c.025-1.414.052-2.984.478-4.42a.5.5 0 0 1 .621-.338Z" fill="#000"/><path fill-rule="evenodd" clip-rule="evenodd" d="M168.599 29.174a.5.5 0 0 1 .593-.386c.863.182 1.738.26 2.64.326l.422.03c.762.054 1.545.109 2.324.221a.5.5 0 1 1-.143.99c-.74-.107-1.48-.159-2.243-.212l-.432-.031c-.907-.066-1.84-.149-2.775-.346a.5.5 0 0 1-.386-.592Z" fill="#000"/><path fill-rule="evenodd" clip-rule="evenodd" d="M173.09 28.852a.5.5 0 0 1 .688.161c.771 1.24 1.489 2.49 2.202 3.751a.501.501 0 0 1-.871.492 102.442 102.442 0 0 0-2.18-3.715.5.5 0 0 1 .161-.689ZM139.556 43.845a.5.5 0 0 1 .617.345c.245.867.49 1.708.794 2.53a.5.5 0 1 1-.937.347c-.32-.862-.574-1.736-.82-2.605a.5.5 0 0 1 .346-.617Z" fill="#000"/><path fill-rule="evenodd" clip-rule="evenodd" d="M139.034 45.817a.5.5 0 0 1 .687-.168c.398.242.801.51 1.202.777.037.025.074.05.111.073.44.294.88.584 1.327.847.897.53 1.785.932 2.689 1.033a.5.5 0 1 1-.111.994c-1.114-.125-2.146-.61-3.087-1.166-.472-.279-.932-.582-1.372-.875l-.108-.071c-.404-.27-.791-.527-1.17-.757a.499.499 0 0 1-.168-.687Z" fill="#000"/><path fill-rule="evenodd" clip-rule="evenodd" d="M140.32 46.83a.5.5 0 0 1 .13.695c-.411.6-.832 1.172-1.247 1.736-.835 1.133-1.645 2.233-2.297 3.465a.5.5 0 0 1-.884-.468c.686-1.296 1.573-2.5 2.432-3.669.404-.55.802-1.09 1.171-1.629a.5.5 0 0 1 .695-.13Z" fill="#000"/><path fill-rule="evenodd" clip-rule="evenodd" d="M137.015 51.574a.5.5 0 0 1 .706-.036c.392.354.83.748 1.295 1.082.47.336.928.58 1.351.666a.5.5 0 1 1-.198.98c-.626-.127-1.22-.465-1.735-.833-.517-.37-.995-.802-1.38-1.15l-.003-.003a.5.5 0 0 1-.036-.706ZM132.348 40.669a.5.5 0 0 1 .703.08c.166.208.331.43.502.656.323.43.662.882 1.047 1.31.583.648 1.165 1.11 1.743 1.24a.5.5 0 1 1-.22.976c-.897-.202-1.655-.869-2.266-1.548-.412-.457-.806-.98-1.145-1.432-.162-.214-.311-.412-.444-.58a.5.5 0 0 1 .08-.702Z" fill="#000"/><path fill-rule="evenodd" clip-rule="evenodd" d="M132.656 30.527a.5.5 0 0 1 .503.496c.023 3.02.059 6.02.294 9.012.05.649.121 1.24.268 1.838a.5.5 0 1 1-.971.24c-.166-.675-.242-1.33-.294-2-.238-3.03-.274-6.064-.297-9.082a.5.5 0 0 1 .497-.504ZM148.068 33.678a.5.5 0 0 1 .538.46c.196 2.5.239 5.026.282 7.529.018 1.042.036 2.08.065 3.112a.5.5 0 1 1-1 .028c-.029-1.055-.047-2.107-.065-3.156-.043-2.49-.086-4.966-.279-7.435a.5.5 0 0 1 .459-.538Z" fill="#000"/><path fill-rule="evenodd" clip-rule="evenodd" d="M146.788 41.106a.499.499 0 0 1 .7-.094c.955.73 1.882 1.473 2.804 2.212 1.935 1.55 3.845 3.082 5.924 4.414a.5.5 0 1 1-.539.842c-2.124-1.36-4.105-2.948-6.063-4.518-.912-.73-1.819-1.457-2.733-2.155a.5.5 0 0 1-.093-.7Z" fill="#000"/><path fill-rule="evenodd" clip-rule="evenodd" d="M163.015 40.854a.5.5 0 0 1-.06.705c-1.323 1.115-2.7 2.167-4.065 3.21l-.72.55c-1.603 1.229-3.18 2.462-4.653 3.81a.5.5 0 1 1-.675-.739c1.508-1.379 3.115-2.635 4.72-3.865l.724-.554c1.367-1.043 2.722-2.079 4.024-3.177a.5.5 0 0 1 .705.06Z" fill="#000"/><path fill-rule="evenodd" clip-rule="evenodd" d="M163.161 31.882a.5.5 0 0 1 .464.534c-.072 1.037-.134 1.973-.193 2.856-.181 2.743-.329 4.981-.648 8.206a.5.5 0 1 1-.995-.099c.317-3.207.464-5.425.645-8.164.059-.885.121-1.824.193-2.869a.5.5 0 0 1 .534-.464ZM156.828 29.007a.5.5 0 0 1-.151.69c-1.618 1.038-3.15 2.203-4.679 3.402l-1.031.812c-1.184.935-2.377 1.877-3.603 2.77a.5.5 0 0 1-.589-.809c1.209-.88 2.382-1.806 3.563-2.738.346-.274.694-.548 1.043-.822 1.533-1.203 3.097-2.392 4.757-3.456a.5.5 0 0 1 .69.151Z" fill="#000"/><path fill-rule="evenodd" clip-rule="evenodd" d="M155.759 29.702a.5.5 0 0 1 .693-.142c.513.338 1.035.67 1.558 1.004 1.959 1.249 3.947 2.516 5.663 4.188a.5.5 0 1 1-.698.716c-1.634-1.593-3.51-2.79-5.456-4.03a127.89 127.89 0 0 1-1.617-1.043.5.5 0 0 1-.143-.693Z" fill="#000"/><path fill-rule="evenodd" clip-rule="evenodd" d="M158.157 30.41a.5.5 0 0 1 .479.52l-.003.068c-.13 3.167-.26 6.328-.342 9.491a.5.5 0 0 1-1-.026c.082-3.17.213-6.338.343-9.502l.003-.071a.5.5 0 0 1 .52-.48Z" fill="#000"/><path fill-rule="evenodd" clip-rule="evenodd" d="M157.99 39.87a.5.5 0 0 1-.174.686c-1.174.7-2.263 1.524-3.376 2.366l-.09.068c-1.137.86-2.302 1.735-3.572 2.47a.5.5 0 1 1-.5-.867c1.208-.699 2.326-1.537 3.469-2.4l.106-.081c1.101-.833 2.229-1.686 3.451-2.415a.5.5 0 0 1 .686.173Z" fill="#000"/><path fill-rule="evenodd" clip-rule="evenodd" d="M156.865 39.708a.5.5 0 0 1 .65-.28c.879.351 1.787.644 2.714.943.128.04.256.082.385.124 1.053.34 2.123.699 3.146 1.159a.5.5 0 0 1-.41.912c-.968-.436-1.992-.78-3.044-1.12l-.382-.123c-.924-.298-1.867-.602-2.779-.965a.5.5 0 0 1-.28-.65ZM132.537 38.14a.5.5 0 0 1 .707 0l.156.156c.843.846 1.657 1.663 2.564 2.37a.5.5 0 1 1-.614.788c-.959-.746-1.815-1.605-2.648-2.44l-.166-.168a.5.5 0 0 1 .001-.707ZM132.213 33.919a.5.5 0 0 1 .706.043c.761.862 1.573 1.653 2.4 2.46.421.41.846.824 1.27 1.253a.5.5 0 0 1-.711.703c-.396-.4-.807-.8-1.221-1.205-.843-.822-1.702-1.66-2.488-2.549a.5.5 0 0 1 .044-.705ZM139.642 29.204a.5.5 0 0 1 .702-.09c.883.685 1.72 1.43 2.54 2.16l.482.428a.5.5 0 1 1-.663.75l-.491-.437c-.819-.73-1.626-1.448-2.481-2.11a.5.5 0 0 1-.089-.7ZM140.749 20.06a.499.499 0 0 1 .675-.208c.5.265 1.028.491 1.577.727l.25.107c.63.272 1.282.563 1.888.93a.5.5 0 0 1-.519.855c-.541-.328-1.136-.595-1.765-.866l-.244-.105a22.15 22.15 0 0 1-1.655-.764.5.5 0 0 1-.207-.676ZM143.608 17.486a.501.501 0 0 1 .708.01c.43.443.963.971 1.534 1.419.581.454 1.154.786 1.665.89a.501.501 0 0 1-.199.98c-.74-.15-1.462-.598-2.082-1.083-.628-.491-1.199-1.06-1.635-1.51a.5.5 0 0 1 .009-.706ZM158.654 16.442a.5.5 0 0 1 .643.294c.213.573.381 1.18.543 1.762l.112.403c.202.716.411 1.387.708 1.988a.5.5 0 1 1-.897.443c-.34-.69-.57-1.438-.773-2.159l-.119-.425c-.161-.58-.315-1.135-.511-1.663a.5.5 0 0 1 .294-.643ZM170.595 29.022a.5.5 0 0 1 .596.381c.151.688.277 1.389.402 2.079.058.326.117.65.177.969a.5.5 0 0 1-.982.185c-.064-.337-.124-.67-.184-1a53.235 53.235 0 0 0-.39-2.018.5.5 0 0 1 .381-.596ZM152.725 43.534a.501.501 0 0 1 .664-.245c1.11.51 2.191 1.06 3.26 1.65a.5.5 0 1 1-.483.875 48.93 48.93 0 0 0-3.195-1.617.5.5 0 0 1-.246-.663ZM155.454 41.431a.5.5 0 0 1 .706-.048c.908.792 2.016 1.434 3.153 1.763a.501.501 0 0 1-.278.96c-1.296-.374-2.53-1.095-3.533-1.97a.5.5 0 0 1-.048-.705ZM157.417 36.757a.5.5 0 0 1 .592-.386c.668.14 1.321.336 1.95.524l.051.015c.652.195 1.28.381 1.915.51a.5.5 0 1 1-.199.98c-.686-.139-1.356-.338-2.002-.532l-.035-.01c-.641-.192-1.259-.377-1.886-.509a.5.5 0 0 1-.386-.592ZM157.754 33.549a.5.5 0 0 1 .542-.454c.705.063 1.387.215 2.042.375l.443.11c.503.126.988.248 1.481.338a.5.5 0 1 1-.181.984 25.385 25.385 0 0 1-1.561-.356l-.42-.105c-.646-.158-1.268-.294-1.892-.35a.5.5 0 0 1-.454-.542ZM138.217 48.517a.5.5 0 0 1 .679-.195c1.12.62 2.096 1.476 3.017 2.283.177.155.352.31.526.459a.5.5 0 1 1-.653.757 80.725 80.725 0 0 1-.554-.483c-.921-.806-1.803-1.579-2.82-2.141a.5.5 0 0 1-.195-.68Z" fill="#000"/><path fill-rule="evenodd" clip-rule="evenodd" d="m120.907 73.798 9.188-7.544 5.743 2.321 2.297 2.902h4.594l4.02-7.544 9.188 5.803 2.872 5.222-2.872 4.063 2.872 3.481h5.168l1.723 3.482-1.723 12.186h-6.317l-4.594 6.963 2.297 5.223-9.763 6.383-2.871-5.223h-6.891l-4.594 6.383-9.189-5.222-4.02-2.321 4.02-6.964v-2.321h-4.02l-4.594-4.062V85.404l6.317-.58 4.02-5.803-2.871-5.223Zm11.485 16.248 9.189-7.544 2.871 2.901-.574 9.285-8.04 6.383-3.446-2.901v-8.124Z" fill="#fff"/><path fill-rule="evenodd" clip-rule="evenodd" d="m120.907 73.798 9.188-7.544 5.743 2.321 2.297 2.902h4.594l4.02-7.544 9.188 5.803 2.872 5.222-2.872 4.063 2.872 3.481h5.168l1.723 3.482-1.723 12.186h-6.317l-4.594 6.963 2.297 5.223-9.763 6.383-2.871-5.223h-6.891l-4.594 6.383-9.189-5.222-4.02-2.321 4.02-6.964v-2.321h-4.02l-4.594-4.062V85.404l6.317-.58 4.02-5.803-2.871-5.223Zm11.485 16.248 9.189-7.544 2.871 2.901-.574 9.285-8.04 6.383-3.446-2.901v-8.124Z" fill="#fff"/><path fill-rule="evenodd" clip-rule="evenodd" d="M129.335 79.6a.5.5 0 0 1 .191.68L124.071 90a.5.5 0 0 1-.872-.49l5.455-9.719a.5.5 0 0 1 .681-.191Z" fill="#000"/><path fill-rule="evenodd" clip-rule="evenodd" d="M125.138 75.525a.5.5 0 0 1 .669.23c.137.28.272.56.407.84.876 1.81 1.726 3.57 2.855 5.186a.5.5 0 1 1-.82.572c-1.178-1.687-2.066-3.524-2.939-5.33l-.402-.83a.5.5 0 0 1 .23-.668ZM136.533 68.684a.5.5 0 0 1 .638.306c.578 1.646 1.055 3.317 1.528 4.977l.267.934c.221.767.366 1.254.735 1.813a.5.5 0 0 1-.835.551c-.462-.7-.641-1.324-.859-2.08l-.002-.008-.27-.943c-.473-1.66-.94-3.297-1.508-4.912a.5.5 0 0 1 .306-.638Z" fill="#000"/><path fill-rule="evenodd" clip-rule="evenodd" d="M137.272 67.304a.5.5 0 0 1-.173.685c-4.282 2.557-8.507 5.462-11.798 9.187a.5.5 0 1 1-.749-.662c3.394-3.842 7.726-6.81 12.034-9.383a.5.5 0 0 1 .686.173ZM141.553 75.952c-1.12-.067-2.271.012-3.236.085a.5.5 0 1 1-.076-.997c.963-.073 2.176-.157 3.371-.087 1.187.07 2.417.296 3.386.884a.5.5 0 1 1-.518.855c-.763-.463-1.799-.674-2.927-.74Z" fill="#000"/><path fill-rule="evenodd" clip-rule="evenodd" d="M150.656 67.61a.5.5 0 0 1 .068.703c-1.822 2.21-3.173 4.963-4.481 7.63-.161.328-.321.654-.482.978a.499.499 0 1 1-.896-.443c.159-.321.319-.647.48-.976 1.3-2.652 2.705-5.518 4.607-7.825a.5.5 0 0 1 .704-.068ZM159.16 74.458a.5.5 0 0 1 .004.707c-1.587 1.603-2.789 3.704-3.968 5.762-.183.32-.366.64-.549.956a.5.5 0 0 1-.865-.502c.178-.306.357-.62.538-.936 1.171-2.05 2.446-4.279 4.133-5.983a.5.5 0 0 1 .707-.004Z" fill="#000"/><path fill-rule="evenodd" clip-rule="evenodd" d="M154.529 79.319a.5.5 0 0 1 .687.167c1.211 1.988 2.074 4 2.777 6.2a.5.5 0 1 1-.953.305c-.683-2.14-1.516-4.076-2.678-5.985a.5.5 0 0 1 .167-.687Z" fill="#000"/><path fill-rule="evenodd" clip-rule="evenodd" d="M165.338 86.114a.5.5 0 0 1-.484.515c-.568.017-1.139.038-1.713.06-1.818.067-3.66.136-5.495.085a.5.5 0 0 1 .028-1c1.799.05 3.596-.017 5.406-.084.579-.021 1.16-.043 1.743-.06a.5.5 0 0 1 .515.484Z" fill="#000"/><path fill-rule="evenodd" clip-rule="evenodd" d="M165.89 85.776a.5.5 0 0 1 .451.544 160.865 160.865 0 0 1-.454 4.13c-.347 2.925-.692 5.832-.692 8.735a.5.5 0 0 1-1 0c0-2.962.357-5.97.707-8.926.161-1.358.321-2.705.444-4.031a.5.5 0 0 1 .544-.452Z" fill="#000"/><path fill-rule="evenodd" clip-rule="evenodd" d="M166.343 98.14a.5.5 0 0 1-.47.53c-2.872.17-5.746.323-8.624.435a.5.5 0 0 1-.039-1c2.869-.111 5.736-.264 8.604-.434a.5.5 0 0 1 .529.47Z" fill="#000"/><path fill-rule="evenodd" clip-rule="evenodd" d="M158.728 95.248a.5.5 0 0 1 .249.662c-1.334 2.948-3.04 5.658-4.735 8.352-.3.475-.599.95-.895 1.426a.5.5 0 0 1-.849-.529c.301-.483.603-.963.904-1.441 1.697-2.696 3.361-5.34 4.664-8.22a.5.5 0 0 1 .662-.25Z" fill="#000"/><path fill-rule="evenodd" clip-rule="evenodd" d="M152.369 104.13a.5.5 0 0 1 .689.156c.649 1.031 1.237 2.092 1.816 3.141l.064.116c.559 1.013 1.111 2.014 1.712 2.985a.5.5 0 0 1-.851.526c-.614-.993-1.177-2.013-1.732-3.021l-.068-.123c-.581-1.051-1.156-2.089-1.787-3.091a.5.5 0 0 1 .157-.689ZM144.079 110.83a.5.5 0 0 1-.383.595c-3.086.668-5.823.84-8.971.144a.499.499 0 1 1 .216-.976c2.971.657 5.557.501 8.544-.146a.5.5 0 0 1 .594.383Z" fill="#000"/><path fill-rule="evenodd" clip-rule="evenodd" d="M142.812 110.625a.5.5 0 0 1 .661.252c.88 1.971 1.853 3.851 2.858 5.776a.5.5 0 0 1-.887.462c-1.003-1.923-1.99-3.827-2.884-5.83a.499.499 0 0 1 .252-.66Z" fill="#000"/><path fill-rule="evenodd" clip-rule="evenodd" d="M156.065 110.802a.5.5 0 0 1-.135.694l-.325.218c-3.129 2.109-6.339 4.273-9.79 5.912a.5.5 0 0 1-.429-.904c3.382-1.606 6.536-3.732 9.684-5.853l.301-.203a.5.5 0 0 1 .694.136ZM135.994 109.446a.498.498 0 0 1 .318.631c-.5 1.518-1.185 2.964-1.883 4.375l-.376.755c-.578 1.157-1.146 2.296-1.63 3.464a.5.5 0 1 1-.924-.383c.499-1.204 1.086-2.38 1.665-3.538.123-.248.247-.495.368-.741.697-1.407 1.354-2.799 1.831-4.245a.5.5 0 0 1 .631-.318ZM128.43 105.061a.5.5 0 0 1 .017.707c-1.526 1.604-2.884 3.315-4.262 5.052-.573.722-1.149 1.448-1.743 2.174a.501.501 0 0 1-.774-.634c.573-.699 1.137-1.411 1.704-2.125 1.39-1.752 2.792-3.518 4.351-5.156a.5.5 0 0 1 .707-.018Z" fill="#000"/><path fill-rule="evenodd" clip-rule="evenodd" d="M121.197 112.128a.5.5 0 0 1 .687-.169c2.609 1.582 5.074 3.367 7.525 5.141l.947.684.124.097.085.066.08.062.011-.004a.5.5 0 0 1 .632.318.74.74 0 0 1 .029.4.55.55 0 0 1-.512.425.726.726 0 0 1-.328-.069 1.581 1.581 0 0 1-.197-.107 4.698 4.698 0 0 1-.328-.235l-.11-.086-.012-.01-.042-.032-.013-.01-.005-.004-.948-.685c-2.454-1.777-4.885-3.536-7.457-5.096a.5.5 0 0 1-.168-.686Zm9.145 6.521-.003-.01.003.01Zm.538-.485c.009.003.01.004.002.001l-.002-.001ZM124.417 99.997a.5.5 0 0 1 .573.415c.323 2.015 1.316 4.243 2.733 5.675a.5.5 0 0 1-.711.703c-1.591-1.607-2.66-4.04-3.01-6.22a.5.5 0 0 1 .415-.573Z" fill="#000"/><path fill-rule="evenodd" clip-rule="evenodd" d="M116.112 99.945a.5.5 0 0 1 .598-.377c2.117.479 4.362.456 6.62.433.484-.005.969-.01 1.453-.01a.5.5 0 0 1 0 1c-.46 0-.929.005-1.403.01-2.261.024-4.648.049-6.891-.458a.499.499 0 0 1-.377-.598ZM116.55 88.6a.501.501 0 0 1 .621-.34c2.784.814 5.48.645 8.411.274a.499.499 0 1 1 .125.993c-2.957.373-5.825.568-8.817-.307a.5.5 0 0 1-.34-.62Z" fill="#000"/><path fill-rule="evenodd" clip-rule="evenodd" d="M117.469 88.24a.5.5 0 0 1 .493.507c-.022 1.496-.078 2.99-.134 4.478l-.006.144a172.892 172.892 0 0 0-.131 4.597c-.014 1.232.005 2.058.383 3.076a.5.5 0 0 1-.937.348c-.448-1.204-.46-2.191-.446-3.435.017-1.545.074-3.088.132-4.623l.005-.14c.056-1.491.113-2.975.134-4.459a.5.5 0 0 1 .507-.493Z" fill="#000"/><path fill-rule="evenodd" clip-rule="evenodd" d="M113.21 84.783a.5.5 0 0 1 .705-.045c1.58 1.39 2.928 2.853 4.325 4.368l.019.02a.5.5 0 1 1-.735.678l-.002-.003c-1.409-1.527-2.727-2.956-4.268-4.312a.5.5 0 0 1-.044-.706Z" fill="#000"/><path fill-rule="evenodd" clip-rule="evenodd" d="M120.975 84.645a.5.5 0 0 1-.465.532c-.786.053-1.548.133-2.318.214-.483.051-.969.103-1.466.148-1.27.114-2.564.183-3.9.073a.5.5 0 0 1 .082-.997c1.252.103 2.48.04 3.727-.072.465-.042.939-.092 1.419-.143.788-.083 1.59-.167 2.388-.22a.5.5 0 0 1 .533.465Z" fill="#000"/><path fill-rule="evenodd" clip-rule="evenodd" d="M124.758 79.308a.5.5 0 0 1-.113.698c-1.904 1.374-2.892 3.728-3.543 6.11a.5.5 0 0 1-.965-.264c.662-2.42 1.724-5.07 3.923-6.657a.5.5 0 0 1 .698.113Z" fill="#000"/><path fill-rule="evenodd" clip-rule="evenodd" d="M120.206 73.087a.5.5 0 0 1 .691.15c1.241 1.933 2.273 3.922 3.195 6.017a.5.5 0 0 1-.915.403c-.905-2.056-1.913-3.997-3.122-5.879a.5.5 0 0 1 .151-.69Z" fill="#000"/><path fill-rule="evenodd" clip-rule="evenodd" d="M119.873 73.166a.5.5 0 0 1 .656-.263c1.252.536 2.406 1.218 3.526 1.891.073.045.147.09.221.133 1.05.632 2.073 1.248 3.159 1.755a.5.5 0 0 1-.423.906c-1.136-.53-2.202-1.172-3.243-1.798a39.945 39.945 0 0 0-.23-.139c-1.122-.674-2.222-1.322-3.404-1.828a.5.5 0 0 1-.262-.657ZM123.924 79.198a.5.5 0 0 1 .686-.171c1.149.69 2.335 1.248 3.576 1.83l.034.017c.36.17.734.345 1.082.696a.5.5 0 1 1-.711.704c-.208-.21-.429-.323-.798-.496l-.053-.025c-1.226-.576-2.451-1.152-3.645-1.869a.5.5 0 0 1-.171-.686ZM120.047 84.413a.5.5 0 0 1 .696.124c1.282 1.841 2.561 3.594 4.108 5.157a.5.5 0 1 1-.711.703c-1.612-1.629-2.932-3.442-4.218-5.288a.5.5 0 0 1 .125-.696Z" fill="#000"/><path fill-rule="evenodd" clip-rule="evenodd" d="M132.262 65.01a.5.5 0 0 1-.214.673c-4.656 2.405-9.097 5.29-12.171 9.567a.5.5 0 1 1-.812-.583c3.213-4.471 7.823-7.445 12.524-9.872a.5.5 0 0 1 .673.214Z" fill="#000"/><path fill-rule="evenodd" clip-rule="evenodd" d="M129.369 65.29a.5.5 0 0 1 .678-.2c2.242 1.219 4.499 2.345 6.843 3.313a.5.5 0 1 1-.382.925c-2.386-.987-4.677-2.13-6.939-3.36a.5.5 0 0 1-.2-.678ZM143.016 71.977c-1.978 0-3.882.064-5.793.426a.5.5 0 1 1-.186-.982c2.006-.38 3.985-.444 5.979-.444a.5.5 0 1 1 0 1Z" fill="#000"/><path fill-rule="evenodd" clip-rule="evenodd" d="M142.359 70.886a.5.5 0 0 1 .672.22c.946 1.86 1.839 3.748 2.727 5.627l.295.623a.5.5 0 0 1-.904.428l-.295-.623c-.889-1.88-1.775-3.755-2.714-5.603a.5.5 0 0 1 .219-.672Z" fill="#000"/><path fill-rule="evenodd" clip-rule="evenodd" d="M147.114 63.63a.5.5 0 0 1 .227.67 87.308 87.308 0 0 1-1.432 2.732c-.947 1.759-1.878 3.486-2.568 5.344a.5.5 0 1 1-.937-.348c.713-1.92 1.702-3.758 2.669-5.555.474-.88.943-1.75 1.371-2.617a.5.5 0 0 1 .67-.226Z" fill="#000"/><path fill-rule="evenodd" clip-rule="evenodd" d="M147.407 63.766a.5.5 0 0 1 .66.254c.824 1.852 1.692 3.67 2.578 5.498a.5.5 0 0 1-.9.436c-.887-1.83-1.761-3.66-2.591-5.528a.5.5 0 0 1 .253-.66Z" fill="#000"/><path fill-rule="evenodd" clip-rule="evenodd" d="M149.759 68.33a.5.5 0 0 1 .681-.19c2.151 1.215 4.145 2.68 6.111 4.123.516.38 1.03.758 1.545 1.13a.5.5 0 1 1-.585.81c-.53-.383-1.055-.768-1.578-1.152-1.96-1.44-3.891-2.858-5.984-4.04a.5.5 0 0 1-.19-.682ZM147.363 63.91a.5.5 0 0 1 .703-.077c1.293 1.033 2.678 1.87 4.106 2.681.343.195.689.388 1.037.583 1.093.612 2.205 1.233 3.286 1.928a.5.5 0 0 1-.541.841c-1.052-.676-2.127-1.277-3.214-1.885-.352-.197-.706-.395-1.061-.597-1.44-.818-2.881-1.686-4.237-2.77a.5.5 0 0 1-.079-.703Z" fill="#000"/><path fill-rule="evenodd" clip-rule="evenodd" d="M155.634 68.537a.5.5 0 0 1 .634.313c.341 1.01.778 1.972 1.236 2.946l.2.426c.393.831.793 1.678 1.139 2.553a.5.5 0 1 1-.93.368c-.333-.842-.718-1.657-1.111-2.49l-.203-.431c-.46-.978-.917-1.984-1.279-3.05a.5.5 0 0 1 .314-.635ZM155.83 78.733a.5.5 0 0 1 .683.181c.674 1.16 1.344 2.322 2.011 3.484a.499.499 0 1 1-.867.498 737.342 737.342 0 0 0-2.008-3.48.5.5 0 0 1 .181-.683Z" fill="#000"/><path fill-rule="evenodd" clip-rule="evenodd" d="M158.52 81.008a.5.5 0 0 1 .337.621c-.485 1.634-.517 3.443-.548 5.24l-.005.285a.5.5 0 1 1-1-.019l.005-.322c.031-1.762.064-3.699.59-5.468a.5.5 0 0 1 .621-.337Z" fill="#000"/><path fill-rule="evenodd" clip-rule="evenodd" d="M157.602 81.964a.5.5 0 0 1 .592-.386c1.085.228 2.181.327 3.305.408l.527.038c.948.066 1.918.134 2.884.273a.5.5 0 1 1-.143.99c-.926-.134-1.854-.199-2.803-.265l-.537-.038c-1.129-.082-2.284-.184-3.439-.428a.5.5 0 0 1-.386-.592Z" fill="#000"/><path fill-rule="evenodd" clip-rule="evenodd" d="M163.139 81.642a.5.5 0 0 1 .689.16 127.885 127.885 0 0 1 2.738 4.661.5.5 0 0 1-.87.492 127.451 127.451 0 0 0-2.717-4.624.5.5 0 0 1 .16-.689ZM121.345 100.3a.5.5 0 0 1 .617.345c.305 1.078.612 2.127.993 3.153a.5.5 0 0 1-.938.348c-.396-1.066-.712-2.149-1.017-3.229a.5.5 0 0 1 .345-.617Z" fill="#000"/><path fill-rule="evenodd" clip-rule="evenodd" d="M120.766 102.698a.5.5 0 0 1 .687-.168c.494.299.994.632 1.494.964l.137.091c.549.364 1.099.726 1.658 1.056 1.123.663 2.246 1.172 3.399 1.301a.5.5 0 0 1-.112.994c-1.36-.153-2.628-.745-3.795-1.433a38.768 38.768 0 0 1-1.703-1.085l-.134-.089c-.504-.335-.988-.657-1.462-.944a.5.5 0 0 1-.169-.687Z" fill="#000"/><path fill-rule="evenodd" clip-rule="evenodd" d="M122.194 103.995a.5.5 0 0 1 .13.695c-.506.739-1.028 1.447-1.544 2.147-1.042 1.413-2.061 2.793-2.877 4.333a.5.5 0 0 1-.884-.468c.851-1.604 1.946-3.09 3.013-4.538a71.486 71.486 0 0 0 1.467-2.039.5.5 0 0 1 .695-.13Z" fill="#000"/><path fill-rule="evenodd" clip-rule="evenodd" d="M118.238 109.876a.5.5 0 0 1 .706-.036c.487.439 1.038.934 1.624 1.353.59.422 1.177.737 1.73.849a.5.5 0 0 1-.198.98c-.755-.152-1.478-.561-2.114-1.015-.638-.457-1.228-.989-1.709-1.423l-.002-.002a.5.5 0 0 1-.037-.706ZM112.412 96.328a.5.5 0 0 1 .702.08c.203.254.408.526.619.806.405.538.833 1.108 1.316 1.644.73.81 1.475 1.41 2.235 1.58a.501.501 0 0 1-.22.976c-1.078-.242-2.001-1.046-2.758-1.887-.51-.565-.993-1.207-1.414-1.766-.202-.268-.39-.517-.56-.73a.5.5 0 0 1 .08-.703Z" fill="#000"/><path fill-rule="evenodd" clip-rule="evenodd" d="M112.72 83.743a.5.5 0 0 1 .503.496c.029 3.756.073 7.49.366 11.216.063.809.151 1.552.338 2.305a.5.5 0 0 1-.971.24c-.206-.83-.299-1.636-.364-2.467-.296-3.764-.34-7.532-.369-11.286a.5.5 0 0 1 .497-.504ZM131.922 87.662a.5.5 0 0 1 .538.459c.244 3.106.298 6.24.351 9.351.023 1.297.045 2.59.081 3.876a.5.5 0 0 1-1 .028 368.733 368.733 0 0 1-.081-3.92c-.054-3.098-.107-6.183-.348-9.257a.5.5 0 0 1 .459-.537Z" fill="#000"/><path fill-rule="evenodd" clip-rule="evenodd" d="M130.415 96.851a.5.5 0 0 1 .701-.094 189.75 189.75 0 0 1 3.483 2.743c2.412 1.931 4.8 3.842 7.395 5.502a.5.5 0 0 1-.539.842c-2.64-1.688-5.098-3.656-7.534-5.605a188.982 188.982 0 0 0-3.411-2.687.5.5 0 0 1-.095-.7Z" fill="#000"/><path fill-rule="evenodd" clip-rule="evenodd" d="M150.434 96.542a.501.501 0 0 1-.061.705c-1.644 1.385-3.357 2.69-5.058 3.988l-.896.684c-1.997 1.528-3.964 3.065-5.803 4.744a.5.5 0 0 1-.675-.738c1.874-1.711 3.871-3.27 5.871-4.8l.901-.688c1.701-1.298 3.392-2.587 5.016-3.955a.5.5 0 0 1 .705.06Z" fill="#000"/><path fill-rule="evenodd" clip-rule="evenodd" d="M150.828 86.45a.5.5 0 0 1 .464.533c-.335 4.814-.597 7.452-1.032 11.834l-.142 1.433a.499.499 0 1 1-.995-.098l.142-1.434c.435-4.38.695-7.006 1.03-11.805a.5.5 0 0 1 .533-.463ZM142.72 81.797a.501.501 0 0 1-.152.691c-2.02 1.293-3.933 2.745-5.837 4.236-.428.335-.856.673-1.285 1.011-1.474 1.162-2.957 2.332-4.483 3.44a.5.5 0 1 1-.588-.808c1.508-1.096 2.971-2.25 4.442-3.41.431-.34.863-.68 1.297-1.02 1.91-1.495 3.853-2.971 5.915-4.291a.5.5 0 0 1 .691.151Z" fill="#000"/><path fill-rule="evenodd" clip-rule="evenodd" d="M141.594 82.663a.5.5 0 0 1 .692-.143c.643.423 1.295.838 1.948 1.254 2.438 1.551 4.9 3.119 7.027 5.188a.5.5 0 0 1-.697.717c-2.046-1.99-4.396-3.487-6.821-5.031-.664-.424-1.335-.85-2.007-1.293a.5.5 0 0 1-.142-.692Z" fill="#000"/><path fill-rule="evenodd" clip-rule="evenodd" d="M144.472 83.599a.5.5 0 0 1 .479.52l-.003.084c-.162 3.937-.325 7.87-.427 11.804a.5.5 0 0 1-1-.026c.103-3.942.265-7.88.428-11.816l.003-.087a.5.5 0 0 1 .52-.48Z" fill="#000"/><path fill-rule="evenodd" clip-rule="evenodd" d="M144.163 95.303a.5.5 0 0 1-.173.685c-1.468.875-2.829 1.903-4.214 2.948l-.114.086c-1.417 1.07-2.862 2.154-4.436 3.063a.5.5 0 0 1-.5-.866c1.513-.874 2.911-1.921 4.333-2.995l.131-.098c1.373-1.037 2.772-2.094 4.288-2.997a.5.5 0 0 1 .685.174Z" fill="#000"/><path fill-rule="evenodd" clip-rule="evenodd" d="M142.982 95.084a.5.5 0 0 1 .65-.28c1.098.437 2.234.803 3.388 1.174l.479.154c1.311.424 2.638.868 3.905 1.437a.5.5 0 0 1-.409.912c-1.213-.544-2.493-.974-3.803-1.397a879.24 879.24 0 0 1-.477-.154c-1.151-.37-2.321-.746-3.453-1.197a.5.5 0 0 1-.28-.65ZM112.657 93.174a.5.5 0 0 1 .707 0l.195.196c1.049 1.05 2.068 2.072 3.204 2.955a.5.5 0 0 1-.614.79c-1.187-.924-2.248-1.987-3.286-3.027l-.206-.207a.5.5 0 0 1 0-.707ZM112.249 87.93a.5.5 0 0 1 .705.044c.951 1.075 1.968 2.064 3 3.069.523.51 1.051 1.022 1.575 1.553a.5.5 0 1 1-.71.703c-.497-.501-1.01-1-1.526-1.504-1.049-1.02-2.113-2.057-3.088-3.159a.5.5 0 0 1 .044-.705ZM121.516 82.052a.5.5 0 0 1 .701-.09c1.097.847 2.136 1.771 3.157 2.679.201.178.401.357.601.533a.5.5 0 1 1-.662.75l-.611-.542c-1.02-.908-2.029-1.804-3.096-2.629a.5.5 0 0 1-.09-.701ZM122.905 70.663a.5.5 0 0 1 .676-.208c.627.332 1.289.615 1.974.908l.309.133c.785.338 1.59.697 2.337 1.15a.5.5 0 0 1-.519.854c-.681-.413-1.429-.748-2.213-1.085l-.305-.131c-.681-.292-1.384-.593-2.051-.946a.5.5 0 0 1-.208-.675ZM126.444 67.492a.5.5 0 0 1 .707.01c.537.55 1.205 1.213 1.924 1.775.728.568 1.46.995 2.124 1.13a.5.5 0 1 1-.198.98c-.894-.18-1.775-.723-2.542-1.322-.775-.606-1.482-1.31-2.024-1.866a.5.5 0 0 1 .009-.707ZM145.139 66.221a.5.5 0 0 1 .643.294c.263.706.47 1.454.672 2.179l.14.504c.252.89.515 1.735.89 2.492a.5.5 0 1 1-.896.444c-.419-.847-.702-1.768-.956-2.664a84.85 84.85 0 0 1-.147-.526c-.2-.722-.394-1.418-.64-2.08a.5.5 0 0 1 .294-.643ZM159.993 81.869a.5.5 0 0 1 .596.38c.188.854.344 1.721.499 2.578.073.406.146.81.222 1.209a.5.5 0 0 1-.983.186c-.079-.417-.153-.83-.227-1.241a67.137 67.137 0 0 0-.488-2.517.5.5 0 0 1 .381-.595ZM137.824 99.847a.5.5 0 0 1 .663-.246 62.039 62.039 0 0 1 4.053 2.048.5.5 0 0 1-.483.876 60.734 60.734 0 0 0-3.987-2.015.5.5 0 0 1-.246-.663ZM141.203 97.261a.5.5 0 0 1 .706-.048c1.142.994 2.538 1.803 3.974 2.218a.5.5 0 1 1-.278.96c-1.594-.46-3.116-1.347-4.353-2.424a.5.5 0 0 1-.049-.706ZM143.676 91.394a.5.5 0 0 1 .592-.387c1.201.253 3.013.718 4.576 1.119.598.153 1.16.298 1.637.417a.5.5 0 0 1-.243.97c-.492-.123-1.064-.27-1.67-.425-1.555-.4-3.328-.854-4.506-1.102a.5.5 0 0 1-.386-.592ZM144.097 87.39a.5.5 0 0 1 .543-.453c.867.077 1.71.264 2.524.463.185.045.368.09.549.136.627.157 1.236.309 1.854.422a.5.5 0 0 1-.181.984 31.54 31.54 0 0 1-1.934-.44l-.526-.131c-.805-.197-1.587-.368-2.375-.438a.5.5 0 0 1-.454-.543ZM119.751 106.052a.502.502 0 0 1 .68-.196c1.381.763 2.586 1.818 3.732 2.822.222.194.441.386.659.574a.5.5 0 0 1-.652.758c-.232-.2-.46-.4-.687-.598-1.147-1.003-2.258-1.974-3.536-2.68a.501.501 0 0 1-.196-.68Z" fill="#000"/><path fill-rule="evenodd" clip-rule="evenodd" d="M64.945 46.106 71.8 40.48l4.284 1.731 1.714 2.165h3.427l3-5.628 6.854 4.33 2.142 3.895-2.142 3.03 2.142 2.598h3.856l1.285 2.598-1.285 9.09h-4.713l-3.427 5.196 1.714 3.896-7.284 4.762-2.142-3.896h-5.14l-3.428 4.762-6.855-3.896-2.999-1.732 2.999-5.195v-1.732h-2.999l-3.427-3.03v-8.658l4.712-.433 3-4.33-2.143-3.896Zm8.569 12.122 6.854-5.628 2.142 2.165-.428 6.926-5.998 4.762-2.57-2.164v-6.061Z" fill="#fff"/><path fill-rule="evenodd" clip-rule="evenodd" d="M64.945 46.106 71.8 40.48l4.284 1.731 1.714 2.165h3.427l3-5.628 6.854 4.33 2.142 3.895-2.142 3.03 2.142 2.598h3.856l1.285 2.598-1.285 9.09h-4.713l-3.427 5.196 1.714 3.896-7.284 4.762-2.142-3.896h-5.14l-3.428 4.762-6.855-3.896-2.999-1.732 2.999-5.195v-1.732h-2.999l-3.427-3.03v-8.658l4.712-.433 3-4.33-2.143-3.896Zm8.569 12.122 6.854-5.628 2.142 2.165-.428 6.926-5.998 4.762-2.57-2.164v-6.061Z" fill="#fff"/><path fill-rule="evenodd" clip-rule="evenodd" d="M71.295 50.324a.5.5 0 0 1 .192.68l-4.07 7.252a.5.5 0 0 1-.873-.49l4.07-7.25a.5.5 0 0 1 .681-.192Z" fill="#000"/><path fill-rule="evenodd" clip-rule="evenodd" d="M68.047 47.28a.5.5 0 0 1 .668.23l.305.628c.653 1.352 1.283 2.654 2.12 3.85a.5.5 0 0 1-.82.574c-.886-1.268-1.554-2.65-2.204-3.996l-.3-.617a.5.5 0 0 1 .23-.669ZM76.561 42.172a.5.5 0 0 1 .638.305c.433 1.232.79 2.483 1.143 3.721l.199.696c.164.573.268.919.532 1.318a.5.5 0 0 1-.835.55c-.355-.538-.494-1.019-.655-1.58l-.003-.011-.202-.705c-.353-1.238-.7-2.456-1.122-3.657a.5.5 0 0 1 .305-.637Z" fill="#000"/><path fill-rule="evenodd" clip-rule="evenodd" d="M77.264 41.196a.5.5 0 0 1-.173.686c-3.191 1.905-6.33 4.065-8.772 6.828a.5.5 0 1 1-.75-.662c2.546-2.88 5.791-5.103 9.009-7.025a.5.5 0 0 1 .686.173ZM80.34 47.84c-.825-.05-1.676.009-2.397.063a.5.5 0 1 1-.075-.997c.718-.054 1.63-.118 2.532-.065.893.053 1.835.223 2.584.678a.5.5 0 1 1-.518.855c-.543-.33-1.291-.485-2.125-.534Z" fill="#000"/><path fill-rule="evenodd" clip-rule="evenodd" d="M87.22 41.392a.5.5 0 0 1 .068.703c-1.349 1.636-2.35 3.677-3.327 5.668l-.36.73a.5.5 0 1 1-.895-.444l.357-.727c.97-1.977 2.024-4.13 3.454-5.863a.5.5 0 0 1 .704-.067ZM93.573 46.508a.5.5 0 0 1 .004.707c-1.17 1.184-2.059 2.735-2.939 4.271l-.411.716a.5.5 0 1 1-.865-.503c.132-.227.265-.46.4-.695.873-1.528 1.833-3.207 3.104-4.492a.5.5 0 0 1 .707-.004Z" fill="#000"/><path fill-rule="evenodd" clip-rule="evenodd" d="M89.963 50.117a.5.5 0 0 1 .687.166c.91 1.494 1.557 3.004 2.084 4.654a.5.5 0 1 1-.953.304c-.507-1.588-1.124-3.023-1.985-4.437a.5.5 0 0 1 .166-.688Z" fill="#000"/><path fill-rule="evenodd" clip-rule="evenodd" d="M98.22 55.29a.5.5 0 0 1-.484.515c-.422.013-.847.03-1.275.045-1.357.05-2.737.102-4.11.064a.5.5 0 0 1 .028-1c1.337.037 2.672-.012 4.021-.062.434-.017.868-.033 1.305-.046a.5.5 0 0 1 .515.484Z" fill="#000"/><path fill-rule="evenodd" clip-rule="evenodd" d="M98.516 54.916a.5.5 0 0 1 .452.544 121.573 121.573 0 0 1-.34 3.095c-.259 2.177-.515 4.333-.515 6.491a.5.5 0 1 1-1 0c0-2.217.268-4.474.53-6.683.12-1.011.238-2.012.33-2.995a.5.5 0 0 1 .543-.452Z" fill="#000"/><path fill-rule="evenodd" clip-rule="evenodd" d="M98.97 64.259a.5.5 0 0 1-.47.529c-2.144.127-4.289.241-6.437.325a.5.5 0 0 1-.039-1c2.14-.082 4.277-.196 6.416-.324a.5.5 0 0 1 .53.47Z" fill="#000"/><path fill-rule="evenodd" clip-rule="evenodd" d="M93.213 61.993a.5.5 0 0 1 .25.662c-1 2.208-2.277 4.238-3.542 6.248-.223.354-.446.708-.666 1.062a.5.5 0 0 1-.849-.53c.225-.36.45-.72.676-1.076 1.265-2.011 2.502-3.976 3.47-6.116a.5.5 0 0 1 .661-.25Z" fill="#000"/><path fill-rule="evenodd" clip-rule="evenodd" d="M88.35 68.627a.5.5 0 0 1 .69.157c.485.772.926 1.567 1.358 2.35l.047.085c.417.757.828 1.5 1.274 2.222a.5.5 0 1 1-.85.526 52.16 52.16 0 0 1-1.296-2.258l-.05-.092a45.91 45.91 0 0 0-1.33-2.3.5.5 0 0 1 .157-.69ZM82.357 73.707a.5.5 0 0 1-.383.594c-2.315.501-4.376.632-6.747.108a.5.5 0 1 1 .216-.976c2.194.485 4.104.37 6.32-.11a.5.5 0 0 1 .594.384Z" fill="#000"/><path fill-rule="evenodd" clip-rule="evenodd" d="M81.236 73.464a.5.5 0 0 1 .66.253c.655 1.466 1.38 2.865 2.13 4.301a.5.5 0 0 1-.887.463c-.749-1.435-1.487-2.859-2.155-4.357a.5.5 0 0 1 .252-.66Z" fill="#000"/><path fill-rule="evenodd" clip-rule="evenodd" d="M91.28 73.642a.5.5 0 0 1-.136.694l-.244.165c-2.333 1.572-4.735 3.19-7.318 4.417a.5.5 0 1 1-.429-.903c2.514-1.194 4.86-2.775 7.211-4.36l.222-.149a.5.5 0 0 1 .694.136ZM76.241 72.58a.5.5 0 0 1 .318.632c-.376 1.14-.89 2.226-1.412 3.28l-.281.565c-.43.863-.852 1.707-1.211 2.575a.5.5 0 1 1-.924-.383c.374-.903.814-1.785 1.246-2.65l.274-.55c.52-1.05 1.006-2.081 1.359-3.15a.5.5 0 0 1 .631-.319ZM70.646 69.338a.5.5 0 0 1 .017.706c-1.134 1.193-2.141 2.462-3.168 3.756-.428.54-.86 1.083-1.306 1.628a.5.5 0 1 1-.773-.634c.424-.518.844-1.047 1.266-1.579 1.038-1.309 2.09-2.633 3.257-3.86a.5.5 0 0 1 .707-.017Z" fill="#000"/><path fill-rule="evenodd" clip-rule="evenodd" d="M65.054 74.635a.5.5 0 0 1 .686-.168c1.952 1.183 3.795 2.517 5.623 3.84l.706.511.102.08.057.044.01.008a.5.5 0 0 1 .573.334c.02.06.064.204.025.367a.538.538 0 0 1-.5.414.67.67 0 0 1-.302-.062 1.301 1.301 0 0 1-.163-.088 5.283 5.283 0 0 1-.387-.286l-.707-.511c-1.832-1.326-3.64-2.635-5.555-3.796a.5.5 0 0 1-.168-.687Zm6.807 4.962c.003.009.001.007-.001-.005l.001.005ZM67.544 65.526a.5.5 0 0 1 .573.415c.238 1.483.969 3.119 2.004 4.165a.5.5 0 0 1-.711.703c-1.21-1.222-2.016-3.063-2.28-4.71a.5.5 0 0 1 .414-.573Z" fill="#000"/><path fill-rule="evenodd" clip-rule="evenodd" d="M61.245 65.585a.5.5 0 0 1 .598-.377c1.563.353 3.22.336 4.904.32.363-.004.726-.008 1.09-.008a.5.5 0 0 1 0 1c-.34 0-.687.004-1.04.008-1.687.018-3.486.037-5.175-.345a.5.5 0 0 1-.377-.598ZM61.574 57.113a.5.5 0 0 1 .62-.34c2.05.6 4.04.477 6.223.2a.5.5 0 0 1 .126.993c-2.21.28-4.371.428-6.63-.233a.5.5 0 0 1-.34-.62Z" fill="#000"/><path fill-rule="evenodd" clip-rule="evenodd" d="M62.383 56.754a.5.5 0 0 1 .492.507 142.644 142.644 0 0 1-.104 3.451 129.793 129.793 0 0 0-.098 3.426c-.01.918.005 1.513.279 2.25a.5.5 0 0 1-.938.347c-.342-.922-.351-1.678-.34-2.608.012-1.155.055-2.307.098-3.453l.004-.103c.042-1.113.084-2.219.1-3.324a.5.5 0 0 1 .507-.493Z" fill="#000"/><path fill-rule="evenodd" clip-rule="evenodd" d="M59.108 54.218a.5.5 0 0 1 .705-.045c1.184 1.041 2.194 2.136 3.235 3.265l.016.018a.5.5 0 1 1-.735.678c-1.052-1.141-2.032-2.203-3.176-3.21a.5.5 0 0 1-.045-.706Z" fill="#000"/><path fill-rule="evenodd" clip-rule="evenodd" d="M65.123 54.19a.5.5 0 0 1-.465.532 45.25 45.25 0 0 0-1.72.16c-.361.037-.725.076-1.1.11-.95.085-1.924.137-2.932.054a.5.5 0 0 1 .083-.996c.923.076 1.83.03 2.759-.054.342-.032.694-.069 1.052-.106.59-.062 1.193-.126 1.79-.166a.5.5 0 0 1 .533.466Z" fill="#000"/><path fill-rule="evenodd" clip-rule="evenodd" d="M67.922 50.143a.5.5 0 0 1-.113.698c-1.383.998-2.111 2.717-2.595 4.488a.5.5 0 0 1-.965-.263c.495-1.811 1.297-3.825 2.975-5.036a.5.5 0 0 1 .698.113Z" fill="#000"/><path fill-rule="evenodd" clip-rule="evenodd" d="M64.354 45.469a.5.5 0 0 1 .69.15 32.354 32.354 0 0 1 2.394 4.507.5.5 0 1 1-.915.402 31.362 31.362 0 0 0-2.32-4.368.5.5 0 0 1 .15-.691Z" fill="#000"/><path fill-rule="evenodd" clip-rule="evenodd" d="M64.057 45.585a.5.5 0 0 1 .657-.263c.943.404 1.81.917 2.645 1.419l.164.098c.785.473 1.542.929 2.346 1.304a.5.5 0 1 1-.422.906c-.854-.398-1.655-.88-2.43-1.347l-.173-.104c-.837-.503-1.651-.983-2.524-1.356a.5.5 0 0 1-.263-.657ZM67.087 50.07a.5.5 0 0 1 .686-.171c.853.511 1.732.925 2.66 1.36l.027.014c.267.125.564.264.839.542a.5.5 0 0 1-.71.704c-.139-.14-.284-.215-.56-.344l-.042-.02c-.913-.43-1.832-.861-2.728-1.4a.5.5 0 0 1-.172-.685ZM64.231 53.921a.5.5 0 0 1 .696.125c.956 1.373 1.905 2.672 3.051 3.83a.5.5 0 0 1-.71.704c-1.211-1.224-2.201-2.584-3.161-3.963a.5.5 0 0 1 .124-.696Z" fill="#000"/><path fill-rule="evenodd" clip-rule="evenodd" d="M73.53 39.491a.5.5 0 0 1-.215.674c-3.468 1.791-6.76 3.932-9.035 7.099a.5.5 0 1 1-.812-.584c2.415-3.36 5.876-5.59 9.388-7.403a.5.5 0 0 1 .674.214Z" fill="#000"/><path fill-rule="evenodd" clip-rule="evenodd" d="M71.147 39.699a.5.5 0 0 1 .678-.2c1.67.907 3.35 1.745 5.093 2.466a.5.5 0 0 1-.382.924c-1.786-.738-3.499-1.593-5.189-2.512a.5.5 0 0 1-.2-.678ZM81.44 44.874c-1.474 0-2.885.049-4.298.316a.5.5 0 0 1-.186-.982c1.508-.286 2.994-.334 4.484-.334a.5.5 0 1 1 0 1Z" fill="#000"/><path fill-rule="evenodd" clip-rule="evenodd" d="M80.892 43.82a.5.5 0 0 1 .672.22c.707 1.39 1.373 2.8 2.036 4.202l.22.464a.5.5 0 0 1-.904.428l-.22-.464c-.663-1.403-1.324-2.8-2.023-4.177a.5.5 0 0 1 .22-.673Z" fill="#000"/><path fill-rule="evenodd" clip-rule="evenodd" d="M84.554 38.407a.5.5 0 0 1 .226.67 65.96 65.96 0 0 1-1.075 2.053c-.705 1.307-1.392 2.581-1.903 3.96a.5.5 0 0 1-.938-.348c.535-1.441 1.28-2.826 2.004-4.171.353-.655.7-1.3 1.016-1.938a.5.5 0 0 1 .67-.226Z" fill="#000"/><path fill-rule="evenodd" clip-rule="evenodd" d="M84.664 38.507a.5.5 0 0 1 .66.253c.614 1.38 1.26 2.735 1.921 4.098a.5.5 0 0 1-.9.436 138.107 138.107 0 0 1-1.934-4.127.5.5 0 0 1 .253-.66Z" fill="#000"/><path fill-rule="evenodd" clip-rule="evenodd" d="M86.36 41.964a.5.5 0 0 1 .681-.19c1.612.911 3.107 2.01 4.574 3.087.385.283.767.564 1.15.84a.5.5 0 0 1-.586.81c-.397-.286-.79-.575-1.181-.862-1.461-1.073-2.894-2.126-4.449-3.004a.5.5 0 0 1-.19-.68ZM84.584 38.651a.5.5 0 0 1 .703-.078c.956.764 1.982 1.385 3.046 1.99l.77.432c.817.457 1.651.923 2.461 1.444a.5.5 0 0 1-.54.841c-.782-.502-1.579-.948-2.39-1.401-.263-.148-.528-.296-.794-.447-1.076-.61-2.158-1.263-3.178-2.078a.5.5 0 0 1-.078-.703Z" fill="#000"/><path fill-rule="evenodd" clip-rule="evenodd" d="M90.812 42.061a.5.5 0 0 1 .634.313c.253.746.576 1.458.917 2.185l.15.316c.292.62.593 1.257.852 1.913a.5.5 0 0 1-.93.368c-.246-.624-.531-1.227-.825-1.849l-.152-.323c-.343-.73-.687-1.486-.959-2.289a.5.5 0 0 1 .313-.634ZM90.935 49.679a.5.5 0 0 1 .684.18c.503.866 1.002 1.733 1.5 2.6a.5.5 0 1 1-.866.498 593.83 593.83 0 0 0-1.499-2.595.5.5 0 0 1 .181-.683Z" fill="#000"/><path fill-rule="evenodd" clip-rule="evenodd" d="M93.043 51.363a.5.5 0 0 1 .337.622c-.357 1.201-.38 2.535-.404 3.881l-.004.206a.5.5 0 1 1-1-.018l.004-.244c.023-1.31.048-2.773.445-4.11a.5.5 0 0 1 .622-.337Z" fill="#000"/><path fill-rule="evenodd" clip-rule="evenodd" d="M92.197 52.172a.5.5 0 0 1 .592-.386c.8.169 1.611.242 2.45.303.129.01.26.018.39.027.708.05 1.437.101 2.163.206a.5.5 0 1 1-.143.99c-.686-.1-1.373-.148-2.081-.197l-.402-.029c-.843-.061-1.712-.138-2.583-.321a.5.5 0 0 1-.386-.593Z" fill="#000"/><path fill-rule="evenodd" clip-rule="evenodd" d="M96.385 51.851a.5.5 0 0 1 .688.16 95.508 95.508 0 0 1 2.046 3.482.5.5 0 1 1-.87.492 94.401 94.401 0 0 0-2.024-3.445.5.5 0 0 1 .16-.689ZM65.238 65.755a.5.5 0 0 1 .617.345c.227.804.455 1.583.737 2.344a.5.5 0 1 1-.937.347c-.297-.8-.534-1.613-.762-2.418a.5.5 0 0 1 .345-.618Z" fill="#000"/><path fill-rule="evenodd" clip-rule="evenodd" d="M64.732 67.6a.5.5 0 0 1 .687-.168c.37.225.746.475 1.119.722l.102.068c.41.272.817.54 1.232.785.832.49 1.651.86 2.485.953a.5.5 0 1 1-.112.994c-1.041-.117-2.005-.57-2.881-1.086-.44-.26-.868-.541-1.277-.813l-.1-.066c-.376-.25-.735-.488-1.086-.702a.5.5 0 0 1-.169-.686Z" fill="#000"/><path fill-rule="evenodd" clip-rule="evenodd" d="M65.978 68.53a.5.5 0 0 1 .13.695c-.383.56-.776 1.091-1.162 1.615-.774 1.05-1.524 2.066-2.13 3.207a.5.5 0 0 1-.883-.468c.64-1.205 1.466-2.327 2.265-3.412.375-.51.744-1.01 1.085-1.507a.5.5 0 0 1 .695-.13Z" fill="#000"/><path fill-rule="evenodd" clip-rule="evenodd" d="M62.86 72.937a.5.5 0 0 1 .707-.037c.364.329.77.693 1.2 1.001.434.31.855.534 1.242.612a.5.5 0 0 1-.198.98c-.59-.119-1.146-.435-1.626-.778-.482-.345-.927-.746-1.284-1.069l-.004-.003a.5.5 0 0 1-.036-.706ZM58.529 62.815a.5.5 0 0 1 .702.08c.156.194.31.4.469.61.3.4.613.816.97 1.211.54.6 1.074 1.023 1.6 1.14a.5.5 0 1 1-.219.977c-.845-.19-1.556-.816-2.124-1.447-.384-.426-.752-.914-1.068-1.333-.15-.198-.287-.381-.41-.535a.5.5 0 0 1 .08-.703Z" fill="#000"/><path fill-rule="evenodd" clip-rule="evenodd" d="M58.837 53.399a.5.5 0 0 1 .503.496c.022 2.802.055 5.584.273 8.358.047.6.112 1.147.248 1.7a.5.5 0 0 1-.97.24c-.156-.63-.226-1.239-.275-1.861-.221-2.814-.254-5.63-.276-8.43a.5.5 0 0 1 .497-.503ZM73.153 56.322a.5.5 0 0 1 .538.46c.182 2.321.223 4.665.263 6.988.017.967.033 1.93.06 2.886a.5.5 0 1 1-1 .027c-.027-.979-.044-1.955-.06-2.93-.04-2.309-.08-4.604-.26-6.893a.5.5 0 0 1 .46-.538Z" fill="#000"/><path fill-rule="evenodd" clip-rule="evenodd" d="M71.938 63.228a.5.5 0 0 1 .7-.095c.889.677 1.751 1.368 2.608 2.054 1.797 1.438 3.57 2.856 5.5 4.092a.5.5 0 1 1-.54.842c-1.974-1.264-3.818-2.739-5.638-4.195a138.825 138.825 0 0 0-2.535-1.998.5.5 0 0 1-.095-.7Z" fill="#000"/><path fill-rule="evenodd" clip-rule="evenodd" d="M87.07 62.992a.5.5 0 0 1-.06.705c-1.23 1.035-2.51 2.012-3.778 2.98l-.668.51c-1.49 1.14-2.954 2.283-4.321 3.532a.5.5 0 1 1-.675-.739c1.403-1.28 2.896-2.446 4.388-3.588l.673-.514c1.27-.968 2.528-1.928 3.737-2.946a.5.5 0 0 1 .705.06Z" fill="#000"/><path fill-rule="evenodd" clip-rule="evenodd" d="M87.044 53.4a.5.5 0 0 1 .464.534 157.027 157.027 0 0 0-.24 4.98l-.037.962c-.078 1.99-.17 3.988-.367 5.977a.5.5 0 1 1-.995-.098c.194-1.957.285-3.93.363-5.918l.036-.956c.063-1.669.126-3.346.243-5.017a.5.5 0 0 1 .533-.464ZM81.325 52.006a.5.5 0 0 1-.151.69c-1.502.962-2.925 2.042-4.345 3.154l-.957.753c-1.1.867-2.21 1.742-3.35 2.57a.5.5 0 1 1-.587-.808c1.122-.816 2.21-1.675 3.308-2.54.322-.254.645-.508.97-.762 1.425-1.116 2.878-2.22 4.422-3.209a.5.5 0 0 1 .69.152Z" fill="#000"/><path fill-rule="evenodd" clip-rule="evenodd" d="M80.272 52.65a.5.5 0 0 1 .693-.143c.476.313.96.621 1.446.93 1.82 1.16 3.671 2.338 5.268 3.892a.5.5 0 0 1-.697.716c-1.516-1.475-3.254-2.582-5.062-3.733-.497-.317-1-.637-1.505-.97a.5.5 0 0 1-.143-.692Z" fill="#000"/><path fill-rule="evenodd" clip-rule="evenodd" d="M82.532 53.291a.5.5 0 0 1 .479.52l-.003.063a580.87 580.87 0 0 0-.318 8.804.5.5 0 0 1-1-.026c.077-2.942.198-5.88.319-8.816l.003-.066a.5.5 0 0 1 .52-.479Z" fill="#000"/><path fill-rule="evenodd" clip-rule="evenodd" d="M82.405 62.084a.5.5 0 0 1-.174.686c-1.089.649-2.1 1.412-3.134 2.193l-.083.063c-1.056.797-2.14 1.61-3.322 2.293a.5.5 0 0 1-.5-.866c1.12-.647 2.158-1.424 3.22-2.225l.099-.075c1.023-.773 2.072-1.565 3.209-2.242a.5.5 0 0 1 .685.173Z" fill="#000"/><path fill-rule="evenodd" clip-rule="evenodd" d="M81.297 61.94a.5.5 0 0 1 .649-.28c.815.324 1.658.595 2.52.873l.357.115c.979.316 1.974.649 2.927 1.076a.5.5 0 1 1-.41.913c-.898-.403-1.847-.722-2.824-1.038l-.355-.114c-.858-.276-1.736-.558-2.585-.896a.5.5 0 0 1-.28-.65ZM58.7 60.471a.5.5 0 0 1 .708 0c.048.05.096.097.144.145.784.786 1.539 1.542 2.38 2.195a.5.5 0 0 1-.614.79c-.892-.694-1.69-1.492-2.463-2.267l-.154-.155a.5.5 0 0 1 0-.708ZM58.402 56.555a.5.5 0 0 1 .706.043c.706.799 1.459 1.53 2.226 2.278.391.38.787.766 1.182 1.165a.5.5 0 1 1-.71.703c-.368-.37-.748-.741-1.133-1.115-.784-.764-1.584-1.543-2.314-2.368a.5.5 0 0 1 .043-.706ZM65.3 52.186a.5.5 0 0 1 .7-.09c.823.635 1.602 1.328 2.363 2.005l.448.397a.5.5 0 0 1-.663.75l-.456-.406c-.762-.677-1.51-1.342-2.303-1.955a.5.5 0 0 1-.09-.701ZM66.324 43.708A.5.5 0 0 1 67 43.5c.463.245.951.454 1.462.673l.232.1c.585.251 1.194.522 1.759.865a.5.5 0 0 1-.519.855c-.5-.303-1.05-.55-1.635-.802l-.227-.097a20.675 20.675 0 0 1-1.54-.71.5.5 0 0 1-.208-.676ZM68.988 41.31a.5.5 0 0 1 .707.01c.4.41.893.9 1.423 1.313.537.42 1.065.724 1.531.819a.5.5 0 1 1-.198.98c-.696-.14-1.372-.56-1.95-1.01-.585-.458-1.117-.988-1.522-1.404a.5.5 0 0 1 .009-.707ZM82.979 40.335a.5.5 0 0 1 .643.294c.198.532.355 1.097.505 1.638l.104.373c.188.664.382 1.284.656 1.838a.5.5 0 0 1-.897.443c-.318-.643-.532-1.34-.721-2.009a84.61 84.61 0 0 1-.11-.395c-.15-.538-.293-1.05-.474-1.54a.5.5 0 0 1 .294-.642ZM94.078 52.004a.5.5 0 0 1 .596.38c.14.64.258 1.29.373 1.931l.165.898a.5.5 0 0 1-.982.186c-.06-.314-.116-.623-.171-.93a50.173 50.173 0 0 0-.362-1.87.5.5 0 0 1 .38-.595ZM77.45 65.487a.5.5 0 0 1 .664-.246c1.032.474 2.038.984 3.031 1.532a.5.5 0 0 1-.482.876 45.328 45.328 0 0 0-2.967-1.5.5.5 0 0 1-.245-.662ZM79.992 63.528a.5.5 0 0 1 .705-.05c.84.732 1.865 1.326 2.916 1.63a.5.5 0 0 1-.277.96c-1.21-.35-2.361-1.021-3.296-1.835a.5.5 0 0 1-.049-.705ZM81.807 59.207a.5.5 0 0 1 .592-.386c.622.13 1.23.312 1.814.487l.048.014c.606.181 1.188.353 1.776.472a.5.5 0 1 1-.198.98c-.64-.129-1.263-.314-1.864-.494l-.032-.01c-.596-.177-1.169-.348-1.75-.47a.5.5 0 0 1-.386-.593ZM82.12 56.235a.5.5 0 0 1 .542-.453c.657.058 1.293.2 1.902.348l.413.103c.467.117.916.229 1.373.313a.5.5 0 0 1-.181.983c-.491-.09-.981-.213-1.453-.33l-.39-.097c-.6-.147-1.175-.273-1.753-.324a.5.5 0 0 1-.453-.543ZM63.972 70.108a.5.5 0 0 1 .68-.197c1.043.577 1.954 1.375 2.809 2.123.164.145.327.287.488.425a.5.5 0 1 1-.653.758c-.174-.15-.346-.3-.516-.449-.855-.748-1.671-1.462-2.612-1.981a.5.5 0 0 1-.196-.68Z" fill="#000"/><defs><linearGradient id="a" x1="14.02" y1="-3.836" x2="102.904" y2="221.968" gradientUnits="userSpaceOnUse"><stop offset=".131" stop-color="#62F91F" stop-opacity="0"/><stop offset=".21" stop-color="#62F91F"/><stop offset=".786" stop-color="#45BD35"/><stop offset="1" stop-color="#45BD35" stop-opacity="0"/></linearGradient></defs></svg>