<svg fill="none" height="130" width="262" xmlns="http://www.w3.org/2000/svg" xmlns:xlink="http://www.w3.org/1999/xlink"><linearGradient id="a"><stop offset="0" stop-color="#6fd43f" stop-opacity=".43"/><stop offset="1" stop-color="#6fd43f" stop-opacity="0"/></linearGradient><radialGradient id="b" cx="0" cy="0" gradientTransform="matrix(5.92310399 19.41844129 -46.84588844 14.2891525 202.345249 67.514667)" gradientUnits="userSpaceOnUse" r="1" xlink:href="#a"/><radialGradient id="c" cx="0" cy="0" gradientTransform="matrix(6.66040777 21.73635612 -52.66227672 16.13666223 132.903174 100.313611)" gradientUnits="userSpaceOnUse" r="1" xlink:href="#a"/><radialGradient id="d" cx="0" cy="0" gradientTransform="matrix(6.66040777 21.73635612 -52.66227672 16.13666223 67.045032 70.258284)" gradientUnits="userSpaceOnUse" r="1" xlink:href="#a"/><linearGradient id="e" gradientUnits="userSpaceOnUse" x1="149.832" x2="109.034" y1="12.229" y2="180.034"><stop offset=".263" stop-color="#b2eec0"/><stop offset=".949" stop-color="#62f91f" stop-opacity=".69"/></linearGradient><path clip-rule="evenodd" d="m77.848 12.232a.25.25 0 0 1 .284.212c1.191 8.195.9 16.416.611 24.617-.055 1.558-.11 3.116-.154 4.673-.069 2.378-.053 4.758-.038 7.142.007 1.028.014 2.057.014 3.088 0 .16.019.366.04.606l.008.084c.025.27.05.571.048.863-.002.29-.03.589-.124.847-.095.264-.264.502-.55.63a.25.25 0 1 1 -.206-.458c.129-.058.221-.168.284-.343.065-.18.092-.412.094-.679a8.518 8.518 0 0 0 -.046-.814l-.007-.086a7.66 7.66 0 0 1 -.043-.65c0-1.023-.007-2.048-.014-3.075-.015-2.388-.031-4.782.038-7.17.045-1.564.1-3.126.155-4.687.29-8.201.577-16.37-.607-24.515a.251.251 0 0 1 .213-.285z" fill="#b0b1c4" fill-rule="evenodd"/><path clip-rule="evenodd" d="m74.5 34.592a.25.25 0 0 1 .352.036 160.6 160.6 0 0 1 1.678 2.104c1.122 1.425 1.862 2.365 3.683 4.282a.252.252 0 0 1 -.363.347c-1.839-1.935-2.595-2.896-3.723-4.328-.46-.585-.982-1.248-1.664-2.087a.252.252 0 0 1 .036-.354zm1.485-1.534a.25.25 0 0 1 .355-.002c.804.799 1.484 1.511 2.142 2.2 1.116 1.17 2.167 2.27 3.653 3.611a.252.252 0 0 1 -.336.374c-1.497-1.35-2.572-2.477-3.699-3.657-.656-.687-1.33-1.392-2.114-2.17a.252.252 0 0 1 -.001-.356zm1.569-27.425a.251.251 0 0 1 .28.22c.044.359.096.718.147 1.079.142.99.285 1.99.285 3.024a.251.251 0 1 1 -.502 0c0-.995-.136-1.942-.276-2.921a57.49 57.49 0 0 1 -.152-1.121.251.251 0 0 1 .218-.28zm-24.29 14.653a.251.251 0 0 1 .271.229c.11 1.306.438 3.116.81 5.178l.01.052c.376 2.077.794 4.398 1.072 6.68s.418 4.537.232 6.483c-.185 1.94-.698 3.617-1.766 4.693a.755.755 0 0 1 -.7.218c.035.606.052 1.263.057 1.951a138.043 138.043 0 0 1 -.073 4.888 163.567 163.567 0 0 0 -.07 4.016v8.104c0 .165-.004.319-.008.463-.015.705-.026 1.197.388 1.758a.25.25 0 1 1 -.404.3c-.524-.71-.506-1.393-.486-2.108.003-.137.007-.274.007-.413v-8.104c0-1.236.035-2.621.072-4.027l.01-.38c.038-1.538.074-3.088.062-4.493a38.705 38.705 0 0 0 -.071-2.183 1.781 1.781 0 0 1 -.036-.025c-.38-.272-.748-.723-1.02-1.193-.269-.465-.469-.992-.473-1.425-.002-.218.047-.444.197-.618.157-.18.385-.26.65-.26.04 0 .079.008.114.026.271.138.459.419.595.747.139.335.242.762.32 1.252.056.36.1.76.134 1.19a.558.558 0 0 0 .154.043.255.255 0 0 0 .225-.081c.945-.953 1.44-2.487 1.622-4.386.181-1.893.046-4.107-.23-6.374-.276-2.266-.692-4.573-1.068-6.653l-.014-.076c-.37-2.042-.7-3.87-.812-5.2a.251.251 0 0 1 .229-.272zm-.646 22.593a12.85 12.85 0 0 0 -.09-.705c-.075-.472-.17-.855-.288-1.138-.103-.248-.21-.39-.31-.461-.118.01-.175.05-.206.085-.04.047-.075.134-.074.284.003.305.154.742.406 1.177.164.284.36.549.562.758z" fill="#b0b1c4" fill-rule="evenodd"/><path clip-rule="evenodd" d="m51.462 62.838c.97-.116 2.06.05 2.787.379 1.913.863 2.387 3.114 1.757 4.82-.259.7-.952 1.117-1.682 1.278-.735.161-1.576.082-2.213-.285a1.704 1.704 0 0 1 -.724-.823 4778.311 4778.311 0 0 1 .001.433.251.251 0 1 1 -.502 0v-.347c-.002-.208-.002-.414 0-.62-1.135-.507-2.084-1.767-1.614-3.371.276-.94 1.233-1.349 2.19-1.464zm.366 1.202c-.215.131-.385.352-.497.655-.306.828-.404 1.623-.434 2.424-.865-.473-1.5-1.462-1.143-2.675.186-.636.864-.998 1.768-1.106.194-.023.393-.034.593-.034-.084.202-.184.453-.287.736zm-.13 3.354c-.042-.387-.009-.828.072-1.286.102-.587.28-1.18.457-1.692.136-.028.305.002.488.1.198.105.39.277.53.482.142.206.22.427.22.625 0 .85-.295 1.333-.672 1.576-.3.194-.687.257-1.096.195zm.112.519c.443.034.883-.052 1.255-.291.557-.359.902-1.027.902-2 0-.325-.126-.644-.308-.909a2.047 2.047 0 0 0 -.709-.642 1.388 1.388 0 0 0 -.535-.164c.087-.226.168-.422.233-.576.526.052 1.022.176 1.395.344 1.602.723 2.06 2.649 1.492 4.188-.176.476-.677.82-1.319.96-.637.14-1.346.064-1.856-.229a1.234 1.234 0 0 1 -.55-.681zm-11.07-15.296c.14.001.25.115.249.254-.025 2.086-.087 4.171-.15 6.255l-.065 2.284a.251.251 0 1 1 -.502-.014c.02-.764.044-1.527.066-2.29.062-2.081.124-4.16.149-6.24a.251.251 0 0 1 .254-.25zm2.607-6.894c.007 1.557-.556 3.404-.89 4.243-.265.661-.978.763-1.557.654a2.492 2.492 0 0 1 -.217-.05 1.103 1.103 0 0 1 -.913-.2c-.248-.184-.438-.464-.582-.785-.287-.64-.423-1.52-.422-2.408 0-.89.137-1.816.419-2.556.275-.724.721-1.348 1.389-1.482 1.008-.202 1.729.008 2.186.542.439.513.583 1.267.587 2.042zm-1.828 4.414c.231-.046.395-.168.47-.358.325-.812.863-2.59.856-4.054-.004-.736-.145-1.342-.466-1.716-.302-.353-.814-.556-1.707-.377-.401.08-.758.484-1.018 1.169-.254.668-.386 1.53-.386 2.376 0 .065 0 .129.002.192.03-.14.065-.28.102-.418.127-.471.288-.937.435-1.36l.002-.007c.148-.426.279-.803.355-1.116a.251.251 0 1 1 .488.12c-.082.335-.22.731-.362 1.143l-.008.024c-.148.426-.303.876-.425 1.327-.247.918-.33 1.76.006 2.367.078.14.23.287.438.413a2.1 2.1 0 0 0 .397.185c.526-.16.825-.627.993-1.242.18-.66.185-1.415.185-1.928 0-.585-.031-.97-.089-1.2a.577.577 0 0 0 -.07-.183.451.451 0 0 0 -.091.047c-.069.046-.154.117-.258.219-.208.204-.46.499-.767.868a.25.25 0 1 1 -.386-.322c.305-.366.573-.681.802-.906.115-.112.227-.21.336-.28a.72.72 0 0 1 .367-.132.467.467 0 0 1 .38.18c.085.103.138.24.174.386.074.296.105.734.105 1.323 0 .506-.004 1.326-.204 2.06-.12.443-.322.882-.656 1.2z" fill="#b0b1c4" fill-rule="evenodd"/><path clip-rule="evenodd" d="m39.45 27.227a.25.25 0 0 1 .328.134c.58 1.37.916 3.494 1.102 5.79.186 2.306.224 4.816.19 6.978-.032 2.16-.136 3.982-.232 4.909-.023.23-.048.414-.072.535a.79.79 0 0 1 -.049.17.32.32 0 0 1 -.035.06.258.258 0 0 1 -.437-.028.38.38 0 0 1 -.04-.106.923.923 0 0 1 -.014-.088 3.2 3.2 0 0 1 -.02-.235c-.01-.19-.015-.46-.015-.818 0-.137.109-.248.245-.252.073-.995.142-2.468.168-4.155.033-2.152-.005-4.645-.19-6.928-.185-2.293-.518-4.346-1.063-5.636a.252.252 0 0 1 .133-.33zm.128-2.523c-.128.022-.34.095-.66.262a.25.25 0 1 1 -.231-.447c.337-.175.602-.276.807-.311.191-.033.424-.02.555.172.117.17.074.374.033.497a1.53 1.53 0 0 1 -.218.403.25.25 0 1 1 -.404-.3 1.032 1.032 0 0 0 .151-.281.541.541 0 0 0 -.033.005zm.098-.005-.005-.002c.004 0 .005.002.005.002zm13.49-7.432-.018-.011a.252.252 0 0 1 .244-.439.25.25 0 0 1 .108-.024h.034a.602.602 0 0 1 .566-.028.56.56 0 0 1 .32.427.367.367 0 0 1 -.12.319.445.445 0 0 1 -.327.097 1.024 1.024 0 0 1 -.296-.07.733.733 0 0 1 -.26.004.37.37 0 0 1 -.078-.027.287.287 0 0 1 -.173-.248zm-13.786-1.883a.251.251 0 0 1 .31.175c.484 1.75.465 3.511.446 5.257-.004.34-.008.679-.008 1.018a.251.251 0 1 1 -.502 0c0-.35.004-.697.007-1.042.019-1.745.037-3.423-.428-5.098a.252.252 0 0 1 .175-.31zm.336-3.882c.136.03.221.164.191.3l-.215.97a.251.251 0 1 1 -.49-.11l.215-.97a.251.251 0 0 1 .3-.19zm14.184-1.69a.251.251 0 0 1 .28.22c.163 1.4.292 2.717-.004 4.154a.251.251 0 1 1 -.492-.102c.278-1.349.16-2.592-.003-3.993a.251.251 0 0 1 .22-.28zm.888-9.312c.139 0 .251.113.251.251 0 1.117-.037 2.216-.218 3.338a.251.251 0 1 1 -.495-.08c.174-1.083.211-2.15.211-3.258 0-.138.112-.251.251-.251zm35.612 5.87a.251.251 0 0 1 .296.196c.734 3.645.622 7.493.512 11.238-.039 1.331-.077 2.65-.077 3.941v25.949c0 .576-.003 1.15-.005 1.724-.015 3.203-.029 6.356.408 9.513.012.086.028.186.045.296v.004c.018.111.037.23.054.35.033.236.062.488.058.686a.905.905 0 0 1 -.047.296c-.036.096-.132.242-.324.243-.145.001-.263-.087-.341-.158a2.385 2.385 0 0 1 -.301-.348.25.25 0 1 1 .403-.3c.04.054.075.1.106.138a5.461 5.461 0 0 0 -.051-.486 21.88 21.88 0 0 0 -.052-.343l-.001-.007a18.405 18.405 0 0 1 -.046-.302c-.443-3.195-.428-6.389-.414-9.592.003-.57.006-1.142.006-1.714v-25.949c0-1.325.039-2.664.078-4.007.109-3.728.219-7.489-.503-11.072a.251.251 0 0 1 .196-.296z" fill="#b0b1c4" fill-rule="evenodd"/><path clip-rule="evenodd" d="m92.025 32.283c.673.389 1.224 1.04 1.255 1.78.002.053.005.119.01.193.023.445.063 1.224-.028 1.93-.053.411-.153.827-.348 1.146-.201.331-.513.57-.96.57-.57 0-.994-.186-1.291-.507a.25.25 0 0 1 -.381.054c-.462-.417-1.22-1.474-1.575-2.553-.177-.541-.264-1.118-.133-1.635.135-.534.494-.974 1.138-1.232.76-.305 1.635-.137 2.313.254zm-1.76 4.407c-.38-.474-.837-1.208-1.08-1.951-.164-.498-.222-.969-.124-1.354.093-.37.334-.688.837-.89.578-.231 1.29-.114 1.877.224.591.342.983.864 1.003 1.364l.01.21c.024.45.06 1.174-.024 1.829-.05.386-.138.718-.278.948-.133.218-.299.329-.532.329-.488 0-.783-.166-.974-.406-.202-.253-.313-.62-.36-1.06-.047-.436-.029-.914.003-1.367l.03-.393c.025-.298.048-.575.048-.79a.251.251 0 1 0 -.502 0c0 .193-.02.437-.043.722l-.034.426c-.032.459-.053.973-.001 1.456.025.24.07.478.144.703zm3.409-23.149c.139 0 .251.113.251.252 0 .265-.11.512-.254.729a3.694 3.694 0 0 1 -.544.615c-.2.188-.416.367-.61.528l-.008.007c-.2.166-.373.309-.497.433-1.541 1.534-3.335 2.96-5.052 4.325l-.438.348a.25.25 0 1 1 -.313-.393l.435-.346c1.722-1.369 3.494-2.777 5.014-4.291.144-.143.335-.301.529-.462l.005-.004c.197-.164.403-.335.592-.512.19-.179.354-.356.47-.528.116-.174.169-.322.169-.45 0-.138.112-.25.25-.25z" fill="#b0b1c4" fill-rule="evenodd"/><path clip-rule="evenodd" d="m87.68 14.209a.25.25 0 0 1 .354-.024l7.523 6.595a.252.252 0 0 1 -.33.379l-7.523-6.595a.252.252 0 0 1 -.024-.355z" fill="#b0b1c4" fill-rule="evenodd"/><path d="m260.866 65.999c.35 13.558-25.566 25.228-57.886 26.066s-58.805-9.474-59.155-23.032 25.567-25.229 57.886-26.066c32.32-.838 58.805 9.474 59.155 23.032z" fill="url(#b)" fill-opacity=".2"/><path d="m171.782 59.379 11.327-9.02h27.412l13.139 9.02v10.27l-13.139 9.078h-25.826l-13.366-9.078z" fill="#fff"/><path clip-rule="evenodd" d="m184.296 49.897a.367.367 0 0 1 -.048.516c-2.131 1.775-5.958 4.543-9.209 6.894a366.082 366.082 0 0 0 -3.945 2.877.365.365 0 1 1 -.437-.588 357.306 357.306 0 0 1 3.991-2.91c3.239-2.343 7.02-5.077 9.133-6.837a.365.365 0 0 1 .515.048z" fill="#000" fill-rule="evenodd"/><path clip-rule="evenodd" d="m169.896 57.864a.366.366 0 0 1 .51-.09 327.074 327.074 0 0 1 4.996 3.583c3.561 2.589 6.793 4.938 10.836 7.294a.366.366 0 0 1 -.368.634c-4.076-2.376-7.353-4.758-10.929-7.357a319.675 319.675 0 0 0 -4.954-3.553.367.367 0 0 1 -.091-.51zm38.733-8.614a.365.365 0 0 1 .506-.107c5.214 3.406 10.886 7.27 15.654 10.909a.366.366 0 1 1 -.444.583c-4.747-3.623-10.402-7.476-15.609-10.878a.367.367 0 0 1 -.107-.507z" fill="#000" fill-rule="evenodd"/><path clip-rule="evenodd" d="m208.429 69.187c.13.155.361.175.515.044 1.451-1.221 4.202-3.018 7.185-4.95l.449-.292c2.837-1.838 5.818-3.77 7.982-5.395a.367.367 0 0 0 -.439-.586c-2.142 1.61-5.104 3.528-7.951 5.372l-.439.285c-2.964 1.92-5.763 3.747-7.257 5.005a.367.367 0 0 0 -.045.517zm-.017 11.342a.365.365 0 0 0 .51.084 312.828 312.828 0 0 0 4.855-3.584c3.459-2.588 6.597-4.937 10.525-7.293a.367.367 0 0 0 -.376-.629c-3.961 2.376-7.144 4.758-10.618 7.358-1.519 1.137-3.093 2.315-4.813 3.552a.367.367 0 0 0 -.083.512zm-38.061-11.773a.365.365 0 0 1 .51-.088 338.487 338.487 0 0 1 5.139 3.732c3.662 2.697 6.987 5.145 11.146 7.6a.366.366 0 1 1 -.371.632c-4.193-2.475-7.562-4.956-11.24-7.664-1.609-1.184-3.276-2.412-5.097-3.701a.366.366 0 0 1 -.087-.51z" fill="#000" fill-rule="evenodd"/><path clip-rule="evenodd" d="m182.065 67.606c0-.203.163-.367.365-.367h31.263a.366.366 0 0 1 0 .733h-31.263a.365.365 0 0 1 -.365-.366zm30.722-16.882c-12.006 0-20.81.047-31.695.68a.366.366 0 0 1 -.042-.732c10.907-.634 19.729-.68 31.737-.68a.366.366 0 0 1 0 .732zm-1.359 28.41h-29.451a.366.366 0 0 1 0-.733h29.451a.366.366 0 0 1 0 .733z" fill="#000" fill-rule="evenodd"/><path clip-rule="evenodd" d="m210.068 51.11h-29.45a.366.366 0 0 1 0-.732h29.45a.366.366 0 1 1 0 .733zm-38.059 5.69c.202 0 .366.164.366.366v13.164a.366.366 0 1 1 -.732 0v-13.164c0-.202.164-.366.366-.366zm51.199.908c.202 0 .365.164.365.366v13.322a.365.365 0 1 1 -.731 0v-13.322c0-.202.163-.366.366-.366zm-39.42 8.397c.202 0 .365.164.365.366v12.056a.365.365 0 1 1 -.731 0v-12.057c0-.202.163-.366.366-.366zm26.733-1.833c.202 0 .365.164.365.367 0 .567.012 1.663.025 3.02.041 4.01.105 10.3-.026 12.003a.365.365 0 1 1 -.729-.056c.128-1.667.065-7.86.024-11.87-.014-1.385-.025-2.509-.025-3.097 0-.203.164-.367.366-.367z" fill="#000" fill-rule="evenodd"/><path clip-rule="evenodd" d="m173.474 59.765a.366.366 0 0 1 .25.443c-.112.436-.403 1.262-.684 2.06l-.006.017-.004.012-.672 2.02a.366.366 0 0 1 -.702-.207c.11-.428.398-1.244.678-2.039l.004-.012.685-2.058a.366.366 0 0 1 .451-.236zm1.351 1.585c.196.051.314.251.263.447l-2.218 8.624a.366.366 0 1 1 -.709-.183l2.219-8.624a.365.365 0 0 1 .445-.263zm1.796.908c.195.051.313.25.263.447l-2.335 9.078a.366.366 0 1 1 -.709-.183l2.335-9.078a.366.366 0 0 1 .446-.264zm1.91 1.59c.196.05.313.25.263.446l-2.277 8.85a.365.365 0 1 1 -.708-.182l2.276-8.851a.366.366 0 0 1 .446-.264zm2.002 1.361c.196.05.314.25.263.446l-2.16 8.397a.365.365 0 1 1 -.708-.183l2.16-8.397a.365.365 0 0 1 .445-.263zm1.763 1.036c.196.05.313.25.263.446l-2.361 9.177a.365.365 0 1 1 -.708-.183l2.36-9.177a.366.366 0 0 1 .446-.263zm2.002 1.233c.195.05.313.25.263.447l-2.394 9.304a.366.366 0 1 1 -.709-.183l2.394-9.304a.366.366 0 0 1 .446-.264zm6.723 0c.195.05.313.25.263.446l-2.755 10.71a.367.367 0 0 1 -.354.275h-2.319a.366.366 0 0 1 -.355-.458l2.755-10.71a.366.366 0 1 1 .709.183l-2.637 10.252h1.563l2.684-10.434a.366.366 0 0 1 .446-.264zm-4.348 0c.196.05.313.25.263.446l-2.755 10.71a.366.366 0 1 1 -.709-.183l2.755-10.71a.366.366 0 0 1 .446-.263zm11.182-.227c.196.05.313.25.263.446-.47 1.826-.966 3.8-1.456 5.75l-.022.086c-.482 1.92-.958 3.813-1.395 5.512a.366.366 0 1 1 -.709-.183c.437-1.697.912-3.588 1.395-5.509l.021-.085c.49-1.95.987-3.926 1.457-5.754a.366.366 0 0 1 .446-.263zm-2.319 0c.196.05.314.25.263.446a493.89 493.89 0 0 0 -1.42 5.715l-.013.05c-.472 1.932-.941 3.85-1.387 5.583a.365.365 0 1 1 -.708-.183c.445-1.73.913-3.643 1.385-5.576l.012-.048c.476-1.949.957-3.915 1.423-5.724a.365.365 0 0 1 .445-.263zm-2.025.001a.366.366 0 0 1 .258.45l-3.056 11.347a.366.366 0 1 1 -.707-.191l3.057-11.348a.365.365 0 0 1 .448-.258zm11.121.226c.196.05.314.25.263.446l-2.744 10.667a.365.365 0 1 1 -.708-.183l2.744-10.666a.365.365 0 0 1 .445-.264zm-2.319 0c.196.05.314.25.263.446l-2.744 10.667a.365.365 0 1 1 -.708-.183l2.744-10.666a.365.365 0 0 1 .445-.264zm-2.029 0c.196.05.314.25.263.446l-2.744 10.667a.365.365 0 1 1 -.708-.183l2.744-10.666a.365.365 0 0 1 .445-.264zm11.447-.908c.196.05.314.25.263.447l-2.977 11.574a.366.366 0 1 1 -.709-.183l2.978-11.575a.365.365 0 0 1 .445-.263zm-2.552.908c.196.05.313.25.263.446l-2.744 10.667a.366.366 0 1 1 -.709-.183l2.744-10.667a.366.366 0 0 1 .446-.263zm-2.029 0c.195.05.313.25.263.446l-2.744 10.667a.366.366 0 1 1 -.709-.183l2.744-10.667a.366.366 0 0 1 .446-.263zm12.752-6.532c.195.05.313.25.263.446l-3.432 13.341a.366.366 0 1 1 -.709-.183l3.432-13.341a.366.366 0 0 1 .446-.263zm-2.891 2.22c.196.05.314.25.263.447l-3.444 13.39a.366.366 0 1 1 -.709-.183l3.445-13.39a.365.365 0 0 1 .445-.264zm-2.437 1.589c.195.05.313.25.263.446l-3.386 13.163a.366.366 0 1 1 -.709-.183l3.386-13.162a.366.366 0 0 1 .446-.264zm7.633-4.993c.196.05.314.25.263.446l-3.211 12.482a.365.365 0 1 1 -.708-.183l3.21-12.482a.366.366 0 0 1 .446-.263zm.92 4.312c.196.05.313.25.263.446l-1.752 6.809a.365.365 0 1 1 -.708-.183l1.751-6.809a.366.366 0 0 1 .446-.263z" fill="#000" fill-rule="evenodd"/><path d="m198.738 98.606c.392 15.177-28.766 28.245-65.126 29.187-36.36.943-66.153-10.596-66.545-25.773s28.766-28.245 65.126-29.188c36.36-.942 66.153 10.597 66.545 25.774z" fill="url(#c)" fill-opacity=".2"/><path d="m98.553 88.717 14.909-11.873h36.081l17.295 11.873v13.518l-17.295 11.949h-33.993l-17.593-11.949z" fill="#fff"/><path clip-rule="evenodd" d="m114.936 76.311a.367.367 0 0 1 -.048.516c-2.802 2.335-7.833 5.973-12.109 9.065-2 1.447-3.835 2.774-5.2 3.793a.366.366 0 1 1 -.438-.588 480.429 480.429 0 0 1 5.246-3.826c4.266-3.085 9.25-6.689 12.034-9.007a.365.365 0 0 1 .515.047z" fill="#000" fill-rule="evenodd"/><path clip-rule="evenodd" d="m96.165 86.79a.366.366 0 0 1 .51-.09 425.661 425.661 0 0 1 6.57 4.711c4.689 3.41 8.95 6.507 14.277 9.611a.366.366 0 1 1 -.368.634c-5.36-3.123-9.666-6.254-14.37-9.674a424.645 424.645 0 0 0 -6.528-4.68.367.367 0 0 1 -.09-.511zm50.985-11.341a.365.365 0 0 1 .506-.107c6.862 4.483 14.325 9.567 20.597 14.354a.366.366 0 0 1 -.443.583c-6.252-4.771-13.698-9.844-20.553-14.323a.367.367 0 0 1 -.107-.507z" fill="#000" fill-rule="evenodd"/><path clip-rule="evenodd" d="m146.877 101.553c.13.155.361.175.516.045 1.916-1.614 5.545-3.983 9.468-6.526l.589-.382c3.736-2.42 7.657-4.96 10.502-7.098a.368.368 0 0 0 .073-.513.365.365 0 0 0 -.512-.073c-2.824 2.121-6.725 4.649-10.47 7.075l-.58.376c-3.904 2.53-7.581 4.93-9.541 6.58a.366.366 0 0 0 -.045.516zm-.017 14.936a.366.366 0 0 0 .511.084c2.291-1.649 4.377-3.211 6.383-4.712 4.555-3.409 8.693-6.506 13.868-9.61a.367.367 0 0 0 -.376-.629c-5.208 3.124-9.391 6.255-13.961 9.675-2 1.497-4.075 3.049-6.341 4.681a.366.366 0 0 0 -.084.511zm-50.097-15.362a.365.365 0 0 1 .51-.087 431.461 431.461 0 0 1 6.757 4.907c4.824 3.551 9.207 6.778 14.687 10.012a.367.367 0 0 1 -.372.632c-5.513-3.254-9.941-6.514-14.779-10.076-2.118-1.559-4.315-3.177-6.716-4.877a.367.367 0 0 1 -.087-.511z" fill="#000" fill-rule="evenodd"/><path clip-rule="evenodd" d="m112.202 99.546c0-.202.164-.366.366-.366h41.15a.366.366 0 0 1 0 .733h-41.15a.366.366 0 0 1 -.366-.367zm40.323-22.336c-15.803 0-27.394.062-41.725.896a.366.366 0 0 1 -.042-.732c14.353-.835 25.963-.896 41.767-.896a.366.366 0 0 1 0 .733zm-1.789 37.394h-38.764a.366.366 0 0 1 0-.733h38.764a.366.366 0 0 1 0 .733z" fill="#000" fill-rule="evenodd"/><path clip-rule="evenodd" d="m148.947 77.719h-38.764a.366.366 0 0 1 0-.733h38.764a.366.366 0 0 1 0 .733zm-50.097 7.721c.203 0 .367.163.367.366v17.326a.366.366 0 0 1 -.732 0v-17.326c0-.203.164-.367.366-.367zm67.392 1.194c.202 0 .366.164.366.367v17.534a.366.366 0 0 1 -.732 0v-17.534c0-.203.164-.367.366-.367zm-51.887 11.052c.202 0 .366.165.366.367v15.868a.366.366 0 1 1 -.732 0v-15.868c0-.202.164-.367.366-.367zm35.188-2.411c.202 0 .366.164.366.366 0 .75.015 2.197.033 3.989.054 5.277.138 13.542-.034 15.777a.366.366 0 0 1 -.73-.056c.169-2.2.086-10.366.033-15.645a517.86 517.86 0 0 1 -.034-4.065c0-.202.164-.366.366-.366z" fill="#000" fill-rule="evenodd"/><path clip-rule="evenodd" d="m100.744 89.337c.19.056.3.252.251.443-.146.568-.528 1.653-.9 2.71l-.005.014-.006.016-.885 2.662a.366.366 0 0 1 -.702-.208c.144-.558.522-1.63.891-2.68l.004-.012.902-2.71a.365.365 0 0 1 .45-.235zm1.783 2.088c.196.05.314.25.263.447l-2.92 11.351a.365.365 0 1 1 -.708-.183l2.92-11.351a.365.365 0 0 1 .445-.264zm2.364 1.195c.195.05.313.25.263.447l-3.074 11.948a.367.367 0 0 1 -.446.264.368.368 0 0 1 -.263-.447l3.074-11.948a.366.366 0 0 1 .446-.264zm2.514 2.091c.196.05.313.25.263.447l-2.997 11.65a.365.365 0 1 1 -.709-.183l2.997-11.65a.366.366 0 0 1 .446-.264zm2.636 1.792c.196.05.313.25.263.447l-2.843 11.052a.367.367 0 0 1 -.446.264.368.368 0 0 1 -.263-.447l2.843-11.052a.366.366 0 0 1 .446-.264zm2.32 1.364c.195.05.313.25.263.446l-3.107 12.079a.366.366 0 1 1 -.709-.183l3.107-12.079a.366.366 0 0 1 .446-.263zm2.634 1.623c.196.05.314.25.263.447l-3.15 12.247a.367.367 0 0 1 -.446.264.368.368 0 0 1 -.263-.447l3.151-12.247a.365.365 0 0 1 .445-.264zm8.85 0c.196.05.314.25.263.447l-3.626 14.096a.365.365 0 0 1 -.354.275h-3.052a.367.367 0 0 1 -.355-.458l3.627-14.096a.365.365 0 1 1 .708.183l-3.508 13.638h2.296l3.556-13.821a.365.365 0 0 1 .445-.264zm-5.723 0c.196.05.314.25.263.447l-3.626 14.096a.365.365 0 1 1 -.708-.183l3.626-14.096a.365.365 0 0 1 .445-.264zm14.719-.298c.195.05.313.25.263.446-.619 2.404-1.272 5.003-1.917 7.569l-.029.113c-.635 2.527-1.261 5.019-1.836 7.254a.367.367 0 0 1 -.446.264.368.368 0 0 1 -.263-.447c.575-2.233 1.2-4.723 1.836-7.251l.028-.112c.645-2.566 1.299-5.167 1.918-7.573a.366.366 0 0 1 .446-.263zm-3.053 0c.196.05.314.25.263.446-.611 2.375-1.242 4.958-1.87 7.523l-.016.067a637.637 637.637 0 0 1 -1.825 7.346.367.367 0 0 1 -.446.264.368.368 0 0 1 -.263-.447 646.914 646.914 0 0 0 1.824-7.34l.016-.064c.627-2.565 1.259-5.151 1.872-7.532a.365.365 0 0 1 .445-.263zm-2.666 0c.195.054.31.255.258.45l-4.023 14.936a.367.367 0 1 1 -.707-.191l4.023-14.936a.366.366 0 0 1 .449-.258zm14.638.298c.196.05.314.25.263.447l-3.611 14.04a.366.366 0 1 1 -.709-.183l3.612-14.04a.365.365 0 0 1 .445-.264zm-3.052 0c.196.05.314.25.263.447l-3.611 14.04a.366.366 0 1 1 -.709-.183l3.612-14.04a.365.365 0 0 1 .445-.264zm-2.671 0c.196.05.314.25.263.447l-3.611 14.04a.366.366 0 1 1 -.709-.183l3.612-14.04a.365.365 0 0 1 .445-.264zm15.068-1.195c.196.05.314.25.263.447l-3.919 15.234a.365.365 0 1 1 -.708-.182l3.919-15.235a.365.365 0 0 1 .445-.264zm-3.359 1.195c.195.05.313.25.263.447l-3.612 14.039a.366.366 0 1 1 -.709-.182l3.612-14.04a.366.366 0 0 1 .446-.264zm-2.671 0c.195.05.313.25.263.447l-3.612 14.039a.365.365 0 1 1 -.708-.182l3.611-14.04a.366.366 0 0 1 .446-.264zm16.785-8.598c.195.05.313.25.263.446l-4.518 17.561a.365.365 0 1 1 -.708-.183l4.517-17.56a.366.366 0 0 1 .446-.264zm-3.805 2.923c.196.05.314.25.263.446l-4.533 17.625a.366.366 0 1 1 -.709-.183l4.534-17.625a.365.365 0 0 1 .445-.263zm-3.208 2.09c.195.051.313.251.263.447l-4.457 17.326a.367.367 0 0 1 -.446.264.368.368 0 0 1 -.263-.447l4.457-17.326a.366.366 0 0 1 .446-.263zm10.047-6.571c.195.05.313.25.263.446l-4.227 16.43a.365.365 0 1 1 -.708-.183l4.226-16.43a.366.366 0 0 1 .446-.263zm1.21 5.675c.196.05.314.25.263.447l-2.305 8.961a.367.367 0 1 1 -.709-.183l2.306-8.961a.365.365 0 0 1 .445-.264z" fill="#000" fill-rule="evenodd"/><path d="m132.881 68.551c.392 15.177-28.766 28.245-65.126 29.187-36.36.943-66.153-10.597-66.545-25.774-.392-15.177 28.765-28.244 65.125-29.187 36.36-.942 66.154 10.597 66.546 25.774z" fill="url(#d)" fill-opacity=".2"/><path d="m39.952 59.378 11.327-9.02h27.411l13.139 9.02v10.27l-13.14 9.078h-25.823l-13.366-9.078.453-10.27z" fill="#fff"/><g clip-rule="evenodd" fill-rule="evenodd"><path d="m52.465 49.896a.367.367 0 0 1 -.047.517c-2.132 1.775-5.96 4.543-9.21 6.893-1.518 1.098-2.91 2.105-3.945 2.877a.367.367 0 0 1 -.437-.588 365.81 365.81 0 0 1 3.991-2.91c3.24-2.342 7.02-5.076 9.133-6.836a.365.365 0 0 1 .515.047z" fill="#000"/><path d="m38.066 57.864a.365.365 0 0 1 .509-.09c1.795 1.254 3.428 2.442 4.997 3.582 3.56 2.59 6.792 4.939 10.835 7.295a.367.367 0 0 1 -.367.633c-4.077-2.375-7.354-4.757-10.93-7.357a322.923 322.923 0 0 0 -4.954-3.552.367.367 0 0 1 -.09-.51zm38.732-8.614a.366.366 0 0 1 .507-.107c5.213 3.406 10.885 7.27 15.653 10.909a.367.367 0 0 1 -.444.583c-4.747-3.623-10.402-7.476-15.61-10.878a.367.367 0 0 1 -.106-.507z" fill="#000"/><path d="m76.598 69.186c.13.155.361.175.516.045 1.45-1.221 4.201-3.018 7.184-4.951.15-.097.299-.194.45-.29 2.836-1.84 5.818-3.77 7.981-5.396a.367.367 0 0 0 -.439-.587c-2.142 1.61-5.104 3.529-7.95 5.373l-.44.284c-2.963 1.921-5.763 3.748-7.257 5.006a.367.367 0 0 0 -.045.516zm-.017 11.343a.365.365 0 0 0 .51.084 315.16 315.16 0 0 0 4.856-3.584c3.458-2.588 6.597-4.937 10.524-7.293a.367.367 0 0 0 -.376-.63c-3.96 2.377-7.144 4.76-10.618 7.359-1.519 1.136-3.093 2.315-4.812 3.552a.367.367 0 0 0 -.084.512zm-38.061-11.773a.365.365 0 0 1 .51-.088 334.34 334.34 0 0 1 5.139 3.732c3.663 2.697 6.987 5.144 11.147 7.599a.367.367 0 0 1 -.372.632c-4.193-2.474-7.562-4.955-11.24-7.663-1.608-1.184-3.275-2.412-5.096-3.701a.367.367 0 0 1 -.088-.511z" fill="#000"/><path d="m50.234 67.606c0-.203.164-.367.366-.367h31.263a.366.366 0 0 1 0 .733h-31.263a.366.366 0 0 1 -.366-.366zm30.722-16.882c-12.006 0-20.81.047-31.695.68a.366.366 0 0 1 -.042-.732c10.907-.635 19.73-.681 31.737-.681a.366.366 0 0 1 0 .733zm-1.359 28.409h-29.45a.366.366 0 0 1 0-.733h29.45a.366.366 0 0 1 0 .733z" fill="#000"/><path d="m78.237 51.11h-29.45a.366.366 0 0 1 0-.733h29.45a.366.366 0 0 1 0 .733zm-38.059 5.69c.202 0 .366.164.366.366v13.164a.366.366 0 1 1 -.732 0v-13.164c0-.202.164-.366.366-.366zm51.199.908c.202 0 .366.164.366.366v13.321a.366.366 0 1 1 -.732 0v-13.321c0-.202.164-.366.366-.366zm-39.42 8.397c.202 0 .366.164.366.366v12.055a.366.366 0 1 1 -.732 0v-12.055c0-.202.164-.367.366-.367zm26.733-1.833c.202 0 .366.164.366.366 0 .567.011 1.663.025 3.021.04 4.01.105 10.3-.026 12.003a.366.366 0 1 1 -.73-.056c.128-1.667.065-7.86.025-11.87-.014-1.385-.026-2.51-.026-3.098 0-.202.164-.366.366-.366z" fill="#000"/><path d="m41.642 59.765c.19.056.3.252.251.443-.112.435-.403 1.261-.684 2.06l-.006.017-.004.011-.672 2.021a.366.366 0 0 1 -.702-.207c.11-.428.398-1.245.677-2.04l.005-.012.685-2.058a.366.366 0 0 1 .45-.235zm1.352 1.585c.196.05.314.25.263.447l-2.217 8.623a.366.366 0 1 1 -.709-.183l2.218-8.624a.366.366 0 0 1 .446-.264zm1.796.908c.195.05.313.25.263.446l-2.336 9.078a.366.366 0 1 1 -.708-.183l2.335-9.078a.366.366 0 0 1 .446-.263zm1.91 1.589c.195.05.313.25.263.446l-2.277 8.851a.366.366 0 1 1 -.709-.183l2.277-8.85a.366.366 0 0 1 .446-.264zm2.003 1.361c.195.05.313.25.263.447l-2.16 8.397a.366.366 0 1 1 -.709-.183l2.16-8.397a.366.366 0 0 1 .446-.264zm1.762 1.036c.196.05.314.25.263.447l-2.36 9.176a.366.366 0 1 1 -.709-.183l2.36-9.176a.366.366 0 0 1 .446-.264zm2.002 1.234c.196.05.313.25.263.446l-2.394 9.305a.366.366 0 1 1 -.708-.183l2.393-9.305a.366.366 0 0 1 .446-.263zm6.723 0c.196.05.314.25.263.446l-2.755 10.71a.366.366 0 0 1 -.354.274h-2.319a.366.366 0 0 1 -.354-.458l2.755-10.709a.366.366 0 1 1 .709.183l-2.638 10.251h1.564l2.684-10.434a.366.366 0 0 1 .445-.263zm-4.348 0c.196.05.314.25.263.446l-2.754 10.71a.366.366 0 1 1 -.709-.184l2.755-10.709a.366.366 0 0 1 .445-.263zm11.182-.228c.196.051.314.251.263.447-.47 1.826-.966 3.8-1.456 5.75l-.022.086c-.482 1.92-.958 3.813-1.395 5.512a.366.366 0 1 1 -.709-.183c.437-1.697.912-3.589 1.395-5.51l.022-.084c.49-1.95.987-3.926 1.457-5.754a.366.366 0 0 1 .445-.263zm-2.319 0c.196.051.314.251.263.447a506.81 506.81 0 0 0 -1.42 5.715l-.012.05a497.07 497.07 0 0 1 -1.387 5.583.366.366 0 1 1 -.709-.183c.445-1.73.913-3.644 1.386-5.576l.011-.049c.477-1.948.957-3.914 1.423-5.723a.366.366 0 0 1 .445-.263zm-2.025.002c.196.053.311.254.258.45l-3.056 11.347a.366.366 0 1 1 -.706-.191l3.056-11.348a.366.366 0 0 1 .448-.258zm11.121.226c.196.05.314.25.263.446l-2.743 10.667a.366.366 0 1 1 -.709-.183l2.744-10.667a.366.366 0 0 1 .445-.263zm-2.318 0c.195.05.313.25.263.446l-2.744 10.667a.366.366 0 1 1 -.709-.183l2.744-10.667a.366.366 0 0 1 .446-.263zm-2.03 0c.196.05.314.25.263.446l-2.743 10.667a.366.366 0 1 1 -.709-.183l2.744-10.667a.366.366 0 0 1 .446-.263zm11.447-.908c.196.05.314.25.263.446l-2.977 11.575a.366.366 0 1 1 -.709-.183l2.978-11.575a.366.366 0 0 1 .445-.263zm-2.552.908c.196.05.314.25.263.446l-2.744 10.667a.366.366 0 1 1 -.708-.183l2.743-10.667a.366.366 0 0 1 .446-.263zm-2.029 0c.196.05.313.25.263.446l-2.744 10.667a.366.366 0 1 1 -.708-.183l2.744-10.667a.366.366 0 0 1 .445-.263zm12.751-6.533c.196.05.314.25.264.447l-3.432 13.34a.366.366 0 1 1 -.709-.182l3.432-13.341a.366.366 0 0 1 .445-.264zm-2.89 2.22c.196.051.314.251.263.447l-3.443 13.39a.366.366 0 1 1 -.709-.183l3.445-13.39a.366.366 0 0 1 .445-.263zm-2.437 1.59c.195.05.313.25.263.446l-3.386 13.163a.366.366 0 1 1 -.709-.183l3.386-13.163a.366.366 0 0 1 .446-.264zm7.633-4.994c.196.05.314.25.263.447l-3.209 12.482a.366.366 0 1 1 -.71-.183l3.212-12.482a.366.366 0 0 1 .445-.264zm.92 4.312c.196.05.313.25.263.447l-1.751 6.808a.366.366 0 1 1 -.709-.183l1.751-6.808a.366.366 0 0 1 .446-.264z" fill="#000"/><path d="m62.835 57.616c-3.93.036-7.818.072-11.212.072-4.59 0-7.31.453-8.977 1.17-.827.356-1.388.774-1.791 1.23-.404.456-.665.966-.868 1.529-.153.42-.268.854-.391 1.316l-.138.51c-.18.647-.396 1.329-.749 2.011-.714 1.382-1.964 2.712-4.497 3.84-.35.156-.863.27-1.513.36-.658.09-1.486.158-2.484.209-1.997.102-4.699.137-8.128.139a.366.366 0 0 1 0-.733c3.428-.002 6.113-.037 8.09-.138.989-.05 1.794-.118 2.423-.204.636-.087 1.064-.191 1.315-.303 2.405-1.07 3.517-2.294 4.145-3.507.318-.615.517-1.24.693-1.87l.129-.478c.125-.47.253-.95.417-1.402.224-.618.524-1.219 1.008-1.766.485-.547 1.14-1.024 2.05-1.416 1.809-.778 4.652-1.23 9.266-1.23 3.372 0 7.247-.036 11.168-.072 7.996-.074 16.189-.15 20.727.073 1.878.091 3.086 1.318 3.893 3.03.802 1.701 1.246 3.955 1.584 6.27.135.923.252 1.853.368 2.767.178 1.407.351 2.778.576 4.036.184 1.032.4 1.965.673 2.752.275.79.6 1.408.99 1.83 1.487 1.602 3.485 3.338 5.675 4.671 2.194 1.336 4.548 2.247 6.754 2.247 9.723 0 21.673-.135 32.036-.44 10.379-.304 19.123-.778 22.462-1.447a.366.366 0 0 1 .072-.007c3.109 0 6.735-1.876 9.597-4.835 2.857-2.953 4.895-6.926 4.895-11.036 0-1.366.003-2.606.128-3.7.126-1.099.377-2.08.891-2.925 1.042-1.711 3.08-2.73 6.865-3.21a.362.362 0 0 1 .046-.004c3.906 0 8.066.022 12.096.042 7.687.04 14.899.076 18.96-.042 2.957-.085 4.987 1.083 6.758 2.811.879.858 1.698 1.857 2.534 2.905l.383.482c.719.905 1.461 1.84 2.285 2.766 1.937 2.177 4.311 4.29 7.791 5.746 3.48 1.457 8.094 2.269 14.526 1.8l-8.155-1.166a.366.366 0 0 1 .104-.726l13.237 1.894a.366.366 0 0 1 .062.711l-13.238 4.33a.366.366 0 0 1 -.227-.697l11.052-3.614h-2.78c-6.52.474-11.254-.345-14.863-1.855-3.614-1.513-6.072-3.707-8.055-5.935-.839-.943-1.596-1.896-2.315-2.8-.127-.162-.254-.32-.379-.478-.836-1.048-1.63-2.015-2.472-2.838-1.672-1.631-3.52-2.681-6.227-2.603-4.073.118-11.309.081-19.007.042-4.018-.02-8.161-.042-12.047-.042-3.709.475-5.448 1.45-6.309 2.863-.438.718-.67 1.583-.789 2.626-.12 1.045-.123 2.241-.123 3.617 0 4.349-2.15 8.495-5.101 11.546-2.935 3.034-6.722 5.043-10.087 5.058-3.439.68-12.23 1.151-22.549 1.455-10.371.304-22.329.44-32.057.44-2.394 0-4.883-.984-7.134-2.354-2.256-1.374-4.306-3.156-5.83-4.8-.488-.526-.855-1.251-1.146-2.087-.292-.839-.515-1.815-.703-2.864-.226-1.27-.405-2.68-.585-4.106-.116-.912-.232-1.83-.362-2.72-.337-2.313-.77-4.47-1.522-6.064-.746-1.583-1.767-2.537-3.266-2.61-4.518-.22-12.668-.146-20.648-.072z" fill="#000"/><path d="m121.652 62.81 5.854-4.765 3.658 1.466 1.464 1.833h2.927l2.561-4.765 5.854 3.665 1.829 3.299-1.829 2.566 1.829 2.199h3.293l1.098 2.199-1.098 7.697h-4.024l-2.927 4.399 1.463 3.298-6.22 4.032-1.829-3.299h-4.391l-2.927 4.032-5.854-3.299-2.561-1.466 2.561-4.398v-1.466h-2.561l-2.927-2.566v-7.33l4.025-.367 2.561-3.665-1.829-3.3zm7.317 10.263 5.854-4.765 1.829 1.832-.365 5.865-5.123 4.032-2.195-1.833z" fill="#fff"/><path d="m121.652 62.81 5.854-4.765 3.658 1.466 1.464 1.833h2.927l2.561-4.765 5.854 3.665 1.829 3.299-1.829 2.566 1.829 2.199h3.293l1.098 2.199-1.098 7.697h-4.024l-2.927 4.399 1.463 3.298-6.22 4.032-1.829-3.299h-4.391l-2.927 4.032-5.854-3.299-2.561-1.466 2.561-4.398v-1.466h-2.561l-2.927-2.566v-7.33l4.025-.367 2.561-3.665-1.829-3.3zm7.317 10.263 5.854-4.765 1.829 1.832-.365 5.865-5.123 4.032-2.195-1.833z" fill="url(#e)"/><path d="m127.046 66.431c.176.1.237.324.138.5l-3.476 6.14a.366.366 0 1 1 -.637-.362l3.476-6.14a.366.366 0 0 1 .499-.138z" fill="#000"/><path d="m124.325 63.856a.365.365 0 0 1 .49.166l.26.531c.558 1.144 1.098 2.251 1.815 3.269a.366.366 0 1 1 -.598.423c-.753-1.07-1.321-2.235-1.877-3.375l-.256-.523a.367.367 0 0 1 .166-.491zm7.266-4.324a.366.366 0 0 1 .467.223c.369 1.041.673 2.099.975 3.147l.17.59c.14.484.231.785.461 1.13a.367.367 0 0 1 -.609.407c-.298-.449-.415-.85-.553-1.326l-.002-.007-.172-.596c-.301-1.049-.599-2.081-.96-3.1a.367.367 0 0 1 .223-.468z" fill="#000"/><path d="m132.12 58.683a.368.368 0 0 1 -.129.502c-2.727 1.614-5.414 3.447-7.505 5.793a.366.366 0 1 1 -.546-.488c2.168-2.432 4.932-4.31 7.679-5.936a.365.365 0 0 1 .501.13zm2.683 5.537c-.71-.04-1.441.009-2.056.055a.365.365 0 0 1 -.392-.338.365.365 0 0 1 .337-.393c.614-.046 1.389-.1 2.154-.055.758.044 1.55.187 2.178.564a.367.367 0 0 1 -.377.629c-.476-.287-1.128-.42-1.844-.461z" fill="#000"/><path d="m140.637 58.863c.155.13.176.36.047.516-1.157 1.39-2.015 3.125-2.849 4.81l-.306.618a.366.366 0 1 1 -.655-.328l.306-.616c.828-1.675 1.726-3.491 2.942-4.953a.365.365 0 0 1 .515-.047zm5.421 4.329a.367.367 0 0 1 0 .518c-1.006 1.008-1.768 2.329-2.519 3.629l-.351.604a.366.366 0 1 1 -.631-.37l.342-.59c.746-1.294 1.562-2.71 2.642-3.79a.365.365 0 0 1 .517 0z" fill="#000"/><path d="m143.047 66.255a.365.365 0 0 1 .503.12c.774 1.26 1.326 2.534 1.774 3.928a.367.367 0 1 1 -.696.225c-.434-1.348-.963-2.568-1.701-3.77a.366.366 0 0 1 .12-.503z" fill="#000"/><path d="m150.007 70.588a.367.367 0 0 1 -.355.377c-.361.011-.725.025-1.09.038-1.159.043-2.334.086-3.504.054a.366.366 0 0 1 .02-.733c1.144.032 2.287-.01 3.44-.053.369-.014.74-.027 1.112-.039a.366.366 0 0 1 .377.356z" fill="#000"/><path d="m150.316 70.325a.367.367 0 0 1 .33.4c-.082.875-.187 1.746-.291 2.614-.22 1.846-.44 3.676-.44 5.507a.365.365 0 1 1 -.731 0c0-1.875.227-3.78.451-5.65.102-.856.204-1.705.282-2.54a.366.366 0 0 1 .399-.33z" fill="#000"/><path d="m150.647 78.183a.367.367 0 0 1 -.344.387c-1.83.108-3.662.205-5.496.275a.365.365 0 0 1 -.379-.352.366.366 0 0 1 .351-.38c1.827-.07 3.654-.167 5.481-.275a.366.366 0 0 1 .387.345z" fill="#000"/><path d="m145.769 76.313a.367.367 0 0 1 .18.486c-.851 1.866-1.94 3.58-3.021 5.282-.19.3-.381.6-.569.9a.366.366 0 1 1 -.619-.39c.192-.306.384-.61.576-.911 1.081-1.703 2.139-3.37 2.968-5.186a.366.366 0 0 1 .485-.18z" fill="#000"/><path d="m141.67 81.927a.366.366 0 0 1 .505.112c.414.652.79 1.324 1.158 1.987l.041.072c.356.64.707 1.272 1.089 1.884a.365.365 0 1 1 -.62.389c-.392-.629-.751-1.274-1.105-1.91l-.044-.078a38.491 38.491 0 0 0 -1.136-1.95.366.366 0 0 1 .112-.506zm-5.209 4.263a.366.366 0 0 1 -.281.436c-1.97.423-3.721.533-5.734.091a.366.366 0 0 1 .156-.716c1.885.413 3.527.316 5.425-.092a.365.365 0 0 1 .434.282z" fill="#000"/><path d="m135.587 86.025a.365.365 0 0 1 .484.184c.56 1.243 1.18 2.429 1.82 3.645a.365.365 0 1 1 -.647.342c-.64-1.215-1.269-2.42-1.84-3.686a.367.367 0 0 1 .183-.485z" fill="#000"/><path d="m144.091 86.156a.366.366 0 0 1 -.101.508l-.208.14c-1.993 1.33-4.04 2.699-6.242 3.736a.366.366 0 1 1 -.311-.664c2.151-1.013 4.158-2.354 6.164-3.694l.191-.127a.365.365 0 0 1 .507.101zm-12.811-.877a.367.367 0 0 1 .232.463c-.321.963-.758 1.879-1.204 2.77l-.239.478c-.368.731-.729 1.448-1.037 2.184a.367.367 0 0 1 -.675-.283c.319-.762.694-1.507 1.062-2.239l.235-.467c.444-.889.861-1.765 1.163-2.675a.366.366 0 0 1 .463-.231zm-4.801-2.757c.145.14.15.372.01.518-.971 1.011-1.834 2.089-2.711 3.185-.365.457-.733.916-1.113 1.376a.365.365 0 0 1 -.515.049.368.368 0 0 1 -.049-.516c.364-.44.723-.89 1.084-1.34.886-1.107 1.782-2.226 2.776-3.262a.366.366 0 0 1 .518-.01z" fill="#000"/><path d="m121.795 86.996a.366.366 0 0 1 .502-.126c1.665 1 3.237 2.129 4.798 3.249l.603.432.083.064.051.04.033.025a.365.365 0 0 1 .445.237c.017.049.05.16.02.282a.393.393 0 0 1 -.37.306.515.515 0 0 1 -.229-.047 1.063 1.063 0 0 1 -.131-.07 4.354 4.354 0 0 1 -.327-.24l-.604-.433c-1.564-1.123-3.111-2.233-4.748-3.216a.367.367 0 0 1 -.126-.503zm5.821 4.153c.003.009.002.007 0-.002zm.407-.363c.005.002.006.003.002 0zm-4.143-11.478a.367.367 0 0 1 .42.304c.204 1.264.832 2.66 1.727 3.556a.366.366 0 1 1 -.518.518c-1.022-1.024-1.707-2.571-1.932-3.957a.367.367 0 0 1 .303-.42z" fill="#000"/><path d="m118.551 79.315a.365.365 0 0 1 .436-.277c1.344.3 2.768.287 4.206.272.309-.003.619-.006.928-.006a.366.366 0 0 1 0 .733c-.292 0-.59.003-.891.006-1.441.015-2.968.031-4.402-.29a.366.366 0 0 1 -.277-.438zm.28-7.169a.366.366 0 0 1 .453-.25c1.764.511 3.475.405 5.341.171a.366.366 0 0 1 .091.728c-1.885.236-3.72.36-5.636-.195a.366.366 0 0 1 -.249-.454z" fill="#000"/><path d="m119.462 71.882c.202.003.364.169.361.371-.014.946-.05 1.89-.086 2.83l-.003.091a108.8 108.8 0 0 0 -.084 2.902c-.009.778.004 1.29.241 1.924a.367.367 0 0 1 -.685.257c-.289-.77-.297-1.403-.288-2.19.011-.976.048-1.951.085-2.92l.003-.09c.036-.94.071-1.877.085-2.814a.366.366 0 0 1 .371-.361z" fill="#000"/><path d="m116.711 69.717a.365.365 0 0 1 .516-.036c1.008.88 1.869 1.805 2.759 2.762l.013.014a.368.368 0 0 1 -.019.518.365.365 0 0 1 -.517-.019h-.001c-.897-.966-1.736-1.867-2.716-2.722a.367.367 0 0 1 -.035-.517z" fill="#000"/><path d="m121.742 69.658a.366.366 0 0 1 -.34.39c-.5.034-.984.084-1.474.135-.308.032-.618.065-.936.093-.81.073-1.638.117-2.492.047a.366.366 0 1 1 .059-.731c.794.065 1.574.026 2.368-.046.294-.026.596-.058.901-.09.503-.052 1.016-.105 1.525-.14a.365.365 0 0 1 .389.342z" fill="#000"/><path d="m124.145 66.262a.368.368 0 0 1 -.085.511c-1.199.858-1.825 2.33-2.239 3.832a.365.365 0 1 1 -.705-.196c.422-1.531 1.103-3.22 2.518-4.232a.366.366 0 0 1 .511.085z" fill="#000"/><path d="m121.178 62.32a.365.365 0 0 1 .506.107 27.215 27.215 0 0 1 2.04 3.808.367.367 0 0 1 -.669.297 26.426 26.426 0 0 0 -1.985-3.706.367.367 0 0 1 .108-.507z" fill="#000"/><path d="m120.949 62.392a.366.366 0 0 1 .48-.194c.8.34 1.538.772 2.251 1.197l.141.084c.669.4 1.319.787 2.009 1.106a.367.367 0 0 1 -.307.665c-.726-.335-1.407-.742-2.07-1.137l-.147-.088c-.715-.426-1.413-.834-2.163-1.152a.367.367 0 0 1 -.194-.481zm2.583 3.804a.366.366 0 0 1 .502-.127c.73.434 1.484.786 2.275 1.154l.023.01c.229.107.473.221.701.45a.367.367 0 0 1 -.518.518c-.126-.127-.259-.194-.495-.304l-.035-.016c-.78-.364-1.563-.728-2.325-1.182a.367.367 0 0 1 -.128-.503zm-2.457 3.278a.366.366 0 0 1 .51.09c.817 1.162 1.63 2.265 2.612 3.25a.367.367 0 0 1 -.517.518c-1.031-1.032-1.874-2.18-2.693-3.347a.366.366 0 0 1 .088-.51z" fill="#000"/><path d="m128.929 57.237a.367.367 0 0 1 -.159.493c-2.965 1.518-5.785 3.336-7.737 6.029a.365.365 0 1 1 -.592-.431c2.054-2.834 4.999-4.716 7.996-6.25.18-.093.4-.021.492.159z" fill="#000"/><path d="m127.001 57.413a.365.365 0 0 1 .495-.149c1.428.77 2.864 1.48 4.356 2.091a.367.367 0 0 1 -.277.679c-1.523-.624-2.984-1.347-4.426-2.124a.366.366 0 0 1 -.148-.497zm8.737 4.297c-1.26 0-2.469.041-3.683.269a.366.366 0 1 1 -.135-.72c1.282-.241 2.546-.282 3.818-.282a.366.366 0 0 1 0 .733z" fill="#000"/><path d="m135.296 60.926a.366.366 0 0 1 .493.159c.603 1.176 1.172 2.37 1.738 3.556l.187.393a.366.366 0 1 1 -.66.316l-.187-.392c-.567-1.188-1.131-2.372-1.729-3.538a.368.368 0 0 1 .158-.494z" fill="#000"/><path d="m138.371 56.343c.181.09.254.31.164.491-.287.574-.597 1.145-.903 1.709-.152.28-.303.558-.45.834-.448.842-.867 1.681-1.193 2.554a.366.366 0 1 1 -.685-.258c.343-.917.78-1.79 1.232-2.64.154-.29.308-.573.462-.856.302-.557.601-1.108.882-1.67a.366.366 0 0 1 .491-.164z" fill="#000"/><path d="m138.515 56.428a.366.366 0 0 1 .484.184 113.58 113.58 0 0 0 1.641 3.47.366.366 0 0 1 -.657.323 114.092 114.092 0 0 1 -1.652-3.493.367.367 0 0 1 .184-.484z" fill="#000"/><path d="m139.992 59.332a.366.366 0 0 1 .498-.14c1.373.768 2.646 1.695 3.898 2.608.329.239.656.477.984.712a.366.366 0 1 1 -.426.597c-.338-.243-.673-.487-1.006-.73-1.249-.909-2.476-1.802-3.807-2.548a.366.366 0 0 1 -.141-.499zm-1.523-2.797a.366.366 0 0 1 .514-.06c.821.65 1.701 1.178 2.61 1.69l.66.367c.697.386 1.407.78 2.096 1.22a.366.366 0 1 1 -.392.618 38.863 38.863 0 0 0 -2.044-1.189l-.678-.377c-.918-.517-1.839-1.067-2.706-1.754a.368.368 0 0 1 -.06-.515z" fill="#000"/><path d="m143.76 59.44a.366.366 0 0 1 .465.227c.216.634.493 1.24.785 1.856l.128.268c.25.525.506 1.062.727 1.616a.366.366 0 1 1 -.68.272c-.211-.53-.456-1.043-.706-1.569l-.13-.273c-.293-.618-.585-1.256-.817-1.932a.367.367 0 0 1 .228-.466zm.116 6.444a.366.366 0 0 1 .501.13c.43.733.856 1.467 1.282 2.202a.365.365 0 1 1 -.633.368c-.426-.734-.851-1.467-1.28-2.198a.367.367 0 0 1 .13-.502z" fill="#000"/><path d="m145.63 67.315a.366.366 0 0 1 .245.457c-.306 1.024-.327 2.16-.347 3.298l-.003.177a.367.367 0 0 1 -.732-.014l.004-.205c.019-1.111.041-2.342.378-3.467a.365.365 0 0 1 .455-.246z" fill="#000"/><path d="m144.984 67.958a.366.366 0 0 1 .433-.284c.688.144 1.384.206 2.1.257l.335.024c.604.042 1.224.085 1.841.173a.366.366 0 0 1 -.104.726 24.553 24.553 0 0 0 -1.782-.167l-.343-.025c-.719-.051-1.457-.116-2.197-.27a.367.367 0 0 1 -.283-.434z" fill="#000"/><path d="m148.532 67.723a.365.365 0 0 1 .504.115 80.266 80.266 0 0 1 1.746 2.946.365.365 0 1 1 -.635.364 80.76 80.76 0 0 0 -1.73-2.92.367.367 0 0 1 .115-.505zm-26.615 11.778a.365.365 0 0 1 .452.252c.195.68.39 1.342.631 1.988a.366.366 0 1 1 -.685.257 26.39 26.39 0 0 1 -.649-2.044.366.366 0 0 1 .251-.453z" fill="#000"/><path d="m121.521 81.04a.366.366 0 0 1 .502-.126c.315.19.635.4.953.61l.088.057c.349.23.699.459 1.054.666.713.418 1.422.735 2.148.816a.367.367 0 0 1 -.081.729c-.876-.098-1.69-.476-2.436-.912a24.059 24.059 0 0 1 -1.087-.686l-.086-.056c-.321-.212-.628-.414-.93-.596a.367.367 0 0 1 -.125-.502z" fill="#000"/><path d="m122.5 81.843a.367.367 0 0 1 .093.51c-.312.452-.645.899-.973 1.34-.172.232-.344.462-.51.69-.489.672-.949 1.344-1.331 2.058a.365.365 0 1 1 -.645-.346c.406-.76.89-1.464 1.385-2.143.176-.242.351-.478.526-.712.322-.434.641-.862.946-1.304a.365.365 0 0 1 .509-.093z" fill="#000"/><path d="m119.915 85.566a.366.366 0 0 1 .517-.03c.31.278.659.589 1.03.852.374.265.742.46 1.085.528a.367.367 0 0 1 -.144.72c-.49-.099-.957-.361-1.364-.65-.409-.29-.786-.627-1.092-.901l-.003-.002a.368.368 0 0 1 -.029-.517zm-3.706-8.564a.365.365 0 0 1 .514.056c.131.163.262.335.397.513.257.34.527.696.833 1.032.464.51.93.88 1.4.985a.367.367 0 0 1 -.159.716c-.701-.157-1.297-.674-1.782-1.207-.326-.359-.636-.768-.905-1.122-.129-.168-.248-.325-.354-.457a.366.366 0 0 1 .056-.516z" fill="#000"/><path d="m116.435 69.041a.367.367 0 0 1 .369.364c.018 2.372.046 4.73.232 7.08.041.51.097.976.214 1.447a.366.366 0 1 1 -.71.178 9.454 9.454 0 0 1 -.233-1.567c-.188-2.38-.217-4.762-.235-7.133a.367.367 0 0 1 .363-.369zm12.231 2.475a.366.366 0 0 1 .393.336c.156 1.964.19 3.946.225 5.912.014.82.028 1.635.051 2.446a.367.367 0 1 1 -.732.02c-.023-.828-.037-1.654-.052-2.478-.034-1.956-.067-3.902-.221-5.842a.366.366 0 0 1 .336-.394z" fill="#000"/><path d="m127.671 77.342a.365.365 0 0 1 .512-.072c.756.572 1.492 1.155 2.223 1.736 1.536 1.218 3.053 2.423 4.704 3.47a.367.367 0 0 1 -.391.62c-1.684-1.069-3.253-2.314-4.806-3.546-.724-.574-1.444-1.146-2.17-1.695a.366.366 0 0 1 -.072-.513z" fill="#000"/><path d="m140.501 77.145a.368.368 0 0 1 -.047.516c-1.049.876-2.141 1.701-3.224 2.52l-.571.433c-1.273.965-2.524 1.934-3.694 2.993a.366.366 0 1 1 -.491-.543c1.196-1.082 2.469-2.068 3.743-3.035l.575-.434c1.084-.82 2.16-1.634 3.194-2.497a.365.365 0 0 1 .515.047z" fill="#000"/><path d="m140.52 69.042c.201.014.353.19.339.391a133.52 133.52 0 0 0 -.206 4.22l-.031.813c-.066 1.684-.145 3.375-.313 5.058a.366.366 0 1 1 -.728-.073c.166-1.659.244-3.331.31-5.014l.031-.81c.054-1.412.108-2.832.207-4.245a.366.366 0 0 1 .391-.34zm-4.93-1.205a.367.367 0 0 1 -.114.506c-1.285.815-2.502 1.731-3.715 2.673l-.818.638a91.304 91.304 0 0 1 -2.858 2.175.367.367 0 0 1 -.427-.595c.96-.692 1.891-1.42 2.828-2.153l.827-.645c1.217-.944 2.456-1.878 3.772-2.713a.366.366 0 0 1 .505.114z" fill="#000"/><path d="m134.791 68.383a.365.365 0 0 1 .506-.107c.409.266.823.528 1.239.79 1.553.98 3.128 1.974 4.486 3.285a.367.367 0 0 1 -.507.528c-1.3-1.254-2.791-2.196-4.336-3.17-.424-.269-.852-.539-1.281-.819a.367.367 0 0 1 -.107-.507z" fill="#000"/><path d="m136.668 68.95c.202.008.358.179.35.381l-.002.053c-.104 2.487-.207 4.97-.272 7.455a.367.367 0 0 1 -.732-.019c.066-2.49.169-4.979.273-7.464l.002-.055a.366.366 0 0 1 .381-.352z" fill="#000"/><path d="m136.51 76.369c.103.174.045.399-.129.502-.933.55-1.798 1.198-2.681 1.86l-.072.053c-.902.675-1.825 1.362-2.831 1.938a.365.365 0 0 1 -.499-.137.367.367 0 0 1 .136-.5c.961-.55 1.85-1.21 2.756-1.888l.084-.063c.874-.654 1.767-1.323 2.735-1.895a.365.365 0 0 1 .501.13z" fill="#000"/><path d="m135.672 76.237a.365.365 0 0 1 .474-.206c.699.275 1.421.505 2.156.74l.306.097c.835.268 1.682.549 2.492.91a.367.367 0 0 1 -.297.67c-.77-.343-1.583-.614-2.418-.881l-.304-.097a34.764 34.764 0 0 1 -2.203-.757.367.367 0 0 1 -.206-.476zm-19.311-1.223a.365.365 0 0 1 .517-.002c.042.04.083.082.124.123.669.664 1.316 1.307 2.037 1.862.16.124.19.354.067.514a.365.365 0 0 1 -.513.068c-.759-.585-1.437-1.259-2.098-1.916a81.025 81.025 0 0 0 -.132-.13.368.368 0 0 1 -.002-.519zm-.258-3.314a.365.365 0 0 1 .516.029c.605.678 1.25 1.3 1.907 1.934.334.322.67.647 1.006.983a.367.367 0 0 1 -.517.519c-.315-.316-.641-.63-.97-.948-.669-.645-1.349-1.302-1.971-2a.366.366 0 0 1 .029-.517zm5.898-3.706a.366.366 0 0 1 .513-.069c.701.537 1.364 1.121 2.014 1.695l.383.337a.366.366 0 0 1 -.482.551l-.389-.343c-.651-.573-1.292-1.138-1.97-1.657a.367.367 0 0 1 -.069-.514zm.881-7.187a.366.366 0 0 1 .494-.154c.398.208.818.387 1.254.572l.198.084c.5.213 1.015.44 1.494.729a.367.367 0 0 1 -.377.628c-.431-.259-.905-.47-1.404-.683l-.194-.082a17.585 17.585 0 0 1 -1.31-.599.368.368 0 0 1 -.155-.495zm2.263-2.015a.366.366 0 0 1 .518.004c.342.348.765.765 1.22 1.117.462.358.922.622 1.335.705a.367.367 0 0 1 -.144.719c-.579-.116-1.148-.464-1.638-.844a13.157 13.157 0 0 1 -1.295-1.183.367.367 0 0 1 .004-.518zm11.927-.815a.366.366 0 0 1 .472.214c.168.448.301.923.429 1.381l.09.318c.16.562.327 1.09.563 1.565a.366.366 0 1 1 -.654.328c-.27-.54-.451-1.126-.613-1.692l-.094-.334c-.128-.455-.25-.892-.406-1.308a.367.367 0 0 1 .213-.472zm9.471 9.881a.367.367 0 0 1 .437.279c.119.54.22 1.09.318 1.631.047.256.093.51.141.762a.366.366 0 1 1 -.718.138 70.522 70.522 0 0 1 -.146-.786 41.291 41.291 0 0 0 -.31-1.586.367.367 0 0 1 .278-.438zm-14.157 11.386a.366.366 0 0 1 .485-.182c.88.4 1.737.832 2.585 1.294a.366.366 0 1 1 -.351.644 38.782 38.782 0 0 0 -2.537-1.27.367.367 0 0 1 -.182-.486zm2.16-1.645a.365.365 0 0 1 .516-.039c.723.624 1.606 1.132 2.514 1.391a.367.367 0 0 1 -.201.705c-1.023-.293-1.998-.857-2.791-1.54a.367.367 0 0 1 -.038-.517zm1.565-3.685a.366.366 0 0 1 .433-.284c.529.11 1.045.264 1.545.412l.04.011c.517.154 1.017.3 1.522.401a.366.366 0 0 1 -.143.72 18.186 18.186 0 0 1 -1.586-.418l-.029-.008c-.508-.15-.999-.296-1.498-.4a.367.367 0 0 1 -.284-.434zm.269-2.523a.365.365 0 0 1 .396-.333c.556.05 1.096.168 1.615.294l.351.086c.399.1.785.195 1.177.266a.367.367 0 0 1 -.13.722c-.418-.076-.833-.18-1.236-.28l-.334-.082c-.513-.124-1.009-.231-1.507-.275a.366.366 0 0 1 -.332-.398zm-15.507 11.769a.366.366 0 0 1 .497-.146c.885.485 1.657 1.155 2.387 1.789.141.122.28.243.419.361a.366.366 0 1 1 -.475.558c-.148-.126-.294-.253-.439-.379-.731-.633-1.434-1.242-2.243-1.686a.367.367 0 0 1 -.146-.497z" fill="#000"/></g><path d="m206.122 33.488c0 3.643-2.949 6.597-6.586 6.597s-6.586-2.954-6.586-6.597c0-3.644 2.949-6.598 6.586-6.598s6.586 2.954 6.586 6.598z" fill="#fff"/><path clip-rule="evenodd" d="m206.045 25.965a.367.367 0 0 1 -.119.504c-4.216 2.604-5.93 5.751-6.614 8.079a10.302 10.302 0 0 0 -.437 2.727c-.003.179.002.322.008.424l.002.007c.01.028.017.057.02.086l.009.109.001.047a.48.48 0 0 1 -.009.086c-.003.013-.008.036-.02.064a.366.366 0 0 1 -.687-.02h-.001a.652.652 0 0 1 -.028-.133 2.92 2.92 0 0 1 -.009-.09c-.623-1.694-1.567-2.915-2.715-4.04a.367.367 0 0 1 .511-.525c.871.853 1.646 1.777 2.262 2.916.066-.536.186-1.168.391-1.865.731-2.488 2.551-5.79 6.932-8.496a.365.365 0 0 1 .503.12z" fill="#000" fill-rule="evenodd"/><path clip-rule="evenodd" d="m201.043 27.014a7.682 7.682 0 0 1 2.042.466c1.057.41 2.381 1.476 3.215 2.954.844 1.494 1.197 3.43.258 5.543-.848 1.905-2.258 3.314-3.962 3.99-1.709.677-3.684.605-5.626-.4-1.972-1.02-3.213-2.79-3.599-5.003-.254-1.46.069-3.347 1.256-4.874.612-.787 1.446-1.468 2.532-1.947a.366.366 0 0 1 .223-.262c1.101-.436 2.407-.582 3.643-.468zm-.06.73c-2.923.005-4.74 1.062-5.779 2.397-1.051 1.351-1.334 3.026-1.112 4.297.348 2 1.457 3.568 3.214 4.477 1.766.915 3.52.965 5.021.37 1.504-.596 2.783-1.854 3.562-3.606.831-1.869.522-3.559-.226-4.884-.757-1.341-1.954-2.287-2.842-2.632a6.958 6.958 0 0 0 -1.838-.418z" fill="#000" fill-rule="evenodd"/></svg>