<svg xmlns="http://www.w3.org/2000/svg" fill="none" viewBox="0 0 210 127"><path fill="#EAF2FF" d="M31.934 110.091V11.865l164.229 9.567v100.093l-164.23-11.434Z"/><path stroke="#6B6D85" stroke-linecap="round" d="M187.502 116.592V25.716M26.59 106.911V15.579M26.46 15.475l161.001 10.153M187.781 116.771l-161.51-10.442"/><path fill="#FFF1C2" d="m149.51 1.947 31.692 1.631-.945 18.358-15.846-.816-7.451 5.348-.472-5.756-7.923-.407.945-18.358Z"/><path stroke="#383946" stroke-linecap="round" d="M179.436 20.84V3.24M148.271 18.965V1.277M148.247 1.257l31.179 1.967M179.488 20.874l-15.639-1.011-7.82 6.707v-7.213l-7.819-.505"/><path fill="#82B0FB" d="m155.35 41.743 38.098 1.96-1.136 22.069-19.049-.98-8.958 6.427-.567-6.918-9.524-.49 1.136-22.068Z"/><path stroke="#383946" stroke-linecap="round" d="M191.32 64.453V43.297M153.859 62.2V40.937M153.829 40.913l37.482 2.363M191.384 64.495l-18.8-1.215-9.4 8.062v-8.67l-9.4-.608M187.459 54.517l-18.8-1.216-9.4-.608M187.455 58.32l-18.8-1.215-9.4-.608"/><path fill="#C0D8FF" d="m168.486 29.043 38.099 1.96-1.136 22.068-19.049-.98-9.525-.49-9.524-.49 1.135-22.068Z"/><path stroke="#383946" stroke-linecap="round" d="M204.457 51.753V30.597M166.996 49.5V28.237"/><path stroke="#383946" stroke-linecap="round" stroke-linejoin="round" d="m166.966 28.212 37.481 2.364-18.974 11.4-18.507-13.764Z"/><path stroke="#383946" stroke-linecap="round" d="m204.521 51.795-18.799-1.216-9.4-.607-9.4-.608"/><path fill="#FEE89D" d="M50.224 83.577C43.596 78.986 29.17 94.332 25.78 97.503c0 13.654 11.937 16.49 17.906 16.201 1.516-3.791 16.345-23.33 6.537-30.127Z"/><ellipse cx="27.395" cy="108.077" fill="#FDD13B" rx="17.772" ry="17.991"/><path stroke="#000" stroke-linecap="round" d="M25.04 97.693c3.388-3.171 17.815-18.518 24.441-13.927 9.809 6.796-5.02 26.337-6.537 30.127"/><path stroke="#000" stroke-linecap="round" d="M41.453 114.315c-8.985.58-16.262-9.144-16.262-16.186 1.649-4.809 11.418 2.592 13.493 5.816 1.248 1.94 6.338 10.14 2.769 10.37Z"/><path fill="#FCC026" stroke="#000" stroke-linecap="round" d="M27.397 107.159c1.696-2.191 6.786-3.496 8.75-5.656 1.622.941 2.441 2.684 2.648 3.438-1.078 1.512-2.704 4.622-7.581 7.308-4.306 1.567-5.514-2.898-3.817-5.09Z"/><path stroke="#7A5709" stroke-linecap="round" d="m1.129 103.058 13.8-1.254M4.266 113.723l9.41-5.646"/><path fill="#C4DAFF" d="M50.466 38.234a3.498 3.498 0 0 0 3.22 3.978l55.376 3.852a3.73 3.73 0 1 0 .486-7.444L54.143 35.23a3.498 3.498 0 0 0-3.677 3.003ZM54.079 50.175a3.498 3.498 0 0 0 3.22 3.978l55.376 3.853a3.731 3.731 0 1 0 .487-7.445l-55.406-3.389a3.498 3.498 0 0 0-3.677 3.003ZM44.266 60.613a3.498 3.498 0 0 0 3.221 3.978l55.375 3.852a3.73 3.73 0 1 0 .487-7.444L47.943 57.61a3.498 3.498 0 0 0-3.677 3.003Z"/><path stroke="#6B6D85" d="M48.343 38.304a2.998 2.998 0 0 0 2.76 3.409l55.376 3.852a3.23 3.23 0 1 0 .422-6.446L51.495 35.73a2.998 2.998 0 0 0-3.151 2.574ZM51.957 50.245a2.998 2.998 0 0 0 2.76 3.41l55.375 3.852a3.23 3.23 0 1 0 .422-6.447l-55.406-3.389a2.998 2.998 0 0 0-3.151 2.574ZM42.144 60.683a2.998 2.998 0 0 0 2.76 3.409l55.376 3.852a3.231 3.231 0 1 0 .421-6.446l-55.405-3.389a2.998 2.998 0 0 0-3.152 2.574Z"/><path fill="#BCCDE9" d="M92.741 85.62a3.498 3.498 0 0 0 3.22 3.977l55.376 3.853a3.731 3.731 0 1 0 .487-7.445l-55.406-3.388a3.498 3.498 0 0 0-3.677 3.003ZM92.741 97.56a3.498 3.498 0 0 0 3.22 3.978l55.376 3.852a3.73 3.73 0 1 0 .487-7.444l-55.406-3.389a3.498 3.498 0 0 0-3.677 3.003Z"/><path stroke="#6B6D85" d="M90.619 84.38a2.998 2.998 0 0 0 2.76 3.41l55.376 3.852a3.23 3.23 0 1 0 .421-6.447L93.77 81.808a2.998 2.998 0 0 0-3.151 2.574ZM90.619 96.322a2.998 2.998 0 0 0 2.76 3.41l55.376 3.852a3.23 3.23 0 1 0 .421-6.447L93.77 93.75a2.998 2.998 0 0 0-3.151 2.573Z"/><circle cx="107.999" cy="37.676" r="2.737" fill="#EE5F54" stroke="#000"/><circle cx="157.074" cy="11.342" r="1.221" stroke="#000"/><circle cx="163.518" cy="11.865" r="1.221" stroke="#000"/><circle cx="169.959" cy="12.04" r="1.221" stroke="#000"/><circle cx="111.235" cy="50.546" r="2.737" fill="#EE5F54" stroke="#000"/><circle cx="150.993" cy="84.556" r="2.737" fill="#EE5F54" stroke="#000"/><circle cx="204.447" cy="30.597" r="4.47" fill="#EE5F54" stroke="#000"/></svg>