<svg fill="none" height="122" viewBox="0 0 155 122" width="155" xmlns="http://www.w3.org/2000/svg" xmlns:xlink="http://www.w3.org/1999/xlink"><linearGradient id="a"><stop offset="0" stop-color="#f6b4e2"/><stop offset="1" stop-color="#f5b1e1" stop-opacity="0"/></linearGradient><linearGradient id="b" gradientUnits="userSpaceOnUse" x1="131.865" x2="147.874" xlink:href="#a" y1="118.227" y2="97.3304"/><linearGradient id="c"><stop offset=".3" stop-color="#f4aee0"/><stop offset=".98" stop-color="#f6b3e2" stop-opacity="0"/></linearGradient><linearGradient id="d" gradientUnits="userSpaceOnUse" x1="132.607" x2="149.08" xlink:href="#c" y1="119.166" y2="97.6688"/><linearGradient id="e"><stop offset=".21" stop-color="#efe59c"/><stop offset=".85" stop-color="#efe59c" stop-opacity="0"/></linearGradient><linearGradient id="f" gradientUnits="userSpaceOnUse" x1="76.976" x2="86.3578" xlink:href="#e" y1="62.2579" y2="58.3679"/><linearGradient id="g" gradientUnits="userSpaceOnUse" x1="82.3112" x2="82.3112" xlink:href="#e" y1="71.9935" y2="55.244"/><linearGradient id="h"><stop offset=".5" stop-color="#b1a6cc"/><stop offset=".79" stop-color="#fff" stop-opacity="0"/></linearGradient><linearGradient id="i" gradientUnits="userSpaceOnUse" x1="113.897" x2="130.047" xlink:href="#h" y1="107.103" y2="76.5496"/><linearGradient id="j"><stop offset=".08" stop-color="#b1a6cc"/><stop offset=".85" stop-color="#fff" stop-opacity="0"/></linearGradient><linearGradient id="k" gradientUnits="userSpaceOnUse" x1="119.159" x2="118.971" xlink:href="#j" y1="99.4918" y2="77.9249"/><linearGradient id="l"><stop offset=".26" stop-color="#9ebcfd"/><stop offset=".88" stop-color="#fff" stop-opacity="0"/></linearGradient><linearGradient id="m" gradientUnits="userSpaceOnUse" x1="85.0743" x2="86.9676" xlink:href="#l" y1="98.8194" y2="83.0189"/><linearGradient id="n"><stop offset=".37" stop-color="#9ebcfd"/><stop offset="1" stop-color="#fff" stop-opacity="0"/></linearGradient><linearGradient id="o" gradientUnits="userSpaceOnUse" x1="83.9039" x2="83.9039" xlink:href="#n" y1="99.036" y2="85.6965"/><linearGradient id="p"><stop offset=".44" stop-color="#70ffd6"/><stop offset=".77" stop-color="#70ffd6" stop-opacity="0"/></linearGradient><linearGradient id="q" gradientUnits="userSpaceOnUse" x1="115.981" x2="134.054" xlink:href="#p" y1="61.4156" y2="29.322"/><linearGradient id="r"><stop offset=".18" stop-color="#bbecd8"/><stop offset=".71" stop-color="#bbecd8" stop-opacity="0"/></linearGradient><linearGradient id="s" gradientUnits="userSpaceOnUse" x1="114.199" x2="128.628" xlink:href="#r" y1="69.0852" y2="19.6435"/><linearGradient id="t" gradientUnits="userSpaceOnUse" x1="57.764" x2="52.8455" xlink:href="#a" y1="72.0322" y2="48.8111"/><linearGradient id="u" gradientUnits="userSpaceOnUse" x1="59.6097" x2="54.5393" xlink:href="#c" y1="71.9134" y2="47.9787"/><linearGradient id="v"><stop offset=".44" stop-color="#ffc5a1"/><stop offset=".91" stop-color="#ffc5a1" stop-opacity="0"/></linearGradient><linearGradient id="w" gradientUnits="userSpaceOnUse" x1="81.2253" x2="91.6504" xlink:href="#v" y1="121.947" y2="111.356"/><linearGradient id="x"><stop offset=".21" stop-color="#ffc5a1"/><stop offset=".85" stop-color="#ffc5a1" stop-opacity="0"/></linearGradient><linearGradient id="y" gradientUnits="userSpaceOnUse" x1="87.2475" x2="87.2475" xlink:href="#x" y1="124.46" y2="109.266"/><linearGradient id="z" gradientUnits="userSpaceOnUse" x1="37.6954" x2="38.9444" xlink:href="#v" y1="76.0737" y2="61.2376"/><linearGradient id="A" gradientUnits="userSpaceOnUse" x1="44.1679" x2="34.4389" xlink:href="#x" y1="74.0669" y2="62.3699"/><linearGradient id="B" gradientUnits="userSpaceOnUse" x1="66.0655" x2="82.2155" xlink:href="#h" y1="40.968" y2="10.4145"/><linearGradient id="C" gradientUnits="userSpaceOnUse" x1="71.3522" x2="71.1542" xlink:href="#j" y1="34.7432" y2="11.9799"/><linearGradient id="D" gradientUnits="userSpaceOnUse" x1="14.2272" x2="18.9641" xlink:href="#e" y1="103.989" y2="94.9849"/><linearGradient id="E" gradientUnits="userSpaceOnUse" x1="25.0735" x2="14.3525" xlink:href="#e" y1="107.64" y2="94.7504"/><linearGradient id="F" gradientUnits="userSpaceOnUse" x1="15.9602" x2="21.1237" xlink:href="#e" y1="16.7505" y2="6.94693"/><linearGradient id="G" gradientUnits="userSpaceOnUse" x1="25.1198" x2="21.9348" xlink:href="#e" y1="21.9277" y2="7.60525"/><linearGradient id="H" gradientUnits="userSpaceOnUse" x1="14.9994" x2="4.85875" xlink:href="#l" y1="43.3904" y2="31.1333"/><linearGradient id="I" gradientUnits="userSpaceOnUse" x1="14.3233" x2="4.66499" xlink:href="#n" y1="44.4196" y2="35.226"/><linearGradient id="J" gradientUnits="userSpaceOnUse" x1="66.7906" x2="48.2264" xlink:href="#p" y1="111.159" y2="83.9717"/><linearGradient id="K" gradientUnits="userSpaceOnUse" x1="72.5627" x2="38.4052" xlink:href="#r" y1="117.264" y2="84.1636"/><linearGradient id="L" gradientUnits="userSpaceOnUse" x1="131.928" x2="164.894" y1="115.615" y2="83.1833"><stop offset=".12" stop-color="#feb7d5"/><stop offset=".6" stop-color="#feb7d5" stop-opacity="0"/></linearGradient><linearGradient id="M"><stop offset="0" stop-color="#b1a7cb"/><stop offset="1" stop-color="#b1a6cd"/></linearGradient><linearGradient id="N" gradientUnits="userSpaceOnUse" x1="112.418" x2="124.156" xlink:href="#M" y1="95.1447" y2="95.1447"/><linearGradient id="O" gradientUnits="userSpaceOnUse" x1="77.7936" x2="96.7389" y1="97.7773" y2="81.3366"><stop offset=".32" stop-color="#9ebcfd"/><stop offset=".6" stop-color="#9ebcfd" stop-opacity="0"/></linearGradient><linearGradient id="P" gradientUnits="userSpaceOnUse" x1="117.66" x2="144.731" y1="51.9664" y2="28.4797"><stop offset=".4" stop-color="#bbecd8"/><stop offset="1" stop-color="#bbecd8" stop-opacity="0"/></linearGradient><linearGradient id="Q" gradientUnits="userSpaceOnUse" x1="65.1396" x2="70.575" xlink:href="#M" y1="29.2588" y2="29.2588"/><linearGradient id="R" gradientUnits="userSpaceOnUse" x1="80.6484" x2="100.59" y1="122.815" y2="105.511"><stop offset=".32" stop-color="#ffc5a1"/><stop offset="1"/></linearGradient><linearGradient id="S" gradientUnits="userSpaceOnUse" x1="94.9298" x2="99.1032" y1="112.172" y2="17.9474"><stop offset="0" stop-color="#e4e7ef" stop-opacity=".52"/><stop offset="1" stop-color="#f4f6f8"/></linearGradient><linearGradient id="T" gradientUnits="userSpaceOnUse" x1="121.11" x2="125.283" y1="97.801" y2="3.57668"><stop offset=".62" stop-color="#e4e7ef"/><stop offset="1" stop-color="#f4f6f8" stop-opacity=".03"/></linearGradient><linearGradient id="U" gradientUnits="userSpaceOnUse" x1="28.4685" x2="32.6371" y1="109.295" y2="15.0709"><stop offset="0" stop-color="#e4e7ef"/><stop offset="1" stop-color="#f4f6f8"/></linearGradient><linearGradient id="V" gradientUnits="userSpaceOnUse" x1="81.5616" x2="66.3781" y1="33.0313" y2="61.1226"><stop offset="0" stop-color="#00cfde"/><stop offset="1" stop-color="#05a660"/></linearGradient><g opacity=".65"><g opacity=".65"><path d="m135.291 108.844c2.738-1.37 5.161-5.428 6.214-7.747.685-1.5289 1.264-5.0601 4.108-6.6939 2.844-1.6339 5.214 3.7947 3.95 6.1659-2.317 4.375-5.898 10.225-9.427 9.54-5.477-1.107-4.845-1.265-4.845-1.265z" fill="url(#b)" opacity=".69"/><path d="m135.08 108.791c2.739-1.37 5.372-2.741 6.425-5.112.685-1.529 4.214-6.3775 7.058-8.064 2.844-1.6866 2.949 4.2163 1.685 6.588-2.317 4.375-5.267 9.171-8.795 8.485-5.478-1.106-6.373-1.897-6.373-1.897z" fill="url(#d)" opacity=".22"/><path d="m77.5684 64.8359c1.0533-1.9501 1.5273-2.6879 2.5806-5.0596.6847-1.4758.474-7.3787 3.318-9.0652 2.8439-1.6865 9.6378 3.4785 8.3738 5.8502-2.3173 4.3745-7.8999 14.2829-10.6385 11.9112-2.844-2.3717-3.6339-3.6366-3.6339-3.6366z" fill="url(#f)" opacity=".17"/><path d="m77.3575 64.7835-.2106-4.2163c-.158-2.4244.4213-6.5354 3.2126-8.2219 2.7913-1.6866 8.2159 4.9542 6.9519 7.3259-2.3173 4.3745-2.054 7.484-5.8986 9.0651-.6847.2636-4.0553-3.9528-4.0553-3.9528z" fill="url(#g)" opacity=".8"/><path d="m112.855 96.7745c1.738-.9487 4.319-4.0055 5.372-6.3245.685-1.5284 1.844-7.1678 4.688-8.8016 2.844-1.6339 7.584 3.8474 6.741 6.4299-1.264 3.9001-.316 6.1664-11.797 9.8557-3.476 1.1068-5.004-1.1595-5.004-1.1595z" fill="url(#i)" opacity=".2"/><path d="m112.485 96.6169c1.422-3.3204 2.212-4.638 2.95-8.3273.579-2.9514-1.633-8.9071 1.632-10.9625 3.266-2.0555 9.059 5.6394 8.585 10.33-.632 6.1138-3.476 8.749-7.9 10.7517-.79.369-5.267-1.7919-5.267-1.7919z" fill="url(#k)" opacity=".8"/><path d="m79.3594 95.5628c1.0533-1.9501.2633-13.2815 3.1073-14.9154 2.8439-1.6338 11.1652 5.6921 9.9012 8.0638-2.3173 4.3745-7.7946 9.3814-11.0072 7.7476-.632-.369-1.3167-.6325-2.0013-.896z" fill="url(#m)" opacity=".38"/><path d="m78.9912 95.4574c1.0533-1.3176 1.2113-1.6865 1.5273-2.4244.948-2.5825-.3686-7.9057 2.4753-9.5395 2.844-1.6338 6.8466 3.8474 5.5827 6.2191-2.3174 4.3745-3.5814 6.061-5.688 6.5881-1.3693.3162-2.7913 0-3.8973-.8433z" fill="url(#o)" opacity=".8"/><path d="m115.857 51.133c1.632-.9487 3.56-6.4826 4.548-8.8016.643-1.4757 1.73-7.1678 4.4-8.8016 2.669-1.6339 6.574 3.742 6.327 6.4299-.395 4.5853-2.126 8.8016-6.673 9.2233-3.757.3689-8.602 1.95-8.602 1.95z" fill="url(#q)" opacity=".2"/><path d="m116.277 50.5536c1.422-3.3204 1.37-5.4813 2.16-9.1706.579-2.9514-1.896-8.4327 1.369-10.5409s10.48 4.8488 9.217 9.4341c-.948 3.3731-2.844 6.957-3.95 7.9057-.738.5797-8.532 2.4244-8.796 2.3717z" fill="url(#s)" opacity=".8"/><path d="m54.6589 60.9354c-1.738-1.8447-3.0546-2.4771-4.1079-4.7961-1.1587-2.2663-1.5273-4.7961-1.1587-7.3259.5793-3.215 6.2673-1.4757 7.2679 1.0541 1.8433 4.5852 3.0547 7.6421 1.106 13.3869-.2633.7378-3.1073-2.319-3.1073-2.319z" fill="url(#t)" opacity=".69"/><path d="m56.502 62.4117c-1.264-1.8974-2.4753-1.3703-3.5287-3.6893-.6846-1.4758-1.3166-8.1165-.7373-11.3842s5.1086.4743 6.1093 3.0042c1.8433 4.5852 3.4233 9.8557.6846 12.2274-2.0539 1.7919-2.5279-.1581-2.5279-.1581z" fill="url(#u)" opacity=".22"/><path d="m82.098 120.544c1.0533-1.95 2.7386-3.478 3.5813-5.903 1.6853-4.901-.1054-7.905 2.6859-9.539s10.1119 7.537 8.8479 9.908c-2.3173 4.375-11.5865 8.538-14.3251 6.167-2.7913-2.477-.79-.633-.79-.633z" fill="url(#w)" opacity=".17"/><path d="m82.0977 120.544c.8953-1.054 1.8433-3.583 2.0013-4.374 1.3693-5.481-1.6327-7.8 1.1586-9.487 2.7913-1.686 8.2159 4.954 6.9519 7.326-2.3173 4.375-4.2659 5.903-8.1632 7.484-.632.264-1.9486-.949-1.9486-.949z" fill="url(#y)" opacity=".8"/><path d="m37.5421 74.1642c-.4213-2.1609-.158-4.4272-1.0533-6.8516-1.8433-4.8488-5.1613-5.9556-4.0553-9.0651 1.106-3.1096 12.5872-.7379 13.1665 1.8973 1.0533 4.8488-3.4233 13.9667-7.0046 13.9667-3.7392-.0527-1.0533.0527-1.0533.0527z" fill="url(#z)" opacity=".17"/><path d="m37.5425 74.1642c.0527-1.3703-.8953-3.9528-1.2639-4.6379-2.4753-5.1124-6.2673-4.9543-5.1613-8.0111 1.106-3.1096 9.4799-1.4757 10.0592 1.1595 1.0533 4.8488.5267 7.2732-1.4746 10.9625-.316.5797-2.1594.527-2.1594.527z" fill="url(#A)" opacity=".8"/><path d="m65.0342 30.631c1.738-.9487 4.3186-4.0056 5.3719-6.3246.6847-1.4757 1.8433-7.1678 4.6873-8.8016s7.5839 3.8474 6.7413 6.4299c-1.264 3.8475-.316 6.1665-11.7972 9.8558-3.476 1.1068-5.0033-1.1595-5.0033-1.1595z" fill="url(#B)" opacity=".1"/><path d="m64.665 30.4724c1.422-3.3204 2.212-4.638 2.9493-8.3273.5794-2.9515-1.5799-8.9071 1.6327-10.9626 3.2126-2.05543 9.0585 5.6394 8.5845 10.3301-.632 6.1137-5.2139 9.9611-9.6378 11.9639-.79.3162-3.5287-3.0041-3.5287-3.0041z" fill="url(#C)" opacity=".6"/><path d="m16.6865 104.997c-.474-2.161-.5793-3.057-1.2639-5.5337-.4214-1.5812-4.424-5.9556-3.318-9.0652 1.106-3.1095 9.5852-3.5312 10.1645-.896 1.0534 4.8489 3.16 16.0219-.474 15.9699-3.6866 0-5.1086-.475-5.1086-.475z" fill="url(#D)" opacity=".17"/><path d="m16.5284 105.102-2.8966-3.11c-1.6853-1.739-3.8973-5.2705-2.7913-8.38 1.106-3.1096 9.4799-1.5284 10.0592 1.1068 1.0533 4.8488 3.2653 7.0622 1.3166 10.7512-.4213.686-5.6879-.368-5.6879-.368z" fill="url(#E)" opacity=".8"/><path d="m19.7413 17.191c-.474-2.1609-.79-4.4799-1.4747-6.957-.4213-1.58113-4.2133-4.53258-3.1073-7.58943 1.106-3.05686 9.5852-3.583904 10.1646-.94868 1.0533 4.8488 0 17.60331-3.634 17.60331-3.6866-.0527-1.9486-2.1082-1.9486-2.1082z" fill="url(#F)" opacity=".17"/><path d="m19.2676 18.4028-1.1587-4.1109c-.6847-2.319-1.0533-6.48267 1.3693-8.69625 2.4227-2.21359 9.1112 3.05685 8.4266 5.63935-1.3167 4.7434-3.0546 6.2191-6.5306 8.5908-.5793.4217-2.1066-1.423-2.1066-1.423z" fill="url(#G)" opacity=".8"/><path d="m8.734 45.2819c-.68466-2.1082-9.427222-9.3814-8.6898979-12.5436.7373239-3.1623 11.7971979-4.1637 12.6397979-1.5812 1.58 4.6907 1.422 12.1221-2.0013 13.2816-.632.2108-1.31661.527-1.9486.8432z" fill="url(#H)" opacity=".38"/><path d="m8.36562 45.4939c-.26333-1.6865-.36866-2.0554-.73732-2.7406-1.21132-2.4771-5.95127-5.165-5.21394-8.38.73732-3.215 7.53124-2.319 8.37394.2635 1.5799 4.6907 1.8959 6.7989.8426 8.6436-.632 1.1595-1.8433 2.0027-3.26528 2.2135z" fill="url(#I)" opacity=".8"/></g><g opacity=".65"><path d="m56.3979 105.313c0-2.003-.632-2.267-2.212-4.27-1.0006-1.3171-5.4246-5.0064-5.5826-8.2741s6.5833-4.4272 8.7952-2.9515c3.8447 2.5298 5.4246 4.4272 3.5287 8.9071-.5267 1.2649-.8427 3.2145-.1054 6.1665.5794 2.161-4.4239.422-4.4239.422z" fill="url(#J)" opacity=".2"/><path d="m60.3999 105.418c-2.2647-2.846-.4214 3.162-8.2159-2.793-2.3173-1.845-8.3213-2.267-8.6373-6.114-.316-3.8474 9.2166-7.0097 12.6399-3.742 2.5279 2.4244 1.5273 8.064 1.8433 9.487.2107.896 2.528 2.951 2.37 3.162z" fill="url(#K)" opacity=".8"/></g><path d="m135.359 108.328c2.738-1.371 3.476-1.792 4.845-3.057.579-.527 1.896.843 4.16 1.159 1.317.158-2.212 3.321-4.476 2.952-5.477-.844-4.529-1.054-4.529-1.054z" fill="url(#L)" opacity=".65"/><path d="m77.637 65.0047c-.2107-.6851.2106-2.3189 1.0006-3.4784.4213-.6325 3.2126 3.1095 4.0553 4.9015.5793 1.2122.158 1.1068-1.3167 2.5298-.5793.527-2.8966-2.8988-3.7392-3.9529z" fill="#efe59c" opacity=".65" stroke="#706f6f" stroke-miterlimit="10" stroke-width=".04"/><g opacity=".65"><path d="m112.434 96.9331c2.738-1.3703 4.213-3.742 5.582-5.0069.58-.5271 3.687 1.1067 6.004 1.423 1.317.1581-6.32 5.7447-8.479 5.0596-1.106-.4216-2.159-.896-3.107-1.4757z" fill="url(#N)" opacity=".65"/><path d="m78.7803 95.1931c2.7386-1.3703 2.2646-3.0041 3.6339-4.2163.5794-.5271 1.1587.6324 2.1593 1.95.2634.3162-.6846 3.4258-2.4753 3.2677-1.1586-.1054-2.2646-.4216-3.3179-1.0014z" fill="url(#O)" opacity=".65"/><path d="m115.699 50.6057c2.739-1.3703 4.108-3.7947 5.425-5.0069.579-.5271 3.054 1.6338 4.108 2.9514.263.3163-1.159.9487-2.95.8433-1.79-.1054-6.583 1.2122-6.583 1.2122z" fill="url(#P)" opacity=".65"/></g><path d="m36.7152 67.3764c-.2107-.6852 2.6333-.3162 3.792-.4744.7373-.1054-.316 2.1082.1053 5.0597 0 .1581-2.1067 1.95-2.37 1.6865-1.1586-1.2649-1.5273-4.0582-1.5273-6.2718z" fill="#ffc5a1" opacity=".65"/><path d="m21.3896 19.8365c-.5793.4216-.632-.6325-2.0013-1.0014-.7373-.2108 2.5806-3.9528 3.4233-6.5353.4213-1.265 1.0533.7378 2.844 1.7392.6846.3162-1.8433 4.4799-4.266 5.7975z" fill="#efe59c" opacity=".65"/><path d="m65.3133 28.8499c.158-.6852 2.054-3.215 3.318-3.8474.7373-.3163.7373 3.373 1.8433 5.8501.5267 1.2122-.7373 1.4758-2.2646 2.6353-.632.4216-3.8447-2.1082-2.8967-4.638z" fill="url(#Q)" opacity=".65"/><path d="m11.594 43.4482c.2107.6852.7374 2.2136 0 3.3731-.4213.6325-4.68724-3.3204-7.79453-3.7947-1.31666-.2108 2.21197-.2108 2.89663-2.0028.26333-.6324 4.2659-.2108 4.8979 2.4244z" fill="#9ebcfd" opacity=".65"/><path d="m57.4664 64.8462c-.632-3.0041-3.6339-4.1109-4.4766-5.7447-.3687-.6852 1.58-.5798 3.1073-1.265.3687-.1581 1.9486-.6324 1.3693 1.0541-.5793 1.6866 0 5.9556 0 5.9556z" fill="#feb7d5" opacity=".65"/><path d="m22.1795 105.586c.2633.685-3.5286.105-4.6346.316-.7373.158-2.3173-1.054-3.5813-2.899-.7373-1.106 0 .791 3.6339-.316.79-.211 2.054 1.16 4.582 2.899z" fill="#efe59c" opacity=".65"/><path d="m54.4111 102.688c-.2106-.685 2.4753-.264 3.5813-.422.7373-.105.8427 1.054 2.4226 3.163.1054.105-3.7919.21-4.0552-.106-1.106-1.265-1.9487-.474-1.9487-2.635z" fill="#bbecd8" opacity=".65"/><path d="m82.0605 120.502c2.3174-2.003 2.37-3.479 3.7393-4.744.5794-.527 1.4747 1.423 2.4753 2.741.2634.316-3.3706 3.268-4.9506 2.951-.5266-.158-.948-.474-1.264-.948z" fill="url(#R)" opacity=".65"/></g><path d="m71.3701 76.3725c.1918-18.1404.8153-30.8579.1918-31.6738-1.3907-1.8236 43.7351-1.4397 51.6961-.2399 0 0 .384 31.0978-.671 31.7217-1.823 1.1038-51.2169.192-51.2169.192z" fill="url(#S)" opacity=".25"/><path d="m92 67.0621c.2398-18.2843 1.6305-35.081.9112-35.8969-1.6305-1.8716 51.5518-1.1997 61.0478 0 0 0 .575 35.0811-.672 35.705-2.254 1.1037-61.287.1919-61.287.1919z" fill="url(#T)" opacity=".25"/><path d="m7 100.452c.19182-10.6063 1.15093-20.3004.62342-20.7803-1.15093-1.0558 36.78188-.7198 43.59158 0 0 0 .4316 20.3-.4795 20.6843-1.5826.623-43.7355.096-43.7355.096z" fill="url(#U)" opacity=".25"/><g stroke="#d9dae6" stroke-linecap="round" stroke-linejoin="round"><path d="m120.124 36.3868c-7.182.7653-12.527 5.7668-12.527 13.3232s8.948 11.5335 15.311 11.5335c6.364 0 14.72-3.1925 16.306-9.9427 1.869-7.9541-3.765-13.5521-9.942-15.8199-7.949-2.9183-15.803 1.1313-21.675 6.0761"/><path d="m118.533 51.5654c-1.59-1.5909-1.7-5.2568.796-6.6285 1.988-1.1929 4.345-1.6089 6.363-.7954 1.255.5055 2.788 1.8556 2.939 3.3805.152 1.5397-.622 3.0945-1.746 4.0434-2.575 2.1758-6.761 1.5908-8.352 0z"/><path d="m120.522 52.4932c-2.077 1.9734-5.026 4.5366-7.159 6.3633"/><path d="m107 50.9023c2.676-.284 5.343-.6569 7.993-1.1599.785-.1491 1.557-.3281 2.347-.4309"/><path d="m124.996 34c-.054 3.3302-.845 6.6101-1.591 9.8432"/><path d="m6 91.9695c2.78395 0 3.68697 4.1424 5.9182 3.9771 3.0248-.224 5.265-13.1243 7.2061-13.1243 1.3844 0 4.6863 15.0715 4.7725 14.7151.1246-.5151 3.1816-11.5334 4.7725-11.5334 1.5908 0 1.4952 4.0713 3.1816 6.9322 1.4968 2.5392 2.3863-3.6291 3.5794-3.6291s1.3079 2.0383 1.9885 4.2533 2.9341-2.1874 7.1587-2.1874c.2683 0 8.3475 0 6.9599 0"/><path d="m11.8507 95.3317c-.1356 1.2654.6972.4661.3811.1105-.4291-.4828-1.0604.0132-.9556.5634.1219.6397.8254-.1731.9225-.4253.1424-.3704-.521-.6245-.6463-.2486"/><path d="m18.9092 82.1073c-.0865.5909.5249.8966.4971.3977-.0286-.5161-.8829-.7497-.7898-.0055.0571.4575.8343.351.8837-.0939.0482-.433-.6904-.5972-.6904-.0994"/><path d="m24.08 96.5244c-.2825.2397-.6137.6182-.4861 1.0329.0755.2456.6633.3212.823.1492.5699-.6137-.7179-.8613-.812-.5413-.2426.8249 1.0543.8596 1.16.1988.1375-.8594-.936-.7267-1.2815-.243"/><path d="m32.63 93.9446c-.3986.6264.3241.5504.1878.0055-.0928-.3714-.5017-.1759-.5634.0939-.075.3282.3265.5806.3701.1878.0191-.1717-.1219-.7283-.2927-.3866"/><path d="m51.4033 91.1741c-.059.2854-.1936.8728.2872.8728.1936 0 .3986-.2321.464-.3977.1584-.4006-.5475-.6566-.7899-.4143-.2178.2178-.053.6968.2376.7291.3311.0368.5883-.2948.1988-.3922"/><path d="m35.5136 88.5699c.047.5748.6334 1.0127.5966.221-.0142-.306-.5429-.6259-.6739-.221-.3183.984.8161.3411.2762-.1988"/><path d="m28.9522 85.1895c-.1859.1269-1.0126 1.153-.1988.9721.3194-.071.5567-.6493.1767-.7954-.3405-.131-.4998.2536-.3645.5579.1766.3975.3866-.4278.3866-.5358"/></g><path d="m81.5774 79.0945c0 6.9313-3.1562 11.3973-8.5508 11.3973-5.3945 0-9.6028-5.349-9.6028-12.2803s.6929-10.2659 6.0874-10.2659c6.9571-1.8766 12.0662 4.2176 12.0662 11.1489z" fill="#fff"/><path clip-rule="evenodd" d="m79.1624 88.7796c-.0224-.1282-.143-.2137-.2693-.191-1.1337.2044-2.0757.3948-2.9796.5775-1.3462.2722-2.6079.5273-4.2924.7858-.1269.0194-.2141.1396-.195.2684.0192.1288.1375.2175.2644.198 1.6898-.2593 2.9733-.5186 4.3313-.7929.9038-.1826 1.8407-.3719 2.9525-.5723.1263-.0228.2105-.1452.1881-.2735z" fill="#000" fill-rule="evenodd"/><path clip-rule="evenodd" d="m69.7682 68.2871c-.0778.1036-.0582.2516.0438.3306.1331.1031.2709.2142.4126.333-.7567-.4682-1.4919-.6681-2.1919-.6486-1.0404.0291-1.9593.5417-2.7131 1.2875-1.4987 1.4824-2.4123 3.9496-2.4123 5.7335 0 5.6616 2.1048 9.8771 4.0777 12.3544.7151.8979 1.691 1.5517 2.6147 1.9691.9172.4144 1.8162.6105 2.3869.5588.0076-.0007.0151-.0018.0226-.0032 2.1997-.4234 3.4972-2.2962 4.1196-4.6095.6234-2.3171.5907-5.136.0907-7.589-.983-4.8225-4.0973-8.1895-6.1257-9.761-.102-.079-.2477-.0591-.3256.0444zm1.6497 1.7763c1.7344 1.7854 3.6288 4.514 4.3467 8.0359.4886 2.3973.5161 5.1388-.0839 7.3691-.5999 2.2296-1.8062 3.889-3.7465 4.2681-.4613.038-1.2703-.1254-2.1456-.5209-.8759-.3958-1.7851-1.0094-2.4424-1.8347-1.9155-2.4052-3.9744-6.5185-3.9744-12.0578 0-1.6626.8671-4.006 2.2719-5.3956.6978-.6903 1.5114-1.129 2.4017-1.1538.8877-.0248 1.8955.3607 2.9868 1.4076.0932.0894.2403.0852.3283-.0095.0294-.0315.0484-.069.0574-.1084z" fill="#000" fill-rule="evenodd"/><path clip-rule="evenodd" d="m65.5284 69.3741c5.2802-1.5843 7.9638-1.9725 10.3405-.4573 2.8599 1.8234 4.8154 5.896 5.2383 10.0463.4231 4.1514-.6958 8.268-3.8428 10.2316-.1093.0682-.1435.2135-.0763.3245.0671.1109.2102.1456.3195.0774 3.3672-2.1009 4.4932-6.448 4.0617-10.6821-.4315-4.2351-2.43-8.4696-5.4534-10.3972-2.5786-1.644-5.4696-1.1707-10.7191.4044-.1231.0369-.1933.1681-.157.293.0364.1249.1656.1963.2886.1594z" fill="#000" fill-rule="evenodd"/><path clip-rule="evenodd" d="m79.1568 70.5573c-.0417-.1232-.1755-.1939-.2988-.158l-5.1101 1.4897c-.1233.0359-.1894.1649-.1476.2881.0417.1232.1755.1939.2988.1579l5.1101-1.4896c.1233-.036.1894-.165.1476-.2881zm-2.252-1.3327c-.0418-.1232-.1756-.1939-.2989-.1579l-4.5712 1.3326c-.1233.0359-.1894.1649-.1477.2881.0418.1231.1756.1939.2989.1579l4.5712-1.3326c.1233-.0359.1894-.1649.1477-.2881z" fill="#000" fill-rule="evenodd"/><path clip-rule="evenodd" d="m80.8072 74.4117c-.0417-.1231-.1755-.1938-.2988-.1579l-5.0289 1.466c-.1233.036-.1894.165-.1476.2881.0417.1232.1755.1939.2988.158l5.0289-1.4661c.1233-.0359.1894-.1649.1476-.2881zm-1.3408-1.8194c-.0417-.1232-.1755-.1939-.2988-.158l-4.8427 1.4118c-.1233.0359-.1894.1649-.1477.2881.0418.1231.1756.1938.2989.1579l4.8427-1.4117c.1233-.036.1894-.165.1476-.2881z" fill="#000" fill-rule="evenodd"/><path clip-rule="evenodd" d="m81.3669 76.6957c-.0394-.1224-.1699-.1951-.2931-.1633l-2.6686.689c-.8794.2145-1.7538.4281-2.4996.6455-.1219.0355-.1882.1623-.1488.2846.0395.1224.17.1951.2931.1633l2.4897-.6428c.011-.0026.022-.0053.033-.008l.0281-.0069c.9012-.2197 1.8178-.4436 2.6174-.6767.122-.0356.1882-.1623.1488-.2847zm.5221 2.2721c-.0418-.1231-.1756-.1939-.2989-.1579l-5.2102 1.5189c-.1233.0359-.1894.1649-.1477.2881.0418.1232.1756.1939.2989.1579l5.2102-1.5189c.1233-.0359.1894-.1649.1477-.2881z" fill="#000" fill-rule="evenodd"/><path clip-rule="evenodd" d="m81.8746 81.2365c-.0369-.1245-.168-.2001-.2928-.169l-5.348 1.3326c-.1248.0311-.1961.1572-.1592.2817s.168.2002.2929.1691l5.3479-1.3327c.1248-.0311.1961-.1572.1592-.2817zm-.5504 2.056c-.0418-.1231-.1756-.1939-.2989-.1579l-5.0382 1.4688c-.1233.0359-.1894.1649-.1477.2881.0418.1231.1756.1938.2989.1579l5.0382-1.4688c.1233-.0359.1894-.1649.1477-.2881z" fill="#000" fill-rule="evenodd"/><path clip-rule="evenodd" d="m81.3236 85.1471c-.0418-.1232-.1756-.1939-.2989-.158-1.3765.4013-2.6496.7269-3.9414 1.0572-.6535.1672-1.3118.3355-1.9908.5155-.1242.0329-.1936.1602-.1548.2842.0387.124.1709.1978.2952.1649.6707-.1779 1.3251-.3452 1.9768-.5119 1.2966-.3316 2.5827-.6605 3.9662-1.0638.1233-.036.1894-.165.1477-.2881zm-1.6975 2.3343c-.0306-.1259-.1581-.2077-.2846-.1828l-5.11 1.0051c-.1265.0249-.2042.1471-.1736.273.0307.1259.1581.2078.2846.1829l5.1101-1.0052c.1265-.0249.2042-.1471.1735-.273z" fill="#000" fill-rule="evenodd"/><path clip-rule="evenodd" d="m75.5031 68.1724c-.0419-.1232-.1757-.1938-.299-.1577l-4.0893 1.1963c-.1233.0361-.1893.1651-.1474.2883.0419.1231.1757.1937.299.1576l4.0893-1.1963c.1233-.036.1893-.1651.1474-.2882zm-2.6956-.5267c-.0418-.1232-.1756-.1939-.2989-.158-1.1057.3224-1.5176.4236-1.9118.5197l-.0187.0046c-.3936.096-.7806.1903-1.8057.4892-.1233.0359-.1894.1649-.1476.2881.0417.1231.1755.1939.2988.1579 1.0154-.296 1.3964-.3889 1.7836-.4833l.021-.0051c.4006-.0977.8192-.2007 1.9316-.525.1233-.036.1894-.1649.1477-.2881z" fill="#000" fill-rule="evenodd"/><path d="m64.1876 54.3661 18.118 2.9198c10.0776-11.3165-.905-24.3464-11.0527-21.589-10.1476 2.7574-8.9477 13.455-7.0653 18.6692z" fill="url(#V)"/><path clip-rule="evenodd" d="m65.6729 51.2171c-.6627.1803-1.2489.4372-1.5959.818-.1582.1735-.2579.3595-.2944.5563-.0367.1973-.0062.3867.0659.5604.1401.3372.443.63.7664.8703.6144.4566 1.4165.8041 1.7578.9519.0214.0093.041.0178.0587.0255.4489.1957 1.6886.562 3.2721.957 1.5916.3971 3.551.8282 5.4523 1.1513 1.8979.3226 3.751.5401 5.1244.5043.683-.0177 1.2719-.0983 1.6921-.2754.2118-.0893.3962-.2095.5248-.3735.1253-.1598.1879-.3492.1818-.5596.0057.0094.0114.0188.0172.0282.1494.2441.31.4863.486.6816.1743.1935.382.3618.6308.4261.1243.0321.2511-.0438.2834-.1695.0322-.1257-.0424-.2536-.1666-.2857-.1224-.0316-.2557-.124-.4034-.2879-.1461-.1622-.2886-.3742-.4346-.6129-.0695-.1135-.1382-.2304-.208-.3491l-.0093-.0159c-.0725-.1234-.1461-.2484-.2205-.3689-.1474-.2388-.3053-.4723-.4777-.6531-2.4473-2.5671-6.8218-3.8371-10.2302-4.008-.7974-.04-2.4302-.0771-4.0181.0621-.7935.0695-1.5834.1837-2.255.3665zm14.9183 2.8265c-.2074-.1096-.422-.2132-.6395-.311-1.1799-.5306-2.488-.9082-3.2966-1.1416-.1251-.0361-.2382-.0688-.337-.098-3.562-1.0537-6.9799-.6469-10.5221.0434-.1261.0246-.209.1478-.1852.2751.0238.1274.1454.2107.2715.1861 3.5269-.6873 6.8529-1.0745 10.3036-.0538.102.0302.2176.0636.3444.1003.8113.2343 2.0839.602 3.2311 1.1178.6632.2983 1.2704.6401 1.7167 1.0243.4483.386.7068.7905.7352 1.2129.0075.112-.0213.1982-.0801.2732-.063.0804-.1708.1602-.3384.2309-.3387.1428-.8575.222-1.5247.2393-1.3272.0346-3.1444-.1765-5.0354-.4979-1.8876-.3209-3.8354-.7493-5.4181-1.1442-1.5906-.3968-2.7921-.7547-3.1998-.9324-.0171-.0074-.0357-.0155-.0556-.0242-.3441-.1492-1.1008-.4775-1.67-.9005-.3043-.2261-.5235-.457-.614-.6748-.0431-.1038-.055-.1997-.0378-.2922.0173-.0932.0676-.2015.1789-.3237.2534-.278.7301-.5068 1.3738-.6819.6346-.1727 1.3943-.2838 2.1742-.3521 1.559-.1367 3.1689-.1003 3.9549-.0609 2.8168.1412 6.2592 1.048 8.67 2.7859z" fill="#000" fill-rule="evenodd"/><path clip-rule="evenodd" d="m78.9217 36.3367c3.1968 1.3492 5.9849 3.9897 6.8701 8.054.0011.0049.0023.0098.0037.0146 1.2828 4.5006-.0752 9.393-3.2594 12.2361-.0965.0862-.106.235-.0212.3323.0848.0974.2317.1064.3283.0202 3.3277-2.9712 4.7269-8.0531 3.4014-12.7136-.9259-4.2385-3.8379-6.9836-7.1424-8.3783-3.298-1.3919-7.0182-1.4522-9.5958-.2876-4.529 2.0463-6.6407 5.5366-7.1973 9.132-.5546 3.5822.4344 7.2631 2.0887 9.7237.0721.1073.2168.1347.3231.0613s.134-.2199.0619-.3272c-1.591-2.3664-2.5496-5.9276-2.0141-9.3867.5335-3.4459 2.5495-6.7959 6.9259-8.7732 2.4376-1.1014 6.022-1.0603 9.2271.2924z" fill="#000" fill-rule="evenodd"/><path clip-rule="evenodd" d="m82.9825 53.0307c-.1265-.0254-.2499.0575-.2755.1852-1.1795 5.8699-2.4353 14.8216-3.0426 19.529-.0167.1292.0736.2471.2015.2635.128.0163.2452-.0752.2619-.2044.6072-4.7066 1.8613-13.6439 3.0372-19.4961.0257-.1277-.0561-.2518-.1825-.2772z" fill="#000" fill-rule="evenodd"/><path clip-rule="evenodd" d="m64.7196 51.5583c-.1281.0202-.216.1409-.1964.2696 1.3419 8.8067 3.3157 21.0816 4.8143 27.1648.0311.1264.1583.203.284.1712.1258-.0318.2025-.1599.1714-.2862-1.4924-6.0581-3.463-18.3096-4.8059-27.123-.0196-.1287-.1393-.2166-.2674-.1964z" fill="#000" fill-rule="evenodd"/><path clip-rule="evenodd" d="m79.6141 52.639c-.1141-.0589-.254-.0124-.3123.1039-.4137.8241-.779 1.5291-1.0929 2.135-.5157.9951-.8928 1.7228-1.1179 2.2715-.0494.1204.0064.2584.1247.3081.1183.0498.2542-.0075.3036-.1279.2176-.5303.5786-1.2268 1.0832-2.2002.315-.6076.6858-1.3231 1.1126-2.1733.0584-.1163.0131-.2582-.101-.3171zm-2.533-.656c-.112-.063-.2534-.0217-.3158.0924-.3281.5991-.5687 1.036-.7604 1.3842-.6626 1.2032-.7414 1.3462-1.8323 3.4619-.0597.1156-.016.2581.0975.3183.1135.0601.2538.0152.3134-.1004 1.0881-2.1101 1.165-2.2498 1.8261-3.4504.1917-.348.4324-.7852.7611-1.3853.0624-.1141.0223-.2576-.0896-.3207zm4.3393 2.6444c-.1112-.0643-.253-.0246-.3167.0888l-1.487 2.646c-.0637.1133-.0252.2573.0861.3217.1112.0643.253.0245.3167-.0888l1.487-2.646c.0637-.1134.0252-.2574-.0861-.3217z" fill="#000" fill-rule="evenodd"/><path clip-rule="evenodd" d="m72.4139 50.623c-.1084-.069-.2517-.0354-.3201.0752-1.3366 2.1624-1.8555 3.1772-2.9584 5.3749-.0583.1163-.0131.2583.101.3171.1142.0589.254.0124.3123-.1039 1.1001-2.1922 1.6119-3.1929 2.9379-5.3382.0683-.1105.0358-.2561-.0727-.3251zm1.7822 1.6188c-.1128-.0615-.2536-.0182-.3145.0966l-1.8674 3.5197c-.061.1149-.019.2579.0938.3194s.2536.0182.3146-.0966l1.8673-3.5197c.061-.1149.019-.2579-.0938-.3194zm-4.7471-2.2549c-.112-.0631-.2533-.0217-.3158.0923-.3179.5804-.5536 1.0086-.7422 1.3514-.6791 1.2338-.7486 1.3601-1.8495 3.4949-.0596.1156-.0159.2581.0976.3183.1135.0601.2538.0152.3134-.1004 1.098-2.1293 1.1657-2.2523 1.8433-3.4835.1886-.3426.4244-.771.7428-1.3524.0624-.114.0223-.2576-.0896-.3206z" fill="#000" fill-rule="evenodd"/><path clip-rule="evenodd" d="m89.2212 67.2986c-.1086-.0691-.2519-.0356-.3202.0749-.1386.2243-.2751.4447-.4097.662-1.1548 1.8639-2.1687 3.5003-3.1591 5.4754-.0583.1162-.0129.2582.1013.3172.1143.059.2541.0126.3124-.1037.9802-1.9549 1.9828-3.5731 3.1388-5.439.1343-.2169.2708-.4371.4095-.6616.0683-.1105.0356-.2561-.073-.3252zm-2.8646-1.5499c-.1121-.0632-.2535-.0219-.3158.092-.5942 1.0855-1.2154 2.1584-1.8383 3.2341-.8956 1.5468-1.7947 3.0996-2.6217 4.7044-.0595.1156-.0157.2581.0979.3183.1135.0603.2539.0155.3134-.1001.8254-1.6017 1.7104-3.1295 2.5987-4.6632.6234-1.0762 1.2484-2.1553 1.8557-3.2648.0624-.114.0221-.2576-.0899-.3207zm2.6963 9.0429c-.1113-.0644-.2531-.0248-.3168.0885l-2.2286 3.9667c-.0636.1133-.0249.2573.0864.3217.1114.0644.2532.0248.3168-.0884l2.2286-3.9668c.0637-.1132.025-.2573-.0864-.3217zm-28.1258-3.4701c-.1121-.0632-.2535-.022-.3158.092-.7331 1.3393-1.2093 2.3079-1.6773 3.2813-.0713.1483-.1424.2967-.2142.4465-.3988.8324-.8183 1.7078-1.4114 2.8587-.0595.1155-.0157.258.0979.3183.1135.0602.2539.0154.3134-.1001.5964-1.1574 1.019-2.0392 1.418-2.8719.0716-.1495.1425-.2975.2135-.4451.466-.9693.9382-1.9298 1.6658-3.259.0624-.114.0221-.2576-.0899-.3207zm1.0281 2.886c-.112-.0632-.2534-.022-.3158.092-.7331 1.3393-1.2093 2.3079-1.6773 3.2813-.0713.1483-.1424.2967-.2142.4465-.3988.8324-.8183 1.7078-1.4114 2.8587-.0595.1155-.0157.258.0979.3183.1136.0602.2539.0154.3135-.1001.5964-1.1574 1.0189-2.0392 1.4179-2.8719.0716-.1495.1425-.2975.2135-.4451.4661-.9693.9383-1.9298 1.6658-3.259.0624-.114.0222-.2576-.0899-.3207z" fill="#000" fill-rule="evenodd"/><path clip-rule="evenodd" d="m69.1617 77.3629c-.06-.0417-.1463-.081-.2491-.0674-.1216.0162-.2008.0967-.2445.1729-.0418.0727-.0624.1576-.0728.2392-.0209.1653-.0075.3853.04.652.0392.22.1659.4563.314.6581.1507.2052.3423.4004.5383.5326.098.0661.2051.1219.3151.1516s.2386.0371.3626-.0166c.2634-.114.346-.4162.3463-.7458.0001-.0251.0003-.0536.0007-.0851.002-.2022.0052-.5237-.0519-.8121-.0632-.3194-.2305-.7345-.6884-.7856-.1128-.0127-.2196-.0194-.3143-.0102-.0959.0093-.2.0366-.2886.1101-.0025.0021-.005.0042-.0074.0063zm.3737 1.0355c.0724-.0602.1047-.1617.0735-.2572-.048-.1466-.0995-.2758-.1532-.3858.0009-.0045.0019-.0087.0028-.0127.0024-.0098.0047-.0165.0064-.0209.0063-.0018.0176-.0043.0358-.0061.0429-.0041.1051-.0025.197.007.0025.0118.006.0235.0104.0351.1602.4178.1817.6788.1571.8172-.0119.0664-.0316.0905-.0371.096-.0001.0001-.0002.0002-.0003.0003-.0025.0026-.0039.0039-.012.004-.0289.0001-.1186-.0282-.2126-.1599-.0241-.0338-.0471-.0729-.0678-.117zm-.0673-.6835s-.0002.0003-.0005.0009c.0004-.0005.0005-.0009.0005-.0009zm.248 1.4225c.0096.007.0192.0136.0287.0201.0714.0482.1319.0764.1779.0888.0224.0061.0382.0075.0483.0073.0094-.0002.013-.0017.0132-.0018l.0008-.0005c.0004-.0003.0016-.0012.0035-.0033.0038-.0042.012-.0148.0212-.037.011-.0265.0217-.0652.0289-.1194-.0688.0365-.1444.0545-.2211.055-.0343.0002-.0682-.003-.1014-.0092zm-.2577-1.4133c-.0003.0001-.0005.0002-.0005.0002s.0002 0 .0005-.0002z" fill="#000" fill-rule="evenodd"/><path d="m74.934 47.441c0 .1262.1007.2285.225.2285h3.6266.0105.0104.1075v-.0024c1.5805-.0629 2.8427-1.3838 2.8427-3.0041 0-1.5764-1.1948-2.8694-2.715-2.9962-.1078-.009-.1988-.0883-.2214-.1959-.4106-1.9554-2.1214-3.4221-4.1696-3.4221-2.3546 0-4.2633 1.9383-4.2633 4.3293 0 .0252-.0177.0469-.0421.0519-1.1918.2431-2.0894 1.312-2.0894 2.5938 0 1.4611 1.1664 2.6456 2.6052 2.6456l2.9976.0001c.1242 0 .225-.1023.225-.2285v-.7167c0-.1152-.0847-.2114-.196-.2331-.4686-.0912-.8697-.2876-1.1443-.5686-.2456-.2514-.3923-.5627-.4378-.9285-.0158-.1265.0876-.2309.2132-.2303l.5012.0024c.1203.0006.2161.0982.2435.2171.1151.4995.5603.8285 1.2198.8317.257.0012 1.2152-.1207 1.2183-.7933.0025-.5378-.6939-.7418-1.3528-.9069-.1123-.0281-.2267-.0569-.3411-.088-.7452-.201-1.5335-.4311-1.529-1.3992.0043-.9405.7838-1.4255 1.605-1.5243v-.9019c0-.1262.1007-.2285.225-.2285h.3994c.1243 0 .225.1023.225.2285v.9264c.5922.0971 1.3897.4015 1.525 1.3285.0185.1273-.0854.2339-.2122.2333l-.5036-.0024c-.1155-.0005-.2087-.0913-.2432-.2033-.1306-.4234-.5401-.6801-1.1396-.683-.3989-.0018-.9769.213-.9792.7039-.002.4448.3333.5964 1.5844.9247l.1656.0429c.0209.0052.0433.0107.0668.0165.4766.1167 1.4546.3562 1.4497 1.4209-.0039.8404-.5693 1.4153-1.5141 1.5864-.1126.0204-.1987.117-.1987.2332z" fill="#fff"/></svg>