<svg width="320" height="180" fill="none" xmlns="http://www.w3.org/2000/svg"><path opacity=".7" d="M276.382 125.717C276.382 155.697 224.276 180 160 180c-64.276 0-116.382-24.303-116.382-54.283S95.724 71.434 160 71.434c64.276 0 116.382 24.304 116.382 54.283Z" fill="url(#a)" fill-opacity=".1"/><path d="M116.948 113.45V45.711l66.292-6.766 25.674 16.571-1.867 57.934h8.169l3.968 3.218v30.109l-56.95 7.935-3.968-3.734v-2.567l-14.646-13.793h-8.044l-18.628-21.168Z" fill="#fff"/><path fill-rule="evenodd" clip-rule="evenodd" d="M186.232 102.827a.498.498 0 0 1-.353-.612l2.327-8.684a.5.5 0 1 1 .966.258l-2.327 8.685a.5.5 0 0 1-.613.353Zm3.54 2.895a.5.5 0 0 1-.353-.612l3.102-11.58a.5.5 0 0 1 .966.26l-3.102 11.579a.5.5 0 0 1-.613.353Zm3.103 2.312a.5.5 0 0 1-.354-.612l3.723-13.891a.5.5 0 1 1 .966.258l-3.723 13.892a.5.5 0 0 1-.612.353Zm3.523 2.526a.5.5 0 0 1-.354-.612l1.297-4.838a.5.5 0 1 1 .966.259l-1.297 4.837a.5.5 0 0 1-.612.354ZM118.799 116.078a.501.501 0 0 1-.354-.613l15.474-57.749a.5.5 0 0 1 .966.26l-15.474 57.748a.5.5 0 0 1-.612.354ZM116.457 77.547a.499.499 0 0 1-.353-.613l7.304-27.26a.5.5 0 1 1 .966.259l-7.304 27.26a.5.5 0 0 1-.613.354ZM128.021 128.271a.5.5 0 0 1-.347-.616l5.824-20.836a.5.5 0 0 1 .963.269l-5.824 20.836a.5.5 0 0 1-.616.347ZM121.369 118.838a.5.5 0 0 1-.353-.613l14.436-53.464a.5.5 0 1 1 .965.261l-14.435 53.463a.5.5 0 0 1-.613.353ZM116.042 91.454a.5.5 0 0 1-.353-.612l10.469-39.073a.5.5 0 0 1 .966.258L116.654 91.1a.5.5 0 0 1-.612.354ZM130.775 131.277a.501.501 0 0 1-.354-.613l3.571-13.324a.5.5 0 0 1 .966.259l-3.571 13.324a.5.5 0 0 1-.612.354ZM115.317 58.983a.5.5 0 0 1-.354-.612l3.318-12.38a.5.5 0 1 1 .965.26l-3.317 12.379a.5.5 0 0 1-.612.353ZM123.803 122.05a.5.5 0 0 1-.353-.613l10.44-38.896a.5.5 0 0 1 .966.259l-10.44 38.896a.501.501 0 0 1-.613.354ZM116.333 102.727a.5.5 0 0 1-.353-.613l12.796-47.758a.5.5 0 0 1 .966.258l-12.797 47.759a.5.5 0 0 1-.612.354ZM133.433 133.711a.5.5 0 0 1-.353-.613l1.823-6.806a.501.501 0 0 1 .966.259l-1.823 6.806a.501.501 0 0 1-.613.354ZM116.106 67.367a.5.5 0 0 1-.354-.612l4.787-17.865a.5.5 0 1 1 .966.26l-4.787 17.863a.5.5 0 0 1-.612.354ZM126.064 125.009a.5.5 0 0 1-.353-.613l8.096-30.217a.5.5 0 0 1 .966.26l-8.097 30.216a.5.5 0 0 1-.612.354ZM116.592 113.089a.5.5 0 0 1-.354-.612l15.059-56.201a.5.5 0 0 1 .966.259l-15.059 56.201a.498.498 0 0 1-.612.353Z" fill="#000"/><path fill-rule="evenodd" clip-rule="evenodd" d="M217.188 55.545a.5.5 0 0 1-.465.532c-2.688.18-5.484.37-8.364.566-24.416 1.66-54.927 3.733-77.773 4.106a.5.5 0 0 1-.016-1c22.818-.373 53.3-2.444 77.722-4.103 2.88-.196 5.675-.386 8.364-.567a.5.5 0 0 1 .532.466Z" fill="#000"/><path fill-rule="evenodd" clip-rule="evenodd" d="M113.502 43.936a.5.5 0 0 1 .69-.153c3.241 2.064 6.618 4.497 10.057 6.974 1.613 1.162 3.239 2.333 4.871 3.481 5.13 3.608 10.336 6.996 15.464 9.208a.5.5 0 0 1-.396.919c-5.228-2.256-10.505-5.695-15.643-9.309-1.654-1.163-3.292-2.343-4.911-3.51-3.425-2.467-6.762-4.871-9.979-6.92a.5.5 0 0 1-.153-.69ZM178.711 36.4a.5.5 0 0 1 .698-.116l1.344.964c6.9 4.95 13.79 9.892 20.919 14.48.969.623 2.385 1.444 3.896 2.32l1.125.653c1.899 1.105 3.814 2.243 5.01 3.113a.5.5 0 1 1-.588.809c-1.147-.834-3.016-1.946-4.925-3.058l-1.112-.645c-1.513-.877-2.957-1.714-3.947-2.351-7.151-4.602-14.061-9.559-20.956-14.505l-1.349-.967a.5.5 0 0 1-.115-.698Z" fill="#000"/><path fill-rule="evenodd" clip-rule="evenodd" d="M189.549 38.455a.5.5 0 0 1-.433.56c-19.119 2.438-56.499 6.44-75.789 6.908a.5.5 0 1 1-.025-1c19.234-.467 56.569-4.462 75.688-6.9a.5.5 0 0 1 .559.432Z" fill="#000"/><path fill-rule="evenodd" clip-rule="evenodd" d="M116.188 39.644a.5.5 0 0 1 .463.535c-.447 6.238-.294 13.941-.105 21.676l.038 1.542c.178 7.206.356 14.354.067 20.233-.414 8.433-.144 22.261 1.018 30.573a.5.5 0 1 1-.99.138c-1.173-8.393-1.443-22.287-1.027-30.76.287-5.84.111-12.953-.068-20.172l-.038-1.53c-.189-7.724-.344-15.477.107-21.772a.5.5 0 0 1 .535-.463ZM137.563 53.866a.5.5 0 0 1 .413.574c-2.27 13.92-2.954 28.138-3.058 41.814v8.221c.035 5.235.128 10.375.217 15.356.106 5.846.207 11.474.207 16.781a.5.5 0 1 1-1 0c0-5.313-.101-10.915-.206-16.744-.09-4.977-.183-10.119-.218-15.388a579.118 579.118 0 0 1 0-8.231c.104-13.702.789-27.977 3.071-41.97a.5.5 0 0 1 .574-.413ZM208.584 49.156a.5.5 0 0 1 .453.542c-1.711 19.12-2.155 51.071-2.155 63.82a.5.5 0 0 1-1 0c0-12.751.444-44.741 2.159-63.909a.5.5 0 0 1 .543-.453Z" fill="#000"/><path fill-rule="evenodd" clip-rule="evenodd" d="M115.726 111.774a.5.5 0 0 1 .705.054c2.583 3.003 5.035 6.062 7.477 9.106 4.606 5.745 9.172 11.438 14.492 16.611a.5.5 0 1 1-.697.717c-5.361-5.212-9.999-10.995-14.633-16.772-2.432-3.032-4.863-6.064-7.397-9.01a.5.5 0 0 1 .053-.706Z" fill="#000"/><path fill-rule="evenodd" clip-rule="evenodd" d="M144.557 133.92a.5.5 0 0 1-.452.544c-1.088.098-2.051.191-2.939.276-3.663.353-6.047.582-10.584.616a.5.5 0 0 1-.008-1c4.49-.033 6.831-.259 10.486-.61.89-.086 1.858-.179 2.954-.278a.5.5 0 0 1 .543.452ZM198.915 66.924a.5.5 0 0 1-.468.53c-14.272.899-28.533 1.859-42.796 2.82-5.605.377-11.21.755-16.816 1.128a.5.5 0 1 1-.066-.997c5.604-.374 11.208-.752 16.812-1.129 14.265-.96 28.529-1.921 42.804-2.82a.5.5 0 0 1 .53.468Z" fill="#000"/><path fill-rule="evenodd" clip-rule="evenodd" d="M197.87 63.863a.5.5 0 0 1 .5.5v47.027a.5.5 0 0 1-1 0V64.363a.5.5 0 0 1 .5-.5ZM143.338 69.655a.5.5 0 0 1 .462.535c-.492 6.648-.333 12.715-.169 18.999.085 3.228.171 6.514.171 9.965a.5.5 0 0 1-1 0c0-3.395-.085-6.654-.169-9.872-.165-6.316-.326-12.471.17-19.165a.5.5 0 0 1 .535-.462Z" fill="#000"/><path fill-rule="evenodd" clip-rule="evenodd" d="M199.8 92.86a.5.5 0 0 1-.454.542c-6.867.605-13.492 1.153-20.1 1.7-11.995.992-23.931 1.98-37.145 3.3a.5.5 0 0 1-.099-.996c13.22-1.32 25.173-2.31 37.174-3.302 6.606-.546 13.227-1.094 20.082-1.698a.5.5 0 0 1 .542.454Z" fill="#000"/><path fill-rule="evenodd" clip-rule="evenodd" d="M143.16 97.484a.5.5 0 0 1 .489.511c-.065 2.815-.174 5.73-.285 8.681-.348 9.296-.71 18.957.281 26.996a.501.501 0 0 1-.993.122c-1.001-8.126-.634-17.907-.285-27.221.11-2.935.219-5.824.282-8.6a.5.5 0 0 1 .511-.489Z" fill="#000"/><path fill-rule="evenodd" clip-rule="evenodd" d="M143.569 133.879a.5.5 0 0 1 .707-.014c5.448 5.226 9.52 9.512 13.225 13.412l.36.379a.5.5 0 0 1-.725.689l-.358-.377c-3.704-3.9-7.763-8.172-13.194-13.382a.5.5 0 0 1-.015-.707ZM141.948 114.05a.5.5 0 0 1 .707 0c5.171 5.171 11.368 12.7 15.414 18.768a.5.5 0 1 1-.833.554c-4.007-6.011-10.162-13.489-15.288-18.615a.5.5 0 0 1 0-.707ZM157.145 149.952a.5.5 0 0 1 .707-.004l.579.576c1.407 1.4 2.777 2.764 4.356 3.87a.5.5 0 1 1-.574.819c-1.655-1.159-3.09-2.588-4.49-3.983l-.575-.571a.5.5 0 0 1-.003-.707Z" fill="#000"/><path fill-rule="evenodd" clip-rule="evenodd" d="M220.837 146.507a.501.501 0 0 1 .168.986l-.084-.493-.084-.493Zm-19.379 4.045c-11.383 1.67-25.999 3.623-38.915 4.749a.5.5 0 1 1-.086-.996c12.886-1.124 27.48-3.073 38.856-4.742a1042.167 1042.167 0 0 0 18.074-2.813l1.078-.18.372-.063.084.493.084.493-.374.063-1.081.18c-.943.157-2.318.382-4.05.661-3.463.555-8.349 1.32-14.042 2.155ZM183.646 101.08a.5.5 0 0 1 .702-.084l9.849 7.739 6.129 4.814-.309.394-.309.393-6.129-4.815-9.849-7.739a.5.5 0 0 1-.084-.702Zm16.765 13.172a.5.5 0 0 1-.703.084l.309-.393.309-.394a.502.502 0 0 1 .085.703ZM183.229 108.091a.5.5 0 0 1 .704-.065 240.997 240.997 0 0 1 2.728 2.301c1.52 1.297 2.328 1.987 5.127 4.066a.5.5 0 0 1-.596.803c-2.827-2.1-3.661-2.811-5.194-4.12-.683-.583-1.505-1.285-2.704-2.28a.5.5 0 0 1-.065-.705Z" fill="#000"/><path fill-rule="evenodd" clip-rule="evenodd" d="M183.859 94.292a.5.5 0 0 1 .488.512c-.067 2.923-.048 5.309-.025 8.149.012 1.612.026 3.371.026 5.458a.5.5 0 0 1-1 0c0-2.067-.014-3.819-.026-5.43-.023-2.853-.042-5.263.026-8.2a.5.5 0 0 1 .511-.489Z" fill="#000"/><path fill-rule="evenodd" clip-rule="evenodd" d="M183.685 108.785a.5.5 0 0 1-.446.549c-7.596.779-13.696 1.348-19.795 1.916l-.075.007c-6.074.566-12.151 1.133-19.71 1.907a.5.5 0 0 1-.102-.995c7.564-.774 13.645-1.341 19.718-1.907l.077-.007c6.098-.569 12.194-1.137 19.785-1.916a.5.5 0 0 1 .548.446Z" fill="#000"/><path opacity=".1" d="M176.191 133.05c14.477 0 26.213-11.711 26.213-26.157 0-14.445-11.736-26.156-26.213-26.156s-26.213 11.71-26.213 26.156c0 14.446 11.736 26.157 26.213 26.157Z" fill="#00ADE4"/><path opacity=".2" d="M175.631 123.355c9.42 0 17.056-7.62 17.056-17.02 0-9.399-7.636-17.019-17.056-17.019-9.42 0-17.056 7.62-17.056 17.019 0 9.4 7.636 17.02 17.056 17.02Z" fill="#00ADE4"/><path opacity=".3" d="M175.981 114.636c4.942 0 8.947-3.998 8.947-8.928 0-4.931-4.005-8.928-8.947-8.928-4.941 0-8.947 3.997-8.947 8.928 0 4.93 4.006 8.928 8.947 8.928Z" fill="#00ADE4"/><path d="M158.605 119.519v31.668l3.151 2.837 58.139-6.775v-31.197l-5.042-3.466-56.248 6.933Z" fill="#fff"/><path fill-rule="evenodd" clip-rule="evenodd" d="M156.946 117.802a.5.5 0 0 1 .707-.004c.195.192.388.384.58.576 1.407 1.401 2.777 2.765 4.355 3.87.227.158.282.47.123.696a.498.498 0 0 1-.696.123c-1.655-1.158-3.09-2.588-4.49-3.983l-.575-.571a.5.5 0 0 1-.004-.707Z" fill="#000"/><path fill-rule="evenodd" clip-rule="evenodd" d="M158.052 118.154a.5.5 0 0 1 .5.5c0 3.056.04 6.533.082 10.164.091 7.769.189 16.243-.083 22.804a.5.5 0 1 1-.999-.041c.271-6.535.173-14.957.083-22.711a903.156 903.156 0 0 1-.083-10.216.5.5 0 0 1 .5-.5ZM223.03 116.185a.499.499 0 0 1-.495.504c-13.713.123-28.461 1.99-42.788 3.804-6.252.792-12.424 1.574-18.395 2.196a.5.5 0 0 1-.104-.995c5.922-.617 12.066-1.395 18.303-2.184 14.354-1.818 29.201-3.698 42.975-3.821a.5.5 0 0 1 .504.496Z" fill="#000"/><path fill-rule="evenodd" clip-rule="evenodd" d="M219.005 111.948a.5.5 0 0 1-.413.574c-10.259 1.67-20.615 2.725-30.972 3.695l-4.956.459c-8.707.804-17.403 1.607-26.048 2.723a.5.5 0 1 1-.128-.991c8.664-1.119 17.382-1.924 26.088-2.728 1.651-.152 3.301-.305 4.951-.459 10.355-.969 20.682-2.022 30.904-3.686a.5.5 0 0 1 .574.413Z" fill="#000"/><path fill-rule="evenodd" clip-rule="evenodd" d="M213.115 111.66a.5.5 0 0 1 .68-.193 545.211 545.211 0 0 0 8.742 4.745.5.5 0 0 1-.47.883 541.529 541.529 0 0 1-8.759-4.755.5.5 0 0 1-.193-.68Z" fill="#000"/><path fill-rule="evenodd" clip-rule="evenodd" d="M219.775 114.404a.5.5 0 0 1 .526.472c.31 5.637.127 15.563-.017 23.333-.064 3.496-.121 6.555-.121 8.591a.5.5 0 0 1-1 0c0-2.073.057-5.164.122-8.682.144-7.755.325-17.587.018-23.187a.5.5 0 0 1 .472-.527ZM161.772 119.155a.499.499 0 0 1 .53.468c.558 9.001.349 18.484.164 26.898-.085 3.832-.164 7.441-.164 10.683a.5.5 0 0 1-1 0c0-3.283.08-6.917.165-10.763.185-8.394.392-17.797-.163-26.756a.5.5 0 0 1 .468-.53ZM242.721 132.297a.5.5 0 0 1-.603.37l-11.621-2.774a.5.5 0 0 1 .232-.973l11.621 2.774a.5.5 0 0 1 .371.603ZM147.642 147.277a.5.5 0 0 1-.405.58l-11.763 2.095a.5.5 0 0 1-.175-.984l11.763-2.095a.5.5 0 0 1 .58.404ZM218.454 103.602a.5.5 0 0 1-.297-.642l4.023-10.97a.5.5 0 0 1 .939.344l-4.023 10.97a.5.5 0 0 1-.642.298ZM229.168 112.407a.5.5 0 0 1 .177-.684l10.733-6.328a.5.5 0 0 1 .508.861l-10.733 6.328a.5.5 0 0 1-.685-.177ZM151.511 155.491a.501.501 0 0 1 .052.706l-5.763 6.672a.5.5 0 1 1-.757-.654l5.763-6.672a.5.5 0 0 1 .705-.052ZM216.035 157.114a.5.5 0 0 1 .677.205c.714 1.33 1.254 2.699 1.76 4.054l.285.767c.406 1.1.806 2.183 1.283 3.253a.5.5 0 0 1-.914.407c-.491-1.103-.905-2.224-1.312-3.325l-.279-.753c-.503-1.348-1.024-2.663-1.704-3.93a.501.501 0 0 1 .204-.678ZM186.804 172.748a.5.5 0 0 1-.48-.519c.07-1.782.071-4.162.053-6.102a288.67 288.67 0 0 0-.033-2.439l-.014-.724-.004-.195-.002-.066.5-.013.5-.012.001.069.005.196.014.727c.011.616.024 1.476.033 2.448.018 1.942.018 4.342-.053 6.15a.5.5 0 0 1-.52.48Zm.008-10.558a.501.501 0 0 1 .512.488l-.5.012-.5.012a.501.501 0 0 1 .488-.512Z" fill="#000"/><defs><radialGradient id="a" cx="0" cy="0" r="1" gradientUnits="userSpaceOnUse" gradientTransform="rotate(90.993 21.034 147.397) scale(29.6583 63.588)"><stop/><stop offset="1" stop-color="#3E7BFA" stop-opacity="0"/></radialGradient></defs></svg>