<svg fill="none" height="86" viewBox="0 0 94 86" width="94" xmlns="http://www.w3.org/2000/svg"><path d="m57.8923 9.26808 8.9877 3.16092 4.604 3.0694 14.3233-3.0694v32.7399l5.4261 2.7748v13.781l-14.2255 15.1146-45.7884 4.6504-26.22836-9.9849v-19.1156l16.89286-14.6701v-22.2207l25.3392-9.34215z" fill="#fff"/><g clip-rule="evenodd" fill="#000" fill-rule="evenodd"><path d="m88.6255 49.6193c.0024-.2741-.2211-.4964-.4993-.4964-1.4851 0-5.1654-.5152-8.8865-1.0996-2.4052-.3778-4.7784-.7761-6.5493-1.0733-.9651-.162-1.7513-.294-2.2663-.3762-.2742-.0438-.5344.1401-.5812.4106-.0468.2706.1375.5255.4117.5693.4933.0787 1.2682.2088 2.2252.3694 1.781.2988 4.1926.7035 6.593 1.0805 3.6849.5787 7.4603 1.112 9.0447 1.112.2782 0 .5056-.2222.508-.4963z"/><path d="m71.7063 14.7545c.0853-.2627-.0593-.5424-.3228-.6248-7.1178-2.2242-16.0136-4.89294-27.1321-8.00613-.266-.07447-.5443.08001-.6217.34505-.0773.26503.0756.54026.3415.61473 11.1089 3.11045 19.995 5.77635 27.1035 7.99765.2636.0824.5463-.0638.6316-.3265zm-34.2389 39.0922c.0969-.2587-.035-.5447-.2945-.6386-4.8486-1.7549-10.2138-3.8212-17.3247-6.6147-.2568-.1009-.5491.025-.6529.2811-.1039.2562.0201.5456.2769.6465 7.1125 2.7942 12.488 4.8646 17.35 6.6243.2595.0939.5483-.0398.6452-.2986zm8.8058-28.8647c.0869-.2622-.0559-.5428-.3189-.6268-8.3375-2.6621-15.4379-5.3245-27.8831-10.2137-.2567-.1009-.5491.025-.6529.2812-.1039.2561.0201.5455.2769.6464 12.4495 4.8909 19.5747 7.5631 27.9444 10.2356.263.084.5467-.0605.6336-.3227z"/><path d="m86.7881 10.1094c-.2762 0-.5.2238-.5.5v38.8749c0 .2762.2238.5.5.5.2761 0 .5-.2238.5-.5v-38.8749c0-.2762-.2239-.5-.5-.5zm-16.004 1.3336c-.2761 0-.5.2239-.5.5v37.5413c0 .2762.2239.5.5.5.2762 0 .5-.2238.5-.5v-37.5413c0-.2761-.2238-.5-.5-.5zm-48.7887 3.1116c-.2761 0-.5.2238-.5.5v32.7329c0 .2762.2239.5.5.5.2762 0 .5-.2238.5-.5v-32.7329c0-.2762-.2238-.5-.5-.5zm22.1161 3.5566c-.2761 0-.5.2239-.5.5v39.076c0 .2762.2239.5.5.5s.5-.2238.5-.5v-39.076c0-.2761-.2239-.5-.5-.5zm5.7791 3.1116c-.2761 0-.5.2239-.5.5v18.2266c0 .2762.2239.5.5.5.2762 0 .5-.2238.5-.5v-18.2266c0-.2761-.2238-.5-.5-.5zm-12.0028 4.0008c-.2761 0-.5.2238-.5.5v36.0088c0 .2761.2239.5.5.5.2762 0 .5-.2239.5-.5v-36.0088c0-.2762-.2238-.5-.5-.5z"/><path d="m5.43555 46.1172c-.27615 0-.5.2238-.5.5v27.1395c0 .2761.22385.5.5.5.27614 0 .5-.2239.5-.5v-27.1395c0-.2762-.22386-.5-.5-.5z"/><path d="m31.2188 59.8984c-.2762 0-.5.2239-.5.5v24.8947c0 .2762.2238.5.5.5.2761 0 .5-.2238.5-.5v-24.8947c0-.2761-.2239-.5-.5-.5z"/><path d="m75.6738 55.4531c-.2761 0-.5.2239-.5.5v24.0056c0 .2761.2239.5.5.5.2762 0 .5-.2239.5-.5v-24.0056c0-.2761-.2238-.5-.5-.5z"/><path d="m90.7891 42.5625c.2761 0 .5.2239.5.5v22.5998c0 .2761-.2239.5-.5.5-.2762 0-.5-.2239-.5-.5v-22.5998c0-.2761.2238-.5.5-.5z"/><path d="m92.0662 46.7477c-.1738-.2145-.4887-.2475-.7032-.0737-1.5752 1.2763-3.136 2.5666-4.7123 3.8698-4.074 3.3681-8.2518 6.822-13.0506 10.341-.2227.1633-.2708.4762-.1075.6989s.4762.2708.6989.1075c4.8238-3.5374 9.0355-7.0193 13.1171-10.3936 1.5714-1.2992 3.1235-2.5823 4.6839-3.8466.2145-.1738.2475-.4887.0737-.7033z"/><path d="m92.8939 60.0206c-.2087-.1809-.5245-.1583-.7053.0504-5.3345 6.1552-10.6683 11.1697-17.437 17.5333-.5385.5062-1.0861 1.021-1.6434 1.5456-.2011.1893-.2107.5057-.0215.7068.1893.2011.5057.2107.7068.0214.5599-.5269 1.1102-1.0443 1.6515-1.5532 6.7598-6.355 12.1299-11.4036 17.4992-17.599.1809-.2087.1583-.5244-.0503-.7053z"/><path d="m72.1436 13.996c-.0929-.26-.379-.3955-.6391-.3027-6.2176 2.2206-22.2119 7.552-29.7576 9.7713-.2649.0779-.4165.3558-.3386.6207.078.265.3559.4165.6208.3386 7.569-2.2261 23.5821-7.5639 29.8118-9.7888.26-.0929.3956-.379.3027-.6391z"/><path d="m71.6993 46.0038c-.0929-.26-.379-.3955-.6391-.3027-6.2176 2.2206-22.2119 7.552-29.7576 9.7713-.2649.0779-.4165.3558-.3386.6207.0779.265.3558.4166.6208.3386 7.5689-2.2261 23.582-7.5639 29.8117-9.7888.2601-.0929.3956-.379.3028-.6391z"/><path d="m49.4717 6.88666c-.0929-.26006-.379-.39558-.639-.30271-6.2177 2.22058-22.212 7.55195-29.7576 9.77125-.265.0779-.4166.3558-.3386.6208.0779.2649.3558.4165.6207.3386 7.569-2.2262 23.5821-7.56401 29.8118-9.78891.2601-.09287.3956-.37898.3027-.63903z"/><path d="m91.2866 12.3418c-.0245-.2751-.2674-.4782-.5424-.4536l-19.9264 1.7782c-.275.0245-.4781.2674-.4535.5424.0245.2751.2674.4782.5424.4536l19.9264-1.7782c.275-.0245.4781-.2674.4535-.5424z"/><path d="m44.9716 22.7774c-.1531-.2298-.4636-.2919-.6933-.1387-2.6894 1.7929-6.7068 4.9183-9.8281 7.5937-.2097.1797-.234.4954-.0543.705.1797.2097.4954.234.7051.0543 3.1023-2.6592 7.0867-5.7574 9.732-7.5209.2297-.1532.2918-.4636.1386-.6934zm-.0701 31.0351c-.1991-.1913-.5157-.1849-.707.0142-1.3881 1.4453-2.5191 3.0307-3.6244 4.6224-.108.1556-.2158.3112-.3236.4668-1 1.4439-1.9975 2.8842-3.1829 4.2673-.1796.2097-.1553.5253.0543.705.2097.1797.5254.1554.7051-.0543 1.2207-1.4244 2.2476-2.9074 3.2438-4.346.1086-.1567.2167-.3129.3247-.4685 1.105-1.5912 2.1965-3.1176 3.5243-4.5.1912-.1991.1849-.5156-.0143-.7069z"/><path d="m.0974503 50.3937c-.1234932.247-.0233841.5473.2236057.6708 10.473944 5.237 19.998944 9.0361 27.653144 12.089 2.7553 1.099 5.2682 2.1013 7.4957 3.0391.2545.1072.5477-.0123.6549-.2668.1071-.2545-.0123-.5477-.2668-.6548-2.2521-.9482-4.7814-1.9571-7.5481-3.0606-7.6477-3.0503-17.109-6.824-27.541631-12.0403-.246987-.1235-.547326-.0234-.6708187.2236z"/><path d="m2.31712 69.0718c-.12006.2487-.01578.5476.2329.6677 9.52938 4.6003 16.40808 7.0256 24.16558 9.7608 2.7606.9733 5.6325 1.9859 8.7747 3.1496.2589.0959.5466-.0362.6425-.2952.0959-.2589-.0363-.5466-.2952-.6425-3.169-1.1737-6.0553-2.1914-8.8228-3.1672-7.7415-2.7295-14.5543-5.1316-24.03003-9.7061-.24868-.1201-.5476-.0158-.66765.2329z"/><path d="m22.2587 37.3958c-.1827-.2071-.4987-.2269-.7057-.0442-2.0864 1.841-3.8663 3.4432-5.5265 4.9377-4.3654 3.9297-7.90382 7.1149-14.01264 11.9376-.21674.1712-.25373.4856-.08262.7023s.48553.2537.70227.0826c6.13575-4.844 9.70359-8.0557 14.07779-11.9933 1.6575-1.492 3.4307-3.0883 5.5033-4.917.2071-.1827.2268-.4987.0441-.7057z"/><path d="m74.3617 48.1334c-.0997.2575-.3892.3855-.6467.2859-4.377-1.6935-9.2322-3.3791-14.097-5.0681-3.6576-1.2698-7.3207-2.5416-10.7902-3.82-.2591-.0955-.3917-.3829-.2963-.642.0955-.2592.383-.3918.6421-.2963 3.4245 1.2618 7.0773 2.5303 10.7355 3.8007 4.8899 1.6981 9.7895 3.3995 14.1667 5.0931.2575.0996.3855.3892.2859.6467z"/><path d="m52.1447 38.9122c-.0831-.2633-.3639-.4095-.6272-.3264-2.2219.7007-4.81 1.514-7.5557 2.3695-.2637.0822-.4108.3625-.3286.6261.0821.2637.3624.4108.6261.3286 2.7471-.8559 5.3364-1.6696 7.5589-2.3705.2634-.0831.4095-.3639.3265-.6273z"/><path d="m80.6178 77.2533c-.0198-.2755-.2591-.4827-.5345-.4629-7.3068.5249-15.0842 1.1391-22.7281 1.7427-11.103.8768-21.9242 1.7313-30.6121 2.2578-.2756.0167-.4855.2537-.4688.5294.0167.2756.2537.4855.5293.4688 8.6931-.5269 19.5347-1.3829 30.6483-2.2605 7.6425-.6035 15.4137-1.2171 22.703-1.7408.2755-.0198.4827-.2591.4629-.5345z"/><path d="m81.5062 59.4685c-.0217-.2753-.2625-.4808-.5378-.4591-6.1389.4846-13.5538 1.2219-21.1667 1.9788-13.3937 1.3317-27.4006 2.7244-36.1512 2.9098-.276.0058-.4951.2344-.4893.5105.0059.276.2344.4951.5105.4892 8.7844-.186 22.8781-1.5869 36.3049-2.9215 7.5981-.7553 14.9826-1.4893 21.0705-1.9699.2753-.0217.4809-.2625.4591-.5378z"/><path d="m86.4081 44.0652c-.1797.2097-.1554.5254.0542.7051 1.7933 1.537 3.6343 2.7228 6.7697 4.2939.2468.1237.5473.0238.671-.2231s.0238-.5473-.2231-.671c-3.0882-1.5474-4.854-2.691-6.5668-4.1591-.2096-.1797-.5253-.1554-.705.0542z"/><path d="m87.8146 49.6873c-.2674.0689-.4283.3415-.3594.6089l3.0932 12.0028c.0689.2674.3415.4283.6089.3594s.4284-.3415.3594-.6089l-3.0931-12.0028c-.0689-.2674-.3415-.4283-.609-.3594zm-3.9307 3.5564c-.2674.0689-.4283.3415-.3594.6089l3.0932 12.0028c.0689.2674.3415.4283.6089.3594s.4283-.3415.3594-.609l-3.0931-12.0027c-.0689-.2674-.3416-.4283-.609-.3594z"/><path d="m80.385 55.8982c-.2674.0689-.4284.3416-.3594.609l3.4393 13.3463c.0689.2674.3416.4283.609.3594s.4283-.3415.3594-.6089l-3.4394-13.3464c-.0689-.2674-.3415-.4283-.6089-.3594zm-3.5514 2.6772c-.2674.0689-.4283.3416-.3594.609l3.5514 13.781c.0689.2674.3415.4283.6089.3594s.4283-.3416.3594-.609l-3.5514-13.781c-.0689-.2674-.3415-.4283-.6089-.3594zm-4.5036 1.3337c-.2674.0689-.4283.3415-.3594.6089l4.2388 16.4483c.0689.2674.3415.4283.6089.3594s.4284-.3415.3594-.609l-4.2387-16.4482c-.0689-.2674-.3416-.4283-.609-.3594z"/><path d="m58.7335 61.6882c-.2674.069-.4283.3416-.3594.609l4.2388 16.4483c.0689.2674.3415.4283.6089.3594s.4283-.3416.3594-.609l-4.2387-16.4483c-.0689-.2674-.3416-.4283-.609-.3594zm4.6563-.741c-.2674.0689-.4284.3416-.3594.609l4.2005 16.3002c.069.2674.3416.4283.609.3594s.4283-.3416.3594-.609l-4.2006-16.3002c-.0689-.2674-.3415-.4283-.6089-.3594zm4.2006-.158c-.2675.0689-.4284.3416-.3595.609l4.2414 16.4582c.0689.2674.3415.4283.6089.3594s.4283-.3416.3594-.609l-4.2413-16.4582c-.0689-.2674-.3415-.4283-.6089-.3594z"/><path d="m45.0724 63.0242c-.2674.0689-.4283.3415-.3594.6089l4.2387 16.4483c.0689.2674.3416.4283.609.3594s.4283-.3415.3594-.609l-4.2388-16.4482c-.0689-.2674-.3415-.4283-.6089-.3594zm4.6181-.8891c-.2674.0689-.4283.3415-.3594.6089l4.2387 16.4483c.0689.2674.3416.4283.609.3594s.4283-.3415.3594-.6089l-4.2388-16.4483c-.0689-.2674-.3415-.4283-.6089-.3594zm4.2387-.01c-.2674.069-.4283.3416-.3594.609l4.2413 16.4582c.0689.2674.3416.4283.609.3594s.4283-.3416.3594-.609l-4.2413-16.4582c-.0689-.2674-.3416-.4283-.609-.3594z"/><path d="m31.2452 63.9148c-.2674.0689-.4283.3416-.3594.609l4.2388 16.4482c.0689.2674.3415.4283.6089.3594s.4283-.3415.3594-.6089l-4.2387-16.4483c-.0689-.2674-.3416-.4283-.609-.3594zm4.7392-.4446c-.2674.069-.4283.3416-.3594.609.7143 2.7719 1.4514 5.6384 2.1847 8.4903l.0117.0454c.7293 2.8365 1.4549 5.6581 2.1504 8.3571.0689.2674.3415.4283.6089.3594.2675-.0689.4284-.3415.3595-.6089-.6955-2.6988-1.421-5.5202-2.1504-8.357l-.0116-.045c-.7333-2.8519-1.4704-5.7186-2.1848-8.4908-.0689-.2675-.3416-.4284-.609-.3595zm4.1202-.4445c-.2674.0689-.4283.3415-.3594.609l4.2388 16.4482c.0689.2674.3415.4283.6089.3594s.4284-.3415.3594-.6089l-4.2387-16.4483c-.0689-.2674-.3416-.4283-.609-.3594z"/><path d="m14.7374 57.2429c-.2674.0689-.4283.3416-.3594.609l4.9261 19.1155c.0689.2674.3416.4284.609.3594.2674-.0689.4283-.3415.3594-.6089l-4.9261-19.1156c-.0689-.2674-.3416-.4283-.609-.3594zm5.42 2.2228c-.2674.0689-.4283.3415-.3594.6089l4.8141 18.681c.069.2674.3416.4283.609.3594s.4283-.3416.3594-.609l-4.8141-18.6809c-.0689-.2674-.3416-.4283-.609-.3594zm4.8142 2.2227c-.2674.0689-.4284.3416-.3595.609l4.697 18.2264c.069.2674.3416.4283.609.3594s.4283-.3415.3594-.6089l-4.697-18.2265c-.0689-.2674-.3415-.4283-.6089-.3594z"/><path d="m5.465 55.886c-.26741.0689-.42832.3415-.35941.6089l4.19545 16.2802c.06891.2675.34154.4284.60895.3595.26741-.069.42831-.3416.35941-.609l-4.19545-16.2802c-.06891-.2674-.34155-.4283-.60895-.3594zm3.89087-.8887c-.2674.0689-.42831.3416-.3594.609l4.93253 19.1405c.0689.2674.3416.4283.609.3594s.4283-.3416.3594-.609l-4.93257-19.1405c-.06891-.2674-.34155-.4283-.60896-.3594z"/><path d="m51.2648 39.6023c-.2674.0689-.4284.3416-.3594.609l3.0574 11.8644c.0689.2674.3416.4283.609.3594s.4283-.3416.3594-.609l-3.0575-11.8644c-.0689-.2674-.3415-.4283-.6089-.3594zm5.3843 2.0844c-.2674.0689-.4283.3415-.3594.6089l2.0621 8.0019c.0689.2674.3416.4283.609.3594s.4283-.3416.3594-.609l-2.0621-8.0018c-.0689-.2674-.3416-.4283-.609-.3594zm4.6748 1.6819c-.2674.0689-.4284.3415-.3594.6089l1.3336 5.1751c.0689.2674.3415.4284.609.3594.2674-.0689.4283-.3415.3594-.6089l-1.3337-5.1751c-.0689-.2674-.3415-.4284-.6089-.3594z"/><path d="m32.1368 19.8992c-.2674.0689-.4283.3415-.3594.6089l5.3844 20.8938c.0689.2674.3415.4283.6089.3594s.4284-.3416.3594-.609l-5.3843-20.8937c-.0689-.2674-.3416-.4283-.609-.3594zm5.3844 2.0843c-.2674.069-.4283.3416-.3594.609l1.1812 4.5838c.069.2674.3416.4284.609.3594.2674-.0689.4283-.3415.3594-.6089l-1.1813-4.5839c-.0689-.2674-.3415-.4283-.6089-.3594zm4.0478-.7507c-.2674.0689-.4283.3416-.3594.609l.6874 2.6673c.0689.2674.3416.4283.609.3594s.4283-.3416.3594-.609l-.6874-2.6673c-.0689-.2674-.3416-.4283-.609-.3594zm4.9262 19.1155c-.2675.069-.4284.3416-.3595.609l3.2705 12.691c.069.2674.3416.4283.609.3594s.4283-.3415.3594-.6089l-3.2705-12.691c-.0689-.2674-.3415-.4284-.6089-.3595zm-2.2938 7.5574c-.2674.0689-.4283.3415-.3594.6089l1.6038 6.2237c.0689.2674.3416.4283.609.3594s.4283-.3416.3594-.609l-1.6039-6.2236c-.0689-.2674-.3415-.4283-.6089-.3594z"/><path d="m22.6812 15.8997c-.2674.0689-.4283.3416-.3594.609l9.1649 35.5638c.0689.2674.3415.4283.6089.3594s.4283-.3416.3594-.609l-9.1648-35.5638c-.0689-.2674-.3416-.4283-.609-.3594zm4.8141 2.2227c-.2674.0689-.4283.3416-.3594.609l9.0503 35.1193c.0689.2674.3416.4283.609.3594s.4283-.3416.3594-.609l-9.0503-35.1193c-.0689-.2674-.3416-.4283-.609-.3594zm-5.4226 14.2256c-.2674.0689-.4283.3415-.3594.6089l4.3534 16.8928c.0689.2674.3415.4284.6089.3594.2674-.0689.4283-.3415.3594-.6089l-4.3533-16.8928c-.0689-.2674-.3416-.4283-.609-.3594z"/><path d="m66.3029 44.7966c-.2674.069-.4283.3416-.3594.609l.5728 2.2227c.0689.2675.3416.4284.609.3595.2674-.069.4283-.3416.3594-.609l-.5728-2.2227c-.0689-.2674-.3416-.4284-.609-.3595z"/></g></svg>