<svg fill="none" height="259" viewBox="0 0 382 259" width="382" xmlns="http://www.w3.org/2000/svg" xmlns:xlink="http://www.w3.org/1999/xlink"><linearGradient id="a"><stop offset=".0877704" stop-color="#72c8e6"/><stop offset=".279955" stop-color="#3e7bfa"/><stop offset=".654262" stop-color="#3e7bfa"/></linearGradient><linearGradient id="b" gradientUnits="userSpaceOnUse" x1="300.615" x2="268.16" xlink:href="#a" y1="115.292" y2="90.2655"/><linearGradient id="c" gradientUnits="userSpaceOnUse" x1="226.832" x2="194.377" xlink:href="#a" y1="121.781" y2="96.7542"/><linearGradient id="d" gradientUnits="userSpaceOnUse" x1="259.973" x2="234.107" xlink:href="#a" y1="86.6176" y2="65.9072"/><linearGradient id="e"><stop offset="0" stop-color="#939292"/><stop offset="1" stop-color="#939292" stop-opacity="0"/></linearGradient><radialGradient id="f" cx="0" cy="0" gradientTransform="matrix(52.66309612 27.34590104 -41.4042261 79.73680354 137.202 167.097)" gradientUnits="userSpaceOnUse" r="1" xlink:href="#e"/><radialGradient id="g" cx="0" cy="0" gradientTransform="matrix(3.11991266 38.11522331 -49.78300034 4.07497581 141.139 167.314)" gradientUnits="userSpaceOnUse" r="1" xlink:href="#e"/><radialGradient id="h" cx="0" cy="0" gradientTransform="matrix(103.63660809 100.72766228 -91.31855197 93.95576912 253.909 120.727)" gradientUnits="userSpaceOnUse" r="1"><stop offset="0" stop-color="#00ace4" stop-opacity=".5"/><stop offset=".526736" stop-color="#00ace4" stop-opacity=".1"/><stop offset=".862181" stop-color="#00ace4" stop-opacity="0"/></radialGradient><g fill="#0092e4" opacity=".1"><path d="m234.311 125.977-4.718-1.099-6.171 1.099v4.763l5.445 1.466 5.444-1.466v-2.564z"/><path d="m231.77 134.405-2.177-1.466h-4.719l-3.267 1.466v2.198l2.541 1.832h5.445l2.177-1.832z"/><path d="m215.8 134.038-2.541 1.099h-5.444l-1.815-1.465v-2.199l2.541-1.465 5.444.366 1.815 1.466z"/><path d="m240.481 97.0305-1.451.7329v1.832l2.54.7326 3.993-.3662.363-1.0992v-1.4657l-2.541-.7328z"/><path d="m247.015 101.061v-1.832l2.178-.7328h3.992l1.452.7328v1.832l-1.452.733h-4.718z"/><path d="m246.289 96.2977-1.815-1.0992v-1.4657l2.541-.7328h2.904l1.451 1.0992v1.4657l-1.814.7328z"/><path d="m253.185 95.9313v-1.8321l.726-.7328 3.993-.3664 2.177.7328v1.0993l-.362 1.0992 1.814-.3664 3.993.7328.363 1.0992v2.1985l-3.63.7326-4.718-.7326v-2.9313h-1.089z"/><path d="m284.4 138.802v-2.199l2.541-2.198h7.259l2.904 2.198v2.931l-2.541 1.466h-7.259z"/><path d="m296.741 135.137-1.452-1.832v-2.198l3.267-.733h3.992l1.452 1.466v2.198l-2.541 1.099z"/><path d="m296.378 129.275-4.719-.367-1.452-1.465v-1.832l1.815-1.1 5.082.367 1.452 1.466v1.465z"/><path d="m288.03 131.107-3.267 1.466-7.622-.367-1.452-1.832v-2.931l4.718-1.466 6.171.367 1.452 2.198z"/></g><g stroke="#22222a"><path d="m205.546 134.001c0-1.03 0-2.061 0-3.091" stroke-linecap="round" stroke-linejoin="round"/><path d="m207.318 132.592c.112.92.182 1.845.182 2.773" stroke-linecap="round" stroke-linejoin="round"/><path d="m212.864 132.592c-.005.99-.131 2.017 0 3" stroke-linecap="round" stroke-linejoin="round"/><path d="m215.41 131.546c-.105.811-.11 1.599 0 2.409" stroke-linecap="round" stroke-linejoin="round"/><path d="m205.546 131.455c.486.571 1.104 1.029 1.773 1.364" stroke-linecap="round" stroke-linejoin="round"/><path d="m205.592 133.637c.576.793 1.368 1.242 2.136 1.818" stroke-linecap="round" stroke-linejoin="round"/><path d="m207.001 135.41c1.207 0 2.408-.025 3.614-.091 1.008-.054 2.029-.153 3.022.046" stroke-linecap="round" stroke-linejoin="round"/><path d="m212.683 135.41c1.124-.499 2.262-1.003 3.318-1.637" stroke-linecap="round" stroke-linejoin="round"/><path d="m212.546 133.091c1.118-.486 2.237-.984 3.318-1.545" stroke-linecap="round" stroke-linejoin="round"/><path d="m206.818 132.864c2.031.01 4.061.166 6.091.228" stroke-linecap="round" stroke-linejoin="round"/><path d="m205.364 131.637c.968-.55 1.959-1.047 2.955-1.545" stroke-linecap="round" stroke-linejoin="round"/><path d="m207.546 130.228c2.075.2 4.144.357 6.227.227" stroke-linecap="round" stroke-linejoin="round"/><path d="m213.41 130.137c.265.307.642.529.96.777.303.238.603.423.949.586" stroke-linecap="round" stroke-linejoin="round"/><path d="m221.455 134.546v2.364" stroke-linecap="round" stroke-linejoin="round"/><path d="m223.501 135.773v2.5" stroke-linecap="round" stroke-linejoin="round"/><path d="m228.955 135.773c0 .628.008 1.257-.003 1.884-.006.352-.082.731.003 1.071" stroke-linecap="round" stroke-linejoin="round"/><path d="m231.592 134.592v2.545" stroke-linecap="round" stroke-linejoin="round"/><path d="m221.273 136.91c.759.597 1.488 1.315 2.364 1.727" stroke-linecap="round" stroke-linejoin="round"/><path d="m221.273 134.546c.874.434 1.648 1.026 2.5 1.5" stroke-linecap="round" stroke-linejoin="round"/><path d="m228.546 136.091c1.449-.457 2.217-.823 3.545-1.545" stroke-linecap="round" stroke-linejoin="round"/><path d="m228.683 138.773c1.097-.625 2.172-1.29 3.272-1.909" stroke-linecap="round" stroke-linejoin="round"/><path d="m223.228 138.455c1.991.026 3.968.178 5.954.273" stroke-linecap="round" stroke-linejoin="round"/><path d="m223.228 136.001c.348.096.706.088 1.065.091.678.004 1.357.003 2.036-.011 1.166-.023 2.332-.072 3.489-.217" stroke-linecap="round" stroke-linejoin="round"/><path d="m221.546 134.773c1.072-.505 2.073-1.125 3.091-1.727" stroke-linecap="round" stroke-linejoin="round"/><path d="m223.546 133.319c1.344 0 2.687.006 4.028-.091.734-.054 1.463-.091 2.199-.091" stroke-linecap="round" stroke-linejoin="round"/><path d="m228.955 133.183c.945.472 1.668 1.251 2.636 1.681" stroke-linecap="round" stroke-linejoin="round"/><path d="m228.364 132.228c0-1.2-.05-2.391 0-3.591" stroke-linecap="round" stroke-linejoin="round"/><path d="m233.728 131.137c.021-1.031.154-2.059.181-3.091" stroke-linecap="round" stroke-linejoin="round"/><path d="m223.046 130.91c0-1.2.046-2.392.091-3.591" stroke-linecap="round" stroke-linejoin="round"/><path d="m222.773 130.592c1.985.641 3.952 1.454 6 1.863" stroke-linecap="round" stroke-linejoin="round"/><path d="m228.273 132.182c.705.053 1.457-.234 2.134-.394 1.232-.291 2.434-.678 3.639-1.06" stroke-linecap="round" stroke-linejoin="round"/><path d="m228.41 129.137c2.038-.24 4.031-.755 6.046-1.136" stroke-linecap="round" stroke-linejoin="round"/><path d="m222.91 127.864c2.019.456 4.029 1.158 6.091 1.364" stroke-linecap="round" stroke-linejoin="round"/><path d="m223.183 127.728c-.078-.601-.046-1.213-.046-1.818" stroke-linecap="round" stroke-linejoin="round"/><path d="m222.773 126.365c1.334-.305 2.676-.565 4.005-.889.903-.22 1.797-.468 2.723-.566" stroke-linecap="round" stroke-linejoin="round"/><path d="m228.364 124.773c.894.355 1.881.488 2.818.682 1.03.213 2.075.371 3.091.637" stroke-linecap="round" stroke-linejoin="round"/><path d="m233.955 128.364c-.113-.807-.137-1.595-.137-2.409" stroke-linecap="round" stroke-linejoin="round"/><path d="m238.637 97.9551v1.8636" stroke-linecap="round" stroke-linejoin="round"/><path d="m244.91 100.409c0-.8634 0-1.727 0-2.5906" stroke-linecap="round" stroke-linejoin="round"/><path d="m245.501 99.5457c0-.606 0-1.2121 0-1.8182" stroke-linecap="round" stroke-linejoin="round"/><path d="m250.91 94.0459v2.3182" stroke-linecap="round" stroke-linejoin="round"/><path d="m244.046 93.9551c.069.6204.045 1.2005.045 1.8182" stroke-linecap="round" stroke-linejoin="round"/><path d="m253.046 94.2275v2.3637" stroke-linecap="round" stroke-linejoin="round"/><path d="m259.137 94.7734c0 .551.063 1.1384-.045 1.6819" stroke-linecap="round" stroke-linejoin="round"/><path d="m259.683 93.8184c.083.4771.045.9718.045 1.4545" stroke-linecap="round" stroke-linejoin="round"/><path d="m254.183 99.8184c.024.5866-.008 1.1466-.091 1.7276" stroke-linecap="round" stroke-linejoin="round"/><path d="m252.683 100.318c.012.698.045 1.393.045 2.091" stroke-linecap="round" stroke-linejoin="round"/><path d="m248.137 100.273c0 .659-.041 1.302-.091 1.955" stroke-linecap="round" stroke-linejoin="round"/><path d="m246.774 99.6367c0 .6673-.045 1.3323-.045 2.0003" stroke-linecap="round" stroke-linejoin="round"/><path d="m257.364 97.6367v2.5683" stroke-linecap="round" stroke-linejoin="round"/><path d="m261.773 98.3184v2.1816" stroke-linecap="round" stroke-linejoin="round"/><path d="m265.683 97.4551c0 1.0024-.091 1.9986-.091 2.9999" stroke-linecap="round" stroke-linejoin="round"/><path d="m238.183 99.9102c1.117.3608 2.264.5638 3.409.8178" stroke-linecap="round" stroke-linejoin="round"/><path d="m240.819 100.728c1.204-.143 3.163-.23 4.364-.364" stroke-linecap="round" stroke-linejoin="round"/><path d="m244.819 100.364c.641-.5275.473-.5344 1.091-1.0906" stroke-linecap="round" stroke-linejoin="round"/><path d="m246.501 101.228c.598.32 1.216.61 1.773 1" stroke-linecap="round" stroke-linejoin="round"/><path d="m247.773 102.183c1.81 0 3.604.046 5.41.136" stroke-linecap="round" stroke-linejoin="round"/><path d="m252.273 102.546c.924-.511 1.491-.859 2.364-1.454" stroke-linecap="round" stroke-linejoin="round"/><path d="m256.864 100.046c1.986.193 3.967.425 5.955.591" stroke-linecap="round" stroke-linejoin="round"/><path d="m261.183 100.728c1.455-.239 3.272-.489 4.727-.727" stroke-linecap="round" stroke-linejoin="round"/><path d="m256.773 97.8184c1.101 0 2.133.1638 3.218.3434.745.1233 1.506.189 2.237.3838" stroke-linecap="round" stroke-linejoin="round"/><path d="m261.137 98.5004c1.69-.4083 3.411-.732 5.136-.9545" stroke-linecap="round" stroke-linejoin="round"/><path d="m265.364 96.6367c.104.2435.427.945.546 1.1818" stroke-linecap="round" stroke-linejoin="round"/><path d="m257.274 96.6367c0 .4733-.076.9028-.182 1.3637" stroke-linecap="round" stroke-linejoin="round"/><path d="m256.864 97.0464c1.706-.4403 2.967-.6453 4.682-1.0454" stroke-linecap="round" stroke-linejoin="round"/><path d="m260.955 96.0459c1.682.3182 3.183.485 4.955.6818" stroke-linecap="round" stroke-linejoin="round"/><path d="m246.592 99.773c.895-.3082 1.763-.6815 2.636-1.0455" stroke-linecap="round" stroke-linejoin="round"/><path d="m248.137 98.9556c1.94 0 3.468-.0454 5.409-.0454" stroke-linecap="round" stroke-linejoin="round"/><path d="m252.546 98.7275c.728.458 1.509.842 2.318 1.1364" stroke-linecap="round" stroke-linejoin="round"/><path d="m252.319 100.546c.826-.333 1.695-.5781 2.5-.9542" stroke-linecap="round" stroke-linejoin="round"/><path d="m246.592 99.7734c.712.2596 1.404.5276 2.136.7276" stroke-linecap="round" stroke-linejoin="round"/><path d="m247.729 100.41c1.801.12 3.604.091 5.409.091" stroke-linecap="round" stroke-linejoin="round"/><path d="m256.092 95.0459v1.7727" stroke-linecap="round" stroke-linejoin="round"/><path d="m252.729 96.4102c1.163.4188 2.518.2591 3.636.8181" stroke-linecap="round" stroke-linejoin="round"/><path d="m255.91 97.0911c.554-.0528 1.094-.1522 1.637-.2727" stroke-linecap="round" stroke-linejoin="round"/><path d="m252.637 94.501c1.35.4259 2.787.5932 4.182.8182" stroke-linecap="round" stroke-linejoin="round"/><path d="m255.773 95.3638c1.238-.1768 2.501-.3154 3.728-.5454" stroke-linecap="round" stroke-linejoin="round"/><path d="m259.137 96.3645c.231-.4236.399-.8837.682-1.2727" stroke-linecap="round" stroke-linejoin="round"/><path d="m259.046 94.9551c.318-.4091.682-.7727 1-1" stroke-linecap="round" stroke-linejoin="round"/><path d="m256.91 93.5459c.871.3673 1.793.565 2.727.6818" stroke-linecap="round" stroke-linejoin="round"/><path d="m253.229 94.1373c1.347-.1867 2.694-.3884 4.045-.5455" stroke-linecap="round" stroke-linejoin="round"/><path d="m253.046 94.5912c.481-.2962.964-.5837 1.454-.8637" stroke-linecap="round" stroke-linejoin="round"/><path d="m244.273 94.2275c.724.2776 1.411.6371 2.137.9091" stroke-linecap="round" stroke-linejoin="round"/><path d="m245.364 95.0914c1.476.0155 2.934.0365 4.409-.0455" stroke-linecap="round" stroke-linejoin="round"/><path d="m249.046 95.1828c.947-.3774 1.896-.7452 2.818-1.1818" stroke-linecap="round" stroke-linejoin="round"/><path d="m244.092 94.1824c1.128-.2483 2.245-.5305 3.363-.8181" stroke-linecap="round" stroke-linejoin="round"/><path d="m245.955 93.4551c1.501.014 2.999.0909 4.5.0909" stroke-linecap="round" stroke-linejoin="round"/><path d="m249.41 93.4551c.662.341 1.309.65 2.046.7727" stroke-linecap="round" stroke-linejoin="round"/><path d="m246.137 94.7734v2.4091" stroke-linecap="round" stroke-linejoin="round"/><path d="m249.137 94.7275c0 .698-.045 1.3935-.045 2.0909" stroke-linecap="round" stroke-linejoin="round"/><path d="m243.91 95.6367c.495.3667 1.029.6779 1.583.947.225.1091.469.17.69.2803" stroke-linecap="round" stroke-linejoin="round"/><path d="m245.683 96.8189c1.455 0 2.908-.0455 4.363-.0455" stroke-linecap="round" stroke-linejoin="round"/><path d="m248.592 97.1366c.902-.4824 1.824-.9274 2.727-1.4091" stroke-linecap="round" stroke-linejoin="round"/><path d="m241.183 98.5459v2.8641" stroke-linecap="round" stroke-linejoin="round"/><path d="m238.319 98.2275c1.053.3576 2.137.6002 3.228.8273" stroke-linecap="round" stroke-linejoin="round"/><path d="m240.729 98.955c1.644 0 2.828-.1653 4.454-.4091" stroke-linecap="round" stroke-linejoin="round"/><path d="m244.592 98.7278c.403-.2129.982-.967 1.318-1.2727" stroke-linecap="round" stroke-linejoin="round"/><path d="m238.592 98.3643c.631-.3667 1.257-.7648 1.909-1.0909" stroke-linecap="round" stroke-linejoin="round"/><path d="m239.729 97.4554c.727 0 1.818 0 3.636-.3636" stroke-linecap="round" stroke-linejoin="round"/><path d="m242.637 97.001c1.149.2756 2.278.5698 3.409.9091" stroke-linecap="round" stroke-linejoin="round"/><path d="m275.364 127.364c.046 1.365.091 2.726.091 4.091" stroke-linecap="round" stroke-linejoin="round"/><path d="m276.864 132.819c.109-1.449-.058-2.913-.091-4.364" stroke-linecap="round" stroke-linejoin="round"/><path d="m284.319 133.5c-.021-1.288-.046-2.574-.046-3.863" stroke-linecap="round" stroke-linejoin="round"/><path d="m287.818 132.001c0-1.106 0-2.212 0-3.318" stroke-linecap="round" stroke-linejoin="round"/><path d="m289.728 127.91c0-.743.045-1.484.045-2.227" stroke-linecap="round" stroke-linejoin="round"/><path d="m291.364 129.592c0-.834.046-1.667.046-2.5" stroke-linecap="round" stroke-linejoin="round"/><path d="m296.137 129.682c0-.775.091-1.544.091-2.318" stroke-linecap="round" stroke-linejoin="round"/><path d="m298.183 128.456c.054-.683.147-1.362.181-2.046" stroke-linecap="round" stroke-linejoin="round"/><path d="m295.092 133.637c0-.848 0-1.697 0-2.545" stroke-linecap="round" stroke-linejoin="round"/><path d="m296.455 135.092c0-.834.046-1.666.046-2.5" stroke-linecap="round" stroke-linejoin="round"/><path d="m301.364 135.364c0-.803.046-1.605.046-2.409" stroke-linecap="round" stroke-linejoin="round"/><path d="m303.773 134.637c.013-.85.091-1.695.091-2.545" stroke-linecap="round" stroke-linejoin="round"/><path d="m284.046 139.501c0-1.08.039-2.15.091-3.228" stroke-linecap="round" stroke-linejoin="round"/><path d="m287.364 138.137c-.132.984-.181 1.963-.181 2.954" stroke-linecap="round" stroke-linejoin="round"/><path d="m294.455 138.137c0 1.061-.046 2.121-.046 3.182" stroke-linecap="round" stroke-linejoin="round"/><path d="m296.864 136.455c.119 1.054 0 2.124 0 3.182" stroke-linecap="round" stroke-linejoin="round"/><path d="m275.273 127.592c.838.703 1.647 1.454 2.5 2.136" stroke-linecap="round" stroke-linejoin="round"/><path d="m276.637 129.364c2.275.135 4.536.365 6.818.409" stroke-linecap="round" stroke-linejoin="round"/><path d="m283.592 129.91c.869-.293 1.744-.543 2.626-.798.583-.168 1.194-.339 1.737-.611" stroke-linecap="round" stroke-linejoin="round"/><path d="m285.909 126.592c.7.625 1.435 1.246 2 2" stroke-linecap="round" stroke-linejoin="round"/><path d="m274.955 127.5c.781-.138 1.54-.355 2.303-.568.988-.276 1.985-.511 2.97-.795" stroke-linecap="round" stroke-linejoin="round"/><path d="m279.137 126.409c.636-.037 1.276-.089 1.914-.073.838.022 1.663.17 2.49.293 1.024.152 2.019.193 3.05.144" stroke-linecap="round" stroke-linejoin="round"/><path d="m276.501 132.229c2.555.586 5.232.273 7.818.636" stroke-linecap="round" stroke-linejoin="round"/><path d="m284.001 132.91c1.592-.688 3.228-1.266 4.818-1.955" stroke-linecap="round" stroke-linejoin="round"/><path d="m275.228 130.546c.548.561 1.052 1.157 1.636 1.682" stroke-linecap="round" stroke-linejoin="round"/><path d="m283.637 138.864c.878.485 1.775.94 2.636 1.455.308.184.678.359.909.636" stroke-linecap="round" stroke-linejoin="round"/><path d="m283.773 136.229c1.232.903 2.529 1.678 3.955 2.227" stroke-linecap="round" stroke-linejoin="round"/><path d="m287.137 138.455c2.742-.022 5.485-.091 8.227-.091" stroke-linecap="round" stroke-linejoin="round"/><path d="m294.228 138.456c1.058-.762 2.214-1.356 3.318-2.046" stroke-linecap="round" stroke-linejoin="round"/><path d="m294.092 141.592c1.374-.977 2.75-1.95 4.136-2.909" stroke-linecap="round" stroke-linejoin="round"/><path d="m286.592 141.32c2.873-.044 5.764-.128 8.636 0" stroke-linecap="round" stroke-linejoin="round"/><path d="m283.773 136.682c1.141-.79 2.314-1.509 3.5-2.227" stroke-linecap="round" stroke-linejoin="round"/><path d="m286.137 134.728c1.591 0 3.183.016 4.772-.056 1.168-.053 2.331-.108 3.5-.126" stroke-linecap="round" stroke-linejoin="round"/><path d="m293.273 134.319c1.18.885 2.573 1.443 3.819 2.228" stroke-linecap="round" stroke-linejoin="round"/><path d="m294.955 133.319c.616.627 1.195 1.295 1.773 1.955" stroke-linecap="round" stroke-linejoin="round"/><path d="m294.909 131.229c.604.559 1.158 1.186 1.818 1.681" stroke-linecap="round" stroke-linejoin="round"/><path d="m296.228 132.729c.796-.078 1.574.015 2.368.09 1.088.105 2.176.195 3.268.228" stroke-linecap="round" stroke-linejoin="round"/><path d="m296.773 135.228c1.666-.008 3.4-.313 5.046 0" stroke-linecap="round" stroke-linejoin="round"/><path d="m301.228 135.319c1.135-.456 2.185-1.045 3.227-1.682" stroke-linecap="round" stroke-linejoin="round"/><path d="m301.228 133.183c1.174-.514 2.397-.927 3.545-1.5" stroke-linecap="round" stroke-linejoin="round"/><path d="m302.455 130.729c.432.455.875.893 1.409 1.227" stroke-linecap="round" stroke-linejoin="round"/><path d="m294.728 131.364c1.173-.278 2.335-.598 3.5-.909" stroke-linecap="round" stroke-linejoin="round"/><path d="m297.955 130.41c1.624.137 3.235.182 4.864.182" stroke-linecap="round" stroke-linejoin="round"/><path d="m291.046 127.092c1.057.006 2.112.093 3.169.083 1.038-.009 2.067-.097 3.104-.038" stroke-linecap="round" stroke-linejoin="round"/><path d="m290.955 129.183c1.739.087 3.496.087 5.227.272" stroke-linecap="round" stroke-linejoin="round"/><path d="m295.728 129.774c1.113-.672 2.167-1.431 3.227-2.182" stroke-linecap="round" stroke-linejoin="round"/><path d="m295.773 127.501c1.02-.495 2.014-1.031 3.046-1.5" stroke-linecap="round" stroke-linejoin="round"/><path d="m289.501 125.683c.703.739 1.449 1.36 2.364 1.818" stroke-linecap="round" stroke-linejoin="round"/><path d="m289.592 127.683c.695.591 1.366 1.191 2.136 1.681" stroke-linecap="round" stroke-linejoin="round"/><path d="m289.546 126.046c.919-.498 1.897-.876 2.864-1.273" stroke-linecap="round" stroke-linejoin="round"/><path d="m291.455 124.91c2.067.009 4.115.159 6.182.046" stroke-linecap="round" stroke-linejoin="round"/><path d="m296.228 124.683c.658.633 1.555 1.068 2.09 1.818" stroke-linecap="round" stroke-linejoin="round"/><path d="m91 193.454c19.273-6.909 28.84-11.647 48.364-20m28.727-12.363c14.179-6.225 28.463-11.671 42.545-17.455 3.637-1.091 1.455-1.454-2.909-2.545-6.693-1.674-9.534-2.506-8-3.273 2.182-1.091 5.818-2.546 5.818-2.546" stroke-linecap="round" stroke-linejoin="round"/><path d="m189.909 152.363c6.909 2.546 18.546 7.273 18.546 7.273s9.818 4 16.363 4c6.546 0 42.504-19.563 56.364-26.182" stroke-linecap="round" stroke-linejoin="round"/><path d="m238.272 101.091c-28.421 10.827-53.653 20.762-82.181 31.273-2.961 1.09-6.91 2.545 6.909 6.545 18.004 5.212 29.09 8.364 32 9.091 2.909.727-2.182 2.909-2.182 2.909" stroke-linecap="round" stroke-linejoin="round"/><path d="m195.909 148.454c-1.124.895.371.859.166-.167-.1-.499-.709-.22-.853.096-.185.405-.233 1.118.278 1.288.373.125.636-.076.803-.409.094-.189.203-1.053-.283-.747-.364.228-.501 1.394.07 1.394" stroke-linecap="round" stroke-linejoin="round"/><path d="m212.455 142.182c.003.151.092 1.529.54.94.281-.368.227-1.013-.267-1.172-.485-.156-.736.473-.622.854.143.475.779-.175.894-.349" stroke-linecap="round" stroke-linejoin="round"/><path d="m153 134.182c-.368.147-1.407.43-1.101 1.04.238.477.873.719 1.358.49.452-.212.436-.799.248-1.197-.155-.326-.714-.492-.808-.035-.224 1.089 1.159 1.237.767.116-.2-.574-.8-1.15-1.449-1.116-.425.022-.583.564-.743.884" stroke-linecap="round" stroke-linejoin="round"/><path d="m224.273 163.454c-.051.381-.067.932.409 1.036.283.061.469-.191.46-.46-.032-.929-1.264-.285-.758.222.378.378 1.306-1.188.02-1.394-1.305-.209-.86 1.624-.494 2.233" stroke-linecap="round" stroke-linejoin="round"/><path d="m198.819 138.181c-.032.313-.061.728.363.728.237 0 .195-.287.182-.455-.043-.556-1.038-.676-1 0 .033.601 1.088 1.084 1.162.273.076-.841-1.28-1.237-1.889-1.182" stroke-linecap="round" stroke-linejoin="round"/><path d="m133.91 176.363c-.46-2.043-.568.324-.182.505.733.345.107-2.19-.546-1.192-.784 1.2.909 1.448.909-.04 0-1.067-2.545-.497-2.545.727" stroke-linecap="round" stroke-linejoin="round"/></g><path d="m292.554 105.887c-1.613-.507-4.727 1.455-6.545 4-2.546 2.182-2.74 4.289-2.546 4.728 1.249 2.818 2.182 7.636 6.847 9.14 1.082.349 7.994-4.018 8.79-6.959.682-2.522-1.555-5.811-2.182-6.909-1.455-2.545-2.347-3.366-4.364-4z" fill="url(#b)" fill-opacity=".2"/><path d="m218.771 112.376c-3.308-.67-5.49 2.239-7.308 4.784-2.545 2.182-1.977 3.505-1.783 3.943 1.249 2.819 2.874 7.806 7.238 8.421 2.581.363 7.272-3.637 8.727-6.546 1.168-2.337-1.883-5.504-2.51-6.602-1.455-2.545-2.292-3.58-4.364-4z" fill="url(#c)" fill-opacity=".2"/><path clip-rule="evenodd" d="m290.766 109.439c-.576-.08-1.982.921-2.545 1.454l1.454 2.909 2.729-1.977c-.26-.77-1.062-2.306-1.638-2.386zm.088 6.4 2.821-1.811c.397.667.92 2.263.88 2.551-.121.868-.907 1.407-1.637 1.908-.179.122-.353.241-.514.363zm-1.906 1.236-1.818 1.454c.031.094.062.19.092.287.221.698.458 1.447 1.362 1.895.522.258 1.512-.28 1.818-.727zm-.727-1.818-1.455-2.909c-.654.521-1.455 1.395-1.454 2.545 0 .364.417 1.408.727 1.818zm-72.536 4.448-1.818-2.546c.484-.606 1.6-1.818 2.181-1.818.582 0 1.455 1.454 1.819 2.182zm4-.364-2.546 2.182 2.182 2.545c.143-.142.299-.285.459-.431.654-.595 1.359-1.237 1.359-2.114 0-.291-.969-1.576-1.454-2.182zm-4 3.636 1.818 2.546c-.242.485-1.63 1.638-2.182 1.454-.941-.313-1.341-1.168-1.666-1.864-.052-.111-.102-.218-.152-.318zm-3.273-4.363 1.818 2.545-1.818 1.818c-.363-.363-.699-.866-1.09-1.454h-.001c-.695-1.042.408-2.195 1.01-2.824zm2.323-5.454c.673-.673 2.717-.193 3.637.727 1.454 1.454 5.454 6.545 5.454 7.636s-.532 2.351-1.818 3.637c-1.454 1.454-4.727 3.636-5.454 4-.728.363-1.455.363-3.637-2.546s-4-5.818-3.636-6.545c.291-.582 3.273-4.728 5.454-6.909zm72.728 9.09c-.291-.29-2.061-3.272-2.909-4.727-.121-.242-.251-.468-.38-.694v-.001c-.259-.452-.517-.905-.711-1.487-.485-1.454-.728-2.909 3.636-6.545 3.64-3.033 4.75-2.018 5.44-1.387.137.125.258.236.378.296.728.364 4 6.909 4.364 8 .291.873-.485 2.424-.727 2.909-2.061 1.455-5.964 4.073-6.546 4.364-.727.363-2.182-.364-2.545-.728z" fill="#00ace4" fill-rule="evenodd"/><path d="m253.369 79.1787c-2.718-.523-4.521 1.7906-6.023 3.8148-2.099 1.7377-1.635 2.7855-1.476 3.133 1.019 2.2324 2.342 6.1842 5.929 6.6601 2.121.2815 5.99-2.9043 7.194-5.216.967-1.8571-1.533-4.3613-2.046-5.2306-1.189-2.0153-1.875-2.8338-3.578-3.1613z" fill="url(#d)" fill-opacity=".2"/><path clip-rule="evenodd" d="m250.185 79.5682c.545-.5522 2.204-.1582 2.951.5973 1.18 1.1946 4.427 5.3758 4.427 6.2718 0 .8959-.432 1.9306-1.476 2.9865-1.18 1.1946-3.836 2.9866-4.427 3.2852-.59.2987-1.18.2987-2.951-2.0906-1.771-2.3892-3.247-4.7784-2.951-5.3757.236-.4779 2.656-3.8826 4.427-5.6745zm-.87 3.3372 1.481 2.1148 1.903-2.1148c-.211-.4935-.803-1.4804-1.48-1.4804s-1.551.9869-1.904 1.4804zm-1.057 1.2689 1.48 1.9034-1.48 1.4804c-.423-.4935-1.227-1.565-1.057-1.9034.169-.3384.775-1.1279 1.057-1.4804zm4.018 5.4986-1.48-2.1148-1.481 1.6919c.282.4229.973 1.3112 1.481 1.4804.507.1692 1.198-.6345 1.48-1.0575zm-.211-3.3837 1.903 2.1148c.635-.4934 1.819-1.6073 1.481-2.1148-.339-.5076-1.128-1.3394-1.481-1.6919z" fill="#00ace4" fill-rule="evenodd"/><path d="m299.363 115.637-1.896.727m0-4.363-1.376.727c.564-.297.814-.431 1.376-.727zm1.169 1.818-1.818.727c.705-.371 1.12-.359 1.818-.727z" stroke="#000" stroke-linecap="round" stroke-linejoin="round"/><path d="m294.999 110.941 1.593-.965m-2.546-3.425c-.724.382-.863.369-1.593.753zm-.138 2.571c.84-.442.763-.358 1.593-.795z" stroke="#000" stroke-linecap="round" stroke-linejoin="round"/><path d="m296.454 120.364h-1.454m-2.546 1.455h1.455m4.727-3.637c-.838.24-1.358.504-2.182.728z" stroke="#000" stroke-linecap="round" stroke-linejoin="round"/><path d="m284.058 112.301c-1.014 1.163-.687 2.478-.42 3.246.625 1.791 2.406 5.223 2.908 5.875.628.814 1.21 1.99 2.699 1.815 1.489-.174 4.893-2.474 6.736-3.896 2.036-1.571 1.187-3.514.92-4.282-.239-.686-2.64-5.107-3.897-6.736-1.295-1.679-3.106-1.501-3.92-.873-1.288.993-4.165 3.862-5.026 4.851z" stroke="#000"/><path d="m285.82 110.546c.861-.989 2.635-2.909 4.09-3.637 1.454-.727 3.981-.993 5.276.686 1.256 1.629 3.657 6.05 3.896 6.737.268.768.864 3.371-1.172 4.941-1.844 1.422-5.784 4.189-7.273 4.364-1.489.174-3.008-.64-3.637-1.455" stroke="#000"/><path d="m289.547 113.818-1.455-2.909c.564-.533 1.969-1.534 2.545-1.454.577.08 1.378 1.616 1.638 2.386z" stroke="#000"/><path d="m293.547 114.044-2.822 1.811 1.55 3.011c.821-.62 2.001-1.191 2.151-2.271.04-.288-.483-1.884-.879-2.551z" stroke="#000"/><path d="m290.274 120-1.455-2.909-1.818 1.455c.26.77.424 1.671 1.455 2.181.521.258 1.511-.28 1.818-.727z" stroke="#000"/><path d="m286.637 112.364 1.455 2.909-2.182 1.454c-.31-.41-.727-1.454-.727-1.818 0-1.15.801-2.024 1.454-2.545z" stroke="#000"/><path d="m225.467 123.683-2.91 1.309m2.182-5.692-1.69.891c.565-.298 1.128-.595 1.69-.891zm1.091 1.967-2.104 1.109c.705-.372 1.407-.741 2.104-1.109z" stroke="#000" stroke-linecap="round" stroke-linejoin="round"/><path d="m221.545 118.182 1.593-.965m-2.546-3.424c-.725.382-.863.368-1.593.752zm-.138 2.571c.84-.443.763-.359 1.593-.796z" stroke="#000" stroke-linecap="round" stroke-linejoin="round"/><path d="m217.544 113.455 1.455-.727" stroke="#000" stroke-linecap="round" stroke-linejoin="round"/><path d="m220.617 128.185-2.205.315m4.587-2.216c-.838.24-1.559.347-2.382.571z" stroke="#000" stroke-linecap="round" stroke-linejoin="round"/><path d="m209.909 119.273c-.856 1.284-.363 2.545 0 3.273.849 1.697 3.055 4.872 3.637 5.454.727.727 1.454 1.818 2.909 1.455 1.454-.364 4.535-3.081 6.181-4.728 1.819-1.818.728-3.636.364-4.363-.325-.651-3.273-4.728-4.727-6.182-1.499-1.499-3.273-1.091-4-.364-1.15 1.15-3.637 4.364-4.364 5.455z" stroke="#000"/><path d="m213.182 114.909c1.091-1.09 1.454-1.818 3.272-2.181 1.009-.202 2.612-.483 4.111 1.017 1.455 1.454 4.402 5.531 4.728 6.181.363.728 1.454 2.546-.364 4.364-1.646 1.646-4.838 4.801-6.293 5.165-1.454.364-2.545.364-3.273 0" stroke="#000"/><path d="m215.727 120-1.818-2.545c.485-.606 1.6-1.818 2.182-1.818s1.455 1.454 1.818 2.182z" stroke="#000"/><path d="m219.727 119.637-2.545 2.182 2.182 2.545c.727-.727 1.818-1.455 1.818-2.545 0-.291-.97-1.576-1.455-2.182z" stroke="#000"/><path d="m217.546 125.819-1.819-2.546-2.181 1.818c.363.728.727 1.818 1.818 2.182.552.184 1.939-.97 2.182-1.454z" stroke="#000"/><path d="m212.455 118.909 1.818 2.546-1.818 1.818c-.364-.363-.699-.867-1.091-1.454-.728-1.091.515-2.303 1.091-2.91z" stroke="#000"/><path d="m256.819 89.8195-2.909 1.3096m5.248-5.836-1.69.8902c.565-.2975 1.128-.5943 1.69-.8902zm0 1.9811-2.104 1.1083c.705-.3714 1.406-.7408 2.104-1.1083z" stroke="#000" stroke-linecap="round" stroke-linejoin="round"/><path d="m256.455 84.7579 1.593-.9644m-2.546-3.4247c-.724.3819-.863.3684-1.593.7528zm-.138 2.5709c.84-.4424.764-.3585 1.593-.7955z" stroke="#000" stroke-linecap="round" stroke-linejoin="round"/><path d="m252.455 80.031 1.454-.7273" stroke="#000" stroke-linecap="round" stroke-linejoin="round"/><path d="m246.237 84.2999c-.695 1.0437-.295 2.0695 0 2.6608.69 1.3797 2.484 3.9618 2.957 4.4348.591.5913 1.183 1.4783 2.365 1.1826 1.183-.2956 3.688-2.5048 5.026-3.8435 1.478-1.4782.592-2.9565.296-3.5478-.265-.5289-2.661-3.8435-3.844-5.0261-1.219-1.219-2.66-.8869-3.252-.2956-.935.9349-2.956 3.5478-3.548 4.4348z" stroke="#000"/><path d="m248.898 80.7515c.887-.887 1.183-1.4782 2.661-1.7739.82-.164 2.124-.3922 3.343.8268 1.182 1.1826 3.579 4.4972 3.843 5.026.296.5913 1.183 2.0696-.296 3.5479-1.338 1.3386-3.933 3.9036-5.116 4.1993-1.182.2956-2.069.2956-2.661 0" stroke="#000"/><path d="m250.968 84.8906-1.479-2.0696c.395-.4927 1.301-1.4782 1.774-1.4782s1.183 1.1826 1.479 1.7739z" stroke="#000"/><path d="m254.22 84.5949-2.07 1.774 1.774 2.0695c.592-.5913 1.478-1.1826 1.478-2.0695 0-.2366-.788-1.2812-1.182-1.774z" stroke="#000"/><path d="m252.446 89.621-1.478-2.0695-1.774 1.4782c.295.5913.591 1.4783 1.478 1.7739.449.1496 1.577-.7884 1.774-1.1826z" stroke="#000"/><path d="m248.307 84.0036 1.478 2.0696-1.478 1.4783c-.296-.2956-.568-.7047-.887-1.1822v-.0004c-.591-.887.419-1.8725.887-2.3653z" stroke="#000"/><path d="m93.3422 172.215c-1.1963 1.795-.5084 3.559 0 4.575 1.1861 2.373 4.2701 6.812 5.0835 7.626 1.0167 1.016 2.0333 2.542 4.0673 2.033 2.033-.508 6.34-4.307 8.642-6.608 2.541-2.542 1.016-5.084.508-6.101-.455-.909-4.575-6.608-6.609-8.642-2.096-2.096-4.575-1.525-5.5916-.508-1.6075 1.607-5.0835 6.1-6.1002 7.625z" stroke="#22222a"/><path d="m97.917 166.115c1.5251-1.525 2.0334-2.542 4.575-3.05 1.41-.282 3.651-.675 5.747 1.421 2.034 2.034 6.154 7.733 6.609 8.642.508 1.017 2.033 3.559-.509 6.101-2.301 2.301-6.763 6.712-8.797 7.22-2.033.508-3.558.508-4.575 0" stroke="#22222a"/><path d="m101.476 173.231-2.5415-3.558c.6778-.848 2.2365-2.542 3.0505-2.542.813 0 2.033 2.033 2.541 3.05z" stroke="#22222a"/><path d="m107.068 172.723-3.558 3.05 3.05 3.558c1.017-1.016 2.542-2.033 2.542-3.558 0-.407-1.356-2.203-2.034-3.05z" stroke="#22222a"/><path d="m104.018 181.365-2.542-3.559-3.0499 2.542c.5084 1.017 1.0167 2.542 2.5419 3.05.772.257 2.711-1.355 3.05-2.033z" stroke="#22222a"/><path d="m96.901 171.706 2.5418 3.559-2.5418 2.541c-.5082-.508-.9771-1.211-1.5244-2.032l-.0006-.001c-1.0167-1.525.7202-3.22 1.525-4.067z" stroke="#22222a"/><path d="m111.725 179.273 3.784-1.703m-.728-4.383c-.725.382-1.452.765-2.182 1.15zm-1.818 3.5c.977-.515 1.946-1.026 2.909-1.533z" stroke="#22222a" stroke-linecap="round" stroke-linejoin="round"/><path d="m110.635 172.444 2.545-1.341m-2.545-3.424c-.725.382-1.452.765-2.182 1.149zm-1.05 3.094c.84-.442 1.675-.882 2.504-1.319z" stroke="#22222a" stroke-linecap="round" stroke-linejoin="round"/><path d="m107.361 167.13 2.182-1.15m-3.59-2.874c-.62.326-1.241.654-1.865.982zm0 2.542c.715-.377 1.427-.752 2.135-1.126z" stroke="#22222a" stroke-linecap="round" stroke-linejoin="round"/><path d="m113.543 180.093c-1.676.847-2.545.998-4.363 1.726m1.818.803-4.727 1.378m-1.819 1.455 3.637-.546" stroke="#22222a" stroke-linecap="round" stroke-linejoin="round"/><path d="m116.26 142.718-5.852 1.339 59.875 21.036-.542 22.903 4.422-2.078.542-22.903z" fill="url(#f)" fill-opacity=".2" stroke="#000"/><path d="m110.68 163.319.447-18.903 4.778-2.07 58.436 20.661-.55 23.266-3.679 1.732-30.253-12.719-1.013-3.298-4.033 1.36z" fill="url(#g)" fill-opacity=".1"/><path d="m160.434 165.952c-.034 1.4-.067 2.8-.095 3.999m6.711 11.799c.036-1.493.065-2.728.095-3.999m-6.933-2.457c-.037 1.583-.061 2.581-.097 4.109m-46.191-30.192-.095 3.999m5.452-1.69-.086 3.635m5.453-1.689-.086 3.635m6.353-1.668-.092 3.883m7.695-1.152-.095 4m7.253-1.527-.104 4.364m21.685 8.024.109-4.597m-14.998-4.721-.083 3.507m-.112 4.736-.094 3.989m-6.707-2.452.092-3.888m-7.242 1.05.09-3.765m-7.595-3.09-.089 3.765m-6.161-6.453-.095 3.993m-5.269-6.061-.091 3.879m-5.364-2.067.078-3.273" stroke="#22222a" stroke-linecap="round" stroke-linejoin="round"/><path d="m162.331 162.002c-.033 1.399-.069 2.922-.097 4.121m-.436 18.412c.036-1.493.073-3.079.103-4.35m.202-8.546c-.037 1.583-.054 2.279-.09 3.808m-46.208-29.466-.089 3.759m-.362 15.274.081-3.395m5.736-13.692-.092 3.88m-.373 15.751.095-3.999m5.733-13.563-.083 3.512m-.387 16.359.095-3.999m6.64-13.783-.08 3.39m-.424 16.722.086-3.635m8.026-13.993-.1 4.243m7.252-1.526-.103 4.364m-.399 16.849.101-4.242m7.111-14.634-.097 4.126m-.41 17.322.095-3.999m.206-8.725-.095 3.999m-6.718-1.977.109-4.598m-7.253 1.519.104-4.363m-7.603-2.726-.101 4.248m-6.173-5.968-.08 3.394m-5.271-5.95-.095 3.999m-5.358-2.309.081-3.39" stroke="#22222a" stroke-linecap="round" stroke-linejoin="round"/><path d="m170.366 163.023c-.233 9.863-.443 18.74-.671 28.356" stroke="#22222a" stroke-linecap="round" stroke-linejoin="round"/><path d="m111.177 143.436c-.14 5.922-.328 13.856-.465 19.63" stroke="#22222a" stroke-linecap="round" stroke-linejoin="round"/><path d="m171.262 188.143c-5.817-1.593-17.339-6.594-31.379-12.746m-30.338-12.125c9.091 3.637 14.182 6.182 25.881 10.6m39.311-11.109c-14.801-4.715-58.569-20.119-61.691-21.465m58.75 24.305c-12.738-4.91-61.843-21.651-64.964-22.997" stroke="#22222a" stroke-linecap="round" stroke-linejoin="round"/><path d="m174.738 161.562c-.197 8.333-.461 19.503-.654 27.628" stroke="#22222a" stroke-linecap="round" stroke-linejoin="round"/><path d="m170.272 165.09c1.818-.727 3.273-1.454 5.804-2.659" stroke="#22222a" stroke-linecap="round" stroke-linejoin="round"/><path d="m169.013 188.343c2.013-.82 3.971-1.717 5.886-2.771" stroke="#22222a" stroke-linecap="round" stroke-linejoin="round"/><path d="m111.159 144.163c2.337-.709 4.706-1.305 7.039-2.016" stroke="#22222a" stroke-linecap="round" stroke-linejoin="round"/><path d="m139.599 170.914c-.025 1.415-.052 2.895-.08 4.474" stroke="#22222a" stroke-linecap="round" stroke-linejoin="round"/><path d="m135.307 168.994c-.044 1.836-.069 2.912-.115 4.837" stroke="#22222a" stroke-linecap="round" stroke-linejoin="round"/><path d="m134.746 173.841c.956-.248 3.738-1.542 4.863-1.779" stroke="#22222a" stroke-linecap="round" stroke-linejoin="round"/><path d="m169.824 169.447c-17.312-6.229-42.553-15.556-59.857-21.785" stroke="#22222a" stroke-linecap="round" stroke-linejoin="round"/><path d="m170.075 174.182c-12.743-4.895-56.006-20.79-59.129-22.132" stroke="#22222a" stroke-linecap="round" stroke-linejoin="round"/><path d="m170.771 179.109c-12.8-4.773-57.277-22.056-60.416-23.369" stroke="#22222a" stroke-linecap="round" stroke-linejoin="round"/><path d="m170.587 183.287c-12.753-4.934-57.051-22.623-60.177-23.975" stroke="#22222a" stroke-linecap="round" stroke-linejoin="round"/><path d="m174.273 185.633-4.298 2.264m4.298-7.03c-1.442.76-2.896 1.526-4.364 2.299zm.091 2.494c-1.468.774-2.953 1.556-4.455 2.347z" stroke="#000" stroke-linecap="round" stroke-linejoin="round"/><path d="m174.283 177.873-4.221 2.224m4.453-7.112c-1.433.755-2.88 1.517-4.341 2.287zm0 2.541c-1.468.774-2.952 1.556-4.453 2.347z" stroke="#000" stroke-linecap="round" stroke-linejoin="round"/><path d="m174.636 170.317-4.364 2.299m4.364-7.064c-1.389.731-2.791 1.47-4.206 2.215zm0 2.541c-1.388.731-2.789 1.47-4.206 2.216z" stroke="#000" stroke-linecap="round" stroke-linejoin="round"/><path d="m169.896 161.091c-1.317.693-2.646 1.394-3.987 2.1zm3.286.81c-1.541.812-3.098 1.632-4.673 2.462z" stroke="#000" stroke-linecap="round" stroke-linejoin="round"/><path d="m166.955 160.036-4.072 2.145m-1.453-4c-1.165.614-2.339 1.232-3.521 1.855zm2.754 1.091c-1.232.649-2.475 1.304-3.73 1.965z" stroke="#000" stroke-linecap="round" stroke-linejoin="round"/><path d="m154.636 159.18 3.637-1.915m-2.509-.903c-1.094.577-2.197 1.158-3.309 1.744zm-2.753-1.091c-1.147.604-2.302 1.213-3.465 1.826z" stroke="#000" stroke-linecap="round" stroke-linejoin="round"/><path d="m145.909 156.409 4.23-2.228m-2.775-.762c-1.201.633-2.413 1.271-3.636 1.916zm-2.819-1.056c-1.143.601-2.293 1.208-3.452 1.818z" stroke="#000" stroke-linecap="round" stroke-linejoin="round"/><path d="m137.545 153.06 3.591-1.892m-9.046 0c1.221-.643 2.433-1.282 3.637-1.916zm6.182-.715c-1.082.57-2.172 1.145-3.272 1.724z" stroke="#000" stroke-linecap="round" stroke-linejoin="round"/><path d="m129.413 150.181 3.042-1.603m-5.091-2.084c-1.174.619-2.356 1.242-3.546 1.868zm-1.091 3.117c1.262-.665 2.512-1.323 3.75-1.976z" stroke="#000" stroke-linecap="round" stroke-linejoin="round"/><path d="m124.41 145.447-3.592 1.892m-5.454-1.892c1.22-.642 2.432-1.281 3.636-1.915zm2.545 1.201c1.347-.71 2.68-1.412 4-2.107z" stroke="#000" stroke-linecap="round" stroke-linejoin="round"/><path d="m116.454 142.269-4.363 2.298" stroke="#000" stroke-linecap="round" stroke-linejoin="round"/><path clip-rule="evenodd" d="m265.182 232c64.065 0 116-51.935 116-116s-51.935-116-116-116-116 51.935-116 116 51.935 116 116 116zm-10.218-137.2131.002-.0009c.125-.0764.257-.1566.397-.2407 1.819-1.0909 4-2.4865 4-3.6364 0-1.8182-3.636-7.6768-5.09-8-.215-.0478-.446-.1132-.688-.1818-1.396-.3955-3.164-.8965-4.403 1.2727-.166.2894-.569.7752-1.04 1.3416-1.07 1.2877-2.486 2.9917-2.233 3.7493.727 2.1818 1.818 5.4546 4.727 6.9091 2.332 0 2.95-.3752 4.328-1.2129zm35.309 12.1221c-1.091-.364-5.819 4.364-6.546 6.545 0 1.455.364 5.019 1.818 7.637 1.579 2.841 3.979 2.667 5.298 2.572.201-.014.376-.027.52-.027 1.091 0 8-5.818 8.364-7.273.364-1.454-3.273-8.363-5.454-9.454-1.335-.667-2.125-.382-2.787-.144-.421.152-.79.285-1.213.144zm-80.364 13.091c0-1.455 4.727-6.546 6.545-7.273h3.637c.848.97 2.836 3.346 4 5.091 1.454 2.182 1.454 4 1.091 5.818-.291 1.455-4.485 4.485-6.546 5.818-.727 0-2.545-.145-4-.727-1.818-.727-4.727-7.273-4.727-8.727z" fill="url(#h)" fill-opacity=".1" fill-rule="evenodd"/></svg>