<svg fill="none" viewBox="0 0 114 104" xmlns="http://www.w3.org/2000/svg" xmlns:xlink="http://www.w3.org/1999/xlink"><linearGradient id="a" gradientUnits="userSpaceOnUse" x1="21.601" x2="54.878" y1="15.864" y2="81.642"><stop offset="0" stop-color="#73dfe7" stop-opacity=".65"/><stop offset="1" stop-color="#0095f7"/></linearGradient><path d="m87.28 85.532v-15.513l-15.196-3.4824-10.764 3.4824v15.513l14.879 4.7487 11.08-4.7487z" fill="#fff"/><path clip-rule="evenodd" d="m61.709 67.899c.1296 0 .2346.105.2346.2345v20.449c0 .1295-.105.2345-.2346.2345-.1295 0-.2345-.105-.2345-.2345v-20.449c0-.1295.105-.2345.2345-.2345z" fill="#000" fill-rule="evenodd"/><path clip-rule="evenodd" d="m59.856 86.166c.0337-.125.1629-.2007.2884-.169l18.683 4.719c.1256.0317.2.1588.1663.2838-.0337.1251-.1628.2008-.2884.1691l-18.683-4.719c-.1256-.0317-.2001-.1588-.1664-.2839z" fill="#000" fill-rule="evenodd"/><path clip-rule="evenodd" d="m58.228 68.877c.0254-.127.1492-.2106.2765-.1867l25.181 4.7189c.1273.0239.21.1462.1846.2732s-.1492.2106-.2765.1868l-25.181-4.719c-.1274-.0238-.21-.1461-.1846-.2732z" fill="#000" fill-rule="evenodd"/><path clip-rule="evenodd" d="m71.226 65.722c.0312-.1258.1588-.2039.2849-.1746l20.307 4.719c.1262.0293.2032.155.172.2807-.0311.1257-.1587.2039-.2848.1745l-20.307-4.7189c-.1262-.0293-.2032-.155-.1721-.2807z" fill="#000" fill-rule="evenodd"/><path clip-rule="evenodd" d="m74.488 91.257c-.051-.119.0051-.2547.1253-.3029l16.246-6.5198c.1202-.0483.259.0092.31.1282.0509.1191-.0052.2548-.1254.303l-16.246 6.5198c-.1202.0482-.2589-.0092-.3099-.1283z" fill="#000" fill-rule="evenodd"/><path clip-rule="evenodd" d="m75.292 72.972c-.036-.1244.0361-.2528.1611-.2867l14.683-3.9894c.125-.0339.2556.0394.2916.1638.0361.1244-.036.2528-.161.2868l-14.683 3.9893c-.125.0339-.2556-.0394-.2917-.1638z" fill="#000" fill-rule="evenodd"/><path clip-rule="evenodd" d="m58.235 70.386c-.0388-.1236.0306-.2534.1548-.2899l20.825-6.1181c.1243-.0365.2564.0341.2952.1577.0387.1236-.0306.2534-.1549.2899l-20.825 6.1181c-.1243.0365-.2564-.0341-.2951-.1577z" fill="#000" fill-rule="evenodd"/><path clip-rule="evenodd" d="m77.143 71.832c.1296 0 .2346.105.2346.2346v18.876c0 .1296-.105.2346-.2346.2346-.1295 0-.2345-.105-.2345-.2346v-18.876c0-.1296.105-.2346.2345-.2346z" fill="#000" fill-rule="evenodd"/><path clip-rule="evenodd" d="m87.701 69.079c.1296 0 .2346.105.2346.2345v17.066c0 .1295-.105.2345-.2346.2345-.1295 0-.2345-.105-.2345-.2345v-17.066c0-.1295.105-.2345.2345-.2345z" fill="#000" fill-rule="evenodd"/><path clip-rule="evenodd" d="m85.042 69.707c.1263.0303.2028.1562.1708.2813l-4.6267 18.089c-.032.1251-.1604.2019-.2868.1716-.1263-.0303-.2028-.1562-.1708-.2813l4.6268-18.089c.0319-.1251.1603-.2019.2867-.1716zm2.4403.6505c.1259.0323.2004.1594.1665.284l-4.7503 17.44c-.0339.1246-.1635.1995-.2893.1672-.1258-.0322-.2003-.1593-.1664-.2839l4.7502-17.44c.034-.1246.1635-.1995.2893-.1673zm-4.9573-.6506c.1264.0303.2029.1563.1709.2814-.8139 3.1821-1.6493 6.507-2.4721 9.7827l-.0399.1589c-.809 3.221-1.6053 6.3914-2.3563 9.3274-.032.1251-.1604.2019-.2867.1716-.1264-.0303-.2028-.1562-.1709-.2813.7507-2.935 1.5469-6.1046 2.356-9.3259l.0398-.1584c.8227-3.2756 1.6583-6.6015 2.4725-9.7847.032-.1251.1604-.2019.2867-.1717zm-2.8626 1.5731c.1263.0303.2028.1562.1708.2813l-2.7157 10.618c-.032.1251-.1603.202-.2867.1717-.1263-.0303-.2028-.1563-.1708-.2814l2.7157-10.618c.032-.1251.1603-.2019.2867-.1716z" fill="#000" fill-rule="evenodd"/><path clip-rule="evenodd" d="m87.49 79.405c.1247.036.1953.1653.1575.2889l-2.3243 7.6084c-.0378.1236-.1695.1946-.2943.1586-.1247-.036-.1952-.1654-.1575-.2889l2.3244-7.6084c.0377-.1236.1694-.1946.2942-.1586z" fill="#000" fill-rule="evenodd"/><path d="m108.39 93.037v-15.512l-15.196-3.4824-10.764 3.4824v15.512l14.879 4.7488z" fill="#fff"/><path clip-rule="evenodd" d="m82.818 75.404c.1295 0 .2346.105.2346.2345v20.449c0 .1295-.1051.2345-.2346.2345s-.2345-.105-.2345-.2345v-20.449c0-.1295.105-.2345.2345-.2345z" fill="#000" fill-rule="evenodd"/><path clip-rule="evenodd" d="m80.965 93.67c.0337-.1251.1628-.2007.2884-.169l18.683 4.7189c.1257.0318.1997.1589.1667.2839-.034.1251-.1631.2008-.2887.1691l-18.683-4.719c-.1256-.0317-.2001-.1588-.1664-.2839z" fill="#000" fill-rule="evenodd"/><path clip-rule="evenodd" d="m79.337 76.382c.0254-.127.1492-.2106.2765-.1868l25.18 4.719c.128.0238.21.1462.185.2732s-.149.2106-.277.1868l-25.18-4.719c-.1273-.0238-.2099-.1462-.1845-.2732z" fill="#000" fill-rule="evenodd"/><path clip-rule="evenodd" d="m92.336 73.226c.0312-.1258.1587-.2039.2849-.1746l20.307 4.7189c.126.0294.203.155.172.2808-.031.1257-.159.2038-.285.1745l-20.307-4.7189c-.1261-.0293-.2031-.155-.172-.2807z" fill="#000" fill-rule="evenodd"/><path clip-rule="evenodd" d="m95.597 98.762c-.051-.119.0051-.2547.1253-.3029l16.246-6.5198c.12-.0483.259.0092.31.1282.051.1191-.005.2547-.125.303l-16.246 6.5198c-.1202.0482-.259-.0092-.3099-.1283z" fill="#000" fill-rule="evenodd"/><path clip-rule="evenodd" d="m96.402 80.476c-.036-.1244.0361-.2528.1611-.2868l14.682-3.9893c.125-.034.256.0394.292.1638s-.036.2528-.161.2867l-14.683 3.9894c-.125.0339-.2555-.0394-.2916-.1638z" fill="#000" fill-rule="evenodd"/><path clip-rule="evenodd" d="m79.344 77.89c-.0387-.1236.0306-.2534.1549-.29l20.825-6.118c.124-.0365.256.0341.295.1577.038.1236-.031.2534-.155.2899l-20.825 6.118c-.1243.0366-.2564-.034-.2952-.1576z" fill="#000" fill-rule="evenodd"/><path clip-rule="evenodd" d="m98.252 79.336c.1295 0 .2345.105.2345.2346v18.876c0 .1296-.105.2346-.2345.2346s-.2345-.105-.2345-.2346v-18.876c0-.1296.105-.2346.2345-.2346z" fill="#000" fill-rule="evenodd"/><path clip-rule="evenodd" d="m108.81 76.584c.129 0 .234.105.234.2345v17.066c0 .1295-.105.2345-.234.2345-.13 0-.235-.105-.235-.2345v-17.066c0-.1295.105-.2345.235-.2345z" fill="#000" fill-rule="evenodd"/><path clip-rule="evenodd" d="m106.15 77.213c.126.0303.203.1562.171.2813l-4.627 18.089c-.032.1251-.16.2019-.287.1716-.126-.0303-.203-.1563-.171-.2813l4.627-18.089c.032-.1251.161-.2019.287-.1716zm2.44.6505c.126.0322.201.1594.167.2839l-4.751 17.44c-.034.1246-.163.1994-.289.1672s-.2-.1593-.166-.2839l4.75-17.44c.034-.1246.163-.1995.289-.1673zm-4.957-.6506c.126.0303.203.1563.171.2814-.814 3.1821-1.649 6.507-2.472 9.7827l-.04.1589c-.809 3.2209-1.6055 6.3913-2.3565 9.3274-.032.125-.1603.2019-.2867.1716-.1263-.0303-.2028-.1563-.1708-.2814.7507-2.935 1.547-6.1045 2.356-9.3259l.04-.1584c.822-3.2755 1.658-6.6014 2.472-9.7847.032-.125.161-.2019.287-.1716zm-2.863 1.5731c.127.0303.203.1562.171.2813l-2.7156 10.618c-.0319.1251-.1603.2019-.2867.1716-.1263-.0303-.2028-.1562-.1708-.2813l2.7161-10.618c.032-.1251.16-.2019.286-.1716z" fill="#000" fill-rule="evenodd"/><path clip-rule="evenodd" d="m108.6 86.91c.124.036.195.1653.157.2889l-2.324 7.6084c-.038.1236-.17.1945-.294.1585-.125-.0359-.196-.1653-.158-.2889l2.324-7.6084c.038-.1235.17-.1945.295-.1585z" fill="#000" fill-rule="evenodd"/><path d="m91.032 97.259v-15.512l-15.196-3.4824-10.764 3.4824v15.512l14.879 4.7484 11.08-4.7484z" fill="#fff"/><path clip-rule="evenodd" d="m65.463 79.626c.1296 0 .2346.105.2346.2345v20.449c0 .129-.105.234-.2345.234-.1296 0-.2346-.105-.2346-.234v-20.449c0-.1295.105-.2345.2345-.2345z" fill="#000" fill-rule="evenodd"/><path clip-rule="evenodd" d="m63.61 97.892c.0337-.1251.1629-.2007.2884-.169l18.683 4.7193c.1256.031.2.158.1664.284-.0337.125-.1629.2-.2885.169l-18.683-4.7194c-.1256-.0317-.2001-.1588-.1664-.2839z" fill="#000" fill-rule="evenodd"/><path clip-rule="evenodd" d="m61.982 80.603c.0254-.127.1492-.2106.2765-.1868l25.181 4.719c.1274.0238.21.1461.1846.2732-.0254.127-.1492.2106-.2765.1867l-25.181-4.7189c-.1273-.0239-.21-.1462-.1846-.2732z" fill="#000" fill-rule="evenodd"/><path clip-rule="evenodd" d="m74.98 77.448c.0311-.1257.1587-.2038.2848-.1745l20.307 4.7189c.1262.0293.2032.155.172.2808-.0311.1257-.1587.2038-.2848.1745l-20.307-4.7189c-.1262-.0293-.2032-.155-.172-.2808z" fill="#000" fill-rule="evenodd"/><path clip-rule="evenodd" d="m78.242 102.98c-.051-.119.0051-.255.1253-.303l16.246-6.5196c.1202-.0483.259.0091.31.1282.0509.1191-.0052.2547-.1254.303l-16.246 6.5194c-.1202.049-.2589-.009-.3099-.128z" fill="#000" fill-rule="evenodd"/><path clip-rule="evenodd" d="m79.046 84.698c-.036-.1244.0361-.2528.1611-.2868l14.683-3.9893c.125-.034.2556.0394.2916.1638.0361.1244-.036.2528-.161.2867l-14.683 3.9894c-.125.0339-.2556-.0394-.2917-.1638z" fill="#000" fill-rule="evenodd"/><path clip-rule="evenodd" d="m61.988 82.112c-.0388-.1236.0306-.2534.1548-.2899l20.825-6.118c.1243-.0365.2564.0341.2952.1577.0387.1236-.0306.2534-.1549.2899l-20.825 6.118c-.1243.0366-.2564-.0341-.2951-.1577z" fill="#000" fill-rule="evenodd"/><path clip-rule="evenodd" d="m80.897 83.558c.1296 0 .2346.105.2346.2346v18.876c0 .129-.105.234-.2346.234-.1295 0-.2345-.105-.2345-.234v-18.876c0-.1296.105-.2346.2345-.2346z" fill="#000" fill-rule="evenodd"/><path clip-rule="evenodd" d="m91.455 80.805c.1296 0 .2346.105.2346.2345v17.066c0 .1296-.105.2346-.2346.2346-.1295 0-.2345-.105-.2345-.2346v-17.066c0-.1295.105-.2345.2345-.2345z" fill="#000" fill-rule="evenodd"/><path clip-rule="evenodd" d="m88.793 81.434c.1264.0303.2029.1562.1709.2813l-4.6268 18.089c-.032.125-.1604.2016-.2867.1716-.1264-.0303-.2028-.1563-.1709-.2814l4.6268-18.089c.032-.1251.1604-.2019.2867-.1716zm2.4404.6505c.1258.0322.2003.1593.1664.2839l-4.7502 17.44c-.034.1246-.1635.1991-.2893.1672-.1259-.0322-.2004-.1593-.1665-.2839l4.7503-17.44c.0339-.1246.1635-.1994.2893-.1672zm-4.9573-.6506c.1263.0303.2028.1563.1708.2813-.8139 3.1821-1.6492 6.5071-2.472 9.7828l-.0399.1589c-.8091 3.2209-1.6054 6.3913-2.3563 9.3273-.032.125-.1604.202-.2868.172-.1263-.031-.2028-.157-.1708-.282.7507-2.9347 1.5468-6.1042 2.3559-9.3256l.0398-.1584c.8228-3.2755 1.6584-6.6014 2.4726-9.7847.032-.1251.1603-.2019.2867-.1716zm-2.8627 1.573c.1264.0303.2029.1563.1709.2814l-2.7157 10.618c-.032.1251-.1604.2019-.2867.1716-.1264-.0303-.2029-.1562-.1709-.2813l2.7157-10.618c.032-.1251.1604-.202.2867-.1717z" fill="#000" fill-rule="evenodd"/><path clip-rule="evenodd" d="m91.242 91.131c.1248.036.1953.1653.1576.2889l-2.3244 7.6084c-.0377.1235-.1694.1945-.2942.1585s-.1953-.1653-.1575-.2889l2.3243-7.6084c.0378-.1235.1695-.1945.2942-.1585z" fill="#000" fill-rule="evenodd"/><path d="m29.116 92.099v-15.512l-15.196-3.4824-10.764 3.4824v15.512l14.879 4.7488 11.08-4.7488z" fill="#fff"/><path clip-rule="evenodd" d="m3.5451 74.467c.12953 0 .23453.105.23453.2345l.00001 20.449c0 .1295-.10501.2345-.23454.2345s-.23453-.105-.23453-.2345v-20.449c0-.1295.105-.2345.23453-.2345z" fill="#000" fill-rule="evenodd"/><path clip-rule="evenodd" d="m1.6919 92.733c.0337-.1251.16282-.2007.28841-.169l18.683 4.7189c.1256.0318.2001.1589.1664.2839-.0337.1251-.1628.2008-.2884.1691l-18.683-4.719c-.12558-.0317-.20007-.1588-.16638-.2839z" fill="#000" fill-rule="evenodd"/><path clip-rule="evenodd" d="m.063551 75.444c.02539-.127.14918-.2106.27649-.1868l25.181 4.719c.1273.0238.2099.1462.1845.2732s-.1492.2106-.2765.1868l-25.181-4.719c-.12731-.0238-.20994-.1462-.18455-.2732z" fill="#000" fill-rule="evenodd"/><path clip-rule="evenodd" d="m13.062 72.289c.0311-.1258.1587-.2039.2849-.1746l20.307 4.7189c.1261.0294.2031.155.172.2808-.0312.1257-.1587.2038-.2849.1745l-20.307-4.7189c-.1262-.0293-.2032-.155-.172-.2807z" fill="#000" fill-rule="evenodd"/><path clip-rule="evenodd" d="m16.324 97.824c-.051-.119.0052-.2547.1254-.3029l16.246-6.5198c.1203-.0483.259.0092.31.1282.051.1191-.0052.2547-.1254.303l-16.246 6.5198c-.1202.0482-.259-.0092-.31-.1283z" fill="#000" fill-rule="evenodd"/><path clip-rule="evenodd" d="m17.128 79.539c-.0361-.1244.036-.2528.161-.2868l14.683-3.9893c.125-.034.2555.0394.2916.1638.036.1244-.0361.2528-.1611.2867l-14.683 3.9894c-.125.0339-.2556-.0394-.2916-.1638z" fill="#000" fill-rule="evenodd"/><path clip-rule="evenodd" d="m.070491 76.953c-.038734-.1236.030613-.2534.15489-.29l20.825-6.118c.1242-.0365.2564.0341.2951.1577s-.0306.2534-.1549.2899l-20.825 6.118c-.12428.0366-.25642-.034-.29516-.1576z" fill="#000" fill-rule="evenodd"/><path clip-rule="evenodd" d="m18.979 78.399c.1295 0 .2345.105.2345.2346v18.876c0 .1296-.105.2346-.2345.2346-.1296 0-.2346-.105-.2346-.2346v-18.876c0-.1296.105-.2346.2346-.2346z" fill="#000" fill-rule="evenodd"/><path clip-rule="evenodd" d="m29.537 75.646c.1295 0 .2345.105.2345.2345v17.066c0 .1295-.105.2345-.2345.2345-.1296 0-.2346-.105-.2346-.2345v-17.066c0-.1295.105-.2345.2346-.2345z" fill="#000" fill-rule="evenodd"/><path clip-rule="evenodd" d="m26.877 76.275c.1263.0303.2028.1562.1708.2813l-4.6267 18.089c-.032.1251-.1604.2019-.2867.1716-.1264-.0303-.2029-.1563-.1709-.2813l4.6268-18.089c.032-.1251.1603-.2019.2867-.1716zm2.4404.6505c.1258.0322.2003.1594.1664.284l-4.7503 17.44c-.0339.1246-.1634.1995-.2893.1672-.1258-.0322-.2003-.1593-.1664-.2839l4.7503-17.44c.0339-.1246.1634-.1995.2893-.1673zm-4.9573-.6506c.1263.0303.2028.1563.1708.2814-.8139 3.1821-1.6493 6.507-2.472 9.7827l-.0399.1589c-.8091 3.2209-1.6054 6.3914-2.3564 9.3274-.032.1251-.1603.2019-.2867.1716-.1263-.0303-.2028-.1563-.1708-.2813.7507-2.9351 1.5468-6.1046 2.3559-9.3259l.0398-.1584c.8228-3.2756 1.6584-6.6015 2.4726-9.7848.0319-.125.1603-.2019.2867-.1716zm-2.8627 1.5731c.1264.0303.2029.1562.1709.2813l-2.7157 10.618c-.032.1251-.1604.2019-.2867.1716-.1264-.0303-.2029-.1562-.1709-.2813l2.7157-10.618c.032-.1251.1604-.2019.2867-.1716z" fill="#000" fill-rule="evenodd"/><path clip-rule="evenodd" d="m29.326 85.972c.1248.036.1953.1653.1576.2889l-2.3244 7.6084c-.0377.1236-.1695.1946-.2942.1586-.1248-.036-.1953-.1654-.1576-.2889l2.3244-7.6085c.0377-.1235.1695-.1945.2942-.1585z" fill="#000" fill-rule="evenodd"/><path d="m95.048 77.804-.731-16.228-15.196-3.4824-10.764 3.4824v15.512l14.879 4.7487 11.811-4.0332z" fill="#fff"/><path clip-rule="evenodd" d="m68.748 59.456c.1295 0 .2345.105.2345.2345v20.449c0 .1296-.105.2346-.2345.2346s-.2345-.105-.2345-.2346v-20.449c0-.1295.105-.2345.2345-.2345z" fill="#000" fill-rule="evenodd"/><path clip-rule="evenodd" d="m66.895 77.722c.0337-.1251.1628-.2008.2884-.169l18.683 4.7189c.1256.0317.2001.1588.1664.2839s-.1628.2007-.2884.169l-18.683-4.7189c-.1256-.0317-.2001-.1588-.1664-.2839z" fill="#000" fill-rule="evenodd"/><path clip-rule="evenodd" d="m65.267 60.433c.0254-.127.1492-.2106.2765-.1868 4.1419.7762 7.279 1.3613 10.304 1.9253l.2599.0485c2.9328.5468 5.7839 1.0784 9.3713 1.7507.1273.0239.21.1462.1846.2732s-.1492.2106-.2765.1868c-3.5872-.6723-6.4382-1.2039-9.371-1.7507l-.2599-.0485c-3.025-.564-6.1623-1.1491-10.304-1.9253-.1273-.0239-.2099-.1462-.1845-.2732z" fill="#000" fill-rule="evenodd"/><path clip-rule="evenodd" d="m78.265 57.278c.0312-.1257.1587-.2039.2849-.1745l20.307 4.7189c.1262.0293.2032.155.172.2807-.0312.1258-.1587.2039-.2849.1746l-20.307-4.7189c-.1261-.0294-.2032-.155-.172-.2808z" fill="#000" fill-rule="evenodd"/><path clip-rule="evenodd" d="m82.16 82.33c-.0411-.1225.026-.2531.1499-.2916 1.3293-.4126 2.5357-.7797 3.6664-1.1237 4.0088-1.2198 7.0653-2.1498 11.265-3.7931.1207-.0472.259.0114.3089.1309s-.0074.2546-.1281.3018c-4.2178 1.6505-7.2944 2.5866-11.307 3.8075-1.1291.3435-2.3323.7096-3.6559 1.1205-.1239.0385-.2577-.0297-.2988-.1523z" fill="#000" fill-rule="evenodd"/><path clip-rule="evenodd" d="m82.331 64.528c-.0361-.1244.036-.2528.161-.2868l14.683-3.9893c.125-.034.2555.0393.2916.1637.0361.1245-.036.2528-.161.2868l-14.683 3.9893c-.125.034-.2555-.0393-.2916-.1637z" fill="#000" fill-rule="evenodd"/><path clip-rule="evenodd" d="m65.274 61.942c-.0387-.1236.0306-.2534.1549-.2899l20.825-6.118c.1243-.0365.2564.0341.2951.1577.0388.1236-.0306.2534-.1549.2899l-20.825 6.118c-.1243.0365-.2565-.0341-.2952-.1577z" fill="#000" fill-rule="evenodd"/><path clip-rule="evenodd" d="m84.182 63.388c.1295 0 .2345.105.2345.2345v18.876c0 .1295-.105.2345-.2345.2345s-.2345-.105-.2345-.2345v-18.876c0-.1295.105-.2345.2345-.2345z" fill="#000" fill-rule="evenodd"/><path clip-rule="evenodd" d="m94.74 60.635c.1295 0 .2345.105.2345.2345v17.066c0 .1296-.105.2346-.2345.2346s-.2345-.105-.2345-.2346v-17.066c0-.1295.105-.2345.2345-.2345z" fill="#000" fill-rule="evenodd"/><path clip-rule="evenodd" d="m94.878 61.265c.1255.0333.1989.1611.1638.2854l-5.1058 18.089c-.0351.1243-.1653.198-.2908.1647-.1256-.0334-.1989-.1612-.1638-.2855l5.1058-18.089c.0351-.1243.1653-.198.2908-.1646zm-2.8192.3642c.1259.0307.202.1564.1701.2812-.791 3.0926-1.6352 6.323-2.4693 9.5141l-.032.1225c-.8232 3.1495-1.6358 6.2585-2.3773 9.1577-.032.125-.1604.2019-.2867.1716-.1264-.0303-.2029-.1563-.1709-.2814l2.2876-8.9438.0004-.0015 2.5906-9.8489.0004-.0015c.0328-.1246.1611-.2006.2871-.17zm-3.0497 1.2073c.1263.0303.2028.1563.1708.2814-.8135 3.1804-1.51 6.1108-2.1943 8.9933l-.0333.1403c-.6728 2.8338-1.3353 5.6249-2.0867 8.5624-.032.125-.1603.2019-.2867.1716-.1263-.0303-.2028-.1563-.1708-.2814.7503-2.9335 1.4121-5.7212 2.0851-8.5561l.0329-.1387c.6842-2.8823 1.3817-5.8163 2.1963-9.0011.032-.1251.1603-.2019.2867-.1717zm-2.8227.4325c.1274.0257.2085.1488.1812.2749l-2.2101 10.183c-.0274.1261-.1528.2075-.2803.1818-.1274-.0258-.2085-.1488-.1812-.2749l2.2101-10.183c.0274-.1261.1529-.2074.2803-.1817z" fill="#000" fill-rule="evenodd"/><path clip-rule="evenodd" d="m94.529 70.96c.1248.036.1953.1653.1576.2889l-2.3244 7.6084c-.0377.1236-.1694.1945-.2942.1585-.1247-.036-.1953-.1653-.1575-.2889l2.3243-7.6084c.0378-.1235.1695-.1945.2942-.1585z" fill="#000" fill-rule="evenodd"/><path d="m49.394 64.483-17.07-2.9133v-15.638l17.07 2.1108 6.3832-3.7525 7.2705-2.8144-5.3942 4.4561v14.307l-8.2595 4.2448z" fill="#fff"/><g clip-rule="evenodd"><path d="m52.162 43.498c.1262.0299.203.1552.1718.2803l-.0003.0012-1.3157 5.2609c-.4443 1.7931-.8843 3.5686-1.2475 4.9888-.032.1248-.1599.2016-.2861.1717s-.2031-.1552-.1718-.2802l.0003-.0012 1.2468-4.9859c.0041-.0164.0082-.0329.0123-.0493l.012-.0485c.4525-1.8264.9088-3.6673 1.2921-5.1661.0319-.1248.1599-.2016.2861-.1717zm-3.9039-.8676c.1254.0341.198.1623.1622.2864l-1.3481 4.6782c-.0358.1241-.1664.1971-.2917.1631-.1254-.0341-.198-.1623-.1622-.2864l1.3481-4.6782c.0358-.1241.1664-.1971.2917-.1631zm2.2625.543c.1254.0338.1982.1619.1626.2861l-1.308 4.5686c-.0356.1242-.166.1974-.2914.1636s-.1983-.1619-.1627-.2861l1.308-4.5686c.0356-.1242.1661-.1974.2915-.1636zm2.6531 2.2827c.1264.0303.2028.1562.1709.2813-.3835 1.4993-1.0417 3.96-1.696 6.4055l-.0172.0643c-.6487 2.4249-1.2912 4.8262-1.6572 6.2571-.032.125-.1603.2019-.2867.1716-.1263-.0303-.2028-.1563-.1708-.2814.3666-1.4333 1.0095-3.8363 1.6576-6.2589l.0181-.0674c.6545-2.4466 1.3119-4.9043 1.6946-6.4005.032-.1251.1603-.2019.2867-.1716z" fill="#000" fill-rule="evenodd"/><path d="m56.931 45.28c.127.0278.206.1522.1766.2778l-4.1954 18.123c-.0294.1257-.1562.2051-.2832.1773s-.206-.1522-.1766-.2778l4.1954-18.123c.0294-.1257.1562-.205.2832-.1773zm-2.2912.997c.1268.0285.2052.1533.1751.2788l-4.5022 18.758c-.0301.1255-.1574.2042-.2842.1757-.1268-.0284-.2052-.1532-.175-.2788l4.5022-18.758c.0301-.1255.1573-.2042.2841-.1758zm2.5752 6.6834c.1268.0282.2054.1529.1755.2785l-2.0223 8.4845c-.0299.1256-.157.2045-.2838.1762-.1269-.0282-.2055-.1529-.1755-.2785l2.0222-8.4845c.0299-.1256.157-.2045.2839-.1762z" fill="#000" fill-rule="evenodd"/><path d="m36.995 37.675c.1264.0304.2028.1564.1707.2814l-1.8283 7.1287c-.0321.125-.1605.2018-.2868.1714s-.2028-.1564-.1707-.2815l1.8283-7.1286c.0321-.1251.1605-.2018.2868-.1714zm1.6853.9284c.1262.0304.2026.1563.1706.2813-.2657 1.0388-.4734 1.8385-.6793 2.6313l-.0041.0154c-.0013.0051-.0026.0101-.0039.0151l-.6608 2.5594-.0001.0005c-.0323.1249-.1607.2015-.2869.1711s-.2025-.1563-.1706-.2813c.2556-.9992.458-1.7784.6612-2.5607l.687-2.6606.0001-.0005c.0322-.1249.1606-.2014.2868-.171zm1.6849.9789c.1264.0303.2029.1563.1709.2813l-.8347 3.2633c-.032.1251-.1603.202-.2867.1717-.1263-.0303-.2028-.1563-.1708-.2814l.8346-3.2633c.032-.1251.1604-.2019.2867-.1716z" fill="#000" fill-rule="evenodd"/><path d="m38.344 43.165c.1264.0303.2029.1562.1709.2813l-.6693 2.6168c-.032.125-.1604.2019-.2867.1716-.1264-.0303-.2028-.1563-.1709-.2814l.6693-2.6167c.032-.1251.1604-.2019.2867-.1716zm-2.9166 1.3114c.1263.0303.2028.1563.1708.2813l-.3338 1.3054c-.032.125-.1604.2019-.2867.1716-.1264-.0303-.2029-.1563-.1709-.2814l.3339-1.3053c.032-.125.1603-.2019.2867-.1716z" fill="#000" fill-rule="evenodd"/><path d="m43.454 41.54c.1264.0303.2028.1563.1709.2814l-1.252 4.8949c-.032.1251-.1604.2019-.2867.1716-.1264-.0303-.2029-.1562-.1709-.2813l1.252-4.8949c.032-.1251.1603-.202.2867-.1717zm2.3308.979c.1264.0303.2029.1563.1709.2814l-1.1685 4.5686c-.032.125-.1604.2019-.2867.1716-.1264-.0303-.2029-.1563-.1709-.2813l1.1685-4.5687c.032-.125.1604-.2019.2867-.1716zm-4.7447-.3716c.1263.0303.2028.1563.1708.2814l-1.0966 4.2875c-.032.1251-.1604.2019-.2867.1716-.1264-.0303-.2029-.1562-.1709-.2813l1.0967-4.2875c.0319-.1251.1603-.202.2867-.1717z" fill="#000" fill-rule="evenodd"/><path d="m33.127 44.72c.1295 0 .2345.105.2345.2345v16.969c0 .1295-.105.2345-.2345.2345s-.2345-.105-.2345-.2345v-16.969c0-.1295.105-.2345.2345-.2345z" fill="#000" fill-rule="evenodd"/><path d="m32.222 61.231c.0235-.1274.146-.2128.2737-.1907l18.874 3.2633c.1277.022.2121.1432.1886.2706s-.146.2127-.2736.1907l-18.874-3.2633c-.1276-.0221-.2121-.1432-.1886-.2706z" fill="#000" fill-rule="evenodd"/><path d="m32.222 45.571c.0213-.1278.1423-.2151.2703-.1952l20.896 3.2633c.128.02.2144.1398.1932.2676-.0213.1277-.1423.2151-.2703.1951l-20.896-3.2633c-.128-.02-.2145-.1397-.1932-.2675z" fill="#000" fill-rule="evenodd"/><path d="m40.647 41.986c.0182-.1282.1371-.2183.2655-.2011 3.3119.4423 6.4364 1.0059 9.465 1.5522 1.703.3071 3.3757.6089 5.0343.8805.1278.0209.2135.1414.1915.269-.0221.1277-.1436.2142-.2714.1933-1.6741-.2741-3.3534-.5771-5.0591-.8848-3.0202-.5449-6.1231-1.1047-9.4264-1.5459-.1284-.0171-.2177-.135-.1994-.2632zm16.852 2.6068c.0204-.128.1408-.216.2689-.1968.3168.0477.4558.1231.5831.1929l.0049.0028c.0926.0508.1785.098.4192.1301.1284.0172.2176.135.1994.2632-.0183.1283-.1372.2183-.2656.2012-.3168-.0423-.4568-.1149-.5869-.1863l-.0092-.0051c-.0937-.0515-.1816-.0998-.4188-.1355-.1281-.0193-.2154-.1386-.195-.2665z" fill="#000" fill-rule="evenodd"/><path d="m49.096 64.966c-.0611-.1142-.0168-.2539.099-.312 1.7693-.8876 3.5023-1.8413 5.1915-2.7732.049-.0271.098-.0541.1469-.0811 1.6363-.9028 3.2319-1.7832 4.7726-2.5561.1157-.058.2591-.0125.3203.1017.0611.1142.0168.2538-.099.3119-1.5323.7687-3.1208 1.6452-4.76 2.5496-.0477.0263-.0954.0526-.1432.079-1.6884.9315-3.4291 1.8895-5.2078 2.7818-.1158.0581-.2592.0126-.3203-.1016z" fill="#000" fill-rule="evenodd"/><path d="m49.095 49.021c-.0599-.1149-.0141-.2541.1022-.311l9.437-4.6158c.1163-.0569.2592-.01.3191.1049.06.1148.0142.254-.1022.3109l-9.4369 4.6159c-.1163.0569-.2592.0099-.3192-.1049z" fill="#000" fill-rule="evenodd"/><path d="m30.891 46.859c-.0528-.1183.0013-.2547.1208-.3047l12.133-5.077c.1195-.05.2592.0054.312.1237s-.0013.2547-.1208.3047l-12.133 5.0769c-.1195.05-.2592-.0053-.312-.1236z" fill="#000" fill-rule="evenodd"/><path d="m49.979 48.636c.1295 0 .2345.105.2345.2346v15.664c0 .1295-.105.2345-.2345.2345-.1296 0-.2346-.105-.2346-.2345v-15.664c0-.1296.105-.2346.2346-.2346z" fill="#000" fill-rule="evenodd"/><path d="m57.395 44.72c.1295 0 .2345.105.2345.2345v16.316c0 .1296-.105.2346-.2345.2346s-.2345-.105-.2345-.2346v-16.316c0-.1295.105-.2345.2345-.2345z" fill="#000" fill-rule="evenodd"/><path d="m25.935 40.998c.0675-.1106.2118-.1456.3224-.0781 2.0162 1.2297 3.9572 2.5628 5.8928 3.8922.6506.4468 1.3006.8932 1.9527 1.3352.1072.0726.1352.2185.0625.3257-.0726.1072-.2185.1352-.3257.0625-.6574-.4455-1.3107-.8942-1.9633-1.3424-1.9328-1.3275-3.8589-2.6502-5.8633-3.8727-.1105-.0675-.1455-.2118-.0781-.3224z" fill="#000" fill-rule="evenodd"/><path d="m34.278 36.345c.0689-.1096.2137-.1427.3233-.0738 1.6748 1.0523 3.734 2.4928 5.6589 3.8394 1.0486.7335 2.0572 1.4391 2.9423 2.039.1072.0727.1352.2185.0625.3257-.0726.1073-.2185.1353-.3257.0626-.8977-.6085-1.9132-1.3189-2.965-2.0548-1.9177-1.3415-3.9562-2.7677-5.6225-3.8147-.1097-.0689-.1427-.2137-.0738-.3234z" fill="#000" fill-rule="evenodd"/><path d="m36.716 36.382c.0485.1201-.0096.2568-.1297.3052-4.0411 1.6304-7.0717 2.9345-11.451 4.8916-.1183.0529-.257-.0002-.3098-.1184-.0529-.1183.0001-.257.1184-.3098 4.3833-1.9589 7.4194-3.2654 11.467-4.8984.1201-.0484.2568.0097.3052.1298z" fill="#000" fill-rule="evenodd"/><path d="m54.888 44.817c.0761.1048.0528.2514-.052.3275-1.1545.8385-2.364 1.7989-3.6045 2.784-.5048.4009-1.0148.8059-1.5284 1.2084-.1019.0799-.2493.062-.3292-.0399-.0799-.102-.0621-.2494.0399-.3293.5078-.398 1.0144-.8003 1.5174-1.1998 1.244-.9878 2.466-1.9582 3.6292-2.8029.1048-.0761.2515-.0529.3276.052z" fill="#000" fill-rule="evenodd"/><path d="m62.968 40.888c.0828.0996.069.2475-.0306.3302-1.8992 1.5761-3.3683 2.5244-4.6959 3.3813-.3305.2134-.6523.421-.9697.6313-.108.0715-.2535.042-.3251-.066-.0715-.108-.0419-.2535.066-.325.323-.214.6484-.424.9811-.6388 1.3255-.8557 2.7683-1.7871 4.644-3.3437.0997-.0827.2475-.069.3302.0307z" fill="#000" fill-rule="evenodd"/><path d="m63.341 41.032c.0484.1201-.0097.2568-.1298.3053-1.5907.6417-3.0717 1.3366-4.5525 2.0441-.1994.0953-.3989.1909-.5986.2865-1.2818.6139-2.5747 1.2332-3.9431 1.8277-.1188.0516-.2569-.0029-.3086-.1217-.0516-.1188.0029-.2569.1217-.3086 1.3598-.5908 2.6443-1.2059 3.9265-1.82.2-.0958.3998-.1915.5999-.2871 1.4818-.708 2.9741-1.4084 4.5792-2.056.1201-.0484.2568.0097.3053.1298z" fill="#000" fill-rule="evenodd"/></g><path d="m53.667 46.4c-3.2835 3.0489-6.8015.9381-9.6159.9381-3.0489-.469-8.6778-.9381-8.6778-1.6417 0-4.9221 3.054-7.2931 7.5051-7.5051 4.9252-.2345 10.789 3.2866 10.789 8.2087z" fill="#fff"/><path clip-rule="evenodd" d="m53.61 45.254c.0185.1554.0323.312.0414.4698-.7282.1159-1.4364.2399-2.1409.3636l-.0432.0076c-1.141.2002-2.2738.399-3.4601.5581-.128.0172-.2508-.0724-.2744-.2002-.0235-.1277.0612-.2452.1892-.2624 1.1769-.1579 2.3018-.3553 3.4454-.556l.0394-.0069c.7216-.1267 1.4507-.2544 2.2032-.3736zm-.4321-1.7947c.0574.156.11.3139.1577.4736l-1.5016.2601c-1.17.2248-2.3406.4493-3.4686.6007-.1263.0169-.2479-.0702-.2735-.1959s.0542-.2437.1795-.2654l3.4557-.5987.0227-.0043.0178-.0034c.4687-.0901.9398-.1806 1.4103-.2667zm-.8775-1.7378c.0939.1436.1836.2896.269.438l-3.1141.4179c-.128.0171-.2508-.0725-.2743-.2003-.0236-.1277.0611-.2452.1891-.2624zm-1.2346-1.5124c.1395.1391.2746.2823.405.4291-.5699.0939-1.1454.1826-1.7341.2616-.1268.017-.2488-.0709-.2738-.1972s.0563-.2442.1825-.2646zm-.1492 8.7832c.9433.1463 1.6319.0954 2.0838-.3239-.0352-.012-.0733-.0162-.1118-.0107-.6508.0931-1.3107.209-1.972.3346zm-3.4914-.8289 5.4588-.7809c.1279-.0183.2115-.1365.1868-.2641-.0246-.1275-.1482-.2161-.2761-.1978l-6.5979.9439c.4292.0997.8386.2004 1.2284.2989z" fill="#000" fill-rule="evenodd"/><path clip-rule="evenodd" d="m53.374 47.197c-.1291-.0111-.2247-.1247-.2137-.2537.0253-.2948.0255-.5765.0002-.8414-.0007-.0074-.001-.0148-.001-.0222 0-1.1504-.4002-2.5828-1.1663-3.8887-.7654-1.3045-1.8842-2.463-3.3039-3.0883-2.0504-.9032-4.5761-1.2169-6.8979-.5651-2.3099.6485-4.4308 2.2555-5.6941 5.2231-.2034.7168-.3217 1.5082-.3486 2.3231-.0042.1294-.1127.2309-.2421.2266-.1295-.0042-.231-.1127-.2267-.2421.0282-.8545.1529-1.6894.3703-2.4503.0027-.0092.0059-.0183.0096-.0271 1.319-3.1091 3.5561-4.8175 6.0049-5.5049 2.4403-.6851 5.0778-.3534 7.2137.5874 1.5311.6745 2.7173 1.9132 3.5194 3.2802.7988 1.3616 1.2282 2.8702 1.2307 4.115.0272.2927.0262.5991-.0008.9147-.0111.1291-.1247.2247-.2537.2137z" fill="#000" fill-rule="evenodd"/><path clip-rule="evenodd" d="m32.093 45.426c.0213-.1278.1423-.2152.2703-.1952l20.896 3.2633c.1279.02.2144.1398.1932.2676-.0213.1277-.1423.2151-.2703.1951l-20.896-3.2633c-.128-.02-.2145-.1398-.1932-.2675z" fill="#000" fill-rule="evenodd"/><path d="m47.554 33.554c-3.2835-.4691-12.43-2.8145-12.899-3.049-.9382-4.2215-8.0209-19.154 1.4071-22.046 15.162-4.651 22.668 4.4958 24.157 7.7397 1.8466 4.0215.0001 16.417-1.1726 17.356-1.1726.9381-8.2086.469-11.492 0z" fill="url(#a)"/><path clip-rule="evenodd" d="m55.934 11.144c-3.4759-2.7379-8.4481-3.9878-13.894-3.7925-3.2868.11785-5.6555.67576-7.3236 1.5614-1.6605.8816-2.634 2.0913-3.1326 3.54-.5015 1.4573-.5281 3.1732-.2581 5.0682.2698 1.8938.8329 3.9474 1.4941 6.0721.2901.9325.5996 1.8794.9109 2.8318 1.1013 3.3698 2.2249 6.8078 2.5957 9.9185.2385 2.0007.1696 3.889-.4265 5.5553-.5983 1.6725-1.7223 3.1063-3.5643 4.2-.1114.0661-.2553.0295-.3214-.0819s-.0294-.2553.0819-.3214c1.7509-1.0396 2.8017-2.388 3.3621-3.9547.5627-1.5729.6362-3.3809.4024-5.3418-.3647-3.0598-1.4678-6.436-2.5664-9.7985-.3136-.9597-.6268-1.9182-.9223-2.8679-.6629-2.1303-1.2353-4.2131-1.5106-6.1453-.2752-1.9311-.2566-3.7308.279-5.287.5385-1.5647 1.5941-2.8662 3.3562-3.8017 1.7545-.93152 4.2019-1.4966 7.5267-1.6158 5.5183-.19787 10.612 1.0653 14.202 3.8927 3.6002 2.8359 5.66 7.2246 5.1355 13.204-.7967 9.0825-4.1475 18.118-10.141 24.968-.0853.0975-.2335.1074-.331.0221-.0974-.0853-.1073-.2335-.022-.331 5.9174-6.7627 9.2372-15.7 10.027-24.7.512-5.8365-1.4933-10.066-4.9585-12.795z" fill="#000" fill-rule="evenodd"/><path clip-rule="evenodd" d="m39.953 28.88c.2896.0061.5435.0115.7436.0115 3.829 0 4.8579.1127 8.0798.4657.3541.0388.7346.0805 1.1483.1252.292.0316.6032.0634.9286.0966 1.1532.1177 2.4837.2536 3.767.4641 1.6396.2689 3.2418.6652 4.3201 1.3253.2347.1436.4093.3138.5088.5088.102.2.1175.4127.0538.6154-.1225.3895-.5172.6949-1.0118.8814-.9705.3659-2.1409.5228-3.3169.5845-1.1008.0578-2.2227.0327-3.2094.0105-.069-.0015-.1373-.003-.205-.0045-6.4639-.1421-9.5045-.9104-15.013-2.3023-.0942-.0238-.1892-.0478-.285-.072-.0054.009-.0114.0178-.0182.0263-.0808.1012-.2284.1177-.3296.0369-.0838-.0669-.2126-.1472-.3728-.245-.1178-.0297-.2368-.0596-.357-.0898-.1125-.0282-.1854-.1333-.1768-.2451-.0958-.0645-.1898-.1318-.2768-.2011-.199-.1585-.4013-.3577-.4779-.5922-.0411-.1259-.0463-.2632.0046-.401.0495-.1341.1447-.2488.2698-.3477.3047-.2406.7609-.3879 1.26-.4833.5064-.0967 1.0897-.1455 1.6748-.1683.8057-.0314 1.639-.0137 2.2914.0001zm-4.0285 2.0909c.3199.0806.6313.1593.935.236 5.5032 1.3904 8.5005 2.1477 14.911 2.2886.0668.0015.1341.003.202.0045.9897.0222 2.095.0469 3.1775-.0099 1.1586-.0608 2.2726-.2144 3.176-.555.4407-.1662.6711-.3965.7298-.5832.0269-.0854.022-.171-.0242-.2616-.0487-.0955-.15-.2081-.3358-.3219-.9943-.6086-2.5168-.9944-4.1511-1.2624-1.2676-.208-2.5786-.3418-3.7302-.4594-.3278-.0335-.6427-.0657-.94-.0978-.4149-.0449-.7962-.0867-1.1507-.1255-3.213-.352-4.2234-.4627-8.0269-.4627-.2163 0-.4805-.0056-.7772-.012-.6468-.0138-1.4475-.0308-2.2396 0-.5743.0224-1.1314.0699-1.605.1604-.481.0918-.8443.2225-1.0572.3907-.0793.0626-.1094.1116-.1206.1419-.0098.0267-.0112.0546.0013.093.0308.0942.135.2202.3242.3709.1812.1443.4043.284.6219.4167.0244.0149.0488.0297.0733.0446.0022.0014.0045.0027.0068.0041z" fill="#000" fill-rule="evenodd"/><path clip-rule="evenodd" d="m36.242 28.806c.0749-.1057.2212-.1307.3269-.0558.5609.3972 1.1075.8199 1.6492 1.2388.2544.1966.5076.3924.7607.5844.797.6044 1.6021 1.178 2.4719 1.6524.1137.062.1556.2045.0936.3182s-.2045.1556-.3182.0936c-.9009-.4914-1.7281-1.0818-2.5307-1.6905-.2607-.1977-.5179-.3966-.7742-.5947-.5373-.4155-1.0705-.8278-1.6234-1.2194-.1057-.0749-.1307-.2213-.0558-.327z" fill="#000" fill-rule="evenodd"/><path clip-rule="evenodd" d="m39.917 29.002c.0711-.1082.2165-.1384.3248-.0673 1.9092 1.2535 3.7344 2.7279 5.4908 4.165.1002.082.115.2297.033.33-.082.1002-.2298.115-.33.033-1.7576-1.438-3.5653-2.8976-5.4513-4.1359-.1082-.0711-.1384-.2165-.0673-.3248z" fill="#000" fill-rule="evenodd"/><path clip-rule="evenodd" d="m43.428 28.692c.086-.0969.2342-.1057.3311-.0197 1.4857 1.3191 3.0328 2.4766 4.7381 3.4901.679.4036 1.3167.8378 1.9442 1.3084.1036.0777.1246.2247.0469.3283-.0778.1037-.2248.1247-.3284.047-.616-.4621-1.2397-.8866-1.9023-1.2804-1.7338-1.0305-3.3047-2.2062-4.8099-3.5426-.0969-.086-.1057-.2342-.0197-.3311z" fill="#000" fill-rule="evenodd"/><path clip-rule="evenodd" d="m46.901 29.187c.0734-.1067.2194-.1337.3262-.0603 1.4171.9748 2.8862 1.837 4.3736 2.71.1757.1031.3517.2064.5279.31.7214.4244 1.4458.8692 2.0984 1.4285.0984.0843.1097.2324.0254.3307-.0842.0984-.2323.1098-.3307.0255-.6184-.5301-1.3112-.957-2.031-1.3804-.1759-.1035-.352-.2068-.528-.3101-1.4855-.8718-2.9696-1.7427-4.4015-2.7278-.1067-.0734-.1337-.2194-.0603-.3261z" fill="#000" fill-rule="evenodd"/><path clip-rule="evenodd" d="m51.792 29.962c.0615-.114.2038-.1565.3178-.0949 2.0086 1.0842 3.9515 2.2619 5.8643 3.4995.1087.0704.1398.2156.0695.3244-.0704.1087-.2156.1398-.3243.0695-1.9052-1.2328-3.8373-2.4037-5.8324-3.4807-.1139-.0615-.1565-.2038-.0949-.3178z" fill="#000" fill-rule="evenodd"/><path clip-rule="evenodd" d="m53.442 18.832c0 .979-.2143 1.9277-.5815 2.7847l-2.54-2.5095c.306-.4889.4591-1.0707.4591-1.6827.0305-1.7442-1.4078-3.183-3.1827-3.183-.6425 0-1.224.1835-1.7136.49l-2.3564-2.326c.8875-.3971 1.8361-.612 2.8765-.612 3.8866 0 7.0386 3.1517 7.0386 7.0385zm-10.894-5.8749 2.5399 2.5397c-.4284.5505-.6732 1.224-.6732 1.9579 0 1.7756 1.4382 3.2133 3.2132 3.2133.7344 0 1.4077-.2451 1.9585-.6736l2.7236 2.7244c-1.2853 1.8964-3.4275 3.1517-5.9063 3.1517-3.8864 0-7.0384-3.1517-7.0384-7.0385 0-2.4782 1.2547-4.6207 3.1827-5.8749zm5.0799 6.4869c1.1934 0 2.1421-.9488 2.1421-2.1425 0-1.1927-.9487-2.1415-2.1421-2.1415-1.1935 0-2.1422.9488-2.1422 2.1415 0 1.1937.9487 2.1425 2.1422 2.1425z" fill="#fff" fill-rule="evenodd"/><path clip-rule="evenodd" d="m15.691 20.309c.1208-.0467.2566.0134.3033.1342.2373.6139.4789 1.2282.721 1.8436 1.4234 3.6186 2.8631 7.2786 3.5357 11.146.0222.1276-.0632.2491-.1909.2713-.1276.0222-.249-.0633-.2712-.1909-.6638-3.8168-2.0835-7.4268-3.5073-11.047-.2427-.6173-.4856-1.2348-.7248-1.8538-.0467-.1208.0133-.2566.1342-.3033z" fill="#000" fill-rule="evenodd"/><path clip-rule="evenodd" d="m22.088 30.274c.1259-.0302.2525.0475.2827.1735.2432 1.0159.4272 2.0285.612 3.0457.0091.0501.0182.1002.0273.1502.0232.1275-.0613.2496-.1888.2727-.1274.0232-.2495-.0613-.2727-.1887-.0089-.0489-.0177-.0977-.0266-.1465-.1854-1.0203-.3672-2.0212-.6074-3.0242-.0302-.126.0475-.2526.1735-.2827z" fill="#000" fill-rule="evenodd"/><path clip-rule="evenodd" d="m72.687 1.4859c.085-.09774.2331-.10807.3308-.02308.0286.02486.0574.04984.0862.07494 1.698 1.4762 3.8813 3.3743 5.0955 5.4829.6202 1.077.9983 2.2259.9195 3.4147-.0486.7352-.2713 1.4744-.7054 2.2109.4418.3269.7932.7315 1.0091 1.2195.4358.9854.2873 2.2367-.6413 3.7319-1.1513 1.8538-2.7954 3.2214-4.4421 4.5328-.1237.0985-.2473.1967-.3708.2947-1.5303 1.2146-3.0328 2.4072-4.1829 3.9379-2.4254 3.2279-3.7901 7.7935-2.848 11.724.0302.1259-.0475.2525-.1734.2827-.126.0302-.2526-.0474-.2828-.1734-.9821-4.0977.441-8.8039 2.9292-12.115 1.1881-1.5812 2.737-2.8102 4.258-4.017.1264-.1004.2527-.2005.3785-.3007 1.6492-1.3134 3.2323-2.6365 4.3358-4.4134.882-1.4201.9611-2.5027.6108-3.2946-.1734-.392-.4595-.7306-.8341-1.0135-.2268.3263-.4965.6518-.8125.976-.8456.8675-2.1488 1.6794-3.5385 2.1572-1.3861.4765-2.8978.6336-4.1441.1371-.7851-.3129-1.0961-.9673-1.0631-1.6351.0323-.6507.3879-1.3177.925-1.7284.9149-.6997 2.1774-1.1372 3.486-1.3147 1.3103-.1777 2.6897-.0981 3.8494.2583.4154.1276.8073.2924 1.159.4965.393-.6732.5873-1.3364.6302-1.9846.0706-1.0671-.2668-2.1232-.858-3.1497-1.1744-2.0395-3.308-3.8947-5.025-5.3875l-.0579-.05041c-.0978-.08499-.1081-.23313-.0231-.33088zm5.0806 11.298c-.3091-.1774-.66-.3255-1.0436-.4433-1.0847-.3333-2.3943-.412-3.6485-.2419-1.2558.1704-2.4331.587-3.2642 1.2225-.4315.3299-.7162.871-.7414 1.379-.0243.4909.1902.9458.7683 1.1761 1.0997.4382 2.4852.3133 3.8179-.1449 1.3294-.457 2.5671-1.2325 3.3551-2.041.2959-.3036.5467-.6059.7564-.9065z" fill="#000" fill-rule="evenodd"/><path clip-rule="evenodd" d="m91.955.065474c.0934.089778.0963.23825.0065.33162l-4.7045 4.8927c-.0898.09337-.2382.09628-.3316.0065s-.0963-.23825-.0065-.33162l4.7045-4.8927c.0897-.093369.2382-.09628.3316-.0065023z" fill="#000" fill-rule="evenodd"/><path clip-rule="evenodd" d="m97.08 3.8864c.0618.11383.0196.25621-.0942.31801l-6.5863 3.5754c-.1138.06179-.2562.01961-.318-.09423s-.0196-.25622.0942-.31802l6.5863-3.5754c.1138-.0618.2562-.01961.318.09423z" fill="#000" fill-rule="evenodd"/><path clip-rule="evenodd" d="m25.551 54.572c.1295-.0012.2355.1029.2366.2324.0428 4.8346.0583 9.6605 0 14.495-.0016.1296-.1078.2333-.2373.2317-.1296-.0015-.2333-.1078-.2317-.2373.0582-4.8296.0427-9.652 0-14.485-.0012-.1295.1029-.2355.2324-.2366z" fill="#000" fill-rule="evenodd"/><path clip-rule="evenodd" d="m28.016 63.982c.1292.0092.2265.1214.2172.2506-.116 1.6241-.0141 3.2275.0894 4.8556.0359.564.0719 1.131.0991 1.7028.0062.1294-.0937.2393-.2231.2454-.1294.0062-.2392-.0937-.2454-.2231-.0264-.5551-.0618-1.1117-.0973-1.6697-.1041-1.637-.209-3.286-.0905-4.9444.0092-.1292.1214-.2265.2506-.2172z" fill="#000" fill-rule="evenodd"/></svg>