<svg fill="none" height="54" viewBox="0 0 63 54" width="63" xmlns="http://www.w3.org/2000/svg" xmlns:xlink="http://www.w3.org/1999/xlink"><linearGradient id="a" gradientUnits="userSpaceOnUse" x1="32.2789" x2="32.2789" y1="54" y2="24.1508"><stop offset="0" stop-color="#808080" stop-opacity=".25"/><stop offset=".54" stop-color="#808080" stop-opacity=".12"/><stop offset="1" stop-color="#808080" stop-opacity=".1"/></linearGradient><linearGradient id="b" gradientUnits="userSpaceOnUse" x1="15.7835" x2="15.7835" y1="31.7487" y2="26.4573"><stop offset="0" stop-color="#b3b3b3" stop-opacity=".25"/><stop offset=".54" stop-color="#b3b3b3" stop-opacity=".1"/><stop offset="1" stop-color="#b3b3b3" stop-opacity=".05"/></linearGradient><clipPath id="c"><path d="m0 0h63v54h-63z"/></clipPath><g clip-path="url(#c)"><path d="m46.8772 24.5578s1.8968-7.0553-1.8967-14.3141" stroke="#e0e0e0" stroke-linecap="round" stroke-linejoin="round"/><path d="m20.8709 22.2608c.6693-2.738.8691-8.446-7.9705-10.8692" stroke="#e0e0e0" stroke-linecap="round" stroke-linejoin="round"/><path d="m59.7483 24.1508h-54.93873v29.8492h54.93873z" fill="url(#a)"/><path d="m59.3413 24.5578h-54.0581v28.662h54.0581z" fill="#fff"/><path d="m15.7835 31.7487c1.4591 0 2.642-1.1845 2.642-2.6457s-1.1829-2.6457-2.642-2.6457-2.6419 1.1845-2.6419 2.6457 1.1828 2.6457 2.6419 2.6457z" fill="url(#b)"/><path d="m15.7841 31.4774c1.3094 0 2.3709-1.0631 2.3709-2.3744s-1.0615-2.3744-2.3709-2.3744c-1.3095 0-2.371 1.0631-2.371 2.3744s1.0615 2.3744 2.371 2.3744z" fill="#0278d5"/><path d="m34.5483 28.2211h-13.3452v1.3568h13.3452z" fill="#bdbdbd"/><path d="m49.079 37.0063h-33.329v1.3568h33.329z" fill="#e0e0e0"/><path d="m49.079 34.0213h-33.329v1.3568h33.329z" fill="#e0e0e0"/><path d="m49.079 39.9912h-33.329v1.3568h33.329z" fill="#e0e0e0"/><path d="m49.079 42.9761h-33.329v1.3568h33.329z" fill="#e0e0e0"/><path d="m49.079 45.9611h-33.329v1.3567h33.329z" fill="#e0e0e0"/><path d="m49.079 48.946h-33.329v1.3568h33.329z" fill="#e0e0e0"/><path d="m10.5395 22.5735c.0515-1.4667-.1273-3.6593-1.40766-5.1158" stroke="#bdbdbd" stroke-linecap="round" stroke-linejoin="round"/><path d="m41.1596 23.1841c.0515-1.4667-.1273-3.6593-1.4076-5.1158" stroke="#e0e0e0" stroke-linecap="round" stroke-linejoin="round"/><path d="m53.8827 22.5735c-.0515-1.4667.1273-3.6593 1.4077-5.1158" stroke="#bdbdbd" stroke-linecap="round" stroke-linejoin="round"/><g fill="#0278d5"><path d="m7.51936 7.78659h-7.51936v4.09951h7.51936z" opacity=".7"/><path d="m48.7059 5.00517h-7.5194v4.09953h7.5194z" opacity=".7"/><path d="m42.2713 12.3318h-7.5193v4.0995h7.5193z" opacity=".7"/><path d="m17.8694 8.65492h-12.24635v6.67608h12.24635z"/><path d="m63.0003 8.99413h-12.2464v6.67607h12.2464z"/><path d="m35.2591 0h-12.2464v6.67606h12.2464z"/></g><path d="m28.6432 22.5369c.4152-1.4491.6855-3.7644-.6314-6.1544-1.6258-2.9517-.1639-5.8274.6673-7.0797" stroke="#bdbdbd" stroke-linecap="round" stroke-linejoin="round"/></g></svg>