<svg fill="none" height="60" viewBox="0 0 86 60" width="86" xmlns="http://www.w3.org/2000/svg"><path clip-rule="evenodd" d="m83.9174.806885h-82.72829c-.315262.00035-.617515.125758-.840442.348705-.222926.22295-.34831819.52523-.348668.84053v56.06398c.00035026.3153.125742.6176.348668.8405.222927.223.52518.3484.840442.3487h82.72829c.3153-.0003.6175-.1257.8405-.3487.2229-.2229.3483-.5252.3486-.8405v-56.06398c-.0003-.3153-.1257-.61758-.3486-.84053-.223-.222947-.5252-.348355-.8405-.348705zm.8494 57.253215c-.0001.2253-.0896.4413-.2489.6005-.1593.1593-.3752.2489-.6005.2489h-82.72829c-.225235 0-.441224-.0896-.600492-.2489-.159267-.1592-.248781-.3752-.248871-.6005v-52.14969h84.427053zm0-52.48947h-84.427053v-3.57451c.00009-.22526.089604-.44127.248871-.60055.159268-.15929.375257-.24881.600492-.2489h82.72829c.2253.00009.4412.08961.6005.2489.1593.15928.2488.37529.2489.60055zm-80.68995-2.21538c0 .56297-.45633 1.01935-1.01924 1.01935s-1.01924-.45638-1.01924-1.01935.45633-1.01934 1.01924-1.01934 1.01924.45637 1.01924 1.01934zm1.91123 1.01935c.56291 0 1.01924-.45638 1.01924-1.01935s-.45633-1.01934-1.01924-1.01934-1.01924.45637-1.01924 1.01934.45633 1.01935 1.01924 1.01935zm3.94951-1.01935c0 .56297-.45633 1.01935-1.01924 1.01935s-1.01924-.45638-1.01924-1.01935.45633-1.01934 1.01924-1.01934 1.01924.45637 1.01924 1.01934zm58.66161 13.84005h-52.6608c-.6983 0-1.368-.2774-1.8618-.7712-.4938-.4939-.7712-1.1637-.7712-1.8621s.2774-1.3682.7712-1.862 1.1635-.7713 1.8618-.7713h52.6608c.6983 0 1.368.2775 1.8618.7713s.7712 1.1636.7712 1.862-.2774 1.3682-.7712 1.8621c-.4938.4938-1.1635.7712-1.8618.7712zm-52.6608-4.9268c-.6082 0-1.1915.2416-1.6215.6718-.4301.4301-.6717 1.0134-.6717 1.6217s.2416 1.1917.6717 1.6218c.43.4301 1.0133.6718 1.6215.6718h52.6608c.6082 0 1.1915-.2417 1.6216-.6718.43-.4301.6716-1.0135.6716-1.6218s-.2416-1.1916-.6716-1.6217c-.4301-.4302-1.0134-.6718-1.6216-.6718zm3.3976 18.3482h10.1924c.6983 0 1.368-.2774 1.8618-.7713.4938-.4938.7712-1.1636.7712-1.862s-.2774-1.3682-.7712-1.862c-.4938-.4939-1.1635-.7713-1.8618-.7713h-10.1924c-.6984 0-1.3681.2774-1.8619.7713-.4938.4938-.7712 1.1636-.7712 1.862s.2774 1.3682.7712 1.862c.4938.4939 1.1635.7713 1.8619.7713zm-1.6216-4.2551c.43-.4301 1.0134-.6717 1.6216-.6717h10.1924c.6082 0 1.1915.2416 1.6216.6717.43.4302.6716 1.0135.6716 1.6218s-.2416 1.1917-.6716 1.6218c-.4301.4301-1.0134.6717-1.6216.6717h-10.1924c-.6082 0-1.1916-.2416-1.6216-.6717-.4301-.4301-.6717-1.0135-.6717-1.6218s.2416-1.1916.6717-1.6218zm11.814 13.0894h-10.1924c-.6984 0-1.3681-.2774-1.8619-.7712-.4938-.4939-.7712-1.1637-.7712-1.8621s.2774-1.3682.7712-1.862c.4938-.4939 1.1635-.7713 1.8619-.7713h10.1924c.6983 0 1.368.2774 1.8618.7713.4938.4938.7712 1.1636.7712 1.862s-.2774 1.3682-.7712 1.8621c-.4938.4938-1.1635.7712-1.8618.7712zm-10.1924-4.9268c-.6082 0-1.1916.2416-1.6216.6718-.4301.4301-.6717 1.0134-.6717 1.6217s.2416 1.1917.6717 1.6218c.43.4301 1.0134.6717 1.6216.6717h10.1924c.6082 0 1.1915-.2416 1.6216-.6717.43-.4301.6716-1.0135.6716-1.6218s-.2416-1.1916-.6716-1.6217c-.4301-.4302-1.0134-.6718-1.6216-.6718zm0 13.7611h10.1924c.6983 0 1.368-.2774 1.8618-.7712.4938-.4939.7712-1.1637.7712-1.8621s-.2774-1.3681-.7712-1.862c-.4938-.4938-1.1635-.7713-1.8618-.7713h-10.1924c-.6984 0-1.3681.2775-1.8619.7713-.4938.4939-.7712 1.1636-.7712 1.862s.2774 1.3682.7712 1.8621c.4938.4938 1.1635.7712 1.8619.7712zm-1.6216-4.255c.43-.4301 1.0134-.6718 1.6216-.6718h10.1924c.6082 0 1.1915.2417 1.6216.6718.43.4301.6716 1.0135.6716 1.6217 0 .6083-.2416 1.1917-.6716 1.6218-.4301.4301-1.0134.6718-1.6216.6718h-10.1924c-.6082 0-1.1916-.2417-1.6216-.6718-.4301-.4301-.6717-1.0135-.6717-1.6218 0-.6082.2416-1.1916.6717-1.6217zm13.3428-28.279h-14.2694c-.3153 0-.6178-.1253-.8408-.3484-.223-.223-.3483-.5255-.3483-.8409s.1253-.6179.3483-.8409.5255-.3483.8408-.3483h14.2694c.3154 0 .6178.1253.8408.3483s.3483.5255.3483.8409-.1253.6179-.3483.8409c-.223.2231-.5254.3484-.8408.3484zm35.0978-.7951c.1955.1307.4254.2004.6606.2004.1954-.0002.3859-.0485.5555-.1382l1.1642 1.1643c.0157.0158.0344.0283.0551.0369.0206.0085.0427.0129.065.0129.0336 0 .0664-.01.0943-.0287.028-.0186.0497-.0452.0626-.0762.0128-.0311.0162-.0652.0097-.0982-.0066-.0329-.0228-.0632-.0465-.0869l-1.127-1.1271.0075-.0075c.223-.2229.3484-.5252.3487-.8405 0-.2352-.0697-.4651-.2004-.6607-.1306-.1956-.3164-.348-.5337-.438-.2172-.09-.4563-.1136-.687-.0677s-.4425.1592-.6088.3255c-.1664.1663-.2796.3782-.3255.6089s-.0223.4698.0677.6871.2424.4031.438.5337zm.1887-1.6951c.1397-.0933.3039-.1431.4719-.1431.2252.0002.4411.0898.6003.249.1592.1593.2488.3752.2491.6004 0 .168-.0498.3323-.1432.4719-.0933.1397-.226.2486-.3812.3129s-.3259.0811-.4907.0483c-.1648-.0327-.3161-.1136-.4349-.2324s-.1997-.2702-.2325-.435c-.0327-.1647-.0159-.3355.0484-.4908.0643-.1552.1731-.2878.3128-.3812zm-5.9833 16.3363h5.7757c.428 0 .8385-.1701 1.1411-.4728.3027-.3026.4727-.7132.4727-1.1412s-.17-.8386-.4727-1.1412c-.3026-.3027-.7131-.4728-1.1411-.4728h-5.7757c-.428 0-.8385.1701-1.1411.4728-.3027.3026-.4727.7132-.4727 1.1412s.17.8386.4727 1.1412c.3026.3027.7131.4728 1.1411.4728zm5.7757 8.8343h-5.7757c-.428 0-.8385-.17-1.1411-.4727-.3027-.3027-.4727-.7132-.4727-1.1413 0-.428.17-.8385.4727-1.1412.3026-.3027.7131-.4727 1.1411-.4727h5.7757c.428 0 .8385.17 1.1411.4727.3027.3027.4727.7132.4727 1.1412 0 .4281-.17.8386-.4727 1.1413-.3026.3027-.7131.4727-1.1411.4727zm-5.7757 8.8343h5.7757c.428 0 .8385-.17 1.1411-.4727.3027-.3027.4727-.7132.4727-1.1413 0-.428-.17-.8385-.4727-1.1412-.3026-.3027-.7131-.4727-1.1411-.4727h-5.7757c-.428 0-.8385.17-1.1411.4727-.3027.3027-.4727.7132-.4727 1.1412 0 .4281.17.8386.4727 1.1413.3026.3027.7131.4727 1.1411.4727z" fill="#0278d5" fill-rule="evenodd"/></svg>