<svg fill="none" height="75" viewBox="0 0 126 75" width="126" xmlns="http://www.w3.org/2000/svg" xmlns:xlink="http://www.w3.org/1999/xlink"><clipPath id="a"><path d="m0 0h126v75h-126z"/></clipPath><g clip-path="url(#a)"><path d="m10.431 16.2716c3.5862 0 6.4933-2.8561 6.4933-6.3794 0-3.52325-2.9071-6.37941-6.4933-6.37941-3.58611 0-6.49326 2.85616-6.49326 6.37941 0 3.5233 2.90715 6.3794 6.49326 6.3794z" fill="#ff6584"/><path d="m62.6748 75c34.6144 0 62.6752-1.1176 62.6752-2.4963 0-1.3786-28.0608-2.4963-62.6752-2.4963-34.6143 0-62.6748 1.1177-62.6748 2.4963 0 1.3787 28.0605 2.4963 62.6748 2.4963z" fill="#e6e6e6"/><path d="m15.9509 41.2192c8.8094 0 15.9509-7.0162 15.9509-15.6711 0-8.655-7.1415-15.67119-15.9509-15.67119-8.80944 0-15.9509 7.01619-15.9509 15.67119 0 8.6549 7.14146 15.6711 15.9509 15.6711z" fill="#0278d5"/><path d="m17.4883 72.7504h-3.2671l1.4894-49.5625z" fill="#3f3d56"/><path d="m15.9993 32.5812 3.5073-4.7674-3.5553 5.9475-.3844-.6609z" fill="#3f3d56"/><path d="m15.6146 37.3959-3.5072-4.7674 3.5554 5.9474.3844-.6608z" fill="#3f3d56"/><path d="m116.809 72.8026h-3.267l1.49-49.5625z" fill="#3f3d56"/><path d="m115.32 32.6333 3.507-4.7673-3.555 5.9474-.385-.6608z" fill="#3f3d56"/><path d="m114.936 37.448-3.508-4.7674 3.556 5.9475.384-.6609z" fill="#3f3d56"/><path d="m64.7998 72.7942c16.4108 0 29.7144-13.0702 29.7144-29.1932s-13.3036-29.1933-29.7144-29.1933-29.7144 13.0703-29.7144 29.1933 13.3036 29.1932 29.7144 29.1932z" fill="#3f3d56"/><path d="m64.7997 70.3776c15.0523 0 27.2546-11.9883 27.2546-26.7766s-12.2023-26.7766-27.2546-26.7766-27.2545 11.9883-27.2545 26.7766 12.2022 26.7766 27.2545 26.7766z" fill="#fff"/><path d="m64.7013 47.2743c2.0106 0 3.6405-1.6013 3.6405-3.5767 0-1.9753-1.6299-3.5766-3.6405-3.5766s-3.6405 1.6013-3.6405 3.5766c0 1.9754 1.6299 3.5767 3.6405 3.5767z" fill="#3f3d56"/><path d="m65.4878 18.1777h-1.5742v2.9h1.5742z" fill="#3f3d56"/><path d="m65.4878 66.3176h-1.5742v2.9h1.5742z" fill="#3f3d56"/><path d="m41.6777 44.471v-1.5467h-2.9517v1.5467z" fill="#3f3d56"/><path d="m90.6772 44.471v-1.5467h-2.9517v1.5467z" fill="#3f3d56"/><path d="m63.6516 45.2503 1.3454-3.0223 16.8578 9.1727z" fill="#3f3d56"/><path d="m68.6367 7.35107h-7.6745v8.69993h7.6745z" fill="#3f3d56"/><path d="m64.7991 9.76772c4.8907 0 8.8553-1.08197 8.8553-2.41666 0-1.33468-3.9646-2.41666-8.8553-2.41666-4.8906 0-8.8553 1.08198-8.8553 2.41666 0 1.33469 3.9647 2.41666 8.8553 2.41666z" fill="#3f3d56"/><g fill="#e6e6e6"><path d="m125.365 5.84566c-.084-1.46604-.696-2.85498-1.726-3.91918-1.029-1.064211-2.41-1.734513-3.896-1.891399s-2.981.209843-4.217 1.034799c-1.237.82496-2.135 2.05452-2.534 3.46947-.077-.0027-.153-.00571-.23-.00571-1.363.00024-2.688.4339-3.779 1.23609-1.091.80218-1.888 1.92978-2.272 3.21409-.903-.38974-1.912-.4743-2.869-.24043s-1.808.77296-2.42 1.53281h19.673c.573.0016 1.142-.1106 1.67-.32984.529-.21927 1.007-.54111 1.407-.94624.399-.40513.711-.88523.916-1.41155.206-.52633.302-1.08804.282-1.65153-.002-.03042-.003-.06087-.005-.09138z"/><path d="m108.92 18.8856c.935 0 1.694-.7451 1.694-1.6642s-.759-1.6642-1.694-1.6642c-.936 0-1.694.7451-1.694 1.6642s.758 1.6642 1.694 1.6642z"/><path d="m114.034 14.6834c.779 0 1.411-.6204 1.411-1.3857s-.632-1.3857-1.411-1.3857-1.41.6204-1.41 1.3857.631 1.3857 1.41 1.3857z"/><path d="m120.918 22.4913c.936 0 1.694-.7451 1.694-1.6642s-.758-1.6642-1.694-1.6642c-.935 0-1.693.7451-1.693 1.6642s.758 1.6642 1.693 1.6642z"/><path d="m108.073 30.1189c.935 0 1.694-.7451 1.694-1.6642s-.759-1.6642-1.694-1.6642c-.936 0-1.694.7451-1.694 1.6642s.758 1.6642 1.694 1.6642z"/><path d="m120.918 39.688c.936 0 1.694-.7451 1.694-1.6642s-.758-1.6642-1.694-1.6642c-.935 0-1.693.7451-1.693 1.6642s.758 1.6642 1.693 1.6642z"/><path d="m118.234 70.1134c0-.018.002-.0357.002-.0538.001-.2789-.07-.5534-.206-.7982s-.332-.4521-.571-.6027-.513-.2398-.796-.2593-.567.0314-.824.1479c-.243-.2745-.569-.4633-.931-.5377s-.739-.0302-1.072.1258c-.334.1561-.606.4153-.776.738-.169.3228-.226.6911-.162 1.0487-.009-.0001-.017-.0012-.026-.0012-.269-.0004-.535.0624-.775.1833-.24.1208-.447.2963-.604.5116-.157.2154-.26.4645-.299.7266s-.014.5296.073.7803c.087.2508.234.4774.428.6612.194.1837.43.3193.688.3953.259.0761.532.0904.797.0419s.515-.1585.728-.3209c.134.2574.335.4758.581.6338.247.158.531.2501.825.2671s.587-.0415.851-.1699.489-.3222.654-.5622c.201.1441.433.2426.677.2886.245.046.497.0383.739-.0225.241-.0609.466-.1734.658-.3294.192-.1561.347-.352.453-.5736s.161-.4634.161-.7083-.055-.4867-.162-.7083c-.106-.2215-.261-.4172-.453-.5732-.192-.1559-.417-.2682-.658-.3289z"/><path d="m122.47 32.0604c.39 0 .706-.3104.706-.6934 0-.3829-.316-.6934-.706-.6934-.389 0-.705.3105-.705.6934 0 .383.316.6934.705.6934z"/><path d="m117.954 15.4185c.389 0 .705-.3105.705-.6934 0-.383-.316-.6935-.705-.6935-.39 0-.706.3105-.706.6935 0 .3829.316.6934.706.6934z"/><path d="m115.554 32.6152c.39 0 .706-.3105.706-.6935 0-.3829-.316-.6934-.706-.6934s-.706.3105-.706.6934c0 .383.316.6935.706.6935z"/><path d="m116.119 31.9218c.39 0 .706-.3105.706-.6935 0-.3829-.316-.6934-.706-.6934s-.706.3105-.706.6934c0 .383.316.6935.706.6935z"/><path d="m116.543 31.2283c.39 0 .706-.3104.706-.6934 0-.3829-.316-.6934-.706-.6934s-.706.3105-.706.6934c0 .383.316.6934.706.6934z"/><path d="m114.848 37.053c.39 0 .706-.3104.706-.6934 0-.3829-.316-.6934-.706-.6934s-.706.3105-.706.6934c0 .383.316.6934.706.6934z"/><path d="m125.294 44.8193c.39 0 .706-.3105.706-.6934 0-.383-.316-.6935-.706-.6935s-.706.3105-.706.6935c0 .3829.316.6934.706.6934z"/><path d="m110.19 45.2353c.39 0 .706-.3104.706-.6934s-.316-.6934-.706-.6934c-.389 0-.705.3104-.705.6934s.316.6934.705.6934z"/><path d="m111.037 23.8781c.39 0 .706-.3104.706-.6934 0-.3829-.316-.6934-.706-.6934-.389 0-.705.3105-.705.6934 0 .383.316.6934.705.6934z"/><path d="m114.283 36.3596c.39 0 .706-.3104.706-.6934s-.316-.6934-.706-.6934-.706.3104-.706.6934.316.6934.706.6934z"/><path d="m113.578 35.2501c.39 0 .706-.3104.706-.6934 0-.3829-.316-.6934-.706-.6934s-.706.3105-.706.6934c0 .383.316.6934.706.6934z"/></g></g></svg>