<svg fill="none" height="43" viewBox="0 0 59 43" width="59" xmlns="http://www.w3.org/2000/svg" xmlns:xlink="http://www.w3.org/1999/xlink"><clipPath id="a"><path d="m0 0h59v43h-59z" transform="matrix(-1 0 0 1 59 0)"/></clipPath><g clip-path="url(#a)"><path d="m3.45843.284608h45.02197c.0013-.07589.0322-.148244.0862-.2014777s.1267-.08308745.2024-.0831303h1.7733c.0757.00003233.1484.0298819.2024.0831178.054.0532362.0849.1255972.0862.2014902h.4342c.0013-.07589.0323-.148244.0863-.2014777s.1266-.08308745.2024-.0831303h1.7732c.0757.00004285.1484.0298966.2024.0831303s.085.1255877.0862.2014777h1.5801c.9169.001031 1.7959.366492 2.4443 1.016202s1.0131 1.53062 1.0141 2.44945v.03412c.0055-.00031.0107-.00163.0162-.00163h.0405c.038 0 .0756.0075.1107.02206s.067.0359.0938.06281c.0269.0269.0482.05885.0627.094.0145.03516.022.07284.022.11089v3.38928c0 .03805-.0075.07573-.022.11088-.0145.03516-.0358.0671-.0627.09401-.0268.02691-.0587.04825-.0938.06281s-.0727.02205-.1107.02205h-.0405c-.0055 0-.0107-.00132-.0162-.00163v31.78439c-.001.9189-.3657 1.7998-1.0141 2.4495s-1.5274 1.0152-2.4443 1.0162h-51.73727c-.91692-.001-1.79598-.3665-2.44433-1.0162-.648362-.6497-1.01306622-1.5306-1.01410763-2.4495v-35.78403c.00104141-.91883.36574563-1.79973 1.01410763-2.44944.64835-.649713 1.52741-1.015179 2.44433-1.016222zm-2.41748 39.249692c.00073.6423.25567 1.2581.70887 1.7122.45321.4542 1.06768.7096 1.70861.7104h51.73727c.6409-.0007 1.2554-.2562 1.7086-.7104.4532-.4541.7082-1.0699.7089-1.7122v-35.78403c-.0007-.64228-.2557-1.25804-.7089-1.7122-.4532-.45415-1.0677-.70961-1.7086-.71033h-51.73727c-.64093.00073-1.2554.2562-1.70861.71035-.4532.45415-.70814 1.06991-.70887 1.71217z" fill="#ccc"/><path d="m3.4584 42.5364h51.7372c.7943-.0009 1.5557-.3174 2.1174-.8802.5616-.5628.8775-1.3259.8784-2.1218v-35.78409c-.0009-.79592-.3168-1.55898-.8784-2.12178-.5617-.5628-1.3231-.879374-2.1174-.88027h-51.7372c-.79427.000893-1.55574.31746-2.11737.88026-.561634.5628-.877552 1.32586-.878448 2.12178v35.7841c.000896.7959.31681 1.559.878438 2.1218.56163.5628 1.32311.8793 2.11738.8802z" fill="#e6e6e6"/><path d="m3.44285 40.118h51.76885c.1748-.0002.3424-.0699.4661-.1938.1236-.1238.1931-.2918.1933-.467v-35.62973c-.0002-.17517-.0697-.34312-.1933-.46699-.1237-.12387-.2913-.19354-.4661-.19373h-51.76885c-.17481.00019-.34241.06986-.46603.19373-.12361.12387-.19315.29181-.19334.46699v35.62973c.00019.1752.06972.3432.19334.467.12361.1239.29121.1936.46603.1938z" fill="#fff"/><path d="m57.0196 21.8284c-.1368 0-.2476-.1111-.2476-.2481s.1108-.248.2476-.248c.1367 0 .2475.111.2475.248s-.1108.2481-.2475.2481z" fill="#fff"/><path d="m41.4101 9.31752h1.376c.0405 0 .0794-.01614.1081-.04487s.0448-.0677.0448-.10834c0-.04063-.0161-.0796-.0448-.10833s-.0676-.04487-.1081-.04487h-1.376c-.0405.00009-.0793.01627-.1079.045-.0286.02872-.0446.06763-.0446.1082 0 .04058.016.07949.0446.10821.0286.02873.0674.04491.1079.045z" fill="#fff"/><path d="m40.4548 9.27924c-.0422 0-.0764-.03429-.0764-.0766s.0342-.0766.0764-.0766.0764.03429.0764.0766-.0342.0766-.0764.0766z" fill="#fff"/><path d="m40.377 16.5175-.016.3564c-1.8182-.0817-3.9235.0771-6.1643.4518v-.3614c2.2442-.3718 4.3543-.5288 6.1803-.4468z" fill="#ccc"/><path d="m42.6375 23.4978c.0142.1364.0257.2736.0346.4117.0187.2715.0281.5451.0281.8208-.0014 2.5676-.8298 5.0661-2.3619 7.124-1.5321 2.058-3.6861 3.5654-6.1418 4.2982v-22.8465c2.2552.6718 4.2608 1.9987 5.7633 3.8128 1.5025 1.8142 2.4344 4.0341 2.6777 6.379z" fill="#0278d5"/><g fill="#ccc"><path d="m48.5718 16.591c-.1295 0-.2344-.1052-.2344-.2349 0-.1298.1049-.2349.2344-.2349.1294 0 .2344.1051.2344.2349 0 .1297-.105.2349-.2344.2349z"/><path d="m49.0711 26.0136c-.2557 0-.463-.2078-.463-.464 0-.2563.2073-.4641.463-.4641.2558 0 .4631.2078.4631.4641 0 .2562-.2073.464-.4631.464z"/><path d="m40.3507 13.7331c-.1853 0-.3354-.1504-.3354-.3361 0-.1856.1501-.336.3354-.336.1852 0 .3353.1504.3353.336 0 .1857-.1501.3361-.3353.3361z"/><path d="m47.9815 32.3714c-.1478 0-.2676-.12-.2676-.2681s.1198-.2682.2676-.2682c.1477 0 .2675.1201.2675.2682s-.1198.2681-.2675.2681z"/><path d="m42.5764 36.1257c-.16 0-.2897-.13-.2897-.2904s.1297-.2904.2897-.2904c.1601 0 .2898.13.2898.2904s-.1297.2904-.2898.2904z"/><path d="m34.1528 6.59846h.5718v-.57304h.3068v.57304h.5721v.3076h-.5721v.57304h-.3068v-.57304h-.5718z"/></g><path d="m38.307 23.7291c-.5519 0-.9992-.4483-.9992-1.0013s.4473-1.0013.9992-1.0013c.5518 0 .9992.4483.9992 1.0013s-.4474 1.0013-.9992 1.0013z" fill="#000" opacity=".1"/><path d="m37.8075 30.7836c-.5519 0-.9992-.4483-.9992-1.0013s.4473-1.0013.9992-1.0013c.5518 0 .9991.4483.9991 1.0013s-.4473 1.0013-.9991 1.0013z" fill="#000" opacity=".1"/><path d="m42.2158 23.5049c1.2261-.825 2.1394-1.6389 2.7144-2.4192.5736-.7784.7781-1.4815.6079-2.0899-.1701-.6085-.7096-1.1027-1.6034-1.4689-.8959-.3671-2.0982-.5869-3.5735-.6531l.0159-.3564c3.1592.1419 5.1139.9878 5.5038 2.3821.3899 1.3942-.8411 3.1349-3.4666 4.9016-2.141 1.4406-5.0086 2.7711-8.2175 3.8248v-.3755c3.1331-1.0375 5.9288-2.339 8.019-3.7455z" fill="#ccc"/><path d="m42.216 23.7903c.1449-.0976.2855-.1951.4219-.2925.0141.1364.0256.2736.0345.4117-.0845.0591-.1705.1181-.2581.1769-2.1411 1.4407-5.0086 2.7712-8.2174 3.8249v-.3755c3.1329-1.0375 5.9286-2.339 8.0191-3.7455z" fill="#000" opacity=".1"/><path d="m28.9561 18.0444c1.4002-.3933 2.7881-.7136 4.1347-.9601v.3625c-1.3154.2431-2.6707.5569-4.0386.9411-4.355 1.2232-8.2957 3.0058-10.8117 4.8907l-.2132-.2858c2.5498-1.9102 6.5332-3.7138 10.9288-4.9484z" fill="#ccc"/><path d="m18.5017 24.7304c.0011-1.7944.4063-3.5653 1.1855-5.1809.7791-1.6156 1.9121-3.0341 3.3145-4.1498 1.4024-1.1158 3.038-1.8999 4.7849-2.294 1.7468-.3942 3.56-.3881 5.3042.0177v23.2132c-2.6225.6117-5.3745.3139-7.8062-.845-2.4317-1.1588-4.3991-3.11-5.5807-5.5346-.0614-.1253-.1203-.2518-.177-.3795-.6781-1.5255-1.0275-3.1771-1.0252-4.8471z" fill="#0278d5"/><path d="m30.0781 10.6663c-.0752 0-.1362-.0612-.1362-.1366s.061-.1365.1362-.1365c.0753 0 .1363.0611.1363.1365s-.061.1366-.1363.1366z" fill="#f2f2f2"/><path d="m20.8584 11.6582c-.1704 0-.3086-.1384-.3086-.3092s.1382-.3093.3086-.3093.3086.1385.3086.3093-.1382.3092-.3086.3092z" fill="#ccc"/><path d="m9.913 24.6863c-.27673 0-.50107-.2248-.50107-.5021 0-.2774.22434-.5022.50107-.5022.2767 0 .5011.2248.5011.5022 0 .2773-.2244.5021-.5011.5021z" fill="#ccc"/><path d="m13.8309 16.38c-.1187 0-.215-.0964-.215-.2154s.0963-.2154.215-.2154.215.0964.215.2154-.0963.2154-.215.2154z" fill="#ccc"/><path d="m14.5834 23.3815c-.1188 0-.215-.0964-.215-.2154s.0962-.2154.215-.2154c.1187 0 .2149.0964.2149.2154s-.0962.2154-.2149.2154z" fill="#ccc"/><path d="m20.4705 37.604h.3593v-.3598h.1925v.3598h.359v.193h-.359v.3598h-.1925v-.3598h-.3593z" fill="#ccc"/><path d="m12.1838 35.7623h.2684v-.269h.1442v.269h.2683v.1444h-.2683v.2689h-.1442v-.2689h-.2684z" fill="#ccc"/><path d="m30.2142 16.4016c-.5518 0-.9992-.4483-.9992-1.0013 0-.5529.4474-1.0012.9992-1.0012s.9992.4483.9992 1.0012c0 .553-.4474 1.0013-.9992 1.0013z" fill="#000" opacity=".1"/><path d="m30.2142 25.2765c-.5518 0-.9992-.4483-.9992-1.0013s.4474-1.0013.9992-1.0013.9992.4483.9992 1.0013-.4474 1.0013-.9992 1.0013z" fill="#000" opacity=".1"/><path d="m24.8548 19.9061c-.5518 0-.9991-.4483-.9991-1.0013s.4473-1.0013.9991-1.0013c.5519 0 .9992.4483.9992 1.0013s-.4473 1.0013-.9992 1.0013z" fill="#000" opacity=".1"/><path d="m21.5389 26.6875c-.5518 0-.9992-.4483-.9992-1.0013s.4474-1.0013.9992-1.0013.9992.4483.9992 1.0013-.4474 1.0013-.9992 1.0013z" fill="#000" opacity=".1"/><path d="m15.7829 25.2319c.4691-.7214 1.2243-1.4748 2.2444-2.239l.2132.2857c-1.9824 1.4851-2.9059 2.9047-2.6003 3.9972.1702.6085.7096 1.1027 1.6034 1.4689.8959.3671 2.0983.5868 3.5736.6531.3135.014.6351.0211.9649.0211 2.8867-.0001 6.3674-.5357 9.926-1.5352.4666-.1311.9275-.2682 1.3827-.4113v.3736c-.4239.132-.8528.259-1.2866.3812-3.5897 1.0082-7.104 1.5484-10.0238 1.5483-.3343 0-.6612-.007-.9792-.0213-3.1592-.1419-5.1138-.9879-5.5038-2.3821-.1809-.6467-.0176-1.3668.4855-2.1402z" fill="#ccc"/><path d="m20.8171 29.683c.3134.0141.6351.0211.9651.0211 2.8864 0 6.3674-.5355 9.926-1.5351.4666-.131.9275-.2681 1.3826-.4112v.3736c-.4239.1319-.8527.259-1.2865.3812-3.5899 1.0081-7.104 1.5482-10.0239 1.5482-.3343 0-.6614-.0071-.9793-.0214-.384-.0171-.7498-.0446-1.0972-.0824-.0614-.1253-.1204-.2519-.177-.3796.4037.0497.8338.0849 1.2902.1056z" fill="#000" opacity=".1"/><path d="m24.8588 16.0332c-.7195 0-1.3027-.5845-1.3027-1.3055s.5832-1.3055 1.3027-1.3055c.7196 0 1.3028.5845 1.3028 1.3055s-.5832 1.3055-1.3028 1.3055z" fill="#fff"/><path d="m24.8547 12.8063c.4939 0 .9675.1966 1.3167.5465.3492.35.5454.8246.5454 1.3195 0 1.0305-1.8621 4.4146-1.8621 4.4146s-1.8621-3.3841-1.8621-4.4146c0-.4949.1962-.9695.5454-1.3195.3492-.3499.8228-.5465 1.3167-.5465zm0 2.7762c.1707 0 .3375-.0507.4794-.1457s.2525-.2301.3178-.3881.0824-.3319.0491-.4996c-.0333-.1678-.1154-.3218-.2361-.4428-.1207-.1209-.2745-.2033-.4419-.2366-.1674-.0334-.3409-.0163-.4985.0492-.1577.0654-.2925.1763-.3873.3185s-.1454.3094-.1454.4804c0 .2293.0909.4493.2527.6114.1618.1622.3813.2533.6102.2533z" fill="#3f3d56"/><path d="m30.2334 20.7657c-.7196 0-1.3028-.5845-1.3028-1.3055s.5832-1.3055 1.3028-1.3055c.7195 0 1.3027.5845 1.3027 1.3055s-.5832 1.3055-1.3027 1.3055z" fill="#fff"/><path d="m30.2287 17.5387c.4939 0 .9675.1966 1.3167.5466.3492.3499.5454.8245.5454 1.3194 0 1.0306-1.8621 4.4147-1.8621 4.4147s-1.8621-3.3841-1.8621-4.4147c0-.4949.1962-.9695.5454-1.3194.3492-.35.8229-.5466 1.3167-.5466zm0 2.7763c.1707 0 .3375-.0507.4794-.1458.142-.095.2526-.23.3179-.388.0653-.1581.0824-.3319.0491-.4997-.0333-.1677-.1155-.3218-.2362-.4427-.1207-.121-.2744-.2033-.4418-.2367-.1674-.0333-.3409-.0162-.4986.0492-.1577.0655-.2924.1763-.3873.3185-.0948.1422-.1454.3094-.1454.4804 0 .2294.0909.4493.2527.6115.1619.1622.3814.2533.6102.2533z" fill="#3f3d56"/><path d="m30.2334 12.3615c-.7196 0-1.3028-.5845-1.3028-1.3055s.5832-1.30551 1.3028-1.30551c.7195 0 1.3027.58451 1.3027 1.30551s-.5832 1.3055-1.3027 1.3055z" fill="#fff"/><path d="m30.2287 9.13455c.4939 0 .9675.1966 1.3167.54654.3492.34991.5454.82461.5454 1.31941 0 1.0306-1.8621 4.4147-1.8621 4.4147s-1.8621-3.3841-1.8621-4.4147c0-.4948.1962-.9695.5454-1.31941.3492-.34994.8229-.54654 1.3167-.54654zm0 2.77625c.1707 0 .3375-.0507.4794-.1457.142-.0951.2526-.2301.3179-.3881s.0824-.3319.0491-.4996c-.0333-.1678-.1155-.3219-.2362-.4428s-.2744-.2033-.4418-.2367c-.1674-.0333-.3409-.0162-.4986.0493-.1577.0654-.2924.1762-.3873.3184-.0948.1422-.1454.3094-.1454.4805 0 .1135.0223.226.0657.3309s.1069.2002.187.2805c.0802.0803.1753.144.28.1875.1047.0434.2169.0658.3302.0658z" fill="#ccc"/><path d="m21.5205 22.4791c-.7195 0-1.3028-.5845-1.3028-1.3055s.5833-1.3055 1.3028-1.3055 1.3027.5845 1.3027 1.3055-.5832 1.3055-1.3027 1.3055z" fill="#fff"/><path d="m21.5163 19.2522c.4939 0 .9675.1966 1.3167.5465.3492.35.5454.8246.5454 1.3195 0 1.0306-1.8621 4.4147-1.8621 4.4147s-1.8621-3.3841-1.8621-4.4147c0-.4949.1962-.9695.5454-1.3195.3492-.3499.8229-.5465 1.3167-.5465zm0 2.7762c.1707 0 .3375-.0507.4794-.1457s.2525-.2301.3179-.3881c.0653-.158.0824-.3319.0491-.4996s-.1155-.3218-.2362-.4428c-.1207-.1209-.2744-.2032-.4418-.2366s-.3409-.0163-.4986.0492c-.1577.0654-.2924.1763-.3873.3185-.0948.1422-.1454.3094-.1454.4804 0 .2293.0909.4493.2527.6115.1619.1621.3814.2532.6102.2532z" fill="#ccc"/><path d="m38.2939 19.5417c-.7195 0-1.3028-.5845-1.3028-1.3055s.5833-1.3055 1.3028-1.3055 1.3028.5845 1.3028 1.3055-.5833 1.3055-1.3028 1.3055z" fill="#fff"/><path d="m38.2898 16.3148c.4938 0 .9674.1966 1.3167.5466.3492.3499.5454.8245.5454 1.3194 0 1.0306-1.8621 4.4147-1.8621 4.4147s-1.8622-3.3841-1.8622-4.4147c0-.4949.1962-.9695.5454-1.3194.3493-.35.8229-.5466 1.3168-.5466zm0 2.7763c.1706 0 .3375-.0508.4794-.1458s.2525-.23.3178-.3881c.0653-.158.0824-.3318.0491-.4996-.0333-.1677-.1155-.3218-.2362-.4427-.1206-.121-.2744-.2033-.4418-.2367s-.3409-.0162-.4986.0492c-.1577.0655-.2924.1763-.3872.3185-.0949.1422-.1455.3094-.1455.4804 0 .2294.0909.4493.2528.6115.1618.1622.3813.2533.6102.2533z" fill="#ccc"/><path d="m37.8056 26.6404c-.7195 0-1.3028-.5845-1.3028-1.3055s.5833-1.3055 1.3028-1.3055 1.3028.5845 1.3028 1.3055-.5833 1.3055-1.3028 1.3055z" fill="#fff"/><path d="m37.801 23.4135c.4938 0 .9675.1966 1.3167.5465.3492.35.5454.8246.5454 1.3195 0 1.0305-1.8621 4.4147-1.8621 4.4147s-1.8621-3.3842-1.8621-4.4147c0-.4949.1962-.9695.5454-1.3195.3492-.3499.8228-.5465 1.3167-.5465zm0 2.7762c.1707 0 .3375-.0507.4794-.1457s.2525-.2301.3178-.3881.0824-.3319.0491-.4996c-.0333-.1678-.1155-.3218-.2361-.4428-.1207-.1209-.2745-.2033-.4419-.2366-.1674-.0334-.3409-.0163-.4985.0492-.1577.0654-.2925.1763-.3873.3185s-.1454.3094-.1454.4804c0 .2293.0909.4493.2527.6114.1618.1622.3813.2533.6102.2533z" fill="#3f3d56"/><path d="m33.5273 35.6207v-21.8235l.2827.0707v21.6821z" stroke="#0278d5"/></g></svg>