<svg fill="none" height="271" viewBox="0 0 316 271" width="316" xmlns="http://www.w3.org/2000/svg"><path d="m50.983 116.114c1.4772 0 2.4715-1.123 2.4715-2.813 0-1.704-.9943-2.827-2.4715-2.827-1.4773 0-2.4716 1.123-2.4716 2.827 0 1.69.9943 2.813 2.4716 2.813zm0-.753c-1.1222 0-1.6336-.966-1.6336-2.06s.5114-2.074 1.6336-2.074c1.1221 0 1.6335.98 1.6335 2.074s-.5114 2.06-1.6335 2.06zm4.5889-2.642c0-.952.5895-1.492 1.3921-1.492.7777 0 1.25.508 1.25 1.364v3.409h.838v-3.466c0-1.392-.7422-2.06-1.8466-2.06-.8238 0-1.3352.37-1.5909.924h-.071v-.853h-.8097v5.455h.8381zm8.1366-.228h-3.1819v.782h3.1819zm3.5342 3.623c1.0512 0 1.4063-.654 1.5909-.952h.0995v.838h.8096v-7.273h-.838v2.685h-.0711c-.1846-.284-.5113-.938-1.5767-.938-1.3778 0-2.3295 1.094-2.3295 2.813 0 1.733.9517 2.827 2.3153 2.827zm.1137-.753c-1.0512 0-1.591-.923-1.591-2.088 0-1.151.5256-2.046 1.591-2.046 1.0227 0 1.5625.824 1.5625 2.046 0 1.236-.554 2.088-1.5625 2.088zm6.3245.753c1.108 0 1.9176-.554 2.1733-1.378l-.8096-.227c-.2131.568-.7067.852-1.3637.852-.9836 0-1.6619-.636-1.701-1.804h3.9596v-.355c0-2.032-1.2074-2.728-2.3438-2.728-1.4773 0-2.4574 1.165-2.4574 2.841s.9659 2.799 2.5426 2.799zm-1.701-3.282c.0569-.848.657-1.605 1.6158-1.605.9091 0 1.4915.682 1.4915 1.605zm5.2344 3.168h.8381v-3.409c0-.799.5824-1.364 1.2358-1.364.6356 0 1.0795.416 1.0795 1.037v3.736h.8523v-3.551c0-.703.4403-1.222 1.2074-1.222.5966 0 1.1079.316 1.1079 1.122v3.651h.8381v-3.651c0-1.282-.6889-1.875-1.6619-1.875-.7813 0-1.353.359-1.6336.924h-.0568c-.2699-.583-.7457-.924-1.463-.924-.7103 0-1.2358.341-1.4631.924h-.071v-.853h-.8097zm10.2965.128c.9517 0 1.4489-.512 1.6193-.867h.0427v.739h.838v-3.594c0-1.733-1.321-1.932-2.017-1.932-.8239 0-1.7614.285-2.1875 1.279l.7954.284c.1847-.398.6215-.824 1.4205-.824.7706 0 1.1506.408 1.1506 1.108v.028c0 .405-.412.37-1.4063.498-1.0121.131-2.1165.355-2.1165 1.605 0 1.065.8239 1.676 1.8608 1.676zm.1279-.753c-.6676 0-1.1506-.298-1.1506-.881 0-.639.5824-.838 1.2358-.923.3551-.043 1.3068-.142 1.4489-.312v.767c0 .681-.5398 1.349-1.5341 1.349zm4.7399-2.656c0-.952.5894-1.492 1.392-1.492.7777 0 1.25.508 1.25 1.364v3.409h.8381v-3.466c0-1.392-.7422-2.06-1.8466-2.06-.8239 0-1.3353.37-1.5909.924h-.0711v-.853h-.8096v5.455h.8381zm7.0712 3.395c1.0512 0 1.4062-.654 1.5912-.952h.099v.838h.81v-7.273h-.838v2.685h-.071c-.185-.284-.512-.938-1.577-.938-1.3779 0-2.3296 1.094-2.3296 2.813 0 1.733.9517 2.827 2.3154 2.827zm.1136-.753c-1.0511 0-1.5909-.923-1.5909-2.088 0-1.151.5255-2.046 1.5909-2.046 1.0226 0 1.5626.824 1.5626 2.046 0 1.236-.554 2.088-1.5626 2.088z" fill="#000"/><path d="m221.858 110.545h.852c-.039-1.097-1.051-1.917-2.457-1.917-1.392 0-2.486.81-2.486 2.031 0 .98.71 1.563 1.847 1.889l.895.256c.767.213 1.448.483 1.448 1.207 0 .796-.767 1.321-1.775 1.321-.867 0-1.634-.383-1.705-1.207h-.909c.085 1.193 1.051 2.003 2.614 2.003 1.676 0 2.628-.923 2.628-2.102 0-1.364-1.293-1.804-2.046-2.003l-.738-.199c-.54-.142-1.407-.426-1.407-1.208 0-.696.64-1.207 1.605-1.207.881 0 1.549.419 1.634 1.136zm2.286 7.5h.838v-2.883h.071c.185.298.54.952 1.591.952 1.364 0 2.315-1.094 2.315-2.827 0-1.719-.951-2.813-2.329-2.813-1.066 0-1.392.654-1.577.938h-.099v-.867h-.81zm.824-4.772c0-1.222.54-2.046 1.562-2.046 1.066 0 1.591.895 1.591 2.046 0 1.165-.54 2.088-1.591 2.088-1.008 0-1.562-.852-1.562-2.088zm7.486 2.841c1.477 0 2.471-1.123 2.471-2.813 0-1.704-.994-2.827-2.471-2.827-1.478 0-2.472 1.123-2.472 2.827 0 1.69.994 2.813 2.472 2.813zm0-.753c-1.123 0-1.634-.966-1.634-2.06s.511-2.074 1.634-2.074c1.122 0 1.633.98 1.633 2.074s-.511 2.06-1.633 2.06zm6.123-4.816h-1.165v-1.306h-.838v1.306h-.824v.711h.824v3.409c0 .951.767 1.406 1.477 1.406.313 0 .511-.057.625-.099l-.17-.753c-.071.014-.185.042-.37.042-.369 0-.724-.113-.724-.823v-3.182h1.165z" fill="#000"/><path d="m122 59h31v79h-31z" fill="#0278d5"/><path d="m161 112h31v26h-31z" fill="#00ade4"/><g fill="#0278d5"><rect height="11" rx="1" width="11" x="65" y="77"/><rect height="11" rx="1" width="11" x="79" y="83"/><rect height="11" rx="1" width="11" x="62" y="92"/></g><rect height="10" rx=".5" stroke="#00ade4" stroke-dasharray="2 1" width="10" x="217.5" y="77.5"/><rect height="10" rx=".5" stroke="#00ade4" stroke-dasharray="2 1" width="10" x="231.5" y="83.5"/><rect height="10" rx=".5" stroke="#00ade4" stroke-dasharray="2 1" width="10" x="214.5" y="92.5"/><path d="m137.807 149.181c-.224-1.616-1.467-2.553-3.079-2.553-1.9 0-3.331 1.385-3.331 3.736 0 2.347 1.413 3.735 3.331 3.735 1.729 0 2.876-1.118 3.079-2.507l-1.328-.007c-.167.853-.863 1.332-1.733 1.332-1.179 0-2.024-.884-2.024-2.553 0-1.641.838-2.554 2.027-2.554.884 0 1.577.501 1.73 1.371zm13.705 1.183c0-2.351-1.435-3.736-3.342-3.736-1.91 0-3.341 1.385-3.341 3.736 0 2.347 1.431 3.735 3.341 3.735 1.907 0 3.342-1.385 3.342-3.735zm-1.325 0c0 1.654-.831 2.553-2.017 2.553-1.182 0-2.017-.899-2.017-2.553 0-1.655.835-2.554 2.017-2.554 1.186 0 2.017.899 2.017 2.554zm12.523-1.637h1.268c-.025-1.229-1.073-2.099-2.621-2.099-1.527 0-2.674.859-2.671 2.145 0 1.044.743 1.644 1.939 1.953l.828.213c.784.199 1.303.444 1.306 1.008-.003.622-.593 1.037-1.452 1.037-.824 0-1.463-.369-1.516-1.132h-1.296c.053 1.445 1.129 2.258 2.823 2.258 1.743 0 2.755-.87 2.759-2.152-.004-1.261-1.044-1.836-2.138-2.095l-.682-.171c-.596-.142-1.243-.394-1.235-1.001.003-.547.493-.948 1.317-.948.785 0 1.303.366 1.371.984zm8.222-.895h2.248v6.168h1.307v-6.168h2.247v-1.105h-5.802z" fill="#6b6d85"/><path d="m122.923 55.1818h.978l.005-1.0572c1.98-.1431 3.116-1.2326 3.121-2.7791-.005-1.6388-1.358-2.3867-2.779-2.7237l-.305-.0785.018-2.636c.739.1293 1.215.5725 1.288 1.2372h1.648c-.027-1.468-1.181-2.539-2.926-2.7052l.004-1.0757h-.978l-.005 1.0757c-1.731.1754-2.978 1.2372-2.973 2.7652 0 1.3573.965 2.1375 2.521 2.5391l.415.1062-.018 2.793c-.827-.1293-1.422-.6002-1.482-1.4358h-1.685c.064 1.7312 1.255 2.7607 3.157 2.9176zm.992-2.539.019-2.5345c.84.2447 1.375.5678 1.38 1.2234-.005.6832-.554 1.1726-1.399 1.3111zm-.951-4.3488c-.637-.2031-1.219-.5401-1.209-1.1956.004-.5956.452-1.0572 1.228-1.1911zm5.497 5.706h6.482v-1.4311h-4.118v-.0646l1.63-1.6574c1.837-1.7634 2.345-2.6221 2.345-3.6885 0-1.5835-1.288-2.7422-3.19-2.7422-1.875 0-3.204 1.1633-3.204 2.9592h1.63c0-.9649.609-1.5696 1.551-1.5696.9 0 1.569.5493 1.569 1.4403 0 .7894-.48 1.3526-1.412 2.299l-3.283 3.2177zm7.701-1.7543h4.51v1.7543h1.634v-1.7543h1.21v-1.408h-1.21v-6.2922h-2.133l-4.011 6.3384zm4.528-1.408h-2.774v-.0739l2.7-4.2794h.074zm7.795 3.3423c2.281.0047 3.643-1.7958 3.643-4.898 0-3.0838-1.371-4.8658-3.643-4.8658-2.271 0-3.638 1.7773-3.642 4.8658 0 3.0976 1.362 4.898 3.642 4.898zm0-1.4449c-1.177 0-1.916-1.1818-1.911-3.4531.005-2.2529.739-3.4393 1.911-3.4393 1.177 0 1.911 1.1864 1.916 3.4393 0 2.2713-.734 3.4531-1.916 3.4531z" fill="#0278d5"/><path d="m221.747 129.727h1.268c-.025-1.229-1.073-2.099-2.621-2.099-1.527 0-2.674.859-2.671 2.145 0 1.044.743 1.644 1.939 1.953l.828.213c.785.199 1.303.444 1.307 1.008-.004.622-.593 1.037-1.453 1.037-.824 0-1.463-.369-1.516-1.132h-1.296c.053 1.445 1.129 2.258 2.823 2.258 1.743 0 2.756-.87 2.759-2.152-.003-1.261-1.044-1.836-2.138-2.095l-.682-.171c-.596-.142-1.242-.394-1.235-1.001.003-.547.493-.948 1.317-.948.785 0 1.303.366 1.371.984zm4.054 5.383c.856 0 1.368-.401 1.602-.859h.043v.749h1.235v-3.651c0-1.441-1.175-1.875-2.216-1.875-1.147 0-2.027.512-2.311 1.506l1.2.171c.128-.373.49-.693 1.119-.693.596 0 .923.305.923.842v.021c0 .369-.387.387-1.35.49-1.058.114-2.07.43-2.07 1.658 0 1.073.785 1.641 1.825 1.641zm.334-.945c-.536 0-.92-.245-.92-.717 0-.493.43-.699 1.005-.781.338-.046 1.013-.131 1.179-.266v.642c0 .608-.49 1.122-1.264 1.122zm8.516-4.62h-1.367l-1.257 4.052h-.057l-1.254-4.052h-1.371l1.943 5.455h1.42zm3.119 5.562c1.271 0 2.145-.622 2.372-1.57l-1.201-.135c-.174.462-.6.703-1.154.703-.831 0-1.381-.547-1.392-1.481h3.8v-.394c0-1.914-1.151-2.756-2.493-2.756-1.562 0-2.582 1.147-2.582 2.831 0 1.711 1.005 2.802 2.65 2.802zm-1.371-3.349c.039-.696.554-1.282 1.321-1.282.739 0 1.236.54 1.243 1.282zm7.616 3.242h1.367l3.09-6.147v-1.126h-4.954v1.101h3.59v.05zm8.135.138c1.754.004 2.802-1.381 2.802-3.767 0-2.372-1.055-3.743-2.802-3.743s-2.798 1.367-2.802 3.743c0 2.383 1.048 3.767 2.802 3.767zm0-1.111c-.906 0-1.474-.909-1.47-2.656.003-1.733.568-2.646 1.47-2.646.905 0 1.47.913 1.474 2.646 0 1.747-.565 2.656-1.474 2.656zm7.87-.391c.004.846.54 1.566 1.538 1.566.994 0 1.541-.72 1.537-1.566v-.383c.004-.852-.529-1.566-1.537-1.566-.984 0-1.534.721-1.538 1.566zm-3.697-4.162c.004.846.54 1.559 1.542 1.559.99 0 1.537-.706 1.534-1.559v-.383c.003-.852-.529-1.566-1.534-1.566-.981 0-1.538.714-1.542 1.566zm.32 5.526h.891l5-7.273h-.891zm4.304-1.747c.004-.377.163-.757.611-.757.469 0 .607.38.603.757v.383c.004.377-.149.75-.603.75-.455 0-.607-.377-.611-.75zm-3.69-4.162c.004-.373.157-.756.608-.756.468 0 .603.379.6.756v.383c.003.377-.146.75-.6.75-.455 0-.604-.373-.608-.75z" fill="#5eaa53"/></svg>