<svg fill="none" height="81" viewBox="0 0 97 81" width="97" xmlns="http://www.w3.org/2000/svg" xmlns:xlink="http://www.w3.org/1999/xlink"><linearGradient id="a"><stop offset="0" stop-color="#808080" stop-opacity=".25"/><stop offset=".54" stop-color="#808080" stop-opacity=".12"/><stop offset="1" stop-color="#808080" stop-opacity=".1"/></linearGradient><linearGradient id="b" gradientUnits="userSpaceOnUse" x1="73.9818" x2="73.9818" xlink:href="#a" y1="51.5795" y2="0"/><linearGradient id="c" gradientUnits="userSpaceOnUse" x1="7291.18" x2="7291.18" xlink:href="#a" y1="1086.83" y2="365.035"/><linearGradient id="d" gradientUnits="userSpaceOnUse" x1="7291.18" x2="7291.18" xlink:href="#a" y1="2445.9" y2="1724.11"/><linearGradient id="e" gradientUnits="userSpaceOnUse" x1="7291.18" x2="7291.18" xlink:href="#a" y1="3795.86" y2="3074.07"/><linearGradient id="f" gradientUnits="userSpaceOnUse" x1="29275.5" x2="29275.5" xlink:href="#a" y1="32436.6" y2="17294"/><linearGradient id="g" gradientUnits="userSpaceOnUse" x1="32861.80000000001" x2="32861.80000000001" xlink:href="#a" y1="5510.41" y2="5109.91"/><linearGradient id="h" gradientUnits="userSpaceOnUse" x1="10014" x2="10014" xlink:href="#a" y1="20385.5" y2="13350.8"/><clipPath id="i"><path d="m0 0h97v81h-97z"/></clipPath><g clip-path="url(#i)"><path d="m96.9997 0h-46.0358v51.5795h46.0358z" fill="url(#b)" opacity=".64"/><path d="m96.2382 34.4377h-44.5136v16.0185h44.5136z" fill="#fff"/><g fill="#64ffda"><path d="m57.1039 38.2371h-1.725v8.2083h1.725z"/><path d="m60.5081 38.2371h-1.7249v8.2083h1.7249z" opacity=".49"/><path d="m63.9154 38.2371h-1.725v8.2083h1.725z" opacity=".36"/><path d="m67.3197 38.2371h-1.725v8.2083h1.725z" opacity=".25"/><path d="m70.7249 38.2371h-1.7249v8.2083h1.7249z" opacity=".25"/><path d="m74.1302 38.2371h-1.7249v8.2083h1.7249z" opacity=".16"/><path d="m77.5365 38.2371h-1.725v8.2083h1.725z" opacity=".09"/></g><path d="m89.9367 46.4668c2.2987 0 4.1622-1.8708 4.1622-4.1784s-1.8635-4.1784-4.1622-4.1784c-2.2988 0-4.1623 1.8708-4.1623 4.1784s1.8635 4.1784 4.1623 4.1784z" fill="#0278d5"/><path d="m96.2382 17.7951h-44.5136v16.0185h44.5136z" fill="#fff"/><path d="m57.1039 21.5945h-1.725v8.2083h1.725z" fill="#64ffda"/><path d="m60.5081 21.5945h-1.7249v8.2083h1.7249z" fill="#64ffda" opacity=".49"/><path d="m63.9154 21.5945h-1.725v8.2083h1.725z" fill="#64ffda" opacity=".36"/><path d="m67.3197 21.5945h-1.725v8.2083h1.725z" fill="#64ffda" opacity=".25"/><path d="m70.7249 21.5945h-1.7249v8.2083h1.7249z" fill="#64ffda" opacity=".25"/><path d="m74.1302 21.5945h-1.7249v8.2083h1.7249z" fill="#64ffda" opacity=".16"/><path d="m77.5365 21.5945h-1.725v8.2083h1.725z" fill="#64ffda" opacity=".09"/><path d="m89.9367 29.8253c2.2987 0 4.1622-1.8707 4.1622-4.1784 0-2.3076-1.8635-4.1783-4.1622-4.1783-2.2988 0-4.1623 1.8707-4.1623 4.1783 0 2.3077 1.8635 4.1784 4.1623 4.1784z" fill="#0278d5"/><path d="m96.2382 1.15253h-44.5136v16.01857h44.5136z" fill="#fff"/><path d="m57.1039 4.95308h-1.725v8.20832h1.725z" fill="#64ffda"/><path d="m60.5081 4.95308h-1.7249v8.20832h1.7249z" fill="#64ffda" opacity=".49"/><path d="m63.9154 4.95308h-1.725v8.20832h1.725z" fill="#64ffda" opacity=".36"/><path d="m67.3197 4.95308h-1.725v8.20832h1.725z" fill="#64ffda" opacity=".25"/><path d="m70.7249 4.95308h-1.7249v8.20832h1.7249z" fill="#64ffda" opacity=".25"/><path d="m74.1302 4.95308h-1.7249v8.20832h1.7249z" fill="#64ffda" opacity=".16"/><path d="m77.5365 4.95308h-1.725v8.20832h1.725z" fill="#64ffda" opacity=".09"/><path d="m89.9363 13.5088c2.4782 0 4.4871-2.0167 4.4871-4.50443s-2.0089-4.50443-4.4871-4.50443c-2.4781 0-4.4871 2.0167-4.4871 4.50443s2.009 4.50443 4.4871 4.50443z" fill="url(#c)"/><path d="m89.9363 30.2627c2.4782 0 4.4871-2.0167 4.4871-4.5044 0-2.4878-2.0089-4.5045-4.4871-4.5045-2.4781 0-4.4871 2.0167-4.4871 4.5045 0 2.4877 2.009 4.5044 4.4871 4.5044z" fill="url(#d)"/><path d="m89.9363 46.9042c2.4782 0 4.4871-2.0168 4.4871-4.5045s-2.0089-4.5044-4.4871-4.5044c-2.4781 0-4.4871 2.0167-4.4871 4.5044s2.009 4.5045 4.4871 4.5045z" fill="url(#e)"/><path d="m89.9367 13.1827c2.2987 0 4.1622-1.8707 4.1622-4.17833 0-2.30764-1.8635-4.17835-4.1622-4.17835-2.2988 0-4.1623 1.87071-4.1623 4.17835 0 2.30763 1.8635 4.17833 4.1623 4.17833z" fill="#0278d5"/><path d="m65.3159 78.1889h-61.6118v-39.4874c0-.2333.04578-.4643.13471-.6799.08894-.2155.2193-.4114.38364-.5764.16433-.1649.35943-.2958.57414-.3851.21472-.0893.44485-.1352.67726-.1352h58.07115c.2324 0 .4626.0459.6773.1352s.4098.2202.5741.3851c.1644.165.2947.3609.3837.5764.0889.2156.1347.4466.1347.6799z" fill="url(#f)" opacity=".64"/><path d="m6.32346 37.6513h56.37424c.4694 0 .9195.1872 1.2514.5203.3319.3332.5184.7851.5184 1.2563v38.761h-59.91379v-38.761c0-.4712.18646-.9231.51835-1.2563.33189-.3331.78203-.5203 1.2514-.5203z" fill="#fff"/><path d="m62.5376 40.0092h-56.05615v36.9091h56.05615z" fill="#f5f5f5"/><path d="m62.5159 41.8015h-55.81863v33.2065h55.81863z" fill="#e0e0e0" opacity=".8"/><path d="m62.5159 40.0373h-55.81863v1.7642h55.81863z" fill="#f5f5f5"/><path d="m7.89341 41.3191c.23507 0 .42563-.1913.42563-.4272 0-.236-.19056-.4273-.42563-.4273s-.42564.1913-.42564.4273c0 .2359.19057.4272.42564.4272z" fill="#ff5252"/><path d="m9.06528 41.3191c.23508 0 .42564-.1913.42564-.4272 0-.236-.19056-.4273-.42564-.4273-.23507 0-.42563.1913-.42563.4273 0 .2359.19056.4272.42563.4272z" fill="#ff0"/><path d="m10.2381 41.3191c.2351 0 .4257-.1913.4257-.4272 0-.236-.1906-.4273-.4257-.4273-.235 0-.4256.1913-.4256.4273 0 .2359.1906.4272.4256.4272z" fill="#69f0ae"/><path d="m67.0398 80.8414c-3.4297.2609-62.32864.1563-64.38737 0-2.6983049-1.3054-2.65238023-6.3698-2.65238023-6.3698l27.01105023-.181.0907 1.5415h11.5638l.4481-1.3605h29.9378s.5948 4.6472-2.0117 6.3698z" fill="url(#g)" opacity=".64"/><path d="m68.6121 74.8798h-29.3532c.1155.1305.1906.292.2162.4647.0256.1726.0006.3491-.0719.5077-.0726.1587-.1895.2927-.3367.3858-.1471.0931-.318.1412-.4919.1384h-11.201c-.1738.0028-.3448-.0453-.4919-.1384-.1472-.0931-.2641-.2271-.3367-.3858-.0725-.1586-.0975-.3351-.0719-.5077.0256-.1727.1007-.3342.2162-.4647h-26.283003s-.044803 4.3987 2.619893 5.5321c2.03297.1361 60.21171.2249 63.59881 0 2.5751-1.4966 1.9871-5.5321 1.9871-5.5321z" fill="#f5f5f5"/><path d="m6.50437 76.1942c.19981 0 .36179-.1626.36179-.3632 0-.2005-.16198-.3632-.36179-.3632s-.36179.1627-.36179.3632c0 .2006.16198.3632.36179.3632z" fill="#e0e0e0"/><path d="m7.58835 76.1942c.19981 0 .36179-.1626.36179-.3632 0-.2005-.16198-.3632-.36179-.3632s-.36179.1627-.36179.3632c0 .2006.16198.3632.36179.3632z" fill="#e0e0e0"/><path d="m8.67331 76.1942c.19982 0 .36179-.1626.36179-.3632 0-.2005-.16197-.3632-.36179-.3632-.19981 0-.36179.1627-.36179.3632 0 .2006.16198.3632.36179.3632z" fill="#e0e0e0"/><path d="m32.7681 43.107-10.8716 6.7161s0 13.8529 10.8716 21.4079c10.8716-7.5561 10.8716-21.4079 10.8716-21.4079z" fill="url(#h)" opacity=".49"/><path d="m32.7681 43.8997-10.2544 6.3384s0 13.0725 10.26 20.2024c10.2601-7.1299 10.2601-20.2024 10.2601-20.2024z" fill="#0278d5"/><path d="m32.9425 43.8997-.1759.1124v26.3115l.1759.1237c10.26-7.13 10.26-20.2025 10.26-20.2025z" fill="#000" opacity=".05"/><path d="m32.7681 45.4312-9.0728 5.6063s0 11.5636 9.0728 17.8716c9.0727-6.308 9.0727-17.8716 9.0727-17.8716z" fill="#0278d5"/><path d="m32.7686 45.475v23.4734c9.0727-6.308 9.0727-17.8715 9.0727-17.8715z" fill="#000" opacity=".08"/><path d="m26.7705 34.45v-23.2755h19.1536" stroke="#3ad29f" stroke-dasharray="4 4" stroke-miterlimit="10"/><path d="m20.834 27.3662v-23.27556h19.1536" stroke="#3ad29f" stroke-dasharray="4 4" stroke-miterlimit="10"/><path d="m80.199 53.6777v18.2156h-10.0808" stroke="#3ad29f" stroke-dasharray="4 4" stroke-miterlimit="10"/><path d="m86.2468 57.7256v18.2156h-10.0808" stroke="#3ad29f" stroke-dasharray="4 4" stroke-miterlimit="10"/></g></svg>