<svg width="408" height="795" viewBox="0 0 408 795" fill="none" xmlns="http://www.w3.org/2000/svg"><path d="M426.931 151.612 310.874 35.269a132.232 132.232 0 0 0-48.009-29.05c-39.652-13.217-79.113-2.9-111.071 29.05L35.451 151.613A132.44 132.44 0 0 0 6.437 199.68c-13.249 39.7-2.944 79.21 29.014 111.16l116.2 116.342a131.791 131.791 0 0 0 47.962 29.05 106.301 106.301 0 0 0 33.62 5.61c27.875 0 54.562-11.791 77.451-34.66L426.836 310.84a132.454 132.454 0 0 0 29.062-48.068c13.201-39.7 2.896-79.162-29.062-111.16h.095ZM240.119 69.026a65.797 65.797 0 0 1 23.743 13.598l34.333 34.423-66.956 66.99-66.956-67.038 34.522-34.612c9.26-9.224 22.319-19.019 41.409-13.408l-.095.047ZM69.262 222.216a65.721 65.721 0 0 1 13.629-23.772l34.332-34.375 66.956 67.038-67.003 67.038-34.523-34.612c-9.26-9.224-18.995-22.299-13.439-41.412l.048.095Zm153.002 171.067a64.905 64.905 0 0 1-23.744-13.598l-34.237-33.995 66.956-67.086 66.956 67.038-34.523 34.613c-9.26 9.224-22.271 19.018-41.408 13.408v-.38Zm170.951-152.857a66.2 66.2 0 0 1-13.581 23.772l-34.333 33.947-66.956-67.038 66.956-67.038 34.523 34.565c9.26 9.223 18.995 22.298 13.439 41.411" fill="#00ABE4"/><path d="M35.374 772.076 151.43 888.418a132.22 132.22 0 0 0 48.009 29.05c39.651 13.217 79.113 2.9 111.071-29.05l116.342-116.342a132.449 132.449 0 0 0 29.015-48.068c13.248-39.7 2.944-79.21-29.015-111.16L310.654 496.505a131.792 131.792 0 0 0-47.962-29.049 106.302 106.302 0 0 0-33.62-5.611c-27.875 0-54.563 11.791-77.451 34.66L35.469 612.848a132.437 132.437 0 0 0-29.062 48.068c-13.201 39.7-2.897 79.162 29.062 111.16h-.095Zm186.812 82.585a65.791 65.791 0 0 1-23.743-13.598l-34.333-34.422 66.956-66.991 66.956 67.038-34.523 34.613c-9.259 9.224-22.318 19.018-41.408 13.408l.095-.048Zm170.857-153.19a65.716 65.716 0 0 1-13.629 23.773l-34.333 34.375-66.956-67.038 67.004-67.039 34.523 34.613c9.26 9.224 18.994 22.298 13.438 41.412l-.047-.096ZM240.041 530.405a64.894 64.894 0 0 1 23.743 13.598l34.238 33.994-66.956 67.086-66.956-67.038 34.523-34.613c9.26-9.223 22.271-19.018 41.408-13.407v.38ZM69.089 683.262a66.207 66.207 0 0 1 13.581-23.773l34.333-33.947 66.956 67.039-66.956 67.038-34.522-34.565c-9.26-9.224-18.995-22.299-13.44-41.412" fill="url(#paint0_linear_4276_162988)" fill-opacity=".7"/><defs><linearGradient id="paint0_linear_4276_162988" x1="231.152" y1="461.846" x2="231.152" y2="658.648" gradientUnits="userSpaceOnUse"><stop stop-color="#00ABE4"/><stop offset=".391" stop-color="#00ABE4" stop-opacity=".3"/><stop offset="1" stop-color="#00ABE4" stop-opacity="0"/></linearGradient></defs></svg>