<svg width="32" height="40" fill="none" xmlns="http://www.w3.org/2000/svg"><g opacity=".75" fill-rule="evenodd" clip-rule="evenodd" fill="#6B6D85"><path d="M9.652 3.303c.229.09.368.376.311.64-.057.263-.116.527-.175.79-.518 2.314-1.035 4.624-.32 7.169 1.027 3.646 3.959 5.356 6.37 6.763l.242.141c1.424.833 2.875 1.53 4.348 2.236.464.223.93.447 1.398.676 1.943.952 3.899 1.992 5.782 3.43.873.667 1.476 1.399 1.847 2.193.372.797.493 1.619.454 2.432-.078 1.591-.775 3.207-1.432 4.677-.106.237-.363.311-.574.166a.583.583 0 0 1-.19-.693c.675-1.508 1.277-2.944 1.343-4.29.031-.655-.066-1.274-.341-1.864-.278-.593-.753-1.197-1.528-1.789-1.809-1.381-3.702-2.39-5.63-3.336-.455-.222-.912-.442-1.371-.662-1.48-.71-2.975-1.428-4.432-2.28l-.319-.186c-2.345-1.363-5.62-3.268-6.775-7.37-.804-2.855-.216-5.46.299-7.741.06-.267.12-.53.175-.787.057-.263.29-.404.518-.315Z"/><path d="M9.704 4.262Zm-.61.6c-.91 1.015-1.632 2.25-2.382 3.534l-.204.35c-.506.861-1.03 1.734-1.637 2.539l.53-.058.14-.015c.69-.075 1.507-.164 2.413-.283l.228-.13c-.587.075-1.133.104-1.532.038-.236-.039-.416-.293-.402-.569.013-.275.215-.467.45-.429.41.068 1.12.006 1.95-.135a31.182 31.182 0 0 0 2.586-.571 12.284 12.284 0 0 1-1.3-1.835 7.561 7.561 0 0 1-.643-1.415 3.963 3.963 0 0 1-.198-1.022Zm3.134 3.973a1.687 1.687 0 0 1-.144-.09.334.334 0 0 1-.025-.022 10.804 10.804 0 0 1-1.429-1.94 6.38 6.38 0 0 1-.543-1.186c-.123-.383-.165-.705-.131-.961.012-.091.027-.176.044-.267l.021-.118c.012-.063.023-.136.03-.206a.987.987 0 0 0-.01-.295.687.687 0 0 0-.115-.263.512.512 0 0 0-.28-.2.479.479 0 0 0-.36.058c-.133.074-.292.22-.477.406-1.133 1.15-1.984 2.607-2.804 4.012l-.213.364c-.72 1.228-1.437 2.4-2.333 3.357-.041.01-.08.02-.116.031a.755.755 0 0 0-.255.125.506.506 0 0 0-.168.254.591.591 0 0 0-.023.14 7.525 7.525 0 0 1-.143.123c-.184.156-.214.469-.066.7.147.23.416.291.6.136.084-.071.167-.144.248-.218 1.492.604 3.021.037 4.39-.686.108-.057.217-.116.325-.176a55.378 55.378 0 0 0 4.314-.735c.653.012 1.15.009 1.52-.009.362-.017.638-.048.814-.11a.653.653 0 0 0 .157-.077.507.507 0 0 0 .185-.235.64.64 0 0 0-.007-.468.694.694 0 0 0-.16-.238 1.114 1.114 0 0 0-.258-.181 3.316 3.316 0 0 0-.28-.13c-.24-.1-.566-.215-.895-.33a45.573 45.573 0 0 1-.511-.183.742.742 0 0 0-.015-.126.97.97 0 0 0-.204-.285.762.762 0 0 0-.127-.061.378.378 0 0 0-.095-.015c-.044 0-.082.007-.083.007a14.203 14.203 0 0 0-.378.098Zm.03 1.072c-.183.052-.4.112-.641.175a8.181 8.181 0 0 0-.931.43 48.334 48.334 0 0 0 1.7-.334.352.352 0 0 1 .08-.008l.472.007-.074-.028c-.21-.077-.418-.159-.606-.242Z"/></g></svg>