<svg fill="none" height="597" viewBox="0 0 597 597" width="597" xmlns="http://www.w3.org/2000/svg" xmlns:xlink="http://www.w3.org/1999/xlink"><clipPath id="a"><path d="m0 0h597v597h-597z" transform="matrix(-1 0 0 1 597 0)"/></clipPath><g clip-path="url(#a)"><path d="m509.998 442.5-100.5 54-60.998 45.5c-23.333 3.167-84.2 7.6-141 0-71-9.5-103.5-63.5-142.5-117.5-31.2-43.2-33.6667-130-31-168 8.1667-37.333 30.2-110.3 53-103.5s113.833 11.833 156.5 13.5c15.833-23.167 52-76.9 70-106.5s93.5-44 129-47.5c-3.2 2 34 94.5 53 140.5 16.833 21.5 52.798 81.9 61.998 151.5s-27.833 121-47.5 138z" fill="#6b6d85" stroke="#000"/><path d="m446.681 9.31024c-10.376-9.087939-59.444 10.81896-82.681 21.90846 11.889 30.5626 43.448 102.7233 74.575 146.8643 31.127 44.142 43.772 99.535 46.204 121.714 4.053 48.415 18.806 138.429 45.393 111.165 33.235-34.08 51.068-122.525 22.697-157.416s-82.681-141.999-90.787-164.7191c-8.106-22.7198-2.432-68.1567-15.401-79.51666z" fill="#fcfeff" opacity=".2"/><path d="m222.17 181.144c-109.864-.643-135.7234-21.697-134.9203-32.144-17.9356 13.393-49.1486 43.234-30.5168 55.449 23.2898 15.269 94.7651 9.643 171.0591 15.269 76.294 5.625 125.283 45.002 167.847 87.593 34.052 34.073 35.604 100.987 32.124 130.185-12.046 36.43-26.984 89.522 9.637 10.446 36.621-79.075.268-162.061-22.486-193.669-18.472-24.109-82.881-72.486-192.744-73.129z" fill="#fcfeff" opacity=".2"/><path d="m460.684 6.96503c1.99 4.97497 7.96 25.86997 10.945 46.76497 3.98 21.89 26.865 73.63 50.745 114.425 49.75 86.565 62.685 141.29 44.775 196.015-11.94 38.805-45.77 83.58-61.69 83.58-14.925 0-7.96-23.88 13.93-47.76 18.905-18.905 22.885-34.825 22.885-84.575 0-54.725-4.975-69.65-43.78-136.315-23.88-40.795-45.77-91.54-47.76-112.435-6.965-46.765-13.93-50.745-58.705-36.815-42.785 13.93-98.505 61.69-119.4 100.495-17.91 35.82-18.905 35.82 12.935 42.785 15.92 3.98 35.82 8.955 44.775 11.94 12.935 3.98 19.9-4.975 27.86-34.825 5.97-22.885 14.925-40.795 19.9-40.795 11.94 0 11.94 6.965 0 48.755-8.955 32.835-7.96 35.82 31.84 69.65 71.64 61.69 85.57 135.32 42.785 227.855-18.905 41.79-22.885 61.69-17.91 96.515 4.975 35.82 2.985 44.775-9.95 44.775-9.95 0-16.915-14.925-21.89-47.76-2.985-25.87-15.92-66.665-26.865-89.55-18.905-40.795-21.89-42.785-53.73-37.81-17.91 3.98-34.825 1.99-38.805-3.98-2.985-4.975 0-9.95 6.965-9.95s19.9-4.975 27.86-9.95c12.935-7.96 9.95-13.93-14.925-34.825-16.915-13.93-46.765-33.83-67.66-44.775-19.9-10.945-36.815-24.875-36.815-29.85 0-14.925 8.955-11.94 56.715 15.92l43.78 24.875-6.965-24.875c-2.985-14.925-1.99-25.87 3.98-25.87 11.94 0 21.89 23.88 21.89 49.75 0 10.945 12.935 33.83 28.855 51.74 14.925 17.91 35.82 47.76 45.77 66.665 16.915 32.835 17.91 33.83 31.84 15.92 42.785-59.7 39.8-144.275-7.96-198.005-37.81-43.78-91.54-64.675-207.955-80.595-51.74-6.965-102.485-15.92-112.4347-19.9-36.815-15.92-60.695 116.415-36.815 203.975 16.915 61.69 65.6697 126.365 110.4447 150.245 35.82 17.91 54.725 20.895 115.42 16.915 74.625-4.975 93.53 3.98 44.775 22.885-44.775 17.91-137.31 3.98-189.05-27.86-91.5397-56.715-141.28967414-206.96-107.4597-324.37 19.9-68.655 39.8-82.585 89.5497-61.69 18.905 7.96 52.735 14.925 74.625 14.925 32.835 0 39.8-3.98 44.775-24.875 8.955-34.825 61.69-92.535 106.465-115.42 37.81-18.9049671 103.48-25.86997 111.44-11.93997z" fill="#000"/></g></svg>