<svg height="176" viewBox="0 0 357 176" width="357" xmlns="http://www.w3.org/2000/svg" xmlns:xlink="http://www.w3.org/1999/xlink"><linearGradient id="a"><stop offset="0" stop-color="#6fd43f" stop-opacity=".43"/><stop offset="1" stop-color="#6fd43f" stop-opacity="0"/></linearGradient><radialGradient id="b" cx="0" cy="0" gradientTransform="matrix(8.09429395 26.48962792 -63.99964951 19.55603066 275.84 91.4194)" gradientUnits="userSpaceOnUse" r="1" xlink:href="#a"/><radialGradient id="c" cx="0" cy="0" gradientTransform="matrix(9.10219615 29.65158885 -71.94543543 22.08520659 180.94 136.159)" gradientUnits="userSpaceOnUse" r="1" xlink:href="#a"/><radialGradient id="d" cx="0" cy="0" gradientTransform="matrix(9.10219615 29.65158885 -71.94543543 22.08520659 90.9399 95.1594)" gradientUnits="userSpaceOnUse" r="1" xlink:href="#a"/><linearGradient id="e" gradientUnits="userSpaceOnUse" x1="204.075" x2="148.509" y1="16" y2="244.957"><stop offset=".262754" stop-color="#b2eec0"/><stop offset=".949452" stop-color="#62f91f" stop-opacity=".69"/></linearGradient><path clip-rule="evenodd" d="m105.702 16.0036c.187-.0273.362.1026.389.2901 1.627 11.1789 1.231 22.3932.835 33.5803-.075 2.126-.15 4.251-.212 6.3746-.093 3.2444-.072 6.4911-.051 9.7431.01 1.4029.019 2.8068.019 4.2119 0 .2203.026.4997.056.8275.003.0376.007.0758.01.1146.034.3678.068.7796.066 1.1776-.003.3952-.042.8025-.17 1.1555-.13.3602-.361.6835-.752.8596-.173.0778-.376.0008-.453-.1719-.078-.1728-.001-.3759.171-.4537.177-.0795.303-.229.389-.4674.089-.2457.126-.5628.129-.9266.002-.3608-.029-.7424-.063-1.1108-.004-.0392-.007-.0783-.011-.1174-.029-.3191-.058-.6328-.058-.887 0-1.3953-.009-2.7937-.019-4.1937-.021-3.2576-.042-6.5241.052-9.7811.061-2.1331.136-4.2644.212-6.394.395-11.1875.789-22.3301-.829-33.4423-.027-.1875.102-.3616.29-.3889z" fill="#b0b1c4" fill-rule="evenodd"/><path clip-rule="evenodd" d="m101.126 46.5067c.147-.1196.363-.0975.483.0495.945 1.1607 1.663 2.0712 2.293 2.87 1.533 1.9433 2.544 3.2257 5.033 5.8418.131.1373.125.3544-.012.485s-.354.1252-.485-.012c-2.512-2.6403-3.545-3.9505-5.087-5.9048-.628-.7972-1.341-1.7015-2.274-2.8469-.12-.1469-.097-.363.049-.4826z" fill="#b0b1c4" fill-rule="evenodd"/><path clip-rule="evenodd" d="m103.156 44.4141c.133-.1346.351-.1356.485-.0022 1.099 1.0891 2.029 2.061 2.928 3.001 1.524 1.5944 2.961 3.0972 4.991 4.9257.141.1268.153.3437.026.4845s-.344.1521-.485.0253c-2.045-1.8419-3.514-3.3784-5.054-4.988-.897-.9374-1.817-1.8995-2.889-2.9612-.134-.1333-.135-.3505-.002-.4851z" fill="#b0b1c4" fill-rule="evenodd"/><path clip-rule="evenodd" d="m105.301 7.00262c.188-.0232.359.11043.383.29846.06.49035.13.98069.201 1.47266.193 1.35166.389 2.71556.389 4.12586 0 .1895-.154.3431-.343.3431-.19 0-.343-.1536-.343-.3431 0-1.3576-.186-2.6499-.377-3.98542-.072-.5017-.144-1.00949-.208-1.5291-.024-.18804.11-.35927.298-.38246z" fill="#b0b1c4" fill-rule="evenodd"/><path clip-rule="evenodd" d="m72.1062 26.9934c.1888-.0159.3547.1242.3707.313.1505 1.7821.5977 4.2502 1.1073 7.0632l.0128.071c.5134 2.8338 1.0853 5.9998 1.4655 9.1135.3801 3.1117.5712 6.1885.3169 8.8437-.2533 2.6461-.9542 4.9328-2.4134 6.4018-.2462.2478-.5508.3418-.8652.3091-.0304-.0032-.0607-.0075-.0908-.0129.0465.8272.0698 1.7236.0777 2.6624.0162 1.9297-.0333 4.0544-.0866 6.1505-.0044.1727-.0088.3452-.0132.5174-.0492 1.9202-.0973 3.8009-.0973 5.4785v11.0543c0 .2253-.0047.4351-.0092.6326-.0216.9609-.0367 1.6325.5294 2.3973.1127.1523.0806.3671-.0717.4799-.1523.1127-.3671.0806-.4798-.0717-.7166-.9683-.6914-1.8991-.6649-2.8746.005-.186.0101-.3737.0101-.5635v-11.0543c0-1.6869.0484-3.5764.0975-5.4944.0044-.1728.0089-.3458.0133-.5189.0533-2.0974.1024-4.211.0863-6.1273-.0089-1.0714-.0383-2.0763-.0979-2.9787-.0165-.0113-.0329-.0227-.0492-.0343-.5202-.3705-1.0217-.986-1.3929-1.6266-.3681-.6355-.6416-1.3538-.6467-1.9439-.0026-.2985.0637-.6067.2696-.8435.2131-.2451.5248-.3557.8881-.3557.0538 0 .1069.0126.1549.0369.3711.1877.6269.5708.8131 1.0189.1899.4571.331 1.0396.4371 1.708.0777.4902.138 1.0352.1839 1.6238.078.0324.1485.0509.2103.0574.1186.0123.2148-.0171.3073-.1102 1.2914-1.3001 1.9691-3.3921 2.2173-5.9837.2472-2.5824.0628-5.6021-.315-8.6951-.3775-3.091-.9457-6.2379-1.4596-9.0744l-.0189-.1044c-.5047-2.7858-.9565-5.2794-1.1098-7.0944-.0159-.1888.1242-.3547.313-.3707zm-.883 30.8215c-.0349-.3417-.0757-.6633-.1231-.9623-.1022-.6438-.2327-1.1663-.3931-1.5523-.1406-.3385-.2879-.5323-.4228-.6292-.1626.0144-.2405.0684-.282.1162-.0556.0639-.103.1824-.1012.3873.0036.4167.2105 1.0125.5543 1.6059.2243.3872.4925.7485.7679 1.0344z" fill="#b0b1c4" fill-rule="evenodd"/><path clip-rule="evenodd" d="m69.6441 85.0351c1.3271-.1592 2.8158.0682 3.8096.5158 2.6143 1.1774 3.2618 4.2482 2.4002 6.5764-.3532.9545-1.3 1.5233-2.2983 1.7424-1.0039.2204-2.1533.1115-3.0245-.3879-.4741-.2717-.7903-.6658-.9889-1.1237.0001.0431.0002.0863.0003.1297.0005.1518.0009.3055.0009.4612 0 .1895-.1536.3431-.3431.3431-.1894 0-.343-.1536-.343-.3431 0-.1586-.0005-.3164-.0011-.4734-.0009-.2837-.0019-.565.0003-.845-1.5497-.6916-2.8477-2.4114-2.2047-4.5995.3764-1.2808 1.6851-1.8392 2.9923-1.996zm.5009 1.6398c-.2937.178-.5259.4791-.6789.8925-.4182 1.1302-.5523 2.2144-.5935 3.3074-1.1826-.6459-2.0491-1.9945-1.5625-3.6502.2547-.8669 1.1804-1.3601 2.4157-1.5083.2654-.0318.5379-.0465.8107-.0459-.1137.2754-.2504.6178-.3915 1.0045zm-.179 4.5752c-.0558-.5283-.011-1.13.0988-1.7551.1405-.8001.382-1.6099.6257-2.3075.1859-.0381.4162.0025.6663.1349.271.1437.5324.3796.7247.659.1931.2806.3007.5816.3007.8516 0 1.1602-.4039 1.8192-.9183 2.1503-.4107.2642-.9398.3509-1.4979.2668zm.1547.7073c.605.0459 1.2066-.0704 1.7145-.3972.7606-.4894 1.2331-1.4 1.2331-2.7272 0-.4442-.1725-.8786-.4216-1.2405-.2498-.3631-.5924-.677-.9688-.8763-.2255-.1195-.4756-.2038-.7312-.224.1189-.3076.2292-.5746.3179-.7848.7192.0709 1.3978.2396 1.9073.469 2.1889.9859 2.8154 3.6134 2.0386 5.7128-.2404.6495-.9252 1.1179-1.802 1.3104-.8711.1912-1.8402.086-2.5362-.313-.3619-.2075-.6046-.5227-.7516-.9292z" fill="#b0b1c4" fill-rule="evenodd"/><path clip-rule="evenodd" d="m54.9921 71.0938c.1894.0022.3412.1576.3389.3471-.0339 2.8449-.1186 5.6901-.2032 8.5318-.0309 1.0391-.0619 2.0778-.0903 3.1158-.0052.1894-.1629.3387-.3523.3335-.1894-.0051-.3387-.1629-.3335-.3523.0285-1.0416.0595-2.0825.0905-3.1229.0845-2.8397.1689-5.6758.2028-8.5141.0022-.1894.1576-.3412.3471-.3389z" fill="#b0b1c4" fill-rule="evenodd"/><path clip-rule="evenodd" d="m58.5544 61.6903c.01 2.1242-.7599 4.6439-1.2173 5.7883-.3605.9021-1.3355 1.0406-2.126.893-.0994-.0185-.1988-.0418-.2974-.0695-.0048.001-.0097.002-.0146.003-.4654.0932-.884-.0159-1.2333-.2753-.3384-.2513-.5979-.6323-.7945-1.07-.3928-.8748-.578-2.0751-.5774-3.2853.0007-1.2135.1882-2.477.5726-3.4862.3763-.9878.9857-1.8401 1.898-2.0227 1.3774-.2757 2.3633.0118 2.9881.7402.5995.6987.7969 1.7284.8018 2.7845zm-2.4979 6.0213c.3158-.0621.5401-.2289.6435-.4876.4428-1.108 1.1777-3.5331 1.1683-5.5305-.0047-1.0046-.198-1.83-.6364-2.341-.413-.4815-1.1121-.7585-2.3328-.5142-.5484.1098-1.0358.6605-1.3914 1.5942-.3475.9122-.5271 2.0889-.5277 3.2424 0 .0876.001.1749.003.2616.0419-.1922.0893-.3831.14-.571.1733-.642.3937-1.278.5944-1.856l.0028-.0081c.2021-.5818.3806-1.096.4845-1.5225.0449-.184.2305-.2969.4146-.252.184.0448.2969.2304.252.4145-.1117.4585-.2993.9985-.4946 1.561l-.0112.0322c-.2018.5811-.4142 1.1947-.5801 1.8097-.3379 1.2522-.4506 2.4024.0081 3.2289.1063.1914.3133.3917.5979.5638.1662.1006.351.1866.5426.2529.7197-.2186 1.1277-.8559 1.357-1.6947.2462-.9006.254-1.9306.254-2.6305 0-.7979-.0432-1.3224-.1219-1.6379-.0355-.1424-.072-.2151-.095-.2478-.0044.0014-.0096.0032-.0155.0055-.0264.0103-.0625.0285-.109.0588-.0945.0615-.2112.159-.3532.2978-.2841.2778-.6291.6806-1.0487 1.1846-.1213.1455-.3376.1653-.4832.0441s-.1653-.3376-.0441-.4832c.4164-.5001.7832-.9299 1.0964-1.2361.1567-.1532.3101-.2856.4584-.3821.1435-.0935.315-.1753.502-.1801.2113-.0054.39.0881.5188.2443.1164.1412.1888.3277.2388.5281.1006.4033.1422 1.0004.1422 1.804 0 .6909-.0043 1.8095-.2782 2.8115-.165.6034-.4395 1.2023-.8963 1.6354z" fill="#b0b1c4" fill-rule="evenodd"/><path clip-rule="evenodd" d="m53.2281 36.4569c.1745-.0738.3757.0078.4495.1823.7908 1.8698 1.2507 4.7662 1.505 7.8997.2553 3.1449.3062 6.5688.2611 9.5178-.0452 2.9477-.1864 5.4314-.3176 6.6967-.0326.3148-.0656.5644-.0982.7291-.0146.0738-.0349.1627-.0671.2326-.0092.0197-.0245.0497-.0482.0809-.0205.0269-.0701.0856-.1569.1197-.108.0425-.2235.0278-.3138-.0275-.0725-.0443-.1105-.1031-.1263-.1302-.0327-.0562-.0473-.114-.0541-.1438-.0087-.0374-.0153-.0784-.0207-.12-.0108-.0836-.0194-.1909-.0262-.3201-.0136-.2595-.021-.6287-.021-1.1166 0-.1864.1488-.3381.334-.3429.1008-1.3575.1948-3.367.2301-5.6684.0449-2.9357-.006-6.3361-.2589-9.4517-.2539-3.1271-.7085-5.9276-1.4531-7.6881-.0738-.1745.0079-.3757.1824-.4495z" fill="#b0b1c4" fill-rule="evenodd"/><path clip-rule="evenodd" d="m53.4038 33.0156c-.1758.0301-.4637.1305-.9029.3579-.1682.0872-.3753.0214-.4624-.1468-.0871-.1683-.0214-.3753.1468-.4624.4612-.2388.8232-.3772 1.1029-.4249.2618-.0448.5794-.0271.7595.235.1592.2316.1006.5103.0441.6776-.0648.1922-.1771.3869-.298.5502-.1127.1523-.3275.1844-.4798.0716-.1523-.1127-.1844-.3275-.0716-.4798.0914-.1235.1634-.2549.1994-.3614.0028-.0085.0053-.0163.0075-.0236-.0133.0016-.0284.0037-.0455.0066zm.1339-.0067c-.0002.0002-.0025-.0002-.0064-.0018.0047.0008.0066.0016.0064.0018z" fill="#b0b1c4" fill-rule="evenodd"/><path clip-rule="evenodd" d="m71.9728 22.8723c-.008-.0051-.0161-.0103-.0242-.0156-.159-.1029-.2044-.3153-.1015-.4744.0946-.1461.2817-.1963.4348-.1236.0445-.0211.0943-.033.1469-.033.016 0 .0318.0001.0472.0002.2673-.1502.5451-.1466.7724-.0382.2259.1078.4133.33.4392.5824.0143.1391-.0225.3096-.1649.434-.1335.1167-.3025.142-.4473.133-.1186-.0073-.2529-.0392-.404-.0965-.0339.0058-.0676.0104-.1005.0136-.0515.0051-.1074.0075-.1629.0038-.028-.0019-.0589-.0055-.0909-.0123-.0316-.0066-.0691-.0173-.1082-.0354-.0389-.0181-.086-.0466-.129-.092-.0449-.0474-.0806-.1085-.0974-.1805-.0053-.0224-.0084-.0443-.0097-.0655z" fill="#b0b1c4" fill-rule="evenodd"/><path clip-rule="evenodd" d="m53.1332 20.3016c.1826-.0506.3717.0563.4223.2389.6628 2.3881.6364 4.7897.6102 7.1711-.0051.4634-.0102.9261-.0102 1.3877 0 .1895-.1536.3431-.343.3431-.1895 0-.3431-.1536-.3431-.3431 0-.4774.005-.9507.01-1.4203.0252-2.3805.0495-4.6691-.585-6.9551-.0506-.1825.0563-.3716.2388-.4223z" fill="#b0b1c4" fill-rule="evenodd"/><path clip-rule="evenodd" d="m53.5926 15.0082c.185.041.3017.2242.2606.4092l-.2933 1.323c-.0411.1849-.2242.3016-.4092.2606s-.3017-.2242-.2607-.4092l.2934-1.3229c.041-.185.2242-.3017.4092-.2607z" fill="#b0b1c4" fill-rule="evenodd"/><path clip-rule="evenodd" d="m72.9772 12.7055c.1882-.022.3585.1128.3805.3009.2229 1.9101.3995 3.7058-.0048 5.6657-.0383.1855-.2197.3049-.4053.2666-.1855-.0382-.3049-.2197-.2666-.4052.3795-1.8401.2183-3.5361-.0048-5.4475-.022-.1882.1128-.3586.301-.3805z" fill="#b0b1c4" fill-rule="evenodd"/><path clip-rule="evenodd" d="m74.1892 0c.1895 0 .343.153586.343.343045 0 1.523035-.0509 3.022635-.2977 4.552795-.0302.18704-.2062.31421-.3933.28405-.187-.03017-.3142-.20625-.284-.39329.2381-1.47658.289-2.93367.289-4.443555 0-.189459.1535-.343045.343-.343045z" fill="#b0b1c4" fill-rule="evenodd"/><path clip-rule="evenodd" d="m122.856 8.00685c.186-.03749.367.08268.404.26839 1.004 4.97226.85 10.22116.701 15.33006-.054 1.8161-.106 3.6145-.106 5.3765v35.3974c0 .7864-.004 1.5702-.007 2.3518-.02 4.3703-.039 8.6713.558 12.9772.017.1175.038.2541.062.4044l.001.0054c.023.151.049.3142.072.4776.046.321.086.6649.08.9349-.003.1305-.016.2783-.064.4047-.05.1303-.18.3291-.444.3312-.197.0016-.359-.1189-.466-.2152-.123-.1108-.259-.2697-.411-.4748-.113-.1523-.081-.3671.072-.4798.152-.1128.367-.0807.479.0716.054.0722.102.1339.145.1863-.008-.188-.035-.4177-.07-.6624-.023-.1576-.047-.3159-.071-.4676l-.002-.0096c-.023-.147-.045-.2888-.062-.4124-.605-4.3586-.585-8.7152-.565-13.0842.003-.7793.007-1.559.007-2.3391v-35.3974c0-1.8073.053-3.634.107-5.4666.148-5.085.299-10.2157-.688-15.10421-.038-.18572.083-.36666.268-.40414z" fill="#b0b1c4" fill-rule="evenodd"/><path clip-rule="evenodd" d="m125.078 43.3585c.92.5297 1.673 1.4188 1.714 2.4265.003.0736.008.1627.013.2646.032.6072.088 1.6699-.037 2.6327-.072.5607-.21 1.1274-.475 1.5628-.275.452-.702.7774-1.312.7774-.779 0-1.359-.2533-1.765-.6912-.01.0169-.023.0332-.036.0486-.127.1407-.344.1521-.485.0253-.631-.5688-1.668-2.0117-2.152-3.4834-.242-.7378-.36-1.5245-.182-2.2298.185-.7279.675-1.3287 1.555-1.6809 1.039-.416 2.235-.1864 3.162.3474zm-2.406 6.0111c-.52-.6466-1.144-1.6485-1.477-2.6621-.223-.6786-.302-1.3208-.168-1.8471.127-.5037.457-.9373 1.144-1.2124.79-.3164 1.763-.1564 2.564.3051.809.4655 1.344 1.1774 1.372 1.8601.003.0821.008.178.014.2854.031.6144.082 1.602-.033 2.4957-.068.5263-.19.9803-.381 1.2937-.181.2968-.408.4484-.726.4484-.668 0-1.071-.2258-1.332-.5535-.276-.3456-.427-.8459-.492-1.4457-.064-.5951-.039-1.2472.005-1.8644.013-.1809.027-.3614.042-.5368.033-.4061.064-.7849.064-1.0777 0-.1894-.154-.343-.343-.343-.19 0-.343.1536-.343.343 0 .2639-.028.5964-.059.9849-.015.1819-.031.376-.046.5811-.044.6255-.073 1.3279-.002 1.9864.035.3265.096.6527.197.9589z" fill="#b0b1c4" fill-rule="evenodd"/><path clip-rule="evenodd" d="m127.33 17.7891c.19 0 .343.1535.343.343 0 .3622-.149.6994-.347.9949-.199.2973-.466.5798-.743.8389-.273.2562-.568.5003-.834.72l-.011.0094c-.274.2267-.509.4219-.679.5907-2.106 2.0933-4.557 4.0382-6.904 5.9005-.2.1589-.4.3173-.598.4751-.149.1179-.365.0932-.482-.0551-.118-.1483-.094-.3641.055-.482.197-.1568.395-.3139.593-.4714 2.354-1.8673 4.775-3.7889 6.852-5.8537.197-.195.458-.4112.723-.6306l.007-.0056c.27-.2236.551-.4564.809-.698.26-.2437.484-.4853.642-.7202.158-.2367.231-.4399.231-.6129 0-.1895.154-.343.343-.343z" fill="#b0b1c4" fill-rule="evenodd"/><path clip-rule="evenodd" d="m119.14 18.7031c.124-.1426.341-.157.484-.0323l10.281 8.9964c.142.1247.157.3415.032.484-.125.1426-.341.1571-.484.0323l-10.281-8.9964c-.143-.1247-.157-.3414-.032-.484z" fill="#b0b1c4" fill-rule="evenodd"/><path d="m355.813 89.35c.479 18.495-34.939 34.415-79.107 35.558s-80.361-12.924-80.839-31.4192c-.479-18.4954 34.938-34.4153 79.106-35.5582s80.361 12.924 80.84 31.4194z" fill="url(#b)" fill-opacity=".2"/><path d="m234.072 80.3208 15.48-12.3052h37.46l17.956 12.3052v14.01l-17.956 12.3832h-35.293l-18.266-12.3832z" fill="#fff"/><path clip-rule="evenodd" d="m251.173 67.3835c.176.2123.147.5275-.065.7041-2.913 2.4222-8.143 6.1978-12.585 9.4042-2.075 1.4977-3.978 2.8712-5.392 3.9247-.222.165-.535.1192-.7-.1023s-.119-.5347.102-.6997c1.442-1.0741 3.366-2.4626 5.455-3.9701 4.426-3.1955 9.593-6.9251 12.481-9.3257.212-.1766.527-.1476.704.0648z" fill-rule="evenodd"/><path clip-rule="evenodd" d="m231.494 78.2529c.158-.2264.47-.2818.697-.1238 2.452 1.7118 4.684 3.3314 6.828 4.8877 4.866 3.5314 9.282 6.7364 14.808 9.9504.239.1389.32.4449.181.6836s-.445.3197-.684.1808c-5.571-3.2403-10.048-6.4897-14.935-10.0359-2.137-1.5508-4.352-3.1583-6.771-4.8466-.226-.158-.282-.4697-.124-.6962z" fill-rule="evenodd"/><path clip-rule="evenodd" d="m284.426 66.5004c.151-.2313.461-.2966.692-.1457 7.125 4.6466 14.876 9.9172 21.392 14.8814.219.1674.262.4811.094.7007-.167.2197-.481.2621-.701.0947-6.487-4.9427-14.215-10.1981-21.331-14.8392-.232-.1508-.297-.4606-.146-.6919z" fill-rule="evenodd"/><path clip-rule="evenodd" d="m284.152 93.6967c.178.2114.493.2387.705.061 1.982-1.6662 5.742-4.1171 9.818-6.7541.204-.1319.408-.2642.613-.3968 3.878-2.5076 7.952-5.1424 10.909-7.36.221-.1656.266-.479.1-.7-.166-.2209-.479-.2656-.7-.1-2.928 2.1959-6.975 4.8134-10.865 7.3292-.201.1296-.401.259-.6.388-4.051 2.6203-7.876 5.1116-9.919 6.8282-.211.1777-.238.4931-.061.7045z" fill-rule="evenodd"/><path clip-rule="evenodd" d="m284.129 109.167c.161.224.474.275.698.114 2.383-1.712 4.551-3.332 6.634-4.888 4.727-3.532 9.016-6.7358 14.383-9.9494.237-.1418.314-.4489.172-.6858s-.449-.314-.686-.1722c-5.412 3.2408-9.763 6.4914-14.51 10.0374-2.076 1.551-4.227 3.158-6.577 4.846-.224.161-.275.473-.114.698z" fill-rule="evenodd"/><path clip-rule="evenodd" d="m232.115 93.1099c.16-.2255.472-.2791.697-.1197 2.522 1.7828 4.817 3.4697 7.023 5.0907 5.005 3.6791 9.548 7.0181 15.233 10.3661.238.14.317.447.177.685s-.447.317-.685.177c-5.729-3.375-10.334-6.759-15.36-10.4531-2.198-1.6155-4.477-3.2901-6.965-5.0491-.226-.1594-.279-.4714-.12-.6969z" fill-rule="evenodd"/><path clip-rule="evenodd" d="m248.124 91.5391c0-.2762.224-.5.5-.5h42.723c.277 0 .5.2238.5.5 0 .2761-.223.5-.5.5h-42.723c-.276 0-.5-.2239-.5-.5z" fill-rule="evenodd"/><path clip-rule="evenodd" d="m290.108 68.5156c-16.407 0-28.439.0635-43.313.928-.276.016-.512-.1945-.529-.4702-.016-.2757.195-.5121.471-.5282 14.906-.8662 26.962-.9296 43.371-.9296.276 0 .5.2239.5.5 0 .2762-.224.5-.5.5z" fill-rule="evenodd"/><path clip-rule="evenodd" d="m288.251 107.266h-40.247c-.276 0-.5-.224-.5-.5 0-.277.224-.5.5-.5h40.247c.276 0 .5.223.5.5 0 .276-.224.5-.5.5z" fill-rule="evenodd"/><path clip-rule="evenodd" d="m286.393 69.0391h-40.247c-.276 0-.5-.2239-.5-.5 0-.2762.224-.5.5-.5h40.247c.276 0 .5.2238.5.5 0 .2761-.224.5-.5.5z" fill-rule="evenodd"/><path clip-rule="evenodd" d="m234.381 76.7969c.276 0 .5.2238.5.5v17.9562c0 .2762-.224.5-.5.5s-.5-.2238-.5-.5v-17.9562c0-.2762.224-.5.5-.5z" fill-rule="evenodd"/><path clip-rule="evenodd" d="m304.349 78.0391c.276 0 .5.2238.5.5v18.1723c0 .2761-.224.5-.5.5-.277 0-.5-.2239-.5-.5v-18.1723c0-.2762.223-.5.5-.5z" fill-rule="evenodd"/><path clip-rule="evenodd" d="m250.479 89.4922c.276 0 .5.2238.5.5v16.4458c0 .276-.224.5-.5.5-.277 0-.5-.224-.5-.5v-16.4458c0-.2762.223-.5.5-.5z" fill-rule="evenodd"/><path clip-rule="evenodd" d="m287.011 86.9922c.276 0 .5.2238.5.5 0 .7733.015 2.2685.034 4.121.056 5.4684.143 14.0508-.036 16.3728-.021.275-.261.481-.537.46-.275-.021-.481-.261-.46-.537.176-2.273.09-10.7208.034-16.1915-.019-1.8889-.035-3.4229-.035-4.2253 0-.2762.224-.5.5-.5z" fill-rule="evenodd"/><path clip-rule="evenodd" d="m236.384 80.8407c.258.0762.41.3435.342.6043-.153.5938-.55 1.7207-.935 2.8103l-.008.0227c-.001.0052-.003.0104-.005.0157l-.919 2.7573c-.085.2556-.358.3977-.616.3214-.259-.0762-.41-.3434-.343-.6043.151-.5838.544-1.6981.926-2.7816l.006-.0173.936-2.8071c.085-.2555.357-.3977.616-.3214z" fill-rule="evenodd"/><path clip-rule="evenodd" d="m238.231 82.9998c.268.0689.429.3415.36.6089l-3.032 11.7645c-.069.2674-.342.4283-.609.3594s-.428-.3416-.359-.609l3.031-11.7644c.069-.2674.342-.4283.609-.3594zm2.454 1.2383c.267.0689.428.3416.359.609l-3.191 12.3836c-.069.2674-.341.4283-.609.3594-.267-.0689-.428-.3415-.359-.6089l3.191-12.3837c.069-.2674.342-.4283.609-.3594zm2.61 2.1672c.268.0689.429.3415.36.6089l-3.112 12.074c-.069.2674-.341.4284-.609.3595-.267-.069-.428-.3416-.359-.609l3.111-12.074c.069-.2674.342-.4283.609-.3594z" fill-rule="evenodd"/><path clip-rule="evenodd" d="m246.032 88.2654c.267.0689.428.3415.359.609l-2.951 11.4546c-.069.268-.342.429-.609.36-.268-.069-.429-.342-.36-.609l2.952-11.4552c.069-.2674.342-.4283.609-.3594zm2.409 1.4134c.267.0689.428.3416.359.609l-3.226 12.5182c-.069.267-.341.428-.609.359-.267-.069-.428-.341-.359-.609l3.226-12.5178c.069-.2674.341-.4283.609-.3594zm2.735 1.6825c.267.0689.428.3416.359.609l-3.271 12.6927c-.069.268-.341.429-.609.36-.267-.069-.428-.342-.359-.609l3.271-12.6933c.069-.2674.342-.4283.609-.3594z" fill-rule="evenodd"/><path clip-rule="evenodd" d="m260.364 91.3653c.267.0689.428.3416.359.609l-3.765 14.6087c-.057.221-.256.375-.484.375h-3.169c-.155 0-.3-.071-.395-.193-.095-.123-.128-.282-.089-.431l3.765-14.6093c.069-.2674.341-.4283.609-.3594.267.0689.428.3416.359.609l-3.604 13.9837h2.137l3.668-14.2333c.069-.2674.341-.4283.609-.3594zm-5.942 0c.267.0689.428.3416.359.609l-3.765 14.6087c-.068.268-.341.428-.609.36-.267-.069-.428-.342-.359-.609l3.765-14.6093c.069-.2674.341-.4283.609-.3594z" fill-rule="evenodd"/><path clip-rule="evenodd" d="m269.704 91.0513c.267.0689.428.3415.359.6089-.642 2.4904-1.32 5.1839-1.99 7.8435l-.03.1173c-.659 2.619-1.309 5.202-1.906 7.519-.069.267-.342.428-.609.359-.268-.069-.429-.341-.36-.609.597-2.314 1.246-4.895 1.906-7.5148l.029-.1157c.67-2.6591 1.349-5.3553 1.992-7.8488.069-.2674.341-.4283.609-.3594zm-3.169 0c.267.0689.428.3415.359.6089-.634 2.4608-1.29 5.1367-1.941 7.7956l-.017.0692c-.645 2.634-1.286 5.25-1.895 7.615-.069.267-.342.428-.609.359-.268-.069-.429-.341-.36-.609.608-2.359 1.248-4.97 1.894-7.6063l.016-.0659c.651-2.6576 1.308-5.3395 1.944-7.8071.069-.2674.341-.4283.609-.3594zm-2.768.0014c.267.072.425.3464.353.613l-4.177 15.4793c-.072.267-.346.425-.613.353s-.424-.347-.352-.613l4.176-15.4798c.072-.2666.347-.4244.613-.3525z" fill-rule="evenodd"/><path clip-rule="evenodd" d="m278.965 91.3653c.268.0689.428.3416.36.609l-3.75 14.5507c-.069.267-.342.428-.609.359-.268-.068-.428-.341-.36-.609l3.75-14.5503c.069-.2674.342-.4283.609-.3594zm-3.169 0c.268.0689.428.3416.36.609l-3.75 14.5507c-.069.267-.342.428-.609.359-.268-.068-.428-.341-.36-.609l3.75-14.5503c.069-.2674.342-.4283.609-.3594zm-2.773 0c.268.0689.429.3416.36.609l-3.75 14.5507c-.069.267-.342.428-.609.359-.267-.068-.428-.341-.359-.609l3.749-14.5503c.069-.2674.342-.4283.609-.3594z" fill-rule="evenodd"/><path clip-rule="evenodd" d="m288.666 90.1231c.268.0689.429.3416.36.609l-4.069 15.7889c-.069.268-.342.429-.609.36-.268-.069-.428-.342-.36-.609l4.069-15.7895c.069-.2674.342-.4283.609-.3594zm-3.488 1.2384c.268.0689.429.3416.36.609l-3.75 14.5505c-.069.268-.342.429-.609.36s-.428-.342-.359-.609l3.749-14.5511c.069-.2674.342-.4283.609-.3594zm-2.773 0c.268.0689.429.3415.36.609l-3.75 14.5505c-.069.268-.342.429-.609.36s-.428-.342-.359-.609l3.749-14.5511c.069-.2674.342-.4283.609-.3594z" fill-rule="evenodd"/><path clip-rule="evenodd" d="m299.831 82.4513c.268.0689.429.3415.36.6089l-4.69 18.1998c-.069.267-.342.428-.609.359-.268-.069-.429-.342-.36-.609l4.69-18.1993c.069-.2674.342-.4284.609-.3594zm-3.949 3.0295c.267.0689.428.3415.359.6089l-4.707 18.2663c-.069.267-.342.428-.609.359s-.428-.342-.359-.609l4.707-18.2658c.069-.2674.341-.4284.609-.3594zm-3.332 2.1671c.268.0689.429.3415.36.6089l-4.628 17.9562c-.069.267-.341.428-.609.359-.267-.068-.428-.341-.359-.608l4.627-17.9567c.069-.2674.342-.4283.609-.3594z" fill-rule="evenodd"/><path clip-rule="evenodd" d="m302.982 80.8357c.268.0689.429.3416.36.609l-4.388 17.0274c-.069.2674-.342.4283-.609.3594-.268-.0689-.429-.3415-.36-.6089l4.388-17.0275c.069-.2674.342-.4283.609-.3594zm1.257 5.8822c.268.0689.429.3416.36.609l-2.394 9.2877c-.069.2674-.341.4283-.609.3594-.267-.0689-.428-.3416-.359-.609l2.393-9.2877c.069-.2674.342-.4283.609-.3594z" fill-rule="evenodd"/><path d="m270.91 133.831c.536 20.704-39.311 38.53-89 39.816s-90.4042-14.456-90.94-35.16c-.5357-20.703 39.311-38.5293 89-39.8151s90.404 14.4561 90.94 35.1591z" fill="url(#c)" fill-opacity=".2"/><path d="m133.999 120.337 20.375-16.196h49.307l23.635 16.196v18.441l-23.635 16.3h-46.455l-24.042-16.3z" fill="#fff"/><path clip-rule="evenodd" d="m156.386 103.423c.176.212.147.527-.065.704-3.83 3.185-10.705 8.147-16.549 12.366-2.733 1.972-5.241 3.783-7.107 5.173-.222.165-.535.119-.7-.103-.165-.221-.119-.534.103-.699 1.893-1.411 4.422-3.236 7.169-5.219 5.829-4.208 12.64-9.124 16.445-12.287.212-.177.527-.148.704.065z" fill-rule="evenodd"/><path clip-rule="evenodd" d="m130.735 117.714c.158-.227.469-.282.696-.124 3.223 2.249 6.157 4.379 8.979 6.427 6.408 4.651 12.23 8.876 19.511 13.111.239.139.32.445.181.683-.139.239-.445.32-.684.181-7.326-4.261-13.21-8.531-19.638-13.196-2.814-2.042-5.732-4.16-8.922-6.386-.226-.158-.281-.47-.123-.696z" fill-rule="evenodd"/><path clip-rule="evenodd" d="m200.409 102.243c.151-.232.461-.297.692-.146 9.377 6.115 19.576 13.05 28.148 19.581.219.167.262.481.094.701-.167.219-.481.262-.7.094-8.544-6.509-18.72-13.429-28.088-19.539-.231-.15-.296-.46-.146-.691z" fill-rule="evenodd"/><path clip-rule="evenodd" d="m200.037 137.853c.178.211.493.239.705.061 2.618-2.201 7.577-5.434 12.939-8.902.267-.173.536-.347.805-.521 5.106-3.302 10.464-6.767 14.351-9.683.221-.165.266-.479.1-.7-.165-.22-.479-.265-.7-.1-3.858 2.894-9.19 6.342-14.308 9.652-.264.172-.528.342-.792.512-5.335 3.452-10.36 6.725-13.039 8.976-.211.178-.238.494-.061.705z" fill-rule="evenodd"/><path clip-rule="evenodd" d="m200.014 158.229c.161.224.473.276.698.115 3.131-2.25 5.982-4.38 8.723-6.428 6.225-4.65 11.88-8.875 18.952-13.11.237-.141.314-.448.172-.685s-.449-.314-.686-.173c-7.117 4.262-12.834 8.533-19.079 13.198-2.734 2.042-5.568 4.16-8.666 6.385-.224.162-.275.474-.114.698z" fill-rule="evenodd"/><path clip-rule="evenodd" d="m131.551 137.274c.159-.226.471-.279.697-.12 3.314 2.343 6.333 4.562 9.234 6.694 6.592 4.845 12.582 9.247 20.071 13.659.238.14.317.446.177.684s-.447.318-.685.177c-7.534-4.438-13.585-8.885-20.198-13.745-2.894-2.127-5.896-4.333-9.177-6.652-.225-.16-.279-.472-.119-.697z" fill-rule="evenodd"/><path clip-rule="evenodd" d="m152.65 135.117c0-.276.224-.5.5-.5h56.235c.277 0 .5.224.5.5s-.223.5-.5.5h-56.235c-.276 0-.5-.224-.5-.5z" fill-rule="evenodd"/><path clip-rule="evenodd" d="m207.755 104.648c-21.597 0-37.437.084-57.021 1.222-.276.016-.512-.194-.528-.47s.194-.512.47-.528c19.615-1.14 35.481-1.224 57.079-1.224.276 0 .5.224.5.5 0 .277-.224.5-.5.5z" fill-rule="evenodd"/><path clip-rule="evenodd" d="m205.311 155.656h-52.975c-.276 0-.5-.224-.5-.5s.224-.5.5-.5h52.975c.276 0 .5.224.5.5s-.224.5-.5.5z" fill-rule="evenodd"/><path clip-rule="evenodd" d="m202.866 105.336h-52.975c-.277 0-.5-.224-.5-.5s.223-.5.5-.5h52.975c.276 0 .5.224.5.5s-.224.5-.5.5z" fill-rule="evenodd"/><path clip-rule="evenodd" d="m134.404 115.867c.276 0 .5.224.5.5v23.635c0 .276-.224.5-.5.5s-.5-.224-.5-.5v-23.635c0-.276.224-.5.5-.5z" fill-rule="evenodd"/><path clip-rule="evenodd" d="m226.5 117.5c.276 0 .5.224.5.5v23.919c0 .277-.224.5-.5.5s-.5-.223-.5-.5v-23.919c0-.276.224-.5.5-.5z" fill-rule="evenodd"/><path clip-rule="evenodd" d="m155.593 132.578c.276 0 .5.224.5.5v21.646c0 .277-.224.5-.5.5s-.5-.223-.5-.5v-21.646c0-.276.224-.5.5-.5z" fill-rule="evenodd"/><path clip-rule="evenodd" d="m203.68 129.289c.276 0 .5.224.5.5 0 1.023.02 2.997.045 5.441.073 7.198.188 18.473-.047 21.522-.021.276-.261.482-.537.46-.275-.021-.481-.261-.46-.537.231-3 .118-14.14.045-21.341-.025-2.48-.046-4.493-.046-5.545 0-.276.224-.5.5-.5z" fill-rule="evenodd"/><path clip-rule="evenodd" d="m136.993 121.185c.258.077.41.344.343.605-.2.775-.722 2.254-1.23 3.695l-.007.02c-.003.008-.005.015-.008.022l-1.21 3.631c-.086.256-.358.398-.616.322-.259-.077-.41-.344-.343-.605.196-.761.712-2.224 1.218-3.657l.005-.015 1.232-3.696c.085-.256.358-.398.616-.322z" fill-rule="evenodd"/><path clip-rule="evenodd" d="m139.429 124.031c.268.069.429.342.36.609l-3.991 15.485c-.069.267-.341.428-.609.359-.267-.069-.428-.341-.359-.609l3.991-15.485c.068-.267.341-.428.608-.359zm3.23 1.63c.268.069.429.342.36.609l-4.201 16.3c-.069.267-.341.428-.609.359-.267-.069-.428-.341-.359-.609l4.2-16.3c.069-.267.342-.428.609-.359zm3.436 2.853c.268.068.429.341.36.608l-4.096 15.893c-.069.267-.341.428-.609.359-.267-.069-.428-.341-.359-.609l4.095-15.892c.069-.267.342-.428.609-.359z" fill-rule="evenodd"/><path clip-rule="evenodd" d="m149.697 130.961c.267.069.428.341.359.609l-3.885 15.077c-.069.268-.342.428-.609.36-.267-.069-.428-.342-.359-.609l3.885-15.078c.069-.267.342-.428.609-.359zm3.17 1.86c.268.069.429.342.36.609l-4.246 16.477c-.069.268-.342.428-.609.36-.268-.069-.429-.342-.36-.609l4.246-16.477c.069-.268.342-.429.609-.36zm3.601 2.215c.267.069.428.341.359.609l-4.305 16.707c-.069.268-.342.428-.609.36-.268-.069-.429-.342-.36-.609l4.306-16.708c.069-.267.341-.428.609-.359z" fill-rule="evenodd"/><path clip-rule="evenodd" d="m168.562 135.038c.268.069.429.342.36.609l-4.956 19.229c-.057.221-.256.375-.484.375h-4.171c-.155 0-.301-.071-.395-.193-.095-.123-.128-.282-.089-.431l4.955-19.229c.069-.268.342-.429.609-.36s.428.342.359.609l-4.794 18.604h3.139l4.858-18.853c.069-.268.342-.429.609-.36zm-7.821 0c.268.069.429.342.36.609l-4.956 19.229c-.069.268-.341.428-.609.36-.267-.069-.428-.342-.359-.609l4.955-19.229c.069-.268.342-.429.609-.36z" fill-rule="evenodd"/><path clip-rule="evenodd" d="m180.854 134.629c.268.069.429.342.36.609-.845 3.279-1.738 6.824-2.62 10.325l-.039.154c-.868 3.447-1.724 6.846-2.509 9.896-.069.267-.342.428-.609.359-.268-.068-.429-.341-.36-.608.785-3.047 1.641-6.444 2.509-9.892l.039-.153c.881-3.5 1.775-7.049 2.62-10.33.069-.268.342-.429.609-.36zm-4.171 0c.268.069.428.342.36.609-.835 3.24-1.699 6.763-2.556 10.263l-.022.09c-.849 3.468-1.693 6.91-2.494 10.022-.069.267-.342.428-.609.359-.268-.068-.429-.341-.36-.608.801-3.106 1.642-6.544 2.492-10.014l.022-.087c.857-3.499 1.721-7.028 2.558-10.274.069-.268.342-.429.609-.36zm-3.644.002c.267.071.424.346.352.613l-5.497 20.375c-.072.266-.347.424-.613.352-.267-.072-.425-.346-.353-.613l5.498-20.375c.072-.267.346-.424.613-.352z" fill-rule="evenodd"/><path clip-rule="evenodd" d="m193.045 135.038c.267.069.428.342.359.609l-4.936 19.153c-.069.267-.341.428-.609.359-.267-.069-.428-.342-.359-.609l4.936-19.152c.069-.268.341-.429.609-.36zm-4.172 0c.268.069.429.342.36.609l-4.936 19.153c-.069.267-.341.428-.609.359-.267-.069-.428-.342-.359-.609l4.936-19.152c.068-.268.341-.429.608-.36zm-3.649 0c.267.069.428.342.359.609l-4.936 19.153c-.068.267-.341.428-.608.359-.268-.069-.429-.342-.36-.609l4.936-19.152c.069-.268.341-.429.609-.36z" fill-rule="evenodd"/><path clip-rule="evenodd" d="m205.815 133.405c.268.069.428.342.36.609l-5.356 20.783c-.069.267-.342.428-.609.359-.268-.069-.428-.341-.36-.609l5.356-20.782c.069-.268.342-.429.609-.36zm-4.591 1.63c.267.069.428.342.359.609l-4.935 19.153c-.069.267-.342.428-.609.359-.268-.069-.429-.341-.36-.609l4.936-19.152c.069-.268.342-.429.609-.36zm-3.65 0c.268.069.428.342.36.609l-4.936 19.153c-.069.267-.342.428-.609.359s-.428-.341-.359-.609l4.935-19.152c.069-.268.342-.429.609-.36z" fill-rule="evenodd"/><path clip-rule="evenodd" d="m220.511 123.304c.268.069.429.341.36.609l-6.173 23.955c-.069.267-.342.428-.609.359-.268-.069-.429-.341-.36-.609l6.173-23.955c.069-.267.342-.428.609-.359zm-5.198 3.987c.267.069.428.342.359.609l-6.196 24.043c-.069.267-.341.428-.609.359-.267-.069-.428-.341-.359-.609l6.196-24.042c.069-.268.341-.429.609-.36zm-4.385 2.853c.267.069.428.341.359.609l-6.091 23.635c-.069.267-.341.428-.609.359-.267-.069-.428-.341-.359-.609l6.091-23.635c.069-.267.341-.428.609-.359z" fill-rule="evenodd"/><path clip-rule="evenodd" d="m224.658 121.179c.267.069.428.342.359.609l-5.775 22.413c-.069.267-.342.428-.609.359-.268-.069-.429-.341-.36-.609l5.776-22.412c.069-.268.342-.428.609-.36zm1.655 7.743c.267.069.428.342.359.609l-3.15 12.225c-.069.267-.342.428-.609.359-.268-.069-.429-.341-.36-.609l3.151-12.225c.068-.267.341-.428.609-.359z" fill-rule="evenodd"/><path d="m180.91 92.8313c.536 20.7037-39.311 38.5297-89 39.8157s-90.40423-14.456-90.939964-35.1595c-.535736-20.7038 39.310864-38.5298 88.999864-39.8156 49.6891-1.2858 90.4041 14.4556 90.9401 35.1594z" fill="url(#d)" fill-opacity=".2"/><path d="m53.9141 80.3208 15.4795-12.3052h37.4604l17.956 12.3052v14.01l-17.956 12.3832h-35.2933l-18.2658-12.3832z" fill="#fff"/><g clip-rule="evenodd" fill-rule="evenodd"><path d="m71.0146 67.3835c.1765.2123.1475.5275-.0648.7041-2.9132 2.4222-8.1435 6.1978-12.5853 9.4042-2.0749 1.4977-3.9777 2.8712-5.392 3.9247-.2214.165-.5347.1192-.6996-.1023-.165-.2215-.1192-.5347.1023-.6997 1.442-1.0741 3.3657-2.4626 5.4541-3.9701 4.427-3.1955 9.594-6.9251 12.4811-9.3257.2124-.1766.5276-.1476.7042.0648z"/><path d="m51.3361 78.2529c.1581-.2264.4698-.2818.6962-.1238 2.4526 1.7118 4.6843 3.3314 6.8286 4.8877 4.866 3.5314 9.282 6.7364 14.8079 9.9504.2387.1389.3197.4449.1809.6836-.1389.2387-.4449.3197-.6836.1808-5.5711-3.2403-10.0487-6.4897-14.9352-10.0359-2.1369-1.5508-4.352-3.1583-6.7709-4.8466-.2265-.158-.2819-.4697-.1239-.6962z"/><path d="m104.268 66.5004c.151-.2313.46-.2966.692-.1457 7.125 4.6466 14.876 9.9172 21.391 14.8814.22.1674.262.4811.095.7007-.167.2197-.481.2621-.701.0947-6.487-4.9427-14.215-10.1981-21.332-14.8392-.231-.1508-.296-.4606-.145-.6919z"/><path d="m103.994 93.6967c.178.2114.493.2387.705.061 1.982-1.6662 5.742-4.1171 9.818-6.7541.204-.1319.408-.2642.613-.3968 3.878-2.5076 7.952-5.1424 10.909-7.36.221-.1656.265-.479.1-.7-.166-.2209-.479-.2656-.7-.1-2.928 2.1959-6.975 4.8134-10.866 7.3292-.2.1296-.4.259-.599.388-4.051 2.6203-7.876 5.1116-9.919 6.8282-.211.1777-.238.4931-.061.7045z"/><path d="m103.971 109.167c.161.224.473.275.698.114 2.383-1.712 4.551-3.332 6.634-4.888 4.727-3.532 9.016-6.7358 14.383-9.9494.237-.1418.314-.4489.172-.6858s-.449-.314-.686-.1722c-5.412 3.2408-9.763 6.4914-14.51 10.0374-2.076 1.551-4.227 3.158-6.577 4.846-.224.161-.275.473-.114.698z"/><path d="m51.957 93.1099c.1594-.2255.4714-.2791.6969-.1197 2.5221 1.7828 4.8174 3.4697 7.0229 5.0907 5.0053 3.6791 9.5484 7.0181 15.2327 10.3661.238.14.3172.447.1771.685-.1402.238-.4467.317-.6846.177-5.7296-3.375-10.3343-6.759-15.3602-10.4531-2.198-1.6155-4.4766-3.2901-6.9651-5.0491-.2255-.1594-.2791-.4714-.1197-.6969z"/><path d="m67.9658 91.5391c0-.2762.2239-.5.5-.5h42.7232c.276 0 .5.2238.5.5 0 .2761-.224.5-.5.5h-42.7232c-.2761 0-.5-.2239-.5-.5z"/><path d="m109.95 68.5156c-16.4074 0-28.4388.0635-43.3136.928-.2756.016-.5121-.1945-.5281-.4702s.1945-.5121.4701-.5282c14.9061-.8662 26.9625-.9296 43.3716-.9296.276 0 .5.2239.5.5 0 .2762-.224.5-.5.5z"/><path d="m108.092 107.266h-40.2463c-.2761 0-.5-.224-.5-.5 0-.277.2239-.5.5-.5h40.2463c.277 0 .5.223.5.5 0 .276-.223.5-.5.5z"/><path d="m106.235 69.0391h-40.2467c-.2762 0-.5-.2239-.5-.5 0-.2762.2238-.5.5-.5h40.2467c.276 0 .5.2238.5.5 0 .2761-.224.5-.5.5z"/><path d="m54.2227 76.7969c.2761 0 .5.2238.5.5v17.9562c0 .2762-.2239.5-.5.5-.2762 0-.5-.2238-.5-.5v-17.9562c0-.2762.2238-.5.5-.5z"/><path d="m124.19 78.0391c.277 0 .5.2238.5.5v18.1723c0 .2761-.223.5-.5.5-.276 0-.5-.2239-.5-.5v-18.1723c0-.2762.224-.5.5-.5z"/><path d="m70.3203 89.4922c.2762 0 .5.2238.5.5v16.4458c0 .276-.2238.5-.5.5-.2761 0-.5-.224-.5-.5v-16.4458c0-.2762.2239-.5.5-.5z"/><path d="m106.853 86.9922c.276 0 .5.2238.5.5 0 .7733.015 2.2685.034 4.121.056 5.4684.143 14.0508-.036 16.3728-.021.275-.262.481-.537.46s-.481-.261-.46-.537c.175-2.273.089-10.7208.034-16.1915-.02-1.8889-.035-3.4229-.035-4.2253 0-.2762.224-.5.5-.5z"/><path d="m56.2245 80.8485c.2584.0763.4099.3435.3427.6043-.1531.5938-.5506 1.7207-.9349 2.8104l-.008.0226c-.0018.0052-.0037.0105-.0055.0157l-.9193 2.7573c-.0852.2556-.3575.3977-.6159.3214-.2583-.0762-.4098-.3434-.3426-.6043.1504-.5837.5435-1.6981.9257-2.7816l.0061-.0173.9358-2.8071c.0852-.2555.3576-.3976.6159-.3214z"/><path d="m58.0721 83.0076c.2674.0689.4283.3415.3594.6089l-3.0317 11.7645c-.069.2674-.3416.4283-.609.3594s-.4283-.3416-.3594-.609l3.0317-11.7644c.0689-.2674.3416-.4283.609-.3594zm2.4537 1.2383c.2674.069.4283.3416.3594.609l-3.1913 12.3836c-.0689.2674-.3415.4283-.609.3594-.2674-.0689-.4283-.3415-.3594-.6089l3.1913-12.3836c.0689-.2675.3416-.4284.609-.3595zm2.6105 2.1672c.2674.0689.4283.3415.3594.6089l-3.1115 12.0741c-.0689.2674-.3416.4283-.609.3594s-.4283-.3416-.3594-.609l3.1115-12.074c.0689-.2674.3416-.4283.609-.3594z"/><path d="m65.8729 88.2732c.2674.0689.4283.3416.3594.609l-2.952 11.4548c-.0689.267-.3415.428-.6089.359-.2674-.068-.4284-.341-.3594-.609l2.9519-11.4544c.0689-.2674.3415-.4283.609-.3594zm2.4085 1.4134c.2675.069.4284.3416.3595.609l-3.226 12.5184c-.0689.267-.3415.428-.609.359-.2674-.069-.4283-.341-.3594-.609l3.226-12.5179c.0689-.2675.3415-.4284.6089-.3595zm2.7354 1.6825c.2674.0689.4283.3416.3594.609l-3.271 12.6929c-.0689.268-.3416.429-.609.36s-.4283-.342-.3594-.609l3.2711-12.6935c.0689-.2674.3415-.4283.6089-.3594z"/><path d="m80.2054 91.3731c.2674.0689.4283.3416.3594.609l-3.7648 14.6089c-.0569.221-.2561.375-.4841.375h-3.169c-.1546 0-.3005-.071-.3952-.194-.0947-.122-.1276-.281-.089-.431l3.7648-14.6085c.0689-.2674.3415-.4283.6089-.3594s.4283.3416.3594.609l-3.6037 13.9839h2.1363l3.668-14.2335c.0689-.2674.3416-.4283.609-.3594zm-5.9418 0c.2674.0689.4283.3416.3594.609l-3.7648 14.6089c-.0689.267-.3415.428-.6089.359s-.4283-.341-.3594-.609l3.7647-14.6085c.0689-.2674.3416-.4283.609-.3594z"/><path d="m89.5444 91.0591c.2674.0689.4283.3416.3594.609-.6418 2.4903-1.3202 5.1838-1.9899 7.8434l-.0296.1173c-.6594 2.6192-1.3098 5.2012-1.907 7.5192-.0689.267-.3415.428-.6089.359s-.4283-.342-.3594-.609c.5964-2.314 1.2462-4.895 1.906-7.515l.0291-.1157c.6696-2.6591 1.3488-5.3553 1.9913-7.8488.069-.2674.3416-.4283.609-.3594zm-3.169 0c.2675.0689.4284.3416.3595.609-.6342 2.4607-1.2899 5.1366-1.9412 7.7955l-.0169.0692c-.6452 2.6342-1.2859 5.2502-1.8954 7.6152-.0689.267-.3415.428-.6089.359s-.4283-.342-.3594-.609c.6079-2.359 1.2474-4.97 1.8932-7.6065l.0162-.0658c.6509-2.6577 1.3081-5.3395 1.944-7.8072.0689-.2674.3415-.4283.6089-.3594zm-2.7673.0014c.2666.072.4244.3464.3525.613l-4.1768 15.4795c-.0719.267-.3464.424-.613.353-.2666-.072-.4244-.347-.3524-.613l4.1767-15.48c.0719-.2666.3464-.4244.613-.3525z"/><path d="m98.806 91.3731c.2674.0689.4283.3416.3594.609l-3.7498 14.5509c-.0689.267-.3415.428-.609.359-.2674-.069-.4283-.341-.3594-.609l3.7498-14.5505c.0689-.2674.3415-.4283.609-.3594zm-3.169 0c.2674.0689.4283.3416.3594.609l-3.7498 14.5509c-.0689.267-.3415.428-.6089.359s-.4283-.341-.3594-.609l3.7497-14.5505c.069-.2674.3416-.4283.609-.3594zm-2.7728 0c.2674.0689.4283.3416.3594.609l-3.7498 14.5509c-.0689.267-.3415.428-.6089.359-.2675-.069-.4284-.341-.3595-.609l3.7498-14.5505c.0689-.2674.3416-.4283.609-.3594z"/><path d="m108.507 90.1309c.268.069.428.3416.36.609l-4.069 15.7891c-.069.267-.342.428-.609.359-.268-.068-.429-.341-.36-.609l4.069-15.7886c.069-.2675.342-.4284.609-.3595zm-3.488 1.2384c.267.0689.428.3416.359.609l-3.749 14.5507c-.069.267-.342.428-.609.359-.268-.068-.429-.341-.36-.609l3.75-14.5503c.069-.2674.342-.4283.609-.3594zm-2.773 0c.268.0689.429.3416.36.609l-3.7502 14.5507c-.0689.267-.3415.428-.6089.359-.2674-.068-.4283-.341-.3594-.609l3.7495-14.5503c.069-.2674.342-.4283.609-.3594z"/><path d="m119.672 82.4591c.268.0689.428.3415.36.6089l-4.69 18.199c-.069.268-.342.429-.609.36-.268-.069-.429-.342-.36-.609l4.69-18.1995c.069-.2674.342-.4283.609-.3594zm-3.949 3.0295c.267.0689.428.3415.359.6089l-4.707 18.2655c-.069.268-.342.429-.609.36-.268-.069-.429-.342-.36-.609l4.708-18.266c.068-.2674.341-.4283.609-.3594zm-3.332 2.1671c.268.0689.429.3416.36.609l-4.628 17.9563c-.069.267-.341.428-.609.359-.267-.069-.428-.341-.359-.609l4.627-17.9559c.069-.2674.342-.4283.609-.3594z"/><path d="m122.824 80.8435c.267.0689.428.3416.359.609l-4.388 17.0274c-.068.2674-.341.4284-.609.3595-.267-.069-.428-.3416-.359-.609l4.388-17.0275c.069-.2674.342-.4283.609-.3594zm1.257 5.8822c.267.069.428.3416.359.609l-2.393 9.2877c-.069.2674-.342.4283-.609.3594s-.428-.3415-.359-.609l2.393-9.2877c.069-.2674.342-.4283.609-.3594z"/><path d="m85.1865 77.914c-5.3703.0495-10.6844.0985-15.3219.0985-6.2731 0-9.9901.6182-12.2682 1.5964-1.1298.4852-1.8969 1.0553-2.4482 1.6768-.5523.6226-.9078 1.3189-1.1858 2.0855-.2082.574-.3664 1.1655-.5347 1.7953-.0606.2267-.1226.4585-.1887.6961-.2453.8823-.5402 1.8131-1.0225 2.7439-.9764 1.8846-2.6839 3.6991-6.1454 5.2375-.4787.2128-1.1799.3687-2.0685.4905-.8993.1232-2.031.2163-3.3951.286-2.7287.1396-6.4205.1876-11.1073.1895-.2761.0001-.5001-.2237-.5002-.4998-.0001-.2762.2237-.5001.4998-.5002 4.6853-.0019 8.3553-.05 11.0566-.1881 1.3508-.0692 2.451-.1604 3.3105-.2782.8702-.1192 1.4546-.2608 1.7981-.4135 3.2857-1.4603 4.8066-3.1295 5.6636-4.7837.4345-.8386.7076-1.6909.947-2.5518.0597-.2147.1178-.4322.1763-.6509.1717-.6427.3461-1.2952.5704-1.9135.3057-.8429.7162-1.6624 1.3778-2.4081.6624-.7469 1.5568-1.3976 2.8017-1.9321 2.4713-1.0612 6.3566-1.6776 12.6628-1.6776 4.6081 0 9.9025-.0488 15.262-.0982 10.9262-.1006 22.1224-.2038 28.3254.0988 2.566.1251 4.217 1.798 5.319 4.133 1.096 2.3213 1.704 5.3958 2.166 8.5534.184 1.2597.344 2.5279.502 3.7758.243 1.9184.48 3.7887.787 5.5055.252 1.4072.546 2.6802.92 3.7532.376 1.078.821 1.921 1.354 2.496 2.031 2.187 4.762 4.555 7.754 6.373 2.999 1.823 6.216 3.066 9.231 3.066 13.287 0 29.618-.185 43.779-.6 14.185-.416 26.133-1.062 30.697-1.975.032-.006.065-.01.098-.01 4.249 0 9.204-2.559 13.116-6.596 3.904-4.028 6.688-9.4472 6.688-15.0543 0-1.863.005-3.5541.176-5.0481.171-1.4979.514-2.8371 1.218-3.9894 1.424-2.3339 4.208-3.7235 9.381-4.3797.02-.0027.041-.004.062-.004 5.338 0 11.024.029 16.531.0571 10.506.0537 20.361.104 25.91-.0569 4.041-.1171 6.816 1.4762 9.236 3.8345 1.201 1.1701 2.32 2.5331 3.462 3.9628.174.2175.348.4366.524.657.982 1.2347 1.997 2.5097 3.123 3.7735 2.647 2.9698 5.891 5.8517 10.647 7.8389 4.756 1.9868 11.061 3.0946 19.851 2.4557l-11.144-1.592c-.274-.0391-.464-.2924-.425-.5657.039-.2734.293-.4633.566-.4243l18.09 2.5842c.23.0329.407.2201.427.4516.02.2321-.122.4461-.343.5191l-18.089 5.906c-.263.086-.545-.057-.631-.32-.086-.262.058-.544.32-.63l15.103-4.932h-3.799c-8.91.648-15.379-.469-20.311-2.5299-4.939-2.0632-8.299-5.0568-11.008-8.0962-1.147-1.2866-2.181-2.5861-3.163-3.8206-.175-.2192-.348-.4364-.519-.6511-1.143-1.43-2.227-2.7487-3.379-3.8707-2.284-2.2259-4.81-3.6584-8.509-3.5512-5.566.1613-15.455.1109-25.975.0572-5.49-.028-11.153-.0569-16.463-.057-5.068.6472-7.446 1.9771-8.622 3.9046-.598.9803-.915 2.1598-1.078 3.5823-.163 1.4266-.169 3.0577-.169 4.9343 0 5.9325-2.937 11.5883-6.97 15.7503-4.011 4.139-9.186 6.881-13.785 6.9-4.7.928-16.714 1.571-30.815 1.984-14.173.416-30.514.601-43.808.601-3.272 0-6.674-1.342-9.75-3.211-3.083-1.874-5.885-4.304-7.968-6.548-.666-.718-1.168-1.706-1.565-2.847-.399-1.144-.704-2.475-.96-3.9061-.31-1.7332-.554-3.6576-.801-5.6023-.158-1.2434-.316-2.4951-.494-3.7104-.461-3.1543-1.053-6.097-2.08-8.2711-1.02-2.1605-2.415-3.4613-4.464-3.5612-6.174-.3012-17.3109-.1985-28.2165-.0979z"/><path d="m165.564 85 8-6.5 5 2 2 2.5h4l3.5-6.5 8 5 2.5 4.5-2.5 3.5 2.5 3h4.5l1.5 3-1.5 10.5h-5.5l-4 6 2 4.5-8.5 5.5-2.5-4.5h-6l-4 5.5-8-4.5-3.5-2 3.5-6v-2h-3.5l-4-3.5v-10l5.5-.5 3.5-5zm10 14 8-6.5 2.5 2.5-.5 8-7 5.5-3-2.5z" fill="#fff"/><path d="m165.564 85 8-6.5 5 2 2 2.5h4l3.5-6.5 8 5 2.5 4.5-2.5 3.5 2.5 3h4.5l1.5 3-1.5 10.5h-5.5l-4 6 2 4.5-8.5 5.5-2.5-4.5h-6l-4 5.5-8-4.5-3.5-2 3.5-6v-2h-3.5l-4-3.5v-10l5.5-.5 3.5-5zm10 14 8-6.5 2.5 2.5-.5 8-7 5.5-3-2.5z" fill="url(#e)"/><path d="m172.936 89.9402c.24.1362.325.4414.188.6816l-4.75 8.375c-.136.2402-.441.3244-.681.1882s-.325-.4414-.188-.6816l4.75-8.375c.136-.2402.441-.3245.681-.1882z"/><path d="m169.218 86.4267c.248-.1222.548-.0204.67.2273.12.2424.238.4838.355.724.763 1.5609 1.5 3.0708 2.48 4.4588.159.2256.106.5375-.12.6968-.226.1592-.538.1055-.697-.1201-1.03-1.4588-1.806-3.0479-2.565-4.6039-.117-.2388-.233-.4767-.35-.7133-.122-.2477-.02-.5475.227-.6696z"/><path d="m179.147 80.529c.261-.0924.546.0436.639.3038.504 1.4207.92 2.8631 1.332 4.2929.077.2686.155.5368.232.8044.192.661.316 1.0708.631 1.5427.153.2298.091.5402-.139.6934-.23.1531-.54.0911-.693-.1387-.409-.6122-.567-1.1588-.756-1.8095l-.003-.0089c-.079-.2719-.157-.543-.235-.8133-.412-1.4301-.818-2.8389-1.312-4.2284-.092-.2602.044-.546.304-.6384z"/><path d="m179.87 79.3707c.14.2378.062.5444-.176.6848-3.726 2.2019-7.398 4.7013-10.257 7.9026-.183.206-.5.2239-.706.0399-.206-.1839-.223-.4999-.04-.7059 2.963-3.3178 6.741-5.8798 10.494-8.0975.238-.1405.544-.0616.685.1761z"/><path d="m183.537 86.9276c-.971-.0568-1.969.0105-2.81.0738-.275.0208-.515-.1857-.536-.461-.021-.2754.186-.5154.461-.5362.839-.0632 1.898-.136 2.943-.0749 1.037.0606 2.119.2554 2.977.7698.237.142.313.4492.171.686s-.449.3135-.686.1715c-.651-.3909-1.542-.5718-2.52-.629z"/><path d="m191.51 79.6159c.212.1768.24.4921.064.7042-1.581 1.897-2.754 4.262-3.893 6.5608-.14.2823-.28.5635-.419.8427-.124.247-.424.3471-.671.2236s-.347-.4238-.224-.6708c.138-.2763.277-.5569.418-.8404 1.131-2.2842 2.359-4.7619 4.02-6.7561.177-.2121.493-.2408.705-.064z"/><path d="m198.918 85.5214c.195.1953.195.5119 0 .7072-1.375 1.3746-2.417 3.176-3.443 4.9499-.16.2761-.319.5515-.479.8245-.14.2382-.446.318-.684.1783-.239-.1397-.318-.4461-.179-.6843.154-.2629.31-.5321.468-.8053 1.019-1.7646 2.134-3.6947 3.61-5.1703.195-.1952.512-.1952.707 0z"/><path d="m194.802 89.6992c.236-.1447.544-.0714.688.1638 1.058 1.719 1.812 3.4575 2.425 5.3586.085.2628-.059.5445-.322.6293s-.545-.0595-.629-.3223c-.594-1.8393-1.317-3.5023-2.325-5.1415-.145-.2352-.072-.5431.163-.6879z"/><path d="m204.314 95.6099c.009.276-.208.5065-.484.5149-.494.0149-.991.0332-1.49.0516-1.583.0584-3.19.1176-4.789.0734-.276-.0076-.494-.2376-.486-.5136.007-.276.237-.4936.513-.486 1.564.0432 3.126-.0143 4.702-.0723.505-.0186 1.011-.0373 1.519-.0527.276-.0083.507.2086.515.4847z"/><path d="m204.736 95.2522c.275.0258.477.2696.451.5446-.112 1.1946-.254 2.3828-.396 3.5665-.302 2.5177-.602 5.0147-.602 7.5117 0 .276-.223.5-.5.5-.276 0-.5-.224-.5-.5 0-2.557.312-5.156.617-7.7056.14-1.1688.279-2.3271.386-3.4661.025-.2749.269-.4769.544-.4511z"/><path d="m205.189 105.971c.016.275-.195.512-.47.528-2.501.147-5.004.279-7.51.376-.276.01-.509-.205-.519-.481-.011-.276.204-.508.48-.519 2.497-.096 4.993-.227 7.49-.374.276-.016.512.194.529.47z"/><path d="m198.522 103.42c.252.115.362.412.247.663-1.163 2.545-2.652 4.885-4.128 7.206-.26.409-.521.818-.778 1.228-.148.233-.456.303-.69.156s-.304-.456-.157-.689c.263-.417.526-.831.788-1.243 1.477-2.323 2.923-4.596 4.056-7.074.115-.251.411-.361.662-.247z"/><path d="m192.921 111.078c.233-.148.542-.079.69.154.566.889 1.08 1.806 1.584 2.71.018.033.036.066.055.098.487.874.967 1.735 1.489 2.57.146.234.075.543-.159.689-.235.146-.543.075-.689-.159-.536-.857-1.027-1.737-1.511-2.605-.019-.036-.039-.071-.059-.107-.505-.906-1.005-1.798-1.553-2.659-.149-.233-.08-.543.153-.691z"/><path d="m185.803 116.895c.058.27-.114.536-.384.594-2.692.577-5.085.726-7.836.125-.27-.059-.441-.326-.382-.596s.326-.44.595-.381c2.576.563 4.819.43 7.414-.126.27-.058.536.114.593.384z"/><path d="m184.609 116.669c.252-.113.548-.001.661.251.766 1.696 1.612 3.313 2.487 4.972.129.244.035.547-.209.675-.244.129-.547.036-.676-.209-.873-1.657-1.734-3.299-2.513-5.027-.114-.252-.002-.548.25-.662z"/><path d="m196.231 116.848c.153.229.091.54-.139.693-.095.063-.189.126-.284.189-2.724 1.817-5.522 3.683-8.531 5.098-.25.117-.547.01-.665-.24-.117-.25-.01-.548.24-.665 2.94-1.382 5.683-3.212 8.424-5.04.087-.058.174-.116.261-.174.23-.153.54-.091.694.139z"/><path d="m178.723 115.651c.262.087.403.37.316.632-.438 1.313-1.036 2.563-1.644 3.779-.109.219-.219.436-.328.652-.503.997-.996 1.975-1.416 2.979-.107.255-.4.375-.654.268-.255-.106-.375-.399-.269-.654.435-1.04.948-2.056 1.452-3.054.107-.214.215-.426.32-.638.607-1.212 1.177-2.407 1.59-3.648.088-.262.371-.404.633-.316z"/><path d="m172.161 111.89c.199.191.205.508.014.707-1.327 1.379-2.506 2.85-3.705 4.345-.499.623-1.002 1.25-1.52 1.877-.176.212-.491.242-.704.066s-.243-.491-.067-.704c.497-.601.988-1.213 1.481-1.828 1.211-1.51 2.435-3.036 3.794-4.45.191-.199.508-.205.707-.013z"/><path d="m165.761 117.993c.142-.237.449-.314.686-.172 2.274 1.365 4.423 2.904 6.556 4.432.275.197.55.394.824.59.024.017.069.052.114.087.025.02.05.039.07.055.015.011.03.022.044.033.255-.071.524.07.609.324.022.067.068.218.027.385-.024.101-.082.218-.197.306-.11.084-.227.108-.309.112-.143.006-.262-.043-.312-.064-.066-.029-.128-.065-.18-.097-.173-.108-.453-.331-.447-.327-.276-.197-.551-.394-.825-.591-2.138-1.531-4.252-3.045-6.489-4.387-.237-.142-.313-.449-.171-.686zm7.954 5.665c.004.012.002.011 0-.001zm.556-.495c.008.003.009.004.003.001-.001 0-.002 0-.003-.001z"/><path d="m168.609 107.507c.273-.045.53.14.574.413.28 1.725 1.138 3.63 2.36 4.852.195.195.195.511 0 .707-.195.195-.512.195-.707 0-1.397-1.398-2.333-3.508-2.64-5.399-.044-.272.141-.529.413-.573z"/><path d="m161.327 107.516c.06-.27.327-.439.597-.379 1.836.411 3.782.391 5.748.372.422-.005.845-.009 1.268-.009.276 0 .5.224.5.5s-.224.5-.5.5c-.4 0-.807.004-1.219.009-1.969.02-4.056.042-6.016-.396-.269-.06-.439-.328-.378-.597z"/><path d="m161.709 97.7362c.077-.2653.354-.4181.62-.3414 2.411.6977 4.748.553 7.299.2342.274-.0343.523.1601.558.4341.034.274-.16.5239-.434.5582-2.576.3219-5.084.4913-7.701-.2659-.266-.0767-.418-.354-.342-.6192z"/><path d="m162.572 97.3751c.276.004.497.231.493.5071-.019 1.2899-.068 2.5778-.117 3.8598-.001.041-.003.083-.004.124-.051 1.325-.1 2.642-.115 3.959-.012 1.061.005 1.76.329 2.624.097.259-.034.547-.292.644-.259.097-.547-.034-.644-.292-.394-1.052-.405-1.914-.393-2.987.015-1.332.065-2.663.115-3.986.002-.04.003-.08.005-.12.049-1.285.098-2.5624.116-3.8402.004-.2762.231-.4967.507-.4927z"/><path d="m158.812 94.4216c.182-.2082.498-.23.706-.0486 1.378 1.2005 2.554 2.4624 3.77 3.7673l.017.0188c.189.2021.177.5185-.025.7067-.202.1883-.518.1771-.706-.0249l-.002-.0014c-1.226-1.3166-2.372-2.5463-3.711-3.7125-.208-.1814-.23-.4972-.049-.7054z"/><path d="m165.688 94.3418c.019.2755-.19.5137-.465.5321-.684.0456-1.345.1145-2.014.1843-.421.0439-.845.0881-1.28.1271-1.106.0991-2.237.1584-3.405.0631-.275-.0225-.48-.2638-.458-.5391.023-.2752.264-.4801.539-.4576 1.085.0885 2.15.0347 3.235-.0624.403-.0361.815-.079 1.232-.1224.687-.0715 1.388-.1444 2.084-.1908.276-.0183.514.1901.532.4657z"/><path d="m168.971 89.7094c.161.2247.109.537-.116.6975-1.637 1.1698-2.493 3.178-3.058 5.2262-.074.2662-.349.4224-.616.3489-.266-.0735-.422-.3489-.348-.615.576-2.0893 1.507-4.3924 3.441-5.7738.225-.1605.537-.1085.697.1162z"/><path d="m164.917 84.3306c.232-.1503.542-.0844.692.1473 1.083 1.6689 1.984 3.3859 2.787 5.1941.113.2523-.001.5478-.253.66-.253.1121-.548-.0015-.66-.2539-.787-1.7688-1.663-3.4382-2.713-5.0558-.15-.2317-.084-.5413.147-.6917z"/><path d="m164.604 84.43c.108-.2542.401-.373.656-.2652 1.094.4639 2.102 1.0535 3.077 1.6334.064.0381.128.0761.192.1141.914.5449 1.802 1.0738 2.745 1.5088.251.1158.36.4128.245.6636-.116.2507-.413.3601-.664.2444-.992-.458-1.923-1.0126-2.829-1.552-.067-.0399-.134-.0798-.2-.1195-.977-.5813-1.932-1.138-2.957-1.5721-.254-.1078-.373-.4012-.265-.6555z"/><path d="m168.135 89.6196c.141-.2374.448-.3154.685-.1743.998.5933 2.028 1.0722 3.109 1.575l.031.0146c.313.1454.647.3009.958.6116.195.1953.195.5119 0 .7071-.195.1953-.512.1953-.707 0-.172-.1721-.355-.2644-.677-.4141l-.047-.0219c-1.067-.4962-2.136-.9934-3.178-1.6127-.237-.1411-.315-.4479-.174-.6853z"/><path d="m164.777 94.0911c.226-.1589.537-.1046.696.1212 1.116 1.5858 2.227 3.0914 3.57 4.4342.195.1953.195.5118 0 .7071s-.512.1953-.707 0c-1.408-1.408-2.561-2.9744-3.68-4.5658-.159-.2258-.105-.5377.121-.6967z"/><path d="m175.51 77.3976c.125.2458.028.547-.218.6727-4.051 2.0707-7.906 4.5511-10.573 8.2236-.162.2234-.475.273-.698.1108-.224-.1623-.273-.475-.111-.6984 2.807-3.8655 6.832-6.4335 10.927-8.5264.246-.1257.547-.0282.673.2177z"/><path d="m172.874 77.6382c.131-.2432.434-.3343.677-.2034 1.951 1.0498 3.915 2.0188 5.953 2.8525.255.1046.378.3965.273.6521-.104.2556-.396.378-.652.2735-2.08-.8511-4.077-1.8371-6.047-2.8975-.244-.1309-.335-.4341-.204-.6772z"/><path d="m184.815 83.5c-1.722 0-3.375.0555-5.033.3664-.272.0509-.533-.1278-.584-.3993-.051-.2714.128-.5326.399-.5835 1.752-.3285 3.48-.3836 5.218-.3836.276 0 .5.2239.5.5s-.224.5-.5.5z"/><path d="m184.211 82.4303c.246-.1261.547-.0292.673.2165.824 1.6048 1.602 3.2324 2.375 4.851.086.179.171.3579.257.5366.119.2491.013.5476-.236.6668-.249.1191-.547.0138-.667-.2354-.085-.1787-.17-.3574-.256-.536-.774-1.6205-1.546-3.235-2.362-4.8264-.126-.2457-.029-.547.216-.6731z"/><path d="m188.413 76.1779c.247.1235.347.4238.224.6708-.391.7826-.815 1.5608-1.234 2.3307-.208.3816-.414.7611-.615 1.1381-.612 1.1481-1.184 2.2934-1.63 3.4832-.097.2585-.385.3895-.644.2926-.259-.097-.39-.3852-.293-.6438.47-1.2516 1.066-2.4426 1.684-3.6024.21-.3937.421-.7815.631-1.1669.414-.7602.823-1.511 1.206-2.2787.124-.247.424-.3471.671-.2236z"/><path d="m188.61 76.2941c.252-.1132.547-.0008.661.2511.716 1.5944 1.471 3.1603 2.243 4.735.121.248.019.5475-.229.669-.248.1214-.548.0189-.669-.2291-.773-1.5774-1.534-3.1552-2.257-4.765-.114-.2519-.001-.5479.251-.661z"/><path d="m190.628 80.2561c.135-.241.439-.3272.681-.1924 1.876 1.0488 3.615 2.3136 5.327 3.5583.45.3265.897.6517 1.344.9712.225.1605.277.4728.116.6975-.16.2247-.472.2768-.697.1163-.463-.3306-.92-.6632-1.376-.9943-1.706-1.2399-3.384-2.4593-5.202-3.4762-.241-.1347-.328-.4394-.193-.6804z"/><path d="m188.547 76.4397c.172-.2165.486-.2531.703-.0818 1.121.8873 2.323 1.6065 3.567 2.305.297.1672.598.3337.901.5012.952.5271 1.922 1.0642 2.865 1.6641.233.1482.302.4573.153.6903-.148.2329-.457.3016-.69.1534-.914-.5819-1.847-1.0983-2.793-1.622-.308-.1701-.616-.341-.926-.5152-1.255-.7048-2.513-1.4549-3.698-2.3926-.216-.1714-.253-.4858-.082-.7024z"/><path d="m195.778 80.4021c.261-.0894.545.0499.635.3111.296.8651.674 1.6913 1.073 2.5309.058.1216.116.2436.174.3661.342.7162.692 1.4486.994 2.2042.102.2564-.022.5474-.279.65-.256.1025-.547-.0222-.65-.2786-.289-.723-.623-1.4225-.965-2.14-.059-.1237-.118-.2479-.177-.3728-.401-.8428-.801-1.7129-1.116-2.6359-.09-.2613.049-.5456.311-.635z"/><path d="m195.936 89.194c.238-.1399.545-.0603.685.1778.587.9994 1.169 2.0008 1.751 3.0022.139.2388.057.5448-.181.6835-.239.1386-.545.0575-.684-.1814-.581-1.0009-1.163-2.0006-1.749-2.9978-.139-.2381-.06-.5445.178-.6843z"/><path d="m198.333 91.1462c.265.0794.415.3581.335.6226-.419 1.3978-.447 2.9472-.474 4.4989-.002.0805-.003.1611-.005.2417-.005.2761-.233.4958-.509.4906-.276-.0051-.496-.233-.49-.5091.001-.0926.003-.1859.005-.2798.026-1.5162.055-3.1949.516-4.7296.079-.2645.358-.4146.622-.3353z"/><path d="m197.45 92.0231c.056-.2703.321-.4438.592-.3875.94.1959 1.891.2806 2.869.351.152.0109.305.0215.458.0321.826.0573 1.673.116 2.516.2364.274.0391.464.2923.425.5657-.04.2734-.293.4633-.566.4243-.804-.1149-1.609-.1708-2.436-.2282-.155-.0108-.311-.0216-.468-.0329-.983-.0707-1.992-.1589-3.002-.3694-.271-.0563-.444-.3211-.388-.5915z"/><path d="m202.298 91.7018c.234-.147.543-.0767.69.157.835 1.3272 1.613 2.6666 2.386 4.0182.137.2398.053.5452-.186.6822-.24.137-.546.0537-.683-.1861-.77-1.3484-1.54-2.673-2.364-3.9818-.147-.2338-.076-.5424.157-.6895z"/><path d="m165.927 107.769c.266-.075.542.078.618.344.266.928.532 1.83.863 2.712.097.258-.034.546-.293.643-.258.097-.547-.034-.644-.292-.345-.922-.621-1.858-.887-2.789-.076-.265.078-.542.343-.618z"/><path d="m165.386 109.868c.142-.237.449-.314.686-.172.431.259.868.546 1.303.832.039.027.079.053.119.079.478.314.955.625 1.441.908.975.569 1.944 1.003 2.935 1.113.274.031.472.278.441.552-.03.275-.277.473-.552.442-1.197-.133-2.309-.648-3.328-1.243-.511-.298-1.009-.623-1.486-.936-.039-.026-.078-.052-.117-.077-.439-.289-.859-.565-1.271-.812-.237-.142-.313-.449-.171-.686z"/><path d="m166.724 110.964c.227.157.284.469.127.696-.427.616-.881 1.225-1.329 1.827-.236.317-.47.631-.698.943-.668.915-1.297 1.832-1.819 2.806-.13.244-.433.335-.677.205-.243-.131-.335-.434-.204-.677.555-1.035 1.216-1.996 1.892-2.924.241-.329.481-.651.719-.971.441-.592.876-1.175 1.293-1.779.158-.227.469-.283.696-.126z"/><path d="m163.191 116.042c.184-.206.5-.224.706-.04.425.379.901.803 1.408 1.162.511.361 1.014.627 1.483.721.27.054.446.317.392.588s-.318.446-.589.392c-.669-.134-1.307-.491-1.863-.885-.56-.395-1.076-.856-1.494-1.229l-.003-.003c-.206-.184-.223-.5-.04-.706z"/><path d="m158.126 104.361c.215-.174.53-.14.703.075.179.222.358.458.542.7.352.463.721.949 1.139 1.408.634.696 1.271 1.2 1.913 1.343.27.06.439.327.38.596-.06.27-.327.44-.597.38-.959-.213-1.773-.919-2.435-1.645-.445-.49-.87-1.047-1.238-1.53-.175-.23-.337-.444-.483-.624-.173-.216-.139-.53.076-.703z"/><path d="m158.436 93.5c.276-.0021.501.2201.503.4962.025 3.236.064 6.4518.318 9.6588.055.695.132 1.331.293 1.974.066.268-.096.539-.364.606s-.54-.096-.607-.364c-.18-.721-.262-1.42-.319-2.137-.257-3.247-.296-6.4959-.321-9.7302-.002-.2761.221-.5017.497-.5038z"/><path d="m175.15 96.8766c.275-.0219.516.1836.538.4589.213 2.6785.26 5.3825.306 8.0645.02 1.117.039 2.23.07 3.336.008.276-.209.506-.485.514s-.507-.21-.514-.486c-.032-1.129-.052-2.256-.071-3.38-.047-2.669-.093-5.323-.303-7.9694-.022-.2753.184-.5162.459-.538z"/><path d="m173.79 104.824c.167-.221.48-.264.701-.098 1.033.779 2.037 1.575 3.037 2.367 2.099 1.663 4.173 3.306 6.429 4.735.233.147.303.456.155.69-.148.233-.457.302-.69.154-2.301-1.457-4.446-3.156-6.568-4.836-.989-.784-1.973-1.563-2.966-2.312-.22-.166-.264-.48-.098-.7z"/><path d="m191.324 104.555c.176.212.148.527-.064.704-1.434 1.194-2.926 2.321-4.407 3.439-.26.196-.52.393-.78.589-1.739 1.317-3.449 2.639-5.048 4.084-.205.185-.521.169-.707-.036-.185-.205-.169-.521.036-.706 1.634-1.476 3.375-2.821 5.116-4.139.261-.198.523-.396.784-.593 1.482-1.119 2.952-2.229 4.365-3.406.213-.177.528-.148.705.064z"/><path d="m191.35 93.5013c.275.0193.483.2584.463.5338-.134 1.9105-.207 3.8284-.281 5.7558-.014.3701-.028.7391-.043 1.1101-.09 2.297-.198 4.604-.427 6.899-.027.275-.272.475-.547.448-.275-.028-.476-.273-.448-.548.226-2.262.333-4.543.423-6.838.015-.368.029-.737.043-1.1052.073-1.9273.147-3.8639.283-5.7919.019-.2754.258-.483.534-.4636z"/><path d="m184.612 91.8575c.148.2333.078.5422-.155.69-1.756 1.1123-3.419 2.3617-5.077 3.6466-.372.2885-.745.5792-1.118.8704-1.284 1.0016-2.576 2.0104-3.906 2.9665-.224.161-.536.11-.697-.114-.162-.2241-.111-.5366.114-.6978 1.311-.9435 2.583-1.9362 3.864-2.9356.376-.2931.752-.5867 1.13-.8799 1.663-1.2887 3.357-2.5622 5.155-3.701.233-.1478.542-.0785.69.1548z"/><path d="m183.521 92.6022c.15-.2314.46-.2968.691-.1461.558.3633 1.124.7199 1.693 1.0778 2.123 1.3374 4.274 2.6927 6.131 4.481.199.1915.205.5081.014.707-.192.1989-.508.2049-.707.0133-1.776-1.71-3.815-2.9948-5.925-4.3251-.58-.3653-1.165-.7341-1.751-1.116-.232-.1507-.297-.4605-.146-.6919z"/><path d="m186.085 93.3754c.276.0115.491.2445.479.5204l-.003.0724c-.141 3.3927-.283 6.7808-.372 10.1698-.007.276-.237.494-.513.487s-.494-.237-.486-.513c.089-3.397.23-6.7916.372-10.1818l.003-.076c.011-.2759.244-.4903.52-.4788z"/><path d="m185.87 103.496c.14.238.061.544-.176.685-1.275.752-2.458 1.635-3.665 2.537-.032.024-.065.049-.098.073-1.233.922-2.494 1.858-3.868 2.643-.24.137-.546.054-.683-.186s-.053-.545.186-.682c1.314-.75 2.528-1.651 3.767-2.576.038-.028.076-.057.114-.085 1.195-.893 2.416-1.805 3.739-2.586.237-.14.544-.061.684.177z"/><path d="m184.724 103.317c.102-.257.392-.383.649-.282.954.376 1.941.69 2.946 1.01.139.044.278.089.417.133 1.142.365 2.3.748 3.407 1.24.252.112.366.408.253.66-.112.253-.407.366-.659.254-1.053-.468-2.164-.837-3.305-1.201-.138-.044-.276-.088-.415-.133-1.002-.318-2.023-.643-3.011-1.033-.257-.101-.383-.391-.282-.648z"/><path d="m158.334 101.648c.195-.196.511-.198.707-.003.057.056.113.112.17.168.913.906 1.798 1.783 2.783 2.541.219.168.26.482.092.701-.169.219-.483.26-.701.091-1.038-.798-1.964-1.716-2.868-2.612-.06-.06-.12-.119-.179-.179-.197-.194-.198-.511-.004-.707z"/><path d="m157.981 97.1272c.206-.184.522-.1663.706.0396.827.9245 1.709 1.774 2.606 2.6382.456.439.916.883 1.375 1.341.195.196.195.512 0 .708-.195.195-.512.195-.707 0-.43-.431-.876-.86-1.325-1.293-.914-.8806-1.844-1.7766-2.694-2.7278-.184-.2058-.167-.5219.039-.706z"/><path d="m166.042 92.0713c.168-.2194.482-.2612.701-.0935.957.732 1.864 1.5295 2.753 2.3115.175.1539.349.3073.523.4594.208.1819.229.4978.047.7056s-.498.2289-.706.047c-.178-.1559-.355-.3119-.532-.4674-.889-.7818-1.765-1.5526-2.692-2.2617-.22-.1677-.261-.4815-.094-.7009z"/><path d="m167.247 82.2681c.128-.2446.43-.339.675-.2109.543.2846 1.117.5279 1.713.7804.089.038.179.0761.27.1146.683.2909 1.388.6017 2.042.9942.237.142.313.4492.171.6859-.142.2368-.449.3136-.686.1715-.589-.3534-1.237-.641-1.919-.9315-.088-.0374-.176-.0748-.265-.1124-.593-.2512-1.208-.5117-1.79-.8169-.245-.1281-.339-.4303-.211-.6749z"/><path d="m170.339 79.5186c.197-.1937.513-.1911.707.0057.467.4749 1.046 1.043 1.668 1.5241.631.4876 1.259.8485 1.824.9613.27.0542.446.3176.392.5884-.054.2707-.318.4463-.589.3922-.792-.1584-1.568-.6324-2.238-1.1507-.679-.5248-1.297-1.1336-1.77-1.6139-.194-.1969-.191-.5134.006-.7071z"/><path d="m186.639 78.4072c.258-.0973.546.0334.644.2919.23.6115.412 1.2598.587 1.8845.041.1458.081.2903.122.4327.219.767.447 1.4887.77 2.1352.123.247.023.5474-.224.6708-.247.1235-.547.0234-.671-.2236-.368-.7358-.616-1.5349-.837-2.3077-.043-.1531-.086-.3049-.128-.4551-.175-.6215-.342-1.2176-.555-1.7847-.098-.2585.033-.5468.292-.644z"/><path d="m199.581 91.887c.27-.0599.537.1101.597.3796.163.7365.3 1.4863.435 2.2256.064.3495.127.6966.193 1.0389.052.2712-.126.5331-.397.5851-.272.0519-.534-.1258-.586-.3971-.069-.3609-.134-.7177-.198-1.0719-.133-.7285-.264-1.4456-.424-2.1636-.059-.2696.111-.5367.38-.5966z"/><path d="m180.234 107.418c.115-.251.411-.362.662-.248 1.204.547 2.375 1.135 3.533 1.766.242.132.332.436.2.679-.133.242-.436.331-.679.199-1.138-.621-2.287-1.197-3.467-1.734-.252-.114-.363-.41-.249-.662z"/><path d="m183.186 105.174c.18-.21.496-.233.705-.053.988.852 2.195 1.544 3.436 1.898.265.076.419.353.343.618-.076.266-.352.42-.618.344-1.398-.4-2.731-1.169-3.814-2.102-.209-.18-.233-.496-.052-.705z"/><path d="m185.325 100.148c.056-.2702.321-.4437.592-.3874.722.1505 1.428.3594 2.111.5614.018.005.036.01.054.016.707.209 1.39.409 2.081.547.27.054.446.317.392.588s-.318.447-.589.392c-.741-.148-1.466-.361-2.167-.568-.013-.004-.026-.008-.039-.012-.694-.205-1.366-.403-2.047-.545-.271-.057-.444-.322-.388-.592z"/><path d="m185.691 96.7061c.025-.2751.267-.4784.542-.4541.76.067 1.498.2288 2.207.4004.162.0392.321.0787.48.1178.545.1349 1.073.2654 1.609.3629.272.0494.452.3097.402.5814-.049.2717-.309.4519-.581.4025-.57-.1037-1.138-.2443-1.689-.3805-.153-.038-.306-.0757-.456-.1122-.701-.1695-1.378-.3161-2.059-.3762-.276-.0243-.479-.2669-.455-.542z"/><path d="m164.501 112.76c.132-.242.436-.331.678-.199 1.21.661 2.265 1.576 3.263 2.441.192.166.383.331.572.492.21.18.235.495.056.705-.179.211-.494.236-.705.057-.202-.173-.402-.345-.6-.517-.998-.864-1.959-1.695-3.065-2.3-.243-.133-.332-.436-.199-.679z"/></g><path d="m281 45c0 4.9706-4.029 9-9 9s-9-4.0294-9-9 4.029-9 9-9 9 4.0294 9 9z" fill="#fff"/><path clip-rule="evenodd" d="m280.895 34.7377c.145.235.072.5431-.163.688-5.761 3.5517-8.103 7.845-9.039 11.0204-.469 1.5927-.586 2.9104-.597 3.7199-.003.2441.003.4392.011.5794.002.0031.003.0061.004.0091.013.0378.022.0772.026.1172.006.0576.01.1075.012.1485.001.0202.002.0424.002.0644v.0013c0 .0126-.001.0614-.012.1162-.004.0169-.011.0489-.027.0869-.011.0273-.048.1167-.14.1948-.126.1063-.316.1574-.503.086-.135-.0516-.206-.1451-.226-.1722-.046-.0626-.066-.1225-.071-.135v-.0012c-.008-.0221-.013-.0412-.016-.0529-.01-.0427-.017-.0901-.022-.1283-.005-.0345-.009-.0754-.013-.1227-.852-2.3103-2.142-3.9768-3.711-5.5118-.197-.1932-.201-.5097-.008-.7071s.51-.2009.707-.0078c1.19 1.1638 2.249 2.4234 3.091 3.9769.091-.7303.254-1.5926.534-2.5442 1-3.3935 3.486-7.898 9.473-11.589.235-.145.543-.0719.688.1632z" fill-rule="evenodd"/><path clip-rule="evenodd" d="m274.06 36.17c.988.093 1.944.3074 2.79.635 1.445.5591 3.254 2.0137 4.394 4.0301 1.153 2.0383 1.636 4.6787.352 7.5614-1.158 2.5988-3.085 4.5209-5.414 5.4426-2.335.924-5.034.826-7.689-.5458-2.694-1.3922-4.391-3.8046-4.918-6.825-.348-1.9907.094-4.5649 1.717-6.6479.836-1.0733 1.976-2.0034 3.46-2.6565.034-.1568.144-.2941.304-.3576 1.505-.5945 3.29-.7937 4.979-.6386.008.0006.017.0014.025.0023zm-.083.9966c-3.993.0056-6.477 1.447-7.897 3.2685-1.436 1.8437-1.823 4.1274-1.52 5.8613.476 2.73 1.991 4.8677 4.392 6.1085 2.414 1.2472 4.811 1.3158 6.862.5044 2.056-.8138 3.803-2.5292 4.868-4.9198 1.136-2.5486.714-4.8546-.309-6.6621-1.034-1.8293-2.67-3.1199-3.884-3.5898-.759-.2938-1.62-.4864-2.512-.571z" fill-rule="evenodd"/></svg>