<svg fill="none" height="120" width="273" xmlns="http://www.w3.org/2000/svg"><path d="m55.416 46.435c2.608-3.688 10.016-9.568 13.306-13.007m-50.357 15.209c12.724-.602 25.382-1.234 37.958-3.33m-.623 1.191c8.975 2.911 21.105 7.035 26.2 9.461m-67.3-26.419s23.629-1.015 35.134-2.99m-32.294 2.393c-3.14 2.84-11.363 9.27-14.95 11.661m-.271-1.068c7.39 3.506 15.24 6.145 22.863 9.1m-20.349-28.664c4.334 2.534 10.323 6.924 14.579 9.575m-14.429-6.881c6.527-4.638 12.925-9.387 19.312-14.206m-9.988 4.883c7.268-.846 21.519-3.171 28.8-3.687m-2.829.135a991.35 991.35 0 0 0 9.767 5.772m-9.324-5.55c3.529-2.76 10.749-6.323 14.197-9.178m-3.986.965c4.882.217 21.074 0 25.963 0m-2.213-.665 7.547 6.215m17.541 23.088c5.287 2.61 15.383 5.891 20.782 8.223m-.143-.013-1.776 3.551m1.776-3.551c9.751-.792 21.988-1.462 31.39-4.192m-45.152-13.122c7.16-1.296 20.23-2.466 27.511-3.212m-.841 0c3.395 1.738 13.909 4.013 17.549 4.76m-17.455-4.294c1.867-2.987 3.547-5.787 5.6-8.4m-41.686-2.616c6.963-1.322 13.891-2.796 20.865-3.996m-3.635-.482c8.028 2.707 17.821 4.665 24.363 6.814m-1.291.155c11.692-.456 17.572-1.338 29.245-2.157m-1.678-.48c2.79 1.499 12.956 3.705 15.814 5.03m12.209 2.884c8.085-1.843 16.205-3.11 24.417-4.217m-5.576-.461c10.034 2.99 24.025 5.556 31.284 7.264m-33.256 12.287c9.859-.343 19.543-.842 29.301-2.22m1.333-13.984c-.395 4.142-.765 8.285-1.11 12.43m-31.494 14.331a4331.872 4331.872 0 0 0 34.159 10.034m-65.706-5.274a2356.812 2356.812 0 0 1 -4.883 12.874m-32.188 1.331c13.158-1.484 24.682-2.032 37.875-3.167m-47.197 19.436c9.573 4.344 20.398 9.603 30.243 13.282m-.055-.25c11.245-1.012 28.428-2.92 39.423-5.507m4.75-16.469a1149.006 1149.006 0 0 1 -8.435 18.868m-25.527-29.3c12.135 3.57 23.026 9.395 35.071 11.764m-5.771 0c10.607-.108 21.02-.497 31.521-1.997" stroke="#62f91f" stroke-linecap="round"/><path d="m237.068 47.305c-.439 5.041-.959 10.09-1.246 15.143-.092 1.618-.066.92.136 1.727m2.44-13.54c11.086-3.123 22.322-5.045 33.74-6.438m-7.99-14.428c2.081 5.398 4.153 10.8 6.216 16.204m-31.077-18.326c10.039 2.588 20.068 5.403 30.41 6.437m-268.586 30.347a1175.758 1175.758 0 0 1 20.425-16.44m-18.931 12.455c7.557 5.475 15.184 10.74 22.916 15.941m-4.224-2.299c13.342-1.492 31.508-2.495 44.715-4.896m-42.484 3.21c-6.034 7.527-11.25 13.284-18.209 21.531m.901-3.093c8.506 5.67 18.686 11.598 26.933 17.268m-4.51-1.031c14.107-.995 33.871-4.609 47.935-5.928m15.586-21.666c-6.535 9.258-9.578 12.623-16.029 21.941m.001 0c9.125 4.665 27.273 12.478 36.413 17.116m-5.291-.933c16.299-2.835 30.368-3.817 46.681-6.536m6.225-21.785s-2.685 10.415-8.402 22.563" stroke="#62f91f" stroke-linecap="round"/><path d="m65.406 54.859 12.294-12.93 35.794-3.514 25.017 10.402v12.385l-8.459 14.198-37.156 5.74-27.49-12.688v-13.592z" fill="#fff"/><path d="m65.324 54.39c5.28-5.61 12.493-12.494 12.493-12.494m-.09 0c13.496-1.186 23.163-2.098 35.42-3.706m-.493-.307c8.573 3.465 17.048 6.735 25.809 10.123m-8.025 13.406c4.491-6.412 8.299-13.497 8.299-13.497m-8.208 28.18c3.192-6.11 7.569-13.953 7.569-13.953m.549-14.318c-.554 5.535-.303 9.231-.729 14.773m-7.113-1.277s-.128 8.397-.471 14.228m-39.018-9.303c.14 5.244.22 9.238.569 14.473m-26.508-26.602v14.774m.037.183c9.576 3.83 18.148 8.116 26.178 11.062m-26.152-25.934c7.979 4.482 17.451 8.971 26.056 12.045m-.529.158c12.765-2.38 39.675-4.984 39.675-4.984m-38.889 19.048 38.867-4.464" stroke="#000" stroke-linecap="round"/><path d="m91.51 76.003 5.444-10.344m7.799-1.058-7.8 15.394m7.122-.898 7.616-15.515m6.981-.826-6.981 15.847m6.981-.917 6.911-15.938m0 15.021 5.289-12.764m2.693-7.355-.928 15.665m3.183-6.396.752-14.092" stroke="#000"/><path d="m150.914 23.151 4.451-8.109 29.733-3.816 24.804 6.837v10.494l-2.703 11.448-30.051 3.657-26.234-8.745v-11.767z" fill="#fff"/><path d="m150.938 22.46c1.806-3.353 3.998-7.48 3.998-7.48m-4.143 7.644c7.71 3.345 17.822 6.274 25.379 8.983m-.539-.25s21.967-2.426 31.85-3.353m2.383-9.864c-1.159 4.835-2.579 9.8-2.579 9.8m.131 11.67c.773-3.224 1.741-10.768 1.741-10.768m.773-10.573s-.903 4.664-.903 10.573m-1.521-1.096c.348 4.502.361 7.732 0 12.25m-31.942-8.961c.344 5.198.376 7.055.775 12.25m-25.743-20.661v12.404m0-.235c8.867 3.987 16.443 5.417 25.614 8.62m.323.065c7.146-.066 23.956-2.218 31.056-3.112m-52.462-25.515s18.49-2.113 30.496-3.352m-.387-.129c7.673 2.321 16.892 4.707 24.242 6.705" stroke="#000" stroke-linecap="round"/><path d="m150.65 30.584 5.698-5.697m4.802 1.676-10.5 8.377m5.698 1.563 9.493-8.377m5.25 1.787-9.941 9.048m5.585 1.563 8.935-8.153m.559 5.361-4.133 4.021m4.133-1.229 5.456-9.382m5.609-.826-7.714 13.112m5.651-.67 7.028-13.216m6.19-.45-7.588 13.666m5.808-1.005 7.454-13.242m3.715 2.631-4.914 9.382" stroke="#000"/><path d="m49.934 26.159v-10.47l10.013-9.104 27.767-2.275 19.573 6.827v10.015l-7.283 9.103-30.725 3.642z" fill="#fff"/><g stroke="#000"><path d="m49.501 15.518c.28 4.024-.494 6.782 0 10.783m19.254-3.887c-.001 3.305-.53 6.491 0 11.52m30.912-14.598c.257 3.33-.193 8.197 0 11.53m7.989-20.227v10.695m-7.989 9.766c-.453 1.34 5.5-5.971 8.204-10.072m-8.736-1.338c3.463-3.306 8.658-9.051 8.658-9.051m-39.41 11.647c12.697-.86 31.302-2.754 31.302-2.754m-50.29-4.092s12.316 4.761 19.28 6.768m-19.045-6.847c5.273-4.407 10.705-8.972 10.705-8.972m-.159-.079c10.268-.573 18.067-1.195 27.389-1.731m.314.078c7.005 2.363 13.301 4.093 19.991 5.983m-58.395 15.74c5.8 2.701 18.809 7.712 18.809 7.712m.866.078c6.7.172 24.498-2.659 31.166-3.462" stroke-linecap="round"/><path d="m68.659 30.569 4.16-8.245m6.858-.694-6.467 12.674m7.12-.898 6.205-12.546m7.469-.891-5.388 12.027m6.935-.917 4.214-9.783m2.554 7.122.607-12.5m2.796 8.255.885-12.3"/></g></svg>