<svg width="273" height="120" fill="none" xmlns="http://www.w3.org/2000/svg"><path d="M55.416 46.435c2.608-3.688 10.016-9.568 13.306-13.007M18.365 48.637c12.724-.602 25.382-1.234 37.958-3.33M55.7 46.498c8.975 2.911 21.105 7.035 26.2 9.461M14.6 29.54s23.629-1.015 35.134-2.99M17.44 28.943c-3.14 2.84-11.363 9.27-14.95 11.661M2.219 39.536c7.39 3.506 15.24 6.145 22.863 9.1M4.733 19.972c4.334 2.534 10.323 6.924 14.579 9.575M4.883 22.666c6.527-4.638 12.925-9.387 19.312-14.206M14.207 13.343c7.268-.846 21.519-3.171 28.8-3.687M40.178 9.791a991.35 991.35 0 009.767 5.772M40.621 10.013C44.15 7.253 51.37 3.69 54.818.835M50.832 1.8c4.882.217 21.074 0 25.963 0M74.582 1.135l7.547 6.215M99.67 30.438c5.287 2.61 15.383 5.891 20.782 8.223M120.309 38.648l-1.776 3.551M120.309 38.648c9.751-.792 21.988-1.462 31.39-4.192M106.547 21.334c7.16-1.296 20.23-2.466 27.511-3.212M133.217 18.122c3.395 1.738 13.909 4.013 17.549 4.76M133.311 18.588c1.867-2.987 3.547-5.787 5.6-8.4M97.225 7.572c6.963-1.322 13.891-2.796 20.865-3.996M114.455 3.094c8.028 2.707 17.821 4.665 24.363 6.814M137.527 10.063c11.692-.456 17.572-1.338 29.245-2.157M165.094 7.426c2.79 1.499 12.956 3.705 15.814 5.03M193.117 15.34c8.085-1.843 16.205-3.11 24.417-4.217M211.958 10.662c10.034 2.99 24.025 5.556 31.284 7.264M209.986 30.213c9.859-.343 19.543-.842 29.301-2.22M240.62 14.009c-.395 4.142-.765 8.285-1.11 12.43M208.016 40.77a4331.872 4331.872 0 0034.159 10.034M176.469 45.53a2356.812 2356.812 0 01-4.883 12.874M139.398 59.735c13.158-1.484 24.682-2.032 37.875-3.167M130.076 76.004c9.573 4.344 20.398 9.603 30.243 13.282M160.264 89.036c11.245-1.012 28.428-2.92 39.423-5.507M204.437 67.06a1149.006 1149.006 0 01-8.435 18.868M170.475 56.628c12.135 3.57 23.026 9.395 35.071 11.764M199.775 68.392c10.607-.108 21.02-.497 31.521-1.997" stroke="#62F91F" stroke-linecap="round"/><path d="M237.068 47.305c-.439 5.041-.959 10.09-1.246 15.143-.092 1.618-.066.92.136 1.727M238.398 50.635c11.086-3.123 22.322-5.045 33.74-6.438M264.148 29.769c2.081 5.398 4.153 10.8 6.216 16.204M239.287 27.647c10.039 2.588 20.068 5.403 30.41 6.437M1.111 64.431a1175.758 1175.758 0 0120.425-16.44M2.605 60.446c7.557 5.475 15.184 10.74 22.916 15.941M21.297 74.088c13.342-1.492 31.508-2.495 44.715-4.896M23.528 72.402c-6.034 7.527-11.25 13.284-18.209 21.531M6.22 90.84c8.506 5.67 18.686 11.598 26.933 17.268M28.643 107.077c14.107-.995 33.871-4.609 47.935-5.928M92.164 79.483c-6.535 9.258-9.578 12.623-16.029 21.941M76.136 101.424c9.125 4.665 27.273 12.478 36.413 17.116M107.258 117.607c16.299-2.835 30.368-3.817 46.681-6.536M160.164 89.286s-2.685 10.415-8.402 22.563" stroke="#62F91F" stroke-linecap="round"/><path d="M65.406 54.859L77.7 41.929l35.794-3.514 25.017 10.402v12.385L130.052 75.4l-37.156 5.74-27.49-12.688V54.86z" fill="#fff"/><path d="M65.324 54.39c5.28-5.61 12.493-12.494 12.493-12.494M77.727 41.896c13.496-1.186 23.163-2.098 35.42-3.706M112.654 37.883c8.573 3.465 17.048 6.735 25.809 10.123M130.438 61.412c4.491-6.412 8.299-13.497 8.299-13.497M130.529 76.095c3.192-6.11 7.569-13.953 7.569-13.953M138.647 47.824c-.554 5.535-.303 9.231-.729 14.773M130.805 61.32s-.128 8.397-.471 14.228M91.316 66.245c.14 5.244.22 9.238.569 14.473M65.377 54.116V68.89M65.414 69.073c9.576 3.83 18.148 8.116 26.178 11.062M65.44 54.201c7.979 4.482 17.451 8.971 26.056 12.045M90.967 66.404c12.765-2.38 39.675-4.984 39.675-4.984M91.753 80.468l38.867-4.464" stroke="#000" stroke-linecap="round"/><path d="M91.51 76.003l5.444-10.344m7.799-1.058l-7.8 15.394m7.122-.898l7.616-15.515m6.981-.826l-6.981 15.847m6.981-.917l6.911-15.938m0 15.021l5.289-12.764M133.565 56.65l-.928 15.665m3.183-6.396l.752-14.092" stroke="#000"/><path d="M150.914 23.151l4.451-8.109 29.733-3.816 24.804 6.837v10.494l-2.703 11.448-30.051 3.657-26.234-8.745V23.15z" fill="#fff"/><path d="M150.938 22.46c1.806-3.353 3.998-7.48 3.998-7.48M150.793 22.624c7.71 3.345 17.822 6.274 25.379 8.983M175.633 31.357s21.967-2.426 31.85-3.353M209.866 18.14c-1.159 4.835-2.579 9.8-2.579 9.8M207.418 39.61c.773-3.224 1.741-10.768 1.741-10.768M209.932 18.269s-.903 4.664-.903 10.573M207.508 27.746c.348 4.502.361 7.732 0 12.25M175.566 31.035c.344 5.198.376 7.055.775 12.25M150.598 22.624v12.404M150.598 34.793c8.867 3.987 16.443 5.417 25.614 8.62M176.535 43.478c7.146-.066 23.956-2.218 31.056-3.112M155.129 14.851s18.49-2.113 30.496-3.352M185.238 11.37c7.673 2.321 16.892 4.707 24.242 6.705" stroke="#000" stroke-linecap="round"/><path d="M150.65 30.584l5.698-5.697m4.802 1.676l-10.5 8.377m5.698 1.563l9.493-8.377m5.25 1.787l-9.941 9.048m5.585 1.563l8.935-8.153m.559 5.361l-4.133 4.021m4.133-1.229l5.456-9.382m5.609-.826l-7.714 13.112m5.651-.67l7.028-13.216m6.19-.45l-7.588 13.666m5.808-1.005l7.454-13.242m3.715 2.631l-4.914 9.382" stroke="#000"/><path d="M49.934 26.159v-10.47l10.013-9.104L87.714 4.31l19.573 6.827v10.015l-7.283 9.103-30.725 3.642-19.345-7.738z" fill="#fff"/><path d="M49.501 15.518c.28 4.024-.494 6.782 0 10.783M68.755 22.414c-.001 3.305-.53 6.491 0 11.52M99.667 19.336c.257 3.33-.193 8.197 0 11.53M107.656 10.639v10.695M99.667 31.1c-.453 1.34 5.5-5.971 8.204-10.072M99.135 19.69c3.463-3.306 8.658-9.051 8.658-9.051M68.383 22.286c12.697-.86 31.302-2.754 31.302-2.754M49.395 15.44s12.316 4.761 19.28 6.768M49.63 15.361c5.273-4.407 10.705-8.972 10.705-8.972M60.176 6.31c10.268-.573 18.067-1.195 27.389-1.731M87.879 4.657C94.884 7.02 101.18 8.75 107.87 10.64M49.475 26.38c5.8 2.701 18.809 7.712 18.809 7.712M69.15 34.17c6.7.172 24.498-2.659 31.166-3.462" stroke="#000" stroke-linecap="round"/><path d="M68.659 30.569l4.16-8.245m6.858-.694L73.21 34.304m7.12-.898l6.205-12.546m7.469-.891l-5.388 12.027m6.935-.917l4.214-9.783m2.554 7.122l.607-12.5m2.796 8.255l.885-12.3" stroke="#000"/></svg>