<svg fill="none" height="10" viewBox="0 0 14 10" width="14" xmlns="http://www.w3.org/2000/svg"><path clip-rule="evenodd" d="m8.08208.117843c.2699.058358.44139.324468.38304.594373l-1.98874 8.894324c-.05836.2699-.32447.44136-.59438.38304-.2699-.05836-.44139-.32447-.38304-.59438l1.98874-8.894317c.05836-.269905.32447-.4413984.59438-.38304zm1.54935 1.545127c.18659-.20356.50287-.21731.70647-.03071l3 2.75c.0979.08981.1561.21493.1617.34773.0055.13279-.042.26232-.1322.35999l-3 3.25c-.1873.20291-.50363.21556-.70654.02826s-.21556-.50363-.02826-.70654l2.6597-2.88132-2.63016-2.41097c-.20356-.18659-.21731-.50288-.03071-.70644zm-5.97704-.02346c.19955-.19087.51605-.18384.70693.01571s.18384.51606-.01571.70694l-2.63834 2.52362 2.65372 2.7691c.19107.19937.18433.51588-.01504.70695-.19937.19106-.51588.18433-.70694-.01504l-3.000004-3.13044c-.091809-.0958-.141773-.22416-.138888-.35682.002886-.13266.058383-.25873.154271-.35045z" fill="#383946" fill-rule="evenodd"/></svg>