<svg fill="none" height="14" viewBox="0 0 14 14" width="14" xmlns="http://www.w3.org/2000/svg"><path clip-rule="evenodd" d="m5.81368 6.5971 1.6762-2.90573-1.6762-2.90572h-3.35247l-1.67622 2.90572 1.67622 2.90573zm2.35941-3.29269c-.00112-.00196-.00225-.00391-.00337-.00587l-1.67628-2.905719c-.14023-.243074-.39937-.392821-.67976-.392821h-3.35247c-.28045 0-.5396.149747-.67982.392821l-1.676223 2.905719c-.1402227.24308-.1402227.54257 0 .78565l1.676223 2.90572.00591.01011-.00591.01003-1.676223 2.90575c-.1402227.2431-.1402227.5425 0 .7856l1.676223 2.9058c.14022.2431.39937.3928.67982.3928h3.35247c.28039 0 .53953-.1497.67976-.3928l1.67628-2.9058c.00273-.0048.00545-.0096.0081-.0144h.00849 3.35249c.2804 0 .5396-.1497.6798-.3928l1.6762-2.9057c.1403-.24308.1403-.54254 0-.78562l-1.6762-2.90576c-.1402-.24308-.3994-.39282-.6798-.39282h-3.35241c-.00449 0-.00889.00004-.0133.00011zm-2.35941 9.90989 1.6762-2.9057-1.6762-2.90574h-3.35247l-1.67622 2.90574 1.67622 2.9057zm7.40132-6.21861-1.6762 2.90568h-3.35241l-1.67628-2.90568 1.67628-2.90574h3.35241z" fill="#383946" fill-rule="evenodd"/></svg>