<svg fill="none" height="16" viewBox="0 0 32 16" width="32" xmlns="http://www.w3.org/2000/svg" xmlns:xlink="http://www.w3.org/1999/xlink"><clipPath id="a"><path d="m0 0h32v16h-32z"/></clipPath><g clip-path="url(#a)" fill="#000"><path d="m2.53204 3.375h4.74573c1.39301.01177 2.40236.41117 3.02803 1.19824.6257.78711.8323 1.86199.6198 3.22468-.0826.62263-.2656 1.23349-.5489 1.83262-.2716.59916-.64936 1.13946-1.13335 1.62116-.59028.6108-1.22185.9985-1.89475 1.163-.67291.1645-1.36943.2467-2.08954.2467h-2.12495l-.6729 3.348h-2.46140836zm2.07183 2.00882-1.06248 5.28638c.07083.0117.14166.0176.21249.0176h.24792c1.1333.0117 2.0777-.0999 2.83327-.3348.75552-.2467 1.26314-1.10425 1.52288-2.57269.21249-1.23349-.00001-1.9442-.63749-2.13218-.62569-.18795-1.41075-.27605-2.35515-.26431-.14167.01173-.27743.01762-.40728.01762-.11806.00001-.24202.00001-.37187 0z"/><path d="m13.7301.00976562h2.4437l-.6906 3.36566438h2.1958c1.2041.0235 2.1013.2702 2.6916.74009.6021.46992.7792 1.36272.5312 2.67843l-1.1864 5.86785h-2.4791l1.1333-5.60354c.1181-.58735.0826-1.00441-.1062-1.25111-.1889-.24669-.5962-.37004-1.2219-.37004l-1.9656-.01762-1.452 7.24231h-2.4437z"/><path d="m23.5263 3.375h4.7457c1.393.01177 2.4024.41117 3.0281 1.19824.6256.78711.8323 1.86199.6198 3.22468-.0827.62263-.2657 1.23349-.549 1.83262-.2715.59916-.6493 1.13946-1.1333 1.62116-.5903.6108-1.2218.9985-1.8947 1.163s-1.3695.2467-2.0896.2467h-2.1249l-.6729 3.348h-2.4614zm2.0718 2.00882-1.0625 5.28638c.0709.0117.1417.0176.2125.0176h.248c1.1333.0117 2.0777-.0999 2.8332-.3348.7556-.2467 1.2632-1.10425 1.5229-2.57269.2125-1.23349 0-1.9442-.6375-2.13218-.6257-.18795-1.4107-.27605-2.3551-.26431-.1417.01173-.2775.01762-.4073.01762-.1181.00001-.242.00001-.3719 0z"/></g></svg>