<svg fill="none" height="30" viewBox="0 0 30 30" width="30" xmlns="http://www.w3.org/2000/svg" xmlns:xlink="http://www.w3.org/1999/xlink"><linearGradient id="a" gradientUnits="userSpaceOnUse" x1="26.3575" x2="20.0344" y1="32.6436" y2="21.4647"><stop offset="0" stop-color="#fb7655"/><stop offset=".41" stop-color="#e42b1e"/><stop offset=".99" stop-color="#900"/><stop offset="1" stop-color="#900"/></linearGradient><linearGradient id="b"><stop offset="0" stop-color="#871101"/><stop offset=".99" stop-color="#911209"/><stop offset="1" stop-color="#911209"/></linearGradient><linearGradient id="c" gradientUnits="userSpaceOnUse" x1="29.5098" x2="20.6233" xlink:href="#b" y1="23.2545" y2="21.5189"/><linearGradient id="d" gradientUnits="userSpaceOnUse" x1="22.9841" x2="22.8696" xlink:href="#b" y1="32.9815" y2="27.3439"/><linearGradient id="e" gradientUnits="userSpaceOnUse" x1="5.85968" x2="8.50267" y1="19.2918" y2="27.0404"><stop offset="0" stop-color="#fff"/><stop offset=".23" stop-color="#e57252"/><stop offset=".46" stop-color="#de3b20"/><stop offset=".99" stop-color="#a60003"/><stop offset="1" stop-color="#a60003"/></linearGradient><linearGradient id="f" gradientUnits="userSpaceOnUse" x1="14.5557" x2="15.0351" y1="11.6184" y2="20.0054"><stop offset="0" stop-color="#fff"/><stop offset=".23" stop-color="#e4714e"/><stop offset=".56" stop-color="#be1a0d"/><stop offset=".99" stop-color="#a80d00"/><stop offset="1" stop-color="#a80d00"/></linearGradient><linearGradient id="g" gradientUnits="userSpaceOnUse" x1="22.2736" x2="22.9746" y1="3.86573" y2="9.95702"><stop offset="0" stop-color="#fff"/><stop offset=".18" stop-color="#e46342"/><stop offset=".4" stop-color="#c82410"/><stop offset=".99" stop-color="#a80d00"/><stop offset="1" stop-color="#a80d00"/></linearGradient><linearGradient id="h" gradientUnits="userSpaceOnUse" x1="18.0145" x2="19.0028" y1="1.74723" y2="-2.4428"><stop offset="0" stop-color="#fff"/><stop offset=".54" stop-color="#c81f11"/><stop offset=".99" stop-color="#bf0905"/><stop offset="1" stop-color="#bf0905"/></linearGradient><linearGradient id="i" gradientUnits="userSpaceOnUse" x1=".591013" x2="3.17509" y1="17.1961" y2="18.8156"><stop offset="0" stop-color="#fff"/><stop offset=".31" stop-color="#de4024"/><stop offset=".99" stop-color="#bf190b"/><stop offset="1" stop-color="#bf190b"/></linearGradient><linearGradient id="j" gradientUnits="userSpaceOnUse" x1="-2.80953" x2="20.4134" y1="23.4893" y2="-.454309"><stop offset="0" stop-color="#bd0012"/><stop offset=".07" stop-color="#fff"/><stop offset=".17" stop-color="#fff"/><stop offset=".27" stop-color="#c82f1c"/><stop offset=".33" stop-color="#820c01"/><stop offset=".46" stop-color="#a31601"/><stop offset=".72" stop-color="#b31301"/><stop offset=".99" stop-color="#e82609"/><stop offset="1" stop-color="#e82609"/></linearGradient><linearGradient id="k" gradientUnits="userSpaceOnUse" x1="15.0016" x2="8.43046" y1="25.9009" y2="23.1414"><stop offset="0" stop-color="#8c0c01"/><stop offset=".54" stop-color="#990c00"/><stop offset=".99" stop-color="#a80d0e"/><stop offset="1" stop-color="#a80d0e"/></linearGradient><linearGradient id="l" gradientUnits="userSpaceOnUse" x1="27.0312" x2="20.262" y1="17.4928" y2="12.6855"><stop offset="0" stop-color="#7e110b"/><stop offset=".99" stop-color="#9e0c00"/><stop offset="1" stop-color="#9e0c00"/></linearGradient><linearGradient id="m" gradientUnits="userSpaceOnUse" x1="29.3176" x2="26.1341" y1="7.25998" y2="4.02884"><stop offset="0" stop-color="#79130d"/><stop offset=".99" stop-color="#9e120b"/><stop offset="1" stop-color="#9e120b"/></linearGradient><radialGradient id="n" cx="0" cy="0" gradientTransform="matrix(7.62489 0 0 7.62618 11.3973 12.0219)" gradientUnits="userSpaceOnUse" r="1"><stop offset="0" stop-color="#a80d00"/><stop offset=".99" stop-color="#7e0e08"/><stop offset="1" stop-color="#7e0e08"/></radialGradient><radialGradient id="o" cx="0" cy="0" gradientTransform="matrix(10.1363 0 0 10.138 8.73652 22.0722)" gradientUnits="userSpaceOnUse" r="1"><stop offset="0" stop-color="#a30c00"/><stop offset=".99" stop-color="#800e08"/><stop offset="1" stop-color="#800e08"/></radialGradient><linearGradient id="p" gradientUnits="userSpaceOnUse" x1="4.03797" x2="-1.66955" y1="29.8842" y2="25.1473"><stop offset="0" stop-color="#8b2114"/><stop offset=".43" stop-color="#9e100a"/><stop offset=".99" stop-color="#b3100c"/><stop offset="1" stop-color="#b3100c"/></linearGradient><linearGradient id="q" gradientUnits="userSpaceOnUse" x1="23.4145" x2="25.0348" y1="1.48438" y2="5.58257"><stop offset="0" stop-color="#b31000"/><stop offset=".44" stop-color="#910f08"/><stop offset=".99" stop-color="#791c12"/><stop offset="1" stop-color="#791c12"/></linearGradient><clipPath id="r"><path d="m0 0h30v30h-30z"/></clipPath><g clip-path="url(#r)" clip-rule="evenodd" fill-rule="evenodd"><path d="m23.2423 19.7501-17.12797 10.1723 22.17747-1.5052 1.7082-22.36642z" fill="url(#a)"/><path d="m28.3279 28.4009-1.9062-13.1587-5.1921 6.8572z" fill="url(#c)"/><path d="m28.3539 28.4011-13.9649-1.0964-8.20057 2.5883z" fill="url(#d)"/><path d="m6.2085 29.8956 3.48859-11.4308-7.67672 1.6418z" fill="url(#e)"/><path d="m21.2282 22.1381-3.21-12.5756-9.18637 8.6124z" fill="url(#f)"/><path d="m29.2715 9.73995-8.6836-7.09347-2.4181 7.81892z" fill="url(#g)"/><path d="m25.2103.115985-5.1072 2.822855-3.2221-2.860715z" fill="url(#h)"/><path d="m0 23.9405 2.13947-3.9026-1.730653-4.6492z" fill="url(#i)"/><path d="m.294815 15.2425 1.741265 4.94 7.56619-1.6978 8.63823-8.0294 2.4377-7.74451-3.8385-2.71079-6.5259 2.44274c-2.05609 1.91269-6.04587 5.69719-6.18971 5.76837-.14233.07269-2.63461 4.78399-3.829275 7.03139z" fill="#fff"/><path d="m6.40793 6.36826c4.45617-4.41904 10.20077-7.02987 12.40537-4.80521 2.2033 2.22466-.1332 7.63109-4.5894 12.04865-4.45608 4.4175-10.12958 7.1722-12.33266 4.9475-2.204595-2.2231.06057-7.7734 4.51669-12.19094z" fill="url(#j)"/><path d="m6.20827 29.8909 3.46133-11.4671 11.4954 3.6937c-4.1563 3.898-8.779 7.1934-14.95673 7.7734z" fill="url(#k)"/><path d="m18.2543 10.432 2.9511 11.6912c3.4719-3.6513 6.588-7.5766 8.1141-12.43179z" fill="url(#l)"/><path d="m29.2898 9.75163c1.181-3.56491 1.4536-8.67905-4.1156-9.628583l-4.5697 2.524513z" fill="url(#m)"/><path d="m0 23.8897c.163527 5.8836 4.40766 5.9713 6.21554 6.0229l-4.176-9.7544z" fill="#9e1209"/><path d="m18.2705 10.4502c2.6679 1.6401 8.0448 4.9339 8.1538 4.9945.1695.0954 2.3182-3.624 2.8057-5.72595z" fill="url(#n)"/><path d="m9.6646 18.4238 4.6272 8.929c2.7361-1.4842 4.8786-3.2924 6.841-5.2293z" fill="url(#o)"/><path d="m2.02115 20.1699-.65563 7.8083c1.23706 1.6901 2.93896 1.837 4.72413 1.7052-1.29156-3.2151-3.87166-9.6437-4.0685-9.5135z" fill="url(#p)"/><path d="m20.5768 2.66745 9.1924 1.29027c-.4906-2.07928-1.9972-3.421042-4.5651-3.840532z" fill="url(#q)"/></g></svg>