<svg fill="none" height="32" viewBox="0 0 36 32" width="36" xmlns="http://www.w3.org/2000/svg"><path clip-rule="evenodd" d="m10.4154 0c-.96877.00205978-1.91704.553421-2.4047 1.39454l-7.584702 13.21096c-.4800662.8433-.4800662 1.9457 0 2.789l7.584702 13.211c.48771.8411 1.43593 1.3926 2.4047 1.3945h15.1693c.9687-.0021 1.9169-.5534 2.4046-1.3945l7.5847-13.211c.4801-.8433.4801-1.9457 0-2.789l-7.5847-13.21096c-.4877-.841119-1.4359-1.3926347-2.4046-1.39454zm.1376 7.72854c.0209-.00206.0427-.00206.0636 0h2.6165c.1158.00241.2282.06952.286.17033l4.4386 7.93083c.0223.0392.0367.0829.0421.1277.0055-.0448.0199-.0885.0422-.1277l4.428-7.93083c.0596-.10386.1773-.17135.2966-.17033h2.6164c.2317.00206.4052.29467.2967.50034l-4.3326 7.77112 4.3326 7.7605c.1188.2068-.059.513-.2967.511h-2.6164c-.1214-.0011-.2397-.0732-.2966-.181l-4.428-7.9308c-.0223-.0392-.0367-.0829-.0422-.1278-.0054.0449-.0198.0886-.0421.1278l-4.4386 7.9308c-.0552.1047-.1681.1762-.286.181h-2.6165c-.2377.002-.4154-.3042-.2966-.511l4.3326-7.7605-4.3326-7.77112c-.1038-.18765.0229-.46028.233-.50034z" fill="#3498db" fill-rule="evenodd"/></svg>