<svg viewBox="0 0 89 88" fill="none" xmlns="http://www.w3.org/2000/svg" stroke-opacity=".5"><path fill="#F0F9FF" fill-opacity=".38" d="M.5 0h88v88H.5z"/><path fill="#D5EBFF" fill-opacity=".38" d="M7.5 7h74v74h-74z"/><path fill="#AED3F3" fill-opacity=".38" d="M14.5 14h60v60h-60z"/><path fill="#fff" d="M21.5 19h48v48h-48z"/><path d="M21 18c0 10.455-.541 35.25-.541 53.25" stroke="#4F5162" stroke-linecap="round"/><path d="M19.5 19.75c10.455 0 35.25.541 53.25.541M19.5 66.75c10.455 0 35.25.541 53.25.541" stroke="#4F5162" stroke-linecap="round"/><path d="M70.041 18.75C70.041 29.205 69.5 54 69.5 72M40.708 56.125c-3.784 1.923-5.5 2.89-9.208 4.958M40.485 51.043c-3.745-1.998-3.749-2.273-7.568-4.127M45.356 45.552c-1.607-3.928-1.474-4.687-3.231-8.552" stroke="#4F5162" stroke-linecap="round"/><path d="M52.75 57.223c1.628.409 2.233 2.152 2.45 3.61.386-4.912 5.564-3.947 5.564 2.126 1.457-8.664 4.736-4.166 4.736 1.343 0 3.769-1.869 10.449-8.426 11.562-13.423 2.28-12.8-24.863-9.79-24.863 1.58-.065 2.735 3.724 2.735 13.544.41-1.376-.184-8.054 2.73-7.322Z" fill="#fff"/><path d="M50.02 64.544c0-9.819-1.157-13.608-2.735-13.543-3.01 0-3.634 27.142 9.79 24.863 6.556-1.113 8.425-7.793 8.425-11.562 0-5.509-3.279-10.007-4.736-1.344 0-6.833-6.557-7.2-5.464 0 0 0 .364-5.003-2.55-5.735-2.915-.732-2.32 5.946-2.73 7.322Z" stroke="#4F5162" stroke-linecap="round" stroke-linejoin="round"/></svg>