<svg fill="none" height="201" width="320" xmlns="http://www.w3.org/2000/svg" xmlns:xlink="http://www.w3.org/1999/xlink"><clipPath id="a"><path d="m0 0h52v31.081h-52z" transform="translate(182.984 111.464)"/></clipPath><path d="m86.97 137.104c-10.234-1.969-17.019 6.741-22.674 14.362-7.903 6.542-6.157 10.486-5.56 11.794 3.839 8.405 8.818 23.282 22.322 25.074 7.986 1.06 22.553-10.934 27.086-19.637 3.641-6.991-5.773-16.419-7.704-19.692-4.477-7.587-7.06-10.668-13.47-11.901z" fill="#fff"/><g clip-rule="evenodd" fill-rule="evenodd"><path d="m74.898 138.108c2.075-2.074 8.381-.594 11.22 2.244 4.487 4.488 16.828 20.195 16.828 23.561 0 3.365-1.643 7.252-5.61 11.219-4.487 4.487-14.584 11.219-16.828 12.341s-4.488 1.122-11.22-7.854c-6.731-8.975-12.34-17.95-11.219-20.194.898-1.795 10.098-14.585 16.83-21.317zm-2.68 12.341 5.609 7.854 6.731-6.732c-1.122-2.244-3.814-6.731-5.61-6.731-1.794 0-5.235 3.739-6.73 5.609zm10.096 13.463 7.854-6.731c1.496 1.87 4.488 5.834 4.488 6.731 0 2.706-2.175 4.687-4.194 6.525-.493.449-.976.889-1.416 1.329zm1.122 12.342-5.61-7.854-6.73 5.61c.153.308.308.637.468.979v.001c1.004 2.146 2.238 4.784 5.14 5.751 1.704.568 5.985-2.992 6.732-4.487zm-10.096-13.464-5.61-7.853-.25.262v.001c-1.857 1.941-5.258 5.498-3.115 8.712l.001.002c1.208 1.812 2.243 3.365 3.365 4.486l5.61-5.61z" fill="#fcfeff" opacity=".5"/><path d="m85.368 141.152c-4.388-4.389-9.5-3.149-11.536-1.113-3.489 3.488-11.08 13.296-13.294 16.619-2.458 3.687-1.069 7.317.03 9.517l-.314.157.315-.157c1.283 2.566 3.605 6.273 5.838 9.571 2.242 3.311 4.348 6.144 5.199 6.994.31.311.638.662.966 1.012.25.268.5.535.743.785.583.6 1.184 1.165 1.841 1.625 1.294.906 2.817 1.415 4.88.899 1.03-.258 2.399-.95 3.977-1.958 1.569-1.002 3.307-2.291 5.07-3.709 3.528-2.835 7.132-6.162 9.642-8.671 2.67-2.67 3.179-5.299 2.918-7.519-.237-2.011-1.105-3.706-1.695-4.859a38.228 38.228 0 0 1 -.204-.402c-.23-.459-.957-1.58-2.018-3.108a194.7 194.7 0 0 0 -3.874-5.354c-2.937-3.925-6.286-8.132-8.484-10.329zm-12.243-1.821c2.416-2.416 8.16-3.676 12.95 1.114 2.255 2.254 5.642 6.513 8.578 10.437a196.24 196.24 0 0 1 3.894 5.382c1.05 1.511 1.823 2.696 2.092 3.232.058.118.125.247.196.387.588 1.145 1.542 3.002 1.801 5.205.295 2.51-.309 5.447-3.204 8.342-2.53 2.53-6.161 5.882-9.722 8.743-1.78 1.431-3.549 2.744-5.158 3.773-1.6 1.021-3.08 1.786-4.274 2.085-2.39.597-4.206-.007-5.695-1.049-.734-.514-1.386-1.131-1.985-1.748-.278-.287-.534-.561-.782-.826-.308-.33-.604-.648-.917-.961-.931-.93-3.091-3.848-5.32-7.141-2.238-3.306-4.59-7.057-5.904-9.684-1.127-2.253-2.75-6.347.03-10.519 2.238-3.355 9.869-13.221 13.42-16.772z" fill="#000"/><path d="m92.386 139.812c-4.396-4.396-9.067-3.589-12.132-2.976-2.716.544-4.309 1.349-5.629 2.405-.668.534-1.275 1.14-1.932 1.832-.189.198-.382.404-.581.618-.491.523-1.022 1.089-1.62 1.687l-.707-.707c.586-.586 1.099-1.133 1.585-1.652.203-.216.4-.427.598-.635.665-.699 1.31-1.346 2.033-1.924 1.463-1.17 3.209-2.035 6.057-2.604 3.11-.622 8.253-1.533 13.035 3.249 2.254 2.254 5.642 6.513 8.578 10.438a194.503 194.503 0 0 1 3.894 5.382c1.049 1.51 1.823 2.695 2.091 3.232.059.118.126.247.197.386.588 1.145 1.541 3.002 1.801 5.205.295 2.511-.309 5.447-3.204 8.342-2.52 2.52-6.233 6.205-9.875 9.4-1.821 1.597-3.632 3.079-5.273 4.234-1.628 1.145-3.137 2.005-4.346 2.307-4.482 1.121-7.97 1.158-10.362-.038l.447-.894c2.06 1.03 5.25 1.068 9.672-.038 1.018-.254 2.4-1.019 4.013-2.155 1.6-1.126 3.382-2.582 5.19-4.168 3.615-3.171 7.307-6.835 9.827-9.355 2.67-2.67 3.179-5.299 2.917-7.518-.236-2.011-1.104-3.706-1.694-4.86a55.948 55.948 0 0 1 -.204-.401c-.23-.459-.957-1.581-2.018-3.109a192.966 192.966 0 0 0 -3.874-5.353c-2.937-3.926-6.286-8.132-8.484-10.33z" fill="#000"/><path d="m77.19 145.438c.61-.388 1.26-.687 1.854-.687.635 0 1.255.384 1.793.854.556.485 1.117 1.144 1.641 1.853 1.052 1.421 2.013 3.117 2.578 4.248l.161.322-7.35 7.35-6.128-8.579.236-.295c.753-.942 1.995-2.353 3.28-3.534.642-.59 1.306-1.134 1.934-1.532zm-4.196 5.398 5 7.001 6.004-6.005c-.559-1.079-1.41-2.545-2.323-3.779-.505-.682-1.016-1.276-1.496-1.695-.498-.435-.88-.607-1.135-.607-.297 0-.742.165-1.319.531-.558.355-1.174.855-1.793 1.424-1.112 1.022-2.199 2.232-2.938 3.13zm-5.026 3.649 6.163 8.629-6.218 6.218-.353-.354c-1.148-1.147-2.198-2.722-3.378-4.492l-.024-.036c-1.265-1.897-.78-3.881.155-5.532.845-1.494 2.115-2.82 2.989-3.733l.249-.261zm-2.785 4.925c-.85 1.503-1.154 3.043-.193 4.485 1.077 1.616 1.988 2.979 2.931 4.014l4.904-4.903-4.968-6.955c-.86.902-1.943 2.069-2.674 3.359zm25.058-2.632.323.404a78.277 78.277 0 0 1 2.802 3.727c.468.668.894 1.314 1.206 1.856.156.27.288.523.383.744.088.205.171.444.171.664 0 1.849-.927 3.355-2.074 4.645-.574.646-1.217 1.252-1.844 1.828l-.41.374c-.488.444-.956.87-1.383 1.298l-.382.381-7.355-8.58zm-7.153 7.449 6.006 7.007c.336-.321.688-.642 1.04-.963l.398-.362c.624-.573 1.234-1.15 1.773-1.755 1.08-1.215 1.821-2.491 1.821-3.981v.001s-.001-.02-.015-.067a1.765 1.765 0 0 0 -.075-.204 6.362 6.362 0 0 0 -.33-.639 25.777 25.777 0 0 0 -1.16-1.782 76.52 76.52 0 0 0 -2.44-3.27zm-5.064 3.669 6.054 8.475-.135.269c-.223.445-.674.99-1.212 1.53-.548.55-1.22 1.13-1.924 1.644-.701.512-1.448.97-2.142 1.265-.667.284-1.399.466-2.006.264-1.808-.603-3.001-1.808-3.875-3.119-.628-.942-1.113-1.978-1.536-2.882a39.63 39.63 0 0 0 -.443-.928l-.177-.354zm-6.15 6.427c.104.216.207.437.312.66.413.885.847 1.812 1.43 2.686.796 1.194 1.829 2.215 3.36 2.725.237.079.67.032 1.298-.235.6-.255 1.278-.667 1.943-1.153a15.636 15.636 0 0 0 1.806-1.542c.39-.392.69-.745.877-1.022l-5.063-7.088zm28.043-2.286a.5.5 0 0 1 .251-.662l8.283-3.729a.501.501 0 0 1 .411.912l-8.284 3.729a.5.5 0 0 1 -.661-.25zm2.724-5.635a.5.5 0 0 1 .209-.675l6.37-3.356a.5.5 0 1 1 .466.885l-6.37 3.355a.5.5 0 0 1 -.675-.209zm-.796-5.145a.5.5 0 0 1 .209-.676l4.777-2.517a.5.5 0 0 1 .466.885l-4.777 2.517a.5.5 0 0 1 -.675-.209zm-9.08-12.06a.5.5 0 0 1 .21-.676l4.777-2.516a.5.5 0 1 1 .466.884l-4.777 2.517a.5.5 0 0 1 -.676-.209zm2.48 4.258a.5.5 0 0 1 .21-.675l5.482-2.888a.5.5 0 1 1 .466.885l-5.482 2.888a.5.5 0 0 1 -.676-.21zm2.297 3.659a.5.5 0 0 1 .21-.675l5.573-2.936a.5.5 0 1 1 .466.885l-5.573 2.936a.5.5 0 0 1 -.675-.21zm-14.331-18.296a.5.5 0 0 1 .21-.676l4.08-2.15a.5.5 0 0 1 .467.885l-4.081 2.15a.5.5 0 0 1 -.676-.209zm4.082 3.415a.5.5 0 0 1 .209-.676l4.677-2.464a.5.5 0 0 1 .466.885l-4.677 2.464a.5.5 0 0 1 -.675-.209zm3.084 3.244a.5.5 0 0 1 .21-.675l4.776-2.517a.5.5 0 1 1 .466.885l-4.777 2.516a.5.5 0 0 1 -.675-.209zm-6.422 39.964a.5.5 0 0 1 .42-.568l7.963-1.195a.5.5 0 1 1 .148.989l-7.962 1.195a.5.5 0 0 1 -.569-.421zm3.996-3.119a.5.5 0 0 1 .34-.62l10.35-3.017a.5.5 0 0 1 .28.96l-10.35 3.017a.5.5 0 0 1 -.62-.34zm6.385-4.731a.5.5 0 0 1 .279-.65 86.33 86.33 0 0 1 3.795-1.403c.381-.134.75-.263 1.115-.394a37.753 37.753 0 0 0 4.604-1.963.5.5 0 1 1 .451.892 38.775 38.775 0 0 1 -4.717 2.012c-.376.135-.751.266-1.137.401-1.099.385-2.275.797-3.74 1.384a.501.501 0 0 1 -.65-.279z" fill="#000"/><path d="m167.794 138.235a.5.5 0 0 1 -.295.643c-12.627 4.67-32.017 11.662-44.69 16.201a.5.5 0 0 1 -.338-.941c12.673-4.54 32.059-11.53 44.681-16.198a.499.499 0 0 1 .642.295z" fill="#9293ab"/><path d="m151.006 141.169a.5.5 0 0 1 .373-.601l.524-.125c1.362-.328 4.671-1.124 7.886-1.767 1.886-.377 3.756-.705 5.19-.855.714-.074 1.343-.107 1.821-.073.236.016.465.051.658.121.179.065.437.202.542.495l.055.153-.045.156c-.1.34-.31.658-.567.951a7.112 7.112 0 0 1 -.968.883c-.751.583-1.724 1.187-2.775 1.787-.968.553-2.017 1.112-3.04 1.656l-.269.144c-1.111.591-2.177 1.163-3.079 1.699a.5.5 0 0 1 -.511-.86c.926-.55 2.012-1.132 3.12-1.722l.267-.142c1.025-.546 2.062-1.098 3.016-1.643 1.04-.594 1.964-1.169 2.658-1.709.347-.269.626-.522.83-.754.064-.073.119-.142.165-.206a1.973 1.973 0 0 0 -.127-.012c-.39-.027-.95-.002-1.647.071-1.386.145-3.219.465-5.098.841-3.192.638-6.472 1.427-7.843 1.757l-.535.128a.5.5 0 0 1 -.601-.373zm16.142-2.346-.005-.003zm-49.897 4.255a.5.5 0 0 1 .295-.642c7.078-2.618 16.094-5.683 24.876-8.669 6.867-2.334 13.591-4.62 19.135-6.606a.5.5 0 1 1 .337.941c-5.586 2.001-12.319 4.29-19.184 6.624-8.758 2.977-17.733 6.028-24.817 8.648a.5.5 0 0 1 -.642-.296z" fill="#9293ab"/><path d="m134.04 140.146a.5.5 0 0 1 -.373.601l-.524.125c-1.363.328-4.671 1.123-7.887 1.766-1.886.377-3.756.705-5.19.855-.713.075-1.343.108-1.82.074a2.458 2.458 0 0 1 -.659-.122c-.179-.065-.437-.201-.542-.495l-.055-.153.046-.156c.099-.34.31-.658.567-.95.26-.296.591-.591.967-.883.751-.584 1.724-1.188 2.775-1.788.968-.553 2.018-1.111 3.04-1.656l.269-.143c1.111-.592 2.177-1.164 3.08-1.699a.5.5 0 1 1 .51.86c-.926.549-2.012 1.132-3.119 1.721l-.267.143c-1.026.546-2.062 1.097-3.017 1.642-1.039.594-1.963 1.17-2.658 1.709-.346.27-.625.522-.829.754-.065.073-.12.142-.166.207.039.004.081.008.128.011.389.028.949.002 1.646-.071 1.387-.144 3.219-.465 5.098-.84 3.192-.639 6.473-1.428 7.843-1.757l.536-.128a.5.5 0 0 1 .601.373zm-16.143 2.346.006.003z" fill="#9293ab"/><path d="m243.932 95.657a.5.5 0 0 1 -.5-.5c0-.702-.003-1.406-.006-2.113-.013-2.989-.026-6.013.232-9.022.104-1.202.236-2.651.647-4.009.413-1.363 1.12-2.68 2.403-3.58 2.118-1.485 4.587-1.755 6.997-1.815a84.89 84.89 0 0 1 1.715-.02c1.836-.008 3.595-.016 5.231-.425 1.041-.26 1.735-.79 2.213-1.482.487-.706.767-1.605.918-2.616.151-1.01.168-2.095.156-3.154l-.015-.87c-.015-.739-.03-1.451-.001-2.064a.5.5 0 1 1 .999.046c-.027.578-.014 1.238.001 1.962.006.295.012.6.016.914.012 1.07-.004 2.221-.167 3.314-.163 1.09-.477 2.157-1.084 3.036-.616.893-1.517 1.566-2.794 1.885-1.764.44-3.691.448-5.551.456a78.85 78.85 0 0 0 -1.612.018c-2.378.059-4.587.329-6.447 1.633-1.037.727-1.646 1.814-2.021 3.052-.376 1.243-.503 2.592-.607 3.805-.255 2.96-.242 5.927-.229 8.913.003.711.006 1.423.006 2.137a.5.5 0 0 1 -.5.5z" fill="#000"/><path d="m240.672 96.498a.5.5 0 0 1 .052-.705l.074-.063c-.063-.264-.117-.54-.162-.81a30.011 30.011 0 0 1 -.196-1.426c-.046-.382-.08-.664-.112-.822-.328-1.598-.529-3.276-.725-4.912-.085-.708-.168-1.409-.261-2.092a.517.517 0 0 1 .286-.535.537.537 0 0 1 .365-.033h.002a.965.965 0 0 1 .233.102c.119.069.275.176.445.3.347.25.813.614 1.292.996.959.766 1.995 1.628 2.284 1.874.449.383 1.088.712 1.754.99.505.21.995.38 1.406.523l.366.128c.212.076.432.158.572.241a.78.78 0 0 1 .145.108.534.534 0 0 1 -.011.802.654.654 0 0 1 -.22.121 1.56 1.56 0 0 1 -.328.062c-.118.012-.261.02-.43.026l-.208.006a.51.51 0 0 1 .085.238c.012.136-.033.242-.044.27l-.001.001c-.033.08-.084.154-.12.206-.155.22-.479.59-.852.994-.753.815-1.812 1.878-2.412 2.375.001 0 .001 0 0 0l-.025.024c-.018.018-.042.041-.07.071-.058.06-.13.138-.214.228-.136.148-.296.325-.459.505l-.11.121c-.198.219-.395.435-.545.595-.075.08-.144.15-.198.203a1.378 1.378 0 0 1 -.093.081.519.519 0 0 1 -.228.109.504.504 0 0 1 -.381-.073 1.386 1.386 0 0 1 -.418-.467 2.583 2.583 0 0 1 -.101-.192.498.498 0 0 1 -.437-.17zm1.27-.426.027.068.335-.368zm4.403-4.689c-.083 0-.169 0-.259-.002a.5.5 0 0 1 -.161-.972c-.102-.04-.204-.081-.307-.124-.695-.29-1.449-.667-2.018-1.151-.28-.24-1.308-1.095-2.259-1.854a49.27 49.27 0 0 0 -.871-.683l.132 1.093c.193 1.617.386 3.225.705 4.781a12.838 12.838 0 0 1 .134.971c.049.403.106.862.181 1.312l.044.248c1.193-.98 2.423-1.91 3.646-2.836.333-.251.665-.503.995-.754zm-182.538 39.57a.5.5 0 0 1 -.707.03c-.517-.474-1.038-.948-1.562-1.423-2.212-2.009-4.451-4.042-6.495-6.266-.817-.888-1.796-1.965-2.519-3.185-.726-1.225-1.22-2.636-1.016-4.191.335-2.564 1.804-4.567 3.388-6.385.38-.436.764-.859 1.144-1.277 1.234-1.36 2.416-2.662 3.22-4.144.512-.943.59-1.813.402-2.634-.19-.835-.665-1.65-1.308-2.444-.643-.793-1.431-1.539-2.22-2.245-.218-.194-.436-.386-.652-.576-.555-.488-1.09-.959-1.523-1.394a.5.5 0 1 1 .709-.705c.408.41.904.846 1.447 1.324.221.195.45.396.685.606.797.713 1.636 1.503 2.33 2.361.695.857 1.269 1.809 1.507 2.851.242 1.057.13 2.176-.498 3.333-.867 1.598-2.162 3.024-3.414 4.401-.366.403-.728.802-1.075 1.2-1.563 1.794-2.856 3.605-3.15 5.858-.165 1.255.225 2.438.884 3.551.663 1.118 1.572 2.123 2.395 3.019 2.01 2.186 4.208 4.182 6.418 6.189.526.478 1.054.957 1.58 1.439a.5.5 0 0 1 .03.707z" fill="#000"/><path d="m62.224 133.924a.5.5 0 0 1 -.484-.515c0-.033.002-.065.003-.097a12.309 12.309 0 0 1 -.707-.428 30.218 30.218 0 0 1 -1.128-.779l-.055-.04a13.43 13.43 0 0 0 -.682-.472c-1.4-.838-2.773-1.823-4.112-2.784-.58-.416-1.152-.828-1.718-1.221a.518.518 0 0 1 -.202-.572c.056-.184.195-.274.222-.292l.002-.001a.986.986 0 0 1 .233-.103 5.71 5.71 0 0 1 .52-.126c.42-.086 1.003-.184 1.609-.279 1.212-.19 2.548-.371 2.924-.418.586-.073 1.26-.321 1.915-.625.496-.229.953-.476 1.336-.683l.34-.183c.2-.105.41-.212.566-.26a.807.807 0 0 1 .177-.034.533.533 0 0 1 .583.55.64.64 0 0 1 -.058.244 1.531 1.531 0 0 1 -.177.284 6.65 6.65 0 0 1 -.27.335l-.137.157c.102.015.181.059.233.098.108.083.157.188.17.215v.001c.035.079.057.166.07.227.058.264.112.753.157 1.3.093 1.106.16 2.606.122 3.384 0-.001 0-.001 0 0v.034l.006.1c.005.083.014.189.024.312.017.2.04.437.062.679l.015.163c.028.294.054.585.07.804.008.109.014.207.016.283 0 .035 0 .08-.002.123a.512.512 0 0 1 -.386.474 1.403 1.403 0 0 1 -.626-.007 2.417 2.417 0 0 1 -.21-.056.501.501 0 0 1 -.42.208zm.544-1.225.068.026a71.97 71.97 0 0 0 -.045-.496 59.14 59.14 0 0 0 -.023.47zm-.483-6.414-.176.19a.5.5 0 0 1 -.825-.538c-.099.048-.199.096-.3.143-.683.316-1.47.617-2.212.709-.365.046-1.69.226-2.893.414a49.56 49.56 0 0 0 -1.091.181l.895.641c1.322.949 2.638 1.894 4.001 2.71.176.105.44.294.727.5l.08.057c.33.236.707.505 1.089.753l.213.135c.084-1.541.228-3.077.372-4.604a429.88 429.88 0 0 0 .12-1.291z" fill="#000"/></g><path d="m190.794 53.102c-.312-.173-.485-.364-.52-.572-.017-.208.104-.572.364-1.092s.667-1.326 1.222-2.418c.416-.78.728-1.387.936-1.82.225-.45.373-.771.442-.962.087-.19.13-.312.13-.364-.035-.156-.017-.277.052-.364a.763.763 0 0 1 .338-.26 8.64 8.64 0 0 0 .416-.468c.208-.225.399-.494.572-.806.156-.364.338-.736.546-1.118.208-.381.485-.858.832-1.43.347-.59.797-1.352 1.352-2.288a31.77 31.77 0 0 1 1.144-1.846c.416-.641.858-1.274 1.326-1.898.191-.242.364-.433.52-.572.156-.156.312-.225.468-.208.208 0 .442.07.702.208.277.139.529.32.754.546s.39.468.494.728c.087.139.121.434.104.884s-.052.997-.104 1.638a152.41 152.41 0 0 1 -.182 2.054 76.55 76.55 0 0 1 -.234 2.522c-.104.97-.208 1.985-.312 3.042-.087 1.057-.156 2.08-.208 3.068-.052.97-.052 1.82 0 2.548a1.92 1.92 0 0 1 0 .442 2.919 2.919 0 0 0 -.026.338c-.104.104-.277.148-.52.13-.225 0-.451-.052-.676-.156-.208-.104-.329-.234-.364-.39a.393.393 0 0 1 -.104-.208c0-.104.009-.312.026-.624s.035-.806.052-1.482l.13-4.212-.338.026c-.156 0-.451.017-.884.052a24.92 24.92 0 0 0 -1.404.156c-.503.052-.971.113-1.404.182-.416.052-.702.104-.858.156-.156 0-.347.104-.572.312a3.907 3.907 0 0 0 -.598.806 2.71 2.71 0 0 1 -.39.78c-.173.26-.26.434-.26.52-.121.087-.225.19-.312.312a34.08 34.08 0 0 1 -.104.182c0 .104-.087.364-.26.78-.156.399-.355.85-.598 1.352-.243.486-.485.91-.728 1.274l-.546.832zm5.382-8.372.26-.052c.191-.034.407-.07.65-.104.26-.052.494-.078.702-.078a23.806 23.806 0 0 1 1.586-.338c.329-.07.555-.104.676-.104.139 0 .26.026.364.078.069.087.13.139.182.156l.104.026c.017-.035.043-.234.078-.598l.13-1.352c.069-.537.13-1.092.182-1.664.069-.59.121-1.127.156-1.612l.078-1.144c.017-.33.035-.624.052-.884l.026-.416c-.104 0-.329.19-.676.572-.329.381-.702.884-1.118 1.508a20.243 20.243 0 0 0 -1.17 2.002c-.173.33-.338.624-.494.884s-.277.39-.364.39c-.035.035-.139.19-.312.468-.156.26-.329.563-.52.91-.191.33-.347.633-.468.91-.121.26-.156.408-.104.442zm18.315 8.892a.992.992 0 0 1 -.624-.156.844.844 0 0 1 -.364-.416 7.328 7.328 0 0 1 -.312-.442 1.602 1.602 0 0 1 -.26-.624 26.598 26.598 0 0 1 -.104-1.612c0-.52.026-1.248.078-2.184.052-.763.147-1.5.286-2.21.156-.728.303-1.378.442-1.95.156-.572.277-1.023.364-1.352.087-.346.104-.52.052-.52-.069 0-.173.13-.312.39a13.72 13.72 0 0 0 -.468.91l-.52 1.092c-.173.347-.321.633-.442.858-.243.538-.529 1.11-.858 1.716-.312.59-.633 1.161-.962 1.716s-.615 1.04-.858 1.456a5.773 5.773 0 0 0 -.546.754 51.06 51.06 0 0 1 -.676.988 4.686 4.686 0 0 1 -.754.858c-.381.364-.763.564-1.144.598a1.196 1.196 0 0 1 -.936-.286 5.577 5.577 0 0 1 -.182-.26 1.189 1.189 0 0 1 -.104-.91 11.888 11.888 0 0 1 0-1.118c.035-.52.087-1.083.156-1.69.069-.624.139-1.222.208-1.794.087-.572.165-1.048.234-1.43.156-1.11.364-2.244.624-3.406.277-1.161.529-2.331.754-3.51.139-.346.26-.736.364-1.17.121-.45.243-.867.364-1.248.017-.381.104-.633.26-.754a.531.531 0 0 1 .52-.13.726.726 0 0 1 .494.312c.173.174.303.442.39.806.104.364.035.823-.208 1.378-.347.85-.685 1.89-1.014 3.12-.312 1.213-.598 2.687-.858 4.42-.069.416-.147.91-.234 1.482a72.426 72.426 0 0 0 -.234 1.664c-.069.537-.121.988-.156 1.352-.017.364-.009.555.026.572.139.035.329-.07.572-.312.243-.26.459-.598.65-1.014a89.588 89.588 0 0 0 2.106-3.692c.711-1.3 1.387-2.583 2.028-3.848.295-.503.589-1.049.884-1.638.312-.606.607-1.161.884-1.664.295-.52.563-.988.806-1.404.243-.433.451-.788.624-1.066.173-.277.312-.433.416-.468.277.017.511.087.702.208.208.104.381.33.52.676.035.087.026.234-.026.442s-.113.39-.182.546c-.017.121-.095.373-.234.754-.121.382-.234.806-.338 1.274a22.64 22.64 0 0 0 -.468 1.404c-.121.45-.208.823-.26 1.118a59.848 59.848 0 0 1 -.52 2.47 47.99 47.99 0 0 0 -.546 2.652 17.66 17.66 0 0 0 -.234 2.34c-.017.486-.017.867 0 1.144a2.4 2.4 0 0 0 .156.65c.035.139.139.226.312.26a.452.452 0 0 0 .468-.182 23.193 23.193 0 0 0 1.612-2.262 27 27 0 0 0 .702-1.274c.433-.797.875-1.681 1.326-2.652.468-.988.91-1.967 1.326-2.938.433-.97.806-1.82 1.118-2.548.329-.936.589-1.681.78-2.236.208-.554.39-.97.546-1.248.156-.277.321-.468.494-.572a.57.57 0 0 1 .364-.104c.156 0 .312.07.468.208.069.07.13.182.182.338a.979.979 0 0 1 .078.52c-.087.277-.243.72-.468 1.326a64.518 64.518 0 0 1 -.728 2.002c-.277.728-.546 1.422-.806 2.08a25.39 25.39 0 0 1 -.676 1.586c-.191.364-.373.676-.546.936s-.26.46-.26.598c0 .07-.087.286-.26.65-.173.347-.399.772-.676 1.274a36.56 36.56 0 0 1 -.858 1.56 68.788 68.788 0 0 1 -.884 1.482c-.277.45-.511.797-.702 1.04-.433.538-.858.98-1.274 1.326-.399.347-.745.598-1.04.754s-.503.234-.624.234zm8.923-.052c-.156-.07-.338-.208-.546-.416a2.719 2.719 0 0 1 -.832-.832c-.191-.294-.303-.72-.338-1.274 0-.087.078-.225.234-.416.156-.208.355-.372.598-.494.243-.121.494-.087.754.104a5.489 5.489 0 0 0 -.234.91.732.732 0 0 0 .208.598c.156.139.459.26.91.364.295.07.572.096.832.078.277-.017.607-.06.988-.13.399-.034.745-.07 1.04-.104.312-.035.529-.112.65-.234.485-.19.927-.433 1.326-.728.416-.294.693-.59.832-.884.208-.277.321-.494.338-.65a8.55 8.55 0 0 0 .026-.806 6.673 6.673 0 0 0 -.078-.832 2.185 2.185 0 0 0 -.182-.676c-.104-.26-.286-.65-.546-1.17 0-.104-.13-.303-.39-.598-.26-.294-.511-.58-.754-.858-.121-.277-.277-.59-.468-.936-.173-.346-.381-.598-.624-.754a2.038 2.038 0 0 1 -.208-.468c-.069-.208-.13-.32-.182-.338l-.078-.13a16.38 16.38 0 0 0 -.13-.312c-.243-.52-.269-1.153-.078-1.898s.572-1.447 1.144-2.106c.139-.225.347-.485.624-.78.295-.312.572-.58.832-.806.277-.225.451-.338.52-.338l.156-.052a2.59 2.59 0 0 0 .442-.26c.208-.052.425-.13.65-.234.243-.104.477-.156.702-.156.312-.104.546-.173.702-.208.156-.052.312-.07.468-.052.156 0 .399.017.728.052.451.121.806.295 1.066.52.26.208.442.486.546.832l.182 1.118-1.092.806c-.208.07-.442.104-.702.104s-.485-.008-.676-.026l-.26-.052c-.104 0-.147-.052-.13-.156s.087-.156.208-.156a.997.997 0 0 0 .208-.234 4.72 4.72 0 0 1 .416-.416c.191-.33.234-.529.13-.598-.087-.087-.433-.095-1.04-.026a4.034 4.034 0 0 0 -1.742.468 3.703 3.703 0 0 0 -1.404 1.248c-.451.382-.771.772-.962 1.17-.191.399-.286.745-.286 1.04.035.122.087.295.156.52.069.208.165.434.286.676a60.677 60.677 0 0 0 1.586 2.158c.329.416.494.668.494.754v.13c.017 0 .087.113.208.338.139.226.269.468.39.728.121.243.182.399.182.468l.052.156c.052.087.113.217.182.39.069.052.13.252.182.598.052.347.095.71.13 1.092.052.382.078.676.078.884s-.052.434-.156.676c-.104.225-.234.45-.39.676a6.053 6.053 0 0 1 -.52.65 7.622 7.622 0 0 1 -.884.78c-.399.295-.823.572-1.274.832-.433.278-.841.46-1.222.546-.26.104-.598.182-1.014.234a9.49 9.49 0 0 1 -1.248.13c-.416.017-.789 0-1.118-.052-.312-.035-.511-.095-.598-.182zm18.447.13a1.256 1.256 0 0 0 -.39-.13 1.131 1.131 0 0 1 -.416-.182.419.419 0 0 1 -.208-.338 9.501 9.501 0 0 0 -.052-.156c0-.052.026-.173.078-.364.052-.173.13-.468.234-.884.104-.346.191-.65.26-.91.087-.26.13-.407.13-.442.07.035.139.018.208-.052.07-.07.104-.251.104-.546-.017-.07 0-.182.052-.338.07-.156.148-.312.234-.468a7.1 7.1 0 0 1 .052-.494l.156-.832c.243-.815.494-1.534.754-2.158.278-.624.486-1.075.624-1.352 0-.035.026-.13.078-.286s.113-.312.182-.468c.07-.173.122-.286.156-.338.018-.156.061-.355.13-.598.087-.26.182-.502.286-.728.122-.242.234-.407.338-.494 0-.104.044-.277.13-.52.087-.242.191-.494.312-.754.122-.277.234-.511.338-.702.104-.19.165-.286.182-.286l.026-.156c.035-.104.139-.268.312-.494l.026-.26a.67.67 0 0 1 .26-.416c.07-.26.113-.433.13-.52.018-.104-.008-.173-.078-.208-.156-.45-.017-.684.416-.702.104 0 .226-.147.364-.442.087-.156.252-.251.494-.286.26-.035.642-.104 1.144-.208.33-.052.642-.104.936-.156l.442-.078c.243 0 .555.017.936.052.399.035.711.078.936.13.624.295 1.101.667 1.43 1.118.33.45.52.876.572 1.274.035.208 0 .52-.104.936-.086.399-.208.824-.364 1.274-.138.45-.303.858-.494 1.222-.173.347-.338.58-.494.702.087-.017.052.078-.104.286a4.962 4.962 0 0 1 -.598.65c-.225.208-.398.33-.52.364l-.182.338a1.294 1.294 0 0 1 -.52.494 8.933 8.933 0 0 0 -.676.442 2.054 2.054 0 0 0 -.546.546c0-.138-.043-.182-.13-.13a.913.913 0 0 0 -.286.208c-.104.087-.19.148-.26.182a8.236 8.236 0 0 1 -1.17.598 6.454 6.454 0 0 1 -1.092.312c-.086.07-.225.113-.416.13a5.188 5.188 0 0 1 -.52.026l-.884-.13-.546 1.482a39.17 39.17 0 0 1 -.598 1.846l-.52 1.612c-.173.52-.364 1.127-.572 1.82-.069.468-.173.772-.312.91-.138.139-.268.156-.39.052zm3.536-9.1c.642 0 1.196-.07 1.664-.208a4.454 4.454 0 0 0 1.3-.598c.399-.277.772-.58 1.118-.91.139-.139.33-.346.572-.624.243-.277.494-.572.754-.884.278-.33.512-.624.702-.884.278-.381.477-.806.598-1.274.122-.485.191-.927.208-1.326.018-.416-.026-.71-.13-.884-.225-.33-.546-.52-.962-.572a3.06 3.06 0 0 0 -1.248.052 4.697 4.697 0 0 0 -1.17.442c-.086.035-.242.234-.468.598-.208.364-.45.824-.728 1.378a61.25 61.25 0 0 0 -.806 1.742 66.84 66.84 0 0 0 -.728 1.768 31.437 31.437 0 0 0 -.546 1.43c-.121.399-.164.65-.13.754zm8.396 6.734a1.306 1.306 0 0 1 -.338-.364c-.052-.121-.052-.355 0-.702.052-.485.122-.91.208-1.274.087-.381.191-.815.312-1.3.035-.208.13-.563.286-1.066.174-.502.382-1.048.624-1.638.243-.59.486-1.144.728-1.664.243-.537.451-.936.624-1.196a.692.692 0 0 1 .494-.13.804.804 0 0 1 .52.234c.191.156.217.433.078.832-.121.381-.381.988-.78 1.82-.208.468-.364.823-.468 1.066-.104.226-.147.364-.13.416.018.035.096.009.234-.078.104-.19.295-.407.572-.65.278-.26.572-.511.884-.754.312-.242.607-.46.884-.65a6.13 6.13 0 0 1 .572-.364c.139-.087.295-.156.468-.208.191-.07.321-.121.39-.156.399-.19.806-.26 1.222-.208s.676.208.78.468c.018.139.07.243.156.312l.156.104c.07 0 .104.026.104.078l.026.078c0 .121-.095.2-.286.234-.173.018-.398.035-.676.052-.225.018-.424.06-.598.13-.173.07-.381.156-.624.26-.658.382-1.291.754-1.898 1.118-.589.364-1.161.85-1.716 1.456a4.18 4.18 0 0 0 -.364.494c-.121.19-.251.399-.39.624-.086.087-.173.278-.26.572-.086.295-.164.58-.234.858-.052.26-.078.416-.078.468l-.078.26a1.57 1.57 0 0 1 -.26.468c-.208.277-.381.416-.52.416-.138 0-.346-.139-.624-.416zm10.669.52c-.225 0-.407-.043-.546-.13a9.776 9.776 0 0 1 -.468-.364c-.329-.346-.563-.676-.702-.988-.138-.33-.182-.641-.13-.936a.78.78 0 0 0 .052-.39v-.208c-.086-.087-.112-.139-.078-.156a.578.578 0 0 0 .104-.156c.104 0 .139-.095.104-.286-.034-.139.035-.442.208-.91.174-.468.39-.91.65-1.326.104-.173.26-.398.468-.676.208-.295.434-.58.676-.858.26-.294.494-.529.702-.702.434-.364.815-.633 1.144-.806.33-.173.685-.303 1.066-.39.382-.087.642-.13.78-.13.156 0 .364.139.624.416.399.174.685.382.858.624.191.243.312.598.364 1.066.052.52.009 1.118-.13 1.794-.121.659-.528 1.482-1.222 2.47-.433.624-.832 1.092-1.196 1.404-.364.295-.797.59-1.3.884a5.805 5.805 0 0 1 -.988.546 4.23 4.23 0 0 1 -1.04.208zm2.496-2.756c.416-.468.746-.91.988-1.326.26-.416.503-.944.728-1.586.07-.19.113-.425.13-.702a3.968 3.968 0 0 0 -.026-.806c-.017-.26-.078-.407-.182-.442-.208-.121-.459-.156-.754-.104-.294.035-.615.2-.962.494a6.475 6.475 0 0 0 -1.404 1.69 21.212 21.212 0 0 0 -1.17 2.262c-.26.624-.32 1.127-.182 1.508.156.364.477.494.962.39.503-.121 1.127-.58 1.872-1.378zm7.528 2.314c-.173.121-.294.182-.364.182-.069-.017-.199-.121-.39-.312-.329-.312-.563-.901-.702-1.768-.121-.884-.182-2.123-.182-3.718.07-.71.104-1.317.104-1.82.018-.502.026-.788.026-.858.052-.07.156-.104.312-.104.174 0 .321.035.442.104a.624.624 0 0 1 .338.39c.07.173.113.485.13.936.018.433.026 1.1.026 2.002a24.72 24.72 0 0 0 -.078 1.82c0 .503.026.789.078.858.07.121.148.156.234.104.104-.07.286-.234.546-.494.139-.19.312-.442.52-.754l.494-.78c.191-.242.364-.477.52-.702.174-.225.295-.372.364-.442.07-.139.156-.268.26-.39a2.34 2.34 0 0 0 .26-.364c.191-.33.39-.598.598-.806.208-.225.347-.338.416-.338.07.052.13.07.182.052a.466.466 0 0 1 .208-.052c.122-.121.286-.121.494 0a.89.89 0 0 1 .182.182.25.25 0 0 1 .078.182c0 .087-.069.269-.208.546a5.146 5.146 0 0 1 -.442.806c-.156.243-.277.39-.364.442l-.078.078-.182.182c-.034.121-.147.338-.338.65-.19.295-.424.633-.702 1.014a47.14 47.14 0 0 1 -.858 1.144l-.78 1.014c-.173.243-.372.46-.598.65a3.616 3.616 0 0 1 -.546.364zm7.256.026c-.26-.035-.486-.217-.676-.546-.174-.347-.278-.659-.312-.936.017-.139.034-.338.052-.598l.104-.806c.069-.33.164-.728.286-1.196l.364-1.456c.138-.485.26-.901.364-1.248.104-.346.173-.555.208-.624.086-.139.225-.173.416-.104.19.07.346.173.468.312a.954.954 0 0 1 .182.494c.034.19.008.468-.078.832-.07.364-.208.902-.416 1.612a54.65 54.65 0 0 0 -.442 1.69 5.44 5.44 0 0 0 -.104 1.326c-.07.59-.122.954-.156 1.092-.035.122-.122.174-.26.156zm2.99-10.374a.348.348 0 0 1 -.208.078 1.684 1.684 0 0 1 -.286-.156c-.122-.017-.278-.095-.468-.234a5.736 5.736 0 0 1 -.468-.468c-.122-.173-.182-.277-.182-.312a2.83 2.83 0 0 1 .026-.65c.052-.277.147-.52.286-.728a.723.723 0 0 1 .598-.364c.069 0 .13.009.182.026s.208.078.468.182c.138.26.277.555.416.884.138.312.199.624.182.936-.018.295-.2.563-.546.806zm6.357 11.102c-.19.07-.329.096-.416.078-.069-.035-.251-.164-.546-.39a1.998 1.998 0 0 1 -.234-.546 10.8 10.8 0 0 1 -.026-.91c.035-.26.104-.633.208-1.118.122-.485.26-.997.416-1.534s.295-1.023.416-1.456c.139-.433.243-.728.312-.884.122-.416.148-.667.078-.754-.069-.104-.277-.173-.624-.208-.693-.087-1.317.139-1.872.676-.554.538-1.109 1.24-1.664 2.106-.416.642-.667 1.196-.754 1.664-.069.45-.078.763-.026.936.052.139.174.217.364.234.191 0 .399-.043.624-.13.243-.087.451-.173.624-.26.122-.07.269-.139.442-.208.191-.087.373-.165.546-.234.104 0 .174.035.208.104.052.052.078.165.078.338 0 .07.026.13.078.182a.698.698 0 0 0 .182.13c.07.07-.034.226-.312.468-.26.243-.667.52-1.222.832-.52.122-.944.182-1.274.182-.312 0-.615-.112-.91-.338-.485-.294-.762-.771-.832-1.43-.052-.676.087-1.5.416-2.47.33-.78.694-1.413 1.092-1.898a20.41 20.41 0 0 1 1.274-1.456c.07-.07.226-.173.468-.312.26-.156.581-.294.962-.416a5.749 5.749 0 0 1 1.222-.26c.382-.035.711.044.988.234.312.07.512.06.598-.026.087-.104.234-.416.442-.936.347-.867.685-1.742 1.014-2.626.33-.901.685-1.811 1.066-2.73.174-.33.278-.58.312-.754.052-.19.113-.32.182-.39h.494c.07 0 .191.06.364.182a.949.949 0 0 1 .364.494c0 .156-.069.503-.208 1.04-.138.52-.364 1.144-.676 1.872-.277.642-.554 1.291-.832 1.95-.26.642-.511 1.326-.754 2.054-.19.538-.364.97-.52 1.3s-.26.615-.312.858a7.23 7.23 0 0 1 -.39 1.222c-.138.347-.234.59-.286.728-.225.659-.407 1.196-.546 1.612-.138.399-.242.737-.312 1.014-.069.26-.112.529-.13.806 0 .26.026.572.078.936 0 .07-.008.139-.026.208-.017.07-.086.148-.208.234zm6.229-.546c-.676-.277-1.118-.658-1.326-1.144-.19-.502-.225-1.274-.104-2.314.035-.537.052-.892.052-1.066 0-.173-.095-.346-.286-.52a2.141 2.141 0 0 0 -.286-.286c-.121-.121-.173-.225-.156-.312a1.032 1.032 0 0 1 .026-.39c.035-.156.087-.234.156-.234.07 0 .139-.017.208-.052a.276.276 0 0 1 .234 0c.07 0 .148.009.234.026.087.017.13.06.13.13.07.122.182.139.338.052.156-.104.321-.33.494-.676a4.8 4.8 0 0 1 .676-.832c.295-.277.581-.529.858-.754.295-.242.538-.416.728-.52a5.14 5.14 0 0 1 .39-.13c.174-.052.356-.095.546-.13.208-.035.382-.043.52-.026.312.017.572.104.78.26.226.156.434.338.624.546a.964.964 0 0 1 .416.624c.07.26.087.538.052.832a2.388 2.388 0 0 1 -.234.806c-.052.174-.199.382-.442.624-.242.243-.52.477-.832.702a4.11 4.11 0 0 1 -.858.494c-.225.052-.52.096-.884.13a9.927 9.927 0 0 1 -.988.052c-.294-.017-.494-.052-.598-.104-.121-.07-.216.026-.286.286-.069.26-.121.633-.156 1.118-.034.382-.034.659 0 .832.035.174.07.295.104.364.122.121.286.277.494.468.226.174.538.2.936.078.33-.087.65-.312.962-.676.33-.364.633-.659.91-.884a.418.418 0 0 1 .338-.208c.174-.035.356-.026.546.026.191.122.269.269.234.442-.017.156-.104.399-.26.728-.052.121-.173.278-.364.468a9.472 9.472 0 0 1 -.598.546 4.598 4.598 0 0 1 -.572.416c-.52.278-1.005.425-1.456.442-.45 0-.884-.078-1.3-.234zm1.534-5.278c.382-.087.685-.147.91-.182a1.44 1.44 0 0 0 .65-.286c.208-.173.468-.494.78-.962.07-.19.087-.381.052-.572-.017-.19-.06-.32-.13-.39a.511.511 0 0 0 -.572-.156 1.729 1.729 0 0 0 -.598.286c-.121.052-.303.182-.546.39-.225.19-.45.416-.676.676a5.562 5.562 0 0 0 -.546.676c-.138.208-.173.33-.104.364-.034.07.061.113.286.13.243.017.408.026.494.026zm5.596 4.992a1.29 1.29 0 0 1 -.338-.364c-.052-.121-.052-.355 0-.702.052-.485.121-.91.208-1.274.086-.381.19-.815.312-1.3.034-.208.13-.563.286-1.066.173-.502.381-1.048.624-1.638.242-.59.485-1.144.728-1.664.242-.537.45-.936.624-1.196a.689.689 0 0 1 .494-.13.806.806 0 0 1 .52.234c.19.156.216.433.078.832-.122.381-.382.988-.78 1.82-.208.468-.364.823-.468 1.066-.104.226-.148.364-.13.416.017.035.095.009.234-.078.104-.19.294-.407.572-.65.277-.26.572-.511.884-.754.312-.242.606-.46.884-.65.277-.19.468-.312.572-.364.138-.087.294-.156.468-.208.19-.07.32-.121.39-.156a2.16 2.16 0 0 1 1.222-.208c.416.052.676.208.78.468a.449.449 0 0 0 .156.312l.156.104c.069 0 .104.026.104.078l.026.078c0 .121-.096.2-.286.234-.174.018-.399.035-.676.052-.226.018-.425.06-.598.13-.174.07-.382.156-.624.26-.659.382-1.292.754-1.898 1.118-.59.364-1.162.85-1.716 1.456a3.969 3.969 0 0 0 -.364.494c-.122.19-.252.399-.39.624-.087.087-.174.278-.26.572-.087.295-.165.58-.234.858-.052.26-.078.416-.078.468l-.078.26a1.592 1.592 0 0 1 -.26.468c-.208.277-.382.416-.52.416-.139 0-.347-.139-.624-.416zm-290.791-1.932-.078-.052a1.818 1.818 0 0 0 -.208-.052 1.095 1.095 0 0 0 -.26-.026.87.87 0 0 1 -.598-.468 1.018 1.018 0 0 1 -.078-.754c.07-.07.122-.216.156-.442.035-.225.052-.407.052-.546.07-.139.113-.234.13-.286l.13-.52c.052-.294.139-.702.26-1.222l.442-1.716c.174-.606.338-1.187.494-1.742.156-.554.295-1.023.416-1.404.139-.381.234-.598.286-.65v-.286l.026-.234c.035-.173.122-.364.26-.572.07-.19.13-.398.182-.624.052-.225.078-.372.078-.442.07-.086.165-.294.286-.624.139-.346.269-.684.39-1.014.104-.277.217-.572.338-.884.139-.312.252-.58.338-.806l.156-.338v-.13c.07-.07.234-.416.494-1.04.278-.641.65-1.464 1.118-2.47a7.13 7.13 0 0 1 .26-.468c.104-.173.156-.294.156-.364a.356.356 0 0 1 .364-.182c.156 0 .312.052.468.156a.97.97 0 0 1 .39.442l.26.416-.936 1.872c-.277.486-.511.928-.702 1.326-.173.399-.26.633-.26.702l-.156.416c-.104.277-.225.607-.364.988-.138.381-.26.728-.364 1.04-.19.538-.372.98-.546 1.326-.156.347-.234.555-.234.624 0-.034.191-.06.572-.078.382-.017.867-.026 1.456-.026h1.794c.624-.017 1.17-.026 1.638-.026.486-.017.815-.043.988-.078l1.352-.13.884-2.678c.139-.485.321-1.075.546-1.768.226-.693.425-1.282.598-1.768.278-.797.494-1.291.65-1.482.156-.19.338-.286.546-.286a.6.6 0 0 1 .208.052c.104.018.2.06.286.13.104.052.174.13.208.234.208.19.304.407.286.65 0 .243-.138.564-.416.962-.277.468-.511.98-.702 1.534-.173.538-.329.98-.468 1.326 0 .208-.026.381-.078.52a.901.901 0 0 1 -.182.286c-.034.035-.104.165-.208.39-.104.226-.199.45-.286.676-.086.225-.13.364-.13.416 0 .122-.026.269-.078.442-.052.174-.112.295-.182.364-.034.104-.112.364-.234.78-.121.416-.26.91-.416 1.482-.156.555-.32 1.1-.494 1.638-.173.52-.329.953-.468 1.3 0 .122-.043.278-.13.468-.086.173-.13.33-.13.468l-.26.78c-.104.312-.156.511-.156.598-.086.399-.182.806-.286 1.222-.086.416-.164.772-.234 1.066a6.004 6.004 0 0 0 -.078.546c-.069.07-.173.078-.312.026a54.524 54.524 0 0 0 -.494-.182c-.329-.19-.528-.399-.598-.624-.052-.208.018-.511.208-.91.087-.139.191-.476.312-1.014.139-.555.278-1.1.416-1.638.104-.26.217-.607.338-1.04l.364-1.352c.122-.468.226-.858.312-1.17.087-.33.148-.511.182-.546v-.26c-.034-.035-.251-.06-.65-.078a13.146 13.146 0 0 0 -1.482-.026c-.589 0-1.204.017-1.846.052-.624.017-1.187.06-1.69.13h-1.898l-.182.546c-.104.312-.225.693-.364 1.144-.138.433-.286.884-.442 1.352-.138.45-.26.867-.364 1.248-.086.364-.147.624-.182.78-.069.312-.164.702-.286 1.17-.104.468-.225.945-.364 1.43-.121.503-.234.936-.338 1.3-.086.364-.147.598-.182.702zm14.053-3.094a.786.786 0 0 0 -.26-.312c-.104-.087-.156-.165-.156-.234a.852.852 0 0 0 -.026-.208.323.323 0 0 0 -.104-.234c-.087-.104-.078-.338.026-.702.104-.381.277-.84.52-1.378.242-.555.528-1.135.858-1.742.138-.139.277-.32.416-.546.138-.225.242-.372.312-.442 0-.07.026-.13.078-.182.052-.07.112-.104.182-.104v-.156c0-.087.078-.234.234-.442.173-.208.381-.433.624-.676.242-.26.494-.503.754-.728a4.2 4.2 0 0 1 .65-.52c.364-.242.736-.39 1.118-.442.398-.052.736.035 1.014.26l.26.26.416.416c.173.139.346.286.52.442l.962.858-.468 1.3c-.226.694-.286 1.3-.182 1.82.121.52.294.97.52 1.352.086.19.26.373.52.546.277.173.537.277.78.312.138.017.268.07.39.156.121.087.182.226.182.416a.739.739 0 0 1 -.104.416c-.07.104-.19.173-.364.208-.572.07-1.11-.07-1.612-.416-.486-.346-.936-.919-1.352-1.716a4.219 4.219 0 0 1 -.286-.572 5.683 5.683 0 0 1 -.182-.572c-.07.087-.2.252-.39.494-.19.225-.338.39-.442.494-1.23 1.248-2.297 2.089-3.198 2.522-.884.416-1.62.434-2.21.052zm.936-1.456c0 .122.182.122.546 0 .381-.138.788-.381 1.222-.728a25.899 25.899 0 0 0 1.768-1.664c.606-.607 1.092-1.17 1.456-1.69l.572-.936c-.174-.399-.364-.667-.572-.806-.19-.156-.356-.234-.494-.234-.226 0-.564.208-1.014.624-.434.416-.902.97-1.404 1.664-.503.694-.98 1.456-1.43 2.288-.174.347-.33.685-.468 1.014zm10.725 1.482a1.297 1.297 0 0 1 -.338-.364c-.052-.121-.052-.355 0-.702.052-.485.122-.91.208-1.274.087-.381.191-.815.312-1.3.035-.208.13-.563.286-1.066.174-.502.382-1.048.624-1.638.243-.59.486-1.144.728-1.664.243-.537.451-.936.624-1.196a.69.69 0 0 1 .494-.13.806.806 0 0 1 .52.234c.191.156.217.433.078.832-.121.381-.381.988-.78 1.82-.208.468-.364.823-.468 1.066-.104.226-.147.364-.13.416.018.035.096.009.234-.078.104-.19.295-.407.572-.65.278-.26.572-.511.884-.754.312-.242.607-.46.884-.65a6.05 6.05 0 0 1 .572-.364c.139-.087.295-.156.468-.208.191-.07.321-.121.39-.156a2.16 2.16 0 0 1 1.222-.208c.416.052.676.208.78.468.018.139.07.243.156.312l.156.104c.07 0 .104.026.104.078l.026.078c0 .121-.095.2-.286.234-.173.018-.398.035-.676.052-.225.018-.424.06-.598.13-.173.07-.381.156-.624.26-.658.382-1.291.754-1.898 1.118-.589.364-1.161.85-1.716 1.456a4.083 4.083 0 0 0 -.364.494 50.3 50.3 0 0 0 -.39.624c-.086.087-.173.278-.26.572-.086.295-.164.58-.234.858-.052.26-.078.416-.078.468l-.078.26a1.583 1.583 0 0 1 -.26.468c-.208.277-.381.416-.52.416-.138 0-.346-.139-.624-.416zm16.935.598c-.173 0-.355-.095-.545-.286a3.092 3.092 0 0 1 -.469-.702 2.191 2.191 0 0 1 -.181-.832c0-.26.06-.745.181-1.456.14-.71.304-1.43.494-2.158.14-.45.182-.71.13-.78-.051-.07-.285.026-.701.286-.243.122-.46.252-.65.39-.191.122-.356.26-.494.416-.087.07-.217.182-.39.338a6.726 6.726 0 0 1 -.546.442c-.226.173-.512.416-.858.728l-1.04.936c-.33.312-.581.555-.755.728a.57.57 0 0 1 -.39.286.91.91 0 0 1 -.285-.052 1.24 1.24 0 0 1 -.547-.338.868.868 0 0 1 -.233-.598c0-.173.069-.468.207-.884.14-.433.321-.953.547-1.56.242-.606.52-1.248.831-1.924.052-.087.096-.19.13-.312.035-.139.061-.286.079-.442.034-.156.052-.303.052-.442 0-.087.008-.173.026-.26.034-.104.069-.2.103-.286a.874.874 0 0 1 .13-.208c.07-.139.191-.173.364-.104.174.052.321.174.442.364.26.243.39.546.39.91.018.364-.069.815-.26 1.352a3.58 3.58 0 0 0 -.181.364c-.035.104-.07.2-.105.286-.034.07-.06.13-.077.182l-.026.052c.069 0 .225-.078.468-.234.242-.156.528-.33.858-.52.26-.19.485-.364.675-.52.209-.173.382-.303.52-.39.14-.104.226-.156.26-.156.07 0 .157-.026.26-.078a.988.988 0 0 0 .26-.182c.07-.07.122-.104.157-.104l.078-.026h.103a.46.46 0 0 0 .209-.13c.138-.104.32-.13.545-.078.226.035.434.121.624.26.191.139.287.295.287.468 0 .07.017.13.052.182l.078.052c.138 0 .225.217.26.65.052.434.008.85-.13 1.248 0 .26-.053.572-.157.936-.086.364-.164.71-.233 1.04a7.838 7.838 0 0 0 -.287 1.144 2.76 2.76 0 0 0 -.026.832c.035.225.096.407.182.546.07.121.07.26 0 .416-.069.139-.208.208-.416.208zm6.142.39c-.763 0-1.387-.286-1.872-.858-.486-.59-.72-1.317-.702-2.184a8.912 8.912 0 0 1 .364-2.002c.225-.728.52-1.421.884-2.08a9.84 9.84 0 0 1 1.196-1.768c.433-.502.884-.858 1.352-1.066a2.96 2.96 0 0 1 .546-.208c.208-.052.416-.078.624-.078.19 0 .39.035.598.104.208.052.38.113.52.182.294.122.52.269.676.442.156.174.294.442.416.806.052.33.078.563.078.702s-.044.347-.13.624a5.845 5.845 0 0 1 -.806 1.612c-.33.45-.772.832-1.326 1.144a1.843 1.843 0 0 1 -.494.208 2.91 2.91 0 0 1 -1.56-.13 1.842 1.842 0 0 1 -.754-.598l-.182-.208-.078.208c-.174.468-.312.901-.416 1.3-.087.399-.13.763-.13 1.092 0 .208.017.407.052.598.052.19.12.355.208.494.069.104.182.182.338.234.173.035.355.052.546.052h.364c.138-.017.268-.052.39-.104a2.95 2.95 0 0 0 .702-.338c.19-.121.38-.251.572-.39l.104-.052h-.026a5.1 5.1 0 0 0 .546-.312l.26-.156c.069 0 .138-.043.208-.13.138-.07.312-.043.52.078.225.121.338.278.338.468-.018.087-.096.225-.234.416a4.169 4.169 0 0 1 -.468.494c-.156.156-.286.243-.39.26a1.013 1.013 0 0 1 -.182.104.565.565 0 0 0 -.208.104h.026c-.156.208-.312.312-.468.312h-.208c-.07.121-.295.26-.676.416a3.26 3.26 0 0 1 -1.118.208zm1.17-5.72c.312 0 .58-.086.806-.26.242-.19.45-.398.624-.624.346-.468.546-.919.598-1.352.069-.45.017-.763-.156-.936a.647.647 0 0 0 -.286-.078c-.07-.017-.217.009-.442.078-.156.035-.373.165-.65.39a10.91 10.91 0 0 0 -.832.754c-.26.278-.46.512-.598.702l-.338.546c.138-.052.268-.078.39-.078.138-.017.216-.008.234.026 0 .156.026.303.078.442.069.121.147.217.234.286.104.07.216.104.338.104zm7.18 5.278c-.866 0-1.499-.312-1.897-.936a.902.902 0 0 1 -.182-.52c.017-.19.069-.32.156-.39.104-.07.225-.008.364.182.242.139.589.208 1.04.208.225 0 .459-.017.702-.052.242-.052.485-.121.728-.208.26-.121.433-.225.52-.312.086-.104.069-.19-.052-.26h.026a6.126 6.126 0 0 1 -1.378-.572 7.123 7.123 0 0 1 -1.17-.884c-.33-.33-.52-.624-.572-.884a2.668 2.668 0 0 1 .104-1.638 4.678 4.678 0 0 1 .884-1.508c.138-.087.312-.19.52-.312.208-.138.372-.216.494-.234v.026c.329-.346.728-.624 1.196-.832.485-.208.996-.398 1.534-.572l.39-.052c.208-.035.381-.052.52-.052-.018 0 .017.017.104.052.086.017.164.035.234.052.104.052.19.078.26.078.225.035.433.139.624.312.19.173.338.381.442.624.121.226.164.442.13.65a1.93 1.93 0 0 1 -.312.884c-.156.26-.347.408-.572.442.034-.017.008-.043-.078-.078a2.73 2.73 0 0 0 -.234-.156l-.078.052-.026-.052a.419.419 0 0 0 -.052-.182.745.745 0 0 1 -.078-.338c0-.139.008-.286.026-.442.034-.19.034-.303 0-.338-.018-.035-.13-.06-.338-.078-.243-.052-.598-.009-1.066.13-.451.139-.832.33-1.144.572a8.202 8.202 0 0 0 -.962.702 3.53 3.53 0 0 0 -.624.624 3.2 3.2 0 0 0 -.416.676 4.332 4.332 0 0 0 -.234.364.647.647 0 0 0 -.078.286c0 .19.138.39.416.598.294.19.728.416 1.3.676.45.19.832.399 1.144.624.312.226.528.486.65.78a.42.42 0 0 1 .026.26c0 .087-.018.148-.052.182.034.035.052.06.052.078v-.026c.138.208.138.425 0 .65-.122.226-.338.425-.65.598a4.025 4.025 0 0 1 -1.092.364h.026c-.226.07-.451.121-.676.156a7.18 7.18 0 0 1 -.598.026zm8.056.468a4.248 4.248 0 0 1 -.936-.546c-.295-.242-.485-.442-.572-.598 0-.156.026-.26.078-.312.052-.07.2-.095.442-.078.26 0 .676.035 1.248.104.208 0 .468-.017.78-.052s.598-.087.858-.156c.277-.07.433-.156.468-.26.087 0 .104-.026.052-.078a1.966 1.966 0 0 0 -.182-.208.466.466 0 0 1 -.234-.078c-.087-.07-.165-.104-.234-.104 0-.087-.087-.182-.26-.286a2.037 2.037 0 0 0 -.494-.286c-.381-.312-.71-.59-.988-.832-.277-.26-.381-.433-.312-.52v-.13c-.121 0-.26-.173-.416-.52-.139-.346-.208-.659-.208-.936 0-.208.06-.468.182-.78.121-.33.286-.667.494-1.014.208-.346.425-.633.65-.858.312-.294.702-.606 1.17-.936.468-.346.927-.65 1.378-.91.468-.277.858-.46 1.17-.546.312-.121.598-.182.858-.182.277 0 .52.06.728.182.173.087.33.217.468.39.156.156.286.32.39.494.121.156.2.295.234.416 0 .208-.017.442-.052.702-.035.243-.087.46-.156.65-.052.19-.139.286-.26.286l-.078.026c-.035 0-.052.043-.052.13 0 .174-.13.373-.39.598-.33.226-.615.364-.858.416-.243.035-.39-.06-.442-.286a.675.675 0 0 1 -.104-.182c-.017-.052-.06-.078-.13-.078l-.078-.078c-.052-.052-.078-.139-.078-.26 0-.07.026-.13.078-.182l.078-.104c.087 0 .2-.095.338-.286.139-.208.26-.424.364-.65.121-.242.182-.407.182-.494 0-.104-.017-.164-.052-.182-.017-.017-.095-.026-.234-.026a17.08 17.08 0 0 0 -.884.416c-.347.174-.676.347-.988.52-.295.156-.511.303-.65.442-.07.121-.113.2-.13.234-.017.017-.06.026-.13.026 0-.07-.06-.035-.182.104a13.43 13.43 0 0 0 -.416.52l-.468.676-.312.468c-.035.035-.078.139-.13.312a2.04 2.04 0 0 0 -.052.442c-.07.208-.06.355.026.442l.572.468c.607.45 1.083.823 1.43 1.118s.607.538.78.728.277.364.312.52c.312.52.407.919.286 1.196-.121.278-.416.52-.884.728-.173.087-.46.156-.858.208a9.44 9.44 0 0 1 -1.222.078 5.661 5.661 0 0 1 -.988-.026zm-65.717 28.144c-.208 0-.381-.113-.52-.338a.813.813 0 0 1 -.208-.442c-.017-.173.044-.494.182-.962.139-.485.373-1.222.702-2.21.174-.659.312-1.135.416-1.43.104-.312.156-.537.156-.676 0-.19.018-.346.052-.468.052-.138.078-.268.078-.39.104 0 .208-.095.312-.286.104-.19.191-.45.26-.78.07-.294.13-.529.182-.702.07-.19.104-.32.104-.39.087-.139.174-.355.26-.65.104-.294.26-.65.468-1.066.139-.52.295-1.057.468-1.612.174-.572.347-1.1.52-1.586.191-.502.347-.892.468-1.17.191-.537.338-.91.442-1.118.104-.225.104-.373 0-.442-.121-.087-.147-.234-.078-.442.07-.208.26-.442.572-.702.191-.225.356-.381.494-.468a.842.842 0 0 1 .52-.156c.226 0 .546.017.962.052.312.017.642.026.988.026h.676c.156.07.347.147.572.234.226.07.425.139.598.208.191.07.286.13.286.182 0 .104.035.174.104.208l.26.052c.122 0 .286.095.494.286.208.174.425.399.65.676.226.26.399.538.52.832.139.295.243.572.312.832.087.26.087.633 0 1.118-.017.26-.06.52-.13.78-.052.26-.112.434-.182.52-.104.07-.199.156-.286.26-.086.104-.13.2-.13.286 0 .07-.06.208-.182.416-.121.19-.277.416-.468.676-.19.26-.398.52-.624.78-.225.26-.442.485-.65.676a4.929 4.929 0 0 1 -.806.78 8.64 8.64 0 0 1 -.806.598c-.45.208-.953.416-1.508.624-.537.208-1.057.382-1.56.52-.485.139-.892.2-1.222.182-.502.07-.832.139-.988.208-.138.052-.242.2-.312.442-.086.226-.173.46-.26.702-.069.225-.104.381-.104.468-.034.07-.121.286-.26.65-.121.347-.26.754-.416 1.222-.138.468-.277.928-.416 1.378-.138.45-.242.824-.312 1.118-.069.243-.156.381-.26.416a.868.868 0 0 1 -.39.078zm3.224-8.06c.07.07.338.078.806.026a6.06 6.06 0 0 0 1.508-.39 8.877 8.877 0 0 0 1.04-.442c.364-.173.711-.364 1.04-.572.174-.121.434-.338.78-.65a9.388 9.388 0 0 0 1.04-1.118c.052-.087.139-.251.26-.494.139-.26.26-.503.364-.728.156-.242.312-.598.468-1.066.156-.485.191-.884.104-1.196-.086-.45-.312-.867-.676-1.248a2.708 2.708 0 0 0 -1.3-.806 5.542 5.542 0 0 0 -.962-.104c-.242 0-.511.026-.806.078-.277.087-.485.208-.624.364-.121.156-.286.486-.494.988a32.34 32.34 0 0 0 -.52 1.118c-.225.486-.416.945-.572 1.378-.312 1.144-.624 2.089-.936 2.834a58.633 58.633 0 0 0 -.546 1.378c.018.19.009.33-.026.416-.034.07-.017.148.052.234zm9.61 6.812c-.329.087-.597.017-.805-.208-.19-.225-.303-.572-.338-1.04s.017-1.022.156-1.664c.086-.208.156-.407.208-.598.052-.208.078-.372.078-.494.035-.173.104-.424.208-.754a37.109 37.109 0 0 1 .676-2.028c.121-.294.2-.477.234-.546.07 0 .13-.06.182-.182a.917.917 0 0 0 .078-.364c0-.138.026-.294.078-.468.07-.173.139-.294.208-.364a.91.91 0 0 1 .052-.286.789.789 0 0 0 .078-.286c0-.07.017-.139.052-.208a.346.346 0 0 0 .078-.208 10.7 10.7 0 0 0 .468-1.066c.208-.502.425-1.057.65-1.664a46.395 46.395 0 0 0 1.17-3.276c.139-.416.208-.667.208-.754 0-.139.034-.242.104-.312s.173-.104.312-.104a.386.386 0 0 1 .182-.104c.087-.017.165-.026.234-.026l.104.104.312.312a.64.64 0 0 1 .234.416c.034.156.052.338.052.546 0 .225-.026.425-.078.598a5.916 5.916 0 0 1 -.312.754l-.728 1.534c-.139.347-.286.676-.442.988-.156.295-.234.477-.234.546 0 .07-.035.174-.104.312a15.27 15.27 0 0 0 -.182.52c-.07.139-.165.347-.286.624-.122.26-.252.546-.39.858-.122.295-.226.555-.312.78-.087.208-.13.33-.13.364 0 .07-.009.139-.026.208 0 .07-.035.139-.104.208-.07 0-.113.052-.13.156v.13c0 .174-.139.633-.416 1.378a221.35 221.35 0 0 1 -.78 2.626c-.226.797-.338 1.439-.338 1.924 0 .416-.009.694-.026.832-.017.121-.096.217-.234.286zm3.795-.936a.787.787 0 0 0 -.26-.312c-.104-.087-.156-.164-.156-.234a.857.857 0 0 0 -.026-.208.324.324 0 0 0 -.104-.234c-.086-.104-.078-.338.026-.702.104-.381.278-.84.52-1.378.243-.554.529-1.135.858-1.742.139-.139.278-.32.416-.546.139-.225.243-.373.312-.442 0-.07.026-.13.078-.182.052-.07.113-.104.182-.104v-.156c0-.087.078-.234.234-.442.174-.208.382-.433.624-.676.243-.26.494-.502.754-.728.26-.242.477-.416.65-.52.364-.242.737-.39 1.118-.442.399-.052.737.035 1.014.26l.26.26.416.416c.174.139.347.286.52.442l.962.858-.468 1.3c-.225.694-.286 1.3-.182 1.82.122.52.295.97.52 1.352.087.19.26.373.52.546.278.174.538.278.78.312.139.018.269.07.39.156.122.087.182.225.182.416a.74.74 0 0 1 -.104.416c-.069.104-.19.174-.364.208-.572.07-1.109-.07-1.612-.416-.485-.346-.936-.918-1.352-1.716a4.195 4.195 0 0 1 -.286-.572 5.655 5.655 0 0 1 -.182-.572l-.39.494c-.19.226-.338.39-.442.494-1.23 1.248-2.296 2.089-3.198 2.522-.884.416-1.62.433-2.21.052zm.936-1.456c0 .121.182.121.546 0 .382-.139.789-.381 1.222-.728a25.945 25.945 0 0 0 1.768-1.664c.607-.606 1.092-1.17 1.456-1.69l.572-.936c-.173-.398-.364-.667-.572-.806-.19-.156-.355-.234-.494-.234-.225 0-.563.208-1.014.624-.433.416-.901.97-1.404 1.664-.502.694-.979 1.456-1.43 2.288-.173.347-.329.685-.468 1.014zm13.482 2.34a2.863 2.863 0 0 1 -.598-.234 6.748 6.748 0 0 1 -.624-.494 5.182 5.182 0 0 1 -.494-.78 2.927 2.927 0 0 1 -.208-.832c-.035-.33-.052-.745-.052-1.248 0-.208.035-.52.104-.936.087-.416.182-.85.286-1.3.121-.468.225-.884.312-1.248a8.64 8.64 0 0 0 .182-.702c.052-.225-.035-.355-.26-.39a3.537 3.537 0 0 0 -.754-.026c-.26 0-.433-.026-.52-.078-.07-.017-.104-.043-.104-.078v-.078c0-.07-.009-.112-.026-.13a.453.453 0 0 0 -.078-.182c-.035-.07-.017-.165.052-.286a.586.586 0 0 1 .416-.26 4.34 4.34 0 0 1 .624-.078 4.76 4.76 0 0 0 .832-.182c.277-.104.503-.26.676-.468.156-.381.338-.806.546-1.274s.407-.884.598-1.248c.208-.381.347-.615.416-.702.295-.156.511-.216.65-.182.139.017.295.165.468.442.087.121.147.217.182.286.052.07.06.174.026.312-.035.139-.13.355-.286.65-.139.295-.355.72-.65 1.274l-.234.468-.104.182c.07.017.173.026.312.026s.312-.008.52-.026c.19-.034.433-.06.728-.078.295-.034.529-.034.702 0 .399 0 .693.078.884.234.19.139.295.381.312.728.035.19-.009.303-.13.338-.104.035-.39.052-.858.052-.156 0-.399.009-.728.026-.33.017-.676.035-1.04.052-.347.017-.65.043-.91.078-.243.018-.364.044-.364.078-.052.035-.139.2-.26.494-.104.295-.217.633-.338 1.014-.104.364-.2.694-.286.988-.121.59-.217 1.179-.286 1.768-.052.59-.06 1.1-.026 1.534.035.433.13.737.286.91.156.156.46.19.91.104.45-.104.815-.268 1.092-.494.312-.26.563-.39.754-.39.208 0 .32.096.338.286.035.174-.06.425-.286.754-.208.312-.468.59-.78.832a3.3 3.3 0 0 1 -.988.494c-.33.087-.641.087-.936 0zm6.84 2.652a1.23 1.23 0 0 1 -.39-.208c-.14-.087-.209-.164-.209-.234.018-.121.044-.234.078-.338.035-.086.061-.173.078-.26.035-.173.052-.381.052-.624 0-.225.026-.659.078-1.3l.13-1.742c.052-.468.104-.884.156-1.248.052-.381.113-.763.182-1.144l.312-1.352c.087-.59.087-.953 0-1.092-.069-.139-.199-.217-.39-.234a5.793 5.793 0 0 1 -.884-.156c-.242-.087-.398-.234-.468-.442-.173-.173-.216-.312-.13-.416.087-.104.26-.182.52-.234.278-.07.572-.095.884-.078.295-.017.52-.035.676-.052a.665.665 0 0 0 .416-.26c.104-.156.208-.416.312-.78.035-.156.096-.373.182-.65.104-.277.191-.529.26-.754l.13-.338a.567.567 0 0 0 .234-.468c.018-.242.13-.563.338-.962.226-.416.581-.997 1.066-1.742.59-.762 1.118-1.36 1.586-1.794a3.275 3.275 0 0 1 1.69-.806c.07-.035.226-.052.468-.052h.494c.364.017.616.087.754.208.14.121.286.33.442.624.14.226.156.538.052.936-.086.382-.199.676-.338.884a2.768 2.768 0 0 1 -.39.468c-.156.173-.312.33-.468.468-.138.122-.242.182-.312.182a.502.502 0 0 1 -.26-.078.46.46 0 0 0 -.208-.13c-.156-.07-.182-.19-.078-.364.104-.19.217-.372.338-.546.174-.26.286-.468.338-.624a.916.916 0 0 0 .052-.416 3.12 3.12 0 0 0 -.104-.442l.234.234a.669.669 0 0 0 -.416-.078c-.156.018-.329.06-.52.13-.329.174-.598.364-.806.572-.208.19-.38.355-.52.494a4.288 4.288 0 0 0 -1.014 1.326l-.728 1.456c-.069.139-.19.399-.364.78-.156.364-.303.71-.442 1.04a9.86 9.86 0 0 1 -.364.832c-.12.225-.182.364-.182.416-.052.121-.026.182.078.182.122 0 .356-.009.702-.026.85-.104 1.482-.13 1.898-.078.434.035.685.19.754.468.295.416.252.676-.13.78-.364.087-1.04.2-2.028.338l-.832.052c-.277 0-.459.009-.546.026-.069.018-.138.044-.208.078-.069.035-.147.208-.234.52-.017.19-.052.425-.104.702-.034.26-.06.511-.078.754a3.96 3.96 0 0 0 -.156.65c-.017.225-.069.425-.156.598a40.45 40.45 0 0 0 -.208 2.652 27.257 27.257 0 0 1 -.156 2.054c-.052.572-.19 1.014-.416 1.326a1.288 1.288 0 0 1 -.39.312c-.12.087-.234.087-.338 0zm8.814-3.588c-.364.07-.598.096-.702.078-.087-.035-.226-.139-.416-.312a2.39 2.39 0 0 1 -.702-.52 2.315 2.315 0 0 1 -.39-.65c-.07-.243-.096-.442-.078-.598.052-.607.2-1.257.442-1.95s.537-1.36.884-2.002a8.725 8.725 0 0 1 1.118-1.638c.416-.468.815-.771 1.196-.91a2.04 2.04 0 0 1 .988-.156c.312.035.537.2.676.494.26.503.2.823-.182.962-.052 0-.113.026-.182.078-.07.035-.104.087-.104.156.07.035.26.044.572.026a8.75 8.75 0 0 0 .936-.156c.33-.087.546-.173.65-.26a.599.599 0 0 1 .234-.078c.052 0 .182.018.39.052.294.087.442.19.442.312 0 .07.026.139.078.208a.25.25 0 0 0 .182.078c.121.017.104.096-.052.234-.139.139-.382.33-.728.572-.33.208-.538.347-.624.416-.07.052-.078.174-.026.364.139.33.147.71.026 1.144a4.461 4.461 0 0 1 -.65 1.326c-.312.45-.694.876-1.144 1.274-.433.382-.901.71-1.404.988-.486.26-.962.416-1.43.468zm-.442-1.144c.07 0 .19-.034.364-.104l.416-.208c.07-.07.156-.147.26-.234.121-.104.217-.165.286-.182.07 0 .156-.026.26-.078.104-.07.251-.2.442-.39.19-.208.442-.511.754-.91a7.1 7.1 0 0 0 .806-1.04c.19-.33.242-.632.156-.91-.017-.07-.07-.112-.156-.13a1.24 1.24 0 0 1 -.286-.13c-.173 0-.338-.043-.494-.13a15.253 15.253 0 0 1 -.494-.39l-.416-.52-.442.442c-.277.278-.572.694-.884 1.248a11.947 11.947 0 0 0 -.754 1.664c-.208.555-.33.997-.364 1.326-.017.26.026.433.13.52a.75.75 0 0 0 .416.156zm7.372 1.222a1.297 1.297 0 0 1 -.338-.364c-.052-.121-.052-.355 0-.702.052-.485.121-.91.208-1.274.087-.381.19-.814.312-1.3.034-.208.13-.563.286-1.066.173-.502.381-1.049.624-1.638.243-.59.485-1.144.728-1.664.243-.537.45-.936.624-1.196a.69.69 0 0 1 .494-.13.806.806 0 0 1 .52.234c.19.156.216.434.078.832-.121.382-.382.988-.78 1.82-.208.468-.364.824-.468 1.066-.104.225-.147.364-.13.416.017.035.095.009.234-.078.104-.19.294-.407.572-.65.277-.26.572-.511.884-.754.312-.242.606-.46.884-.65a6.05 6.05 0 0 1 .572-.364c.138-.087.294-.156.468-.208.19-.07.32-.121.39-.156a2.16 2.16 0 0 1 1.222-.208c.416.052.676.208.78.468.017.139.07.243.156.312l.156.104c.07 0 .104.026.104.078l.026.078c0 .121-.096.2-.286.234-.173.017-.399.035-.676.052-.226.017-.425.06-.598.13s-.381.156-.624.26c-.659.381-1.291.754-1.898 1.118-.59.364-1.162.85-1.716 1.456a4.083 4.083 0 0 0 -.364.494 50.3 50.3 0 0 0 -.39.624c-.087.087-.174.278-.26.572-.087.295-.165.58-.234.858-.052.26-.078.416-.078.468l-.078.26a1.583 1.583 0 0 1 -.26.468c-.208.278-.382.416-.52.416-.139 0-.347-.138-.624-.416zm9.603-.052a1.71 1.71 0 0 1 -.156-.26.854.854 0 0 1 -.052-.26.43.43 0 0 0 -.026-.13c0-.052-.035-.078-.104-.078-.052-.052-.017-.251.104-.598.139-.364.312-.78.52-1.248.225-.468.45-.918.676-1.352.243-.45.442-.806.598-1.066a.31.31 0 0 0 .156-.208c.035-.104.035-.156 0-.156l.13-.234c.104-.173.182-.286.234-.338.139-.242.243-.485.312-.728.07-.26.087-.477.052-.65-.07-.087-.147-.112-.234-.078l-.13.052c-.07.017-.173.052-.312.104a1.2 1.2 0 0 0 -.338.156c-.399.278-.667.408-.806.39-.139-.034-.295-.26-.468-.676-.07-.19-.095-.33-.078-.416.017-.087.087-.182.208-.286.139-.121.269-.2.39-.234.121-.052.217-.104.286-.156.19-.121.347-.208.468-.26.139-.052.243-.087.312-.104.45-.139.832-.165 1.144-.078s.546.312.702.676c.243.295.364.633.364 1.014 0 .364-.121.789-.364 1.274l-.26.39c-.087.174-.104.26-.052.26.07 0 .147-.06.234-.182.052-.07.156-.173.312-.312s.26-.208.312-.208l.052-.026c.052-.017.078-.087.078-.208l.156-.156.104-.078c.07 0 .2-.078.39-.234.208-.173.45-.372.728-.598.19-.138.364-.208.52-.208.399-.121.72.009.962.39.26.382.39.876.39 1.482l-.546 1.404.936-1.144a3.4 3.4 0 0 1 .312-.364c.121-.104.225-.19.312-.26.035-.121.087-.19.156-.208l.104-.026h.052c.035-.017.052-.052.052-.104.087-.07.182-.13.286-.182a.588.588 0 0 0 .208-.208c.295-.121.563-.138.806-.052.243.07.45.286.624.65.121.208.19.39.208.546.017.156.026.39.026.702-.035.26-.07.468-.104.624-.017.139-.035.286-.052.442s-.043.373-.078.65a1.3 1.3 0 0 0 -.13.442v.442c0 .226.009.382.026.468.017.07.087.104.208.104.243-.052.572-.173.988-.364.433-.208.754-.407.962-.598.26-.242.485-.364.676-.364.208-.017.338.078.39.286.035.07-.026.225-.182.468a4.691 4.691 0 0 1 -.494.702c-.173.226-.303.338-.39.338-.052 0-.113.052-.182.156a.881.881 0 0 1 -.234.208 6.485 6.485 0 0 1 -.364.338.499.499 0 0 1 -.364.156.613.613 0 0 0 -.26.078.84.84 0 0 1 -.312.052c-.173.052-.442.026-.806-.078-.347-.104-.572-.346-.676-.728-.07-.19-.13-.494-.182-.91a4.666 4.666 0 0 1 .026-1.3 5.76 5.76 0 0 0 .13-.858c.017-.26.052-.442.104-.546v-.364c0-.208-.026-.312-.078-.312-.07 0-.234.13-.494.39-.243.243-.537.555-.884.936-.33.381-.659.78-.988 1.196-.33.416-.598.789-.806 1.118-.156.19-.295.425-.416.702-.121.278-.208.434-.26.468-.121.139-.269.156-.442.052a1.565 1.565 0 0 1 -.442-.494 1.334 1.334 0 0 1 -.104-.26 1.086 1.086 0 0 1 0-.338c.035-.156.095-.381.182-.676.104-.295.243-.71.416-1.248.19-.59.355-1.118.494-1.586l.234-.728c0-.07-.13 0-.39.208-.26.19-.563.434-.91.728-.156.19-.416.477-.78.858a53.62 53.62 0 0 0 -1.196 1.3c-.433.486-.85.997-1.248 1.534-.503.71-.858 1.144-1.066 1.3-.19.156-.381.113-.572-.13z" fill="#000"/><g clip-path="url(#a)"><path d="m197.763 122.803c0 .632.069 1.144.188 1.52.137.375.308.785.548 1.229a.746.746 0 0 1 .119.393c0 .171-.102.342-.325.512l-1.077.718a.824.824 0 0 1 -.445.153c-.171 0-.342-.085-.513-.239a5.248 5.248 0 0 1 -.616-.802 13.284 13.284 0 0 1 -.53-1.008c-1.334 1.571-3.011 2.357-5.029 2.357-1.437 0-2.583-.41-3.421-1.23s-1.266-1.913-1.266-3.279c0-1.451.513-2.63 1.557-3.518 1.043-.888 2.429-1.332 4.19-1.332.582 0 1.181.052 1.814.137s1.283.222 1.967.376v-1.247c0-1.298-.274-2.203-.804-2.732-.548-.53-1.471-.786-2.788-.786-.599 0-1.215.068-1.848.222s-1.248.342-1.847.581a4.984 4.984 0 0 1 -.599.222c-.12.034-.205.051-.273.051-.24 0-.36-.171-.36-.529v-.837c0-.273.035-.478.12-.598.086-.119.24-.239.479-.359.599-.307 1.317-.563 2.155-.768a10.39 10.39 0 0 1 2.669-.324c2.035 0 3.523.461 4.481 1.383.941.922 1.42 2.322 1.42 4.201v5.533zm-6.945 2.595c.565 0 1.147-.102 1.762-.307.616-.205 1.163-.581 1.625-1.093.274-.324.479-.683.582-1.093s.171-.905.171-1.485v-.718a14.337 14.337 0 0 0 -1.574-.29 12.96 12.96 0 0 0 -1.608-.103c-1.146 0-1.984.222-2.548.684-.565.461-.838 1.11-.838 1.963 0 .803.205 1.401.632 1.811.411.427 1.01.631 1.796.631zm13.736 1.845c-.308 0-.513-.051-.65-.171-.137-.102-.257-.341-.359-.666l-4.02-13.201c-.103-.341-.154-.563-.154-.683 0-.273.137-.427.411-.427h1.676c.325 0 .547.052.667.171.137.103.24.342.342.666l2.874 11.305 2.668-11.305c.086-.341.188-.563.325-.666.137-.102.377-.171.684-.171h1.369c.325 0 .547.052.684.171.137.103.257.342.325.666l2.703 11.442 2.959-11.442c.103-.341.222-.563.342-.666.137-.102.359-.171.667-.171h1.591c.274 0 .428.137.428.427 0 .086-.018.171-.035.274a2.424 2.424 0 0 1 -.119.426l-4.123 13.201c-.102.342-.222.564-.359.666-.137.103-.359.171-.65.171h-1.471c-.325 0-.547-.051-.684-.171-.137-.119-.257-.341-.325-.683l-2.652-11.015-2.634 10.998c-.085.342-.188.564-.325.683-.137.12-.376.171-.684.171zm21.98.461c-.889 0-1.779-.103-2.634-.307-.855-.205-1.522-.427-1.967-.684-.274-.153-.462-.324-.53-.478a1.19 1.19 0 0 1 -.103-.478v-.871c0-.358.137-.529.393-.529a.97.97 0 0 1 .308.051c.103.034.257.102.428.171a9.28 9.28 0 0 0 1.882.597c.684.137 1.351.205 2.035.205 1.078 0 1.916-.187 2.497-.563.582-.376.89-.922.89-1.622 0-.479-.154-.871-.462-1.196-.308-.324-.889-.615-1.728-.888l-2.48-.768c-1.248-.393-2.172-.974-2.737-1.742-.564-.752-.855-1.588-.855-2.476 0-.718.154-1.35.462-1.896a4.382 4.382 0 0 1 1.232-1.4 5.425 5.425 0 0 1 1.778-.888 7.471 7.471 0 0 1 2.156-.291c.376 0 .769.017 1.146.069.393.051.752.119 1.112.188.342.085.667.17.975.273.308.102.547.205.718.307.24.137.411.273.513.427.103.137.154.325.154.564v.802c0 .359-.137.547-.393.547-.137 0-.359-.069-.65-.205-.975-.444-2.07-.666-3.284-.666-.975 0-1.745.153-2.275.478-.531.324-.804.82-.804 1.52 0 .478.171.888.513 1.212.342.325.975.649 1.881.94l2.429.768c1.232.393 2.121.939 2.652 1.639.53.701.786 1.503.786 2.391a4.39 4.39 0 0 1 -.444 1.981 4.598 4.598 0 0 1 -1.249 1.503c-.53.427-1.163.734-1.899.956a8.142 8.142 0 0 1 -2.446.359z" fill="#252f3e"/><g clip-rule="evenodd" fill="#f90" fill-rule="evenodd"><path d="m229.767 136.004c-5.627 4.15-13.804 6.353-20.834 6.353-9.853 0-18.73-3.638-25.436-9.683-.53-.478-.051-1.127.582-.751 7.253 4.201 16.199 6.745 25.453 6.745 6.243 0 13.102-1.298 19.414-3.962.941-.427 1.745.615.821 1.298z"/><path d="m232.111 133.34c-.719-.922-4.756-.444-6.586-.222-.547.068-.633-.41-.137-.769 3.216-2.254 8.502-1.605 9.117-.854.616.769-.171 6.046-3.181 8.573-.462.393-.907.188-.701-.324.684-1.691 2.206-5.499 1.488-6.404z"/></g></g></svg>