<svg fill="none" viewBox="0 0 150 150" xmlns="http://www.w3.org/2000/svg"><path d="m42.8597 72.25-6-3.75v16.5l18 11.25v-8.25-9z" fill="#f2a966"/><path d="m66.1097 83.5h-.75v16.5l18 11.25.75-.75v-16.5z" fill="#f2a966"/><path d="m116.36 113.5-19.5003-12v17.25l18.7503 11.25h.75z" fill="#f2a966"/><path d="m69.0445 97.923-4.4348 4.326 10.8121 6.039c-1.0569-3.061-2.7387-9.1692-1.0105-9.1147 2.1604.068 2.4649-2.7336 2.7013-3.3749.2365-.6413-2.4971-3.1061-6.413-2.3645-3.1326.5934-2.4086 3.24-1.6551 4.4891z" fill="#fff"/><path clip-rule="evenodd" d="m70.0195 92.9902c1.9512-.6541 4.0692-.2606 5.7035.9183.438.316.9069.7502 1.2563 1.2761.3497.5264.6095 1.1927.5276 1.9374-.0996.9057-.6709 1.5966-1.2807 2.0652-.6153.4727-1.3575.7907-1.9991.9368-1.2389.282-2.5635.057-3.6523-.4595-.2548-.1209-.5236-.2716-.7889-.4489-.2858.0863-.6078-.0039-.8047-.2519-.0578-.073-.1203-.1494-.1858-.2295-.5418-.6627-1.2873-1.5747-1.2983-2.7997-.0154-1.7041 1.429-2.5778 2.5224-2.9443zm1.0343 1.274c-.0506.1055-.1267.2007-.2269.2756-.063.0471-.1246.0928-.1847.1375-.4201.3118-.768.5701-1.0159.8728-.2431.2968-.3393.5756-.2426.9621.0809.3226.3104.6708.6675 1.0072.3515.3312.78.6064 1.1668.79.8379.3977 1.8186.5471 2.6762.3519.4514-.1027.9907-.3352 1.4181-.6636.4329-.3326.6655-.6935.7036-1.0397.0317-.2882-.0615-.6054-.286-.9433-.2248-.3384-.5513-.6493-.8845-.8897-1.1107-.8012-2.4869-1.1204-3.7916-.8608z" fill="#000" fill-rule="evenodd"/><path clip-rule="evenodd" d="m69.2751 97.9301c.2785.3066.2557.7809-.0508 1.0594l-.4615.4205c-.2851.2603-.6785.62-1.1117 1.019-.8686.799-1.8889 1.747-2.5184 2.359-.2969.288-.7718.282-1.0606-.015-.2887-.297-.2821-.772.0148-1.061.6463-.628 1.681-1.589 2.5485-2.3869.435-.4003.8299-.7616 1.1161-1.0229l.4636-.4224c.3065-.2786.7814-.2563 1.06.0503z" fill="#000" fill-rule="evenodd"/><path clip-rule="evenodd" d="m73.2888 98.908c.4113-.0486.7842.2454.8328.6567.0656.5543.1248 1.1073.1837 1.6573.2356 2.201.4664 4.358 1.0823 6.397.096.319.2277.569.4344.888.2249.348.1253.812-.2225 1.037s-.8122.126-1.0371-.222c-.2494-.386-.4594-.768-.6108-1.269-.6606-2.188-.9096-4.523-1.1455-6.736-.0569-.534-.1131-1.06-.1741-1.5761-.0486-.4114.2454-.7843.6568-.8329z" fill="#000" fill-rule="evenodd"/><path d="m40.6917 82.4269-4.4348 4.3261 10.8121 6.0384c-1.0569-3.0607-2.7387-9.1686-1.0104-9.1142 2.1603.068 2.4648-2.7336 2.7012-3.3749.2365-.6413-2.4971-3.1061-6.4129-2.3645-3.1327.5934-2.4087 3.24-1.6552 4.4891z" fill="#fff"/><path clip-rule="evenodd" d="m41.6667 77.4941c1.9512-.654 4.0693-.2606 5.7035.9183.438.316.907.7503 1.2563 1.2761.3497.5264.6095 1.1927.5276 1.9374-.0996.9057-.6708 1.5966-1.2807 2.0652-.6152.4727-1.3574.7907-1.9991.9367-1.2389.282-2.5635.0574-3.6522-.4594-.2549-.1209-.5237-.2716-.789-.4489-.2857.0863-.6078-.0039-.8046-.2519-.0579-.073-.1204-.1494-.1859-.2295-.5418-.6627-1.2873-1.5747-1.2983-2.7997-.0153-1.7041 1.4291-2.5778 2.5224-2.9443zm1.0343 1.274c-.0506.1055-.1267.2007-.2269.2756-.063.0471-.1246.0928-.1847.1375-.4201.3118-.768.5701-1.0159.8728-.2431.2968-.3393.5756-.2425.9621.0808.3226.3104.6708.6674 1.0072.3516.3312.78.6064 1.1668.79.8379.3977 1.8186.5472 2.6762.3519.4514-.1027.9907-.3351 1.4181-.6636.4329-.3326.6655-.6935.7036-1.0397.0317-.2882-.0615-.6054-.286-.9433-.2248-.3384-.5512-.6493-.8845-.8897-1.1107-.8012-2.4868-1.1204-3.7916-.8608z" fill="#000" fill-rule="evenodd"/><path clip-rule="evenodd" d="m40.9223 82.433c.2785.3066.2558.7809-.0508 1.0594l-.4615.4205c-.2851.2604-.6785.6203-1.1116 1.0189-.8687.7993-1.889 1.7467-2.5185 2.3588-.2969.2888-.7718.2822-1.0605-.0147-.2888-.297-.2822-.7718.0148-1.0606.6462-.6285 1.6809-1.589 2.5484-2.3873.435-.4002.8299-.7616 1.1161-1.0228l.4636-.4225c.3066-.2785.7814-.2563 1.06.0503z" fill="#000" fill-rule="evenodd"/><path clip-rule="evenodd" d="m44.936 83.4119c.4113-.0486.7842.2454.8329.6567.0655.5546.1247 1.1075.1836 1.6578.2356 2.2007.4664 4.3576 1.0823 6.397.0961.3181.2277.5681.4344.8877.2249.3478.1253.8121-.2225 1.0371-.3478.2249-.8121.1253-1.0371-.2225-.2494-.3857-.4594-.7674-.6108-1.2687-.6606-2.1876-.9096-4.5228-1.1455-6.7359-.0569-.5338-.1131-1.0605-.1741-1.5763-.0486-.4114.2454-.7843.6568-.8329z" fill="#000" fill-rule="evenodd"/><path d="m97.6917 115.427-4.4348 4.326 10.8121 6.038c-1.057-3.06-2.739-9.168-1.01-9.114 2.16.068 2.464-2.733 2.701-3.375.236-.641-2.497-3.106-6.4131-2.364-3.1327.593-2.4087 3.24-1.6552 4.489z" fill="#fff"/><path clip-rule="evenodd" d="m98.6667 110.494c1.9513-.654 4.0693-.26 5.7033.918.438.316.907.751 1.257 1.277.349.526.609 1.192.527 1.937-.1.906-.671 1.597-1.281 2.065-.615.473-1.357.791-1.999.937-1.239.282-2.563.057-3.6519-.46-.2549-.121-.5237-.271-.789-.449-.2857.087-.6078-.003-.8046-.251-.0579-.073-.1204-.15-.1859-.23-.5418-.663-1.2873-1.575-1.2983-2.8-.0153-1.704 1.4291-2.577 2.5224-2.944zm1.0343 1.274c-.0506.106-.1267.201-.2269.276-.063.047-.1246.093-.1847.137-.4201.312-.768.57-1.0159.873-.2431.297-.3393.576-.2425.962.0808.323.3104.671.6674 1.007.3516.332.78.607 1.1668.79.8378.398 1.8188.547 2.6758.352.452-.102.991-.335 1.419-.663.432-.333.665-.694.703-1.04.032-.288-.061-.605-.286-.943-.225-.339-.551-.65-.884-.89-1.111-.801-2.487-1.121-3.792-.861z" fill="#000" fill-rule="evenodd"/><path clip-rule="evenodd" d="m97.9677 115.488c.2481.332.1804.802-.1513 1.05l-2.7576 2.063c-.3316.248-.8017.18-1.0498-.152-.2481-.331-.1803-.801.1514-1.049l2.7575-2.063c.3317-.248.8017-.18 1.0498.151z" fill="#000" fill-rule="evenodd"/><path clip-rule="evenodd" d="m101.936 116.411c.411-.049.784.245.833.657.114.967.155 1.806.193 2.563.016.323.031.63.05.927.067 1.005.189 1.979.566 3.225.119.396-.105.815-.501.934-.397.12-.815-.104-.935-.501-.419-1.386-.554-2.478-.626-3.558-.023-.343-.039-.675-.056-1.011-.036-.736-.073-1.488-.181-2.403-.048-.412.246-.784.657-.833z" fill="#000" fill-rule="evenodd"/><path d="m103.692 118.427-4.4351 4.326 10.8121 6.038c-1.057-3.06-2.739-9.168-1.01-9.114 2.16.068 2.464-2.733 2.701-3.375.236-.641-2.497-3.106-6.413-2.364-3.133.593-2.409 3.24-1.655 4.489z" fill="#fff"/><g clip-rule="evenodd" fill="#000" fill-rule="evenodd"><path d="m104.667 113.494c1.951-.654 4.069-.26 5.703.918.438.316.907.751 1.257 1.277.349.526.609 1.192.527 1.937-.1.906-.671 1.597-1.281 2.065-.615.473-1.357.791-1.999.937-1.239.282-2.563.057-3.652-.46-.255-.121-.524-.271-.789-.449-.286.087-.608-.003-.805-.251-.057-.073-.12-.15-.185-.23-.542-.663-1.288-1.575-1.299-2.8-.015-1.704 1.429-2.577 2.523-2.944zm1.034 1.274c-.051.106-.127.201-.227.276-.063.047-.124.093-.185.137-.42.312-.768.57-1.016.873-.243.297-.339.576-.242.962.081.323.31.671.667 1.007.352.332.78.607 1.167.79.838.398 1.819.547 2.676.352.452-.102.991-.335 1.419-.663.432-.333.665-.694.703-1.04.032-.288-.061-.605-.286-.943-.225-.339-.551-.65-.884-.89-1.111-.801-2.487-1.121-3.792-.861z"/><path d="m103.882 118.392c.301.284.315.759.031 1.06l-.067.072c-.044.045-.107.112-.187.196-.16.168-.387.405-.653.68-.532.55-1.228 1.26-1.874 1.888-.297.289-.771.282-1.06-.015s-.2824-.772.015-1.06c.629-.613 1.313-1.31 1.841-1.856.263-.272.487-.506.645-.672.079-.082.141-.148.184-.193l.064-.068m1.061-.032c-.302-.284-.777-.269-1.061.032z"/><path d="m107.936 119.412c.411-.049.784.245.833.657.117.992.163 1.988.206 2.928.017.372.034.736.055 1.086.074 1.266.199 2.404.541 3.43.131.393-.081.818-.474.949s-.818-.081-.949-.474c-.408-1.224-.54-2.526-.616-3.817-.023-.39-.04-.777-.058-1.162-.042-.918-.084-1.829-.195-2.764-.048-.412.246-.784.657-.833z"/><path d="m32.8682 68.2563c.223-.349.6868-.4511 1.0358-.228.9481.606 1.894 1.2143 2.8391 1.8221 5.8943 3.7904 11.7628 7.5643 17.9925 10.6791.3705.1852.5207.6357.3354 1.0062-.1852.3705-.6357.5207-1.0062.3354-6.3081-3.154-12.2519-6.9766-18.1418-10.7646-.9433-.6066-1.8851-1.2124-2.8268-1.8143-.349-.2231-.4511-.6869-.228-1.0359z"/><path d="m52.0593 78.4443c.4142 0 .75.3358.75.75 0 4.8123 0 11.0562-.0003 17.8062-.0001.4142-.3359.75-.7501.7499-.4142 0-.75-.3358-.7499-.75.0003-6.75.0003-12.9938.0003-17.8061 0-.4142.3358-.75.75-.75z"/><path d="m33.2017 85.1459c.222-.3497.6855-.4531 1.0352-.2311 2.2693 1.4411 4.3696 2.7836 6.4205 4.0946 3.7844 2.419 7.4004 4.7304 11.5998 7.355.3513.2196.458.6823.2385 1.0335-.2195.3513-.6822.4581-1.0335.2385-4.2051-2.6282-7.8326-4.9469-11.6216-7.3689-2.0497-1.3101-4.1466-2.6505-6.4078-4.0864-.3497-.2221-.4532-.6855-.2311-1.0352z"/><path d="m34.5035 68.5c.4142 0 .75.3358.75.75l.0002 16.9663c0 .4142-.3357.75-.75.75-.4142 0-.75-.3358-.75-.75l-.0002-16.9663c0-.4142.3358-.75.75-.75z"/><path d="m61.3682 83.2563c.223-.349.6868-.4511 1.0358-.228.9481.606 1.894 1.2143 2.8391 1.8221 5.8943 3.7904 11.7628 7.5643 17.9925 10.6791.3705.1852.5207.6357.3354 1.0062-.1852.3705-.6357.5207-1.0062.3354-6.3081-3.154-12.2519-6.9766-18.1418-10.7646-.9433-.6066-1.8851-1.2124-2.8268-1.8143-.349-.2231-.4511-.6869-.228-1.0359z"/><path d="m80.5593 93.4443c.4142 0 .75.3358.75.75 0 4.8123 0 11.0557-.0003 17.8057-.0001.415-.3359.75-.7501.75s-.75-.335-.7499-.75c.0003-6.75.0003-12.9934.0003-17.8057 0-.4142.3358-.75.75-.75z"/><path d="m61.7017 100.146c.222-.3498.6855-.4532 1.0352-.2312 2.2693 1.4412 4.3696 2.7832 6.4204 4.0942 3.7845 2.419 7.4005 4.731 11.5999 7.355.3513.22.458.683.2385 1.034s-.6822.458-1.0335.238c-4.2051-2.628-7.8326-4.946-11.6216-7.368-2.0497-1.311-4.1466-2.651-6.4078-4.087-.3497-.222-.4532-.685-.2311-1.035z"/><path d="m63.0035 83.5c.4142 0 .75.3358.75.75l.0002 16.966c0 .415-.3357.75-.75.75-.4142 0-.75-.335-.75-.75l-.0002-16.966c0-.4142.3358-.75.75-.75z"/><path d="m92.8682 101.256c.223-.349.6868-.451 1.0358-.228.9481.606 1.894 1.215 2.8391 1.822 5.8939 3.791 11.7629 7.565 17.9929 10.679.37.186.52.636.335 1.007-.185.37-.636.52-1.006.335-6.308-3.154-12.252-6.977-18.142-10.765-.9433-.606-1.8851-1.212-2.8268-1.814-.349-.223-.4511-.687-.228-1.036z"/><path d="m112.059 111.444c.414 0 .75.336.75.75v17.806c0 .415-.336.75-.75.75s-.75-.335-.75-.75c0-6.75 0-12.993 0-17.806 0-.414.336-.75.75-.75z"/><path d="m93.2017 118.146c.222-.35.6855-.453 1.0352-.231 2.2693 1.441 4.3696 2.783 6.4201 4.094 3.785 2.419 7.401 4.731 11.6 7.355.351.22.458.683.239 1.034-.22.351-.683.458-1.034.238-4.205-2.628-7.832-4.946-11.6214-7.368-2.0497-1.311-4.1466-2.651-6.4078-4.087-.3497-.222-.4532-.685-.2311-1.035z"/><path d="m94.5035 101.5c.4142 0 .75.336.75.75l.0002 16.966c0 .415-.3357.75-.75.75-.4142 0-.75-.335-.75-.75l-.0002-16.966c0-.414.3358-.75.75-.75z"/><path d="m45.9379 58.0004c.414.0142.7382.3612.7241.7752-.0764 2.2389-.0536 5.801-.0281 9.7883.0138 2.1519.0283 4.4276.0285 6.686 0 .4143-.3357.7501-.7499.7501-.4143 0-.7501-.3357-.7501-.7499-.0002-2.224-.0146-4.4808-.0282-6.6248-.0256-4.0139-.0487-7.6325.0286-9.9008.0141-.414.3612-.7382.7751-.7241z"/><path d="m105.109 92.5c.415 0 .75.3357.75.7499.001 5.2813.001 7.3711.001 9.8411 0 1.388-.001 2.897-.001 5.159 0 .414-.335.75-.75.75-.414 0-.75-.336-.75-.75 0-2.263.001-3.771.001-5.159 0-2.47 0-4.5597-.001-9.8409 0-.4143.336-.7501.75-.7501z"/><path d="m74.3597 59.5c.4142 0 .75.3358.75.75v31.5c0 .4142-.3357.75-.75.75-.4142 0-.75-.3358-.75-.75v-31.5c0-.4142.3358-.75.75-.75z"/><path d="m45.2127 58.3708c.2095-.3573.669-.4772 1.0263-.2677 21.7484 12.7491 44.9972 26.2483 59.247 34.498.358.2075.48.6663.273 1.0248-.208.3585-.667.4808-1.025.2733-14.2507-8.2504-37.5019-21.7511-59.2535-34.5021-.3574-.2094-.4773-.6689-.2678-1.0263z"/></g><path d="m85.3134 74.258s10.6179.3963 9.6003-7.0109c-.4135-3.0164-1.497-5.5512-5.053-7.6685 2.8584-11.3349-6.4682-18.2535-13.0269-14.7529-1.03.5494-6.2523-7.2403-12.0909-3.6179-5.8384 3.6221-7.288 11.3511-4.4085 16.4656 2.8789 5.1153 24.979 16.5846 24.979 16.5846z" fill="#fff"/><path clip-rule="evenodd" d="m91.9595 60.9377c1.1657.3982 2.3635 1.1487 2.9602 2.2382 1.1076 2.0246 1.5081 4.6626.2041 7.0666-1.3095 2.4141-3.0024 4.5449-5.8683 5.0193-.6018.0996-1.2906.0136-1.996-.1636-.7161-.1798-1.5081-.469-2.3401-.8275-1.6636-.7168-3.5531-1.7398-5.4211-2.8166-1.2613-.727-2.5287-1.4879-3.7177-2.2018-.5707-.3426-1.1234-.6744-1.6488-.9865-1.6432-.976-2.9965-1.7449-3.8731-2.1094-.3783-.1573-.5591-.5955-.4038-.9786.1554-.3832.5881-.5663.9665-.4089.9917.4123 2.4388 1.2401 4.0599 2.2031.5373.3191 1.0964.6548 1.6704.9995 1.1828.7101 2.429 1.4583 3.6793 2.179 1.8557 1.0696 3.6855 2.0579 5.2684 2.74.7913.341 1.5044.5981 2.1166.7518.6231.1565 1.0859.1912 1.4005.1391 2.1644-.3582 3.5559-1.9509 4.809-4.261.997-1.8381.7296-3.9157-.2014-5.6173-.3463-.6321-1.1518-1.2072-2.138-1.544-.993-.3392-1.9412-.3597-2.4764-.1368-.3783.1576-.8111-.0251-.9667-.4082-.1556-.383.0248-.8213.4031-.9789 1.0019-.4175 2.3543-.2934 3.5134.1025z" fill="#000" fill-rule="evenodd"/><path clip-rule="evenodd" d="m86.4832 46.2035c-4.8626-3.0649-9.8964-.798-11.8124.7447-.3226.2598-.7947.2088-1.0545-.1138s-.2088-.7947.1138-1.0545c2.1658-1.7438 7.9196-4.396 13.5529-.8454 2.9024 1.8294 4.0333 4.9657 4.3225 8.0162.2896 3.0553-.2467 6.1619-.8207 8.1707-.1138.3982-.5289.6289-.9271.5151-.3983-.1138-.6289-.5289-.5152-.9272.5393-1.8875 1.0367-4.8001.7697-7.617-.2675-2.8217-1.2835-5.4104-3.629-6.8888z" fill="#000" fill-rule="evenodd"/><path clip-rule="evenodd" d="m65.692 40.7537c3.7268-1.3785 8.0322-.5875 10.3864 2.4795l-.5847.4603.5844-.4608c.0001.0002.0002.0003.0003.0005.2364.3076.5359.8686.7787 1.3862.2417.5154.4882 1.1172.5716 1.5199.084.4054-.1725.8029-.5728.8879-.4003.0851-.7929-.1747-.8769-.5801-.0438-.2116-.2197-.672-.4599-1.1841-.239-.5095-.4808-.941-.6098-1.1088l-.0004-.0004c-1.8692-2.4352-5.4365-3.2015-8.7086-1.9911-3.2209 1.1913-6.0963 4.2997-6.4411 9.5481v.0002c-.152 2.3025.0301 5.003 1.4895 6.8791-.0175-.0151-.0349-.0302-.0523-.0453l-.483.5686.5763-.4711c-.0138-.0173-.0274-.0347-.041-.0522 2.4382 2.1091 5.7703 3.983 8.3207 5.4173.7521.423 1.4363.8078 2.0095 1.1491.3526.2099.4704.6696.2631 1.0266-.2073.3571-.6613.4764-1.0139.2664-.5197-.3095-1.1613-.67-1.881-1.0744-2.5729-1.4458-6.144-3.4525-8.7166-5.6931-.034-.0296-.0652-.0622-.0933-.0975-1.8733-2.35-2.0132-5.5914-1.8559-7.9735 0 .0001 0 .0002-.0001.0002l.739.0498-.7389-.05c.3833-5.8335 3.6328-9.4598 7.4107-10.8573z" fill="#000" fill-rule="evenodd"/></svg>