<svg fill="none" viewBox="0 0 150 150" xmlns="http://www.w3.org/2000/svg"><path d="m105.408 113.801-47.3929-14.8351v-63.0489l45.8389 14.835z" fill="#f2a966"/><path clip-rule="evenodd" d="m54.1925 35.6849c.1278-.394.5508-.6099.9448-.4821 1.2042.3904 2.3765.7707 3.5207 1.1419 18.4182 5.975 29.5479 9.5855 49.284 15.1684.398.1127.63.5272.517.9258-.112.3986-.527.6303-.925.5175-19.7642-5.5907-30.9174-9.2089-49.3358-15.1839-1.1451-.3715-2.3184-.7521-3.5236-1.1428-.394-.1278-.6098-.5508-.4821-.9448zm0 62.3072c.1278-.3941.5508-.6099.9448-.4821 9.6518 3.129 17.0301 5.423 24.2314 7.662 8.1124 2.521 16.0001 4.973 26.6603 8.472.394.129.608.553.479.946-.129.394-.553.608-.946.479-10.6921-3.509-18.5362-5.947-26.6148-8.458-7.1832-2.232-14.5519-4.522-24.2726-7.6742-.394-.1277-.6098-.5507-.4821-.9447z" fill="#000" fill-rule="evenodd"/><path clip-rule="evenodd" d="m57.2378 32.2002c.4142 0 .75.3358.75.75v67.4998c0 .414-.3358.75-.75.75s-.75-.336-.75-.75v-67.4998c0-.4142.3358-.75.75-.75zm46.6162 13.3515c.414 0 .75.3358.75.75v67.4993c0 .414-.336.75-.75.75s-.75-.336-.75-.75v-67.4993c0-.4142.336-.75.75-.75z" fill="#000" fill-rule="evenodd"/><path d="m93.0514 120.204-47.3932-14.835v-63.0487l45.8394 14.835z" fill="#fff"/><g clip-rule="evenodd" fill="#000" fill-rule="evenodd"><path d="m41.8356 42.0882c.1278-.394.5507-.6099.9448-.4821 1.2042.3905 2.3765.7708 3.5207 1.142 18.4182 5.9749 29.5479 9.5854 49.2838 15.1683.3986.1128.6303.5273.5176.9258-.1128.3986-.5273.6303-.9259.5176-19.7638-5.5908-30.917-9.2089-49.3353-15.184-1.1452-.3715-2.3184-.7521-3.5236-1.1428-.394-.1278-.6099-.5508-.4821-.9448zm0 62.3068c.1278-.394.5507-.609.9448-.482 9.6519 3.13 17.0302 5.423 24.2315 7.662 8.1123 2.522 16.0001 4.974 26.6604 8.472.3936.129.6079.553.4787.947-.1291.393-.5529.608-.9464.478-10.6917-3.508-18.5358-5.946-26.6143-8.457-7.1833-2.233-14.5519-4.523-24.2726-7.675-.394-.128-.6099-.551-.4821-.945z"/><path d="m51.1609 82.481c.1303-.3932.5547-.6062.9479-.4759.7436.2466 1.4675.4867 2.174.7211 11.3759 3.7736 18.2454 6.0523 30.4297 9.5767.3979.1151.6271.531.512.9289s-.5309.6272-.9288.5121c-12.2126-3.5326-19.106-5.8193-30.4821-9.593-.7075-.2347-1.4323-.4752-2.1769-.722-.3931-.1304-.6062-.5548-.4758-.9479zm1.1997 10.3064c.1303-.3932.5547-.6062.9479-.4759 6.3641 2.1101 10.3365 3.4971 14.2733 4.8787.2483.0871.4964.1742.7449.2614 3.691 1.2957 7.4799 2.6254 13.3082 4.5814.3927.132.6042.557.4725.95-.1318.393-.557.604-.9497.472-5.8382-1.959-9.6353-3.292-13.3272-4.5878-.2487-.0873-.497-.1745-.7454-.2616-3.9328-1.3802-7.8962-2.7641-14.2487-4.8703-.3932-.1304-.6062-.5548-.4758-.9479z"/><path d="m44.8809 38.6035c.4142 0 .75.3358.75.75v67.4995c0 .414-.3358.75-.75.75-.4143 0-.75-.336-.75-.75v-67.4995c0-.4142.3357-.75.75-.75zm46.6162 13.3515c.4142 0 .75.3358.75.75v67.499c0 .415-.3358.75-.75.75s-.75-.335-.75-.75v-67.499c0-.4142.3358-.75.75-.75z"/></g><path d="m51.426 72.9185v-19.0542l32.348 10.6277v19.8436z" fill="#f2a966"/><path d="m109.557 51.8216c0 7.6896-6.234 13.9232-13.9234 13.9232-7.6895 0-13.9232-6.2336-13.9232-13.9232 0-7.6895 6.2337-13.9232 13.9232-13.9232 7.6894 0 13.9234 6.2337 13.9234 13.9232z" fill="#fcfeff"/><path clip-rule="evenodd" d="m95.6336 38.6484c-7.2753 0-13.1732 5.8979-13.1732 13.1732 0 7.2754 5.8979 13.1732 13.1732 13.1732 7.2754 0 13.1734-5.8978 13.1734-13.1732 0-7.2753-5.898-13.1732-13.1734-13.1732zm-14.6732 13.1732c0-8.1037 6.5695-14.6732 14.6732-14.6732 8.1034 0 14.6734 6.5695 14.6734 14.6732 0 8.1038-6.57 14.6732-14.6734 14.6732-8.1037 0-14.6732-6.5694-14.6732-14.6732z" fill="#000" fill-rule="evenodd"/><path clip-rule="evenodd" d="m110.212 39.8967c.202.3615.073.8185-.289 1.0207-3.155 1.7648-6.459 4.2521-9.09 7.1601-2.6365 2.9143-4.5496 6.198-5.0237 9.5569-.0508.3599-.3524.6316-.7156.6447-.3629.0131-.683-.2356-.76-.5904 0-.0002-.0001-.0004-.0001-.0005l-.0001-.0005-.0014-.006-.0079-.0337c-.0075-.0315-.0197-.0806-.0371-.1461-.0349-.1311-.0906-.3273-.1719-.5776-.1627-.501-.4271-1.217-.8304-2.06-.8073-1.6873-2.1652-3.8722-4.3661-5.8635-.3072-.2779-.3309-.7522-.053-1.0594.2779-.3071.7522-.3308 1.0594-.0529 2.3778 2.1514 3.8423 4.509 4.7128 6.3284.1067.223.2045.4381.2941.6439.932-2.8088 2.6727-5.4508 4.7886-7.7896 2.7554-3.0453 6.1934-5.6301 9.4704-7.4629.361-.2022.818-.0731 1.021.2884z" fill="#000" fill-rule="evenodd"/></svg>