<svg fill="none" viewBox="0 0 100 100" xmlns="http://www.w3.org/2000/svg"><path d="m84.375 50c0 18.9848-15.3902 34.375-34.375 34.375s-34.375-15.3902-34.375-34.375 15.3902-34.375 34.375-34.375 34.375 15.3902 34.375 34.375z" fill="#fff"/><path clip-rule="evenodd" d="m50 82.6562c18.0355 0 32.6562-14.6207 32.6562-32.6562s-14.6207-32.6562-32.6562-32.6562-32.6562 14.6207-32.6562 32.6562 14.6207 32.6562 32.6562 32.6562zm0 1.7188c18.9848 0 34.375-15.3902 34.375-34.375s-15.3902-34.375-34.375-34.375-34.375 15.3902-34.375 34.375 15.3902 34.375 34.375 34.375z" fill="#000" fill-rule="evenodd"/><path d="m43.1399 52.0379-13.4312 12.1036c9.249 6.9171 24.1894 10.194 31.2308 1.9789 7.0415-8.2151 3.5208-19.7551 3.3252-23.8627l3.8893-3.7736-5.0071-.8281c-1.575-3.9613-4.7711-8.2567-9.3898-8.5807-6.1609-.4321-6.7049 2.2286-9.4433 5.9449-2.1907 2.9731-1.6954 12.5839-1.1739 17.0177z" fill="#f2a966"/><g clip-rule="evenodd" fill="#000" fill-rule="evenodd"><path d="m48.193 47.1716c.32.3505.2953.894-.0552 1.214l-31.0469 28.3449c-.3505.3201-.8941.2953-1.2141-.0552s-.2953-.8941.0553-1.2141l31.0468-28.3449c.3505-.32.8941-.2953 1.2141.0553z"/><path d="m44.642 37.7553c-1.3717 4.5814-1.4159 10.1912-.7817 14.1456.0751.4686-.2438.9095-.7125.9846-.4686.0752-.9094-.2438-.9846-.7124-.6657-4.1509-.6292-10.0298.8323-14.9108 1.454-4.8561 4.4518-9.0621 9.8878-9.0621h.0002c3.9302.0007 6.779 1.7621 8.7717 4.4342 1.9648 2.6346 3.0916 6.139 3.7103 9.6932 1.2363 7.1022.5012 14.7633-.0566 17.1067-.6159 2.5892-3.4421 8.0081-9.2447 10.7645-5.8814 2.7939-14.568 2.7423-26.6485-5.1853-.3968-.2604-.5073-.7931-.2469-1.1899s.7931-.5074 1.1899-.247c11.7626 7.719 19.8012 7.5241 24.968 5.0697 5.2456-2.4917 7.7907-7.4259 8.3101-9.6098l.0001-.0001c.5044-2.1194 1.231-9.5448.0353-16.4141-.5974-3.4316-1.66-6.6342-3.3948-8.9604-1.7069-2.2888-4.0678-3.7423-7.3941-3.743m-8.2413 7.8364c1.3792-4.6062 3.9671-7.8363 8.2412-7.8364z"/><path d="m62.242 36.7552c.103-.4634.562-.7555 1.0254-.6525 3.2684.7263 5.6789 1.1905 7.4029 1.4765 1.1738-.0834 2.2454-.0076 2.9731.1024.2873.0434.5422.0952.7415.1521.0959.0274.2062.0635.3089.1119.0496.0234.1263.063.2055.1236.0558.0426.2413.1898.3229.462.0472.1577.0536.3411-.006.5245-.0569.1748-.1566.2973-.2396.3744-.1485.1381-.3077.1914-.3679.2101-.1416.0441-.2864.0561-.3835.0612-.2186.0116-.5168.0007-.8888-.0299-.6115-.0503-1.5045-.1615-2.7388-.3624-.5127.0449-1.0412.1254-1.5567.2545-1.614.4043-2.932 1.2324-3.4408 2.759-.1501.4503-.6368.6937-1.0871.5436-.4502-.1501-.6936-.6368-.5435-1.0871.5147-1.544 1.5686-2.5442 2.777-3.1803-1.1323-.2277-2.4117-.4982-3.852-.8183-.4633-.103-.7554-.562-.6525-1.0253zm11.9272 1.2271s-.001.0002-.0034.0004z"/></g></svg>