<svg fill="none" viewBox="0 0 150 150" xmlns="http://www.w3.org/2000/svg"><path d="m66.9734 104.024v-8.4245l10.4068-6.4423h35.6708l7.938 6.9379v9.9109l-11.893 6.443h-30.2292z" fill="#fff"/><path d="m64 101.49c5.9888 4.889 8.9832 7.605 13.6887 11.407" stroke="#000" stroke-linecap="round" stroke-linejoin="round"/><path d="m77.876 111.952c6.3436.098 25.138.388 32.119.496" stroke="#000" stroke-linecap="round" stroke-linejoin="round"/><path d="m67.1201 92.2285c0 6.3438.0001 11.2995 0 14.7685" stroke="#000" stroke-linecap="round" stroke-linejoin="round"/><path d="m78.8669 100.06v11.397" stroke="#000" stroke-linecap="round" stroke-linejoin="round"/><path d="m109.096 99.5625v13.8755" stroke="#000" stroke-linecap="round" stroke-linejoin="round"/><path d="m120.99 92.626v13.876" stroke="#000" stroke-linecap="round" stroke-linejoin="round"/><path d="m66.2815 93.5049c6.9378 4.46 7.0968 4.5161 12.548 7.9851" stroke="#000" stroke-linecap="round" stroke-linejoin="round"/><path d="m78.8293 101.49h30.7247" stroke="#000" stroke-linecap="round" stroke-linejoin="round"/><path d="m110.199 87.2305s8.556 6.2739 12.548 9.1258" stroke="#000" stroke-linecap="round" stroke-linejoin="round"/><path d="m65.7112 95.2165c2.8518-1.1408 15.3998-5.7037 20.533-7.4147" stroke="#000" stroke-linecap="round" stroke-linejoin="round"/><path d="m80.5405 88.9415c12.8713 0 25.5565-.1789 38.1875-.1789" stroke="#000" stroke-linecap="round" stroke-linejoin="round"/><path d="m108.03 112.827c5.03-2.361 8.995-4.343 14.942-7.316m-14.942-3.451c5.03-2.3603 10.023-4.4411 15.97-7.4145" stroke="#000" stroke-linecap="round" stroke-linejoin="round"/><path d="m68.46 105.014 2.4781-8.4242m.4768 11.1742c.7608-2.953 2.2148-6.175 2.9921-9.1919m.43 12.0429 3.0389-9.565" stroke="#000" stroke-linecap="round" stroke-linejoin="round"/><path d="m79.3623 111.863 2.744-9.822m1.878 9.822c.8793-3.412 1.909-6.815 2.8114-10.317m1.6238 10.37c.8808-3.418 1.7078-6.875 2.6084-10.37" stroke="#000" stroke-linecap="round" stroke-linejoin="round"/><path d="m103.229 102.046c-.862 3.344-1.714 6.653-2.557 9.924m-4.4605 0c.8416-3.266 1.6939-6.573 2.5575-9.924m-3.9644-.018-2.5575 9.924" stroke="#000" stroke-linecap="round" stroke-linejoin="round"/><path d="m107.397 102.041-2.682 10.407m7.354-11.894-3.517 11.894m8.088-14.3714c-.99 3.8424-1.969 7.6424-2.937 11.3974z" stroke="#000" stroke-linecap="round" stroke-linejoin="round"/><path d="m120.603 96.0951-3.082 11.8939" stroke="#000" stroke-linecap="round" stroke-linejoin="round"/><path d="m24.7751 68.6735v-7.8628l9.713-6.0128h33.2929l7.4092 6.4753v9.2504l-11.1006 6.0128h-28.2139z" fill="#fff"/><path d="m22 66.3096c5.5895 4.5629 8.3843 7.0978 12.7761 10.6467" stroke="#000" stroke-linecap="round" stroke-linejoin="round"/><path d="m34.9509 76.0733c5.9208.0914 23.4623.3621 29.9778.4625" stroke="#000" stroke-linecap="round" stroke-linejoin="round"/><path d="m24.9121 57.665c0 5.9209.0001 10.5462 0 13.7838" stroke="#000" stroke-linecap="round" stroke-linejoin="round"/><path d="m35.8757 64.9736v10.6381" stroke="#000" stroke-linecap="round" stroke-linejoin="round"/><path d="m64.0896 64.5098v12.9506" stroke="#000" stroke-linecap="round" stroke-linejoin="round"/><path d="m75.1902 58.0361v12.9507" stroke="#000" stroke-linecap="round" stroke-linejoin="round"/><path d="m24.1294 58.8564c6.4753 4.1628 6.6237 4.2151 11.7114 7.4528" stroke="#000" stroke-linecap="round" stroke-linejoin="round"/><path d="m35.8408 66.3096c5.464 0 22.6637.0001 28.6765 0" stroke="#000" stroke-linecap="round" stroke-linejoin="round"/><path d="m65.1194 53s7.9851 5.8557 11.7114 8.5174" stroke="#000" stroke-linecap="round" stroke-linejoin="round"/><path d="m23.5972 60.4536c2.6617-1.0647 14.3731-5.3234 19.1641-6.9204" stroke="#000" stroke-linecap="round" stroke-linejoin="round"/><path d="m37.4377 54.5966c12.0132 0 23.8529-.167 35.642-.167" stroke="#000" stroke-linecap="round" stroke-linejoin="round"/><path d="m63.0945 76.8903c4.6952-2.2032 8.3954-4.0533 13.9457-6.8284m-13.9457-3.2206c4.6952-2.2031 9.3552-4.1453 14.9054-6.9204" stroke="#000" stroke-linecap="round" stroke-linejoin="round"/><path d="m26.1627 69.5982 2.3129-7.8629m.4449 10.4288c.7101-2.7555 2.0672-5.7632 2.7927-8.5787m.4013 11.2404 2.8364-8.928" stroke="#000" stroke-linecap="round" stroke-linejoin="round"/><path d="m36.3382 75.9901 2.561-9.1673m1.7528 9.1674c.8207-3.1846 1.7818-6.3612 2.6241-9.6297m1.5154 9.6787c.8221-3.19 1.594-6.4168 2.4346-9.6787" stroke="#000" stroke-linecap="round" stroke-linejoin="round"/><path d="m58.6139 66.8279c-.8045 3.1217-1.6002 6.2094-2.3871 9.2629m-4.1628-.0001c.7855-3.0482 1.581-6.1348 2.3871-9.2628m-3.7002-.0166-2.387 9.2628" stroke="#000" stroke-linecap="round" stroke-linejoin="round"/><path d="m62.5041 66.823-2.503 9.713m6.8636-11.1005-3.2827 11.1005m7.549-13.4132c-.9243 3.5867-1.8381 7.1328-2.7414 10.6381z" stroke="#000" stroke-linecap="round" stroke-linejoin="round"/><path d="m74.8298 61.2736-2.8772 11.1006" stroke="#000" stroke-linecap="round" stroke-linejoin="round"/><path clip-rule="evenodd" d="m95.2594 95.7614-3.739 1.1436-5.5427-3.7337 1.6926-3.3878-2.0213-6.6088-2.4954.7632-.1513-9.4169 2.7726-.848 1.817-2.9813-1.3568-4.4362 5.0822-5.1928 4.0109 1.2178 1.1819 3.8644 1.0362-4.5428 5.2807.7915 2.911 5.1738-2.009 3.3434 1.356 4.4362 2.773-.848 1.333 8.7024-3.893.1125-2.13 4.5998 2.496 4.6654-4.725 3.9129-5.2655.6233zm-1.8841-16.5108 2.7268-3.3311 2.6327.4433-.1255 5.0326-2.0821 2.7177-1.7551-.2955z" fill="#f2a966" fill-rule="evenodd"/><g stroke="#000" stroke-linecap="round" stroke-linejoin="round"><path d="m83.1023 83.6582c.4848.0098.9495-.0345 1.4347-.0875 2.1046-.2297 4.2009-.5303 6.3007-.7982"/><path d="m81.8396 74.6914c.4983-.0689.9553-.1179 1.4637-.115 2.4147.0137 4.8314.137 7.2445.2101"/><path d="m85.7566 66.1611c2.4804.0525 4.9795-.1596 7.4553-.2618"/><path d="m89.7664 61.2344c2.1801.1284 4.3641.2006 6.5461.2854"/><path d="m97.2817 61.8291c1.8557-.1172 3.7403.008 5.5963.0378"/><path d="m105.391 75.3604c1.168-.0647 2.337-.1337 3.505-.1975"/><path d="m105.477 83.3408c1.301-.0912 2.609-.1263 3.912-.1873"/><path d="m103.89 87.3926c.141.2879.255.5517.357.8625.576 1.7419 1.06 3.5144 1.586 5.2711"/><path d="m99.5823 92.0068c.6597 1.6756 1.1637 3.4155 1.7647 5.1117"/><path d="m94.9142 97.2022c1.0567-1.3839 1.6567-3.1463 2.3967-4.7025"/><path d="m90.6076 92.7999c.7198-1.7738 1.8712-3.3945 2.8324-5.0377"/><path d="m93.0705 88.8133c-.6796-1.4032-1.9997-3.9597-2.3355-6.8173"/><path d="m90.7461 74.9952c.2954-1.2341.7992-2.6665 2.6378-4.5744"/><path d="m91.491 65.5512c.6292 2.2295 1.2532 4.4599 1.9092 6.6823"/><path d="m95.4087 61.8633c.5582 1.8252 1.1165 3.6504 1.6747 5.4757"/><path d="m96.3179 67.0352c1.0459-.3199 2.6166-.4639 3.6559.2947"/><path d="m99.3258 67.1915c.2513-.3443.4548-.6812.6629-1.0587 1.0663-1.9336 2.1023-3.8841 3.1513-5.8268"/><path d="m103.809 71.0684c.026-.2187.067-.4171.162-.6178.726-1.5384 1.577-3.0243 2.368-4.5291"/><path d="m101.904 61.7617c.473.4543.767.9591 1.111 1.5292.729 1.21 1.383 2.4844 2.172 3.6565.1.1476.23.2748.407.2792"/><path d="m103.639 70.5137c1.17 2.0643 1.796 3.5705 1.694 5.5372"/><path d="m107.798 75.0949c1.278 2.6369.93 6.78.794 8.9746"/><path d="m103.34 88.2335c1.378-2.0462 1.762-3.3246 1.934-5.7724"/><path d="m100.373 97.013c.364-.1813.598-.334.914-.6273 1.701-1.5749 2.471-2.1238 5.078-4.3272"/><path d="m96.3 97.1133c1.9138-.3191 3.901-.2177 5.796-.6288"/><path d="m96.4985 97.3239c-.3334-.6805-.6444-1.3733-.9663-2.0593"/><path d="m88.2532 83.5629c-.9988-2.3858-1.3693-7.1166-.4196-9.2909"/><path d="m83.7874 83.9201c-.9995-3.0206-.9162-6.5151-.2675-9.6738"/><path d="m85.9075 74.793c.6522-1.059 1.2307-2.1628 1.8313-3.2513"/><path d="m86.2447 66.2148c.4184 1.3679.7606 2.7576 1.1382 4.1371.0689.2515.1085.4214.2492.6191"/><path d="m86.9871 71.5039c2.3108-.0024 4.0351-.2429 6.0017-.1939"/><path d="m96.5701 65.8809c.477-1.7007.9807-3.3947 1.4702-5.0919"/><path d="m85.2975 66.6378c1.8487-1.9843 3.9157-3.8091 5.8608-5.6948"/><path d="m90.9351 66.5948c1.0752-.9162 2.0236-2.006 3.0014-3.0186 1.1081-1.1475 2.2317-2.2825 3.2865-3.4796"/><path d="m86.8438 83.792c.5091 1.6646 1.2617 3.2455 1.7702 4.9082"/><path d="m88.0164 88.7646c1.8454-.0957 3.4362-.238 5.9649-.4183"/><path d="m86.0319 93.4591c.3679-.4747.6048-1.0201.8777-1.5543.606-1.1859 1.2007-2.3772 1.7941-3.5688"/><path d="m85.7485 93.4111c2.0663-.3053 3.5785-.3608 6.2812-.7187"/><path d="m96.7246 92.3428c1.4214-.0688 2.7818-.3875 4.1494-.7309"/><path d="m90.6125 92.5967c1.4269 1.0724 2.7509 2.2709 4.1233 3.4111.4399.3655.9212.8603 1.484 1.0637"/><path d="m85.8904 93.4355c2.0035 1.2711 4.0734 2.7019 5.7455 3.827"/><path d="m90.5388 97.1943c1.6776-.478 3.5214-.1517 5.2231-.5209"/><path d="m94.1755 83.5674c2.6854.8607 4.463 1.3935 6.3155 2.1723"/><path d="m95.1379 84.9552c-.2808-1.7979-1.0132-5.0725-1.4445-7.3626"/><path d="m93.1611 79.3702c.7161-1.0838 3.4624-4.5307 4.2098-5.5935"/><path d="m95.7336 74.1436c1.8711.5055 3.8588.6727 5.7694.9715.503.0787 1.16.0994 1.669.2519"/><path d="m98.6931 86.0216c.8339-.7933 3.7489-4.1147 4.4359-4.8552"/><path d="m102.542 81.8849c-.185-2.3654-.617-4.6556-.802-7.021"/><path d="m98.4414 75.7372c.0851.9515.1759 1.9025.2454 2.8554.063.8647.1145 1.7305.188 2.5944.0116.137.0122.1868.0442.2911"/><path d="m96.0191 84.3155c.5704-.4429 1.0969-.9459 1.6343-1.4269.5249-.4698 1.0716-.9264 1.561-1.4343"/><path d="m96.0999 75.7803c1.1349.1911 1.7023.2867 3.0834.4025"/><path d="m98.1892 76.4536c1.4765-.4516 3.3558-1.1332 4.6098-1.6454"/><path d="m98.3176 81.4932c1.0023-.0633 2.0044-.115 3.0054-.1942.771-.0609 1.548-.1017 2.307-.2533"/><path d="m97.3844 75.9256c.4593-.3507 1.0687-.8294 1.7776-1.4121m-.6031 4.2821c1.2044-.096 2.4081-.1966 3.6201-.2998"/><path d="m100.805 83.6657-3.717-.4858"/><path d="m100.099 94.1367-3.7227.5093m-3.6909.1915-3.8361.656"/><path d="m97.4154 64.33c1.2671-.0344 2.3473.0555 3.9206-.0101"/><path d="m91.8026 90.4191c-1.5161.1384-2.6849.1975-4.1194.3228m3.5719-5.2826-3.4108.2867"/><path d="m87.1309 77.2679-3.9392.319m-.4394 2.9463 4.7812-.4323"/><path d="m92.1704 68.5156-5.5047.5093m.3226 4.1194 3.8219.2371"/><path d="m88.4477 63.7936c1.8042-.0937 2.2938.0022 5.5048-.0582z"/></g><path clip-rule="evenodd" d="m44.4077 59.6234h-3.91l-4.2084-5.1914 2.6095-2.7446v-6.9111h-2.6095l2.6095-9.0493h2.8994l2.6095-2.3196v-4.639l6.3787-3.4793 3.4793 2.3376v4.0411l2.3196-4.0411 4.8184 2.3014 1.2703 5.7989-2.8994 2.6095v4.639h2.8994l-1.2703 8.7119-3.7556-1.031-3.3824 3.7756 1.0226 5.1914-5.6634 2.3598-5.2172-.9439zm3.0272-16.3398 3.5819-2.3879 2.3879 1.1939-1.5919 4.7758-2.7859 1.99-1.592-.796z" fill="#fcf4e3" fill-rule="evenodd"/><path d="m36.322 44.4941c.4608.1512.9181.2448 1.3976.336 2.0797.3958 4.1723.7215 6.2586 1.0795" stroke="#000" stroke-linecap="round" stroke-linejoin="round"/><path d="m37.7373 35.5498c.4967.0798.948.1667 1.4333.3181 2.3052.7194 4.5801 1.5441 6.8663 2.3198" stroke="#000" stroke-linecap="round" stroke-linejoin="round"/><path d="m43.9775 28.5391c2.3566.7755 4.8085 1.3036 7.2059 1.9301" stroke="#000" stroke-linecap="round" stroke-linejoin="round"/><path d="m49.2532 25c2.0473.7604 4.1146 1.4682 6.1764 2.1875" stroke="#000" stroke-linecap="round" stroke-linejoin="round"/><path d="m56.2661 27.7666c1.8088.4307 3.574 1.1014 5.3401 1.6728" stroke="#000" stroke-linecap="round" stroke-linejoin="round"/><path d="m60.0627 43.0781c1.1364.28 2.2738.5557 3.41.8364" stroke="#000" stroke-linecap="round" stroke-linejoin="round"/><path d="m57.811 50.7354c1.2711.2933 2.5322.6424 3.796.965" stroke="#000" stroke-linecap="round" stroke-linejoin="round"/><path d="m55.1086 54.1455c.0509.3167.0821.6021.0894.9293.0409 1.8341-.0148 3.6706-.025 5.5045" stroke="#000" stroke-linecap="round" stroke-linejoin="round"/><path d="m49.6396 57.2979c.1409 1.7952.1137 3.6064.1931 5.4043" stroke="#000" stroke-linecap="round" stroke-linejoin="round"/><path d="m43.6562 60.9004c1.4154-1.0143 2.5046-2.5242 3.6673-3.7959" stroke="#000" stroke-linecap="round" stroke-linejoin="round"/><path d="m40.8254 55.4313c1.2071-1.4856 2.7822-2.6987 4.182-3.9889" stroke="#000" stroke-linecap="round" stroke-linejoin="round"/><path d="m44.3465 52.34c-.2395-1.5406-.7542-4.3714-.2395-7.2023" stroke="#000" stroke-linecap="round" stroke-linejoin="round"/><path d="m46.1653 38.4457c.6434-1.0937 1.5441-2.3162 3.8603-3.6029" stroke="#000" stroke-linecap="round" stroke-linejoin="round"/><path d="m49.6397 29.6328c-.0504 2.316-.106 4.6314-.1287 6.9485" stroke="#000" stroke-linecap="round" stroke-linejoin="round"/><path d="m54.4646 27.252v5.726" stroke="#000" stroke-linecap="round" stroke-linejoin="round"/><path d="m53.8215 32.4639c1.0938 0 2.6379.3217 3.4099 1.3511" stroke="#000" stroke-linecap="round" stroke-linejoin="round"/><path d="m56.6521 33.4931c.341-.2557.6342-.5183.9436-.8185 1.5849-1.5373 3.1468-3.0992 4.7181-4.6502" stroke="#000" stroke-linecap="round" stroke-linejoin="round"/><path d="m59.8052 38.512c.089-.2015.1867-.379.336-.5433 1.1443-1.2588 2.392-2.431 3.5886-3.6386" stroke="#000" stroke-linecap="round" stroke-linejoin="round"/><path d="m60.7061 29.0547c.3191.5726.4531 1.1415.6147 1.7872.3431 1.3702.5958 2.7801 1.008 4.1319.0519.1702.1396.3301.3074.386" stroke="#000" stroke-linecap="round" stroke-linejoin="round"/><path d="m59.8052 37.9316c.5147 2.3162.673 3.9397 0 5.7904" stroke="#000" stroke-linecap="round" stroke-linejoin="round"/><path d="m62.4427 43.5283c.4504 2.8952-1.0937 6.7555-1.8658 8.8143" stroke="#000" stroke-linecap="round" stroke-linejoin="round"/><path d="m54.3362 54.789c1.9166-1.5535 2.6577-2.6638 3.5386-4.954" stroke="#000" stroke-linecap="round" stroke-linejoin="round"/><path d="m48.9314 62.3164c.4012-.0669.6693-.1446 1.058-.3324 2.0873-1.0086 2.9837-1.3084 6.121-2.6529" stroke="#000" stroke-linecap="round" stroke-linejoin="round"/><path d="m45.0073 61.2217c1.9234.2545 3.7941.9327 5.7261 1.0937" stroke="#000" stroke-linecap="round" stroke-linejoin="round"/><path d="m45.1357 61.4803c-.1198-.7482-.2146-1.5017-.3217-2.2518" stroke="#000" stroke-linecap="round" stroke-linejoin="round"/><path d="m41.2755 45.9096c-.2574-2.5735.7721-7.2058 2.3161-9.0073" stroke="#000" stroke-linecap="round" stroke-linejoin="round"/><path d="m36.9006 44.9452c-.0723-3.1808 1.0294-6.4981 2.5735-9.329" stroke="#000" stroke-linecap="round" stroke-linejoin="round"/><path d="m41.5972 36.8372c.9334-.822 1.8094-1.7083 2.7022-2.5735" stroke="#000" stroke-linecap="round" stroke-linejoin="round"/><path d="m44.4287 28.7324c0 1.4305-.0792 2.8595-.1215 4.2892-.0078.2606-.0196.4347.0572.6648" stroke="#000" stroke-linecap="round" stroke-linejoin="round"/><path d="m43.5918 34.0078c2.2105.6736 3.9297.9479 5.796 1.57" stroke="#000" stroke-linecap="round" stroke-linejoin="round"/><path d="m54.4004 31.4335c.9535-1.487 1.9307-2.9596 2.8952-4.4394" stroke="#000" stroke-linecap="round" stroke-linejoin="round"/><path d="m43.3992 28.8605c2.3482-1.3568 4.8585-2.4972 7.2701-3.7316" stroke="#000" stroke-linecap="round" stroke-linejoin="round"/><path d="m48.803 30.4677c1.2961-.5616 2.5218-1.3264 3.753-2.0087 1.3953-.7733 2.8017-1.53 4.1605-2.3662" stroke="#000" stroke-linecap="round" stroke-linejoin="round"/><path d="m39.8606 45.7168c0 1.7407.2573 3.4727.2573 5.2114" stroke="#000" stroke-linecap="round" stroke-linejoin="round"/><path d="m39.5276 50.8154c1.7927.4482 3.3556.7774 5.8264 1.3446" stroke="#000" stroke-linecap="round" stroke-linejoin="round"/><path d="m36.2571 54.7241c.4906-.3463.8766-.7986 1.2939-1.2296.9263-.9569 1.8434-1.9222 2.7594-2.8881" stroke="#000" stroke-linecap="round" stroke-linejoin="round"/><path d="m36 54.5957c2.0652.3124 3.5276.7016 6.2167 1.1498" stroke="#000" stroke-linecap="round" stroke-linejoin="round"/><path d="m46.8086 56.7832c1.3794.35 2.7735.4431 4.182.5147" stroke="#000" stroke-linecap="round" stroke-linejoin="round"/><path d="m40.8896 55.2383c1.0508 1.4428 1.9664 2.9761 2.9453 4.4679.3138.4782.6293 1.0921 1.108 1.4512" stroke="#000" stroke-linecap="round" stroke-linejoin="round"/><path d="m36.1287 54.6592c1.5441 1.8014 3.105 3.7751 4.3749 5.34" stroke="#000" stroke-linecap="round" stroke-linejoin="round"/><path d="m39.4744 59.6133c1.7439.0335 3.4117.8848 5.147 1.0294" stroke="#000" stroke-linecap="round" stroke-linejoin="round"/><path d="m46.9375 47.6465c2.3162 1.6084 3.8603 2.6378 5.4044 3.9246" stroke="#000" stroke-linecap="round" stroke-linejoin="round"/><path d="m47.4519 49.2552c.2574-1.8015.5147-5.147.7721-7.4632" stroke="#000" stroke-linecap="round" stroke-linejoin="round"/><path d="m47.1951 43.3364c1.0018-.827 4.6361-3.3199 5.6617-4.1176" stroke="#000" stroke-linecap="round" stroke-linejoin="round"/><path d="m51.1838 39.0898c1.6414 1.0307 3.4933 1.7719 5.2329 2.6165.4579.2223 1.0804.4343 1.5226.7291" stroke="#000" stroke-linecap="round" stroke-linejoin="round"/><path d="m50.5398 51.3143c1.0294-.5147 4.7885-2.8382 5.6617-3.3455" stroke="#000" stroke-linecap="round" stroke-linejoin="round"/><path d="m55.4299 48.4846c.5147-2.3161.7721-4.6323 1.2868-6.9485" stroke="#000" stroke-linecap="round" stroke-linejoin="round"/><path d="m53.3069 41.4062c-.197.9349-.3882 1.8708-.6005 2.8023-.1926.8453-.3966 1.6884-.579 2.536-.029.1344-.0429.1822-.0429.2913" stroke="#000" stroke-linecap="round" stroke-linejoin="round"/><path d="m48.4817 48.9011c.675-.2567 1.3256-.5837 1.9802-.8865.6393-.2958 1.2956-.5724 1.9122-.915" stroke="#000" stroke-linecap="round" stroke-linejoin="round"/><path d="m51.0552 40.7627c1.0294.5147 1.5441.772 2.8308 1.2868" stroke="#000" stroke-linecap="round" stroke-linejoin="round"/><path d="m52.8562 42.0172c1.5441 0 3.541-.102 4.8897-.2252" stroke="#000" stroke-linecap="round" stroke-linejoin="round"/><path d="m51.5051 46.874c.977.2326 1.9501.4762 2.931.6934.755.1673 1.5098.3555 2.2804.4325" stroke="#000" stroke-linecap="round" stroke-linejoin="round"/><path d="m52.2411 41.2766c.5419-.201 1.2646-.4805 2.1129-.8304m-1.8291 3.9184c1.1798.2605 2.3607.5164 3.5493.7721" stroke="#000" stroke-linecap="round" stroke-linejoin="round"/><path d="m53.2489 49.6781-3.4126-1.5517" stroke="#000" stroke-linecap="round" stroke-linejoin="round"/><path d="m49.511 59.4854-3.709-.6019m-3.5855-.8963-3.8603-.4947" stroke="#000" stroke-linecap="round" stroke-linejoin="round"/><path d="m55.6624 30.1969c1.2217.3377 2.2284.7396 3.7524 1.1372" stroke="#000" stroke-linecap="round" stroke-linejoin="round"/><path d="m42.6647 53.5031c-1.4903-.3111-2.6253-.5964-4.0337-.8961m4.9607-4.0069-3.3455-.7235" stroke="#000" stroke-linecap="round" stroke-linejoin="round"/><path d="m42.0434 39.5616-3.8603-.8471m-1.2819 2.689 4.6986.9849" stroke="#000" stroke-linecap="round" stroke-linejoin="round"/><path d="m49.4224 32.666-5.413-1.1229m-.8963 4.0335 3.5855 1.3446" stroke="#000" stroke-linecap="round" stroke-linejoin="round"/><path d="m52.5249 28.6154c-.8083-.2307-1.4352-.4171-1.9517-.5744l-3.3293-.98c1.2939.3235 1.8725.5361 3.3293.98z" fill="#fcf4e3" stroke="#000" stroke-linecap="round" stroke-linejoin="round"/><path d="m42.7352 90.14c-.152.024-.292.036-.42.036-.128.008-.316-.02-.564-.084-.128-.04-.22-.088-.276-.144-.048-.056-.132-.16-.252-.312-.088-.128-.152-.248-.192-.36-.032-.104-.036-.188-.012-.252.024-.056.076-.072.156-.048.024.008.06.032.108.072.056.048.108.104.156.168.112.12.248.2.408.24s.372.044.636.012c.112-.024.248-.06.408-.108.16-.04.316-.092.468-.156s.272-.128.36-.192c.424-.288.764-.516 1.02-.684s.384-.252.384-.252c.016-.032.044-.056.084-.072.048-.024.104-.048.168-.072.048-.048.124-.124.228-.228.112-.104.216-.208.312-.312.104-.104.168-.164.192-.18.016-.072.032-.128.048-.168.016-.048.024-.096.024-.144.064-.064.148-.196.252-.396.112-.208.224-.436.336-.684.112-.256.192-.488.24-.696.112-.56.14-1.032.084-1.416s-.172-.712-.348-.984c-.168-.28-.38-.528-.636-.744-.088-.072-.212-.148-.372-.228-.152-.088-.312-.164-.48-.228s-.316-.116-.444-.156c-.12-.04-.192-.056-.216-.048-.032.008-.1.136-.204.384-.096.24-.212.548-.348.924s-.284.776-.444 1.2c-.152.424-.296.824-.432 1.2-.048.152-.1.312-.156.48s-.104.316-.144.444c-.04.12-.06.2-.06.24-.088.136-.16.316-.216.54-.048.224-.104.596-.168 1.116-.072.272-.124.48-.156.624-.032.136-.064.2-.096.192 0 0-.004.004-.012.012 0 0-.012.012-.036.036 0 .048-.032.072-.096.072s-.14-.016-.228-.048c-.08-.04-.144-.084-.192-.132-.024-.088-.04-.172-.048-.252 0-.08.032-.236.096-.468.04-.152.088-.336.144-.552.064-.224.132-.452.204-.684.072-.24.14-.46.204-.66s.112-.352.144-.456c.056-.136.136-.392.24-.768.064-.208.128-.416.192-.624.072-.208.14-.392.204-.552.064-.168.108-.276.132-.324.04-.104.1-.28.18-.528s.184-.524.312-.828l.084-.396-.132-.06c-.096.032-.172.044-.228.036-.048-.016-.08-.028-.096-.036-.048.016-.116.004-.204-.036s-.168-.092-.24-.156c-.064-.064-.104-.12-.12-.168-.016-.032-.028-.072-.036-.12 0-.056 0-.084 0-.084.008-.048.068-.092.18-.132.112-.048.256-.088.432-.12.184-.032.38-.052.588-.06.216-.016.424-.016.624 0 .208.016.404.06.588.132s.384.148.6.228c.256.096.524.264.804.504.288.232.548.508.78.828.24.32.4.656.48 1.008.024.096.048.232.072.408s.036.348.036.516c.008.16-.008.264-.048.312-.016.032-.028.072-.036.12 0 .04.016.068.048.084-.008.024-.036.116-.084.276-.048.152-.092.284-.132.396-.016.208-.064.424-.144.648s-.168.436-.264.636c-.096.192-.184.356-.264.492-.032 0-.064.008-.096.024-.024.008-.02.016.012.024 0 .04-.044.116-.132.228-.032.024-.084.084-.156.18-.064.088-.116.148-.156.18-.008.056-.032.104-.072.144-.04.032-.076.048-.108.048 0 0-.008 0-.024 0-.008 0-.012.016-.012.048-.064.096-.164.212-.3.348-.136.128-.292.264-.468.408-.168.136-.344.264-.528.384-.176.12-.344.212-.504.276-.08.056-.164.1-.252.132-.088.04-.172.08-.252.12-.04.032-.128.076-.264.132-.136.064-.284.124-.444.18-.152.056-.288.096-.408.12zm7.6666-1.56c-.168.144-.364.228-.588.252-.216.024-.428-.008-.636-.096-.208-.096-.38-.24-.516-.432-.136-.176-.224-.376-.264-.6-.04-.232-.044-.532-.012-.9.024-.312.124-.624.3-.936.176-.32.388-.604.636-.852.256-.248.508-.42.756-.516.12-.08.22-.116.3-.108.088 0 .22.008.396.024.184.024.32.06.408.108.096.048.172.112.228.192.12.12.2.24.24.36.04.112.06.224.06.336-.032.176-.152.392-.36.648-.2.248-.464.452-.792.612-.176.056-.368.08-.576.072s-.38-.06-.516-.156c-.152-.064-.252-.052-.3.036-.048.08-.092.28-.132.6-.032.304-.008.528.072.672.08.136.188.216.324.24.16.032.284.056.372.072.096.008.212-.028.348-.108.128-.08.208-.124.24-.132.032-.016.056-.032.072-.048l.156-.156c.056-.056.1-.096.132-.12.032-.032.068-.048.108-.048s.076.02.108.06c.032.032.064.056.096.072.08 0 .096.048.048.144-.04.096-.124.212-.252.348-.128.128-.28.248-.456.36zm-.012-2.544c.088-.04.18-.096.276-.168.096-.08.176-.164.24-.252.072-.096.108-.176.108-.24 0-.112-.052-.204-.156-.276-.104-.08-.26-.092-.468-.036-.088.024-.188.084-.3.18-.112.088-.22.188-.324.3-.096.112-.176.212-.24.3-.056.088-.076.14-.06.156.024.04.092.072.204.096.112.016.236.02.372.012.144-.008.26-.032.348-.072zm2.7984 2.232c-.056-.048-.128-.192-.216-.432-.08-.24-.16-.52-.24-.84-.072-.328-.132-.628-.18-.9-.032-.16-.068-.296-.108-.408-.032-.112-.06-.204-.084-.276-.04-.144-.052-.264-.036-.36s.072-.172.168-.228c.04-.024.088-.04.144-.048.064-.016.112-.02.144-.012.096.032.184.18.264.444.08.256.152.596.216 1.02.032.248.072.46.12.636s.072.28.072.312c.032.064.068.128.108.192.048.056.104.052.168-.012.032-.032.096-.104.192-.216.104-.112.204-.232.3-.36.168-.224.3-.408.396-.552.104-.144.22-.296.348-.456.056-.08.12-.168.192-.264s.144-.184.216-.264c.08-.088.152-.14.216-.156.192-.032.296.008.312.12s-.056.28-.216.504c-.064.096-.116.188-.156.276-.032.08-.064.136-.096.168-.064.128-.164.292-.3.492-.136.192-.268.372-.396.54-.128.16-.216.264-.264.312-.032.032-.104.092-.216.18-.104.088-.204.2-.3.336-.192.184-.344.296-.456.336s-.216.012-.312-.084z" fill="#000"/><path d="m85.404 127.576c-.096 0-.176-.052-.24-.156-.048-.048-.08-.116-.096-.204-.008-.08.02-.228.084-.444.064-.224.172-.564.324-1.02.08-.304.144-.524.192-.66.048-.144.072-.248.072-.312 0-.088.008-.16.024-.216.024-.064.036-.124.036-.18.048 0 .096-.044.144-.132s.088-.208.12-.36c.032-.136.06-.244.084-.324.032-.088.048-.148.048-.18.04-.064.08-.164.12-.3.048-.136.12-.3.216-.492.064-.24.136-.488.216-.744.08-.264.16-.508.24-.732.088-.232.16-.412.216-.54.088-.248.156-.42.204-.516.048-.104.048-.172 0-.204-.056-.04-.068-.108-.036-.204s.12-.204.264-.324c.088-.104.164-.176.228-.216.064-.048.144-.072.24-.072.104 0 .252.008.444.024.144.008.296.012.456.012h.312c.072.032.16.068.264.108.104.032.196.064.276.096.088.032.132.06.132.084 0 .048.016.08.048.096.04.008.08.016.12.024.056 0 .132.044.228.132.096.08.196.184.3.312.104.12.184.248.24.384.064.136.112.264.144.384.04.12.04.292 0 .516-.008.12-.028.24-.06.36-.024.12-.052.2-.084.24-.048.032-.092.072-.132.12s-.06.092-.06.132c0 .032-.028.096-.084.192-.056.088-.128.192-.216.312s-.184.24-.288.36-.204.224-.3.312c-.104.128-.228.248-.372.36-.136.112-.26.204-.372.276-.208.096-.44.192-.696.288-.248.096-.488.176-.72.24-.224.064-.412.092-.564.084-.232.032-.384.064-.456.096-.064.024-.112.092-.144.204-.04.104-.08.212-.12.324-.032.104-.048.176-.048.216-.016.032-.056.132-.12.3-.056.16-.12.348-.192.564-.064.216-.128.428-.192.636s-.112.38-.144.516c-.032.112-.072.176-.12.192-.048.024-.108.036-.18.036zm1.488-3.72c.032.032.156.036.372.012s.448-.084.696-.18c.16-.056.32-.124.48-.204.168-.08.328-.168.48-.264.08-.056.2-.156.36-.3s.32-.316.48-.516c.024-.04.064-.116.12-.228.064-.12.12-.232.168-.336.072-.112.144-.276.216-.492.072-.224.088-.408.048-.552-.04-.208-.144-.4-.312-.576-.168-.184-.368-.308-.6-.372-.176-.032-.324-.048-.444-.048-.112 0-.236.012-.372.036-.128.04-.224.096-.288.168-.056.072-.132.224-.228.456-.056.112-.136.284-.24.516-.104.224-.192.436-.264.636-.144.528-.288.964-.432 1.308-.136.336-.22.548-.252.636.008.088.004.152-.012.192-.016.032-.008.068.024.108zm4.1864 2.724c-.072-.056-.124-.112-.156-.168-.024-.056-.024-.164 0-.324.024-.224.056-.42.096-.588.04-.176.088-.376.144-.6.016-.096.06-.26.132-.492.08-.232.176-.484.288-.756s.224-.528.336-.768c.112-.248.208-.432.288-.552.064-.048.14-.068.228-.06.096.008.176.044.24.108.088.072.1.2.036.384-.056.176-.176.456-.36.84-.096.216-.168.38-.216.492-.048.104-.068.168-.06.192.008.016.044.004.108-.036.048-.088.136-.188.264-.3.128-.12.264-.236.408-.348s.28-.212.408-.3.216-.144.264-.168c.064-.04.136-.072.216-.096.088-.032.148-.056.18-.072.184-.088.372-.12.564-.096s.312.096.36.216c.008.064.032.112.072.144.048.032.072.048.072.048.032 0 .048.012.048.036.008.024.012.036.012.036 0 .056-.044.092-.132.108-.08.008-.184.016-.312.024-.104.008-.196.028-.276.06s-.176.072-.288.12c-.304.176-.596.348-.876.516-.272.168-.536.392-.792.672-.056.064-.112.14-.168.228s-.116.184-.18.288c-.04.04-.08.128-.12.264s-.076.268-.108.396c-.024.12-.036.192-.036.216 0 0-.012.04-.036.12-.024.072-.064.144-.12.216-.096.128-.176.192-.24.192s-.16-.064-.288-.192zm4.9242.24c-.104 0-.188-.02-.252-.06-.056-.04-.128-.096-.216-.168-.152-.16-.26-.312-.324-.456-.064-.152-.084-.296-.06-.432.024-.064.032-.124.024-.18 0-.064 0-.096 0-.096-.04-.04-.052-.064-.036-.072.016-.016.032-.04.048-.072.048 0 .064-.044.048-.132-.016-.064.016-.204.096-.42s.18-.42.3-.612c.048-.08.12-.184.216-.312.096-.136.2-.268.312-.396.12-.136.228-.244.324-.324.2-.168.376-.292.528-.372s.316-.14.492-.18.296-.06.36-.06c.072 0 .168.064.288.192.184.08.316.176.396.288.088.112.144.276.168.492.024.24.004.516-.06.828-.056.304-.244.684-.564 1.14-.2.288-.384.504-.552.648-.168.136-.368.272-.6.408-.168.112-.32.196-.456.252-.136.048-.296.08-.48.096zm1.152-1.272c.192-.216.344-.42.456-.612.12-.192.232-.436.336-.732.032-.088.052-.196.06-.324.008-.136.004-.26-.012-.372-.008-.12-.036-.188-.084-.204-.096-.056-.212-.072-.348-.048-.136.016-.284.092-.444.228-.248.208-.464.468-.648.78-.184.304-.364.652-.54 1.044-.12.288-.148.52-.084.696.072.168.22.228.444.18.232-.056.52-.268.864-.636zm5.3224 1.332c-.032 0-.08-.004-.144-.012-.056-.016-.104-.052-.144-.108-.12-.144-.196-.264-.228-.36s-.036-.236-.012-.42c.016-.12.024-.224.024-.312.008-.096.016-.176.024-.24-.032-.032-.092-.008-.18.072-.08.072-.192.164-.336.276-.272.312-.516.552-.732.72-.208.16-.396.268-.564.324-.168.048-.3279.064-.4799.048-.136-.016-.244-.072-.324-.168-.08-.104-.132-.236-.156-.396-.016-.16-.016-.332 0-.516.032-.264.088-.516.168-.756.088-.24.228-.508.42-.804.088-.16.2039-.316.3479-.468.152-.16.316-.3.492-.42.184-.128.36-.22.528-.276.184-.072.372-.112.564-.12.192-.016.364 0 .516.048.096.048.172.072.228.072.064 0 .112-.04.144-.12.04-.064.08-.16.12-.288.04-.136.088-.252.144-.348l.264-.78c.088-.216.184-.444.288-.684s.228-.532.372-.876c.136-.256.248-.404.336-.444.088-.048.188-.016.3.096.088.104.12.224.096.36-.024.128-.096.336-.216.624-.056.088-.104.172-.144.252-.04.072-.096.188-.168.348-.104.248-.2.472-.288.672-.088.192-.18.412-.276.66-.032.128-.076.276-.132.444-.048.168-.088.32-.12.456-.024.128-.052.248-.084.36-.024.104-.052.156-.084.156-.064.072-.124.2-.18.384-.056.176-.104.36-.144.552-.032.192-.06.352-.084.48-.016.096-.028.22-.036.372s-.012.3-.012.444v.288c0 .176-.004.288-.012.336s-.04.072-.096.072zm-2.5559-.756c.1679 0 .3439-.072.5279-.216.192-.144.384-.304.576-.48.12-.112.248-.26.384-.444.144-.184.28-.368.408-.552.136-.184.244-.344.324-.48.08-.144.12-.232.12-.264 0-.04-.036-.068-.108-.084s-.156-.024-.252-.024c-.088-.008-.16-.004-.216.012-.176.04-.352.12-.528.24-.168.12-.352.3-.552.54-.208.256-.38.52-.516.792-.1279.272-.2079.5-.2399.684s-.008.276.072.276z" fill="#000"/></svg>