<svg fill="none" viewBox="0 0 150 150" xmlns="http://www.w3.org/2000/svg" xmlns:xlink="http://www.w3.org/1999/xlink"><clipPath id="a"><path d="m0 0h19.0653v19.0653h-19.0653z" transform="matrix(.9798146 .19990836 -.19990836 .9798146 83.814 34.2539)"/></clipPath><clipPath id="b"><path d="m0 0h18.1635v19.4609h-18.1635z" transform="matrix(.93529959 -.35385686 .35385686 .93529959 39.0249 39.6123)"/></clipPath><g clip-rule="evenodd" fill-rule="evenodd"><path d="m93.2089 114.018 16.4041-5.148-2.422-5.235-8.6232 2.555-2.0542-4.6 4.4034-1.442-1.467-2.5446-6.2386 2.1519-6.5778-19.7918c1.5699-1.5286 4.7711-5.4739 5.0163-9.0259.3064-4.4401-3.7905-8.7341-7.7902-8.7959-3.9998-.0618-9.9816 5.2576-10.7891 6.9699-.8076 1.7123-.9428 6.1035 1.0138 9.0638 1.9566 2.9604 6.6655 4.8571 7.9623 3.5607zm-14.7965-38.2943c1.1376 1.5286 2.7293.6798 4.7508-.8246 2.0214-1.5045 3.7073-3.095 2.5696-4.6236-1.1377-1.5287-2.5307-1.0374-4.5522.4671s-3.9059 3.4525-2.7682 4.9811z" fill="#fff"/><path d="m85.1757 68.5844c.4929.6343.8561 1.4164.8636 2.2062.0061.6576-.2541 1.2466-.5814 1.743-.327.496-.744.9335-1.0952 1.2888-.8475.8573-1.8387 1.5551-2.8166 2.1827-.0422.027-.0863.0556-.1324.0853-.4246.2744-1.008.6513-1.6183.9013-.6664.2731-1.4891.4472-2.2203.0409-.6173-.3431-1.0292-.9774-1.2855-1.6104-.2594-.6408-.3863-1.3456-.3895-1.9175-.0099-1.7806 1.0507-3.6455 2.4012-4.702.4502-.3522 1.0116-.7251 1.615-1.0134.2223-.1062.454-.2027.6911-.2826.0352-.1527.1501-.2822.3115-.3283.6845-.1954 1.5792-.3961 2.4204-.048.6793.2811 1.3417.8174 1.8364 1.454zm-1.6833-.3675c.0163.1108-.0088.2278-.0796.3257-.144.1991-.4221.2437-.6212.0998-.0288-.0209-.0567-.0411-.0836-.0607-.3689-.2678-.5736-.4164-.8578-.413-.4781.0056-1.0139.1671-1.5504.4234-.5324.2544-1.0388.5894-1.4503.9113-1.1705.9157-2.0678 2.5348-2.0597 3.9964.0025.4599.1077 1.053.3245 1.5885.2199.5433.5283.9639.893 1.1666.3669.2039.8568.1569 1.4508-.0864.529-.2168 1.0424-.5479 1.4754-.8271.0449-.029.0889-.0574.1321-.0851.9612-.6169 1.8866-1.2726 2.6644-2.0593.3484-.3525.7105-.7366.9851-1.1531.2744-.4163.4384-.8308.4345-1.2449-.005-.5325-.2579-1.1302-.6764-1.6687-.2843-.3658-.628-.682-.9808-.9134z" fill="#000"/><path d="m84.1663 69.1698c.0607.2381-.0831.4802-.3212.5409-1.6815.4286-3.0184 1.1248-3.9561 2.5605-.8883 1.3601-1.1301 3.013-.9586 4.654.0256.2443-.1518.4631-.3961.4887-.2444.0255-.4632-.1518-.4887-.3962-.1859-1.7785.0669-3.6535 1.0985-5.233 1.1035-1.6897 2.6772-2.4763 4.4812-2.9361.2381-.0607.4803.0831.541.3212z" fill="#000"/><path d="m81.8704 62.4614c1.6707.267 3.0843.7015 4.3818 1.9915 1.5495 1.5406 2.8368 3.544 3.204 5.7852.2287 1.396.0443 2.7425-.7831 3.9627-.6614.9752-1.5443 1.7806-2.3801 2.5083-1.6571 1.4428-3.7187 3.1211-5.9309 3.8581-1.0836.361-2.037.1204-2.8502-.3706-.7946-.4799-1.4763-1.2106-2.0552-1.8661-1.3707-1.552-3.0608-3.6413-3.3529-5.9312-.3409-2.6725 1.1634-4.4436 2.9421-5.9522 1.7292-1.4665 4.5988-2.962 6.5547-3.944l.1282-.0644zm.0006.9016c-1.9645.989-4.651 2.4068-6.2496 3.7626-1.7264 1.4642-2.9157 2.9612-2.635 5.1611.2529 1.9828 1.7478 3.8817 3.1371 5.4548.5807.6575 1.183 1.2918 1.8483 1.6935.6467.3905 1.3292.548 2.1091.2882 2.0227-.6739 3.9629-2.2354 5.6279-3.6851.835-.727 1.6379-1.4665 2.2279-2.3367.6749-.9951.8413-2.1001.6415-3.3195-.328-2.0022-1.4913-3.8445-2.9533-5.2981-1.0743-1.0681-2.2356-1.4663-3.7539-1.7208z" fill="#000"/><path d="m88.4062 63.334c1.5745 1.0786 2.5458 2.4926 2.8658 3.0667.8876 1.5922 1.8367 3.6966 1.5181 5.7225-.3262 2.0744-1.8117 3.7911-3.0662 5.1686-1.0688 1.1737-2.1303 2.0447-3.5304 2.8175-.2151.1187-.4857.0406-.6044-.1745s-.0406-.4857.1745-.6044c1.306-.7209 2.2923-1.5282 3.3025-2.6376 1.2776-1.4029 2.5662-2.9344 2.8451-4.7078.2673-1.6995-.532-3.5647-1.4163-5.1511-.2728-.4894-1.1597-1.7851-2.5915-2.7659-1.4173-.9709-3.3574-1.6289-5.7959-.9059-.2355.0698-.4831-.0645-.5529-.3-.0698-.2356.0645-.4831.3-.553 2.7477-.8147 4.9624-.0636 6.5516 1.0249z" fill="#000"/><path d="m72.6027 73.4762c.2426-.0387.4706.1266.5093.3692.5967 3.7417 2.0616 5.904 3.4861 7.0977.7154.5995 1.4263.9597 2.024 1.1539.6011.1953 1.0539.2123 1.2747.1684l.0357-.0098c.0315-.0086.0773-.0212.134-.0369.1134-.0315.2704-.0755.4445-.1256.3517-.1012.761-.2236 1.0251-.3172.2315-.0821.4858.0391.5678.2707.0821.2316-.0391.4858-.2707.5679-.2923.1036-.7251.2326-1.0763.3336-.1774.0511-.3371.0958-.4525.1279-.0577.016-.1044.0288-.1368.0377l-.0373.0102-.0133.0036-.0115.0031-.0116.0025c-.4265.0916-1.0537.0352-1.7467-.1899-.706-.2294-1.5175-.6453-2.3205-1.3182-1.6122-1.3509-3.1679-3.7181-3.7933-7.6394-.0386-.2427.1267-.4707.3693-.5094z" fill="#000"/><path d="m81.7615 81.4885c.225-.0986.4873.004.5858.2291.3835.8762.7426 1.6321 1.0849 2.3528.7038 1.4816 1.3369 2.8145 1.9664 4.7373.7591 2.319 1.4671 4.6585 2.173 6.9917.2804.9266.5605 1.8521.8433 2.775 1.1334 3.6976 2.3562 7.3596 3.5817 11.0286.4529 1.356.9062 2.713 1.3555 4.074.077.233-.0496.485-.2829.562s-.4849-.05-.5619-.283c-.4472-1.354-.8992-2.708-1.3514-4.062-1.2266-3.672-2.4547-7.349-3.5916-11.0589-.2849-.9296-.5662-1.8591-.8472-2.7878-.7048-2.3294-1.4082-4.6539-2.1641-6.9628-.6122-1.8702-1.2089-3.1254-1.8985-4.576-.3461-.728-.7156-1.5053-1.1222-2.4342-.0985-.225.0041-.4873.2292-.5858z" fill="#000"/><path d="m85.8685 79.1819c.2234-.1022.4873-.004.5896.2194 1.3412 2.9303 2.1761 5.4346 3.1525 8.4797.1972.6149.389 1.2282.5803 1.8397.438 1.4003.8731 2.7911 1.3623 4.17.6638 1.8706 1.422 3.7034 2.1856 5.5489.0984.238.197.4762.2954.7144.0937.227-.0144.488-.2415.581-.2271.094-.4871-.014-.5809-.241-.0981-.238-.1966-.476-.2951-.714-.7626-1.8432-1.53-3.6982-2.2019-5.5918-.4951-1.3953-.9384-2.8124-1.3788-4.2202-.1901-.6077-.3797-1.2136-.5726-1.8153-.9749-3.0404-1.7965-5.502-3.1143-8.3812-.1022-.2233-.004-.4873.2194-.5896z" fill="#000"/><path d="m99.3149 98.051c-.1248-.0284-.3401-.0338-.7122.0369-1.4199.2697-2.2708.5364-3.8583 1.0339-.4069.1275-.8622.2702-1.3879.432-.2348.0722-.4838-.0595-.556-.2943-.0723-.2349.0595-.4838.2943-.5561.5126-.1577.9607-.2982 1.3645-.4248 1.5982-.501 2.5031-.7847 3.9774-1.0648.4232-.0804.7778-.098 1.0755-.0304.3202.0728.5488.2385.7128.463.147.2011.234.4422.304.6375.006.0178.012.0356.019.0532.068.1923.133.3734.229.561l.018.0348.011.0374c.242.7874.219 1.3917-.047 1.8367-.264.442-.7.609-1.0002.686-.1402.036-.42.093-.7512.161-.1015.02-.2079.042-.3166.064-.4679.096-.9999.209-1.4527.323-.0073.024-.0171.069-.0182.147-.0031.223.0645.551.1904.949.2238.706.5844 1.49.8223 2.008.0259.057.0504.11.0731.16.0893.195.2048.27.3717.3.2059.036.5045.002.9197-.117.4077-.117.8717-.297 1.3947-.504.035-.014.07-.027.105-.041.487-.193 1.017-.403 1.563-.584.632-.21 1.167-.435 1.646-.638.041-.017.081-.034.12-.05.498-.21.967-.403 1.403-.488.456-.089.907-.067 1.352.177.428.234.803.645 1.177 1.227.745 1.16 1.167 2.318 1.389 3.166.111.424.173.778.2 1.022.013.117.02.229.014.317-.001.024-.004.055-.011.089-.004.023-.019.094-.066.169-.025.039-.075.106-.164.155-.101.056-.218.07-.328.043-.17-.042-.253-.166-.268-.188l-.001-.002c-.084-.122-.098-.27-.052-.4-.002-.024-.004-.053-.008-.086-.021-.194-.075-.504-.177-.894-.203-.778-.593-1.845-1.276-2.91-.34-.529-.617-.797-.855-.927-.22-.12-.447-.145-.756-.085-.329.064-.712.217-1.227.435-.041.016-.081.034-.123.051-.477.202-1.042.44-1.708.661-.522.173-1.03.374-1.521.569-.034.013-.068.026-.101.04-.516.203-1.02.4-1.4767.531-.4483.128-.9082.211-1.3202.138-.4511-.08-.8131-.342-1.0255-.807-.0219-.048-.0461-.1-.0721-.157-.2353-.511-.6202-1.349-.8621-2.112-.1325-.418-.2371-.858-.2318-1.229.0026-.187.033-.395.1344-.58.1104-.201.2916-.35.531-.411.4797-.122 1.0397-.241 1.5162-.338.1225-.026.2381-.049.3451-.071.3207-.065.5641-.114.6804-.144.2194-.057.3738-.141.4578-.282.0805-.135.1635-.4366-.0292-1.0833-.1139-.2292-.1923-.4497-.2555-.6274-.0068-.0191-.0134-.0378-.0199-.0558-.0759-.2123-.1255-.3314-.1847-.4126-.0423-.0579-.0889-.0966-.1913-.1199zm10.5221 10.777c.007.009.014.019.02.028 0 0 0 0 0-.001-.003-.003-.009-.013-.02-.027z" fill="#000"/><path d="m111.06 108.915c.073.234-.057.484-.292.557-.161.05-.325.101-.491.153-4.633 1.445-11.3271 3.534-17.4711 5.157-.2375.063-.4809-.079-.5437-.316-.0627-.238.079-.481.3165-.544 6.1245-1.618 12.8023-3.701 17.4373-5.148.165-.051.328-.102.487-.151.235-.074.484.057.557.292z" fill="#000"/><path d="m89.0025 64.4103c-.0174.2451-.2301.4298-.4752.4124-.9683-.0685-1.9199-.1289-2.8807-.1477-.2457-.0048-.4409-.2078-.4361-.4535s.2078-.4409.4535-.4361c.9848.0192 1.9555.0811 2.9261.1497.2451.0174.4297.2301.4124.4752z" fill="#000"/><path d="m91.1772 67.0259c-.0453.2415-.2779.4006-.5194.3553-.733-.1376-1.4677-.1614-2.2441-.1866-.202-.0065-.4067-.0132-.615-.0219-.2455-.0103-.4361-.2177-.4258-.4632s.2177-.4362.4632-.4258c.1883.0079.3797.014.5734.0202.7839.025 1.6055.0513 2.4125.2027.2415.0453.4005.2778.3552.5193z" fill="#000"/><path d="m92.7687 69.85c-.058.2388-.2985.3854-.5373.3275-1.0597-.2572-2.1212-.3004-3.2654-.3326-.2456-.0069-.4391-.2116-.4322-.4572s.2116-.4391.4572-.4322c1.1391.032 2.2881.0752 3.4502.3573.2388.0579.3854.2985.3275.5372z" fill="#000"/><path d="m92.2275 73.154c-.0575.2389-.2978.3859-.5367.3284-.6871-.1655-1.375-.3218-2.066-.4789-.2913-.0662-.5831-.1325-.8758-.1997-.2394-.055-.389-.2938-.334-.5332.055-.2395.2937-.3891.5332-.3341.2883.0662.5777.132.8677.1979.6935.1576 1.3903.316 2.0833.4829.2388.0575.3859.2978.3283.5367z" fill="#000"/><path d="m90.5829 76.941c-.07.2356-.3176.3698-.5532.2999-1.0981-.326-2.1457-.7787-3.1658-1.2194-.0886-.0383-.177-.0765-.2652-.1145-.2256-.0972-.3297-.359-.2325-.5846.0973-.2257.359-.3298.5847-.2325.0862.0371.1722.0743.258.1113 1.0294.4446 2.0294.8765 3.0741 1.1867.2355.0699.3698.3175.2999.5531z" fill="#000"/><path d="m79.8377 68.1124c.1351-.2052.411-.2621.6162-.1271.1548.1019.3143.2043.4763.3084.5605.3601 1.1511.7396 1.682 1.1801.1891.1569.2152.4374.0583.6265s-.4374.2152-.6265.0583c-.4851-.4026-1.0136-.7423-1.5655-1.0971-.1692-.1088-.3406-.219-.5137-.3328-.2052-.1351-.2621-.411-.1271-.6163z" fill="#000"/><path d="m80.0288 71.7225c-.1072.2211-.3734.3133-.5945.206-.4458-.2163-.8997-.4057-1.3669-.6007-.1562-.0652-.3139-.131-.4732-.1987-.2262-.096-.3317-.3571-.2357-.5833s.3572-.3317.5833-.2357c.1482.0628.2988.1257.4507.1891.473.1974.9597.4005 1.4303.6288.2211.1073.3133.3734.206.5945z" fill="#000"/><path d="m78.7429 74.542c-.1011.2239-.3646.3235-.5886.2224-.4129-.1864-.8465-.31-1.3201-.445-.0464-.0132-.0931-.0265-.1403-.0401-.2362-.0676-.3729-.3139-.3052-.5502.0676-.2362.314-.3728.5502-.3052.048.0138.0964.0275.1452.0414.4635.1319.9604.2732 1.4364.4881.2239.1011.3235.3646.2224.5886z" fill="#000"/><path d="m52.1783 116.867 12.4453 3.759h2.0742v-5.445l-10.5007-3.629v-1.816l8.4265 1.816h2.0742v-3.89l-9.5932-3.37 3.1113-23.8539 6.4819-3.241c2.2903-3.9755 4.4078-12.3673-5.4448-14.1304-2.0742-.7779-6.793-.804-9.0747 5.315s1.7285 9.9822 4.0188 11.1489c-1.3396 9.6796-4.0188 30.6984-4.0188 37.3364zm7.9843-43.5684c.8367 0 1.515-1.1789 1.515-2.6333 0-1.4543-.6783-2.6333-1.515-2.6333s-1.515 1.179-1.515 2.6333c0 1.4544.6783 2.6333 1.515 2.6333z" fill="#fff"/><path d="m55.4092 69.8789c.7699-1.5771 2.4142-2.7471 4.4587-2.436.212.0323.3578.2303.3255.4424-.0016.0103-.0035.0205-.0059.0305.1624.0581.3274.1347.4952.2323.6859.3991 1.0955 1.0877 1.2919 1.8076.1964.7201.1918 1.5111.0132 2.1789-.1773.6632-.5201 1.5589-1.022 2.316-.4926.7431-1.1986 1.4408-2.1265 1.5278-1.0467.0981-1.9744-.255-2.6988-1.0044-1.4285-1.4778-1.5003-3.52-.7313-5.0951zm1.3691-.6344c-.2693.2855-.4956.6156-.6711.9751-.6511 1.3336-.5718 3.0109.5918 4.2146.5634.5828 1.2602.8466 2.0678.7708.5694-.0533 1.0986-.5001 1.5516-1.1835.4438-.6694.7572-1.4823.9191-2.0876.1429-.5346.1481-1.1858-.0123-1.7738-.1605-.5883-.4743-1.0736-.9331-1.3406-.5335-.3104-.9987-.3268-1.4726-.207-.4047.1024-.7976.2967-1.2495.5202-.1157.0572-.2352.1164-.3597.1763-.1478.0712-.3184.0404-.432-.0645z" fill="#000"/><path d="m66.4015 71.9777c.0679 1.7952-.2665 3.5414-1.069 4.8956-.5015.8463-1.5968 1.7602-2.7742 2.4595-1.178.6996-2.5337 1.2414-3.5998 1.2632-1.7833.0363-3.3192-.8099-4.5075-2.0091-1.187-1.1978-2.0523-2.7702-2.5084-4.2599-.6422-2.0981-.3485-4.6607.5667-6.8881.7054-1.7169 1.7998-3.2811 3.177-4.2935-.1454-.0201-.2731-.1223-.3186-.272-.0624-.2052.0535-.4221.2587-.4845 2.2057-.6701 4.1359-.4344 5.7316.4021 1.5872.8321 2.8138 2.2423 3.6581 3.8763.8447 1.6346 1.3173 3.5119 1.3854 5.3104zm-8.8846-9.1748c1.3175-.1141 2.4788.151 3.4805.6761 1.4129.7407 2.5382 2.0153 3.3287 3.5449.7901 1.529 1.2352 3.294 1.2992 4.9832.064 1.6924-.2553 3.2793-.961 4.4702-.4028.6796-1.3653 1.5121-2.5027 2.1877-1.1368.6752-2.3529 1.1367-3.219 1.1544-1.5112.0308-2.8536-.683-3.9399-1.7792-1.0878-1.0977-1.8935-2.556-2.3173-3.9405-.5764-1.8827-.3243-4.2565.5423-6.3656.8678-2.1119 2.3186-3.88 4.0548-4.6166.1339-.0568.2193-.1798.2344-.3146z" fill="#000"/><path d="m59.2041 62.4392c0-.2145.1739-.3884.3884-.3884 2.669 0 4.6969.7298 6.1672 1.9102 1.4681 1.1787 2.3504 2.7826 2.7729 4.4812.422 1.6963.3887 3.4977.0182 5.0979-.3693 1.5954-1.0822 3.025-2.0536 3.9517-.6468.6169-1.7054 1.242-2.7848 1.7415-1.0825.501-2.2362.8988-3.0945 1.0374-.2118.0342-.4112-.1097-.4454-.3214-.0342-.2118.1098-.4112.3215-.4454.7616-.123 1.8435-.4902 2.8922-.9755 1.0516-.4867 2.0197-1.0691 2.5748-1.5987.8303-.792 1.4866-2.0682 1.8331-3.5648.3453-1.4917.3745-3.1683-.0153-4.7352-.3892-1.5647-1.1927-3.0091-2.5054-4.063-1.3105-1.0522-3.1585-1.7392-5.6809-1.7392-.2145 0-.3884-.1738-.3884-.3883z" fill="#000"/><path d="m56.8522 79.0728c.2132.024.3665.2162.3425.4294-.5199 4.6179-1.2342 8.817-1.9438 12.9888-.2982 1.7529-.5956 3.501-.8773 5.2733-.9958 6.2627-1.696 12.5287-1.9938 18.8567-.01.214-.1919.379-.4062.369-.2142-.01-.3797-.192-.3696-.406.2993-6.361 1.003-12.655 2.0024-18.9417.2845-1.7891.5834-3.5464.8825-5.3042.7081-4.1626 1.4166-8.3276 1.9339-12.9228.024-.2132.2163-.3665.4294-.3425z" fill="#000"/><path d="m59.9461 80.2494c.2138.0178.3726.2055.3548.4193-.2977 3.5718-.8627 7.1082-1.4251 10.6276-.0619.3877-.1238.7751-.1854 1.1624-.6209 3.9093-1.2024 7.8033-1.3857 11.7453-.01.214-.1918.379-.406.369-.2143-.009-.3799-.191-.37-.406.1856-3.988.7737-7.9211 1.3946-11.8301.0615-.3874.1234-.7744.1852-1.1613.563-3.5236 1.1233-7.0305 1.4183-10.5714.0178-.2138.2056-.3726.4193-.3548z" fill="#000"/><path d="m29.2346 92.6398c-.1502-.2317-.0841-.5413.1477-.6915 4.7481-3.0766 9.2673-6.2215 13.6337-9.7672.2144-.1741.5293-.1414.7033.0729.1741.2144.1415.5293-.0729.7034-4.4037 3.576-8.9548 6.7422-13.7203 9.8301-.2318.1502-.5414.084-.6915-.1477z" fill="#000"/><path d="m26.2844 75.3983c.0296-.2745.2761-.4731.5507-.4435l14.7145 1.5854c.2746.0296.4731.2761.4436.5507-.0296.2745-.2762.4731-.5507.4435l-14.7145-1.5854c-.2746-.0296-.4732-.2761-.4436-.5507z" fill="#000"/><path d="m121.207 79.8105c.066-.268-.097-.5392-.365-.6058-5.491-1.3642-10.787-2.8675-16.07-4.7995-.259-.0948-.546.0385-.641.2979-.095.2593.038.5464.298.6413 5.327 1.9485 10.661 3.4616 16.172 4.8308.268.0666.539-.0967.606-.3647z" fill="#000"/><path d="m118.387 62.5469c-.117-.25-.415-.3576-.665-.2403l-13.398 6.287c-.25.1173-.357.4151-.24.6651s.415.3575.665.2402l13.398-6.287c.25-.1173.357-.415.24-.665z" fill="#000"/><path d="m56.7604 104.821c.0629-.205.2802-.32.4852-.257.8945.275 1.8009.538 2.7114.803 2.1847.636 4.3934 1.278 6.5196 2.096.2002.077.3001.302.2231.502s-.3017.3-.5019.223c-2.0943-.806-4.2525-1.433-6.4234-2.065-.9179-.267-1.8381-.534-2.7567-.816-.2051-.063-.3203-.281-.2573-.486z" fill="#000"/><path d="m54.3261 105.621c.0627-.205.2798-.321.485-.258.8358.255 1.6686.516 2.5001.776 2.4009.752 4.7921 1.501 7.2213 2.109.2081.052.3346.262.2826.47-.052.209-.2629.335-.471.283-2.4532-.613-4.8759-1.372-7.2829-2.126-.8274-.259-1.6529-.518-2.4771-.769-.2052-.063-.3206-.28-.258-.485z" fill="#000"/><path d="m66.8032 107.782c.0825.198-.0111.426-.2091.508-.8401.35-1.7316.475-2.5747.594-.1736.024-.3452.048-.5138.074-.2121.032-.4102-.114-.4425-.326s.1134-.41.3254-.442c.1879-.029.3724-.055.5538-.081.8397-.118 1.6134-.228 2.353-.536.198-.083.4254.011.5079.209z" fill="#000"/><path d="m63.5559 108.094c.2066-.058.4209.062.4787.269.3063 1.095.4922 2.157.5491 3.297.0108.214-.1543.397-.3685.407-.2143.011-.3966-.154-.4074-.368-.0538-1.076-.2289-2.081-.5214-3.127-.0578-.206.0629-.421.2695-.478z" fill="#000"/><path d="m65.976 107.439c.2134-.022.404.133.4257.347.1321 1.295.2161 2.583.2161 3.892 0 .215-.1739.389-.3884.389s-.3883-.174-.3883-.389c0-1.275-.0819-2.536-.2121-3.814-.0218-.213.1336-.404.347-.425z" fill="#000"/><path d="m67.9898 111.448c.0678.204-.0422.424-.2457.492-1.1325.377-2.2792.47-3.413.554-.2139.016-.4002-.145-.416-.359s.1449-.4.3588-.416c1.1423-.084 2.1965-.174 3.2245-.516.2036-.068.4235.042.4914.245z" fill="#000"/><path d="m67.6153 120.118c.0678.204-.0422.424-.2457.492-1.1326.377-2.2793.47-3.413.554-.2139.016-.4002-.145-.416-.359s.1449-.4.3588-.416c1.1423-.084 2.1965-.174 3.2245-.516.2036-.068.4235.042.4914.245z" fill="#000"/><path d="m53.6837 108.72c.0655-.204.2842-.317.4884-.251.8523.273 1.859.587 2.9274.919 2.4996.778 5.3366 1.661 7.3222 2.383.2016.073.3055.296.2322.498-.0733.201-.2961.305-.4977.232-1.9677-.716-4.7708-1.588-7.2627-2.363-1.0747-.335-2.0916-.651-2.9586-.93-.2042-.065-.3167-.284-.2512-.488z" fill="#000"/><path d="m55.8637 109.256c.2144.01.3802.192.3704.406-.0013.029-.0026.058-.0039.087-.0229.507-.0462 1.021-.1052 1.545-.024.213-.2163.366-.4294.342-.2132-.024-.3666-.216-.3425-.429.0559-.497.0781-.987.1014-1.501.0012-.026.0024-.053.0036-.079.0097-.215.1913-.38.4056-.371z" fill="#000"/><path d="m55.2625 111.023c.0668-.204.2861-.315.49-.249 1.3013.426 2.8485.989 4.4369 1.567.3728.136.7478.272 1.1225.408 1.9774.716 3.9451 1.412 5.5437 1.869.2062.058.3256.273.2667.48-.0589.206-.2739.325-.4801.266-1.6281-.465-3.6199-1.169-5.5948-1.885-.378-.137-.7552-.274-1.1294-.41-1.5875-.578-3.1192-1.135-4.4072-1.557-.2038-.066-.315-.286-.2483-.489z" fill="#000"/><path d="m66.479 114.398c.2126-.029.4082.12.4368.333.1218.902.268 1.987.2544 3.058-.0135 1.069-.1859 2.167-.7344 3.081-.1103.184-.3489.244-.5328.133-.184-.11-.2436-.349-.1332-.533.447-.745.611-1.684.6238-2.691.0127-1.005-.1247-2.034-.2475-2.944-.0287-.213.1203-.408.3329-.437z" fill="#000"/><path d="m50.9786 116.599c.0612-.206.2775-.323.4831-.261 1.4523.432 2.923.841 4.3988 1.252 3.0914.86 6.2049 1.727 9.2174 2.822.2015.074.3055.296.2322.498s-.2961.306-.4977.232c-2.9846-1.085-6.0476-1.937-9.1224-2.793-1.483-.413-2.9688-.826-4.4499-1.267-.2056-.061-.3226-.277-.2615-.483z" fill="#000"/><path d="m56.1432 96.9522c.2129.0261.3643.2199.3381.4328-.1576 1.2836-.3676 2.654-.5776 4.025-.0186.122-.0373.244-.0559.366-.2287 1.495-.4521 2.983-.6056 4.365-.0237.213-.2157.366-.4289.343-.2132-.024-.3668-.216-.3431-.429.1556-1.4.3813-2.902.6097-4.396.0186-.122.0372-.243.0557-.364.2104-1.3738.4186-2.7332.5748-4.0047.0261-.2129.2199-.3643.4328-.3381z" fill="#000"/><path d="m53.8719 108.725c.2128-.027.407.124.4336.337.1378 1.103.1055 2.061-.2279 3.159-.0624.205-.2793.321-.4846.258-.2053-.062-.3211-.279-.2587-.484.2952-.972.3277-1.817.2003-2.837-.0266-.213.1244-.407.3373-.433z" fill="#000"/><path d="m53.7593 112.222c.0541-.207.2662-.332.4738-.278 2.3374.61 6.1128 2.08 8.8142 3.132.5036.196.9698.377 1.3825.536.2002.077.3.302.223.502s-.3017.3-.5019.223c-.421-.162-.8937-.346-1.402-.544-2.707-1.053-6.4238-2.5-8.7119-3.097-.2075-.054-.3319-.266-.2777-.474z" fill="#000"/><path d="m67.0457 115.552c.0179.214-.141.402-.3548.42-.8825.073-1.7633.195-2.6551.319-.2125.029-.4087-.119-.4383-.332-.0296-.212.1187-.408.3312-.438.8893-.124 1.7906-.248 2.6977-.323.2138-.018.4015.141.4193.354z" fill="#000"/><path d="m64.0984 115.05c.2067-.057.4207.064.478.271.5342 1.929.4519 3.803-.1094 5.674-.0616.206-.2781.322-.4836.261-.2054-.062-.322-.278-.2604-.484.5239-1.746.5959-3.47.1048-5.244-.0573-.206.0639-.42.2706-.478z" fill="#000"/><path d="m59.8332 68.3425c.1682.1331.1968.3773.0637.5456-.7085.896-1.2223 1.66-1.0294 2.6588.1731.8965.9387 1.5573 1.7965 2.1292.1785.119.2267.3601.1078.5386-.119.1784-.3602.2267-.5386.1077-.859-.5726-1.889-1.3887-2.1283-2.6282-.2673-1.3842.4891-2.4107 1.1827-3.2879.1331-.1683.3773-.1968.5456-.0638z" fill="#000"/><path d="m64.6241 65.1526c-.3869.0472-.7971.0971-1.2166.104-.2145.0035-.3912-.1675-.3948-.382-.0035-.2145.1676-.3913.3821-.3948.3778-.0062.7517-.0517 1.1494-.1.0121-.0015.0242-.003.0364-.0045.4043-.0491.8329-.0999 1.2731-.0999.2146 0 .3885.1739.3885.3884s-.1739.3885-.3885.3885c-.3866 0-.7707.0446-1.1793.0942-.0168.0021-.0335.0041-.0503.0061z" fill="#000"/><path d="m67.8745 66.5561c.0266.2129-.1244.407-.3373.4336-.1881.0235-.3797.0537-.5753.0844-.6155.0968-1.2693.1996-1.9691.1206-.2131-.0241-.3664-.2164-.3424-.4296.0241-.2132.2164-.3665.4296-.3424.5865.0662 1.0973-.0137 1.6841-.1055.2131-.0334.4363-.0683.6767-.0983.2129-.0266.407.1243.4337.3372z" fill="#000"/><path d="m68.4882 68.8137c.0214.2134-.1344.4038-.3478.4251-.6979.0698-1.3783.1042-2.0825.1042-.2146 0-.3885-.174-.3885-.3885s.1739-.3884.3885-.3884c.6781 0 1.3327-.033 2.0051-.1003.2135-.0213.4039.1344.4252.3479z" fill="#000"/><path d="m68.9981 71.2693c.0194.2137-.138.4026-.3517.422-.3049.0277-.6037.0817-.9216.139-.0553.01-.1112.0201-.1677.0301-.3737.0665-.7721.1309-1.1864.139-.2145.0042-.3918-.1663-.396-.3807-.0042-.2145.1662-.3918.3807-.396.3487-.0068.6954-.0613 1.0656-.1271.0527-.0094.106-.019.1599-.0288.3166-.0572.6533-.1181.9952-.1492.2136-.0194.4026.1381.422.3517z" fill="#000"/><path d="m68.384 73.8052c.0304.2124-.1172.4092-.3296.4395-.0699.01-.1401.0202-.2105.0304-.5749.0833-1.1636.1686-1.7802.1778-.2145.0032-.391-.1681-.3942-.3826s.1681-.3909.3826-.3941c.5633-.0085 1.1008-.0862 1.6816-.1702.0697-.0101.1399-.0202.2109-.0304.2123-.0303.4091.1173.4394.3296z" fill="#000"/><path d="m67.258 76.7536c.0384.2111-.1016.4133-.3127.4516-.6548.1191-1.2517.0661-1.8486.0132-.0314-.0028-.0629-.0056-.0943-.0084-.2137-.0188-.3717-.2072-.3529-.4209s.2072-.3718.4209-.353c.0212.0019.0423.0038.0633.0056.6218.0548 1.1234.0991 1.6727-.0008.211-.0384.4132.1016.4516.3127z" fill="#000"/><path d="m58.3579 70.0699c.0616.2055-.055.422-.2604.4837-.9491.2847-1.8318.3229-2.7686.3229-.2146 0-.3885-.1739-.3885-.3884s.1739-.3885.3885-.3885c.9185 0 1.7084-.0391 2.5453-.2901.2055-.0617.4221.0549.4837.2604z" fill="#000"/><path d="m58.467 71.9371c.0465.2094-.0855.4169-.2949.4634-.3227.0717-.6357.1573-.9586.2455-.0969.0265-.1947.0532-.294.0799-.4238.114-.865.2243-1.3298.2929-.2122.0313-.4096-.1154-.441-.3276-.0313-.2123.1154-.4097.3276-.441.4186-.0617.8242-.1623 1.2416-.2745.0921-.0248.1853-.0503.2794-.076.3262-.0892.6635-.1814 1.0062-.2576.2095-.0465.417.0855.4635.295z" fill="#000"/><path d="m59.1805 73.5609c.052.2081-.0745.419-.2826.4711-.409.1022-.8164.2228-1.2341.3465l-.0239.0071c-.4234.1253-.8572.2534-1.2981.362-.2083.0513-.4188-.0759-.4701-.2842s.076-.4188.2843-.4701c.4207-.1036.8378-.2266 1.2633-.3526.0102-.003.0204-.0061.0306-.0091.4129-.1222.8341-.247 1.2596-.3533.2081-.052.419.0745.471.2826z" fill="#000"/><path d="m57.7274 100.983c.0872.196-.0011.425-.1971.512-.1088.049-.2196.1-.3327.152-.4854.224-1.0117.466-1.5832.589-.2097.045-.4162-.089-.4612-.299-.0449-.21.0887-.416.2985-.461.4791-.103.9083-.3 1.3868-.52.1217-.055.2466-.113.3762-.17.1961-.088.4256.001.5127.197z" fill="#000"/><path d="m56.3015 104.181-.0059.003c-.2313.086-.4804.176-.7264.265-.0523.019-.1044.037-.1562.056-.2174.079-.4043.148-.46.168l-.2689-.729c.1698-.063.3313-.121.4898-.179.0827-.03.1689-.061.2535-.092l.5914-.215.009-.004h.0024l.0025-.001.0082-.003c.0035-.001.017-.005.0271-.008.1783-.001.478.419.2701.723-.0115.006-.0268.012-.0306.014zm-.0122.005c.0018-.001.002-.001 0 0z" fill="#000"/><path d="m58.767 104.809c.0616.206-.055.422-.2605.484-.5359.161-.9553.445-1.4618.788-.0883.06-.1791.122-.2738.185-.1785.119-.4196.071-.5386-.108-.119-.178-.0708-.42.1077-.539.0837-.055.1676-.112.2522-.17.5035-.343 1.0315-.702 1.6911-.9.2055-.062.422.055.4837.26z" fill="#000"/><path d="m62.0324 106.229c.0678.203-.0422.423-.2457.491-.21.07-.4133.15-.6277.235-.0709.028-.1431.057-.217.086-.2902.113-.6.226-.9274.302-.209.049-.4177-.081-.4663-.29s.0814-.418.2903-.467c.2712-.063.5385-.159.8215-.269.0648-.025.131-.052.1985-.078.219-.087.4502-.179.6824-.256.2035-.068.4235.042.4914.246z" fill="#000"/><path d="m64.7601 106.874c.1064.187.0417.424-.1446.53-.4743.271-.9916.479-1.478.675-.1381.055-.2736.11-.405.164-.1981.083-.4254-.011-.5078-.209s.0114-.426.2095-.508c.1509-.063.2992-.122.445-.181.4772-.192.9275-.373 1.3509-.615.1863-.106.4235-.042.53.144z" fill="#000"/><path d="m56.4083 110.711c.0754.201-.0264.425-.2273.5-.7013.263-1.4125.399-2.1089.529-.2108.04-.4137-.099-.4531-.31s.0996-.414.3105-.453c.7026-.132 1.3498-.257 1.9788-.493.2008-.076.4247.026.5.227z" fill="#000"/><path d="m58.2221 111.677c.1065.186.0417.424-.1445.53-.5892.337-1.2054.559-1.8024.774-.0668.024-.1333.048-.1996.072-.2016.073-.4244-.031-.4975-.233-.0732-.202.031-.425.2327-.498.0663-.024.1318-.047.1968-.071.6059-.218 1.1575-.417 1.6846-.718.1862-.107.4235-.042.5299.144z" fill="#000"/><path d="m61.1546 112.92c.0817.199-.0129.426-.2113.507-.5112.211-1.0237.417-1.5406.617-.2001.077-.425-.022-.5024-.223-.0774-.2.0221-.425.2221-.502.5108-.197 1.0181-.401 1.5251-.61.1984-.082.4254.013.5071.211z" fill="#000"/><path d="m64.6579 114.333c.1064.187.0417.424-.1446.53-.5852.335-1.1925.563-1.8183.751-.2055.061-.422-.055-.4837-.261-.0616-.205.055-.422.2604-.484.5934-.178 1.1402-.385 1.6562-.68.1863-.106.4235-.042.53.144z" fill="#000"/><path d="m58.3336 97.6972c.0959.1919.0181.4252-.1737.5212-.5886.2942-1.1614.5315-1.7903.7371-.2039.0666-.4233-.0446-.4899-.2485-.0667-.2039.0446-.4233.2485-.4899.5913-.1933 1.1287-.4158 1.6842-.6936.1919-.0959.4252-.0182.5212.1737z" fill="#000"/><path d="m58.6545 94.1553c.077.2003-.0229.425-.2231.502-.634.2439-1.2392.4146-1.9127.5312-.2114.0366-.4124-.1051-.449-.3165s.1051-.4124.3165-.449c.6208-.1074 1.1771-.2641 1.7663-.4908.2002-.077.4249.0229.502.2231z" fill="#000"/><path d="m59.2684 92.011c.0764.2005-.0242.4249-.2247.5013-.5561.2118-1.0708.4009-1.6956.5285-.2102.043-.4154-.0926-.4583-.3028-.043-.2102.0926-.4154.3028-.4583.5579-.114 1.0216-.2828 1.5745-.4934.2005-.0764.4249.0242.5013.2247z" fill="#000"/></g><path d="m61.5 72c-1-.5-2.2715-1.3544-2.5979-1.7636-1.1686-1.4648-2.5001-2.9608-3.3678-4.632-1.4327-2.7591-2.3769-6.4926-1.4123-9.5107.5844-1.8287 1.1968-3.2452 2.9036-4.1678.2579-.1394 2.2538-1.4794 2.311-1.4222" stroke="#000" stroke-linecap="round"/><path d="m91.6313 66.5258c0-2.4188.362-5.1101-.1759-7.463-.2428-1.0626-.0353-3.0456-1.181-3.6185" stroke="#000" stroke-linecap="round"/><path d="m104 45.5c0 7.4558-5.7981 13.5-13.3417 13.5-7.5435 0-13.6588-6.0442-13.6588-13.5s6.1153-13.5 13.6588-13.5c5.4 0 13.3417 6.0442 13.3417 13.5z" fill="#fcf4e3"/><g clip-path="url(#a)"><path d="m92.4337 36.2203c.5198-.1705 1.1137-.0505 1.5132.3087l6.1471 5.3644c.384.3349.575.8825.468 1.3862l-1.6138 7.912c-.1044.5263-.5256.9599-1.0335 1.1078l-7.7159 2.5171c-.2633.0834-.5439.0943-.8124.0317-.2686-.0627-.5154-.1966-.7148-.3878l-1.8286-1.6307c-.1241-.1138-.2692-.2136-.3412-.3718.1128-.1015.2731-.0847.4119-.1113.3076-.0337.6007-.1216.8967-.2175.0765-.0332.155.0011.2104.0564l1.5592 1.3913c.1113.099.2591.0284.3799-.011l7.5765-2.473c.0922-.0239.1569-.1035.1688-.1975l1.5987-7.8358c.0309-.1036-.0095-.212-.0956-.2741l-6.0991-5.318c-.0341-.0358-.0782-.0603-.1265-.0703s-.0985-.0049-.144.0145l-7.6867 2.5139c-.1018.0238-.1852.1057-.1951.2135l-1.5987 7.8358c-.0271.091.004.1883.0803.2453l1.6269 1.4217c.3074.2581.7102.4501 1.119.39.1794-.0292.3459-.1129.477-.2399s.2207-.2911.2566-.4705l1.5909-7.7886c.0154-.1171.1431-.1906.2519-.1562l.8847.1805c.117.0209.183.1637.1436.2766l-1.6009 7.8378c-.1415.6964-.58 1.3956-1.2894 1.6068-.8717.2495-1.8284-.0355-2.5267-.5888l-1.7541-1.5055c-.4178-.3295-.627-.8996-.517-1.4241l1.6143-7.9121c.0544-.2567.176-.4943.3522-.6882s.4006-.3369.65-.4143zm.8855 5.8935c1.0171.1464 2.0892.3859 2.8919 1.0692.6222.525.8468 1.4059.6996 2.1927-.0413.1015-.1626.1378-.2612.1097-.2909-.0599-.584-.1149-.875-.1803-.1249-.0206-.1731-.1501-.1663-.2635-.0073-.3922-.1347-.8046-.4482-1.0572-.4824-.3811-1.1091-.4949-1.6969-.6087-.4332-.064-.9011-.121-1.3154.0582-.3186.1352-.4827.512-.4456.8382.0473.2435.2904.3682.4869.4778 1.1467.5661 2.4354.8022 3.5399 1.4591.4569.2715.8703.7026.9333 1.2557.0782.74-.1874 1.5514-.7919 2.0093-.4919.3782-1.1213.5038-1.7294.5274-.8052.0158-1.6046-.143-2.3705-.3798-.7179-.2344-1.4429-.585-1.9076-1.2048-.3988-.5234-.5002-1.2327-.3469-1.8656.0279-.1066.1497-.1599.2509-.1301l.873.1781c.1193.0158.1846.1353.1677.2479-.0176.3627.038.7708.3057 1.0391.518.5098 1.2726.6357 1.9536.7863.5715.0903 1.2086.2123 1.7483-.0707.2883-.1652.4332-.5099.4306-.8327-.0183-.276-.2711-.454-.4864-.5876-1.1183-.625-2.4444-.7515-3.5408-1.4245-.4459-.2692-.8449-.6876-.9279-1.2228-.1143-.7559.1816-1.6033.8347-2.0317.6332-.4294 1.4437-.4795 2.1863-.4049z" fill="#000"/></g><path d="m54.5701 58.6165c-7.2435 1.7668-14.4894-2.4335-16.2769-9.7622s2.6354-14.702 9.8789-16.4688c7.2435-1.7667 14.5646 2.7421 16.3521 10.0708 1.2796 5.2462-2.7106 14.3935-9.9541 16.1602z" fill="#f2a966"/><path d="m81.9779 34.9881c2.77-2.1655 6.3064-3.2919 10.4583-2.917.2221.0201.4403.0442.6549.0722 1.5756-.0297 3.1831.1203 4.7566.4886.172.0402.2781.2094.237.378-.041.1685-.2138.2724-.3858.2322-.4347-.1018-.8723-.1863-1.3114-.2544 2.1398.8601 3.8985 2.2672 5.5825 4.1715 1.453 1.6449 2.33 3.8791 2.698 6.1998.368 2.3223.229 4.7566-.373 6.8212-.003.0124-.008.0245-.013.0364-2.015 4.6548-5.4326 7.2106-9.172 8.2391-3.728 1.0254-7.7586.5291-11.023-.8797-2.3359-1.0081-4.1472-2.8605-5.3726-4.9069-1.221-2.0391-1.8763-4.2971-1.8798-6.1576-.287-3.0254 1.4671-7.1167 4.6129-10.1989 1.4143-1.3856 3.5454-2.5478 6.0148-3.2905-1.9105.4594-3.6121 1.3049-5.085 2.4564-2.6421 2.0656-4.5641 5.1288-5.6207 8.7521-.0486.1666-.2258.2631-.3959.2155-.17-.0476-.2685-.2212-.2199-.3878 1.0858-3.7233 3.0715-6.9081 5.8371-9.0702zm11.0767-2.2165c-1.5236.0325-3.0178.2384-4.4184.5816-2.8205.691-5.2343 1.9319-6.7359 3.4031-3.0627 3.0007-4.6974 6.9262-4.4268 9.7106.001.0099.0015.0198.0015.0297 0 1.7342.6153 3.8904 1.7917 5.855 1.1754 1.9628 2.8948 3.7078 5.0785 4.6503 3.1477 1.3584 7.0256 1.8307 10.5917.8498 3.5499-.9764 6.8081-3.3966 8.7481-7.8624.57-1.9668.704-4.3015.35-6.5341-.355-2.2412-1.196-4.354-2.549-5.8852-2.3839-2.6966-4.876-4.3216-8.4314-4.7984z" style="fill-rule:evenodd;clip-rule:evenodd;fill:#000;stroke:#000;stroke-width:.2;stroke-linecap:round;stroke-linejoin:round"/><path d="m59.5642 34.7308c2.7602 2.178 4.6925 5.3468 5.3121 9.4693.0331.2205.0614.4382.085.6533.4023 1.5237.6375 3.1209.6525 4.7369.0017.1766-.1376.3198-.311.3198-.1735 0-.3154-.1431-.3171-.3198-.0041-.4464-.0257-.8916-.0636-1.3343-.3285 2.2826-1.2787 4.3251-2.73 6.4116-1.2535 1.8022-3.2162 3.1836-5.3838 4.0905-2.169.9075-4.5668 1.35-6.7152 1.2544-.0129-.0006-.0257-.002-.0384-.0042-4.9999-.8551-8.2926-3.5693-10.178-6.9585-1.8796-3.3788-2.3525-7.4122-1.7573-10.9175.4258-2.5082 1.7963-4.7069 3.494-6.3823 1.6917-1.6695 3.7302-2.8412 5.5368-3.2854 2.8712-.9958 7.2617-.2611 11.0015 2.0648 1.6813 1.0456 3.3154 2.8406 4.6221 5.0637-.8991-1.7472-2.1237-3.2-3.5914-4.3581-2.6328-2.0774-6.0643-3.2188-9.8348-3.3867-.1734-.0077-.3091-.157-.3031-.3335.0059-.1765.1513-.3133.3246-.3056 3.8746.1726 7.4393 1.3471 10.1951 3.5216zm4.7781 10.236c-.3926-1.4725-.9467-2.8754-1.612-4.1548-1.3397-2.5764-3.1173-4.6274-4.9023-5.7376-3.6411-2.2645-7.8421-2.9224-10.483-1.9996-.0094.0032-.019.0061-.0286.0084-1.6848.4109-3.6338 1.5197-5.2637 3.1282-1.6283 1.6069-2.9162 3.6908-3.3144 6.0357-.5738 3.3799-.1137 7.2593 1.6842 10.4914 1.7898 3.2174 4.9132 5.8096 9.7114 6.6358 2.046.0878 4.3458-.3357 6.431-1.2082 2.0933-.8758 3.9466-2.1938 5.1135-3.8715 2.055-2.9545 3.0432-5.7607 2.6639-9.3278z" style="fill-rule:evenodd;clip-rule:evenodd;fill:#000;stroke:#000;stroke-width:.2;stroke-linecap:round;stroke-linejoin:round"/><path d="m88.239 55.2188c-7.0381 0-11.0925 8.8268-9.712 15.039.4986 2.2436 4.3218 2.8269 6.0936 2.8269" stroke="#000" stroke-linecap="round"/><path d="m61.1143 51.9258c.7243.0724 1.2874.9218 1.8172 1.3431.8365.6655 1.3646 1.4403 2.0937 2.2123.6718.7113 1.3014 1.6151 1.7382 2.4888.4222.8444 1.0803 1.9282 1.2839 2.8444.3092 1.3913 1.041 3.429.3556 4.7998" stroke="#000" stroke-linecap="round"/><g clip-path="url(#b)"><path d="m58.5833 39.9784-1.747.6609 2.1742 5.7468-1.0086.3816-2.1743-5.7468-1.7427.6593-.3564-.9419 4.4984-1.7019zm-2.676 7.5818-3.4125 1.291-2.5306-6.6888 3.2773-1.2399.3564.942-2.2686.8583.7168 1.8946 2.0902-.7908.3547.9374-2.0903.7908.7484 1.9782 2.4039-.9095zm-4.7482 1.7964-1.1028.4172-4.7637-3.818c-.1189-.0948-.2292-.2015-.3292-.3183l-.0255.0096c.077.1351.2041.4369.3818.9064l1.6589 4.3847-.9748.3688-2.5306-6.6888 1.1744-.4443 4.623 3.7392c.1932.1536.3217.2621.3838.3237l.017-.0064c-.0953-.1663-.2232-.4618-.383-.8841l-1.6314-4.3118.9712-.3675zm-6.3596 1.8042c.0313.0828.0464.1708.0444.2589-.002.0882-.021.1748-.056.2549s-.0853.1521-.1479.2119c-.0627.0599-.1365.1064-.2173.1368-.0808.0306-.1669.0445-.2535.041-.0866-.0034-.1719-.0243-.2511-.0612-.0792-.037-.1508-.0894-.2106-.1542-.0597-.0649-.1066-.1408-.1378-.2237-.0629-.1669-.0586-.3514.0119-.5129.0706-.1616.2017-.2869.3646-.3485.0807-.0306.1668-.0447.2534-.0413.0865.0034.1719.0241.2512.061.0792.0368.1508.0891.2107.1539.0598.0647.1067.1407.138.2234z" fill="#000"/></g></svg>