<svg fill="none" viewBox="0 0 150 150" xmlns="http://www.w3.org/2000/svg"><path d="m66.9736 114.024v-8.424l10.4068-6.4428h35.6706l7.939 6.9378v9.911l-11.894 6.443h-30.2289z" fill="#fff"/><path d="m64 111.49c5.9888 4.889 8.9832 7.605 13.6887 11.407" stroke="#000" stroke-linecap="round" stroke-linejoin="round"/><path d="m77.876 121.952c6.3436.098 25.138.388 32.119.496" stroke="#000" stroke-linecap="round" stroke-linejoin="round"/><path d="m67.1201 102.229c0 6.343.0001 11.299 0 14.768" stroke="#000" stroke-linecap="round" stroke-linejoin="round"/><path d="m78.8667 110.06v11.397" stroke="#000" stroke-linecap="round" stroke-linejoin="round"/><path d="m109.096 109.562v13.876" stroke="#000" stroke-linecap="round" stroke-linejoin="round"/><path d="m120.989 102.626v13.876" stroke="#000" stroke-linecap="round" stroke-linejoin="round"/><path d="m66.2812 103.505c6.9379 4.46 7.0968 4.516 12.548 7.985" stroke="#000" stroke-linecap="round" stroke-linejoin="round"/><path d="m78.8291 111.49h30.7249" stroke="#000" stroke-linecap="round" stroke-linejoin="round"/><path d="m110.199 97.2305s8.556 6.2735 12.548 9.1255" stroke="#000" stroke-linecap="round" stroke-linejoin="round"/><path d="m65.7109 105.216c2.8518-1.14 15.3998-5.7032 20.5331-7.4142" stroke="#000" stroke-linecap="round" stroke-linejoin="round"/><path d="m80.5405 98.9415c12.8713 0 25.5565-.1789 38.1875-.1789" stroke="#000" stroke-linecap="round" stroke-linejoin="round"/><path d="m108.029 122.827c5.031-2.361 8.995-4.343 14.942-7.316m-14.942-3.451c5.031-2.36 10.024-4.441 15.97-7.414" stroke="#000" stroke-linecap="round" stroke-linejoin="round"/><path d="m68.4598 115.014 2.4781-8.424m.4767 11.174c.7608-2.953 2.2148-6.175 2.9922-9.192m.43 12.043 3.0389-9.565" stroke="#000" stroke-linecap="round" stroke-linejoin="round"/><path d="m79.3619 121.863 2.7439-9.822m1.878 9.822c.8793-3.412 1.909-6.815 2.8115-10.317m1.6237 10.37c.8808-3.418 1.7078-6.875 2.6084-10.37" stroke="#000" stroke-linecap="round" stroke-linejoin="round"/><path d="m103.229 112.046c-.862 3.344-1.715 6.653-2.558 9.924m-4.4598 0c.8417-3.266 1.6939-6.573 2.5576-9.924m-3.9644-.018-2.5576 9.924" stroke="#000" stroke-linecap="round" stroke-linejoin="round"/><path d="m88 107.447s1.5571-5.271 1.3009-4.775m3.3211 4.775 1.3684-5.271m3.0667 5.324 1.1655-5.324" stroke="#000" stroke-linecap="round" stroke-linejoin="round"/><path d="m104.597 107.5c.842-3.266.503-1.472 1.367-4.823m-3.964-.018-1.367 4.824" stroke="#000" stroke-linecap="round" stroke-linejoin="round"/><path d="m107.397 112.041-2.682 10.407m7.354-11.894-3.517 11.894m8.088-14.371c-.99 3.842-1.969 7.642-2.937 11.397z" stroke="#000" stroke-linecap="round" stroke-linejoin="round"/><path d="m120.603 106.095-3.083 11.894" stroke="#000" stroke-linecap="round" stroke-linejoin="round"/><path d="m85.5 102-5 5.5h5m0-5.5h24l-3 5.5h-21m0-5.5v5.5" stroke="#000" stroke-linejoin="round"/><path d="m24.7754 78.6735v-7.8628l9.713-6.0128h33.2929l7.4091 6.4753v9.2504l-11.1005 6.0128h-28.214z" fill="#fff"/><path d="m22 76.3096c5.5895 4.5629 8.3843 7.0978 12.7761 10.6467" stroke="#000" stroke-linecap="round" stroke-linejoin="round"/><path d="m34.9507 86.0733c5.9207.0914 23.4623.3621 29.9777.4625" stroke="#000" stroke-linecap="round" stroke-linejoin="round"/><path d="m24.9121 67.665c0 5.9209.0001 10.5462 0 13.7838" stroke="#000" stroke-linecap="round" stroke-linejoin="round"/><path d="m35.876 74.9736v10.6381" stroke="#000" stroke-linecap="round" stroke-linejoin="round"/><path d="m64.0894 74.5098v12.9506" stroke="#000" stroke-linecap="round" stroke-linejoin="round"/><path d="m75.1904 68.0361v12.9507" stroke="#000" stroke-linecap="round" stroke-linejoin="round"/><path d="m24.1294 68.8564c6.4753 4.1628 6.6237 4.2151 11.7114 7.4528" stroke="#000" stroke-linecap="round" stroke-linejoin="round"/><path d="m35.8408 76.3096c5.464 0 22.6637.0001 28.6765 0" stroke="#000" stroke-linecap="round" stroke-linejoin="round"/><path d="m65.1196 63s7.9851 5.8557 11.7115 8.5174" stroke="#000" stroke-linecap="round" stroke-linejoin="round"/><path d="m23.5972 70.4536c2.6617-1.0647 14.3731-5.3234 19.1641-6.9204" stroke="#000" stroke-linecap="round" stroke-linejoin="round"/><path d="m37.438 64.5966c12.0132 0 23.8528-.167 35.642-.167" stroke="#000" stroke-linecap="round" stroke-linejoin="round"/><path d="m63.0942 86.8903c4.6953-2.2032 8.3955-4.0533 13.9457-6.8284m-13.9457-3.2206c4.6953-2.2031 9.3552-4.1453 14.9055-6.9204" stroke="#000" stroke-linecap="round" stroke-linejoin="round"/><path d="m26.1629 79.5982 2.3129-7.8629m.445 10.4288c.7101-2.7555 2.0671-5.7632 2.7927-8.5787m.4013 11.2404 2.8363-8.928" stroke="#000" stroke-linecap="round" stroke-linejoin="round"/><path d="m36.3382 85.9901 2.561-9.1673m1.7528 9.1674c.8207-3.1846 1.7818-6.3612 2.6241-9.6297m1.5154 9.6787c.8221-3.19 1.594-6.4168 2.4346-9.6787" stroke="#000" stroke-linecap="round" stroke-linejoin="round"/><path d="m58.6141 76.8279c-.8045 3.1217-1.6002 6.2094-2.3871 9.2629m-4.1628-.0001c.7856-3.0482 1.581-6.1348 2.3871-9.2628m-3.7001-.0166-2.3871 9.2628" stroke="#000" stroke-linecap="round" stroke-linejoin="round"/><path d="m61.5004 68.4996-1.0004 4.0004m-4 0s.5002-3.0003.5873-3.5992m-3.7002-.0166-.3871 2.6155m-3.5-2.4997-.4996 1.5" stroke="#000" stroke-linecap="round" stroke-linejoin="round"/><path d="m62.5041 76.823-2.503 9.713m6.8636-11.1005-3.2827 11.1005m7.549-13.4132c-.9243 3.5867-1.8381 7.1328-2.7414 10.6381z" stroke="#000" stroke-linecap="round" stroke-linejoin="round"/><path d="m74.8301 71.2736-2.8773 11.1006" stroke="#000" stroke-linecap="round" stroke-linejoin="round"/><path d="m60 73.5-22-4.5 26.5-1z" stroke="#000" stroke-linejoin="round"/><path d="m42.7352 100.14c-.152.024-.292.036-.42.036-.128.008-.316-.02-.564-.084-.128-.04-.22-.088-.276-.144-.048-.056-.132-.16-.252-.312-.088-.128-.152-.248-.192-.36-.032-.104-.036-.188-.012-.252.024-.056.076-.072.156-.048.024.008.06.032.108.072.056.048.108.104.156.168.112.12.248.2.408.24s.372.044.636.012c.112-.024.248-.06.408-.108.16-.04.316-.092.468-.156s.272-.128.36-.192c.424-.288.764-.516 1.02-.684s.384-.252.384-.252c.016-.032.044-.056.084-.072.048-.024.104-.048.168-.072.048-.048.124-.124.228-.228.112-.104.216-.208.312-.312.104-.104.168-.164.192-.18.016-.072.032-.128.048-.168.016-.048.024-.096.024-.144.064-.064.148-.196.252-.396.112-.208.224-.436.336-.684.112-.256.192-.488.24-.696.112-.56.14-1.032.084-1.416s-.172-.712-.348-.984c-.168-.28-.38-.528-.636-.744-.088-.072-.212-.148-.372-.228-.152-.088-.312-.164-.48-.228s-.316-.116-.444-.156c-.12-.04-.192-.056-.216-.048-.032.008-.1.136-.204.384-.096.24-.212.548-.348.924s-.284.776-.444 1.2c-.152.424-.296.824-.432 1.2-.048.152-.1.312-.156.48s-.104.316-.144.444c-.04.12-.06.2-.06.24-.088.136-.16.316-.216.54-.048.224-.104.596-.168 1.116-.072.272-.124.48-.156.624-.032.136-.064.2-.096.192 0 0-.004.004-.012.012 0 0-.012.012-.036.036 0 .048-.032.072-.096.072s-.14-.016-.228-.048c-.08-.04-.144-.084-.192-.132-.024-.088-.04-.172-.048-.252 0-.08.032-.236.096-.468.04-.152.088-.336.144-.552.064-.224.132-.452.204-.684.072-.24.14-.46.204-.66s.112-.352.144-.456c.056-.136.136-.392.24-.768.064-.208.128-.416.192-.624.072-.208.14-.392.204-.552.064-.168.108-.276.132-.324.04-.104.1-.28.18-.528s.184-.524.312-.828l.084-.396-.132-.06c-.096.032-.172.044-.228.036-.048-.016-.08-.028-.096-.036-.048.016-.116.004-.204-.036s-.168-.092-.24-.156c-.064-.064-.104-.12-.12-.168-.016-.032-.028-.072-.036-.12 0-.056 0-.084 0-.084.008-.048.068-.092.18-.132.112-.048.256-.088.432-.12.184-.032.38-.052.588-.06.216-.016.424-.016.624 0 .208.016.404.06.588.132s.384.148.6.228c.256.096.524.264.804.504.288.232.548.508.78.828.24.32.4.656.48 1.008.024.096.048.232.072.408s.036.348.036.516c.008.16-.008.264-.048.312-.016.032-.028.072-.036.12 0 .04.016.068.048.084-.008.024-.036.116-.084.276-.048.152-.092.284-.132.396-.016.208-.064.424-.144.648s-.168.436-.264.636c-.096.192-.184.356-.264.492-.032 0-.064.008-.096.024-.024.008-.02.016.012.024 0 .04-.044.116-.132.228-.032.024-.084.084-.156.18-.064.088-.116.148-.156.18-.008.056-.032.104-.072.144-.04.032-.076.048-.108.048 0 0-.008 0-.024 0-.008 0-.012.016-.012.048-.064.096-.164.212-.3.348-.136.128-.292.264-.468.408-.168.136-.344.264-.528.384-.176.12-.344.212-.504.276-.08.056-.164.1-.252.132-.088.04-.172.08-.252.12-.04.032-.128.076-.264.132-.136.064-.284.124-.444.18-.152.056-.288.096-.408.12zm7.6666-1.56c-.168.144-.364.228-.588.252-.216.024-.428-.008-.636-.096-.208-.096-.38-.24-.516-.432-.136-.176-.224-.376-.264-.6-.04-.232-.044-.532-.012-.9.024-.312.124-.624.3-.936.176-.32.388-.604.636-.852.256-.248.508-.42.756-.516.12-.08.22-.116.3-.108.088 0 .22.008.396.024.184.024.32.06.408.108.096.048.172.112.228.192.12.12.2.24.24.36.04.112.06.224.06.336-.032.176-.152.392-.36.648-.2.248-.464.452-.792.612-.176.056-.368.08-.576.072s-.38-.06-.516-.156c-.152-.064-.252-.052-.3.036-.048.08-.092.28-.132.6-.032.304-.008.528.072.672.08.136.188.216.324.24.16.032.284.056.372.072.096.008.212-.028.348-.108.128-.08.208-.124.24-.132.032-.016.056-.032.072-.048l.156-.156c.056-.056.1-.096.132-.12.032-.032.068-.048.108-.048s.076.02.108.06c.032.032.064.056.096.072.08 0 .096.048.048.144-.04.096-.124.212-.252.348-.128.128-.28.248-.456.36zm-.012-2.544c.088-.04.18-.096.276-.168.096-.08.176-.164.24-.252.072-.096.108-.176.108-.24 0-.112-.052-.204-.156-.276-.104-.08-.26-.092-.468-.036-.088.024-.188.084-.3.18-.112.088-.22.188-.324.3-.096.112-.176.212-.24.3-.056.088-.076.14-.06.156.024.04.092.072.204.096.112.016.236.02.372.012.144-.008.26-.032.348-.072zm2.7984 2.232c-.056-.048-.128-.192-.216-.432-.08-.24-.16-.52-.24-.84-.072-.328-.132-.628-.18-.9-.032-.16-.068-.296-.108-.408-.032-.112-.06-.204-.084-.276-.04-.144-.052-.264-.036-.36s.072-.172.168-.228c.04-.024.088-.04.144-.048.064-.016.112-.02.144-.012.096.032.184.18.264.444.08.256.152.596.216 1.02.032.248.072.46.12.636s.072.28.072.312c.032.064.068.128.108.192.048.056.104.052.168-.012.032-.032.096-.104.192-.216.104-.112.204-.232.3-.36.168-.224.3-.408.396-.552.104-.144.22-.296.348-.456.056-.08.12-.168.192-.264s.144-.184.216-.264c.08-.088.152-.14.216-.156.192-.032.296.008.312.12s-.056.28-.216.504c-.064.096-.116.188-.156.276-.032.08-.064.136-.096.168-.064.128-.164.292-.3.492-.136.192-.268.372-.396.54-.128.16-.216.264-.264.312-.032.032-.104.092-.216.18-.104.088-.204.2-.3.336-.192.184-.344.296-.456.336s-.216.012-.312-.084z" fill="#000"/><path d="m85.404 137.576c-.096 0-.176-.052-.24-.156-.048-.048-.08-.116-.096-.204-.008-.08.02-.228.084-.444.064-.224.172-.564.324-1.02.08-.304.144-.524.192-.66.048-.144.072-.248.072-.312 0-.088.008-.16.024-.216.024-.064.036-.124.036-.18.048 0 .096-.044.144-.132s.088-.208.12-.36c.032-.136.06-.244.084-.324.032-.088.048-.148.048-.18.04-.064.08-.164.12-.3.048-.136.12-.3.216-.492.064-.24.136-.488.216-.744.08-.264.16-.508.24-.732.088-.232.16-.412.216-.54.088-.248.156-.42.204-.516.048-.104.048-.172 0-.204-.056-.04-.068-.108-.036-.204s.12-.204.264-.324c.088-.104.164-.176.228-.216.064-.048.144-.072.24-.072.104 0 .252.008.444.024.144.008.296.012.456.012h.312c.072.032.16.068.264.108.104.032.196.064.276.096.088.032.132.06.132.084 0 .048.016.08.048.096l.12.024c.056 0 .132.044.228.132.096.08.196.184.3.312.104.12.184.248.24.384.064.136.112.264.144.384.04.12.04.292 0 .516-.008.12-.028.24-.06.36-.024.12-.052.2-.084.24-.048.032-.092.072-.132.12s-.06.092-.06.132c0 .032-.028.096-.084.192-.056.088-.128.192-.216.312s-.184.24-.288.36-.204.224-.3.312c-.104.128-.228.248-.372.36-.136.112-.26.204-.372.276-.208.096-.44.192-.696.288-.248.096-.488.176-.72.24-.224.064-.412.092-.564.084-.232.032-.384.064-.456.096-.064.024-.112.092-.144.204-.04.104-.08.212-.12.324-.032.104-.048.176-.048.216-.016.032-.056.132-.12.3-.056.16-.12.348-.192.564-.064.216-.128.428-.192.636s-.112.38-.144.516c-.032.112-.072.176-.12.192-.048.024-.108.036-.18.036zm1.488-3.72c.032.032.156.036.372.012s.448-.084.696-.18c.16-.056.32-.124.48-.204.168-.08.328-.168.48-.264.08-.056.2-.156.36-.3s.32-.316.48-.516c.024-.04.064-.116.12-.228.064-.12.12-.232.168-.336.072-.112.144-.276.216-.492.072-.224.088-.408.048-.552-.04-.208-.144-.4-.312-.576-.168-.184-.368-.308-.6-.372-.176-.032-.324-.048-.444-.048-.112 0-.236.012-.372.036-.128.04-.224.096-.288.168-.056.072-.132.224-.228.456-.056.112-.136.284-.24.516-.104.224-.192.436-.264.636-.144.528-.288.964-.432 1.308-.136.336-.22.548-.252.636.008.088.004.152-.012.192-.016.032-.008.068.024.108zm4.1864 2.724c-.072-.056-.124-.112-.156-.168-.024-.056-.024-.164 0-.324.024-.224.056-.42.096-.588.04-.176.088-.376.144-.6.016-.096.06-.26.132-.492.08-.232.176-.484.288-.756s.224-.528.336-.768c.112-.248.208-.432.288-.552.064-.048.14-.068.228-.06.096.008.176.044.24.108.088.072.1.2.036.384-.056.176-.176.456-.36.84-.096.216-.168.38-.216.492-.048.104-.068.168-.06.192.008.016.044.004.108-.036.048-.088.136-.188.264-.3.128-.12.264-.236.408-.348s.28-.212.408-.3.216-.144.264-.168c.064-.04.136-.072.216-.096.088-.032.148-.056.18-.072.184-.088.372-.12.564-.096s.312.096.36.216c.008.064.032.112.072.144.048.032.072.048.072.048.032 0 .048.012.048.036.008.024.012.036.012.036 0 .056-.044.092-.132.108-.08.008-.184.016-.312.024-.104.008-.196.028-.276.06s-.176.072-.288.12c-.304.176-.596.348-.876.516-.272.168-.536.392-.792.672-.056.064-.112.14-.168.228s-.116.184-.18.288c-.04.04-.08.128-.12.264s-.076.268-.108.396c-.024.12-.036.192-.036.216 0 0-.012.04-.036.12-.024.072-.064.144-.12.216-.096.128-.176.192-.24.192s-.16-.064-.288-.192zm4.9242.24c-.104 0-.188-.02-.252-.06-.056-.04-.128-.096-.216-.168-.152-.16-.26-.312-.324-.456-.064-.152-.084-.296-.06-.432.024-.064.032-.124.024-.18 0-.064 0-.096 0-.096-.04-.04-.052-.064-.036-.072.016-.016.032-.04.048-.072.048 0 .064-.044.048-.132-.016-.064.016-.204.096-.42s.18-.42.3-.612c.048-.08.12-.184.216-.312.096-.136.2-.268.312-.396.12-.136.228-.244.324-.324.2-.168.376-.292.528-.372s.316-.14.492-.18.296-.06.36-.06c.072 0 .168.064.288.192.184.08.316.176.396.288.088.112.144.276.168.492.024.24.004.516-.06.828-.056.304-.244.684-.564 1.14-.2.288-.384.504-.552.648-.168.136-.368.272-.6.408-.168.112-.32.196-.456.252-.136.048-.296.08-.48.096zm1.152-1.272c.192-.216.344-.42.456-.612.12-.192.232-.436.336-.732.032-.088.052-.196.06-.324.008-.136.004-.26-.012-.372-.008-.12-.036-.188-.084-.204-.096-.056-.212-.072-.348-.048-.136.016-.284.092-.444.228-.248.208-.464.468-.648.78-.184.304-.364.652-.54 1.044-.12.288-.148.52-.084.696.072.168.22.228.444.18.232-.056.52-.268.864-.636zm5.3224 1.332c-.032 0-.08-.004-.144-.012-.056-.016-.104-.052-.144-.108-.12-.144-.196-.264-.228-.36s-.036-.236-.012-.42c.016-.12.024-.224.024-.312.008-.096.016-.176.024-.24-.032-.032-.092-.008-.18.072-.08.072-.192.164-.336.276-.272.312-.516.552-.732.72-.208.16-.396.268-.564.324-.168.048-.3279.064-.4799.048-.136-.016-.244-.072-.324-.168-.08-.104-.132-.236-.156-.396-.016-.16-.016-.332 0-.516.032-.264.088-.516.168-.756.088-.24.228-.508.42-.804.088-.16.2039-.316.3479-.468.152-.16.316-.3.492-.42.184-.128.36-.22.528-.276.184-.072.372-.112.564-.12.192-.016.364 0 .516.048.096.048.172.072.228.072.064 0 .112-.04.144-.12.04-.064.08-.16.12-.288.04-.136.088-.252.144-.348l.264-.78c.088-.216.184-.444.288-.684s.228-.532.372-.876c.136-.256.248-.404.336-.444.088-.048.188-.016.3.096.088.104.12.224.096.36-.024.128-.096.336-.216.624-.056.088-.104.172-.144.252-.04.072-.096.188-.168.348-.104.248-.2.472-.288.672-.088.192-.18.412-.276.66-.032.128-.076.276-.132.444-.048.168-.088.32-.12.456-.024.128-.052.248-.084.36-.024.104-.052.156-.084.156-.064.072-.124.2-.18.384-.056.176-.104.36-.144.552-.032.192-.06.352-.084.48-.016.096-.028.22-.036.372s-.012.3-.012.444v.288c0 .176-.004.288-.012.336s-.04.072-.096.072zm-2.5559-.756c.1679 0 .3439-.072.5279-.216.192-.144.384-.304.576-.48.12-.112.248-.26.384-.444.144-.184.28-.368.408-.552.136-.184.244-.344.324-.48.08-.144.12-.232.12-.264 0-.04-.036-.068-.108-.084s-.156-.024-.252-.024c-.088-.008-.16-.004-.216.012-.176.04-.352.12-.528.24-.168.12-.352.3-.552.54-.208.256-.38.52-.516.792-.1279.272-.2079.5-.2399.684s-.008.276.072.276z" fill="#000"/><path clip-rule="evenodd" d="m42.4591 28.9552h11.9476c8.8057 0 8.5579-.4696 5.754-5.7845-.938-1.7782-2.1621-4.0986-3.4291-7.1252-.2102-.5021-.4089-.9821-.598-1.4389-2.999-7.24491-3.5975-8.69057-9.6377-.792-.353.4618-.7038.9185-1.05 1.3693-5.9507 7.7487-10.5757 13.7713-2.9868 13.7713zm3.5717-3.9552h6.1285c4.5168 0 4.3898-.2755 2.9515-3.3937-.4812-1.0431-1.1091-2.4045-1.7589-4.1801-.1079-.2946-.2098-.5762-.3068-.8442-1.5383-4.2504-1.8453-5.0985-4.9436-.4646-.1811.2709-.361.5388-.5386.8033-3.0524 4.546-5.4248 8.0793-1.5321 8.0793z" fill="#f2a966" fill-rule="evenodd"/><path d="m51.5 13.5 1.5 2.5-6 7.5h9l2 2-14 .5-.5-2.5 2.5-4 4.5-6z" fill="#f2a966"/><g clip-rule="evenodd" fill-rule="evenodd"><path d="m56.6013 14.4286c.188.4543.3847.9295.5918 1.4242 1.2543 2.9963 2.4662 5.2955 3.4025 7.0703l.0128.0244c.461.8738.8608 1.6316 1.1609 2.2782.3001.6463.5216 1.2245.5968 1.7288.0776.5208.006 1.0221-.3505 1.4291-.3331.3805-.8491.5986-1.4651.74-1.2309.2825-3.2253.332-6.1435.332h-11.9476c-2.0244 0-3.4263-.4147-4.0785-1.4112-.6534-.9985-.3909-2.3313.2203-3.7127.6277-1.4185 1.711-3.0843 3.0205-4.901 1.0242-1.421 2.2021-2.9547 3.4309-4.5548.3455-.45.6951-.9052 1.0464-1.3646 1.6045-2.0982 2.8535-3.57599 3.8812-4.45955 1.0102-.86838 1.9674-1.29801 2.906-.9055.4397.18391.8099.52674 1.1394.95531.3308.43022.6454.97944.9633 1.62244.4841.9788 1.0025 2.2313 1.6124 3.7046zm-5.9692-4.61854c-.9397.80794-2.1327 2.20844-3.7387 4.30864-.3548.464-.7067.9223-1.0537 1.374-1.2271 1.598-2.3923 3.1153-3.4068 4.5227-1.3042 1.8094-2.3345 3.404-2.9172 4.721-.5992 1.3541-.6438 2.2321-.298 2.7604.3471.5305 1.2509.9588 3.2417.9588h11.9476c2.9576 0 4.8235-.0551 5.9198-.3067.5477-.1257.8122-.2821.9365-.424.1011-.1155.1641-.2847.1137-.623-.0529-.3548-.2219-.8244-.5147-1.4552-.2894-.6234-.6793-1.3625-1.1489-2.2527l-.0023-.0043c-.9378-1.7776-2.1677-4.1104-3.4404-7.1508-.2134-.5096-.414-.9943-.6043-1.4539-.6058-1.4635-1.106-2.6716-1.5738-3.6177-.3061-.619-.587-1.1015-.8597-1.45616-.274-.35633-.5156-.55159-.7325-.64232-.3749-.15676-.9108-.08184-1.8683.74124z" fill="#000"/><path d="m48.6573 58.5915 12.7895 2.3335 2.0611-.2337-.6133-5.4098-10.8428-2.4235-.2045-1.8041 8.5774.8548 2.0611-.2336-.4382-3.8647-9.9119-2.2687c-.3962-11.1109.8025-18.2916-1.1847-18.0663-3.9746.4506-2.9044 9.8901-2.2937 31.1161z" fill="#f2a966"/><path d="m48.8391 27.5795c.2145-.0001.3885.1736.3887.3881.0036 4.6471-.028 1.8319-.2632 6.057-.0988 1.7754-.1974 3.5458-.2777 5.3386-.2839 6.3353-.2739 12.6399.143 18.9608.0142.214-.1479.399-.3619.4131-.2141.0141-.399-.148-.4131-.362-.4191-6.3539-.4289-12.6875-.144-19.0467.0811-1.8097.1802-3.5896.2793-5.3698.2347-4.2159.2644-1.3662.2608-5.9904-.0001-.2145.1736-.3885.3881-.3887z" fill="#000"/><path d="m52.1543 27.9237c.2144-.0064.3934.1623.3998.3767.0348 1.1686-.026 2.015-.1224 4.1279-.0178.3922-.0357.7841-.0532 1.1759-.1767 3.9543-.3158 7.8895-.054 11.8262.0143.2141-.1477.3991-.3617.4133-.214.0143-.3991-.1477-.4133-.3617-.265-3.9844-.1236-7.9584.053-11.9125.0175-.3918.0354-.7833.0532-1.1747.0528-1.1587.1863-1.4984.122-4.0713-.0064-.2144.1622-.3934.3766-.3998z" fill="#000"/><path d="m51.8537 46.1067c.0394-.2108.2423-.3497.4532-.3103.9197.1721 1.85.332 2.7846.4926 2.2423.3854 4.5093.775 6.7142 1.348.2075.054.3321.266.2781.4736-.0539.2076-.266.3322-.4735.2782-2.1717-.5644-4.3869-.9451-6.6151-1.3279-.9422-.1619-1.8867-.3242-2.8312-.501-.2108-.0394-.3498-.2423-.3103-.4532z" fill="#000"/><path d="m49.525 47.1746c.0391-.2108.2419-.3501.4527-.3109.8594.1596 1.7162.325 2.5718.4901 2.4703.4767 4.9307.9514 7.4128 1.2812.2126.0283.3621.2236.3338.4362-.0282.2126-.2235.3621-.4361.3338-2.5067-.333-4.9995-.8141-7.476-1.292-.8513-.1643-1.7007-.3282-2.5481-.4856-.2109-.0392-.3501-.2419-.3109-.4528z" fill="#000"/><path d="m62.1662 47.9174c.1043.1874.0369.4239-.1506.5282-.7953.4425-1.6671.6673-2.4914.8799-.1698.0438-.3375.087-.5022.1316-.2071.056-.4204-.0665-.4764-.2736-.056-.207.0665-.4203.2736-.4763.1834-.0497.3638-.0964.5412-.1423.8209-.2127 1.5774-.4087 2.2775-.7981.1875-.1043.424-.0369.5283.1506z" fill="#000"/><path d="m58.9747 48.5927c.1987-.0807.4253.0151.506.2139.4277 1.0539.732 2.0881.917 3.214.0348.2117-.1086.4115-.3203.4463s-.4115-.1086-.4463-.3203c-.1747-1.0633-.4619-2.0418-.8703-3.0479-.0807-.1987.0151-.4253.2139-.506z" fill="#000"/><path d="m61.305 47.6678c.2096-.0457.4165.0872.4622.2968.2772 1.2727.5057 2.5431.6532 3.8438.0242.2131-.129.4054-.3422.4296-.2131.0242-.4054-.129-.4296-.3421-.1437-1.2678-.3671-2.5113-.6404-3.766-.0456-.2096.0873-.4165.2968-.4621z" fill="#000"/><path d="m63.7579 51.426c.0904.1946.0059.4255-.1887.5159-1.0828.5027-2.2118.7242-3.3289.9351-.2108.0398-.4139-.0989-.4537-.3097s.0988-.4139.3096-.4537c1.1256-.2125 2.1629-.42 3.1459-.8764.1945-.0903.4255-.0058.5158.1888z" fill="#000"/><path d="m64.3624 60.0832c.0904.1946.0058.4256-.1887.5159-1.0829.5027-2.2118.7242-3.3289.9351-.2108.0398-.4139-.0988-.4537-.3096s.0988-.414.3096-.4538c1.1256-.2125 2.1629-.42 3.1458-.8763.1946-.0904.4256-.0059.5159.1887z" fill="#000"/><path d="m49.2355 50.3266c.0421-.2103.2467-.3467.457-.3046.8776.1756 1.9132.3735 3.0122.5835 2.5714.4915 5.4898 1.0492 7.5441 1.5429.2085.0502.3369.2599.2868.4684-.0501.2086-.2598.337-.4684.2869-2.0358-.4893-4.9193-1.0404-7.4827-1.5303-1.1056-.2112-2.1516-.4111-3.0444-.5898-.2103-.0421-.3467-.2467-.3046-.457z" fill="#000"/><path d="m51.4621 50.6145c.214-.0145.3993.1473.4137.3613.002.0289.0039.0577.0059.0866.0344.5071.0692 1.0205.0695 1.5471.0002.2145-.1736.3885-.3881.3887-.2146.0001-.3886-.1737-.3887-.3882-.0004-.4997-.0335-.9891-.0683-1.5023-.0018-.0265-.0036-.0529-.0054-.0795-.0144-.214.1474-.3993.3614-.4137z" fill="#000"/><path d="m51.0636 52.4356c.0433-.21.2488-.3452.4588-.3018 1.341.2767 2.9419.6618 4.5852 1.0571.3857.0928.7737.1861 1.1613.2787 2.0455.4889 4.079.9585 5.7189 1.2323.2115.0353.3544.2354.3191.447-.0353.2115-.2355.3544-.447.3191-1.6701-.2788-3.7286-.7546-5.7716-1.2429-.3909-.0934-.7813-.1873-1.1684-.2805-1.6425-.395-3.2272-.7762-4.5545-1.0501-.21-.0434-.3452-.2488-.3018-.4589z" fill="#000"/><path d="m62.5893 54.5277c.208-.0524.4191.0737.4715.2816.2226.8824.4901 1.9439.5973 3.0096.1069 1.0638.0593 2.1744-.3827 3.1445-.0889.1952-.3192.2813-.5144.1924-.1952-.089-.2814-.3193-.1924-.5145.3603-.7907.4173-1.7428.3166-2.7447-.1005-.9999-.353-2.0071-.5775-2.8973-.0525-.208.0736-.4191.2816-.4716z" fill="#000"/><path d="m47.4351 58.4606c.0376-.2111.2393-.3518.4505-.3142 1.4917.2659 2.9992.5069 4.5119.7488 3.1686.5068 6.3599 1.0172 9.4766 1.7663.2086.0501.337.2598.2869.4684-.0501.2085-.2598.337-.4684.2868-3.0879-.7422-6.2274-1.2441-9.379-1.748-1.5201-.243-3.043-.4865-4.5643-.7576-.2111-.0376-.3518-.2393-.3142-.4505z" fill="#000"/><path d="m50.354 38.3572c.2145.002.3868.1774.3848.3919-.0121 1.2933-.0663 2.679-.1205 4.0649-.0048.1233-.0096.2465-.0144.3697-.0588 1.5115-.1132 3.0144-.1101 4.4049.0005.2145-.173.3888-.3875.3893-.2145.0004-.3888-.1731-.3892-.3875-.0032-1.4088.0519-2.9268.1106-4.4369.0048-.1227.0096-.2453.0144-.3678.0543-1.3886.108-2.7628.12-4.0438.002-.2145.1775-.3867.3919-.3847z" fill="#000"/><path d="m49.4229 50.3097c.2085-.0504.4184.0777.4688.2863.2612 1.0804.337 2.0362.1294 3.1642-.0389.211-.2414.3505-.4524.3117-.2109-.0388-.3505-.2414-.3116-.4523.1839-.999.1209-1.8426-.1205-2.8411-.0504-.2085.0777-.4184.2863-.4688z" fill="#000"/><path d="m49.705 53.7979c.0304-.2123.2272-.3598.4395-.3294 2.3912.3426 6.3082 1.3778 9.1108 2.1186.5225.1381 1.0062.2659 1.4341.3771.2076.054.3322.266.2782.4736-.0539.2076-.266.3322-.4736.2782-.4365-.1135-.927-.243-1.4543-.3824-2.8085-.742-6.6646-1.7608-9.0054-2.0962-.2123-.0304-.3597-.2272-.3293-.4395z" fill="#000"/><path d="m63.2822 55.6106c.0417.2104-.095.4148-.3054.4566-.8686.1725-1.7301.3922-2.6023.6159-.2078.0533-.4195-.0719-.4728-.2797s.0719-.4195.2797-.4728c.8698-.2231 1.7513-.4481 2.6441-.6254.2104-.0417.4149.095.4567.3054z" fill="#000"/><path d="m60.2972 55.4436c.199-.0802.4252.0161.5054.2151.7482 1.8568.8775 3.7283.5306 5.6505-.0381.2111-.2401.3513-.4512.3132s-.3513-.2401-.3132-.4512c.3238-1.7941.2011-3.5155-.4867-5.2222-.0801-.199.0162-.4253.2151-.5054z" fill="#000"/><path d="m52.382 42.1835c.1087.1849.0468.423-.1382.5316-.1025.0603-.2069.1235-.3134.1881-.4572.2769-.9528.5772-1.5068.7632-.2034.0683-.4236-.0412-.4919-.2445-.0683-.2034.0412-.4236.2446-.4919.4646-.156.8688-.4003 1.3195-.6726.1146-.0692.2322-.1402.3546-.2121.1849-.1087.423-.0468.5316.1382z" fill="#000"/><path d="m51.3256 45.5219-.0056.0029c-.2201.1123-.4574.2295-.6919.3453-.0498.0246-.0995.0491-.1489.0735-.207.1032-.385.192-.4381.2186l-.3493-.6939c.1616-.0818.3155-.1582.4666-.2328.0787-.0392.1609-.0802.2414-.1203l.5634-.2806.0085-.0042.0024-.0012.0024-.0011.0078-.0037c.0034-.0014.0163-.0069.026-.0106.1771-.0213.5222.3619.3498.6875-.0107.007-.0252.0156-.0288.0175zm-.0116.0059c.0018-.0009.002-.001 0 0z" fill="#000"/><path d="m53.8461 45.868c.0844.1972-.0071.4256-.2043.5099-.5145.2202-.8991.5499-1.3637.9482-.081.0694-.1644.1409-.2513.2142-.1639.1384-.409.1176-.5473-.0463-.1384-.164-.1176-.4091.0463-.5474.0769-.0649.1539-.1311.2315-.1979.4616-.3974.9458-.8141 1.5788-1.085.1973-.0844.4256.0071.51.2043z" fill="#000"/><path d="m57.2505 46.9108c.0904.1946.0058.4255-.1887.5159-.2008.0932-.3937.196-.5973.3045-.0673.0359-.1357.0723-.206.1093-.2756.145-.5706.2922-.8874.4048-.2021.0718-.4242-.0338-.496-.236-.0719-.2021.0338-.4242.2359-.496.2623-.0932.5171-.219.7859-.3604.0616-.0323.1244-.0659.1884-.1.2079-.1108.4273-.2278.6493-.3309.1946-.0903.4256-.0058.5159.1888z" fill="#000"/><path d="m60.0334 47.2454c.1267.1731.0891.4162-.084.5429-.4407.3227-.9314.5876-1.3926.8365-.1309.0707-.2595.1401-.3839.2092-.1875.1042-.424.0366-.5282-.151-.1041-.1875-.0365-.424.151-.5281.1428-.0794.2835-.1554.4218-.2301.4525-.2445.8795-.4752 1.273-.7633.1731-.1267.4161-.0892.5429.0839z" fill="#000"/><path d="m46.6 23.2769c.0616.2055-.055.422-.2605.4837-.5359.1608-.9552.4451-1.4618.7885-.0882.0598-.1791.1215-.2738.1845-.1785.119-.4196.0708-.5386-.1077s-.0708-.4196.1077-.5386c.0837-.0559.1676-.113.2522-.1706.5035-.3428 1.0315-.7023 1.6911-.9002.2055-.0617.422.0549.4837.2604z" fill="#000"/><path d="m49.3292 23.2447c.1551.1482.1607.3941.0125.5492-.1529.16-.295.3262-.4449.5015-.0496.0579-.1.1168-.1519.1769-.2038.2355-.4247.4803-.6786.7007-.162.1406-.4073.1233-.5479-.0387-.1407-.162-.1233-.4073.0387-.548.2102-.1824.4015-.3925.6002-.6222.0455-.0526.0918-.1068.1389-.1619.1531-.179.3147-.368.4838-.545.1482-.1551.3941-.1607.5492-.0125z" fill="#000"/><path d="m51.407 23.1992c.1753.1237.2171.3661.0934.5413-.315.4463-.6958.8536-1.0538 1.2365-.1016.1087-.2013.2154-.2973.3205-.1446.1585-.3903.1697-.5487.0251-.1585-.1446-.1697-.3903-.0251-.5487.1101-.1207.2193-.2376.3266-.3524.3511-.3759.6824-.7306.9636-1.129.1237-.1752.3661-.217.5413-.0933z" fill="#000"/><path d="m55.407 23.1992c.1753.1237.2171.3661.0934.5413-.315.4463-.6958.8536-1.0538 1.2365-.1016.1087-.2013.2154-.2973.3205-.1446.1585-.3903.1697-.5487.0251-.1585-.1446-.1697-.3903-.0251-.5487.1101-.1207.2193-.2376.3266-.3524.3511-.3759.6824-.7306.9636-1.129.1237-.1752.3661-.217.5413-.0933z" fill="#000"/><path d="m52.167 51.9981c.0975.1911.0216.425-.1695.5225-.6673.3403-1.3587.5556-2.0359.7633-.2051.0629-.4224-.0524-.4853-.2575s.0524-.4224.2575-.4853c.6834-.2095 1.3123-.4073 1.9107-.7126.1911-.0974.425-.0215.5225.1696z" fill="#000"/><path d="m54.0783 52.7544c.1267.1731.0891.4162-.0839.5429-.5475.4009-1.1348.6907-1.7038.9715-.0637.0314-.1271.0627-.1902.0941-.1922.0954-.4253.0169-.5206-.1752-.0954-.1922-.017-.4253.1752-.5207.0631-.0313.1256-.0622.1875-.0928.5774-.2853 1.1031-.5451 1.5929-.9037.1731-.1267.4161-.0892.5429.0839z" fill="#000"/><path d="m57.132 53.659c.1036.1879.0351.4241-.1528.5276-.4842.2667-.9703.529-1.4614.7859-.1901.0994-.4248.0259-.5242-.1642-.0995-.19-.026-.4248.1641-.5242.4853-.2538.9664-.5134 1.4467-.7779.1879-.1036.4241-.0351.5276.1528z" fill="#000"/><path d="m60.7722 54.6681c.1267.173.0891.4161-.084.5428-.5438.3983-1.1216.6932-1.7222.9502-.1973.0844-.4256-.007-.51-.2043-.0844-.1972.0071-.4255.2043-.5099.5696-.2437 1.0895-.5117 1.569-.8628.1731-.1267.4161-.0891.5429.084z" fill="#000"/><path d="m52.614 38.8509c.1169.1798.0659.4204-.1139.5373-.5516.3587-1.0941.659-1.6958.9341-.1951.0892-.4256.0034-.5148-.1917s-.0034-.4256.1917-.5148c.5658-.2587 1.0747-.5403 1.5954-.8788.1799-.117.4205-.066.5374.1139z" fill="#000"/><path d="m52.5342 35.2946c.0991.1902.0251.4248-.1651.5239-.6025.3137-1.1846.5515-1.8407.7432-.2059.0602-.4216-.058-.4818-.2639-.0601-.2059.058-.4216.2639-.4818.6048-.1767 1.1399-.395 1.6998-.6866.1902-.099.4248-.0251.5239.1652z" fill="#000"/><path d="m52.9025 33.0951c.0985.1906.0238.4249-.1668.5233-.5287.2732-1.0188.519-1.6253.7162-.204.0664-.4232-.0452-.4895-.2492s.0453-.4232.2493-.4895c.5415-.1761.9832-.396 1.5089-.6676.1906-.0985.4249-.0238.5234.1668z" fill="#000"/><path d="m53.6754 16.8951c.1079.2753.2208.5632.3396.8629.7198 1.8155 1.4154 3.2086 1.9527 4.284l.0074.0147c.2645.5295.494.9886.6662 1.3804.1722.3916.2994.7419.3425 1.0475.0445.3156.0035.6193-.2011.8659-.1912.2306-.4874.3627-.8409.4483-.7064.1712-1.851.2012-3.5258.2012h-6.8567c-1.1619 0-1.9664-.2513-2.3407-.855-.375-.605-.2243-1.4126.1264-2.2495.3603-.8595.982-1.8688 1.7335-2.9696.5878-.861 1.2638-1.7903 1.969-2.7598.1983-.2726.3989-.5484.6006-.8268.9208-1.2713 1.6376-2.1667 2.2274-2.702.5797-.5262 1.1291-.7865 1.6677-.5487.2524.1114.4648.3192.654.5788.1898.2607.3704.5935.5528.9831.2778.5931.5754 1.3519.9254 2.2446zm-3.4258-2.7984c-.5393.4895-1.2239 1.3381-2.1456 2.6107-.2037.2811-.4056.5587-.6047.8325-.7043.9682-1.373 1.8875-1.9553 2.7403-.7484 1.0963-1.3397 2.0625-1.6741 2.8604-.3439.8205-.3695 1.3525-.1711 1.6726.1993.3214.7179.5809 1.8605.5809h6.8567c1.6974 0 2.7683-.0334 3.3975-.1858.3143-.0762.4661-.1709.5374-.2569.058-.07.0942-.1725.0653-.3775-.0304-.215-.1274-.4995-.2954-.8817-.1661-.3777-.3899-.8255-.6594-1.3649l-.0013-.0026c-.5382-1.0771-1.2441-2.4905-1.9745-4.3327-.1224-.3088-.2376-.6025-.3468-.8809-.3477-.8868-.6347-1.6188-.9032-2.192-.1757-.3751-.3368-.6674-.4934-.8823-.1572-.2159-.2959-.3342-.4204-.3892-.2151-.095-.5227-.0496-1.0722.4491z" fill="#000" stroke="#000" stroke-linecap="round" stroke-width=".4"/></g><path d="m52.5 15c-1.8333 1.8333-5.6 6-6 8h1 8" stroke="#000" stroke-linecap="round"/><path clip-rule="evenodd" d="m89.725 45.0123 10.879-.0941c.353.1214.843.251 1.393.3963 1.706.4507 3.987 1.0532 4.507 2.0357.86 1.6239 1.514 5.2698 1.149 6.1971-.183.4636-.533 3.2894-.884 6.1152-.35 2.8258-.701 5.6515-.883 6.1152-.363.9204-2.906.7843-5.406.6506l-.055-.003c-.479-.0256-1.0613-.044-1.705-.0644-2.7386-.0868-6.5887-.2088-8.3314-1.0686-.6961-.3434-1.3127-.4883-1.8453-.6134-1.1142-.2617-1.8603-.437-2.195-2.1631-.4947-2.5512.9551-13.5304 1.3876-15.7164.346-1.7487 1.4703-1.92 1.9891-1.7871zm4.4589 4.1042-1.7778 1.4769-.5281 8.0763.6571.5614 3.4032.241 3.2919.0405.7612-.2698.5656-8.3988-1.8362-1.6381z" fill="#fcf4e3" fill-rule="evenodd"/><path d="m94.3515 49.1922c-.5698.1914-1.8406 1.0552-2.102 2.0215-.2918 1.0788-.8663 7.0167-.0319 7.7609.6675.5954 5.3656.5909 7.6312.5143" stroke="#000" stroke-linecap="round"/><path d="m104.237 49.7646c-.184.0449-.296.2302-.251.4137s.23.2958.414.2508l.553-.1355c.768-.1883 1.484-.364 2.077-.508.184-.0446.296-.2296.252-.4132-.045-.1836-.23-.2963-.413-.2517-.594.1442-1.311.3201-2.079.5083l-.002.0004z" fill="#000"/><path d="m104.406 52.1122c-.183.045-.295.2302-.25.4137.044.1835.23.2958.413.2509l.553-.1356c.768-.1882 1.485-.364 2.078-.5079.183-.0446.296-.2296.251-.4132-.044-.1836-.229-.2963-.413-.2517-.593.1441-1.311.32-2.079.5082l-.001.0005z" fill="#000"/><path d="m104.235 54.6728c-.183.045-.295.2302-.25.4137s.23.2958.413.2508l.553-.1355c.768-.1883 1.485-.364 2.078-.508.183-.0446.296-.2296.251-.4132-.044-.1836-.229-.2963-.413-.2517-.593.1442-1.311.3201-2.078.5083l-.002.0005z" fill="#000"/><path d="m103.883 58.2714c-.184.045-.296.2302-.251.4137s.23.2958.414.2508l.553-.1355c.768-.1883 1.484-.364 2.077-.508.184-.0445.296-.2295.252-.4131-.045-.1836-.23-.2963-.413-.2517-.594.1441-1.311.32-2.079.5082l-.002.0005z" fill="#000"/><path d="m90.4095 60.1896c-.167.0883-.2308.2953-.1424.4623s.2954.2308.4624.1424l.5031-.2663c.6988-.3698 1.3509-.715 1.8909-.9993.1672-.088.2314-.2949.1434-.462-.0881-.1672-.2949-.2314-.4621-.1434-.5406.2846-1.1934.6301-1.892.9999l-.0017.0009z" fill="#000"/><path d="m90.3123 51.4161c-.167.0884-.2307.2954-.1424.4624.0884.167.2954.2307.4624.1424l.5032-.2663c.6987-.3699 1.3509-.7151 1.8908-.9993.1672-.088.2314-.2949.1434-.4621s-.2949-.2313-.4621-.1433c-.5405.2845-1.1934.6301-1.892.9998l-.0017.001z" fill="#000"/><path d="m89.9969 53.7579c-.167.0884-.2308.2954-.1424.4624s.2954.2307.4624.1424l.5032-.2663c.6987-.3699 1.0246-.5375 1.5646-.8218.1672-.088.2314-.2948.1434-.462-.0881-.1672-.2949-.2314-.4621-.1434-.541.2848-.8683.4532-1.5675.8232z" fill="#000"/><path d="m89.784 58.7198c-.167.0884-.2308.2954-.1424.4624s.2954.2307.4624.1424l.5032-.2663c.6987-.3699 1.0246-.5375 1.5646-.8217.1672-.0881.2314-.2949.1434-.4621s-.2949-.2314-.4621-.1434c-.541.2848-.8683.4532-1.5675.8233z" fill="#000"/><path d="m92.471 60.9571c-.167.0884-.2307.2954-.1424.4624.0884.167.2954.2307.4624.1424l.5032-.2663c.6987-.3699 1.3509-.715 1.8908-.9993.1672-.088.2314-.2949.1434-.4621-.088-.1671-.2949-.2313-.4621-.1433-.5406.2846-1.1934.6301-1.892.9999l-.0017.0009z" fill="#000"/><path d="m95.6097 61.0597c-.167.0883-.2308.2954-.1424.4624.0884.1669.2954.2307.4624.1423l.5031-.2663c.6988-.3698 1.3509-.715 1.8909-.9993.1672-.088.2314-.2948.1434-.462-.0881-.1672-.2949-.2314-.4621-.1434-.5406.2846-1.1934.6301-1.892.9999l-.0017.0009z" fill="#000"/><path d="m103.794 60.7695c-.183.0449-.296.2301-.251.4137.045.1835.23.2958.414.2508l.553-.1356c.768-.1882 1.484-.3639 2.077-.5079.184-.0446.297-.2296.252-.4132s-.23-.2963-.413-.2517c-.594.1442-1.311.3201-2.079.5083l-.002.0004z" fill="#000"/><path d="m103.652 60.8226c-.192.0489-.31.2464-.264.441s.238.3128.43.2638l.578-.1475c.803-.2048 1.553-.396 2.173-.5527.192-.0485.311-.2457.266-.4404-.046-.1947-.238-.3133-.43-.2648-.621.1569-1.371.3483-2.174.5531l-.002.0005z" fill="#000"/><path d="m103.162 63.1361c-.192.0489-.31.2464-.264.441.045.1946.238.3127.43.2638l.578-.1475c.803-.2048 1.553-.396 2.173-.5527.192-.0485.311-.2457.265-.4404-.045-.1948-.237-.3133-.429-.2648-.621.1569-1.372.3483-2.174.553l-.002.0006z" fill="#000"/><path clip-rule="evenodd" d="m106.565 47.1228c1.184 1.2513 1.556 2.8206 1.471 4.2014v.0035l-.003.0589-.012.1824c-.009.1595-.024.3932-.043.6902-.039.5939-.097 1.4408-.173 2.4536-.151 2.0251-.375 4.7153-.663 7.3722-.282 2.5984-1.239 3.8574-2.216 4.4383-.48.2851-.941.392-1.284.4273-.171.0176-.314.0175-.417.0126-.051-.0024-.092-.0061-.123-.0094-.012-.0014-.023-.0028-.032-.0039l-.015-.0009-.086-.0057c-.076-.0049-.185-.0123-.323-.022-.275-.0194-.663-.0481-1.112-.0855-.898-.0746-2.048-.1841-3.0456-.3231-.211-.0294-.3582-.2243-.3288-.4354.0294-.211.2243-.3582.4353-.3288.9765.136 2.1101.2441 3.0031.3184.445.037.83.0655 1.102.0847.137.0096.245.0169.319.0218l.085.0055.029.0018c.013.0008.026.0022.038.0043m0 0c.003.0003.008.0009.015.0018.016.0017.042.0041.076.0057.069.0033.173.0037.301-.0095.256-.0263.605-.1065.969-.323.71-.4223 1.578-1.4246 1.843-3.8583.287-2.6451.51-5.326.661-7.3465.075-1.01.133-1.8545.172-2.4463.019-.296.034-.5287.043-.6874l.011-.1811.004-.0608v-.0009-.0013c.075-1.2128-.253-2.5581-1.262-3.6244-1.007-1.0649-2.741-1.9013-5.575-2.0016-.213-.0075-.379-.1862-.372-.3992.008-.2129.186-.3794.399-.3719 2.973.1052 4.924.9896 6.109 2.2425m-3.394 19.0622c-.001-.0002-.002-.0003-.002-.0003l.001.0001z" fill="#000" fill-rule="evenodd"/><path clip-rule="evenodd" d="m103.476 46.3169c.911.9923 1.26 2.4404 1.142 4.3614-.266 4.2972-.472 6.4148-.727 9.0276-.053.546-.109 1.1137-.167 1.7274-.171 1.79-.547 3.1756-1.421 4.0621-.891.9051-2.213 1.2066-4.0493 1.0539-.97-.0806-1.7842-.1423-2.5156-.1977-1.9582-.1483-3.322-.2516-5.4883-.5535-2.1933-.3056-3.3256-1.219-3.8524-2.3943-.4886-1.0897-.4182-2.3395-.3649-3.2859.0018-.0315.0035-.0627.0053-.0936v-.0009l.0118-.2094c.0078-.1381.0191-.3426.0336-.608.0288-.5307.0701-1.3051.1194-2.2793.0988-1.9484.2303-4.6957.361-7.8911.0572-1.3999.5777-2.6491 1.4662-3.5219.8926-.8768 2.1361-1.3524 3.5867-1.2319 2.4665.2049 4.2337.294 5.7785.3719.6954.0351 1.3457.0679 1.9944.1079 1.7836.1101 3.1776.566 4.0866 1.5553zm-.568.5219c-.713-.7752-1.867-1.2021-3.5662-1.307-.6356-.0393-1.2792-.0718-1.9706-.1066-1.5498-.0782-3.3398-.1685-5.8186-.3745-1.2347-.1026-2.2552.2994-2.9821 1.0135-.731.718-1.1856 1.7729-1.236 3.0029-.1308 3.1984-.2624 5.9483-.3612 7.8987-.0495.9752-.0908 1.7505-.1197 2.2822-.0144.2658-.0258.4707-.0336.6091l-.0118.2099-.0014.0252c-.0554.9948-.1159 2.0803.2946 2.996.392.8742 1.2543 1.6669 3.2549 1.9457 2.1407.2983 3.4756.3994 5.4235.547.7337.0555 1.5543.1177 2.5378.1995 1.7444.145 2.7804-.1612 3.4364-.8265.673-.6838 1.034-1.8311 1.202-3.5938.058-.6154.114-1.1839.167-1.7304.255-2.6106.46-4.7159.725-8.999.112-1.8213-.231-3.0196-.94-3.7919z" fill="#000" fill-rule="evenodd"/><path d="m100.187 49.9288c.547.5951.756 1.4634.685 2.6153-.159 2.5768-.283 3.8465-.436 5.4133-.032.3274-.065.6678-.1 1.0358-.102 1.0733-.328 1.9042-.8517 2.4358-.5347.5427-1.3268.7236-2.4283.632-.5816-.0484-1.0698-.0854-1.5084-.1186-1.1742-.0889-1.992-.1509-3.291-.3319-1.3152-.1833-1.9942-.731-2.3101-1.4357-.2929-.6534-.2507-1.4029-.2188-1.9704.0011-.0189.0021-.0376.0032-.0561v-.0005l.0071-.1256c.0046-.0828.0114-.2054.0201-.3645.0173-.3183.042-.7827.0716-1.3668.0593-1.1683.1381-2.8158.2165-4.7319.0343-.8394.3464-1.5885.8792-2.1118.5352-.5258 1.2809-.811 2.1507-.7387 1.479.1229 2.5387.1763 3.465.223.417.021.8069.0407 1.1959.0647 1.0695.066 1.9056.3394 2.45.9326zm-.3403.313c-.427-.4649-1.1195-.7209-2.1382-.7838-.3811-.0235-.7671-.043-1.1817-.0639-.9292-.0469-2.0026-.101-3.489-.2245-.7404-.0615-1.3523.1795-1.7882.6077-.4383.4305-.711 1.0631-.7411 1.8006-.0785 1.9179-.1574 3.5669-.2167 4.7364-.0296.5848-.0544 1.0497-.0717 1.3685-.0087.1594-.0155.2822-.0201.3653l-.0072.1258-.0008.0151c-.0332.5966-.0695 1.2474.1767 1.7965.235.5243.7521.9996 1.9518 1.1668 1.2836.1789 2.084.2395 3.2521.328.4399.0333.932.0706 1.5218.1196 1.0457.0869 1.6673-.0967 2.0603-.4956.404-.41.62-1.098.7208-2.155.0351-.369.0684-.7099.1004-1.0376.1531-1.5654.2761-2.8279.4341-5.3962.068-1.0921-.138-1.8107-.5633-2.2737z" style="fill-rule:evenodd;clip-rule:evenodd;fill:#000;stroke:#000;stroke-width:.4;stroke-linecap:round;stroke-linejoin:round"/><path d="m96.2681 79.7704.8648-14.4306-3.1032-.3512.1616 2.3163-1.657 21.7961 11.6547 1.1751.626-2.3098-1.233-2.247-5.5662-.3751.0309-3.2505 2.7353.1037-.01-2.057z" fill="#fcf4e3"/><path d="m93.7934 65.282c.1694-.0047.3106.1288.3153.2981.0184.6594.0523 1.2356.0846 1.785.0664 1.1293.1261 2.1453.0308 3.5375-.1149 1.679-.2678 3.3579-.4204 5.0322-.0606.6649-.1211 1.3291-.1792 1.9923-.2326 2.6576-.3985 5.3147-.5648 7.9775-.0615.9843-.123 1.9693-.1879 2.9554-.0112.1691-.1573.2971-.3264.286-.169-.0111-.2971-.1572-.2859-.3263.0646-.9815.1259-1.9637.1873-2.9463.1665-2.6654.3331-5.334.5664-7.9998.0585-.668.1193-1.335.18-2.0015.1523-1.6716.3043-3.3397.4188-5.0114.0926-1.3541.036-2.311-.0293-3.4168-.0329-.555-.0679-1.1476-.0874-1.8467-.0047-.1693.1288-.3105.2981-.3152z" style="fill-rule:evenodd;clip-rule:evenodd;fill:#000;stroke:#000;stroke-width:.3;stroke-linecap:round"/><path d="m97.03 65.7607c.1693-.0075.3127.1236.3202.2928.099 2.2206-.0291 3.1468-.193 5.3463-.0331.4441-.0692.8858-.1052 1.3262-.0824 1.0086-.1643 2.0104-.2084 3.0186-.0599 1.3676-.0495 2.7356-.0391 4.1131.0013.1776.0027.3554.0039.5334.0011.1694-.1353.3077-.3048.3088-.1694.0012-.3077-.1353-.3088-.3047-.0012-.1774-.0026-.355-.0039-.5328-.0104-1.3756-.021-2.7602.0396-4.1447.0447-1.0201.1281-2.0408.2109-3.0548.0358-.4377.0715-.8741.1038-1.3088.1638-2.196.2892-3.0915.192-5.2732-.0076-.1693.1236-.3127.2928-.3202z" style="fill-rule:evenodd;clip-rule:evenodd;fill:#000;stroke:#000;stroke-width:.3;stroke-linecap:round"/><path d="m100.728 80.4127c-.072-.0504-.208-.1096-.464-.1607-.978-.1951-1.591-.2449-2.7346-.3377-.2932-.0238-.6212-.0505-.9991-.0831-.1689-.0146-.2939-.1633-.2793-.3321s.1632-.2938.3321-.2793c.3685.0319.6913.058.9822.0816 1.1515.0934 1.8034.1463 2.8187.3488.291.0582.522.1386.695.259.186.1294.289.2945.336.4804.042.1665.035.3432.029.4862 0 .013-.001.026-.002.0389-.005.1407-.011.2732.002.418l.002.0269-.002.0268c-.049.566-.22.9463-.506 1.162-.283.2143-.605.2084-.817.18-.099-.0133-.2924-.0494-.5215-.0921-.0702-.0131-.1438-.0268-.2191-.0407-.324-.0597-.6933-.1254-1.0124-.1693-.0107.0129-.0287.0396-.0496.0893-.0597.1416-.1014.3689-.1238.6554-.0397.5093-.0123 1.1044.0058 1.4969.0019.0429.0038.0833.0055.1209.0065.1482.0608.226.1599.2882.1222.0766.322.1317.6183.1632.2906.0308.6339.0357 1.0219.039.026.0002.052.0004.078.0006.361.0029.754.0061 1.15.0315.459.0293.859.0235 1.218.0183.03-.0005.06-.0009.09-.0013.372-.0051.722-.0074 1.022.0511.315.0612.597.1924.819.4636.213.2599.347.6198.435 1.0892.176.9339.146 1.7836.068 2.3835-.039.2997-.09.5418-.136.7051-.022.0779-.047.1516-.073.2064-.007.0147-.017.0337-.03.0536-.009.0139-.037.0555-.086.0908-.026.0189-.076.0484-.146.0569-.079.0095-.157-.0115-.22-.0575-.098-.071-.119-.1717-.123-.1896v-.0012c-.022-.0997.007-.1986.07-.2694.005-.016.011-.0349.017-.0568.037-.1297.083-.3419.119-.6173.071-.5502.099-1.3334-.063-2.191-.08-.4263-.188-.6693-.307-.814-.109-.1335-.248-.2086-.461-.25-.227-.0441-.511-.0452-.897-.0398-.03.0004-.06.0008-.091.0013-.358.0052-.78.0114-1.264-.0196-.378-.0242-.755-.0273-1.119-.0302-.025-.0002-.05-.0004-.075-.0006-.3825-.0032-.7562-.0079-1.0817-.0424-.3199-.034-.6352-.1003-.8797-.2537-.2676-.1679-.4313-.4288-.4468-.781-.0016-.0364-.0034-.0763-.0054-.1191-.018-.3881-.0474-1.0228-.0045-1.5733.0235-.3015.0706-.61.17-.846.05-.1186.1232-.2436.236-.3357.1227-.1003.277-.1484.4458-.1255.3384.046.727.1152 1.057.1761.0848.0156.1648.0305.2388.0443.2219.0413.3905.0727.4725.0837.155.0208.275.0068.365-.0613.087-.0656.218-.2371.262-.7004-.013-.176-.006-.3372-.001-.4672.001-.014.001-.0276.002-.0408.006-.1554.006-.2444-.011-.3116-.012-.048-.032-.0848-.092-.1262zm3.937 9.6134c.003.0075.005.0152.006.023 0-.0001 0-.0004 0-.0007 0-.0026-.002-.0106-.006-.0223z" style="fill-rule:evenodd;clip-rule:evenodd;fill:#000;stroke:#000;stroke-width:.3;stroke-linecap:round"/><path d="m105.425 90.3987c-.014.1689-.162.2945-.331.2806-.116-.0096-.234-.0193-.353-.0292-3.336-.2751-8.1562-.6726-12.5042-1.2253-.1681-.0213-.287-.1749-.2656-.343.0213-.1681.1749-.2871.343-.2657 4.3342.5509 9.1428.9475 12.4798 1.2227.119.0098.236.0194.351.0289.169.014.294.1622.28.331z" style="fill-rule:evenodd;clip-rule:evenodd;fill:#000;stroke:#000;stroke-width:.3;stroke-linecap:round"/></svg>