<svg fill="none" height="316" viewBox="0 0 390 316" width="390" xmlns="http://www.w3.org/2000/svg" xmlns:xlink="http://www.w3.org/1999/xlink"><radialGradient id="a" cx="0" cy="0" gradientTransform="matrix(-.73865289 41.74536556 -91.3665983 -1.61666333 179.859 227.273)" gradientUnits="userSpaceOnUse" r="1"><stop offset="0"/><stop offset="1" stop-color="#3e7bfa" stop-opacity="0"/></radialGradient><path clip-rule="evenodd" d="m90.4576 289.039c-.0992-.204-.0146-.45.1892-.549 13.0552-6.361 24.6342-11.937 35.9552-17.389 18.805-9.057 36.899-17.77 59.869-29.174.203-.101.45-.018.55.185.101.203.018.449-.185.55-22.973 11.405-41.076 20.123-59.885 29.181-11.321 5.452-22.897 11.027-35.9447 17.385-.2037.099-.4494.015-.5487-.189z" fill="#9293ab" fill-rule="evenodd"/><path clip-rule="evenodd" d="m109.037 270.212c-.093-.207-.001-.45.206-.543 19.098-8.573 32.338-14.787 51.719-23.883 2.137-1.002 4.347-2.04 6.649-3.12.205-.096.45-.008.546.197.096.206.008.45-.197.546-2.302 1.08-4.513 2.118-6.649 3.12-19.381 9.096-32.627 15.313-51.732 23.889-.206.093-.449.001-.542-.206z" fill="#9293ab" fill-rule="evenodd"/><path clip-rule="evenodd" d="m214.983 232.945c-.105-.201-.027-.448.174-.553 8.775-4.577 17.463-9.307 26.159-14.042l.426-.232c.199-.108.448-.035.557.164.108.199.035.449-.164.557l-.43.234c-8.694 4.733-17.387 9.466-26.168 14.047-.201.104-.449.026-.554-.175z" fill="#9293ab" fill-rule="evenodd"/><path clip-rule="evenodd" d="m215.63 222.225c-.105-.201-.028-.448.173-.554 19.409-10.16 38.936-20.075 58.546-29.837.203-.101.449-.018.55.185.101.202.018.449-.185.55-19.606 9.76-39.127 19.673-58.53 29.83-.201.105-.449.027-.554-.174z" fill="#9293ab" fill-rule="evenodd"/><path clip-rule="evenodd" d="m247.29 199.941c-.104-.202-.024-.449.178-.553 2.648-1.355 5.299-2.72 7.951-4.085 2.84-1.463 5.681-2.926 8.519-4.378.202-.103.449-.023.552.179.104.202.024.449-.178.552-2.845 1.456-5.68 2.915-8.515 4.375-2.648 1.363-5.297 2.727-7.955 4.088-.202.103-.449.023-.552-.178z" fill="#9293ab" fill-rule="evenodd"/><path d="m334.504 222.762c0 42.204-74.882 76.417-167.252 76.417-92.3708 0-167.252-34.213-167.252-76.417 0-42.203 74.8812-76.416 167.252-76.416 92.37 0 167.252 34.213 167.252 76.416z" fill="url(#a)" fill-opacity=".07"/><path d="m57.7086 261.672-16.5414-6.107c-18.2467 5.926-38.24637-11.548-24.7187-18.321 29.1304-14.585 39.6213 4.174 38.6775 7.561-.755 2.709-4.0765 7.896-7.8517 9.025z" fill="#fff"/><path clip-rule="evenodd" d="m44.9944 252.454c-.1175.194-.0558.447.138.564 2.3479 1.425 4.6443 2.867 6.8434 4.49 1.0407.767 2.8005 2.12 3.839 2.969.0086.007.0174.014.0264.021-.354-.134-.7504-.311-1.1531-.506-.8242-.398-1.6328-.847-2.1169-1.116-.1455-.081-.2616-.146-.3401-.187-2.7906-1.493-6.2447-3.338-9.405-4.128-.2199-.055-.4427.078-.4977.298-.0549.22.0788.443.2986.498 3.0427.76 6.4033 2.55 9.217 4.055.0669.036.1722.095.3073.17.4779.265 1.3293.738 2.1799 1.149.5465.264 1.1104.511 1.5925.666.2403.078.4747.137.6847.161.195.021.44.021.6476-.094.101-.056.233-.161.2828-.342.0501-.183-.0123-.338-.0667-.428-.0972-.162-.2713-.291-.3929-.374-.1178-.081-.2539-.164-.374-.237-.0203-.012-.0403-.024-.0595-.036-.1449-.088-.2494-.154-.3111-.205-1.0517-.86-2.8229-2.221-3.8716-2.995-2.2298-1.645-4.552-3.103-6.9048-4.531-.1938-.117-.4462-.055-.5638.138z" fill="#000" fill-rule="evenodd"/><path clip-rule="evenodd" d="m51.3863 236.669c-4.372-4.497-10.796-5.361-16.5884-5.361-4.2428 0-11.7766 1.041-17.1366 3.72-2.6773 1.338-4.882 3.119-5.8085 5.452-.9388 2.364-.5231 5.177 1.7871 8.459 3.6736 5.221 9.5037 7.709 15.6589 8.325 6.1531.616 12.6748-.631 17.8145-2.931 2.2181-.992 4.4242-2.309 5.9657-4.079 1.5542-1.785 2.429-4.029 1.964-6.819-.2808-1.685-.9785-3.058-1.9323-4.211-.3826-.899-.9507-1.759-1.7244-2.555zm2.3242 5.088c.055.847-.023 1.705-.2198 2.558-.0509.221-.2713.359-.4921.308-.2209-.051-.3586-.272-.3076-.492.3516-1.524.2877-3.053-.2903-4.477-1.6035-1.888-4.0029-3.177-6.4678-4.368-4.8735-2.354-8.9735-2.903-14.3051-2.504-.226.017-.4229-.153-.4398-.379-.002-.026-.0014-.052.0014-.077-4.0874.41-9.2432 1.478-13.1612 3.436-2.6069 1.303-4.596 2.965-5.4126 5.021-.8045 2.025-.5128 4.546 1.6955 7.684 3.4962 4.968 9.0717 7.38 15.0695 7.981 5.9999.6 12.3784-.618 17.3976-2.864 2.171-.971 4.2533-2.229 5.6819-3.869 1.4159-1.626 2.1927-3.629 1.7733-6.145-.1087-.653-.2863-1.254-.5229-1.813zm-12.8723-9.207c1.7774.433 3.5595 1.083 5.4518 1.997 1.3557.655 2.7495 1.363 4.0195 2.216-2.622-2.443-5.9605-3.656-9.4713-4.213z" fill="#000" fill-rule="evenodd"/><path clip-rule="evenodd" d="m44.8268 243.327c.0596.108.1063.228.134.344.0448.188.0277.311.0039.363-.0085.018-.0148.022-.0171.024 0 0-.0001 0-.0002 0-.0034.002-.0275.016-.0928.016.0003 0 .0003 0 0 0-.0018 0-.0125-.001-.0341-.005-.0242-.004-.0558-.01-.0945-.021-.0778-.02-.1739-.052-.2811-.093-.0694-.027-.1413-.058-.2137-.091.1955-.128.3943-.308.5956-.537zm-.9307-.234c-.0261.001-.0546.004-.085.007-.077.01-.1545.026-.2238.046-.0213.05-.0246.097-.0193.126h.0035c.0435-.007.1365-.037.2786-.143.015-.011.0303-.023.046-.036zm-.8216-.627c-.0844.042-.1693.096-.2377.164-.1377.138-.2345.307-.2598.504-.0249.193.0253.369.1009.513.1432.273.4093.494.6572.657.2591.171.5524.314.8115.415.2411.094.5114.175.708.175.1868 0 .3658-.041.5217-.137.1572-.096.2665-.232.3349-.382.1305-.286.1141-.617.048-.894-.0684-.287-.2039-.578-.3858-.815-.1772-.232-.4327-.456-.7571-.528-.6129-.137-1.1144-.033-1.4566.25-.03.025-.0584.051-.0852.078z" fill="#000" fill-rule="evenodd"/><path clip-rule="evenodd" d="m36.0823 242.434c-.4386-.068-.8944-.034-1.261.027-.2164.036-.5022.123-.6394.383-.1534.291-.0113.565.0844.7.0971.137.239.268.3981.385.0306.147.0761.298.1375.447-.0207.076-.02.158.0067.238.0433.13.1455.224.267.262.1618.229.3689.439.6251.606.2567.168.7217.335 1.1669.417.2281.042.473.066.7028.05.2217-.015.4796-.071.6844-.235.1357-.109.1947-.254.2172-.375.0218-.117.0141-.233-.0008-.33-.03-.195-.1043-.406-.1806-.59-.0784-.19-.1696-.377-.2464-.529-.0348-.069-.0645-.126-.0893-.174-.0344-.067-.0593-.116-.0748-.149-.1199-.26-.3541-.387-.5535-.451-.0074-.01-.015-.02-.0226-.029-.3168-.408-.7855-.585-1.2217-.653zm1.2328 1.833c.0726.144.1514.307.217.465.0631.153.1056.282.1236.377-.0348.009-.0812.017-.1417.021-.1396.01-.312-.004-.498-.038-.3828-.071-.7324-.209-.8661-.297-.0289-.018-.0569-.038-.0839-.059.2045-.036.4274-.08.6292-.142.1335-.041.2712-.093.3953-.163.0749-.042.1534-.096.2246-.164z" fill="#000" fill-rule="evenodd"/><path clip-rule="evenodd" d="m26.5212 243.385c-.0777.013-.1554.027-.2317.04-.1163.02-.2127.087-.2731.178-.549-.128-1.069-.042-1.4296.2-.3225.218-.5597.614-.3948 1.07.1448.401.5565.699 1.1148.906.0828.03.1636.058.2427.084.3095.184.6851.274 1.0151.291.2122.01.4315-.009.628-.07.0014 0 .0029 0 .0043-.001.0209-.001.0418-.003.0628-.004-.0151.146.0495.296.1806.384.1886.125.4434.074.5691-.114.0891-.134.1586-.268.2095-.402.0901-.016.1817-.033.2754-.05.0157-.003.0314-.006.0472-.008.1826-.034.3718-.088.5198-.202.1791-.138.26-.331.2551-.535-.004-.167-.0655-.325-.1181-.444-.0418-.095-.096-.202-.1496-.308-.0168-.033-.0336-.066-.0499-.099-.1503-.301-.3263-.539-.5415-.711-.2198-.176-.4596-.267-.7087-.303-.241-.035-.4865-.018-.7217.014-.1587.021-.3323.052-.5057.084zm1.117.715c.2617.201.4851.468.6021.797.0235.066.0423.134.0561.202.0313-.006.0631-.012.0954-.017l.0029-.001c.0249-.005.0464-.009.065-.013-.0036-.009-.0076-.018-.012-.028-.0325-.074-.0727-.153-.123-.253-.0186-.037-.0386-.076-.06-.119-.1145-.229-.2239-.36-.3207-.437-.0905-.073-.1871-.113-.3058-.131zm-1.7365 1.013c-.0134-.009-.0261-.019-.0381-.03-.0723-.062-.1004-.117-.1095-.16-.0084-.041-.0101-.118.0579-.246.0469-.089.1308-.16.265-.196.1887.077.3881.199.5875.38.2127.193.3038.329.3369.406l.0012.003c-.0161 0-.0321.001-.0481.001-.3261.003-.6558-.038-1.0528-.158zm-.9358-.514c.0053-.021.0113-.041.0178-.062-.0126.014-.0186.025-.0211.031l-.0003.001c-.0023.005-.0041.009.0017.025.0005.002.0011.003.0019.005z" fill="#000" fill-rule="evenodd"/><path clip-rule="evenodd" d="m335.642 124.682c1.437 2.966 4.493 4.108 7.778 4.946.219.056.352.279.296.499-.056.219-.279.352-.499.296-3.281-.837-6.698-2.048-8.314-5.383-.824-1.701-.855-3.543-.769-5.333.017-.368.039-.733.061-1.095.088-1.428.172-2.806-.048-4.136-.211-1.277-.692-2.801-1.462-4.089-.772-1.292-1.803-2.297-3.096-2.637-.22-.058-.351-.283-.293-.502s.282-.35.501-.292c1.582.416 2.763 1.621 3.593 3.01.832 1.392 1.343 3.018 1.567 4.377.236 1.43.144 2.927.056 4.364-.022.351-.043.698-.06 1.039-.084 1.774-.039 3.434.689 4.936z" fill="#000" fill-rule="evenodd"/><path clip-rule="evenodd" d="m344.093 131.24c-.589-.016-2.491-.07-4.27-.218-.998-.082-1.978-.197-2.67-.355-.335-.077-.652-.175-.868-.313-.106-.068-.246-.182-.311-.363-.076-.216-.009-.415.098-.556.427-.564 1.116-.907 1.753-1.161.26-.103.527-.198.777-.287.063-.022.125-.044.185-.066.309-.11.582-.213.811-.323.86-.414 1.632-.902 2.45-1.418.11-.069.22-.139.331-.209.088-.055.179-.103.271-.133s.21-.053.338-.025c.311.066.404.338.431.464.028.131.026.279.025.374v.002.031c-.002.101-.003.167.003.22.139 1.242.61 2.623 1.218 3.692.016.026.058.098.118.198.158.266.435.732.62 1.064.066.119.126.231.171.322.022.044.043.09.059.131.009.021.018.045.026.072.006.02.02.07.022.13 0 .03-.001.091-.027.162-.03.08-.097.18-.223.235-.114.05-.217.036-.27.023-.054-.014-.094-.035-.116-.048-.071-.041-.127-.102-.151-.128-.069-.074-.164-.192-.287-.354-.087-.116-.105-.262-.059-.388-.15-.263-.313-.536-.433-.738-.008-.013-.015-.025-.022-.037zm-.453-.834c-.505-1.048-.882-2.274-1.009-3.411-.007-.068-.009-.14-.009-.207-.045.029-.09.057-.134.085-.814.514-1.629 1.029-2.534 1.465-.272.13-.582.246-.89.356-.065.023-.13.046-.195.069-.249.088-.496.176-.739.273-.513.205-.941.426-1.233.705.105.039.251.082.44.126.631.145 1.561.255 2.554.337 1.416.118 2.914.175 3.749.202zm-6.934-.759s.001.001.003.003c-.002-.002-.003-.003-.003-.003zm8.803 2.566s-.001-.001-.003-.003c.002.002.003.003.003.003z" fill="#000" fill-rule="evenodd"/><path clip-rule="evenodd" d="m174.838 50.3465c-.599 3.2405 1.187 5.9712 3.337 8.592.144.1752.118.4338-.057.5776s-.434.1183-.578-.057c-2.147-2.6177-4.183-5.6176-3.509-9.2618.344-1.8587 1.41-3.3607 2.539-4.7521.233-.2863.467-.5671.699-.8455.916-1.0988 1.8-2.1592 2.411-3.3607.587-1.154 1.102-2.6671 1.245-4.1606.143-1.498-.092-2.9191-.933-3.9594-.142-.1763-.114-.4346.062-.5771.176-.1424.435-.1149.577.0614 1.028 1.2725 1.265 2.9427 1.111 4.5532-.154 1.6149-.706 3.2274-1.33 4.4546-.658 1.2924-1.618 2.4436-2.541 3.5488-.225.2698-.448.5368-.663.8024-1.119 1.3787-2.066 2.7432-2.37 4.3842z" fill="#000" fill-rule="evenodd"/><path clip-rule="evenodd" d="m177.762 60.6365c-.465-.3613-1.966-1.5318-3.311-2.7046-.755-.6576-1.477-1.3303-1.94-1.868-.225-.2606-.422-.5276-.515-.7665-.045-.1168-.091-.2921-.034-.4764.066-.2186.238-.3396.407-.3899.679-.2018 1.436-.0696 2.101.1033.27.0703.541.1521.796.229.063.0192.126.0381.188.0565.313.0938.595.1732.844.2201.938.1758 1.85.2404 2.815.3088.129.0091.258.0183.389.0279.104.0075.205.0231.298.0533.092.0297.2.082.287.1798.211.2374.125.5123.073.6292-.055.1224-.145.2403-.202.3165l-.001.0011c-.007.0087-.013.0171-.019.0252-.061.0801-.101.1327-.127.1789-.625 1.0835-1.063 2.4747-1.206 3.6961-.004.0304-.012.1136-.023.2292-.03.3086-.083.8473-.131 1.2247-.017.135-.035.2608-.053.3602-.008.0492-.018.0982-.029.1414-.006.0214-.013.047-.022.0731-.008.0199-.025.068-.06.1177-.017.0246-.054.0732-.118.1145-.071.0464-.185.0875-.318.0577-.122-.0273-.196-.0999-.231-.1418-.036-.043-.055-.0841-.065-.1069-.033-.0757-.042-.1578-.046-.1934-.012-.1002-.018-.2517-.021-.4552-.003-.1445.07-.2727.182-.3475.034-.3005.065-.6166.088-.8508.001-.0147.002-.0291.004-.0432zm.129-.9402c.214-1.1436.637-2.3536 1.208-3.3454.034-.0587.076-.1183.115-.1721-.053-.0037-.106-.0075-.158-.0112-.961-.0679-1.922-.1358-2.909-.321-.297-.0556-.615-.1466-.928-.2403-.066-.0197-.132-.0396-.198-.0594-.253-.0764-.504-.1522-.758-.2181-.534-.1389-1.01-.2141-1.411-.1628.062.0945.154.2153.281.3622.422.4903 1.106 1.1306 1.857 1.785 1.071.9337 2.244 1.8671 2.901 2.3831zm-5.137-4.7185c.001 0 .001.0014.001.004 0-.0028-.001-.004-.001-.004zm5.573 7.2819c0 .0001 0-.0013-.001-.0046.001.0029.001.0045.001.0046z" fill="#000" fill-rule="evenodd"/><path d="m271.958 99.9217c0 .1623-.074.3083-.222.4383-.149.129-.313.194-.494.194-.033 0-.083-.016-.149-.048-.066-.049-.115-.09-.148-.122-.692-.6488-1.424-1.2895-2.198-1.9221s-1.556-1.2814-2.347-1.9465c-.79-.665-1.573-1.3625-2.347-2.0924-.757-.73-1.473-1.5248-2.149-2.3845.215.876.503 1.8086.865 2.7981.362.9732.708 1.8897 1.037 2.7494.346.8597.643 1.6058.89 2.2384.247.6166.37 1.0056.37 1.1676 0 .195-.082.349-.247.463-.148.129-.304.194-.469.194-.099 0-.206-.105-.321-.316-.115-.195-.247-.454-.395-.779-.132-.324-.272-.6809-.42-1.0702-.132-.4055-.264-.8029-.396-1.1922-.131-.4055-.255-.7786-.37-1.1193-.115-.3568-.206-.6488-.272-.8759l-.667-1.9708c-.148-.4217-.296-.8515-.444-1.2895-.149-.4542-.289-.8759-.42-1.2652-.116-.3893-.214-.7299-.297-1.0219-.066-.292-.098-.4866-.098-.5839 0-.1785.024-.3569.074-.5353.049-.1946.14-.292.271-.292.083 0 .14.0244.173.073.033.0325.066.0487.099.0487l.296-.1217c.083 0 .223.1055.42.3163.214.1947.453.4542.717.7786.28.3244.576.6894.889 1.0949s.626.8029.939 1.1922c.329.3893.634.7543.914 1.0949.296.3406.559.6083.79.8029.362.3244.725.6326 1.087.9246s.724.592 1.087.9002c.378.292.774.6083 1.185.9489.412.3407.865.73 1.359 1.1679.016.0162.058.0243.123.0243.033 0 .05-.0405.05-.1216s0-.1784 0-.292c0-.2271-.066-.6326-.198-1.2165-.132-.6002-.321-1.2896-.568-2.0681-.23-.7949-.502-1.6383-.815-2.5305-.313-.9083-.651-1.7761-1.013-2.6033-.346-.8435-.716-1.6059-1.111-2.2871-.379-.6813-.75-1.2085-1.112-1.5815-.099-.0974-.173-.2434-.222-.438-.033-.1946-.05-.3569-.05-.4866 0-.1136.074-.2352.223-.365.164-.146.313-.219.444-.219.198 0 .42.1947.667.584s.511.9002.791 1.5328c.28.6164.56 1.3139.839 2.0925.297.7786.585 1.5653.865 2.3601.329.9408.634 1.8734.914 2.798.296.9084.552 1.7599.766 2.5547.23.7948.411 1.5086.543 2.1412.148.6326.239 1.1273.272 1.4841z" fill="#000"/><path d="m279.804 98.3159c.017.0324.025.0811.025.146 0 .0973-.074.2433-.222.4379-.05.0649-.157.1704-.321.3163-.165.146-.387.292-.667.438s-.626.2757-1.038.3889c-.395.114-.864.171-1.408.171-.379 0-.749-.081-1.111-.2436-.363-.1784-.684-.4299-.964-.7543-.28-.3406-.51-.7542-.691-1.2408-.181-.5029-.272-1.0868-.272-1.7519 0-.6326.082-1.2246.247-1.7761s.371-1.0381.618-1.4599c.263-.4217.551-.7542.864-.9975s.618-.365.914-.365c.264 0 .527.0568.79.1703.28.0974.527.2271.741.3893.231.1622.412.3488.544.5596.132.1947.198.3974.198.6083 0 .2433-.116.4947-.346.7543-.214.2595-.478.5028-.791.7299-.313.2109-.625.3893-.938.5353-.313.1297-.56.1946-.741.1946-.099 0-.19-.0405-.272-.1216-.066-.0974-.099-.2109-.099-.3407 0-.2271.099-.4055.296-.5352.215-.1298.445-.2434.692-.3407.247-.1135.469-.2433.667-.3893.214-.146.321-.3487.321-.6082 0-.0325-.041-.1136-.123-.2434-.083-.1297-.305-.1946-.667-.1946-.165 0-.354.0973-.568.292-.214.1784-.42.4298-.618.7542-.198.3082-.362.6813-.494 1.1192-.132.4218-.198.8841-.198 1.3869 0 .4217.075.8029.223 1.1435.164.3407.37.6327.617.876.247.227.535.4055.865.5352.329.1298.667.1947 1.013.1947.247 0 .51-.0487.79-.146.296-.1135.568-.2271.815-.3406.264-.1298.486-.2433.667-.3407.198-.1135.321-.1703.371-.1703.049 0 .098.0244.148.073.066.0487.107.0973.123.146z" fill="#000"/><path d="m289.009 90.1651c.066.0162.099.0649.099.146 0 .1135-.058.2352-.173.3649-.116.1136-.173.2433-.173.3893 0 .0325-.008.1541-.025.365v.7056c0 .2595-.008.5028-.025.7299v.3893 2.4087c0 .0163-.008.1298-.024.3407-.017.2108-.05.4623-.099.7542-.033.292-.074.6002-.124.9246-.033.3082-.074.5758-.123.8029-.017.0649-.066.1136-.148.146-.066.0324-.149.0649-.247.0973-.083.0162-.165.0325-.247.0487-.083 0-.132 0-.149 0-.181 0-.378-.1054-.592-.3163-.198-.2109-.387-.4461-.569-.7056-.181-.2595-.337-.5028-.469-.7299s-.206-.3569-.222-.3893c-.066.2271-.14.4623-.223.7056-.082.2271-.172.4379-.271.6326-.099.1946-.214.3568-.346.4866-.115.1297-.247.1946-.395.1946-.198 0-.404-.0973-.618-.2919-.214-.1947-.436-.4461-.667-.7543-.214-.3082-.42-.6488-.617-1.0219-.198-.3893-.371-.7624-.519-1.1192-.148-.3569-.272-.6894-.37-.9976-.083-.3082-.124-.5515-.124-.7299 0-.0649.033-.146.099-.2433s.156-.146.272-.146c.23 0 .395.073.494.219.016.0162.065.1622.148.4379.099.2758.23.6002.395.9733.165.373.354.7623.568 1.1679.231.3892.486.7218.766.9975.115-.2108.206-.446.272-.7056.082-.2595.148-.5109.197-.7542.05-.2433.083-.4623.099-.657.016-.2108.025-.3811.025-.5109-.033-.1298-.058-.2595-.074-.3893-.017-.1135-.033-.2271-.05-.3406 0-.1136 0-.2109 0-.292 0-.4055.165-.6083.494-.6083.247 0 .437.0811.568.2433.132.146.231.3244.297.5353.066.1947.107.3893.123.584.033.1946.066.3325.099.4136.132.373.247.7218.346 1.0462.115.3244.305.6569.568.9976.066-.0487.115-.1298.148-.2433.05-.1298.083-.2596.099-.3893.016-.1298.025-.2433.025-.3407 0-.1135 0-.1946 0-.2433v-4.8418c0-.0973.041-.1865.123-.2676.083-.0812.181-.1541.297-.219.115-.0649.222-.1136.321-.146.115-.0487.197-.073.247-.073.082 0 .156.0243.222.073.082.0487.173.0973.272.146z" fill="#000"/><path d="m309.406 83.4254c.017.0325.025.0893.025.1704v.2676c0 .1135-.041.1703-.123.1703-.033 0-.074-.0081-.124-.0243-.049-.0162-.09-.0325-.123-.0487-.297-.1297-.659-.292-1.087-.4866-.412-.2109-.881-.3163-1.408-.3163-.593 0-1.071.219-1.433.6569-.362.438-.642.9489-.84 1.5329-.181.5677-.304 1.1273-.37 1.6788-.05.5515-.074.9489-.074 1.1922 0 .1784.024.4623.074.8516.066.3731.148.7624.247 1.1679s.214.7786.346 1.1192c.131.3244.263.5272.395.6083.099 0 .272-.0082.519-.0244.263-.0162.477-.0243.642-.0243.28 0 .543.0243.79.073.247.0486.503.073.766.073h.296c.132 0 .264.0081.396.0243.148.0162.271.0487.37.0973.099.0325.148.0811.148.146 0 .0811-.057.1541-.173.219-.115.0649-.247.1216-.395.1703-.148.0325-.296.0568-.444.073-.149.0162-.264.0243-.346.0243-.083 0-.19 0-.321 0-.132-.0162-.28-.0324-.445-.0486-.148-.0162-.296-.0244-.445-.0244-.131-.0162-.247-.0243-.345-.0243-.264 0-.429.0325-.494.0973-.05.0487-.075.1541-.075.3163 0 .2433.108.5759.322.9976.23.4055.477.8435.741 1.3139.263.4704.502.957.716 1.4598.231.5028.346.9651.346 1.3869 0 .0811-.025.2352-.074.4623-.033.2108-.091.4298-.173.6569-.066.2271-.165.4298-.297.6082-.131.178-.28.268-.444.268-.132 0-.255-.033-.371-.098-.099-.081-.148-.2105-.148-.3889 0-.2596.066-.5029.198-.7299.148-.2271.222-.4704.222-.73 0-.1297-.066-.3487-.198-.6569-.115-.3082-.263-.6488-.444-1.0219-.181-.3893-.379-.7948-.593-1.2165-.214-.4218-.42-.803-.618-1.1436-.181-.3568-.337-.6488-.469-.8759s-.206-.3487-.222-.365c-.33.1136-.667.2271-1.013.3407-.346.1135-.659.2838-.939.5109-.115.1136-.222.1703-.321.1703-.164 0-.321-.0648-.469-.1946-.132-.1298-.198-.2758-.198-.438 0-.1784.05-.3163.149-.4136.115-.1135.222-.1946.321-.2433.148-.0811.378-.1703.691-.2676.313-.0974.626-.1785.939-.2433.115-.0325.222-.0568.321-.073.099-.0325.148-.0892.148-.1704-.049-.1622-.123-.373-.222-.6326-.082-.2757-.173-.6001-.272-.9732-.082-.3731-.156-.7867-.222-1.2409-.066-.4704-.099-.9732-.099-1.5085 0-.5839.066-1.2003.198-1.8491.148-.6488.37-1.2409.667-1.7762.312-.5515.699-.9975 1.161-1.3382.461-.3568 1.012-.5352 1.655-.5352.296 0 .625.0324.988.0973.362.0487.691.1298.988.2433.313.0973.568.2271.765.3893.214.146.321.3163.321.5109z" fill="#000"/><path d="m317.845 98.3159c.016.0324.025.0811.025.146 0 .0973-.074.2433-.223.4379-.049.0649-.156.1704-.321.3163-.164.146-.387.292-.667.438s-.625.2757-1.037.3889c-.395.114-.865.171-1.408.171-.379 0-.749-.081-1.112-.2436-.362-.1784-.683-.4299-.963-.7543-.28-.3406-.51-.7542-.692-1.2408-.181-.5029-.271-1.0868-.271-1.7519 0-.6326.082-1.2246.247-1.7761.164-.5515.37-1.0381.617-1.4599.264-.4217.552-.7542.865-.9975s.617-.365.914-.365c.263 0 .527.0568.79.1703.28.0974.527.2271.741.3893.231.1622.412.3488.544.5596.131.1947.197.3974.197.6083 0 .2433-.115.4947-.346.7543-.214.2595-.477.5028-.79.7299-.313.2109-.626.3893-.939.5353-.313.1297-.56.1946-.741.1946-.099 0-.189-.0405-.271-.1216-.066-.0974-.099-.2109-.099-.3407 0-.2271.099-.4055.296-.5352.214-.1298.445-.2434.692-.3407.247-.1135.469-.2433.667-.3893.214-.146.321-.3487.321-.6082 0-.0325-.041-.1136-.124-.2434-.082-.1297-.304-.1946-.667-.1946-.164 0-.354.0973-.568.292-.214.1784-.42.4298-.617.7542-.198.3082-.363.6813-.494 1.1192-.132.4218-.198.8841-.198 1.3869 0 .4217.074.8029.222 1.1435.165.3407.371.6327.618.876.247.227.535.4055.865.5352.329.1298.666.1947 1.012.1947.247 0 .511-.0487.791-.146.296-.1135.568-.2271.815-.3406.263-.1298.486-.2433.667-.3407.197-.1135.321-.1703.37-.1703.05 0 .099.0244.148.073.066.0487.108.0973.124.146z" fill="#000"/><path d="m331.323 95.8098c0 .292-.14.657-.42 1.0949-.264.4217-.626.8354-1.087 1.2409s-.996.7542-1.606 1.0462c-.609.2758-1.243.4136-1.902.4136-.296 0-.609-.0486-.938-.146-.33-.0973-.651-.2352-.964-.4136-.312-.1946-.592-.4217-.839-.6812-.247-.2758-.429-.584-.544-.9246-.099.0973-.222.2595-.37.4866-.132.2271-.28.4623-.445.7056-.165.2271-.346.4298-.543.6083-.198.1622-.404.2433-.618.2433s-.395-.1055-.543-.3163c-.132-.2271-.239-.4704-.321-.7299-.083-.2758-.14-.5353-.173-.7786s-.05-.3812-.05-.4137c0-.1946.058-.5596.173-1.0948.115-.5515.288-1.1193.519-1.7032.23-.5839.519-1.103.864-1.5572.363-.4541.783-.6812 1.26-.6812.181 0 .297.0811.346.2433.066.146.099.2919.099.4379v.73c.082.0648.164.1135.247.1459.099.0163.181.0487.247.0974.082.0324.14.0892.173.1703.049.0811.074.2108.074.3893 0 .1135-.008.2189-.025.3163-.016.0811-.025.1622-.025.2433 0 .4217.033.8353.099 1.2408.066.4056.198.7705.395 1.0949.198.3082.47.5678.816.7786.345.1947.806.292 1.383.292.724 0 1.334-.146 1.828-.438.51-.3082.93-.6407 1.259-.9975.346-.3731.618-.7056.816-.9976.197-.3082.362-.4623.494-.4623.214 0 .321.1055.321.3163zm-8.67-1.0705c0-.0649-.017-.1217-.05-.1703-.033-.0649-.049-.1217-.049-.1704 0-.0648.016-.1216.049-.1703.033-.0486.05-.1135.05-.1946 0-.0487-.017-.0811-.05-.0974-.033-.0324-.049-.0648-.049-.0973-.148.0325-.305.1703-.469.4137-.149.2433-.297.5271-.445.8515-.132.3244-.239.657-.321.9976-.083.3244-.124.592-.124.8029 0 .1136.033.3001.099.5596s.14.4299.222.511c.28-.5678.536-1.1193.766-1.6545.247-.5353.371-1.0625.371-1.5815z" fill="#000"/><path d="m338.172 89.8731c-.214.2433-.518.4866-.913.7299-.396.2271-.791.438-1.186.6326-.395.1947-.741.365-1.038.511-.296.1297-.444.219-.444.2676 0 .0487.033.1947.099.438.065.2433.14.5352.222.8759.099.3244.198.665.296 1.0219.099.3568.181.6731.247.9489.033.1622.074.373.124.6326.049.2595.09.519.123.7786.05.2595.091.4947.124.7056.033.1946.049.3.049.3163 0 .2433-.041.4947-.123.7542-.083.2595-.214.3893-.395.3893-.099 0-.19-.0405-.272-.1216-.082-.0812-.157-.1704-.222-.2677-.066-.1135-.116-.219-.149-.3163s-.049-.1703-.049-.219c0-.0324 0-.0811 0-.1459.016-.0649.025-.1379.025-.219 0-.3082-.05-.7543-.149-1.3382-.033-.1784-.098-.4542-.197-.8273-.099-.373-.198-.7542-.297-1.1435-.115-.4542-.247-.9489-.395-1.4842-.066-.2271-.107-.3406-.123-.3406-.116 0-.313.073-.593.2189-.264.1298-.568.3001-.914.511-.346.1946-.708.4136-1.087.6569-.379.2271-.733.4461-1.062.657-.329.1946-.609.3649-.84.5109-.247.1298-.395.1947-.445.1947-.214 0-.387-.073-.518-.219-.132-.146-.198-.3082-.198-.4866 0-.0974.14-.2352.42-.4137.264-.1946.601-.4055 1.013-.6326.395-.2271.831-.4623 1.309-.7056.461-.2433.889-.4622 1.284-.6569.412-.1946.75-.3568 1.013-.4866.28-.1298.42-.1947.42-.1947-.148-.7461-.272-1.4111-.37-1.9951-.083-.5028-.165-.9651-.247-1.3868-.066-.4218-.099-.6489-.099-.6813 0-.2109.041-.365.123-.4623.099-.1135.206-.1703.321-.1703.181 0 .297.1217.346.365.181.8759.346 1.6545.494 2.3357.165.6813.321 1.2328.47 1.6545.148-.0324.403-.1216.765-.2676.363-.1622.741-.3325 1.137-.511.395-.1784.749-.3325 1.062-.4623.329-.1459.518-.2189.568-.2189.099 0 .156.0324.173.0973.033.0649.066.1216.098.1703z" fill="#000"/><path d="m347.641 96.8317c0 .146-.098.3001-.296.4623s-.428.3163-.692.4623c-.263.1298-.535.2433-.815.3406-.263.0973-.461.146-.593.146-.148 0-.313-.0405-.494-.1216-.164-.0812-.329-.1785-.494-.292-.148-.1136-.28-.219-.395-.3163s-.189-.1622-.222-.1947c-.05.0487-.124.146-.223.292-.098.146-.222.3082-.37.4866-.132.1622-.28.3082-.445.438-.148.1297-.304.1946-.469.1946-.428 0-.799-.2271-1.112-.6812-.312-.4542-.576-.9733-.79-1.5572-.198-.584-.354-1.1436-.469-1.6788-.099-.5515-.149-.9246-.149-1.1193 0-.1135.058-.2027.173-.2676.132-.0811.231-.1217.297-.1217.23 0 .387.0812.469.2434.082.1459.124.3081.124.4866 0 .146.041.4055.123.7786.099.373.214.7542.346 1.1435s.272.738.42 1.0462c.148.292.28.438.395.438.214 0 .395-.1298.543-.3893.165-.2758.297-.5839.396-.9246.098-.3568.173-.6893.222-.9975.049-.3245.074-.5353.074-.6326 0-.0163 0-.0649 0-.146.017-.0973.033-.1947.05-.292.016-.0973.024-.1865.024-.2676.017-.0811.025-.1379.025-.1703 0-.1136-.025-.1866-.074-.219-.05-.0487-.074-.1379-.074-.2677 0-.0973.049-.1865.148-.2676.099-.0973.313-.146.642-.146.132 0 .231.0406.297.1217.082.0648.14.1459.172.2433.033.0973.05.1946.05.2919.016.0811.025.1379.025.1704 0 .0162-.009.1297-.025.3406-.017.2109-.033.4461-.05.7056 0 .2433-.008.4785-.024.7056-.017.2271-.025.3649-.025.4136s.025.146.074.292c.05.146.107.3001.173.4623.082.1459.173.2838.272.4136.099.1135.206.1703.321.1703.198 0 .379-.0243.543-.073.181-.0649.346-.1298.494-.1946.165-.0811.313-.146.445-.1947.132-.0649.255-.0973.37-.0973.149 0 .28.0324.396.0973.131.0649.197.146.197.2433z" fill="#000"/><path d="m354.462 93.4497c0 .1136-.049.2109-.148.292-.099.0649-.214.1217-.346.1703-.131.0487-.263.0892-.395.1217-.132.0162-.239.0243-.321.0243-.247 0-.412-.0162-.494-.0487-.082-.0324-.148-.0486-.198-.0486-.411 0-.741.0324-.988.0973s-.444.1703-.593.3163c-.131.146-.222.3325-.271.5596-.033.2109-.05.4704-.05.7786 0 .5191.017.9327.05 1.2409.049.3082.09.5596.123.7542.05.1947.091.3488.124.4623.049.0973.074.1947.074.292 0 .1297-.074.2676-.222.4136-.132.146-.256.219-.371.219-.198 0-.379-.1703-.543-.511-.149-.3568-.28-.7704-.396-1.2408-.098-.4867-.181-.9652-.247-1.4356-.066-.4703-.098-.8272-.098-1.0705 0-.2758.024-.5353.074-.7786.049-.2595.115-.4785.197-.6569.083-.1947.173-.3488.272-.4623.099-.1136.198-.1703.296-.1703.083 0 .149.0324.198.0973.049.0487.091.1135.123.1946.033.0649.066.1298.099.1947.05.0487.107.073.173.073.148 0 .387-.073.717-.219.329-.146.732-.219 1.21-.219.445 0 .774.0162.988.0487.23.0162.453.0649.667.146.049.0162.107.0567.173.1216.082.0487.123.1298.123.2433z" fill="#000"/><path d="m363.315 98.3159c.017.0324.025.0811.025.146 0 .0973-.074.2433-.222.4379-.05.0649-.157.1704-.321.3163-.165.146-.387.292-.667.438s-.626.2757-1.038.3889c-.395.114-.864.171-1.408.171-.378 0-.749-.081-1.111-.2436-.363-.1784-.684-.4299-.964-.7543-.28-.3406-.51-.7542-.691-1.2408-.181-.5029-.272-1.0868-.272-1.7519 0-.6326.082-1.2246.247-1.7761s.371-1.0381.618-1.4599c.263-.4217.551-.7542.864-.9975s.618-.365.914-.365c.264 0 .527.0568.79.1703.28.0974.527.2271.742.3893.23.1622.411.3488.543.5596.132.1947.198.3974.198.6083 0 .2433-.116.4947-.346.7543-.214.2595-.478.5028-.791.7299-.313.2109-.625.3893-.938.5353-.313.1297-.56.1946-.741.1946-.099 0-.19-.0405-.272-.1216-.066-.0974-.099-.2109-.099-.3407 0-.2271.099-.4055.297-.5352.214-.1298.444-.2434.691-.3407.247-.1135.469-.2433.667-.3893.214-.146.321-.3487.321-.6082 0-.0325-.041-.1136-.123-.2434-.083-.1297-.305-.1946-.667-.1946-.165 0-.354.0973-.568.292-.214.1784-.42.4298-.618.7542-.198.3082-.362.6813-.494 1.1192-.132.4218-.198.8841-.198 1.3869 0 .4217.075.8029.223 1.1435.164.3407.37.6327.617.876.247.227.535.4055.865.5352.329.1298.667.1947 1.013.1947.247 0 .51-.0487.79-.146.296-.1135.568-.2271.815-.3406.264-.1298.486-.2433.667-.3407.198-.1135.321-.1703.371-.1703.049 0 .098.0244.148.073.066.0487.107.0973.123.146z" fill="#000"/><path d="m126.511 15.1083c0 .7275-.131 1.3015-.393 1.7218-.263.4042-.649.7841-1.157 1.1398-.132.0808-.312.1778-.542.291s-.484.2183-.763.3153-.574.1778-.886.2425-.599.097-.862.097c-.738 0-1.296-.0808-1.674-.2425-.377-.1455-.566-.3234-.566-.5335 0-.2264.066-.4123.197-.5578s.246-.2264.345-.2425l.27.194c.082.0808.197.1697.345.2667.148.0809.386.1213.714.1213.312 0 .689-.0485 1.132-.1455.443-.1132.862-.2748 1.256-.485.41-.2264.755-.5012 1.034-.8245.295-.3234.443-.6952.443-1.1156 0-.3718-.288-.7113-.862-1.0185-.558-.3234-1.444-.5416-2.659-.6548-.623-.0485-1.239-.1213-1.846-.2183-.607-.1131-1.157-.2586-1.649-.4365-.476-.194-.862-.4284-1.157-.7033-.295-.291-.443-.6466-.443-1.067 0-.4042.115-.7922.344-1.164.23-.37188.509-.71139.837-1.01857.345-.32335.698-.60627 1.059-.84878s.665-.4446.911-.60627c.197-.11317.468-.25868.812-.43652.361-.19401.739-.37185 1.132-.53352.411-.17784.813-.32334 1.207-.43651.41-.12934.755-.19401 1.034-.19401.328 0 .549.08892.664.26676s.173.42843.173.75178c0 .27484-.033.56585-.099.87303s-.139.60627-.221.89728c-.083.29101-.165.54969-.247.77603-.065.21017-.114.34759-.147.41226-.066.14554-.14.24254-.222.29104s-.139.0727-.172.0727c-.066 0-.099-.0404-.099-.1212 0-.0485.009-.1374.025-.26679.033-.1455.066-.31526.098-.50927.05-.194.082-.40418.099-.63052.033-.22634.049-.45268.049-.67902 0-.35568-.016-.61436-.049-.77603s-.164-.24251-.394-.24251-.542.06467-.935.19401c-.394.11317-.796.25867-1.207.43651-.443.19401-.878.4446-1.304.75178-.411.30718-.78.62244-1.108.94578-.328.32335-.599.63866-.812.94576-.197.291-.296.5255-.296.7033 0 .194.132.3799.394.5578.279.1616.624.3072 1.034.4365.427.1293.894.2425 1.403.3395s1.009.1698 1.502.2183c.41.0485.861.1131 1.354.194.492.0808.951.2101 1.378.388.427.1778.788.4203 1.083.7275.296.291.443.671.443 1.1398z" fill="#000"/><path d="m135.769 11.6162c0 .4203-.123.8245-.37 1.2125-.229.388-.517.7518-.861 1.0913-.345.3234-.722.6305-1.133.9215-.41.2749-.787.5174-1.132.7276-.328.2263-.599.4122-.812.5577-.214.1455-.32.2587-.32.3396 0 .2101.024.5092.074.8972.049.3719.106.7841.172 1.2368.082.4365.156.8892.221 1.3581.082.4688.14.8973.173 1.2853 0 .0161.008.0889.024.2182.033.1294.066.2749.099.4365.049.1617.082.3072.098.4366.033.1455.049.2344.049.2667 0 .1132-.008.2345-.024.3638 0 .1455-.025.2748-.074.388-.033.1293-.09.2344-.172.3153-.082.0808-.189.1212-.32.1212-.181 0-.312-.0808-.394-.2425-.082-.1455-.123-.291-.123-.4365 0-.0323 0-.0647 0-.097.016-.0323.024-.0728.024-.1213 0-.1778-.065-.6547-.197-1.4308-.131-.776-.279-1.7056-.443-2.7888-.164-1.0671-.311-2.2149-.443-3.4436-.131-1.2449-.197-2.4171-.197-3.5164 0-.0809.009-.1698.025-.2668.016-.1132.025-.2102.025-.291-.165.0162-.411.0889-.739.2183-.312.1293-.624.291-.935.485-.312.1778-.591.3718-.837.582-.23.194-.345.3719-.345.5335h-.172c-.05 0-.107-.0323-.173-.097-.082-.0647-.147-.1374-.197-.2182-.065-.0809-.123-.1617-.172-.2425-.049-.0809-.074-.1375-.074-.1698 0-.3395.205-.6548.616-.9458.41-.3072.919-.5739 1.526-.8003.624-.2425 1.305-.4284 2.043-.55774.739-.1455 1.436-.21826 2.093-.21826.64 0 1.173.07276 1.6.21826.443.14554.796.32334 1.058.53354.263.194.451.3961.566.6063.115.2101.173.388.173.5335zm-1.207-.0728c0-.1617-.205-.3233-.615-.485-.41-.1778-.894-.2668-1.452-.2668-.493 0-.854.0162-1.084.0485-.229.0324-.385.0647-.467.097-.033.2587-.058.5659-.074.9216-.017.3557-.025.7194-.025 1.0913 0 .388.008.7679.025 1.1398.033.3556.066.6547.098.8972.23-.1455.542-.3395.936-.582.41-.2587.812-.5416 1.206-.8488.394-.3233.73-.6547 1.009-.9942.296-.3557.443-.6952.443-1.0186z" fill="#000"/><path d="m143.989 16.0783c.017.0324.025.0809.025.1455 0 .097-.074.2426-.222.4366-.049.0646-.155.1697-.32.3152-.164.1455-.385.291-.664.4365s-.624.2749-1.034.388c-.394.1132-.862.1698-1.403.1698-.378 0-.747-.0808-1.108-.2425-.361-.1778-.681-.4284-.96-.7518-.279-.3395-.509-.7518-.689-1.2368-.181-.5012-.271-1.0832-.271-1.746 0-.6306.082-1.2207.246-1.7704.164-.5496.369-1.0347.615-1.455.263-.4204.55-.7518.862-.99429.312-.24251.615-.36377.911-.36377.262 0 .525.05659.788.16976.279.097.525.22634.738.38801.23.16169.41.34759.542.55779.131.194.197.3961.197.6063 0 .2425-.115.4931-.345.7517-.213.2587-.476.5012-.788.7276-.312.2101-.623.388-.935.5335-.312.1293-.558.194-.739.194-.098 0-.188-.0404-.27-.1213-.066-.097-.099-.2101-.099-.3395 0-.2263.099-.4042.295-.5335.214-.1293.444-.2425.69-.3395.246-.1132.467-.2425.664-.388.214-.1455.32-.3476.32-.6063 0-.0323-.041-.1132-.123-.2425s-.303-.194-.664-.194c-.164 0-.353.097-.567.291-.213.1778-.418.4284-.615.7518-.197.3072-.361.679-.492 1.1155-.132.4204-.197.8811-.197 1.3823 0 .4204.074.8003.221 1.1398.164.3395.37.6305.616.873.246.2264.533.4042.861.5336.329.1293.665.194 1.01.194.246 0 .508-.0485.787-.1455.296-.1132.567-.2264.813-.3396.262-.1293.484-.2425.664-.3395.197-.1131.32-.1697.37-.1697.049 0 .098.0242.147.0727.066.0485.107.097.123.1455z" fill="#000"/><path d="m152.818 14.211c0 .1617-.025.3314-.074.5093-.049.1617-.099.2991-.148.4123-.033.0485-.189.2182-.468.5092-.262.2749-.599.5659-1.009.8731-.394.3071-.845.5901-1.354.8487-.492.2425-.968.3638-1.428.3638-.279 0-.566-.0485-.861-.1455-.279-.097-.542-.2506-.788-.4608-.246-.2263-.451-.5012-.615-.8245-.148-.3233-.222-.7194-.222-1.1883 0-.776.131-1.4793.394-2.1098s.525-1.1317.788-1.5036c.115-.1778.262-.3557.443-.5335.197-.194.386-.3638.566-.5093.181-.1616.345-.291.492-.388.165-.09699.279-.14549.345-.14549.148 0 .279.04042.394.12129.131.0808.197.1616.197.2425 0 .1293-.041.2425-.123.3395-.066.0808-.164.1778-.296.291-.131.097-.287.2344-.467.4123-.181.1616-.37.3799-.567.6547-.393.5336-.689 1.0832-.886 1.6491-.18.5497-.271 1.0347-.271 1.4551 0 .4203.156.7598.468 1.0185.328.2425.665.3638 1.009.3638.624 0 1.174-.1375 1.65-.4123.492-.2749.911-.582 1.255-.9215.345-.3396.624-.6467.837-.9216.214-.2748.369-.4122.468-.4122.18 0 .271.1374.271.4122z" fill="#000"/><path d="m156.243 7.46927c0 .03234-.057.09701-.172.19401s-.254.20209-.418.31526c-.148.097-.304.18592-.468.26676s-.295.12125-.394.12125c-.066 0-.156 0-.271 0-.098-.01616-.205-.0485-.32-.097-.098-.0485-.188-.11317-.271-.19401-.082-.097-.123-.21825-.123-.36376 0-.22634.082-.43652.247-.63052.164-.21018.377-.31526.64-.31526.049 0 .155.02425.32.07275.18.03233.361.08083.541.1455.181.06467.337.13743.468.21826.148.08084.221.16976.221.26676zm.813 9.06983c0 .1132-.09.2102-.271.291-.164.0808-.287.1213-.369.1213-.164 0-.312-.1051-.443-.3153-.132-.2102-.247-.4527-.345-.7275-.098-.2749-.181-.5335-.246-.776-.066-.2587-.115-.4366-.148-.5336-.049-.1616-.115-.3556-.197-.582-.082-.2263-.164-.4446-.246-.6548-.066-.2101-.123-.3961-.172-.5577-.05-.1617-.074-.2506-.074-.2668 0-.2263.041-.4365.123-.6305.098-.194.213-.291.345-.291.147 0 .303.1131.467.3395.164.2263.32.5173.468.873.164.3395.312.7195.443 1.1398.131.4042.246.7922.345 1.1641.098.3556.172.6709.221.9457.066.2587.099.4123.099.4608z" fill="#000"/><path d="m166.663 1.2368c.016.03233.025.08891.025.16975v.26676c0 .11317-.041.16976-.123.16976-.033 0-.074-.00809-.124-.02425-.049-.01617-.09-.03234-.123-.04851-.295-.12933-.656-.29101-1.083-.48501-.41-.21018-.878-.315266-1.403-.315266-.591 0-1.067.218256-1.428.654776-.361.43651-.64.94578-.837 1.5278-.18.56586-.303 1.12363-.369 1.67332-.049.54968-.074.94578-.074 1.18829 0 .17784.025.46077.074.84878.066.37185.148.75986.246 1.16404.099.40418.214.77603.345 1.11554.131.32335.262.52544.394.60627.098 0 .271-.00808.517-.02425.262-.01616.476-.02425.64-.02425.279 0 .541.02425.787.07276.247.0485.501.07275.764.07275h.295c.131 0 .263.00808.394.02425.148.01617.271.0485.369.097.099.03234.148.08079.148.14549 0 .0809-.058.1536-.173.2183-.114.0646-.246.1212-.393.1697-.148.0324-.296.0566-.443.0728-.148.0162-.263.0242-.345.0242s-.189 0-.32 0c-.131-.0161-.279-.0323-.443-.0485-.148-.0161-.296-.0242-.443-.0242-.132-.0162-.247-.0243-.345-.0243-.263 0-.427.0324-.492.097-.05.0485-.074.1536-.074.3153 0 .2425.107.5739.32.9943.23.4042.476.8407.738 1.3095.263.4689.501.9539.714 1.4551.23.5012.345.9619.345 1.3823 0 .0808-.025.2344-.074.4608-.033.2101-.09.4284-.172.6547-.066.2264-.164.4285-.296.6063-.131.1778-.279.2668-.443.2668-.131 0-.254-.0324-.369-.097-.099-.0809-.148-.2102-.148-.3881 0-.2586.066-.5011.197-.7275.148-.2263.222-.4688.222-.7275 0-.1294-.066-.3476-.197-.6548-.115-.3072-.263-.6467-.443-1.0185-.181-.388-.378-.7922-.591-1.2126-.213-.4203-.419-.8002-.616-1.1398-.18-.3556-.336-.6467-.467-.873-.132-.2263-.205-.3476-.222-.3638-.328.1132-.664.2264-1.009.3396-.345.1131-.656.2829-.935.5092-.115.1132-.222.1698-.32.1698-.165 0-.321-.0647-.468-.194-.131-.1294-.197-.2749-.197-.4365 0-.1779.049-.3153.148-.4123.114-.1132.221-.194.32-.2425.147-.0809.377-.1698.689-.2668s.623-.1778.935-.2425c.115-.0323.222-.0566.32-.07274.099-.03233.148-.08892.148-.16975-.049-.16168-.123-.37185-.222-.63053-.082-.27484-.172-.59818-.27-.97003-.082-.37185-.156-.78411-.222-1.2368-.066-.46885-.098-.97003-.098-1.50355 0-.58202.065-1.19638.197-1.84307.147-.64669.369-1.23679.664-1.77031.312-.54969.698-.994289 1.157-1.333802.46-.355679 1.009-.533518 1.65-.533518.295 0 .623.0323341.984.0970023.361.0485017.689.1293387.985.2425097.312.097004.566.226341.763.388014.213.145505.32.315264.32.509274z" fill="#000"/><path d="m173.374 7.27526c-.213 1.11555-.41 2.19067-.591 3.22534-.082.4365-.164.8973-.246 1.3823-.082.4689-.164.9377-.246 1.4066-.066.4527-.131.8892-.197 1.3095-.049.4042-.09.7761-.123 1.1156-.066.5173-.115 1.1074-.148 1.7703-.033.6628-.065 1.2934-.098 1.8916-.033.6951-.049 1.3984-.049 2.1098 0 .1455-.017.3072-.05.485s-.049.3557-.049.5335c0 .1617-.041.2991-.123.4123-.066.1132-.172.1697-.32.1697-.131 0-.238-.105-.32-.3152-.066-.194-.123-.4285-.172-.7033-.05-.2587-.082-.5254-.099-.8003-.016-.2587-.024-.4446-.024-.5577 0-.1294 0-.2911 0-.4851 0-.1778.008-.4526.024-.8245.033-.3557.074-.8245.123-1.4065.049-.5982.123-1.3743.222-2.3281 0-.0162-.115-.097-.345-.2425-.213-.1455-.484-.3234-.812-.5336-.312-.2263-.64-.4688-.985-.7275-.328-.2587-.607-.5093-.837-.7518-.033-.0323-.082-.105-.148-.2182-.065-.1132-.098-.2506-.098-.4123 0-.0808.041-.1617.123-.2425.082-.097.172-.1455.271-.1455.066 0 .131.0323.197.097.377.3233.812.6871 1.304 1.0913.493.388.977.7437 1.453 1.067.033-.291.098-.7356.197-1.3338.115-.5982.23-1.2368.344-1.9158.115-.6952.222-1.3661.32-2.01281.115-.64669.197-1.16404.247-1.55206 0-.06466.016-.16975.049-.31526.033-.1455.082-.29101.148-.43651.065-.14551.139-.26676.221-.36377.082-.11317.172-.16975.271-.16975.049 0 .156.0485.32.1455.164.08084.246.27485.246.58202z" fill="#000"/><path d="m198.958 19.7402c0 .1132-.041.2344-.123.3638-.082.1293-.197.194-.345.194-.082 0-.172-.0243-.271-.0728-.59-.2748-1.28-.5011-2.067-.679-.788-.1617-1.601-.3072-2.438-.4365-.82-.1293-1.624-.2748-2.412-.4365-.788-.1455-1.477-.3395-2.068-.582.099.2101.197.3799.296.5092.098.1294.18.2425.246.3395.082.097.148.186.197.2668.049.097.074.2183.074.3638 0 .1293-.05.2263-.148.291-.099.0646-.197.097-.295.097-.197 0-.411-.1213-.641-.3638-.213-.2425-.434-.5497-.664-.9215-.23-.3719-.46-.7841-.689-1.2368-.214-.4689-.411-.9215-.591-1.3581-.181-.4365-.337-.8326-.468-1.1883-.131-.3718-.222-.6547-.271-.8487l-1.083-4.26819c0-.04851.008-.11318.025-.19401.033-.08084.098-.16167.197-.24251-.066-.12934-.099-.26676-.099-.41227 0-.45268.263-.86494.788-1.23679.525-.38801 1.157-.71136 1.895-.97004.755-.27484 1.543-.48501 2.364-.63052.82-.1455 1.518-.21826 2.092-.21826.164 0 .41.01617.739.0485.328.01617.648.07276.96.16976.328.09701.607.25059.837.46077.246.194.369.46885.369.82453 0 .33951-.181.72752-.542 1.16404-.344.43652-.779.89728-1.304 1.3823-.526.48499-1.092.98619-1.699 1.50359-.607.5012-1.173 1.0104-1.699 1.5278-.525.5012-.968.9943-1.329 1.4793-.344.4688-.517.9053-.517 1.3095 0 .3072.131.582.394.8246.279.2263.624.4284 1.034.6062.41.1779.853.3315 1.329.4608.493.1293.952.2344 1.379.3153.443.0808.82.1455 1.132.194.328.0323.525.0485.591.0485.213 0 .583.0242 1.108.0727s1.058.1374 1.6.2668c.558.1131 1.05.2667 1.477.4607.426.194.64.4446.64.7518zm-4.751-12.34368c0-.11317-.058-.21018-.173-.29101-.114-.09701-.27-.16976-.467-.21826-.181-.06467-.386-.10509-.616-.12125-.213-.03234-.426-.04851-.64-.04851-.328 0-.722.04851-1.181.14551-.46.097-.927.21826-1.403.36376-.46.14551-.887.29101-1.28.43652-.394.1455-.682.26676-.862.36376-.345.19401-.681.41227-1.009.65478-.329.22634-.493.45268-.493.67902 0 .03234.025.06467.074.097.049.03234.074.08892.074.16976 0 .097.049.3476.148.7518.098.388.213.8326.344 1.3338.132.485.271.97.419 1.455.164.485.312.8731.443 1.1641.673-.9377 1.395-1.7542 2.166-2.4494.788-.7113 1.51-1.3338 2.166-1.8673.657-.54967 1.198-1.02661 1.625-1.43079.443-.42035.665-.81645.665-1.18829z" fill="#000"/><path d="m206.065 14.599c0 .1455-.098.2991-.295.4608s-.427.3153-.69.4608c-.262.1293-.533.2425-.812.3395-.263.097-.459.1455-.591.1455-.147 0-.312-.0404-.492-.1213-.164-.0808-.328-.1778-.492-.291-.148-.1132-.279-.2182-.394-.3152s-.189-.1617-.222-.194c-.049.0485-.123.1455-.221.291-.099.1455-.222.3071-.37.485-.131.1617-.279.3072-.443.4365-.147.1293-.303.194-.467.194-.427 0-.796-.2263-1.108-.679s-.575-.9701-.788-1.5521c-.197-.582-.353-1.1398-.468-1.6733-.098-.5497-.147-.9215-.147-1.1155 0-.1132.057-.2021.172-.2668.131-.0808.23-.1212.295-.1212.23 0 .386.0808.468.2425.082.1455.123.3071.123.485 0 .1455.041.4042.123.776.099.3719.214.7518.345 1.1398s.271.7356.418 1.0428c.148.291.279.4365.394.4365.214 0 .394-.1293.542-.388.164-.2749.295-.582.394-.9215.098-.3557.172-.6872.221-.9943.049-.3234.074-.5335.074-.6306 0-.0161 0-.0646 0-.1455.016-.097.033-.194.049-.291.017-.097.025-.1859.025-.2667.016-.0809.025-.1375.025-.1698 0-.1132-.025-.1859-.074-.2182-.05-.0485-.074-.1375-.074-.2668 0-.097.049-.1859.148-.2668.098-.097.311-.1455.64-.1455.131 0 .229.0404.295.1213.082.0647.139.1455.172.2425s.05.194.05.291c.016.0808.024.1374.024.1698 0 .0161-.008.1293-.024.3395-.017.2102-.033.4446-.05.7033 0 .2425-.008.4769-.024.7032-.017.2264-.025.3638-.025.4123s.025.1455.074.291.107.2991.172.4608c.082.1455.173.2829.271.4122.098.1132.205.1698.32.1698.197 0 .377-.0243.542-.0728.18-.0646.344-.1293.492-.194.164-.0808.312-.1455.443-.194.131-.0646.254-.097.369-.097.148 0 .279.0324.394.097.131.0647.197.1455.197.2425z" fill="#000"/><path d="m210.327 17.9214c0 .1293-.049.2263-.148.291-.098.0647-.213.097-.344.097-.148 0-.304-.1374-.468-.4122-.148-.2749-.295-.6225-.443-1.0428-.148-.4204-.287-.8731-.418-1.3581-.132-.5012-.247-.9619-.345-1.3823-.099-.4365-.181-.8003-.246-1.0913-.049-.291-.074-.4527-.074-.485 0-.0647-.033-.2344-.099-.5093-.049-.2748-.123-.7032-.221-1.2853-.082-.582-.181-1.33376-.295-2.25529-.099-.9377-.206-2.09366-.321-3.46788 0-.1455.025-.33143.074-.55777.05-.22634.164-.33951.345-.33951.23 0 .402.15359.517.46077.131.30717.23.68711.295 1.13979.082.45268.14.92962.173 1.4308.032.48502.073.91345.123 1.2853.065.51735.123.9862.172 1.40655.066.42034.123.84074.172 1.26104.066.4042.14.8326.222 1.2853.098.4527.213.9539.345 1.5036z" fill="#000"/><path d="m219.089 16.0783c.017.0324.025.0809.025.1455 0 .097-.074.2426-.222.4366-.049.0646-.156.1697-.32.3152s-.385.291-.664.4365-.624.2749-1.034.388c-.394.1132-.862.1698-1.403.1698-.378 0-.747-.0808-1.108-.2425-.361-.1778-.681-.4284-.96-.7518-.279-.3395-.509-.7518-.69-1.2368-.18-.5012-.27-1.0832-.27-1.746 0-.6306.082-1.2207.246-1.7704.164-.5496.369-1.0347.615-1.455.263-.4204.55-.7518.862-.99429.312-.24251.615-.36377.911-.36377.262 0 .525.05659.787.16976.279.097.526.22634.739.38801.23.16169.41.34759.541.55779.132.194.197.3961.197.6063 0 .2425-.114.4931-.344.7517-.214.2587-.476.5012-.788.7276-.312.2101-.624.388-.935.5335-.312.1293-.558.194-.739.194-.098 0-.189-.0404-.271-.1213-.065-.097-.098-.2101-.098-.3395 0-.2263.098-.4042.295-.5335.214-.1293.443-.2425.69-.3395.246-.1132.467-.2425.664-.388.214-.1455.32-.3476.32-.6063 0-.0323-.041-.1132-.123-.2425s-.304-.194-.665-.194c-.164 0-.352.097-.566.291-.213.1778-.418.4284-.615.7518-.197.3072-.361.679-.492 1.1155-.132.4204-.197.8811-.197 1.3823 0 .4204.073.8003.221 1.1398.164.3395.369.6305.616.873.246.2264.533.4042.861.5336.328.1293.665.194 1.009.194.247 0 .509-.0485.788-.1455.296-.1132.566-.2264.812-.3396.263-.1293.485-.2425.665-.3395.197-.1131.32-.1697.369-.1697.05 0 .099.0242.148.0727.066.0485.107.097.123.1455z" fill="#000"/><path d="m226.367 15.4236c0 .2748-.099.5173-.296.7275-.18.194-.418.3638-.714.5093-.279.1293-.59.2344-.935.3152-.345.0809-.673.1455-.985.194-.312.0324-.591.0566-.837.0728-.229 0-.377 0-.443 0-.361 0-.64-.0566-.837-.1698-.197-.1131-.295-.3152-.295-.6062 0-.0971.008-.1779.024-.2426.017-.0808.083-.1212.197-.1212.05 0 .132.0162.247.0485.114.0162.205.0242.27.0242.066 0 .271-.008.616-.0242.361-.0323.738-.0808 1.132-.1455.41-.0647.771-.1536 1.083-.2668.328-.1293.493-.291.493-.485 0-.0323-.173-.1293-.517-.291-.329-.1778-.829-.4689-1.502-.873-.525-.3234-.894-.6467-1.108-.9701-.213-.3395-.32-.7922-.32-1.358 0-.3557.074-.6467.222-.8731.164-.2263.377-.4041.64-.5335.279-.1293.591-.2182.935-.2667.361-.0647.739-.09704 1.133-.09704.032 0 .131.01614.295.04854.181.0323.369.0889.566.1697.197.0647.369.1536.517.2668.164.097.246.2102.246.3395 0 .0323-.033.0808-.098.1455-.049.0647-.14.1859-.271.3638-.049-.0162-.139-.0405-.271-.0728-.115-.0323-.254-.0647-.418-.097-.148-.0485-.304-.0808-.468-.097-.164-.0323-.295-.0485-.394-.0485-.426 0-.771.0808-1.034.2425-.262.1455-.394.4365-.394.873 0 .2102.083.4042.247.5821.18.1778.402.3476.664.5092.263.1455.542.2991.837.4608.312.1455.599.3072.862.485.262.1779.476.3719.64.582.18.194.271.4204.271.6791z" fill="#000"/><path d="m122.874 188.733-15.392-11.467c-26.3493 5.612-44.1877-12.367-31.2291-17.81 36.5961-15.37 51.3881 2.287 50.3501 6.44-.83 3.322-5.573 9.623-14.525 10.726z" fill="#fff" opacity=".5"/><path clip-rule="evenodd" d="m111.342 174.952c.18-.137.438-.102.575.078 3.561 4.679 7.354 9.158 11.214 13.606.254.292.446.531.574.718.064.092.119.182.159.265.032.067.088.196.074.343-.008.088-.043.197-.134.287-.088.088-.191.121-.266.132-.132.019-.253-.017-.322-.04-.157-.054-.353-.157-.563-.283-.857-.512-2.409-1.663-4.208-3.063-3.613-2.809-8.31-6.686-10.652-8.653-.174-.146-.197-.405-.051-.579.146-.173.405-.196.578-.05 2.339 1.964 7.028 5.834 10.629 8.635 1.242.965 2.344 1.795 3.173 2.377-3.73-4.305-7.402-8.655-10.858-13.198-.137-.18-.102-.438.078-.575zm11.789 15.039s-.001-.003-.003-.007c.002.005.003.007.003.007zm.363-.423c.004.001.005.001.006.001 0 0-.002 0-.006-.001z" fill="#0b0b0d" fill-rule="evenodd"/><path clip-rule="evenodd" d="m106.695 153.466c5.403.565 10.183 1.737 13.188 3.437 3.087 1.746 5.341 3.849 6.37 6.04.518 1.1.729 2.231.569 3.344-.161 1.115-.689 2.183-1.6 3.164-5.206 5.607-14.249 8.189-21.43 9.179-8.0806 1.115-18.6599 1.146-26.0605-3.134-2.3374-1.352-4.3369-3.144-5.4631-5.314-1.1342-2.185-1.3675-4.726-.2078-7.509.0872-.21.3274-.309.5366-.221.2092.087.3082.327.221.536-1.0654 2.557-.8447 4.844.1787 6.816 1.0314 1.987 2.8932 3.679 5.1455 4.982 7.1507 4.135 17.493 4.141 25.5376 3.031 7.141-.985 15.937-3.536 20.941-8.924.813-.876 1.255-1.795 1.388-2.722.134-.929-.037-1.898-.499-2.879-.928-1.975-3.019-3.97-6.031-5.675-2.858-1.617-7.505-2.774-12.869-3.335-5.353-.559-11.3736-.519-16.9505.226-5.5847.747-10.6857 2.196-14.2267 4.431-3.5273 2.225-5.4511 5.184-4.8737 8.995.034.224-.1202.433-.3442.467-.2241.034-.4333-.12-.4673-.344-.6425-4.241 1.549-7.479 5.2473-9.813 3.6846-2.324 8.9194-3.796 14.5559-4.549 5.6443-.755 11.7302-.795 17.1442-.229z" fill="#0b0b0d" fill-rule="evenodd"/><path clip-rule="evenodd" d="m86.69 159.131c.5491-.881 1.6268-1.55 2.9843-1.55.7837 0 1.7882.193 2.5489.712.386.263.7196.618.9166 1.082.1981.467.2446 1.013.1068 1.633-.0868.391-.2684.713-.5103.972.0158.037.0263.078.0302.121.021.226-.145.426-.3706.447-.1257.011-.2546.024-.386.036-.0773.008-.1555.015-.2345.023-.4739.182-1.0045.256-1.5184.247-.3591-.006-.7206-.053-1.0618-.138-.8457-.05-1.6806-.236-2.2426-.767-.8433-.796-.8118-1.937-.2626-2.818zm2.6315 2.77c-.1824-.05-.3533-.112-.5068-.186-.4125-.197-.6343-.439-.6972-.663-.0614-.218-.288-.345-.5062-.284-.1642.046-.2769.186-.2963.345-.291-.445-.2603-1.016.0715-1.548.3949-.633 1.2053-1.163 2.2878-1.163.6801 0 1.5053.173 2.0864.569.2849.195.5003.435.6235.725.1222.288.1672.657.0612 1.134-.091.409-.3514.706-.7356.908-.0426.022-.0867.043-.1321.063-.7012.066-1.4153.123-2.0751.106-.0614-.001-.1218-.004-.1811-.006z" fill="#0b0b0d" fill-rule="evenodd"/><path clip-rule="evenodd" d="m88.6382 161.772c.2027.101.2849.348.1835.551-.4912.982-.9639 1.97-1.4301 2.945-1.1384 2.38-2.2375 4.678-3.4707 6.607-.1221.191-.3759.247-.5668.125-.191-.122-.2468-.376-.1248-.567 1.2046-1.884 2.269-4.11 3.3971-6.469.471-.984.9531-1.992 1.4612-3.009.1014-.202.3479-.284.5506-.183z" fill="#000" fill-rule="evenodd"/><path clip-rule="evenodd" d="m91.259 161.964c.2227-.042.4375.104.4799.327.5301 2.782 1.5039 6.808 2.4649 9.211.0842.21-.0182.449-.2286.533-.2105.084-.4493-.018-.5335-.228-.9909-2.478-1.9763-6.566-2.509-9.363-.0424-.222.1037-.437.3263-.48z" fill="#000" fill-rule="evenodd"/><path clip-rule="evenodd" d="m83.4155 171.093c-.0406.223.1073.437.3303.477 4.2451.772 6.4645.861 10.7823.493.2259-.019.3933-.218.3741-.444-.0193-.225-.218-.393-.4438-.374-4.2484.363-6.3949.276-10.5657-.482-.223-.041-.4367.107-.4772.33z" fill="#000" fill-rule="evenodd"/><path clip-rule="evenodd" d="m95.2902 159.131c.5491-.881 1.6268-1.55 2.9842-1.55.7837 0 1.7886.193 2.5486.712.386.263.72.618.917 1.082.198.467.245 1.013.107 1.633-.087.391-.269.713-.511.972.016.037.027.078.031.121.021.226-.145.426-.371.447-.126.011-.255.024-.386.036-.077.008-.155.015-.234.023-.4743.182-1.0049.256-1.5188.247-.3591-.006-.7207-.053-1.0618-.138-.8457-.05-1.6806-.236-2.2426-.767-.8434-.796-.8118-1.937-.2626-2.818zm2.6314 2.77c-.1823-.05-.3532-.112-.5067-.186-.4125-.197-.6343-.439-.6972-.663-.0614-.218-.288-.345-.5062-.284-.1642.046-.2769.186-.2964.345-.291-.445-.2602-1.016.0716-1.548.3949-.633 1.2053-1.163 2.2877-1.163.6802 0 1.5054.173 2.0866.569.285.195.5.435.623.725.123.288.168.657.062 1.134-.091.409-.352.706-.736.908-.043.022-.087.043-.132.063-.7013.066-1.4154.123-2.0752.106-.0614-.001-.1218-.004-.1812-.006z" fill="#0b0b0d" fill-rule="evenodd"/><path clip-rule="evenodd" d="m97.2384 161.772c.2027.101.2848.348.1835.551-.4912.982-.9639 1.97-1.4301 2.945-1.1384 2.38-2.2375 4.678-3.4707 6.607-.1221.191-.3759.247-.5668.125-.191-.122-.2468-.376-.1248-.567 1.2046-1.884 2.269-4.11 3.3971-6.469.471-.984.9531-1.992 1.4612-3.009.1013-.202.3478-.284.5506-.183z" fill="#000" fill-rule="evenodd"/><path clip-rule="evenodd" d="m99.8592 161.964c.2228-.042.4378.104.4798.327.53 2.782 1.504 6.808 2.465 9.211.084.21-.018.449-.229.533-.21.084-.449-.018-.533-.228-.991-2.478-1.976-6.566-2.5091-9.363-.0424-.222.1037-.437.3263-.48z" fill="#000" fill-rule="evenodd"/><path clip-rule="evenodd" d="m92.0157 171.093c-.0406.223.1073.437.3303.477 4.2451.772 6.4645.861 10.782.493.226-.019.394-.218.374-.444-.019-.225-.218-.393-.443-.374-4.2488.363-6.3953.276-10.5662-.482-.223-.041-.4366.107-.4771.33z" fill="#000" fill-rule="evenodd"/><path clip-rule="evenodd" d="m115.903 162.239c.152.168.14.427-.028.58-1.993 1.812-3.778 3.609-5.296 5.811-.022.032-.047.074-.081.133-.023.039-.05.086-.084.142-.074.121-.17.273-.282.401-.095.109-.277.291-.535.319-.327.035-.546-.183-.669-.396-.44-.765-.818-1.564-1.185-2.352-.039-.086-.079-.171-.118-.256-.327-.704-.648-1.397-1.006-2.066-.107-.2-.031-.448.169-.555s.448-.032.555.168c.37.691.701 1.406 1.026 2.108.04.085.079.17.119.255.345.744.69 1.472 1.081 2.165.046-.061.093-.135.142-.216.017-.028.037-.061.056-.094.047-.08.098-.166.137-.222 1.57-2.278 3.408-4.124 5.419-5.953.168-.152.427-.14.58.028z" fill="#1a1a1a" fill-rule="evenodd"/><path clip-rule="evenodd" d="m83.2044 162.996c.1876.127.2364.382.1092.57-.5052.744-1.0156 1.481-1.5249 2.217-1.088 1.571-2.171 3.135-3.1869 4.747-.1208.192-.3742.25-.5659.129-.1918-.121-.2493-.374-.1285-.566 1.0254-1.628 2.1258-3.217 3.2192-4.796.5068-.732 1.0121-1.462 1.5078-2.192.1273-.188.3825-.237.57-.109z" fill="#1a1a1a" fill-rule="evenodd"/><path clip-rule="evenodd" d="m85.3197 162.327c.2173-.065.4457.059.5101.276.2951.996.3845 2.001.4602 2.963.0045.056.0089.112.0133.168.0713.912.1393 1.782.3519 2.632.055.22-.0787.443-.2986.498s-.4427-.079-.4977-.299c-.2299-.92-.3027-1.854-.3726-2.75-.0049-.062-.0097-.124-.0145-.185-.0761-.965-.1614-1.89-.429-2.793-.0644-.218.0596-.446.2769-.51z" fill="#1a1a1a" fill-rule="evenodd"/><path clip-rule="evenodd" d="m83.7552 158.944c.8043.127 1.6088.417 2.1662.806.6909.482 1.0741 1.325 1.1086 2.138.0348.821-.2849 1.692-1.1032 2.167-.6168.358-1.2319.38-1.7897.164-.538-.208-.9941-.624-1.3585-1.094-.7233-.932-1.194-2.217-1.2408-3.05-.001-.018-.0008-.037.0006-.055-.1958.129-.3154.272-.3891.418-.1005.198-.1347.438-.108.72.0548.578.3554 1.227.652 1.778.1075.199.0328.448-.1668.556-.1995.107-.4484.032-.5559-.167-.2984-.554-.6745-1.331-.7464-2.09-.0368-.387.003-.793.1929-1.168.1925-.38.5202-.69.9916-.911.6744-.315 1.5476-.339 2.3465-.212zm-1.5287.807c.0752.07.1246.168.1308.278.0363.647.4355 1.776 1.0697 2.593.3143.405.6589.697 1.006.832.3274.126.6819.123 1.0817-.109.4896-.284.7207-.823.6953-1.422-.0257-.605-.3135-1.19-.7582-1.5-.4302-.3-1.1086-.555-1.8248-.669-.5061-.08-.9941-.083-1.4005-.003z" fill="#1a1a1a" fill-rule="evenodd"/><path clip-rule="evenodd" d="m76.4084 170.905c.0121-.226.2053-.4.4316-.388.0806.004.1766.009.2854.014.5977.027 1.5808.072 2.5151.213.5521.083 1.1087.203 1.5717.381.4448.171.8931.43 1.1028.85.1014.202.0192.449-.1835.55-.2027.102-.4492.019-.5506-.183-.0662-.133-.2628-.297-.6635-.451-.3825-.147-.8722-.256-1.3992-.335-.8872-.134-1.8187-.177-2.4203-.205-.1129-.005-.2143-.01-.3015-.014-.2263-.012-.4-.205-.388-.432z" fill="#1a1a1a" fill-rule="evenodd"/><path clip-rule="evenodd" d="m284.047 167.724c-2.665 4.303-4.303 8.624-4.377 12.07-.005.226-.193.406-.419.401-.227-.005-.407-.192-.402-.419.079-3.656 1.8-8.125 4.5-12.484 2.705-4.369 6.419-8.672 10.542-12 4.117-3.323 8.676-5.699 13.07-6.156 4.424-.461 8.648 1.03 12.019 5.364.139.179.107.437-.072.576s-.437.107-.576-.072c-3.194-4.107-7.139-5.483-11.286-5.052-4.176.435-8.588 2.709-12.64 5.979-4.047 3.266-7.701 7.498-10.359 11.793z" fill="#b0b1c4" fill-rule="evenodd"/><path clip-rule="evenodd" d="m285.428 155.213c-4.788 6.011-8.22 13.618-8.22 20.058 0 .227-.184.41-.411.41-.226 0-.41-.183-.41-.41 0-6.692 3.544-14.475 8.399-20.57 2.432-3.053 5.207-5.701 8.058-7.588 2.847-1.885 5.799-3.031 8.576-3.031.227 0 .41.184.41.41 0 .227-.183.411-.41.411-2.559 0-5.352 1.06-8.123 2.894-2.765 1.831-5.479 4.416-7.869 7.416z" fill="#b0b1c4" fill-rule="evenodd"/><path clip-rule="evenodd" d="m319.007 170.812c.177-.142.435-.114.577.063.888 1.102 1.883 2.911 2.194 4.66.156.877.146 1.773-.169 2.564-.321.804-.943 1.462-1.933 1.869-1.043.429-1.989.51-2.873.355-.877-.154-1.67-.536-2.417-.999-.537-.333-1.07-.72-1.597-1.103-.199-.145-.398-.289-.595-.429-.73-.519-1.467-1.001-2.264-1.348-.332-.144-.462-.112-.489-.1h-.001c-.006.003-.067.03-.103.234-.035.202-.027.495.029.868.054.368.15.788.272 1.234.244.893.585 1.861.88 2.677.039.107.077.212.113.314.103.283.197.542.274.763.1.288.185.547.214.713.087.497.298 1.102.533 1.714.059.154.12.308.18.461.171.439.338.864.44 1.201.066.221.123.46.114.663-.004.104-.027.248-.122.376-.108.147-.266.216-.421.227-.138.009-.27-.026-.381-.068-.115-.044-.239-.108-.371-.188-.263-.158-.593-.4-1.001-.731-.815-.662-1.656-1.487-2.516-2.337-.059-.059-.118-.117-.177-.176-.809-.8-1.637-1.621-2.496-2.373-1.856-1.624-3.777-2.857-5.814-2.897-.202-.004-.321.068-.422.233-.121.196-.207.52-.248.983-.071.793-.002 1.82.073 2.922.013.182.025.366.037.552.083 1.272.143 2.61-.076 3.619-.111.507-.302.982-.641 1.323-.354.357-.829.527-1.407.492-.662-.039-1.269-.305-1.779-.577-.206-.11-.404-.226-.586-.332-.044-.025-.087-.05-.128-.075-.221-.128-.407-.231-.569-.302-.168-.073-.268-.092-.323-.09-.028.001-.043.004-.072.041-.045.059-.11.192-.16.469-.049.271-.077.643-.077 1.146 0 .092.029.458.088.978.514.419 1.037.933 1.567 1.549.077.09.155.22.225.353.074.14.155.311.236.501.162.38.332.851.461 1.332.129.478.224.987.221 1.436-.002.426-.092.923-.473 1.217-.147.114-.314.196-.498.224-.188.028-.366-.006-.525-.083-.299-.144-.521-.435-.69-.734-.344-.612-.612-1.533-.817-2.465-.22-.999-.381-2.067-.482-2.894-1.108-.829-2.099-1.107-2.959-1.031-1.293.114-2.453 1.042-3.407 2.511-.948 1.46-1.645 3.389-2.026 5.345-.381 1.957-.438 3.905-.137 5.399.045.222-.099.438-.321.483s-.439-.099-.484-.321c-.328-1.629-.258-3.69.137-5.718.395-2.029 1.123-4.064 2.143-5.635 1.015-1.563 2.366-2.735 4.022-2.882.931-.082 1.907.163 2.919.781-.014-.168-.021-.288-.021-.346 0-.527.03-.954.09-1.291.06-.332.157-.616.32-.827.179-.231.42-.348.688-.358.241-.01.478.068.683.158.211.092.434.217.652.344.046.027.091.053.137.08.18.105.362.211.552.313.479.255.96.453 1.442.482.375.023.608-.083.776-.251.182-.184.326-.485.421-.92.19-.877.143-2.096.059-3.391-.011-.178-.024-.358-.036-.539-.075-1.093-.15-2.198-.073-3.061.045-.501.145-.979.367-1.341.242-.393.624-.633 1.137-.623 2.347.047 4.46 1.457 6.338 3.101.88.769 1.725 1.606 2.53 2.404.06.059.121.119.18.178.865.855 1.678 1.652 2.457 2.284.39.317.682.529.897.659-.006-.02-.013-.042-.019-.064-.092-.303-.239-.68-.406-1.106-.063-.16-.128-.326-.194-.499-.234-.611-.473-1.282-.576-1.867-.015-.087-.074-.279-.18-.584-.075-.215-.167-.468-.268-.749-.038-.102-.076-.209-.116-.319-.295-.817-.646-1.811-.9-2.739-.127-.464-.231-.918-.292-1.33-.06-.407-.082-.8-.025-1.13.057-.326.21-.679.578-.843.347-.154.751-.076 1.15.097.878.382 1.671.905 2.413 1.432.213.152.421.303.626.452.517.376 1.012.736 1.522 1.051.703.436 1.394.76 2.127.889.725.127 1.513.066 2.419-.306.796-.328 1.249-.828 1.483-1.414.239-.601.263-1.329.123-2.116-.282-1.581-1.201-3.266-2.025-4.29-.142-.176-.114-.434.062-.577zm-7.441 16.346s0-.001 0-.003zm-18.606 4.49c.09.605.205 1.269.345 1.906.204.923.451 1.741.732 2.239.144.256.262.365.331.398.025.012.037.012.047.01.014-.002.053-.012.117-.062.066-.05.153-.203.155-.571.001-.345-.073-.774-.193-1.218-.119-.441-.275-.875-.424-1.224-.075-.174-.145-.324-.206-.439-.066-.123-.108-.185-.123-.202-.265-.309-.526-.587-.781-.837z" fill="#9293ab" fill-rule="evenodd"/><path clip-rule="evenodd" d="m379.262 145.099c.125.189.072.444-.117.568-.797.524-1.682 1.114-2.633 1.747-4.897 3.263-11.521 7.678-16.704 10.136-.205.097-.45.01-.547-.195s-.01-.45.195-.547c5.123-2.429 11.681-6.799 16.583-10.065.956-.636 1.848-1.231 2.655-1.761.19-.125.444-.072.568.117z" fill="#9293ab" fill-rule="evenodd"/><path clip-rule="evenodd" d="m389.989 161.597c.052.22-.083.442-.304.495-6.844 1.642-13.151 2.74-19.868 3.909-3.364.585-6.831 1.188-10.519 1.887-.223.042-.438-.104-.48-.327s.104-.438.327-.48c3.715-.703 7.195-1.309 10.563-1.895 6.702-1.166 12.966-2.256 19.786-3.892.22-.053.442.083.495.303z" fill="#9293ab" fill-rule="evenodd"/><path clip-rule="evenodd" d="m354.277 175.371c-.066.043-.13.087-.192.134-.461.349-.656.696-.619.992.019.01.044.021.075.033.136.053.327.106.547.157.03.007.06.014.09.021-.018-.355.014-.798.099-1.337zm.741 1.513c-.003-.018-.005-.036-.007-.056-.037-.305-.018-.779.101-1.476.022-.13-.019-.255-.101-.346.208-.075.401-.122.552-.135.376-.033.549.04.622.098.063.049.113.134.116.305.003.178-.05.408-.158.663-.107.25-.258.5-.425.712-.12.152-.24.273-.349.361-.036-.028-.077-.05-.122-.065-.061-.02-.141-.041-.229-.061zm-.61.711c.075.118.172.217.298.287.341.191.7.071.945-.072.257-.15.503-.389.71-.652.407-.514.771-1.253.761-1.896-.005-.338-.117-.694-.43-.939-.302-.237-.717-.312-1.2-.27-.554.048-1.318.356-1.902.798-.564.426-1.135 1.121-.896 1.958.051.177.181.284.259.338.089.061.191.109.287.147.195.076.434.14.663.193.17.039.345.076.505.108zm-.995-1.128s.002.001.005.004c-.004-.003-.005-.004-.005-.004z" fill="#9293ab" fill-rule="evenodd"/><path clip-rule="evenodd" d="m370.828 156.819c-.392-.06-.885-.204-1.496-.442-.212-.083-.316-.321-.234-.532.023-.058.057-.107.099-.147-.102-.213-.119-.452-.078-.696.051-.309.198-.654.416-1.035.083-.145.212-.25.371-.298.148-.045.292-.032.409-.004.227.055.455.192.652.343.401.306.822.781 1.067 1.239.12.225.221.488.223.747.001.134-.024.281-.1.418-.078.141-.195.249-.337.322-.268.136-.613.144-.992.085zm-.722-2.359h.002zm.08.025c-.156.289-.233.501-.258.652-.026.158.009.21.026.23.029.037.112.099.323.147.206.047.485.07.845.07.067 0 .129.016.185.044-.185-.344-.523-.728-.838-.968-.119-.09-.215-.146-.283-.175z" fill="#9293ab" fill-rule="evenodd"/><path clip-rule="evenodd" d="m358.446 138.165c.011.039.021.081.033.126.294 1.138.632 2.237.972 3.342.094.303.187.607.28.911.226.745.448 1.496.648 2.26.202-.317.419-.636.656-.955.09-.122.28-.356.519-.651.098-.121.204-.253.316-.391.389-.483.85-1.064 1.269-1.626.422-.567.787-1.097.992-1.483.032-.06.058-.113.078-.159-2.006-.261-3.905-.76-5.798-1.511.011.042.022.088.035.137zm-.121-.542v.004c0-.002 0-.004 0-.004zm-.299.268c-.003 0-.004-.001-.004-.001s.001 0 .004.001zm6.256 1.437v.004c0-.003 0-.004 0-.004zm-3.626 6.605c.307-.535.643-1.063 1.038-1.595.079-.107.25-.317.48-.601.101-.125.213-.264.335-.415.391-.485.86-1.076 1.288-1.651.425-.57.822-1.143 1.059-1.588.113-.213.215-.444.241-.649.012-.103.014-.26-.074-.409-.102-.171-.269-.246-.419-.264-2.069-.243-4.013-.745-5.96-1.524-.171-.068-.343-.133-.486-.156-.072-.012-.187-.022-.308.019-.146.051-.252.16-.304.292-.044.11-.044.218-.04.289.005.077.018.157.034.234.026.126.067.284.114.464.01.038.02.077.03.117.299 1.158.645 2.281.986 3.388.092.301.185.6.275.899.306 1.004.597 2.003.839 3.025-.326.588-.62 1.177-.919 1.774l-.011.021c-.101.203-.019.449.184.551.203.101.449.019.551-.184.155-.311.308-.616.463-.917.046.217.258.358.477.316.223-.042.369-.257.327-.48-.062-.322-.128-.64-.2-.956z" fill="#9293ab" fill-rule="evenodd"/><path d="m322.121 163.468 4.575-13.725h23.529l5.228 4.575v18.954l-21.568 5.882z" fill="#fbfcfd"/><path d="m344.994 166.735c-2.832-5.228-8.627-15.816-9.15-16.339l13.725-1.307 6.536 5.228z" fill="#fbfcfd"/><path d="m344.994 167.39-10.457 11.764-11.764-14.379 2.615.308 6.535 1.653z" fill="#fbfcfd"/><path d="m324.082 165.429 20.914 1.307-9.15-14.379-13.725 11.765z" fill="#fbfcfd"/><path d="m327.348 149.743-4.575 13.072 13.725-11.765-1.307-1.307z" fill="#fbfcfd"/><path clip-rule="evenodd" d="m321.077 163.99c.073-.215.306-.33.521-.257 6.859 2.316 17.41 2.919 24.704 2.919.227 0 .411.184.411.411 0 .226-.184.41-.411.41-7.3 0-17.97-.6-24.967-2.963-.215-.072-.33-.305-.258-.52z" fill="#000" fill-rule="evenodd"/><path clip-rule="evenodd" d="m336.256 147.995c.203-.102.45-.02.551.183 3.021 6.041 5.095 10.663 7.727 16.527.164.367.331.739.501 1.116.177.301.379.567.594.851.096.126.194.256.295.394.317.437.626.927.777 1.531.055.22-.078.443-.298.498s-.443-.079-.498-.299c-.112-.449-.347-.837-.645-1.247-.079-.109-.165-.222-.254-.34-.232-.306-.485-.639-.691-.992-.007-.013-.014-.026-.02-.039-.172-.384-.342-.761-.509-1.134-2.632-5.866-4.7-10.474-7.713-16.499-.101-.203-.019-.449.183-.55z" fill="#000" fill-rule="evenodd"/><path clip-rule="evenodd" d="m337.769 149.453c.16.16.16.42 0 .581-.923.923-1.844 1.856-2.769 2.793-4.218 4.276-8.5 8.616-13.284 12.275-.181.137-.438.103-.576-.077-.137-.18-.103-.438.077-.575 4.735-3.621 8.967-7.911 13.185-12.185.928-.94 1.855-1.88 2.787-2.812.16-.16.42-.16.58 0z" fill="#000" fill-rule="evenodd"/><path clip-rule="evenodd" d="m328.577 147.127c.181.136.218.393.082.575-.604.806-1.047 1.796-1.487 2.783-.034.075-.067.15-.101.224-.057.128-.115.257-.173.387-1.79 3.992-3.94 8.788-4.039 13.035-.005.227-.193.406-.42.401-.226-.006-.406-.193-.401-.42.103-4.418 2.315-9.348 4.083-13.289.068-.151.135-.301.201-.449.036-.079.071-.159.107-.24.432-.968.911-2.041 1.574-2.925.136-.181.393-.218.574-.082z" fill="#000" fill-rule="evenodd"/><path clip-rule="evenodd" d="m344.996 146.098c-4.782 0-9.57.531-17.054 1.6-.224.032-.432-.124-.464-.348s.124-.432.348-.464c7.489-1.07 12.326-1.609 17.17-1.609.226 0 .41.184.41.411 0 .226-.184.41-.41.41z" fill="#000" fill-rule="evenodd"/><path clip-rule="evenodd" d="m356.969 152.005c.194.116.257.369.141.563-3.211 5.352-8.336 11.884-13.165 15.794-.177.142-.435.115-.578-.061-.142-.176-.115-.435.061-.577 4.732-3.831 9.798-10.279 12.978-15.578.117-.195.369-.258.563-.141z" fill="#000" fill-rule="evenodd"/><path clip-rule="evenodd" d="m350.856 149.523c.121-.192.375-.248.566-.127.964.611 1.853 1.345 2.711 2.089.229.198.456.397.68.595.624.548 1.238 1.087 1.873 1.589.177.14.208.398.067.576-.14.178-.398.208-.576.068-.654-.516-1.291-1.076-1.92-1.629-.221-.195-.442-.389-.662-.579-.851-.739-1.702-1.439-2.612-2.016-.192-.121-.248-.375-.127-.566z" fill="#000" fill-rule="evenodd"/><path clip-rule="evenodd" d="m322.514 164.13c.176-.143.434-.116.577.059.338.415.709.873 1.108 1.364 3.393 4.181 8.739 10.768 11.936 13.964.16.161.16.42 0 .581-.161.16-.42.16-.581 0-3.23-3.23-8.607-9.857-11.993-14.029-.399-.491-.77-.948-1.106-1.361-.143-.176-.117-.435.059-.578z" fill="#000" fill-rule="evenodd"/><path clip-rule="evenodd" d="m345.873 167.046c.19.124.243.378.119.568-2.714 4.143-8.272 10.149-12.541 12.866-.191.122-.445.065-.567-.126-.121-.191-.065-.445.126-.567 4.146-2.638 9.627-8.55 12.295-12.623.124-.19.379-.243.568-.118z" fill="#000" fill-rule="evenodd"/><path clip-rule="evenodd" d="m356.509 173.204c.038.224-.113.435-.337.473-3.184.53-7.022 1.612-10.892 2.718-.169.049-.339.098-.509.146-3.689 1.056-7.38 2.112-10.486 2.69-.223.041-.437-.106-.479-.329-.041-.223.106-.437.329-.478 3.066-.571 6.724-1.617 10.428-2.677l.492-.141c3.858-1.103 7.743-2.199 10.982-2.739.224-.037.435.114.472.337z" fill="#000" fill-rule="evenodd"/><path clip-rule="evenodd" d="m344.661 166.17c.131-.184.387-.227.572-.096.886.631 1.807 1.255 2.739 1.887 2.701 1.831 5.493 3.723 7.77 6 .16.16.16.42 0 .581-.16.16-.42.16-.58 0-2.218-2.218-4.913-4.045-7.595-5.863-.945-.641-1.889-1.281-2.81-1.936-.185-.132-.228-.388-.096-.573z" fill="#000" fill-rule="evenodd"/><path clip-rule="evenodd" d="m356.431 153.254c.227 0 .411.184.411.41 0 6.834-.721 13.881-1.638 20.643-.03.225-.237.382-.462.352-.224-.031-.382-.238-.351-.462.915-6.747 1.63-13.752 1.63-20.533 0-.226.184-.41.41-.41z" fill="#000" fill-rule="evenodd"/><path clip-rule="evenodd" d="m334.815 148.273c.09-.208.332-.304.54-.214 5.968 2.575 12.831 2.581 19.444 2.581.227 0 .411.184.411.41 0 .227-.184.411-.411.411h-.043c-6.565 0-13.588 0-19.726-2.648-.208-.09-.304-.332-.215-.54z" fill="#000" fill-rule="evenodd"/><path clip-rule="evenodd" d="m341.942 146.059c.09-.208.332-.304.54-.214 1.37.591 2.503 1.079 3.492 1.505 3.386 1.457 5.085 2.188 8.811 3.844.207.092.3.335.208.542s-.334.301-.541.208c-3.722-1.654-5.416-2.383-8.8-3.84-.99-.425-2.124-.914-3.495-1.505-.208-.09-.304-.331-.215-.54z" fill="#000" fill-rule="evenodd"/><path clip-rule="evenodd" d="m325.889 146.627c.072-.215.304-.331.519-.259 2.402.801 4.538 1.468 6.677 2.136l.001.001c2.139.668 4.281 1.337 6.691 2.141.215.071.331.304.259.519-.071.215-.304.331-.519.259-2.402-.8-4.537-1.468-6.677-2.136l-.001-.001c-2.138-.668-4.28-1.337-6.69-2.141-.215-.071-.332-.304-.26-.519z" fill="#000" fill-rule="evenodd"/><path clip-rule="evenodd" d="m346.754 164.753c.102-.202.349-.283.551-.18 1.772.899 3.502 1.896 5.218 2.884.61.352 1.218.702 1.825 1.046.197.112.266.363.155.56-.112.197-.363.266-.56.154-.618-.35-1.233-.704-1.846-1.058-1.71-.985-3.413-1.966-5.163-2.854-.202-.103-.283-.35-.18-.552z" fill="#000" fill-rule="evenodd"/><path clip-rule="evenodd" d="m348.23 162.943c.109-.198.359-.27.557-.16 2.119 1.171 4.313 2.139 6.546 3.126.095.042.189.084.284.125.207.092.301.334.21.542-.092.207-.334.301-.542.209-.098-.043-.196-.087-.294-.13-2.225-.983-4.449-1.965-6.601-3.154-.198-.11-.27-.359-.16-.558z" fill="#000" fill-rule="evenodd"/><path clip-rule="evenodd" d="m350.546 160.938c.134-.183.391-.222.573-.088.806.593 1.707 1.012 2.663 1.373.478.181.966.346 1.461.511.048.017.097.033.145.049.447.149.9.3 1.347.463.213.078.323.313.246.526-.078.213-.313.323-.526.245-.437-.158-.88-.306-1.328-.456-.048-.016-.096-.032-.144-.048-.495-.166-.997-.335-1.491-.522-.99-.374-1.968-.824-2.859-1.479-.183-.135-.222-.392-.087-.574z" fill="#000" fill-rule="evenodd"/><path clip-rule="evenodd" d="m352.118 158.61c.066-.217.295-.339.512-.273 1.335.407 2.556.916 3.81 1.49.206.095.296.338.202.544-.095.206-.338.297-.544.202-1.238-.567-2.421-1.059-3.707-1.451-.217-.066-.339-.295-.273-.512z" fill="#000" fill-rule="evenodd"/><path clip-rule="evenodd" d="m353.95 156.244c.109-.198.359-.27.557-.16.811.449 1.615.888 2.436 1.299.203.101.285.348.183.55-.101.203-.347.285-.55.184-.838-.419-1.655-.866-2.466-1.315-.199-.11-.27-.36-.16-.558z" fill="#000" fill-rule="evenodd"/><path clip-rule="evenodd" d="m350.287 169.06c.071.215-.047.447-.262.518-.666.219-1.341.458-2.023.699-2.011.713-4.089 1.449-6.214 1.768-.224.033-.433-.121-.467-.345-.033-.225.121-.433.345-.467 2.041-.306 4.01-1.003 6-1.708.697-.247 1.396-.495 2.103-.727.215-.071.447.046.518.262z" fill="#000" fill-rule="evenodd"/><path clip-rule="evenodd" d="m354.536 170.042c.069.216-.05.447-.266.516-1.215.39-2.438.819-3.67 1.251-2.72.953-5.482 1.922-8.298 2.518-.222.047-.44-.095-.486-.317-.047-.221.094-.439.316-.486 2.763-.585 5.44-1.524 8.135-2.469 1.244-.436 2.491-.874 3.752-1.278.216-.07.447.049.517.265z" fill="#000" fill-rule="evenodd"/><path clip-rule="evenodd" d="m207.086 66.2292c.226-.0133.42.1594.434.3856.821 13.965.821 26.4825.821 38.1852v.004c0 .227-.184.411-.41.411-.227 0-.411-.184-.411-.411 0-11.7054 0-24.2017-.82-38.141-.013-.2262.16-.4205.386-.4338z" fill="#b0b1c4" fill-rule="evenodd"/><path clip-rule="evenodd" d="m248.967 74.0686c.023-.2254-.14-.4272-.366-.4507-6.32-.6583-11.876-1.1896-16.955-1.6753-10.766-1.0296-19.385-1.8539-28.578-3.2468-.224-.034-.433.1202-.467.3443s.12.4332.344.4672c9.216 1.3964 17.869 2.2239 28.649 3.2549 5.076.4854 10.623 1.0159 16.922 1.6721.226.0235.427-.1402.451-.3657z" fill="#b0b1c4" fill-rule="evenodd"/><path clip-rule="evenodd" d="m239.12 71.1533c.227 0 .41.1838.41.4104v38.3933c0 .227-.184.41-.411.41-.226 0-.41-.183-.41-.41 0-10.6698 0-28.3162.001-38.3933 0-.2267.183-.4104.41-.4104z" fill="#b0b1c4" fill-rule="evenodd"/><path clip-rule="evenodd" d="m239.116 102.807c.03-.225-.128-.431-.352-.461-4.205-.561-7.622-1.015-10.567-1.406-9.991-1.3283-14.546-1.9337-25.955-3.5184-.225-.0312-.432.1255-.463.35s.126.4318.35.463c11.412 1.585 15.969 2.1904 25.961 3.5184 2.945.392 6.362.846 10.565 1.406.225.03.431-.127.461-.352z" fill="#b0b1c4" fill-rule="evenodd"/><path clip-rule="evenodd" d="m215.743 85.7722c.179-.1386.437-.1056.576.0737 1.23 1.5914 1.961 2.4278 2.63 3.1602.134.1474.267.2911.4.4364.535.5798 1.091 1.1839 1.885 2.1372.145.1741.121.4329-.053.5779s-.433.1214-.578-.0528c-.779-.9362-1.321-1.524-1.854-2.1021-.135-.1466-.269-.2925-.407-.4434-.683-.7486-1.429-1.602-2.673-3.2114-.138-.1793-.105-.437.074-.5757z" fill="#b0b1c4" fill-rule="evenodd"/><path clip-rule="evenodd" d="m229.272 75.0436c.212.0807.318.3178.238.5296-2.636 6.9185-5.272 12.1087-8.235 17.2935-.113.1968-.363.2651-.56.1527-.197-.1125-.265-.3632-.153-.5599 2.947-5.1568 5.563-10.3082 8.181-17.1785.08-.2118.317-.3181.529-.2374z" fill="#b0b1c4" fill-rule="evenodd"/><path clip-rule="evenodd" d="m123.703 81.8232c.227 0 .41.1838.41.4104v41.0384c0 .226-.183.41-.41.41s-.41-.184-.41-.41v-41.0384c0-.2266.183-.4104.41-.4104z" fill="#b0b1c4" fill-rule="evenodd"/><path clip-rule="evenodd" d="m163.621 91.4515c-.03.2246-.236.3826-.461.3528-4.617-.6133-9.27-1.134-13.93-1.6557-8.564-.9586-17.154-1.9201-25.601-3.4639-.223-.0407-.37-.2545-.329-.4775.04-.2229.254-.3706.477-.3299 8.422 1.5393 16.958 2.4945 25.501 3.4505 4.667.5223 9.336 1.0448 13.99 1.6628.225.0299.383.2362.353.4609z" fill="#b0b1c4" fill-rule="evenodd"/><path clip-rule="evenodd" d="m158.996 90.0312c.226 0 .41.1838.41.4104v38.5754c0 .227-.184.411-.41.411-.227 0-.411-.184-.411-.411v-38.5754c0-.2266.184-.4104.411-.4104z" fill="#b0b1c4" fill-rule="evenodd"/><path clip-rule="evenodd" d="m160.534 126.538c-.021.226-.221.392-.447.371-5.91-.552-11.82-1.278-17.662-1.996-.879-.108-1.757-.215-2.632-.322-6.7-.819-13.298-1.59-19.711-2.041-.226-.016-.396-.212-.38-.438s.212-.396.438-.38c6.435.452 13.053 1.226 19.752 2.044.877.107 1.755.215 2.634.323 5.843.717 11.74 1.442 17.637 1.993.226.021.392.221.371.446z" fill="#b0b1c4" fill-rule="evenodd"/><path clip-rule="evenodd" d="m147.181 96.6781c.182.1355.219.3926.084.5743-4.104 5.5046-7.909 10.3956-12.038 14.4426-.162.159-.422.156-.58-.006-.159-.162-.156-.421.006-.58 4.078-3.998 7.85-8.844 11.954-14.3472.135-.1817.392-.2192.574-.0837z" fill="#b0b1c4" fill-rule="evenodd"/><path clip-rule="evenodd" d="m134.466 96.6799c.181-.1368.438-.1012.575.0795 1.793 2.3682 4.15 5.1146 6.532 7.8476.443.508.887 1.015 1.328 1.52 1.927 2.204 3.803 4.35 5.326 6.215.143.175.117.434-.058.577-.176.144-.434.118-.578-.058-1.513-1.853-3.377-3.985-5.304-6.189-.442-.506-.887-1.015-1.332-1.526-2.381-2.731-4.756-5.4974-6.568-7.8912-.137-.1807-.102-.4381.079-.5749z" fill="#b0b1c4" fill-rule="evenodd"/><path clip-rule="evenodd" d="m141.032 116.295c.227-.003.413.178.417.404.033 2.294.07 4.512.107 6.669.166 9.799.311 18.343-.108 27.008-.011.227-.203.401-.429.39-.227-.011-.401-.203-.391-.429.417-8.637.273-17.148.107-26.946-.036-2.159-.074-4.381-.107-6.68-.003-.226.178-.413.404-.416z" fill="#b0b1c4" fill-rule="evenodd"/><path clip-rule="evenodd" d="m138.582 149.469c.037-.224.248-.375.472-.337 2.919.486 5.309.892 7.414 1.25 8.549 1.454 12.393 2.107 27.863 4.082.225.029.384.234.355.459-.028.225-.234.384-.459.355-15.487-1.977-19.343-2.632-27.897-4.087-2.105-.357-4.494-.764-7.411-1.25-.223-.037-.374-.248-.337-.472z" fill="#b0b1c4" fill-rule="evenodd"/><path clip-rule="evenodd" d="m178.798 136.344c.033-.224.241-.379.466-.346 6.279.923 11.812 1.847 17.564 2.807.642.107 1.287.215 1.936.323 6.463 1.077 13.333 2.205 21.946 3.435.225.032.381.24.348.465-.032.224-.239.38-.464.348-8.623-1.232-15.5-2.361-21.965-3.438-.649-.109-1.294-.216-1.936-.324-5.753-.96-11.277-1.882-17.549-2.804-.224-.033-.379-.242-.346-.466z" fill="#b0b1c4" fill-rule="evenodd"/><path clip-rule="evenodd" d="m220.652 100.29c.227 0 .41.184.41.41 0 16.594-.092 27.375-.821 43.929-.01.227-.201.402-.428.392-.226-.01-.402-.202-.392-.428.729-16.537.821-27.304.821-43.893 0-.226.183-.41.41-.41z" fill="#b0b1c4" fill-rule="evenodd"/><path d="m176.909 110.549-.001-19.6977 27.385 4.9405.169 18.8612z" fill="#ffc101"/><path clip-rule="evenodd" d="m177.578 91.4402c.226.0066.405.1956.398.4221-.048 1.6619-.107 3.8047-.175 6.2556-.32 11.5791-.83 30.0381-1.286 37.1751-.015.226-.21.397-.436.383-.226-.015-.398-.21-.383-.436.455-7.119.964-25.551 1.284-37.1337.068-2.4546.127-4.6015.176-6.2679.006-.2265.195-.4048.422-.3982z" fill="#000" fill-rule="evenodd"/><path clip-rule="evenodd" d="m175.327 90.8513c.227.0066.405.1956.398.4222-.073 2.5318-.164 6.2581-.268 10.5265-.286 11.763-.673 27.642-1.079 33.987-.015.226-.21.398-.436.383-.226-.014-.398-.209-.383-.435.405-6.327.79-22.168 1.077-33.928.104-4.2771.195-8.0145.269-10.5574.007-.2266.196-.4049.422-.3983z" fill="#000" fill-rule="evenodd"/><path clip-rule="evenodd" d="m176.339 110.552c.036-.224.247-.376.47-.34 4.478.727 9.124 1.435 14.504 2.256 4.202.641 8.852 1.35 14.221 2.189.224.035.377.245.342.469s-.245.377-.469.342c-5.36-.838-10.009-1.547-14.211-2.188-5.385-.821-10.038-1.531-14.518-2.258-.224-.036-.376-.247-.339-.47z" fill="#000" fill-rule="evenodd"/><path clip-rule="evenodd" d="m174.694 91.0447c.022-.2255.223-.3903.448-.3681 10.688 1.0544 17.049 1.738 26.394 2.7424 1.221.1312 2.493.2679 3.832.4116.226.0242.389.2265.364.4518-.024.2254-.226.3885-.451.3643-1.34-.1438-2.612-.2805-3.833-.4117-9.344-1.0043-15.702-1.6876-26.386-2.7416-.226-.0222-.39-.2231-.368-.4487z" fill="#000" fill-rule="evenodd"/><path clip-rule="evenodd" d="m203.827 92.4919c.227-.001.411.1819.412.4086.013 2.8383.063 6.0493.114 9.2645.089 5.566.177 11.144.066 14.819-.007.227-.196.405-.422.398-.227-.007-.405-.196-.398-.423.11-3.658.022-9.196-.066-14.746-.051-3.221-.102-6.4456-.115-9.3089-.001-.2267.182-.4112.409-.4122z" fill="#000" fill-rule="evenodd"/><path d="m239.374 257.286-63.451-138.939-59.505 137.067c4.983 5.551 9.036 10.572 9.69 7.786 4.902-20.877 20.151-60.998 52.103-48.835 21.966 11.256 23.021 47.973 19.243 57.549-1.438 3.647 32.07-9.787 41.92-14.628z" fill="#fff"/><g clip-rule="evenodd" fill-rule="evenodd"><path d="m175.767 117.557c.21-.086.449.015.535.224 10.574 25.81 53.462 121.404 64.833 146.09.095.206.005.45-.201.545s-.45.004-.545-.201c-11.37-24.686-54.265-120.295-64.846-146.123-.086-.209.014-.449.224-.535z" fill="#000"/><path d="m176.488 117.146c.21.085.311.325.226.535-6.388 15.716-18.581 43.209-30.615 70.347-.832 1.874-1.662 3.746-2.49 5.613-12.817 28.909-24.979 56.444-29.22 67.819-.079.213-.315.321-.527.242-.213-.08-.321-.316-.242-.528 4.252-11.406 16.428-38.972 29.239-67.866.827-1.864 1.656-3.734 2.486-5.606 12.038-27.145 24.225-54.626 30.608-70.331.086-.209.325-.311.535-.225z" fill="#000"/><path d="m236.975 255.692c.138.179.105.437-.074.575-14.365 11.089-30.188 14.163-45.525 16.11-.225.028-.43-.131-.459-.356-.028-.225.131-.43.356-.459 15.307-1.943 30.944-4.996 45.126-15.944.18-.139.437-.106.576.074z" fill="#000"/><path d="m113.164 253.921c.176-.143.434-.116.577.06 3.212 3.953 7.68 7.555 14.389 10.91.203.101.285.348.184.55-.101.203-.348.285-.551.184-6.792-3.396-11.36-7.066-14.659-11.127-.143-.176-.116-.434.06-.577z" fill="#000"/><path d="m161.298 211.803c13.522-.978 24.145 5.678 30.325 16.965 6.19 11.307 7.923 27.279 3.56 44.858-.055.22.079.443.299.497.22.055.443-.079.497-.299 4.401-17.729 2.676-33.921-3.636-45.451-6.321-11.545-17.239-18.398-31.122-17.387-.011.001-.022.002-.033.004-5.81.908-11.158 4.228-15.868 8.842-4.712 4.615-8.809 10.548-12.122 16.733-3.314 6.186-5.85 12.639-7.433 18.303-1.578 5.649-2.224 10.568-1.708 13.666.037.223.249.374.472.337.224-.037.375-.249.338-.472-.486-2.912.117-7.687 1.689-13.31 1.566-5.606 4.08-12.002 7.365-18.136 3.287-6.135 7.338-11.994 11.974-16.535 4.632-4.538 9.825-7.738 15.403-8.615z" fill="#000"/><path d="m149.314 248.748c.025.225-.138.428-.363.453-11.387 1.265-18.957 4.336-22.716 6.484-.197.113-.448.044-.56-.153-.112-.196-.044-.447.153-.56 3.865-2.208 11.545-5.31 23.032-6.587.226-.025.428.138.454.363z" fill="#000"/><path d="m177.082 213.678c.043.223-.104.438-.326.48-7.469 1.423-13.925 7.309-19.078 14.451-5.145 7.131-8.942 15.445-11.111 21.591-.075.214-.31.326-.524.251-.213-.076-.325-.31-.25-.524 2.188-6.198 6.016-14.587 11.219-21.798 5.194-7.199 11.81-13.295 19.59-14.777.223-.042.438.104.48.326z" fill="#000"/><path d="m171.678 215.704c-.174.145-.433.122-.578-.052l-3.04-3.631c-.146-.173-.123-.432.051-.578.174-.145.432-.122.578.052l3.04 3.63c.146.174.123.433-.051.579zm-8.818 6.723c-.177.141-.436.112-.577-.065l-6.944-8.714c-.141-.178-.112-.436.066-.577.177-.141.435-.112.576.065l6.944 8.714c.141.177.112.436-.065.577zm3-2.905c-.177.141-.435.112-.577-.065l-5.931-7.443c-.141-.178-.112-.436.066-.577.177-.141.435-.112.576.065l5.931 7.443c.142.178.112.436-.065.577zm2.767-2.358c-.178.14-.436.109-.576-.07l-4.403-5.628c-.139-.178-.108-.436.071-.576.178-.139.436-.108.576.071l4.403 5.627c.139.179.108.437-.071.576z" fill="#000"/><path d="m155.255 231.686c-.177.141-.435.112-.576-.065l-8.825-11.074c-.141-.178-.112-.436.066-.577.177-.141.435-.112.576.065l8.824 11.074c.142.177.113.436-.065.577zm2.711-3.268c-.177.141-.435.112-.576-.065l-8.535-10.711c-.142-.177-.112-.435.065-.577.177-.141.435-.112.577.065l8.534 10.711c.142.178.113.436-.065.577zm2.047-3.268c-.177.142-.436.112-.577-.065l-7.522-9.44c-.141-.177-.112-.435.065-.577.177-.141.436-.112.577.066l7.522 9.44c.141.177.112.435-.065.576z" fill="#000"/><path d="m149.821 243.667c-.177.142-.435.112-.576-.065l-10.85-13.616c-.141-.177-.112-.435.066-.576.177-.141.435-.112.576.065l10.85 13.616c.141.177.112.435-.066.576zm1.554-4.72c-.177.141-.435.112-.576-.065l-10.271-12.889c-.142-.178-.112-.436.065-.577s.435-.112.577.065l10.27 12.89c.142.177.112.435-.065.576zm1.758-3.631c-.178.142-.436.112-.577-.065l-9.692-12.163c-.142-.177-.112-.436.065-.577s.435-.112.577.065l9.692 12.164c.141.177.112.435-.065.576z" fill="#000"/><path d="m147.703 247.843c-.177.141-.435.112-.576-.066l-11.284-14.16c-.141-.177-.112-.435.065-.577.178-.141.436-.112.577.066l11.283 14.16c.142.177.113.435-.065.577zm-3.493 1.452c-.177.141-.435.112-.577-.065l-9.692-12.164c-.141-.177-.112-.435.065-.576.178-.141.436-.112.577.065l9.692 12.163c.141.178.112.436-.065.577zm-4.302 1.271c-.177.141-.436.112-.577-.065l-7.522-9.441c-.141-.177-.112-.435.065-.576.177-.142.435-.112.577.065l7.522 9.44c.141.177.112.436-.065.577z" fill="#000"/><path d="m136.047 251.474c-.177.141-.435.112-.576-.066l-5.208-6.535c-.141-.177-.112-.436.065-.577s.435-.112.577.065l5.207 6.536c.142.177.112.435-.065.577zm-3.638 1.27c-.177.142-.435.112-.576-.065l-3.183-3.994c-.141-.177-.112-.435.065-.577.178-.141.436-.112.577.066l3.183 3.994c.141.177.112.435-.066.576zm-3.868 1.816c-.177.141-.435.112-.577-.065l-1.446-1.816c-.141-.177-.112-.435.065-.577.177-.141.435-.112.577.066l1.446 1.815c.142.177.112.435-.065.577z" fill="#000"/><path d="m60.3664 282.863-1.5362 7.681-2.3581 2.087c-.5464 1.421-2.2515 7.162-1.2275 9.21l4.6098 1.417 2.0483 1.625v7.681l3.5845 1.536v1.024l7.1692-.512-.5121-5.633 5.6807.655 5.7466-4.251-1.6938-3.542v-6.376l1.0202-3.384 4.1367-2.561-1.5764-8.705-3.5805 1.19v-5.823l.5081-5.097-1.5363-1.024-3.0246-1.517-8.0055-2.125 1.8127 3.642-7.5387-.808-6.2875 8.501zm8.248 5.518 1.9943-1.933 1.5363 1.024.512 6.145-1.5362 2.048-2.5064 1.217z" fill="#fbfcfd"/><path d="m73.4493 282.041c.1761.143.2031.401.0603.577l-5.3133 6.553c-.1427.176-.4011.203-.5772.06-.176-.142-.203-.401-.0603-.577l5.3133-6.553c.1428-.176.4012-.203.5772-.06z" fill="#000"/><path d="m68.4088 287.971c.2266 0 .4104.183.4104.41 0 2.635-.077 5.264-.1539 7.889-.0078.267-.0157.534-.0234.801-.0066.227-.1956.405-.4221.399-.2266-.007-.4049-.196-.3983-.422.0077-.267.0155-.534.0233-.801.077-2.627.1536-5.244.1536-7.866 0-.227.1837-.41.4104-.41z" fill="#000"/><path d="m65.8983 297.093c.0786-.212.3146-.321.5272-.242 2.2443.829 4.3466 1.926 6.4346 3.016.3503.183.7002.365 1.0503.546.2013.105.2801.352.176.553-.1041.202-.3517.281-.5531.176-.3551-.183-.7082-.368-1.0602-.551-2.0901-1.091-4.1409-2.161-6.3321-2.97-.2126-.079-.3212-.315-.2427-.528z" fill="#000"/><path d="m78.5545 294.591c.1891.125.2412.38.1163.569-.2361.357-.4687.717-.7014 1.076-1.129 1.745-2.2582 3.489-3.7786 5.01-.1603.16-.4201.16-.5804 0-.1602-.16-.1602-.42 0-.581 1.4533-1.453 2.5275-3.111 3.6556-4.853.2362-.365.4749-.733.7199-1.104.1249-.189.3795-.241.5686-.117z" fill="#000"/><path d="m78.6815 285.845c.2266 0 .4104.183.4104.41 0 1.578-.0891 3.151-.1775 4.711l-.0003.006c-.0887 1.565-.1764 3.117-.1764 4.67 0 .227-.1838.41-.4104.41-.2267 0-.4104-.183-.4104-.41 0-1.578.0891-3.151.1774-4.711l.0004-.006c.0886-1.565.1764-3.118.1764-4.67 0-.227.1837-.41.4104-.41z" fill="#000"/><path d="m72.1003 282.386c.0829-.211.3211-.314.532-.231 1.9605.77 3.9523 1.17 6.043 1.59.2638.053.5291.106.7962.16.2221.046.3654.262.3202.484-.0452.223-.2619.366-.484.321-.265-.054-.5297-.107-.7942-.16-2.0829-.419-4.1488-.833-6.1813-1.632-.2109-.082-.3147-.321-.2319-.532z" fill="#000"/><path d="m72.3244 287.085c.2264.011.4014.203.3909.429-.0936 2.012-.1767 4.001-.1767 6.003 0 .227-.1837.41-.4104.41-.2266 0-.4103-.183-.4103-.41 0-2.023.0839-4.029.1775-6.041.0105-.226.2026-.401.429-.391z" fill="#000"/><path d="m73.3358 293.79c.1423.177.1146.435-.0619.578-1.4365 1.158-2.8455 2.327-4.2398 3.533-.1715.148-.4307.129-.5789-.042-.1482-.172-.1294-.431.0421-.579 1.4027-1.213 2.8189-2.388 4.2614-3.551.1764-.143.4348-.115.5771.061z" fill="#000"/><path d="m71.7202 294.182c.024-.225.2262-.388.4516-.364 1.737.185 3.4384.432 5.1584.711.2237.036.3756.247.3394.471-.0363.224-.2471.376-.4708.339-1.7116-.277-3.3971-.522-5.1141-.705-.2253-.024-.3885-.226-.3645-.452z" fill="#000"/><path d="m69.6129 285.953c.0691-.215.3001-.334.516-.265.762.243 1.3783.334 2.1773.334.2267 0 .4104.184.4104.411 0 .226-.1837.41-.4104.41-.8797 0-1.5808-.103-2.4275-.374-.2158-.069-.3348-.3-.2658-.516z" fill="#000"/><path d="m77.4838 285.09c.0566.22-.0754.443-.2948.5-1.2932.334-2.5718.695-3.8582 1.058-.4223.119-.8454.238-1.2701.357-.2183.061-.4447-.067-.5057-.285s.0665-.445.2847-.506c.4205-.117.8409-.236 1.2615-.355 1.2886-.363 2.5798-.727 3.8827-1.064.2194-.056.4432.076.4999.295z" fill="#000"/><path d="m65.8672 282.85c.2176.064.3429.291.2797.509-.1561.537-.3302 1.074-.5025 1.604-.0068.021-.0137.042-.0206.063-.1797.554-.3567 1.101-.5136 1.651-.3138 1.1-.541 2.19-.541 3.298 0 .226-.1838.41-.4104.41-.2267 0-.4104-.184-.4104-.41 0-1.218.2495-2.391.5726-3.523.1615-.566.343-1.127.5222-1.679.0064-.02.0128-.039.0192-.059.1734-.534.3439-1.059.4963-1.584.0631-.218.2908-.343.5085-.28z" fill="#000"/><path d="m63.7584 278.473c.1897-.124.444-.071.5681.119.6706 1.026 1.0825 1.965 1.4627 3.106.0717.215-.0445.447-.2596.519-.215.072-.4474-.045-.519-.26-.3641-1.092-.7483-1.963-1.3711-2.916-.124-.189-.0708-.444.1189-.568z" fill="#000"/><path d="m71.187 270.44c.2246-.03.4313.127.4618.352.1815 1.338.1811 2.649.1808 3.961v.167c0 .227-.1837.411-.4104.411-.2266 0-.4104-.184-.4104-.411 0-.049 0-.099.0001-.148.0002-1.327.0004-2.588-.1735-3.87-.0304-.224.127-.431.3516-.462z" fill="#000"/><path d="m70.2887 270.201c.1617.158.1641.418.0053.58-.4362.444-.8723.881-1.3053 1.314-2.0952 2.098-4.1172 4.122-5.7282 6.593-.1238.189-.3781.243-.5679.119-.1899-.124-.2434-.378-.1196-.568 1.6619-2.548 3.7554-4.643 5.8526-6.742.4286-.429.8574-.858 1.2827-1.291.1588-.162.4186-.164.5804-.005z" fill="#000"/><path d="m76.0421 273.861c.0959.205.0071.45-.1983.545-.7971.372-1.6026.724-2.4039 1.074-.2647.116-.529.231-.7923.347-.2075.091-.4497-.003-.5409-.21-.0913-.208.0029-.45.2103-.541.268-.118.5352-.235.8016-.351.7989-.349 1.5911-.695 2.3781-1.062.2054-.096.4496-.007.5454.198z" fill="#000"/><path d="m76.5978 269.199c.2255.023.39.224.3675.45-.0301.301-.0618.599-.0933.897-.131 1.236-.2589 2.443-.2589 3.667 0 .226-.1837.41-.4104.41-.2266 0-.4103-.184-.4103-.41 0-1.272.1337-2.533.2652-3.772.0311-.293.062-.584.091-.874.0226-.226.2237-.39.4492-.368z" fill="#000"/><path d="m80.3759 276.369c.1782-.14.4362-.109.5762.069.9938 1.265 1.1822 2.25 1.4604 3.703.0121.063.0243.127.0368.192.0428.223-.1029.438-.3255.481s-.4377-.103-.4805-.326c-.0103-.053-.0203-.105-.0302-.157-.2817-1.469-.4372-2.28-1.3064-3.386-.14-.178-.109-.436.0692-.576z" fill="#000"/><path d="m82.3109 271.508c.2216.048.3623.267.3144.488-.044.204-.088.407-.132.611-.3136 1.449-.6266 2.896-.9301 4.346-.0464.221-.2639.364-.4857.317-.2219-.046-.3641-.264-.3176-.485.304-1.453.6177-2.903.9312-4.352.044-.203.088-.407.132-.61.0479-.222.2663-.363.4878-.315z" fill="#000"/><path d="m76.4018 267.417c.1339-.183.3907-.223.5736-.089 1.5938 1.168 3.2909 2.123 5.0338 3.105.1383.078.2769.156.4157.234.1974.111.2672.362.1558.559-.1113.198-.3616.267-.559.156-.1409-.08-.2819-.159-.4228-.238-1.7348-.977-3.4732-1.956-5.1085-3.153-.1828-.134-.2225-.391-.0886-.574z" fill="#000"/><path d="m60.3647 291.874c.2229-.041.4371.106.4786.329.2704 1.453.1422 2.964.0199 4.405-.0097.114-.0194.228-.0288.342-.1304 1.568-.2164 3.047.1771 4.425.0623.218-.0639.445-.2819.507-.2179.062-.445-.064-.5073-.282-.4402-1.54-.3352-3.163-.2058-4.718.0089-.107.0179-.214.0268-.32.1238-1.466.2423-2.87-.007-4.209-.0414-.223.1056-.437.3284-.479z" fill="#000"/><path d="m64.7271 291.092c.0676.216-.053.446-.2693.514-.7868.246-1.5703.502-2.3568.759-.0391.012-.0782.025-.1173.038-.8249.269-1.6531.539-2.486.797-.2165.067-.4464-.054-.5134-.27-.067-.217.0542-.447.2707-.514.826-.256 1.6484-.524 2.4739-.793.0396-.013.0792-.026.1188-.039.7852-.257 1.5733-.514 2.3653-.761.2163-.068.4465.052.5141.269z" fill="#000"/><path d="m63.834 300.63c.0821.211-.0225.449-.2337.531-1.2038.468-2.219.99-3.28 1.726-.1862.129-.4419.083-.5711-.103-.1292-.187-.0829-.442.1033-.571 1.1198-.777 2.1933-1.328 3.4503-1.817.2112-.082.449.023.5312.234z" fill="#000"/><path d="m63.4856 301.404c.1437-.175.4023-.201.5775-.057.7886.647 1.4109 1.01 2.3574 1.348.2134.076.3246.311.2484.524-.0762.214-.311.325-.5245.249-1.0417-.372-1.7457-.784-2.6017-1.486-.1753-.144-.2008-.403-.0571-.578z" fill="#000"/><path d="m66.2843 304.619c.2266 0 .4103.184.4103.411 0 1.615-.0676 3.227-.1349 4.83-.0144.344-.0288.688-.0425 1.031-.0091.226-.2.402-.4265.393-.2264-.009-.4027-.2-.3936-.426.0138-.347.0283-.693.0428-1.038.0672-1.603.134-3.194.134-4.79 0-.227.1837-.411.4104-.411z" fill="#000"/><path d="m72.3283 310.464c.2263.012.3995.206.387.432-.0164.294-.0367.583-.0567.867-.0802 1.139-.1554 2.206.0501 3.284.0424.223-.1037.438-.3264.48-.2226.042-.4375-.104-.4799-.326-.2274-1.194-.1418-2.395-.06-3.543.0194-.272.0386-.542.0534-.807.0126-.227.2062-.4.4325-.387z" fill="#000"/><path d="m77.2429 304.259c.1323.184.0903.44-.0937.573-1.9556 1.405-3.4281 2.396-5.7943 3.072-.2179.062-.4451-.064-.5073-.282-.0623-.218.0639-.445.2818-.507 2.2229-.636 3.5997-1.555 5.5408-2.95.184-.132.4404-.09.5727.094z" fill="#000"/><path d="m76.7263 305.149c.2266-.003.4133.177.4171.404.0262 1.602.2494 3.118.5254 4.719.0385.223-.1114.436-.3347.474-.2234.039-.4356-.111-.4742-.335-.2775-1.609-.5098-3.177-.5372-4.844-.0037-.227.177-.414.4036-.418z" fill="#000"/><path d="m81.2676 300.729c.2233-.039.4357.111.4743.334.1738 1.004.4225 1.974.6995 2.971.0607.219-.0672.445-.2856.505-.2184.061-.4446-.067-.5052-.285-.2793-1.006-.5366-2.006-.7174-3.051-.0387-.223.111-.436.3344-.474z" fill="#000"/><path d="m83.2371 292.772c.2155.07.3335.302.2635.517-.2811.866-.5808 1.727-.8799 2.586-.6604 1.896-1.3181 3.785-1.7674 5.705-.0517.221-.2725.358-.4931.306-.2207-.051-.3578-.272-.3061-.493.4594-1.963 1.1409-3.921 1.8082-5.838.2955-.848.5883-1.689.8577-2.519.07-.216.3015-.334.5171-.264z" fill="#000"/><path d="m87.7308 289.798c.0978.204.0113.449-.1932.547-1.4125.676-2.8324 1.32-4.2614 1.953-.2073.092-.4497-.001-.5415-.209-.0918-.207.0018-.449.209-.541 1.4248-.631 2.8369-1.272 4.2398-1.943.2045-.098.4495-.012.5473.193z" fill="#000"/><path d="m85.2382 280.386c.1115.198.0419.448-.1554.559-1.2476.706-2.4231 1.293-3.7778 1.799-.2123.079-.4487-.029-.5279-.241-.0792-.213.0287-.449.241-.528 1.302-.486 2.4372-1.052 3.6609-1.744.1973-.112.4476-.042.5592.155z" fill="#000"/><path d="m86.1206 280.354c.2266 0 .4103.184.4103.411 0 2.413.1264 4.816.2535 7.234.0342.651.0684 1.302.1003 1.956.011.226-.1635.418-.3899.429-.2264.012-.4189-.163-.4299-.389-.0315-.647-.0655-1.293-.0996-1.941-.1273-2.421-.2551-4.852-.2551-7.289 0-.227.1837-.411.4104-.411z" fill="#000"/><path d="m63.6083 310.529c.0925-.207.3353-.3.5422-.207 2.2082.988 4.4583 1.829 6.7357 2.681.2851.106.5706.213.8565.32.2122.08.3197.316.2402.529-.0796.212-.3162.319-.5284.24-.2852-.107-.5706-.214-.8559-.321-2.2745-.85-4.5499-1.701-6.7833-2.7-.2069-.092-.2996-.335-.207-.542z" fill="#000"/><path d="m83.4092 304.751c.1541.166.1443.425-.022.58-.3169.293-.6335.582-.948.869-1.4177 1.293-2.7939 2.549-3.9673 4.042-.1401.178-.398.209-.5763.069-.1782-.14-.2091-.398-.0691-.576 1.2195-1.552 2.6567-2.863 4.0771-4.158.3102-.283.6196-.565.9257-.848.1662-.155.4259-.145.5799.022z" fill="#000"/><path d="m59.3291 310.611c.0473-.222.2653-.363.4869-.316 1.6181.345 3.1446.345 4.8555.345h.018c.2266 0 .4104.184.4104.411 0 .226-.1838.41-.4104.41h-.0556c-1.6851 0-3.286 0-4.9891-.363-.2217-.047-.363-.265-.3157-.487z" fill="#000"/><path d="m62.0728 306.038c.2255.022.3906.223.3686.448-.0173.178-.0348.354-.0522.53-.1523 1.541-.3001 3.037-.3001 4.567 0 .226-.1838.41-.4104.41-.2267 0-.4104-.184-.4104-.41 0-1.573.1521-3.11.3039-4.645.0175-.177.035-.354.0523-.531.022-.226.2227-.391.4483-.369z" fill="#000"/><path d="m59.1284 302.576c.1807-.136.4381-.101.5749.08.5454.72 1.1322 1.099 1.9583 1.633.0208.014.0418.027.0629.041.1903.123.2447.377.1216.568-.1231.19-.3772.244-.5675.121-.0326-.021-.0651-.042-.0974-.063-.802-.518-1.4982-.968-2.1321-1.805-.1368-.18-.1013-.438.0793-.575z" fill="#000"/><path d="m53.3329 301.146c.0903-.207.332-.303.5399-.213 1.7436.758 3.3638.95 5.3046 1.18.082.009.1647.019.248.029.225.027.3858.231.359.456s-.231.386-.456.359c-.0941-.011-.1876-.022-.2807-.033-1.9153-.227-3.645-.431-5.5018-1.238-.2079-.09-.3033-.332-.213-.54z" fill="#000"/><path d="m55.7083 293.11c.2249.027.3848.232.3572.457-.0435.353-.0877.704-.1317 1.054-.2912 2.312-.5737 4.556-.5737 6.866 0 .226-.1837.41-.4104.41-.2266 0-.4104-.184-.4104-.41 0-2.366.2898-4.665.5807-6.974.0439-.348.0879-.697.1308-1.046.0277-.225.2325-.385.4575-.357z" fill="#000"/><path d="m61.0242 292.573c.0321.224-.1238.432-.3482.464-1.9643.281-3.8878.515-5.8984.536-.2267.002-.4123-.18-.4146-.406-.0023-.227.1795-.413.4061-.415 1.9545-.02 3.8343-.248 5.7909-.527.2243-.032.4322.124.4642.348z" fill="#000"/><path d="m59.3833 290.31c.1085.199.0352.448-.1638.556-.1718.094-.3439.188-.5163.283-1.1703.64-2.3551 1.289-3.5818 1.855-.2058.095-.4496.005-.5446-.201-.0949-.205-.0051-.449.2007-.544 1.1992-.554 2.3572-1.187 3.5297-1.829.1727-.095.3457-.189.5193-.284.199-.109.4482-.035.5568.164z" fill="#000"/><path d="m59.4419 283.549c.2236.037.3746.248.3374.472-.3697 2.218-.7029 4.445-.7029 6.663 0 .226-.1837.41-.4104.41-.2266 0-.4103-.184-.4103-.41 0-2.292.3441-4.579.714-6.798.0372-.224.2487-.375.4722-.337z" fill="#000"/><path d="m58.6478 277.699c.2264-.01.4182.165.4282.391.0331.745.2321 1.481.5011 2.229.1344.373.2843.745.4378 1.12.0191.047.0383.094.0575.141.134.327.2696.659.3943.988.0803.212-.0266.449-.2385.529-.212.081-.4489-.026-.5291-.238-.1205-.319-.2516-.639-.386-.967-.0193-.047-.0386-.095-.058-.142-.1536-.376-.3095-.762-.4503-1.153-.2814-.783-.5104-1.608-.5487-2.47-.0101-.227.1653-.418.3917-.428z" fill="#000"/><path d="m56.1315 278.463c0-.227.1837-.41.4103-.41 2.2381 0 4.4408.166 6.6512.333.0956.008.1913.015.287.022.226.017.3954.214.3784.44-.0171.226-.2141.396-.4401.379-.0925-.007-.1848-.014-.2771-.021-2.2183-.168-4.3931-.333-6.5994-.333-.2266 0-.4103-.183-.4103-.41z" fill="#000"/><path d="m63.8967 269.653c.1704.149.1872.409.0377.579-.0334.038-.0667.076-.1.114-1.5227 1.734-3.0296 3.45-4.4739 5.245-.0889.11-.1765.218-.2626.324-.5927.729-1.1134 1.369-1.4725 2.182-.0916.207-.3339.301-.5413.209-.2073-.091-.3011-.333-.2095-.541.407-.921 1.0027-1.652 1.591-2.374.0855-.105.1709-.21.2555-.315 1.4554-1.808 2.9725-3.536 4.4918-5.266l.1047-.12c.1495-.17.4088-.187.5791-.037z" fill="#000"/><path d="m70.7677 269.595c.0069.227-.1712.416-.3977.423-.4326.013-.8654.027-1.2985.04-2.164.069-4.3342.137-6.5068.137-.2266 0-.4104-.184-.4104-.41 0-.227.1838-.411.4104-.411 2.1585 0 4.3134-.068 6.4772-.136.434-.014.8684-.027 1.3032-.041.2266-.006.4158.172.4226.398z" fill="#000"/><path d="m71.5667 272.295c.0807-.212.3178-.318.5296-.238.9571.365 1.957.476 3.0204.594.2565.029.5167.058.7809.091.2249.028.3844.233.3563.458s-.2332.385-.4581.356c-.2382-.029-.481-.056-.7267-.083-1.0713-.119-2.2004-.243-3.265-.649-.2118-.08-.318-.318-.2374-.529z" fill="#000"/><path d="m69.2348 267.089c.2171.065.3403.294.2751.511-.01.033-.0199.066-.0299.099-.1846.615-.363 1.21-.4932 1.817-.0475.222-.2656.363-.4873.315-.2216-.047-.3627-.265-.3152-.487.1373-.641.3247-1.265.507-1.872.0109-.036.0217-.072.0325-.108.0651-.217.2939-.34.511-.275z" fill="#000"/><path d="m68.713 266.365c.0298-.224.236-.382.4607-.353 1.375.182 2.6934.569 3.9755.956.0748.023.1494.046.2239.068 1.213.367 2.3942.724 3.6071.927.2235.037.3746.248.3373.472-.0373.223-.2487.374-.4723.337-1.267-.211-2.4959-.583-3.6972-.946-.0788-.024-.1575-.048-.2361-.072-1.286-.388-2.5453-.756-3.8459-.928-.2247-.03-.3827-.236-.353-.461z" fill="#000"/><path d="m59.7215 311.571c.1037-.201.3512-.281.5527-.177 1.7598.907 3.5251 1.792 5.3041 2.652.2041.099.2894.344.1907.548-.0987.205-.3441.29-.5481.191-1.786-.864-3.5574-1.752-5.3225-2.661-.2015-.104-.2807-.351-.1769-.553z" fill="#000"/><path d="m68.8938 315.268c-1.3209.132-2.6669.267-4.0249.267-.2266 0-.4103-.184-.4103-.411 0-.226.1837-.41.4103-.41 1.3121 0 2.6193-.131 3.9486-.264l.0144-.001c1.3178-.132 2.658-.266 4.007-.266.2267 0 .4104.183.4104.41s-.1837.41-.4104.41c-1.306 0-2.6101.131-3.9396.264z" fill="#000"/><path d="m72.3092 306.744c.2266.002.4086.188.4065.414-.0114 1.232-.0752 2.462-.1385 3.682-.0132.255-.0264.509-.0391.763-.0113.226-.204.4-.4303.389-.2264-.011-.4007-.204-.3894-.43.0128-.257.0261-.514.0394-.77.0633-1.219.126-2.429.1372-3.641.0021-.227.1875-.409.4142-.407z" fill="#000"/><path d="m72.1007 309.129c.0833-.211.3217-.314.5325-.231 1.1113.439 2.2161.601 3.4322.78.1814.026.3652.053.5519.081.2241.034.3782.244.3443.468-.034.224-.2432.378-.4673.344-.1802-.027-.3603-.054-.5403-.08-1.21-.177-2.4161-.353-3.6226-.83-.2108-.083-.3141-.321-.2307-.532z" fill="#000"/><path d="m76.1414 270.972-6.145-1.536.1991-.796 6.1449 1.536zm-14.1583.224 5.1208 1.024-.1609.805-5.1208-1.024zm2.5604 4.096-.1609.805-5.1208-1.024.1609-.805zm-4.1771 7.162h5.6329v.82h-5.6329zm4.0595 4.915-5.6329-.512.0743-.817 5.6329.512zm7.7184.717h6.657v.821h-6.657zm-13.277 2.05 5.6329.513-.0743.817-5.6329-.512zm19.8716 2.351-6.657-1.024.1248-.811 6.657 1.024zm-23.9037 3.281h5.5312v.82h-4.7104v2.291l4.7513.475-.0817.817-5.4904-.549zm16.4373.029 5.1208 2.048-.3048.762-5.1208-2.048zm-8.9595 9.928 4.2874-.953-.178-.801-4.9301 1.095v3.3h5.0191v-.821h-4.1984zm13.9279 2.641h-4.0966v-.821h4.0966zm-6.5946 4.604-6.6571 1.024-.1248-.811 6.6571-1.024z" fill="#000"/></g></svg>