<svg fill="none" viewBox="0 0 150 150" xmlns="http://www.w3.org/2000/svg"><path clip-rule="evenodd" d="m38.1379 59.834c2.5655 0 4.6453-2.0798 4.6453-4.6453 0-2.5656-2.0798-4.6453-4.6453-4.6453s-4.6453 2.0797-4.6453 4.6453c0 2.5655 2.0798 4.6453 4.6453 4.6453zm0 4.7386c5.1826 0 9.384-4.2013 9.384-9.3839 0-5.1827-4.2014-9.384-9.384-9.384s-9.384 4.2013-9.384 9.384c0 5.1826 4.2014 9.3839 9.384 9.3839z" fill="#fcf4e3" fill-rule="evenodd"/><path clip-rule="evenodd" d="m39.4916 52.0075v-7.6081h-2.7078v7.6078l-5.3797-5.3796-1.9147 1.9147 5.38 5.38h-7.6084v2.7078h7.608l-5.3796 5.3796 1.9147 1.9148 5.3797-5.3798v7.6083h2.7078v-7.6085l5.38 5.38 1.9147-1.9148-5.3796-5.3796h7.6079v-2.7078h-7.6084l5.38-5.38-1.9147-1.9147z" fill="#fcf4e3" fill-rule="evenodd"/><path d="m45.1663 55.2768c0 3.8815-3.1466 7.0281-7.0282 7.0281-3.8815 0-7.0281-3.1466-7.0281-7.0281 0-3.8816 3.1466-7.0282 7.0281-7.0282 3.8816 0 7.0282 3.1466 7.0282 7.0282z" fill="#fafbfc" stroke="#000" stroke-width=".3"/><path d="m38.1381 61.928c3.6734 0 6.6512-2.9779 6.6512-6.6512 0-3.6734-2.9778-6.6512-6.6512-6.6512-3.6733 0-6.6512 2.9778-6.6512 6.6512 0 3.6733 2.9779 6.6512 6.6512 6.6512zm7.0282-6.6512c0 3.8815-3.1466 7.0281-7.0282 7.0281-3.8815 0-7.0281-3.1466-7.0281-7.0281 0-3.8816 3.1466-7.0282 7.0281-7.0282 3.8816 0 7.0282 3.1466 7.0282 7.0282z" fill="#fcf4e3" stroke="#000" stroke-width=".3"/><path d="m37.3118 46.0995c.0236.1855-.1077.3549-.2931.3785-1.5596.1983-2.9915.8056-4.1851 1.7114-.1489.1131-.3613.0839-.4743-.065s-.0839-.3612.065-.4742c1.2854-.9755 2.8284-1.6301 4.509-1.8437.1855-.0236.3549.1076.3785.293zm1.8625.0213c.0279-.1849.2003-.3121.3851-.2843 1.5967.2407 3.0625.8803 4.2925 1.8137.1489.113.178.3253.065.4742s-.3254.1781-.4743.065c-1.1422-.8667-2.5025-1.4602-3.984-1.6835-.1849-.0278-.3122-.2003-.2843-.3851zm-8.1936 3.4042c.1507.1107.1832.3225.0725.4732-.8644 1.1773-1.4421 2.5776-1.631 4.0985-.023.1855-.1921.3172-.3776.2942-.1855-.0231-.3172-.1921-.2942-.3776.2036-1.639.8263-3.1478 1.7571-4.4157.1107-.1507.3225-.1832.4732-.0726zm14.402.1118c.1523-.1083.3637-.0726.4719.0798.8833 1.2429 1.474 2.7088 1.6712 4.2967.023.1855-.1087.3545-.2942.3776-.1855.023-.3546-.1087-.3776-.2942-.183-1.4736-.7311-2.8339-1.5512-3.9879-.1083-.1524-.0725-.3637.0799-.472zm1.8352 6.4984c.1851.026.3141.1971.2881.3822-.2371 1.6888-.9199 3.2344-1.9253 4.5138-.1155.147-.3283.1725-.4753.057-.1469-.1155-.1725-.3283-.057-.4753.9337-1.1882 1.5672-2.6226 1.7872-4.1896.026-.1851.1972-.3141.3823-.2881zm-18.1303.2508c.1843-.0311.3589.0931.3901.2774.2396 1.4198.82 2.724 1.6545 3.8257.1129.149.0836.3613-.0654.4742s-.3613.0836-.4742-.0654c-.8986-1.1863-1.5242-2.5916-1.7825-4.1218-.0311-.1843.0931-.359.2775-.3901zm14.742 5.9415c.1111.1503.0794.3623-.0708.4734-1.2062.8923-2.6324 1.5049-4.1824 1.7414-.1848.0282-.3575-.0988-.3857-.2836s.0988-.3574.2835-.3856c1.4383-.2195 2.7619-.7878 3.882-1.6164.1502-.1112.3622-.0795.4734.0708zm-11.2392.1126c.1082-.1525.3195-.1884.4719-.0803 1.0893.7726 2.3618 1.303 3.7396 1.5133.1848.0282.3118.2008.2836.3856s-.2009.3118-.3857.2836c-1.4848-.2266-2.8561-.7983-4.0291-1.6303-.1525-.1082-.1884-.3195-.0803-.4719z" style="fill-rule:evenodd;clip-rule:evenodd;fill:#000;stroke:#000;stroke-width:.3;stroke-linecap:round;stroke-linejoin:round"/><path d="m27.001 53.847c.0298-.1845.2036-.3099.3881-.2801.0625.0101.1243.0202.1857.0302.5484.0898 1.0564.1729 1.5813.1729.1869 0 .3384.1515.3384.3385 0 .1869-.1515.3385-.3384.3385-.5834 0-1.1471-.0925-1.688-.1813-.0627-.0103-.125-.0205-.187-.0305-.1846-.0299-.31-.2037-.2801-.3882z" style="fill-rule:evenodd;clip-rule:evenodd;fill:#000;stroke:#000;stroke-width:.3;stroke-linecap:round"/><path d="m27.136 53.7343c.1811-.0464.3654.0629.4118.2439.1793.7004.13 1.435.0855 2.0979-.0113.1686-.0223.3326-.0291.4902-.0082.1867-.1661.3316-.3529.3234-.1868-.0081-.3316-.1661-.3235-.3528.0084-.1932.0207-.3808.0327-.564.0424-.6487.0812-1.2419-.0685-1.8268-.0464-.1811.0629-.3655.244-.4118z" style="fill-rule:evenodd;clip-rule:evenodd;fill:#000;stroke:#000;stroke-width:.3;stroke-linecap:round"/><path d="m27.0225 56.6944c.0235-.1855.1929-.3168.3784-.2932.2627.0333.5389.0779.8079.1214.1919.031.3802.0614.5573.0867.1851.0265.3136.1979.2872.383-.0264.185-.1979.3136-.3829.2872-.2088-.0299-.4038-.0615-.595-.0926-.2518-.041-.4972-.0809-.7597-.1142-.1854-.0235-.3167-.1929-.2932-.3783z" style="fill-rule:evenodd;clip-rule:evenodd;fill:#000;stroke:#000;stroke-width:.3;stroke-linecap:round"/><path d="m31.0012 60.7305c.1363.1279.143.3421.015.4784-.4806.5115-.9855.9755-1.5755 1.3835-.1538.1064-.3646.0679-.4709-.0858-.1063-.1538-.0679-.3646.0859-.471.54-.3734 1.009-.8026 1.4671-1.2902.128-.1362.3422-.1429.4784-.0149z" style="fill-rule:evenodd;clip-rule:evenodd;fill:#000;stroke:#000;stroke-width:.3;stroke-linecap:round"/><path d="m29.1314 61.8215c.1065-.1537.3173-.1919.471-.0854.3973.2754.7707.5785 1.1325.8751.0263.0215.0524.0429.0786.0643.3372.2766.6651.5455 1.0074.7934.1514.1096.1852.3212.0756.4727-.1096.1514-.3213.1852-.4727.0756-.3596-.2604-.7027-.5419-1.0367-.8158-.0272-.0223-.0542-.0445-.0813-.0667-.3627-.2973-.7169-.5842-1.0891-.8422-.1536-.1065-.1918-.3174-.0853-.471z" style="fill-rule:evenodd;clip-rule:evenodd;fill:#000;stroke:#000;stroke-width:.3;stroke-linecap:round"/><path d="m32.825 62.5545c.1347.1295.1389.3438.0094.4785-.398.4139-.8518.795-1.3157 1.1247-.1523.1083-.3636.0726-.4719-.0798-.1084-.1524-.0726-.3637.0797-.472.4344-.3087.8551-.6627 1.2199-1.0421.1296-.1347.3438-.1389.4786-.0093z" style="fill-rule:evenodd;clip-rule:evenodd;fill:#000;stroke:#000;stroke-width:.3;stroke-linecap:round"/><path d="m36.7254 63.9835c.1858-.0206.3532.1133.3738.2991.0216.1942.0323.3868.041.5716.0017.0357.0034.071.005.106.0068.1489.0133.2919.0243.4353.0095.1247.0187.1871.0427.2433.0737.1718-.0059.3708-.1777.4444-.1719.0736-.3708-.0059-.4445-.1778-.0731-.1706-.0862-.3362-.0955-.4584-.0118-.1547-.0189-.3103-.0258-.4599-.0015-.034-.0031-.0676-.0046-.1009-.0087-.1827-.0186-.3573-.0377-.5289-.0206-.1858.1133-.3531.299-.3738z" style="fill-rule:evenodd;clip-rule:evenodd;fill:#000;stroke:#000;stroke-width:.3;stroke-linecap:round"/><path d="m36.3566 65.8308c.0183-.186.1839-.322.37-.3038.0957.0094.1912.0189.2864.0284.904.0897 1.7875.1775 2.677.1775.1869 0 .3384.1515.3384.3384 0 .187-.1515.3385-.3384.3385-.925 0-1.8423-.0912-2.7413-.1805-.0963-.0096-.1924-.0191-.2883-.0286-.186-.0182-.322-.1839-.3038-.3699z" style="fill-rule:evenodd;clip-rule:evenodd;fill:#000;stroke:#000;stroke-width:.3;stroke-linecap:round"/><path d="m39.1566 63.9326c.1751-.0654.3701.0235.4356.1986.1078.2887.1289.5952.1461.8442.0015.0228.0031.045.0046.0668.0203.2812.0453.4911.1346.6696.0836.1672.0158.3705-.1514.4541s-.3705.0159-.4541-.1513c-.1568-.3136-.1846-.6511-.2043-.9238-.0011-.0162-.0023-.0321-.0034-.0477-.0193-.2713-.0343-.4824-.1063-.6749-.0654-.1751.0235-.3701.1986-.4356z" style="fill-rule:evenodd;clip-rule:evenodd;fill:#000;stroke:#000;stroke-width:.3;stroke-linecap:round"/><path d="m43.2958 62.4736c.1152-.1472.328-.1731.4752-.0579.2441.1911.4882.3729.7358.5575.1589.1183.3192.2378.482.3616.1489.1131.1778.3254.0647.4742-.1131.1489-.3255.1778-.4743.0647-.1514-.1151-.3076-.2315-.4653-.349-.2541-.1894-.512-.3817-.7601-.5759-.1473-.1152-.1732-.328-.058-.4752z" style="fill-rule:evenodd;clip-rule:evenodd;fill:#000;stroke:#000;stroke-width:.3;stroke-linecap:round"/><path d="m46.5798 62.2507c.1251.139.1138.353-.0251.478-.3679.3312-.7687.6283-1.1551.9147-.1474.1092-.2927.2169-.4332.3243-.1485.1135-.3609.0852-.4745-.0634-.1135-.1485-.0851-.3609.0634-.4744.158-.1208.3136-.2361.4667-.3496.3765-.279.7374-.5466 1.0798-.8547.139-.1251.353-.1138.478.0251z" style="fill-rule:evenodd;clip-rule:evenodd;fill:#000;stroke:#000;stroke-width:.3;stroke-linecap:round"/><path d="m45.1203 60.877c.1319-.1325.3462-.1329.4787-.001.0722.0719.1479.1526.2216.2312.0197.021.0393.0419.0586.0624.0944.1002.188.1974.2842.2864.1976.1829.3769.3032.5466.3456.1814.0454.2917.2292.2463.4105-.0453.1814-.2291.2916-.4104.2463-.3376-.0844-.6193-.2991-.8423-.5056-.1141-.1056-.2208-.2167-.3172-.3191-.0222-.0236-.0437-.0465-.0646-.0687-.0723-.0772-.1373-.1465-.2004-.2093-.1325-.1319-.133-.3462-.0011-.4787z" style="fill-rule:evenodd;clip-rule:evenodd;fill:#000;stroke:#000;stroke-width:.3;stroke-linecap:round"/><path d="m49.0758 56.3031c.0481.1806-.0592.3661-.2399.4143-.5971.1592-1.1618.1757-1.7524.1254-.1863-.0158-.3244-.1797-.3086-.3659.0159-.1863.1797-.3244.366-.3086.5389.0459 1.0208.0282 1.5206-.105.1806-.0482.3661.0592.4143.2398z" style="fill-rule:evenodd;clip-rule:evenodd;fill:#000;stroke:#000;stroke-width:.3;stroke-linecap:round"/><path d="m49.1538 54.0013c.0206.1858-.1133.3532-.299.3738-.0949.0105-.1837.0258-.283.0428-.0452.0078-.0926.0159-.1437.0241-.4038.065-.7727.0301-1.1344-.0222-.185-.0268-.3133-.1984-.2865-.3834.0267-.185.1984-.3133.3834-.2866.3418.0494.6291.0723.9299.0239.0362-.0059.0751-.0125.1158-.0195.1077-.0184.2279-.039.3437-.0519.1858-.0206.3531.1132.3738.299z" style="fill-rule:evenodd;clip-rule:evenodd;fill:#000;stroke:#000;stroke-width:.3;stroke-linecap:round"/><path d="m48.9505 53.9132c.1847-.0285.3576.0981.3861.2829.0967.6266.2145 1.2491.3428 1.8736.0376.1831-.0803.362-.2634.3996-.1831.0377-.3621-.0803-.3997-.2634-.1297-.631-.2498-1.2652-.3487-1.9066-.0285-.1847.0981-.3576.2829-.3861z" style="fill-rule:evenodd;clip-rule:evenodd;fill:#000;stroke:#000;stroke-width:.3;stroke-linecap:round"/><path d="m45.0715 46.4746c.1427.1208.1605.3343.0397.4771-.3332.3937-.7517.6973-1.1307.9721-.0662.0481-.1313.0952-.1944.1418-.1504.1111-.3623.0791-.4733-.0713-.1111-.1504-.0791-.3623.0713-.4733.0717-.0529.1423-.1043.2116-.1547.3805-.2769.723-.526.9987-.8519.1208-.1427.3344-.1605.4771-.0398z" style="fill-rule:evenodd;clip-rule:evenodd;fill:#000;stroke:#000;stroke-width:.3;stroke-linecap:round"/><path d="m44.4715 46.548c.1152-.1473.3279-.1733.4752-.0582.4017.3142.7752.652 1.1375.9862.0615.0567.1225.1132.1833.1695.3005.2782.5951.5509.9027.8123.1424.1211.1597.3347.0386.4771-.121.1425-.3346.1598-.4771.0387-.3195-.2716-.6264-.5557-.927-.834-.0601-.0556-.1199-.111-.1795-.166-.3608-.3328-.7171-.6546-1.0956-.9505-.1472-.1152-.1732-.3279-.0581-.4751z" style="fill-rule:evenodd;clip-rule:evenodd;fill:#000;stroke:#000;stroke-width:.3;stroke-linecap:round"/><path d="m47.0557 48.3559c.1603.0962.2123.3041.1161.4644-.0308.0513-.0724.1155-.1501.1804-.2469.2062-.5124.399-.7658.5831-.0873.0634-.1732.1258-.2564.1873-.1503.1112-.3623.0795-.4734-.0708-.1112-.1503-.0794-.3623.0709-.4734.0936-.0693.1859-.1363.2769-.2025.2463-.1789.4831-.3509.7097-.5398.0017-.0027.0041-.0066.0077-.0126.0962-.1603.3041-.2123.4644-.1161z" style="fill-rule:evenodd;clip-rule:evenodd;fill:#000;stroke:#000;stroke-width:.3;stroke-linecap:round"/><path d="m29.085 48.6537c.1204-.143.3339-.1613.4769-.0409.331.2788.7017.5442 1.0733.7565.1624.0928.2187.2995.126.4618-.0928.1624-.2995.2187-.4618.126-.4119-.2354-.8159-.5253-1.1736-.8265-.143-.1204-.1613-.3339-.0408-.4769z" style="fill-rule:evenodd;clip-rule:evenodd;fill:#000;stroke:#000;stroke-width:.3;stroke-linecap:round"/><path d="m31.8231 46.5324c.1211.1424.1037.356-.0387.4771-.1897.1612-.3988.3223-.5998.4772-.1277.0984-.2521.1943-.3661.2861-.4053.326-.7856.6809-1.1752 1.0444-.1075.1002-.2156.2012-.3252.3023-.1374.1268-.3515.1183-.4783-.0191s-.1183-.3515.0191-.4783c.1034-.0955.2075-.1926.3125-.2906.3921-.3659.7962-.743 1.2227-1.0862.1402-.1128.2732-.215.4028-.3146.1863-.1432.3655-.281.5491-.437.1424-.1211.356-.1038.4771.0387z" style="fill-rule:evenodd;clip-rule:evenodd;fill:#000;stroke:#000;stroke-width:.3;stroke-linecap:round"/><path d="m31.1404 46.9841c.1116-.15.3237-.1811.4737-.0695.0473.0352.0981.0719.1512.1102.2437.1757.5356.3862.7564.6511l.0001.0001c.0002.0002.0014.0013.0045.0035.0033.0023.0084.0057.0167.0108.0087.0052.0186.0109.0327.019.1623.0928.2187.2995.126.4618-.0928.1624-.2995.2187-.4619.126-.0019-.0011-.004-.0023-.0061-.0035-.0551-.0314-.1494-.0852-.2321-.1843-.1607-.1929-.3654-.3413-.6039-.5142-.0605-.0439-.1231-.0893-.1878-.1374-.15-.1116-.1811-.3237-.0695-.4736z" style="fill-rule:evenodd;clip-rule:evenodd;fill:#000;stroke:#000;stroke-width:.3;stroke-linecap:round"/><path d="m36.5955 44.5781c.1848-.0281.3574.099.3855.2838.0153.1004.0296.1992.0436.2966.0451.3121.0881.6101.1559.9037.042.1822-.0716.3639-.2537.4059-.1822.0421-.3639-.0715-.406-.2537-.0747-.3239-.1232-.6603-.169-.9779-.0134-.0928-.0265-.184-.04-.2729-.0281-.1848.0989-.3574.2837-.3855z" style="fill-rule:evenodd;clip-rule:evenodd;fill:#000;stroke:#000;stroke-width:.3;stroke-linecap:round"/><path d="m39.6907 44.79c.0117.1866-.1301.3473-.3167.359-.9367.0585-1.8527.0722-2.7953.0257-.1867-.0091-.3306-.168-.3214-.3547.0091-.1867.168-.3306.3547-.3214.914.045 1.8044.0319 2.7198-.0253.1866-.0116.3473.1302.3589.3167z" style="fill-rule:evenodd;clip-rule:evenodd;fill:#000;stroke:#000;stroke-width:.3;stroke-linecap:round"/><path d="m39.4685 44.4729c.1869-.0067.3437.1393.3504.3262.0171.479-.0103.9343-.0522 1.3959-.017.1862-.1816.3234-.3678.3065-.1861-.0169-.3233-.1816-.3064-.3677.0408-.449.0655-.8723.0499-1.3106-.0067-.1868.1393-.3437.3261-.3503z" style="fill-rule:evenodd;clip-rule:evenodd;fill:#000;stroke:#000;stroke-width:.3;stroke-linecap:round"/><path clip-rule="evenodd" d="m38.1713 48.9846c-3.4398 0-6.2282 2.7884-6.2282 6.2282 0 3.4397 2.7884 6.2282 6.2282 6.2282 3.4397 0 6.2282-2.7885 6.2282-6.2282 0-3.4398-2.7885-6.2282-6.2282-6.2282zm-6.9052 6.2282c0-3.8136 3.0916-6.9052 6.9052-6.9052s6.9051 3.0916 6.9051 6.9052-3.0915 6.9051-6.9051 6.9051-6.9052-3.0915-6.9052-6.9051z" fill="#000" fill-rule="evenodd" stroke="#000" stroke-width=".3"/><path clip-rule="evenodd" d="m51.2219 95.4425c4.326 0 7.8329-3.5069 7.8329-7.8329 0-4.3259-3.5069-7.8328-7.8329-7.8328-4.3259 0-7.8328 3.5069-7.8328 7.8328 0 4.326 3.5069 7.8329 7.8328 7.8329zm0 4.7385c6.9431 0 12.5716-5.6283 12.5716-12.5714 0-6.943-5.6285-12.5715-12.5716-12.5715-6.943 0-12.5715 5.6285-12.5715 12.5715 0 6.9431 5.6285 12.5714 12.5715 12.5714z" fill="#fcf4e3" fill-rule="evenodd"/><path clip-rule="evenodd" d="m52.5759 84.4558v-11.3025h-2.7078v11.3023l-7.9922-7.9921-1.9147 1.9147 7.9928 7.9928h-11.3034v2.7078h11.3023l-7.9918 7.9918 1.9147 1.9148 7.9923-7.9923v11.3029h2.7078v-11.3031l7.9925 7.9925 1.9147-1.9148-7.9918-7.9918h11.3023v-2.7078h-11.3034l7.9928-7.9928-1.9147-1.9147z" fill="#fcf4e3" fill-rule="evenodd"/><path d="m60.6884 87.7258c0 5.2282-4.2383 9.4665-9.4665 9.4665s-9.4664-4.2383-9.4664-9.4665 4.2382-9.4664 9.4664-9.4664 9.4665 4.2382 9.4665 9.4664z" fill="#fafbfc" stroke="#000" stroke-width=".3"/><path d="m51.2219 96.8153c5.02 0 9.0895-4.0695 9.0895-9.0895s-4.0695-9.0895-9.0895-9.0895-9.0895 4.0695-9.0895 9.0895 4.0695 9.0895 9.0895 9.0895zm9.4665-9.0895c0 5.2282-4.2383 9.4665-9.4665 9.4665s-9.4664-4.2383-9.4664-9.4665 4.2382-9.4664 9.4664-9.4664 9.4665 4.2382 9.4665 9.4664z" fill="#fcf4e3" stroke="#000" stroke-width=".3"/><path d="m50.0008 75.4452c.0236.1855-.1076.3549-.2931.3785-2.1099.2683-4.047 1.0899-5.6617 2.3153-.1489.113-.3613.0839-.4743-.065-.113-.149-.0839-.3613.065-.4743 1.7065-1.295 3.7547-2.1639 5.9856-2.4475.1855-.0236.3549.1076.3785.293zm2.7229.0311c.0279-.1848.2003-.3121.3852-.2842 2.1194.3194 4.0652 1.1685 5.6981 2.4076.1489.113.178.3253.065.4743-.113.1489-.3253.178-.4743.065-1.5451-1.1726-3.3854-1.9754-5.3897-2.2775-.1849-.0279-.3121-.2003-.2843-.3852zm-11.1585 4.6362c.1507.1106.1831.3225.0725.4732-1.1693 1.5926-1.9509 3.4869-2.2065 5.5445-.023.1855-.1921.3172-.3776.2942s-.3172-.1921-.2941-.3776c.2701-2.1756 1.0967-4.1786 2.3325-5.8618.1107-.1507.3225-.1831.4732-.0725zm19.4287.1507c.1524-.1082.3637-.0725.472.0799 1.1725 1.65 1.9566 3.5958 2.2184 5.7037.023.1855-.1087.3546-.2942.3776s-.3546-.1087-.3776-.2942c-.2476-1.9935-.9891-3.8338-2.0985-5.395-.1082-.1524-.0725-.3637.0799-.472zm2.376 8.726c.1851.026.3141.1971.2881.3822-.3147 2.2417-1.2211 4.2935-2.5558 5.992-.1155.147-.3283.1725-.4753.057s-.1725-.3283-.057-.4753c1.263-1.6073 2.1201-3.5478 2.4178-5.6678.0259-.1851.1971-.3141.3822-.2881zm-24.2537.3355c.1843-.0311.3589.0931.3901.2774.3241 1.9209 1.1094 3.6853 2.2383 5.1756.1129.149.0836.3613-.0654.4741-.149.1129-.3613.0836-.4742-.0654-1.193-1.5749-2.0234-3.4403-2.3663-5.4716-.0311-.1843.0931-.359.2775-.3901zm19.638 7.9148c.1112.1503.0795.3622-.0708.4734-1.6013 1.1845-3.4945 1.9977-5.5521 2.3111-.1848.029-.3574-.0983-.3856-.2831s.0987-.3574.2835-.3856c1.9458-.2969 3.7364-1.0658 5.2516-2.1866.1503-.1112.3622-.0795.4734.0708zm-14.8707.1489c.1082-.1525.3195-.1884.4719-.0803 1.4735 1.0452 3.1951 1.7628 5.0591 2.0472.1848.0282.3117.2008.2835.3856s-.2008.3121-.3856.2831c-1.9711-.3002-3.7914-1.0591-5.3486-2.1637-.1525-.1082-.1884-.3195-.0803-.4719z" style="fill-rule:evenodd;clip-rule:evenodd;fill:#000;stroke:#000;stroke-width:.3;stroke-linecap:round;stroke-linejoin:round"/><path d="m36.4158 85.8284c.0298-.1845.2036-.3099.3881-.2801.0837.0136.1667.0271.2492.0406.7332.1201 1.4233.233 2.1363.233.1869 0 .3385.1516.3385.3385s-.1516.3385-.3385.3385c-.7716 0-1.5173-.1224-2.2431-.2414-.0837-.0137-.1672-.0274-.2504-.0409-.1846-.0298-.31-.2036-.2801-.3882z" style="fill-rule:evenodd;clip-rule:evenodd;fill:#000;stroke:#000;stroke-width:.3;stroke-linecap:round"/><path d="m36.5115 85.7694c.181-.0463.3654.0629.4118.244.2351.9184.1709 1.8782.1117 2.7649-.0153.2284-.0303.452-.0397.6687-.0081.1868-.1661.3316-.3528.3235-.1868-.0081-.3316-.1661-.3235-.3529.011-.2522.0272-.4995.0431-.7425.0573-.8725.1109-1.6909-.0946-2.4938-.0464-.1811.0629-.3655.244-.4119z" style="fill-rule:evenodd;clip-rule:evenodd;fill:#000;stroke:#000;stroke-width:.3;stroke-linecap:round"/><path d="m36.4449 89.6367c.0235-.1854.1929-.3167.3783-.2932.3519.0447.7164.1036 1.0739.1614.2572.0416.5108.0826.7533.1173.1851.0264.3137.1979.2872.3829-.0264.1851-.1979.3137-.3829.2872-.2743-.0392-.5345-.0814-.791-.1231-.3402-.0553-.674-.1095-1.0256-.1541-.1855-.0235-.3168-.1929-.2932-.3784z" style="fill-rule:evenodd;clip-rule:evenodd;fill:#000;stroke:#000;stroke-width:.3;stroke-linecap:round"/><path d="m41.5824 95.1152c.1363.128.143.3422.015.4785-.6399.6812-1.3103 1.2969-2.0923 1.8376-.1537.1064-.3645.0679-.4709-.0859-.1063-.1537-.0678-.3645.0859-.4709.732-.5061 1.3664-1.087 1.9839-1.7443.128-.1363.3422-.143.4784-.015z" style="fill-rule:evenodd;clip-rule:evenodd;fill:#000;stroke:#000;stroke-width:.3;stroke-linecap:round"/><path d="m39.2508 96.5588c.1065-.1537.3173-.1919.471-.0854.5279.366 1.0249.7693 1.5099 1.1667.0353.029.0705.0578.1057.0867.4511.37.893.7324 1.3545 1.0666.1514.1097.1853.3213.0756.4727-.1096.1514-.3212.1852-.4726.0756-.4788-.3467-.9359-.7216-1.3839-1.0891-.0362-.0297-.0724-.0593-.1085-.0889-.4858-.3982-.9635-.7853-1.4664-1.1339-.1536-.1065-.1918-.3174-.0853-.471z" style="fill-rule:evenodd;clip-rule:evenodd;fill:#000;stroke:#000;stroke-width:.3;stroke-linecap:round"/><path d="m44.0249 97.5574c.1348.1295.139.3438.0094.4786-.5275.5486-1.1299 1.0544-1.7463 1.4926-.1523.1083-.3636.0726-.472-.0798-.1083-.1524-.0725-.3637.0798-.472.5869-.4171 1.1562-.896 1.6505-1.41.1296-.1348.3439-.139.4786-.0094z" style="fill-rule:evenodd;clip-rule:evenodd;fill:#000;stroke:#000;stroke-width:.3;stroke-linecap:round"/><path d="m49.3421 99.5021c.1858-.0206.3532.1132.3738.299.0285.2559.0427.5109.0544.7589.0023.047.0044.094.0065.141.0092.199.0181.393.0329.587.0127.167.0256.268.0662.363.0736.171-.0059.37-.1778.444-.1718.074-.3708-.006-.4444-.178-.0896-.209-.1065-.413-.119-.577-.0157-.206-.0251-.412-.0343-.612-.0021-.046-.0042-.091-.0063-.136-.0116-.245-.025-.482-.051-.7161-.0206-.1858.1133-.3532.299-.3738z" style="fill-rule:evenodd;clip-rule:evenodd;fill:#000;stroke:#000;stroke-width:.3;stroke-linecap:round"/><path d="m48.9501 101.875c.0183-.186.1839-.322.37-.304.1283.013.2563.025.3841.038 1.2102.12 2.3996.238 3.5971.238.187 0 .3385.152.3385.339s-.1515.338-.3385.338c-1.2331 0-2.4563-.121-3.6614-.241-.1289-.013-.2575-.026-.386-.038-.186-.019-.322-.184-.3038-.37z" style="fill-rule:evenodd;clip-rule:evenodd;fill:#000;stroke:#000;stroke-width:.3;stroke-linecap:round"/><path d="m52.6268 99.4287c.1752-.0654.3701.0235.4356.1986.1383.3703.1656.7647.1888 1.0997.0021.03.0041.06.0062.089.027.375.061.678.1921.94.0836.167.0158.371-.1514.454-.1672.084-.3705.016-.4541-.151-.1986-.397-.2354-.828-.2618-1.195-.0017-.023-.0034-.047-.005-.07-.0254-.357-.0466-.656-.149-.9297-.0654-.1752.0235-.3701.1986-.4356z" style="fill-rule:evenodd;clip-rule:evenodd;fill:#000;stroke:#000;stroke-width:.3;stroke-linecap:round"/><path d="m58.2223 97.4375c.1152-.1472.328-.1732.4752-.0579.3278.2565.657.5018.9899.7499.2126.1585.4267.318.6429.4823.1488.1131.1778.3255.0647.4743s-.3255.1778-.4743.0647c-.2048-.1557-.4148-.3122-.6262-.4698-.3393-.2529-.6825-.5087-1.0142-.7683-.1472-.1152-.1732-.328-.058-.4752z" style="fill-rule:evenodd;clip-rule:evenodd;fill:#000;stroke:#000;stroke-width:.3;stroke-linecap:round"/><path d="m62.4462 97.1423c.1251.139.1138.353-.0251.478-.4885.4397-1.0186.8326-1.5347 1.2152-.1985.1471-.3949.2927-.586.4388-.1485.1135-.361.0851-.4745-.0634s-.0851-.3609.0634-.4745c.2086-.1594.4153-.3126.6195-.4639.5062-.3752.9964-.7386 1.4594-1.1553.139-.1251.353-.1138.478.0251z" style="fill-rule:evenodd;clip-rule:evenodd;fill:#000;stroke:#000;stroke-width:.3;stroke-linecap:round"/><path d="m60.6577 95.3086c.1319-.1324.3462-.1329.4787-.001.0952.0948.1947.2009.2933.3061.0265.0283.0531.0566.0794.0846.1269.1347.2544.2672.3864.3893.269.249.5266.4262.7825.4902.1814.0453.2917.2291.2463.4105-.0453.1813-.2291.2916-.4105.2462-.4236-.1059-.7837-.3775-1.0782-.6501-.1498-.1387-.2904-.2852-.4193-.4219-.0292-.0311-.0576-.0614-.0854-.091-.0972-.1037-.1861-.1985-.2722-.2842-.1324-.1319-.1329-.3462-.001-.4787z" style="fill-rule:evenodd;clip-rule:evenodd;fill:#000;stroke:#000;stroke-width:.3;stroke-linecap:round"/><path d="m65.764 89.1303c.0482.1806-.0592.3661-.2398.4142-.7835.2089-1.5259.2312-2.3084.1646-.1863-.0158-.3244-.1797-.3086-.3659.0159-.1863.1797-.3244.366-.3086.7308.0622 1.3904.0388 2.0765-.1442.1807-.0481.3661.0592.4143.2399z" style="fill-rule:evenodd;clip-rule:evenodd;fill:#000;stroke:#000;stroke-width:.3;stroke-linecap:round"/><path d="m65.8661 86.0306c.0206.1858-.1133.3532-.2991.3738-.1305.0145-.2546.0358-.3894.0589-.0599.0103-.122.0209-.1877.0315-.5235.0843-1.0039.0395-1.485-.03-.185-.0268-.3133-.1985-.2865-.3835.0267-.185.1984-.3133.3834-.2865.4613.0667.86.0993 1.2805.0317.0508-.0082.1044-.0174.1598-.0269.1433-.0245.2987-.0512.4502-.068.1858-.0207.3531.1132.3738.299z" style="fill-rule:evenodd;clip-rule:evenodd;fill:#000;stroke:#000;stroke-width:.3;stroke-linecap:round"/><path d="m65.7249 86.0099c.1848-.0285.3576.0981.3861.2829.1299.8419.2881 1.6779.4603 2.5156.0376.1831-.0804.362-.2635.3997-.1831.0376-.362-.0804-.3996-.2635-.1735-.8442-.334-1.6919-.4662-2.5486-.0285-.1848.0982-.3576.2829-.3861z" style="fill-rule:evenodd;clip-rule:evenodd;fill:#000;stroke:#000;stroke-width:.3;stroke-linecap:round"/><path d="m60.4369 76.0205c.1427.1208.1605.3343.0398.4771-.4366.5159-.9843.9132-1.4924 1.2819-.0893.0648-.1774.1287-.2634.1922-.1504.111-.3623.0791-.4733-.0713s-.0791-.3623.0713-.4734c.0946-.0697.1882-.1378.2806-.205.5096-.3707.9812-.7137 1.3604-1.1617.1207-.1427.3343-.1605.477-.0398z" style="fill-rule:evenodd;clip-rule:evenodd;fill:#000;stroke:#000;stroke-width:.3;stroke-linecap:round"/><path d="m59.7972 76.1007c.1152-.1473.3279-.1733.4751-.0581.5342.4177 1.0317.8675 1.5168 1.3151.0821.0757.1637.1512.245.2265.4026.3727.7994.7399 1.2134 1.0919.1424.121.1597.3346.0387.4771-.1211.1424-.3347.1597-.4771.0387-.426-.3621-.8351-.7409-1.2379-1.1137-.0806-.0746-.1609-.149-.2411-.2229-.4835-.4461-.9638-.8799-1.4748-1.2795-.1472-.1151-.1733-.3279-.0581-.4751z" style="fill-rule:evenodd;clip-rule:evenodd;fill:#000;stroke:#000;stroke-width:.3;stroke-linecap:round"/><path d="m63.1095 78.5502c.1603.0962.2123.3041.1161.4644-.0385.0642-.0865.1377-.1763.2127-.3275.2734-.6784.5283-1.0171.7744-.1176.0854-.2337.1698-.3469.2535-.1503.1111-.3623.0794-.4734-.0709-.1112-.1503-.0795-.3623.0708-.4734.1236-.0914.2462-.1804.3675-.2686.3331-.242.6568-.4771.9653-.7347.0055-.0046.007-.0065.0081-.0079l.0001-.0001c.0027-.0035.008-.0109.0214-.0333.0962-.1603.3041-.2122.4644-.1161z" style="fill-rule:evenodd;clip-rule:evenodd;fill:#000;stroke:#000;stroke-width:.3;stroke-linecap:round"/><path d="m39.1816 78.9251c.1204-.1429.334-.1612.477-.0408.448.3772.9502.737 1.4549 1.0254.1624.0927.2187.2995.126.4618-.0928.1623-.2995.2187-.4618.1259-.545-.3114-1.0805-.6956-1.5552-1.0953-.143-.1204-.1613-.334-.0409-.477z" style="fill-rule:evenodd;clip-rule:evenodd;fill:#000;stroke:#000;stroke-width:.3;stroke-linecap:round"/><path d="m42.6742 76.0831c.121.1425.1037.3561-.0387.4772-.253.215-.5278.4267-.7947.6323-.1716.1322-.3399.2619-.497.3883-.5465.4396-1.06.9188-1.5824 1.4062-.1436.134-.2878.2685-.4336.4031-.1373.1268-.3515.1182-.4783-.0191-.1268-.1374-.1182-.3515.0192-.4783.1396-.1289.2797-.2597.4207-.3913.5249-.4898 1.0622-.9913 1.6301-1.4481.1832-.1474.3601-.2835.5335-.4168.2522-.1939.4971-.3823.744-.5921.1425-.1211.3561-.1038.4772.0386z" style="fill-rule:evenodd;clip-rule:evenodd;fill:#000;stroke:#000;stroke-width:.3;stroke-linecap:round"/><path d="m41.9398 76.6833c.1116-.15.3236-.1811.4736-.0695.066.0492.136.0997.2085.152.3263.2355.7023.5068.9877.8493.0129.0154.0263.0268.1037.071.1623.0927.2187.2995.1259.4618-.0927.1623-.2995.2187-.4618.126-.0021-.0013-.0043-.0025-.0065-.0037-.0733-.0419-.1841-.1051-.2813-.2218-.2254-.2705-.5142-.4797-.8354-.7124-.0798-.0578-.1616-.1171-.245-.1791-.1499-.1116-.181-.3236-.0694-.4736z" style="fill-rule:evenodd;clip-rule:evenodd;fill:#000;stroke:#000;stroke-width:.3;stroke-linecap:round"/><path d="m49.1731 73.5068c.1849-.0281.3575.099.3856.2838.0201.1325.039.2636.0577.3933.0606.4192.1191.8248.2111 1.2234.042.1821-.0716.3638-.2537.4059-.1822.042-.3639-.0716-.4059-.2537-.099-.4289-.163-.8728-.2243-1.2976-.018-.1252-.0358-.2486-.0542-.3696-.0281-.1848.0989-.3574.2837-.3855z" style="fill-rule:evenodd;clip-rule:evenodd;fill:#000;stroke:#000;stroke-width:.3;stroke-linecap:round"/><path d="m53.1875 73.6826c.0116.1866-.1302.3473-.3167.3589-1.2513.0782-2.4741.0964-3.7321.0345-.1867-.0092-.3306-.168-.3214-.3547s.168-.3306.3547-.3214c1.2294.0605 2.4266.0429 3.6565-.034.1866-.0117.3473.1301.359.3167z" style="fill-rule:evenodd;clip-rule:evenodd;fill:#000;stroke:#000;stroke-width:.3;stroke-linecap:round"/><path d="m53.0084 73.3655c.1868-.0067.3436.1393.3503.3261.0227.6349-.0136 1.2394-.0696 1.8557-.0169.1862-.1816.3234-.3677.3064-.1862-.0169-.3234-.1815-.3065-.3677.0549-.6036.0885-1.1761.0673-1.7702-.0067-.1868.1393-.3437.3262-.3503z" style="fill-rule:evenodd;clip-rule:evenodd;fill:#000;stroke:#000;stroke-width:.3;stroke-linecap:round"/><path clip-rule="evenodd" d="m51.2666 79.1789c-4.6717 0-8.4588 3.7871-8.4588 8.4588s3.7871 8.4588 8.4588 8.4588 8.4588-3.7871 8.4588-8.4588-3.7871-8.4588-8.4588-8.4588zm-9.1357 8.4588c0-5.0455 4.0902-9.1357 9.1357-9.1357s9.1358 4.0902 9.1358 9.1357-4.0903 9.1357-9.1358 9.1357-9.1357-4.0902-9.1357-9.1357z" fill="#000" fill-rule="evenodd" stroke="#000" stroke-width=".3"/><path d="m54.6428 34.6992h67.3722v83.6128h-67.3722z" fill="#fcf4e3"/><path d="m61.9302 43.5566h54.4658v67.5954h-54.4658z" fill="#fafbfc"/><path d="m101.594 56.5752h7.515v6.3621h-7.515z" fill="#fcf4e3"/><path d="m100.949 74.4014h7.514v6.3621h-7.514z" fill="#fcf4e3"/><path d="m101.076 92.2695h7.515v6.3621h-7.515z" fill="#fcf4e3"/><g stroke="#000" stroke-width=".3"><path clip-rule="evenodd" d="m79.9205 34.6975c-9.6167.2344-19.0189.4636-27.8723.2647-.1869-.0042-.335-.1591-.3308-.346s.1591-.335.346-.3308c8.8359.1985 18.2181-.0302 27.8338-.2645 2.2423-.0547 4.4974-.1097 6.7612-.1596 11.9659-.2639 24.1696-.3869 35.9966.4248.186.0128.327.1743.314.3608s-.174.3273-.361.3146c-11.793-.8094-23.971-.6873-35.9347-.4234-2.2598.0498-4.5121.1047-6.7528.1594z" fill="#000" fill-rule="evenodd" stroke-linecap="round"/><path clip-rule="evenodd" d="m79.9205 118.659c-9.6167.235-19.0189.464-27.8723.265-.1869-.004-.335-.159-.3308-.346s.1591-.335.346-.331c8.8359.199 18.2181-.03 27.8338-.264 2.2423-.055 4.4974-.11 6.7612-.16 11.9659-.264 24.1696-.387 35.9966.425.186.013.327.174.314.361-.013.186-.174.327-.361.314-11.793-.809-23.971-.687-35.9347-.423-2.2598.05-4.5121.105-6.7528.159z" fill="#000" fill-rule="evenodd" stroke-linecap="round"/><path clip-rule="evenodd" d="m120.904 33.5182c.187-.0109.347.1316.358.3182 1.074 18.4431 1.794 66.5276-.001 84.8576-.019.186-.184.322-.37.304-.186-.019-.322-.184-.304-.37 1.79-18.276 1.073-66.3179-.001-84.7523-.011-.1866.131-.3467.318-.3575z" fill="#000" fill-rule="evenodd" stroke-linecap="round"/><path clip-rule="evenodd" d="m54.0779 33.5182c.1866-.0109.3467.1316.3575.3182 1.0744 18.4431 1.7942 66.5276-.001 84.8576-.0182.186-.1838.322-.3699.304-.186-.019-.3221-.184-.3038-.37 1.7899-18.276 1.0728-66.3179-.0011-84.7523-.0108-.1866.1316-.3467.3183-.3575z" fill="#000" fill-rule="evenodd" stroke-linecap="round"/><path clip-rule="evenodd" d="m82.1222 44.5401c-7.7014.1878-15.2328.3714-22.3245.212-.1869-.0042-.335-.1591-.3308-.346s.1591-.335.346-.3308c7.0742.159 14.5857-.0241 22.2859-.2118 1.7959-.0438 3.6021-.0878 5.4154-.1278 9.5827-.2114 19.3588-.3099 28.8328.3403.186.0128.327.1744.314.3609s-.174.3273-.361.3145c-9.441-.648-19.1904-.5502-28.7709-.3389-1.8093.0399-3.6127.0839-5.4069.1276z" fill="#000" fill-rule="evenodd" stroke-linecap="round"/><path clip-rule="evenodd" d="m82.1222 111.778c-7.7014.188-15.2328.372-22.3245.212-.1869-.004-.335-.159-.3308-.346s.1591-.335.346-.33c7.0742.159 14.5857-.025 22.2859-.212 1.7959-.044 3.6021-.088 5.4154-.128 9.5827-.211 19.3588-.31 28.8328.34.186.013.327.175.314.361-.013.187-.174.327-.361.315-9.441-.648-19.1904-.551-28.7709-.339-1.8093.04-3.6127.084-5.4069.127z" fill="#000" fill-rule="evenodd" stroke-linecap="round"/><path clip-rule="evenodd" d="m114.936 43.4615c.187-.0109.347.1316.358.3182.86 14.7704 1.437 53.2813-.001 67.9653-.018.186-.184.322-.37.304s-.322-.184-.304-.37c1.433-14.63.859-53.0982-.001-67.8599-.011-.1866.132-.3467.318-.3576z" fill="#000" fill-rule="evenodd" stroke-linecap="round"/><path clip-rule="evenodd" d="m61.4209 43.4615c.1866-.0109.3467.1316.3576.3182.8604 14.7704 1.4371 53.2813-.0011 67.9653-.0182.186-.1838.322-.3698.304-.1861-.018-.3221-.184-.3039-.37 1.4329-14.63.8589-53.0982-.0011-67.8599-.0108-.1866.1316-.3467.3183-.3576z" fill="#000" fill-rule="evenodd" stroke-linecap="round"/><path d="m75.1221 39.6255v-7.1011h28.4039v5.8975c-1.734 1.1554-19.6582 1.2838-28.4039 1.2036z" fill="#f2a966"/><path clip-rule="evenodd" d="m74.6703 32.6885c.1869 0 .3384.1515.3384.3385v6.7062c0 .1869-.1515.3384-.3384.3384-.187 0-.3385-.1515-.3385-.3384v-6.7062c0-.187.1515-.3385.3385-.3385z" fill="#000" fill-rule="evenodd" stroke-linecap="round"/><path clip-rule="evenodd" d="m71.5716 32.2114c.0146-.1863.1776-.3255.3639-.3109 8.1272.6374 24.1389.4492 32.2315-.0004.186-.0104.346.1325.356.3192.011.1866-.132.3463-.319.3567-8.1068.4504-24.1519.6401-32.3214-.0007-.1864-.0146-.3256-.1775-.311-.3639z" fill="#000" fill-rule="evenodd" stroke-linecap="round"/><path clip-rule="evenodd" d="m105.773 38.0798c.042.1822-.072.3639-.254.4059-10.0894 2.3284-22.4454 2.062-32.6636 1.2363-.1863-.0151-.3251-.1783-.3101-.3647.0151-.1863.1783-.3251.3646-.3101 10.2036.8245 22.4735 1.0829 32.4571-1.2211.182-.042.364.0716.406.2537z" fill="#000" fill-rule="evenodd" stroke-linecap="round"/><path clip-rule="evenodd" d="m102.563 30.3427c.175-.0638.37.0268.434.2025.171.4712.277 1.214.36 2.0468.063.6367.115 1.3523.167 2.0792.017.2352.034.4715.051.7068.072.9676.153 1.9192.272 2.7226.122.8198.277 1.4284.469 1.7491.096.1603.044.3682-.116.4643-.16.0962-.368.0442-.464-.116-.27-.4496-.438-1.1837-.558-1.998-.124-.8304-.206-1.8041-.278-2.7718-.018-.2398-.035-.4791-.052-.716-.052-.7244-.102-1.4266-.165-2.0533-.083-.8417-.185-1.5024-.323-1.8824-.064-.1757.027-.3699.203-.4338z" fill="#000" fill-rule="evenodd" stroke-linecap="round"/><path clip-rule="evenodd" d="m93.5987 57.3972c.0042.1869-.1438.3418-.3307.3461-4.5521.1034-17.9685.4065-22.5386.0033-.1862-.0165-.3238-.1807-.3074-.3669.0164-.1863.1807-.3239.3669-.3075 4.5219.399 17.8856.0983 22.4637-.0057.1869-.0043.3418.1438.3461.3307z" fill="#000" fill-rule="evenodd" stroke-linecap="round"/><path clip-rule="evenodd" d="m80.9196 61.0949c-3.9144.0304-7.719.0599-9.99-.0315-.1868-.0075-.3321-.165-.3246-.3518s.165-.3321.3518-.3246c2.2551.0907 6.0279.0614 9.9297.0311 2.0022-.0156 4.0385-.0314 5.921-.0314.1869 0 .3385.1516.3385.3385s-.1516.3385-.3385.3385c-1.8652 0-3.8909.0157-5.8879.0312z" fill="#000" fill-rule="evenodd" stroke-linecap="round"/><path clip-rule="evenodd" d="m100.109 56.0139c.187-.0071.344.1386.351.3254.047 1.2217.027 3.4903.012 5.1804-.006.6666-.011 1.2432-.011 1.6301 0 .1869-.152.3385-.339.3385-.1867.0001-.3382-.1514-.3383-.3384-.0001-.3996.0051-.9877.0111-1.6632.0149-1.6861.0346-3.9169-.0111-5.1217-.0071-.1868.1386-.344.3253-.3511z" fill="#000" fill-rule="evenodd" stroke-linecap="round"/><path clip-rule="evenodd" d="m99.4394 56.2103c.0152-.1863.1786-.325.3649-.3097.4947.0403.9917.0862 1.4917.1323 2.605.2398 5.264.4848 7.747-.0117.183-.0366.361.0822.398.2655.036.1833-.082.3617-.266.3983-2.588.5177-5.365.2609-7.967.0201-.493-.0457-.98-.0907-1.4588-.1298-.1864-.0153-.3251-.1786-.3098-.365z" fill="#000" fill-rule="evenodd" stroke-linecap="round"/><path clip-rule="evenodd" d="m108.751 62.7464c.032.1841-.091.3594-.275.3914-2.541.4418-5.186.2766-7.699.003-.186-.0202-.32-.1872-.3-.3731.02-.1858.187-.3201.373-.2998 2.501.2721 5.067.4277 7.51.003.184-.032.359.0913.391.2755z" fill="#000" fill-rule="evenodd" stroke-linecap="round"/><path clip-rule="evenodd" d="m108.591 55.5576c.184-.0314.359.0926.391.2769.084.4946.087 1.1128.059 1.7678-.022.5317-.067 1.1049-.111 1.6756-.01.1355-.021.2708-.031.4054-.053.7065-.098 1.3948-.097 2.0052.001.6168.049 1.1216.167 1.4741.059.1773-.037.369-.214.4281-.178.0592-.369-.0367-.428-.214-.153-.4595-.201-1.0542-.202-1.6871-.001-.6393.046-1.3509.099-2.0573.011-.1377.021-.2752.032-.412.044-.5697.087-1.128.109-1.6468.028-.6463.021-1.205-.051-1.6254-.031-.1843.093-.3591.277-.3905z" fill="#000" fill-rule="evenodd" stroke-linecap="round"/><path clip-rule="evenodd" d="m93.2085 75.3581c.0043.1869-.1438.3419-.3307.3461-4.552.1035-17.9684.4066-22.5385.0033-.1862-.0164-.3239-.1807-.3075-.3669.0165-.1862.1808-.3239.367-.3074 4.5219.399 17.8856.0983 22.4637-.0058.1869-.0042.3418.1438.346.3307z" fill="#000" fill-rule="evenodd" stroke-linecap="round"/><path clip-rule="evenodd" d="m80.5294 79.0548c-3.9143.0304-7.7189.0599-9.9899-.0314-.1868-.0075-.3321-.165-.3246-.3518s.165-.3321.3518-.3246c2.2551.0907 6.0279.0614 9.9296.0311 2.0023-.0156 4.0385-.0314 5.921-.0314.187 0 .3385.1515.3385.3385 0 .1869-.1515.3384-.3385.3384-1.8651 0-3.8908.0158-5.8879.0312z" fill="#000" fill-rule="evenodd" stroke-linecap="round"/><path clip-rule="evenodd" d="m99.7185 73.9739c.1868-.0071.3435.1386.3515.3254.046 1.2217.026 3.4903.011 5.1804-.006.6666-.011 1.2432-.011 1.63 0 .187-.1514.3386-.3384.3386-.1869 0-.3385-.1515-.3385-.3384-.0001-.3997.0051-.9878.0111-1.6633.0149-1.6861.0346-3.9168-.0111-5.1216-.0071-.1868.1386-.344.3254-.3511z" fill="#000" fill-rule="evenodd" stroke-linecap="round"/><path clip-rule="evenodd" d="m99.049 74.1693c.0152-.1863.1786-.325.3649-.3098.4942.0404.9921.0863 1.4921.1323 2.604.2399 5.264.4849 7.746-.0116.183-.0367.362.0822.398.2655.037.1833-.082.3617-.265.3983-2.589.5177-5.365.2608-7.967.0201-.494-.0457-.9808-.0907-1.4592-.1299-.1863-.0152-.325-.1786-.3098-.3649z" fill="#000" fill-rule="evenodd" stroke-linecap="round"/><path clip-rule="evenodd" d="m108.36 80.7053c.032.1842-.091.3595-.275.3915-2.54.4418-5.185.2766-7.699.003-.185-.0202-.32-.1872-.3-.3731.021-.1858.188-.3201.374-.2999 2.5.2722 5.067.4278 7.509.0031.184-.0321.359.0913.391.2754z" fill="#000" fill-rule="evenodd" stroke-linecap="round"/><path clip-rule="evenodd" d="m108.201 73.5175c.184-.0313.359.0926.39.2769.084.4946.088 1.1128.06 1.7678-.023.5317-.067 1.105-.111 1.6756-.011.1355-.021.2708-.031.4054-.053.7065-.099 1.3948-.098 2.0053.001.6168.05 1.1216.168 1.4741.059.1773-.037.369-.215.4281-.177.0591-.369-.0367-.428-.2141-.153-.4594-.201-1.0541-.202-1.687-.001-.6393.046-1.351.1-2.0573.01-.1377.021-.2752.031-.412.044-.5697.088-1.1281.11-1.6469.027-.6463.02-1.2049-.051-1.6254-.031-.1843.092-.3591.277-.3905z" fill="#000" fill-rule="evenodd" stroke-linecap="round"/><path clip-rule="evenodd" d="m93.5984 93.3161c.0043.1869-.1438.3419-.3307.3461-4.552.1035-17.9684.4066-22.5385.0033-.1863-.0164-.3239-.1807-.3075-.3669.0165-.1862.1807-.3238.367-.3074 4.5219.399 17.8856.0983 22.4637-.0058.1868-.0042.3418.1439.346.3307z" fill="#000" fill-rule="evenodd" stroke-linecap="round"/><path clip-rule="evenodd" d="m80.9196 97.0138c-3.9144.0304-7.719.0599-9.99-.0314-.1868-.0075-.3321-.1651-.3246-.3518.0075-.1868.165-.3322.3518-.3246 2.2551.0907 6.0279.0614 9.9297.031 2.0022-.0155 4.0385-.0313 5.921-.0313.1869 0 .3385.1515.3385.3384 0 .187-.1516.3385-.3385.3385-1.8652 0-3.8909.0157-5.8879.0312z" fill="#000" fill-rule="evenodd" stroke-linecap="round"/><path clip-rule="evenodd" d="m100.109 91.9329c.187-.0071.344.1386.351.3254.047 1.2217.027 3.4903.012 5.1804-.006.6666-.011 1.2431-.011 1.63 0 .187-.152.3385-.339.3386-.1867 0-.3382-.1515-.3383-.3384-.0001-.3997.0051-.9878.0111-1.6633.0149-1.6861.0346-3.9168-.0111-5.1217-.0071-.1868.1386-.3439.3253-.351z" fill="#000" fill-rule="evenodd" stroke-linecap="round"/><path clip-rule="evenodd" d="m99.4391 92.1283c.0153-.1863.1786-.325.365-.3098.4939.0404.9919.0863 1.4919.1323 2.604.2399 5.264.4849 7.746-.0116.184-.0367.362.0822.399.2655.036.1833-.083.3616-.266.3983-2.588.5177-5.365.2608-7.967.0201-.493-.0457-.981-.0908-1.4591-.1299-.1863-.0152-.325-.1786-.3098-.3649z" fill="#000" fill-rule="evenodd" stroke-linecap="round"/><path clip-rule="evenodd" d="m108.751 98.6653c.032.1842-.091.3594-.275.3915-2.541.4417-5.186.2765-7.699.003-.186-.0202-.32-.1873-.3-.3731.02-.1859.187-.3201.373-.2999 2.501.2722 5.067.4278 7.51.003.184-.032.359.0913.391.2755z" fill="#000" fill-rule="evenodd" stroke-linecap="round"/><path clip-rule="evenodd" d="m108.591 91.4765c.184-.0313.359.0926.39.2769.085.4946.088 1.1128.06 1.7678-.023.5317-.067 1.105-.111 1.6756-.01.1355-.021.2708-.031.4054-.053.7065-.099 1.3948-.098 2.0052.001.6168.05 1.1217.168 1.4741.059.1774-.037.3691-.214.4282-.178.0591-.369-.0367-.429-.2141-.153-.4595-.2-1.0541-.201-1.687-.002-.6393.046-1.351.099-2.0573.01-.1378.021-.2752.032-.412.044-.5698.087-1.1281.109-1.6469.027-.6463.021-1.2049-.051-1.6254-.031-.1843.093-.3591.277-.3905z" fill="#000" fill-rule="evenodd" stroke-linecap="round"/></g><path clip-rule="evenodd" d="m108.05 55.1237c.084.1672.016.3705-.151.4541-.038.0191-.138.0999-.299.2873-.15.1747-.327.4081-.521.6841-.387.5512-.829 1.2504-1.25 1.9395-.318.5197-.622 1.0296-.88 1.4627-.084.1409-.163.2736-.236.3959-.148.2478-.273.455-.364.5981-.044.0703-.085.1317-.118.1761-.014.0195-.037.0495-.064.0763-.009.0096-.044.0444-.097.0707-.026.0133-.089.0404-.172.0359-.102-.0055-.196-.0563-.256-.1379-.255-.3447-.645-.9532-.965-1.4658-.162-.2584-.308-.4957-.414-.6685-.053-.0864-.095-.1567-.125-.2054l-.034-.0563-.012-.0196.29-.1752.289-.1749.012.0191.034.0555c.029.0482.071.1179.124.2035.105.1715.249.4068.409.6628.216.3441.455.7196.66 1.0264.065-.1055.139-.2293.222-.3682.072-.1206.151-.2522.234-.3922.258-.4337.565-.9487.885-1.4722.423-.6921.875-1.4061 1.275-1.9755.199-.2842.39-.5379.561-.7366.16-.186.337-.3649.509-.4511.167-.0836.371-.0158.454.1514zm-5.843 3.1622c.16-.0966.368-.0452.464.1149l-.289.1749-.29.1752c-.097-.16-.045-.3684.115-.465z" fill="#000" fill-rule="evenodd"/><path d="m102.092 58.7509.29-.1752.289-.1749m-.579.3501c-.097-.16-.045-.3684.115-.465s.368-.0452.464.1149m-.579.3501.012.0196.034.0563c.03.0487.072.119.125.2054.106.1728.252.4101.414.6685.32.5126.71 1.1211.965 1.4658.06.0816.154.1324.256.1379.083.0045.146-.0226.172-.0359.053-.0263.088-.0611.097-.0707.027-.0268.05-.0568.064-.0763.033-.0444.074-.1058.118-.1761.091-.1431.216-.3503.364-.5981.073-.1223.152-.255.236-.3959.258-.4331.562-.943.88-1.4627.421-.6891.863-1.3883 1.25-1.9395.194-.276.371-.5094.521-.6841.161-.1874.261-.2682.299-.2873.167-.0836.235-.2869.151-.4541-.083-.1672-.287-.235-.454-.1514-.172.0862-.349.2651-.509.4511-.171.1987-.362.4524-.561.7366-.4.5694-.852 1.2834-1.275 1.9755-.32.5235-.627 1.0385-.885 1.4722-.083.14-.162.2716-.234.3922-.083.1389-.157.2627-.222.3682-.205-.3068-.444-.6823-.66-1.0264-.16-.256-.304-.4913-.409-.6628-.053-.0856-.095-.1553-.124-.2035l-.034-.0555-.012-.0191" stroke="#000" stroke-linecap="round" stroke-width=".3"/><path clip-rule="evenodd" d="m107.82 90.862c.083.1672.015.3705-.152.4541-.038.0191-.137.0999-.299.2873-.15.1747-.326.4081-.52.6841-.388.5512-.83 1.2504-1.251 1.9395-.318.5197-.622 1.0296-.879 1.4627-.084.1408-.163.2736-.236.3959-.149.2477-.274.455-.365.5981-.044.0702-.085.1317-.117.1761-.015.0195-.037.0495-.064.0763-.01.0096-.045.0443-.097.0707-.027.0132-.089.0404-.173.0359-.102-.0055-.196-.0563-.256-.1379-.255-.3447-.645-.9532-.965-1.4658-.162-.2584-.308-.4958-.414-.6685-.052-.0864-.095-.1567-.125-.2055l-.034-.0562-.012-.0196.29-.1752.29-.1749.011.0191.034.0555c.029.0482.072.1178.124.2035.105.1714.25.4068.41.6628.215.3441.454.7195.66 1.0264.064-.1056.138-.2293.221-.3682.073-.1206.151-.2522.234-.3923.259-.4336.565-.9486.885-1.4721.424-.6922.875-1.4062 1.275-1.9755.2-.2843.39-.5379.561-.7366.161-.186.337-.3649.509-.4511.168-.0836.371-.0158.455.1514zm-5.844 3.1622c.16-.0966.368-.0452.465.1149l-.29.1749-.29.1752c-.096-.16-.045-.3684.115-.465z" fill="#000" fill-rule="evenodd"/><path d="m101.861 94.4892.29-.1752.29-.1749m-.58.3501c-.096-.16-.045-.3684.115-.465s.368-.0452.465.1149m-.58.3501.012.0196.034.0562c.03.0488.073.1191.125.2055.106.1727.252.4101.414.6685.32.5126.71 1.1211.965 1.4658.06.0816.154.1324.256.1379.084.0045.146-.0227.173-.0359.052-.0264.087-.0611.097-.0707.027-.0268.049-.0568.064-.0763.032-.0444.073-.1059.117-.1761.091-.1431.216-.3504.365-.5981.073-.1223.152-.2551.236-.3959.257-.4331.561-.943.879-1.4627.421-.6891.863-1.3883 1.251-1.9395.194-.276.37-.5094.52-.6841.162-.1874.261-.2682.299-.2873.167-.0836.235-.2869.152-.4541-.084-.1672-.287-.235-.455-.1514-.172.0862-.348.2651-.509.4511-.171.1987-.361.4523-.561.7366-.4.5693-.851 1.2833-1.275 1.9755-.32.5235-.626 1.0385-.885 1.4721-.083.1401-.161.2717-.234.3923-.083.1389-.157.2626-.221.3682-.206-.3069-.445-.6823-.66-1.0264-.16-.256-.305-.4914-.41-.6628-.052-.0857-.095-.1553-.124-.2035l-.034-.0555-.011-.0191" stroke="#000" stroke-linecap="round" stroke-width=".3"/><path clip-rule="evenodd" d="m107.123 73.3254c.14.124.153.3379.029.4778-1.334 1.5058-2.647 2.9905-3.626 4.0988-.49.5541-.896 1.0141-1.18 1.3355l-.445.5039-.254-.2235-.254-.224.445-.5045c.284-.3215.691-.7815 1.18-1.3357.98-1.1084 2.293-2.5933 3.628-4.0995.123-.1399.337-.1528.477-.0288zm-5.7 6.4463c-.141-.1237-.154-.3376-.03-.4778l.254.224.253.224c-.123.1401-.337.1535-.477.0298z" fill="#000" fill-rule="evenodd"/><path d="m101.647 79.5179.254.2235.445-.5039c.284-.3214.69-.7814 1.18-1.3355.979-1.1083 2.292-2.593 3.626-4.0988.124-.1399.111-.3538-.029-.4778s-.354-.1111-.477.0288c-1.335 1.5062-2.648 2.9911-3.628 4.0995-.489.5542-.896 1.0142-1.18 1.3357l-.445.5045m.254.224-.254-.224m.254.224.253.224c-.123.1401-.337.1535-.477.0298-.141-.1237-.154-.3376-.03-.4778" stroke="#000" stroke-linecap="round" stroke-width=".3"/><path d="m100.702 72.8824c.149-.1116.362-.0805.473.0694.213.2863.953 1.3858 1.853 2.7229.396.5889.824 1.224 1.251 1.8559.701 1.0378 1.404 2.0716 1.975 2.8909.286.4098.537.7645.738 1.0385.206.2808.347.4596.416.5318.13.135.125.3493-.01.4786s-.349.1246-.479-.0104c-.105-.1097-.271-.3256-.472-.5994-.206-.2805-.461-.6403-.748-1.052-.574-.8236-1.28-1.8608-1.981-2.899-.439-.6487-.874-1.2962-1.276-1.8923-.888-1.3201-1.607-2.3885-1.81-2.6612-.111-.15-.08-.362.07-.4737z" style="fill-rule:evenodd;clip-rule:evenodd;fill:#000;stroke:#000;stroke-width:.3;stroke-linecap:round"/></svg>