<svg fill="none" height="24" viewBox="0 0 270 24" width="270" xmlns="http://www.w3.org/2000/svg"><path d="m0 11.5h107.5" stroke="#b0b1c4"/><path d="m135.016 12.1818c0 1.2273-.221 2.2879-.664 3.1818-.444.894-1.052 1.5834-1.824 2.0682-.773.4849-1.656.7273-2.648.7273s-1.875-.2424-2.648-.7273c-.772-.4848-1.38-1.1742-1.824-2.0682-.443-.8939-.664-1.9545-.664-3.1818s.221-2.28786.664-3.1818c.444-.89394 1.052-1.58333 1.824-2.06818.773-.48485 1.656-.72727 2.648-.72727s1.875.24242 2.648.72727c.772.48485 1.38 1.17424 1.824 2.06818.443.89394.664 1.9545.664 3.1818zm-1.363 0c0-1.0076-.169-1.8579-.506-2.55112-.333-.69318-.786-1.2178-1.358-1.57386-.568-.35606-1.204-.53409-1.909-.53409s-1.343.17803-1.915.53409c-.568.35606-1.021.88068-1.358 1.57386-.333.69322-.5 1.54352-.5 2.55112s.167 1.858.5 2.5512c.337.6931.79 1.2178 1.358 1.5738.572.3561 1.21.5341 1.915.5341s1.341-.178 1.909-.5341c.572-.356 1.025-.8807 1.358-1.5738.337-.6932.506-1.5436.506-2.5512zm3.733 5.8182v-11.63636h3.931c.91 0 1.656.1553 2.239.46591.583.30681 1.015.72916 1.296 1.26704.28.53788.42 1.14962.42 1.83523 0 .68558-.14 1.29358-.42 1.82388-.281.5303-.711.947-1.29 1.25-.58.2992-1.32.4488-2.222.4488h-3.182v-1.2727h3.137c.621 0 1.121-.0909 1.5-.2727.382-.1818.659-.4394.829-.7727.175-.3372.262-.7387.262-1.20458 0-.46591-.087-.87311-.262-1.22159-.174-.34849-.452-.61743-.835-.80682-.383-.19318-.888-.28977-1.517-.28977h-2.477v10.38636zm5.477-5.2273 2.864 5.2273h-1.637l-2.818-5.2273z" fill="#4f5162"/><path d="m162.5 11.5h107.5" stroke="#b0b1c4"/></svg>