<svg fill="none" height="174" width="558" xmlns="http://www.w3.org/2000/svg" xmlns:xlink="http://www.w3.org/1999/xlink"><radialGradient id="a" cx="0" cy="0" gradientTransform="matrix(41.49166 43.94329 -125.34088 118.34802 278.73 107.747)" gradientUnits="userSpaceOnUse" r="1"><stop offset="0" stop-opacity=".13"/><stop offset="1" stop-color="#f0feea" stop-opacity="0"/></radialGradient><linearGradient id="b" gradientUnits="userSpaceOnUse" x1="107.668" x2="89.554" y1="77.983" y2="135.396"><stop offset="0" stop-color="#92b5f7"/><stop offset="1" stop-color="#b6e5f7"/></linearGradient><linearGradient id="c" gradientUnits="userSpaceOnUse" x1="288.034" x2="253.407" y1="62.765" y2="175.324"><stop offset=".263" stop-color="#b2eec0"/><stop offset=".949" stop-color="#62f91f" stop-opacity=".69"/></linearGradient><ellipse cx="278.73" cy="107.747" fill="url(#a)" fill-opacity=".5" rx="276.611" ry="52.944" transform="matrix(.99896899 -.04539786 .04539786 .99896899 -4.604108 12.764834)"/><path d="m8.254 154.429c26.537-11.848 101.948-48.24 129.028-58.83 11.535-4.512 21.678-9.88 34.095-9.026 10.737.738 44.313 15.997 54.486 19.388l24.402 9.025c6.017 1.671 20.391 8.022 33.093 1.671 9.171-4.586 53.594-32.981 82.899-51.477 3.008-1.9 5.549-3.61 9.025-3.343 4.345.334 31.07 7.082 33.427 7.688 11.699 3.009 20.056 1.337 25.739-2.34 8.265-5.348 30.418-23.844 46.797-35.098" stroke="#000" stroke-linecap="round" stroke-linejoin="round"/><path d="m7.92 147.834c26.537-11.848 101.948-48.24 129.028-58.831 11.535-4.511 21.678-9.879 34.096-9.025 10.736.738 56.68 18.915 66.853 22.306 8.469 4.011 29.951 10.779 37.439 8.356 11.365-3.677 60.168-34.095 76.213-43.789 14.205-8.582 6.686-7.202-6.351-10.362s-21.059-4.68-18.719-9.694c1.872-4.011 30.864-16.825 45.461-24.067m5.348 2.533c-13.705 7.16-25.739 13.177-36.101 18.72-6.226 3.328-6.351 4.522 1.003 6.157 3.008.668 69.181 14.373 73.539 14.373 10.362 0 14.373-3.677 19.388-6.685 4.011-2.407 26.853-19.722 37.772-28.079" stroke="#000" stroke-linecap="round" stroke-linejoin="round"/><ellipse cx="93.084" cy="104.478" fill="#fff" rx="8.918" ry="7.803"/><ellipse cx="93.084" cy="104.478" fill="url(#b)" fill-opacity=".5" rx="8.918" ry="7.803"/><path d="m92.095 95.512c-3.217.703-6.384 1.214-8.034 4.376-1.207 2.313-1.559 5.346-.126 7.668 3.573 5.793 13.01 6.783 16.856.957 4.443-6.732-2.97-13.698-9.99-12.804-3.113.396-5.587 2.551-6.107 5.67-.54 3.245.927 5.062 2.59 7.556" stroke="#000" stroke-linecap="round" stroke-linejoin="round"/><path d="m125.797 58.628-6.711-4.737h-.789l14.211-5.131 6.315 5.92 7.895 2.764 9.079-3.553-5.526 5.922.789 13.815-12.237 5.527-13.026-4.737z" fill="#fff"/><path d="m138.23 63.365c1.592-1.5 3.191-2.993 4.737-4.54m-.887.296a166.384 166.384 0 0 0 13.915-5.625" stroke="#000" stroke-linecap="round" stroke-linejoin="round"/><path d="m156.191 53.299c-1.475 1.176-4.343 3.75-5.921 6.118m-13.42 4.737c4.378-1.63 7.5-2.368 14.605-5.131m-.888.888c.127 2.914-.016 5.79-.137 8.7-.076 1.819-.034 3.535.334 5.313m-12.336-9.868v15.493" stroke="#000" stroke-linecap="round" stroke-linejoin="round"/><path d="m138.23 79.352c4.769-1.873 9.38-4.333 14.014-6.513" stroke="#000" stroke-linecap="round" stroke-linejoin="round"/><path d="m125.006 74.417c5.345 1.607 9.868 3.158 15.789 4.934m-14.998-20.723v16.974m-1.975-16.579c5.069 2.283 10.422 3.89 15.592 5.92" stroke="#000" stroke-linecap="round" stroke-linejoin="round"/><path d="m123.428 60.108c5.019-1.277 10.05-2.72 14.901-4.54m1.48-.591c2.043.914 4.406 2.17 6.71 2.17" stroke="#000" stroke-linecap="round" stroke-linejoin="round"/><path d="m119.086 54.187c2.42 1.682 4.753 3.497 7.204 5.131m-8.29-5.427c5.047-.993 9.899-3.09 14.803-4.638m.099.197c1.36 1.221 2.689 2.443 3.937 3.778.521.557 1.077 1.002 1.688 1.453m.394.296c-.286 1.97-.422 3.933-.493 5.92m.691 12.831c1.399 1.296 2.9 2.568 4.54 3.552m-5.329-8.191c3.375 2.155 6.294 4.934 9.671 7.105m-9.276-11.447c4.394 2.79 8.62 5.92 12.829 8.98m-8.585-11.348c2.193 1.574 4.395 3.163 6.513 4.836m-2.271-5.922c.951.69 1.862 1.42 2.763 2.171" stroke="#000" stroke-linecap="round" stroke-linejoin="round"/><ellipse cx="135.27" cy="45.207" fill="#fff" rx="7.895" ry="6.316"/><path d="m132.863 38.606c-1.794 1.032-4.283 2.043-5.165 4.112-.873 2.045-.131 4.701.884 6.546 1.499 2.726 5.318 3.889 8.262 3.326 4.982-.952 11.146-8.715 5.526-12.773-2.527-1.824-6.784-1.452-9.579-.602-2.711.824-6.618 2.795-6.298 6.174.498 5.257 7.15 7.513 11.556 6.298m13.941 10.483c18.051.67 8.476 9.81 17.772 11.57 4.391.832 10.013 2.277 14.318 3.473" stroke="#000" stroke-linecap="round" stroke-linejoin="round"/><path d="m176.393 77.882c1.747-.978 3.141-2.112 4.679-3.343" stroke="#000" stroke-linecap="round" stroke-linejoin="round"/><path d="m176.895 77.547c2.859.016 5.689.19 8.542.335.533.027 2.407.468 1.077-.205-1.88-.95-3.642-2.058-5.441-3.138m36.435-.335c21.393 0 21.59 16.369 22.563 27.076" stroke="#000" stroke-linecap="round" stroke-linejoin="round"/><path d="m231.213 74.204c9.694 4.346 12.034 12.702 12.034 20.725m187.191-44.791c2.674-.67 4.345-1.338 6.351-2.006" stroke="#000" stroke-linecap="round" stroke-linejoin="round"/><path d="m435.785 53.815c.669-2.34 1.132-3.499 1.337-6.017-7.389 8.733-15.042 13.036-26.741 11.365m-317.381 30.599c0-37.365 8.657-80.168 29.845-50.121" stroke="#000" stroke-linecap="round" stroke-linejoin="round"/><path d="m116.332 38.226c.58.232 6.567 3.611 6.329 1.494-.324-2.875-.635-5.433-.178-8.328m130.122 72.895c.968-1.921 1.849-4.355 4.166-4.915 2.291-.554 3.172 1.353 3.809 3.293.555 1.691 1.07 4.133-.676 5.333-.757.52-1.803.445-2.384-.32-2.011-2.651 2.49-4.691 4.522-4.35 2.178.366 4.682 1.955 4.94 4.276" stroke="#000" stroke-linecap="round" stroke-linejoin="round"/><path d="m191.5 95.01v-16l12-5.5 14.5 4.372v15.128l-12.5 6.5z" fill="#fff"/><path d="m189.531 94.004c6.124 2.296 14.162 4.975 19.52 6.506m-17.424-21.542c4.536 1.58 9.064 3.148 13.694 4.434.899.25 1.64.445 2.445.848m-1.76-3.228v20.254m-14.967-24.069v18.71" stroke="#000" stroke-linecap="round" stroke-linejoin="round"/><path d="m204.539 100.388c4.895-2.557 9.105-4.47 14.966-7.63" stroke="#000" stroke-linecap="round" stroke-linejoin="round"/><path d="m217.471 77.163c.093 5.973.587 11.914.587 17.9" stroke="#000" stroke-linecap="round" stroke-linejoin="round"/><path d="m204.539 83.956c5.048-2.048 10.044-4.597 15.259-6.162" stroke="#000" stroke-linecap="round" stroke-linejoin="round"/><path d="m201.018 72.512c5.808 2.143 13.358 4.4 19.133 6.565" stroke="#000" stroke-linecap="round" stroke-linejoin="round"/><path d="m188 79.844c7.655-2.68 11.898-4.431 17.712-7.037" stroke="#000" stroke-linecap="round" stroke-linejoin="round"/><path d="m220.092 121.254v-8.368l19.528-.961 6.717-2.843v12.172l-1.521 3.043 4.184 2.282-2.663 15.975-5.325-4.184h-20.92z" fill="#fff"/><path d="m220.663 121.064c.394 3.548.169 7.147-.037 10.698-.138 2.378-.247 4.733.132 7.085" stroke="#000" stroke-linecap="round" stroke-linejoin="round"/><path d="m218 138.751c8.093.407 16.251.506 24.344 0" stroke="#000" stroke-linecap="round" stroke-linejoin="round"/><path d="m241.297 120.874c-.052 6.095.002 12.185-.57 18.258m.095-.001c2.031 1.165 3.865 2.513 5.801 3.804m-5.896-22.727c2.137 2.335 4.474 4.492 7.227 6.086" stroke="#000" stroke-linecap="round" stroke-linejoin="round"/><path d="m247.953 126.009c.129 5.604-.549 11.129-1.521 16.641m-5.8-31.761c-.299 1.884-.224 3.835-.169 5.737.034 1.177.128 2.333.359 3.487" stroke="#000" stroke-linecap="round" stroke-linejoin="round"/><path d="m239.016 112.695c2.364-.979 5.094-1.956 6.941-3.803" stroke="#000" stroke-linecap="round" stroke-linejoin="round"/><path d="m245.577 108.512c0 3.299-.155 6.648.074 9.942.092 1.326.278 2.689.972 3.846m-.095.096c-.43.703-1.063 1.366-1.426 2.092m-26.436-3.234c7.543-.125 15.087.09 22.632 0" stroke="#000" stroke-linecap="round" stroke-linejoin="round"/><path d="m220.377 112.791c.21 3.049.014 6.333.761 9.319m-1.236-9.509c6.255 0 14.029-.675 20.288-.675" stroke="#000" stroke-linecap="round" stroke-linejoin="round"/><path d="m269.988 111.339v-4.146l2.073-.829 1.659-4.146-.83-2.073 3.317-4.146 2.902.83.83-3.317 7.048 2.487-2.903 4.146 1.659 1.244 2.487-1.244v4.561l-1.243 1.658-2.073 2.902 2.073 2.073-2.073 2.488-2.073-1.244-1.659 1.244-1.243 3.317-6.219-1.244 2.487-4.561-2.487 1.244z" fill="#fff"/><path d="m269.988 111.339v-4.146l2.073-.829 1.659-4.146-.83-2.073 3.317-4.146 2.902.83.83-3.317 7.048 2.487-2.903 4.146 1.659 1.244 2.487-1.244v4.561l-1.243 1.658-2.073 2.902 2.073 2.073-2.073 2.488-2.073-1.244-1.659 1.244-1.243 3.317-6.219-1.244 2.487-4.561-2.487 1.244z" fill="url(#c)" fill-opacity=".5"/><g stroke="#000" stroke-linecap="round" stroke-linejoin="round"><path d="m283.146 95.007c-.253.736-.928 2.56-1.197 3.29m-2.49-4.686c1.459.365 2.909.72 4.386.997"/><path d="m279.757 93.512c-.29.802-.593 1.596-.898 2.392m-3.189-.099c1.269.413 2.554.863 3.888.996m-.498.798c-.7.983-1.497 1.946-2.093 2.99m-4.188-.498c.726-1.302 1.624-2.395 2.492-3.589m-2.093 3.39c1.059.128 2.147.19 3.19.398m-.001.399c.432.432 1.562 1.662 1.994 2.094m-5.582-2.094c.399.798 1.196 1.595 1.595 2.393m-.797-.399c-.017.578-.798 1.819-.798 2.392"/><path d="m275.969 106.67c.027-1.529 1.502-3.045 1.993-4.386"/><path d="m272.182 105.474c1.561.229 3.105.498 4.685.498m-3.689-3.688c1.594.367 3.171.798 4.785.798m-7.377 3.388c.617-.209 1.433-.436 1.894-.897m2.094 1.795c.62-.216 1.238-.447 1.883-.576.155-.031.154-.01.211-.122m-5.783.498c1.451.225 2.912.498 4.386.498m-5.283-.996v4.785m3.688-3.589c-.037.755-.1 2.791-.1 4.386m-3.488-.598c1.093.282 2.191.539 3.289.798m.699.398c.698-.598 1.495-.997 2.691-1.794"/><path d="m276.367 111.056c0 .797.731 1.408 1.196 1.595m-.098.897c-.188 1.05-.498 2.117-.498 3.19"/><path d="m276.467 116.539c1.102.226 2.156.454 3.19.897m.3-.399c.462-.814.832-2.738 1.196-3.589"/><path d="m284.741 114.245-1.795-1.794c-.066.332-.518.997-1.794.997m3.391.598c.762-1.02 1.581-2.136 1.894-3.389m-1.197-1.794c.633.42 1.158 1.014 1.795 1.396m-1.496-1.595c.651-1.117.699-1.504.798-2.791m-.001-.001c.867-.52 1.175-.776 1.894-1.495"/><path d="m287.832 99.991c.121 1.559.106 3.137.299 4.685m-2.393-3.787c.57-.34 1.221-.623 1.695-1.097m-2.492-.798c.435.448 1.069.956 1.197 1.595m-1.097-1.694c.475-.734.894-1.442 1.174-2.27.084-.248.109-.48.321-.621m-2.792-1.495c1.044.612 2.188 1.255 3.389 1.495m-7.276.798c.462.347.937.833 1.496 1.019.19.063.295.122.398.277m-2.392 6.079c.794-.783 1.774-1.454 2.492-2.292m.499-.1c.889.324 2.034.591 2.791 1.196m-1.397-.298c.15 2.093-.299 4.178-.299 6.28m-4.586-4.188a87.01 87.01 0 0 0 .598 4.386"/><path d="m278.859 108.563c1.094.324 2.369.487 3.39.997"/><path d="m281.451 109.262a18.118 18.118 0 0 1 1.595-1.794m-2.292-3.29c0 .525-.068 1.091.1 1.595m.398.1c.552.134 1.291.147 1.794.399m-2.59-.201a14.617 14.617 0 0 1 -.997 1.496m-5.783 8.174c.109-.863.387-1.516.698-2.293m-.698 2.791c1.192.257 2.38.537 3.588.698"/></g><ellipse cx="210.5" cy="67.512" fill="#fff" rx="5.5" ry="6"/><ellipse cx="210.367" cy="59.512" fill="#9e74ff" fill-opacity=".5" rx="5.5" ry="6"/><path d="m206.342 59.26c.302.982.815 2.109.815 3.156 0 .564.124-1.135.332-1.664 1.228-3.126 4.731-5.195 7.544-6.914" stroke="#000" stroke-linecap="round" stroke-linejoin="round"/><path d="m206.651 54.33c-2.863 2.379-5.006 5.58-2.63 9.233 1.774 2.727 5.241 3.055 7.598.894 2.858-2.62 2.881-7.911-.643-9.983-2.876-1.691-5.048.289-6.692 2.453" stroke="#000" stroke-linecap="round" stroke-linejoin="round"/><path d="m307.421 44.895c-3.984-2.45-6.689-.809-4.903 1.226 1.188 1.354 5.013 1.646 6.128 3.064 1.075 1.366.14 3.06-1.225 3.371-1.154.264-4.29 1.226-6.741-2.145" stroke="#080908" stroke-linecap="round" stroke-linejoin="round"/><path d="m305.275 41.219c.327 3.7 0 10.418 0 14.708m10.112-25.405c-4.345-2.674-7.296-.883-5.348 1.337 1.296 1.477 5.468 1.796 6.685 3.343 1.172 1.489.152 3.336-1.337 3.677-1.258.287-4.68 1.337-7.354-2.34" stroke="#080908" stroke-linecap="round" stroke-linejoin="round"/><path d="m313.047 26.51c.356 4.036 0 11.366 0 16.046" stroke="#080908" stroke-linecap="round" stroke-linejoin="round"/><path d="m322.407 76.055c.004-.422.005-2.357.005-5.348m-.005-17.048v5.014zm0 13.037c-.001-1.303.005-2.997.005-4.346zm-14.755 7.689v-3.07m.137-5.695v-5.014m7.284 10.028c0-1.552-.028-3.677-.028-3.677m0-16.379c-.018.256-.025 1.81-.027 4.011m0 7.689c.019-2.34-.007-1.773-.008-3.343" stroke="#000" stroke-linecap="round" stroke-linejoin="round"/><path d="m306.004 80.907-2.363 5.908 6.695 8.27 10.633-2.363v-10.24l-5.119-4.332z" fill="#fff"/><path d="m310.188 81.203a137.903 137.903 0 0 1 3.396 7.975" stroke="#000" stroke-linecap="round" stroke-linejoin="round"/><path d="m303.984 88.44c.946-1.484 1.994-2.84 3.244-4.086 1.466-1.46 3.08-2.77 4.633-4.135" stroke="#000" stroke-linecap="round" stroke-linejoin="round"/><path d="m303.098 87.603c2.029.42 4.062.764 6.126.962 1.99.191 3.99.2 5.984.318" stroke="#000" stroke-linecap="round" stroke-linejoin="round"/><path d="m314.422 89.326a74.417 74.417 0 0 1 5.514-6.203" stroke="#000" stroke-linecap="round" stroke-linejoin="round"/><path d="m310.139 81.498c2.723.257 5.486.361 8.183.845 1.195.215 2.239.499 3.14 1.321" stroke="#000" stroke-linecap="round" stroke-linejoin="round"/><path d="m320.771 83.468c.409 3.404.262 6.64 0 10.043m-6.152-3.644c1.67 1.079 3.325 2.166 4.923 3.348m-4.874-4.431c-1.212 1.67-2.929 4.525-4.529 5.858" stroke="#000" stroke-linecap="round" stroke-linejoin="round"/><path d="m309.793 95.086c4.226-.449 8.412-.85 12.554-1.821" stroke="#000" stroke-linecap="round" stroke-linejoin="round"/><path d="m304.133 88.883c2.173 2.325 4.367 4.595 6.843 6.597m-7.976-7.631c.209-1.448.759-2.754 1.389-4.064.48-.999 1.099-1.949 1.368-3.025m-.493-.787c1.001.494 1.998 1.019 3.052 1.395.728.26 1.462.376 2.215.525m-3.494-1.97c2.989-.821 5.92-1.793 8.96-2.412m.05.246c-1.716 1.513-3.653 2.842-5.711 3.84m5.76-3.299c1.423 1.188 2.836 2.39 4.296 3.533.714.559 1.326 1.14 1.956 1.784" stroke="#000" stroke-linecap="round" stroke-linejoin="round"/><path d="m443.139 44.455 2.005-6.685 8.357-2.34 5.683 4.01-1.003 9.36-8.691 1.338z" fill="#fff"/><path d="m449.238 38.23a116.149 116.149 0 0 1 2.883 6.769" stroke="#000" stroke-linecap="round" stroke-linejoin="round"/><path d="m443.975 44.371c.802-1.26 1.691-2.41 2.753-3.468 1.244-1.239 2.614-2.35 3.932-3.51" stroke="#000" stroke-linecap="round" stroke-linejoin="round"/><path d="m443.223 43.661c1.722.357 3.447.65 5.199.817 1.69.162 3.387.17 5.079.27" stroke="#000" stroke-linecap="round" stroke-linejoin="round"/><path d="m452.832 45.124a63.156 63.156 0 0 1 4.68-5.265" stroke="#000" stroke-linecap="round" stroke-linejoin="round"/><path d="m449.197 38.48c2.312.219 4.657.307 6.946.718 1.014.182 1.9.423 2.665 1.121" stroke="#000" stroke-linecap="round" stroke-linejoin="round"/><path d="m458.223 40.151c.346 2.89.222 5.636 0 8.524m-5.223-3.091c1.418.916 2.822 1.839 4.178 2.841m-4.137-3.761c-1.028 1.418-2.485 3.84-3.844 4.972" stroke="#000" stroke-linecap="round" stroke-linejoin="round"/><path d="m448.904 50.013c3.587-.381 7.14-.722 10.655-1.546" stroke="#000" stroke-linecap="round" stroke-linejoin="round"/><path d="m444.1 44.748c1.844 1.974 3.706 3.9 5.808 5.6m-6.769-6.478c.177-1.229.644-2.337 1.179-3.45.407-.846.932-1.653 1.161-2.567m-.418-.668c.849.42 1.696.864 2.59 1.183.618.22 1.241.32 1.88.446" stroke="#000" stroke-linecap="round" stroke-linejoin="round"/><path d="m445.479 37.77c2.536-.697 6.11-2.149 8.691-2.674m.042.209c-1.456 1.284-3.1 2.412-4.847 3.259m4.889-2.799c1.208 1.008 2.407 2.029 3.647 2.999.605.474 1.125.967 1.659 1.513" stroke="#000" stroke-linecap="round" stroke-linejoin="round"/><path d="m473.631 20.983v-7h16.5l-1.5 8z" fill="#ffc101" fill-opacity=".5"/><g stroke="#000"><path d="m472.182 33.571c-.294-7.006 1.109-13.983.585-20.975" stroke-linecap="round" stroke-linejoin="round"/><path d="m471.264 13.85c5.138-.028 11.661-.404 16.79-.67m-15.042 7.688c4.679.334 9.694.669 14.373 1.003" stroke-linecap="round" stroke-linejoin="round"/><path d="m487.977 12.512c-.258 2.674-.755 7.378-.926 9.36m-10.028-4.096c.34.266 1.616 1.934 1.941 1.616.888-.87 3.412-2.774 4.411-3.538m-11.778 17.967c-.592-.144-1.216-.347-1.833-.339-.15.002-.507.063-.274.293.732.72 2.333.622 3.263.622.097 0 2.197-.083 1.89-.39-.177-.177-.554-.248-.775-.316-.615-.19-1.242-.37-1.876-.483-.82-.146-2.008-.314-2.744.2-.694.484.24.957.687 1.081 1.427.397 3.138.44 4.583.121.269-.06.611-.13.849-.288.261-.172-.32-.163-.343-.167m-21.356-24.548c-.331 1.565-1.19 3.976.009 5.423 1.059 1.278 3.633 1.462 5.052.822.76-.343 1.126-1.219 1.248-1.992.211-1.324-.539-2.425-1.573-3.194-1.922-1.429-5.013-.473-6.031 1.676-.475 1.002-.388 2.279.32 3.152.853 1.051 2.111.991 3.315 1.133" stroke-linecap="round" stroke-linejoin="round"/><path d="m453.166 16.544c-3.009-.669-4.297-5.223-3.51-8.106" stroke-linecap="round" stroke-linejoin="round"/><path d="m449.406 8.855c-.605 1.135-1.107 2.155-1.179 3.469-.085 1.526 1.179 3.551 4.271 4.888m6.352-1.338c4.011 0 6.139-7.326 6.351-8.523" stroke-linecap="round" stroke-linejoin="round"/><path d="m465.283 7.017c.324 4.29-.393 8.96-5.097 10.53m-7.355-.001c-1.228 2.882-2.339 6.351-3.31 9.253-.147 2.73 2.669-4.818 7.47-3.84 1.573.32 4.976 3.31 6.203 4.28m-3.09-9.191c.771 2.348 1.338 4.78 2.177 7.103.27.749.574 1.691 1.249 2.173m-21.31-16.464c-1.645.707-3.096 1.536-3.473 3.455-.2 1.018.28 1.9 1.189 2.349 1.832.904 4.126-.362 4.763-2.196.572-1.645-.874-3.144-2.479-3.2-1.28-.043-2.63.395-3.737 1.013-.857.478-1.158.998-1.528 1.839" stroke-linecap="round" stroke-linejoin="round"/><path d="m437.623 14.454c1.61-1.917 3.134-3.829 4.513-5.914.134-.203.94-1.182.668-1.272" stroke-linecap="round" stroke-linejoin="round"/><path d="m442.303 8.103c-1.971 2.304-4.162 4.395-6.156 6.676-.605.69-4.374 3.77-6.379 10.79m.25.083c.938-1.542 3.891-5.502 6.1-5.098.958.175 3.367 4.244 3.677 5.098m.168 0c.402.312.358.23.167-.144-.406-.793-.51-1.793-.613-2.66-.027-.23-.234-4.394.195-4.281.362.095 1.975 1.119 2.423.984.836-.25.018-1.608.771-2.029.492-.274.998-.533 1.486-.812m-85.657 13.706c.754.746 1.625 1.268 2.73 1.216.355-.016.93-.332.687-.78-.276-.507-1.146-.667-1.644-.756-.949-.172-2.02-.242-2.971-.042-.66.138-.793.498-.199.868.881.55 1.995.718 3.013.794.281.02 1.129.125 1.197-.34.051-.343-.425-.435-.64-.542" stroke-linecap="round" stroke-linejoin="round"/><path d="m349.627 11.613c1.307 2.855 2.6 5.716 3.886 8.58.972 2.165 1.931 4.336 3.148 6.379.781 1.313 1.64 2.543 2.66 3.677" stroke-linecap="round" stroke-linejoin="round"/><path d="m337.51 17.38c2.966-1.2 9.398-4.161 12.368-5.349" stroke-linecap="round" stroke-linejoin="round"/><path d="m337.51 17.045c1.671 2.674 3.342 5.682 4.68 7.688" stroke-linecap="round" stroke-linejoin="round"/><path d="m341.188 24.399c4.345-1.671 8.979-3.65 12.702-5.014m-6.352-4.345c-1.337 2.005-2.435 4.153-3.677 6.016" stroke-linecap="round" stroke-linejoin="round"/><path d="m341.27 17.547c2.924.501 6.267 1.17 8.607 1.504m-194.209 26.741v9.02m-3.344-3.003v7.086m138.053 39.378c3.784-2.458 7.575-4.906 11.365-7.354" stroke-linecap="round" stroke-linejoin="round"/><path d="m297.73 91.253c.94.718 1.696 1.373 2.34 2.34" stroke-linecap="round" stroke-linejoin="round"/><path d="m297.062 91.921c1.321-.44 2.59-.77 3.937-1.077.139-.031 1.263-.63 1.263-.445 0 1.237-1.967 2.745-2.525 3.862m39.109-26.741c9.793-6.645 20.01-14.385 31.941-16.49 5.867-1.036 14.078.92 19.202 4.122" stroke-linecap="round" stroke-linejoin="round"/><path d="m385.645 55.486c.995-.048 2.238-.145 2.859-1.077.203-.304.149-1.144.149-.26m-3.008 1.337c2.944.31 5.978.293 8.876.929.663.145-.645.074-.854.074" stroke-linecap="round" stroke-linejoin="round"/><path d="m394.001 56.49c-2.037-.88-3.866-2.149-5.627-3.492-.616-.47-1.729-1.856-2.395-1.523m88.58-42.787c-1.976-1.7-3.644-3.716-5.348-5.682m13.705 3.342c1.179-1.827 2.415-3.581 3.677-5.348m15.712 16.714 8.691-1.003m-270.759 84.905c-1.086-2.607-1.478-5.932-3.937-7.689-1.15-.821 2.108-.308 2.86-.408 2.353-.314 1.38.474 1.151 2.674-.166 1.6-.467 3.968.26 5.423m12.534 17.716c5.011-.057 9.958-.51 14.708-2.173m-13.872 10.027c5.59-2.795 11.395-5.458 16.547-9.025m-64.676-25.141c2.204 1.32 4.5 3.093 6.952 3.91m-7.604-8.688c3.845 2.119 7.487 4.558 11.296 6.734m-10.456-11.464c3.932 2.778 7.951 5.43 12 8m-7.844-9.352c2.574 1.332 5.126 2.857 7.603 4.344m-4.759-5.992c2.031.92 3.045 1.473 5 2.5" stroke-linecap="round" stroke-linejoin="round"/></g></svg>