<svg fill="none" height="67" viewBox="0 0 353 67" width="353" xmlns="http://www.w3.org/2000/svg"><path d="m353 27c0 22.0914-17.909 40-40 40h-273c-22.0914 0-40-17.9086-40-40v-26h353z" fill="#f6f1ff"/><path d="m43.4131 33.0718c1.2234-1.6533 12.2343-7.4398 13.4577-8.2664-.4079-3.7199 1.0602-11.9037 3.6702-11.573 3.2625.4133 3.1255 5.1681 2.4469 6.1998-.8156 1.24-2.4469 5.3732 0 5.3732 2.4468 0 15.9046-8.2665 12.2343-5.3732-3.6703 2.8932-8.1562 11.1597-8.564 11.9863s-.8157 4.9598-2.4469 8.2664-9.3796 5.7865-8.564 7.0265c.4079.6201.4078 1.2399 0 2.0666-.4078.8266-5.7093 2.4799-6.525 2.4799-.8156 0-3.2624-1.24-4.4859-2.4799-.9787-.992.4078-1.7911 1.2235-2.0666l-2.0391-2.0666c-.9787-.992.136-1.7911.8156-2.0666-.4077-.2756-1.3864-1.24-2.0389-2.8933-.8156-2.0666 2.039-1.24.8156-2.4799-1.2234-1.24-1.2234-2.4799 0-4.1332z" fill="#7d4dd3"/><g clip-rule="evenodd" fill-rule="evenodd"><path d="m67.8575 29.9222c-.5519 1.1959-.8203 2.1365-.7917 2.7156l.001.0212-.0011.0211c-.2116 4.0738-2.2959 6.991-4.6126 9.2164-1.1568 1.1111-2.3799 2.0579-3.4622 2.8902l-.0815.0626c-1.0592.8146-1.9563 1.5044-2.5583 2.1467l-.5914-.5694c.6489-.6922 1.5928-1.4179 2.6185-2.2064.0398-.0306.0797-.0613.1197-.092 1.0842-.8339 2.2739-1.7557 3.3941-2.8317 2.2333-2.1452 4.1562-4.8709 4.3581-8.6398-.0318-.7968.3169-1.8894.8686-3.0847.5661-1.2266 1.3777-2.6273 2.3326-4.0487 1.907-2.8384 4.415-5.8025 6.7426-7.6561l.5039.65c-2.2398 1.7836-4.6935 4.6748-6.5723 7.4714-.938 1.3961-1.7254 2.7578-2.268 3.9336z" fill="#000"/><path d="m55.3591 36.9131c.1592-.1615.4175-.1615.5767 0 .4581.4642.7079.9513.7948 1.4394.0863.4852.0057.9375-.1418 1.3261-.2861.7539-.8458 1.3211-1.0539 1.5319l-.0069.007c-.08.081-.2175.1846-.3656.2898-.1579.1124-.3585.2478-.5867.3977-.4569.3-1.0339.6638-1.6219 1.0265-1.1691.7213-2.4075 1.4542-2.8333 1.6699-.5254.2663-1.1417.2501-1.6897.139-.5564-.1128-1.1014-.3352-1.5297-.5523-.1541-.0781-.2907-.1396-.4365-.2053-.0376-.0169-.0758-.0341-.1151-.052-.1897-.0862-.3927-.1821-.6366-.3194-.4866-.2739-1.1181-.7028-2.1467-1.5368-.542-.4395-.8985-.8762-1.0926-1.3167-.1978-.4492-.2165-.8799-.1188-1.2762.1807-.7324.7593-1.3183 1.1476-1.7115.0102-.0103.0203-.0205.0302-.0305l.5767.5845c-.4278.4336-.8427.8696-.9632 1.358-.0552.2236-.0484.4646.0723.7387.1246.2828.3798.621.8573 1.0082 1.0105.8193 1.6023 1.217 2.0333 1.4597.2149.121.3943.206.5741.2877.0348.0158.07.0316.1058.0478.1476.0664.3047.1372.4769.2245.3874.1962.8618.3871 1.325.481.4715.0956.8748.0793 1.1649-.0677.3898-.1976 1.5983-.9113 2.7741-1.6367.5845-.3606 1.1544-.72 1.6024-1.0142.2242-.1472.4155-.2765.5618-.3806.1562-.111.2353-.1754.2573-.1977.2055-.2083.6558-.6701.8763-1.251.1074-.2831.1542-.5799.1003-.8826-.0533-.2998-.2113-.6394-.5688-1.0017-.1593-.1614-.1593-.4231 0-.5845z" fill="#000"/><path d="m55.3592 40.6328c.1593-.1614.4175-.1614.5768 0 .458.4643.7079.9513.7947 1.4395.0864.4851.0057.9374-.1417 1.326-.2861.7539-.8459 1.3211-1.0539 1.5319l-.0069.007c-.0884.0895-.2355.1899-.3829.2837-.16.1019-.3623.2218-.591.3524-.4581.2616-1.0361.574-1.6237.8847-1.1758.6218-2.4021 1.2432-2.8099 1.4499-.9164.4644-2.0358.2132-2.9817-.1908-.9686-.4137-1.8776-1.04-2.4567-1.5095-.542-.4394-.8985-.8762-1.0925-1.3167-.1979-.4492-.2166-.8799-.1189-1.2762.1806-.7324.7593-1.3183 1.1476-1.7115.0102-.0103.0202-.0204.0301-.0305l.5768.5846c-.4278.4335-.8428.8695-.9632 1.3579-.0552.2236-.0484.4646.0723.7387.1246.2828.3798.6211.8573 1.0082.5413.4389 1.3856 1.018 2.264 1.3932.901.3849 1.722.5062 2.3002.2132.4078-.2067 1.6284-.8252 2.7974-1.4434.5848-.3093 1.1538-.6169 1.6005-.872.2237-.1277.4133-.2403.5575-.3321.0722-.046.1301-.0849.1737-.1165.0218-.0157.0384-.0284.0505-.0383.0127-.0104.017-.0147.0158-.0135.2056-.2084.6559-.6702.8763-1.2511.1074-.2831.1542-.5799.1004-.8826-.0534-.2998-.2113-.6393-.5689-1.0017-.1592-.1614-.1592-.4231 0-.5845z" fill="#000"/><path d="m54.4684 45.2845c.1021-.2034.3477-.2844.5484-.1808.5677.2929.9381.6594 1.1301 1.0837.1924.4252.1817.8557.0859 1.2297-.1855.7236-.7079 1.3149-.9183 1.5136-.0846.0799-.2223.167-.3557.2461-.1463.0868-.331.1888-.5395.2997-.4176.2221-.9443.4873-1.4795.751-1.0712.5277-2.1882 1.055-2.5596 1.2304-.8406.3968-1.8634.1822-2.7266-.1613-.8846-.352-1.7149-.8848-2.2444-1.2848-.4959-.3746-.8287-.7515-1.012-1.1391-.1884-.3984-.2074-.785-.1132-1.1406.091-.3436.2817-.638.4808-.8805.1965-.2395.4213-.4517.6029-.6232l.0071-.0067.556.6048c-.1886.1781-.3783.358-.539.5537-.1608.1959-.2718.3837-.3201.5661-.0451.1705-.0408.3539.061.5691.1069.2262.3312.5068.7639.8336.4909.3708 1.2575.8607 2.0551 1.1781.8189.3259 1.5634.4273 2.0841.1815.3714-.1754 1.483-.7002 2.5474-1.2246.5327-.2623 1.0506-.5232 1.4571-.7394.2035-.1083.3758-.2036.5065-.2812.0655-.0388.1176-.0715.1567-.0978.0394-.0266.0543-.0393.0551-.0398.0001-.0001 0 0-.0001.0001.1609-.152.5557-.6127.6848-1.1166.0615-.2397.0574-.4669-.0378-.6773-.0956-.2113-.3069-.4585-.7587-.6917-.2007-.1035-.2806-.3524-.1784-.5558z" fill="#000"/><path d="m62.148 13.1034c1.3333.5874 2.1208 2.2569 1.6399 3.9626-.4064 1.4412-.8854 3.3793-1.0736 4.9479-.0949.7911-.1105 1.4486-.0255 1.8929.0425.2225.1031.3513.1568.4175.031.0381.0599.058.1022.065.0165-.0059.0378-.0138.0646-.0242.0845-.0329.2045-.0831.3583-.15.3064-.1334.7327-.3271 1.2479-.5666 1.0298-.4787 2.4064-1.1363 3.8713-1.8503 2.9344-1.4302 6.2054-3.0778 7.7551-3.9656.1961-.1123.4448-.0423.5557.1565.1108.1987.0417.4508-.1544.5632-1.5768.9033-4.8716 2.5622-7.8029 3.9908-1.4679.7155-2.8491 1.3753-3.8847 1.8567-.5175.2406-.9507.4375-1.2661.5749-.1572.0684-.2887.1235-.3881.1622-.0492.0191-.0953.0361-.135.0488-.0197.0063-.0425.0131-.066.0187-.0165.004-.0615.0145-.1156.0145-.3183 0-.5828-.1362-.7722-.3695-.1756-.2164-.2726-.4977-.3276-.7854-.1102-.576-.0807-1.3393.0165-2.1499.1961-1.6347.6896-3.6231 1.099-5.0752.3801-1.3479-.2598-2.5716-1.1807-2.9774-.4524-.1993-.9946-.2146-1.5682.0688-.5811.2871-1.2178.894-1.8024 1.9801-1.1795 2.1917-1.3776 4.1826-1.3776 5.7436 0 .392.0125.7566.0252 1.0942.0013.0339.0025.0676.0038.1011.0113.2966.0219.5764.0219.8261 0 .2763-.0126.5403-.0592.7713-.0464.2302-.1341.4677-.3151.6511-.1385.1404-.42.3384-.7594.5604-.3543.2317-.8133.5157-1.3407.8331-1.0553.6353-2.3966 1.4121-3.7477 2.1872-.6957.3991-1.3919.7966-2.0528 1.174-1.9219 1.0973-3.5451 2.0242-3.988 2.3234-.5764.3894-1.4461 1.1756-1.9683 2.0416-.2603.4317-.4159.8531-.4311 1.2349-.0146.3647.0967.717.4225 1.0472.7488.7589 1.6862 1.5613 2.704 2.1715 1.0213.6124 2.0949 1.014 3.1249 1.014.2161 0 .6336-.1186 1.2087-.3549.5539-.2276 1.195-.5385 1.8294-.8679 1.268-.6584 2.4831-1.3768 2.8691-1.6115.8581-.5218 1.1078-1.3755.9807-2.1054-.133-.7637-.6337-1.2601-1.1786-1.2601-1.5177 0-3.4779.7783-5.4995 2.0077-.1932.1175-.4437.054-.5595-.1418-.1159-.1957-.0533-.4496.1398-.567 2.0565-1.2506 4.1743-2.1255 5.9192-2.1255 1.0863 0 1.8089.9502 1.9818 1.9431.1788 1.0267-.1833 2.2396-1.3643 2.9578-.3958.2407-1.6276.969-2.9168 1.6384-.6442.3344-1.3092.6577-1.8949.8983-.5643.2319-1.1196.4155-1.5151.4155-1.231 0-2.4507-.476-3.5401-1.1292-1.0929-.6552-2.0837-1.5061-2.8655-2.2985-.4899-.4964-.6844-1.0741-.6608-1.6652.023-.574.2497-1.1342.5502-1.6325.5993-.9939 1.5646-1.8611 2.2117-2.2983.4707-.318 2.1482-1.2757 4.0889-2.3838.6499-.371 1.3292-.7588 2.0026-1.1452 1.3506-.7748 2.6856-1.548 3.733-2.1785.5241-.3154.9731-.5934 1.3149-.817.3568-.2333.5595-.3839.625-.4503.0229-.0232.0626-.0827.0927-.232.0299-.1484.0427-.3461.0427-.6059 0-.2327-.01-.4956-.0214-.796-.0012-.0328-.0025-.066-.0037-.0996-.0128-.3389-.0258-.717-.0258-1.1258 0-1.6422.2098-3.7845 1.4772-6.1394.6389-1.1871 1.3842-1.9436 2.161-2.3274.7844-.3875 1.576-.3811 2.2507-.0838z" fill="#000"/></g><path d="m45.072 25.2777s2.3013-5.8648 5.5229-6.6131c-3.2216-.2593-4.8254-4.8213-5.5229-7.0855-.5136 2.506-2.3012 6.8095-5.5229 6.8095 3.682 0 5.5229 6.8891 5.5229 6.8891z" fill="#fff"/><path clip-rule="evenodd" d="m45.0522 11.1665c.1828-.0093.3487.1091.4038.2883.3472 1.1269.9101 2.7907 1.7719 4.1993.8683 1.419 1.9805 2.4846 3.3985 2.5987.1985.016.3559.1784.3702.3822.0144.2039-.1186.3879-.3127.433-.7077.1643-1.3928.6178-2.033 1.2449-.6378.6246-1.2079 1.3989-1.6869 2.1628-.478.7623-.8586 1.5035-1.1199 2.055-.1305.2753-.2307.5024-.2981.6599-.0337.0788-.0591.1401-.076.1813l-.0188.0463-.0044.0113-.001.0025c-.0646.1644-.2244.2688-.3969.2586s-.3194-.1322-.3652-.3032l-.0009-.0035-.0036-.0131c-.0033-.0119-.0084-.0301-.0152-.0541-.0137-.0481-.0346-.1196-.0625-.2111-.0559-.1831-.1402-.446-.2528-.7621-.2257-.6334-.563-1.474-1.0105-2.3113-.449-.8403-.9992-1.6581-1.6441-2.2614-.6427-.6013-1.3557-.9686-2.145-.9686-.2224 0-.4027-.1851-.4027-.4133 0-.2283.1803-.4133.4027-.4133 1.4159 0 2.562-.9433 3.4433-2.283.8774-1.3339 1.4364-2.9828 1.6856-4.1983.0376-.1839.1914-.3185.3742-.3278zm-3.8172 7.2562c.3612.1976.6952.4504 1.0017.7371.7358.6884 1.3363 1.5928 1.8077 2.4748.473.8851.8261 1.7667 1.0607 2.425.0097.0272.0192.0541.0285.0805.2704-.5685.6615-1.3277 1.1531-2.1118.4991-.7958 1.1083-1.628 1.8081-2.3135.3723-.3646.7769-.6943 1.2107-.9543-1.1706-.5092-2.0741-1.5464-2.7596-2.6667-.6157-1.0063-1.0826-2.1228-1.4291-3.0922-.3245 1.0311-.8068 2.1652-1.4569 3.1535-.6251.9502-1.43 1.8001-2.4249 2.2676z" fill="#000" fill-rule="evenodd"/><path d="m64.7041 43.8773s2.3013-5.8648 5.523-6.6131c-3.2217-.2593-4.8255-4.8213-5.523-7.0855-.5136 2.506-2.3012 6.8095-5.5229 6.8095 3.682 0 5.5229 6.8891 5.5229 6.8891z" fill="#fff"/><path clip-rule="evenodd" d="m64.6844 29.7661c.1828-.0092.3487.1092.4039.2883.3471 1.1269.91 2.7907 1.7719 4.1993.8683 1.4191 1.9805 2.4846 3.3985 2.5987.1985.016.3558.1784.3702.3822.0143.2039-.1186.3879-.3128.433-.7076.1643-1.3927.6178-2.0329 1.2449-.6378.6247-1.2079 1.3989-1.6869 2.1628-.478.7623-.8586 1.5035-1.1199 2.055-.1305.2753-.2308.5024-.2982.66-.0336.0787-.0591.14-.0759.1812l-.0188.0463-.0045.0113-.001.0025c-.0645.1645-.2244.2688-.3969.2586-.1724-.0102-.3194-.1322-.3651-.3032l-.001-.0035-.0036-.0131c-.0032-.0119-.0083-.0301-.0152-.0541-.0137-.0481-.0345-.1196-.0625-.2111-.0559-.1831-.1402-.446-.2528-.7621-.2257-.6334-.5629-1.474-1.0104-2.3113-.4491-.8402-.9992-1.6581-1.6441-2.2614-.6427-.6013-1.3558-.9686-2.145-.9686-.2224 0-.4027-.185-.4027-.4133s.1803-.4133.4027-.4133c1.4159 0 2.5619-.9433 3.4432-2.283.8775-1.3339 1.4365-2.9828 1.6856-4.1983.0377-.1839.1914-.3185.3742-.3278zm-3.8171 7.2562c.3611.1976.6952.4504 1.0017.7371.7358.6884 1.3363 1.5928 1.8077 2.4749.473.885.8261 1.7666 1.0607 2.4249.0097.0272.0192.0541.0284.0805.2705-.5685.6616-1.3277 1.1532-2.1117.499-.7959 1.1083-1.6281 1.8081-2.3136.3723-.3646.7769-.6943 1.2107-.9543-1.1706-.5092-2.0742-1.5464-2.7597-2.6667-.6157-1.0063-1.0826-2.1228-1.4291-3.0922-.3244 1.0311-.8067 2.1652-1.4568 3.1536-.6251.9502-1.4301 1.8-2.4249 2.2675z" fill="#000" fill-rule="evenodd"/><path d="m96.2969 29h-1.0156l2.9375-8h1l2.9372 8h-1.015l-2.391-6.7344h-.0625zm.375-3.125h4.0941v.8594h-4.0941zm8.0271-4.875v8h-.922v-8zm3.111 0v8h-.922v-8zm5.907 8v-8h2.703c.628 0 1.141.1133 1.539.3398.401.224.698.5274.891.9102.192.3828.289.8099.289 1.2812 0 .4714-.097.8998-.289 1.2852-.19.3854-.485.6927-.883.9219-.399.2265-.909.3398-1.531.3398h-1.938v-.8593h1.906c.43 0 .775-.0743 1.035-.2227.261-.1484.45-.349.567-.6016.12-.2552.18-.5429.18-.8633 0-.3203-.06-.6067-.18-.8593-.117-.2526-.307-.4505-.57-.5938-.263-.1458-.612-.2187-1.047-.2187h-1.703v7.1406zm7.357 0v-6h.891v.9062h.062c.11-.2968.308-.5377.594-.7226.287-.1849.609-.2774.969-.2774.068 0 .152.0014.254.004.101.0026.178.0065.23.0117v.9375c-.031-.0078-.103-.0196-.215-.0352-.109-.0182-.225-.0273-.347-.0273-.292 0-.552.0612-.782.1836-.226.1198-.406.2864-.539.5-.13.2109-.195.4518-.195.7226v3.7969zm6.848.125c-.542 0-1.017-.1289-1.426-.3867-.406-.2578-.724-.6185-.953-1.0821-.227-.4635-.34-1.0052-.34-1.625 0-.625.113-1.1705.34-1.6367.229-.4661.547-.8281.953-1.0859.409-.2578.884-.3867 1.426-.3867s1.016.1289 1.422.3867c.409.2578.726.6198.953 1.0859.229.4662.344 1.0117.344 1.6367 0 .6198-.115 1.1615-.344 1.625-.227.4636-.544.8243-.953 1.0821-.406.2578-.88.3867-1.422.3867zm0-.8281c.411 0 .75-.1055 1.016-.3164.265-.211.462-.4883.589-.8321.128-.3437.192-.7161.192-1.1172 0-.401-.064-.7747-.192-1.121-.127-.3464-.324-.6263-.589-.8399-.266-.2135-.605-.3203-1.016-.3203-.412 0-.75.1068-1.016.3203-.265.2136-.462.4935-.59.8399-.127.3463-.191.72-.191 1.121 0 .4011.064.7735.191 1.1172.128.3438.325.6211.59.8321.266.2109.604.3164 1.016.3164zm6.891.8281c-.5 0-.941-.1263-1.324-.3789-.383-.2552-.682-.6146-.898-1.0781-.216-.4662-.324-1.017-.324-1.6524 0-.6302.108-1.1771.324-1.6406s.517-.8216.902-1.0742c.386-.2526.831-.3789 1.336-.3789.391 0 .699.0651.926.1953.229.1276.404.2734.523.4375.123.1614.218.2943.285.3984h.079v-2.9531h.921v8h-.89v-.9219h-.11c-.067.1094-.164.2474-.289.4141-.125.164-.303.3112-.535.4414-.232.1276-.54.1914-.926.1914zm.125-.8281c.37 0 .683-.0964.938-.2891.255-.1953.449-.4648.582-.8086.133-.3463.199-.7461.199-1.1992 0-.4479-.065-.8398-.195-1.1758-.13-.3385-.323-.6015-.578-.789-.255-.1901-.571-.2852-.946-.2852-.39 0-.716.1003-.976.3008-.258.1979-.452.4674-.582.8086-.128.3385-.192.7187-.192 1.1406 0 .4271.066.8151.196 1.1641.133.3463.328.6224.586.8281.26.2031.583.3047.968.3047zm8.723-1.75v-3.5469h.922v6h-.922v-1.0156h-.062c-.141.3047-.36.5638-.657.7773-.296.211-.671.3164-1.125.3164-.375 0-.708-.082-1-.2461-.291-.1666-.52-.4166-.687-.75-.167-.3359-.25-.7591-.25-1.2695v-3.8125h.922v3.75c0 .4375.122.7865.367 1.0469.247.2604.562.3906.945.3906.229 0 .462-.0586.699-.1758.24-.1172.441-.2969.602-.539.164-.2422.246-.5508.246-.9258zm5.548 2.5781c-.563 0-1.047-.1328-1.453-.3984-.406-.2657-.719-.6315-.938-1.0977-.218-.4661-.328-.9987-.328-1.5977 0-.6093.112-1.1471.336-1.6132.227-.4688.542-.8347.945-1.0977.407-.2656.881-.3984 1.422-.3984.422 0 .802.0781 1.141.2343.339.1563.616.375.832.6563.216.2812.35.6094.402.9844h-.922c-.07-.2735-.226-.5157-.468-.7266-.24-.2135-.563-.3203-.969-.3203-.359 0-.674.0937-.945.2812-.269.1849-.478.4467-.629.7852-.149.3359-.223.7305-.223 1.1836 0 .4635.073.8672.219 1.2109.148.3438.357.6107.625.8008.271.1901.588.2852.953.2852.24 0 .457-.0417.652-.125.196-.0834.361-.2031.496-.3594.136-.1563.232-.3438.289-.5625h.922c-.052.3542-.181.6732-.386.957-.203.2813-.473.5052-.809.6719-.333.1641-.721.2461-1.164.2461zm6.816-6.125v.7812h-3.109v-.7812zm-2.203-1.4375h.922v5.7187c0 .2605.038.4558.113.586.079.1276.178.2135.297.2578.123.0417.252.0625.387.0625.102 0 .185-.0052.25-.0156.065-.013.117-.0235.156-.0313l.188.8281c-.063.0235-.15.0469-.262.0704-.112.026-.254.039-.426.039-.26 0-.515-.056-.765-.1679-.248-.112-.453-.2826-.618-.5118-.161-.2291-.242-.5182-.242-.8672zm8.233 2.7812-.828.2344c-.053-.138-.129-.2721-.231-.4023-.099-.1328-.234-.2422-.406-.3281-.172-.086-.392-.129-.66-.129-.367 0-.673.0847-.918.254-.242.1666-.364.3789-.364.6367 0 .2291.084.4101.25.5429.167.1329.428.2435.782.3321l.89.2187c.537.1302.937.3295 1.2.5977.263.2656.394.6081.394 1.0273 0 .3438-.099.6511-.297.9219-.195.2708-.469.4844-.82.6406-.352.1563-.761.2344-1.227.2344-.612 0-1.118-.1328-1.519-.3984-.401-.2657-.655-.6537-.762-1.1641l.875-.2188c.083.323.241.5652.473.7266.234.1615.54.2422.918.2422.429 0 .771-.0911 1.023-.2734.255-.1849.383-.4063.383-.6641 0-.2083-.073-.3828-.219-.5234-.146-.1433-.37-.25-.672-.3204l-1-.2343c-.549-.1302-.953-.3321-1.211-.6055-.255-.276-.382-.6211-.382-1.0352 0-.3385.095-.638.285-.8984.192-.2604.454-.4648.785-.6133.333-.1484.711-.2226 1.133-.2226.593 0 1.06.1302 1.398.3906.341.2604.583.6042.727 1.0312zm7.356 4.7969c-.38 0-.725-.0716-1.035-.2148-.31-.1459-.556-.3555-.738-.6289-.183-.2761-.274-.6094-.274-1 0-.3438.068-.6224.203-.836.136-.2161.317-.3854.543-.5078.227-.1224.477-.2135.75-.2734.276-.0625.554-.112.832-.1484.365-.0469.661-.0821.887-.1055.229-.0261.396-.069.5-.1289.107-.0599.16-.1641.16-.3125v-.0313c0-.3854-.105-.6849-.316-.8984-.208-.2136-.525-.3203-.949-.3203-.44 0-.786.0963-1.036.289s-.425.3985-.527.6172l-.875-.3125c.156-.3646.365-.6484.625-.8515.263-.2058.55-.349.86-.4297.312-.0834.619-.125.921-.125.193 0 .414.0234.664.0703.253.0443.497.1367.731.2773.237.1407.434.3529.59.6367.156.2839.234.6641.234 1.1407v3.9531h-.922v-.8125h-.047c-.062.1302-.166.2695-.312.418-.146.1484-.34.2747-.582.3789-.242.1041-.538.1562-.887.1562zm.141-.8281c.364 0 .672-.0716.922-.2148.252-.1433.442-.3282.57-.5547.13-.2266.195-.4649.195-.7149v-.8437c-.039.0468-.125.0898-.258.1289-.13.0364-.281.069-.453.0976-.169.0261-.334.0495-.496.0703-.159.0183-.288.0339-.386.0469-.24.0313-.464.0821-.672.1524-.206.0677-.373.1705-.5.3086-.125.1354-.188.3203-.188.5546 0 .3204.119.5625.356.7266.239.1615.543.2422.91.2422zm4.792.6875v-6h.89v.9062h.063c.109-.2968.307-.5377.594-.7226.286-.1849.609-.2774.968-.2774.068 0 .153.0014.254.004.102.0026.179.0065.231.0117v.9375c-.031-.0078-.103-.0196-.215-.0352-.109-.0182-.225-.0273-.348-.0273-.291 0-.552.0612-.781.1836-.227.1198-.406.2864-.539.5-.13.2109-.195.4518-.195.7226v3.7969zm6.926.125c-.579 0-1.077-.1276-1.497-.3828-.416-.2578-.738-.6172-.964-1.0781-.224-.4636-.336-1.0026-.336-1.6172s.112-1.1563.336-1.625c.226-.4714.541-.8386.945-1.1016.406-.2656.88-.3984 1.422-.3984.312 0 .621.0521.926.1562.304.1042.582.2735.832.5078.25.2318.449.5391.597.9219.149.3828.223.8542.223 1.4141v.3906h-4.625v-.7969h3.687c0-.3385-.067-.6406-.203-.9062-.133-.2657-.323-.4753-.57-.6289-.245-.1537-.534-.2305-.867-.2305-.367 0-.685.0911-.953.2734-.266.1797-.47.4141-.614.7032-.143.289-.214.5989-.214.9296v.5313c0 .4531.078.8372.234 1.1523.159.3125.379.5508.66.7149.281.1614.608.2422.981.2422.242 0 .46-.0339.656-.1016.198-.0703.368-.1745.512-.3125.143-.1406.253-.3151.332-.5234l.89.25c-.094.3021-.251.5677-.472.7968-.222.2266-.495.4037-.821.5313-.325.125-.691.1875-1.097.1875zm11.027-6.125v1.25h-3.703v-1.25zm-2.856 6v-6.4336c0-.4349.085-.7956.254-1.082.172-.2865.407-.5013.703-.6446.297-.1432.635-.2148 1.012-.2148.255 0 .488.0195.699.0586.214.0391.373.0742.477.1055l-.297 1.25c-.065-.0209-.146-.0404-.242-.0586-.094-.0183-.19-.0274-.289-.0274-.245 0-.416.0573-.512.1719-.096.112-.144.2695-.144.4727v6.4023zm4.372 0v-6h1.614v1.0469h.062c.11-.3724.293-.6537.551-.8438.258-.1927.555-.289.891-.289.083 0 .173.0052.269.0156.097.0104.181.0247.254.043v1.4765c-.078-.0234-.186-.0443-.324-.0625s-.264-.0273-.379-.0273c-.245 0-.464.0534-.656.1601-.19.1042-.341.25-.453.4375-.11.1875-.164.4037-.164.6485v3.3945zm7.457.1172c-.618 0-1.149-.125-1.594-.375-.443-.2526-.784-.6094-1.024-1.0703-.239-.4636-.359-1.0117-.359-1.6446 0-.6171.12-1.1588.359-1.625.24-.4661.577-.8294 1.012-1.0898.438-.2604.951-.3906 1.539-.3906.396 0 .764.0638 1.106.1914.343.125.643.3138.898.5664.258.2526.458.5703.602.9531.143.3802.214.8255.214 1.3359v.4571h-5.066v-1.0313h3.5c0-.2396-.052-.4518-.156-.6367s-.249-.3294-.434-.4336c-.182-.1068-.394-.1601-.637-.1601-.252 0-.476.0586-.671.1757-.193.1146-.344.2696-.454.4649-.109.1927-.165.4075-.167.6445v.9805c0 .2969.054.5534.164.7695.112.2162.269.3828.472.5s.444.1758.723.1758c.185 0 .354-.026.508-.0781.153-.0521.285-.1302.394-.2344.11-.1042.193-.2318.25-.3828l1.539.1015c-.078.3698-.238.6928-.48.9688-.24.2734-.55.487-.93.6406-.377.1511-.814.2266-1.308.2266zm7.074 0c-.617 0-1.149-.125-1.594-.375-.443-.2526-.784-.6094-1.023-1.0703-.24-.4636-.36-1.0117-.36-1.6446 0-.6171.12-1.1588.36-1.625.239-.4661.576-.8294 1.011-1.0898.438-.2604.951-.3906 1.539-.3906.396 0 .765.0638 1.106.1914.344.125.643.3138.898.5664.258.2526.459.5703.602.9531.143.3802.215.8255.215 1.3359v.4571h-5.067v-1.0313h3.5c0-.2396-.052-.4518-.156-.6367s-.249-.3294-.434-.4336c-.182-.1068-.394-.1601-.636-.1601-.253 0-.477.0586-.672.1757-.193.1146-.344.2696-.453.4649-.11.1927-.166.4075-.168.6445v.9805c0 .2969.054.5534.164.7695.112.2162.269.3828.472.5.204.1172.444.1758.723.1758.185 0 .354-.026.508-.0781s.285-.1302.394-.2344c.11-.1042.193-.2318.25-.3828l1.54.1015c-.079.3698-.239.6928-.481.9688-.24.2734-.549.487-.93.6406-.377.1511-.813.2266-1.308.2266zm10.612-6.1172v1.25h-3.703v-1.25zm-2.855 6v-6.4336c0-.4349.084-.7956.253-1.082.172-.2865.407-.5013.704-.6446.296-.1432.634-.2148 1.011-.2148.256 0 .489.0195.7.0586.213.0391.372.0742.476.1055l-.297 1.25c-.065-.0209-.146-.0404-.242-.0586-.094-.0183-.19-.0274-.289-.0274-.245 0-.415.0573-.512.1719-.096.112-.144.2695-.144.4727v6.4023zm6.868.1172c-.607 0-1.132-.1289-1.574-.3867-.441-.2604-.78-.6224-1.02-1.086-.24-.4661-.359-1.0065-.359-1.6211 0-.6198.119-1.1614.359-1.625.24-.4661.579-.8281 1.02-1.0859.442-.2604.967-.3906 1.574-.3906s1.13.1302 1.57.3906c.443.2578.784.6198 1.023 1.0859.24.4636.36 1.0052.36 1.625 0 .6146-.12 1.155-.36 1.6211-.239.4636-.58.8256-1.023 1.086-.44.2578-.963.3867-1.57.3867zm.008-1.2891c.276 0 .506-.0781.691-.2343.185-.1589.324-.3751.418-.6485.096-.2734.144-.5846.144-.9336 0-.3489-.048-.6601-.144-.9336-.094-.2734-.233-.4896-.418-.6484-.185-.1589-.415-.2383-.691-.2383-.279 0-.513.0794-.704.2383-.187.1588-.329.375-.425.6484-.094.2735-.141.5847-.141.9336 0 .349.047.6602.141.9336.096.2734.238.4896.425.6485.191.1562.425.2343.704.2343zm4.527 1.1719v-6h1.613v1.0469h.063c.109-.3724.293-.6537.55-.8438.258-.1927.555-.289.891-.289.083 0 .173.0052.27.0156.096.0104.181.0247.254.043v1.4765c-.079-.0234-.187-.0443-.325-.0625s-.264-.0273-.379-.0273c-.244 0-.463.0534-.656.1601-.19.1042-.341.25-.453.4375-.109.1875-.164.4037-.164.6485v3.3945zm7.456.1172c-.617 0-1.148-.125-1.594-.375-.442-.2526-.784-.6094-1.023-1.0703-.24-.4636-.36-1.0117-.36-1.6446 0-.6171.12-1.1588.36-1.625.239-.4661.577-.8294 1.011-1.0898.438-.2604.951-.3906 1.54-.3906.395 0 .764.0638 1.105.1914.344.125.643.3138.898.5664.258.2526.459.5703.602.9531.143.3802.215.8255.215 1.3359v.4571h-5.067v-1.0313h3.5c0-.2396-.052-.4518-.156-.6367s-.248-.3294-.433-.4336c-.183-.1068-.395-.1601-.637-.1601-.253 0-.477.0586-.672.1757-.193.1146-.344.2696-.453.4649-.109.1927-.165.4075-.168.6445v.9805c0 .2969.055.5534.164.7695.112.2162.27.3828.473.5s.444.1758.722.1758c.185 0 .354-.026.508-.0781s.285-.1302.395-.2344c.109-.1042.192-.2318.25-.3828l1.539.1015c-.078.3698-.239.6928-.481.9688-.239.2734-.549.487-.929.6406-.378.1511-.814.2266-1.309.2266zm9.772-6.1172-2.097 6h-1.875l-2.098-6h1.758l1.246 4.293h.063l1.242-4.293zm3.893 6.1172c-.617 0-1.148-.125-1.594-.375-.442-.2526-.784-.6094-1.023-1.0703-.24-.4636-.36-1.0117-.36-1.6446 0-.6171.12-1.1588.36-1.625.239-.4661.577-.8294 1.012-1.0898.437-.2604.95-.3906 1.539-.3906.395 0 .764.0638 1.105.1914.344.125.643.3138.899.5664.257.2526.458.5703.601.9531.143.3802.215.8255.215 1.3359v.4571h-5.066v-1.0313h3.5c0-.2396-.053-.4518-.157-.6367s-.248-.3294-.433-.4336c-.183-.1068-.395-.1601-.637-.1601-.253 0-.477.0586-.672.1757-.193.1146-.344.2696-.453.4649-.109.1927-.165.4075-.168.6445v.9805c0 .2969.055.5534.164.7695.112.2162.27.3828.473.5s.444.1758.722.1758c.185 0 .355-.026.508-.0781.154-.0521.285-.1302.395-.2344.109-.1042.192-.2318.25-.3828l1.539.1015c-.078.3698-.239.6928-.481.9688-.239.2734-.549.487-.929.6406-.378.1511-.814.2266-1.309.2266zm4.34-.1172v-6h1.613v1.0469h.063c.109-.3724.293-.6537.55-.8438.258-.1927.555-.289.891-.289.083 0 .173.0052.27.0156.096.0104.181.0247.253.043v1.4765c-.078-.0234-.186-.0443-.324-.0625s-.264-.0273-.379-.0273c-.244 0-.463.0534-.656.1601-.19.1042-.341.25-.453.4375-.109.1875-.164.4037-.164.6485v3.3945zm5.852.0625c-.192 0-.358-.069-.496-.207-.138-.1381-.207-.3034-.207-.4961s.069-.3581.207-.4961.304-.2071.496-.2071c.193 0 .358.0691.496.2071s.208.3034.208.4961c0 .1276-.033.2448-.098.3515-.063.1068-.147.1927-.254.2578-.104.0626-.221.0938-.352.0938zm-162.8482 14.9375v-8h4.7972v.8594h-3.8285v2.7031h3.4685v.8594h-3.4685v3.5781zm8.8282.125c-.542 0-1.017-.1289-1.426-.3867-.406-.2578-.724-.6185-.953-1.0821-.227-.4635-.34-1.0052-.34-1.625 0-.625.113-1.1705.34-1.6367.229-.4661.547-.8281.953-1.0859.409-.2578.884-.3867 1.426-.3867s1.016.1289 1.422.3867c.409.2578.726.6198.953 1.0859.229.4662.344 1.0117.344 1.6367 0 .6198-.115 1.1615-.344 1.625-.227.4636-.544.8243-.953 1.0821-.406.2578-.88.3867-1.422.3867zm0-.8281c.411 0 .75-.1055 1.015-.3164.266-.211.463-.4883.59-.8321.128-.3437.192-.7161.192-1.1172 0-.401-.064-.7747-.192-1.121-.127-.3464-.324-.6263-.59-.8399-.265-.2135-.604-.3203-1.015-.3203-.412 0-.75.1068-1.016.3203-.265.2136-.462.4935-.59.8399-.127.3463-.191.72-.191 1.121 0 .4011.064.7735.191 1.1172.128.3438.325.6211.59.8321.266.2109.604.3164 1.016.3164zm4.626.7031v-6h.89v.9062h.063c.109-.2968.307-.5377.594-.7226.286-.1849.609-.2774.968-.2774.068 0 .153.0014.254.004.102.0026.179.0065.231.0117v.9375c-.031-.0078-.103-.0196-.215-.0352-.109-.0182-.225-.0273-.348-.0273-.291 0-.552.0612-.781.1836-.226.1198-.406.2864-.539.5-.13.2109-.195.4518-.195.7226v3.7969zm10.608 2.375c-.445 0-.828-.0573-1.148-.1719-.32-.112-.587-.2604-.801-.4453-.211-.1823-.379-.3776-.504-.5859l.734-.5156c.084.1093.189.2343.317.3749.128.1433.302.267.523.3711.224.1068.517.1602.879.1602.485 0 .884-.1172 1.199-.3516.316-.2343.473-.6015.473-1.1015v-1.2188h-.078c-.068.1094-.164.2448-.289.4063-.122.1588-.3.3008-.531.4258-.229.1224-.539.1835-.93.1835-.484 0-.919-.1145-1.305-.3437-.382-.2292-.686-.5625-.91-1-.221-.4375-.332-.9688-.332-1.5938 0-.6145.108-1.1497.324-1.6054.216-.4584.517-.8125.903-1.0625.385-.2526.83-.3789 1.336-.3789.39 0 .7.0651.929.1953.232.1276.409.2734.532.4375.125.1614.221.2943.289.3984h.093v-.9531h.891v6.1719c0 .5156-.117.9349-.352 1.2578-.231.3255-.544.5638-.937.7148-.391.1537-.826.2305-1.305.2305zm-.031-3.2969c.37 0 .682-.0846.938-.2539.255-.1693.449-.4127.582-.7304.132-.3178.199-.698.199-1.1407 0-.4323-.065-.8138-.196-1.1445-.13-.3307-.322-.5899-.578-.7774-.255-.1875-.57-.2812-.945-.2812-.391 0-.716.099-.977.2969-.257.1979-.451.4635-.582.7969-.127.3333-.191.7031-.191 1.1093 0 .4167.065.7852.195 1.1055.133.3177.328.5677.586.75.261.1797.584.2695.969.2695zm4.813.9219v-6h.89v.9062h.063c.109-.2968.307-.5377.593-.7226.287-.1849.61-.2774.969-.2774.068 0 .152.0014.254.004s.178.0065.231.0117v.9375c-.032-.0078-.103-.0196-.215-.0352-.11-.0182-.226-.0273-.348-.0273-.292 0-.552.0612-.781.1836-.227.1198-.406.2864-.539.5-.131.2109-.196.4518-.196.7226v3.7969zm6.925.125c-.578 0-1.077-.1276-1.496-.3828-.416-.2578-.738-.6172-.965-1.0781-.224-.4636-.336-1.0026-.336-1.6172s.112-1.1563.336-1.625c.227-.4714.542-.8386.946-1.1016.406-.2656.88-.3984 1.422-.3984.312 0 .621.0521.925.1562.305.1042.582.2735.832.5078.25.2318.45.5391.598.9219s.223.8542.223 1.4141v.3906h-4.625v-.7969h3.687c0-.3385-.068-.6406-.203-.9062-.133-.2657-.323-.4753-.57-.6289-.245-.1537-.534-.2305-.867-.2305-.368 0-.685.0911-.954.2734-.265.1797-.47.4141-.613.7032-.143.289-.215.5989-.215.9296v.5313c0 .4531.078.8372.235 1.1523.159.3125.379.5508.66.7149.281.1614.608.2422.98.2422.242 0 .461-.0339.657-.1016.197-.0703.368-.1745.511-.3125.143-.1406.254-.3151.332-.5234l.891.25c-.094.3021-.251.5677-.473.7968-.221.2266-.495.4037-.82.5313-.326.125-.691.1875-1.098.1875zm6.153.0156c-.381 0-.726-.0716-1.036-.2148-.309-.1459-.556-.3555-.738-.6289-.182-.2761-.273-.6094-.273-1 0-.3438.067-.6224.203-.836.135-.2161.316-.3854.543-.5078.226-.1224.476-.2135.75-.2734.276-.0625.553-.112.832-.1484.364-.0469.66-.0821.887-.1055.229-.0261.395-.069.5-.1289.106-.0599.16-.1641.16-.3125v-.0313c0-.3854-.106-.6849-.317-.8984-.208-.2136-.524-.3203-.949-.3203-.44 0-.785.0963-1.035.289s-.426.3985-.527.6172l-.875-.3125c.156-.3646.364-.6484.625-.8515.263-.2058.549-.349.859-.4297.313-.0834.62-.125.922-.125.193 0 .414.0234.664.0703.253.0443.496.1367.73.2773.237.1407.434.3529.59.6367.157.2839.235.6641.235 1.1407v3.9531h-.922v-.8125h-.047c-.063.1302-.167.2695-.313.418-.145.1484-.339.2747-.582.3789-.242.1041-.537.1562-.886.1562zm.14-.8281c.365 0 .672-.0716.922-.2148.253-.1433.443-.3282.57-.5547.131-.2266.196-.4649.196-.7149v-.8437c-.039.0468-.125.0898-.258.1289-.13.0364-.281.069-.453.0976-.169.0261-.335.0495-.496.0703-.159.0183-.288.0339-.387.0469-.24.0313-.464.0821-.672.1524-.206.0677-.372.1705-.5.3086-.125.1354-.187.3203-.187.5546 0 .3204.118.5625.355.7266.24.1615.543.2422.91.2422zm7.402-5.3125v.7812h-3.11v-.7812zm-2.204-1.4375h.922v5.7187c0 .2605.038.4558.114.586.078.1276.177.2135.297.2578.122.0417.251.0625.386.0625.102 0 .185-.0052.25-.0156.065-.013.117-.0235.156-.0313l.188.8281c-.063.0235-.15.0469-.262.0704-.112.026-.254.039-.426.039-.26 0-.515-.056-.765-.1679-.248-.112-.453-.2826-.617-.5118-.162-.2291-.243-.5182-.243-.8672zm6.542 7.5625c-.579 0-1.077-.1276-1.497-.3828-.416-.2578-.738-.6172-.964-1.0781-.224-.4636-.336-1.0026-.336-1.6172s.112-1.1563.336-1.625c.226-.4714.541-.8386.945-1.1016.406-.2656.88-.3984 1.422-.3984.312 0 .621.0521.926.1562.304.1042.582.2735.832.5078.25.2318.449.5391.597.9219.149.3828.223.8542.223 1.4141v.3906h-4.625v-.7969h3.687c0-.3385-.067-.6406-.203-.9062-.133-.2657-.323-.4753-.57-.6289-.245-.1537-.534-.2305-.867-.2305-.367 0-.685.0911-.953.2734-.266.1797-.47.4141-.614.7032-.143.289-.214.5989-.214.9296v.5313c0 .4531.078.8372.234 1.1523.159.3125.379.5508.66.7149.281.1614.608.2422.981.2422.242 0 .46-.0339.656-.1016.198-.0703.368-.1745.511-.3125.144-.1406.254-.3151.333-.5234l.89.25c-.094.3021-.251.5677-.473.7968-.221.2266-.494.4037-.82.5313-.325.125-.691.1875-1.097.1875zm4.386-.125v-6h.891v.9062h.062c.11-.2968.308-.5377.594-.7226.287-.1849.609-.2774.969-.2774.068 0 .152.0014.254.004.101.0026.178.0065.23.0117v.9375c-.031-.0078-.103-.0196-.215-.0352-.109-.0182-.225-.0273-.347-.0273-.292 0-.552.0612-.782.1836-.226.1198-.406.2864-.539.5-.13.2109-.195.4518-.195.7226v3.7969zm10.859-6v.7812h-3.235v-.7812zm-2.266 6v-6.8281c0-.3438.081-.6302.242-.8594.162-.2292.371-.401.629-.5156s.53-.1719.817-.1719c.226 0 .411.0182.554.0547.143.0364.25.0703.32.1015l-.265.7969c-.047-.0156-.112-.0351-.195-.0586-.081-.0234-.188-.0351-.321-.0351-.304 0-.524.0768-.66.2304-.133.1537-.199.3789-.199.6758v6.6094zm7.839-2.4531v-3.5469h.922v6h-.922v-1.0156h-.063c-.14.3047-.359.5638-.656.7773-.297.211-.672.3164-1.125.3164-.375 0-.708-.082-1-.2461-.292-.1666-.521-.4166-.687-.75-.167-.3359-.25-.7591-.25-1.2695v-3.8125h.921v3.75c0 .4375.123.7865.368 1.0469.247.2604.562.3906.945.3906.229 0 .462-.0586.699-.1758.24-.1172.44-.2969.602-.539.164-.2422.246-.5508.246-.9258zm4.032-1.1563v3.6094h-.922v-6h.891v.9375h.078c.141-.3047.354-.5495.641-.7344.286-.1875.656-.2812 1.109-.2812.406 0 .762.0833 1.066.25.305.164.542.414.711.75.17.3333.254.7552.254 1.2656v3.8125h-.922v-3.75c0-.4714-.122-.8385-.367-1.1016-.245-.2656-.581-.3984-1.008-.3984-.294 0-.557.0638-.789.1914-.229.1276-.41.3138-.543.5586-.132.2448-.199.5417-.199.8906zm8.45 3.7344c-.562 0-1.047-.1328-1.453-.3984-.406-.2657-.719-.6315-.937-1.0977-.219-.4661-.328-.9987-.328-1.5977 0-.6093.112-1.1471.335-1.6132.227-.4688.542-.8347.946-1.0977.406-.2656.88-.3984 1.422-.3984.422 0 .802.0781 1.14.2343.339.1563.616.375.832.6563.216.2812.351.6094.403.9844h-.922c-.071-.2735-.227-.5157-.469-.7266-.24-.2135-.562-.3203-.969-.3203-.359 0-.674.0937-.945.2812-.268.1849-.478.4467-.629.7852-.148.3359-.223.7305-.223 1.1836 0 .4635.073.8672.219 1.2109.149.3438.357.6107.625.8008.271.1901.589.2852.953.2852.24 0 .457-.0417.653-.125.195-.0834.36-.2031.496-.3594.135-.1563.231-.3438.289-.5625h.922c-.052.3542-.181.6732-.387.957-.203.2813-.473.5052-.809.6719-.333.1641-.721.2461-1.164.2461zm6.817-6.125v.7812h-3.11v-.7812zm-2.203-1.4375h.921v5.7187c0 .2605.038.4558.114.586.078.1276.177.2135.297.2578.122.0417.251.0625.386.0625.102 0 .185-.0052.25-.0156.065-.013.118-.0235.157-.0313l.187.8281c-.062.0235-.15.0469-.262.0704-.112.026-.254.039-.425.039-.261 0-.516-.056-.766-.1679-.247-.112-.453-.2826-.617-.5118-.162-.2291-.242-.5182-.242-.8672zm4.089 7.4375v-6h.922v6zm.469-7c-.18 0-.334-.0612-.465-.1836-.127-.1224-.191-.2695-.191-.4414s.064-.319.191-.4414c.131-.1224.285-.1836.465-.1836s.333.0612.461.1836c.13.1224.195.2695.195.4414s-.065.319-.195.4414c-.128.1224-.281.1836-.461.1836zm5.079 7.125c-.541 0-1.017-.1289-1.426-.3867-.406-.2578-.723-.6185-.953-1.0821-.226-.4635-.339-1.0052-.339-1.625 0-.625.113-1.1705.339-1.6367.23-.4661.547-.8281.953-1.0859.409-.2578.885-.3867 1.426-.3867.542 0 1.016.1289 1.422.3867.409.2578.727.6198.953 1.0859.229.4662.344 1.0117.344 1.6367 0 .6198-.115 1.1615-.344 1.625-.226.4636-.544.8243-.953 1.0821-.406.2578-.88.3867-1.422.3867zm0-.8281c.412 0 .75-.1055 1.016-.3164.266-.211.462-.4883.59-.8321.127-.3437.191-.7161.191-1.1172 0-.401-.064-.7747-.191-1.121-.128-.3464-.324-.6263-.59-.8399-.266-.2135-.604-.3203-1.016-.3203-.411 0-.75.1068-1.015.3203-.266.2136-.463.4935-.59.8399-.128.3463-.192.72-.192 1.121 0 .4011.064.7735.192 1.1172.127.3438.324.6211.59.8321.265.2109.604.3164 1.015.3164zm5.548-2.9063v3.6094h-.922v-6h.891v.9375h.078c.141-.3047.354-.5495.641-.7344.286-.1875.656-.2812 1.109-.2812.406 0 .762.0833 1.066.25.305.164.542.414.711.75.17.3333.254.7552.254 1.2656v3.8125h-.922v-3.75c0-.4714-.122-.8385-.367-1.1016-.245-.2656-.581-.3984-1.008-.3984-.294 0-.557.0638-.789.1914-.229.1276-.41.3138-.543.5586-.132.2448-.199.5417-.199.8906zm7.778 3.75c-.38 0-.725-.0716-1.035-.2148-.31-.1459-.556-.3555-.738-.6289-.182-.2761-.273-.6094-.273-1 0-.3438.067-.6224.203-.836.135-.2161.316-.3854.543-.5078.226-.1224.476-.2135.75-.2734.276-.0625.553-.112.832-.1484.364-.0469.66-.0821.886-.1055.23-.0261.396-.069.5-.1289.107-.0599.161-.1641.161-.3125v-.0313c0-.3854-.106-.6849-.317-.8984-.208-.2136-.525-.3203-.949-.3203-.44 0-.785.0963-1.035.289s-.426.3985-.528.6172l-.875-.3125c.157-.3646.365-.6484.625-.8515.263-.2058.55-.349.86-.4297.312-.0834.62-.125.922-.125.192 0 .414.0234.664.0703.252.0443.496.1367.73.2773.237.1407.434.3529.59.6367.156.2839.234.6641.234 1.1407v3.9531h-.921v-.8125h-.047c-.063.1302-.167.2695-.313.418-.146.1484-.34.2747-.582.3789-.242.1041-.538.1562-.887.1562zm.141-.8281c.365 0 .672-.0716.922-.2148.253-.1433.443-.3282.57-.5547.13-.2266.196-.4649.196-.7149v-.8437c-.039.0468-.125.0898-.258.1289-.13.0364-.282.069-.453.0976-.17.0261-.335.0495-.496.0703-.159.0183-.288.0339-.387.0469-.24.0313-.464.0821-.672.1524-.206.0677-.372.1705-.5.3086-.125.1354-.188.3203-.188.5546 0 .3204.119.5625.356.7266.239.1615.543.2422.91.2422zm5.714-7.3125v8h-.922v-8zm2.188 8v-6h.922v6zm.469-7c-.18 0-.334-.0612-.465-.1836-.127-.1224-.191-.2695-.191-.4414s.064-.319.191-.4414c.131-.1224.285-.1836.465-.1836s.333.0612.461.1836c.13.1224.195.2695.195.4414s-.065.319-.195.4414c-.128.1224-.281.1836-.461.1836zm5.251 1v.7812h-3.109v-.7812zm-2.203-1.4375h.922v5.7187c0 .2605.038.4558.113.586.078.1276.177.2135.297.2578.122.0417.251.0625.387.0625.101 0 .185-.0052.25-.0156.065-.013.117-.0235.156-.0313l.188.8281c-.063.0235-.15.0469-.262.0704-.112.026-.254.039-.426.039-.26 0-.516-.056-.766-.1679-.247-.112-.453-.2826-.617-.5118-.161-.2291-.242-.5182-.242-.8672zm4.684 9.6875c-.157 0-.296-.013-.418-.0391-.123-.0234-.207-.0468-.254-.0703l.234-.8125c.224.0573.422.0782.594.0625.172-.0156.324-.0924.457-.2304.135-.1355.259-.3555.371-.6602l.172-.4687-2.219-6.0313h1l1.656 4.7812h.063l1.656-4.7812h1l-2.547 6.875c-.114.3099-.256.5664-.426.7695-.169.2058-.365.3581-.589.4571-.222.0989-.472.1484-.75.1484zm12.138-2.125c-.578 0-1.077-.1276-1.496-.3828-.416-.2578-.738-.6172-.965-1.0781-.224-.4636-.336-1.0026-.336-1.6172s.112-1.1563.336-1.625c.227-.4714.542-.8386.946-1.1016.406-.2656.88-.3984 1.422-.3984.312 0 .621.0521.925.1562.305.1042.582.2735.832.5078.25.2318.45.5391.598.9219s.223.8542.223 1.4141v.3906h-4.625v-.7969h3.687c0-.3385-.068-.6406-.203-.9062-.133-.2657-.323-.4753-.57-.6289-.245-.1537-.534-.2305-.867-.2305-.368 0-.685.0911-.954.2734-.265.1797-.47.4141-.613.7032-.143.289-.215.5989-.215.9296v.5313c0 .4531.078.8372.235 1.1523.159.3125.379.5508.66.7149.281.1614.608.2422.98.2422.242 0 .461-.0339.657-.1016.197-.0703.368-.1745.511-.3125.143-.1406.254-.3151.332-.5234l.891.25c-.094.3021-.251.5677-.473.7968-.221.2266-.495.4037-.82.5313-.326.125-.691.1875-1.098.1875zm4.913-6.125 1.438 2.4531 1.437-2.4531h1.063l-1.938 3 1.938 3h-1.063l-1.437-2.3281-1.438 2.3281h-1.062l1.906-3-1.906-3zm5.753 8.25v-8.25h.891v.9531h.109c.068-.1041.162-.237.282-.3984.122-.1641.296-.3099.523-.4375.229-.1302.539-.1953.93-.1953.505 0 .95.1263 1.336.3789.385.2526.686.6107.902 1.0742s.324 1.0104.324 1.6406c0 .6354-.108 1.1862-.324 1.6524-.216.4635-.516.8229-.898 1.0781-.383.2526-.825.3789-1.325.3789-.385 0-.694-.0638-.925-.1914-.232-.1302-.411-.2774-.536-.4414-.125-.1667-.221-.3047-.289-.4141h-.078v3.1719zm.907-5.25c0 .4531.066.8529.199 1.1992.133.3438.327.6133.582.8086.255.1927.567.2891.937.2891.386 0 .707-.1016.965-.3047.261-.2057.456-.4818.586-.8281.133-.349.199-.737.199-1.1641 0-.4219-.065-.8021-.195-1.1406-.128-.3412-.322-.6107-.582-.8086-.258-.2005-.582-.3008-.973-.3008-.375 0-.69.0951-.945.2852-.255.1875-.448.4505-.578.789-.13.336-.195.7279-.195 1.1758zm7.218-5v8h-.922v-8zm4.626 8.125c-.541 0-1.017-.1289-1.426-.3867-.406-.2578-.723-.6185-.953-1.0821-.226-.4635-.339-1.0052-.339-1.625 0-.625.113-1.1705.339-1.6367.23-.4661.547-.8281.953-1.0859.409-.2578.885-.3867 1.426-.3867.542 0 1.016.1289 1.422.3867.409.2578.727.6198.953 1.0859.229.4662.344 1.0117.344 1.6367 0 .6198-.115 1.1615-.344 1.625-.226.4636-.544.8243-.953 1.0821-.406.2578-.88.3867-1.422.3867zm0-.8281c.412 0 .75-.1055 1.016-.3164.266-.211.462-.4883.59-.8321.127-.3437.191-.7161.191-1.1172 0-.401-.064-.7747-.191-1.121-.128-.3464-.324-.6263-.59-.8399-.266-.2135-.604-.3203-1.016-.3203-.411 0-.75.1068-1.015.3203-.266.2136-.463.4935-.59.8399-.128.3463-.192.72-.192 1.121 0 .4011.064.7735.192 1.1172.127.3438.324.6211.59.8321.265.2109.604.3164 1.015.3164zm4.626.7031v-6h.891v.9062h.062c.11-.2968.308-.5377.594-.7226.287-.1849.609-.2774.969-.2774.068 0 .152.0014.254.004.101.0026.178.0065.23.0117v.9375c-.031-.0078-.103-.0196-.215-.0352-.109-.0182-.225-.0273-.347-.0273-.292 0-.552.0612-.782.1836-.226.1198-.406.2864-.539.5-.13.2109-.195.4518-.195.7226v3.7969zm6.926.125c-.578 0-1.077-.1276-1.496-.3828-.417-.2578-.738-.6172-.965-1.0781-.224-.4636-.336-1.0026-.336-1.6172s.112-1.1563.336-1.625c.227-.4714.542-.8386.945-1.1016.407-.2656.881-.3984 1.422-.3984.313 0 .621.0521.926.1562.305.1042.582.2735.832.5078.25.2318.449.5391.598.9219.148.3828.222.8542.222 1.4141v.3906h-4.625v-.7969h3.688c0-.3385-.068-.6406-.203-.9062-.133-.2657-.323-.4753-.571-.6289-.244-.1537-.533-.2305-.867-.2305-.367 0-.685.0911-.953.2734-.265.1797-.47.4141-.613.7032-.143.289-.215.5989-.215.9296v.5313c0 .4531.078.8372.234 1.1523.159.3125.379.5508.661.7149.281.1614.608.2422.98.2422.242 0 .461-.0339.656-.1016.198-.0703.369-.1745.512-.3125.143-.1406.254-.3151.332-.5234l.891.25c-.094.3021-.252.5677-.473.7968-.221.2266-.495.4037-.82.5313-.326.125-.692.1875-1.098.1875zm7.98 2.125v-8.25h.891v.9531h.109c.068-.1041.162-.237.282-.3984.122-.1641.297-.3099.523-.4375.229-.1302.539-.1953.93-.1953.505 0 .95.1263 1.336.3789.385.2526.686.6107.902 1.0742s.324 1.0104.324 1.6406c0 .6354-.108 1.1862-.324 1.6524-.216.4635-.515.8229-.898 1.0781-.383.2526-.825.3789-1.325.3789-.385 0-.694-.0638-.925-.1914-.232-.1302-.41-.2774-.535-.4414-.125-.1667-.222-.3047-.29-.4141h-.078v3.1719zm.907-5.25c0 .4531.066.8529.199 1.1992.133.3438.327.6133.582.8086.255.1927.568.2891.937.2891.386 0 .708-.1016.965-.3047.261-.2057.456-.4818.586-.8281.133-.349.199-.737.199-1.1641 0-.4219-.065-.8021-.195-1.1406-.127-.3412-.321-.6107-.582-.8086-.258-.2005-.582-.3008-.973-.3008-.375 0-.69.0951-.945.2852-.255.1875-.448.4505-.578.789-.13.336-.195.7279-.195 1.1758zm7.218-5v8h-.921v-8zm3.955 8.1406c-.381 0-.726-.0716-1.036-.2148-.309-.1459-.556-.3555-.738-.6289-.182-.2761-.273-.6094-.273-1 0-.3438.067-.6224.203-.836.135-.2161.316-.3854.543-.5078.226-.1224.476-.2135.75-.2734.276-.0625.553-.112.832-.1484.364-.0469.66-.0821.887-.1055.229-.0261.395-.069.5-.1289.106-.0599.16-.1641.16-.3125v-.0313c0-.3854-.106-.6849-.317-.8984-.208-.2136-.524-.3203-.949-.3203-.44 0-.785.0963-1.035.289s-.426.3985-.527.6172l-.875-.3125c.156-.3646.364-.6484.625-.8515.263-.2058.549-.349.859-.4297.312-.0834.62-.125.922-.125.193 0 .414.0234.664.0703.253.0443.496.1367.73.2773.237.1407.434.3529.59.6367.156.2839.235.6641.235 1.1407v3.9531h-.922v-.8125h-.047c-.063.1302-.167.2695-.313.418-.145.1484-.339.2747-.582.3789-.242.1041-.537.1562-.886.1562zm.14-.8281c.365 0 .672-.0716.922-.2148.253-.1433.443-.3282.57-.5547.131-.2266.196-.4649.196-.7149v-.8437c-.039.0468-.125.0898-.258.1289-.13.0364-.281.069-.453.0976-.169.0261-.335.0495-.496.0703-.159.0183-.288.0339-.387.0469-.24.0313-.464.0821-.672.1524-.206.0677-.372.1705-.5.3086-.125.1354-.187.3203-.187.5546 0 .3204.118.5625.355.7266.24.1615.543.2422.91.2422zm5.714-2.9219v3.6094h-.922v-6h.891v.9375h.078c.141-.3047.354-.5495.641-.7344.286-.1875.656-.2812 1.109-.2812.406 0 .762.0833 1.066.25.305.164.542.414.711.75.17.3333.254.7552.254 1.2656v3.8125h-.922v-3.75c0-.4714-.122-.8385-.367-1.1016-.245-.2656-.581-.3984-1.008-.3984-.294 0-.557.0638-.789.1914-.229.1276-.41.3138-.543.5586s-.199.5417-.199.8906zm10.263-1.0469-.828.2344c-.052-.138-.129-.2721-.231-.4023-.099-.1328-.234-.2422-.406-.3281-.172-.086-.392-.129-.66-.129-.367 0-.673.0847-.918.254-.242.1666-.363.3789-.363.6367 0 .2291.083.4101.25.5429.166.1329.427.2435.781.3321l.89.2187c.537.1302.937.3295 1.2.5977.263.2656.394.6081.394 1.0273 0 .3438-.099.6511-.297.9219-.195.2708-.468.4844-.82.6406-.352.1563-.76.2344-1.227.2344-.612 0-1.118-.1328-1.519-.3984-.401-.2657-.655-.6537-.762-1.1641l.875-.2188c.083.323.241.5652.473.7266.234.1615.54.2422.918.2422.429 0 .771-.0911 1.023-.2734.255-.1849.383-.4063.383-.6641 0-.2083-.073-.3828-.219-.5234-.146-.1433-.37-.25-.672-.3204l-1-.2343c-.549-.1302-.953-.3321-1.211-.6055-.255-.276-.382-.6211-.382-1.0352 0-.3385.095-.638.285-.8984.193-.2604.454-.4648.785-.6133.333-.1484.711-.2226 1.133-.2226.594 0 1.06.1302 1.398.3906.341.2604.584.6042.727 1.0312zm2.669 4.7188c-.193 0-.358-.069-.496-.207-.138-.1381-.207-.3034-.207-.4961s.069-.3581.207-.4961.303-.2071.496-.2071c.192 0 .358.0691.496.2071s.207.3034.207.4961c0 .1276-.033.2448-.098.3515-.062.1068-.147.1927-.254.2578-.104.0626-.221.0938-.351.0938z" fill="#000"/></svg>