<svg fill="none" viewBox="0 0 110 110" xmlns="http://www.w3.org/2000/svg"><path d="m87.6977 46.3876-2.2063-2.7764c-3.7003-1.2453-25.5746.4161-28.2569 13.0445-.6138 2.8896 8.0902 4.3938 15.0287 2.6149 7.6488-1.961 13.6709-7.4295 14.4961-8.4648 1.259-1.5796 1.1502-3.6036.9384-4.4182z" fill="#fff"/><path clip-rule="evenodd" d="m84.5504 52.1198c2.1831-2.2126 2.9462-4.2731 2.3783-5.7673l1.2024-.457c.8559 2.2519-.4126 4.8449-2.6651 7.1277-2.2962 2.3273-5.8008 4.5407-9.9629 6.1226-4.1622 1.5819-8.2523 2.2549-11.5146 2.0403-3.2001-.2105-5.8706-1.3065-6.7264-3.5584l1.2024-.457c.5679 1.4943 2.5069 2.5278 5.6085 2.7318 3.0393.1999 6.943-.4275 10.973-1.9591 4.0301-1.5317 7.3651-3.6555 9.5044-5.8236z" fill="#000" fill-rule="evenodd"/><path clip-rule="evenodd" d="m88.0694 49.0237c-.1324.2786-.4639.3994-.7445.2712-1.8026-.8231-3.84-1.8624-5.8523-2.8893l-.0288-.0146c-.0135-.0069-.027-.0138-.0405-.0207l-5.6907-2.8109c-.2765-.1366-.3923-.4699-.2599-.7485s.4639-.3994.7445-.2712c1.7381.7937 3.726 1.8076 5.7128 2.8214l5.8995 2.914c.2766.1366.3923.4699.2599.7486zm-2.174 3.367c-.1295.2836-.4645.4085-.7481.279l-15.3804-7.0236c-.2837-.1295-.4086-.4644-.2791-.7481.1296-.2836.4645-.4086.7482-.279l15.3804 7.0235c.2836.1296.4085.4645.279.7482z" fill="#000" fill-rule="evenodd"/><path clip-rule="evenodd" d="m81.1536 55.6737c-.1295.2837-.4645.4086-.7481.2791l-16.4411-7.508c-.2837-.1295-.4086-.4644-.2791-.7481.1295-.2836.4645-.4086.7481-.279l16.4411 7.5079c.2837.1296.4086.4645.2791.7481zm-5.5393 2.1238c-.1295.2836-.4645.4086-.7481.2791l-14.3197-6.5392c-.2836-.1296-.4086-.4645-.279-.7481.1295-.2837.4644-.4086.7481-.2791l14.3197 6.5392c.2836.1295.4085.4645.279.7481zm-6.7094 2.2542c-.1296.2836-.4645.4086-.7481.279l-10.0769-4.6016c-.2836-.1295-.4085-.4645-.279-.7481.1295-.2837.4645-.4086.7481-.2791l10.0768 4.6017c.2837.1295.4086.4644.2791.7481z" fill="#000" fill-rule="evenodd"/><path d="m68.2778 61.4406-7.9102-7.3452 1.13-12.9953 14.1254-3.3901 7.9102 7.3452-1.6951 12.9953z" fill="#f2a966"/><g clip-rule="evenodd" fill="#000" fill-rule="evenodd"><path d="m69.8761 40.0176c.2916-.111.618.0353.7291.327 1.5487 4.0667 3.0541 8.1209 4.2806 12.319.0875.2995-.0844.6133-.384.7008-.2995.0875-.6132-.0844-.7007-.3839-1.2127-4.1511-2.7039-8.1687-4.252-12.2338-.111-.2916.0353-.618.327-.7291z"/><path d="m84.5064 43.7289c.2137.2274.2025.585-.0249.7986-3.3059 3.1067-5.9327 5.2834-8.7828 7.6452-.5539.459-1.1162.925-1.6936 1.4061-.2397.1998-.596.1674-.7958-.0723-.1997-.2397-.1673-.596.0724-.7958.581-.4842 1.1457-.9521 1.7009-1.4122 2.8485-2.3605 5.4467-4.5137 8.7251-7.5944.2274-.2137.585-.2026.7987.0248z"/><path d="m68.1396 40.4791c.0853-.3002.3978-.4744.6979-.3891.2688.0764.5375.1527.8064.2291 3.2192.9145 6.4454 1.8309 9.6524 2.8118.3784.1157.7531.2332 1.1254.35 1.4988.4699 2.9601.9282 4.4729 1.2118.3067.0575.5087.3528.4512.6595s-.3528.5087-.6595.4512c-1.5853-.2972-3.1272-.7811-4.6318-1.2532-.365-.1145-.7279-.2284-1.0887-.3387-3.1956-.9774-6.4113-1.8908-9.6326-2.8059-.2681-.0762-.5363-.1524-.8046-.2286-.3001-.0853-.4743-.3978-.389-.6979z"/><path d="m76.4659 37.3979c.1873.2497.1367.6038-.113.791-2.3726 1.7795-4.1852 2.9917-5.4195 3.6088-.2791.1396-.6185.0265-.758-.2526-.1396-.2791-.0264-.6185.2527-.7581 1.1359-.568 2.8788-1.7261 5.2468-3.5021.2496-.1872.6038-.1366.791.113z"/><path d="m75.5249 36.9984c.2283-.2128.5858-.2002.7986.028 3.058 3.2802 4.8144 5.0354 7.7465 7.3811.2436.1949.2831.5505.0882.7942-.1949.2436-.5505.2831-.7942.0882-2.9936-2.395-4.7927-4.1951-7.867-7.4929-.2128-.2283-.2003-.5858.0279-.7986z"/><path d="m67.8859 41.8616c-1.9632.0509-3.7834.0982-6.132-.0558-.3114-.0204-.5473-.2894-.5268-.6008.0204-.3113.2894-.5472.6007-.5268 2.3014.1509 4.0364.1054 5.9634.0548 1.0426-.0274 2.1415-.0562 3.4167-.0562.312 0 .565.2529.565.565 0 .312-.253.565-.565.565-1.2126 0-2.2872.0279-3.322.0548z"/><path d="m76.554 36.9819c.0897.2989-.0799.6139-.3788.7036-2.625.7874-5.0017 1.4546-7.1428 2.0556-2.7276.7656-5.073 1.424-7.0627 2.0872-.2961.0987-.616-.0613-.7147-.3573-.0987-.2961.0613-.6161.3573-.7147 2.0035-.6678 4.3988-1.3406 7.1593-2.1159 2.1436-.602 4.5074-1.2659 7.0789-2.0373.2988-.0897.6138.0799.7035.3788z"/><path d="m75.0675 52.171c.0445.3089-.1699.5954-.4787.6399-3.1166.449-5.7172.6733-7.9755.8592-.1354.0111-.2695.0221-.4023.033-2.0894.1714-3.8662.3172-5.5109.5913-.3078.0513-.5989-.1566-.6502-.4644s.1566-.5989.4644-.6502c1.6931-.2822 3.5152-.4316 5.5875-.6015.1385-.0114.2781-.0228.4188-.0344 2.2539-.1855 4.8261-.4076 7.907-.8515.3089-.0445.5954.1698.6399.4786z"/><path d="m71.3116 40.3153c.2123.2287.1991.5862-.0296.7985-2.2025 2.0452-4.2676 4.1691-6.1171 6.5231-1.235 1.5718-2.3811 3.2203-3.146 5.0143-.2639.6189-.2911 1.0397-.2233 1.7516.0296.3106-.1983.5864-.5089.616-.3107.0296-.5865-.1983-.6161-.5089-.0794-.8341-.0511-1.4578.3088-2.3019.8231-1.9305 2.0412-3.671 3.2969-5.2692 1.8976-2.4151 4.0074-4.5829 6.2368-6.6531.2286-.2123.5861-.199.7985.0296z"/><path d="m61.1997 40.7275c.3121 0 .565.253.565.5651 0 2.0954-.1495 4.4842-.2974 6.7769-.0055.085-.011.1698-.0165.2545-.1428 2.211-.2787 4.3147-.2787 6.0052 0 .3121-.2529.565-.565.565-.312 0-.565-.2529-.565-.565 0-1.728.138-3.8646.2797-6.0575.0059-.0915.0119-.1832.0178-.275.1483-2.2997.2951-4.6515.2951-6.7041 0-.3121.253-.5651.565-.5651z"/><path d="m59.4384 52.9129c.2383-.2015.5948-.1717.7963.0666 1.8766 2.2197 3.9722 4.235 6.2928 5.9788.8062.6058 1.6298 1.1762 2.4872 1.6822-.0027-.0016-.0023-.0014.0203.0094.008.0038.0187.009.033.0158l.0006.0003c.0352.0168.104.0496.1683.0908.0328.021.0824.0554.1317.1041.044.0435.1301.1393.1695.289.0478.1817.0065.3648-.0945.5048-.0832.1155-.1875.176-.2457.2051-.2761.1381-.6112.0289-.7535-.2437-.0014-.0008-.0027-.0016-.004-.0024-.904-.5334-1.7633-1.1295-2.5917-1.752-2.3938-1.7988-4.5504-3.8738-6.477-6.1526-.2015-.2383-.1716-.5948.0667-.7962z"/><path d="m74.5745 52.0994c.2496.1872.3002.5413.113.791-1.7787 2.3715-4.6313 6.4252-5.8492 8.8081-.1421.2779-.4824.388-.7603.246-.2778-.142-.388-.4824-.246-.7602 1.2672-2.4793 4.1746-6.6029 5.9514-8.9719.1873-.2497.5414-.3003.7911-.113z"/><path d="m83.0688 57.7058c.0986.2961-.0613.616-.3574.7147-1.8023.6008-5.0089 1.4432-7.9345 2.1582-2.9162.7126-5.6145 1.3136-6.3883 1.4209-.3091.0429-.5945-.1729-.6373-.482-.0429-.3091.1729-.5944.482-.6373.7041-.0976 3.3389-.6818 6.2753-1.3994 2.927-.7152 6.0923-1.548 7.8455-2.1324.296-.0987.616.0613.7147.3573z"/><path d="m73.4036 51.3962c.2108-.2301.5682-.2457.7983-.0349 1.3585 1.2447 2.9332 2.351 4.4684 3.3532.5823.3801 1.1655.7493 1.7283 1.1055.9.5697 1.7479 1.1064 2.4568 1.6024.2557.1789.3179.5312.139.7869s-.5312.3179-.7869.139c-.6923-.4844-1.4973-.9938-2.3757-1.5495-.5662-.3582-1.1628-.7356-1.7793-1.1381-1.5514-1.0128-3.187-2.1588-4.614-3.4662-.2301-.2108-.2457-.5682-.0349-.7983z"/><path d="m83.1245 43.0986c.3121 0 .565.253.565.565 0 2.9827-.1492 5.3684-.2976 7.5202-.0131.1905-.0263.3791-.0393.566-.1341 1.927-.2556 3.6742-.2556 5.5431 0 .312-.253.565-.5651.565-.312 0-.565-.253-.565-.565 0-1.9103.1244-3.6963.2581-5.6169.0131-.1886.0263-.3785.0395-.57.1479-2.1444.295-4.4992.295-7.4424 0-.312.253-.565.565-.565z"/></g><path d="m87.6984 46.3876-24.9303-26.6513c-1.2415 11.2801-2.1291 20.8939-5.5329 36.9194-.6138 2.8896 2.2632-9.3299 11.2772-10.849 5.0084-2.1602 6.2608-2.1938 8.6561-2.963 8.7179-.2898 10.7417 4.3585 10.5299 3.5439z" fill="#fff"/><path clip-rule="evenodd" d="m81.3206 43.6211c-3.0393-.1999-6.943.4275-10.973 1.9592-4.0301 1.5316-7.3651 3.6554-9.5044 5.8236-2.1831 2.2125-2.9462 4.273-2.3783 5.7672l-1.2024.457c-.8559-2.2519.4126-4.8449 2.6651-7.1277 2.2962-2.3272 5.8008-4.5407 9.963-6.1226 4.1621-1.5819 8.2522-2.2549 11.5145-2.0403 3.2001.2106 5.8706 1.3065 6.7264 3.5584l-1.2024.457c-.5679-1.4942-2.5069-2.5278-5.6085-2.7318z" fill="#000" fill-rule="evenodd"/><path clip-rule="evenodd" d="m87.6596 46.1247c-.2231.2178-.5806.2136-.7984-.0095-4.2681-4.3708-9.0002-9.2729-13.5532-13.9915-.2075-.2152-.4147-.4299-.6215-.6442-4.3292-4.4868-8.4681-8.7764-11.8602-12.2502-.2179-.2231-.2136-.5806.0095-.7984.2231-.2179.5805-.2136.7984.0095 3.3946 3.4763 7.5358 7.7683 11.864 12.2541l.6224.6451c4.5534 4.719 9.2832 9.6187 13.5485 13.9867.2178.2231.2136.5805-.0095.7984z" fill="#000" fill-rule="evenodd"/><path clip-rule="evenodd" d="m57.1286 57.2115c-.3061-.0593-.5062-.3556-.4468-.6617 1.8865-9.7299 3.1336-20.2542 4.3688-30.6775.3165-2.6709.6322-5.3351.9577-7.9776.0381-.3095.3199-.5295.6294-.4913.3095.0381.5294.3199.4913.6293-.3239 2.6299-.6386 5.2855-.9544 7.9509-1.2356 10.4278-2.489 21.0062-4.3843 30.7811-.0593.3061-.3556.5062-.6617.4468z" fill="#000" fill-rule="evenodd"/><path clip-rule="evenodd" d="m68.5486 36.4255c.1577.269.0674.6149-.2016.7726l-8.2812 4.8525c-.269.1576-.6149.0674-.7725-.2017-.1577-.269-.0674-.6149.2017-.7725l8.2811-4.8526c.269-.1576.6149-.0673.7725.2017zm-3.6611-1.781c.1576.2691.0673.6149-.2017.7726l-4.3841 2.569c-.2691.1576-.6149.0673-.7726-.2017-.1576-.269-.0673-.6149.2017-.7726l4.3841-2.569c.269-.1576.6149-.0673.7726.2017zm3.1399 5.3584c.1576.269.0673.6149-.2017.7726l-8.2811 4.8525c-.2691.1576-.615.0673-.7726-.2017-.1577-.269-.0674-.6149.2017-.7726l8.2811-4.8525c.269-.1576.6149-.0673.7726.2017z" fill="#000" fill-rule="evenodd"/><path clip-rule="evenodd" d="m68.9893 22.5462c-.3204.1534-.7044.0181-.8579-.3023l-3.5609-7.436c-.1219-.2545-.0637-.5586.1435-.7501.2071-.1915.5149-.2257.759-.0842l7.5535 4.3766c.3073.1781.4121.5716.234.8789-.1781.3074-.5716.4122-.8789.2341l-3.8545-2.2334c9.5741 9.2155 21.0128 10.0089 26.4163 7.4817.3218-.1505.7046-.0117.8551.3101s.0117.7046-.3101.8551c-5.9837 2.7985-18.0104 1.7952-27.9186-7.7839l1.7218 3.5955c.1534.3204.0181.7045-.3023.8579z" fill="#000" fill-rule="evenodd"/><path d="m36.1868 21.7959-17.6624 36.0398c10.3767 6.2866 25.3897 4.0646 31.7371 0z" fill="#fff"/><path clip-rule="evenodd" d="m19.0107 54.328c.3069-.179.7007-.0754.8797.2314.8363 1.4337 2.5803 2.6321 4.9936 3.5067 2.396.8683 5.3631 1.3843 8.5112 1.5176 6.3184.2674 13.1973-1.0116 17.504-3.8827.2956-.1971.6949-.1172.892.1783.197.2956.1171.6949-.1784.892-4.6204 3.0802-11.8085 4.3711-18.272 4.0976-3.243-.1373-6.3457-.6696-8.8951-1.5934-2.5321-.9177-4.6091-2.2553-5.6665-4.0679-.1789-.3068-.0753-.7007.2315-.8796z" fill="#000" fill-rule="evenodd"/><path clip-rule="evenodd" d="m37.7802 18.8895c.3079.1771.4139.5702.2368.8782-3.8894 6.7623-15.3553 30.9766-18.6393 38.0919-.1489.3225-.531.4633-.8535.3145-.3225-.1489-.4633-.531-.3145-.8535 3.2748-7.0953 14.7675-31.3705 18.6923-38.1943.1771-.3079.5703-.4139.8782-.2368z" fill="#000" fill-rule="evenodd"/><path clip-rule="evenodd" d="m35.2741 18.8727c.3166-.161.7038-.0348.8648.2819 1.1941 2.3486 4.3921 10.6876 7.539 18.9639.3786.9957.7565 1.9907 1.1304 2.975 2.7512 7.2433 5.282 13.9062 6.2206 15.9575.1478.323.0058.7047-.3172.8525s-.7047.0058-.8525-.3172c-.9581-2.0939-3.5058-8.8016-6.2479-16.0213-.3761-.9903-.7559-1.9903-1.1358-2.9893-3.1665-8.3278-6.3299-16.5695-7.4833-18.8382-.161-.3166-.0348-.7038.2819-.8648z" fill="#000" fill-rule="evenodd"/><path clip-rule="evenodd" d="m32.9038 42.1072c-.1319.3298-.5062.4902-.836.3583l-5.2144-2.0858c-.3298-.132-.4902-.5063-.3583-.8361s.5062-.4902.836-.3583l5.2144 2.0858c.3298.132.4902.5063.3583.8361z" fill="#000" fill-rule="evenodd"/><path clip-rule="evenodd" d="m33.4174 47.3364c-.1399.3265-.518.4777-.8445.3378l-7.3002-3.1285c-.3265-.1399-.4778-.518-.3379-.8445.14-.3265.5181-.4777.8446-.3378l7.3002 3.1285c.3265.1399.4777.518.3378.8445z" fill="#000" fill-rule="evenodd"/><path clip-rule="evenodd" d="m32.3729 52.5543c-.1424.3254-.5216.4738-.8471.3315l-8.3431-3.65c-.3254-.1424-.4738-.5216-.3314-.8471.1423-.3254.5216-.4738.847-.3314l8.3431 3.65c.3254.1423.4738.5216.3315.847z" fill="#000" fill-rule="evenodd"/><path d="m31.2518 96.1331-7.8366-7.2769 1.1195-12.8746 13.9941-3.3586 7.8367 7.277-1.6793 12.8745z" fill="#f2a966"/><path clip-rule="evenodd" d="m32.8356 74.9098c.2889-.11.6123.035.7223.3239 1.5343 4.029 3.0258 8.0455 4.2408 12.2046.0867.2968-.0836.6076-.3803.6943-.2968.0867-.6076-.0836-.6943-.3804-1.2014-4.1125-2.6788-8.0927-4.2124-12.12-.1101-.2889.0349-.6123.3239-.7224z" fill="#000" fill-rule="evenodd"/><path clip-rule="evenodd" d="m47.3303 78.5866c.2117.2253.2007.5795-.0246.7912-3.2752 3.0778-5.8775 5.2343-8.7012 7.5742-.5487.4547-1.1058.9163-1.6778 1.393-.2375.1979-.5905.1658-.7884-.0717s-.1658-.5904.0717-.7884c.5756-.4797 1.135-.9433 1.685-1.399 2.8221-2.3386 5.3961-4.4717 8.6441-7.5239.2253-.2117.5795-.2007.7912.0246z" fill="#000" fill-rule="evenodd"/><path clip-rule="evenodd" d="m31.1157 75.3659c.0845-.2974.3941-.47.6915-.3854.2662.0756.5325.1513.7988.2269 3.1893.9059 6.3855 1.8139 9.5628 2.7856.3748.1147.746.2311 1.1149.3468 1.4848.4656 2.9326.9196 4.4312 1.2006.3039.0569.504.3494.4471.6533-.057.3039-.3495.504-.6534.447-1.5705-.2945-3.0981-.7738-4.5887-1.2415-.3617-.1135-.7212-.2263-1.0786-.3356-3.1659-.9683-6.3517-1.8733-9.543-2.7798-.2657-.0755-.5314-.1509-.7972-.2265-.2974-.0845-.4699-.3941-.3854-.6914z" fill="#000" fill-rule="evenodd"/><path clip-rule="evenodd" d="m39.3641 72.3148c.1854.2473.1353.5981-.112.7836-2.3506 1.7629-4.1463 2.9639-5.3691 3.5753-.2765.1382-.6128.0262-.751-.2503-.1383-.2766-.0262-.6128.2503-.751 1.1254-.5628 2.8521-1.7101 5.1981-3.4696.2473-.1855.5982-.1354.7837.112z" fill="#000" fill-rule="evenodd"/><path clip-rule="evenodd" d="m38.4317 71.9189c.2262-.2108.5804-.1984.7912.0277 3.0295 3.2497 4.7696 4.9886 7.6744 7.3125.2414.1931.2806.5454.0874.7868-.1931.2414-.5453.2805-.7867.0874-2.9659-2.3727-4.7482-4.1562-7.794-7.4233-.2108-.2261-.1984-.5803.0277-.7911z" fill="#000" fill-rule="evenodd"/><path clip-rule="evenodd" d="m30.8644 76.7363c-1.9449.0505-3.7482.0973-6.075-.0552-.3085-.0203-.5422-.2867-.5219-.5952.0202-.3085.2867-.5422.5951-.522 2.28.1495 3.9989.1044 5.908.0543 1.0329-.0271 2.1216-.0557 3.3849-.0557.3091 0 .5598.2506.5598.5598 0 .3091-.2507.5597-.5598.5597-1.2013 0-2.2659.0277-3.2911.0543z" fill="#000" fill-rule="evenodd"/><path clip-rule="evenodd" d="m39.4519 71.902c.0889.2961-.0792.6082-.3753.697-2.6005.7802-4.9551 1.4411-7.0764 2.0365-2.7022.7585-5.0258 1.4108-6.997 2.0678-.2933.0978-.6103-.0607-.7081-.354-.0977-.2933.0608-.6103.354-.708 1.9849-.6616 4.3579-1.3281 7.0927-2.0962 2.1238-.5964 4.4656-1.2542 7.0131-2.0184.2961-.0888.6082.0792.697.3753z" fill="#000" fill-rule="evenodd"/><path clip-rule="evenodd" d="m37.9792 86.9497c.0441.306-.1682.5898-.4742.6339-3.0877.4449-5.6641.6671-7.9014.8513-.1341.011-.2669.0219-.3985.0327-2.07.1698-3.8303.3142-5.4597.5858-.305.0508-.5934-.1552-.6442-.4601-.0508-.305.1552-.5934.4601-.6442 1.6774-.2796 3.4826-.4276 5.5356-.5959.1372-.0113.2754-.0226.4149-.0341 2.233-.1838 4.7813-.4038 7.8335-.8436.306-.0441.5898.1682.6339.4742z" fill="#000" fill-rule="evenodd"/><path clip-rule="evenodd" d="m34.2581 75.2052c.2104.2266.1972.5808-.0293.7911-2.182 2.0262-4.2279 4.1304-6.0602 6.4625-1.2236 1.5572-2.359 3.1904-3.1168 4.9677-.2614.6131-.2884 1.03-.2212 1.7353.0293.3077-.1965.581-.5042.6103-.3078.0293-.581-.1964-.6103-.5042-.0787-.8264-.0507-1.4442.3059-2.2805.8154-1.9125 2.0221-3.6369 3.2663-5.2203 1.8799-2.3926 3.9701-4.5403 6.1787-6.5912.2266-.2103.5807-.1972.7911.0293z" fill="#000" fill-rule="evenodd"/><path clip-rule="evenodd" d="m24.2403 75.6133c.3092 0 .5598.2506.5598.5597 0 2.076-.1482 4.4426-.2947 6.714-.0054.0842-.0109.1682-.0163.2521-.1415 2.1905-.2761 4.2747-.2761 5.9494 0 .3092-.2506.5598-.5597.5598-.3092 0-.5598-.2506-.5598-.5598 0-1.712.1368-3.8286.2771-6.0011.0059-.0908.0117-.1816.0176-.2725.147-2.2784.2924-4.6083.2924-6.6419 0-.3091.2506-.5597.5597-.5597z" fill="#000" fill-rule="evenodd"/><path clip-rule="evenodd" d="m22.4949 87.685c.2361-.1995.5893-.17.7888.0661 1.8592 2.199 3.9354 4.1956 6.2344 5.9232.7987.6001 1.6146 1.1653 2.4641 1.6666-.0027-.0016-.0023-.0014.0201.0093.0079.0038.0185.0089.0327.0156l.0006.0003c.0349.0167.103.0492.1667.09.0325.0208.0816.0549.1305.1031.0436.0431.1289.138.1679.2863.0474.1801.0065.3614-.0936.5002-.0825.1144-.1858.1743-.2434.2032-.2736.1367-.6056.0285-.7465-.2415-.0014-.0008-.0027-.0016-.004-.0024-.8955-.5285-1.7469-1.119-2.5676-1.7357-2.3716-1.7821-4.5081-3.8378-6.4168-6.0954-.1996-.2361-.17-.5893.0661-.7889z" fill="#000" fill-rule="evenodd"/><path clip-rule="evenodd" d="m37.4909 86.8786c.2474.1855.2975.5363.112.7837-1.7621 2.3495-4.5882 6.3654-5.7948 8.7262-.1407.2753-.4779.3844-.7532.2437s-.3844-.4779-.2437-.7532c1.2554-2.4562 4.1358-6.5414 5.8961-8.8885.1855-.2473.5363-.2974.7836-.1119z" fill="#000" fill-rule="evenodd"/><path clip-rule="evenodd" d="m45.9051 92.4337c.0978.2933-.0607.6103-.354.708-1.7856.5952-4.9624 1.4298-7.8608 2.1381-2.8891.706-5.5623 1.3014-6.329 1.4078-.3062.0424-.5888-.1714-.6313-.4776s.1713-.5889.4775-.6314c.6976-.0967 3.3079-.6754 6.217-1.3863 2.8998-.7086 6.0357-1.5337 7.7725-2.1126.2933-.0978.6103.0607.7081.354z" fill="#000" fill-rule="evenodd"/><path clip-rule="evenodd" d="m36.3309 86.1816c.2088-.2279.5629-.2434.7908-.0346 1.346 1.2331 2.906 2.3292 4.4269 3.322.5769.3767 1.1547.7424 1.7122 1.0953.8917.5644 1.7317 1.0961 2.434 1.5875.2533.1773.315.5263.1377.7796-.1772.2533-.5262.3149-.7795.1377-.6859-.4799-1.4835-.9845-2.3537-1.5351-.5609-.3548-1.1519-.7288-1.7627-1.1275-1.537-1.0034-3.1574-2.1388-4.5711-3.434-.228-.2088-.2435-.5629-.0346-.7909z" fill="#000" fill-rule="evenodd"/><path clip-rule="evenodd" d="m45.9611 77.9609c.3091 0 .5597.2507.5597.5598 0 2.9549-.1478 5.3185-.2949 7.4502-.013.1888-.026.3756-.0389.5608-.1328 1.909-.2533 3.64-.2533 5.4916 0 .3091-.2506.5597-.5597.5597-.3092 0-.5598-.2506-.5598-.5597 0-1.8925.1232-3.662.2557-5.5647.013-.1869.0261-.375.0392-.5647.1465-2.1245.2922-4.4574.2922-7.3732 0-.3091.2506-.5598.5598-.5598z" fill="#000" fill-rule="evenodd"/><path d="m71.1572 95.9159-7.8366-7.2769 1.1392-13.8859 14.1772-3.1867 7.6339 8.1164-1.6793 12.8745z" fill="#f2a966"/><path clip-rule="evenodd" d="m72.6744 74.2526c.2889-.11.6123.035.7223.3239 1.5343 4.029 3.0258 8.0455 4.2408 12.2046.0867.2967-.0836.6076-.3803.6943-.2968.0866-.6076-.0836-.6943-.3804-1.2014-4.1125-2.6788-8.0927-4.2124-12.1201-.1101-.2889.035-.6123.3239-.7223z" fill="#000" fill-rule="evenodd"/><path clip-rule="evenodd" d="m87.1691 77.9294c.2117.2253.2007.5795-.0246.7912-3.2752 3.0778-5.8775 5.2342-8.7012 7.5741-.5487.4547-1.1058.9164-1.6778 1.3931-.2375.1979-.5905.1658-.7884-.0717s-.1658-.5905.0717-.7884c.5756-.4797 1.135-.9433 1.685-1.3991 2.8221-2.3386 5.3961-4.4717 8.6441-7.5238.2253-.2117.5795-.2007.7912.0246z" fill="#000" fill-rule="evenodd"/><path clip-rule="evenodd" d="m70.9546 74.7096c.0845-.2974.3941-.4699.6914-.3854.2663.0757.5325.1513.7989.227 3.1892.9059 6.3855 1.8138 9.5627 2.7856.3749.1146.7461.231 1.115.3467 1.4848.4656 2.9325.9196 4.4312 1.2006.3039.057.504.3495.447.6533-.0569.3039-.3495.504-.6533.4471-1.5706-.2945-3.0981-.7738-4.5888-1.2415-.3616-.1135-.7211-.2263-1.0785-.3356-3.166-.9684-6.3517-1.8733-9.5431-2.7798-.2657-.0755-.5314-.151-.7971-.2265-.2974-.0845-.4699-.3941-.3854-.6915z" fill="#000" fill-rule="evenodd"/><path clip-rule="evenodd" d="m79.2029 71.6575c.1855.2474.1354.5982-.1119.7837-2.3506 1.7629-4.1463 2.9638-5.3692 3.5753-.2765.1382-.6127.0261-.751-.2504-.1382-.2765-.0261-.6127.2504-.751 1.1254-.5627 2.8521-1.71 5.1981-3.4695.2473-.1855.5981-.1354.7836.1119z" fill="#000" fill-rule="evenodd"/><path clip-rule="evenodd" d="m78.2706 71.2617c.2261-.2109.5803-.1984.7911.0277 3.0296 3.2497 4.7697 4.9886 7.6745 7.3125.2414.1931.2805.5453.0874.7867s-.5454.2806-.7868.0875c-2.9658-2.3727-4.7481-4.1562-7.7939-7.4233-.2109-.2261-.1984-.5803.0277-.7911z" fill="#000" fill-rule="evenodd"/><path clip-rule="evenodd" d="m70.7032 76.0801c-1.945.0505-3.7483.0973-6.0751-.0553-.3084-.0202-.5421-.2867-.5219-.5952s.2867-.5421.5952-.5219c2.28.1495 3.9988.1044 5.9079.0542 1.033-.0271 2.1216-.0557 3.3849-.0557.3092 0 .5598.2507.5598.5598 0 .3092-.2506.5598-.5598.5598-1.2013 0-2.2658.0276-3.291.0543z" fill="#000" fill-rule="evenodd"/><path clip-rule="evenodd" d="m79.2907 71.2457c.0888.2962-.0792.6082-.3753.697-2.6006.7802-4.9552 1.4411-7.0765 2.0366-2.7022.7585-5.0258 1.4107-6.997 2.0678-.2933.0978-.6103-.0607-.708-.354-.0978-.2933.0607-.6103.354-.7081 1.9848-.6616 4.3579-1.3281 7.0927-2.0961 2.1237-.5965 4.4655-1.2542 7.0131-2.0185.2961-.0888.6081.0792.697.3753z" fill="#000" fill-rule="evenodd"/><path clip-rule="evenodd" d="m77.8181 86.2925c.044.306-.1683.5898-.4743.6339-3.0876.4448-5.664.6671-7.9013.8512-.1341.0111-.267.022-.3985.0328-2.0701.1698-3.8303.3142-5.4598.5858-.3049.0508-.5933-.1552-.6441-.4602-.0508-.3049.1552-.5933.4601-.6441 1.6774-.2796 3.4825-.4276 5.5355-.596.1372-.0112.2755-.0225.4149-.034 2.233-.1838 4.7813-.4038 7.8336-.8436.306-.0441.5898.1682.6339.4742z" fill="#000" fill-rule="evenodd"/><path clip-rule="evenodd" d="m74.0968 74.548c.2104.2266.1973.5807-.0293.7911-2.182 2.0262-4.2278 4.1304-6.0602 6.4625-1.2235 1.5572-2.359 3.1903-3.1168 4.9676-.2614.6131-.2884 1.0301-.2212 1.7353.0293.3078-.1964.581-.5042.6103-.3077.0293-.581-.1964-.6103-.5041-.0787-.8264-.0506-1.4443.3059-2.2805.8154-1.9126 2.0222-3.6369 3.2663-5.2203 1.8799-2.3926 3.9701-4.5403 6.1787-6.5912.2266-.2103.5808-.1972.7911.0293z" fill="#000" fill-rule="evenodd"/><path clip-rule="evenodd" d="m64.0792 74.9561c.3092 0 .5598.2506.5598.5597 0 2.076-.1482 4.4425-.2947 6.7139-.0055.0842-.0109.1683-.0163.2522-.1415 2.1904-.2761 4.2747-.2761 5.9494 0 .3092-.2506.5598-.5598.5598-.3091 0-.5597-.2506-.5597-.5598 0-1.712.1367-3.8287.2771-6.0012.0058-.0907.0117-.1815.0176-.2724.147-2.2784.2923-4.6083.2923-6.6419 0-.3091.2507-.5597.5598-.5597z" fill="#000" fill-rule="evenodd"/><path clip-rule="evenodd" d="m62.3336 87.0288c.2361-.1996.5893-.17.7889.0661 1.8591 2.199 3.9353 4.1955 6.2344 5.9231.7986.6002 1.6146 1.1653 2.464 1.6666-.0026-.0015-.0022-.0013.0201.0094.0079.0037.0186.0088.0328.0156l.0005.0003c.0349.0166.1031.0491.1668.09.0325.0208.0816.0548.1304.1031.0436.043.1289.138.1679.2862.0474.1801.0065.3615-.0935.5002-.0825.1144-.1859.1744-.2435.2032-.2735.1368-.6055.0286-.7465-.2415-.0013-.0007-.0027-.0015-.004-.0023-.8955-.5285-1.7469-1.119-2.5676-1.7358-2.3715-1.782-4.508-3.8377-6.4167-6.0953-.1996-.2361-.1701-.5893.066-.7889z" fill="#000" fill-rule="evenodd"/><path clip-rule="evenodd" d="m77.3301 86.2223c.2473.1855.2975.5364.112.7837-1.7622 2.3495-4.5882 6.3655-5.7949 8.7263-.1407.2753-.4779.3844-.7531.2437-.2753-.1407-.3844-.4779-.2437-.7532 1.2554-2.4562 4.1358-6.5415 5.896-8.8885.1855-.2473.5364-.2975.7837-.112z" fill="#000" fill-rule="evenodd"/><path clip-rule="evenodd" d="m85.744 91.7765c.0977.2932-.0608.6102-.3541.708-1.7855.5952-4.9623 1.4298-7.8607 2.1381-2.8891.706-5.5623 1.3014-6.329 1.4077-.3062.0425-.5889-.1713-.6313-.4775-.0425-.3062.1713-.5889.4775-.6314.6975-.0967 3.3079-.6754 6.217-1.3863 2.8998-.7087 6.0357-1.5337 7.7725-2.1127.2933-.0977.6103.0608.7081.3541z" fill="#000" fill-rule="evenodd"/><path clip-rule="evenodd" d="m76.1696 85.5254c.2089-.228.5629-.2435.7909-.0346 1.3459 1.2331 2.906 2.3291 4.4268 3.322.577.3766 1.1547.7423 1.7122 1.0952.8918.5645 1.7318 1.0962 2.4341 1.5876.2533.1772.3149.5262.1377.7795-.1773.2533-.5263.315-.7796.1378-.6859-.48-1.4834-.9846-2.3536-1.5351-.5609-.3549-1.152-.7288-1.7628-1.1276-1.537-1.0034-3.1574-2.1388-4.5711-3.4339-.2279-.2089-.2434-.563-.0346-.7909z" fill="#000" fill-rule="evenodd"/><path clip-rule="evenodd" d="m85.7999 77.3047c.3091 0 .5597.2506.5597.5598 0 2.9549-.1478 5.3184-.2949 7.4502-.013.1888-.026.3756-.0389.5607-.1328 1.9091-.2533 3.6401-.2533 5.4916 0 .3092-.2506.5598-.5597.5598-.3092 0-.5598-.2506-.5598-.5598 0-1.8925.1232-3.6619.2557-5.5646.013-.1869.0261-.3751.0392-.5647.1465-2.1245.2922-4.4575.2922-7.3732 0-.3092.2506-.5598.5598-.5598z" fill="#000" fill-rule="evenodd"/></svg>