<svg fill="none" viewBox="0 0 110 110" xmlns="http://www.w3.org/2000/svg"><path d="m54.4387 96.5943-29.4171-17.3042v-16.0541l-7.0204-4.8125 7.0204-9.5865 28.6617-16.1222h12.4429l26.125 16.1222-10.3125.649.6875 30.9375z" fill="#f2a966"/><g clip-rule="evenodd" fill="#000" fill-rule="evenodd"><path d="m53.6832 32.9857c.3797 0 .6875.3078.6875.6875v63.5301c0 .3797-.3078.6875-.6875.6875s-.6875-.3078-.6875-.6875v-63.5301c0-.3797.3078-.6875.6875-.6875z"/><path d="m82.3449 48.1494c.3797 0 .6875.3078.6875.6875v32.2444c0 .3797-.3078.6875-.6875.6875s-.6875-.3078-.6875-.6875v-32.2444c0-.3797.3078-.6875.6875-.6875z"/><path d="m25.0212 62.5488c.3797 0 .6875.3078.6875.6875v17.8455c0 .3797-.3078.6875-.6875.6875s-.6875-.3078-.6875-.6875v-17.8455c0-.3797.3078-.6875.6875-.6875z"/><path d="m49.5055 30.5795c.1899-.3288.6104-.4414.9392-.2514l34.8421 20.1267c.3287.19.4413.6105.2514.9392-.1899.3288-.6104.4414-.9392.2515l-34.8421-20.1268c-.3287-.1899-.4413-.6104-.2514-.9392z"/><path d="m64.8535 31.9384c.199-.3234.6225-.4242.9459-.2252l26.8125 16.5c.3234.199.4242.6225.2252.9458-.199.3234-.6225.4242-.9458.2252l-26.8126-16.5c-.3233-.199-.4242-.6224-.2252-.9458z"/><path d="m20.8433 77.1547c.19-.3288.6105-.4414.9392-.2514l34.8421 20.1267c.3288.19.4413.6105.2514.9392-.1899.3288-.6104.4414-.9392.2515l-34.842-20.1268c-.3288-.1899-.4414-.6104-.2515-.9392z"/><path d="m24.4199 49.3485c-.1838-.3323-.0633-.7506.269-.9343l31.4796-17.4051c.3323-.1838.7506-.0633.9343.269.1837.3322.0633.7506-.269.9343l-31.4796 17.4051c-.3323.1837-.7506.0633-.9343-.269z"/><path d="m51.7805 97.9551c-.1897-.3289-.0769-.7493.252-.939l31.76-18.321c.3289-.1897.7493-.0769.9391.252.1897.3289.0769.7493-.252.939l-31.7601 18.321c-.3289.1897-.7493.0769-.939-.252z"/><path d="m53.7078 35.1446c.364.108.5715.4906.4635.8547l-7.3232 24.6825c-.108.364-.4906.5716-.8546.4636-.3641-.108-.5716-.4907-.4636-.8547l7.3232-24.6826c.108-.364.4907-.5715.8547-.4635zm-6.4083 1.2367c.3659.1015.5802.4804.4788.8463l-5.7393 20.6924c-.1015.3659-.4803.5802-.8462.4787-.3659-.1014-.5802-.4803-.4788-.8462l5.7393-20.6924c.1015-.3659.4803-.5802.8462-.4788zm-7.1004 4.1965c.3636.1091.57.4923.4609.856l-4.125 13.75c-.1091.3637-.4923.5701-.856.461-.3637-.1092-.5701-.4924-.461-.8561l4.125-13.75c.1091-.3637.4924-.57.8561-.4609zm-7.5797 4.1875c.3664.0996.5827.4774.483.8438l-1.6643 6.1201c-.0996.3663-.4774.5826-.8438.483-.3664-.0997-.5826-.4775-.483-.8439l1.6643-6.12c.0997-.3664.4775-.5827.8438-.483zm21.321 8.1849c.3651.1043.5765.4848.4722.8499l-2.75 9.625c-.1043.3651-.4849.5765-.85.4722-.365-.1043-.5764-.4848-.4721-.8499l2.75-9.625c.1043-.3651.4848-.5765.8499-.4722z"/><path d="m81.2512 48.7988c0-.3797.3078-.6875.6875-.6875h9.6247l.0003.6875-.0001.6875h-9.6249c-.3797 0-.6875-.3078-.6875-.6875zm11 0c0 .3797-.3079.6875-.6876.6875l.0001-.6875-.0003-.6875c.3797 0 .6878.3078.6878.6875z"/><path d="m53.2477 33.46c-.3797 0-.6875-.3078-.6875-.6875s.3078-.6875.6875-.6875h13.5659c.3797 0 .6875.3078.6875.6875s-.3078.6875-.6875.6875z"/></g><path d="m33.1913 34.2051c-1.3751-17.8751 18.5626-22.6874 25.4373-19.25 11.6875 4.8125 15.8129 17.875 6.1877 30.25-8.5557 11-6.493 12.0288-8.7956 23.6806l-2.0629 2.0624-2.7501-2.0624-1.5164-7.8681c-2.75-13.0625-13.75-12.375-16.5-26.8125z" fill="#fff"/><path clip-rule="evenodd" d="m58.9133 14.3288c6.0119 2.4829 10.126 7.1103 11.4703 12.7561 1.3462 5.6537-.1091 12.2225-5.0246 18.5423-4.2265 5.434-6.2314 9.8034-7.1141 14.5702-.8895 4.8041-1.352 5.6325-1.352 9.3072.0092.1935-.0636.3819-.2006.5189l-2.0628 2.0624c-.242.2419-.6249.2691-.8986.0638l-2.7501-2.0624c-.1415-.1061-.2366-.2626-.2657-.437l-1.6995-8.5052c-1.2899-6.1086-4.4215-9.0794-7.7458-12.2331-.1005-.0954-.2012-.1908-.302-.2866-3.4676-3.2943-7.0356-6.8565-8.4518-14.2917-.0048-.0251-.0082-.0504-.0101-.0759-.7123-9.2591 4.1213-15.166 9.9884-18.2773 2.9219-1.5495 6.1055-2.4117 9.0061-2.6663 2.8737-.2523 5.5404.0864 7.4129 1.0146zm-25.0394 19.7854c1.3385 6.9765 4.6398 10.2832 8.041 13.5143.1111.1056.2223.2111.3336.3166 3.3332 3.1607 6.7385 6.3898 8.1156 12.9309.0012.0054.0022.0109.0033.0164.0007.004.0014.0081.0021.0122l1.6566 8.248 2.0528 1.5394 1.4261-1.4258c.2902-3.8372.4765-4.3968 1.3879-9.3191.9315-5.03 3.0516-9.5982 7.3808-15.1641 4.7098-6.0553 6.0044-12.2052 4.7723-17.3796-1.2323-5.1751-5.0159-9.4807-10.6791-11.8126-.0155-.0064-.0307-.0133-.0457-.0208-1.5637-.7819-3.9572-1.1269-6.7006-.8861-2.7283.2395-5.7322 1.0531-8.4821 2.5114-5.4686 2.9-9.9113 8.325-9.2646 16.9189z" fill="#000" fill-rule="evenodd"/><path d="m53.2933 65.2025-11.0322-6.2543 11.0322 25.6256 11.0319-25.6256z" fill="#f2a966"/><path clip-rule="evenodd" d="m82.816 50.8883c.365.1046.576.4854.4713.8504l-9.6445 33.6245c-.1046.365-.4854.576-.8504.4713-.3649-.1047-.5759-.4854-.4713-.8504l9.6445-33.6245c.1047-.365.4854-.576.8504-.4713zm-6.8805.6859c.3658.1016.58.4806.4784.8464l-10.3125 37.125c-.1016.3658-.4806.58-.8465.4784-.3658-.1016-.58-.4806-.4784-.8464l10.3125-37.125c.1017-.3659.4806-.58.8465-.4784zm-7.5625 5.5c.3658.1016.58.4806.4784.8464l-10.3125 37.125c-.1016.3658-.4806.58-.8464.4784-.3659-.1016-.5801-.4806-.4785-.8464l10.3125-37.125c.1017-.3659.4806-.58.8465-.4784zm-7.5661 3.4365c.3663.0996.5826.4774.483.8438l-6.7306 24.75c-.0996.3664-.4774.5826-.8438.483s-.5826-.4774-.483-.8438l6.7305-24.75c.0997-.3664.4775-.5827.8439-.483zm21.7042 8.9375c.3664.0996.5826.4774.483.8438l-3.1612 11.6246c-.0996.3664-.4774.5826-.8438.483-.3664-.0997-.5827-.4774-.483-.8438l3.1612-11.6246c.0996-.3664.4774-.5826.8438-.483z" fill="#000" fill-rule="evenodd"/><path clip-rule="evenodd" d="m53.4538 64.193c.3797.0066.6882.1409.6891.2998l.1588 26.5981c.001.1589-.306.2824-.6856.2758s-.6881-.1409-.6891-.2998l-.1588-26.5981c-.0009-.1589.306-.2824.6856-.2758z" fill="#000" fill-rule="evenodd"/><path clip-rule="evenodd" d="m49.5331 22.984c3.3285-1.0007 7.1776-.402 9.6452 1.9012 3.4806 3.2485 4.2802 8.0734 3.0026 11.9425-1.2862 3.8954-4.7185 6.9049-9.6811 6.3377-.3773-.0431-.6481-.3838-.605-.7611.0431-.3772.3839-.6481.7611-.605 4.2029.4804 7.0996-2.0117 8.2193-5.4027 1.1284-3.4172.4109-7.6634-2.6351-10.5062-2.0419-1.9059-5.3544-2.4786-8.3111-1.5896-2.9235.879-5.4017 3.1579-5.8651 6.8653-.0471.3768-.3907.644-.7674.5969-.3768-.047-.6441-.3907-.597-.7674.5411-4.3287 3.4719-7.0008 6.8336-8.0116z" fill="#000" fill-rule="evenodd"/><path clip-rule="evenodd" d="m40.5801 24.7227c.3673-.096.743.1239.8391.4912.1034.3956.2065.7928.3095 1.1891.5854 2.2541 1.1632 4.4789 1.74 6.2093.1201.3602-.0746.7496-.4348.8696-.3602.1201-.7495-.0746-.8696-.4348-.593-1.7788-1.1849-4.0584-1.7692-6.3085-.1023-.3942-.2044-.7874-.3062-1.1768-.0961-.3674.1239-.743.4912-.8391z" fill="#000" fill-rule="evenodd"/><path clip-rule="evenodd" d="m50.1444 26.869c.1495.349-.0121.7532-.3611.9027-2.8933 1.24-4.8545 3.5459-6.4331 5.4914-.2392.2949-.6721.34-.967.1007-.2948-.2392-.3399-.6722-.1007-.967 1.5741-1.9402 3.7214-4.5013 6.9591-5.8889.349-.1496.7532.0121.9028.3611z" fill="#000" fill-rule="evenodd"/><path clip-rule="evenodd" d="m16.717 58.0827c.1884-.3297.6084-.4442.938-.2558l28.875 16.4999c.3297.1884.4442.6084.2559.938-.1884.3297-.6084.4442-.938.2559l-28.875-16.5c-.3297-.1884-.4442-.6084-.2559-.938zm6.1859-10.3097c.1869-.3306.6063-.4471.9368-.2603l31.625 17.875c.3306.1869.4471.6063.2603.9368-.1869.3306-.6063.4471-.9368.2603l-31.625-17.875c-.3306-.1869-.4471-.6063-.2603-.9368z" fill="#000" fill-rule="evenodd"/><path clip-rule="evenodd" d="m53.0879 65.303c-.1899-.3288-.0772-.7492.2516-.9391l27.9245-16.1222c.3288-.1899.7493-.0772.9391.2516.1899.3289.0772.7493-.2516.9392l-27.9245 16.1222c-.3288.1898-.7493.0772-.9391-.2517z" fill="#000" fill-rule="evenodd"/><path clip-rule="evenodd" d="m25.2887 48.2489c.3038.2278.3654.6587.1375.9625-2.0677 2.757-3.9629 5.1691-5.3412 6.8919-.6893.8616-1.2495 1.5511-1.6376 2.0254-.1941.2373-.3452.4207-.4479.545l-.1171.1415-.0398.0479s-.0007.0009-.5289-.4392l.5289.4392c-.243.2917-.6773.332-.969.0889s-.3311-.6766-.088-.9683l.2484.2071c-.2484-.2071-.2484-.2071-.2484-.2071l.0387-.0465.1152-.1392c.1014-.1227.2511-.3045.4437-.54.3853-.4709.9423-1.1564 1.6281-2.0136 1.3717-1.7146 3.2577-4.1151 5.3149-6.858.2279-.3038.6588-.3653.9625-.1375zm28.91 16.528c.2882.2471.3216.6811.0745.9694-2.0511 2.393-3.9331 4.7882-5.3032 6.5864-.6848.8987-1.241 1.6475-1.6257 2.1711-.1923.2618-.3417.4672-.4429.607l-.1148.1591-.029.0405-.0089.0124c-.2207.309-.6506.3812-.9596.1605-.3089-.2207-.3805-.6501-.1598-.959l.0028-.004.0078-.0108.0302-.0422.1175-.1627c.1029-.1423.2543-.3504.4487-.6149.3887-.5292.9497-1.2843 1.64-2.1903 1.3799-1.8111 3.2791-4.2284 5.353-6.648.2471-.2882.6811-.3216.9694-.0745z" fill="#000" fill-rule="evenodd"/></svg>