<svg fill="none" viewBox="0 0 150 150" xmlns="http://www.w3.org/2000/svg"><path d="m115.899 33.167c-5.087.9743-4.284 11.2294-3.247 16.2352l-.676.9468c-2.39 0-9.119.2706-16.912 1.353-7.793 1.0823-5.2314 4.3294-2.9765 5.8177 15.0175 5.0059 19.0765-1.0824 19.8885-1.6236.649-.4329 2.165-2.9765 2.841-4.1941 3.788-1.0824 5.998-5.2313 6.63-7.1704 2.164-9.5248-2.797-11.545-5.548-11.3646z" fill="#fcf4e3"/><path clip-rule="evenodd" d="m126.242 66.8037 10.196-10.7386-4.014-2.9285-5.423 5.5317-3.471-2.6032 2.712-2.9285-2.17-1.3018-3.796 4.2303-13.233-12.1481c.542-1.8077 1.301-6.1173 0-8.8941-1.627-3.471-6.508-4.9896-9.5453-3.3626-3.0371 1.627-5.3149 8.1346-5.2064 9.7616s1.844 4.9895 4.5556 6.3996c2.7117 1.4101 7.0501.8677 7.4841-.6508zm-27.1625-22.6389c1.4965.6748 2.3395-.6301 3.2315-2.6086s1.496-3.8812 0-4.556c-1.496-.6749-2.3392.2778-3.2316 2.2563s-1.496 4.2335.0001 4.9083z" fill="#fff" fill-rule="evenodd"/><path clip-rule="evenodd" d="m101.184 35.9597c.637.2713 1.237.7081 1.573 1.2997.28.4925.331 1.0448.292 1.5554-.039.5102-.17 1.0141-.285 1.4286-.28 1-.734 1.94-1.208 2.8217-.02.038-.041.078-.064.1196-.204.3842-.486.9121-.841 1.3557-.387.4844-.9338.9597-1.6543.9597-.6083 0-1.1838-.3051-1.6416-.6745-.4634-.3739-.8539-.8513-1.0956-1.2806-.7524-1.3364-.7342-3.1841-.1595-4.5447.1915-.4535.4581-.969.7918-1.4385.1229-.173.257-.3427.4021-.502-.0375-.1297-.0051-.2753.0971-.3775.4335-.4335 1.0232-.959 1.8021-1.0488.6291-.0726 1.3519.054 1.9909.3262zm-1.421.4277c.0586.0765.0886.1752.0763.2785-.0251.2101-.2157.3601-.4259.335-.0304-.0036-.0598-.0072-.0883-.0107-.3898-.0472-.6061-.0735-.8186.048-.3576.2043-.6934.55-.9901.9674-.2944.4143-.5354.8784-.7105 1.2929-.4981 1.1792-.4962 2.7736.1214 3.8706.1943.3452.5217.7477.909 1.0601.3929.317.801.5046 1.1604.5046.3615 0 .7107-.2403 1.0563-.6721.307-.3845.555-.8486.764-1.24.022-.0406.043-.0804.064-.1193.466-.8666.888-1.7475 1.145-2.6651.114-.4112.226-.8519.259-1.2804.032-.4282-.018-.8089-.194-1.119-.227-.3988-.667-.7429-1.207-.9732-.368-.1565-.759-.2507-1.121-.2773z" fill="#000" fill-rule="evenodd"/><path clip-rule="evenodd" d="m100.669 36.8222c.145.1539.138.3964-.015.5417-1.087 1.0262-1.8023 2.1097-1.9075 3.5829-.0997 1.3956.4099 2.7412 1.2257 3.9049.1218.1732.0798.4122-.0938.5336-.1733.1215-.4122.0795-.5337-.0938-.8841-1.2611-1.4783-2.7785-1.3625-4.3993.1238-1.7338.9794-2.9844 2.1448-4.0855.154-.1453.397-.1383.542.0155z" fill="#000" fill-rule="evenodd"/><path clip-rule="evenodd" d="m96.1337 32.7334c1.3694-.4979 2.6155-.7623 4.1323-.334 1.811.5115 3.618 1.4812 4.833 3.0149.756.9553 1.18 2.0461 1.068 3.3109-.09 1.011-.418 1.9867-.742 2.8843-.644 1.7795-1.494 3.9057-2.851 5.3862-.665.7251-1.483.9429-2.301.9135-.7991-.0288-1.6181-.2937-2.3282-.545-1.6813-.5949-3.8278-1.4607-5.0059-3.0625-1.3748-1.8694-.9834-3.8321-.2754-5.7121.6882-1.8276 2.2229-4.1542 3.2845-5.7119l.0696-.102zm.3776.6786c-1.0652 1.5665-2.4945 3.758-3.1307 5.4476-.6871 1.8247-.9561 3.4493.1756 4.9881 1.0201 1.3869 2.94 2.1911 4.6442 2.7941.7123.252 1.4311.4775 2.0996.5016.651.0234 1.23-.1436 1.709-.6655 1.241-1.3537 2.048-3.341 2.695-5.1291.324-.8967.619-1.7894.7-2.6914.091-1.0315-.246-1.9331-.906-2.7675-1.085-1.3701-2.732-2.2704-4.441-2.753-1.2552-.3547-2.2961-.1685-3.5457.2751z" fill="#000" fill-rule="evenodd"/><path clip-rule="evenodd" d="m101.419 30.6553c1.637.1532 2.96.8114 3.441 1.1097 1.335.8273 2.93 2.0145 3.537 3.673.623 1.6983.223 3.6122-.145 5.1742-.314 1.3307-.749 2.4307-1.479 3.5983-.113.1794-.349.2338-.529.1215-.179-.1123-.233-.3487-.121-.5281.682-1.0891 1.086-2.1096 1.383-3.3675.375-1.5907.704-3.2828.172-4.7347-.51-1.3913-1.892-2.4611-3.222-3.2854-.41-.2543-1.62-.8587-3.108-.9981-1.4733-.1379-3.2092.1785-4.7425 1.7431-.1481.1511-.3907.1536-.5418.0054-.1511-.1481-.1536-.3906-.0055-.5418 1.7278-1.763 3.7094-2.1242 5.3608-1.9696z" fill="#000" fill-rule="evenodd"/><path clip-rule="evenodd" d="m93.7648 44.903c.1664-.1306.4073-.1016.5379.0649 2.0148 2.5673 4.0223 3.5823 5.5943 3.8849.789.152 1.475.1258 2.007.0219.534-.1045.882-.2811 1.03-.4066l.022-.0223c.021-.0197.05-.0483.086-.0838.072-.0712.172-.17.282-.2805.222-.2234.479-.4868.639-.6678.14-.1586.382-.1738.541-.0338.158.14.174.3822.034.5408-.177.2003-.449.4785-.671.7016-.112.1126-.214.2131-.287.2855-.037.0362-.067.0654-.087.0856l-.024.0234-.009.0082-.007.0072-.008.0067c-.283.2474-.778.4674-1.394.5879-.628.1227-1.413.1491-2.2989-.0215-1.7789-.3425-3.9407-1.4738-6.0522-4.1643-.1306-.1665-.1016-.4073.0649-.538z" fill="#000" fill-rule="evenodd"/><path clip-rule="evenodd" d="m104.013 47.1031c.128-.1683.369-.2008.537-.0726.655.4992 1.242.9181 1.801 1.3174 1.15.821 2.184 1.5596 3.463 2.7438 1.541 1.4282 3.053 2.8934 4.561 4.3545.599.5803 1.197 1.1599 1.796 1.7363 2.401 2.3099 4.853 4.5547 7.311 6.8043.908.8315 1.817 1.6637 2.725 2.5.156.1434.165.3858.022.5414s-.386.1655-.541.0221c-.904-.8324-1.81-1.6622-2.717-2.4923-2.46-2.2518-4.923-4.5062-7.331-6.8233-.604-.5806-1.204-1.1627-1.805-1.7443-1.505-1.4588-3.007-2.9145-4.542-4.3365-1.244-1.1519-2.218-1.8472-3.344-2.6507-.565-.4033-1.169-.8339-1.863-1.3631-.169-.1282-.201-.3686-.073-.537z" fill="#000" fill-rule="evenodd"/><path clip-rule="evenodd" d="m106.139 43.6473c.126-.1704.366-.2069.536-.0815 2.236 1.6449 3.912 3.181 5.922 5.065.405.3804.806.7618 1.206 1.1422.916.8709 1.825 1.736 2.771 2.5694 1.282 1.1305 2.62 2.1931 3.967 3.2631.173.138.347.2761.521.4145.166.1317.193.3728.061.5383-.131.1656-.372.1931-.538.0613-.173-.138-.347-.2759-.521-.414-1.345-1.0685-2.699-2.1439-3.997-3.2884-.957-.8433-1.883-1.7247-2.804-2.6004-.397-.3779-.794-.7548-1.191-1.1271-2.006-1.881-3.654-3.3905-5.851-5.0067-.17-.1254-.207-.3652-.082-.5357z" fill="#000" fill-rule="evenodd"/><path clip-rule="evenodd" d="m124.158 52.2283c-.106.0309-.27.1169-.521.3258-.956.7972-1.485 1.354-2.472 2.3927-.253.2663-.536.5642-.864.906-.147.1526-.389.1576-.542.0111-.153-.1466-.158-.3891-.011-.5418.32-.3333.598-.6265.849-.8907.994-1.046 1.557-1.6381 2.549-2.4658.285-.2377.545-.3993.797-.4729.272-.0792.513-.0501.73.0503.195.09.362.235.496.3528.012.0108.024.0215.037.0322.132.1161.256.2254.407.3264l.028.0188.024.0234c.512.4916.747.956.733 1.4022-.014.4437-.272.7519-.466.9355-.09.0858-.277.2456-.498.4349-.068.058-.139.1187-.212.181-.312.2681-.665.5755-.958.8513.004.0205.016.059.048.1182.091.1691.279.3878.54.6342.464.438 1.064.8779 1.459 1.1682.043.0317.084.0615.122.0894.149.1099.267.1181.406.0706.17-.0587.38-.2098.643-.473.258-.2583.532-.5881.839-.9626.021-.025.041-.0501.062-.0754.286-.349.597-.7284.933-1.0935.388-.4225.696-.8158.972-1.1687.023-.0298.046-.0593.069-.0885.287-.3656.559-.7077.852-.9541.306-.258.655-.4292 1.092-.4324.42-.003.875.1494 1.4.4315 1.046.5613 1.848 1.2566 2.37 1.8026.261.2728.456.5127.579.6856.058.0825.11.1641.143.2328.009.0183.019.0429.029.0712.006.0196.025.0792.02.1547-.002.0404-.012.1118-.058.186-.053.0842-.135.1441-.229.1694-.146.0389-.26-.0191-.281-.0294l-.001-.0007c-.114-.057-.187-.163-.207-.2797-.011-.0175-.025-.0379-.042-.0612-.097-.1373-.267-.3485-.507-.5991-.478-.5008-1.218-1.1416-2.178-1.6571-.478-.2562-.799-.3419-1.032-.3403-.215.0016-.397.0778-.605.2522-.221.1861-.444.4616-.742.8409-.023.0295-.046.0595-.07.0899-.276.3517-.601.7671-1.01 1.2127-.32.3487-.618.7124-.907 1.0644-.02.0241-.04.0482-.059.0723-.303.3691-.601.7286-.89 1.0179-.284.2842-.595.5388-.936.6561-.373.1285-.755.083-1.109-.1782-.037-.0269-.077-.0564-.12-.0881-.392-.2868-1.032-.7559-1.533-1.2292-.275-.2593-.538-.5469-.689-.8286-.076-.1416-.14-.3108-.141-.4926-.002-.198.073-.3856.227-.5317.31-.2928.682-.6163 1-.8893.082-.0702.159-.1362.23-.1974.215-.1833.377-.3223.452-.3935.142-.1341.223-.2623.227-.4032.005-.1359-.06-.3973-.475-.8037-.182-.1249-.333-.2581-.455-.3655-.013-.0115-.026-.0228-.038-.0337-.146-.128-.234-.197-.312-.2333-.056-.0259-.107-.0356-.194-.0103zm12.43 3.7116c.009.0037.019.0078.027.0123 0-.0001 0-.0002 0-.0004-.003-.0016-.012-.0063-.027-.0119z" fill="#000" fill-rule="evenodd"/><path clip-rule="evenodd" d="m137.546 55.4915c.153.146.159.3885.013.5417-.1.1052-.202.2123-.306.3211-2.883 3.0263-7.049 7.3996-10.995 11.1922-.153.1466-.395.1418-.542-.0108-.146-.1525-.142-.3951.011-.5417 3.934-3.7806 8.09-8.1432 10.974-11.1714.103-.1077.204-.2138.303-.318.146-.1532.389-.1591.542-.0131z" fill="#000" fill-rule="evenodd"/><path clip-rule="evenodd" d="m102.318 31.2164c.09.1917.007.4198-.185.5093-.757.3535-1.499.7062-2.2303 1.0941-.187.0991-.4189.028-.5181-.159s-.028-.4189.159-.5181c.7494-.3975 1.5064-.7571 2.2654-1.1115.192-.0895.42-.0066.509.1852z" fill="#000" fill-rule="evenodd"/><path clip-rule="evenodd" d="m105.05 32.2748c.067.2008-.042.4178-.242.4847-.61.2032-1.173.4927-1.768.7986-.155.0796-.312.1602-.472.2408-.189.0949-.42.0186-.514-.1706-.095-.1891-.019-.4194.17-.5144.145-.0728.292-.1483.44-.2247.601-.3091 1.23-.6331 1.901-.8567.201-.067.418.0415.485.2423z" fill="#000" fill-rule="evenodd"/><path clip-rule="evenodd" d="m107.43 33.7355c.057.204-.063.415-.267.4713-.906.2498-1.723.6614-2.598 1.1159-.187.0976-.419.0244-.516-.1634-.098-.1878-.025-.4191.163-.5167.871-.4525 1.754-.9007 2.747-1.1746.204-.0563.415.0635.471.2675z" fill="#000" fill-rule="evenodd"/><path clip-rule="evenodd" d="m108.405 36.4497c.057.2039-.063.4151-.267.4718-.586.1629-1.169.333-1.755.5039-.247.072-.495.1442-.743.216-.204.0588-.416-.0583-.475-.2616s.058-.4158.262-.4746c.245-.0708.49-.1423.736-.2141.588-.1715 1.179-.3438 1.77-.5081.204-.0566.415.0628.472.2667z" fill="#000" fill-rule="evenodd"/><path clip-rule="evenodd" d="m108.752 39.9886c.046.2066-.085.4113-.291.4572-.963.2141-1.942.3116-2.894.4066-.083.0083-.165.0165-.247.0248-.211.0212-.399-.1323-.42-.3429s.132-.3984.343-.4196c.08-.0081.161-.0162.241-.0242.961-.0959 1.894-.1892 2.81-.3928.207-.0459.412.0843.458.2909z" fill="#000" fill-rule="evenodd"/><path clip-rule="evenodd" d="m96.9679 37.838c.0158-.211.1997-.3693.4107-.3535.1592.0119.3221.0223.4876.0329.5727.0366 1.176.0752 1.7601.1847.208.039.345.2392.306.4472s-.2392.345-.4472.306c-.5337-.1-1.0738-.1347-1.6377-.1709-.1729-.0111-.3481-.0223-.526-.0356-.211-.0158-.3693-.1997-.3535-.4108z" fill="#000" fill-rule="evenodd"/><path clip-rule="evenodd" d="m98.6221 40.4752c.0118.2114-.15.3922-.3613.4039-.4262.0237-.8472.071-1.2805.1197-.1449.0162-.2911.0327-.4394.0484-.2104.0224-.3992-.1301-.4215-.3406-.0224-.2104.1301-.3991.3405-.4215.1379-.0146.2775-.0303.4185-.0462.4387-.0493.8901-.1 1.3398-.125.2114-.0118.3922.15.4039.3613z" fill="#000" fill-rule="evenodd"/><path clip-rule="evenodd" d="m98.8334 43.1366c.0176.2109-.1391.3961-.35.4137-.3889.0324-.767.1207-1.1801.2173-.0404.0094-.0812.019-.1223.0285-.2062.0479-.4121-.0803-.46-.2865-.0479-.2061.0803-.4121.2865-.46.0419-.0097.0841-.0196.1266-.0296.4041-.0946.8374-.1961 1.2856-.2335.2109-.0176.3962.1392.4137.3501z" fill="#000" fill-rule="evenodd"/><path clip-rule="evenodd" d="m112.711 39.2514c-.374 2.2559-.504 5.2052-.262 8.9688.014.2111-.146.3933-.358.4069-.211.0136-.393-.1466-.406-.3578-.245-3.8029-.116-6.8135.27-9.1432.386-2.3256 1.032-3.9965 1.841-5.098.815-1.1095 1.809-1.654 2.854-1.6656 1.031-.0114 2.031.4975 2.872 1.3272 3.357 3.3084 4.673 12.1144-3.692 18.7448-.166.1315-.407.1036-.538-.0623-.132-.1658-.104-.4068.062-.5382 8.043-6.3753 6.625-14.6471 3.631-17.5986-.746-.7353-1.56-1.1152-2.327-1.1067-.752.0084-1.539.3926-2.245 1.3532-.711.9686-1.327 2.5094-1.702 4.7695z" fill="#000" fill-rule="evenodd"/><path clip-rule="evenodd" d="m109.29 50.7937c.002.2116-.168.3847-.379.3866-5.315.0484-9.3212.3626-12.2537.8443-2.9451.4838-4.7641 1.1302-5.7407 1.8125-.4843.3383-.7312.6643-.8295.954-.0948.2791-.0678.5716.0944.8905.3412.6708 1.2534 1.3955 2.632 2.0437 2.7274 1.2824 6.9795 2.1258 10.9335 1.7662 3.96-.3602 7.504-1.9113 9.007-5.2921.086-.1934.312-.2804.505-.1945.194.0859.281.3124.195.5057-1.668 3.7535-5.56 5.3732-9.638 5.7441-4.0848.3715-8.4739-.4937-11.3286-1.8359-1.4124-.6641-2.5264-1.4807-2.9889-2.3897-.2396-.4711-.3089-.9781-.137-1.4844.1683-.4957.5509-.9409 1.1162-1.3358 1.1225-.7841 3.083-1.4522 6.0554-1.9405 2.9848-.4903 7.0339-.8058 12.3709-.8543.211-.0019.385.168.386.3796z" fill="#000" fill-rule="evenodd"/><path d="m45.8602 58.7844c2.4718 4.3948 4.6064 16.3878 5.3647 21.835l.6893 1.9797c1.5678-.8938 5.3009-3.1071 7.6908-4.8097 2.9874-2.1281 11.5902-5.6575 10.8455-4.3549-.5959 1.042-10.5938 8.2845-15.5183 11.7755-.9899 1.1512-3.7639 3.0467-6.9409 1.419-3.9714-2.0346-6.8666-5.3762-8.2685-8.5723-1.402-3.196-1.7452-9.0248.372-16.7093 1.6938-6.1476 4.5494-4.2702 5.7654-2.563z" fill="#f2a966"/><g clip-rule="evenodd" fill-rule="evenodd"><path d="m39.0283 106.336 10.5735 7.26 1.9498.621 1.6299-5.118-8.7844-6.556.5435-1.706 7.3776 4.229 1.9498.621 1.1644-3.656-8.0088-6.0407 10.0655-21.4915 7.0634-1.1062c3.343-3.0514 7.8457-10.306-.8882-14.9129-1.7169-1.3521-6.1449-2.7893-10.1215 2.2797-3.9766 5.0689-1.3635 9.9008.4402 11.6832-4.157 8.6981-12.9677 27.6544-14.9547 33.8934zm20.548-38.5645c.7865.2505 1.777-.6547 2.2124-2.0218s.1507-2.6784-.6358-2.9289c-.7866-.2505-1.7771.6547-2.2125 2.0218-.4353 1.3672-.1507 2.6785.6359 2.9289z" fill="#fff"/><path d="m56.1318 63.1341c1.1958-1.252 3.0918-1.8595 4.9205-.9551.1897.0938.2674.3237.1736.5133-.0046.0093-.0095.0183-.0147.027.1353.1032.2674.2246.396.3666.5252.5804.7041 1.3504.6732 2.0858-.0309.7358-.272 1.478-.6398 2.0523-.3653.5703-.9556 1.3097-1.654 1.8711-.6856.5511-1.5581.9956-2.4564.7996-1.0133-.2211-1.7796-.8308-2.2362-1.7521-.9005-1.8168-.3566-3.758.8378-5.0085zm1.4769-.1864c-.3386.1877-.6501.4303-.9228.7157-1.0112 1.0587-1.4388 2.6591-.7053 4.1389.3551.7166.9312 1.1731 1.713 1.3437.5512.1203 1.1824-.1413 1.8129-.6481.6175-.4964 1.1555-1.1667 1.4888-1.6872.2945-.4598.4943-1.0704.5195-1.6711.0253-.601-.1244-1.1512-.4758-1.5395-.4086-.4515-.841-.6062-1.3223-.6354-.4111-.025-.8386.0401-1.3303.1149-.1258.0192-.2559.0389-.3909.058-.1603.0227-.3114-.0573-.3868-.1899z" fill="#000"/><path d="m65.8363 68.3987c-.4736 1.7079-1.3107 3.2492-2.4704 4.282-.7248.6454-2.028 1.1766-3.3442 1.4815-1.3167.305-2.7533.4084-3.762.1097-1.6872-.4996-2.8776-1.7549-3.6357-3.2379-.7572-1.4813-1.0999-3.2185-1.0827-4.7553.0243-2.1645 1.0676-4.4856 2.5947-6.3053 1.1771-1.4028 2.6742-2.5456 4.2718-3.085-.1307-.0624-.2202-.1967-.2181-.351.0028-.2116.1766-.3808.3882-.378 2.2741.0303 4.0179.8297 5.2675 2.0938 1.243 1.2573 1.9737 2.9501 2.2783 4.7389.3047 1.7894.187 3.6956-.2874 5.4066zm-5.6051-11.2842c1.2725.2871 2.2849.8839 3.0693 1.6774 1.1064 1.1193 1.7827 2.6544 2.0678 4.3288.285 1.6739.1751 3.4662-.2705 5.0732-.4464 1.6101-1.2217 3.0063-2.2416 3.9145-.582.5182-1.736 1.0127-3.0074 1.3073-1.2708.2943-2.5521.3641-3.3715.1214-1.4298-.4234-2.478-1.4962-3.171-2.8519-.6939-1.3575-1.0148-2.9695-.9987-4.3979.0218-1.9422.9694-4.0982 2.4154-5.8214 1.4479-1.7254 3.341-2.9532 5.1936-3.1258.1428-.0133.26-.1034.3146-.2256z" fill="#000"/><path d="m61.9257 57.2772c.0642-.2016.2797-.313.4814-.2488 2.509.799 4.1967 2.0921 5.2254 3.6418 1.0273 1.5475 1.3765 3.3194 1.2652 5.0425-.1112 1.7209-.6817 3.4043-1.509 4.7977-.8248 1.3891-1.9229 2.5196-3.1135 3.0998-.7926.3864-1.9748.657-3.1391.8035-1.1675.1468-2.3711.1754-3.2195.0488-.2093-.0312-.3536-.2262-.3224-.4355.0313-.2093.2263-.3536.4356-.3224.7527.1124 1.8797.091 3.0107-.0512 1.1343-.1427 2.2186-.4004 2.899-.732 1.0176-.496 2.0166-1.4992 2.7903-2.8022.7712-1.2989 1.3005-2.8663 1.4032-4.4559.1025-1.5873-.2204-3.1856-1.1389-4.5693-.9169-1.3814-2.4484-2.5803-4.8196-3.3355-.2016-.0642-.313-.2797-.2488-.4813z" fill="#000"/><path d="m54.7354 72.2093c.1932.0864.2798.313.1934.5062-1.8711 4.1853-3.7996 7.9188-5.7156 11.6279-.805 1.5585-1.6079 3.1127-2.4033 4.6944-2.8109 5.5893-5.3448 11.2692-7.5189 17.1282-.0737.199-.2942.3-.4926.226-.1983-.073-.2995-.294-.2259-.492 2.1855-5.89 4.7313-11.5962 7.5528-17.2065.803-1.5967 1.6101-3.1591 2.4174-4.722 1.9117-3.7009 3.8246-7.404 5.6865-11.5688.0864-.1932.313-.2797.5062-.1934z" fill="#000"/><path d="m57.292 74.2412c.1956.0808.2887.3048.208.5004-1.3491 3.2685-2.9389 6.4236-4.5211 9.5635-.1743.3459-.3485.6916-.5223 1.0373-1.7539 3.4888-3.4664 6.9756-4.8186 10.6256-.0735.1984-.2939.2997-.4924.2261-.1984-.0735-.2997-.2939-.2261-.4923 1.3685-3.6942 3.0986-7.2149 4.8525-10.7036.1738-.3457.3478-.691.5217-1.0362 1.584-3.1437 3.1606-6.2726 4.4979-9.5128.0808-.1956.3048-.2887.5004-.208z" fill="#000"/><path d="m46.9413 96.3853c.1206-.174.3593-.2172.5332-.0966.7586.5259 1.5317 1.0451 2.3083 1.5666 1.8635 1.2514 3.7473 2.5167 5.5012 3.9217.1652.132.1918.374.0595.539s-.3735.191-.5386.059c-1.7275-1.384-3.5684-2.6202-5.4201-3.8636-.7829-.5258-1.5678-1.0529-2.3469-1.593-.1739-.1205-.2171-.3592-.0966-.5331z" fill="#000"/><path d="m44.4137 96.4091c.1203-.1741.359-.2176.533-.0973.7093.4903 1.414.9848 2.1178 1.4785 2.0318 1.4256 4.0554 2.8457 6.1571 4.1437.18.111.2358.347.1246.527s-.3473.236-.5273.125c-2.1225-1.311-4.1727-2.7497-6.2097-4.1789-.7002-.4913-1.3988-.9814-2.0982-1.4649-.1741-.1204-.2176-.359-.0973-.5331z" fill="#000"/><path d="m55.4958 102.176c.0183.211-.1378.396-.3487.415-.8944.077-1.77-.072-2.5979-.213-.1705-.029-.339-.058-.5052-.084-.209-.033-.3516-.229-.3185-.439.0331-.209.2293-.351.4384-.318.1852.029.3664.06.5446.09.8249.14 1.585.268 2.3724.2.2109-.018.3966.138.4149.349z" fill="#000"/><path d="m52.3495 101.496c.2115.008.3768.185.3693.397-.04 1.121-.1832 2.175-.4708 3.263-.054.205-.2637.327-.4683.273-.2047-.054-.3267-.264-.2726-.469.2715-1.027.4076-2.024.4458-3.095.0075-.211.1851-.376.3966-.369z" fill="#000"/><path d="m54.8211 101.605c.2071.044.3398.247.2964.454-.2638 1.258-.5704 2.494-.9623 3.724-.0642.202-.2797.313-.4813.249s-.313-.28-.2488-.481c.3819-1.2.6824-2.409.9424-3.649.0434-.207.2465-.34.4536-.297z" fill="#000"/><path d="m55.5134 105.977c.0029.211-.1664.385-.378.388-1.1776.016-2.2834-.24-3.3742-.501-.2058-.049-.3328-.256-.2836-.462.0492-.205.256-.332.4618-.283 1.0991.263 2.1167.494 3.1857.48.2116-.003.3855.166.3883.378z" fill="#000"/><path d="m52.5657 114.015c.0028.211-.1664.385-.378.388-1.1777.016-2.2834-.24-3.3742-.501-.2059-.049-.3328-.256-.2836-.461.0492-.206.2559-.333.4617-.284 1.0991.263 2.1168.494 3.1858.48.2116-.003.3854.166.3883.378z" fill="#000"/><path d="m42.8826 99.1304c.1227-.1724.3619-.2127.5343-.09.7193.5122 1.5719 1.1076 2.4766 1.7406 2.1168 1.479 4.5194 3.159 6.1697 4.432.1675.129.1986.37.0693.537-.1292.168-.3698.199-.5374.07-1.6355-1.262-4.0093-2.921-6.1196-4.396-.9101-.636-1.7713-1.238-2.503-1.7593-.1724-.1227-.2127-.362-.0899-.5343z" fill="#000"/><path d="m44.7708 100.287c.1986.073.3001.294.2268.492-.0099.027-.0198.054-.0297.08-.1735.471-.3493.947-.5614 1.421-.0863.193-.313.28-.5062.194-.1932-.087-.2798-.313-.1934-.507.2012-.45.3688-.904.5445-1.38.0091-.024.0181-.049.0272-.073.0733-.199.2937-.3.4922-.227z" fill="#000"/><path d="m43.6774 101.767c.1237-.171.3632-.21.5348-.087 1.0957.79 2.3817 1.783 3.7018 2.802.3098.239.6215.479.933.719 1.6445 1.265 3.2859 2.508 4.6519 3.416.1762.117.2241.355.107.531-.1172.176-.355.224-.5312.107-1.3912-.924-3.0526-2.183-4.6949-3.447-.3143-.242-.6279-.483-.9388-.723-1.3195-1.019-2.5924-2.001-3.6769-2.783-.1717-.124-.2105-.363-.0867-.535z" fill="#000"/><path d="m53.2099 108.297c.2084.036.3476.235.311.443-.1556.885-.3428 1.948-.6762 2.951-.3328 1.001-.8236 1.981-1.6128 2.677-.1588.139-.4009.124-.5408-.035s-.1245-.401.0343-.54c.6433-.567 1.0787-1.401 1.3921-2.344.3128-.941.4917-1.949.6487-2.841.0366-.209.2353-.348.4437-.311z" fill="#000"/><path d="m37.9805 105.726c.119-.175.3573-.22.5323-.101 1.2358.841 2.4958 1.666 3.7601 2.494 2.6484 1.734 5.3157 3.481 7.8196 5.412.1675.13.1986.37.0693.538-.1292.167-.3698.198-.5374.069-2.4807-1.914-5.1048-3.632-7.739-5.357-1.2706-.832-2.5435-1.665-3.8037-2.523-.175-.119-.2203-.357-.1012-.532z" fill="#000"/><path d="m48.7171 88.8041c.1923.0883.2766.3158.1883.5081-.5325 1.1595-1.1402 2.3852-1.748 3.6111-.0541.109-.1081.2181-.1621.327-.6626 1.3372-1.3177 2.6683-1.8758 3.9215-.0861.1933-.3126.2802-.5059.1941s-.2802-.3126-.1941-.5059c.5654-1.2696 1.2272-2.6141 1.8892-3.9499.0538-.1085.1075-.217.1612-.3253.609-1.2283 1.2117-2.4439 1.7391-3.5924.0883-.1923.3158-.2766.5081-.1883z" fill="#000"/><path d="m43.0579 99.1903c.2081.0387.3454.2388.3066.4469-.2005 1.0778-.5178 1.9688-1.1598 2.9008-.12.174-.3586.218-.5329.098s-.2183-.358-.0982-.533c.5685-.825.8521-1.61 1.0375-2.606.0387-.2081.2387-.3454.4468-.3067z" fill="#000"/><path d="m41.9045 102.445c.113-.179.3496-.233.5285-.119 2.0147 1.272 5.1237 3.784 7.3482 5.582.4147.335.7986.645 1.139.918.1651.132.1917.373.0594.538s-.3734.192-.5386.06c-.3472-.279-.7365-.593-1.1551-.931-2.2292-1.801-5.29-4.274-7.2622-5.52-.1789-.113-.2323-.349-.1192-.528z" fill="#000"/><path d="m53.3971 109.553c-.0472.206-.2528.335-.4591.288-.8516-.195-1.7158-.345-2.5913-.495-.2086-.036-.3487-.234-.3128-.443.0358-.209.2339-.349.4425-.313.873.15 1.7574.303 2.6327.504.2063.047.3353.252.288.459z" fill="#000"/><path d="m50.7772 108.198c.2115.008.3763.186.3683.398-.0754 1.973-.7138 3.71-1.8015 5.301-.1194.174-.3579.219-.5325.1-.1747-.12-.2195-.358-.1-.533 1.0152-1.484 1.599-3.084 1.6682-4.898.0081-.211.1861-.376.3975-.368z" fill="#000"/><path d="m60.7495 63.0159c.1183.1754.072.4136-.1034.5319-.9342.6302-1.6459 1.1946-1.7636 2.1912-.1057.8946.4162 1.7449 1.0514 2.5393.1321.1653.1053.4064-.06.5385-.1653.1322-.4064.1053-.5385-.0599-.636-.7954-1.36-1.8709-1.2139-3.1077.1631-1.3812 1.1814-2.1197 2.0961-2.7367.1754-.1183.4135-.072.5319.1034z" fill="#000"/><path d="m66.2086 61.4506c-.3778-.0716-.7783-.1474-1.1747-.2665-.2027-.0609-.3176-.2746-.2567-.4773s.2746-.3176.4773-.2567c.357.1073.7222.1765 1.1104.25.0118.0023.0237.0045.0356.0068.3947.0748.8128.1554 1.2267.2871.2016.0643.3131.2798.2488.4815-.0642.2016-.2797.313-.4814.2488-.3634-.1157-.7379-.1888-1.1368-.2644-.0164-.0031-.0327-.0062-.0492-.0093z" fill="#000"/><path d="m68.8437 63.7428c-.0387.2081-.2388.3454-.4468.3066-.1838-.0342-.373-.0632-.566-.0928-.6077-.0934-1.253-.1925-1.8871-.4762-.1932-.0864-.2797-.3131-.1933-.5063s.3131-.2797.5063-.1933c.5315.2379 1.0356.3156 1.6147.405.2103.0325.4305.0664.6656.1102.208.0387.3453.2387.3066.4468z" fill="#000"/><path d="m68.7447 66.0496c-.0438.2071-.2472.3394-.4543.2955-.6769-.1433-1.3268-.3147-1.9887-.5255-.2017-.0642-.3131-.2798-.2489-.4814.0642-.2017.2798-.3131.4814-.2489.6375.203 1.2627.368 1.915.506.207.0439.3393.2473.2955.4543z" fill="#000"/><path d="m68.4893 68.5097c-.0457.2066-.2502.3371-.4569.2914-.2949-.0652-.592-.104-.908-.1453-.0549-.0071-.1105-.0144-.1667-.0219-.3711-.0493-.7649-.1081-1.1568-.2245-.2029-.0602-.3185-.2735-.2582-.4764.0602-.2029.2735-.3185.4764-.2583.3298.098.672.1506 1.0397.1995.0523.007.1053.0139.1589.0209.3147.0409.6495.0845.9802.1577.2066.0457.3371.2502.2914.4569z" fill="#000"/><path d="m67.1531 70.7092c-.035.2087-.2327.3495-.4414.3144-.0687-.0115-.1377-.023-.2069-.0344-.5654-.0938-1.1443-.1898-1.7268-.3658-.2026-.0612-.3172-.275-.256-.4776s.2751-.3172.4776-.256c.5321.1607 1.0606.2485 1.6318.3434.0685.0114.1375.0229.2073.0346.2087.0351.3495.2327.3144.4414z" fill="#000"/><path d="m65.2115 73.1437c-.0271.2099-.2192.3581-.4291.331-.6512-.0841-1.1964-.3126-1.7416-.5411-.0288-.012-.0575-.024-.0862-.0361-.1953-.0816-.2874-.3061-.2058-.5013.0817-.1953.3061-.2874.5014-.2058.0194.0081.0386.0162.0578.0242.5681.2377 1.0264.4294 1.5726.5.2099.0271.3581.2192.3309.4291z" fill="#000"/><path d="m58.8469 64.1965c-.0036.2116-.178.3802-.3896.3766-.9774-.0164-1.8186-.2447-2.6992-.5252-.2017-.0642-.3131-.2797-.2489-.4814s.2798-.3131.4814-.2488c.8635.2749 1.6177.4746 2.4796.4891.2116.0036.3803.178.3767.3897z" fill="#000"/><path d="m58.39 65.9837c-.0189.2108-.2052.3664-.416.3474-.3248-.0292-.6446-.0425-.9745-.0562-.0991-.0041-.199-.0082-.3003-.0129-.4325-.0197-.8802-.0481-1.3377-.1228-.2089-.0341-.3506-.2311-.3165-.4399.0341-.2089.2311-.3506.44-.3165.4119.0673.8233.0941 1.2492.1136.0941.0043.1893.0083.2855.0123.3333.0138.6779.0281 1.023.0591.2107.0189.3663.2052.3473.4159z" fill="#000"/><path d="m58.5744 67.7247c-.0134.2112-.1955.3716-.4067.3582-.4151-.0264-.8341-.0349-1.2638-.0437l-.0246-.0005c-.4355-.0089-.8817-.0184-1.3286-.0483-.2112-.0141-.3709-.1967-.3568-.4079s.1968-.3709.4079-.3568c.4266.0285.8555.0378 1.2932.0467.0105.0003.021.0005.0314.0007.4248.0087.8581.0175 1.2898.0449.2112.0134.3716.1955.3582.4067z" fill="#000"/><path d="m48.9995 93.0673c.0233.2104-.1285.3997-.3388.4229-.1167.0129-.2362.0277-.3581.0429-.5233.0649-1.0906.1354-1.6644.0794-.2107-.0205-.3648-.2079-.3442-.4186.0205-.2106.2079-.3647.4186-.3442.4812.0469.9436-.0099 1.4592-.0732.1311-.0162.2657-.0327.4048-.0481.2104-.0232.3997.1285.4229.3389z" fill="#000"/><path d="m46.7015 95.6467-.0063.0004c-.2434.0123-.5043.0221-.7621.0317-.0548.0021-.1094.0041-.1637.0062-.2281.0094-.4241.0176-.4826.0201l-.0347-.7656c.1786-.0085.3479-.0152.514-.0214.0867-.0036.1772-.0073.2659-.011l.6204-.0254.0094-.0003.0026-.0001.0026-.0001.0086-.0001c.0035 0 .0174.0004.0276.001.1681.0522.3242.5363.0376.76-.0124.0019-.0289.0038-.033.0042zm-.0129.0006c.002 0 .0022 0 0 0z" fill="#000"/><path d="m48.8314 96.9752c-.0036.2116-.178.3802-.3897.3767-.5519-.0093-1.0312.1324-1.6102.3036-.1008.0298-.2047.0605-.3126.0915-.2034.0584-.4156-.0591-.4741-.2625-.0584-.2035.0592-.4157.2626-.4741.0954-.0274.1914-.056.2881-.0849.5759-.1715 1.1799-.3514 1.8592-.3399.2116.0035.3802.178.3767.3896z" fill="#000"/><path d="m51.4761 99.2865c.0028.2116-.1664.3855-.378.3883-.2184.003-.4336.0177-.6606.0333-.075.0052-.1514.0104-.2295.0153-.3067.0194-.6316.033-.9623.0065-.2109-.0168-.3683-.2015-.3514-.4125s.2016-.3683.4125-.3514c.2738.0219.5539.0114.8529-.0075.0685-.0043.1386-.0091.21-.014.2319-.016.4765-.0328.7181-.036.2116-.0029.3854.1664.3883.378z" fill="#000"/><path d="m53.8469 100.711c.0443.207-.0876.41-.2945.455-.527.112-1.0756.153-1.5912.191-.1464.011-.2902.022-.43.034-.2109.018-.3965-.139-.4147-.349-.0181-.211.1381-.397.349-.415.1606-.014.3179-.025.4725-.037.506-.038.9835-.073 1.454-.174.2069-.044.4106.088.4549.295z" fill="#000"/><path d="m44.8473 101.817c.0107.212-.152.392-.3634.402-.738.038-1.4473-.048-2.1408-.134-.21-.026-.3591-.217-.333-.427s.2175-.359.4275-.333c.6998.087 1.3458.162 2.0076.129.2114-.011.3914.152.4021.363z" fill="#000"/><path d="m46.2633 103.268c.0443.207-.0876.41-.2945.455-.6546.14-1.3003.164-1.9258.187-.07.003-.1397.005-.2092.008-.2115.008-.3897-.156-.3981-.368-.0083-.211.1563-.389.3678-.398.0695-.002.1382-.005.2063-.008.6349-.024 1.213-.045 1.7986-.171.2069-.044.4106.088.4549.295z" fill="#000"/><path d="m48.6479 105.314c.0174.211-.1394.396-.3504.414-.5435.044-1.087.084-1.6327.118-.2112.013-.3929-.148-.4058-.36-.0128-.211.148-.392.3593-.405.5392-.033 1.0771-.073 1.6162-.117.211-.018.396.139.4134.35z" fill="#000"/><path d="m51.5179 107.691c.0443.207-.0875.411-.2945.455-.6502.139-1.2894.171-1.9338.161-.2116-.004-.3803-.178-.3767-.39.0035-.212.178-.38.3896-.377.611.011 1.1872-.021 1.7605-.144.207-.044.4107.088.4549.295z" fill="#000"/><path d="m50.5526 90.1601c.0327.2091-.1102.4051-.3193.4379-.6413.1004-1.2508.1519-1.9036.1569-.2116.0017-.3845-.1686-.3861-.3802-.0016-.2117.1686-.3845.3802-.3862.6138-.0047 1.1856-.0529 1.7909-.1477.2091-.0328.4051.1102.4379.3193z" fill="#000"/><path d="m51.9147 86.9266c.0125.2113-.1487.3927-.3599.4051-.669.0395-1.289.0188-1.957-.0732-.2096-.0289-.3562-.2223-.3273-.432.0289-.2096.2223-.3562.4319-.3273.6158.0849 1.1856.1041 1.8073.0674.2112-.0124.3926.1488.405.36z" fill="#000"/><path d="m53.1338 85.0942c.0118.2113-.1499.3922-.3612.404-.5862.0326-1.1266.0563-1.7522-.0108-.2104-.0226-.3627-.2114-.3402-.4219.0226-.2104.2115-.3627.4219-.3401.5586.0598 1.0449.04 1.6278.0075.2113-.0117.3922.15.4039.3613z" fill="#000"/><path d="m50.7691 77.3447c.1717.9496.3127 1.7298.4211 2.2678.0418.2074-.0925.4095-.2999.4513-.2075.0418-.4095-.0925-.4513-.2999-.1121-.5564-.2562-1.3532-.4305-2.3174-.5653-3.1271-1.4489-8.0146-2.5933-12.1698-.7511-2.727-1.5994-5.0776-2.5137-6.4005-.4626-.6694-.886-.9926-1.2495-1.0548-.3254-.0557-.7433.0803-1.2646.7202-3.1188 3.8286-4.6521 9.7801-3.9904 15.2253.6605 5.4363 3.492 10.2822 9.0125 12.0403.2016.0642.313.2797.2488.4813-.0642.2017-.2797.3131-.4814.2488-5.8931-1.8767-8.8564-7.0468-9.5406-12.6779-.6832-5.6223.8888-11.7898 4.157-15.8018.6019-.7388 1.2697-1.1145 1.9879-.9916.6801.1164 1.2583.662 1.7507 1.3745.9958 1.4409 1.8713 3.9068 2.6221 6.6328 1.1552 4.1943 2.0507 9.1486 2.6151 12.2714z" fill="#000"/><path d="m63.7302 75.8099c-3.0687 1.7353-6.7063 4.0436-10.0245 6.4922-.1702.1256-.4101.0895-.5357-.0808-.1257-.1703-.0895-.4102.0807-.5358 3.3455-2.4687 7.0093-4.7936 10.1023-6.5426 1.5464-.8745 2.9539-1.6071 4.1104-2.1424 1.1425-.5288 2.0784-.8837 2.6647-.9731.1493-.0227.3002-.0325.4375-.0125.1328.0193.3127.0761.4327.242.125.173.1168.3683.0807.5107-.0359.1412-.1104.2825-.1995.4179-.3499.5317-1.1837 1.3484-2.5561 2.488-2.7693 2.2994-7.8837 6.0344-16.2224 11.6339-.1757.118-.4138.0712-.5317-.1045-.118-.1757-.0712-.4137.1045-.5317 8.3351-5.597 13.4224-9.3141 16.16-11.5873 1.3554-1.1254 2.0993-1.8686 2.3896-2.2958-.4701.0768-1.3081.3847-2.4381.9078-1.1323.5241-2.5207 1.2463-4.0551 2.114zm6.7357-3.0346s-.0009-.0002-.0024-.0006z" fill="#000"/><path d="m109.951 80.7302c.27.06.44.3272.38.5967-1.79 8.0337-5.641 14.5822-11.5137 18.8821-5.8744 4.3-13.7189 6.313-23.4212 5.371-.2748-.027-.476-.271-.4494-.546.0267-.275.2711-.476.546-.449 9.5109.923 17.0968-1.056 22.7339-5.1831 5.6384-4.128 9.3804-10.4438 11.1284-18.2924.06-.2695.327-.4394.596-.3793z" fill="#1a1a1a"/><path d="m109.787 96.7297c-.274.0357-.524-.1573-.56-.4312-.608-4.6604-.539-9.2326-.229-13.8844.01-.1493.013-.2739.012-.3769-.005.0055-.01.0111-.016.0168-.245.2674-.526.6525-.803 1.0446-.045.0634-.091.1276-.136.1916-.219.3115-.434.6182-.599.8105-.475.5571-1.454 1.6688-2.543 2.596-.543.4629-1.132.8945-1.712 1.1867-.568.2863-1.203.4757-1.804.3417-.072-.016-.171-.0549-.256-.1446-.087-.0924-.124-.1999-.134-.2874-.016-.1421.033-.2484.044-.2712v-.0011c.029-.062.066-.1065.075-.1175l.001-.001c.027-.033.058-.0646.081-.0871.051-.0502.123-.1167.209-.1934.174-.1555.427-.3738.73-.6325.608-.5184 1.431-1.2081 2.265-1.9027 1.66-1.3815 3.394-2.8067 3.553-2.9248.03-.0224.062-.0409.095-.0556.066-.0806.132-.1573.198-.2284.145-.158.308-.3149.48-.4223.15-.0939.451-.2397.774-.0882.311.146.415.4647.456.6802.047.2441.053.5564.027.933-.307 4.6207-.372 9.1201.223 13.6888.036.2738-.157.5247-.431.5604zm-.49-14.9419c-.001.0002-.004.0018-.009.0039.006-.0032.009-.0042.009-.0039zm-.327-.116c-.003-.005-.004-.008-.004-.0083s.002.0023.004.0083z" fill="#1a1a1a"/><path d="m44.2944 46.138c-.234-.0627-.373-.3033-.3102-.5374 1.8693-6.9764 5.4907-12.5736 10.8006-16.1235 5.3112-3.5507 12.264-5.0212 20.735-3.8328.24.0337.4072.2555.3736.4955-.0337.2399-.2555.4072-.4955.3735-8.3039-1.165-15.0288.2861-20.1254 3.6934-5.0979 3.4081-8.6144 8.8053-10.4407 15.621-.0627.2341-.3033.373-.5374.3103z" fill="#1a1a1a"/><path d="m45.0368 32.1172c.2414-.021.4542.1576.4753.399.3582 4.1087.127 8.1147-.3186 12.1815-.0143.1305-.022.2396-.0249.33.0047-.0047.0095-.0094.0143-.0142.2251-.2252.486-.5523.7439-.8857.0417-.054.0837-.1085.1255-.1629.2038-.2649.4045-.5257.5555-.6883.4373-.4706 1.3373-1.4086 2.3268-2.1808.494-.3854 1.0258-.7419 1.5455-.9763.5093-.2297 1.0724-.372 1.5949-.232.0621.0166.1471.0544.2184.1363.0733.0843.1013.1798.1069.2569.0092.1252-.0383.2166-.0485.2361l-.0005.001c-.0276.0533-.0614.091-.0697.1003l-.0008.0008c-.0249.0279-.0535.0545-.0744.0733-.0465.0422-.1125.0977-.1907.1618-.1583.1298-.3878.3117-.6635.5272-.5523.4317-1.2998 1.0056-2.0574 1.5834-1.5067 1.149-3.0805 2.3337-3.224 2.4313-.0272.0185-.0557.0336-.0851.0452-.0614.0682-.1223.1329-.1822.1928-.1331.1331-.2825.2646-.4368.3523-.1348.0767-.4045.1933-.6821.0484-.2675-.1397-.3462-.423-.3743-.6134-.0319-.2158-.0252-.4899.0109-.8191.4426-4.0395.6678-7.9818.3166-12.0096-.021-.2415.1576-.4542.399-.4753zm-.1288 13.1184c.0001-.0002.0028-.0015.0078-.0031-.0054.0026-.0079.0034-.0078.0031zm.2821.1139c.0022.0045.003.0072.0029.0074-.0002.0003-.0012-.002-.0029-.0074z" fill="#1a1a1a"/></g></svg>