<svg fill="none" viewBox="0 0 150 150" xmlns="http://www.w3.org/2000/svg"><path d="m95.7701 51.7064-7.2182-11.2284c-3.0935-4.8121 2.4061-12.8324 8.8223-11.2284 6.4158 1.6041 6.4158 6.4163 6.4158 8.8223 0 1.9249-5.3464 9.8917-8.0199 13.6345z" fill="#f2a966"/><path clip-rule="evenodd" d="m95.7703 30c-4.1279 0-7.2703 2.8463-7.2703 6.1245h-1.5c0-4.3152 4.0392-7.6245 8.7703-7.6245 4.7307 0 8.7707 3.3093 8.7707 7.6245h-1.5c0-3.2782-3.1429-6.1245-7.2707-6.1245z" fill="#000" fill-rule="evenodd"/><path clip-rule="evenodd" d="m87.75 35.374c.4142 0 .75.3358.75.75 0 1.2811.4548 2.8888 1.1936 4.6303.7325 1.7266 1.7152 3.5186 2.7072 5.1483.9906 1.6275 1.9825 3.08 2.7273 4.1263.2437.3424.4607.6408.6422.8872.1814-.2464.3984-.5448.6421-.8872.7448-1.0463 1.7367-2.4988 2.7273-4.1263.9923-1.6297 1.9743-3.4217 2.7073-5.1483.739-1.7415 1.194-3.3492 1.194-4.6303 0-.4142.335-.75.75-.75.414 0 .75.3358.75.75 0 1.5833-.548 3.4129-1.313 5.2161-.771 1.818-1.794 3.6781-2.807 5.3424-1.0144 1.6666-2.0275 3.15-2.7866 4.2163-.3798.5335-.6966.9635-.919 1.2607-.1112.1487-.1988.2643-.259.343l-.0691.0902-.0182.0235-.0062.008c-.0001.0002-.0006.0008-.5926-.4596-.5921.4604-.5921.4603-.5923.4601l-.0065-.0085-.0182-.0235-.0692-.0902c-.0601-.0787-.1478-.1943-.259-.343-.2224-.2972-.5392-.7272-.919-1.2607-.759-1.0663-1.7722-2.5497-2.7866-4.2163-1.0131-1.6643-2.0355-3.5244-2.8068-5.3424-.765-1.8032-1.3127-3.6328-1.3127-5.2161 0-.4142.3358-.75.75-.75zm8.0203 16.7906-.5923.4601c.1421.1827.3608.2899.5923.2899.2314 0 .4505-.1077.5926-.2904z" fill="#000" fill-rule="evenodd"/><path d="m100.582 37.2702c0 2.6576-2.1542 4.8121-4.8118 4.8121-2.6577 0-4.8122-2.1545-4.8122-4.8121 0-2.6577 2.1545-4.8122 4.8122-4.8122 2.6576 0 4.8118 2.1545 4.8118 4.8122z" fill="#fff"/><path clip-rule="evenodd" d="m95.7702 40.5823c1.8292 0 3.3121-1.4829 3.3121-3.3121 0-1.8293-1.4829-3.3122-3.3121-3.3122-1.8293 0-3.3122 1.4829-3.3122 3.3122 0 1.8292 1.4829 3.3121 3.3122 3.3121zm0 1.5c2.6576 0 4.8118-2.1545 4.8118-4.8121 0-2.6577-2.1542-4.8122-4.8118-4.8122-2.6577 0-4.8122 2.1545-4.8122 4.8122 0 2.6576 2.1545 4.8121 4.8122 4.8121z" fill="#000" fill-rule="evenodd"/><path d="m113.284 79.1422c0 20.5131-16.6287 39.8918-37.1418 39.8918s-37.1422-19.3787-37.1422-39.8918 16.6291-37.1422 37.1422-37.1422 37.1418 16.6291 37.1418 37.1422z" fill="#fcf4e3"/><g clip-rule="evenodd" fill="#000" fill-rule="evenodd"><path d="m43.4378 60.1323c6.7935-13.8863 20.2851-20.8774 34.54-19.2023 36.9072 4.3371 49.7582 51.0356 19.8088 75.188-.0567.046-.1206.082-.189.107-17.2938 6.341-34.4696 1.756-45.5082-9.145-11.0476-10.9107-15.9117-28.1112-8.6749-46.8944.007-.0181.0148-.0359.0233-.0533zm1.2104.5598c-7.0338 18.2853-2.2813 34.912 8.3781 45.4389 10.652 10.52 27.2385 14.986 44.0089 8.88 28.9868-23.4846 16.4018-68.5717-19.213-72.7568-13.6843-1.6081-26.6252 5.0777-33.174 18.4379z"/><path d="m56.3711 46.3649c.3673-.0253.6856.2519.7109.6192.946 13.7171 5.3748 29.6631 12.3825 42.5293 7.0261 12.8996 16.5389 22.5206 27.5659 23.9436.3652.047.623.382.5759.747s-.3814.623-.7465.576c-11.6829-1.508-21.4819-11.622-28.5662-24.6288-7.1027-13.0408-11.583-29.1739-12.5417-43.0754-.0254-.3673.2518-.6856.6192-.7109z"/><path d="m57.7316 45.7674c.1715-.3258.5747-.4509.9005-.2794 9.2211 4.8532 17.633 15.2297 24.4789 27.7025 6.857 12.4932 12.1935 27.1825 15.2181 40.7835.0799.359-.1467.716-.5061.796-.3594.079-.7155-.147-.7955-.507-2.9994-13.488-8.2937-28.0569-15.0854-40.431-6.8028-12.3944-15.0572-22.4937-23.931-27.1641-.3258-.1715-.4509-.5747-.2795-.9005z"/><path d="m55.8705 46.5006c.2924.2237.348.6421.1243.9345-.1435.1875-.3741.6044-.6656 1.2748-.2846.6545-.6094 1.5085-.95 2.5357-.681 2.0538-1.4187 4.7794-2.0226 7.9503-1.2087 6.3466-1.8744 14.4378-.5051 22.4724 1.3682 8.0287 4.7625 15.9731 11.6521 22.0897 6.8889 6.116 17.3424 10.466 32.9468 11.174.3678.017.6525.329.6358.697-.0167.367-.3285.652-.6963.635-15.8253-.718-26.5982-5.141-33.7714-11.509-7.1726-6.3677-10.6764-14.6185-12.0814-22.8627-1.404-8.2383-.7183-16.4977.5098-22.9458.6145-3.2264 1.3666-6.0091 2.0667-8.1205.35-1.0554.6887-1.9482.9929-2.6478.2973-.6839.5809-1.2286.8294-1.5534.2238-.2924.6422-.348.9346-.1242z"/><path d="m75.3965 48.9538c-6.1146-2.9615-11.9034-4.0838-15.9781-3.1783-.3595.0799-.7156-.1467-.7954-.5061-.0799-.3594.1467-.7155.5061-.7954 4.4965-.9993 10.6123.2593 16.8486 3.2799 6.259 3.0315 12.7344 7.8818 17.9755 14.2072 10.5018 12.6747 16.0518 31.2914 4.9611 52.9899-.1676.328-.5692.458-.897.29-.3279-.168-.4578-.569-.2902-.897 10.8139-21.1577 5.4119-39.2071-4.8006-51.5322-5.1159-6.1744-11.438-10.9074-17.53-13.858z"/><path d="m92.8045 45.4395c.3515.1094.5478.4831.4384.8347-3.2413 10.4113-9.537 18.421-18.4375 23.0899-8.894 4.6655-20.3195 5.9591-33.7664 3.0776-.3601-.0771-.5894-.4315-.5122-.7915.0771-.36.4315-.5893.7915-.5122 13.2193 2.8327 24.3123 1.5333 32.8678-2.9546 8.5492-4.4847 14.6342-12.1889 17.7837-22.3056.1095-.3515.4832-.5478.8347-.4383z"/><path d="m106.822 58.747c.366-.0392.695.2258.734.5919 1.474 13.7569-9.0897 25.1503-22.6371 31.6243-13.5622 6.4811-30.4565 8.2137-42.1325 2.3757-.3293-.1646-.4628-.5651-.2981-.8944.1646-.3293.565-.4628.8944-.2981 11.1807 5.5903 27.6192 3.9897 40.9613-2.3862 13.3569-6.3829 23.269-17.3701 21.886-30.2793-.039-.3661.226-.6947.592-.7339z"/><path d="m113.73 81.6232c.355.0946.567.4598.473.8156-2.448 9.1987-10.211 18.1322-20.187 24.1592-9.9851 6.033-22.2944 9.221-33.9261 6.798-.3604-.075-.5918-.428-.5167-.789.0751-.36.4282-.592.7886-.517 11.2251 2.339 23.1926-.729 32.9647-6.633 9.7815-5.9098 17.2555-14.595 19.5875-23.361.095-.3558.46-.5675.816-.4728z"/></g><path d="m86.933 109.763-11.4148-17.7568c-4.892-7.6099 3.805-20.293 13.9515-17.7564 10.1464 2.5367 10.1464 10.1465 10.1464 13.9515 0 3.0439-8.4554 15.6427-12.6831 21.5617z" fill="#f2a966"/><path clip-rule="evenodd" d="m86.9331 75c-6.7031 0-11.9331 4.6357-11.9331 10.1212h-1.5c0-6.5225 6.1268-11.6212 13.4331-11.6212s13.4329 5.0987 13.4329 11.6212h-1.4998c0-5.4855-5.23-10.1212-11.9331-10.1212z" fill="#000" fill-rule="evenodd"/><path clip-rule="evenodd" d="m74.25 84.3711c.4142 0 .75.3358.75.75 0 2.1137.7462 4.7206 1.9222 7.4925 1.1696 2.7571 2.7352 5.6107 4.31 8.1984 1.5735 2.585 3.1483 4.891 4.3302 6.551.5595.786 1.0305 1.426 1.3707 1.882.3403-.456.8112-1.096 1.3708-1.882 1.1819-1.66 2.7566-3.966 4.3301-6.551 1.5749-2.5877 3.1404-5.4413 4.3101-8.1984 1.1759-2.7719 1.9221-5.3788 1.9221-7.4925 0-.4142.3358-.75.75-.75.4138 0 .7498.3358.7498.75 0 2.4159-.8389 5.2447-2.0411 8.0783-1.2084 2.8484-2.8137 5.7702-4.4096 8.3916-1.5973 2.625-3.1933 4.961-4.3894 6.642-.5984.84-1.0974 1.517-1.4473 1.985-.1749.234-.3127.416-.407.539-.0471.062-.0834.109-.1081.141l-.0282.037-.0093.012c-.0002 0-.0009.001-.5929-.46-.592.461-.5921.461-.5923.46l-.0099-.012-.0282-.037c-.0246-.032-.0609-.079-.1081-.141-.0943-.123-.232-.305-.407-.539-.3499-.468-.8489-1.145-1.4472-1.985-1.1962-1.681-2.7922-4.017-4.3895-6.642-1.5959-2.6214-3.2012-5.5432-4.4096-8.3916-1.2021-2.8336-2.0413-5.6624-2.0413-8.0783 0-.4142.3358-.75.75-.75zm12.6831 26.1159-.5923.46c.1421.183.3609.29.5923.29.2315 0 .4508-.108.5929-.29z" fill="#000" fill-rule="evenodd"/><path d="m94.5432 86.9331c0 4.2028-3.407 7.6099-7.6098 7.6099-4.2029 0-7.6099-3.4071-7.6099-7.6099s3.407-7.6099 7.6099-7.6099c4.2028 0 7.6098 3.4071 7.6098 7.6099z" fill="#fff"/><path clip-rule="evenodd" d="m86.9334 93.043c3.3743 0 6.1098-2.7355 6.1098-6.1099s-2.7355-6.1099-6.1098-6.1099c-3.3744 0-6.1099 2.7355-6.1099 6.1099s2.7355 6.1099 6.1099 6.1099zm0 1.5c4.2028 0 7.6098-3.4071 7.6098-7.6099s-3.407-7.6099-7.6098-7.6099c-4.2029 0-7.6099 3.4071-7.6099 7.6099s3.407 7.6099 7.6099 7.6099z" fill="#000" fill-rule="evenodd"/><path d="m50.2026 72.3183-8.0575-12.5339c-3.4532-5.3717 2.6858-14.3245 9.8481-12.5339 7.1622 1.7905 7.1622 7.1622 7.1622 9.848 0 2.1487-5.9685 11.0418-8.9528 15.2198z" fill="#f2a966"/><path clip-rule="evenodd" d="m50.2028 48c-4.6429 0-8.2028 3.2042-8.2028 6.9238h-1.5c0-4.7566 4.4567-8.4238 9.7028-8.4238s9.7028 3.6672 9.7028 8.4238h-1.5c0-3.7196-3.5599-6.9238-8.2028-6.9238z" fill="#000" fill-rule="evenodd"/><path clip-rule="evenodd" d="m41.25 54.1738c.4142 0 .75.3358.75.75 0 1.4476.5131 3.2551 1.3393 5.2027.82 1.9327 1.9192 3.937 3.0277 5.7582 1.1073 1.819 2.2157 3.4422 3.0479 4.6113.3045.4278.5717.7943.7879 1.0867.2161-.2924.4833-.6589.7879-1.0867.8322-1.1691 1.9406-2.7923 3.0478-4.6113 1.1086-1.8212 2.2078-3.8255 3.0278-5.7582.8262-1.9476 1.3393-3.7551 1.3393-5.2027 0-.4142.3358-.75.75-.75s.75.3358.75.75c0 1.7498-.606 3.7792-1.4585 5.7885-.8587 2.0241-1.9976 4.0965-3.1273 5.9523-1.131 1.8581-2.2607 3.5122-3.1071 4.7013-.4235.5949-.7768 1.0743-1.0247 1.4057-.1239.1657-.2216.2944-.2886.3822l-.0769.1003-.0202.0261-.0068.0088c-.0002.0002-.0007.0009-.5927-.4596-.592.4605-.5921.4603-.5923.4602l-.0072-.0094-.0202-.0261-.0769-.1003c-.067-.0878-.1647-.2165-.2887-.3822-.2479-.3314-.6011-.8108-1.0246-1.4057-.8464-1.1891-1.9762-2.8432-3.1072-4.7013-1.1296-1.8558-2.2686-3.9282-3.1273-5.9523-.8524-2.0093-1.4584-4.0387-1.4584-5.7885 0-.4142.3358-.75.75-.75zm8.9528 18.6556-.5923.4602c.1421.1827.3608.2898.5923.2898.2314 0 .4506-.1077.5927-.2904z" fill="#000" fill-rule="evenodd"/><path d="m55.5745 56.2027c0 2.9667-2.405 5.3717-5.3717 5.3717-2.9666 0-5.3716-2.405-5.3716-5.3717s2.405-5.3716 5.3716-5.3716c2.9667 0 5.3717 2.4049 5.3717 5.3716z" fill="#fff"/><path clip-rule="evenodd" d="m50.2028 60.0744c2.1383 0 3.8717-1.7334 3.8717-3.8717 0-2.1382-1.7334-3.8716-3.8717-3.8716-2.1382 0-3.8716 1.7334-3.8716 3.8716 0 2.1383 1.7334 3.8717 3.8716 3.8717zm0 1.5c2.9667 0 5.3717-2.405 5.3717-5.3717s-2.405-5.3716-5.3717-5.3716c-2.9666 0-5.3716 2.4049-5.3716 5.3716s2.405 5.3717 5.3716 5.3717z" fill="#000" fill-rule="evenodd"/></svg>