<svg fill="none" viewBox="-1 -1 150 150" xmlns="http://www.w3.org/2000/svg"><path d="m108.681 67.0541c.431-1.4172 2.438-1.4172 2.87 0l.767 2.5183c.192.6314.774 1.0629 1.435 1.0629h2.678c1.429 0 2.049 1.81.919 2.6857l-2.33 1.8055c-.492.3814-.698 1.0271-.516 1.6227l.85 2.7906c.426 1.3992-1.198 2.5187-2.354 1.6227l-1.966-1.5233c-.54-.4191-1.296-.4191-1.837 0l-1.966 1.5233c-1.156.896-2.78-.2235-2.354-1.6227l.85-2.7906c.182-.5956-.023-1.2413-.516-1.6227l-2.329-1.8055c-1.13-.8757-.511-2.6857.918-2.6857h2.679c.66 0 1.242-.4315 1.435-1.0629z" fill="#f2a966"/><path clip-rule="evenodd" d="m110.883 70.0095-.767-2.5183-.768 2.5183c-.384 1.2629-1.549 2.1258-2.869 2.1258h-2.679l2.33 1.8055c.984.7628 1.395 2.0543 1.032 3.2455l-.85 2.7906 1.966-1.5233c1.082-.8383 2.594-.8383 3.675 0l1.966 1.5233-.85-2.7906c-.363-1.1912.048-2.4827 1.032-3.2455l2.33-1.8055h-2.678c-1.321 0-2.486-.8629-2.87-2.1258zm.668-2.9554c-.432-1.4172-2.439-1.4172-2.87 0l-.767 2.5183c-.193.6314-.775 1.0629-1.435 1.0629h-2.679c-1.429 0-2.048 1.81-.918 2.6857l2.329 1.8055c.493.3814.698 1.0271.516 1.6227l-.85 2.7906c-.426 1.3992 1.198 2.5187 2.354 1.6227l1.966-1.5233c.541-.4191 1.297-.4191 1.837 0l1.966 1.5233c1.156.896 2.78-.2235 2.354-1.6227l-.85-2.7906c-.182-.5956.024-1.2413.516-1.6227l2.33-1.8055c1.13-.8757.51-2.6857-.919-2.6857h-2.678c-.661 0-1.243-.4315-1.435-1.0629z" fill="#000" fill-rule="evenodd"/><path d="m38.9388 66.7337c.449-1.3819 2.4041-1.3819 2.8532 0l.9308 2.8648c.2008.618.7767 1.0365 1.4266 1.0365h3.0121c1.4531 0 2.0573 1.8594.8817 2.7135l-2.4369 1.7705c-.5257.382-.7457 1.059-.5449 1.677l.9308 2.8648c.449 1.382-1.1327 2.5311-2.3082 1.677l-2.4369-1.7705c-.5258-.3819-1.2377-.3819-1.7634 0l-2.4369 1.7705c-1.1756.8541-2.7573-.295-2.3083-1.677l.9308-2.8648c.2009-.618-.0191-1.295-.5449-1.677l-2.4369-1.7705c-1.1755-.8541-.5714-2.7135.8817-2.7135h3.0122c.6498 0 1.2258-.4185 1.4266-1.0365z" fill="#f2a966"/><path clip-rule="evenodd" d="m41.2962 70.062-.9308-2.8647-.9308 2.8647c-.4017 1.2361-1.5535 2.073-2.8532 2.073h-3.0122l2.4369 1.7705c1.0515.7639 1.4915 2.118 1.0898 3.3541l-.9308 2.8647 2.4369-1.7705c1.0515-.7639 2.4753-.7639 3.5267 0l2.4369 1.7705-.9308-2.8647c-.4016-1.2361.0384-2.5902 1.0898-3.3541l2.4369-1.7705h-3.0121c-1.2997 0-2.4516-.8369-2.8532-2.073zm.4958-3.3283c-.4491-1.3819-2.4042-1.3819-2.8532 0l-.9308 2.8648c-.2008.618-.7768 1.0365-1.4266 1.0365h-3.0122c-1.4531 0-2.0572 1.8594-.8817 2.7135l2.4369 1.7705c.5258.382.7458 1.059.5449 1.677l-.9308 2.8648c-.449 1.382 1.1327 2.5311 2.3083 1.677l2.4369-1.7705c.5257-.3819 1.2376-.3819 1.7634 0l2.4369 1.7705c1.1755.8541 2.7572-.295 2.3082-1.677l-.9308-2.8648c-.2008-.618.0192-1.295.5449-1.677l2.4369-1.7705c1.1756-.8541.5714-2.7135-.8817-2.7135h-3.0121c-.6499 0-1.2258-.4185-1.4266-1.0365z" fill="#000" fill-rule="evenodd"/><path d="m97.4388 45.7337c.449-1.3819 2.4041-1.3819 2.8532 0l.931 2.8648c.201.618.777 1.0365 1.426 1.0365h3.013c1.453 0 2.057 1.8594.881 2.7135l-2.437 1.7705c-.525.382-.745 1.059-.545 1.677l.931 2.8648c.449 1.382-1.132 2.5311-2.308 1.677l-2.4369-1.7705c-.5258-.3819-1.2377-.3819-1.7634 0l-2.4369 1.7705c-1.1756.8541-2.7573-.295-2.3083-1.677l.9308-2.8648c.2009-.618-.0191-1.295-.5449-1.677l-2.4369-1.7705c-1.1755-.8541-.5714-2.7135.8817-2.7135h3.0122c.6498 0 1.2258-.4185 1.4266-1.0365z" fill="#f2a966"/><path clip-rule="evenodd" d="m99.7962 49.062-.9308-2.8647-.9308 2.8647c-.4017 1.2361-1.5535 2.073-2.8532 2.073h-3.0122l2.4369 1.7705c1.0515.7639 1.4915 2.118 1.0898 3.3541l-.9308 2.8647 2.4369-1.7705c1.0515-.7639 2.4753-.7639 3.527 0l2.437 1.7705-.931-2.8647c-.402-1.2361.038-2.5902 1.09-3.3541l2.437-1.7705h-3.013c-1.299 0-2.451-.8369-2.8528-2.073zm.4958-3.3283c-.4491-1.3819-2.4042-1.3819-2.8532 0l-.9308 2.8648c-.2008.618-.7768 1.0365-1.4266 1.0365h-3.0122c-1.4531 0-2.0572 1.8594-.8817 2.7135l2.4369 1.7705c.5258.382.7458 1.059.5449 1.677l-.9308 2.8648c-.449 1.382 1.1327 2.5311 2.3083 1.677l2.4369-1.7705c.5257-.3819 1.2376-.3819 1.7634 0l2.4369 1.7705c1.176.8541 2.757-.295 2.308-1.677l-.931-2.8648c-.2-.618.02-1.295.545-1.677l2.437-1.7705c1.176-.8541.572-2.7135-.881-2.7135h-3.013c-.649 0-1.225-.4185-1.426-1.0365z" fill="#000" fill-rule="evenodd"/><path d="m49.4388 45.7337c.449-1.3819 2.4041-1.3819 2.8532 0l.9308 2.8648c.2008.618.7767 1.0365 1.4266 1.0365h3.0121c1.4531 0 2.0573 1.8594.8817 2.7135l-2.4369 1.7705c-.5257.382-.7457 1.059-.5449 1.677l.9308 2.8648c.449 1.382-1.1327 2.5311-2.3082 1.677l-2.4369-1.7705c-.5258-.3819-1.2377-.3819-1.7634 0l-2.4369 1.7705c-1.1756.8541-2.7573-.295-2.3083-1.677l.9308-2.8648c.2009-.618-.0191-1.295-.5449-1.677l-2.4369-1.7705c-1.1755-.8541-.5714-2.7135.8817-2.7135h3.0122c.6498 0 1.2258-.4185 1.4266-1.0365z" fill="#f2a966"/><path clip-rule="evenodd" d="m51.7962 49.062-.9308-2.8647-.9308 2.8647c-.4017 1.2361-1.5535 2.073-2.8532 2.073h-3.0122l2.4369 1.7705c1.0515.7639 1.4915 2.118 1.0898 3.3541l-.9308 2.8647 2.4369-1.7705c1.0515-.7639 2.4753-.7639 3.5267 0l2.4369 1.7705-.9308-2.8647c-.4016-1.2361.0384-2.5902 1.0898-3.3541l2.4369-1.7705h-3.0121c-1.2997 0-2.4516-.8369-2.8532-2.073zm.4958-3.3283c-.4491-1.3819-2.4042-1.3819-2.8532 0l-.9308 2.8648c-.2008.618-.7768 1.0365-1.4266 1.0365h-3.0122c-1.4531 0-2.0572 1.8594-.8817 2.7135l2.4369 1.7705c.5258.382.7458 1.059.5449 1.677l-.9308 2.8648c-.449 1.382 1.1327 2.5311 2.3083 1.677l2.4369-1.7705c.5257-.3819 1.2376-.3819 1.7634 0l2.4369 1.7705c1.1755.8541 2.7572-.295 2.3082-1.677l-.9308-2.8648c-.2008-.618.0192-1.295.5449-1.677l2.4369-1.7705c1.1756-.8541.5714-2.7135-.8817-2.7135h-3.0121c-.6499 0-1.2258-.4185-1.4266-1.0365z" fill="#000" fill-rule="evenodd"/><path d="m73.4388 33.7337c.449-1.3819 2.4041-1.3819 2.8532 0l.9308 2.8648c.2008.618.7767 1.0365 1.4266 1.0365h3.0121c1.4531 0 2.0573 1.8594.8817 2.7135l-2.4369 1.7705c-.5257.382-.7457 1.059-.5449 1.677l.9308 2.8648c.449 1.382-1.1327 2.5311-2.3082 1.677l-2.4369-1.7705c-.5258-.3819-1.2377-.3819-1.7634 0l-2.4369 1.7705c-1.1756.8541-2.7573-.295-2.3083-1.677l.9308-2.8648c.2009-.618-.0191-1.295-.5449-1.677l-2.4369-1.7705c-1.1755-.8541-.5714-2.7135.8817-2.7135h3.0122c.6498 0 1.2258-.4185 1.4266-1.0365z" fill="#f2a966"/><path clip-rule="evenodd" d="m75.7962 37.062-.9308-2.8647-.9308 2.8647c-.4017 1.2361-1.5535 2.073-2.8532 2.073h-3.0122l2.4369 1.7705c1.0515.7639 1.4915 2.118 1.0898 3.3541l-.9308 2.8647 2.4369-1.7705c1.0515-.7639 2.4753-.7639 3.5267 0l2.4369 1.7705-.9308-2.8647c-.4016-1.2361.0384-2.5902 1.0898-3.3541l2.4369-1.7705h-3.0121c-1.2997 0-2.4516-.8369-2.8532-2.073zm.4958-3.3283c-.4491-1.3819-2.4042-1.3819-2.8532 0l-.9308 2.8648c-.2008.618-.7768 1.0365-1.4266 1.0365h-3.0122c-1.4531 0-2.0572 1.8594-.8817 2.7135l2.4369 1.7705c.5258.382.7458 1.059.5449 1.677l-.9308 2.8648c-.449 1.382 1.1327 2.5311 2.3083 1.677l2.4369-1.7705c.5257-.3819 1.2376-.3819 1.7634 0l2.4369 1.7705c1.1755.8541 2.7572-.295 2.3082-1.677l-.9308-2.8648c-.2008-.618.0192-1.295.5449-1.677l2.4369-1.7705c1.1756-.8541.5714-2.7135-.8817-2.7135h-3.0121c-.6499 0-1.2258-.4185-1.4266-1.0365z" fill="#000" fill-rule="evenodd"/><path d="m58.8826 117.999c-.9359-2.808 5.4594-24.5672 8.774-35.096-8.4238 1.8718-9.3593 13.6484-8.774 19.303-3.51-2.925-9.7111-10.1782-6.4354-15.7936 3.2756-5.6154 13.0635-9.7488 17.548-11.1136-3.705-6.0443-17.548-17.548 5.2644-15.2081 15.4741 1.5872 11.3088 11.8936 7.6042 15.2082 2.1447-.195 4.9134-1.2869 10.5288 5.2644 5.6154 6.5512 5.5904 15.6491 1.3046 18.6651 0 0-.8753-5.7797-1.9048-9.0479-1.3624-4.3247-6.1906-8.7304-6.1906-8.7304 6.1906 13.9686 11.1114 28.5719 11.1114 28.5719s2.3808 13.81-13.0162-4.286c-3.4576-4.063-12.557.174-14.7018 2.904-3.3143 4.29-10.1767 12.167-11.1126 9.359z" fill="#fff"/><g clip-rule="evenodd" fill="#000" fill-rule="evenodd"><path d="m74.7287 58.7054c-2.5488-.3303-5.1613-.3025-7.6995.3068-.9605.2306-2.0392.5703-2.9696 1.1405-.9407.5765-1.7629 1.4105-2.1283 2.6253-.1825.6069-.2505 1.2295-.2288 1.8533-.2317 1.9598.4637 3.8102 1.6523 5.4291 1.1994 1.6336 2.9292 3.0746 4.8447 4.2379 1.9191 1.1654 4.0559 2.0713 6.1003 2.6187 2.0335.5444 4.0312.7488 5.6531.4557 1.0506-.1899 2.1087-.5601 3.11-1.0781.1915-.077.3797-.1597.5641-.2486.5826-.2805 1.0969-.6708 1.5453-1.1362.2296-.1874.452-.3832.6663-.5869 1.6492-1.5676 2.8583-3.6462 3.008-5.9935.169-2.6517-1.4158-4.5836-3.3383-5.9269-1.2299-.8594-2.651-1.519-3.9812-2.016-1.621-.7136-3.3954-1.1203-5.241-1.435-.5157-.0958-1.0352-.1785-1.5574-.2461zm1.3455 1.6952c-.5019-.0862-1.0162-.1666-1.5424-.2452-2.4053-.3108-4.8319-.2794-7.161.2797-.9032.2168-1.8088.5131-2.5465.9653-.7276.4459-1.2575 1.0207-1.4916 1.7991-.4077 1.3553-.055 2.9663.7581 4.5577.8061 1.5775 2.0089 3.0222 3.1045 3.979 1.8049 1.5762 4.6191 2.8895 7.5896 3.5175 2.7434.5801 5.5116.5533 7.6686-.2917.6008-.316 1.1802-.6938 1.7181-1.1248.7555-.8085 1.3235-1.956 1.6505-3.2224.4826-1.8691.3656-3.7075-.1976-4.6829-1.2083-2.0925-2.7752-3.357-4.6483-4.189-.6858-.2549-1.354-.4673-1.9623-.6415-.9662-.2768-1.949-.5148-2.9397-.7008z"/><path d="m85.9609 80.2042c-.3675.1681-.5291.6023-.361.9697 2.3898 5.2243 3.71 8.5548 5.1777 12.2576 1.0237 2.5828 2.1193 5.3466 3.6997 9.0605.4043.95 1.4423 3.627 2.0726 6.298.3159 1.338.5197 2.636.5052 3.696-.0133.984-.2115 1.595-.5003 1.915-.5748.086-1.3166-.146-2.2723-.773-1.0245-.672-2.1384-1.695-3.318-2.861-.4163-.412-.843-.843-1.2741-1.279-.766-.775-1.5459-1.564-2.3057-2.279-1.1897-1.119-2.4132-2.137-3.6054-2.733-3.1292-1.565-6.2047-1.519-9.1382-.163-2.8965 1.339-5.6178 3.935-8.1586 7.404-1.1782 1.609-2.4312 3.268-4.0046 4.4-1.5353 1.104-3.3726 1.701-5.7752 1.168-.3945-.088-.7853.161-.873.555-.0877.395.1611.785.5555.873 2.8618.636 5.1191-.094 6.9471-1.408 1.79-1.287 3.1693-3.137 4.3308-4.723 2.4703-3.373 5.014-5.749 7.592-6.94 2.5411-1.175 5.1496-1.217 7.8698.143.9901.495 2.0843 1.387 3.2573 2.49.7437.7 1.4857 1.45 2.2362 2.21.4356.441.8741.885 1.3173 1.323 1.183 1.169 2.3865 2.284 3.5439 3.044 1.1346.744 2.3905 1.258 3.6155.929.0988-.027.1909-.074.2703-.138.8846-.715 1.1368-1.945 1.153-3.137.0168-1.235-.2171-2.666-.5443-4.052-.6562-2.78-1.7273-5.541-2.1503-6.535-1.5467-3.6348-2.6378-6.3857-3.6638-8.9724-1.4849-3.7439-2.8334-7.1436-5.2294-12.3814-.1681-.3675-.6022-.5291-.9697-.361z"/><path d="m67.3346 82.8043c-.3775-.1443-.8005.0447-.9448.4221-.97 2.5368-3.4354 9.099-5.4165 16.3023-.9904 3.6013-1.8634 7.3763-2.3667 10.8963-.5016 3.508-.6442 6.818-.1379 9.466.0759.397.4592.657.8561.581s.6571-.459.5813-.856c-.4614-2.413-.344-5.535.1492-8.984.4914-3.438 1.348-7.148 2.329-10.7153 1.9619-7.1336 4.407-13.643 5.3724-16.1676.1443-.3775-.0447-.8005-.4221-.9448z"/><path d="m70.4013 74.2454c-.2115-.3444-.662-.4521-1.0064-.2406-.6675.4099-1.3372.8159-2.0068 1.2219-3.9655 2.4041-7.9298 4.8075-11.4481 8.0277-3.2998 3.0202-5.179 6.7537-4.748 10.4673.434 3.7388 3.1769 7.1983 8.5557 9.7193.3659.171.8015.014.973-.352s.014-.802-.3519-.973c-5.103-2.3921-7.3677-5.5005-7.7232-8.5631-.3584-3.0879 1.1912-6.3898 4.2824-9.219 3.4033-3.1149 7.2298-5.4359 11.1995-7.8437.674-.4089 1.3522-.8203 2.0332-1.2384.3443-.2115.4521-.6621.2406-1.0064z"/><path d="m82.7353 74.5625c-.0832.3955.1698.7835.5653.8668 5.3034 1.1166 9.9473 5.1967 12.2711 10.0004 2.0463 4.2303 2.2413 8.883-.3398 12.5196-.3262-4.8076-2.0342-11.5406-8.3621-17.3411-.2979-.2731-.7607-.2529-1.0338.0449-.273.2979-.2529.7608.045 1.0338 6.8156 6.2477 7.9521 13.6203 7.9521 18.1786 0 .2955.1783.5625.4517.6765.2735.113.5882.05.7974-.159 4.3618-4.363 4.3024-10.4315 1.8068-15.5905-2.4914-5.1503-7.4774-9.5721-13.287-10.7952-.3954-.0833-.7834.1698-.8667.5652z"/><path d="m85.3281 66.7213c-.3834-.1277-.7978.0794-.9256.4628-.7246 2.174-3.2124 3.304-6.3417 3.3751-3.0903.0702-6.4067-.9227-8.2812-2.5294-.3068-.263-.7687-.2274-1.0317.0794s-.2275.7687.0794 1.0317c2.22 1.9029 5.9228 2.9573 9.2668 2.8813 3.305-.0752 6.6666-1.285 7.6967-4.3753.1278-.3834-.0794-.7978-.4627-.9256z"/><path d="m70.5915 81.8375c-.111-.3885-.516-.6135-.9046-.5025-4.1912 1.1975-8.4804 3.6161-10.8056 7.4138-2.3627 3.8592-2.5986 8.976 1.0124 15.2952.2005.351.6474.473.9983.272.3509-.2.4727-.647.2723-.998-3.4082-5.9642-3.0592-10.4988-1.0349-13.8051 2.0618-3.3677 5.9617-5.6286 9.9596-6.7709.3885-.111.6135-.5159.5025-.9045z"/></g></svg>