<svg fill="none" viewBox="0 0 110 110" xmlns="http://www.w3.org/2000/svg"><path d="m53.2809 72.1871c-.6875.6875-2.0052 4.2969-2.5781 6.0157l-10.3123-27.4999 6.0154-3.4375c-3.4375-6.0156.8596-15.3816 8.594-15.3816 6.1875 0 12.8906 7.6472 15.4685 13.6628.8596-3.4375 1.719-8.4906 11.1721-7.7344 13.7498 1.1 12.0311 11.1719 8.5936 15.4688 4.0104 6.0156 12.7189 18.2187 12.0319 18.9061-.688.6874-16.3286-12.0311-17.1882-10.3124 3.724 10.599 11 31.7969 10.3125 31.7969-.8594 0-17.1875-18.0469-18.9062-18.9063-1.375-.6876-5.1563 2.0051-6.875 3.4375.5729 2.2916 1.375 7.5625 0 10.3125-1.7188 3.4375-2.5782-.8593-3.4375-.8593-.8594 0-6.875-9.4532-8.5938-12.8907-1.7187-3.4375-3.4375-3.4375-4.2969-2.5782z" fill="#fff"/><path d="m15.5102 91.3167c-.8794-2.6382 5.1297-23.0838 8.2442-32.9769-7.9152 1.7588-8.7942 12.8242-8.2442 18.1371-3.2981-2.7481-9.1247-9.5633-6.04686-14.8396 3.07786-5.2763 12.27476-9.1601 16.48846-10.4425-3.4813-5.6793-16.48846-16.4884 4.9465-14.2898 14.5397 1.4913 10.6259 11.1754 7.145 14.2898 2.0152-.1832 4.6167-1.2091 9.893 4.9466 5.2763 6.1556 5.2529 14.7041 1.2258 17.538 0 0-.8224-5.4307-1.7897-8.5015-1.2802-4.0636-5.8169-8.2032-5.8169-8.2032 5.8169 13.1251 10.4405 26.8468 10.4405 26.8468s2.2372 12.976-12.2302-4.027c-3.2488-3.8182-11.7988.1635-13.814 2.7283-3.1142 4.0305-9.5623 11.432-10.4416 8.7939z" fill="#fff"/><path d="m18.9061 60.1562-3.4375-2.5781 10.1025-6.7349c-.1019-.1019.0191-.1401.21-.1401l-.21.1401c.2037.2037 1.2986.662 4.5069 1.5787 6.0156 1.7187 6.0156-1.7188 9.4531-1.7188 2.75 0 6.875 4.0104 8.5938 6.0157l-6.0156 1.7187 4.2968 11.1719-28.3593 2.5781 4.2968-13.75z" fill="#f2a966"/><path d="m46.4061 36.0938-.8593 4.2968 23.2031 1.7188-1.7188-4.2969z" fill="#f2a966"/><path d="m92.8124 56.7188-6.0156 4.2968 4.2968 3.4375 5.1563-3.4375z" fill="#f2a966"/><g clip-rule="evenodd" fill="#000" fill-rule="evenodd"><path d="m30.3991 35.6038c-2.3949-.3103-4.8497-.2842-7.2346.2883-.9025.2166-1.9161.5358-2.7903 1.0716-.8839.5417-1.6564 1.3254-1.9997 2.4668-.1715.5702-.2354 1.1553-.2151 1.7414-.2176 1.8415.4358 3.5801 1.5526 5.1013 1.1269 1.535 2.7523 2.8889 4.5521 3.982 1.8032 1.095 3.8111 1.9462 5.732 2.4605 1.9107.5116 3.7878.7037 5.3118.4282.9871-.1784 1.9813-.5262 2.9221-1.013.18-.0723.3568-.1501.5301-.2335.5474-.2636 1.0306-.6304 1.4519-1.0676.2157-.1761.4248-.3601.6261-.5515 1.5496-1.4729 2.6858-3.4261 2.8264-5.6316.1588-2.4916-1.3303-4.3069-3.1367-5.569-1.1557-.8076-2.491-1.4272-3.7408-1.8943-1.5232-.6705-3.1904-1.0526-4.9245-1.3483-.4846-.09-.9727-.1677-1.4634-.2313zm1.2642 1.5929c-.4715-.0811-.9548-.1566-1.4493-.2304-2.26-.292-4.5401-.2625-6.7285.2628-.8487.2037-1.6996.4821-2.3928.907-.6836.4189-1.1815.9591-1.4015 1.6905-.383 1.2734-.0516 2.7872.7124 4.2825.7573 1.4822 1.8876 2.8397 2.917 3.7387 1.6959 1.481 4.3402 2.715 7.1312 3.3051 2.5778.545 5.1789.5199 7.2056-.2741.5646-.2969 1.109-.6519 1.6144-1.0569.7099-.7597 1.2436-1.8379 1.5508-3.0278.4535-1.7563.3435-3.4837-.1857-4.4001-1.1353-1.9662-2.6076-3.1543-4.3675-3.936-.6444-.2396-1.2723-.4392-1.8439-.6029-.9079-.26-1.8312-.4836-2.7622-.6584z"/><path d="m48.3422 57.3708-5.1562 1.7188-.4348-1.3044 5.1562-1.7188zm-29.9223 3.2715-3.4375-3.4375.9723-.9723 3.4375 3.4375zm28.0503 9.6514-27.5 2.5782-.1283-1.369 27.5-2.5782z"/><path d="m40.9534 55.8037c-.3453.1579-.4972.5659-.3392.9112 2.2455 4.9088 3.4859 8.0382 4.865 11.5174.9619 2.4268 1.9913 5.0237 3.4763 8.5134.3799.8928 1.3552 3.4084 1.9474 5.9174.2969 1.2579.4883 2.4766.4748 3.4733-.0126.9243-.1988 1.4982-.4701 1.799-.5401.0807-1.2371-.1367-2.1351-.726-.9626-.6317-2.0093-1.5928-3.1177-2.6885-.3911-.3866-.7921-.7922-1.1972-1.2021-.7197-.7282-1.4525-1.4695-2.1664-2.1408-1.1179-1.0513-2.2675-2.0083-3.3877-2.5683-2.9402-1.4702-5.8301-1.4267-8.5864-.1528-2.7216 1.258-5.2785 3.6973-7.666 6.9568-1.1071 1.5115-2.2844 3.0709-3.7627 4.1339-1.4427 1.0374-3.169 1.599-5.4265 1.0974-.3707-.0824-.7379.1513-.8203.5219-.0824.3707.1513.7379.522.8203 2.689.5976 4.8099-.0881 6.5276-1.3232 1.6819-1.2095 2.9778-2.9478 4.0692-4.4378 2.3212-3.1691 4.7113-5.4015 7.1336-6.5211 2.3877-1.1036 4.8386-1.1436 7.3946.1344.9303.4652 1.9584 1.3036 3.0606 2.3401.6988.6571 1.396 1.3627 2.1011 2.0763.4094.4143.8214.8312 1.2379 1.2429 1.1116 1.0988 2.2424 2.1465 3.3299 2.8602 1.066.6995 2.2461 1.1822 3.3972.873.0927-.0249.1793-.069.2539-.1294.8312-.6723 1.0681-1.8274 1.0834-2.9475.0157-1.1606-.204-2.5051-.5115-3.8078-.6165-2.612-1.623-5.206-2.0204-6.14-1.4533-3.4153-2.4786-6.0001-3.4425-8.4306-1.3953-3.5178-2.6623-6.7123-4.9137-11.6338-.1579-.3453-.5659-.4972-.9111-.3392z"/><path d="m23.4515 58.2477c-.3547-.1356-.7521.0419-.8877.3966-.9114 2.3836-3.228 8.5495-5.0894 15.3179-.9307 3.3839-1.751 6.9305-2.2238 10.2381-.4714 3.2967-.6053 6.4064-.1296 8.8947.0713.373.4314.6175.8044.5462.3729-.0713.6174-.4314.5461-.8044-.4335-2.2674-.3232-5.2007.1402-8.4419.4618-3.2303 1.2667-6.7165 2.1884-10.0681 1.8434-6.7029 4.1409-12.8192 5.048-15.1914.1356-.3547-.042-.7521-.3966-.8877z"/><path d="m26.3332 50.2058c-.1987-.3236-.6221-.4248-.9456-.2261-.6273.3852-1.2565.7666-1.8857 1.1481-3.726 2.259-7.4509 4.5172-10.7568 7.543-3.10056 2.8378-4.86624 6.3459-4.46124 9.8352.40776 3.5131 2.98504 6.7633 8.03904 9.1323.3438.1612.7531.0131.9143-.3307.1611-.3438.0131-.7531-.3307-.9143-4.7948-2.2475-6.92281-5.1682-7.25681-8.0459-.33676-2.9014 1.11931-6.004 4.02371-8.6623 3.1979-2.9269 6.7933-5.1076 10.5233-7.3701.6333-.3842 1.2706-.7707 1.9104-1.1636.3236-.1987.4248-.6221.2261-.9456z"/><path d="m38.8587 50.5616c-.0782.3716.1595.7362.5311.8144 4.9735 1.0472 9.0983 4.8552 11.0502 9.3423 1.7215 3.9573 1.7175 8.3383-.7752 11.7721-.3044-4.5182-1.9068-10.8512-7.858-16.3065-.2799-.2566-.7148-.2377-.9713.0422-.2566.2799-.2377.7148.0422.9714 6.4041 5.8704 7.4719 12.7978 7.4719 17.0809 0 .2781.1676.5288.4245.6352s.5526.0475.7492-.1491c4.0789-4.0799 4.2859-9.7483 2.1776-14.5947-2.104-4.8367-6.5595-8.988-12.0278-10.1393-.3716-.0782-.7362.1596-.8144.5311z"/><path d="m40.3582 43.1361c-.3603-.1201-.7496.0746-.8697.4348-.6809 2.0427-3.0184 3.1044-5.9587 3.1712-2.9038.066-6.0199-.8669-7.7812-2.3766-.2883-.2471-.7223-.2137-.9694.0746s-.2137.7223.0745.9694c2.086 1.788 5.5653 2.7787 8.7073 2.7073 3.1054-.0706 6.264-1.2073 7.232-4.1111.12-.3602-.0746-.7496-.4348-.8696z"/><path d="m26.5112 57.3396c-.1043-.3651-.4848-.5765-.8499-.4722-3.9382 1.1252-7.9684 3.3978-10.1531 6.9662-2.2201 3.6261-2.4418 8.434.9512 14.3717.1884.3297.6084.4442.938.2558.3297-.1883.4442-.6083.2559-.938-3.2024-5.6041-2.8745-9.8649-.9725-12.9716 1.9374-3.1643 5.6018-5.2887 9.3582-6.362.3651-.1043.5765-.4848.4722-.8499z"/><path d="m56.7304 31.9693c-6.3543-.2167-10.1494 1.7572-11.7703 4.8418-1.6 3.0447-.9226 6.8858 1.016 10.0696 1.9475 3.1983 5.254 5.892 9.1862 6.6483 3.9716.764 8.4627-.4709 12.6812-4.9119l.0233-.0246.0209-.0268c1.6224-2.0855 2.034-4.2244 1.6123-6.2453-.4151-1.9893-1.6222-3.7966-3.1124-5.3039-1.4948-1.512-3.3154-2.7642-5.0392-3.6404-1.6979-.863-3.3849-1.4032-4.618-1.4068zm10.0925 15.7256c-3.9372 4.1321-7.9622 5.1454-11.4009 4.4839-3.4851-.6704-6.4877-3.0838-8.2715-6.0132-1.7924-2.9437-2.2682-6.2507-.9733-8.7148 1.273-2.4224 4.4173-4.3173 10.5172-4.1069l.0118.0004h.0119c.9135 0 2.3754.4281 4.0072 1.2576 1.6116.819 3.3074 1.9883 4.6845 3.3813 1.3817 1.3975 2.402 2.9785 2.7442 4.6181.3339 1.6.0374 3.3214-1.3311 5.0936z"/><path d="m49.804 44.1157c.3256-.1954.7479-.0898.9433.2358 1.1575 1.9292 3.5822 3.3389 6.2004 3.6838 2.6027.3427 5.2476-.3832 6.9106-2.5213.2331-.2997.665-.3537.9647-.1206.2998.2331.3538.665.1206.9648-2.0391 2.6217-5.2267 3.4287-8.1755 3.0403-2.9333-.3864-5.7793-1.972-7.1999-4.3396-.1953-.3256-.0897-.7479.2358-.9432z"/><path d="m81.2999 37.1254c2.753-.0172 5.535.5427 7.786 1.7312 1.7599.9292 3.0697 2.1797 3.8556 3.7529.7852 1.5719 1.0187 3.4081.7263 5.461-.2821 1.9803-1.4472 3.833-2.954 5.2842-1.5096 1.4539-3.4213 2.5632-5.2981 3.0211-2.5035.6108-5.1235.1357-7.4773-.983-.2077.1602-.4983.1937-.7446.0619-2.6608-1.4232-5.4971-4.4346-6.7491-7.6151-.6296-1.5995-.882-3.3026-.4432-4.8934.4447-1.6128 1.5738-3.0148 3.5176-4.0321 2.2485-1.1769 5.0273-1.7716 7.7808-1.7887zm-7.647 3.2933c-.0103.0084-.021.0164-.0319.0242-1.7451 1.2436-2.4042 2.8359-2.3385 4.5147.0672 1.7178.8998 3.5876 2.2735 5.2805 2.77 3.4139 7.4627 5.7951 11.5338 4.8019 1.6098-.3928 3.3113-1.3669 4.6702-2.6757 1.3616-1.3114 2.3204-2.9006 2.5465-4.4877.2616-1.8362.0408-3.3797-.5951-4.6526-.6352-1.2716-1.7135-2.331-3.2675-3.1515-2.0089-1.0607-4.5568-1.5882-7.1354-1.5721-2.5782.016-5.1329.5752-7.1518 1.6319-.1771.0927-.3449.1882-.5038.2864z"/><path d="m75.7516 47.3532c.3481-.1515.7532.0078.9048.356.6527 1.4995 2.0973 2.711 3.928 3.3443 1.8241.6311 3.9728.6648 5.957-.1289.3525-.141.7526.0304.8937.383.141.3525-.0305.7526-.383.8936-2.3127.9251-4.8033.8831-6.9173.1517-2.1075-.7291-3.8998-2.1666-4.7392-4.0949-.1515-.3482.0079-.7532.356-.9048z"/><path d="m47.0586 47.0484c.1201.3602-.0746.7496-.4348.8696-2.0668.689-4.3814 1.9251-6.5458 3.0808-.6685.3571-1.3227.7064-1.9508 1.0296-.3376.1738-.7521.0409-.9259-.2967-.1737-.3377-.0408-.7522.2968-.9259.5824-.2997 1.2047-.6322 1.8523-.9782 2.1817-1.1658 4.6495-2.4843 6.8386-3.214.3602-.1201.7495.0746.8696.4348z"/><path d="m71.041 48.6031c.2106.3159.1252.7428-.1907.9534-1.8255 1.2169-3.8372 3.5156-4.7913 4.7401.8963 3.6975 2.6749 12.7703 3.7184 20.7744.5369 4.1182.8847 7.9933.8084 10.7167-.0376 1.3415-.1789 2.4969-.5066 3.2661-.1642.3852-.4178.7761-.8295.9882-.4493.2315-.926.1714-1.3433-.0295-.8509-.4096-1.6839-1.1412-2.4601-1.9938-.7839-.861-1.5482-1.8887-2.2543-2.9404-1.4122-2.1035-2.6256-4.3553-3.3285-5.6744l-.0059-.0111-.0055-.0113c-1.1478-2.3577-2.151-4.1407-3.0422-5.3393-.4454-.599-.8454-1.0281-1.2014-1.3082-.357-.2807-.6305-.3811-.8327-.3955-.3393-.0241-.8526.1977-1.5057 1.3774-.6313 1.1403-1.2586 2.9486-1.8998 5.5134-.0921.3684-.4654.5923-.8338.5002-.3683-.0921-.5923-.4653-.5002-.8337.6479-2.5914 1.3096-4.5429 2.0309-5.8459.6995-1.2635 1.6023-2.1685 2.8061-2.083.5694.0405 1.0992.3041 1.5852.6864.487.383.9698.9161 1.4548 1.5684.968 1.302 2.0142 3.1742 3.1696 5.5467.7024 1.3181 1.8848 3.5089 3.2507 5.5435.6848 1.0201 1.4072 1.9879 2.1294 2.7812.7299.8017 1.4223 1.3832 2.0399 1.6806.0668.0321.1048.0405.1229.042.0086-.0064.026-.0215.0505-.0527.0385-.049.0866-.1279.1379-.2483.2184-.5125.36-1.441.3971-2.7655.0731-2.6085-.2619-6.3932-.7974-10.5004-1.0693-8.2028-2.9161-17.5329-3.7682-20.9414l-.0794-.3174.1964-.2618c.8711-1.1615 3.1622-3.874 5.3249-5.3158.3159-.2106.7427-.1252.9534.1907zm-2.402 40.2115c.0003.0006-.0028.0016-.0101.0013.0062-.002.0099-.0019.0101-.0013z"/><path d="m89.8124 52.7386c.2998-.2331.7317-.1791.9648.1206 2.01 2.5843 5.0258 6.5908 7.5415 10.2136 1.257 1.8101 2.3963 3.5344 3.2243 4.9422.413.7028.755 1.3389.997 1.8744.227.5031.413 1.0185.413 1.4388 0 .3241-.054.6581-.229.9403-.194.3114-.491.488-.818.5412-.295.0482-.587-.0079-.833-.0869-.252-.0813-.51-.2046-.758-.3457-.9555-.5427-2.0539-1.5092-2.7837-2.2334-1.289-.8615-2.7887-1.9393-4.2914-3.0244-.1337-.0965-.2675-.1931-.4011-.2897-1.3952-1.0078-2.7789-2.0074-4.0029-2.8457-1.2133-.8311-2.2256-1.4726-2.919-1.811.4718 1.2808 1.2841 3.3499 2.2626 5.8421 1.1216 2.8569 2.4615 6.2698 3.7568 9.6885 1.2927 3.4116 2.5362 6.8176 3.4574 9.6437.4605 1.4125.8431 2.6883 1.1113 3.7519.2638 1.046.432 1.9432.432 2.5728 0 .3184-.0749.8711-.601 1.1104-.2365.1076-.4726.1003-.6529.0657-.1808-.0346-.3534-.1053-.5081-.1844-.5908-.3023-1.3571-.9633-2.1995-1.7831-1.6844-1.6393-3.9399-4.1854-6.2697-6.8153l-.1415-.1597c-2.3923-2.7003-4.8594-5.4798-6.9166-7.5216-1.0309-1.0231-1.9369-1.8387-2.6645-2.3633-.3652-.2634-.6599-.4346-.8842-.526-.1829-.0745-.2603-.0721-.2689-.0726-1.1619.3896-1.9397.9687-2.658 1.5844-.1268.1087-.255.2218-.3855.3371-.5888.5199-1.2259 1.0824-2.0102 1.4745-.3397.1698-.7526.0322-.9224-.3074s-.0322-.7526.3074-.9224c.6093-.3046 1.0838-.7218 1.6621-1.2303.1436-.1263.2937-.2583.4538-.3955.783-.6712 1.721-1.3792 3.1305-1.849.4237-.1413.8609-.0344 1.21.1079.3677.1498.7629.3907 1.1697.684.8165.5887 1.7834 1.4651 2.8288 2.5026 2.0951 2.0794 4.5939 4.8956 6.9772 7.5858l.1099.1241c2.3553 2.6586 4.5838 5.1741 6.2311 6.7774.6801.6618 1.219 1.1253 1.6033 1.3853-.0484-.4481-.1697-1.0664-.3661-1.8452-.2575-1.0211-.6296-2.264-1.0853-3.662-.911-2.795-2.1455-6.1771-3.4359-9.5826-1.2758-3.3672-2.6109-6.7687-3.7348-9.6322-1.1398-2.9037-2.0623-5.2541-2.4858-6.4547-.0733-.2078-.1365-.4601-.1071-.7142.0355-.3065.2112-.6083.5529-.7511.2691-.1124.5439-.0814.7259-.0442.2014.0411.4146.1172.6262.2083.8308.3574 2.0421 1.1269 3.3852 2.0469 1.239.8486 2.637 1.8585 4.0285 2.8638.1346.0972.2691.1943.4033.2913 1.5282 1.1034 3.0289 2.1816 4.3054 3.0326l.0567.0378.0481.0481c.7034.7034 1.725 1.5962 2.539 2.0584.199.1132.367.1895.5.2324.031.0098.057.0171.08.0226.002-.0292.004-.065.004-.1083 0-.0954-.064-.3695-.291-.8734-.213-.4717-.528-1.0602-.93-1.743-.8015-1.3638-1.9181-3.0555-3.1676-4.8547-2.4973-3.5961-5.4971-7.5818-7.4976-10.1537-.2331-.2997-.1791-.7317.1206-.9648zm5.7433 41.0222c-.0003-.0004.0004-.0059.0029-.015-.0013.0109-.0026.0155-.0029.015zm-10.2749-31.8259c-.0001-.0001.0021-.0001.0068.0003-.0044 0-.0068-.0002-.0068-.0003z"/><path d="m66.1124 38.4978-19.7656-1.7188.1191-1.3698 19.7657 1.7187zm-20.5146 1.2075 23.2031 1.7188-.1016 1.3712-23.2031-1.7187z"/><path d="m93.2598 57.2403-6.0156 5.1562-.8948-1.044 6.0156-5.1562zm-2.5956 6.6755 4.2969-3.4375.8589 1.0737-4.2969 3.4375z"/></g></svg>