<svg fill="none" viewBox="0 0 99 99" xmlns="http://www.w3.org/2000/svg"><circle cx="49.5" cy="49.5" fill="#f6f6f6" r="49.5"/><path clip-rule="evenodd" d="m63.5674 61.8684c0 1.3267-1.088 2.4018-2.4249 2.4018h-3.6425v2.407h3.6425c2.6817 0 4.8561-2.1526 4.8575-4.8088v-24.057c0-2.6573-2.1748-4.8114-4.8575-4.8114h-24.2876c-1.2879.0003-2.523.5074-3.4335 1.4098-.9104.9023-1.4217 2.1259-1.4214 3.4016v24.057c0 1.2756.5117 2.4989 1.4224 3.4008.9108.9018 2.146 1.4083 3.4338 1.408h3.6438v-2.407h-3.6451c-.6435.0007-1.261-.252-1.7163-.7026-.4553-.4505-.7111-1.0618-.7111-1.6992v-24.057c-.001-.6382.2543-1.2507.7097-1.7022s1.0734-.7051 1.7177-.7048h24.2876c1.3404.0021 2.4256 1.0794 2.4249 2.407zm-15.7863-17.5452v21.4733.0013c.0022.6651.5474 1.2029 1.2189 1.2022.6697 0 1.2086-.5388 1.2086-1.2022v-21.4746l6.3689 6.3071c.4797.4373 1.2222.4222 1.6834-.0342.4612-.4565.477-1.1919.0359-1.6674l-8.3782-8.296c-.2432-.2383-.5771-.363-.9186-.3432-.3428-.0212-.6785.1036-.9225.3432l-8.3781 8.2947c-.4415.4752-.4262 1.2106.0346 1.6674s1.2033.4725 1.6834.0355z" fill="#25a6f7" fill-rule="evenodd"/></svg>