<svg fill="none" viewBox="0 0 31 28" xmlns="http://www.w3.org/2000/svg"><path d="m14.2271 2.26148c.2538-.78093 1.3586-.78093 1.6123 0l2.0588 6.33628c.1135.34925.4389.5857.8062.5857h6.6623c.8211 0 1.1625 1.05074.4982 1.53334l-5.3899 3.9161c-.2971.2158-.4214.5984-.3079.9477l2.0587 6.3362c.2538.781-.64 1.4304-1.3043.9477l-5.39-3.916c-.2971-.2159-.6994-.2159-.9964 0l-5.39001 3.916c-.6643.4827-1.55811-.1667-1.30437-.9477l2.05878-6.3362c.1135-.3493-.01083-.7319-.30792-.9477l-5.38996-3.9161c-.6643-.4826-.3229-1.53334.49822-1.53334h6.66236c.3672 0 .6927-.23645.8062-.5857z" fill="#ee8625"/><g clip-rule="evenodd" fill="#000" fill-rule="evenodd"><path d="m17.3608 7.99504-2.0588-6.33628c-.0846-.26031-.4529-.26031-.5374 0l-2.0588 6.33628c-.1891.58207-.7316.97617-1.3436.97617h-6.66236c-.27371 0-.38751.35024-.16607.51112l5.38996 3.91607c.49517.3597.70237.9974.51317 1.5794l-2.05875 6.3363c-.08458.2603.21336.4768.43479.3159l5.38996-3.916c.4951-.3598 1.1656-.3598 1.6608 0l5.3899 3.916c.2215.1609.5194-.0556.4348-.3159l-2.0588-6.3363c-.1891-.582.0181-1.2197.5132-1.5794l5.39-3.91607c.2214-.16088.1076-.51112-.1661-.51112h-6.6623c-.6121 0-1.1545-.3941-1.3436-.97617zm-1.5214-6.5109c-.2537-.780936-1.3585-.780935-1.6123 0l-2.0587 6.33628c-.1135.34924-.439.5857-.8062.5857h-6.66236c-.82112 0-1.16252 1.05074-.49822 1.53338l5.38996 3.916c.29709.2159.42142.5985.30792.9477l-2.05878 6.3363c-.25374.7809.64007 1.4303 1.30437.9477l5.39001-3.9161c.297-.2158.6993-.2158.9964 0l5.39 3.9161c.6643.4826 1.5581-.1668 1.3043-.9477l-2.0587-6.3363c-.1135-.3492.0108-.7318.3079-.9477l5.3899-3.916c.6643-.48264.3229-1.53338-.4982-1.53338h-6.6623c-.3673 0-.6927-.23646-.8062-.5857z"/><path d="m5.85705.117188c.15604 0 .28254.126499.28254.282544v2.012978c0 .15604-.1265.28254-.28254.28254-.15605 0-.28255-.1265-.28255-.28254v-2.012978c0-.156045.1265-.282544.28255-.282544zm-2.91039 3.142322c0-.15605.12649-.28255.28254-.28255h1.87064c.15604 0 .28254.1265.28254.28255 0 .15604-.1265.28254-.28254.28254h-1.87064c-.15605 0-.28254-.1265-.28254-.28254zm3.3298 0c0-.15605.1265-.28255.28254-.28255h1.73313c.15605 0 .28254.1265.28254.28255 0 .15604-.12649.28254-.28254.28254h-1.73313c-.15604 0-.28254-.1265-.28254-.28254zm-.41941.55829c.15604 0 .28254.1265.28254.28255v1.96698c0 .15604-.1265.28254-.28254.28254-.15605 0-.28255-.1265-.28255-.28254v-1.96698c0-.15605.1265-.28255.28255-.28255z"/><path d="m28.05 13.0918c.1561 0 .2826.1265.2826.2825v2.013c0 .1561-.1265.2826-.2826.2826-.156 0-.2825-.1265-.2825-.2826v-2.013c0-.156.1265-.2825.2825-.2825zm-2.9104 3.1423c0-.156.1265-.2825.2826-.2825h1.8706c.1561 0 .2826.1265.2826.2825 0 .1561-.1265.2826-.2826.2826h-1.8706c-.1561 0-.2826-.1265-.2826-.2826zm3.3299 0c0-.156.1265-.2825.2825-.2825h1.7331c.1561 0 .2826.1265.2826.2825 0 .1561-.1265.2826-.2826.2826h-1.7331c-.156 0-.2825-.1265-.2825-.2826zm-.4195.5583c.1561 0 .2826.1265.2826.2826v1.9669c0 .1561-.1265.2826-.2826.2826-.156 0-.2825-.1265-.2825-.2826v-1.9669c0-.1561.1265-.2826.2825-.2826z"/><path d="m3.04296 14.4004c.15605 0 .28254.1265.28254.2825v2.013c0 .1561-.12649.2826-.28254.2826-.15604 0-.28254-.1265-.28254-.2826v-2.013c0-.156.1265-.2825.28254-.2825zm-2.910392 3.1423c0-.156.1265-.2825.282544-.2825h1.870638c.15604 0 .28254.1265.28254.2825 0 .1561-.1265.2826-.28254.2826h-1.870638c-.156044 0-.282544-.1265-.282544-.2826zm3.329802 0c0-.156.1265-.2825.28254-.2825h1.73313c.15605 0 .28255.1265.28255.2825 0 .1561-.1265.2826-.28255.2826h-1.73313c-.15604 0-.28254-.1265-.28254-.2826zm-.41941.5583c.15605 0 .28254.1265.28254.2826v1.9669c0 .1561-.12649.2826-.28254.2826-.15604 0-.28254-.1265-.28254-.2826v-1.9669c0-.1561.1265-.2826.28254-.2826z"/><path d="m25.2361.117188c.156 0 .2825.126499.2825.282544v2.012978c0 .15604-.1265.28254-.2825.28254-.1561 0-.2826-.1265-.2826-.28254v-2.012978c0-.156045.1265-.282544.2826-.282544zm-2.9104 3.142322c0-.15605.1265-.28255.2825-.28255h1.8707c.156 0 .2825.1265.2825.28255 0 .15604-.1265.28254-.2825.28254h-1.8707c-.156 0-.2825-.1265-.2825-.28254zm3.3298 0c0-.15605.1265-.28255.2825-.28255h1.7332c.156 0 .2825.1265.2825.28255 0 .15604-.1265.28254-.2825.28254h-1.7332c-.156 0-.2825-.1265-.2825-.28254zm-.4194.55829c.156 0 .2825.1265.2825.28255v1.96698c0 .15604-.1265.28254-.2825.28254-.1561 0-.2826-.1265-.2826-.28254v-1.96698c0-.15605.1265-.28255.2826-.28255z"/><path d="m15.0964 20.9492c.1561 0 .2826.1265.2826.2826v2.0129c0 .1561-.1265.2826-.2826.2826-.156 0-.2825-.1265-.2825-.2826v-2.0129c0-.1561.1265-.2826.2825-.2826zm-2.9104 3.1423c0-.156.1265-.2825.2826-.2825h1.8706c.1561 0 .2826.1265.2826.2825 0 .1561-.1265.2826-.2826.2826h-1.8706c-.1561 0-.2826-.1265-.2826-.2826zm3.3298 0c0-.156.1265-.2825.2826-.2825h1.7331c.1561 0 .2826.1265.2826.2825 0 .1561-.1265.2826-.2826.2826h-1.7331c-.1561 0-.2826-.1265-.2826-.2826zm-.4194.5583c.1561 0 .2826.1265.2826.2826v1.967c0 .156-.1265.2825-.2826.2825-.156 0-.2825-.1265-.2825-.2825v-1.967c0-.1561.1265-.2826.2825-.2826z"/></g></svg>