<svg width="174" height="72" viewBox="0 0 174 72" fill="none" xmlns="http://www.w3.org/2000/svg">
<path d="M173.851 62.5039C173.851 67.4561 134.966 71.4707 86.9995 71.4707C39.033 71.4707 0.148438 67.4561 0.148438 62.5039C0.148438 57.5517 39.033 53.5371 86.9995 53.5371C134.966 53.5371 173.851 57.5517 173.851 62.5039Z" fill="url(#paint0_radial_6032_92119)"/>
<path d="M61.0994 13.248L56.334 14.5371C57.8795 18.533 59.1675 19.3064 60.8418 20.0798L64.5769 18.9197L62.001 16.0839L61.0994 13.248Z" fill="#AE82FC"/>
<path fill-rule="evenodd" clip-rule="evenodd" d="M55.6593 14.0274C55.798 14.01 55.9245 14.1085 55.9418 14.2473C56.0032 14.7384 56.2849 16.0566 57.0198 17.3085C57.7523 18.5564 58.918 19.713 60.7471 19.9571C60.8857 19.9756 60.9831 20.103 60.9646 20.2417C60.9461 20.3804 60.8188 20.4778 60.6802 20.4593C58.6454 20.1878 57.3641 18.8953 56.5833 17.5652C55.8048 16.2391 55.5069 14.8503 55.4395 14.3102C55.4221 14.1713 55.5205 14.0447 55.6593 14.0274Z" fill="black"/>
<path fill-rule="evenodd" clip-rule="evenodd" d="M60.83 13.1861C60.8639 13.3218 60.7815 13.4594 60.6459 13.4933C59.1435 13.8692 58.1251 14.1755 56.8271 14.5658C56.3505 14.7091 55.8363 14.8638 55.2465 15.0374C55.1124 15.0769 54.9717 15.0001 54.9322 14.8658C54.8928 14.7316 54.9695 14.5908 55.1036 14.5513C55.6872 14.3795 56.1984 14.2258 56.6736 14.0829C57.9759 13.6913 59.0084 13.3808 60.5231 13.0018C60.6587 12.9678 60.7961 13.0504 60.83 13.1861Z" fill="black"/>
<path fill-rule="evenodd" clip-rule="evenodd" d="M60.4356 12.6083C60.5749 12.5968 60.6971 12.7006 60.7085 12.84C60.9034 15.2163 61.9447 16.9538 64.1012 18.8581C64.206 18.9507 64.216 19.1107 64.1235 19.2157C64.0311 19.3206 63.8711 19.3306 63.7663 19.238C61.5437 17.2753 60.4126 15.4254 60.204 12.8815C60.1925 12.7421 60.2962 12.6197 60.4356 12.6083Z" fill="black"/>
<path fill-rule="evenodd" clip-rule="evenodd" d="M64.3 18.7039C64.3478 18.8354 64.28 18.9808 64.1487 19.0286C63.4371 19.2876 62.7582 19.514 62.0829 19.7393L62.0815 19.7398C61.4049 19.9655 60.7319 20.1901 60.0272 20.4465C59.8958 20.4943 59.7506 20.4265 59.7028 20.295C59.655 20.1635 59.7228 20.0182 59.8542 19.9703C60.5658 19.7114 61.2447 19.4849 61.92 19.2596L61.9214 19.2591C62.598 19.0334 63.271 18.8089 63.9756 18.5524C64.107 18.5046 64.2523 18.5724 64.3 18.7039Z" fill="black"/>
<path d="M119.315 13.6173L121.775 17.8997C125.242 15.3849 125.662 13.9413 125.982 12.1239L123.91 8.80565L121.826 12.0216L119.315 13.6173Z" fill="#FF479F"/>
<path fill-rule="evenodd" clip-rule="evenodd" d="M121.455 18.6834C121.403 18.5536 121.466 18.4061 121.596 18.3539C122.055 18.1692 123.257 17.5603 124.279 16.5299C125.299 15.5028 126.119 14.0798 125.889 12.2478C125.872 12.1091 125.97 11.9823 126.109 11.9648C126.248 11.9473 126.374 12.0456 126.392 12.1844C126.648 14.2224 125.725 15.7919 124.639 16.8867C123.555 17.9782 122.289 18.6208 121.784 18.8239C121.655 18.8761 121.507 18.8132 121.455 18.6834Z" fill="black"/>
<path fill-rule="evenodd" clip-rule="evenodd" d="M119.325 13.894C119.447 13.8266 119.601 13.8713 119.669 13.9939C120.415 15.3518 120.97 16.259 121.678 17.4154C121.938 17.84 122.219 18.2982 122.537 18.8246C122.609 18.9443 122.571 19.1001 122.451 19.1725C122.331 19.2449 122.176 19.2066 122.103 19.0869C121.789 18.566 121.51 18.1106 121.251 17.6872C120.54 16.527 119.977 15.6071 119.225 14.2381C119.157 14.1155 119.202 13.9615 119.325 13.894Z" fill="black"/>
<path fill-rule="evenodd" clip-rule="evenodd" d="M118.867 14.4214C118.821 14.2895 118.89 14.1448 119.022 14.0982C121.268 13.3034 122.682 11.8527 123.973 9.2806C124.036 9.15557 124.188 9.10506 124.313 9.16777C124.438 9.23048 124.488 9.38268 124.425 9.50771C123.095 12.1587 121.595 13.7248 119.19 14.5757C119.059 14.6224 118.914 14.5533 118.867 14.4214Z" fill="black"/>
<path fill-rule="evenodd" clip-rule="evenodd" d="M123.771 9.12888C123.886 9.04909 124.044 9.07758 124.124 9.19251C124.555 9.815 124.947 10.4141 125.337 11.0101L125.338 11.0113C125.728 11.6084 126.117 12.2024 126.544 12.8188C126.624 12.9337 126.595 13.0916 126.48 13.1714C126.365 13.2511 126.208 13.2226 126.128 13.1077C125.696 12.4852 125.305 11.8861 124.915 11.2901L124.914 11.2889C124.523 10.6918 124.135 10.0979 123.707 9.48143C123.628 9.36651 123.656 9.20866 123.771 9.12888Z" fill="black"/>
<path d="M111.627 34.6424C112.321 34.245 114.149 31.9105 114.976 30.793C116.763 31.5877 120.353 32.2003 121.925 32.4072C118.202 33.3179 110.932 35.0397 111.627 34.6424Z" fill="#FFC100"/>
<path fill-rule="evenodd" clip-rule="evenodd" d="M114.52 30.108C114.651 30.1571 114.717 30.3031 114.668 30.4342C114.339 31.3117 113.779 32.0535 113.156 32.7271C112.786 33.1283 112.376 33.5211 111.977 33.9038C111.718 34.1525 111.463 34.397 111.226 34.6367C111.128 34.7362 110.967 34.737 110.868 34.6386C110.769 34.5403 110.768 34.3799 110.866 34.2804C111.125 34.0183 111.387 33.767 111.649 33.5169C112.035 33.1465 112.419 32.7788 112.785 32.383C113.387 31.7313 113.898 31.0459 114.194 30.2562C114.243 30.1252 114.389 30.0589 114.52 30.108Z" fill="black"/>
<path fill-rule="evenodd" clip-rule="evenodd" d="M114.199 30.2385C114.258 30.1116 114.409 30.0565 114.536 30.1154C116.489 31.0231 119.508 31.7856 121.682 31.7856C121.822 31.7856 121.935 31.899 121.935 32.0389C121.935 32.1788 121.822 32.2923 121.682 32.2923C119.423 32.2923 116.331 31.5085 114.322 30.575C114.196 30.516 114.141 30.3654 114.199 30.2385Z" fill="black"/>
<path fill-rule="evenodd" clip-rule="evenodd" d="M122.176 32.0105C122.192 32.1496 122.091 32.2748 121.953 32.2903C120.07 32.4997 118.176 32.9492 116.28 33.4549C115.712 33.6064 115.143 33.7632 114.574 33.92C113.25 34.285 111.926 34.6498 110.618 34.9471C110.481 34.9781 110.346 34.8926 110.315 34.7562C110.284 34.6197 110.369 34.484 110.506 34.453C111.802 34.1583 113.108 33.7985 114.427 33.435C114.999 33.2775 115.573 33.1193 116.15 32.9654C118.051 32.458 119.975 32.0005 121.897 31.7867C122.036 31.7713 122.161 31.8715 122.176 32.0105Z" fill="black"/>
<path d="M77.1809 1.43138C76.9339 2.1932 78.0405 5.80132 78.8772 7.40314C77.0211 8.01834 72.3663 9.1142 71.0645 10.0194C73.2062 6.83927 77.4278 0.669552 77.1809 1.43138Z" fill="#00ADE4"/>
<path fill-rule="evenodd" clip-rule="evenodd" d="M79.6624 7.6765C79.5326 7.7283 79.3853 7.66493 79.3336 7.53496C78.6716 5.87242 77.7399 3.10821 77.2838 0.828717C77.2563 0.69153 77.3452 0.558036 77.4823 0.530549C77.6193 0.503062 77.7527 0.591992 77.7802 0.729179C78.2283 2.96845 79.1487 5.70176 79.8039 7.34737C79.8556 7.47734 79.7923 7.6247 79.6624 7.6765Z" fill="black"/>
<path fill-rule="evenodd" clip-rule="evenodd" d="M79.8914 7.37185C79.9096 7.51056 79.8121 7.63781 79.6735 7.65607C78.3008 7.83691 76.6872 8.14287 75.2166 8.58724C73.7378 9.03408 72.4367 9.61137 71.6604 10.318C71.557 10.4121 71.3969 10.4045 71.3028 10.301C71.2088 10.1975 71.2164 10.0373 71.3198 9.94313C72.183 9.15752 73.5748 8.55409 75.0703 8.10221C76.5739 7.64787 78.2156 7.33711 79.6074 7.15375C79.746 7.13549 79.8732 7.23314 79.8914 7.37185Z" fill="black"/>
<path fill-rule="evenodd" clip-rule="evenodd" d="M71.1447 10.4827C71.0398 10.3903 71.0297 10.2302 71.1221 10.1252C72.3744 8.70233 73.4732 7.09474 74.536 5.44385C74.8542 4.94942 75.1698 4.4503 75.4853 3.95125C76.2196 2.78959 76.9538 1.62829 77.7219 0.527287C77.8019 0.412569 77.9597 0.384496 78.0743 0.464585C78.1889 0.544674 78.217 0.702596 78.137 0.817314C77.3757 1.90852 76.6516 3.05393 75.9201 4.21103C75.6032 4.71239 75.2848 5.21594 74.9615 5.71823C73.8955 7.37422 72.7802 9.00781 71.5019 10.4601C71.4095 10.5651 71.2496 10.5752 71.1447 10.4827Z" fill="black"/>
<path d="M44.5687 53.7275C43.0024 53.1623 41.1369 53.1551 37.7051 54.5862C41.7089 58.0208 43.8726 59.0934 44.5687 60.883H49.1445C49.1445 60.883 47.7146 57.4484 44.5687 53.7275Z" fill="#01C9CC"/>
<path fill-rule="evenodd" clip-rule="evenodd" d="M35.167 53.9367C35.2168 53.8059 35.3631 53.7403 35.4937 53.7901C37.0936 54.4001 38.8421 55.6804 40.3313 57.2112C41.8206 58.7423 43.0744 60.5486 43.6639 62.2308C43.7102 62.3628 43.6407 62.5074 43.5088 62.5537C43.3769 62.6 43.2325 62.5305 43.1862 62.3985C42.6288 60.8081 41.4261 59.063 39.9685 57.5647C38.5108 56.0661 36.822 54.8387 35.3135 54.2636C35.1828 54.2138 35.1173 54.0674 35.167 53.9367Z" fill="black"/>
<path fill-rule="evenodd" clip-rule="evenodd" d="M42.5609 53.419C42.5967 53.5543 42.5161 53.693 42.381 53.7288C40.6095 54.1981 38.8353 54.6567 37.0618 55.1152C36.575 55.241 36.0883 55.3668 35.6018 55.4928C35.4664 55.5279 35.3283 55.4465 35.2933 55.311C35.2583 55.1756 35.3396 55.0374 35.4749 55.0023C35.962 54.8762 36.449 54.7503 36.936 54.6244C38.7093 54.166 40.4816 53.7078 42.2514 53.239C42.3866 53.2032 42.5251 53.2838 42.5609 53.419Z" fill="black"/>
<path fill-rule="evenodd" clip-rule="evenodd" d="M41.4936 52.7121C41.5799 52.602 41.739 52.5829 41.849 52.6694C45.3947 55.4576 47.277 58.8444 48.4253 61.5261C48.4804 61.6547 48.4209 61.8036 48.2924 61.8587C48.1639 61.9138 48.0151 61.8543 47.96 61.7257C46.83 59.0869 44.9906 55.7842 41.5362 53.0678C41.4263 52.9813 41.4072 52.8221 41.4936 52.7121Z" fill="black"/>
<path fill-rule="evenodd" clip-rule="evenodd" d="M49.5014 61.3348C46.7006 61.3348 43.9146 61.4614 41.1099 61.6058C40.9703 61.613 40.8513 61.5055 40.8441 61.3658C40.8369 61.2261 40.9443 61.107 41.0839 61.0998C43.8894 60.9553 46.6866 60.8281 49.5014 60.8281C49.6412 60.8281 49.7546 60.9415 49.7546 61.0815C49.7546 61.2214 49.6412 61.3348 49.5014 61.3348Z" fill="black"/>
<path d="M31.9313 16.8017C33.4976 16.2366 35.3631 16.2293 38.7949 17.6604C34.7911 21.095 32.6274 22.1676 31.9313 23.9572H27.3555C27.3555 23.9572 28.7854 20.5226 31.9313 16.8017Z" fill="#EE8625"/>
<path fill-rule="evenodd" clip-rule="evenodd" d="M41.333 17.0109C41.2832 16.8801 41.1369 16.8145 41.0063 16.8643C39.4064 17.4743 37.6579 18.7546 36.1687 20.2855C34.6794 21.8166 33.4256 23.6228 32.8361 25.305C32.7898 25.437 32.8593 25.5816 32.9912 25.6279C33.1231 25.6742 33.2675 25.6047 33.3138 25.4727C33.8712 23.8823 35.0739 22.1373 36.5315 20.6389C37.9892 19.1403 39.678 17.913 41.1865 17.3378C41.3172 17.288 41.3827 17.1416 41.333 17.0109Z" fill="black"/>
<path fill-rule="evenodd" clip-rule="evenodd" d="M33.9391 16.4933C33.9033 16.6285 33.9839 16.7672 34.119 16.803C35.8905 17.2723 37.6647 17.7309 39.4382 18.1894C39.925 18.3152 40.4117 18.441 40.8982 18.567C41.0336 18.6021 41.1717 18.5207 41.2067 18.3852C41.2417 18.2498 41.1604 18.1116 41.0251 18.0765C40.538 17.9504 40.051 17.8245 39.564 17.6986C37.7907 17.2402 36.0184 16.7821 34.2486 16.3132C34.1134 16.2774 33.9749 16.358 33.9391 16.4933Z" fill="black"/>
<path fill-rule="evenodd" clip-rule="evenodd" d="M35.0064 15.7863C34.9201 15.6763 34.7609 15.6572 34.651 15.7436C31.1053 18.5318 29.223 21.9186 28.0747 24.6003C28.0196 24.7289 28.0791 24.8778 28.2076 24.9329C28.3361 24.9881 28.4849 24.9285 28.54 24.7999C29.67 22.1611 31.5094 18.8584 34.9638 16.142C35.0737 16.0556 35.0928 15.8963 35.0064 15.7863Z" fill="black"/>
<path fill-rule="evenodd" clip-rule="evenodd" d="M26.9986 24.409C29.7994 24.409 32.5854 24.5356 35.3901 24.68C35.5297 24.6872 35.6487 24.5798 35.6559 24.44C35.6631 24.3003 35.5557 24.1812 35.4161 24.174C32.6106 24.0296 29.8134 23.9023 26.9986 23.9023C26.8588 23.9023 26.7454 24.0158 26.7454 24.1557C26.7454 24.2956 26.8588 24.409 26.9986 24.409Z" fill="black"/>
<path d="M130.585 58.9043L126.748 60.5134L132.743 61.8299L137.779 58.9043H130.585Z" fill="#4DC952"/>
<path fill-rule="evenodd" clip-rule="evenodd" d="M131.104 58.4179C131.145 58.5518 131.07 58.6933 130.936 58.734C129.424 59.1947 127.919 59.6748 126.417 60.1732C126.284 60.2172 126.141 60.1452 126.097 60.0124C126.053 59.8795 126.125 59.7362 126.258 59.6922C127.764 59.1927 129.272 58.7113 130.789 58.2493C130.922 58.2086 131.064 58.2841 131.104 58.4179Z" fill="black"/>
<path fill-rule="evenodd" clip-rule="evenodd" d="M126.092 59.6646C126.126 59.5289 126.263 59.4463 126.399 59.4803C126.64 59.5407 126.912 59.615 127.209 59.6962C127.948 59.8984 128.845 60.1438 129.829 60.3261C131.203 60.5808 132.707 60.7034 134.1 60.4047C134.237 60.3754 134.371 60.4625 134.401 60.5993C134.43 60.7361 134.343 60.8708 134.206 60.9001C132.719 61.219 131.139 61.0843 129.736 60.8243C128.73 60.6379 127.796 60.3824 127.052 60.1788C126.762 60.0996 126.501 60.0282 126.276 59.9718C126.14 59.9379 126.058 59.8003 126.092 59.6646Z" fill="black"/>
<path fill-rule="evenodd" clip-rule="evenodd" d="M129.172 58.4582C129.191 58.3195 129.318 58.222 129.457 58.2405C130.26 58.3477 130.963 58.4544 131.618 58.5536C133.494 58.8381 134.968 59.0617 137.239 59.0617C137.379 59.0617 137.492 59.1752 137.492 59.3151C137.492 59.455 137.379 59.5684 137.239 59.5684C134.927 59.5684 133.407 59.3379 131.519 59.0514C130.869 58.9528 130.175 58.8475 129.39 58.7428C129.251 58.7243 129.154 58.5968 129.172 58.4582Z" fill="black"/>
<path fill-rule="evenodd" clip-rule="evenodd" d="M137.372 58.8129C137.422 58.9434 137.357 59.09 137.226 59.1402C136.732 59.3304 136.287 59.5033 135.869 59.6653C134.268 60.287 133.081 60.7476 131.149 61.4079C131.017 61.4532 130.873 61.3825 130.828 61.2501C130.783 61.1177 130.854 60.9737 130.986 60.9285C132.907 60.2717 134.083 59.8151 135.683 59.1942C136.101 59.0319 136.548 58.8585 137.045 58.6673C137.175 58.6171 137.321 58.6823 137.372 58.8129Z" fill="black"/>
<path d="M141.64 34.1888C139.949 33.5785 135.607 32.2969 135.156 32.0527C134.254 34.2498 135.532 38.6643 136.284 40.5969C137.787 42.1227 141.415 45.2352 140.512 43.0381C139.61 40.841 140.888 36.0197 141.64 34.1888Z" fill="#3E7BFA"/>
<path fill-rule="evenodd" clip-rule="evenodd" d="M134.193 31.5692C134.331 31.59 134.426 31.719 134.406 31.8574C133.903 35.21 134.639 38.3027 136.139 41.3782C136.201 41.504 136.149 41.6557 136.023 41.7171C135.897 41.7785 135.746 41.7263 135.685 41.6006C134.152 38.4604 133.383 35.263 133.905 31.7822C133.926 31.6438 134.055 31.5485 134.193 31.5692Z" fill="black"/>
<path fill-rule="evenodd" clip-rule="evenodd" d="M141.031 32.7482C141.145 32.8278 141.174 32.9856 141.095 33.1007C138.862 36.3287 138.936 39.8585 139.815 43.5936C139.847 43.7298 139.763 43.8662 139.627 43.8983C139.491 43.9304 139.355 43.846 139.323 43.7098C138.429 39.9161 138.326 36.2128 140.678 32.8123C140.758 32.6972 140.916 32.6686 141.031 32.7482Z" fill="black"/>
<path fill-rule="evenodd" clip-rule="evenodd" d="M132.6 30.9991C132.649 30.8679 132.794 30.8012 132.925 30.85C133.629 31.1119 134.339 31.3681 135.051 31.6251C137.147 32.3815 139.261 33.1447 141.287 34.0806C141.414 34.1392 141.47 34.2897 141.411 34.4168C141.353 34.5438 141.202 34.5992 141.075 34.5406C139.071 33.6147 136.986 32.8622 134.896 32.1078C134.18 31.8494 133.463 31.5907 132.749 31.3248C132.618 31.276 132.551 31.1302 132.6 30.9991Z" fill="black"/>
<path fill-rule="evenodd" clip-rule="evenodd" d="M133.485 39.4815C133.543 39.3539 133.692 39.297 133.82 39.3544C135.894 40.2886 137.765 41.4407 139.648 42.6009C140.2 42.9406 140.753 43.2811 141.312 43.617C141.432 43.689 141.471 43.8446 141.399 43.9645C141.327 44.0845 141.172 44.1234 141.052 44.0514C140.481 43.709 139.922 43.3643 139.366 43.022C137.487 41.8651 135.654 40.7359 133.612 39.8164C133.485 39.759 133.428 39.6091 133.485 39.4815Z" fill="black"/>
<path d="M77.2827 33.5465C80.3007 32.8495 83.0867 34.8051 84.1024 35.87L85.8717 38.2117L82.3766 50.4546C81.1939 50.6489 78.5194 50.9952 77.2827 50.8256C75.7368 50.6136 73.2152 49.7656 72.9504 55.2775C72.6857 60.7895 71.9972 62.5915 70.5674 63.1745C69.1376 63.7575 70.4615 60.4185 69.2965 58.4575C68.1314 56.4965 65.5366 56.9205 61.8297 56.4435C58.1228 55.9665 57.4873 54.3765 57.4343 52.6276C57.3814 50.8786 60.9294 47.6986 59.9762 45.9496C59.023 44.2006 56.8237 45.0188 53.1962 42.4049C49.5687 39.791 52.1805 37.7579 53.1962 34.9987C53.412 34.4125 53.451 33.5837 53.3645 32.653C53.3083 32.6124 53.2522 32.5714 53.1962 32.53C51.6001 30.4969 48.6982 26.1984 49.8589 25.269C51.0016 24.3541 53.0442 29.2034 53.3645 32.653C56.6556 35.0277 60.2413 35.87 64.9492 35.87C69.7375 35.87 73.5101 34.4178 77.2827 33.5465Z" fill="#EE5F54"/>
<path d="M78.0255 41.8903C78.9602 40.1128 83.595 38.4601 85.7956 37.8559C86.9834 37.0568 90.5276 35.868 95.2013 37.5051C101.043 39.5515 103.731 41.5395 103.731 43.352C103.731 45.1646 98.4145 47.7372 99.4076 47.211C100.401 46.6848 100.634 44.8722 100.576 43.7613C100.529 42.8726 98.3755 42.1437 97.3045 41.8903C99.5439 48.9846 103.964 63.1147 103.731 62.8808C103.439 62.5885 96.2529 53.7596 91.9297 52.064C87.6065 50.3684 80.3039 62.0622 78.6681 63.1732C77.0323 64.2841 78.0255 61.4191 78.6681 59.8989C79.1822 58.6827 82.5044 50.9336 84.1013 47.211V41.8903C84.1013 41.559 83.6105 41.3875 81.6476 43.352C79.6846 45.3166 81.8812 46.7433 83.2249 47.211C83.6339 47.5618 83.7625 47.9477 81.005 46.6848C77.5581 45.1061 76.8571 44.1121 78.0255 41.8903Z" fill="white"/>
<path d="M96.9447 33.2129C96.9447 36.0391 94.0054 38.3301 90.3796 38.3301C86.7538 38.3301 83.8145 36.0391 83.8145 33.2129C83.8145 30.3868 86.7538 28.0957 90.3796 28.0957C94.0054 28.0957 96.9447 30.3868 96.9447 33.2129Z" fill="white"/>
<path d="M91.1319 44.2879C89.0417 42.9895 86.7173 39.2685 85.8164 37.5703L89.2399 39.1483L91.1319 43.9723L92.168 43.6117C92.8167 42.8542 93.5795 39.7494 93.8798 38.2917L95.0511 37.5703L96.7178 38.2917C96.5016 39.9868 93.8648 42.9955 92.5735 44.2879H91.1319Z" fill="#EE5F54"/>
<path d="M93.3735 45.4356C93.3735 46.4453 92.8063 47.2638 92.1067 47.2638C91.407 47.2638 90.8398 46.4453 90.8398 45.4356C90.8398 44.4259 91.407 43.6074 92.1067 43.6074C92.8063 43.6074 93.3735 44.4259 93.3735 45.4356Z" fill="#FDD13B"/>
<path fill-rule="evenodd" clip-rule="evenodd" d="M50.1517 26.0229C50.4647 26.8141 51.0076 27.923 51.8562 29.4092C52.2022 30.0152 52.6904 30.6199 53.2965 31.202C53.2666 30.9473 53.2245 30.6928 53.1718 30.4398C52.8059 28.6834 51.9335 27.0278 51.119 25.9305C50.7098 25.3793 50.3278 24.9859 50.0458 24.7896C49.9344 24.7121 49.859 24.6798 49.8166 24.6684C49.8037 24.7322 49.8026 24.8608 49.8491 25.0818C49.8985 25.3165 49.9951 25.627 50.1517 26.0229ZM53.8456 31.696C53.8229 31.2387 53.7604 30.7831 53.6674 30.3364C53.2837 28.4944 52.3746 26.7723 51.5254 25.6283C51.1026 25.0588 50.6822 24.6155 50.3349 24.3737C50.1678 24.2574 49.9809 24.1612 49.799 24.1564C49.6998 24.1538 49.5945 24.1786 49.5038 24.249C49.4149 24.3179 49.3633 24.4126 49.3353 24.5079C49.2822 24.6884 49.2982 24.922 49.3538 25.1862C49.4111 25.4589 49.5185 25.7984 49.681 26.2094C50.0063 27.0318 50.5621 28.1639 51.4166 29.6606C51.8641 30.4443 52.5239 31.2143 53.3478 31.9359C53.3734 33.1991 53.0616 34.4383 52.2225 35.5023C51.3424 36.6183 51.2114 38.1139 51.6141 39.4069C52.0166 40.6993 52.9674 41.8359 54.3085 42.2076C57.5091 43.0946 59.0958 43.9895 59.7763 44.8552C60.1077 45.2768 60.2245 45.6923 60.2092 46.1115C60.1937 46.5395 60.0399 46.9879 59.7992 47.4657C59.5717 47.9172 59.2767 48.376 58.9691 48.8544C58.951 48.8826 58.9328 48.9108 58.9146 48.9392C58.5911 49.4428 58.2584 49.967 58.0041 50.5014C57.7495 51.0365 57.5659 51.5968 57.5509 52.176C57.5357 52.7609 57.693 53.3502 58.0961 53.937C58.7638 54.909 59.8561 55.3898 61.0698 55.6688C61.991 55.8806 63.0185 55.983 64.028 56.0837C64.3446 56.1152 64.6594 56.1466 64.9686 56.1811C66.2823 56.3278 67.499 56.531 68.4321 57.019C69.3449 57.4965 69.9893 58.2474 70.1678 59.531C70.1978 59.7466 70.2056 59.9706 70.2101 60.2068C70.2108 60.2432 70.2115 60.28 70.2121 60.3172C70.2154 60.5162 70.2189 60.7242 70.2355 60.9276C70.2753 61.4159 70.3928 61.9221 70.795 62.3557C70.9543 62.5274 71.1626 62.6067 71.3888 62.5476C71.5866 62.4959 71.7551 62.3482 71.8945 62.1805C72.1783 61.8391 72.45 61.2804 72.6858 60.6307C73.1602 59.3233 73.5262 57.5408 73.5262 56.0935C73.5262 53.71 73.8087 52.3097 74.2736 51.4955C74.5021 51.0952 74.7737 50.8387 75.08 50.6728C75.3893 50.5053 75.7489 50.4223 76.164 50.393C76.5807 50.3636 77.0405 50.3889 77.5468 50.4295C77.6746 50.4398 77.8056 50.451 77.9391 50.4625C78.3288 50.4959 78.7411 50.5313 79.1643 50.5497C80.307 50.5993 81.5683 50.5278 82.867 49.9626C82.9952 49.9069 83.054 49.7576 82.9982 49.6293C82.9425 49.501 82.7934 49.4422 82.6652 49.498C81.466 50.0198 80.2918 50.0915 79.1862 50.0435C78.7747 50.0256 78.378 49.9916 77.9911 49.9584C77.8553 49.9467 77.7208 49.9352 77.5873 49.9245C77.0787 49.8837 76.5861 49.8553 76.1284 49.8876C75.6691 49.92 75.2324 50.0142 74.839 50.2272C74.4426 50.4419 74.1052 50.7692 73.8341 51.2441C73.2997 52.1799 73.02 53.6946 73.02 56.0935C73.02 57.4722 72.6678 59.196 72.21 60.4577C71.9796 61.0926 71.7317 61.5841 71.5053 61.8565C71.3897 61.9957 71.3056 62.0457 71.2609 62.0574L71.2596 62.0577C71.2434 62.062 71.2193 62.0684 71.166 62.0109C70.8746 61.6968 70.7756 61.323 70.7401 60.8864C70.7249 60.7008 70.7217 60.5118 70.7183 60.3125C70.7177 60.2744 70.717 60.236 70.7163 60.1971C70.7117 59.9593 70.7037 59.7091 70.6692 59.4611C70.4664 58.0029 69.7128 57.1172 68.6666 56.57C67.6406 56.0334 66.337 55.8241 65.0247 55.6776C64.7006 55.6414 64.3761 55.609 64.0536 55.5769C63.0518 55.4769 62.07 55.3789 61.1831 55.175C60.0143 54.9063 59.0737 54.4658 58.5132 53.6499C58.1697 53.1499 58.0446 52.6653 58.057 52.1892C58.0695 51.7074 58.2231 51.2195 58.4612 50.7192C58.6996 50.2182 59.015 49.7197 59.3405 49.2132C59.36 49.1827 59.3796 49.1523 59.3992 49.1218C59.7026 48.65 60.0112 48.17 60.2512 47.6939C60.5068 47.1865 60.6958 46.6623 60.7152 46.1299C60.7348 45.5888 60.5784 45.0562 60.1742 44.542C59.3835 43.536 57.6493 42.6078 54.4436 41.7193C53.3062 41.404 52.4616 40.4255 52.0974 39.2561C51.7334 38.0873 51.8643 36.7743 52.6199 35.8162L52.6199 35.8162C53.4502 34.7633 53.8043 33.5647 53.8501 32.3538C55.0897 33.3346 56.6317 34.2073 58.3441 34.8767C61.5276 36.1213 65.3408 36.6801 68.9822 35.907C68.9852 35.9064 68.9881 35.9057 68.9911 35.905C70.9263 35.4208 72.5884 34.8547 74.0497 34.357C74.2378 34.2929 74.4226 34.2299 74.6043 34.1685C76.2044 33.6267 77.5437 33.2035 78.7647 33.0896C79.9728 32.9769 81.0586 33.1683 82.1537 33.8604C83.2581 34.5586 84.389 35.7768 85.6582 37.7527C85.7338 37.8704 85.8904 37.9045 86.008 37.8288C86.1256 37.7532 86.1596 37.5964 86.084 37.4787C84.7968 35.4747 83.6179 34.1867 82.424 33.4321C81.2207 32.6715 80.0198 32.4636 78.7177 32.5851C77.4284 32.7053 76.0341 33.1495 74.4421 33.6885C74.2596 33.7503 74.0743 33.8134 73.8861 33.8775C72.4251 34.375 70.7843 34.9338 68.8727 35.4124C65.3476 36.1596 61.6375 35.6203 58.5283 34.4048C56.6932 33.6874 55.0816 32.7403 53.8456 31.696Z" fill="#181818"/>
<path fill-rule="evenodd" clip-rule="evenodd" d="M92.5572 29.1117C93.7253 29.5159 94.7496 30.1702 95.3835 31.0709C96.0212 31.9771 96.1995 33.0656 96.1089 34.1297C96.0183 35.1933 95.6583 36.2495 95.197 37.1165C94.616 38.2085 93.8484 38.8906 92.9204 39.2285C92.1113 39.5232 91.2024 39.5482 90.2254 39.3856C88.6544 39.2847 86.8062 38.6959 85.4197 37.5963C84.02 36.4863 83.0831 34.8455 83.4055 32.6793C83.7891 30.1011 86.2349 28.8465 88.7733 28.6464C90.053 28.5456 91.3869 28.7067 92.5572 29.1117ZM90.2929 38.8832C90.171 38.8626 90.0473 38.8389 89.9218 38.812C88.3123 38.4676 86.308 37.4849 85.1384 36.1862C84.556 35.5395 84.1981 34.8345 84.1724 34.1069C84.1469 33.3864 84.4457 32.5969 85.271 31.7708C85.3699 31.6719 85.3699 31.5115 85.271 31.4126C85.1721 31.3136 85.0119 31.3136 84.913 31.4126C84.4212 31.9048 84.085 32.4027 83.8866 32.8988C83.8924 32.8508 83.899 32.8025 83.9062 32.7539C84.2374 30.5281 86.3639 29.3445 88.813 29.1515C90.0271 29.0559 91.2909 29.2095 92.3918 29.5905C93.4949 29.9722 94.4154 30.5751 94.9696 31.3626C95.5197 32.1443 95.6882 33.1035 95.6045 34.0867C95.5207 35.0702 95.1853 36.0605 94.7502 36.8784C94.2185 37.8777 93.5402 38.4636 92.7473 38.7524C92.0423 39.0091 91.2241 39.0392 90.3003 38.8844C90.2979 38.884 90.2954 38.8836 90.2929 38.8832Z" fill="#181818"/>
<path fill-rule="evenodd" clip-rule="evenodd" d="M86.1049 37.5149C86.16 37.6435 86.1005 37.7925 85.972 37.8476C85.9009 37.8781 85.829 37.9089 85.7563 37.94C84.4816 38.4864 82.9876 39.1268 81.6166 39.8329C80.1608 40.5828 78.8758 41.3912 78.1389 42.2179C77.772 42.6295 77.5597 43.0251 77.5112 43.4018C77.4641 43.7679 77.5673 44.1509 77.9037 44.5575C78.2457 44.9708 78.8261 45.4037 79.7188 45.8436C80.6091 46.2823 81.7956 46.721 83.3342 47.1532C83.4688 47.191 83.5473 47.3309 83.5095 47.4656C83.4717 47.6003 83.332 47.6788 83.1974 47.641C81.6407 47.2037 80.4226 46.7551 79.4951 46.2981C78.5701 45.8423 77.9195 45.371 77.5138 44.8807C77.1026 44.3838 76.9413 43.8639 77.0091 43.337C77.0756 42.8206 77.3578 42.3331 77.7611 41.8806C78.5648 40.9789 79.9234 40.1352 81.3849 39.3824C82.7725 38.6677 84.2816 38.0209 85.5533 37.4759C85.6272 37.4442 85.7003 37.4129 85.7726 37.3819C85.9011 37.3268 86.0499 37.3863 86.1049 37.5149Z" fill="#181818"/>
<path fill-rule="evenodd" clip-rule="evenodd" d="M94.7792 37.3733C94.8272 37.2419 94.9726 37.1744 95.1039 37.2225C95.156 37.2417 95.2206 37.265 95.2963 37.2925C96.0907 37.5806 98.1182 38.3157 100.021 39.2411C101.061 39.7473 102.077 40.3162 102.836 40.9068C103.216 41.2021 103.54 41.5095 103.771 41.8248C104.002 42.1392 104.152 42.479 104.152 42.8333C104.152 42.854 104.15 42.8746 104.145 42.8947C104.03 43.3528 103.742 43.8135 103.379 44.2524C103.013 44.6944 102.556 45.1326 102.08 45.5452C101.604 45.9583 101.104 46.3503 100.651 46.6987C100.538 46.7858 100.428 46.8699 100.322 46.9509C100.002 47.196 99.7197 47.4119 99.4988 47.5939C99.3909 47.6829 99.2314 47.6674 99.1425 47.5594C99.0536 47.4514 99.0691 47.2918 99.177 47.2028C99.4056 47.0144 99.6986 46.7903 100.021 46.5434C100.126 46.4635 100.233 46.3812 100.343 46.2969C100.794 45.95 101.284 45.5654 101.749 45.1623C102.214 44.7587 102.648 44.3411 102.989 43.9292C103.322 43.5263 103.552 43.1458 103.646 42.8031C103.637 42.6025 103.548 42.3764 103.363 42.1245C103.17 41.8608 102.885 41.5862 102.526 41.3069C101.808 40.7482 100.829 40.1974 99.7995 39.6968C97.9227 38.784 95.9198 38.0576 95.1238 37.7689C95.0477 37.7413 94.9827 37.7177 94.9298 37.6983C94.7986 37.6502 94.7311 37.5047 94.7792 37.3733Z" fill="#181818"/>
<path fill-rule="evenodd" clip-rule="evenodd" d="M98.828 46.7206C98.9614 46.6789 99.1034 46.7533 99.145 46.8868L104.141 62.888C104.175 62.9989 104.13 63.1191 104.031 63.1797C103.932 63.2403 103.805 63.2257 103.722 63.1443C103.344 62.7725 102.743 62.0431 102.005 61.1474C101.927 61.0528 101.848 60.9563 101.767 60.8582C100.914 59.8236 99.8889 58.5911 98.787 57.3889C97.6844 56.186 96.5099 55.0193 95.3591 54.1145C94.2102 53.2113 93.1117 52.5909 92.1499 52.433C89.2181 52.4402 86.8319 54.0279 84.7039 56.1755C83.6385 57.2507 82.6456 58.4583 81.6864 59.665C81.472 59.9346 81.2592 60.2044 81.0476 60.4727C80.3151 61.4013 79.5973 62.3113 78.8828 63.1302C78.6222 63.4288 78.4041 63.6342 78.2212 63.7337C78.13 63.7833 78.0112 63.8269 77.8833 63.8036C77.7381 63.7772 77.6472 63.6784 77.5987 63.579C77.5541 63.4875 77.5371 63.3824 77.5307 63.2862C77.5241 63.1862 77.5277 63.074 77.5376 62.9559C77.5575 62.7197 77.6046 62.436 77.6631 62.1342C78.1634 59.5517 79.2224 57.1935 80.2692 54.8624L80.2914 54.8131C81.3492 52.4573 82.391 50.1271 82.8769 47.5738C82.9031 47.4364 83.0356 47.3462 83.1729 47.3724C83.3103 47.3986 83.4004 47.5312 83.3742 47.6686C82.8754 50.2897 81.8074 52.673 80.7531 55.0208L80.7421 55.0453C79.6877 57.3932 78.6491 59.7061 78.1601 62.2306C78.1025 62.528 78.0596 62.7901 78.0421 62.9983C78.0334 63.1024 78.0315 63.1871 78.0358 63.2526C78.0359 63.2527 78.0359 63.2528 78.0359 63.2529C78.1367 63.1819 78.2882 63.0413 78.5015 62.7969C79.2069 61.9885 79.9141 61.0919 80.6451 60.1652C80.8579 59.8954 81.0728 59.623 81.2902 59.3496C82.2512 58.1406 83.2585 56.9147 84.3444 55.8187C86.5143 53.6289 89.0293 51.9263 92.17 51.9263C92.1832 51.9263 92.1964 51.9274 92.2095 51.9294C93.3066 52.1028 94.4961 52.7917 95.6719 53.7161C96.8536 54.6451 98.0491 55.8344 99.16 57.0464C100.272 58.2592 101.304 59.5006 102.157 60.5357C102.235 60.6304 102.312 60.7232 102.387 60.814C102.732 61.233 103.042 61.6091 103.31 61.9273L98.6618 47.0379C98.6201 46.9044 98.6945 46.7623 98.828 46.7206Z" fill="#181818"/>
<path fill-rule="evenodd" clip-rule="evenodd" d="M93.6995 32.2945C93.8255 32.234 93.9767 32.2872 94.0372 32.4133C94.2866 32.9333 94.2844 33.619 94.0638 34.2255C93.8413 34.8371 93.3837 35.4034 92.6809 35.6534C91.5908 36.0413 90.4058 35.7538 89.3564 35.3054C88.5845 34.9756 87.8472 34.5399 87.2467 34.1851C87.0318 34.0581 86.8344 33.9415 86.6592 33.8438C86.5371 33.7757 86.4933 33.6214 86.5614 33.4992C86.6294 33.3769 86.7836 33.3331 86.9057 33.4012C87.0992 33.5092 87.3088 33.633 87.5318 33.7647C88.1261 34.1159 88.8163 34.5237 89.5552 34.8394C90.5701 35.2731 91.6049 35.4986 92.5113 35.176C93.043 34.9869 93.4058 34.5534 93.5881 34.0521C93.7724 33.5456 93.7594 33.005 93.5808 32.6326C93.5203 32.5064 93.5734 32.3551 93.6995 32.2945Z" fill="#181818"/>
<path fill-rule="evenodd" clip-rule="evenodd" d="M84.0986 41.2173C84.1753 41.263 84.2222 41.3457 84.2223 41.435C84.2223 43.0593 84.0432 45.6844 83.6015 47.4523C83.5832 47.5257 83.5331 47.5871 83.4648 47.6196C83.3966 47.6521 83.3174 47.6525 83.2489 47.6205C82.418 47.2324 81.7563 46.7949 81.3044 46.3099C80.8499 45.8222 80.5983 45.2752 80.6205 44.683C80.6426 44.0948 80.9332 43.5087 81.4667 42.9354C82.0001 42.3624 82.7901 41.7864 83.8485 41.2123C83.9269 41.1697 84.022 41.1716 84.0986 41.2173ZM83.182 47.0246C83.5234 45.4796 83.6853 43.3761 83.712 41.8695C82.8755 42.3548 82.2586 42.828 81.8372 43.2808C81.3548 43.799 81.1424 44.2749 81.1264 44.702C81.1105 45.1252 81.2856 45.547 81.6746 45.9644C82.0188 46.3337 82.523 46.6905 83.182 47.0246Z" fill="#181818"/>
<path fill-rule="evenodd" clip-rule="evenodd" d="M96.9836 41.8318C97.0457 41.7598 97.1429 41.7288 97.2352 41.7514C98.7742 42.1284 99.7421 42.6387 100.298 43.2259C100.867 43.8263 100.988 44.4892 100.87 45.1021C100.755 45.7003 100.417 46.2397 100.086 46.6377C99.9193 46.8386 99.7502 47.0087 99.6039 47.1379C99.4637 47.2618 99.3279 47.3629 99.2284 47.4097C99.0941 47.473 98.9658 47.4351 98.8808 47.3824C98.8025 47.3339 98.7391 47.2621 98.689 47.1942C98.5864 47.0551 98.4841 46.855 98.3846 46.6281C98.1834 46.1691 97.9671 45.5369 97.7655 44.895C97.5632 44.2511 97.3729 43.5887 97.2244 43.066C97.2033 42.9916 97.183 42.9201 97.1637 42.852C97.115 42.6801 97.0722 42.5294 97.0366 42.406C96.9846 42.2265 96.9528 42.1232 96.9404 42.0925C96.9047 42.0044 96.9214 41.9037 96.9836 41.8318ZM97.5496 42.3581C97.5797 42.4631 97.6137 42.5833 97.6511 42.7151C97.6704 42.783 97.6905 42.8539 97.7114 42.9275C97.8597 43.4496 98.0484 44.1063 98.2484 44.7431C98.4491 45.382 98.6587 45.9922 98.8482 46.4246C98.9441 46.6434 99.0284 46.8012 99.0963 46.8932C99.097 46.8942 99.0978 46.8953 99.0985 46.8963C99.1425 46.8644 99.2001 46.8188 99.2689 46.7581C99.3961 46.6457 99.547 46.4942 99.6968 46.3139C99.9995 45.9493 100.28 45.4873 100.373 45.0065C100.462 44.5405 100.378 44.0468 99.9308 43.5744C99.5174 43.138 98.7816 42.7071 97.5496 42.3581Z" fill="#181818"/>
<path fill-rule="evenodd" clip-rule="evenodd" d="M85.4243 37.1948C85.545 37.1242 85.7 37.1649 85.7706 37.2857C87.0698 39.5117 88.4314 41.547 90.2524 43.354C90.7202 43.8183 91.1594 44.1655 91.7132 44.4759C91.8352 44.5442 91.8787 44.6986 91.8104 44.8207C91.7421 44.9427 91.5878 44.9863 91.4658 44.9179C90.8653 44.5814 90.3902 44.2044 89.8959 43.7138C88.0293 41.8616 86.6418 39.7828 85.3334 37.5413C85.2629 37.4205 85.3036 37.2654 85.4243 37.1948Z" fill="black"/>
<path fill-rule="evenodd" clip-rule="evenodd" d="M89.0198 38.7415C89.1503 38.6913 89.2967 38.7565 89.3469 38.8871C89.6116 39.5764 89.8707 40.2839 90.129 40.9892C90.3571 41.612 90.5846 42.2331 90.8146 42.8383C90.9779 43.2677 91.1452 43.6487 91.375 44.0252C91.4479 44.1446 91.4103 44.3005 91.2911 44.3735C91.1718 44.4464 91.016 44.4088 90.9431 44.2894C90.6903 43.8754 90.5102 43.4622 90.3415 43.0185C90.1023 42.3894 89.8759 41.7707 89.65 41.1536C89.3964 40.4607 89.1435 39.7699 88.8743 39.0689C88.8242 38.9383 88.8893 38.7917 89.0198 38.7415Z" fill="black"/>
<path fill-rule="evenodd" clip-rule="evenodd" d="M92.0553 43.2795C92.294 43.2744 92.5374 43.3515 92.7275 43.4899C92.9893 43.6805 93.1374 43.9532 93.2205 44.2255C93.3035 44.497 93.327 44.7842 93.3288 45.0296C93.3322 45.4614 93.2958 46.1932 93.079 46.7522C92.9708 47.0313 92.8029 47.3059 92.5345 47.4585C92.2973 47.5933 92.0216 47.6111 91.7197 47.5143C91.6927 47.5427 91.6587 47.5652 91.6192 47.5789C91.4871 47.6246 91.3429 47.5546 91.2972 47.4223C91.2823 47.3793 91.2674 47.3354 91.2524 47.2908C91.1483 47.2262 91.0432 47.1503 90.9474 47.0639C90.7637 46.8981 90.5854 46.667 90.554 46.3778C90.485 45.7425 90.6187 45.0582 90.7359 44.4584C90.7592 44.3389 90.7819 44.2228 90.8022 44.1111C90.8272 43.9734 90.959 43.8821 91.0965 43.9071C91.1189 43.9112 91.14 43.9181 91.1595 43.9273C91.222 43.8123 91.2957 43.7012 91.3819 43.595C91.5598 43.3758 91.8138 43.2847 92.0553 43.2795ZM91.6727 46.9463C91.6986 46.9595 91.7241 46.9717 91.7489 46.9829C92.017 47.1048 92.1785 47.0781 92.2845 47.0179C92.4056 46.949 92.5168 46.8015 92.6071 46.5688C92.7873 46.1042 92.8258 45.4538 92.8226 45.0335C92.8209 44.8128 92.7994 44.5798 92.7364 44.3736C92.6736 44.1681 92.575 44.0054 92.4297 43.8997C92.3289 43.8263 92.1939 43.7833 92.0662 43.7861C91.9412 43.7888 91.8405 43.8336 91.7748 43.9145C91.4302 44.3389 91.3297 44.894 91.3709 45.4994C91.4042 45.9897 91.5293 46.4923 91.6727 46.9463Z" fill="black"/>
<path fill-rule="evenodd" clip-rule="evenodd" d="M93.6325 37.8881C93.7576 37.8256 93.9096 37.8763 93.9721 38.0014C94.0902 38.2378 94.0973 38.5083 94.0769 38.7398C94.0603 38.9288 94.0218 39.1211 93.9905 39.2773C93.9833 39.3134 93.9764 39.3476 93.9704 39.3794C93.675 40.9186 93.1658 42.5637 92.2263 43.8733C92.1448 43.987 91.9867 44.013 91.8731 43.9314C91.7595 43.8498 91.7336 43.6915 91.8151 43.5779C92.6927 42.3545 93.1837 40.7923 93.4732 39.2838C93.4807 39.2447 93.4885 39.2054 93.4964 39.1658C93.5273 39.0111 93.5587 38.8537 93.5726 38.6954C93.5902 38.4956 93.5745 38.3385 93.5193 38.228C93.4568 38.1029 93.5075 37.9507 93.6325 37.8881Z" fill="black"/>
<path fill-rule="evenodd" clip-rule="evenodd" d="M96.7746 38.0846C96.9098 38.1202 96.9905 38.2587 96.955 38.394C96.833 38.8578 96.6536 39.2505 96.4055 39.6598C95.4166 41.2917 94.1773 42.6404 92.8452 43.9587C92.7458 44.0571 92.5855 44.0562 92.4872 43.9567C92.3889 43.8572 92.3898 43.6968 92.4892 43.5985C93.8122 42.2891 95.0163 40.9752 95.9726 39.3971C96.2003 39.0214 96.358 38.6735 96.4654 38.2651C96.501 38.1298 96.6394 38.049 96.7746 38.0846Z" fill="black"/>
<path fill-rule="evenodd" clip-rule="evenodd" d="M100.524 24.6665C100.531 24.5267 100.65 24.4191 100.789 24.4261C101.666 24.47 102.541 24.4903 103.419 24.4903C103.559 24.4903 103.672 24.6037 103.672 24.7436C103.672 24.8835 103.559 24.997 103.419 24.997C102.533 24.997 101.65 24.9765 100.764 24.9321C100.624 24.9252 100.517 24.8062 100.524 24.6665Z" fill="black"/>
<path fill-rule="evenodd" clip-rule="evenodd" d="M104.238 22.3112C104.37 22.2649 104.514 22.3344 104.56 22.4664C104.763 23.0454 104.897 23.5936 104.897 24.2272C104.897 24.3672 104.784 24.4806 104.644 24.4806C104.504 24.4806 104.391 24.3672 104.391 24.2272C104.391 23.6707 104.275 23.1821 104.083 22.6342C104.036 22.5021 104.106 22.3576 104.238 22.3112Z" fill="black"/>
<path fill-rule="evenodd" clip-rule="evenodd" d="M105.487 24.6606C105.497 24.521 105.619 24.4162 105.758 24.4265C106.395 24.4733 107.031 24.4903 107.673 24.4903C107.813 24.4903 107.926 24.6037 107.926 24.7436C107.926 24.8835 107.813 24.997 107.673 24.997C107.022 24.997 106.374 24.9797 105.721 24.9318C105.582 24.9215 105.477 24.8001 105.487 24.6606Z" fill="black"/>
<path fill-rule="evenodd" clip-rule="evenodd" d="M104.465 25.2686C104.602 25.2412 104.736 25.3302 104.763 25.4674C104.903 26.1654 104.968 26.8221 104.896 27.5417C104.882 27.6809 104.758 27.7825 104.619 27.7686C104.479 27.7547 104.378 27.6305 104.392 27.4913C104.457 26.8364 104.4 26.2324 104.267 25.5667C104.239 25.4295 104.328 25.2961 104.465 25.2686Z" fill="black"/>
<path fill-rule="evenodd" clip-rule="evenodd" d="M66.1105 27.6869C66.1235 27.5476 66.2468 27.4452 66.386 27.4581C66.9845 27.514 67.5586 27.5215 68.167 27.5215C68.3068 27.5215 68.4201 27.635 68.4201 27.7749C68.4201 27.9148 68.3068 28.0282 68.167 28.0282C67.5559 28.0282 66.9622 28.0207 66.339 27.9626C66.1998 27.9496 66.0975 27.8262 66.1105 27.6869Z" fill="black"/>
<path fill-rule="evenodd" clip-rule="evenodd" d="M69.989 25.1393C70.1263 25.1131 70.2589 25.2033 70.285 25.3407C70.4105 25.9998 70.4828 26.6472 70.4828 27.3231C70.4828 27.463 70.3695 27.5764 70.2297 27.5764C70.0899 27.5764 69.9766 27.463 69.9766 27.3231C69.9766 26.6845 69.9083 26.0692 69.7877 25.4355C69.7616 25.2981 69.8517 25.1655 69.989 25.1393Z" fill="black"/>
<path fill-rule="evenodd" clip-rule="evenodd" d="M71.5898 27.8088C71.6066 27.6699 71.7328 27.5709 71.8716 27.5878C72.4695 27.6605 73.0679 27.7204 73.6707 27.7807C73.8098 27.7946 73.9113 27.9188 73.8974 28.058C73.8835 28.1972 73.7594 28.2988 73.6203 28.2849L73.6203 28.2849C73.0184 28.2246 72.4147 28.1642 71.8105 28.0908C71.6718 28.0739 71.5729 27.9477 71.5898 27.8088Z" fill="black"/>
<path fill-rule="evenodd" clip-rule="evenodd" d="M70.0399 28.6192C70.1797 28.6212 70.2914 28.7362 70.2894 28.8761C70.2822 29.3863 70.2299 29.842 70.1578 30.3286C70.1374 30.467 70.0086 30.5625 69.8704 30.542C69.7321 30.5215 69.6366 30.3927 69.6571 30.2543C69.7275 29.7783 69.7765 29.3474 69.7832 28.8689C69.7852 28.729 69.9002 28.6172 70.0399 28.6192Z" fill="black"/>
<path fill-rule="evenodd" clip-rule="evenodd" d="M110.792 48.9095C110.847 49.0381 110.787 49.187 110.659 49.2421L108.964 49.969C108.836 50.0241 108.687 49.9646 108.632 49.836C108.577 49.7074 108.636 49.5584 108.765 49.5033L110.46 48.7764C110.588 48.7213 110.737 48.7809 110.792 48.9095Z" fill="black"/>
<path fill-rule="evenodd" clip-rule="evenodd" d="M110.153 46.4291C110.26 46.34 110.42 46.3553 110.509 46.4632C110.8 46.8157 111.041 47.178 111.283 47.5417C111.299 47.566 111.315 47.5903 111.331 47.6147C111.409 47.7311 111.377 47.8884 111.261 47.966C111.145 48.0436 110.988 48.0121 110.91 47.8957C110.895 47.8729 110.88 47.8502 110.865 47.8276C110.62 47.4594 110.392 47.1175 110.118 46.7857C110.029 46.6778 110.045 46.5181 110.153 46.4291Z" fill="black"/>
<path fill-rule="evenodd" clip-rule="evenodd" d="M113.245 47.9878C113.058 48.0666 112.866 48.1471 112.699 48.2033C112.567 48.248 112.423 48.1768 112.379 48.0442C112.334 47.9116 112.405 47.7679 112.538 47.7232C112.693 47.6707 112.848 47.6051 113.018 47.5337C113.137 47.4834 113.263 47.4302 113.4 47.3767C113.71 47.2562 114.057 47.1445 114.394 47.1445C114.534 47.1445 114.647 47.258 114.647 47.3979C114.647 47.5378 114.534 47.6512 114.394 47.6512C114.157 47.6512 113.884 47.7319 113.584 47.849C113.477 47.8904 113.362 47.9387 113.245 47.9878Z" fill="black"/>
<path fill-rule="evenodd" clip-rule="evenodd" d="M112.103 49.2112C112.214 49.127 112.373 49.1493 112.457 49.2611C112.745 49.6435 112.97 50.0195 113.2 50.4173C113.271 50.5384 113.229 50.6934 113.108 50.7635C112.987 50.8336 112.832 50.7923 112.762 50.6712C112.534 50.2764 112.321 49.9226 112.053 49.5659C111.969 49.4542 111.991 49.2953 112.103 49.2112Z" fill="black"/>
<defs>
<radialGradient id="paint0_radial_6032_92119" cx="0" cy="0" r="1" gradientUnits="userSpaceOnUse" gradientTransform="translate(86.9995 62.5039) rotate(90) scale(8.96678 86.851)">
<stop stop-opacity="0.1"/>
<stop offset="1" stop-color="#D9D9D9" stop-opacity="0"/>
</radialGradient>
</defs>
</svg>
