<svg fill="none" height="72" viewBox="0 0 174 72" width="174" xmlns="http://www.w3.org/2000/svg" xmlns:xlink="http://www.w3.org/1999/xlink"><radialGradient id="a" cx="0" cy="0" gradientTransform="matrix(0 8.96678 -86.851 0 86.9995 62.5039)" gradientUnits="userSpaceOnUse" r="1"><stop offset="0" stop-opacity=".1"/><stop offset="1" stop-color="#d9d9d9" stop-opacity="0"/></radialGradient><path d="m173.851 62.5039c0 4.9522-38.885 8.9668-86.8515 8.9668s-86.851062-4.0146-86.851062-8.9668 38.884562-8.9668 86.851062-8.9668 86.8515 4.0146 86.8515 8.9668z" fill="url(#a)"/><path d="m61.0994 13.248-4.7654 1.2891c1.5455 3.9959 2.8335 4.7693 4.5078 5.5427l3.7351-1.1601-2.5759-2.8358z" fill="#ae82fc"/><path clip-rule="evenodd" d="m55.6593 14.0274c.1387-.0174.2652.0811.2825.2199.0614.4911.3431 1.8093 1.078 3.0612.7325 1.2479 1.8982 2.4045 3.7273 2.6486.1386.0185.236.1459.2175.2846s-.1458.2361-.2844.2176c-2.0348-.2715-3.3161-1.564-4.0969-2.8941-.7785-1.3261-1.0764-2.7149-1.1438-3.255-.0174-.1389.081-.2655.2198-.2828z" fill="#000" fill-rule="evenodd"/><path clip-rule="evenodd" d="m60.83 13.1861c.0339.1357-.0485.2733-.1841.3072-1.5024.3759-2.5208.6822-3.8188 1.0725-.4766.1433-.9908.298-1.5806.4716-.1341.0395-.2748-.0373-.3143-.1716-.0394-.1342.0373-.275.1714-.3145.5836-.1718 1.0948-.3255 1.57-.4684 1.3023-.3916 2.3348-.7021 3.8495-1.0811.1356-.034.273.0486.3069.1843z" fill="#000" fill-rule="evenodd"/><path clip-rule="evenodd" d="m60.4356 12.6083c.1393-.0115.2615.0923.2729.2317.1949 2.3763 1.2362 4.1138 3.3927 6.0181.1048.0926.1148.2526.0223.3576-.0924.1049-.2524.1149-.3572.0223-2.2226-1.9627-3.3537-3.8126-3.5623-6.3565-.0115-.1394.0922-.2618.2316-.2732z" fill="#000" fill-rule="evenodd"/><path clip-rule="evenodd" d="m64.3 18.7039c.0478.1315-.02.2769-.1513.3247-.7116.259-1.3905.4854-2.0658.7107l-.0014.0005c-.6766.2257-1.3496.4503-2.0543.7067-.1314.0478-.2766-.02-.3244-.1515s.02-.2768.1514-.3247c.7116-.2589 1.3905-.4854 2.0658-.7107l.0014-.0005c.6766-.2257 1.3496-.4502 2.0542-.7067.1314-.0478.2767.02.3244.1515z" fill="#000" fill-rule="evenodd"/><path d="m119.315 13.6173 2.46 4.2824c3.467-2.5148 3.887-3.9584 4.207-5.7758l-2.072-3.31825-2.084 3.21595z" fill="#ff479f"/><path clip-rule="evenodd" d="m121.455 18.6834c-.052-.1298.011-.2773.141-.3295.459-.1847 1.661-.7936 2.683-1.824 1.02-1.0271 1.84-2.4501 1.61-4.2821-.017-.1387.081-.2655.22-.283s.265.0808.283.2196c.256 2.038-.667 3.6075-1.753 4.7023-1.084 1.0915-2.35 1.7341-2.855 1.9372-.129.0522-.277-.0107-.329-.1405z" fill="#000" fill-rule="evenodd"/><path clip-rule="evenodd" d="m119.325 13.894c.122-.0674.276-.0227.344.0999.746 1.3579 1.301 2.2651 2.009 3.4215.26.4246.541.8828.859 1.4092.072.1197.034.2755-.086.3479s-.275.0341-.348-.0856c-.314-.5209-.593-.9763-.852-1.3997-.711-1.1602-1.274-2.0801-2.026-3.4491-.068-.1226-.023-.2766.1-.3441z" fill="#000" fill-rule="evenodd"/><path clip-rule="evenodd" d="m118.867 14.4214c-.046-.1319.023-.2766.155-.3232 2.246-.7948 3.66-2.2455 4.951-4.8176.063-.12503.215-.17554.34-.11283s.175.21491.112.33994c-1.33 2.65099-2.83 4.21709-5.235 5.06799-.131.0467-.276-.0224-.323-.1543z" fill="#000" fill-rule="evenodd"/><path clip-rule="evenodd" d="m123.771 9.12888c.115-.07979.273-.0513.353.06363.431.62249.823 1.22159 1.213 1.81759l.001.0012c.39.5971.779 1.1911 1.206 1.8075.08.1149.051.2728-.064.3526-.115.0797-.272.0512-.352-.0637-.432-.6225-.823-1.2216-1.213-1.8176l-.001-.0012c-.391-.5971-.779-1.191-1.207-1.80747-.079-.11492-.051-.27277.064-.35255z" fill="#000" fill-rule="evenodd"/><path d="m111.627 34.6424c.694-.3974 2.522-2.7319 3.349-3.8494 1.787.7947 5.377 1.4073 6.949 1.6142-3.723.9107-10.993 2.6325-10.298 2.2352z" fill="#ffc100"/><path clip-rule="evenodd" d="m114.52 30.108c.131.0491.197.1951.148.3262-.329.8775-.889 1.6193-1.512 2.2929-.37.4012-.78.794-1.179 1.1767-.259.2487-.514.4932-.751.7329-.098.0995-.259.1003-.358.0019-.099-.0983-.1-.2587-.002-.3582.259-.2621.521-.5134.783-.7635.386-.3704.77-.7381 1.136-1.1339.602-.6517 1.113-1.3371 1.409-2.1268.049-.131.195-.1973.326-.1482z" fill="#000" fill-rule="evenodd"/><path clip-rule="evenodd" d="m114.199 30.2385c.059-.1269.21-.182.337-.1231 1.953.9077 4.972 1.6702 7.146 1.6702.14 0 .253.1134.253.2533s-.113.2534-.253.2534c-2.259 0-5.351-.7838-7.36-1.7173-.126-.059-.181-.2096-.123-.3365z" fill="#000" fill-rule="evenodd"/><path clip-rule="evenodd" d="m122.176 32.0105c.016.1391-.085.2643-.223.2798-1.883.2094-3.777.6589-5.673 1.1646-.568.1515-1.137.3083-1.706.4651-1.324.365-2.648.7298-3.956 1.0271-.137.031-.272-.0545-.303-.1909-.031-.1365.054-.2722.191-.3032 1.296-.2947 2.602-.6545 3.921-1.018.572-.1575 1.146-.3157 1.723-.4696 1.901-.5074 3.825-.9649 5.747-1.1787.139-.0154.264.0848.279.2238z" fill="#000" fill-rule="evenodd"/><path d="m77.1809 1.43138c-.247.76182.8596 4.36994 1.6963 5.97176-1.8561.6152-6.5109 1.71106-7.8127 2.61626 2.1417-3.18013 6.3633-9.349848 6.1164-8.58802z" fill="#00ade4"/><path clip-rule="evenodd" d="m79.6624 7.6765c-.1298.0518-.2771-.01157-.3288-.14154-.662-1.66254-1.5937-4.42675-2.0498-6.706243-.0275-.137187.0614-.270681.1985-.298168.137-.027487.2704.061443.2979.19863.4481 2.239271 1.3685 4.972581 2.0237 6.618191.0517.12997-.0116.27733-.1415.32913z" fill="#000" fill-rule="evenodd"/><path clip-rule="evenodd" d="m79.8914 7.37185c.0182.13871-.0793.26596-.2179.28422-1.3727.18084-2.9863.4868-4.4569.93117-1.4788.44684-2.7799 1.02413-3.5562 1.73076-.1034.0941-.2635.0865-.3576-.017-.094-.1035-.0864-.2637.017-.35787.8632-.78561 2.255-1.38904 3.7505-1.84092 1.5036-.45434 3.1453-.7651 4.5371-.94846.1386-.01826.2658.07939.284.2181z" fill="#000" fill-rule="evenodd"/><path clip-rule="evenodd" d="m71.1447 10.4827c-.1049-.0924-.115-.2525-.0226-.3575 1.2523-1.42287 2.3511-3.03046 3.4139-4.68135.3182-.49443.6338-.99355.9493-1.4926.7343-1.16166 1.4685-2.32296 2.2366-3.423963.08-.114718.2378-.142791.3524-.062702s.1427.238011.0627.352729c-.7613 1.091206-1.4854 2.236616-2.2169 3.393716-.3169.50136-.6353 1.00491-.9586 1.5072-1.066 1.65599-2.1813 3.28958-3.4596 4.74187-.0924.105-.2523.1151-.3572.0226z" fill="#000" fill-rule="evenodd"/><path d="m44.5687 53.7275c-1.5663-.5652-3.4318-.5724-6.8636.8587 4.0038 3.4346 6.1675 4.5072 6.8636 6.2968h4.5758s-1.4299-3.4346-4.5758-7.1555z" fill="#01c9cc"/><path clip-rule="evenodd" d="m35.167 53.9367c.0498-.1308.1961-.1964.3267-.1466 1.5999.61 3.3484 1.8903 4.8376 3.4211 1.4893 1.5311 2.7431 3.3374 3.3326 5.0196.0463.132-.0232.2766-.1551.3229s-.2763-.0232-.3226-.1552c-.5574-1.5904-1.7601-3.3355-3.2177-4.8338-1.4577-1.4986-3.1465-2.726-4.655-3.3011-.1307-.0498-.1962-.1962-.1465-.3269z" fill="#000" fill-rule="evenodd"/><path clip-rule="evenodd" d="m42.5609 53.419c.0358.1353-.0448.274-.1799.3098-1.7715.4693-3.5457.9279-5.3192 1.3864-.4868.1258-.9735.2516-1.46.3776-.1354.0351-.2735-.0463-.3085-.1818-.035-.1354.0463-.2736.1816-.3087.4871-.1261.9741-.252 1.4611-.3779 1.7733-.4584 3.5456-.9166 5.3154-1.3854.1352-.0358.2737.0448.3095.18z" fill="#000" fill-rule="evenodd"/><path clip-rule="evenodd" d="m41.4936 52.7121c.0863-.1101.2454-.1292.3554-.0427 3.5457 2.7882 5.428 6.175 6.5763 8.8567.0551.1286-.0044.2775-.1329.3326s-.2773-.0044-.3324-.133c-1.13-2.6388-2.9694-5.9415-6.4238-8.6579-.1099-.0865-.129-.2457-.0426-.3557z" fill="#000" fill-rule="evenodd"/><path clip-rule="evenodd" d="m49.5014 61.3348c-2.8008 0-5.5868.1266-8.3915.271-.1396.0072-.2586-.1003-.2658-.24s.1002-.2588.2398-.266c2.8055-.1445 5.6027-.2717 8.4175-.2717.1398 0 .2532.1134.2532.2534 0 .1399-.1134.2533-.2532.2533z" fill="#000" fill-rule="evenodd"/><path d="m31.9313 16.8017c1.5663-.5651 3.4318-.5724 6.8636.8587-4.0038 3.4346-6.1675 4.5072-6.8636 6.2968h-4.5758s1.4299-3.4346 4.5758-7.1555z" fill="#ee8625"/><path clip-rule="evenodd" d="m41.333 17.0109c-.0498-.1308-.1961-.1964-.3267-.1466-1.5999.61-3.3484 1.8903-4.8376 3.4212-1.4893 1.5311-2.7431 3.3373-3.3326 5.0195-.0463.132.0232.2766.1551.3229s.2763-.0232.3226-.1552c.5574-1.5904 1.7601-3.3354 3.2177-4.8338 1.4577-1.4986 3.1465-2.7259 4.655-3.3011.1307-.0498.1962-.1962.1465-.3269z" fill="#000" fill-rule="evenodd"/><path clip-rule="evenodd" d="m33.9391 16.4933c-.0358.1352.0448.2739.1799.3097 1.7715.4693 3.5457.9279 5.3192 1.3864.4868.1258.9735.2516 1.46.3776.1354.0351.2735-.0463.3085-.1818.035-.1354-.0463-.2736-.1816-.3087-.4871-.1261-.9741-.252-1.4611-.3779-1.7733-.4584-3.5456-.9165-5.3154-1.3854-.1352-.0358-.2737.0448-.3095.1801z" fill="#000" fill-rule="evenodd"/><path clip-rule="evenodd" d="m35.0064 15.7863c-.0863-.11-.2455-.1291-.3554-.0427-3.5457 2.7882-5.428 6.175-6.5763 8.8567-.0551.1286.0044.2775.1329.3326.1285.0552.2773-.0044.3324-.133 1.13-2.6388 2.9694-5.9415 6.4238-8.6579.1099-.0864.129-.2457.0426-.3557z" fill="#000" fill-rule="evenodd"/><path clip-rule="evenodd" d="m26.9986 24.409c2.8008 0 5.5868.1266 8.3915.271.1396.0072.2586-.1002.2658-.24.0072-.1397-.1002-.2588-.2398-.266-2.8055-.1444-5.6027-.2717-8.4175-.2717-.1398 0-.2532.1135-.2532.2534s.1134.2533.2532.2533z" fill="#000" fill-rule="evenodd"/><path d="m130.585 58.9043-3.837 1.6091 5.995 1.3165 5.036-2.9256z" fill="#4dc952"/><path clip-rule="evenodd" d="m131.104 58.4179c.041.1339-.034.2754-.168.3161-1.512.4607-3.017.9408-4.519 1.4392-.133.044-.276-.028-.32-.1608-.044-.1329.028-.2762.161-.3202 1.506-.4995 3.014-.9809 4.531-1.4429.133-.0407.275.0348.315.1686z" fill="#000" fill-rule="evenodd"/><path clip-rule="evenodd" d="m126.092 59.6646c.034-.1357.171-.2183.307-.1843.241.0604.513.1347.81.2159.739.2022 1.636.4476 2.62.6299 1.374.2547 2.878.3773 4.271.0786.137-.0293.271.0578.301.1946.029.1368-.058.2715-.195.3008-1.487.3189-3.067.1842-4.47-.0758-1.006-.1864-1.94-.4419-2.684-.6455-.29-.0792-.551-.1506-.776-.207-.136-.0339-.218-.1715-.184-.3072z" fill="#000" fill-rule="evenodd"/><path clip-rule="evenodd" d="m129.172 58.4582c.019-.1387.146-.2362.285-.2177.803.1072 1.506.2139 2.161.3131 1.876.2845 3.35.5081 5.621.5081.14 0 .253.1135.253.2534s-.113.2533-.253.2533c-2.312 0-3.832-.2305-5.72-.517-.65-.0986-1.344-.2039-2.129-.3086-.139-.0185-.236-.146-.218-.2846z" fill="#000" fill-rule="evenodd"/><path clip-rule="evenodd" d="m137.372 58.8129c.05.1305-.015.2771-.146.3273-.494.1902-.939.3631-1.357.5251-1.601.6217-2.788 1.0823-4.72 1.7426-.132.0453-.276-.0254-.321-.1578s.026-.2764.158-.3216c1.921-.6568 3.097-1.1134 4.697-1.7343.418-.1623.865-.3357 1.362-.5269.13-.0502.276.015.327.1456z" fill="#000" fill-rule="evenodd"/><path d="m141.64 34.1888c-1.691-.6103-6.033-1.8919-6.484-2.1361-.902 2.1971.376 6.6116 1.128 8.5442 1.503 1.5258 5.131 4.6383 4.228 2.4412-.902-2.1971.376-7.0184 1.128-8.8493z" fill="#3e7bfa"/><path clip-rule="evenodd" d="m134.193 31.5692c.138.0208.233.1498.213.2882-.503 3.3526.233 6.4453 1.733 9.5208.062.1258.01.2775-.116.3389s-.277.0092-.338-.1165c-1.533-3.1402-2.302-6.3376-1.78-9.8184.021-.1384.15-.2337.288-.213z" fill="#000" fill-rule="evenodd"/><path clip-rule="evenodd" d="m141.031 32.7482c.114.0796.143.2374.064.3525-2.233 3.228-2.159 6.7578-1.28 10.4929.032.1362-.052.2726-.188.3047s-.272-.0523-.304-.1885c-.894-3.7937-.997-7.497 1.355-10.8975.08-.1151.238-.1437.353-.0641z" fill="#000" fill-rule="evenodd"/><path clip-rule="evenodd" d="m132.6 30.9991c.049-.1312.194-.1979.325-.1491.704.2619 1.414.5181 2.126.7751 2.096.7564 4.21 1.5196 6.236 2.4555.127.0586.183.2091.124.3362-.058.127-.209.1824-.336.1238-2.004-.9259-4.089-1.6784-6.179-2.4328-.716-.2584-1.433-.5171-2.147-.783-.131-.0488-.198-.1946-.149-.3257z" fill="#000" fill-rule="evenodd"/><path clip-rule="evenodd" d="m133.485 39.4815c.058-.1276.207-.1845.335-.1271 2.074.9342 3.945 2.0863 5.828 3.2465.552.3397 1.105.6802 1.664 1.0161.12.072.159.2276.087.3475-.072.12-.227.1589-.347.0869-.571-.3424-1.13-.6871-1.686-1.0294-1.879-1.1569-3.712-2.2861-5.754-3.2056-.127-.0574-.184-.2073-.127-.3349z" fill="#000" fill-rule="evenodd"/><path d="m77.2827 33.5465c3.018-.697 5.804 1.2586 6.8197 2.3235l1.7693 2.3417-3.4951 12.2429c-1.1827.1943-3.8572.5406-5.0939.371-1.5459-.212-4.0675-1.06-4.3323 4.4519-.2647 5.512-.9532 7.314-2.383 7.897s-.1059-2.756-1.2709-4.717c-1.1651-1.961-3.7599-1.537-7.4668-2.014s-4.3424-2.067-4.3954-3.8159c-.0529-1.749 3.4951-4.929 2.5419-6.678s-3.1525-.9308-6.78-3.5447-1.0157-4.647 0-7.4062c.2158-.5862.2548-1.415.1683-2.3457-.0562-.0406-.1123-.0816-.1683-.123-1.5961-2.0331-4.498-6.3316-3.3373-7.261 1.1427-.9149 3.1853 3.9344 3.5056 7.384 3.2911 2.3747 6.8768 3.217 11.5847 3.217 4.7883 0 8.5609-1.4522 12.3335-2.3235z" fill="#ee5f54"/><path d="m78.0255 41.8903c.9347-1.7775 5.5695-3.4302 7.7701-4.0344 1.1878-.7991 4.732-1.9879 9.4057-.3508 5.8417 2.0464 8.5297 4.0344 8.5297 5.8469 0 1.8126-5.3165 4.3852-4.3234 3.859.9934-.5262 1.2264-2.3388 1.1684-3.4497-.047-.8887-2.2005-1.6176-3.2715-1.871 2.2394 7.0943 6.6595 21.2244 6.4265 20.9905-.292-.2923-7.4781-9.1212-11.8013-10.8168s-11.6258 9.9982-13.2616 11.1092c-1.6358 1.1109-.6426-1.7541 0-3.2743.5141-1.2162 3.8363-8.9653 5.4332-12.6879v-5.3207c0-.3313-.4908-.5028-2.4537 1.4617-1.963 1.9646.2336 3.3913 1.5773 3.859.409.3508.5376.7367-2.2199-.5262-3.4469-1.5787-4.1479-2.5727-2.9795-4.7945z" fill="#fff"/><path d="m96.9447 33.2129c0 2.8262-2.9393 5.1172-6.5651 5.1172s-6.5651-2.291-6.5651-5.1172c0-2.8261 2.9393-5.1172 6.5651-5.1172s6.5651 2.2911 6.5651 5.1172z" fill="#fff"/><path d="m91.1319 44.2879c-2.0902-1.2984-4.4146-5.0194-5.3155-6.7176l3.4235 1.578 1.892 4.824 1.0361-.3606c.6487-.7575 1.4115-3.8623 1.7118-5.32l1.1713-.7214 1.6667.7214c-.2162 1.6951-2.853 4.7038-4.1443 5.9962z" fill="#ee5f54"/><path d="m93.3735 45.4356c0 1.0097-.5672 1.8282-1.2668 1.8282-.6997 0-1.2669-.8185-1.2669-1.8282s.5672-1.8282 1.2669-1.8282c.6996 0 1.2668.8185 1.2668 1.8282z" fill="#fdd13b"/><g clip-rule="evenodd" fill-rule="evenodd"><path d="m50.1517 26.0229c.313.7912.8559 1.9001 1.7045 3.3863.346.606.8342 1.2107 1.4403 1.7928-.0299-.2547-.072-.5092-.1247-.7622-.3659-1.7564-1.2383-3.412-2.0528-4.5093-.4092-.5512-.7912-.9446-1.0732-1.1409-.1114-.0775-.1868-.1098-.2292-.1212-.0129.0638-.014.1924.0325.4134.0494.2347.146.5452.3026.9411zm3.6939 5.6731c-.0227-.4573-.0852-.9129-.1782-1.3596-.3837-1.842-1.2928-3.5641-2.142-4.7081-.4228-.5695-.8432-1.0128-1.1905-1.2546-.1671-.1163-.354-.2125-.5359-.2173-.0992-.0026-.2045.0222-.2952.0926-.0889.0689-.1405.1636-.1685.2589-.0531.1805-.0371.4141.0185.6783.0573.2727.1647.6122.3272 1.0232.3253.8224.8811 1.9545 1.7356 3.4512.4475.7837 1.1073 1.5537 1.9312 2.2753.0256 1.2632-.2862 2.5024-1.1253 3.5664-.8801 1.116-1.0111 2.6116-.6084 3.9046.4025 1.2924 1.3533 2.429 2.6944 2.8007 3.2006.887 4.7873 1.7819 5.4678 2.6476.3314.4216.4482.8371.4329 1.2563-.0155.428-.1693.8764-.41 1.3542-.2275.4515-.5225.9103-.8301 1.3887-.0181.0282-.0363.0564-.0545.0848-.3235.5036-.6562 1.0278-.9105 1.5622-.2546.5351-.4382 1.0954-.4532 1.6746-.0152.5849.1421 1.1742.5452 1.761.6677.972 1.76 1.4528 2.9737 1.7318.9212.2118 1.9487.3142 2.9582.4149.3166.0315.6314.0629.9406.0974 1.3137.1467 2.5304.3499 3.4635.8379.9128.4775 1.5572 1.2284 1.7357 2.512.03.2156.0378.4396.0423.6758.0007.0364.0014.0732.002.1104.0033.199.0068.407.0234.6104.0398.4883.1573.9945.5595 1.4281.1593.1717.3676.251.5938.1919.1978-.0517.3663-.1994.5057-.3671.2838-.3414.5555-.9001.7913-1.5498.4744-1.3074.8404-3.0899.8404-4.5372 0-2.3835.2825-3.7838.7474-4.598.2285-.4003.5001-.6568.8064-.8227.3093-.1675.6689-.2505 1.084-.2798.4167-.0294.8765-.0041 1.3828.0365.1278.0103.2588.0215.3923.033.3897.0334.802.0688 1.2252.0872 1.1427.0496 2.404-.0219 3.7027-.5871.1282-.0557.187-.205.1312-.3333-.0557-.1283-.2048-.1871-.333-.1313-1.1992.5218-2.3734.5935-3.479.5455-.4115-.0179-.8082-.0519-1.1951-.0851-.1358-.0117-.2703-.0232-.4038-.0339-.5086-.0408-1.0012-.0692-1.4589-.0369-.4593.0324-.896.1266-1.2894.3396-.3964.2147-.7338.542-1.0049 1.0169-.5344.9358-.8141 2.4505-.8141 4.8494 0 1.3787-.3522 3.1025-.81 4.3642-.2304.6349-.4783 1.1264-.7047 1.3988-.1156.1392-.1997.1892-.2444.2009l-.0013.0003c-.0162.0043-.0403.0107-.0936-.0468-.2914-.3141-.3904-.6879-.4259-1.1245-.0152-.1856-.0184-.3746-.0218-.5739-.0006-.0381-.0013-.0765-.002-.1154-.0046-.2378-.0126-.488-.0471-.736-.2028-1.4582-.9564-2.3439-2.0026-2.8911-1.026-.5366-2.3296-.7459-3.6419-.8924-.3241-.0362-.6486-.0686-.9711-.1007-1.0018-.1-1.9836-.198-2.8705-.4019-1.1688-.2687-2.1094-.7092-2.6699-1.5251-.3435-.5-.4686-.9846-.4562-1.4607.0125-.4818.1661-.9697.4042-1.47.2384-.501.5538-.9995.8793-1.506.0195-.0305.0391-.0609.0587-.0914.3034-.4718.612-.9518.852-1.4279.2556-.5074.4446-1.0316.464-1.564.0196-.5411-.1368-1.0737-.541-1.5879-.7907-1.006-2.5249-1.9342-5.7306-2.8227-1.1374-.3153-1.982-1.2938-2.3462-2.4632-.364-1.1688-.2331-2.4818.5225-3.4399.8303-1.0529 1.1844-2.2515 1.2302-3.4624 1.2396.9808 2.7816 1.8535 4.494 2.5229 3.1835 1.2446 6.9967 1.8034 10.6381 1.0303.003-.0006.0059-.0013.0089-.002 1.9352-.4842 3.5973-1.0503 5.0586-1.548.1881-.0641.3729-.1271.5546-.1885 1.6001-.5418 2.9394-.965 4.1604-1.0789 1.2081-.1127 2.2939.0787 3.389.7708 1.1044.6982 2.2353 1.9164 3.5045 3.8923.0756.1177.2322.1518.3498.0761.1176-.0756.1516-.2324.076-.3501-1.2872-2.004-2.4661-3.292-3.66-4.0466-1.2033-.7606-2.4042-.9685-3.7063-.847-1.2893.1202-2.6836.5644-4.2756 1.1034-.1825.0618-.3678.1249-.556.189-1.461.4975-3.1018 1.0563-5.0134 1.5349-3.5251.7472-7.2352.2079-10.3444-1.0076-1.8351-.7174-3.4467-1.6645-4.6827-2.7088z" fill="#181818"/><path d="m92.5572 29.1117c1.1681.4042 2.1924 1.0585 2.8263 1.9592.6377.9062.816 1.9947.7254 3.0588-.0906 1.0636-.4506 2.1198-.9119 2.9868-.581 1.092-1.3486 1.7741-2.2766 2.112-.8091.2947-1.718.3197-2.695.1571-1.571-.1009-3.4192-.6897-4.8057-1.7893-1.3997-1.11-2.3366-2.7508-2.0142-4.917.3836-2.5782 2.8294-3.8328 5.3678-4.0329 1.2797-.1008 2.6136.0603 3.7839.4653zm-2.2643 9.7715c-.1219-.0206-.2456-.0443-.3711-.0712-1.6095-.3444-3.6138-1.3271-4.7834-2.6258-.5824-.6467-.9403-1.3517-.966-2.0793-.0255-.7205.2733-1.51 1.0986-2.3361.0989-.0989.0989-.2593 0-.3582-.0989-.099-.2591-.099-.358 0-.4918.4922-.828.9901-1.0264 1.4862.0058-.048.0124-.0963.0196-.1449.3312-2.2258 2.4577-3.4094 4.9068-3.6024 1.2141-.0956 2.4779.058 3.5788.439 1.1031.3817 2.0236.9846 2.5778 1.7721.5501.7817.7186 1.7409.6349 2.7241-.0838.9835-.4192 1.9738-.8543 2.7917-.5317.9993-1.21 1.5852-2.0029 1.874-.705.2567-1.5232.2868-2.447.132-.0024-.0004-.0049-.0008-.0074-.0012z" fill="#181818"/><path d="m86.1049 37.5149c.0551.1286-.0044.2776-.1329.3327-.0711.0305-.143.0613-.2157.0924-1.2747.5464-2.7687 1.1868-4.1397 1.8929-1.4558.7499-2.7408 1.5583-3.4777 2.385-.3669.4116-.5792.8072-.6277 1.1839-.0471.3661.0561.7491.3925 1.1557.342.4133.9224.8462 1.8151 1.2861.8903.4387 2.0768.8774 3.6154 1.3096.1346.0378.2131.1777.1753.3124s-.1775.2132-.3121.1754c-1.5567-.4373-2.7748-.8859-3.7023-1.3429-.925-.4558-1.5756-.9271-1.9813-1.4174-.4112-.4969-.5725-1.0168-.5047-1.5437.0665-.5164.3487-1.0039.752-1.4564.8037-.9017 2.1623-1.7454 3.6238-2.4982 1.3876-.7147 2.8967-1.3615 4.1684-1.9065.0739-.0317.147-.063.2193-.094.1285-.0551.2773.0044.3323.133z" fill="#181818"/><path d="m94.7792 37.3733c.048-.1314.1934-.1989.3247-.1508.0521.0192.1167.0425.1924.07.7944.2881 2.8219 1.0232 4.7247 1.9486 1.04.5062 2.056 1.0751 2.815 1.6657.38.2953.704.6027.935.918.231.3144.381.6542.381 1.0085 0 .0207-.002.0413-.007.0614-.115.4581-.403.9188-.766 1.3577-.366.442-.823.8802-1.299 1.2928-.476.4131-.976.8051-1.429 1.1535-.113.0871-.223.1712-.329.2522-.32.2451-.6023.461-.8232.643-.1079.089-.2674.0735-.3563-.0345s-.0734-.2676.0345-.3566c.2286-.1884.5216-.4125.844-.6594.105-.0799.212-.1622.322-.2465.451-.3469.941-.7315 1.406-1.1346.465-.4036.899-.8212 1.24-1.2331.333-.4029.563-.7834.657-1.1261-.009-.2006-.098-.4267-.283-.6786-.193-.2637-.478-.5383-.837-.8176-.718-.5587-1.697-1.1095-2.7265-1.6101-1.8768-.9128-3.8797-1.6392-4.6757-1.9279-.0761-.0276-.1411-.0512-.194-.0706-.1312-.0481-.1987-.1936-.1506-.325z" fill="#181818"/><path d="m98.828 46.7206c.1334-.0417.2754.0327.317.1662l4.996 16.0012c.034.1109-.011.2311-.11.2917s-.226.046-.309-.0354c-.378-.3718-.979-1.1012-1.717-1.9969-.078-.0946-.157-.1911-.238-.2892-.853-1.0346-1.8781-2.2671-2.98-3.4693-1.1026-1.2029-2.2771-2.3696-3.4279-3.2744-1.1489-.9032-2.2474-1.5236-3.2092-1.6815-2.9318.0072-5.318 1.5949-7.446 3.7425-1.0654 1.0752-2.0583 2.2828-3.0175 3.4895-.2144.2696-.4272.5394-.6388.8077-.7325.9286-1.4503 1.8386-2.1648 2.6575-.2606.2986-.4787.504-.6616.6035-.0912.0496-.21.0932-.3379.0699-.1452-.0264-.2361-.1252-.2846-.2246-.0446-.0915-.0616-.1966-.068-.2928-.0066-.1-.003-.2122.0069-.3303.0199-.2362.067-.5199.1255-.8217.5003-2.5825 1.5593-4.9407 2.6061-7.2718l.0222-.0493c1.0578-2.3558 2.0996-4.686 2.5855-7.2393.0262-.1374.1587-.2276.296-.2014.1374.0262.2275.1588.2013.2962-.4988 2.6211-1.5668 5.0044-2.6211 7.3522l-.011.0245c-1.0544 2.3479-2.093 4.6608-2.582 7.1853-.0576.2974-.1005.5595-.118.7677-.0087.1041-.0106.1888-.0063.2543.0001.0001.0001.0002.0001.0003.1008-.071.2523-.2116.4656-.456.7054-.8084 1.4126-1.705 2.1436-2.6317.2128-.2698.4277-.5422.6451-.8156.961-1.209 1.9683-2.4349 3.0542-3.5309 2.1699-2.1898 4.6849-3.8924 7.8256-3.8924.0132 0 .0264.0011.0395.0031 1.0971.1734 2.2866.8623 3.4624 1.7867 1.1817.929 2.3772 2.1183 3.4881 3.3303 1.112 1.2128 2.144 2.4542 2.997 3.4893.078.0947.155.1875.23.2783.345.419.655.7951.923 1.1133l-4.6482-14.8894c-.0417-.1335.0327-.2756.1662-.3173z" fill="#181818"/><path d="m93.6995 32.2945c.126-.0605.2772-.0073.3377.1188.2494.52.2472 1.2057.0266 1.8122-.2225.6116-.6801 1.1779-1.3829 1.4279-1.0901.3879-2.2751.1004-3.3245-.348-.7719-.3298-1.5092-.7655-2.1097-1.1203-.2149-.127-.4123-.2436-.5875-.3413-.1221-.0681-.1659-.2224-.0978-.3446.068-.1223.2222-.1661.3443-.098.1935.108.4031.2318.6261.3635.5943.3512 1.2845.759 2.0234 1.0747 1.0149.4337 2.0497.6592 2.9561.3366.5317-.1891.8945-.6226 1.0768-1.1239.1843-.5065.1713-1.0471-.0073-1.4195-.0605-.1262-.0074-.2775.1187-.3381z" fill="#181818"/><path d="m84.0986 41.2173c.0767.0457.1236.1284.1237.2177 0 1.6243-.1791 4.2494-.6208 6.0173-.0183.0734-.0684.1348-.1367.1673-.0682.0325-.1474.0329-.2159.0009-.8309-.3881-1.4926-.8256-1.9445-1.3106-.4545-.4877-.7061-1.0347-.6839-1.6269.0221-.5882.3127-1.1743.8462-1.7476.5334-.573 1.3234-1.149 2.3818-1.7231.0784-.0426.1735-.0407.2501.005zm-.9166 5.8073c.3414-1.545.5033-3.6485.53-5.1551-.8365.4853-1.4534.9585-1.8748 1.4113-.4824.5182-.6948.9941-.7108 1.4212-.0159.4232.1592.845.5482 1.2624.3442.3693.8484.7261 1.5074 1.0602z" fill="#181818"/><path d="m96.9836 41.8318c.0621-.072.1593-.103.2516-.0804 1.539.377 2.5069.8873 3.0628 1.4745.569.6004.69 1.2633.572 1.8762-.115.5982-.453 1.1376-.784 1.5356-.1667.2009-.3358.371-.4821.5002-.1402.1239-.276.225-.3755.2718-.1343.0633-.2626.0254-.3476-.0273-.0783-.0485-.1417-.1203-.1918-.1882-.1026-.1391-.2049-.3392-.3044-.5661-.2012-.459-.4175-1.0912-.6191-1.7331-.2023-.6439-.3926-1.3063-.5411-1.829-.0211-.0744-.0414-.1459-.0607-.214-.0487-.1719-.0915-.3226-.1271-.446-.052-.1795-.0838-.2828-.0962-.3135-.0357-.0881-.019-.1888.0432-.2607zm.566.5263c.0301.105.0641.2252.1015.357.0193.0679.0394.1388.0603.2124.1483.5221.337 1.1788.537 1.8156.2007.6389.4103 1.2491.5998 1.6815.0959.2188.1802.3766.2481.4686.0007.001.0015.0021.0022.0031.044-.0319.1016-.0775.1704-.1382.1272-.1124.2781-.2639.4279-.4442.3027-.3646.5832-.8266.6762-1.3074.089-.466.005-.9597-.4422-1.4321-.4134-.4364-1.1492-.8673-2.3812-1.2163z" fill="#181818"/><path d="m85.4243 37.1948c.1207-.0706.2757-.0299.3463.0909 1.2992 2.226 2.6608 4.2613 4.4818 6.0683.4678.4643.907.8115 1.4608 1.1219.122.0683.1655.2227.0972.3448-.0683.122-.2226.1656-.3446.0972-.6005-.3365-1.0756-.7135-1.5699-1.2041-1.8666-1.8522-3.2541-3.931-4.5625-6.1725-.0705-.1208-.0298-.2759.0909-.3465z" fill="#000"/><path d="m89.0198 38.7415c.1305-.0502.2769.015.3271.1456.2647.6893.5238 1.3968.7821 2.1021.2281.6228.4556 1.2439.6856 1.8491.1633.4294.3306.8104.5604 1.1869.0729.1194.0353.2753-.0839.3483-.1193.0729-.2751.0353-.348-.0841-.2528-.414-.4329-.8272-.6016-1.2709-.2392-.6291-.4656-1.2478-.6915-1.8649-.2536-.6929-.5065-1.3837-.7757-2.0847-.0501-.1306.015-.2772.1455-.3274z" fill="#000"/><path d="m92.0553 43.2795c.2387-.0051.4821.072.6722.2104.2618.1906.4099.4633.493.7356.083.2715.1065.5587.1083.8041.0034.4318-.033 1.1636-.2498 1.7226-.1082.2791-.2761.5537-.5445.7063-.2372.1348-.5129.1526-.8148.0558-.027.0284-.061.0509-.1005.0646-.1321.0457-.2763-.0243-.322-.1566-.0149-.043-.0298-.0869-.0448-.1315-.1041-.0646-.2092-.1405-.305-.2269-.1837-.1658-.362-.3969-.3934-.6861-.069-.6353.0647-1.3196.1819-1.9194.0233-.1195.046-.2356.0663-.3473.025-.1377.1568-.229.2943-.204.0224.0041.0435.011.063.0202.0625-.115.1362-.2261.2224-.3323.1779-.2192.4319-.3103.6734-.3155zm-.3826 3.6668c.0259.0132.0514.0254.0762.0366.2681.1219.4296.0952.5356.035.1211-.0689.2323-.2164.3226-.4491.1802-.4646.2187-1.115.2155-1.5353-.0017-.2207-.0232-.4537-.0862-.6599-.0628-.2055-.1614-.3682-.3067-.4739-.1008-.0734-.2358-.1164-.3635-.1136-.125.0027-.2257.0475-.2914.1284-.3446.4244-.4451.9795-.4039 1.5849.0333.4903.1584.9929.3018 1.4469z" fill="#000"/><path d="m93.6325 37.8881c.1251-.0625.2771-.0118.3396.1133.1181.2364.1252.5069.1048.7384-.0166.189-.0551.3813-.0864.5375-.0072.0361-.0141.0703-.0201.1021-.2954 1.5392-.8046 3.1843-1.7441 4.4939-.0815.1137-.2396.1397-.3532.0581s-.1395-.2399-.058-.3535c.8776-1.2234 1.3686-2.7856 1.6581-4.2941.0075-.0391.0153-.0784.0232-.118.0309-.1547.0623-.3121.0762-.4704.0176-.1998.0019-.3569-.0533-.4674-.0625-.1251-.0118-.2773.1132-.3399z" fill="#000"/><path d="m96.7746 38.0846c.1352.0356.2159.1741.1804.3094-.122.4638-.3014.8565-.5495 1.2658-.9889 1.6319-2.2282 2.9806-3.5603 4.2989-.0994.0984-.2597.0975-.358-.002s-.0974-.2599.002-.3582c1.323-1.3094 2.5271-2.6233 3.4834-4.2014.2277-.3757.3854-.7236.4928-1.132.0356-.1353.174-.2161.3092-.1805z" fill="#000"/><path d="m100.524 24.6665c.007-.1398.126-.2474.265-.2404.877.0439 1.752.0642 2.63.0642.14 0 .253.1134.253.2533s-.113.2534-.253.2534c-.886 0-1.769-.0205-2.655-.0649-.14-.0069-.247-.1259-.24-.2656z" fill="#000"/><path d="m104.238 22.3112c.132-.0463.276.0232.322.1552.203.579.337 1.1272.337 1.7608 0 .14-.113.2534-.253.2534s-.253-.1134-.253-.2534c0-.5565-.116-1.0451-.308-1.593-.047-.1321.023-.2766.155-.323z" fill="#000"/><path d="m105.487 24.6606c.01-.1396.132-.2444.271-.2341.637.0468 1.273.0638 1.915.0638.14 0 .253.1134.253.2533s-.113.2534-.253.2534c-.651 0-1.299-.0173-1.952-.0652-.139-.0103-.244-.1317-.234-.2712z" fill="#000"/><path d="m104.465 25.2686c.137-.0274.271.0616.298.1988.14.698.205 1.3547.133 2.0743-.014.1392-.138.2408-.277.2269-.14-.0139-.241-.1381-.227-.2773.065-.6549.008-1.2589-.125-1.9246-.028-.1372.061-.2706.198-.2981z" fill="#000"/><path d="m66.1105 27.6869c.013-.1393.1363-.2417.2755-.2288.5985.0559 1.1726.0634 1.781.0634.1398 0 .2531.1135.2531.2534s-.1133.2533-.2531.2533c-.6111 0-1.2048-.0075-1.828-.0656-.1392-.013-.2415-.1364-.2285-.2757z" fill="#000"/><path d="m69.989 25.1393c.1373-.0262.2699.064.296.2014.1255.6591.1978 1.3065.1978 1.9824 0 .1399-.1133.2533-.2531.2533s-.2531-.1134-.2531-.2533c0-.6386-.0683-1.2539-.1889-1.8876-.0261-.1374.064-.27.2013-.2962z" fill="#000"/><path d="m71.5898 27.8088c.0168-.1389.143-.2379.2818-.221.5979.0727 1.1963.1326 1.7991.1929.1391.0139.2406.1381.2267.2773s-.138.2408-.2771.2269c-.6019-.0603-1.2056-.1207-1.8098-.1941-.1387-.0169-.2376-.1431-.2207-.282z" fill="#000"/><path d="m70.0399 28.6192c.1398.002.2515.117.2495.2569-.0072.5102-.0595.9659-.1316 1.4525-.0204.1384-.1492.2339-.2874.2134-.1383-.0205-.2338-.1493-.2133-.2877.0704-.476.1194-.9069.1261-1.3854.002-.1399.117-.2517.2567-.2497z" fill="#000"/><path d="m110.792 48.9095c.055.1286-.005.2775-.133.3326l-1.695.7269c-.128.0551-.277-.0044-.332-.133s.004-.2776.133-.3327l1.695-.7269c.128-.0551.277.0045.332.1331z" fill="#000"/><path d="m110.153 46.4291c.107-.0891.267-.0738.356.0341.291.3525.532.7148.774 1.0785.016.0243.032.0486.048.073.078.1164.046.2737-.07.3513s-.273.0461-.351-.0703c-.015-.0228-.03-.0455-.045-.0681-.245-.3682-.473-.7101-.747-1.0419-.089-.1079-.073-.2676.035-.3566z" fill="#000"/><path d="m113.245 47.9878c-.187.0788-.379.1593-.546.2155-.132.0447-.276-.0265-.32-.1591-.045-.1326.026-.2763.159-.321.155-.0525.31-.1181.48-.1895.119-.0503.245-.1035.382-.157.31-.1205.657-.2322.994-.2322.14 0 .253.1135.253.2534s-.113.2533-.253.2533c-.237 0-.51.0807-.81.1978-.107.0414-.222.0897-.339.1388z" fill="#000"/><path d="m112.103 49.2112c.111-.0842.27-.0619.354.0499.288.3824.513.7584.743 1.1562.071.1211.029.2761-.092.3462s-.276.0288-.346-.0923c-.228-.3948-.441-.7486-.709-1.1053-.084-.1117-.062-.2706.05-.3547z" fill="#000"/></g></svg>