<svg fill="none" height="101" viewBox="0 0 248 101" width="248" xmlns="http://www.w3.org/2000/svg"><path d="m174.495 98.4932h3.845v-.9396h-2.725v-5.2477h-1.12zm6.365-6.1873h-1.121v6.1873h1.121zm2.466 0h-1.229l2.178 6.1873h1.384l2.181-6.1873h-1.233l-1.607 4.8701h-.063zm5.754 6.1873h4.049v-.9396h-2.928v-1.6888h2.695v-.9396h-2.695v-1.6797h2.903v-.9396h-4.024z" fill="#b0b1c4"/><path d="m45.0423 94.3935c-.1904-1.3746-1.2478-2.1722-2.6193-2.1722-1.6163 0-2.8339 1.1783-2.8339 3.1782 0 1.997 1.2024 3.1783 2.8339 3.1783 1.4712 0 2.4471-.9517 2.6193-2.133l-1.1299-.006c-.142.7251-.7342 1.1329-1.4743 1.1329-1.0031 0-1.7221-.7522-1.7221-2.1722 0-1.3957.713-2.1721 1.7251-2.1721.7522 0 1.3414.4259 1.4713 1.1661zm6.9804 1.006c0-1.9999-1.2205-3.1782-2.8429-3.1782-1.6253 0-2.8428 1.1783-2.8428 3.1782 0 1.997 1.2175 3.1783 2.8428 3.1783 1.6224 0 2.8429-1.1783 2.8429-3.1783zm-1.1269 0c0 1.4079-.7069 2.1722-1.716 2.1722-1.006 0-1.716-.7643-1.716-2.1722 0-1.4078.71-2.1721 1.716-2.1721 1.0091 0 1.716.7643 1.716 2.1721zm4.7086 3.0937c1.8852 0 3.003-1.1662 3.003-3.0997 0-1.9275-1.1178-3.0876-2.9607-3.0876h-2.139v6.1873zm-.9758-.9698v-4.2477h.9546c1.2568 0 1.9124.7009 1.9124 2.1178 0 1.4229-.6556 2.1299-1.9456 2.1299zm5.4691.9698h4.0483v-.9396h-2.9275v-1.6888h2.6948v-.9396h-2.6948v-1.6797h2.9033v-.9396h-4.0241z" fill="#b0b1c4"/><rect fill="#fff" height="79.4953" rx="1.7923" stroke="#4f5162" stroke-width="1.7923" width="118.596" x="128.508" y=".897125"/><path d="m129.67 10.3799h116.272" stroke="#4f5162" stroke-width=".896148"/><rect fill="#4f5162" height="10.3783" rx="1.7923" width="118.312" x="128.65" y=".000977"/><circle cx="134.744" cy="6.09633" fill="#fff" r="1.98695"/><circle cx="140.989" cy="6.09633" fill="#fff" r="1.98695"/><circle cx="147.233" cy="6.09633" fill="#fff" r="1.98695"/><path d="m137.056 18.2549h33.3606v3.14722h-33.3606z" fill="#c4c4c4" opacity=".7"/><path d="m137.025 25.2666h33.1934v7.43135h-33.1934z" fill="#c4c4c4" opacity=".7"/><path d="m177.65 18.3311h61.4325v54.0012h-61.4325z" fill="#0092e4"/><g fill="#c4c4c4"><path d="m137.025 35.1768h33.1934v6.93593h-33.1934z" opacity=".7"/><path d="m137.025 45.085h33.1934v6.93593h-33.1934z" opacity=".7"/><path d="m137.025 55.4883h33.1934v6.93593h-33.1934z" opacity=".7"/><path d="m137.025 64.9014h33.1934v7.43135h-33.1934z" opacity=".7"/></g><path d="m184.717 46.5469 2.74 4.7217v2.8095h1.36v-2.8095l2.74-4.7217h-1.541l-1.842 3.3317h-.074l-1.842-3.3317zm14.157 3.7656c0-2.4344-1.486-3.8686-3.461-3.8686-1.978 0-3.46 1.4342-3.46 3.8686 0 2.4307 1.482 3.8686 3.46 3.8686 1.975 0 3.461-1.4342 3.461-3.8686zm-1.372 0c0 1.7136-.86 2.644-2.089 2.644-1.224 0-2.088-.9304-2.088-2.644 0-1.7137.864-2.644 2.088-2.644 1.229 0 2.089.9303 2.089 2.644zm7.455-3.7656v4.8063c0 .9451-.659 1.6217-1.692 1.6217-1.037 0-1.691-.6766-1.691-1.6217v-4.8063h-1.365v4.9203c0 1.618 1.214 2.7249 3.056 2.7249 1.835 0 3.056-1.1069 3.056-2.7249v-4.9203zm2.893 7.5312h1.364v-2.758h1.39l1.478 2.758h1.523l-1.629-2.986c.886-.3567 1.353-1.1142 1.353-2.1366 0-1.4378-.927-2.4086-2.655-2.4086h-2.824zm1.364-3.8906v-2.5007h1.25c1.019 0 1.475.4671 1.475 1.2687 0 .8017-.456 1.232-1.467 1.232zm-23.982 14.8906h1.364v-3.1993h3.13v-1.1437h-3.13v-2.0446h3.461v-1.1436h-4.825zm6.113 0h4.928v-1.1436h-3.564v-2.0557h3.281v-1.1437h-3.281v-2.0446h3.534v-1.1436h-4.898zm7.303 0 .622-1.857h2.831l.625 1.857h1.457l-2.655-7.5312h-1.685l-2.651 7.5312zm.989-2.9529 1.019-3.0338h.059l1.018 3.0338zm4.342-3.4347h2.328v6.3876h1.353v-6.3876h2.328v-1.1436h-6.009zm11.96-1.1436v4.8063c0 .9451-.658 1.6217-1.691 1.6217-1.037 0-1.692-.6766-1.692-1.6217v-4.8063h-1.364v4.9203c0 1.618 1.214 2.7249 3.056 2.7249 1.835 0 3.056-1.1069 3.056-2.7249v-4.9203zm2.893 7.5312h1.365v-2.758h1.39l1.478 2.758h1.522l-1.629-2.986c.887-.3567 1.354-1.1142 1.354-2.1366 0-1.4378-.927-2.4086-2.655-2.4086h-2.825zm1.365-3.8906v-2.5007h1.25c1.019 0 1.475.4671 1.475 1.2687 0 .8017-.456 1.232-1.468 1.232zm5.416 3.8906h4.928v-1.1436h-3.564v-2.0557h3.281v-1.1437h-3.281v-2.0446h3.534v-1.1436h-4.898z" fill="#effbff"/><path clip-rule="evenodd" d="m203.017 7.3509c-.756.41897-1.132 1.19886-.836 1.73309l8.076 14.56981c.296.5342 1.157.6285 1.913.2095.755-.419 1.132-1.1989.835-1.7331l-8.076-14.56975c-.296-.53423-1.157-.62853-1.912-.20955zm2.198.75012 5.12 9.23598c1.265-4.2152 9.567-1.4535 11.897-6.5949l-5.119-9.23591c-2.126 5.64031-11.047 1.63228-11.898 6.59483z" fill="#0092e4" fill-rule="evenodd"/><path d="m211.95 9.59936c-.416-1.27574-1.44-1.77323-2.475-1.4355-1.037.33835-1.568 1.34337-1.152 2.61914.416 1.2738 1.439 1.7738 2.475 1.4355 1.035-.3377 1.569-1.3434 1.152-2.61914zm-.719.23459c.294.89805.002 1.53275-.642 1.74285-.642.2094-1.254-.1304-1.547-1.0284-.293-.89804.001-1.53339.643-1.74282.643-.21005 1.253.13034 1.546 1.02837zm4.038-3.50116-.711.23207.878 2.69024-.035.01132-2.736-2.08397-.639.2088 1.288 3.94675.715-.2334-.878-2.68828.033-.01069 2.737 2.08137.636-.2075z" fill="#fff"/><rect fill="#fff" height="71.4627" rx="1.75316" stroke="#b0b1c4" stroke-width="1.70149" width="89.3283" x="17.8659" y="1.88786"/><rect fill="#d9dae6" height="3.58137" rx="1.79068" width="21.8861" x="28.9526" y="10.5889"/><rect fill="#d9dae6" height="3.58137" rx="1.79068" width="46.1598" x="28.9526" y="16.1592"/><rect fill="#d9dae6" height="3.58137" rx="1.79068" width="62.8729" x="28.9526" y="21.7314"/><rect fill="#d9dae6" height="3.58137" rx="1.79068" width="40.9867" x="28.9526" y="27.3027"/><rect height="30.9985" rx="2.18599" stroke="#0092e4" stroke-width=".83582" width="73.1791" x="25.3913" y="34.8818"/><path clip-rule="evenodd" d="m25.3911 32.1125c-.3957.2194-.5926.6277-.4376.9074l4.2284 7.6282c.155.2797.6057.329 1.0014.1097.3957-.2194.5926-.6277.4376-.9074l-4.2284-7.6282c-.155-.2797-.6056-.329-1.0014-.1097zm1.1788.3773 2.6804 4.8356c.6558-2.2034 4.9907-.7509 6.2018-3.4377l-2.6804-4.8356c-1.1037 2.948-5.7629.843-6.2018 3.4377z" fill="#0092e4" fill-rule="evenodd"/><rect fill="#d9dae6" height="3.58137" rx="1.79068" width="21.8861" x="30.5442" y="40.0361"/><rect fill="#d9dae6" height="3.58137" rx="1.79068" width="46.1598" x="30.5442" y="45.6084"/><rect fill="#d9dae6" height="3.58137" rx="1.79068" width="62.8729" x="30.5442" y="51.1787"/><rect fill="#d9dae6" height="3.58137" rx="1.79068" width="40.9867" x="30.5442" y="56.749"/><rect fill="#fff" height="71.4627" rx="1.75316" stroke="#b0b1c4" stroke-width="1.70149" width="89.3283" x="11.0595" y="6.99332"/><rect fill="#d9dae6" height="3.58137" rx="1.79068" width="21.8861" x="22.147" y="15.6924"/><rect fill="#d9dae6" height="3.58137" rx="1.79068" width="46.1598" x="22.147" y="21.2627"/><rect fill="#d9dae6" height="3.58137" rx="1.79068" width="62.8729" x="22.147" y="26.835"/><rect fill="#d9dae6" height="3.58137" rx="1.79068" width="40.9867" x="22.147" y="32.4062"/><rect height="30.9985" rx="2.18599" stroke="#0092e4" stroke-width=".83582" width="73.1791" x="18.5854" y="39.9853"/><path clip-rule="evenodd" d="m18.5852 37.2132c-.3957.2193-.5926.6277-.4376.9074l4.2284 7.6281c.155.2797.6056.3291 1.0014.1097.3957-.2193.5926-.6277.4376-.9074l-4.2284-7.6281c-.155-.2797-.6056-.3291-1.0014-.1097zm1.1791.3777 2.6804 4.8356c.6558-2.2035 4.9908-.751 6.2019-3.4378l-2.6804-4.8355c-1.1038 2.9479-5.763.843-6.2019 3.4377z" fill="#0092e4" fill-rule="evenodd"/><rect fill="#d9dae6" height="3.58137" rx="1.79068" width="21.8861" x="23.7385" y="45.1396"/><rect fill="#d9dae6" height="3.58137" rx="1.79068" width="46.1598" x="23.7385" y="50.7119"/><rect fill="#d9dae6" height="3.58137" rx="1.79068" width="62.8729" x="23.7385" y="56.2822"/><rect fill="#d9dae6" height="3.58137" rx="1.79068" width="40.9867" x="23.7385" y="61.8525"/><rect fill="#fff" height="71.4627" rx="1.75316" stroke="#b0b1c4" stroke-width="1.70149" width="89.3283" x="3.40324" y="12.9474"/><rect fill="#d9dae6" height="3.58137" rx="1.79068" width="21.8861" x="14.4902" y="21.6475"/><rect fill="#d9dae6" height="3.58137" rx="1.79068" width="46.1598" x="14.4902" y="27.2178"/><rect fill="#d9dae6" height="3.58137" rx="1.79068" width="62.8729" x="14.4902" y="32.79"/><rect fill="#d9dae6" height="3.58137" rx="1.79068" width="40.9867" x="14.4902" y="38.3613"/><rect height="30.9985" rx="2.18599" stroke="#0092e4" stroke-width=".83582" width="73.1791" x="10.9287" y="45.9404"/><path clip-rule="evenodd" d="m10.9285 43.1701c-.3957.2194-.5927.6277-.4376.9074l4.2283 7.6282c.1551.2797.6057.329 1.0014.1097.3958-.2194.5927-.6277.4377-.9074l-4.2284-7.6282c-.155-.2797-.6057-.329-1.0014-.1097zm1.1787.3773 2.6804 4.8356c.6558-2.2034 4.9907-.7509 6.2018-3.4378l-2.6804-4.8355c-1.1037 2.9479-5.7629.843-6.2018 3.4377z" fill="#0092e4" fill-rule="evenodd"/><rect fill="#d9dae6" height="3.58137" rx="1.79068" width="21.8861" x="16.0818" y="51.0947"/><rect fill="#d9dae6" height="3.58137" rx="1.79068" width="46.1598" x="16.0818" y="56.666"/><rect fill="#d9dae6" height="3.58137" rx="1.79068" width="62.8729" x="16.0818" y="62.2363"/><rect fill="#d9dae6" height="3.58137" rx="1.79068" width="40.9867" x="16.0818" y="67.8066"/><path d="m125.472 51.1388c.552-.5523.552-1.4479 0-2.0003l-9.002-9.0015c-.552-.5524-1.448-.5524-2 0s-.552 1.448 0 2.0003l8.001 8.0014-8.001 8.0013c-.552.5524-.552 1.448 0 2.0003.552.5524 1.448.5524 2 0zm-41.5479.4143h40.5479v-2.8289h-40.5479z" fill="#6b6d85" opacity=".2"/></svg>