<svg fill="none" height="134" viewBox="0 0 180 134" width="180" xmlns="http://www.w3.org/2000/svg"><path d="m36.625 107.341c-3.2102-.955-6.2579-2.288-9.0915-3.947l-.9587.959c-2.3188 2.319-6.0782 2.319-8.3969 0l-6.5309-6.5309c-2.31877-2.3187-2.31877-6.0781 0-8.3969l.9586-.9587c-1.6587-2.8336-2.99154-5.8813-3.94694-9.0915h-1.72116c-3.27919 0-5.9375-2.6583-5.9375-5.9375v-11.875c0-3.2792 2.65831-5.9375 5.9375-5.9375h1.72116c.9554-3.2102 2.28824-6.2579 3.94694-9.0915l-.9586-.9587c-2.31877-2.3188-2.31877-6.0782 0-8.3969l6.5309-6.5309c2.3187-2.3188 6.0781-2.3188 8.3969 0l.9587.9586c2.8336-1.6587 5.8813-2.9915 9.0915-3.9469v-1.7212c0-3.2792 2.6583-5.9375 5.9375-5.9375h11.875c3.2792 0 5.9375 2.6583 5.9375 5.9375v1.7212c3.2102.9554 6.2579 2.2882 9.0915 3.9469l.9587-.9586c2.3188-2.3188 6.0782-2.3188 8.3969 0l6.5309 6.5309c2.3188 2.3187 2.3188 6.0781 0 8.3969l-.9586.9587c1.6587 2.8336 2.9915 5.8813 3.9469 9.0915h1.7212c3.2792 0 5.9375 2.6583 5.9375 5.9375v11.875c0 3.2792-2.6583 5.9375-5.9375 5.9375h-1.7212c-.9554 3.2102-2.2882 6.2579-3.9469 9.0915l.9586.9587c2.3188 2.3188 2.3188 6.0782 0 8.3969l-6.5309 6.5309c-2.3187 2.319-6.0781 2.319-8.3969 0l-.9587-.959c-2.8336 1.659-5.8813 2.992-9.0915 3.947v1.722c0 3.279-2.6583 5.937-5.9375 5.937h-11.875c-3.2792 0-5.9375-2.658-5.9375-5.937z" stroke="#0092e4" stroke-linecap="round" stroke-linejoin="round" stroke-width=".8"/><circle cx="48.0654" cy="67.0651" fill="#fff" r="23.7389" stroke="#0092e4" stroke-width=".968933"/><path clip-rule="evenodd" d="m38.911 61.1387c-.7621.4224-1.1413 1.2087-.8428 1.7474l8.1427 14.6897c.2985.5386 1.1663.6337 1.9284.2112.7621-.4224 1.1413-1.2087.8427-1.7473l-8.1426-14.6897c-.2986-.5386-1.1664-.6337-1.9284-.2113zm2.2697.7249 5.1618 9.312c1.2628-4.2432 9.6108-1.4461 11.9429-6.6201l-5.1617-9.312c-2.1254 5.677-11.0978 1.6234-11.943 6.6201z" fill="#0092e4" fill-rule="evenodd"/><circle cx="143.218" cy="82.3077" fill="#fff" r="3.27914" stroke="#0278d5" stroke-width=".819785"/><path d="m149.317 70.377h24.5241v24.5241h-24.5241z" fill="#06b7c4" opacity=".01"/><path clip-rule="evenodd" d="m162.323 77.0911c-.003.0663.027.1298.08.1695l10.249 7.6492c.533.3981.536 1.1965.006 1.5985l-10.477 7.9369c-.356.2701-.849.2706-1.206.0012l-10.562-7.9695c-.52-.3919-.532-1.1677-.026-1.5764l1.614-1.3029c.072-.0583.175-.0592.249-.0022l.55.4282c.157.1221.154.3603-.006.4783l-1.193.8792c-.107.0793-.108.2397-.002.3204l8.896 6.7339c.131.0997.32.0058.32-.1594v-4.0686l-10.433-7.8331c-.533-.4001-.532-1.1998.001-1.5997l10.606-7.9545c.35-.2631.832-.267 1.187-.0096l10.762 7.803c.566.4101.547 1.2592-.036 1.6441l-2.029 1.3398-.837-.8189c-.093-.0915-.075-.2468.037-.3143l1.403-.8439c.124-.0746.13-.2523.012-.3353l-8.68-6.0674c-.129-.0903-.307-.0027-.314.1547zm-1.173-4.066c0-.1648-.188-.2589-.32-.1601l-8.603 6.4481c-.107.0798-.107.2394-.001.3196l9.078 6.8582c.165.1249.391.1349.566.0251l4.271-2.6679c.073-.0454.166-.0394.233.0149l.866.7089c.106.0865.096.2514-.02.3241l-5.105 3.2077c-.058.0365-.094.1005-.094.1693v4.0585c0 .166.191.2598.322.1583l8.589-6.6261c.104-.0803.104-.2375-.001-.3173l-9.146-6.9834c-.073-.0554-.174-.0546-.245.0019l-3.873 3.0504c-.077.0604-.186.0566-.258-.0089l-.745-.6753c-.092-.0831-.087-.2288.011-.3053l4.399-3.4607c.048-.0379.076-.0958.076-.1572z" fill="#06b7c4" fill-rule="evenodd"/><path d="m149.345 102.995h24.5241v24.5241h-24.5241z" fill="#0092e4" opacity=".01"/><path clip-rule="evenodd" d="m162.351 109.709c-.003.067.027.13.08.17l10.249 7.649c.534.398.536 1.196.006 1.598l-10.476 7.937c-.357.27-.85.271-1.207.002l-10.562-7.97c-.519-.392-.532-1.168-.026-1.576l1.615-1.303c.072-.059.175-.059.248-.002l.55.428c.157.122.154.36-.006.478l-1.192.879c-.108.08-.109.24-.002.321l8.895 6.734c.132.099.321.005.321-.16v-4.068l-10.433-7.834c-.533-.4-.533-1.199 0-1.599l10.606-7.955c.351-.263.832-.267 1.187-.009l10.763 7.803c.565.41.547 1.259-.036 1.644l-2.029 1.34-.837-.819c-.094-.092-.076-.247.036-.315l1.403-.843c.125-.075.131-.253.012-.336l-8.679-6.067c-.13-.091-.308-.003-.315.154zm-1.172-4.066c0-.165-.189-.259-.32-.16l-8.604 6.448c-.107.08-.107.24-.001.32l9.078 6.858c.166.125.391.135.567.025l4.271-2.668c.072-.045.166-.039.232.015l.867.709c.105.087.095.251-.021.324l-5.105 3.208c-.058.036-.093.1-.093.169v4.059c0 .166.19.259.322.158l8.588-6.626c.105-.08.104-.238 0-.317l-9.147-6.984c-.072-.055-.173-.054-.245.002l-3.873 3.05c-.076.061-.186.057-.258-.008l-.745-.676c-.092-.083-.086-.229.011-.305l4.399-3.461c.048-.038.077-.096.077-.157z" fill="#af481a" fill-rule="evenodd"/><path d="m149.317 6.12988h24.5241v24.5241h-24.5241z" fill="#000" opacity=".01"/><path clip-rule="evenodd" d="m162.323 12.8441c-.003.0663.027.1297.08.1694l10.249 7.6492c.533.3982.536 1.1966.006 1.5985l-10.477 7.9369c-.356.2701-.849.2706-1.206.0012l-10.562-7.9695c-.52-.3919-.532-1.1677-.026-1.5764l1.614-1.3029c.072-.0583.175-.0592.249-.0022l.55.4283c.157.1221.154.3602-.006.4782l-1.193.8792c-.107.0793-.108.2398-.002.3204l8.896 6.734c.131.0997.32.0057.32-.1595v-4.0686l-10.433-7.8331c-.533-.4001-.532-1.1998.001-1.5997l10.606-7.95445c.35-.26308.832-.26697 1.187-.00961l10.762 7.80296c.566.4102.547 1.2592-.036 1.6442l-2.029 1.3398-.837-.8189c-.093-.0916-.075-.2469.037-.3144l1.403-.8438c.124-.0747.13-.2524.012-.3353l-8.68-6.06749c-.129-.09029-.307-.00268-.314.15474zm-1.173-4.06609c0-.16478-.188-.25887-.32-.16005l-8.603 6.44804c-.107.0798-.107.2394-.001.3197l9.078 6.8581c.165.1249.391.1349.566.0251l4.271-2.6678c.073-.0455.166-.0395.233.0148l.866.7089c.106.0865.096.2514-.02.3241l-5.105 3.2077c-.058.0366-.094.1005-.094.1693v4.0585c0 .1661.191.2598.322.1584l8.589-6.6261c.104-.0803.104-.2375-.001-.3173l-9.146-6.9835c-.073-.0554-.174-.0546-.245.0019l-3.873 3.0504c-.077.0604-.186.0567-.258-.0089l-.745-.6752c-.092-.0832-.087-.2289.011-.3054l4.399-3.4606c.048-.038.076-.0959.076-.1572z" fill="#22222a" fill-rule="evenodd"/><path d="m149.183 38.6152h23.991v23.991h-23.991z" fill="#592baa" opacity=".01"/><path clip-rule="evenodd" d="m161.907 45.1812c-.003.0663.027.1297.08.1694l10.001 7.4643c.533.3981.536 1.1965.006 1.5985l-10.213 7.7369c-.356.2702-.849.2706-1.206.0012l-10.297-7.7695c-.519-.3919-.532-1.1677-.026-1.5764l1.555-1.2549c.072-.0584.175-.0593.248-.0022l.529.4115c.157.1221.154.3602-.006.4782l-1.155.8515c-.107.0793-.108.2398-.002.3205l8.69 6.5787c.132.0997.321.0058.321-.1595v-3.9714l-10.183-7.6453c-.533-.4002-.533-1.1999 0-1.5997l10.34-7.7546c.351-.2631.832-.267 1.187-.0096l10.49 7.6055c.566.4101.547 1.2592-.036 1.6441l-1.959 1.2934-.814-.7971c-.094-.0916-.076-.2469.036-.3144l1.362-.8191c.125-.0747.131-.2524.012-.3354l-8.479-5.9272c-.129-.0902-.307-.0026-.314.1548zm-1.147-3.9663c0-.1647-.188-.2588-.32-.16l-8.405 6.2992c-.107.0798-.107.2394-.001.3196l8.87 6.7011c.166.1249.391.1349.567.0251l4.169-2.6042c.072-.0454.166-.0395.232.0148l.841.6877c.106.0865.095.2514-.021.3241l-4.987 3.1334c-.058.0366-.093.1006-.093.1694v3.959c0 .1661.19.2598.322.1583l8.39-6.4731c.104-.0803.104-.2375 0-.3173l-8.941-6.8262c-.072-.0554-.173-.0546-.245.0019l-3.783 2.9798c-.077.0604-.186.0566-.258-.009l-.722-.6546c-.092-.0832-.087-.2288.01-.3054l4.298-3.3809c.049-.0379.077-.0958.077-.1572z" fill="#592baa" fill-rule="evenodd"/><circle cx="143.218" cy="114.935" fill="#fff" r="3.27914" stroke="#0278d5" stroke-width=".819785"/><path d="m143.88 114.678.277.277v.577h-.513v-.854zm1.045-.427v1.708c0 .188-.153.342-.341.342h-2.733c-.188 0-.341-.154-.341-.342l.001-2.049c0-.188.152-.342.34-.342h1.025l.341.342h1.367c.188 0 .341.154.341.341zm-.512.598-.427-.427h-.598v1.366h1.025z" fill="#0092e4"/><circle cx="143.218" cy="52.5187" fill="#fff" r="3.27914" stroke="#0278d5" stroke-width=".819785"/><circle cx="143.218" cy="18.4737" fill="#fff" r="3.27914" stroke="#0278d5" stroke-width=".819785"/><path d="m143.881 18.2174.276.2767v.5772h-.512v-.8539zm1.045-.4269v1.7077c0 .1879-.154.3415-.342.3415h-2.732c-.188 0-.342-.1536-.342-.3415l.002-2.0492c0-.1879.152-.3416.34-.3416h1.024l.342.3416h1.366c.188 0 .342.1537.342.3415zm-.513.5977-.427-.4269h-.597v1.3661h1.024z" fill="#0092e4"/><g stroke="#0092e4"><path d="m138.93 19.8594h-9.93l.5 95.1406h10.5" stroke-width="1.13484"/><path d="m138.93 82.2754h-9.93" stroke-dasharray="2.84 2.84" stroke-width="1.13484"/><path d="m138.93 52.4863h-9.93" stroke-dasharray="2.84 2.84" stroke-width="1.13484"/><path d="m129 67h-57" stroke-width=".8"/></g></svg>