<svg fill="none" viewBox="0 0 320 220" xmlns="http://www.w3.org/2000/svg" xmlns:xlink="http://www.w3.org/1999/xlink"><radialGradient id="a" cx="0" cy="0" gradientTransform="matrix(-1.07102 48.89247 -132.45122 -2.90143 212.852 199.628)" gradientUnits="userSpaceOnUse" r="1"><stop offset="0"/><stop offset="1" stop-color="#3e7bfa" stop-opacity="0"/></radialGradient><linearGradient id="b" gradientUnits="userSpaceOnUse" x1="130.914" x2="201.857" y1="14.881" y2="155.112"><stop offset="0" stop-color="#73dfe7" stop-opacity=".65"/><stop offset="1" stop-color="#0095f7"/></linearGradient><clipPath id="c"><path d="m0 0h320v220h-320z"/></clipPath><g clip-path="url(#c)"><path d="m437.1 194.4c0 49.4-108.6 89.5-242.5 89.5s-242.5-40.1-242.5-89.5 108.6-89.5 242.5-89.5 242.5 40 242.5 89.5z" fill="url(#a)" fill-opacity=".1" opacity=".7"/><path d="m233.5 182.3v-33.1l-32.4-7.4-22.9 7.4v33.1l31.7 10.1z" fill="#fff"/><path d="m179 189.3c-.3 0-.5-.2-.5-.5v-43.6c0-.3.2-.5.5-.5s.5.2.5.5v43.6c0 .3-.2.5-.5.5z" fill="#000"/><path d="m215.4 194.4h-.1c-10.6-2.7-25.1-6.4-39.8-10.1-.3-.1-.4-.3-.4-.6.1-.3.3-.4.6-.4 14.7 3.7 29.2 7.4 39.8 10.1.3.1.4.3.4.6-.1.2-.3.4-.5.4zm10.4-36.9s-.1 0 0 0c-16.1-3.1-36.2-6.8-53.8-10.1-.3 0-.5-.3-.4-.6s.3-.5.6-.4c17.6 3.3 37.6 7.1 53.7 10.1.3.1.4.3.4.6-.1.2-.3.4-.5.4zm17.3-6.7h-.1c-10.7-2.5-23.8-5.6-36.5-8.5l-6.8-1.6c-.3-.1-.4-.3-.4-.6.1-.3.3-.4.6-.4l6.8 1.6c12.7 2.9 25.8 6 36.5 8.5.3.1.4.3.4.6-.1.2-.3.4-.5.4z" fill="#000"/><path d="m206.7 194.8c-.2 0-.4-.1-.5-.3-.1-.3 0-.5.3-.7 5.1-2 10.5-4.2 15.8-6.3 6.7-2.7 13.2-5.3 18.8-7.6.3-.1.5 0 .7.3.1.3 0 .5-.3.7-5.6 2.3-12.2 4.9-18.8 7.6-5.3 2.1-10.7 4.3-15.8 6.3zm1.8-38.9c-.2 0-.4-.1-.5-.4s.1-.5.4-.6l31.3-8.5c.3-.1.5.1.6.4s-.1.5-.4.6l-31.3 8.5zm-36.4-5.5c-.2 0-.4-.1-.5-.4s.1-.5.3-.6c11.8-3.5 25-7.3 36.5-10.7l7.9-2.3c.3-.1.5.1.6.3.1.3-.1.5-.3.6l-7.9 2.3c-11.5 3.4-24.7 7.2-36.5 10.7 0 .1-.1.1-.1.1z" fill="#000"/><path d="m211.9 194.3c-.3 0-.5-.2-.5-.5v-40.2c0-.3.2-.5.5-.5s.5.2.5.5v40.2c0 .3-.2.5-.5.5zm22.5-9.6c-.3 0-.5-.2-.5-.5v-36.4c0-.3.2-.5.5-.5s.5.2.5.5v36.4c0 .3-.2.5-.5.5z" fill="#000"/><path d="m212.9 190.7h-.1c-.3-.1-.4-.3-.4-.6 1.7-6.7 3.5-13.9 5.4-21.5 1.6-6.6 3.3-13.2 5-19.6.1-.3.3-.4.6-.4.3.1.4.3.4.6-1.6 6.4-3.3 13.1-5 19.6-1.9 7.6-3.7 14.7-5.4 21.5-.1.3-.3.4-.5.4zm5.8-2.5h-.1c-.3-.1-.4-.3-.4-.6l4.9-19.3 5-19.3c.1-.3.3-.4.6-.4.3.1.4.3.4.6l-.7 2.7c-3.2 12.3-6.2 24.2-9.2 35.9-.1.2-.3.4-.5.4zm5-.1h-.1c-.3-.1-.4-.3-.4-.6l10.1-37.2c.1-.3.3-.4.6-.4.3.1.4.3.4.6l-10.1 37.2c-.1.3-.3.4-.5.4zm-12.3-12.6h-.1c-.3-.1-.4-.3-.4-.6l5.8-22.6c.1-.3.3-.4.6-.4.3.1.4.3.4.6l-5.8 22.6c-.1.2-.3.4-.5.4zm17.5 11h-.1c-.3-.1-.4-.4-.3-.6l5-16.2c.1-.3.4-.4.6-.3.3.1.4.4.3.6l-5 16.2c-.1.2-.3.3-.5.3z" fill="#000"/><path d="m278.5 198.3v-33.1l-32.4-7.4-22.9 7.4v33.1l31.7 10.1z" fill="#fff"/><path d="m224 205.3c-.3 0-.5-.2-.5-.5v-43.6c0-.3.2-.5.5-.5s.5.2.5.5v43.6c0 .3-.2.5-.5.5z" fill="#000"/><path d="m260.4 210.4h-.1c-10.6-2.7-25.1-6.4-39.8-10.1-.3-.1-.4-.3-.4-.6.1-.3.3-.4.6-.4 14.7 3.7 29.2 7.4 39.8 10.1.3.1.4.3.4.6-.1.2-.3.4-.5.4zm10.4-36.9s-.1 0 0 0c-16.1-3.1-36.2-6.8-53.8-10.1-.3 0-.5-.3-.4-.6s.3-.5.6-.4c17.6 3.3 37.6 7.1 53.7 10.1.3.1.4.3.4.6-.1.2-.3.4-.5.4zm17.3-6.7h-.1c-10.7-2.5-23.8-5.6-36.5-8.5l-6.8-1.6c-.3-.1-.4-.3-.4-.6.1-.3.3-.4.6-.4l6.8 1.6c12.7 2.9 25.8 6 36.5 8.5.3.1.4.3.4.6-.1.2-.3.4-.5.4z" fill="#000"/><path d="m251.7 210.8c-.2 0-.4-.1-.5-.3-.1-.3 0-.5.3-.7 5.1-2 10.5-4.2 15.8-6.3 6.7-2.7 13.2-5.3 18.8-7.6.3-.1.5 0 .7.3.1.3 0 .5-.3.7-5.6 2.3-12.2 4.9-18.8 7.6-5.3 2.1-10.7 4.3-15.8 6.3zm1.8-38.9c-.2 0-.4-.1-.5-.4s.1-.5.4-.6l31.3-8.5c.3-.1.5.1.6.4s-.1.5-.4.6l-31.3 8.5zm-36.4-5.5c-.2 0-.4-.1-.5-.4s.1-.5.3-.6c11.8-3.5 25-7.3 36.5-10.7l7.9-2.3c.3-.1.5.1.6.3.1.3-.1.5-.3.6l-7.9 2.3c-11.5 3.4-24.7 7.2-36.5 10.7 0 .1-.1.1-.1.1z" fill="#000"/><path d="m256.9 210.3c-.3 0-.5-.2-.5-.5v-40.2c0-.3.2-.5.5-.5s.5.2.5.5v40.2c0 .3-.2.5-.5.5zm22.5-9.6c-.3 0-.5-.2-.5-.5v-36.4c0-.3.2-.5.5-.5s.5.2.5.5v36.4c0 .3-.2.5-.5.5z" fill="#000"/><path d="m257.9 206.7h-.1c-.3-.1-.4-.3-.4-.6 1.7-6.7 3.5-13.9 5.4-21.5 1.6-6.6 3.3-13.2 5-19.6.1-.3.3-.4.6-.4.3.1.4.3.4.6-1.6 6.4-3.3 13.1-5 19.6-1.9 7.6-3.7 14.7-5.4 21.5-.1.3-.3.4-.5.4zm5.8-2.5h-.1c-.3-.1-.4-.3-.4-.6l4.9-19.3 5-19.3c.1-.3.3-.4.6-.4.3.1.4.3.4.6l-.7 2.7c-3.2 12.3-6.2 24.2-9.2 35.9-.1.2-.3.4-.5.4zm5-.1h-.1c-.3-.1-.4-.3-.4-.6l10.1-37.2c.1-.3.3-.4.6-.4.3.1.4.3.4.6l-10.1 37.2c-.1.3-.3.4-.5.4zm-12.3-12.6h-.1c-.3-.1-.4-.3-.4-.6l5.8-22.6c.1-.3.3-.4.6-.4.3.1.4.3.4.6l-5.8 22.6c-.1.2-.3.4-.5.4zm17.5 11h-.1c-.3-.1-.4-.4-.3-.6l5-16.2c.1-.3.4-.4.6-.3.3.1.4.4.3.6l-5 16.2c-.1.2-.3.3-.5.3z" fill="#000"/><path d="m241.5 207.3v-33.1l-32.4-7.4-22.9 7.4v33.1l31.7 10.1z" fill="#fff"/><path d="m187 214.3c-.3 0-.5-.2-.5-.5v-43.6c0-.3.2-.5.5-.5s.5.2.5.5v43.6c0 .3-.2.5-.5.5z" fill="#000"/><path d="m223.4 219.4h-.1c-10.6-2.7-25.1-6.4-39.8-10.1-.3-.1-.4-.3-.4-.6.1-.3.3-.4.6-.4 14.7 3.7 29.2 7.4 39.8 10.1.3.1.4.3.4.6-.1.2-.3.4-.5.4zm10.4-36.9s-.1 0 0 0c-16.1-3.1-36.2-6.8-53.8-10.1-.3 0-.5-.3-.4-.6s.3-.4.6-.4c17.6 3.3 37.6 7.1 53.7 10.1.3.1.4.3.4.6-.1.2-.3.4-.5.4zm17.3-6.7h-.1c-10.7-2.5-23.8-5.6-36.5-8.5l-6.8-1.6c-.3-.1-.4-.3-.4-.6.1-.3.3-.4.6-.4l6.8 1.6c12.7 2.9 25.8 6 36.5 8.5.3.1.4.3.4.6-.1.2-.3.4-.5.4z" fill="#000"/><path d="m214.7 219.8c-.2 0-.4-.1-.5-.3-.1-.3 0-.5.3-.7 5.1-2 10.5-4.2 15.8-6.3 6.7-2.7 13.2-5.3 18.8-7.6.3-.1.5 0 .7.3.1.3 0 .5-.3.7-5.6 2.3-12.2 4.9-18.8 7.6-5.3 2.1-10.7 4.3-15.8 6.3zm1.8-38.9c-.2 0-.4-.1-.5-.4s.1-.5.4-.6l31.3-8.5c.3-.1.5.1.6.4s-.1.5-.4.6l-31.3 8.5zm-36.4-5.5c-.2 0-.4-.1-.5-.4s.1-.5.3-.6c11.8-3.5 25-7.3 36.5-10.7l7.9-2.3c.3-.1.5.1.6.3.1.3-.1.5-.3.6l-7.9 2.3c-11.5 3.4-24.7 7.2-36.5 10.7 0 .1-.1.1-.1.1z" fill="#000"/><path d="m219.9 219.3c-.3 0-.5-.2-.5-.5v-40.2c0-.3.2-.5.5-.5s.5.2.5.5v40.2c0 .3-.2.5-.5.5zm22.5-9.6c-.3 0-.5-.2-.5-.5v-36.4c0-.3.2-.5.5-.5s.5.2.5.5v36.4c0 .3-.2.5-.5.5z" fill="#000"/><path d="m220.9 215.7h-.1c-.3-.1-.4-.3-.4-.6 1.7-6.7 3.5-13.9 5.4-21.5 1.6-6.6 3.3-13.2 5-19.6.1-.3.3-.4.6-.4.3.1.4.3.4.6-1.6 6.4-3.3 13.1-5 19.6-1.9 7.6-3.7 14.7-5.4 21.5-.1.3-.3.4-.5.4zm5.8-2.5h-.1c-.3-.1-.4-.3-.4-.6l4.9-19.3 5-19.3c.1-.3.3-.4.6-.4.3.1.4.3.4.6l-.7 2.7c-3.2 12.3-6.2 24.2-9.2 35.9-.1.2-.3.4-.5.4zm5-.1h-.1c-.3-.1-.4-.3-.4-.6l10.1-37.2c.1-.3.3-.4.6-.4.3.1.4.3.4.6l-10.1 37.2c-.1.3-.3.4-.5.4zm-12.3-12.6h-.1c-.3-.1-.4-.3-.4-.6l5.8-22.6c.1-.3.3-.4.6-.4.3.1.4.3.4.6l-5.8 22.6c-.1.2-.3.4-.5.4zm17.5 11h-.1c-.3-.1-.4-.4-.3-.6l5-16.2c.1-.3.4-.4.6-.3.3.1.4.4.3.6l-5 16.2c-.1.2-.3.3-.5.3z" fill="#000"/><path d="m250.1 165.9-1.6-34.6-32.4-7.4-22.9 7.4v33.1l31.7 10.1z" fill="#fff"/><path d="m194 171.3c-.3 0-.5-.2-.5-.5v-43.6c0-.3.2-.5.5-.5s.5.2.5.5v43.6c0 .3-.2.5-.5.5z" fill="#000"/><path d="m230.4 176.4h-.1c-10.6-2.7-25.1-6.4-39.8-10.1-.3-.1-.4-.3-.4-.6.1-.3.3-.4.6-.4 14.7 3.7 29.2 7.4 39.8 10.1.3.1.4.3.4.6-.1.2-.3.4-.5.4zm-.8-39.1s-.1 0 0 0c-14.1-2.6-22.8-4.2-37.1-6.9l-5.5-1c-.3 0-.5-.3-.4-.6s.3-.5.6-.4l5.5 1c14.3 2.7 23 4.3 37 6.9.3 0 .5.3.4.6-.1.2-.3.4-.5.4zm28.5-4.5h-.1c-10.7-2.5-23.8-5.6-36.5-8.5l-6.8-1.6c-.3-.1-.4-.3-.4-.6.1-.3.3-.4.6-.4l6.8 1.6c12.7 2.9 25.8 6 36.5 8.5.3.1.4.3.4.6-.1.2-.3.4-.5.4z" fill="#000"/><path d="m223.1 175.9c-.2 0-.4-.1-.5-.4s.1-.5.3-.6c2.8-.9 5.4-1.7 7.8-2.4 8.4-2.6 15.1-4.6 24.1-8.1.3-.1.5 0 .6.3s0 .5-.3.6c-9 3.5-15.7 5.6-24.2 8.1-2.4.7-5 1.5-7.8 2.4.1.1 0 .1 0 .1zm.4-38c-.2 0-.4-.1-.5-.4s.1-.5.4-.6l31.3-8.5c.3-.1.5.1.6.4s-.1.5-.4.6l-31.3 8.5zm-36.4-5.5c-.2 0-.4-.1-.5-.4s.1-.5.3-.6c11.8-3.5 25-7.3 36.5-10.7l7.9-2.3c.3-.1.5.1.6.3.1.3-.1.5-.3.6l-7.9 2.3c-11.5 3.4-24.7 7.2-36.5 10.7 0 .1-.1.1-.1.1z" fill="#000"/><path d="m226.9 176.3c-.3 0-.5-.2-.5-.5v-40.2c0-.3.2-.5.5-.5s.5.2.5.5v40.2c0 .3-.2.5-.5.5zm22.5-9.6c-.3 0-.5-.2-.5-.5v-36.4c0-.3.2-.5.5-.5s.5.2.5.5v36.4c0 .3-.2.5-.5.5z" fill="#000"/><path d="m227.9 172.7h-.1c-.3-.1-.4-.3-.4-.6 1.6-6.3 3-12.2 4.5-18.4s3-12.5 4.7-19.3c.1-.3.3-.4.6-.4.3.1.4.3.4.6-1.8 6.8-3.3 13.2-4.7 19.3-1.5 6.2-2.9 12.1-4.5 18.4-.1.3-.3.4-.5.4zm5.3-.2h-.1c-.3-.1-.4-.3-.4-.6.7-2.8 1.5-5.7 2.2-8.6l2.7-10.5 5.5-21c.1-.3.3-.4.6-.4.3.1.4.3.4.6-1.4 5.5-2.9 11.3-4.4 17-1.3 4.8-2.5 9.7-3.8 14.4l-2.2 8.6c-.1.3-.3.5-.5.5zm5.5-2.4h-.1c-.3-.1-.4-.4-.3-.6l10.9-38.6c.1-.3.4-.4.6-.3.3.1.4.4.3.6l-10.9 38.6c-.1.2-.3.3-.5.3zm-12.3-12.5h-.1c-.3-.1-.4-.3-.4-.6l4.7-21.7c.1-.3.3-.4.6-.4.3.1.4.3.4.6l-4.7 21.7c-.1.2-.3.4-.5.4zm17.5 10.9h-.1c-.3-.1-.4-.4-.3-.6l5-16.2c.1-.3.4-.4.6-.3.3.1.4.4.3.6l-5 16.2c-.1.2-.3.3-.5.3z" fill="#000"/><path d="m109.5 196.3v-33.1l-32.4-7.4-22.9 7.4v33.1l31.7 10.1z" fill="#fff"/><path d="m55 203.3c-.3 0-.5-.2-.5-.5v-43.6c0-.3.2-.5.5-.5s.5.2.5.5v43.6c0 .3-.2.5-.5.5z" fill="#000"/><path d="m91.4 208.4h-.1c-10.6-2.7-25.1-6.4-39.8-10.1-.3-.1-.4-.3-.4-.6s.3-.4.6-.4c14.7 3.7 29.2 7.4 39.8 10.1.3.1.4.3.4.6-.1.2-.3.4-.5.4zm10.4-36.9s-.1 0 0 0c-16.1-3.1-36.2-6.8-53.8-10.1-.3 0-.5-.3-.4-.6s.3-.5.6-.4c17.6 3.3 37.7 7.1 53.7 10.1.3.1.4.3.4.6-.1.2-.3.4-.5.4zm17.3-6.7h-.1c-10.7-2.5-23.9-5.6-36.6-8.5l-6.7-1.6c-.3-.1-.4-.3-.4-.6.1-.3.3-.4.6-.4l6.7 1.6c12.7 3 25.8 6 36.6 8.5.3.1.4.3.4.6-.1.2-.3.4-.5.4z" fill="#000"/><path d="m82.7 208.8c-.2 0-.4-.1-.5-.3-.1-.3 0-.5.3-.7 5.1-2 10.4-4.2 15.7-6.3 6.7-2.7 13.2-5.3 18.9-7.6.3-.1.5 0 .7.3s0 .5-.3.7c-5.6 2.3-12.2 4.9-18.9 7.6-5.3 2.1-10.7 4.3-15.7 6.3zm1.8-38.9c-.2 0-.4-.1-.5-.4s.1-.5.4-.6l31.3-8.5c.3-.1.5.1.6.4s-.1.5-.4.6l-31.3 8.5zm-36.4-5.5c-.2 0-.4-.1-.5-.4s.1-.5.3-.6c11.8-3.5 25-7.3 36.5-10.7l7.9-2.3c.3-.1.5.1.6.3.1.3-.1.5-.3.6l-7.9 2.3c-11.5 3.4-24.7 7.2-36.5 10.7 0 .1-.1.1-.1.1z" fill="#000"/><path d="m87.9 208.3c-.3 0-.5-.2-.5-.5v-40.2c0-.3.2-.5.5-.5s.5.2.5.5v40.2c0 .3-.2.5-.5.5zm22.5-9.6c-.3 0-.5-.2-.5-.5v-36.4c0-.3.2-.5.5-.5s.5.2.5.5v36.4c0 .3-.2.5-.5.5z" fill="#000"/><path d="m88.9 204.7h-.1c-.3-.1-.4-.3-.4-.6 1.7-6.7 3.5-13.9 5.4-21.5 1.6-6.6 3.3-13.2 5-19.6.1-.3.3-.4.6-.4.3.1.4.3.4.6-1.6 6.4-3.3 13-5 19.6-1.9 7.6-3.7 14.7-5.4 21.5-.1.3-.3.4-.5.4zm5.8-2.5h-.1c-.3-.1-.4-.3-.4-.6l4.9-19.3 5-19.3c.1-.3.3-.4.6-.4.3.1.4.3.4.6l-.7 2.6c-3.2 12.3-6.2 24.2-9.2 36-.1.2-.3.4-.5.4zm5-.1h-.1c-.3-.1-.4-.3-.4-.6l10.1-37.2c.1-.3.3-.4.6-.4.3.1.4.3.4.6l-10.1 37.2c-.1.3-.3.4-.5.4zm-12.3-12.6h-.1c-.3-.1-.4-.3-.4-.6l5.8-22.6c.1-.3.3-.4.6-.4.3.1.4.3.4.6l-5.8 22.6c-.1.2-.3.4-.5.4zm17.5 11h-.1c-.3-.1-.4-.4-.3-.6l5-16.2c.1-.3.4-.4.6-.3.3.1.4.4.3.6l-5 16.2c-.1.2-.3.3-.5.3z" fill="#000"/><path d="m152.8 137.5-36.4-6.2v-33.4l36.4 4.5 13.6-8 15.5-6-11.5 9.5v30.5z" fill="#fff"/><g fill="#000"><path clip-rule="evenodd" d="m158.7 92.7c.3.1.4.3.4.6l-2.8 11.2c-.9 3.8-1.9 7.6-2.7 10.6-.1.3-.3.4-.6.4-.3-.1-.4-.3-.4-.6l2.7-10.6v-.2c1-3.9 1.9-7.8 2.8-11 0-.3.3-.4.6-.4zm-8.4-1.8c.3.1.4.3.3.6l-2.9 10c-.1.3-.4.4-.6.3-.3-.1-.4-.3-.3-.6l2.9-10c.1-.3.4-.4.6-.3zm4.9 1.1c.3.1.4.3.3.6l-2.8 9.7c-.1.3-.4.4-.6.3-.3-.1-.4-.3-.3-.6l2.8-9.7c0-.2.3-.3.6-.3zm5.6 4.9c.3.1.4.3.4.6-.8 3.2-2.2 8.4-3.6 13.7v.1c-1.4 5.2-2.8 10.3-3.5 13.3-.1.3-.3.4-.6.4-.3-.1-.4-.3-.4-.6.8-3.1 2.2-8.2 3.5-13.3v-.1c1.4-5.2 2.8-10.5 3.6-13.6.1-.4.4-.6.6-.5zm8-.4c.3.1.4.3.4.6l-8.9 38.6c-.1.3-.3.4-.6.4-.3-.1-.4-.3-.4-.6l8.9-38.6c.1-.3.4-.4.6-.4zm-4.9 2.1c.3.1.4.3.4.6l-9.6 40c-.1.3-.3.4-.6.4-.3-.1-.4-.3-.4-.6l9.6-40c.1-.3.4-.4.6-.4zm5.5 14.3c.3.1.4.3.4.6l-4.3 18.1c-.1.3-.3.4-.6.4-.3-.1-.4-.3-.4-.6l4.3-18.1c.1-.3.4-.5.6-.4zm-43.1-32.6c.3.1.4.3.4.6l-3.9 15.2c-.1.3-.3.4-.6.4s-.4-.3-.4-.6l3.9-15.2c.1-.3.4-.5.6-.4zm3.6 2c.3.1.4.3.4.6-.6 2.2-1 3.9-1.4 5.6l-1.4 5.5c-.1.3-.3.4-.6.4-.3-.1-.4-.3-.4-.6.5-2.1 1-3.8 1.4-5.5l1.5-5.7c0-.2.3-.4.5-.3zm3.6 2.1c.3.1.4.3.4.6l-1.8 7c-.1.3-.3.4-.6.4-.3-.1-.4-.3-.4-.6l1.8-7c.1-.3.3-.5.6-.4z" fill-rule="evenodd"/><path clip-rule="evenodd" d="m129.2 92c.3.1.4.3.4.6l-1.4 5.6c-.1.3-.3.4-.6.4-.3-.1-.4-.3-.4-.6l1.4-5.6c.1-.3.3-.5.6-.4zm-6.2 2.8c.3.1.4.3.4.6l-.7 2.8c-.1.3-.3.4-.6.4-.3-.1-.4-.3-.4-.6l.7-2.8c0-.3.3-.5.6-.4zm17.1-6.3c.3.1.4.3.4.6l-2.7 10.4c-.1.3-.3.4-.6.4-.3-.1-.4-.3-.4-.6l2.7-10.4c.1-.3.3-.4.6-.4zm5 2.1c.3.1.4.3.4.6l-2.5 9.7c-.1.3-.3.4-.6.4-.3-.1-.4-.3-.4-.6l2.5-9.7c0-.3.3-.4.6-.4zm-10.1-.8c.3.1.4.3.4.6l-2.3 9.1c-.1.3-.3.4-.6.4-.3-.1-.4-.3-.4-.6l2.3-9.1c0-.3.3-.4.6-.4zm-16.9 5.5c.3 0 .5.2.5.5v36.2c0 .3-.2.5-.5.5s-.5-.2-.5-.5v-36.2c0-.3.2-.5.5-.5z" fill-rule="evenodd"/><path clip-rule="evenodd" d="m116.2 130.5c0-.3.3-.5.6-.4l40.2 7c.3 0 .5.3.4.6s-.3.5-.6.4l-40.2-7c-.3 0-.5-.3-.4-.6zm0-33.4c0-.3.3-.5.6-.4l44.5 7c.3 0 .5.3.4.6 0 .3-.3.5-.6.4l-44.5-7c-.3 0-.5-.3-.4-.6zm17.9-7.6c0-.3.3-.5.6-.4 7.1.9 13.7 2.1 20.2 3.3 3.6.7 7.2 1.3 10.7 1.9.3 0 .5.3.4.6 0 .3-.3.5-.6.4-3.6-.6-7.1-1.2-10.8-1.9-6.4-1.2-13.1-2.4-20.1-3.3-.2-.1-.4-.3-.4-.6zm35.9 5.6c0-.3.3-.5.6-.4.7.1 1 .3 1.2.4s.4.2.9.3c.3 0 .5.3.4.6 0 .3-.3.5-.6.4-.7-.1-1-.2-1.3-.4-.2-.1-.4-.2-.9-.3-.1-.1-.3-.4-.3-.6z" fill-rule="evenodd"/><path clip-rule="evenodd" d="m152.1 138.5c-.1-.2 0-.5.2-.7 3.8-1.9 7.5-3.9 11.1-5.9.1-.1.2-.1.3-.2 3.5-1.9 6.9-3.8 10.2-5.4.2-.1.6 0 .7.2s0 .5-.2.7c-3.3 1.6-6.7 3.5-10.1 5.4-.1.1-.2.1-.3.2-3.6 2-7.3 4-11.1 5.9-.3.1-.6 0-.8-.2zm0-34c-.1-.2 0-.5.2-.7l20.1-9.8c.2-.1.6 0 .7.2s0 .5-.2.7l-20.1 9.8c-.2.1-.5 0-.7-.2zm-38.8-4.6c-.1-.3 0-.5.3-.6l25.9-10.8c.3-.1.6 0 .7.3s0 .5-.3.6l-25.9 10.7c-.3.2-.6 0-.7-.2z" fill-rule="evenodd"/><path clip-rule="evenodd" d="m154 103.7c.3 0 .5.2.5.5v33.4c0 .3-.2.5-.5.5s-.5-.2-.5-.5v-33.4c0-.3.2-.5.5-.5zm15.8-8.4c.3 0 .5.2.5.5v34.8c0 .3-.2.5-.5.5s-.5-.2-.5-.5v-34.8c0-.3.2-.5.5-.5zm-67.1-7.9c.1-.2.5-.3.7-.2 4.3 2.6 8.4 5.5 12.6 8.3 1.4 1 2.8 1.9 4.2 2.8.2.2.3.5.1.7s-.5.3-.7.1c-1.4-.9-2.8-1.9-4.2-2.9-4.1-2.8-8.2-5.7-12.5-8.3-.2 0-.3-.3-.2-.5zm17.8-9.9c.1-.2.5-.3.7-.2 3.6 2.2 8 5.3 12.1 8.2 2.2 1.6 4.4 3.1 6.3 4.3.2.2.3.5.1.7s-.5.3-.7.1c-1.9-1.3-4.1-2.8-6.3-4.4-4.1-2.9-8.4-5.9-12-8.1-.2-.1-.3-.4-.2-.6z" fill-rule="evenodd"/><path clip-rule="evenodd" d="m125.7 77.5c.1.3 0 .5-.3.7-8.6 3.5-15.1 6.3-24.4 10.4-.3.1-.5 0-.7-.3-.1-.3 0-.5.3-.7 9.3-4.2 15.8-7 24.4-10.4.3 0 .6.1.7.3zm38.8 18c.2.2.1.5-.1.7-2.5 1.8-5 3.8-7.7 5.9-1.1.9-2.2 1.7-3.3 2.6-.2.2-.5.1-.7-.1s-.1-.5.1-.7c1.1-.8 2.2-1.7 3.2-2.6 2.7-2.1 5.3-4.2 7.7-6 .3 0 .6 0 .8.2zm17.2-8.3c.2.2.1.5-.1.7-4 3.4-7.2 5.4-10 7.2-.7.5-1.4.9-2.1 1.3-.2.2-.5.1-.7-.1s-.1-.5.1-.7c.7-.5 1.4-.9 2.1-1.4 2.8-1.8 5.9-3.8 9.9-7.1.3-.2.6-.2.8.1z" fill-rule="evenodd"/><path clip-rule="evenodd" d="m182.5 87.5c.1.3 0 .5-.3.7-3.4 1.4-6.5 2.8-9.7 4.4-.4.2-.9.4-1.3.6-2.7 1.3-5.5 2.6-8.4 3.9-.3.1-.5 0-.7-.3s0-.5.3-.7c2.9-1.3 5.6-2.6 8.4-3.9.4-.2.9-.4 1.3-.6 3.2-1.5 6.3-3 9.8-4.4.2-.1.5 0 .6.3z" fill-rule="evenodd"/></g><path d="m161.9 98.9c-7 6.5-14.5 2-20.5 2-6.5-1-18.5-2-18.5-3.5 0-10.5 6.5-15.5 16-16 10.5-.5 23 7 23 17.5z" fill="#fff"/><path clip-rule="evenodd" d="m161.8 96.5c0 .3.1.7.1 1-1.6.2-3.1.5-4.6.8h-.1c-2.4.4-4.8.9-7.4 1.2-.3 0-.5-.2-.6-.4-.1-.3.1-.5.4-.6 2.5-.3 4.9-.8 7.3-1.2h.1c1.6-.3 3.1-.6 4.8-.8zm-1-3.9c.1.3.2.7.3 1l-3.2.6c-2.5.5-5 1-7.4 1.3-.3 0-.5-.2-.6-.4-.1-.3.1-.5.4-.6l7.4-1.3c1.1-.2 2.1-.4 3.1-.6zm-1.8-3.7.6.9-6.6.9c-.3 0-.5-.2-.6-.4 0-.3.1-.5.4-.6zm-2.7-3.2.9.9c-1.2.2-2.4.4-3.7.6-.3 0-.5-.2-.6-.4-.1-.3.1-.5.4-.6zm-.3 18.7c2 .3 3.5.2 4.4-.7h-.2c-1.4.2-2.8.5-4.2.7zm-7.4-1.7 11.6-1.7c.3 0 .5-.3.4-.6s-.3-.5-.6-.4l-14.1 2c1 .2 1.8.5 2.7.7z" fill="#000" fill-rule="evenodd"/><path clip-rule="evenodd" d="m161.2 100.6c-.3 0-.5-.3-.5-.5.1-.6.1-1.2 0-1.8 0-2.5-.9-5.5-2.5-8.3s-4-5.3-7-6.6c-4.4-1.9-9.8-2.6-14.7-1.2s-9.4 4.8-12.1 11.1c-.4 1.5-.7 3.2-.7 5 0 .3-.2.5-.5.5s-.5-.2-.5-.5c.1-1.8.3-3.6.8-5.2v-.1c2.8-6.6 7.6-10.3 12.8-11.7 5.2-1.5 10.8-.8 15.4 1.3 3.3 1.4 5.8 4.1 7.5 7s2.6 6.1 2.6 8.8c.1.6.1 1.3 0 2 0 0-.3.2-.6.2z" fill="#000" fill-rule="evenodd"/><path clip-rule="evenodd" d="m115.9 96.8c0-.3.3-.5.6-.4l44.5 7c.3 0 .5.3.4.6 0 .3-.3.5-.6.4l-44.5-7c-.3 0-.5-.3-.4-.6z" fill="#000" fill-rule="evenodd"/><path d="m148.8 71.5c-7-1-26.5-6-27.5-6.5-2-9-17.1-40.8 3-47 32.3-9.9 48.3 9.6 51.5 16.5 3.9 8.6 0 35-2.5 37s-17.5 1-24.5 0z" fill="url(#b)"/><path d="m156.2 104.4c-.1 0-.2 0-.3-.1-.2-.2-.2-.5 0-.7 12-13.7 19.6-32.4 21.4-52.6.9-10.1-1.6-18.3-7.5-24.5-7.2-7.5-18.8-11.4-32.8-10.9-10.6.4-17.3 2.9-20.7 7.7-5.3 7.6-1.3 20 3 33.1 5.4 16.5 11 33.6-3 41.9-.2.1-.5.1-.7-.2-.1-.2-.1-.5.2-.7 13.3-7.9 7.8-24.6 2.5-40.7-4.4-13.3-8.5-25.9-2.8-33.9 3.5-5.1 10.6-7.7 21.5-8.1 14.3-.5 26.1 3.5 33.4 11.2 6.1 6.4 8.7 14.9 7.8 25.3-1.8 20.4-9.5 39.3-21.6 53.2-.1-.1-.3 0-.4 0z" fill="#000"/><path d="m162 72.5c-1.3 0-2.5 0-3.7-.1h-.5c-13.6-.3-19.9-1.9-31.5-4.8l-1-.3c-.2.2-.4.2-.6 0-.1-.1-.3-.2-.5-.3l-1.2-.3c-.3-.1-.4-.3-.4-.6v-.1c-.8-.6-1.5-1.2-1.6-1.9 0-.3.1-.8.6-1.3 2-1.6 7.5-1.5 11.1-1.4h1.6c8.2 0 10.3.2 17.3 1l2.3.3 2.7.3c5.6.6 12.6 1.4 16.5 3.8 1.1.7 1.3 1.5 1.3 2-.1.9-.9 1.8-2.2 2.3-2.9 1.1-6.6 1.4-10.2 1.4zm-37.5-6.3 2 .5c11.5 2.9 17.8 4.5 31.3 4.7h.5c4.3.1 9.7.2 13.5-1.2.9-.4 1.6-.9 1.6-1.4s-.4-.8-.8-1.1c-3.7-2.2-10.5-3-16.1-3.6-1-.1-1.9-.2-2.7-.3l-2.3-.3c-7-.8-9.1-1-17.2-1h-1.7c-3.3-.1-8.7-.2-10.4 1.2-.3.2-.3.4-.3.4 0 .6 1.5 1.4 2.3 1.9.1.1.2.1.3.2z" fill="#000"/><path d="m135.6 69.6c-.1 0-.2 0-.2-.1-2.6-1.4-5-3.2-7.3-5-1.1-.8-2.1-1.7-3.2-2.4-.2-.2-.3-.5-.1-.7s.5-.3.7-.1c1.1.8 2.2 1.6 3.3 2.5 2.3 1.7 4.6 3.6 7.2 4.9.2.1.3.4.2.7-.2.1-.4.2-.6.2zm9.1 1.8c-.1 0-.2 0-.3-.1l-.5-.4c-3.6-2.9-7.4-5.8-11.2-8.4-.2-.2-.3-.5-.1-.7s.5-.3.7-.1c3.8 2.6 7.6 5.6 11.2 8.4l.5.4c.2.2.3.5.1.7-.1.1-.3.2-.4.2zm10 .9c-.1 0-.2 0-.3-.1-1.3-1-2.7-1.9-4.1-2.8-3.5-2.1-6.7-4.5-10.3-7.5-.2-.2-.2-.5 0-.7s.5-.2.7 0c3.5 3 6.7 5.4 10.1 7.4 1.4.9 2.8 1.8 4.1 2.8.2.2.3.5.1.7 0 .1-.2.2-.3.2zm8.1.2c-.1 0-.2 0-.3-.1-1.4-1.2-2.9-2.1-4.3-2.9-3.4-2-7-4.1-10.5-6.5-.2-.2-.3-.5-.1-.7s.5-.3.7-.1c3.5 2.4 7.1 4.5 10.5 6.5 1.5.9 3 1.8 4.5 3.1.2.2.2.5.1.7-.3-.1-.5 0-.6 0zm8-.5c-.1 0-.2 0-.3-.1-3.3-2.1-7.8-4.9-12.5-7.4-.2-.1-.3-.4-.2-.7.1-.2.4-.3.7-.2 4.7 2.5 9.2 5.3 12.5 7.4.2.1.3.5.2.7s-.2.3-.4.3z" fill="#000"/><path clip-rule="evenodd" d="m161.3 40.1c0 2.1-.5 4.1-1.2 5.9l-5.4-5.3c.7-1 1-2.3 1-3.6.1-3.7-3-6.8-6.8-6.8-1.4 0-2.6.4-3.7 1l-5-5c1.9-.8 3.9-1.3 6.1-1.3 8.3.1 15 6.8 15 15.1zm-23.2-12.5 5.4 5.4c-.9 1.2-1.4 2.6-1.4 4.2 0 3.8 3.1 6.8 6.8 6.8 1.6 0 3-.5 4.2-1.4l5.8 5.8c-2.7 4-7.3 6.7-12.6 6.7-8.3 0-15-6.7-15-15 0-5.3 2.7-9.8 6.8-12.5zm10.8 13.8c2.5 0 4.6-2 4.6-4.6 0-2.5-2-4.6-4.6-4.6-2.5 0-4.6 2-4.6 4.6.1 2.6 2.1 4.6 4.6 4.6z" fill="#fff" fill-rule="evenodd"/><path d="m90.1 71.8c-.2 0-.5-.2-.5-.4-1.4-8.2-4.5-16.2-7.5-23.8-.5-1.2-1-2.5-1.4-3.7-.1-.3 0-.5.3-.6s.5 0 .6.3c.5 1.2 1 2.4 1.4 3.7 3 7.7 6.2 15.7 7.6 24 0 .2-.1.4-.5.5zm6 .5c-.2 0-.4-.2-.5-.4-.3-1.2-.5-2.3-.7-3.4s-.4-2.2-.7-3.4c-.1-.3.1-.5.4-.6s.5.1.6.4c.3 1.2.5 2.3.7 3.4s.4 2.2.7 3.4c.1.3-.1.5-.4.6zm93.6 9.5c-.2 0-.4-.2-.5-.4-2-8.2.4-18.1 6.3-25.8 2.5-3.4 5.9-6 9.1-8.6 3.7-2.9 7.5-6 10.1-10.1 2.3-3.7 2.3-6.7 0-8.8-.2-.1-.3-.3-.5-.4-.5.7-1.1 1.4-1.7 2.1-3.7 3.9-11.3 6.9-16.3 4.9-1.3-.5-2.1-1.4-2.3-2.7-.2-1.6.6-3.4 1.9-4.4 4.6-3.5 13.3-3.9 18.1-1.2 1-1.7 1.4-3.4 1.4-5.2-.3-6.6-7.4-12.8-12.6-17.3l.6-.8c5.4 4.7 12.7 11 13 18 .1 2-.4 4-1.5 5.8.2.2.4.3.6.5 1.5 1.4 3.6 4.5.2 10-2.7 4.3-6.6 7.3-10.3 10.3-3.2 2.5-6.5 5.1-8.9 8.4-5.7 7.5-8 17.1-6.1 25 .1.3-.1.5-.4.6-.1.1-.2.1-.2.1zm16.4-56.2c-3.6 0-7.2.9-9.7 2.8-1.1.8-1.7 2.3-1.6 3.5.1.6.4 1.5 1.6 1.9 4.6 1.9 11.8-1 15.3-4.7.6-.6 1.2-1.3 1.6-1.9-1.9-1.1-4.5-1.6-7.2-1.6zm27-14.2c-.1 0-.2 0-.3-.1-.2-.2-.2-.5 0-.7 3.2-3.4 6.5-6.8 9.8-10.2l.2-.2c.2-.2.5-.2.7 0s.2.5 0 .7l-.2.2c-3.2 3.3-6.5 6.7-9.8 10.1-.1.1-.3.2-.4.2zm6.8 5.2c-.2 0-.4-.1-.4-.3-.1-.2 0-.5.2-.7 3.2-1.7 6.4-3.5 9.6-5.2 1.5-.8 2.9-1.6 4.4-2.4.2-.1.5 0 .7.2.1.2 0 .5-.2.7-1.4.8-2.9 1.6-4.4 2.4-3.2 1.7-6.4 3.5-9.6 5.2-.1.1-.2.1-.3.1zm-138 131.6c-.3 0-.5-.2-.5-.5.1-10.2.1-20.6 0-30.9 0-.3.2-.5.5-.5s.5.2.5.5c.1 10.3.1 20.7 0 30.9 0 .3-.2.5-.5.5zm5.7 3.2c-.3 0-.5-.2-.5-.5-.1-1.3-.1-2.6-.2-3.9-.2-3.3-.4-6.8-.2-10.2 0-.3.3-.5.5-.5.3 0 .5.3.5.5-.2 3.4 0 6.8.2 10.1.1 1.3.2 2.6.2 3.9 0 .4-.2.6-.5.6z" fill="#000"/></g></svg>