<svg width="305" height="193" viewBox="0 0 305 193" fill="none" xmlns="http://www.w3.org/2000/svg">
<path d="M231.465 40.5689C231.461 39.4798 232.392 38.6216 233.477 38.7147L261.094 41.084C262.049 41.166 262.785 41.9638 262.789 42.9231L262.831 53.2906C262.835 54.3797 261.904 55.2379 260.819 55.1448L233.203 52.7754C232.247 52.6934 231.511 51.8956 231.508 50.9363L231.465 40.5689Z" fill="#CDF4FE"/>
<path d="M231.465 12.3663C231.461 11.2772 232.392 10.419 233.477 10.5121L261.094 12.8814C262.049 12.9634 262.785 13.7612 262.789 14.7205L262.831 25.0879C262.835 26.1771 261.904 27.0353 260.819 26.9422L233.203 24.5728C232.247 24.4908 231.511 23.693 231.508 22.7337L231.465 12.3663Z" fill="#CDF4FE"/>
<path d="M136.768 6.36814C136.764 5.27899 137.695 4.42079 138.78 4.51389L166.397 6.88324C167.353 6.96524 168.088 7.76303 168.092 8.72234L168.134 19.0898C168.139 20.1789 167.207 21.0371 166.122 20.944L138.506 18.5746C137.55 18.4926 136.815 17.6948 136.811 16.7355L136.768 6.36814Z" fill="#CDF4FE"/>
<ellipse cx="295.137" cy="23.9636" rx="9.58047" ry="9.6788" fill="#CDF4FE"/>
<ellipse cx="111.865" cy="12.167" rx="9.58047" ry="9.6788" fill="#CDF4FE"/>
<path d="M282.992 24.6337C281.313 24.5058 272.707 23.9276 260.376 23.1091M117.525 13.298C118.88 13.3733 125.958 13.6672 134.652 14.229M214.229 20.0651C219.218 20.3928 224.166 20.7181 228.987 21.0355M176.202 16.8984C171.067 16.5622 169.802 16.6354 164.944 16.3181L176.202 16.8984Z" stroke="black" stroke-linecap="round" stroke-linejoin="round"/>
<path d="M259.687 28.0832V14.7641" stroke="black" stroke-linecap="round"/>
<path d="M259.505 14.764C248.563 13.8267 239.759 13.116 228.806 12.4901" stroke="black" stroke-linecap="round"/>
<path d="M259.646 28.3113C251.03 27.5727 229.091 26.0171 229.091 26.0171" stroke="black" stroke-linecap="round"/>
<path d="M229.138 12.9815C229.04 16.8472 229.138 25.9716 229.138 25.9716" stroke="black" stroke-linecap="round"/>
<path d="M259.505 56.3525V43.0334" stroke="black" stroke-linecap="round"/>
<path d="M259.323 43.0332C248.382 42.0959 239.577 41.3851 228.624 40.7593" stroke="black" stroke-linecap="round"/>
<path d="M259.465 56.5803C250.848 55.8418 228.909 54.2861 228.909 54.2861" stroke="black" stroke-linecap="round"/>
<path d="M228.957 41.2507C228.858 45.1163 228.957 54.2408 228.957 54.2408" stroke="black" stroke-linecap="round"/>
<path d="M164.859 22.2641V8.94497" stroke="black" stroke-linecap="round"/>
<path d="M164.677 8.94483C153.735 8.00753 144.931 7.29676 133.978 6.6709" stroke="black" stroke-linecap="round"/>
<path d="M164.818 22.492C156.202 21.7534 134.263 20.1978 134.263 20.1978" stroke="black" stroke-linecap="round"/>
<path d="M134.31 7.16243C134.212 11.0281 134.31 20.1526 134.31 20.1526" stroke="black" stroke-linecap="round"/>
<path d="M244.369 28.0923V41.7168" stroke="black" stroke-linecap="round"/>
<path d="M229.035 47.7933C229.035 47.7933 214.247 46.7728 204.252 46.0667" stroke="black" stroke-linecap="round"/>
<path d="M204.393 29.6843L204.393 46.0665" stroke="black" stroke-linecap="round"/>
<path d="M200.299 2.43523C201.036 1.67476 202.258 1.68485 202.982 2.45736L217.065 17.4829C217.783 18.2496 217.722 19.4597 216.929 20.1491L202.658 32.556C201.928 33.1902 200.834 33.1573 200.144 32.4804L186.614 19.209C185.887 18.4953 185.872 17.3282 186.581 16.5962L200.299 2.43523Z" fill="#00ADE4"/>
<path d="M197.628 1.94813C204.362 9.92267 212.691 18.4289 212.691 18.4289" stroke="black" stroke-linecap="round"/>
<path d="M212.159 18.6062L197.805 31.8972" stroke="black" stroke-linecap="round"/>
<path d="M182.136 17.8114L197.45 32.4284" stroke="black" stroke-linecap="round"/>
<path d="M197.552 1.97791C192.486 7.65577 182.565 17.1882 182.565 17.1882" stroke="black" stroke-linecap="round"/>
<path d="M192.259 14.856C192.671 15.4005 197.708 22.8964 198.751 21.8185C202.906 17.5252 206.69 13.0359 211.757 8.30676" stroke="black" stroke-linecap="round"/>
<path d="M292.466 32.9476C299.543 32.9476 302.871 26.3202 301.847 21.2927C299.762 11.0648 285.258 11.0796 283.215 21.2927C282.219 26.2735 284.429 32.9476 292.466 32.9476Z" stroke="black" stroke-linecap="round"/>
<path d="M295.737 27.1945V21.3071" stroke="black" stroke-linecap="round"/>
<path d="M295.7 21.307C293.413 20.8927 291.573 20.5785 289.284 20.3019" stroke="black" stroke-linecap="round"/>
<path d="M295.729 27.2952C293.928 26.9688 289.343 26.2811 289.343 26.2811" stroke="black" stroke-linecap="round"/>
<path d="M289.353 20.5194C289.33 22.2281 289.353 26.2614 289.353 26.2614" stroke="black" stroke-linecap="round"/>
<path d="M106.253 7.3584L106.535 16.9755" stroke="black" stroke-linecap="round"/>
<path d="M106.378 7.27277C108.139 9.0341 111.526 12.1502 111.865 12.1502" stroke="black" stroke-linecap="round"/>
<path d="M106.536 17.2584C108.392 15.6038 110.159 13.918 111.91 12.167" stroke="black" stroke-linecap="round"/>
<path d="M110.808 3.49316C114.783 7.39177 121.576 13.6191 115.554 18.9717C111.36 22.6997 104.165 19.7481 101.752 16.3741C96.8809 9.561 103.233 3.96423 107.838 3.85459C111.025 3.77872 113.744 5.48814 115.853 7.75172C118.219 10.2929 118.163 12.1943 118.163 15.3731" stroke="black" stroke-linecap="round"/>
<path d="M179.014 122.834C179.009 121.745 179.94 120.886 181.026 120.979L208.642 123.349C209.598 123.431 210.333 124.229 210.337 125.188L210.38 135.555C210.384 136.644 209.453 137.503 208.368 137.41L180.751 135.04C179.795 134.958 179.06 134.16 179.056 133.201L179.014 122.834Z" fill="#CDF4FE"/>
<path d="M179.014 94.6311C179.009 93.5419 179.94 92.6837 181.026 92.7768L208.642 95.1462C209.598 95.2282 210.333 96.026 210.337 96.9853L210.38 107.353C210.384 108.442 209.453 109.3 208.368 109.207L180.751 106.838C179.795 106.756 179.06 105.958 179.056 104.998L179.014 94.6311Z" fill="#CDF4FE"/>
<path d="M153.242 92.3947C153.979 91.6342 155.202 91.6443 155.926 92.4168L164.408 101.468C165.127 102.234 165.065 103.444 164.272 104.134L155.697 111.589C154.968 112.223 153.873 112.19 153.183 111.513L145.032 103.518C144.304 102.804 144.289 101.637 144.999 100.905L153.242 92.3947Z" fill="#CDF4FE"/>
<path d="M97.707 89.4719C97.7026 88.3827 98.6337 87.5246 99.7189 87.6177L127.336 89.987C128.291 90.069 129.027 90.8668 129.031 91.8261L129.073 102.194C129.077 103.283 128.146 104.141 127.061 104.048L99.4444 101.678C98.4886 101.596 97.7533 100.799 97.7494 99.8393L97.707 89.4719Z" fill="#CDF4FE"/>
<ellipse cx="242.686" cy="106.228" rx="9.58047" ry="9.6788" fill="#CDF4FE"/>
<ellipse cx="72.8039" cy="95.2707" rx="9.58047" ry="9.6788" fill="#CDF4FE"/>
<path d="M230.54 106.899C228.861 106.771 220.255 106.192 207.924 105.374M79.1242 96.9618C80.48 97.0371 86.3467 97.4109 95.0413 97.9727M161.778 102.33C166.766 102.658 171.715 102.983 176.536 103.3M142.042 100.935C136.908 100.599 130.519 100.281 125.661 99.9642L142.042 100.935Z" stroke="#4F5162" stroke-linecap="round"/>
<path d="M207.235 110.348V97.0287" stroke="#4F5162" stroke-linecap="round"/>
<path d="M207.053 97.0286C196.112 96.0913 187.307 95.3805 176.354 94.7546" stroke="#4F5162" stroke-linecap="round"/>
<path d="M207.195 110.576C198.578 109.837 176.639 108.282 176.639 108.282" stroke="#4F5162" stroke-linecap="round"/>
<path d="M176.686 95.2461C176.588 99.1117 176.686 108.236 176.686 108.236" stroke="#4F5162" stroke-linecap="round"/>
<path d="M207.053 138.617V125.298" stroke="#4F5162" stroke-linecap="round"/>
<path d="M206.871 125.298C195.93 124.361 187.125 123.65 176.173 123.024" stroke="#4F5162" stroke-linecap="round"/>
<path d="M207.013 138.845C198.396 138.107 176.458 136.551 176.458 136.551" stroke="#4F5162" stroke-linecap="round"/>
<path d="M176.505 123.515C176.406 127.381 176.505 136.505 176.505 136.505" stroke="#4F5162" stroke-linecap="round"/>
<path d="M125.797 105.367V92.0482" stroke="#4F5162" stroke-linecap="round"/>
<path d="M125.616 92.0485C114.674 91.1112 105.869 90.4004 94.9167 89.7745" stroke="#4F5162" stroke-linecap="round"/>
<path d="M125.757 105.596C117.14 104.857 95.2014 103.301 95.2014 103.301" stroke="#4F5162" stroke-linecap="round"/>
<path d="M95.2488 90.2657C95.1503 94.1313 95.2488 103.256 95.2488 103.256" stroke="#4F5162" stroke-linecap="round"/>
<path d="M191.917 110.357V123.981" stroke="#4F5162" stroke-linecap="round"/>
<path d="M176.584 130.058C176.584 130.058 161.795 129.037 151.801 128.331" stroke="#4F5162" stroke-linecap="round"/>
<path d="M151.942 111.949L151.942 128.331" stroke="#4F5162" stroke-linecap="round"/>
<path d="M151.918 91.6024C156.398 96.9075 161.939 102.566 161.939 102.566" stroke="#4F5162" stroke-linecap="round"/>
<path d="M161.586 102.684L152.036 111.526" stroke="#4F5162" stroke-linecap="round"/>
<path d="M141.612 102.156L151.801 111.88" stroke="#4F5162" stroke-linecap="round"/>
<path d="M151.868 91.6223C148.498 95.3995 141.898 101.741 141.898 101.741" stroke="#4F5162" stroke-linecap="round"/>
<path d="M148.347 100.189C148.621 100.552 151.972 105.538 152.666 104.821C155.43 101.965 157.947 98.9786 161.318 95.8325" stroke="#4F5162" stroke-linecap="round"/>
<path d="M240.014 115.212C247.091 115.212 250.42 108.585 249.395 103.557C247.31 93.3292 232.807 93.344 230.763 103.557C229.767 108.538 231.978 115.212 240.014 115.212Z" stroke="#4F5162" stroke-linecap="round"/>
<path d="M243.285 109.459V103.572" stroke="#4F5162" stroke-linecap="round"/>
<path d="M243.247 103.572C240.961 103.157 239.12 102.843 236.831 102.566" stroke="#4F5162" stroke-linecap="round"/>
<path d="M243.277 109.56C241.476 109.233 236.891 108.546 236.891 108.546" stroke="#4F5162" stroke-linecap="round"/>
<path d="M236.901 102.784C236.878 104.493 236.901 108.526 236.901 108.526" stroke="#4F5162" stroke-linecap="round"/>
<path d="M67.1913 90.4624L67.4741 100.08" stroke="#4F5162" stroke-linecap="round"/>
<path d="M67.316 90.3767C69.0774 92.138 72.4645 95.2541 72.8032 95.2541" stroke="#4F5162" stroke-linecap="round"/>
<path d="M67.474 100.362C69.3303 98.7078 71.0973 97.022 72.8483 95.271" stroke="#4F5162" stroke-linecap="round"/>
<path d="M71.7467 86.5968C75.7217 90.4954 82.5141 96.7227 76.4924 102.075C72.2984 105.803 65.1032 102.852 62.6907 99.4777C57.8192 92.6646 64.1718 87.0679 68.7767 86.9582C71.9634 86.8824 74.6827 88.5918 76.791 90.8554C79.1577 93.3965 79.101 95.298 79.101 98.4768" stroke="#4F5162" stroke-linecap="round"/>
<path d="M118.962 176.087C118.958 174.997 119.889 174.139 120.974 174.232L148.591 176.602C149.546 176.684 150.282 177.481 150.286 178.441L150.328 188.808C150.332 189.897 149.401 190.755 148.316 190.662L120.699 188.293C119.744 188.211 119.008 187.413 119.004 186.454L118.962 176.087Z" fill="#CDF4FE"/>
<path d="M118.962 147.884C118.958 146.795 119.889 145.937 120.974 146.03L148.591 148.399C149.546 148.481 150.282 149.279 150.286 150.238L150.328 160.606C150.332 161.695 149.401 162.553 148.316 162.46L120.699 160.091C119.744 160.009 119.008 159.211 119.004 158.252L118.962 147.884Z" fill="#CDF4FE"/>
<path d="M93.1907 145.648C93.9274 144.887 95.1503 144.897 95.8743 145.67L104.357 154.72C105.076 155.487 105.014 156.697 104.221 157.387L95.6457 164.842C94.9162 165.476 93.8217 165.443 93.1317 164.766L84.9804 156.77C84.2529 156.057 84.238 154.89 84.947 154.158L93.1907 145.648Z" fill="#CDF4FE"/>
<path d="M37.6555 142.725C37.6511 141.636 38.5822 140.777 39.6674 140.87L67.284 143.24C68.2398 143.322 68.9751 144.12 68.979 145.079L69.0214 155.446C69.0258 156.535 68.0946 157.394 67.0095 157.301L39.3929 154.931C38.4371 154.849 37.7018 154.051 37.6979 153.092L37.6555 142.725Z" fill="#CDF4FE"/>
<ellipse cx="182.634" cy="159.481" rx="9.58047" ry="9.6788" fill="#CDF4FE"/>
<ellipse cx="12.7521" cy="148.524" rx="9.58047" ry="9.6788" fill="#CDF4FE"/>
<path d="M170.489 160.152C168.81 160.024 160.203 159.446 147.872 158.627M19.0727 150.215C20.4285 150.29 26.2952 150.664 34.9898 151.226M101.726 155.583C106.715 155.911 111.663 156.236 116.484 156.553M81.991 154.188C76.8562 153.852 70.4676 153.535 65.6095 153.217L81.991 154.188Z" stroke="#4F5162" stroke-linecap="round"/>
<path d="M147.183 163.601V150.282" stroke="#4F5162" stroke-linecap="round"/>
<path d="M147.002 150.282C136.06 149.344 127.255 148.634 116.303 148.008" stroke="#4F5162" stroke-linecap="round"/>
<path d="M147.143 163.829C138.526 163.09 116.587 161.535 116.587 161.535" stroke="#4F5162" stroke-linecap="round"/>
<path d="M116.635 148.499C116.536 152.365 116.635 161.489 116.635 161.489" stroke="#4F5162" stroke-linecap="round"/>
<path d="M147.002 191.87V178.551" stroke="#4F5162" stroke-linecap="round"/>
<path d="M146.82 178.551C135.879 177.614 127.074 176.903 116.121 176.277" stroke="#4F5162" stroke-linecap="round"/>
<path d="M146.961 192.098C138.345 191.36 116.406 189.804 116.406 189.804" stroke="#4F5162" stroke-linecap="round"/>
<path d="M116.453 176.768C116.355 180.634 116.453 189.759 116.453 189.759" stroke="#4F5162" stroke-linecap="round"/>
<path d="M65.7455 158.621V145.301" stroke="#4F5162" stroke-linecap="round"/>
<path d="M65.5638 145.301C54.6223 144.364 45.8176 143.653 34.865 143.027" stroke="#4F5162" stroke-linecap="round"/>
<path d="M65.7051 158.849C57.0884 158.11 35.1498 156.554 35.1498 156.554" stroke="#4F5162" stroke-linecap="round"/>
<path d="M35.197 143.519C35.0985 147.385 35.197 156.509 35.197 156.509" stroke="#4F5162" stroke-linecap="round"/>
<path d="M131.865 163.61V177.234" stroke="#4F5162" stroke-linecap="round"/>
<path d="M116.532 183.311C116.532 183.311 101.743 182.29 91.749 181.584" stroke="#4F5162" stroke-linecap="round"/>
<path d="M91.8901 165.202L91.8901 181.584" stroke="#4F5162" stroke-linecap="round"/>
<path d="M91.8666 144.856C96.3465 150.161 101.887 155.819 101.887 155.819" stroke="#4F5162" stroke-linecap="round"/>
<path d="M101.534 155.937L91.9847 164.779" stroke="#4F5162" stroke-linecap="round"/>
<path d="M81.5605 155.409L91.7488 165.133" stroke="#4F5162" stroke-linecap="round"/>
<path d="M91.8167 144.875C88.446 148.653 81.846 154.994 81.846 154.994" stroke="#4F5162" stroke-linecap="round"/>
<path d="M88.2949 153.443C88.5694 153.805 91.9204 158.791 92.6143 158.074C95.3783 155.218 97.8952 152.232 101.266 149.086" stroke="#4F5162" stroke-linecap="round"/>
<path d="M179.962 168.465C187.04 168.465 190.368 161.838 189.343 156.81C187.259 146.582 172.755 146.597 170.712 156.81C169.715 161.791 171.926 168.465 179.962 168.465Z" stroke="#4F5162" stroke-linecap="round"/>
<path d="M183.234 162.712V156.825" stroke="#4F5162" stroke-linecap="round"/>
<path d="M183.196 156.825C180.909 156.41 179.069 156.096 176.78 155.82" stroke="#4F5162" stroke-linecap="round"/>
<path d="M183.225 162.813C181.424 162.486 176.839 161.799 176.839 161.799" stroke="#4F5162" stroke-linecap="round"/>
<path d="M176.849 156.037C176.826 157.746 176.849 161.779 176.849 161.779" stroke="#4F5162" stroke-linecap="round"/>
<path d="M7.13953 143.716L7.42238 153.333" stroke="#4F5162" stroke-linecap="round"/>
<path d="M7.26465 143.63C9.02597 145.391 12.4131 148.507 12.7519 148.507" stroke="#4F5162" stroke-linecap="round"/>
<path d="M7.42249 153.615C9.27882 151.961 11.0457 150.275 12.7968 148.524" stroke="#4F5162" stroke-linecap="round"/>
<path d="M11.6953 139.85C15.6704 143.749 22.4627 149.976 16.441 155.328C12.247 159.057 5.05186 156.105 2.63935 152.731C-2.23217 145.918 4.12044 140.321 8.72531 140.211C11.912 140.136 14.6313 141.845 16.7396 144.109C19.1063 146.65 19.0496 148.551 19.0496 151.73" stroke="#4F5162" stroke-linecap="round"/>
</svg>
