<svg fill="none" height="193" viewBox="0 0 305 193" width="305" xmlns="http://www.w3.org/2000/svg"><path d="m231.465 40.5689c-.004-1.0891.927-1.9473 2.012-1.8542l27.617 2.3693c.955.082 1.691.8798 1.695 1.8391l.042 10.3675c.004 1.0891-.927 1.9473-2.012 1.8542l-27.616-2.3694c-.956-.082-1.692-.8798-1.695-1.8391z" fill="#cdf4fe"/><path d="m231.465 12.3663c-.004-1.0891.927-1.9473 2.012-1.8542l27.617 2.3693c.955.082 1.691.8798 1.695 1.8391l.042 10.3674c.004 1.0892-.927 1.9474-2.012 1.8543l-27.616-2.3694c-.956-.082-1.692-.8798-1.695-1.8391z" fill="#cdf4fe"/><path d="m136.768 6.36814c-.004-1.08915.927-1.94735 2.012-1.85425l27.617 2.36935c.956.082 1.691.87979 1.695 1.8391l.042 10.36746c.005 1.0891-.927 1.9473-2.012 1.8542l-27.616-2.3694c-.956-.082-1.691-.8798-1.695-1.8391z" fill="#cdf4fe"/><ellipse cx="295.137" cy="23.9636" fill="#cdf4fe" rx="9.58047" ry="9.6788"/><ellipse cx="111.865" cy="12.167" fill="#cdf4fe" rx="9.58047" ry="9.6788"/><path d="m282.992 24.6337c-1.679-.1279-10.285-.7061-22.616-1.5246m-142.851-9.8111c1.355.0753 8.433.3692 17.127.931m79.577 5.8361c4.989.3277 9.937.653 14.758.9704m-52.785-4.1371c-5.135-.3362-6.4-.263-11.258-.5803z" stroke="#000" stroke-linecap="round" stroke-linejoin="round"/><path d="m259.687 28.0832v-13.3191" stroke="#000" stroke-linecap="round"/><path d="m259.505 14.764c-10.942-.9373-19.746-1.648-30.699-2.2739" stroke="#000" stroke-linecap="round"/><path d="m259.646 28.3113c-8.616-.7386-30.555-2.2942-30.555-2.2942" stroke="#000" stroke-linecap="round"/><path d="m229.138 12.9815c-.098 3.8657 0 12.9901 0 12.9901" stroke="#000" stroke-linecap="round"/><path d="m259.505 56.3525v-13.3191" stroke="#000" stroke-linecap="round"/><path d="m259.323 43.0332c-10.941-.9373-19.746-1.6481-30.699-2.2739" stroke="#000" stroke-linecap="round"/><path d="m259.465 56.5803c-8.617-.7385-30.556-2.2942-30.556-2.2942" stroke="#000" stroke-linecap="round"/><path d="m228.957 41.2507c-.099 3.8656 0 12.9901 0 12.9901" stroke="#000" stroke-linecap="round"/><path d="m164.859 22.2641v-13.31913" stroke="#000" stroke-linecap="round"/><path d="m164.677 8.94483c-10.942-.9373-19.746-1.64807-30.699-2.27393" stroke="#000" stroke-linecap="round"/><path d="m164.818 22.492c-8.616-.7386-30.555-2.2942-30.555-2.2942" stroke="#000" stroke-linecap="round"/><path d="m134.31 7.16243c-.098 3.86567 0 12.99017 0 12.99017" stroke="#000" stroke-linecap="round"/><path d="m244.369 28.0923v13.6245" stroke="#000" stroke-linecap="round"/><path d="m229.035 47.7933s-14.788-1.0205-24.783-1.7266" stroke="#000" stroke-linecap="round"/><path d="m204.393 29.6843v16.3822" stroke="#000" stroke-linecap="round"/><path d="m200.299 2.43523c.737-.76047 1.959-.75038 2.683.02213l14.083 15.02554c.718.7667.657 1.9768-.136 2.6662l-14.271 12.4069c-.73.6342-1.824.6013-2.514-.0756l-13.53-13.2714c-.727-.7137-.742-1.8808-.033-2.6128z" fill="#00ade4"/><path d="m197.628 1.94813c6.734 7.97454 15.063 16.48077 15.063 16.48077" stroke="#000" stroke-linecap="round"/><path d="m212.159 18.6062-14.354 13.291" stroke="#000" stroke-linecap="round"/><path d="m182.136 17.8114 15.314 14.617" stroke="#000" stroke-linecap="round"/><path d="m197.552 1.97791c-5.066 5.67786-14.987 15.21029-14.987 15.21029" stroke="#000" stroke-linecap="round"/><path d="m192.259 14.856c.412.5445 5.449 8.0404 6.492 6.9625 4.155-4.2933 7.939-8.7826 13.006-13.51174" stroke="#000" stroke-linecap="round"/><path d="m292.466 32.9476c7.077 0 10.405-6.6274 9.381-11.6549-2.085-10.2279-16.589-10.2131-18.632 0-.996 4.9808 1.214 11.6549 9.251 11.6549z" stroke="#000" stroke-linecap="round"/><path d="m295.737 27.1945v-5.8874" stroke="#000" stroke-linecap="round"/><path d="m295.7 21.307c-2.287-.4143-4.127-.7285-6.416-1.0051" stroke="#000" stroke-linecap="round"/><path d="m295.729 27.2952c-1.801-.3264-6.386-1.0141-6.386-1.0141" stroke="#000" stroke-linecap="round"/><path d="m289.353 20.5194c-.023 1.7087 0 5.742 0 5.742" stroke="#000" stroke-linecap="round"/><path d="m106.253 7.3584.282 9.6171" stroke="#000" stroke-linecap="round"/><path d="m106.378 7.27277c1.761 1.76133 5.148 4.87743 5.487 4.87743" stroke="#000" stroke-linecap="round"/><path d="m106.536 17.2584c1.856-1.6546 3.623-3.3404 5.374-5.0914" stroke="#000" stroke-linecap="round"/><path d="m110.808 3.49316c3.975 3.89861 10.768 10.12594 4.746 15.47854-4.194 3.728-11.389.7764-13.802-2.5976-4.8711-6.8131 1.481-12.40987 6.086-12.51951 3.187-.07587 5.906 1.63355 8.015 3.89713 2.366 2.54118 2.31 4.44258 2.31 7.62138" stroke="#000" stroke-linecap="round"/><path d="m179.014 122.834c-.005-1.089.926-1.948 2.012-1.855l27.616 2.37c.956.082 1.691.88 1.695 1.839l.043 10.367c.004 1.089-.927 1.948-2.012 1.855l-27.617-2.37c-.956-.082-1.691-.88-1.695-1.839z" fill="#cdf4fe"/><path d="m179.014 94.6311c-.005-1.0892.926-1.9474 2.012-1.8543l27.616 2.3694c.956.082 1.691.8798 1.695 1.8391l.043 10.3677c.004 1.089-.927 1.947-2.012 1.854l-27.617-2.369c-.956-.082-1.691-.88-1.695-1.84z" fill="#cdf4fe"/><path d="m153.242 92.3947c.737-.7605 1.96-.7504 2.684.0221l8.482 9.0512c.719.766.657 1.976-.136 2.666l-8.575 7.455c-.729.634-1.824.601-2.514-.076l-8.151-7.995c-.728-.714-.743-1.881-.033-2.613z" fill="#cdf4fe"/><path d="m97.707 89.4719c-.0044-1.0892.9267-1.9473 2.0119-1.8542l27.6171 2.3693c.955.082 1.691.8798 1.695 1.8391l.042 10.3679c.004 1.089-.927 1.947-2.012 1.854l-27.6166-2.37c-.9558-.082-1.6911-.879-1.695-1.8387z" fill="#cdf4fe"/><ellipse cx="242.686" cy="106.228" fill="#cdf4fe" rx="9.58047" ry="9.6788"/><ellipse cx="72.8039" cy="95.2707" fill="#cdf4fe" rx="9.58047" ry="9.6788"/><g stroke-linecap="round"><path d="m230.54 106.899c-1.679-.128-10.285-.707-22.616-1.525m-128.7998-8.4122c1.3558.0753 7.2225.4491 15.9171 1.0109m66.7367 4.3573c4.988.328 9.937.653 14.758.97m-34.494-2.365c-5.134-.336-11.523-.654-16.381-.9708z" stroke="#4f5162"/><path d="m207.235 110.348v-13.3193" stroke="#4f5162"/><path d="m207.053 97.0286c-10.941-.9373-19.746-1.6481-30.699-2.274" stroke="#4f5162"/><path d="m207.195 110.576c-8.617-.739-30.556-2.294-30.556-2.294" stroke="#4f5162"/><path d="m176.686 95.2461c-.098 3.8656 0 12.9899 0 12.9899" stroke="#4f5162"/><path d="m207.053 138.617v-13.319" stroke="#4f5162"/><path d="m206.871 125.298c-10.941-.937-19.746-1.648-30.698-2.274" stroke="#4f5162"/><path d="m207.013 138.845c-8.617-.738-30.555-2.294-30.555-2.294" stroke="#4f5162"/><path d="m176.505 123.515c-.099 3.866 0 12.99 0 12.99" stroke="#4f5162"/><path d="m125.797 105.367v-13.3188" stroke="#4f5162"/><path d="m125.616 92.0485c-10.942-.9373-19.747-1.6481-30.6993-2.274" stroke="#4f5162"/><path d="m125.757 105.596c-8.617-.739-30.5556-2.295-30.5556-2.295" stroke="#4f5162"/><path d="m95.2488 90.2657c-.0985 3.8656 0 12.9903 0 12.9903" stroke="#4f5162"/><path d="m191.917 110.357v13.624" stroke="#4f5162"/><path d="m176.584 130.058s-14.789-1.021-24.783-1.727" stroke="#4f5162"/><path d="m151.942 111.949v16.382" stroke="#4f5162"/><path d="m151.918 91.6024c4.48 5.3051 10.021 10.9636 10.021 10.9636" stroke="#4f5162"/><path d="m161.586 102.684-9.55 8.842" stroke="#4f5162"/><path d="m141.612 102.156 10.189 9.724" stroke="#4f5162"/><path d="m151.868 91.6223c-3.37 3.7772-9.97 10.1187-9.97 10.1187" stroke="#4f5162"/><path d="m148.347 100.189c.274.363 3.625 5.349 4.319 4.632 2.764-2.856 5.281-5.8424 8.652-8.9885" stroke="#4f5162"/><path d="m240.014 115.212c7.077 0 10.406-6.627 9.381-11.655-2.085-10.2278-16.588-10.213-18.632 0-.996 4.981 1.215 11.655 9.251 11.655z" stroke="#4f5162"/><path d="m243.285 109.459v-5.887" stroke="#4f5162"/><path d="m243.247 103.572c-2.286-.415-4.127-.729-6.416-1.006" stroke="#4f5162"/><path d="m243.277 109.56c-1.801-.327-6.386-1.014-6.386-1.014" stroke="#4f5162"/><path d="m236.901 102.784c-.023 1.709 0 5.742 0 5.742" stroke="#4f5162"/><path d="m67.1913 90.4624.2828 9.6176" stroke="#4f5162"/><path d="m67.316 90.3767c1.7614 1.7613 5.1485 4.8774 5.4872 4.8774" stroke="#4f5162"/><path d="m67.474 100.362c1.8563-1.6542 3.6233-3.34 5.3743-5.091" stroke="#4f5162"/><path d="m71.7467 86.5968c3.975 3.8986 10.7674 10.1259 4.7457 15.4782-4.194 3.728-11.3892.777-13.8017-2.5973-4.8715-6.8131 1.4811-12.4098 6.086-12.5195 3.1867-.0758 5.906 1.6336 8.0143 3.8972 2.3667 2.5411 2.31 4.4426 2.31 7.6214" stroke="#4f5162"/></g><path d="m118.962 176.087c-.004-1.09.927-1.948 2.012-1.855l27.617 2.37c.955.082 1.691.879 1.695 1.839l.042 10.367c.004 1.089-.927 1.947-2.012 1.854l-27.617-2.369c-.955-.082-1.691-.88-1.695-1.839z" fill="#cdf4fe"/><path d="m118.962 147.884c-.004-1.089.927-1.947 2.012-1.854l27.617 2.369c.955.082 1.691.88 1.695 1.839l.042 10.368c.004 1.089-.927 1.947-2.012 1.854l-27.617-2.369c-.955-.082-1.691-.88-1.695-1.839z" fill="#cdf4fe"/><path d="m93.1907 145.648c.7367-.761 1.9596-.751 2.6836.022l8.4827 9.05c.719.767.657 1.977-.136 2.667l-8.5753 7.455c-.7295.634-1.824.601-2.514-.076l-8.1513-7.996c-.7275-.713-.7424-1.88-.0334-2.612z" fill="#cdf4fe"/><path d="m37.6555 142.725c-.0044-1.089.9267-1.948 2.0119-1.855l27.6166 2.37c.9558.082 1.6911.88 1.695 1.839l.0424 10.367c.0044 1.089-.9268 1.948-2.0119 1.855l-27.6166-2.37c-.9558-.082-1.6911-.88-1.695-1.839z" fill="#cdf4fe"/><ellipse cx="182.634" cy="159.481" fill="#cdf4fe" rx="9.58047" ry="9.6788"/><ellipse cx="12.7521" cy="148.524" fill="#cdf4fe" rx="9.58047" ry="9.6788"/><path d="m170.489 160.152c-1.679-.128-10.286-.706-22.617-1.525m-128.7993-8.412c1.3558.075 7.2225.449 15.9171 1.011m66.7362 4.357c4.989.328 9.937.653 14.758.97m-34.493-2.365c-5.1348-.336-11.5234-.653-16.3815-.971z" stroke="#4f5162" stroke-linecap="round"/><path d="m147.183 163.601v-13.319" stroke="#4f5162" stroke-linecap="round"/><path d="m147.002 150.282c-10.942-.938-19.747-1.648-30.699-2.274" stroke="#4f5162" stroke-linecap="round"/><path d="m147.143 163.829c-8.617-.739-30.556-2.294-30.556-2.294" stroke="#4f5162" stroke-linecap="round"/><path d="m116.635 148.499c-.099 3.866 0 12.99 0 12.99" stroke="#4f5162" stroke-linecap="round"/><path d="m147.002 191.87v-13.319" stroke="#4f5162" stroke-linecap="round"/><path d="m146.82 178.551c-10.941-.937-19.746-1.648-30.699-2.274" stroke="#4f5162" stroke-linecap="round"/><path d="m146.961 192.098c-8.616-.738-30.555-2.294-30.555-2.294" stroke="#4f5162" stroke-linecap="round"/><path d="m116.453 176.768c-.098 3.866 0 12.991 0 12.991" stroke="#4f5162" stroke-linecap="round"/><path d="m65.7455 158.621v-13.32" stroke="#4f5162" stroke-linecap="round"/><path d="m65.5638 145.301c-10.9415-.937-19.7462-1.648-30.6988-2.274" stroke="#4f5162" stroke-linecap="round"/><path d="m65.7051 158.849c-8.6167-.739-30.5553-2.295-30.5553-2.295" stroke="#4f5162" stroke-linecap="round"/><path d="m35.197 143.519c-.0985 3.866 0 12.99 0 12.99" stroke="#4f5162" stroke-linecap="round"/><path d="m131.865 163.61v13.624" stroke="#4f5162" stroke-linecap="round"/><path d="m116.532 183.311s-14.789-1.021-24.783-1.727" stroke="#4f5162" stroke-linecap="round"/><path d="m91.8901 165.202v16.382" stroke="#4f5162" stroke-linecap="round"/><path d="m91.8666 144.856c4.4799 5.305 10.0204 10.963 10.0204 10.963" stroke="#4f5162" stroke-linecap="round"/><path d="m101.534 155.937-9.5493 8.842" stroke="#4f5162" stroke-linecap="round"/><path d="m81.5605 155.409 10.1883 9.724" stroke="#4f5162" stroke-linecap="round"/><path d="m91.8167 144.875c-3.3707 3.778-9.9707 10.119-9.9707 10.119" stroke="#4f5162" stroke-linecap="round"/><path d="m88.2949 153.443c.2745.362 3.6255 5.348 4.3194 4.631 2.764-2.856 5.2809-5.842 8.6517-8.988" stroke="#4f5162" stroke-linecap="round"/><path d="m179.962 168.465c7.078 0 10.406-6.627 9.381-11.655-2.084-10.228-16.588-10.213-18.631 0-.997 4.981 1.214 11.655 9.25 11.655z" stroke="#4f5162" stroke-linecap="round"/><path d="m183.234 162.712v-5.887" stroke="#4f5162" stroke-linecap="round"/><path d="m183.196 156.825c-2.287-.415-4.127-.729-6.416-1.005" stroke="#4f5162" stroke-linecap="round"/><path d="m183.225 162.813c-1.801-.327-6.386-1.014-6.386-1.014" stroke="#4f5162" stroke-linecap="round"/><path d="m176.849 156.037c-.023 1.709 0 5.742 0 5.742" stroke="#4f5162" stroke-linecap="round"/><path d="m7.13953 143.716.28285 9.617" stroke="#4f5162" stroke-linecap="round"/><path d="m7.26465 143.63c1.76132 1.761 5.14845 4.877 5.48725 4.877" stroke="#4f5162" stroke-linecap="round"/><path d="m7.42249 153.615c1.85633-1.654 3.62321-3.34 5.37431-5.091" stroke="#4f5162" stroke-linecap="round"/><path d="m11.6953 139.85c3.9751 3.899 10.7674 10.126 4.7457 15.478-4.194 3.729-11.38914.777-13.80165-2.597-4.87152-6.813 1.48109-12.41 6.08596-12.52 3.18669-.075 5.90599 1.634 8.01429 3.898 2.3667 2.541 2.31 4.442 2.31 7.621" stroke="#4f5162" stroke-linecap="round"/></svg>