<svg fill="none" height="150" viewBox="0 0 344 150" width="344" xmlns="http://www.w3.org/2000/svg" xmlns:xlink="http://www.w3.org/1999/xlink"><radialGradient id="a" cx="0" cy="0" gradientTransform="matrix(0 17.6976 -171.558 0 171.741 127.309)" gradientUnits="userSpaceOnUse" r="1"><stop offset="0" stop-opacity=".1"/><stop offset="1" stop-color="#d9d9d9" stop-opacity="0"/></radialGradient><path d="m343.299 127.309c0 9.774-76.809 17.698-171.558 17.698-94.7485 0-171.557406-7.924-171.557406-17.698s76.808906-17.698 171.557406-17.698c94.749 0 171.558 7.924 171.558 17.698z" fill="url(#a)"/><path d="m120.581 30.0918-9.413 2.5441c3.053 7.8867 5.597 9.4132 8.904 10.9397l7.378-2.2897-5.088-5.5971z" fill="#ae82fc"/><path clip-rule="evenodd" d="m109.833 31.6309c.274-.0343.523.1601.558.4341.121.9692.677 3.5709 2.129 6.0418 1.447 2.4629 3.75 4.7458 7.363 5.2275.273.0365.466.288.429.5617-.036.2737-.288.466-.561.4295-4.02-.5359-6.551-3.0868-8.093-5.7122-1.538-2.6173-2.126-5.3582-2.26-6.4243-.034-.274.161-.5239.435-.5581z" fill="#000" fill-rule="evenodd"/><path clip-rule="evenodd" d="m120.049 29.9706c.067.2679-.096.5394-.363.6064-2.968.7419-4.98 1.3463-7.544 2.1168-.941.2828-1.957.5881-3.122.9307-.265.0779-.543-.0736-.621-.3386-.078-.2649.074-.5428.339-.6207 1.153-.3391 2.162-.6425 3.101-.9245 2.572-.773 4.612-1.3858 7.604-2.1339.268-.0669.539.0959.606.3638z" fill="#000" fill-rule="evenodd"/><path clip-rule="evenodd" d="m119.268 28.8298c.275-.0226.516.1822.539.4574.385 4.69 2.442 8.1192 6.702 11.8778.207.1827.226.4986.044.7057-.183.207-.499.2268-.706.0441-4.39-3.8738-6.625-7.5249-7.037-12.5457-.022-.2753.182-.5167.458-.5393z" fill="#000" fill-rule="evenodd"/><path clip-rule="evenodd" d="m126.904 40.8605c.095.2595-.039.5464-.299.6408-1.405.5111-2.746.9581-4.08 1.4028l-.003.0009c-1.337.4455-2.666.8886-4.058 1.3948-.26.0944-.546-.0395-.641-.299-.094-.2595.04-.5464.299-.6408 1.406-.5111 2.747-.9581 4.081-1.4028l.003-.0009c1.336-.4455 2.665-.8886 4.057-1.3948.26-.0944.547.0395.641.299z" fill="#000" fill-rule="evenodd"/><path d="m235.577 30.8178 4.86 8.4535c6.847-4.9627 7.675-7.8119 8.308-11.3991l-4.095-6.5504-4.115 6.347z" fill="#ff479f"/><path clip-rule="evenodd" d="m239.802 40.8176c-.103-.2562.022-.5474.278-.6504.906-.3642 3.28-1.5656 5.299-3.5992 2.013-2.027 3.633-4.8357 3.178-8.4521-.035-.274.159-.524.433-.5585s.524.1596.559.4336c.506 4.0231-1.315 7.1209-3.46 9.2816-2.139 2.1541-4.639 3.4219-5.636 3.8225-.257.103-.548-.0212-.651-.2775z" fill="#000" fill-rule="evenodd"/><path clip-rule="evenodd" d="m235.594 31.3627c.242-.133.546-.0447.679.1972 1.474 2.6805 2.571 4.4715 3.97 6.7543.514.8382 1.068 1.7427 1.696 2.7818.143.2363.067.5437-.169.6866s-.544.0671-.687-.1692c-.621-1.0282-1.172-1.9272-1.684-2.7629-1.403-2.2904-2.516-4.1062-4.002-6.8087-.133-.242-.045-.546.197-.6791z" fill="#000" fill-rule="evenodd"/><path clip-rule="evenodd" d="m234.689 32.4091c-.092-.2603.045-.546.305-.638 4.437-1.5679 7.228-4.4311 9.777-9.5083.124-.2468.424-.3464.671-.2225.247.1238.346.4243.223.6711-2.627 5.2328-5.588 8.324-10.338 10.0026-.26.092-.546-.0445-.638-.3049z" fill="#000" fill-rule="evenodd"/><path clip-rule="evenodd" d="m244.378 21.9595c.227-.1575.539-.1011.696.1257.853 1.2289 1.627 2.4117 2.397 3.5882l.002.0024c.771 1.1787 1.538 2.3512 2.383 3.5681.157.2269.101.5384-.126.6958-.227.1575-.538.1011-.696-.1257-.852-1.2289-1.627-2.4116-2.397-3.5882l-.001-.0024c-.772-1.1787-1.539-2.3512-2.383-3.5681-.158-.2269-.102-.5384.125-.6958z" fill="#000" fill-rule="evenodd"/><path d="m220.385 72.3202c1.372-.7843 4.983-5.3918 6.617-7.5975 3.529 1.5685 10.62 2.7775 13.724 3.186-7.352 1.7973-21.714 5.1957-20.341 4.4115z" fill="#ffc100"/><path clip-rule="evenodd" d="m226.1 63.3718c.258.097.389.3852.292.6437-.649 1.7321-1.755 3.1962-2.985 4.5255-.733.7919-1.542 1.5672-2.33 2.3226-.512.4908-1.015.9733-1.483 1.4464-.194.1963-.511.1981-.707.0039-.197-.1942-.198-.5108-.004-.7071.511-.5173 1.03-1.0133 1.545-1.507.764-.7309 1.522-1.4566 2.245-2.2379 1.19-1.2861 2.198-2.639 2.783-4.1975.097-.2585.385-.3895.644-.2926z" fill="#000" fill-rule="evenodd"/><path clip-rule="evenodd" d="m225.468 63.6294c.117-.2505.414-.3592.665-.2429 3.858 1.7915 9.822 3.2963 14.116 3.2963.276 0 .5.2239.5.5 0 .2762-.224.5-.5.5-4.462 0-10.569-1.5469-14.538-3.3893-.25-.1163-.359-.4136-.243-.6641z" fill="#000" fill-rule="evenodd"/><path clip-rule="evenodd" d="m241.223 67.1284c.031.2745-.167.5217-.441.5522-3.72.4133-7.46 1.3004-11.206 2.2986-1.121.299-2.245.6085-3.369.9179-2.616.7203-5.23 1.4404-7.815 2.0272-.269.0612-.537-.1076-.598-.3768-.061-.2693.107-.5372.377-.5984 2.561-.5816 5.14-1.2918 7.746-2.0093 1.129-.3109 2.262-.6231 3.402-.9268 3.757-1.0014 7.556-1.9045 11.352-2.3263.275-.0305.522.1673.552.4417z" fill="#000" fill-rule="evenodd"/><path d="m152.345 6.77057c-.488 1.50361 1.699 8.62503 3.351 11.78663-3.666 1.2141-12.861 3.3767-15.432 5.1631 4.23-6.2764 12.569-18.45334 12.081-16.94973z" fill="#00ade4"/><path clip-rule="evenodd" d="m157.249 19.0951c-.256.1023-.547-.0228-.649-.2793-1.308-3.2814-3.149-8.7371-4.05-13.23606-.054-.27076.121-.53423.392-.58847s.534.12129.589.39205c.885 4.41959 2.703 9.81428 3.998 13.06228.102.2565-.023.5473-.28.6495z" fill="#000" fill-rule="evenodd"/><path clip-rule="evenodd" d="m157.703 18.4931c.036.2737-.156.5249-.43.5609-2.712.3568-5.899.9606-8.804 1.8375-2.921.8819-5.491 2.0212-7.024 3.4157-.205.1858-.521.1708-.707-.0335-.185-.2043-.17-.5205.034-.7063 1.705-1.5505 4.454-2.7414 7.408-3.6332 2.97-.8966 6.213-1.5098 8.962-1.8716.274-.0361.525.1567.561.4305z" fill="#000" fill-rule="evenodd"/><path clip-rule="evenodd" d="m140.424 24.6323c-.207-.1825-.227-.4984-.044-.7057 2.473-2.8082 4.644-5.9811 6.743-9.2394.628-.9759 1.252-1.961 1.875-2.946 1.45-2.29273 2.901-4.58476 4.418-6.75779.158-.22642.469-.28181.696-.12373.226.15809.282.46978.124.6962-1.504 2.15368-2.934 4.41438-4.379 6.69812-.626.9895-1.255 1.9834-1.894 2.9747-2.105 3.2684-4.308 6.4926-6.833 9.3589-.183.2073-.499.2273-.706.0447z" fill="#000" fill-rule="evenodd"/><path d="m87.9251 109.989c-3.0941-1.116-6.779-1.13-13.5579 1.694 7.9087 6.779 12.1827 8.896 13.5579 12.428h9.0385s-2.8245-6.779-9.0385-14.122z" fill="#01c9cc"/><path clip-rule="evenodd" d="m69.3532 110.4c.0983-.258.3872-.387.6452-.289 3.1604 1.204 6.6143 3.731 9.5558 6.752 2.9419 3.022 5.4184 6.587 6.5829 9.907.0914.261-.0457.546-.3063.638-.2606.091-.5459-.046-.6373-.307-1.1009-3.139-3.4768-6.583-6.3558-9.54-2.8796-2.958-6.2154-5.38-9.1953-6.515-.258-.099-.3875-.388-.2892-.646z" fill="#000" fill-rule="evenodd"/><path clip-rule="evenodd" d="m83.9617 109.378c.0707.267-.0885.541-.3554.611-3.4992.927-7.0039 1.832-10.5071 2.737-.9615.248-1.9229.496-2.884.745-.2673.069-.5401-.091-.6093-.359-.0692-.267.0915-.54.3588-.609.9621-.249 1.9242-.498 2.8861-.746 3.5028-.905 7.0037-1.809 10.4996-2.734.2669-.071.5406.088.6113.355z" fill="#000" fill-rule="evenodd"/><path clip-rule="evenodd" d="m81.849 107.984c.1707-.217.485-.255.7021-.084 7.0039 5.503 10.722 12.187 12.9903 17.48.1088.254-.0088.548-.2626.657-.2538.108-.5477-.009-.6565-.263-2.2321-5.208-5.8656-11.727-12.689-17.088-.2171-.17-.2549-.485-.0843-.702z" fill="#000" fill-rule="evenodd"/><path clip-rule="evenodd" d="m97.668 125.002c-5.5324 0-11.0357.25-16.5759.535-.2758.014-.5108-.198-.525-.474s.1979-.511.4736-.525c5.5417-.285 11.0671-.536 16.6273-.536.2761 0 .5.224.5.5s-.2239.5-.5.5z" fill="#000" fill-rule="evenodd"/><path d="m62.9656 37.1097c3.094-1.1154 6.7789-1.1297 13.5578 1.6948-7.9087 6.7789-12.1827 8.8959-13.5578 12.428h-9.0386s2.8246-6.7789 9.0386-14.1228z" fill="#ee8625"/><path clip-rule="evenodd" d="m81.5374 37.5214c-.0983-.2581-.3872-.3876-.6452-.2893-3.1604 1.2039-6.6142 3.7308-9.5557 6.7523-2.942 3.0219-5.4185 6.5868-6.583 9.9069-.0914.2606.0457.5459.3063.6373s.5459-.0457.6373-.3063c1.101-3.1388 3.4768-6.5831 6.3559-9.5404 2.8795-2.9577 6.2153-5.3801 9.1952-6.5153.258-.0983.3875-.3872.2892-.6452z" fill="#000" fill-rule="evenodd"/><path clip-rule="evenodd" d="m66.9289 36.4991c-.0706.267.0885.5407.3554.6113 3.4992.9263 7.0039 1.8315 10.5071 2.7363.9615.2484 1.9229.4967 2.884.7454.2673.0692.5401-.0914.6093-.3588.0692-.2673-.0914-.5401-.3588-.6093-.9621-.249-1.9241-.4974-2.886-.7459-3.5028-.9047-7.0037-1.809-10.4997-2.7344-.2669-.0706-.5406.0885-.6113.3554z" fill="#000" fill-rule="evenodd"/><path clip-rule="evenodd" d="m69.0416 35.1052c-.1706-.2172-.485-.2549-.7021-.0843-7.0039 5.5031-10.7219 12.1875-12.9903 17.4804-.1088.2538.0088.5477.2626.6565s.5478-.0088.6566-.2626c2.232-5.2082 5.8655-11.7267 12.6889-17.088.2172-.1706.2549-.4849.0843-.702z" fill="#000" fill-rule="evenodd"/><path clip-rule="evenodd" d="m53.2226 52.123c5.5324 0 11.0357.2499 16.5759.5349.2758.0142.5109-.1979.525-.4736.0142-.2758-.1978-.5109-.4736-.5251-5.5417-.2851-11.0671-.5362-16.6273-.5362-.2761 0-.5.2239-.5.5 0 .2762.2239.5.5.5z" fill="#000" fill-rule="evenodd"/><path d="m257.837 120.203-7.579 3.176 11.842 2.598 9.947-5.774z" fill="#4dc952"/><path clip-rule="evenodd" d="m258.862 119.245c.081.264-.068.544-.332.624-2.988.909-5.959 1.857-8.927 2.84-.262.087-.545-.055-.632-.317s.055-.545.317-.632c2.975-.986 5.954-1.936 8.95-2.848.265-.08.544.069.624.333z" fill="#000" fill-rule="evenodd"/><path clip-rule="evenodd" d="m248.96 121.707c.067-.268.339-.431.607-.364.477.119 1.013.266 1.6.426 1.46.399 3.232.884 5.175 1.244 2.714.502 5.687.744 8.438.155.27-.058.536.114.594.384.057.27-.115.536-.385.593-2.937.63-6.058.364-8.829-.149-1.987-.368-3.833-.872-5.303-1.274-.572-.157-1.088-.297-1.533-.409-.268-.067-.431-.338-.364-.606z" fill="#000" fill-rule="evenodd"/><path clip-rule="evenodd" d="m255.044 119.325c.036-.274.287-.466.561-.43 1.587.212 2.976.422 4.269.618 3.706.562 6.619 1.003 11.104 1.003.276 0 .5.224.5.5s-.224.5-.5.5c-4.566 0-7.568-.455-11.299-1.021-1.284-.194-2.655-.402-4.206-.609-.274-.036-.466-.288-.429-.561z" fill="#000" fill-rule="evenodd"/><path clip-rule="evenodd" d="m271.242 120.024c.099.258-.03.547-.288.646-.976.375-1.856.717-2.68 1.036-3.164 1.227-5.508 2.136-9.323 3.44-.261.089-.546-.051-.635-.312s.05-.545.312-.635c3.794-1.296 6.118-2.197 9.278-3.423.826-.32 1.708-.662 2.689-1.039.258-.1.547.029.647.287z" fill="#000" fill-rule="evenodd"/><path d="m279.671 71.4249c-3.341-1.2046-11.917-3.7341-12.808-4.2159-1.782 4.3363.742 13.0491 2.227 16.8635 2.97 3.0113 10.136 9.1544 8.354 4.8181s.742-13.8521 2.227-17.4657z" fill="#3e7bfa"/><path clip-rule="evenodd" d="m264.957 66.2556c.273.041.461.2956.42.5686-.993 6.6171.46 12.7211 3.425 18.7913.121.2481.018.5475-.23.6687s-.548.0182-.669-.2299c-3.027-6.1977-4.546-12.5084-3.515-19.3784.041-.2731.296-.4613.569-.4203z" fill="#000" fill-rule="evenodd"/><path clip-rule="evenodd" d="m278.465 68.585c.227.1572.284.4687.127.6957-4.411 6.3712-4.265 13.3378-2.527 20.7097.063.2688-.103.538-.372.6014-.269.0633-.538-.1032-.601-.372-1.765-7.4875-1.969-14.7968 2.678-21.5083.157-.227.468-.2836.695-.1265z" fill="#000" fill-rule="evenodd"/><path clip-rule="evenodd" d="m261.813 65.1305c.096-.2588.384-.3906.643-.2943 1.389.517 2.792 1.0226 4.198 1.5298 4.14 1.493 8.317 2.9993 12.319 4.8465.251.1157.36.4127.245.6635-.116.2507-.413.3601-.664.2444-3.959-1.8274-8.078-3.3126-12.206-4.8016-1.415-.5101-2.83-1.0205-4.241-1.5454-.259-.0962-.391-.3841-.294-.6429z" fill="#000" fill-rule="evenodd"/><path clip-rule="evenodd" d="m263.56 81.8711c.113-.2518.409-.3641.661-.2508 4.097 1.8438 7.792 4.1178 11.513 6.4075 1.09.6706 2.182 1.3426 3.286 2.0055.237.1421.314.4492.172.686s-.449.3136-.686.1715c-1.127-.6758-2.232-1.3562-3.33-2.0318-3.711-2.2833-7.333-4.5121-11.365-6.3267-.252-.1134-.365-.4094-.251-.6612z" fill="#000" fill-rule="evenodd"/><path d="m152.55 70.1593c5.961-1.3757 11.464 2.4841 13.471 4.5859l3.495 4.6217-6.904 24.1641c-2.336.383-7.62 1.066-10.062.732-3.054-.419-8.035-2.092-8.558 8.787-.523 10.878-1.883 14.435-4.707 15.586-2.824 1.15-.209-5.44-2.511-9.31-2.301-3.871-7.427-3.034-14.749-3.975-7.322-.942-8.577-4.08-8.682-7.532s6.904-9.7279 5.021-13.1799c-1.883-3.4519-6.227-1.837-13.393-6.9961-7.165-5.1591-2.006-9.1718 0-14.6175.427-1.157.504-2.7928.333-4.6297-.111-.08-.222-.161-.333-.2428-3.152-4.0126-8.8847-12.4964-6.5917-14.3308 2.2567-1.8057 6.2917 7.7652 6.9247 14.5736 6.501 4.687 13.584 6.3494 22.883 6.3494 9.459 0 16.911-2.8662 24.363-4.5859z" fill="#ee5f54"/><path d="m154.018 86.628c1.847-3.5082 11.002-6.7701 15.349-7.9626 2.346-1.5771 9.347-3.9236 18.579-.6924 11.54 4.039 16.848 7.9626 16.848 11.54s-10.501 8.655-8.539 7.6164 2.423-4.616 2.308-6.8086c-.092-1.7541-4.347-3.1927-6.463-3.6928 4.424 14.002 13.156 41.89 12.694 41.429-.577-.577-14.771-18.003-23.31-21.349-8.54-3.347-22.965 19.733-26.196 21.926-3.231 2.192-1.27-3.462 0-6.463 1.015-2.4 7.578-17.694 10.732-25.0416v-10.5014c0-.6539-.969-.9924-4.847 2.885-3.877 3.8775.462 6.6932 3.116 7.6164.808.6924 1.062 1.4541-4.385-1.0386-6.809-3.1158-8.193-5.0776-5.886-9.4628z" fill="#fff"/><path d="m191.385 69.5002c0 5.5779-5.806 10.0997-12.968 10.0997s-12.968-4.5218-12.968-10.0997c0-5.578 5.806-10.0998 12.968-10.0998s12.968 4.5218 12.968 10.0998z" fill="#fff"/><path d="m179.906 91.3581c-4.129-2.5628-8.72-9.9068-10.5-13.2585l6.763 3.1144 3.737 9.5212 2.047-.7119c1.281-1.4949 2.788-7.6229 3.381-10.5l2.314-1.4237 3.292 1.4237c-.427 3.3458-5.636 9.2839-8.186 11.8348z" fill="#ee5f54"/><path d="m184.337 93.6258c0 1.9928-1.121 3.6083-2.503 3.6083s-2.502-1.6155-2.502-3.6083 1.12-3.6082 2.502-3.6082 2.503 1.6154 2.503 3.6082z" fill="#fdd13b"/><g clip-rule="evenodd" fill-rule="evenodd"><path d="m98.9583 55.3091c.6181 1.5616 1.6907 3.7503 3.3667 6.6836.684 1.196 1.648 2.3895 2.845 3.5383-.059-.5026-.142-1.0048-.246-1.5042-.723-3.4667-2.446-6.7343-4.055-8.9001-.808-1.0878-1.5629-1.8641-2.1199-2.2516-.22-.1531-.369-.2167-.4527-.2394-.0256.126-.0277.3799.0642.816.0975.4633.2884 1.076.5977 1.8574zm7.2967 11.197c-.045-.9026-.168-1.8018-.352-2.6834-.758-3.6355-2.554-7.0344-4.231-9.2923-.835-1.124-1.666-1.999-2.3518-2.4762-.3301-.2296-.6994-.4194-1.0587-.4288-.196-.0052-.4039.0436-.5831.1826-.1756.1361-.2775.3229-.3329.5111-.1049.3562-.0733.8172.0365 1.3387.1134.5383.3254 1.2084.6465 2.0194.6425 1.6232 1.7404 3.8577 3.4285 6.8116.884 1.5469 2.187 3.0666 3.815 4.4908.05 2.4931-.566 4.9388-2.223 7.0389-1.739 2.2026-1.998 5.1545-1.202 7.7065.795 2.5508 2.673 4.794 5.322 5.5276 6.322 1.7508 9.457 3.5169 10.801 5.2257.654.8321.885 1.6521.855 2.4795-.031.8446-.335 1.7298-.81 2.6727-.449.8912-1.032 1.7967-1.64 2.7405-.035.056-.071.112-.107.168-.639.994-1.297 2.028-1.799 3.083-.503 1.056-.865 2.162-.895 3.305-.03 1.154.281 2.318 1.077 3.476 1.319 1.918 3.476 2.867 5.874 3.418 1.819.418 3.849.62 5.843.819.626.062 1.247.124 1.858.192 2.595.29 4.999.691 6.842 1.654 1.803.942 3.076 2.424 3.428 4.958.06.425.075.867.084 1.333.001.072.002.145.004.218.006.393.013.804.046 1.205.078.964.311 1.963 1.105 2.819.315.338.726.495 1.173.378.391-.102.724-.393.999-.724.56-.674 1.097-1.777 1.563-3.059.937-2.58 1.66-6.098 1.66-8.955 0-4.704.558-7.468 1.476-9.075.452-.79.988-1.296 1.593-1.624.611-.33 1.322-.494 2.142-.552.823-.058 1.731-.008 2.731.072.253.02.511.043.775.065.77.066 1.584.136 2.42.172 2.257.098 4.749-.043 7.314-1.158.253-.11.369-.405.259-.658s-.404-.369-.658-.259c-2.368 1.029-4.688 1.171-6.872 1.076-.813-.035-1.596-.102-2.36-.168-.269-.023-.534-.046-.798-.067-1.005-.08-1.978-.136-2.882-.073-.907.064-1.77.25-2.547.671-.783.424-1.449 1.07-1.985 2.007-1.055 1.847-1.608 4.836-1.608 9.571 0 2.721-.696 6.123-1.6 8.614-.455 1.253-.945 2.223-1.392 2.76-.228.275-.394.374-.483.397l-.002.001c-.032.008-.08.021-.185-.093-.576-.62-.771-1.358-.841-2.219-.03-.367-.037-.74-.043-1.133-.002-.075-.003-.151-.004-.228-.009-.469-.025-.963-.093-1.452-.401-2.878-1.89-4.627-3.956-5.707-2.027-1.059-4.602-1.472-7.194-1.761-.64-.071-1.281-.135-1.918-.199-1.979-.197-3.918-.39-5.67-.793-2.309-.53-4.167-1.399-5.274-3.01-.679-.987-.926-1.943-.901-2.883.024-.951.328-1.914.798-2.901.471-.989 1.094-1.973 1.737-2.973.038-.06.077-.12.116-.18.599-.9311 1.209-1.8783 1.683-2.8182.505-1.0013.878-2.0359.916-3.0867.039-1.068-.27-2.1191-1.068-3.1341-1.562-1.9855-4.988-3.8175-11.32-5.5711-2.247-.6222-3.915-2.5534-4.634-4.8615-.719-2.3069-.461-4.8984 1.032-6.7894 1.64-2.078 2.339-4.4438 2.43-6.8337 2.448 1.9359 5.494 3.6583 8.877 4.9796 6.288 2.4563 13.82 3.5592 21.013 2.0335.006-.0013.012-.0026.018-.0041 3.822-.9556 7.106-2.073 9.992-3.0553.372-.1265.737-.2507 1.096-.3721 3.16-1.0691 5.806-1.9046 8.218-2.1293 2.386-.2224 4.531.1553 6.694 1.5214 2.182 1.3779 4.416 3.7824 6.923 7.6821.149.2323.458.2996.69.1502.233-.1493.3-.4587.151-.6909-2.543-3.9554-4.872-6.4975-7.23-7.9869-2.377-1.5011-4.749-1.9113-7.321-1.6716-2.547.2373-5.301 1.114-8.446 2.1778-.36.1219-.726.2464-1.098.3729-2.886.9821-6.127 2.0849-9.903 3.0294-6.963 1.4748-14.292.4104-20.433-1.9886-3.625-1.4159-6.809-3.2853-9.25-5.3463z" fill="#181818"/><path d="m182.723 61.4056c2.307.7978 4.33 2.0891 5.583 3.8669 1.259 1.7885 1.611 3.937 1.432 6.0371-.178 2.0992-.89 4.1838-1.801 5.8951-1.147 2.1553-2.664 3.5014-4.497 4.1684-1.598.5816-3.393.6309-5.323.31-3.104-.1991-6.754-1.3612-9.493-3.5315-2.765-2.1909-4.615-5.4293-3.979-9.7046.758-5.0886 5.589-7.5648 10.603-7.9596 2.528-.199 5.163.1189 7.475.9182zm-4.473 19.2859c-.241-.0405-.485-.0874-.733-.1404-3.179-.6798-7.138-2.6193-9.449-5.1825-1.15-1.2764-1.857-2.6679-1.908-4.1039-.05-1.4222.54-2.9804 2.17-4.6107.196-.1953.196-.5118 0-.7071-.195-.1953-.512-.1953-.707 0-.971.9716-1.635 1.9541-2.027 2.9334.011-.0947.024-.1901.038-.286.655-4.3931 4.855-6.7291 9.693-7.11 2.398-.1888 4.894.1145 7.069.8664 2.179.7534 3.997 1.9433 5.092 3.4976 1.087 1.5427 1.419 3.436 1.254 5.3764-.165 1.9413-.828 3.8957-1.687 5.51-1.051 1.9723-2.39 3.1287-3.957 3.6987-1.392.5067-3.009.566-4.833.2606-.005-.0009-.01-.0017-.015-.0025z" fill="#181818"/><path d="m169.977 77.9926c.109.2538-.009.5478-.263.6566-.14.0602-.282.121-.425.1824-2.519 1.0784-5.47 2.3423-8.178 3.736-2.875 1.48-5.414 3.0756-6.869 4.7071-.725.8124-1.144 1.5933-1.24 2.3367-.093.7226.111 1.4785.775 2.2811.676.8157 1.822 1.67 3.585 2.5382 1.759.8659 4.103 1.7317 7.142 2.5848.266.0746.421.3507.346.6165-.074.2659-.35.4209-.616.3463-3.075-.8631-5.481-1.7485-7.313-2.6504-1.828-.8997-3.113-1.83-3.914-2.7976-.812-.9808-1.131-2.0069-.997-3.0467.131-1.0193.689-1.9814 1.486-2.8746 1.587-1.7795 4.271-3.4448 7.158-4.9305 2.74-1.4106 5.721-2.6872 8.233-3.7629.146-.0626.291-.1244.434-.1856.253-.1088.547.0088.656.2626z" fill="#181818"/><path d="m187.113 77.711c.095-.2593.382-.3925.641-.2976.103.0378.231.0839.38.1381 1.569.5686 5.574 2.0195 9.332 3.8459 2.056.9991 4.062 2.1219 5.562 3.2877.75.5828 1.39 1.1895 1.846 1.8117.456.6205.754 1.2912.754 1.9905 0 .0408-.005.0816-.015.1212-.226.9041-.796 1.8134-1.514 2.6795-.722.8725-1.625 1.7374-2.565 2.5517-.94.8154-1.928 1.5889-2.822 2.2766-.224.172-.441.338-.65.4978-.633.4837-1.19.9099-1.627 1.2692-.213.1755-.528.145-.703-.0681-.176-.2132-.145-.5283.068-.7038.451-.3719 1.03-.8143 1.667-1.3016.207-.1577.419-.3201.635-.4864.891-.6848 1.86-1.4438 2.777-2.2393.919-.7966 1.777-1.6209 2.45-2.4339.659-.7951 1.113-1.5461 1.297-2.2224-.016-.3961-.193-.8423-.558-1.3394-.382-.5205-.945-1.0625-1.654-1.6138-1.418-1.1026-3.352-2.1898-5.385-3.1778-3.707-1.8016-7.663-3.2353-9.236-3.8051-.15-.0545-.278-.101-.383-.1392-.259-.095-.392-.3822-.297-.6415z" fill="#181818"/><path d="m195.11 96.1616c.264-.0824.544.0645.627.3281l9.868 31.5813c.068.219-.021.456-.217.576-.195.119-.447.09-.611-.07-.747-.734-1.933-2.174-3.391-3.941-.154-.187-.311-.378-.47-.571-1.685-2.042-3.71-4.475-5.886-6.848-2.178-2.374-4.498-4.676-6.772-6.462-2.269-1.783-4.439-3.007-6.339-3.319-5.791.014-10.505 3.148-14.708 7.387-2.104 2.122-4.066 4.505-5.96 6.887-.424.532-.844 1.064-1.262 1.594-1.447 1.833-2.865 3.629-4.276 5.245-.515.589-.946.995-1.307 1.191-.18.098-.415.184-.668.138-.287-.052-.466-.247-.562-.443-.088-.181-.122-.388-.134-.578-.013-.198-.006-.419.013-.652.04-.466.133-1.026.248-1.622.988-5.097 3.08-9.751 5.148-14.352l.044-.097c2.09-4.65 4.147-9.249 5.107-14.2884.052-.2713.314-.4493.585-.3976s.449.3134.398.5847c-.986 5.1733-3.095 9.8773-5.178 14.5113l-.022.048c-2.082 4.634-4.134 9.199-5.1 14.181-.114.587-.198 1.105-.233 1.516-.017.205-.021.372-.012.502.199-.14.498-.417.919-.9 1.394-1.595 2.791-3.365 4.235-5.194.42-.532.845-1.07 1.274-1.61 1.898-2.386 3.888-4.805 6.033-6.969 4.286-4.322 9.254-7.682 15.458-7.682.026 0 .052.002.078.006 2.167.342 4.517 1.702 6.839 3.527 2.334 1.833 4.696 4.18 6.89 6.572 2.196 2.394 4.235 4.844 5.921 6.887.154.187.305.37.453.55.682.826 1.294 1.569 1.825 2.197l-9.183-29.3871c-.082-.2635.065-.544.328-.6263z" fill="#181818"/><path d="m184.98 67.6861c.249-.1195.547-.0146.667.2344.493 1.0264.488 2.3797.052 3.5766-.439 1.2073-1.343 2.3248-2.731 2.8183-2.154.7657-4.494.1982-6.567-.6868-1.525-.651-2.981-1.5109-4.168-2.2112-.424-.2506-.814-.4808-1.16-.6736-.241-.1345-.328-.439-.193-.6802.134-.2412.439-.3278.68-.1933.382.213.796.4574 1.237.7175 1.174.693 2.537 1.4979 3.996 2.1211 2.005.856 4.049 1.3009 5.84.6643 1.05-.3734 1.767-1.2288 2.127-2.2182.364-.9997.338-2.0667-.015-2.8018-.119-.2489-.014-.5476.235-.6671z" fill="#181818"/><path d="m166.014 85.2989c.151.0902.244.2534.244.4296 0 3.2059-.354 8.3871-1.226 11.8764-.036.1448-.135.2659-.27.3301s-.291.0648-.427.0017c-1.641-.766-2.948-1.6294-3.841-2.5865-.898-.9627-1.395-2.0423-1.351-3.2111.044-1.1609.618-2.3177 1.672-3.4491 1.053-1.1311 2.614-2.2678 4.705-3.4011.155-.0839.342-.0802.494.01zm-1.811 11.4618c.674-3.0494.994-7.2011 1.047-10.1746-1.652.9578-2.871 1.8917-3.703 2.7855-.953 1.0229-1.373 1.962-1.404 2.8051-.032.8352.314 1.6676 1.083 2.4914.679.7289 1.675 1.4332 2.977 2.0926z" fill="#181818"/><path d="m191.466 86.5108c.122-.1419.314-.2032.497-.1586 3.04.7441 4.952 1.7513 6.05 2.9102 1.123 1.185 1.362 2.4933 1.129 3.7031-.227 1.1806-.895 2.2453-1.548 3.0307-.329.3965-.663.7323-.952.9874-.277.2444-.546.4438-.742.5364-.266.1248-.519.05-.687-.0539-.154-.0958-.28-.2375-.379-.3716-.202-.2744-.404-.6694-.601-1.1172-.397-.906-.825-2.1538-1.223-3.4205-.399-1.271-.775-2.5783-1.069-3.6099-.041-.1469-.081-.288-.12-.4225-.096-.3392-.18-.6367-.251-.8802-.102-.3543-.165-.5583-.19-.6187-.07-.174-.037-.3727.086-.5147zm1.118 1.0389c.059.2072.126.4444.2.7045.038.134.078.2741.119.4192.293 1.0305.666 2.3266 1.061 3.5834.397 1.2611.81 2.4654 1.185 3.3188.189.4318.356.7432.49.9249.001.0021.003.0041.004.0061.087-.063.201-.1529.337-.2728.251-.2218.549-.5207.845-.8767.598-.7195 1.153-1.6313 1.335-2.5803.177-.9199.011-1.8942-.873-2.8265-.816-.8614-2.27-1.7118-4.703-2.4006z" fill="#181818"/><path d="m168.631 77.3574c.238-.1393.544-.0589.684.1795 2.566 4.3934 5.256 8.4105 8.853 11.977.924.9163 1.791 1.6014 2.885 2.214.241.135.327.4397.192.6806s-.44.3269-.68.1919c-1.187-.6642-2.125-1.4083-3.102-2.3764-3.687-3.6559-6.427-7.7587-9.012-12.1826-.139-.2385-.059-.5447.18-.684z" fill="#000"/><path d="m175.735 80.4104c.258-.0991.547.0295.646.2873.523 1.3603 1.035 2.7568 1.545 4.1489.45 1.2292.9 2.4551 1.354 3.6495.323.8476.653 1.5995 1.107 2.3425.144.2356.07.5434-.166.6874-.235.144-.543.0697-.687-.1659-.499-.8171-.855-1.6327-1.188-2.5084-.473-1.2416-.92-2.4628-1.366-3.6806-.501-1.3676-1.001-2.731-1.533-4.1146-.099-.2578.03-.5471.288-.6461z" fill="#000"/><path d="m181.729 89.3696c.472-.0101.953.1421 1.328.4153.517.3761.81.9143.974 1.4517.164.536.21 1.1028.214 1.5872.007.8522-.065 2.2965-.494 3.3997-.213.5509-.545 1.0929-1.075 1.394-.469.266-1.013.3012-1.61.1101-.053.0561-.12.1005-.198.1276-.261.0903-.546-.048-.636-.309-.03-.0849-.059-.1715-.089-.2597-.205-.1274-.413-.2771-.602-.4477-.363-.3273-.715-.7834-.777-1.3543-.136-1.2537.128-2.6044.359-3.7881.046-.2359.091-.4651.131-.6856.049-.2717.31-.4519.581-.4025.045.008.086.0216.125.0399.123-.2271.269-.4464.439-.656.352-.4326.853-.6123 1.33-.6226zm-.755 7.2371c.051.0259.101.05.15.0722.53.2406.849.1879 1.058.069.239-.1359.459-.427.637-.8862.356-.917.432-2.2008.426-3.0303-.003-.4355-.046-.8954-.17-1.3025-.124-.4056-.319-.7267-.606-.9353-.199-.1448-.466-.2296-.718-.2242-.247.0053-.446.0937-.576.2534-.68.8377-.879 1.9332-.798 3.128.066.9678.313 1.9599.597 2.8559z" fill="#000"/><path d="m184.848 78.7267c.247-.1235.547-.0234.671.2236.233.4665.247 1.0005.207 1.4574-.033.3729-.109.7525-.171 1.0609-.014.0713-.028.1387-.04.2014-.583 3.0379-1.589 6.2848-3.445 8.8696-.161.2244-.473.2757-.698.1146-.224-.161-.275-.4734-.114-.6978 1.733-2.4145 2.703-5.4978 3.275-8.475.015-.0772.03-.1549.046-.2329.061-.3053.123-.616.151-.9285.034-.3944.003-.7044-.106-.9225-.123-.2469-.023-.5473.224-.6708z" fill="#000"/><path d="m191.055 79.1162c.267.0703.426.3437.356.6108-.241.9152-.595 1.6903-1.085 2.4983-1.954 3.2207-4.402 5.8826-7.033 8.4846-.196.1942-.513.1924-.707-.0039-.194-.1964-.193-.513.004-.7071 2.613-2.5842 4.992-5.1776 6.881-8.2922.449-.7416.761-1.4282.973-2.2342.07-.2671.344-.4266.611-.3563z" fill="#000"/><path d="m198.462 52.6313c.013-.2758.248-.4882.524-.4744 1.732.0866 3.459.1267 5.194.1267.276 0 .5.2238.5.5 0 .2761-.224.5-.5.5-1.75 0-3.494-.0405-5.244-.128-.276-.0138-.488-.2485-.474-.5243z" fill="#000"/><path d="m205.796 47.9834c.26-.0914.545.0457.637.3063.401 1.1428.665 2.2247.665 3.4753 0 .2762-.224.5-.5.5-.277 0-.5-.2238-.5-.5 0-1.0983-.229-2.0628-.609-3.1442-.091-.2606.046-.546.307-.6374z" fill="#000"/><path d="m208.263 52.6197c.02-.2754.26-.4823.535-.4621 1.259.0924 2.515.126 3.783.126.276 0 .5.2238.5.5 0 .2761-.224.5-.5.5-1.285 0-2.567-.0341-3.856-.1287-.275-.0202-.482-.2598-.462-.5352z" fill="#000"/><path d="m206.246 53.8204c.271-.0542.534.1214.588.3922.276 1.3777.404 2.6738.262 4.0941-.028.2748-.273.4752-.547.4478-.275-.0275-.476-.2725-.448-.5473.129-1.2927.015-2.4847-.247-3.7985-.055-.2708.121-.5342.392-.5883z" fill="#000"/><path d="m130.483 58.5923c.025-.2749.269-.4771.544-.4514 1.182.1101 2.316.1251 3.518.1251.276 0 .5.2239.5.5s-.224.5-.5.5c-1.207 0-2.38-.0148-3.611-.1295-.275-.0256-.477-.2692-.451-.5442z" fill="#000"/><path d="m138.145 53.5656c.271-.0517.533.1263.585.3976.247 1.3007.39 2.5786.39 3.9125 0 .2762-.224.5-.5.5s-.5-.2238-.5-.5c0-1.2604-.135-2.4748-.373-3.7254-.051-.2713.127-.5331.398-.5847z" fill="#000"/><path d="m141.304 58.8343c.034-.2741.283-.4694.557-.4361 1.181.1435 2.363.2617 3.554.3808.275.0274.475.2725.448.5472-.028.2748-.273.4753-.548.4478-1.189-.1189-2.381-.2382-3.574-.3831-.275-.0333-.47-.2825-.437-.5566z" fill="#000"/><path d="m138.246 60.4317c.276.0039.497.2309.493.507-.014 1.0072-.118 1.9064-.26 2.8668-.04.2732-.295.4618-.568.4213-.273-.0404-.462-.2947-.421-.5678.139-.9395.236-1.79.249-2.7344.004-.2762.231-.4968.507-.4929z" fill="#000"/><path d="m218.741 100.479c.109.254-.009.548-.263.656l-3.347 1.435c-.254.109-.548-.009-.657-.262-.109-.254.009-.548.263-.657l3.347-1.435c.254-.108.548.009.657.263z" fill="#000"/><path d="m217.479 95.5851c.213-.1758.528-.1456.704.0673.574.6959 1.05 1.4109 1.528 2.1286.032.0481.064.0961.096.1441.153.2298.091.5402-.139.6934-.229.1532-.54.0911-.693-.1387-.03-.045-.06-.0898-.09-.1344-.484-.7267-.933-1.4015-1.474-2.0564-.176-.213-.145-.5281.068-.7039z" fill="#000"/><path d="m223.586 98.6623c-.371.1555-.75.3145-1.078.4254-.262.0883-.546-.0523-.634-.314-.088-.2616.052-.5453.314-.6336.307-.1035.614-.233.948-.374.235-.0992.484-.2042.756-.3098.612-.2379 1.298-.4583 1.963-.4583.276 0 .5.2239.5.5 0 .2762-.224.5-.5.5-.467 0-1.006.1594-1.601.3904-.21.0817-.438.1771-.668.2739z" fill="#000"/><path d="m221.328 101.073c.221-.166.534-.122.7.099.569.755 1.014 1.497 1.468 2.282.139.239.057.545-.182.683s-.545.057-.683-.182c-.451-.779-.871-1.478-1.401-2.181-.167-.221-.122-.535.098-.701z" fill="#000"/></g></svg>