<svg fill="none" height="62" viewBox="0 0 71 62" width="71" xmlns="http://www.w3.org/2000/svg"><path clip-rule="evenodd" d="m63.975 38.381-10.0299-14.762h-36.8902l-5.9573 8.8572h.0272l-3.95331 5.9048h19.45351c0 4.8916 3.9735 8.8571 8.875 8.8571s8.875-3.9655 8.875-8.8571zm7.025 0v23.619h-71v-23.619l13.9004-20.6667h43.1992zm-49.0609 5.9047h-16.02243v11.8095h59.16663v-11.8095h-16.0224c-2.2826 5.2136-7.4954 8.8572-13.5609 8.8572s-11.2783-3.6436-13.5609-8.8572zm16.5192-32.4762h-5.9166v-11.8095h5.9166zm14.1348 1.8551-4.6029-3.71012 7.168-8.85715 4.6029 3.7101zm-29.5833-3.71012-4.6029 3.71012-7.168-8.85717 4.6029-3.7101z" fill="#d9dae6" fill-rule="evenodd"/></svg>