<svg fill="none" height="66" viewBox="0 0 66 66" width="66" xmlns="http://www.w3.org/2000/svg"><path d="m61.5 0h-57c-1.19347 0-2.33807.474106-3.18198 1.31802-.843914.84391-1.31802 1.98851-1.31802 3.18198v57c0 1.1935.474106 2.3381 1.31802 3.182.84391.8439 1.98851 1.318 3.18198 1.318h57c1.1935 0 2.3381-.4741 3.182-1.318s1.318-1.9885 1.318-3.182v-57c0-1.19347-.4741-2.33807-1.318-3.18198-.8439-.843914-1.9885-1.31802-3.182-1.31802zm-58.5 4.5c0-.39782.15804-.77936.43934-1.06066s.66284-.43934 1.06066-.43934h57c.3978 0 .7794.15804 1.0607.43934s.4393.66284.4393 1.06066v7.5h-60zm60 57c0 .3978-.158.7794-.4393 1.0607s-.6629.4393-1.0607.4393h-57c-.39782 0-.77936-.158-1.06066-.4393s-.43934-.6629-.43934-1.0607v-46.5h60zm-51-54c0 .59334-.1759 1.17336-.5056 1.66671-.3296.49335-.7982.87789-1.3463 1.10489-.54823.2271-1.15143.2865-1.73337.1708-.58194-.1158-1.11649-.4015-1.53605-.82108-.41956-.41956-.70528-.95411-.82104-1.53605-.11575-.58194-.05634-1.18514.17072-1.73332s.61158-1.01671 1.10493-1.34636c.49335-.32964 1.07337-.50559 1.66671-.50559.79565 0 1.5587.31607 2.1213.87868s.8787 1.32567.8787 2.12132zm9 0c0 .59334-.1759 1.17336-.5056 1.66671-.3296.49335-.7982.87789-1.3463 1.10489-.5482.2271-1.1514.2865-1.7334.1708-.5819-.1158-1.1165-.4015-1.536-.82108-.4196-.41956-.7053-.95411-.8211-1.53605-.1157-.58194-.0563-1.18514.1708-1.73332.227-.54818.6115-1.01671 1.1049-1.34636.4933-.32964 1.0734-.50559 1.6667-.50559.7956 0 1.5587.31607 2.1213.87868s.8787 1.32567.8787 2.12132zm9 0c0 .59334-.1759 1.17336-.5056 1.66671-.3296.49335-.7982.87789-1.3463 1.10489-.5482.2271-1.1514.2865-1.7334.1708-.5819-.1158-1.1165-.4015-1.536-.82108-.4196-.41956-.7053-.95411-.8211-1.53605-.1157-.58194-.0563-1.18514.1708-1.73332.227-.54818.6115-1.01671 1.1049-1.34636.4933-.32964 1.0734-.50559 1.6667-.50559.7956 0 1.5587.31607 2.1213.87868s.8787 1.32567.8787 2.12132zm3 37.5c2.67 0 5.2801-.7918 7.5002-2.2752s3.9504-3.5918 4.9722-6.0586 1.2891-5.1812.7682-7.7999c-.5209-2.6188-1.8067-5.0242-3.6947-6.9122s-4.2934-3.1738-6.9122-3.6947c-2.6187-.5209-5.3331-.2536-7.7999.7682s-4.5752 2.7521-6.0586 4.9722-2.2752 4.8302-2.2752 7.5002c0 3.5804 1.4223 7.0142 3.9541 9.5459 2.5317 2.5318 5.9655 3.9541 9.5459 3.9541zm0-24c2.0767 0 4.1068.6158 5.8335 1.7696 1.7267 1.1537 3.0725 2.7936 3.8672 4.7122.7948 1.9186 1.0027 4.0298.5975 6.0667-.4051 2.0368-1.4051 3.9077-2.8736 5.3761-1.4684 1.4685-3.3393 2.4685-5.3761 2.8736-2.0368.4052-4.1481.1973-6.0667-.5975-1.9186-.7947-3.5585-2.1405-4.7122-3.8672-1.1538-1.7267-1.7696-3.7568-1.7696-5.8335 0-2.7848 1.1062-5.4555 3.0754-7.4246 1.9691-1.9692 4.6398-3.0754 7.4246-3.0754zm9 27c.3978 0 .7794.158 1.0607.4393s.4393.6629.4393 1.0607-.158.7794-.4393 1.0607-.6629.4393-1.0607.4393h-18c-.3978 0-.7794-.158-1.0607-.4393s-.4393-.6629-.4393-1.0607.158-.7794.4393-1.0607.6629-.4393 1.0607-.4393zm1.5 10.5c0 .3978-.158.7794-.4393 1.0607s-.6629.4393-1.0607.4393h-18c-.3978 0-.7794-.158-1.0607-.4393s-.4393-.6629-.4393-1.0607.158-.7794.4393-1.0607.6629-.4393 1.0607-.4393h18c.3978 0 .7794.158 1.0607.4393s.4393.6629.4393 1.0607zm-25.5-4.5c0-.3978.158-.7794.4393-1.0607s.6629-.4393 1.0607-.4393h27c.3978 0 .7794.158 1.0607.4393s.4393.6629.4393 1.0607-.158.7794-.4393 1.0607-.6629.4393-1.0607.4393h-27c-.3978 0-.7794-.158-1.0607-.4393s-.4393-.6629-.4393-1.0607zm9.69-19.32 3.195-3.18-3.195-3.18c-.2825-.2825-.4411-.6655-.4411-1.065s.1586-.7825.4411-1.065.6655-.4411 1.065-.4411.7825.1586 1.065.4411l3.18 3.195 3.18-3.195c.2825-.2825.6655-.4411 1.065-.4411s.7825.1586 1.065.4411.4411.6655.4411 1.065-.1586.7825-.4411 1.065l-3.195 3.18 3.195 3.18c.1406.1394.2522.3053.3283.4881.0762.1828.1154.3789.1154.5769s-.0392.3941-.1154.5769c-.0761.1828-.1877.3487-.3283.4881-.1402.139-.3064.249-.4891.3237-.1828.0746-.3785.1124-.5759.1113-.1974.0011-.3931-.0367-.5759-.1113-.1827-.0747-.3489-.1847-.4891-.3237l-3.18-3.195-3.18 3.195c-.1402.139-.3064.249-.4891.3237-.1828.0746-.3785.1124-.5759.1113-.1974.0011-.3931-.0367-.5759-.1113-.1827-.0747-.3489-.1847-.4891-.3237-.1406-.1394-.2522-.3053-.3283-.4881-.0762-.1828-.1154-.3789-.1154-.5769s.0392-.3941.1154-.5769c.0761-.1828.1877-.3487.3283-.4881z" fill="#d9dae6"/></svg>