<svg fill="none" height="72" viewBox="0 0 72 72" width="72" xmlns="http://www.w3.org/2000/svg"><g fill="#d9dae6"><path d="m30.3651 68.9063h-19.41c-1.16496 0-2.1094-.9445-2.1094-2.1094v-15.4688c0-1.1649.94444-2.1093 2.1094-2.1093h19.41c1.165 0 2.1094.9444 2.1094 2.1093v15.4688c0 1.1649-.9444 2.1094-2.1094 2.1094zm-17.3006-4.2188h15.1913v-11.25h-15.1913z"/><path d="m25.4536 56.9531h-9.4477v4.2188h9.4477z"/><path d="m66.7968 45.4219h-19.4101c-1.1649 0-2.1094-.9445-2.1094-2.1094v-15.4687c0-1.165.9445-2.1094 2.1094-2.1094h19.4101c1.1649 0 2.1093.9444 2.1093 2.1094v15.4687c0 1.1649-.9444 2.1094-2.1093 2.1094zm-17.3007-4.2188h15.1913v-11.25h-15.1913z"/><path d="m61.8853 33.4688h-9.4478v4.2187h9.4478z"/><path d="m66.7968 68.9063h-19.4101c-1.1649 0-2.1094-.9445-2.1094-2.1094v-15.4688c0-1.1649.9445-2.1093 2.1094-2.1093h19.4101c1.1649 0 2.1093.9444 2.1093 2.1093v15.4688c0 1.1649-.9444 2.1094-2.1093 2.1094zm-17.3007-4.2188h15.1913v-11.25h-15.1913z"/><path d="m61.8853 56.9531h-9.4478v4.2188h9.4478z"/><path d="m59.3889 27.8438h-4.2187v-5.3438h-18.2093v-4.2188h20.3187c1.1649 0 2.1093.9445 2.1093 2.1094z"/><path d="m23.1914 36.4219h-4.2187v14.9606h4.2187z"/><path d="m23.6476 38.5311h-5.1651c-.9689 0-1.8132-.6599-2.0471-1.6003l-.6183-2.4868c-.2782-.1044-.5532-.2173-.8246-.3382l-2.2432 1.3387c-.8239.4918-1.8756.3657-2.5598-.307l-3.65227-3.5903c-.70228-.6903-.83334-1.7748-.31598-2.6126l1.34508-2.1779c-.11391-.251-.2205-.505-.31964-.7616l-2.53632-.6095c-.94823-.2279-1.61662-1.0759-1.61662-2.051v-5.0775c0-.9753.66839-1.8232 1.61648-2.0511l2.55066-.6128c.09984-.2562.20714-.5099.32161-.7606l-1.33748-2.1657c-.5175-.8378-.3863-1.9223.31598-2.6126l3.6523-3.59033c.6843-.67247 1.7359-.79889 2.5598-.30713l2.2555 1.34621c.272-.12038.5474-.2326.8259-.33638l.6148-2.47261c.2339-.94036 1.0782-1.60031 2.0471-1.60031h5.1651c.9689 0 1.8132.65995 2.0471 1.60031l.6183 2.48681c.2782.10435.5533.21727.8247.33821l2.2431-1.33875c.8239-.49177 1.8756-.36577 2.5598.30698l3.6523 3.59029c.7023.6903.8333 1.7748.316 2.6127l-1.3451 2.1778c.1139.2511.2203.505.3195.7617l2.5364.6094c.9481.2278 1.6165 1.0758 1.6165 2.0511v5.0775c0 .9752-.6684 1.8232-1.6165 2.051l-2.5508.6129c-.0997.2562-.2071.51-.3216.7605l1.3375 2.1657c.5175.8379.3863 1.9224-.316 2.6127l-3.6523 3.5903c-.6843.6723-1.7359.7989-2.5598.3071l-2.2555-1.3462c-.2719.1204-.5474.2326-.8259.3364l-.6148 2.4726c-.2335.9404-1.0779 1.6003-2.0468 1.6003zm-3.5161-4.2187h1.867l.4988-2.0058c.1834-.7376.7496-1.3195 1.4818-1.5231.7769-.2161 1.5318-.5227 2.2434-.9111.6554-.3575 1.4508-.3424 2.0918.0401l1.8402 1.0984 1.2904-1.2686-1.0761-1.7425c-.4053-.6561-.42-1.4812-.0387-2.1515.3944-.693.7061-1.4286.9268-2.1865.2116-.7266.7965-1.2843 1.5323-1.4612l2.0623-.4954v-1.7526l-2.0517-.4931c-.7383-.1774-1.3241-.7378-1.5342-1.4674-.2183-.7582-.5279-1.4948-.9203-2.1892-.3781-.6695-.3621-1.4916.0419-2.146l1.0816-1.7513-1.2904-1.2684-1.8312 1.0928c-.6429.3837-1.4413.3978-2.0974.0371-.7093-.39-1.4632-.6988-2.2406-.9176-.7294-.2053-1.2926-.7861-1.4754-1.52128l-.5014-2.01586h-1.8671l-.4988 2.00573c-.1833.73761-.7495 1.31951-1.4817 1.52311-.777.2161-1.5318.5227-2.2434.9111-.6553.3576-1.4507.3426-2.0918-.0401l-1.8402-1.0982-1.2904 1.2685 1.0761 1.7425c.4052.6562.42 1.4812.0386 2.1516-.3944.6933-.7062 1.4287-.9267 2.1863-.2115.7267-.7963 1.2844-1.53237 1.4613l-2.06213.4952v1.7526l2.05172.493c.73828.1775 1.32428.7379 1.53418 1.4676.2183.758.5278 1.4944.9203 2.1891.3781.6695.3621 1.4916-.0419 2.1459l-1.0816 1.7514 1.2904 1.2684 1.8312-1.0928c.643-.3839 1.4412-.3981 2.0974-.0371.7094.39 1.4633.6988 2.2406.9176.7294.2053 1.2927.7861 1.4755 1.5213z"/><path d="m21.0816 28.2656c-4.1104 0-7.4546-3.3433-7.4546-7.4531s3.344-7.4531 7.4546-7.4531 7.4547 3.3433 7.4547 7.4531-3.3442 7.4531-7.4547 7.4531zm0-10.6875c-1.7842 0-3.2359 1.4509-3.2359 3.2344s1.4517 3.2344 3.2359 3.2344c1.7843 0 3.2359-1.4509 3.2359-3.2344s-1.4516-3.2344-3.2359-3.2344z"/></g></svg>