<svg fill="none" height="15" viewBox="0 0 16 15" width="16" xmlns="http://www.w3.org/2000/svg"><path clip-rule="evenodd" d="m15.3662 14.1581c.6027-.3442.8124-1.1118.4682-1.7146l-6.7431-11.80967c-.11141-.195128-.2731-.356819-.46823-.468234-.60277-.34417-1.37042-.1345343-1.71459.468234l-6.743099 11.80967c-.1083783.1898-.165381.4046-.165381.6232 0 .6941.562684 1.2568 1.25679 1.2568h13.48621c.2186 0 .4334-.0571.6232-.1654zm-7.73011-13.10896c.11472-.200927.3706-.270805.57153-.156082.06504.037138.11894.091035.15608.156082l6.7431 11.80966c.1147.2009.0448.4568-.1561.5715-.0632.0361-.1348.0551-.2077.0551h-13.48621c-.23137 0-.418931-.1875-.418931-.4189 0-.0728.019001-.1444.055127-.2077zm-.10166 9.18566-.49117-5.97023 1.91379.01678-.49084 5.95345zm1.22847.641h-1.52491v1.5869h1.52491z" fill="#6b6d85" fill-rule="evenodd"/></svg>