<svg fill="none" viewBox="0 0 417 112" xmlns="http://www.w3.org/2000/svg" xmlns:xlink="http://www.w3.org/1999/xlink"><filter id="a" color-interpolation-filters="sRGB" filterUnits="userSpaceOnUse" height="32" width="32" x="385" y="21"><feFlood flood-opacity="0" result="BackgroundImageFix"/><feColorMatrix in="SourceAlpha" result="hardAlpha" values="0 0 0 0 0 0 0 0 0 0 0 0 0 0 0 0 0 0 127 0"/><feOffset dy=".5"/><feGaussianBlur stdDeviation="1"/><feColorMatrix values="0 0 0 0 0.376471 0 0 0 0 0.380392 0 0 0 0 0.439216 0 0 0 0.16 0"/><feBlend in2="BackgroundImageFix" result="effect1_dropShadow_2131_127310"/><feColorMatrix in="SourceAlpha" result="hardAlpha" values="0 0 0 0 0 0 0 0 0 0 0 0 0 0 0 0 0 0 127 0"/><feOffset/><feGaussianBlur stdDeviation=".5"/><feColorMatrix values="0 0 0 0 0.156863 0 0 0 0 0.160784 0 0 0 0 0.239216 0 0 0 0.08 0"/><feBlend in2="effect1_dropShadow_2131_127310" result="effect2_dropShadow_2131_127310"/><feBlend in="SourceGraphic" in2="effect2_dropShadow_2131_127310" result="shape"/></filter><filter id="b" color-interpolation-filters="sRGB" filterUnits="userSpaceOnUse" height="32" width="32" x="0" y="21.5"><feFlood flood-opacity="0" result="BackgroundImageFix"/><feColorMatrix in="SourceAlpha" result="hardAlpha" values="0 0 0 0 0 0 0 0 0 0 0 0 0 0 0 0 0 0 127 0"/><feOffset dy=".5"/><feGaussianBlur stdDeviation="1"/><feColorMatrix values="0 0 0 0 0.376471 0 0 0 0 0.380392 0 0 0 0 0.439216 0 0 0 0.16 0"/><feBlend in2="BackgroundImageFix" result="effect1_dropShadow_2131_127310"/><feColorMatrix in="SourceAlpha" result="hardAlpha" values="0 0 0 0 0 0 0 0 0 0 0 0 0 0 0 0 0 0 127 0"/><feOffset/><feGaussianBlur stdDeviation=".5"/><feColorMatrix values="0 0 0 0 0.156863 0 0 0 0 0.160784 0 0 0 0 0.239216 0 0 0 0.08 0"/><feBlend in2="effect1_dropShadow_2131_127310" result="effect2_dropShadow_2131_127310"/><feBlend in="SourceGraphic" in2="effect2_dropShadow_2131_127310" result="shape"/></filter><filter id="c" color-interpolation-filters="sRGB" filterUnits="userSpaceOnUse" height="56" width="106" x="66" y="14"><feFlood flood-opacity="0" result="BackgroundImageFix"/><feColorMatrix in="SourceAlpha" result="hardAlpha" values="0 0 0 0 0 0 0 0 0 0 0 0 0 0 0 0 0 0 127 0"/><feOffset dy="4"/><feGaussianBlur stdDeviation="4"/><feColorMatrix values="0 0 0 0 0.376471 0 0 0 0 0.380392 0 0 0 0 0.439216 0 0 0 0.16 0"/><feBlend in2="BackgroundImageFix" result="effect1_dropShadow_2131_127310"/><feColorMatrix in="SourceAlpha" result="hardAlpha" values="0 0 0 0 0 0 0 0 0 0 0 0 0 0 0 0 0 0 127 0"/><feOffset/><feGaussianBlur stdDeviation="1"/><feColorMatrix values="0 0 0 0 0.156863 0 0 0 0 0.160784 0 0 0 0 0.239216 0 0 0 0.04 0"/><feBlend in2="effect1_dropShadow_2131_127310" result="effect2_dropShadow_2131_127310"/><feBlend in="SourceGraphic" in2="effect2_dropShadow_2131_127310" result="shape"/></filter><filter id="d" color-interpolation-filters="sRGB" filterUnits="userSpaceOnUse" height="56" width="106" x="236" y="14"><feFlood flood-opacity="0" result="BackgroundImageFix"/><feColorMatrix in="SourceAlpha" result="hardAlpha" values="0 0 0 0 0 0 0 0 0 0 0 0 0 0 0 0 0 0 127 0"/><feOffset dy="4"/><feGaussianBlur stdDeviation="4"/><feColorMatrix values="0 0 0 0 0.376471 0 0 0 0 0.380392 0 0 0 0 0.439216 0 0 0 0.16 0"/><feBlend in2="BackgroundImageFix" result="effect1_dropShadow_2131_127310"/><feColorMatrix in="SourceAlpha" result="hardAlpha" values="0 0 0 0 0 0 0 0 0 0 0 0 0 0 0 0 0 0 127 0"/><feOffset/><feGaussianBlur stdDeviation="1"/><feColorMatrix values="0 0 0 0 0.156863 0 0 0 0 0.160784 0 0 0 0 0.239216 0 0 0 0.04 0"/><feBlend in2="effect1_dropShadow_2131_127310" result="effect2_dropShadow_2131_127310"/><feBlend in="SourceGraphic" in2="effect2_dropShadow_2131_127310" result="shape"/></filter><linearGradient id="e" gradientUnits="userSpaceOnUse" x1="109.77" x2="124.5" y1="23" y2="51"><stop offset="0" stop-color="#62f91f"/><stop offset="1" stop-color="#45bd35"/></linearGradient><path d="m384 36h-380v2h380z" fill="#0278d5"/><g filter="url(#a)"><path d="m401 50.5c7.732 0 14-6.268 14-14s-6.268-14-14-14-14 6.268-14 14 6.268 14 14 14z" fill="#f2f2f2"/><path d="m401 50c7.456 0 13.5-6.0442 13.5-13.5s-6.044-13.5-13.5-13.5-13.5 6.0442-13.5 13.5 6.044 13.5 13.5 13.5z" stroke="#b0b1c4"/></g><path d="m404 33h-6c-.552 0-1 .4477-1 1v6c0 .5523.448 1 1 1h6c.552 0 1-.4477 1-1v-6c0-.5523-.448-1-1-1z" fill="#8b8b8b"/><path d="m387 40.5c1.933 0 3.5-1.567 3.5-3.5s-1.567-3.5-3.5-3.5-3.5 1.567-3.5 3.5 1.567 3.5 3.5 3.5z" fill="#fff" stroke="#0278d5"/><g filter="url(#b)"><path d="m16 51c7.732 0 14-6.268 14-14s-6.268-14-14-14-14 6.268-14 14 6.268 14 14 14z" fill="#f2f2f2"/><path d="m16 50.5c7.4558 0 13.5-6.0442 13.5-13.5s-6.0442-13.5-13.5-13.5-13.5 6.0442-13.5 13.5 6.0442 13.5 13.5 13.5z" stroke="#b0b1c4"/></g><path d="m15.268 31.225c-.3329-.2528-.7811-.2957-1.1564-.1108-.3752.185-.6125.5659-.6121.9826v8.8081c0 .4166.2374.7971.6125.9819.3752.1847.8232.1417 1.156-.111l5.7988-4.4047c.2727-.2073.4327-.5292.4327-.8707s-.16-.6634-.4327-.8707z" fill="#84d121"/><path d="m30 40.5c1.933 0 3.5-1.567 3.5-3.5s-1.567-3.5-3.5-3.5-3.5 1.567-3.5 3.5 1.567 3.5 3.5 3.5z" fill="#fff" stroke="#0278d5"/><g filter="url(#c)"><path d="m159 18h-80c-2.7614 0-5 2.2386-5 5v30c0 2.7614 2.2386 5 5 5h80c2.761 0 5-2.2386 5-5v-30c0-2.7614-2.239-5-5-5z" fill="#fff"/></g><path d="m76.553 69.405v-1.1335h6.7543v1.1335h-2.723v7.5938h-1.3125v-7.5938zm10.216 7.7259c-.6449 0-1.2003-.1378-1.6662-.4133-.4631-.2785-.821-.6691-1.0739-1.1719-.25-.5057-.375-1.098-.375-1.777 0-.6705.125-1.2614.375-1.7727.2529-.5114.6051-.9106 1.0568-1.1975.4546-.2869.9858-.4304 1.5938-.4304.3693 0 .7273.0611 1.0738.1833.3466.1221.6577.3139.9333.5752.2756.2614.4929.6009.652 1.0185.1591.4148.2386.919.2386 1.5128v.4517h-5.2031v-.9546h3.9545c0-.3352-.0682-.6321-.2045-.8906-.1364-.2613-.3281-.4673-.5753-.6179-.2443-.1505-.5312-.2258-.8608-.2258-.3579 0-.6704.088-.9375.2642-.2642.1733-.4687.4005-.6136.6818-.1421.2784-.2131.581-.2131.9077v.7457c0 .4375.0767.8097.2301 1.1165.1563.3068.3736.5412.652.7031.2784.1591.6037.2386.9759.2386.2414 0 .4616-.034.6605-.1022.1988-.0711.3707-.1762.5156-.3154s.2557-.311.3324-.5156l1.2059.2173c-.0965.3551-.2698.6662-.5198.9333-.2472.2642-.5583.4701-.9333.6179-.3721.1449-.7969.2173-1.2741.2173zm9.3267-5.0795-1.1548.2045c-.0483-.1477-.125-.2884-.2301-.4219-.1023-.1335-.2415-.2429-.4176-.3281s-.3963-.1278-.6605-.1278c-.3608 0-.662.0809-.9034.2429-.2415.159-.3622.365-.3622.6179 0 .2187.0809.3948.2429.5284.1619.1335.4232.2429.784.3281l1.0398.2386c.6023.1392 1.0512.3537 1.3466.6435.2955.2898.4432.6662.4432 1.1293 0 .392-.1136.7414-.3409 1.0482-.2245.304-.5384.5427-.9418.716-.4005.1733-.865.2599-1.3934.2599-.733 0-1.331-.1562-1.7941-.4687-.463-.3154-.7471-.7628-.8523-1.3424l1.2316-.1875c.0767.321.2344.5639.473.7287.2386.1619.5497.2429.9332.2429.4176 0 .7515-.0866 1.0015-.2599.25-.1762.375-.3907.375-.6435 0-.2045-.0768-.3764-.2302-.5156-.1505-.1392-.3821-.2443-.6946-.3154l-1.1079-.2429c-.6108-.1392-1.0625-.3608-1.3551-.6647-.2898-.304-.4347-.689-.4347-1.1549 0-.3863.108-.7244.3239-1.0142.2159-.2897.5142-.5156.8949-.6775.3806-.1648.8167-.2472 1.3082-.2472.7074 0 1.2642.1534 1.6705.4602.4062.304.6747.7117.8053 1.2231zm4.7852-1.5981v1.0228h-3.5763v-1.0228zm-2.6175-1.5681h1.2742v6.1917c0 .2472.0369.4333.1108.5583.0738.1221.169.2059.2855.2514.12.0426.249.0639.388.0639.103 0 .192-.0071.269-.0213.076-.0142.136-.0256.179-.0341l.23 1.0526c-.074.0284-.179.0568-.316.0852-.136.0312-.306.0483-.511.0511-.3356.0057-.6481-.054-.9379-.179s-.5241-.3181-.7031-.5795-.2685-.5895-.2685-.9844zm7.7045 8.1136v-8.7273h3.196c.619 0 1.132.1023 1.538.3068.407.2017.711.4759.912.8225.202.3437.303.7315.303 1.1633 0 .3637-.067.6705-.2.9205-.134.2472-.313.446-.537.5966-.222.1477-.466.2557-.733.3238v.0853c.289.0142.572.1079.848.2812.278.1705.508.4134.69.7287.182.3154.273.6989.273 1.1506 0 .446-.105.8466-.316 1.2017-.207.3523-.528.6321-.963.8395-.434.2045-.99.3068-1.666.3068zm1.317-1.1293h1.9c.631 0 1.083-.1221 1.355-.3664.273-.2444.41-.5498.41-.9162 0-.2756-.07-.5284-.209-.7586-.139-.2301-.338-.4133-.597-.5497-.256-.1363-.56-.2045-.912-.2045h-1.947zm0-3.8224h1.764c.295 0 .561-.0568.797-.1705.238-.1136.427-.2727.567-.4772.142-.2074.213-.4517.213-.733 0-.3608-.127-.6633-.38-.9077-.252-.2443-.64-.3664-1.163-.3664h-1.798zm10.779 2.2372v-3.831h1.278v6.5455h-1.253v-1.1335h-.068c-.151.3494-.392.6406-.724.8736-.33.2301-.74.3451-1.232.3451-.42 0-.793-.0923-1.116-.277-.321-.1875-.574-.4644-.759-.8309-.182-.3665-.273-.8196-.273-1.3594v-4.1634h1.274v4.01c0 .446.124.8011.371 1.0653s.568.3963.963.3963c.239 0 .476-.0596.712-.1789.239-.1194.436-.2998.592-.5412.159-.2415.237-.5483.235-.9205zm3.19 2.7145v-6.5455h1.274v6.5455zm.643-7.5554c-.221 0-.411-.0739-.571-.2216-.156-.1506-.234-.3295-.234-.5369 0-.2102.078-.3892.234-.537.16-.1505.35-.2258.571-.2258.222 0 .411.0753.567.2258.159.1478.239.3268.239.537 0 .2074-.08.3863-.239.5369-.156.1477-.345.2216-.567.2216zm3.819-1.1719v8.7273h-1.274v-8.7273zm4.365 8.8551c-.529 0-1-.1349-1.415-.4048-.412-.2727-.736-.6605-.972-1.1633-.232-.5057-.349-1.1123-.349-1.8196 0-.7074.118-1.3125.354-1.8154.238-.5028.565-.8878.98-1.1548.415-.2671.885-.4006 1.41-.4006.407 0 .733.0682.98.2046.25.1335.444.2897.58.4687.139.179.247.3367.324.473h.077v-3.2429h1.274v8.7273h-1.245v-1.0185h-.106c-.077.1392-.188.2983-.332.4773-.143.179-.339.3352-.589.4688-.25.1335-.573.2002-.971.2002zm.281-1.0866c.367 0 .676-.0966.929-.2898.256-.196.449-.4673.58-.8139.133-.3466.2-.75.2-1.2102 0-.4546-.065-.8523-.196-1.1932s-.323-.6065-.575-.7969c-.253-.1903-.566-.2855-.938-.2855-.383 0-.703.0994-.959.2983-.255.1989-.449.4702-.579.8139-.128.3438-.192.7316-.192 1.1634 0 .4375.065.8309.196 1.1804.131.3494.324.6264.58.8309.258.2017.576.3026.954.3026zm10.261 1.1037c-.415 0-.79-.0767-1.125-.2301-.335-.1563-.601-.3821-.797-.6776-.193-.2954-.29-.6577-.29-1.0866 0-.3694.071-.6733.213-.912.142-.2386.334-.4275.576-.5667.241-.1392.511-.2443.809-.3154.299-.071.603-.125.912-.1619.392-.0455.71-.0824.955-.1108.244-.0312.422-.081.532-.1491.111-.0682.167-.179.167-.3324v-.0299c0-.3721-.105-.6605-.316-.865-.207-.2046-.517-.3068-.929-.3068-.429 0-.767.0951-1.014.2855-.244.1875-.413.3963-.507.6264l-1.197-.2727c.142-.3978.349-.7188.622-.9631.275-.2472.592-.4261.95-.5369.358-.1137.734-.1705 1.129-.1705.262 0 .539.0313.831.0938.296.0596.571.1704.827.3324.258.1619.47.3934.635.6946.165.2983.247.686.247 1.1633v4.3466h-1.244v-.8949h-.051c-.083.1648-.206.3267-.371.4858s-.377.2912-.635.3963c-.259.1051-.568.1577-.929.1577zm.277-1.0227c.352 0 .653-.0696.903-.2088.253-.1393.445-.3211.576-.5455.133-.2273.2-.4702.2-.7287v-.8437c-.046.0454-.134.088-.264.1278-.128.0369-.274.0696-.439.098-.165.0256-.326.0497-.482.0725-.156.0198-.287.0369-.392.0511-.247.0312-.473.0838-.677.1577-.202.0738-.364.1804-.486.3196-.119.1363-.179.3181-.179.5454 0 .3154.116.554.349.7159.233.1591.53.2387.891.2387zm6.124-3.0086v3.8864h-1.274v-6.5455h1.223v1.0654h.081c.151-.3466.386-.625.707-.8352.324-.2103.732-.3154 1.223-.3154.447 0 .837.0938 1.172.2813.336.1846.596.4602.78.8267.185.3664.277.8196.277 1.3593v4.1634h-1.274v-4.0099c0-.4745-.124-.8452-.371-1.1123-.247-.2698-.586-.4048-1.018-.4048-.296 0-.558.0639-.789.1918-.227.1278-.407.3153-.541.5625-.13.2443-.196.5397-.196.8863zm8.548 4.0142c-.528 0-1-.1349-1.415-.4048-.411-.2727-.735-.6605-.971-1.1633-.233-.5057-.35-1.1123-.35-1.8196 0-.7074.118-1.3125.354-1.8154.239-.5028.566-.8878.98-1.1548.415-.2671.885-.4006 1.411-.4006.406 0 .733.0682.98.2046.25.1335.443.2897.579.4687.14.179.248.3367.324.473h.077v-3.2429h1.274v8.7273h-1.244v-1.0185h-.107c-.076.1392-.187.2983-.332.4773-.142.179-.338.3352-.588.4688-.25.1335-.574.2002-.972.2002zm.282-1.0866c.366 0 .676-.0966.928-.2898.256-.196.449-.4673.58-.8139.134-.3466.2-.75.2-1.2102 0-.4546-.065-.8523-.196-1.1932-.13-.3409-.322-.6065-.575-.7969-.253-.1903-.565-.2855-.937-.2855-.384 0-.704.0994-.959.2983-.256.1989-.449.4702-.58.8139-.128.3438-.192.7316-.192 1.1634 0 .4375.066.8309.196 1.1804.131.3494.324.6264.58.8309.258.2017.577.3026.955.3026zm-58.471 16.959v-8.7273h3.1113c.679 0 1.242.1236 1.688.3708.446.2471.779.5852 1.001 1.0142.222.4261.332.9062.332 1.4403 0 .5369-.112 1.0199-.336 1.4489-.222.4261-.557.7642-1.006 1.0142-.446.2471-1.007.3707-1.683.3707h-2.1399v-1.1165h2.0199c.429 0 .777-.0738 1.044-.2215.268-.1506.464-.3552.589-.6137s.187-.5525.187-.8821c0-.3295-.062-.6221-.187-.8778s-.323-.456-.593-.6009c-.267-.1449-.619-.2173-1.057-.2173h-1.6535v7.598zm11.92-2.7145v-3.831h1.278v6.5455h-1.252v-1.1335h-.069c-.15.3494-.392.6406-.724.8736-.33.2301-.74.3451-1.232.3451-.42 0-.792-.0923-1.116-.277-.321-.1875-.574-.4644-.759-.8309-.181-.3665-.272-.8196-.272-1.3594v-4.1634h1.274v4.01c0 .446.123.8011.371 1.0653.247.2642.568.3963.963.3963.238 0 .476-.0596.711-.1789.239-.1194.436-.2998.593-.5412.159-.2415.237-.5483.234-.9205zm3.293 2.7145v-8.7273h1.274v3.2429h.077c.073-.1363.18-.294.319-.473s.333-.3352.58-.4687c.247-.1364.574-.2046.98-.2046.528 0 1 .1335 1.415.4006.414.267.74.652.975 1.1548.239.5029.358 1.108.358 1.8154 0 .7073-.117 1.3139-.353 1.8196-.236.5028-.56.8906-.972 1.1633-.412.2699-.882.4048-1.41.4048-.398 0-.723-.0667-.976-.2002-.25-.1336-.446-.2898-.588-.4688s-.252-.3381-.328-.4773h-.107v1.0185zm1.248-3.2727c0 .4602.067.8636.201 1.2102.133.3466.326.6179.579.8139.253.1932.563.2898.929.2898.381 0 .699-.1009.955-.3026.255-.2045.449-.4815.579-.8309.134-.3495.201-.7429.201-1.1804 0-.4318-.066-.8196-.197-1.1634-.127-.3437-.321-.615-.579-.8139-.256-.1989-.575-.2983-.959-.2983-.369 0-.682.0952-.937.2855-.253.1904-.445.456-.576.7969-.13.3409-.196.7386-.196 1.1932zm7.635-5.4546v8.7273h-1.274v-8.7273zm1.914 8.7273v-6.5455h1.275v6.5455zm.644-7.5554c-.222 0-.412-.0739-.571-.2216-.156-.1506-.234-.3295-.234-.5369 0-.2102.078-.3892.234-.537.159-.1505.349-.2258.571-.2258s.41.0753.567.2258c.159.1478.238.3268.238.537 0 .2074-.079.3863-.238.5369-.157.1477-.345.2216-.567.2216zm7.45 2.608-1.155.2045c-.049-.1477-.125-.2884-.23-.4219-.103-.1335-.242-.2429-.418-.3281s-.396-.1278-.66-.1278c-.361 0-.662.0809-.904.2429-.241.159-.362.365-.362.6179 0 .2187.081.3948.243.5284.162.1335.423.2429.784.3281l1.04.2386c.602.1392 1.051.3537 1.346.6435.296.2898.443.6662.443 1.1293 0 .392-.113.7414-.34 1.0482-.225.304-.539.5427-.942.716-.401.1733-.865.2599-1.394.2599-.733 0-1.331-.1562-1.794-.4687-.463-.3154-.747-.7628-.852-1.3424l1.232-.1875c.076.321.234.5639.473.7287.238.1619.549.2429.933.2429.417 0 .751-.0866 1.001-.2599.25-.1762.375-.3907.375-.6435 0-.2045-.077-.3764-.23-.5156-.15-.1392-.382-.2443-.695-.3154l-1.107-.2429c-.611-.1392-1.063-.3608-1.356-.6647-.289-.304-.434-.689-.434-1.1549 0-.3863.108-.7244.324-1.0142.216-.2897.514-.5156.894-.6775.381-.1648.817-.2472 1.309-.2472.707 0 1.264.1534 1.67.4602.406.304.675.7117.806 1.2231zm3.003 1.061v3.8864h-1.275v-8.7273h1.257v3.2472h.081c.154-.3523.388-.6321.704-.8395.315-.2074.727-.3111 1.235-.3111.449 0 .841.0923 1.176.277.339.1847.6.4602.785.8267.187.3636.281.8182.281 1.3636v4.1634h-1.274v-4.0099c0-.4802-.124-.8523-.371-1.1165-.247-.2671-.591-.4006-1.031-.4006-.301 0-.571.0639-.81.1918-.236.1278-.422.3153-.558.5625-.134.2443-.2.5397-.2.8863z" fill="#22222a"/><path d="m74 40.5c1.933 0 3.5-1.567 3.5-3.5s-1.567-3.5-3.5-3.5-3.5 1.567-3.5 3.5 1.567 3.5 3.5 3.5z" fill="#fff" stroke="#0278d5"/><path d="m164 40.5c1.933 0 3.5-1.567 3.5-3.5s-1.567-3.5-3.5-3.5-3.5 1.567-3.5 3.5 1.567 3.5 3.5 3.5z" fill="#fff" stroke="#0278d5"/><path clip-rule="evenodd" d="m129.43 28.061c1.604.9082 2.589 2.615 2.573 4.4582l-.077 8.9346c-.016 1.7969-.981 3.4516-2.537 4.3499l-8.002 4.6187c-1.556.8983-3.472.9062-5.035.0208l-7.776-4.4024c-1.604-.9082-2.589-2.6149-2.573-4.4581l.077-8.9347c.016-1.7969.981-3.4515 2.537-4.3498l8.002-4.6187c1.556-.8984 3.472-.9063 5.035-.0209zm-2.829 6.9372c-.421 1.5856-2.03 2.5375-3.602 2.1409l-7.489-2.0259c-1.233-.3339-2.517-.1628-3.62.48s-1.892 1.6795-2.222 2.9246c-.33 1.2454-.161 2.5454.479 3.6646s1.671 1.9171 2.905 2.2508c1.233.334 2.517.1629 3.62-.4798 1.103-.6429 1.891-1.6796 2.222-2.9247l.261-1.0464c.033-.1321-.046-.2662-.177-.3018l-1.259-.3405c-.135-.0366-.274.045-.307.1809l-.256 1.0238c-.426 1.6026-2.064 2.5569-3.651 2.1278-1.582-.4285-2.523-2.0732-2.1-3.6705.421-1.5857 2.03-2.5383 3.602-2.1417l7.489 2.0266c1.233.3339 2.517.1629 3.62-.48 1.103-.6427 1.892-1.6795 2.222-2.9246.33-1.2453.161-2.5454-.479-3.6645-.64-1.1192-1.671-1.9171-2.905-2.2509-1.233-.3339-2.517-.1629-3.62.4799-1.103.6429-1.891 1.6796-2.222 2.9247l-.247.8272c-.04.1347.039.2761.175.3128l1.258.3405c.13.0354.266-.0398.304-.1697l.248-.8269c.426-1.6026 2.064-2.5568 3.651-2.1277 1.582.4284 2.523 2.0731 2.1 3.6705z" fill="url(#e)" fill-rule="evenodd"/><g filter="url(#d)"><path d="m329 18h-80c-2.761 0-5 2.2386-5 5v30c0 2.7614 2.239 5 5 5h80c2.761 0 5-2.2386 5-5v-30c0-2.7614-2.239-5-5-5z" fill="#0278d5"/></g><path d="m239.44 70.564c-.045-.4034-.233-.7159-.562-.9375-.33-.2244-.745-.3366-1.245-.3366-.358 0-.667.0568-.929.1704-.261.1108-.464.2643-.609.4603-.142.1932-.213.4133-.213.6605 0 .2074.048.3863.145.5369.099.1506.229.277.388.3793.162.0994.335.1832.52.2514.184.0653.362.1193.532.1619l.852.2216c.279.0682.564.1605.857.277s.564.2699.814.4602c.25.1904.452.4262.605.7074.156.2813.234.6179.234 1.01 0 .4943-.127.9332-.383 1.3167-.253.3836-.621.6861-1.104.9077-.48.2216-1.061.3324-1.743.3324-.653 0-1.218-.1037-1.696-.3111-.477-.2074-.851-.5014-1.12-.8821-.27-.3835-.42-.8381-.448-1.3636h1.321c.026.3153.128.5781.307.7883.182.2074.413.3622.695.4645.284.0994.595.1492.933.1492.372 0 .703-.0583.993-.1748.292-.1193.522-.2841.69-.4943.168-.213.251-.4616.251-.7457 0-.2585-.073-.4702-.221-.635-.145-.1647-.343-.3011-.593-.4091-.247-.1079-.526-.2031-.839-.2855l-1.031-.2812c-.699-.1904-1.253-.4702-1.662-.8395-.406-.3693-.61-.858-.61-1.4659 0-.5029.137-.9418.41-1.3168.272-.375.642-.6662 1.107-.8735.466-.2103.992-.3154 1.577-.3154.591 0 1.112.1037 1.564.3111.455.2074.813.4929 1.074.8565.261.3608.398.7756.409 1.2443zm7.207 3.7202v-3.831h1.278v6.5455h-1.252v-1.1335h-.069c-.15.3494-.392.6406-.724.8736-.33.2301-.74.3451-1.232.3451-.42 0-.792-.0923-1.116-.277-.321-.1875-.574-.4644-.759-.8309-.181-.3665-.272-.8196-.272-1.3594v-4.1634h1.274v4.01c0 .446.123.8011.371 1.0653.247.2642.568.3963.963.3963.238 0 .475-.0596.711-.1789.239-.1194.436-.2998.593-.5412.159-.2415.237-.5483.234-.9205zm3.293 2.7145v-8.7273h1.274v3.2429h.076c.074-.1363.181-.294.32-.473s.332-.3352.58-.4687c.247-.1364.573-.2046.98-.2046.528 0 1 .1335 1.415.4006.414.267.74.652.975 1.1548.239.5029.358 1.108.358 1.8154 0 .7073-.118 1.3139-.353 1.8196-.236.5028-.56.8906-.972 1.1633-.412.2699-.882.4048-1.41.4048-.398 0-.723-.0667-.976-.2002-.25-.1336-.446-.2898-.588-.4688s-.252-.3381-.329-.4773h-.106v1.0185zm1.248-3.2727c0 .4602.067.8636.2 1.2102.134.3466.327.6179.58.8139.253.1932.563.2898.929.2898.381 0 .699-.1009.955-.3026.255-.2045.448-.4815.579-.8309.134-.3495.2-.7429.2-1.1804 0-.4318-.065-.8196-.196-1.1634-.127-.3437-.321-.615-.579-.8139-.256-.1989-.575-.2983-.959-.2983-.369 0-.682.0952-.937.2855-.253.1904-.445.456-.576.7969-.13.3409-.196.7386-.196 1.1932zm6.361 3.2727v-6.5455h1.223v1.0654h.081c.136-.3608.359-.6421.669-.8438.31-.2045.68-.3068 1.112-.3068.438 0 .804.1023 1.1.3068.298.2046.518.4858.66.8438h.068c.157-.3494.405-.6279.746-.8352.341-.2103.747-.3154 1.219-.3154.594 0 1.078.1861 1.453.5583.378.3721.567.9332.567 1.6832v4.3892h-1.274v-4.2699c0-.4432-.121-.7642-.363-.9631-.241-.1988-.529-.2982-.865-.2982-.414 0-.737.1278-.967.3835-.23.2528-.345.5781-.345.9758v4.1719h-1.27v-4.3509c0-.3551-.111-.6406-.332-.8565-.222-.2159-.51-.3238-.865-.3238-.242 0-.465.0639-.669.1917-.202.125-.366.2997-.491.5242-.122.2244-.183.4843-.183.7798v4.0355zm10.806 0v-6.5455h1.274v6.5455zm.643-7.5554c-.222 0-.412-.0739-.571-.2216-.156-.1506-.234-.3295-.234-.5369 0-.2102.078-.3892.234-.537.159-.1505.349-.2258.571-.2258s.411.0753.567.2258c.159.1478.238.3268.238.537 0 .2074-.079.3863-.238.5369-.156.1477-.345.2216-.567.2216zm5.6 1.0099v1.0228h-3.575v-1.0228zm-2.616-1.5681h1.274v6.1917c0 .2472.037.4333.111.5583.074.1221.169.2059.285.2514.12.0426.249.0639.388.0639.102 0 .192-.0071.268-.0213.077-.0142.137-.0256.179-.0341l.231 1.0526c-.074.0284-.179.0568-.316.0852-.136.0312-.307.0483-.511.0511-.335.0057-.648-.054-.938-.179-.289-.125-.524-.3181-.703-.5795s-.268-.5895-.268-.9844zm11.096-.6137h1.312v6.1875c0 .5597-.111 1.0384-.332 1.4361-.219.3977-.527.7017-.925.9119-.398.2074-.863.3111-1.398.3111-.491 0-.933-.0895-1.325-.2684-.389-.179-.697-.439-.925-.7799-.224-.3437-.336-.7613-.336-1.2528h1.308c0 .2415.055.4503.166.6264.114.1761.269.3139.465.4134.199.0965.426.1448.682.1448.278 0 .514-.0582.707-.1747.196-.1193.345-.294.447-.5241.103-.2301.154-.5114.154-.8438zm4.746 0v8.7273h-1.317v-8.7273zm2.117 8.7273v-8.7273h3.111c.676 0 1.237.1165 1.683.3495.449.2329.784.5554 1.006.9673.221.4091.332.8821.332 1.419 0 .5341-.112 1.0043-.336 1.4105-.222.4034-.557.7174-1.006.9418-.446.2244-1.007.3366-1.683.3366h-2.357v-1.1335h2.237c.427 0 .773-.0611 1.04-.1832.27-.1222.468-.2997.592-.5327.126-.2329.188-.5128.188-.8395 0-.3295-.064-.615-.192-.8565-.125-.2415-.322-.4261-.592-.554-.267-.1307-.618-.196-1.053-.196h-1.653v7.598zm4.308-3.9375 2.157 3.9375h-1.5l-2.114-3.9375zm4.364 3.9375h-1.398l3.141-8.7273h1.521l3.141 8.7273h-1.398l-2.467-7.142h-.069zm.234-3.4176h4.534v1.1079h-4.534zm13.96-3.1279v1.0228h-3.575v-1.0228zm-2.617-1.5681h1.274v6.1917c0 .2472.037.4333.111.5583.074.1221.169.2059.286.2514.119.0426.248.0639.388.0639.102 0 .191-.0071.268-.0213s.136-.0256.179-.0341l.23 1.0526c-.074.0284-.179.0568-.315.0852-.137.0312-.307.0483-.512.0511-.335.0057-.647-.054-.937-.179s-.524-.3181-.703-.5795-.269-.5895-.269-.9844zm4.226 8.1136v-6.5455h1.274v6.5455zm.644-7.5554c-.222 0-.412-.0739-.571-.2216-.157-.1506-.235-.3295-.235-.5369 0-.2102.078-.3892.235-.537.159-.1505.349-.2258.571-.2258.221 0 .41.0753.566.2258.16.1478.239.3268.239.537 0 .2074-.079.3863-.239.5369-.156.1477-.345.2216-.566.2216zm5.302 7.6875c-.634 0-1.179-.1435-1.637-.4304-.454-.2898-.804-.6889-1.048-1.1974-.244-.5086-.367-1.0909-.367-1.7472 0-.6648.126-1.2514.376-1.7599.25-.5114.602-.9106 1.056-1.1975.455-.2869.99-.4304 1.607-.4304.497 0 .94.0923 1.329.277.39.1818.704.4375.942.7671.242.3295.385.7144.431 1.1548h-1.241c-.068-.3068-.224-.571-.468-.7926-.242-.2216-.566-.3324-.972-.3324-.355 0-.666.0937-.933.2812-.264.1847-.47.4489-.618.7926-.148.341-.222.7444-.222 1.2103 0 .4772.073.8892.218 1.2358s.349.615.613.8054c.267.1903.581.2855.942.2855.242 0 .46-.0441.656-.1321.199-.0909.365-.2202.499-.3878.136-.1676.232-.3693.285-.6051h1.241c-.046.4233-.184.8011-.414 1.1335s-.538.5937-.925.7841c-.383.1903-.833.2855-1.35.2855zm5.423-2.3523-.009-1.5554h.222l2.608-2.7699h1.526l-2.975 3.1535h-.2zm-1.172 2.2202v-8.7273h1.274v8.7273zm4.134 0-2.344-3.1108.878-.8906 3.03 4.0014zm5.297.1321c-.645 0-1.2-.1378-1.666-.4133-.463-.2785-.821-.6691-1.074-1.1719-.25-.5057-.375-1.098-.375-1.777 0-.6705.125-1.2614.375-1.7727.253-.5114.605-.9106 1.057-1.1975.455-.2869.986-.4304 1.594-.4304.369 0 .727.0611 1.074.1833.346.1221.657.3139.933.5752.275.2614.493.6009.652 1.0185.159.4148.239.919.239 1.5128v.4517h-5.204v-.9546h3.955c0-.3352-.068-.6321-.205-.8906-.136-.2613-.328-.4673-.575-.6179-.244-.1505-.531-.2258-.861-.2258-.358 0-.67.088-.937.2642-.264.1733-.469.4005-.614.6818-.142.2784-.213.581-.213.9077v.7457c0 .4375.077.8097.23 1.1165.156.3068.374.5412.652.7031.279.1591.604.2386.976.2386.242 0 .462-.034.661-.1022.198-.0711.37-.1762.515-.3154s.256-.311.333-.5156l1.206.2173c-.097.3551-.27.6662-.52.9333-.247.2642-.559.4701-.934.6179-.372.1449-.796.2173-1.274.2173zm7.478-6.6776v1.0228h-3.576v-1.0228zm-2.617-1.5681h1.274v6.1917c0 .2472.037.4333.111.5583.074.1221.169.2059.286.2514.119.0426.248.0639.387.0639.103 0 .192-.0071.269-.0213s.136-.0256.179-.0341l.23 1.0526c-.074.0284-.179.0568-.315.0852-.137.0312-.307.0483-.512.0511-.335.0057-.647-.054-.937-.179s-.524-.3181-.703-.5795-.269-.5895-.269-.9844zm-89.744 17.568v1.0228h-3.699v-1.0228zm-2.685 6.5455v-7.304c0-.4091.09-.7486.269-1.0184.179-.2728.416-.4759.711-.6094.296-.1364.617-.2046.964-.2046.255 0 .474.0213.656.064.182.0397.317.0767.405.1108l-.299 1.0312c-.059-.017-.136-.0369-.23-.0597-.094-.0255-.207-.0383-.341-.0383-.309 0-.531.0767-.664.2301-.131.1534-.197.375-.197.6648v7.1335zm6.699.1321c-.614 0-1.149-.1406-1.607-.4219-.457-.2812-.812-.6747-1.065-1.1804s-.379-1.0966-.379-1.7727c0-.679.126-1.2727.379-1.7812.253-.5086.608-.9035 1.065-1.1847.458-.2813.993-.4219 1.607-.4219s1.149.1406 1.606.4219c.458.2812.813.6761 1.066 1.1847.253.5085.379 1.1022.379 1.7812 0 .6761-.126 1.267-.379 1.7727s-.608.8992-1.066 1.1804c-.457.2813-.992.4219-1.606.4219zm.004-1.0696c.398 0 .727-.1051.989-.3153.261-.2103.454-.4901.579-.8395.128-.3495.192-.7344.192-1.1549 0-.4176-.064-.8011-.192-1.1505-.125-.3523-.318-.635-.579-.848-.262-.2131-.591-.3196-.989-.3196-.4 0-.733.1065-.997.3196-.261.213-.456.4957-.584.848-.125.3494-.187.7329-.187 1.1505 0 .4205.062.8054.187 1.1549.128.3494.323.6292.584.8395.264.2102.597.3153.997.3153zm4.669.9375v-6.5455h1.232v1.0398h.068c.119-.3523.33-.6292.631-.8309.304-.2046.647-.3069 1.031-.3069.079 0 .173.0029.281.0086.111.0056.198.0127.26.0213v1.2187c-.051-.0142-.142-.0298-.273-.0469-.13-.0198-.261-.0298-.392-.0298-.301 0-.569.0639-.805.1918-.233.125-.418.2997-.554.5241-.136.2216-.205.4744-.205.7585v3.9972zm11.297-6.5455v1.0228h-3.699v-1.0228zm-2.685 6.5455v-7.304c0-.4091.089-.7486.268-1.0184.179-.2728.417-.4759.712-.6094.295-.1364.617-.2046.963-.2046.256 0 .475.0213.656.064.182.0397.317.0767.405.1108l-.298 1.0312c-.06-.017-.136-.0369-.23-.0597-.094-.0255-.208-.0383-.341-.0383-.31 0-.531.0767-.665.2301-.131.1534-.196.375-.196.6648v7.1335zm5.905.1449c-.415 0-.79-.0767-1.125-.2301-.335-.1563-.601-.3821-.797-.6776-.193-.2954-.29-.6577-.29-1.0866 0-.3694.071-.6733.213-.912.142-.2386.334-.4275.576-.5667.241-.1392.511-.2443.809-.3154.298-.071.602-.125.912-.1619.392-.0455.71-.0824.955-.1108.244-.0312.422-.081.532-.1491.111-.0682.167-.179.167-.3324v-.0299c0-.3721-.106-.6605-.316-.865-.207-.2046-.517-.3068-.929-.3068-.429 0-.767.0951-1.014.2855-.244.1875-.413.3963-.507.6264l-1.198-.2727c.143-.3978.35-.7188.623-.9631.275-.2472.592-.4261.95-.5369.358-.1137.734-.1705 1.129-.1705.262 0 .539.0313.831.0938.296.0596.571.1704.827.3324.258.1619.47.3934.635.6946.165.2983.247.686.247 1.1633v4.3466h-1.244v-.8949h-.052c-.082.1648-.205.3267-.37.4858s-.377.2912-.635.3963c-.259.1051-.568.1577-.929.1577zm.277-1.0227c.352 0 .653-.0696.903-.2088.253-.1393.445-.3211.576-.5455.133-.2273.2-.4702.2-.7287v-.8437c-.046.0454-.134.088-.264.1278-.128.0369-.275.0696-.439.098-.165.0256-.326.0497-.482.0725-.156.0198-.287.0369-.392.0511-.247.0312-.473.0838-.677.1577-.202.0738-.364.1804-.486.3196-.12.1363-.179.3181-.179.5454 0 .3154.116.554.349.7159.233.1591.53.2387.891.2387zm4.85.8778v-6.5455h1.274v6.5455zm.644-7.5554c-.222 0-.412-.0739-.572-.2216-.156-.1506-.234-.3295-.234-.5369 0-.2102.078-.3892.234-.537.16-.1505.35-.2258.572-.2258.221 0 .41.0753.566.2258.159.1478.239.3268.239.537 0 .2074-.08.3863-.239.5369-.156.1477-.345.2216-.566.2216zm3.818-1.1719v8.7273h-1.274v-8.7273zm4.736 8.8594c-.645 0-1.201-.1378-1.667-.4133-.463-.2785-.821-.6691-1.073-1.1719-.25-.5057-.375-1.098-.375-1.777 0-.6705.125-1.2614.375-1.7727.252-.5114.605-.9106 1.056-1.1975.455-.2869.986-.4304 1.594-.4304.369 0 .727.0611 1.074.1833.347.1221.658.3139.933.5752.276.2614.493.6009.652 1.0185.159.4148.239.919.239 1.5128v.4517h-5.203v-.9546h3.954c0-.3352-.068-.6321-.204-.8906-.137-.2613-.328-.4673-.576-.6179-.244-.1505-.531-.2258-.86-.2258-.358 0-.671.088-.938.2642-.264.1733-.469.4005-.613.6818-.143.2784-.214.581-.214.9077v.7457c0 .4375.077.8097.231 1.1165.156.3068.373.5412.652.7031.278.1591.603.2386.975.2386.242 0 .462-.034.661-.1022.199-.0711.371-.1762.516-.3154.144-.1392.255-.311.332-.5156l1.206.2173c-.097.3551-.27.6662-.52.9333-.247.2642-.558.4701-.933.6179-.372.1449-.797.2173-1.274.2173zm6.872-.0043c-.529 0-1-.1349-1.415-.4048-.412-.2727-.736-.6605-.972-1.1633-.232-.5057-.349-1.1123-.349-1.8196 0-.7074.118-1.3125.354-1.8154.238-.5028.565-.8878.98-1.1548.415-.2671.885-.4006 1.41-.4006.407 0 .733.0682.98.2046.25.1335.444.2897.58.4687.139.179.247.3367.324.473h.077v-3.2429h1.274v8.7273h-1.245v-1.0185h-.106c-.077.1392-.188.2983-.332.4773-.143.179-.339.3352-.589.4688-.25.1335-.573.2002-.971.2002zm.281-1.0866c.367 0 .676-.0966.929-.2898.256-.196.449-.4673.58-.8139.133-.3466.2-.75.2-1.2102 0-.4546-.065-.8523-.196-1.1932s-.323-.6065-.575-.7969c-.253-.1903-.566-.2855-.938-.2855-.383 0-.703.0994-.959.2983-.255.1989-.449.4702-.579.8139-.128.3438-.192.7316-.192 1.1634 0 .4375.065.8309.196 1.1804.131.3494.324.6264.58.8309.258.2017.576.3026.954.3026zm11.411-5.5867v1.0228h-3.575v-1.0228zm-2.616-1.5681h1.274v6.1917c0 .2472.037.4333.111.5583.074.1221.169.2059.285.2514.12.0426.249.0639.388.0639.102 0 .192-.0071.269-.0213.076-.0142.136-.0256.179-.0341l.23 1.0526c-.074.0284-.179.0568-.316.0852-.136.0312-.306.0483-.511.0511-.335.0057-.648-.054-.937-.179-.29-.125-.525-.3181-.704-.5795s-.268-.5895-.268-.9844zm6.977 8.2457c-.645 0-1.201-.1378-1.667-.4133-.463-.2785-.821-.6691-1.073-1.1719-.25-.5057-.375-1.098-.375-1.777 0-.6705.125-1.2614.375-1.7727.252-.5114.605-.9106 1.056-1.1975.455-.2869.986-.4304 1.594-.4304.369 0 .727.0611 1.074.1833.347.1221.658.3139.933.5752.276.2614.493.6009.652 1.0185.159.4148.239.919.239 1.5128v.4517h-5.203v-.9546h3.954c0-.3352-.068-.6321-.204-.8906-.137-.2613-.328-.4673-.576-.6179-.244-.1505-.531-.2258-.86-.2258-.358 0-.671.088-.938.2642-.264.1733-.469.4005-.613.6818-.143.2784-.214.581-.214.9077v.7457c0 .4375.077.8097.231 1.1165.156.3068.373.5412.652.7031.278.1591.603.2386.975.2386.242 0 .462-.034.661-.1022.199-.0711.371-.1762.516-.3154.144-.1392.255-.311.332-.5156l1.206.2173c-.097.3551-.27.6662-.52.9333-.247.2642-.558.4701-.933.6179-.372.1449-.797.2173-1.274.2173zm9.326-5.0795-1.154.2045c-.049-.1477-.125-.2884-.231-.4219-.102-.1335-.241-.2429-.417-.3281s-.396-.1278-.661-.1278c-.36 0-.662.0809-.903.2429-.242.159-.362.365-.362.6179 0 .2187.081.3948.243.5284.162.1335.423.2429.784.3281l1.039.2386c.603.1392 1.052.3537 1.347.6435.296.2898.443.6662.443 1.1293 0 .392-.113.7414-.341 1.0482-.224.304-.538.5427-.941.716-.401.1733-.865.2599-1.394.2599-.733 0-1.331-.1562-1.794-.4687-.463-.3154-.747-.7628-.852-1.3424l1.231-.1875c.077.321.235.5639.473.7287.239.1619.55.2429.934.2429.417 0 .751-.0866 1.001-.2599.25-.1762.375-.3907.375-.6435 0-.2045-.077-.3764-.23-.5156-.151-.1392-.382-.2443-.695-.3154l-1.108-.2429c-.61-.1392-1.062-.3608-1.355-.6647-.29-.304-.434-.689-.434-1.1549 0-.3863.108-.7244.323-1.0142.216-.2897.515-.5156.895-.6775.381-.1648.817-.2472 1.309-.2472.707 0 1.264.1534 1.67.4602.406.304.675.7117.805 1.2231zm4.785-1.5981v1.0228h-3.576v-1.0228zm-2.617-1.5681h1.274v6.1917c0 .2472.037.4333.111.5583.074.1221.169.2059.286.2514.119.0426.248.0639.387.0639.103 0 .192-.0071.269-.0213.076-.0142.136-.0256.179-.0341l.23 1.0526c-.074.0284-.179.0568-.315.0852-.137.0312-.307.0483-.512.0511-.335.0057-.648-.054-.937-.179-.29-.125-.524-.3181-.703-.5795s-.269-.5895-.269-.9844zm9.025 3.1662-1.154.2045c-.049-.1477-.125-.2884-.231-.4219-.102-.1335-.241-.2429-.417-.3281s-.396-.1278-.661-.1278c-.36 0-.662.0809-.903.2429-.242.159-.362.365-.362.6179 0 .2187.081.3948.243.5284.162.1335.423.2429.784.3281l1.039.2386c.603.1392 1.052.3537 1.347.6435s.443.6662.443 1.1293c0 .392-.113.7414-.341 1.0482-.224.304-.538.5427-.941.716-.401.1733-.866.2599-1.394.2599-.733 0-1.331-.1562-1.794-.4687-.463-.3154-.747-.7628-.852-1.3424l1.231-.1875c.077.321.235.5639.473.7287.239.1619.55.2429.934.2429.417 0 .751-.0866 1.001-.2599.25-.1762.375-.3907.375-.6435 0-.2045-.077-.3764-.23-.5156-.151-.1392-.382-.2443-.695-.3154l-1.108-.2429c-.61-.1392-1.062-.3608-1.355-.6647-.29-.304-.434-.689-.434-1.1549 0-.3863.107-.7244.323-1.0142.216-.2897.515-.5156.895-.6775.381-.1648.817-.2472 1.309-.2472.707 0 1.264.1534 1.67.4602.406.304.675.7117.805 1.2231z" fill="#22222a"/><g fill="#fff"><path d="m244 40.5c1.933 0 3.5-1.567 3.5-3.5s-1.567-3.5-3.5-3.5-3.5 1.567-3.5 3.5 1.567 3.5 3.5 3.5z" stroke="#0278d5"/><path d="m334 40.5c1.933 0 3.5-1.567 3.5-3.5s-1.567-3.5-3.5-3.5-3.5 1.567-3.5 3.5 1.567 3.5 3.5 3.5z" stroke="#0278d5"/><path clip-rule="evenodd" d="m299.43 28.061c1.604.9082 2.589 2.615 2.573 4.4582l-.077 8.9346c-.016 1.7969-.981 3.4516-2.537 4.3499l-8.002 4.6187c-1.556.8983-3.472.9062-5.035.0208l-7.776-4.4024c-1.604-.9082-2.589-2.6149-2.573-4.4581l.077-8.9347c.016-1.7969.981-3.4515 2.537-4.3498l8.002-4.6187c1.556-.8984 3.472-.9063 5.035-.0209zm-2.829 6.9372c-.421 1.5856-2.03 2.5375-3.602 2.1409l-7.489-2.0259c-1.233-.3339-2.517-.1628-3.62.48s-1.892 1.6795-2.222 2.9246c-.33 1.2454-.161 2.5454.479 3.6646s1.671 1.9171 2.905 2.2508c1.233.334 2.517.1629 3.62-.4798 1.103-.6429 1.891-1.6796 2.222-2.9247l.261-1.0464c.033-.1321-.046-.2662-.177-.3018l-1.259-.3405c-.135-.0366-.274.045-.307.1809l-.256 1.0238c-.426 1.6026-2.064 2.5569-3.651 2.1278-1.582-.4285-2.523-2.0732-2.1-3.6705.421-1.5857 2.03-2.5383 3.602-2.1417l7.489 2.0266c1.233.3339 2.517.1629 3.62-.48 1.103-.6427 1.892-1.6795 2.222-2.9246.33-1.2453.161-2.5454-.479-3.6645-.64-1.1192-1.671-1.9171-2.905-2.2509-1.233-.3339-2.517-.1629-3.62.4799-1.103.6429-1.891 1.6796-2.222 2.9247l-.247.8272c-.04.1347.039.2761.175.3128l1.258.3405c.13.0354.266-.0398.304-.1697l.248-.8269c.426-1.6026 2.064-2.5568 3.651-2.1277 1.582.4284 2.523 2.0731 2.1 3.6705z" fill-rule="evenodd"/></g></svg>