<svg fill="none" viewBox="0 0 100 100" xmlns="http://www.w3.org/2000/svg" xmlns:xlink="http://www.w3.org/1999/xlink"><clipPath id="a"><path d="m0 0h100v100h-100z"/></clipPath><g clip-path="url(#a)" fill="#5d5d5d"><path d="m96.523 67.173-20.24-18.213h-52.566l-20.24 18.213-2.787-3.096 21.427-19.285h55.766l21.428 19.285z"/><path d="m93.75 100h-87.5a6.256 6.256 0 0 1 -6.25-6.25v-30.208h33.333v2.083c0 5.17 4.206 9.375 9.375 9.375h14.584c5.17 0 9.375-4.205 9.375-9.375v-2.083h33.333v30.208a6.256 6.256 0 0 1 -6.25 6.25zm-89.583-32.291v26.041c0 1.15.934 2.084 2.083 2.084h87.5a2.085 2.085 0 0 0 2.083-2.084v-26.04h-25.159c-1.005 6.482-6.624 11.458-13.382 11.458h-14.584c-6.758 0-12.377-4.976-13.382-11.458h-25.16zm33.007-39.659-7.291-11.458-3.516 2.237 7.292 11.458zm37.501-9.225-3.515-2.237-7.29 11.458 3.515 2.237zm-22.592-4.242h-4.166v13.542h4.166z"/></g></svg>