<svg fill="none" height="20" viewBox="0 0 301 20" width="301" xmlns="http://www.w3.org/2000/svg"><path d="m12.47 9.25h-1.47v-2.2875c0-1.635-1.3425-2.9625-3-2.9625s-3 1.3275-3 2.9625v2.2875h-1.53c-.4125 0-.72.2625-.72.675v5.1825c0 .405.3075.8925.72.8925h9c.4125 0 .78-.4875.78-.8925v-5.1825c0-.4125-.3675-.675-.78-.675zm-5.97 0v-2.2875c0-.8175.675-1.4775 1.5-1.4775s1.5.66 1.5 1.4775v2.2875z" fill="#000"/><path d="m25.8651 8.02983c-.0824-.25852-.1932-.49006-.3324-.6946-.1364-.20739-.2997-.38353-.4901-.52841-.1903-.14773-.4077-.25995-.652-.33665-.2415-.0767-.5071-.11506-.7968-.11506-.4915 0-.9347.12642-1.3296.37927-.3949.25284-.7074.62357-.9375 1.11221-.2273.4858-.3409 1.08097-.3409 1.78551 0 .7074.1151 1.3054.3452 1.794.2301.4887.5454.8594.946 1.1123.4006.2528.8565.3792 1.3679.3792.4744 0 .8878-.0966 1.24-.2898.3552-.1931.6293-.4659.8225-.8181.196-.3552.294-.7728.294-1.2529l.3409.0639h-2.4971v-1.08661h3.4304v.99291c0 .7329-.1563 1.3693-.4688 1.9091-.3096.5369-.7386.9517-1.2869 1.2443-.5455.2926-1.1705.4389-1.875.4389-.7898 0-1.483-.1818-2.0796-.5454-.5937-.3637-1.0568-.8793-1.3892-1.5469-.3323-.6705-.4985-1.4659-.4985-2.38638 0-.69602.0965-1.32102.2897-1.875.1932-.55397.4645-1.02414.8139-1.41051.3523-.3892.7657-.68608 1.2401-.89062.4773-.20739.9986-.31108 1.5639-.31108.4716 0 .9105.0696 1.3168.20881.4091.1392.7727.33664 1.0909.59233.321.25568.5866.55965.7969.91193.2102.34943.3522.73721.4261 1.16335zm7.126 3.25567v-3.83095h1.2784v6.54545h-1.2528v-1.1335h-.0682c-.1506.3494-.392.6406-.7244.8736-.3296.2301-.7401.3451-1.2316.3451-.4204 0-.7926-.0923-1.1164-.277-.3211-.1875-.5739-.4644-.7586-.8309-.1818-.3665-.2727-.8196-.2727-1.3594v-4.16335h1.2742v4.00995c0 .446.1235.8011.3707 1.0653s.5682.3963.9631.3963c.2386 0 .4758-.0596.7116-.1789.2387-.1194.4361-.2998.5923-.5412.1591-.2415.2373-.5483.2344-.9205zm4.8953 2.8594c-.4148 0-.7898-.0767-1.125-.2301-.3353-.1563-.6009-.3821-.7969-.6776-.1932-.2954-.2898-.6577-.2898-1.0866 0-.3694.071-.6733.2131-.912.142-.2386.3338-.4275.5753-.5667.2414-.1392.5113-.2443.8096-.3154.2983-.071.6023-.125.912-.1619.392-.0455.7102-.0824.9545-.1108.2443-.0312.4219-.081.5327-.14914.1108-.06818.1662-.17898.1662-.33239v-.02983c0-.37216-.1051-.66051-.3154-.86505-.2074-.20455-.517-.30682-.9289-.30682-.429 0-.7671.09517-1.0143.28551-.2443.1875-.4133.39631-.5071.62642l-1.1974-.27273c.142-.39772.3494-.71875.6222-.96307.2755-.24715.5923-.42613.9502-.53693.358-.11363.7344-.17045 1.1293-.17045.2614 0 .5384.03125.831.09375.2954.05966.571.17045.8267.33238.2585.16194.4701.39347.6349.69461.1648.29829.2472.68608.2472 1.16335v4.34659h-1.2443v-.8949h-.0512c-.0824.1648-.2059.3267-.3707.4858s-.3764.2912-.635.3963c-.2585.1051-.5681.1577-.9289.1577zm.277-1.0227c.3522 0 .6534-.0696.9034-.2088.2528-.1393.4446-.3211.5752-.5455.1336-.2273.2003-.4702.2003-.7287v-.8437c-.0454.0454-.1335.088-.2642.1278-.1278.0369-.2741.0696-.4389.098-.1648.0256-.3253.0497-.4815.0725-.1563.0198-.287.0369-.3921.0511-.2471.0312-.473.0838-.6775.1577-.2017.0738-.3637.1804-.4858.3196-.1193.1363-.179.3181-.179.5454 0 .3154.1165.554.3494.7159.233.1591.5299.2387.8907.2387zm4.6502.8778v-6.54545h1.2315v1.03977h.0682c.1193-.35227.3295-.62926.6307-.83097.3039-.20454.6477-.30682 1.0312-.30682.0796 0 .1733.00284.2813.00853.1108.00568.1974.01278.2599.0213v1.21875c-.0511-.0142-.142-.02983-.2727-.04687-.1307-.01989-.2614-.02983-.3921-.02983-.3011 0-.5696.06392-.8054.19176-.2329.125-.4176.29972-.5539.52415-.1364.22159-.2046.47443-.2046.75848v3.9972zm6.4517.1449c-.4148 0-.7898-.0767-1.125-.2301-.3353-.1563-.6009-.3821-.7969-.6776-.1932-.2954-.2898-.6577-.2898-1.0866 0-.3694.071-.6733.2131-.912.142-.2386.3338-.4275.5753-.5667s.5113-.2443.8096-.3154c.2983-.071.6023-.125.912-.1619.392-.0455.7102-.0824.9545-.1108.2443-.0312.4219-.081.5327-.14914.1108-.06818.1662-.17898.1662-.33239v-.02983c0-.37216-.1051-.66051-.3154-.86505-.2074-.20455-.517-.30682-.9289-.30682-.429 0-.7671.09517-1.0142.28551-.2444.1875-.4134.39631-.5072.62642l-1.1974-.27273c.1421-.39772.3494-.71875.6222-.96307.2755-.24715.5923-.42613.9502-.53693.358-.11363.7344-.17045 1.1293-.17045.2614 0 .5384.03125.831.09375.2954.05966.571.17045.8267.33238.2585.16194.4702.39347.6349.69461.1648.29829.2472.68608.2472 1.16335v4.34659h-1.2443v-.8949h-.0512c-.0824.1648-.2059.3267-.3707.4858s-.3764.2912-.635.3963c-.2585.1051-.5681.1577-.9289.1577zm.277-1.0227c.3522 0 .6534-.0696.9034-.2088.2528-.1393.4446-.3211.5753-.5455.1335-.2273.2002-.4702.2002-.7287v-.8437c-.0454.0454-.1335.088-.2642.1278-.1278.0369-.2741.0696-.4389.098-.1648.0256-.3253.0497-.4815.0725-.1563.0198-.287.0369-.3921.0511-.2471.0312-.473.0838-.6775.1577-.2017.0738-.3637.1804-.4858.3196-.1193.1363-.179.3181-.179.5454 0 .3154.1165.554.3494.7159.233.1591.5299.2387.8907.2387zm5.9243-3.0086v3.8864h-1.2741v-6.54545h1.223v1.06534h.0809c.1506-.34659.3864-.625.7074-.83523.3239-.21023.7316-.31534 1.223-.31534.4461 0 .8367.09375 1.1719.28125.3352.18466.5952.46023.7799.8267.1846.36648.2769.8196.2769 1.35938v4.16335h-1.2741v-4.00994c0-.47444-.1236-.84517-.3707-1.11222-.2472-.26989-.5867-.40483-1.0185-.40483-.2955 0-.5583.06392-.7884.19176-.2272.12784-.4076.31534-.5412.5625-.1306.24432-.196.53978-.196.88633zm8.9531-2.65905v1.02272h-3.5752v-1.02272zm-2.6164-1.56819h1.2741v6.19174c0 .2472.0369.4333.1108.5583.0739.1221.169.2059.2855.2514.1193.0426.2486.0639.3878.0639.1023 0 .1918-.0071.2685-.0213s.1363-.0256.1789-.0341l.2302 1.0526c-.0739.0284-.179.0568-.3154.0852-.1363.0312-.3068.0483-.5113.0511-.3353.0057-.6478-.054-.9375-.179-.2898-.125-.5242-.3181-.7032-.5795-.1789-.2614-.2684-.5895-.2684-.9844zm6.7766 8.24574c-.6449 0-1.2003-.1378-1.6662-.4133-.4631-.2785-.821-.6691-1.0739-1.1719-.25-.5057-.375-1.098-.375-1.777 0-.6705.125-1.26138.375-1.77274.2529-.51136.6052-.91051 1.0569-1.19744.4545-.28694.9858-.4304 1.5937-.4304.3693 0 .7273.06108 1.0739.18324s.6576.31392.9332.57528.4929.60085.652 1.01847c.1591.41477.2386.91899.2386 1.51279v.4517h-5.2031v-.9546h3.9546c0-.33518-.0682-.63205-.2046-.89058-.1363-.26136-.3281-.46732-.5753-.61789-.2443-.15057-.5312-.22585-.8608-.22585-.3579 0-.6704.08806-.9375.2642-.2642.17329-.4687.40057-.6136.68182-.142.27841-.2131.58096-.2131.9077v.7457c0 .4375.0767.8097.2301 1.1165.1563.3068.3736.5412.652.7031.2784.1591.6037.2386.9759.2386.2415 0 .4616-.034.6605-.1022.1989-.0711.3707-.1762.5156-.3154s.2557-.311.3324-.5156l1.206.2173c-.0966.3551-.2699.6662-.5199.9333-.2472.2642-.5583.4701-.9333.6179-.3721.1449-.7968.2173-1.2741.2173zm7.043 0c-.6449 0-1.2003-.1378-1.6662-.4133-.4631-.2785-.821-.6691-1.0739-1.1719-.25-.5057-.375-1.098-.375-1.777 0-.6705.125-1.26138.375-1.77274.2529-.51136.6051-.91051 1.0568-1.19744.4546-.28694.9858-.4304 1.5938-.4304.3693 0 .7273.06108 1.0738.18324.3466.12216.6577.31392.9333.57528s.4929.60085.652 1.01847c.1591.41477.2386.91899.2386 1.51279v.4517h-5.2031v-.9546h3.9545c0-.33518-.0682-.63205-.2045-.89058-.1364-.26136-.3281-.46732-.5753-.61789-.2443-.15057-.5313-.22585-.8608-.22585-.358 0-.6705.08806-.9375.2642-.2642.17329-.4687.40057-.6136.68182-.1421.27841-.2131.58096-.2131.9077v.7457c0 .4375.0767.8097.2301 1.1165.1563.3068.3736.5412.652.7031.2784.1591.6037.2386.9759.2386.2414 0 .4616-.034.6605-.1022.1988-.0711.3707-.1762.5156-.3154s.2557-.311.3324-.5156l1.2059.2173c-.0965.3551-.2698.6662-.5198.9333-.2472.2642-.5583.4701-.9333.6179-.3721.1449-.7969.2173-1.2741.2173zm6.6722-.0043c-.5284 0-1-.1349-1.4148-.4048-.4119-.2727-.7358-.6605-.9716-1.1633-.2329-.5057-.3494-1.1123-.3494-1.8196 0-.7074.1179-1.31254.3537-1.81538.2386-.50285.5653-.88779.9801-1.15483.4148-.26705.885-.40057 1.4105-.40057.4063 0 .733.06818.9801.20454.25.13353.4432.28978.5796.46875.1392.17898.2471.33665.3238.47301h.0767v-3.24289h1.2742v8.72727h-1.2443v-1.0185h-.1066c-.0767.1392-.1875.2983-.3323.4773-.1421.179-.3381.3352-.5881.4688-.25.1335-.5739.2002-.9716.2002zm.2812-1.0866c.3665 0 .6762-.0966.929-.2898.2557-.196.4489-.4673.5796-.8139.1335-.3466.2003-.75.2003-1.2102 0-.4546-.0654-.8523-.1961-1.19321-.1306-.34091-.3224-.60653-.5753-.79687-.2528-.19035-.5653-.28552-.9375-.28552-.3835 0-.7031.09944-.9588.2983-.2556.19886-.4488.47017-.5795.81392-.1278.34375-.1918.73158-.1918 1.16338 0 .4375.0654.8309.1961 1.1804.1306.3494.3238.6264.5795.8309.2585.2017.5767.3026.9545.3026zm12.8662-3.85654-1.4063.15341c-.0398-.14205-.1094-.27557-.2088-.40057-.0966-.125-.2273-.22585-.392-.30256-.1648-.0767-.3665-.11505-.6051-.11505-.3211 0-.591.0696-.8097.2088-.2159.13921-.3224.31961-.3196.5412-.0028.19034.0668.34517.2088.46449.1449.11931.3835.21732.7159.29402l1.1165.2386c.6193.1336 1.0795.3452 1.3807.635.3039.2898.4574.669.4602 1.1378-.0028.4119-.1236.7755-.3622 1.0909-.2358.3125-.5639.5568-.9844.7329-.4204.1762-.9034.2642-1.4489.2642-.8011 0-1.446-.1676-1.9346-.5028-.4887-.3381-.7798-.8082-.8736-1.4105l1.5043-.1449c.0681.2955.213.5185.4346.669.2216.1506.51.2259.8651.2259.3665 0 .6605-.0753.8821-.2259.2244-.1505.3366-.3366.3366-.5582 0-.1875-.0724-.3423-.2173-.4645-.142-.1222-.3636-.2159-.6648-.2812l-1.1164-.2344c-.6279-.1307-1.0924-.3509-1.3935-.6605-.3012-.3125-.4503-.70741-.4475-1.18469-.0028-.40341.1066-.75284.3282-1.04829.2244-.2983.5355-.52841.9332-.69034.4006-.16478.8622-.24716 1.3849-.24716.7671 0 1.3708.16335 1.8111.49006.4432.3267.7174.76846.8225 1.32528zm3.2961 4.94744c-.4147 0-.7883-.0739-1.1207-.2216-.3295-.1506-.5909-.3721-.7841-.6648-.1903-.2926-.2855-.6534-.2855-1.0823 0-.3694.0682-.6748.2045-.9162.1364-.2415.3225-.4347.5583-.5796s.5014-.2542.7969-.3281c.2983-.0767.6065-.1321.9247-.1662.3835-.0398.6946-.0753.9332-.1065.2391-.0341.4121-.08527.5201-.15345.111-.07102.166-.1804.166-.32812v-.02557c0-.32102-.095-.5696-.286-.74574-.19-.17614-.464-.2642-.822-.2642-.3778 0-.6775.08238-.8991.24716-.2188.16477-.3665.35937-.4432.5838l-1.4403-.20454c.1136-.39773.3011-.73012.5625-.99716.2613-.26989.5809-.47159.9588-.60512.3778-.13636.7954-.20454 1.2528-.20454.3154 0 .6295.03693.9415.11079.313.07387.598.19603.857.36648.258.16761.466.39631.622.68608.159.28977.239.65199.239 1.08665v4.38068h-1.483v-.8991h-.051c-.094.1818-.226.3522-.397.5113-.167.1563-.3791.2827-.6347.3793-.2529.0937-.5498.1406-.8907.1406zm.4006-1.1335c.3097 0 .5781-.0611.8054-.1833.2274-.125.4024-.2897.5244-.4943.125-.2045.187-.4275.187-.669v-.7713c-.048.0398-.13.0767-.247.1108-.114.0341-.241.0639-.383.0895-.1425.0255-.2831.0483-.4223.0681-.1392.0199-.2599.037-.3622.0512-.2301.0312-.4361.0824-.6179.1534s-.3253.1704-.4304.2983c-.1051.125-.1577.2869-.1577.4858 0 .2841.1037.4986.3111.6434.2074.1449.4716.2174.7926.2174zm7.9218-5.54405v1.19318h-3.869v-1.19318zm-2.902 6.54545v-7.16335c0-.44034.091-.80682.273-1.09943.184-.29262.432-.51137.741-.65625.31-.14489.654-.21733 1.032-.21733.267 0 .504.0213.711.06392.208.04261.361.08096.46.11505l-.306 1.19319c-.066-.01989-.148-.03978-.248-.05966-.099-.02273-.21-.03409-.332-.03409-.287 0-.49.0696-.609.2088-.117.13637-.175.33239-.175.58807v7.06108zm6.762.1278c-.656 0-1.223-.1363-1.7-.409-.475-.2756-.84-.6648-1.096-1.1677-.255-.5056-.383-1.1008-.383-1.7855 0-.6733.128-1.26418.383-1.7727.259-.51137.62-.90909 1.083-1.19318.463-.28694 1.007-.4304 1.632-.4304.403 0 .784.06534 1.142.19602.361.12784.679.32671.954.59659.279.26989.498.61364.657 1.03125.159.41477.238.90912.238 1.48292v.473h-5.365v-1.0397h3.887c-.003-.29548-.067-.55826-.192-.78838-.125-.23295-.3-.41619-.524-.54971-.222-.13353-.48-.20029-.776-.20029-.315 0-.592.07671-.831.23012-.238.15056-.425.34943-.558.59659-.131.24432-.197.51278-.2.80537v.9077c0 .3807.069.7074.208.9801.14.2699.334.4773.584.6222.25.142.543.213.878.213.225 0 .428-.0312.609-.0937.182-.0654.34-.1605.474-.2855.133-.125.234-.2799.302-.4645l1.44.1619c-.091.3807-.264.7131-.519.9972-.253.2812-.577.5-.972.6562-.395.1534-.847.2301-1.355.2301zm9.8 0c-.597 0-1.109-.1079-1.538-.3238s-.76-.5071-.993-.8736c-.23-.3693-.346-.7855-.346-1.2486 0-.3494.071-.6591.214-.929.144-.2698.343-.5198.596-.75.256-.23007.551-.45877.886-.68604l1.547-1.05256c.228-.14772.4-.30397.516-.46875.119-.16477.179-.35795.179-.57954 0-.1875-.08-.36506-.239-.53267-.156-.16762-.372-.25142-.647-.25142-.185 0-.348.04403-.49.1321-.14.08523-.249.19744-.329.33665-.076.1392-.115.28693-.115.44318 0 .19034.053.38352.158.57955.108.19602.247.39914.418.60937.173.21023.358.43324.554.66903l4.095 4.7983h-1.671l-3.4-3.8949c-.253-.29544-.497-.58663-.733-.87357-.233-.28693-.425-.58522-.575-.89488-.148-.3125-.222-.65057-.222-1.01421 0-.41193.095-.77983.285-1.10369.191-.3267.456-.58381.797-.77131.344-.1875.746-.28125 1.206-.28125.461 0 .855.09091 1.185.27273.329.18182.584.4233.763.72443.179.30114.268.62926.268.98438 0 .41193-.102.78125-.307 1.10795-.204.32387-.488.6179-.852.8821l-1.764 1.29122c-.29.2102-.497.4233-.622.6392-.125.213-.188.3949-.188.5454 0 .2301.058.439.175.6265.116.1875.28.338.49.4517.213.1108.462.1662.746.1662.312 0 .62-.0696.924-.2089.304-.142.581-.3437.831-.6051.25-.2613.449-.5738.597-.9375.148-.3664.222-.7727.222-1.21872h1.325c0 .55112-.061 1.03122-.183 1.44032-.122.4063-.28.75-.473 1.0313-.194.2784-.398.5014-.614.669-.068.0483-.134.0966-.196.1449-.063.0483-.128.0966-.196.1449-.307.2784-.666.4829-1.078.6136-.409.1307-.811.196-1.206.196zm13.499-4.94314-1.406.15341c-.04-.14205-.11-.27557-.209-.40057-.097-.125-.228-.22585-.392-.30256-.165-.0767-.367-.11505-.605-.11505-.321 0-.591.0696-.81.2088-.216.13921-.323.31961-.32.5412-.003.19034.067.34517.209.46449.145.11931.384.21732.716.29402l1.117.2386c.619.1336 1.079.3452 1.38.635.304.2898.458.669.46 1.1378-.002.4119-.123.7755-.362 1.0909-.236.3125-.564.5568-.984.7329-.421.1762-.904.2642-1.449.2642-.801 0-1.446-.1676-1.935-.5028-.488-.3381-.78-.8082-.873-1.4105l1.504-.1449c.068.2955.213.5185.435.669.221.1506.51.2259.865.2259.366 0 .66-.0753.882-.2259.224-.1505.336-.3366.336-.5582 0-.1875-.072-.3423-.217-.4645-.142-.1222-.363-.2159-.665-.2812l-1.116-.2344c-.628-.1307-1.092-.3509-1.394-.6605-.301-.3125-.45-.70741-.447-1.18469-.003-.40341.107-.75284.328-1.04829.225-.2983.536-.52841.933-.69034.401-.16478.863-.24716 1.385-.24716.767 0 1.371.16335 1.811.49006.444.3267.718.76846.823 1.32528zm4.31 4.94314c-.656 0-1.223-.1363-1.7-.409-.475-.2756-.84-.6648-1.095-1.1677-.256-.5056-.384-1.1008-.384-1.7855 0-.6733.128-1.26418.384-1.7727.258-.51137.619-.90909 1.082-1.19318.463-.28694 1.007-.4304 1.632-.4304.404 0 .784.06534 1.142.19602.361.12784.679.32671.955.59659.278.26989.497.61364.656 1.03125.159.41477.239.90912.239 1.48292v.473h-5.365v-1.0397h3.886c-.003-.29548-.067-.55826-.192-.78838-.125-.23295-.299-.41619-.524-.54971-.221-.13353-.48-.20029-.775-.20029-.316 0-.593.07671-.831.23012-.239.15056-.425.34943-.559.59659-.13.24432-.197.51278-.2.80537v.9077c0 .3807.07.7074.209.9801.139.2699.334.4773.584.6222.25.142.542.213.877.213.225 0 .428-.0312.61-.0937.182-.0654.339-.1605.473-.2855.133-.125.234-.2799.302-.4645l1.441.1619c-.091.3807-.264.7131-.52.9972-.253.2812-.577.5-.972.6562-.395.1534-.846.2301-1.355.2301zm7.071 0c-.654 0-1.215-.1434-1.683-.4304-.466-.2869-.826-.6832-1.079-1.1889-.25-.5085-.375-1.0937-.375-1.7557 0-.6647.128-1.25138.384-1.7599.256-.51137.616-.90909 1.082-1.19318.469-.28694 1.023-.4304 1.662-.4304.532 0 1.002.09801 1.411.29403.412.19318.74.46733.984.82245.245.35227.384.7642.418 1.23579h-1.475c-.059-.31534-.201-.57812-.426-.78835-.221-.21307-.518-.3196-.89-.3196-.316 0-.593.08522-.831.25568-.239.16761-.425.40909-.559.72443-.13.31534-.196.69315-.196 1.13355 0 .446.066.8295.196 1.1505.131.3182.314.564.55.7373.239.1704.519.2556.84.2556.227 0 .43-.0426.609-.1278.182-.0881.334-.2145.456-.3793.122-.1647.206-.365.251-.6008h1.475c-.037.4631-.173.8736-.409 1.2315-.236.3551-.557.6335-.963.8352-.407.1989-.884.2983-1.432.2983zm8.242-2.8806v-3.79265h1.543v6.54545h-1.496v-1.1634h-.068c-.148.3665-.391.6662-.729.8992-.335.2329-.748.3494-1.24.3494-.429 0-.808-.0951-1.137-.2855-.327-.1932-.583-.473-.767-.8395-.185-.3693-.277-.8153-.277-1.338v-4.16765h1.542v3.92895c0 .4148.114.7443.341.9887.227.2443.526.3664.895.3664.227 0 .447-.0554.66-.1662.214-.1108.388-.2755.525-.4943.139-.2216.208-.4986.208-.8309zm3.129 2.7528v-6.54545h1.496v1.0909h.068c.12-.37784.324-.66903.614-.87357.292-.20739.626-.31108 1.001-.31108.086 0 .181.00426.286.01278.108.00568.197.01562.268.02983v1.41903c-.065-.02272-.169-.04261-.311-.05966-.139-.01988-.274-.02983-.405-.02983-.281 0-.534.06108-.758.18324-.222.11932-.396.28551-.524.49858s-.192.45881-.192.73723v3.848zm7.386.1278c-.656 0-1.223-.1363-1.7-.409-.474-.2756-.839-.6648-1.095-1.1677-.256-.5056-.384-1.1008-.384-1.7855 0-.6733.128-1.26418.384-1.7727.258-.51137.619-.90909 1.082-1.19318.463-.28694 1.007-.4304 1.632-.4304.404 0 .784.06534 1.142.19602.361.12784.679.32671.955.59659.278.26989.497.61364.656 1.03125.159.41477.239.90912.239 1.48292v.473h-5.365v-1.0397h3.886c-.003-.29548-.067-.55826-.192-.78838-.125-.23295-.299-.41619-.524-.54971-.221-.13353-.48-.20029-.775-.20029-.316 0-.593.07671-.831.23012-.239.15056-.425.34943-.559.59659-.13.24432-.197.51278-.2.80537v.9077c0 .3807.07.7074.209.9801.139.2699.334.4773.584.6222.25.142.542.213.878.213.224 0 .427-.0312.609-.0937.182-.0654.339-.1605.473-.2855s.234-.2799.303-.4645l1.44.1619c-.091.3807-.264.7131-.52.9972-.253.2812-.577.5-.972.6562-.394.1534-.846.2301-1.355.2301zm10.013.0043c-.633 0-1.179-.1435-1.636-.4304-.454-.2898-.804-.6889-1.048-1.1974-.245-.5086-.367-1.0909-.367-1.7472 0-.6648.125-1.25142.375-1.75994.25-.51136.603-.91051 1.057-1.19744.455-.28694.99-.4304 1.607-.4304.497 0 .94.09233 1.329.27699.389.18181.703.4375.942.76704.241.32955.385.71449.43 1.15483h-1.24c-.068-.30682-.224-.57102-.468-.79261-.242-.22159-.566-.33239-.972-.33239-.355 0-.666.09375-.933.28125-.264.18466-.47.44887-.618.79262-.148.3409-.222.74435-.222 1.21025 0 .4772.073.8892.218 1.2358.144.3466.349.615.613.8054.267.1903.581.2855.942.2855.241 0 .46-.0441.656-.1321.199-.0909.365-.2202.499-.3878.136-.1676.231-.3693.285-.6051h1.24c-.045.4233-.183.8011-.413 1.1335s-.538.5937-.925.7841c-.383.1903-.834.2855-1.351.2855zm5.326-4.0185v3.8864h-1.274v-8.72727h1.257v3.24716h.081c.153-.35228.388-.63211.703-.83949.315-.20739.727-.31108 1.236-.31108.449 0 .841.09233 1.176.27699.338.18466.599.46022.784.8267.188.36364.281.81818.281 1.36364v4.16335h-1.274v-4.00994c0-.48012-.123-.85228-.37-1.11648-.248-.26705-.591-.40057-1.032-.40057-.301 0-.571.06392-.809.19176-.236.12784-.422.31534-.559.5625-.133.24432-.2.53978-.2.88633zm8.766 4.0185c-.645 0-1.201-.1378-1.666-.4133-.464-.2785-.822-.6691-1.074-1.1719-.25-.5057-.375-1.098-.375-1.777 0-.6705.125-1.26138.375-1.77274.252-.51136.605-.91051 1.056-1.19744.455-.28694.986-.4304 1.594-.4304.37 0 .727.06108 1.074.18324s.658.31392.933.57528c.276.26136.493.60085.652 1.01847.159.41477.239.91899.239 1.51279v.4517h-5.203v-.9546h3.954c0-.33518-.068-.63205-.204-.89058-.137-.26136-.328-.46732-.575-.61789-.245-.15057-.532-.22585-.861-.22585-.358 0-.671.08806-.938.2642-.264.17329-.469.40057-.613.68182-.142.27841-.213.58096-.213.9077v.7457c0 .4375.076.8097.23 1.1165.156.3068.373.5412.652.7031.278.1591.603.2386.975.2386.242 0 .462-.034.661-.1022.199-.0711.371-.1762.516-.3154s.255-.311.332-.5156l1.206.2173c-.097.3551-.27.6662-.52.9333-.247.2642-.558.4701-.933.6179-.372.1449-.797.2173-1.274.2173zm6.979 0c-.634 0-1.179-.1435-1.637-.4304-.454-.2898-.804-.6889-1.048-1.1974-.244-.5086-.366-1.0909-.366-1.7472 0-.6648.125-1.25142.375-1.75994.25-.51136.602-.91051 1.056-1.19744.455-.28694.991-.4304 1.607-.4304.497 0 .94.09233 1.33.27699.389.18181.703.4375.941.76704.242.32955.385.71449.431 1.15483h-1.24c-.069-.30682-.225-.57102-.469-.79261-.242-.22159-.565-.33239-.972-.33239-.355 0-.666.09375-.933.28125-.264.18466-.47.44887-.618.79262-.148.3409-.221.74435-.221 1.21025 0 .4772.072.8892.217 1.2358s.349.615.614.8054c.267.1903.58.2855.941.2855.242 0 .461-.0441.657-.1321.198-.0909.365-.2202.498-.3878.136-.1676.232-.3693.286-.6051h1.24c-.046.4233-.184.8011-.414 1.1335s-.538.5937-.924.7841c-.384.1903-.834.2855-1.351.2855zm5.223-2.3523-.008-1.5554h.221l2.608-2.76985h1.526l-2.975 3.15345h-.2zm-1.172 2.2202v-8.72727h1.274v8.72727zm4.134 0-2.344-3.1108.878-.89062 3.03 4.00142zm5.034.1321c-.614 0-1.15-.1406-1.607-.4219-.457-.2812-.813-.6747-1.065-1.1804-.253-.5057-.38-1.0966-.38-1.7727 0-.679.127-1.27273.38-1.78125.252-.50852.608-.90341 1.065-1.18466s.993-.42187 1.607-.42187c.613 0 1.149.14062 1.606.42187s.813.67614 1.065 1.18466c.253.50852.38 1.10225.38 1.78125 0 .6761-.127 1.267-.38 1.7727-.252.5057-.608.8992-1.065 1.1804-.457.2813-.993.4219-1.606.4219zm.004-1.0696c.398 0 .727-.1051.988-.3153.262-.2103.455-.4901.58-.8395.128-.3495.192-.7344.192-1.1549 0-.4176-.064-.8011-.192-1.15053-.125-.35227-.318-.63494-.58-.84801-.261-.21307-.59-.3196-.988-.3196-.401 0-.733.10653-.997.3196-.262.21307-.456.49574-.584.84801-.125.34943-.188.73293-.188 1.15053 0 .4205.063.8054.188 1.1549.128.3494.322.6292.584.8395.264.2102.596.3153.997.3153zm8.615-1.777v-3.83095h1.279v6.54545h-1.253v-1.1335h-.068c-.151.3494-.392.6406-.725.8736-.329.2301-.74.3451-1.231.3451-.421 0-.793-.0923-1.117-.277-.321-.1875-.574-.4644-.758-.8309-.182-.3665-.273-.8196-.273-1.3594v-4.16335h1.274v4.00995c0 .446.124.8011.371 1.0653s.568.3963.963.3963c.238 0 .476-.0596.711-.1789.239-.1194.437-.2998.593-.5412.159-.2415.237-.5483.234-.9205zm6.046-3.83095v1.02272h-3.575v-1.02272zm-2.616-1.56819h1.274v6.19174c0 .2472.037.4333.11.5583.074.1221.169.2059.286.2514.119.0426.249.0639.388.0639.102 0 .192-.0071.268-.0213.077-.0142.137-.0256.179-.0341l.23 1.0526c-.074.0284-.179.0568-.315.0852-.136.0312-.307.0483-.511.0511-.336.0057-.648-.054-.938-.179s-.524-.3181-.703-.5795-.268-.5895-.268-.9844z" fill="#000"/><rect fill="#000" height="17" rx="4" width="74" x="227" y="1.5"/><g fill="#fff"><path d="m235.418 7.12109h-2.121v5.38001h.947v-2.08h1.174c1.184 0 1.924-.58001 1.924-1.65001s-.74-1.65-1.924-1.65zm-.049 2.5h-1.125v-1.65h1.14c.68 0 1.041.295 1.041.825s-.375.8-1.041.8z"/><path d="m239.382 8.50013c-.259-.00304-.516.04893-.755.15258-.238.10364-.452.25667-.629.44926-.177.19258-.311.42046-.396.669-.084.24853-.117.51223-.095.77413-.023.2634.008.5288.092.7792.084.2505.218.4806.394.6757.176.195.39.3508.629.4574s.497.1616.758.1616c.26 0 .519-.055.757-.1616.239-.1066.453-.2624.629-.4574.176-.1951.311-.4252.394-.6757.084-.2504.115-.5158.092-.7792.023-.2616-.009-.5252-.093-.77376-.084-.24854-.218-.47649-.394-.66916-.177-.19268-.391-.3458-.629-.4495-.238-.10369-.495-.15566-.754-.15255zm0 3.33497c-.602 0-.987-.5-.987-1.29 0-.78997.375-1.28997.987-1.28997s.987.5.987 1.28997c0 .79-.39 1.285-.987 1.285z"/><path d="m245.144 11.1764-.696-2.60999h-.73l-.691 2.60999-.7-2.60999h-.913l1.169 3.93999h.77l.71-2.57999.711 2.57999h.769l1.169-3.93999h-.878z"/><path d="m248.707 8.5c-.256.00482-.508.0623-.741.16897-.234.10666-.443.26028-.616.45153s-.306.41613-.391.66101c-.084.24489-.119.50459-.102.76349-.02.2629.014.5272.1.7761.085.2489.222.4769.4.6694.177.1924.393.3452.632.4484.24.1033.498.1547.758.1511.358.0195.712-.0751 1.014-.2707.302-.1955.536-.4821.668-.8193l-.735-.31c-.058.1932-.178.3608-.342.4753s-.362.169-.561.1547c-.141.0034-.282-.0223-.413-.0756-.132-.0533-.251-.1331-.351-.2346-.1-.1014-.179-.2224-.232-.3556-.052-.1332-.078-.2758-.074-.4192h2.723v-.3c.01-1.08-.592-1.935-1.737-1.935zm-.952 1.565c.035-.2296.15-.4387.325-.58856.176-.14986.398-.23031.627-.22644.109-.00933.219.00495.322.04187.103.03693.197.09565.276.17228.079.07662.141.16939.181.27213.041.10273.06.21309.055.32372z"/><path d="m252.005 9.14778v-.585h-.888v3.93502h.888v-2.065c-.008-.1334.012-.267.059-.392.047-.12495.119-.23843.213-.33293.093-.09451.205-.1679.328-.21532.123-.04741.255-.06779.387-.05977.108-.00776.217-.00776.325 0v-.9c-.069 0-.148 0-.251 0-.217-.01136-.432.04058-.62.14962s-.341.27059-.441.46538z"/><path d="m255.356 8.5c-.256.00482-.508.0623-.742.16897-.233.10666-.443.26028-.616.45153s-.306.41613-.39.66101c-.085.24489-.12.50459-.102.76349-.021.2629.013.5272.099.7761s.222.4769.4.6694c.178.1924.393.3452.633.4484.239.1033.497.1547.757.1511.355.0153.705-.0814 1.003-.2767.298-.1952.528-.4794.66-.8133l-.76-.295c-.058.1932-.178.3608-.342.4753s-.362.169-.561.1547c-.138-.0013-.275-.0305-.403-.0859-.127-.0554-.242-.136-.339-.2369-.096-.101-.172-.2203-.222-.3512-.051-.1308-.075-.2705-.072-.411h2.733v-.3c0-1.095-.611-1.95-1.736-1.95zm-.952 1.565c.035-.22782.151-.43505.325-.58379.173-.14874.394-.22904.622-.22621.109-.00933.218.00495.321.04187.103.03693.197.09565.276.17228.079.07662.141.16939.182.27213.041.10273.059.21309.055.32372z"/><path d="m260.335 9.00109c-.137-.16281-.309-.29229-.502-.37885s-.402-.12796-.613-.12115c-1.091 0-1.712.925-1.712 2.04501 0 1.12.621 2.045 1.712 2.045.211.0079.421-.033.614-.1196.193-.0867.364-.2167.501-.3804v.41h.888v-5.38001h-.888zm0 1.67501c.02.1426.009.2878-.032.4258-.04.138-.11.2654-.204.3737-.093.1082-.209.1947-.339.2535-.129.0587-.27.0884-.412.087-.646 0-.987-.5-.987-1.26 0-.76001.346-1.26001.987-1.26001.548 0 .987.405.987 1.14501z"/><path d="m266.121 8.50109c-.215-.00953-.429.03053-.626.11714-.198.08661-.373.21752-.513.38286v-1.88h-.888v5.38001h.888v-.415c.137.1632.31.2929.503.3794.194.0866.405.1278.617.1206 1.085 0 1.707-.93 1.707-2.045 0-1.11501-.602-2.04001-1.688-2.04001zm-.153 3.30001c-.142.0014-.282-.0283-.412-.087-.13-.0588-.245-.1453-.339-.2535-.094-.1083-.163-.2357-.204-.3737-.04-.138-.051-.2832-.031-.4258v-.235c0-.74001.414-1.14501.986-1.14501.642 0 .987.5.987 1.26001 0 .76-.37 1.26-.987 1.26z"/><path d="m269.889 11.3314-.952-2.76499h-.937l1.431 3.79499-.148.37c-.025.1268-.098.2387-.203.3124-.105.0736-.234.1032-.36.0826-.098.0073-.197.0073-.296 0v.755c.119.018.24.0263.36.025.308.0227.614-.065.865-.2478s.43-.449.507-.7522l1.598-4.30999h-.932z"/><path d="m288.666 7.71487c-.195-.00114-.388.03669-.568.11134s-.344.18464-.483.32366l-.069-.345h-1.179v6.46003l1.342-.295v-1.565c.267.2265.604.3504.952.35.957 0 1.835-.795 1.835-2.555 0-1.61003-.888-2.48503-1.83-2.48503zm-.321 3.81503c-.117.0068-.235-.0129-.344-.0579s-.207-.114-.287-.2021v-2.05503c.08-.09134.179-.16343.29-.21101s.231-.06944.351-.06399c.494 0 .829.565.829 1.29003 0 .725-.34 1.3-.839 1.3z"/><path d="m292.975 7.71484c-1.292 0-2.077 1.13-2.077 2.55496 0 1.685.928 2.54 2.25 2.54.516.0086 1.026-.1171 1.48-.365v-1.125c-.413.2111-.87.3175-1.332.31-.533 0-.987-.195-1.056-.85h2.654c0-.075 0-.37 0-.5.045-1.43496-.626-2.56496-1.919-2.56496zm-.725 2.035c0-.63.38-.895.716-.895.335 0 .69.265.69.895z"/><path d="m282.744 8.17904-.084-.41h-1.144v4.85496h1.322v-3.28996c.119-.14693.28-.25342.461-.30524.18-.05183.372-.04651.55.01524v-1.275c-.202-.08014-.426-.08268-.629-.00716-.204.07552-.373.2239-.476.41716z"/><path d="m276.068 9.23005c0-.22.177-.305.458-.305.466.01017.923.13363 1.332.36v-1.315c-.423-.17335-.875-.26002-1.332-.255-1.09 0-1.815.59-1.815 1.58 0 1.55005 2.042 1.30005 2.042 1.96505 0 .26-.217.345-.493.345-.521-.0309-1.028-.185-1.48-.45v1.345c.466.2105.97.3195 1.48.32 1.115 0 1.885-.575 1.885-1.58-.025-1.68005-2.077-1.38005-2.077-2.01005z"/><path d="m279.925 6.62109-1.307.29v4.46501c-.007.1882.025.3757.092.5513.067.1755.169.3353.299.4696s.286.2403.458.3115.357.1061.542.1026c.324.0147.647-.0487.943-.185v-1.125c-.173.075-1.017.33-1.017-.5v-2.00001h1.017v-1.17h-1.017z"/><path d="m284.352 7.34937 1.346-.285v-1.07999l-1.346.28499z"/><path d="m285.698 7.80469h-1.346v4.82001h1.346z"/></g></svg>