<svg fill="none" height="101" viewBox="0 0 147 101" width="147" xmlns="http://www.w3.org/2000/svg" xmlns:xlink="http://www.w3.org/1999/xlink"><linearGradient id="a" gradientUnits="userSpaceOnUse" x1="102.586" x2="80.0996" y1="8.98287" y2="55.5914"><stop offset="0" stop-color="#62f91f" stop-opacity=".38"/><stop offset="1" stop-color="#5eaa53"/></linearGradient><linearGradient id="b" gradientUnits="userSpaceOnUse" x1="91.2734" x2="89.5415" y1="31.7075" y2="35.8631"><stop offset="0" stop-color="#62f91f"/><stop offset="1" stop-color="#5eaa53"/></linearGradient><path d="m70.2399 76.8986-7.6715 5.6468.5053 3.3973 20.2584-.2296 5.7422-3.535.5513-5.9222z" fill="#fff"/><path d="m113.88 76.256c1.241.5968 4.686 1.9741 6.432 0 1.745-1.9741 2.802-6.2895-2.114-7.1159-4.915-.7805-7.35 5.6009-4.318 7.1159z" fill="#fff"/><path d="m114.018 81.9022 1.929 1.6986s-6.661.9182-5.283 4.3614 4.824 5.6927 6.891 4.04 2.343-3.1677 2.343-3.1677l1.883 2.5709 9.05-6.7028s5.145.3673 7.212-.3213c1.792-.5968-2.205-7.8046-4.088-9.2737-1.608-1.2854-4.273 6.2437-4.273 6.2437-.091 2.2954-5.374-4.3614-5.145-4.8664.23-.505-10.519 5.4173-10.519 5.4173z" fill="#fff"/><path d="m122.839 59.2226c.781-.964 2.021-4.545 5.145-3.5809 3.123.9641 4.134 1.7446 4.318 3.2596.138 1.515-1.103 5.2795-5.145 5.5091-4.043.2295-5.007-4.3155-4.318-5.1878z" fill="#fff"/><path d="m7.16752 75.2912c.96469-.8723 3.67498-6.106 12.17348-2.8923 8.4984 3.2136 1.9753 12.3036.8268 12.8545-2.5725 1.1937-9.1415 4.1778-12.63278-1.8363-2.98594-5.0959-.3675-8.1259-.3675-8.1259z" fill="#fff"/><path clip-rule="evenodd" d="m80.9883 42.8336 1.3781-1.1936 5.191-1.515.3674 2.9382 1.8376 1.3773 1.424-2.3873 2.251-.3673 3.3075 3.7186-1.1944 2.6628.689 2.3413 3.1697.4132-.3215 5.3714-1.6538 1.5609-1.8834-.4591-.9188 1.4691 1.0566 2.1118-6.5231 2.8005-.6432-3.3514-2.0212-.5509-.7809 1.9282s-2.3888.7345-2.4347.2295c-.046-.505-3.3075-3.1218-3.3075-3.1218l2.5265-3.03s-2.205-.4132-1.5619-3.3514l-3.2615.0459-.1378-4.3154 1.6078-1.3314 2.4347.4132.689-1.4691z" fill="#fff" fill-rule="evenodd"/><path d="m133.861 80.6617c-.184 0-.276-.1836-.322-.2755-.275-.7345-.367-1.515-.413-2.2495-.046-.5968-.092-1.1477-.276-1.6986-.046-.1378.046-.2296.138-.2755.138-.0459.23.0459.276.1377.045.0918.045.2296.091.3214 0-.0459 0-.0918.046-.0918.046-.0918.184-.1837.276-.1837.23.046.689.8264.781 1.1019.413.9181.459 2.02.184 2.8922-.046.1378-.184.1837-.276.1378-.138-.046-.184-.1837-.138-.2755.23-.7345.184-1.7445-.184-2.525v-.0459c0-.0459-.091-.1377-.137-.2755 0 .0459.046.1378.046.1837 0 .0918.046.1836.046.2295.137.7346.137 1.5609.137 2.3414 0 .2754 0 .5509-.229.5968 0-.0459 0-.0459-.046-.0459zm-.276-2.7086v.0918c0 .2295.046.505.092.7345-.046-.2754-.046-.5509-.092-.8263z" fill="#000"/><path d="m134.734 82.9582c-.138 0-.276-.046-.413-.1378-.23-.1836-.368-.505-.322-.8722 0-.1378.138-.2296.276-.1837h.046c.091-.0459.183-.1377.275-.1377.092-.0459.184-.1377.276-.1377.184-.0459.275.0459.321.0918 0 .0459.046.0459.046.0918.138.0918.23.2755.23.505 0 .3214-.138.5968-.413.7345-.092.046-.23.046-.322.046zm-.138-.4591c.092.0459.184.0459.23 0 .092-.0459.138-.1378.138-.3214-.046.0918-.184.2295-.368.3214z" fill="#000"/><path d="m135.607 84.8403c-.643 0-1.378-.0459-2.021-.0459-.643-.046-1.24-.046-1.7-.046-1.286.046-2.067-.1836-2.435-.6886-.459-.6427-.137-1.5609.23-2.7086l.138-.3673c.046-.1836.138-.4132.184-.6427.735-2.2955 1.837-5.7387 3.675-5.7387 1.286 0 2.526 2.7087 3.721 5.3255.459 1.01.918 1.9741 1.286 2.5709.367.5509.413 1.0559.184 1.4232-.368.7804-1.7.9182-3.262.9182zm-3.537-.5509c.413 0 .965 0 1.516.0459 1.791.0918 4.502.1836 4.961-.5969.138-.2295.046-.5509-.184-.964-.367-.6428-.827-1.6069-1.332-2.6169-1.01-2.1118-2.343-5.05-3.307-5.05-1.516 0-2.573 3.3973-3.262 5.4173-.092.2296-.138.4591-.23.6427l-.137.3673c-.322.9641-.644 1.8364-.322 2.2955.276.3672.919.505 2.021.505.138-.0459.23-.0459.276-.0459z" fill="#000"/><path d="m116.681 75.9789c-.321 0-.597-.4591-2.251-3.535-.046-.0919 0-.2296.092-.3214.092-.0459.23 0 .322.0918.643 1.1936 1.424 2.6627 1.745 3.1677 0-.1377.046-.3213.046-.505.046-1.1477.138-3.2595 1.654-4.4991 1.056-.8263 2.572-1.1018 4.548-.7804.138 0 .229.1377.183.2754 0 .1378-.137.2296-.275.1837-1.838-.2755-3.262-.0459-4.18.6886-1.333 1.1018-1.425 2.9841-1.47 4.1318-.046.6887-.046 1.01-.322 1.1019-.046 0-.046 0-.092 0z" fill="#000"/><path d="m116.91 77.7698c-1.837 0-3.445-.9182-4.272-2.3873-.781-1.4231-.643-3.1218.368-4.6827 1.791-2.3414 5.237-2.6627 7.855-.7345 1.286.9641 1.746 2.6627 1.194 4.3154-.551 1.6068-2.205 3.4891-5.145 3.4891zm-3.537-6.7945c-.919 1.4232-1.01 2.9381-.321 4.1777.735 1.3314 2.205 2.1577 3.858 2.1577 2.665 0 4.181-1.6986 4.686-3.1677.505-1.515.092-2.9841-1.011-3.8105-2.388-1.7904-5.558-1.515-7.212.6428z" fill="#000"/><path d="m126.925 62.6654c-.321 0-.597-.4591-2.251-3.535-.046-.0918 0-.2296.092-.3214.092-.0459.23 0 .322.0918.643 1.1937 1.424 2.6628 1.745 3.1678 0-.1378 0-.3214.046-.505.046-1.1478.138-3.2596 1.654-4.4991 1.057-.8264 2.573-1.1019 4.548-.7805.138 0 .23.1377.184.2755 0 .1377-.138.2295-.276.1836-1.838-.2755-3.262-.0459-4.18.6886-1.333 1.1019-1.424 2.9841-1.47 4.1319-.046.6886-.046 1.01-.322 1.1018-.046 0-.046 0-.092 0z" fill="#000"/><path d="m127.154 64.4563c-1.837 0-3.445-.9181-4.272-2.3872-.781-1.4232-.643-3.1219.368-4.6828 1.791-2.3413 5.237-2.6627 7.855-.7345 1.286.9641 1.746 2.6627 1.194 4.3154-.551 1.6069-2.205 3.4891-5.145 3.4891zm-3.537-6.7945c-.918 1.4232-1.01 2.9382-.321 4.1777.735 1.3314 2.205 2.1577 3.858 2.1577 2.665 0 4.181-1.6986 4.686-3.1677.505-1.515.092-2.9841-1.011-3.8104-2.388-1.7905-5.558-1.515-7.212.6427z" fill="#000"/><path d="m89.0731 35.5337c3.1238.8263 12.3109 2.1577 12.8169 2.1118 2.434-3.4432 14.47-14.2777 7.028-20.4296-11.9436-9.91633-22.1877-4.4991-24.7602-2.1118-3.1697 2.9382-6.2015 14.8287-5.4665 16.1141.735 1.2855 7.2581 3.4891 10.3818 4.3155z" fill="url(#a)"/><path d="m98.3053 52.7037c-.0918 0-.1378-.0459-.1837-.0918-4.456-5.9682.9187-12.2577 6.1554-18.2718 4.135-4.7745 7.993-9.2736 7.121-13.4973-.552-2.6168-2.986-4.8663-7.396-6.8863-5.8345-2.6628-11.3929-3.0759-15.757-1.1937-3.5831 1.5609-6.1556 4.6368-7.5337 9.09-2.8482 8.9064-2.94 18.1341-.2297 26.0764.0459.1377-.046.2295-.1378.2755-.1378.0459-.2297-.046-.2757-.1378-2.7103-8.0341-2.6643-17.3995.2297-26.3518 1.47-4.5909 4.0885-7.7127 7.8094-9.3654 4.4559-1.9741 10.1981-1.561 16.1238 1.1936 4.548 2.1118 7.075 4.4532 7.672 7.2077.965 4.4073-2.986 8.9982-7.212 13.8646-5.0994 5.9222-10.3822 12.0281-6.11 17.7209.0918.0918.0459.2295-.046.3213-.1378.0459-.1837.0459-.2297.0459z" fill="#000"/><path d="m85.2143 34.1098c6.2016 2.4332 9.2335 2.8004 15.3427 3.7186.735-.0918 1.838-.2754 1.425-.9641-.644-1.1477-3.8133-2.2036-5.0536-2.7086-3.8128-1.6068-4.5937-1.7905-8.5444-2.9382-2.5265-.7345-6.3853-2.0659-8.774-1.6986-.9647.1377-.9188.9182-.2297 1.6068 1.47 1.2855 3.9506 2.2495 5.834 2.9841z" fill="url(#b)"/><path d="m100.097 38.1047c-.092 0-.1838-.0459-.2297-.1836l-.4134-.0459c-5.4666-.8264-8.4985-1.2855-14.3325-3.5809-1.8835-.7346-4.41-1.6987-5.88-3.0759-.4594-.4591-.6891-.9182-.5513-1.3314.0919-.2295.2756-.5509.9188-.6886 2.1131-.3214 5.2828.6427 7.8553 1.3772.3675.0919.735.2296 1.0565.3214l.8729.2295c3.2156.9182 4.1803 1.1937 7.7174 2.7087.1838.0918.4594.1836.7351.2754 1.5159.5969 3.8589 1.515 4.4099 2.525.184.2755.138.505.046.6428-.138.3213-.597.4591-1.103.5509 0 .1377-.137.2295-.275.1836l-.46-.0918c-.137 0-.229.0459-.275.0459-.046.1377-.092.1377-.092.1377zm-19.5694-8.4472c-.3216 0-.5972 0-.8269.0459-.1837.0459-.4593.1377-.5512.3672-.046.2296.0919.5509.4594.8723 1.3781 1.2855 3.8587 2.2496 5.6962 2.9841 5.8341 2.2955 8.82 2.7086 14.2866 3.535l.9183.1377c.046 0 .138 0 .184-.0459.414-.0459 1.149-.1836 1.24-.4132 0-.0459 0-.0918-.045-.1836-.506-.8723-2.8026-1.7445-4.1808-2.2955-.2756-.0918-.5512-.2295-.735-.3213-3.4912-1.4691-4.4559-1.7446-7.6256-2.6627l-.8728-.2755c-.3216-.0918-.6891-.1836-1.0566-.3214-2.159-.5968-4.9153-1.4231-6.8906-1.4231z" fill="#000"/><path d="m95.1359 37.0485c-.1378 0-.2297-.0918-.2297-.2296 0-.1377.0919-.2295.2297-.2295 1.2404-.1377 2.4807-.4591 3.675-.7805.6891-.1836 1.3781-.3672 2.0671-.505.138-.0459.23.0459.276.1837.046.1377-.046.2295-.184.2754-.689.1378-1.3781.3214-2.0213.505-1.2403.3214-2.4806.6427-3.8128.7805z" fill="#000"/><path d="m90.9568 36.2683c-.0919 0-.1838-.0459-.2297-.1836-.046-.1378.0459-.2296.1378-.2755 2.1131-.6427 4.3181-1.2854 6.5691-1.6986.1378-.0459.2296.0459.2756.1836.0459.1377-.046.2296-.1838.2755-2.205.4132-4.364 1.0559-6.4772 1.6986-.0459 0-.0918 0-.0918 0z" fill="#000"/><path d="m86.5912 34.8449c-.0918 0-.1837-.0918-.2296-.1836-.046-.1378.0459-.2296.1837-.2755.735-.1836 1.47-.3673 2.2509-.4591 1.8835-.2754 3.7669-.7345 5.6044-1.3773.1378-.0459.2297 0 .2756.1378.046.1377 0 .2295-.1378.2754-1.8375.6428-3.7668 1.1018-5.6962 1.3773-.735.0918-1.47.2755-2.1591.4591-.0459.0459-.0919.0459-.0919.0459z" fill="#000"/><path d="m83.1004 33.4684c-.0918 0-.1837-.0459-.2297-.1377-.0459-.1377 0-.2296.1379-.2755.689-.2295 1.47-.4132 2.4346-.505 2.1591-.2754 3.9507-.5509 5.6044-.8722.1378-.046.2297.0459.2756.1836.046.1377-.0459.2295-.1837.2754-1.6538.3214-3.4453.5969-5.6044.8723-.9647.0918-1.6537.2755-2.3428.505-.0459-.0459-.0459-.0459-.0919-.0459z" fill="#000"/><path d="m79.7475 31.9076c-.0919 0-.1838-.0919-.2297-.1837-.0459-.1377.0459-.2295.1838-.2754 2.205-.4132 4.4559-.7346 6.615-.9641.1378 0 .2296.0918.2296.1836 0 .1377-.0918.2296-.1837.2296-2.1591.2754-4.3641.5968-6.615 1.01z" fill="#000"/><path clip-rule="evenodd" d="m95.6418 16.2515c-.9647.5509-1.6078 1.4691-1.8834 2.5709l-.2757 1.01 2.0213.5509.2756-1.01c.2756-1.1018 1.3781-1.7445 2.4347-1.4691 1.0566.2755 1.6997 1.4232 1.4241 2.525-.2757 1.1019-1.3782 1.7446-2.4347 1.4691l-5.8341-1.6068c-1.0566-.2754-2.1591-.1377-3.1237.4132-.9647.5509-1.6079 1.4691-1.8835 2.5709s-.1378 2.2036.4135 3.2136c.5512.9641 1.424 1.6528 2.4806 1.9741 1.0565.2755 2.159.1377 3.1237-.4132s1.6078-1.4691 1.8835-2.5709l.2756-1.01-2.0213-.5509-.2756 1.01c-.2756 1.1018-1.3781 1.7446-2.4347 1.4691-1.0565-.2754-1.6997-1.4232-1.424-2.525.1378-.5509.5053-.9641.9187-1.2395.4594-.2755.9647-.3673 1.516-.1837l5.88 1.6069c1.0565.2754 2.159.1377 3.1237-.4132.9649-.5509 1.6079-1.4691 1.8839-2.5709.275-1.1019.137-2.2037-.414-3.2137-.551-.9641-1.424-1.6527-2.4805-1.9741-1.1025-.3672-2.205-.2295-3.1697.3673z" fill="#f9f9f9" fill-rule="evenodd"/><g fill="#000"><path clip-rule="evenodd" d="m82.7791 46.0926c.0918.1377.0459.2754-.0919.3672-.3675.2296-.735.5968-.9647.9641-.1378.1837-.2297.3673-.3216.505-.0918.1837-.0918.2755-.0918.3673 0 .1377-.0919.2754-.2757.2754-.1378 0-.2756-.0918-.2756-.2754s.046-.3673.1378-.5509c.0919-.1837.2297-.4132.3675-.5968.3216-.4132.6891-.7805 1.1025-1.0559.1838-.1378.3216-.1378.4135 0z" fill-rule="evenodd"/><path clip-rule="evenodd" d="m80.6662 42.6959c.1378-.0459.2756 0 .3215.1378.4594.964.8729 1.9281 1.2863 2.9381 0 .0459.0459.0459.0459.0918.0919.1837.1838.3673.1838.5969.0459.1377-.046.2754-.1838.3213s-.2756-.0459-.3215-.1836c-.046-.1377-.0919-.2755-.1838-.4591 0-.0459-.0459-.0918-.0459-.1377-.4135-.9641-.8728-1.9282-1.2863-2.9382 0-.1836.0919-.3214.1838-.3673z" fill-rule="evenodd"/><path clip-rule="evenodd" d="m85.4887 41.0891c.1378-.0459.2756.0459.3215.1836.2297.8264.4594 1.6528.6891 2.4791.0459.1377-.046.2755-.1838.3214s-.2756-.0459-.3215-.1837c-.2297-.8263-.4594-1.6527-.6891-2.479-.0459-.1378.046-.2755.1838-.3214z" fill-rule="evenodd"/><path clip-rule="evenodd" d="m85.8574 44.1182c0-.1377.1378-.2295.2756-.2295 1.1025 0 2.251.3672 3.0779 1.1477.0918.0918.0918.2755 0 .3673-.0919.0918-.2757.0918-.3675 0-.6891-.6428-1.7916-1.01-2.7563-1.01-.0919 0-.2297-.1378-.2297-.2755z" fill-rule="evenodd"/><path clip-rule="evenodd" d="m91.0941 41.6855c.1378.0918.1838.2295.0919.3672-.735 1.2396-1.47 2.525-2.205 3.7646-.0919.1377-.2297.1377-.3675.0918-.1378-.0918-.1378-.2295-.0919-.3673.735-1.2395 1.516-2.4791 2.205-3.7645.0919-.1377.2297-.1837.3675-.0918z" fill-rule="evenodd"/><path clip-rule="evenodd" d="m94.8607 46.093c.0919.0918.1378.2296.0459.3673 0 .0459-.0459.0459-.0459.0918-.6431.9182-1.3322 1.8364-1.9753 2.7086-.0919.0919-.2297.1378-.3675.046-.0919-.0919-.1378-.2296-.0459-.3673.689-.9182 1.3321-1.7905 1.9753-2.7087 0-.0459.0459-.0459.0459-.0918.0919-.0918.2756-.1377.3675-.0459z" fill-rule="evenodd"/><path clip-rule="evenodd" d="m97.1575 45.3583c.1378.0918.1378.2295.0459.3673-.4593.6886-1.0106 1.3313-1.5159 1.974-.1378.1837-.2756.3673-.4134.505-.0919.0919-.2297.1378-.3675.046-.0919-.0919-.1378-.2296-.046-.3673.1378-.1837.2756-.3673.4135-.5509.5053-.6428 1.0106-1.2855 1.47-1.9282.1378-.0918.2756-.0918.4134-.0459z" fill-rule="evenodd"/><path clip-rule="evenodd" d="m94.9984 48.0669c.0918-.0918.2756-.0918.3675.0459.5053.5509.7809 1.2396 1.0565 1.8364.046.0918.0919.1377.0919.2295.0459.1378 0 .2755-.1378.3214s-.2756 0-.3216-.1377c-.0459-.0918-.0919-.1377-.0919-.2296-.2756-.6427-.5512-1.2395-1.0106-1.7445-.0919-.0918-.0459-.2296.046-.3214z" fill-rule="evenodd"/><path clip-rule="evenodd" d="m92.2877 48.4345c.1378-.0918.2756-.0459.3675.0918.0459.0459.0919.1377.1378.1836.5972.9182 1.3781 2.1119 1.5159 3.3055 0 .1377-.0918.2755-.2296.2755-.1379 0-.2757-.0919-.2757-.2296-.1378-1.1018-.8268-2.1577-1.47-3.1218-.0459-.0459-.0459-.0918-.0918-.1377-.0919-.1378-.0919-.3214.0459-.3673z" fill-rule="evenodd"/><path clip-rule="evenodd" d="m93.6211 51.9698c0-.1377.1378-.2296.2756-.2296 1.0566.0459 2.1591.1837 3.2156.3214.1379 0 .2297.1377.2297.2755 0 .1377-.1378.2295-.2756.2295-1.0566-.1377-2.1131-.2755-3.1697-.3214-.1378 0-.2756-.0918-.2756-.2754z" fill-rule="evenodd"/><path clip-rule="evenodd" d="m97.572 51.3264c.1378 0 .2297.1377.2297.2754-.046 1.3773-.1838 2.8005-.3216 4.1778-.0459.6427-.1378 1.2854-.1838 1.9281 0 .1378-.1378.2296-.2756.2296s-.2297-.1377-.2297-.2755c.046-.6427.1378-1.2854.1838-1.9741.1378-1.3772.2756-2.7545.3215-4.1318.046-.1377.1379-.2754.2757-.2295z" fill-rule="evenodd"/><path clip-rule="evenodd" d="m94.0351 57.0645c.046-.1377.1379-.2295.2757-.2295 1.1025.1836 2.2509.2754 3.3994.3672h.0459c.1378 0 .2297.1378.2297.2755s-.1378.2295-.2756.2295h-.046c-1.1484-.0918-2.2969-.1836-3.3994-.3672-.1837-.0459-.2756-.1378-.2297-.2755z" fill-rule="evenodd"/><path clip-rule="evenodd" d="m94.4012 55.688c.1379.0459.2297.1836.1838.3214-.1838.6886-.5053 1.2395-.8728 1.7904-.1378.1837-.2297.3673-.3675.5509-.2297.3673-.4594.6887-.6891 1.0559-.0919.1378-.2297.1837-.3675.0919-.1378-.046-.1837-.2296-.0919-.3673.2297-.3673.4594-.7805.735-1.1477.1379-.1837.2297-.3673.3675-.5051.3675-.5509.6432-1.0559.8269-1.6527 0-.0918.1378-.1836.2756-.1377z" fill-rule="evenodd"/><path clip-rule="evenodd" d="m91.9671 58.7177c.1378-.0918.2756-.0459.3675.0918.1838.3214.4135.6886.5972 1.01.0919.1836.1837.3214.2756.505.2756.505.5972.9641.9647 1.3314.0919.0918.0919.2754 0 .3672-.0919.0919-.2756.0919-.3675 0-.4134-.4131-.735-.964-1.0566-1.469-.0918-.1837-.1837-.3673-.2756-.551-.1837-.3213-.3675-.6427-.5512-.964-.0919-.0919-.046-.2296.0459-.3214z" fill-rule="evenodd"/><path clip-rule="evenodd" d="m88.1545 60.2326c.1378-.0459.2756.046.3215.1837.2757 1.01.5513 1.9741.8269 2.9841.0459.1377-.0459.2754-.1837.3213-.1379.0459-.2757-.0459-.3216-.1836-.2756-1.01-.5513-1.9741-.8269-2.9841 0-.1377.0459-.3214.1838-.3214z" fill-rule="evenodd"/><path clip-rule="evenodd" d="m93.5286 61.6105c.046.1377 0 .2755-.0918.3673-.6432.3673-1.3322.6886-2.0213 1.0559-.0459 0-.0459.0459-.0919.0459-.6431.3214-1.2862.6427-1.8834 1.01-.1378.0459-.2756 0-.3675-.0918-.0459-.1377 0-.2755.0919-.3214.6431-.3213 1.2862-.6886 1.9294-1.01.0459 0 .0459-.0459.0918-.0459.6891-.3673 1.3322-.6886 2.0213-1.0559.0919-.1377.2756-.0918.3215.0459z" fill-rule="evenodd"/><path clip-rule="evenodd" d="m95.9167 61.3341c-.6431 0-1.3781.2755-2.0213.5509-.1378.0459-.2756 0-.3215-.1377-.046-.1377 0-.2755.1378-.3214.6431-.2754 1.4241-.5968 2.205-.5968.1378 0 .2756.0918.2756.2755 0 .1836-.1378.2295-.2756.2295z" fill-rule="evenodd"/><path clip-rule="evenodd" d="m94.0797 58.1205c.1378-.0459.2756.0001.3216.0919.1378.3213.3215.5968.4594.9181.1837.4132.4134.7805.5971 1.1937 0 0 0 .0459.046.0459.0918.1377.1378.3214.1837.505.046.1377-.0459.2754-.1837.3213-.1378.046-.2757-.0459-.3216-.1836s-.0919-.2295-.1378-.4132c0 0 0-.0459-.0459-.0459-.1838-.4132-.4135-.7804-.5972-1.1477-.1378-.3214-.3216-.5968-.4594-.9182-.0459-.1377.0459-.2754.1378-.3673z" fill-rule="evenodd"/><path clip-rule="evenodd" d="m95.4119 56.9733c.1378.0459.1838.2295.1378.3213-.1378.3214-.3215.6428-.5053.9182-.1837.2755-.3675.5509-.5053.8723-.0459.1377-.2297.1836-.3216.1377-.1378-.0459-.1837-.2295-.1378-.3213.1378-.3214.3216-.5969.5053-.9182.1838-.2755.3675-.5509.5054-.8723.0459-.1377.1837-.1836.3215-.1377z" fill-rule="evenodd"/><path clip-rule="evenodd" d="m99.4082 56.2841c.0459.1377.0459.2755-.0919.3673-.1838.0918-.3675.2295-.5512.3214-.4594.2295-.8729.505-1.3322.7804-.1378.0918-.2756.0459-.3675-.0918s-.046-.2755.0919-.3673c.4593-.2754.9187-.5509 1.3781-.7804.1837-.0919.3675-.1837.5512-.3214.0919-.0918.2297-.0459.3216.0918z" fill-rule="evenodd"/><path clip-rule="evenodd" d="m99.4084 50.729c.0919.0918.0919.2755 0 .3673-.4134.4132-.8728.7345-1.3321 1.1018-.1838.1377-.3675.2755-.5513.4132-.0919.0918-.2756.0459-.3675-.0459s-.0459-.2755.0459-.3673c.1838-.1377.4135-.2754.5972-.4591.4594-.3213.8729-.6427 1.2404-1.01.0918-.0918.2756-.0918.3674 0z" fill-rule="evenodd"/><path clip-rule="evenodd" d="m96.5608 50.1331c.0919.0918.046.2754-.0459.3672-.1837.1378-.4134.2755-.5972.4591-.5512.4132-1.1025.8264-1.6997 1.1478-.1378.0918-.2756.0459-.3675-.0919-.0918-.1377-.0459-.2754.0919-.3672.5513-.3214 1.1025-.7346 1.6538-1.1019.2296-.1377.4134-.3213.6431-.459.0919-.0919.2756-.046.3215.0459z" fill-rule="evenodd"/><path clip-rule="evenodd" d="m95.918 50.5921c.0459-.1378.1837-.2296.3215-.1837.6432.1837 1.3322.2755 2.0213.3214h.0919c.1837 0 .3675.0459.5512.0918.1378.0459.1838.1836.1378.3214-.0459.1377-.1837.1836-.3215.1377s-.2297-.0459-.4135-.0918c-.0459 0-.0918 0-.1378 0-.6891-.0918-1.3781-.1837-2.1131-.3673-.0919.0459-.1378-.0918-.1378-.2295z" fill-rule="evenodd"/><path clip-rule="evenodd" d="m99.1792 50.5459c.1378 0 .2297.1377.2297.2755-.0459.5509-.0459 1.1477-.0459 1.7904-.046 1.5609-.0919 3.2596-.2757 4.5909 0 .1377-.1378.2296-.2756.2296s-.2297-.1378-.2297-.2755c.1378-1.3314.1838-2.9841.2297-4.545 0-.6427.0459-1.2395.0459-1.7904.046-.1837.1838-.2755.3216-.2755z" fill-rule="evenodd"/><path clip-rule="evenodd" d="m97.5716 45.0827c.0459.1377 0 .2754-.0919.3213-1.0106.505-2.2969 1.01-3.0778 1.2855-.1378.0459-.2757-.0459-.3216-.1836-.0459-.1378.0459-.2755.1838-.3214.735-.2296 2.0212-.7345 3.0318-1.2395.046-.046.1838-.0001.2757.1377z" fill-rule="evenodd"/><path clip-rule="evenodd" d="m90.7265 42.2359c.0919-.0919.2756-.0919.3675 0 .0459.0459.1378.1377.1838.1836 1.1943 1.1936 2.4346 2.4332 3.4912 3.7645.0919.0919.0919.2755-.0459.3673-.0919.0918-.2757.0918-.3675-.0459-1.0566-1.3314-2.251-2.525-3.4913-3.7186-.0459-.0459-.1378-.1378-.1837-.1837-.046-.0918-.046-.2754.0459-.3672z" fill-rule="evenodd"/><path clip-rule="evenodd" d="m92.8397 41.2271c.0919-.0919.2756-.0919.3675 0 .6431.6427 1.4241 1.4691 2.1591 2.2495.0459.0459.0918.0918.1378.1377.689.7346 1.3322 1.4691 1.7915 1.9282.0919.0918.0919.2755 0 .3673-.0918.0918-.2756.0918-.3675 0-.5053-.505-1.1484-1.1936-1.8375-1.9282-.0459-.0459-.0919-.0918-.1378-.1377-.735-.7805-1.47-1.6068-2.1131-2.2496-.1378-.1377-.1378-.2754 0-.3672z" fill-rule="evenodd"/><path clip-rule="evenodd" d="m93.5281 41.3178c.0919.1378.046.2755-.0919.3673-.8268.505-1.6078.8264-2.5265 1.1018-.1378.0459-.2756-.0459-.3216-.1836-.0459-.1377.046-.2755.1838-.3214.8728-.2295 1.6537-.5968 2.4347-1.0559.0918-.0459.2756 0 .3215.0918z" fill-rule="evenodd"/><path clip-rule="evenodd" d="m87.2816 40.1242c.1378-.0459.2757.046.3216.1837.2297.9641.3675 1.9741.5053 2.9382 0 .1377-.0919.2754-.2297.2754s-.2756-.0918-.2756-.2295c-.1378-.9641-.3216-1.9282-.5053-2.8923-.046-.0918.0459-.2295.1837-.2755z" fill-rule="evenodd"/><path clip-rule="evenodd" d="m87.4648 43.2923c.046-.1378.1838-.2296.3216-.1837.0459 0 .0919.0459.1838.0459.2756.0459.5971.1378.8728.2296.3675.1377.689.3213.9647.6886.0918.1377.0459.2755-.046.3673s-.2756.0459-.3675-.0459c-.1837-.2296-.4134-.3673-.689-.505-.2297-.0918-.5054-.1378-.781-.1837-.0459 0-.1378-.0459-.1837-.0459-.2297-.0918-.2757-.2295-.2757-.3672z" fill-rule="evenodd"/><path clip-rule="evenodd" d="m86.1328 41.5016c.0459.1378-.0459.2755-.1838.3214-1.8834.505-3.8587 1.01-5.6044 1.8363-.1378.046-.2756 0-.3215-.1377-.046-.1377 0-.2754.1378-.3213 1.7916-.8264 3.8128-1.3773 5.6963-1.8364.0918-.0459.2296 0 .2756.1377z" fill-rule="evenodd"/><path clip-rule="evenodd" d="m83.515 40.4462c.0918.0918.0918.2754 0 .3673-.3216.3213-.6432.6886-.9647 1.01-.5972.6427-1.1944 1.2395-1.8375 1.7904-.0919.0918-.2756.0918-.3675-.0459-.0919-.0918-.0919-.2755.0459-.3673.5972-.5509 1.1944-1.1018 1.7916-1.7445.3215-.3214.6431-.6887 1.0106-1.0559.0459-.0459.2297-.0459.3216.0459z" fill-rule="evenodd"/><path clip-rule="evenodd" d="m87.9251 40.3536c0 .1377-.0919.2754-.2297.2754-.6431.0919-1.6078.2755-2.5725.4591-.1378.0459-.2297.0459-.3675.0918-.8728.1837-1.6997.3673-2.3887.4591-.1378.0459-.2757-.0918-.2757-.2295-.0459-.1377.0919-.2755.2297-.2755.6432-.0918 1.516-.2754 2.3888-.4591.1378-.0459.2297-.0459.3675-.0918.9647-.1836 1.9294-.4132 2.6184-.505.0919.0459.1838.1378.2297.2755z" fill-rule="evenodd"/><path clip-rule="evenodd" d="m87.5563 40.1252c.0918.0918.0459.2754-.046.3672-.6891.505-1.3322 1.0559-1.9294 1.6987-.0918.0918-.2756.0918-.3675 0-.0918-.0918-.0918-.2755 0-.3673.6432-.5968 1.2863-1.2395 2.0213-1.7445.0919-.1378.2297-.0919.3216.0459z" fill-rule="evenodd"/><path clip-rule="evenodd" d="m76.9914 47.9756c0-.1377.1378-.2295.2757-.2295.1378 0 .2756 0 .4134.0459 1.1025.0918 2.5266.2295 3.675.2295.1378 0 .2756.0919.2756.2755 0 .1377-.0918.2755-.2756.2755-1.1484 0-2.6184-.1378-3.7209-.2296-.1379 0-.2757-.0459-.4135-.0459-.1378-.0459-.2756-.1836-.2297-.3214z" fill-rule="evenodd"/><path clip-rule="evenodd" d="m77.7268 47.2412c-.1378 0-.2756.0918-.2756.2755v5.6009c0 .1377.0918.2754.2756.2754.1378 0 .2756-.0918.2756-.2754v-5.6009c0-.1837-.1378-.2755-.2756-.2755z" fill-rule="evenodd"/><path clip-rule="evenodd" d="m79.2427 52.9786c-.5512 0-1.1025 0-1.5159 0-.1378 0-.2756-.0918-.2756-.2295s.0918-.2755.2297-.2755h1.5618.046 1.47c.1378 0 .2756.0919.2756.2296s-.0919.2754-.2297.2754c-.3675 0-.9187 0-1.47 0-.0459 0-.0459 0-.0919 0z" fill-rule="evenodd"/><path clip-rule="evenodd" d="m80.6672 52.1982c.1378 0 .2756.0919.2756.2296.0459.8264.1837 1.4232.3675 1.9741.1837.5509.5053 1.01.9647 1.5609.0919.0918.0919.2754 0 .3673-.0919.0918-.2756.0918-.3675 0-.5053-.5509-.8269-1.1019-1.0566-1.6987s-.3215-1.2854-.4134-2.1118c-.0459-.1836.0459-.3214.2297-.3214z" fill-rule="evenodd"/><path clip-rule="evenodd" d="m82.4578 55.4114c.0919.0918.1378.2296.046.3673-.4135.505-.8269 1.01-1.2863 1.515-.0459.0459-.0919.0918-.0919.1377-.4134.4591-.7809.9182-1.1484 1.3773-.0919.0918-.2297.1377-.3675.0459-.0919-.0918-.1378-.2296-.0459-.3673.3675-.4591.7809-.9182 1.1484-1.4232.0459-.0459.0919-.0918.0919-.1377.4134-.505.8728-1.01 1.2862-1.515.1378-.0459.2756-.0918.3675 0z" fill-rule="evenodd"/><path clip-rule="evenodd" d="m79.8384 57.6616c.0919-.0918.2757-.0918.3675.046.4135.459.8269.9641 1.2403 1.4231l.046.0459c.4134.4591.7809.9182 1.1944 1.3773.2756.3214.5053.5509.8268.8264.0919.0918.1378.2295.046.3673-.0919.0918-.2297.1377-.3675.0459-.3675-.2755-.6432-.5509-.9188-.8723-.4134-.4591-.7809-.9182-1.1944-1.3773l-.0459-.0459c-.4134-.4591-.8269-.9641-1.1944-1.4232-.0918-.1836-.0918-.3213 0-.4132z" fill-rule="evenodd"/><path clip-rule="evenodd" d="m85.9943 58.6255c.0919.0918.0919.2755 0 .3673-.4134.3673-.7809.7804-1.1944 1.1477-.4593.4591-.9647.9182-1.424 1.3773-.0919.0918-.2757.0918-.3675 0-.0919-.0918-.0919-.2755 0-.3673.4593-.4591.9647-.9182 1.424-1.3773.4135-.3672.781-.7804 1.1944-1.1477.0919-.0918.2756-.0918.3675 0z" fill-rule="evenodd"/><path clip-rule="evenodd" d="m85.3052 59.0393c.0919-.0918.2297-.1377.3675-.0459.4135.3214.8729.6886 1.3782.9641s1.0106.4591 1.47.3673c.1378-.0459.2756.0918.2756.2295.0459.1377-.0919.2755-.2297.2755-.6431.0918-1.2403-.1377-1.7916-.4132-.5512-.3214-1.0565-.7346-1.47-1.01-.0918-.0918-.0918-.2755 0-.3673z" fill-rule="evenodd"/><path clip-rule="evenodd" d="m85.7201 61.1969c.0459.1378-.046.2755-.1378.3214-.781.2755-1.516.3214-2.2969.4132-.1378 0-.2756-.0918-.2756-.2296 0-.1377.0918-.2754.2297-.2754.7809-.0459 1.47-.1377 2.159-.3673.1378-.0459.2756 0 .3216.1377z" fill-rule="evenodd"/><path clip-rule="evenodd" d="m86.8223 60.0489c.0459.1377-.0459.2754-.1837.3214-.0919 0-.1838.0459-.2757.1377-.0918.0918-.1837.2295-.2756.3673-.1378.2754-.2756.5968-.3675.8263 0 0 0 .0459-.0459.0459-.046.1378-.1838.1837-.3216.1378s-.1837-.1837-.1378-.3214c0 0 0-.0459.0459-.0459.0919-.2296.2297-.5968.3675-.9182.0919-.1836.2297-.3673.3675-.505s.3216-.2755.5053-.3214c.1838.0459.3216.1378.3216.2755z" fill-rule="evenodd"/><path clip-rule="evenodd" d="m79.931 45.771c.0919.0918.1378.2296.046.3673-.6432.7345-1.2863 1.4691-2.0672 2.0659-.0919.0918-.2757.0459-.3675-.0459-.0919-.0918-.046-.2755.0459-.3673.735-.5509 1.3781-1.2395 1.9753-1.9741.0919-.1377.2756-.1377.3675-.0459z" fill-rule="evenodd"/><path clip-rule="evenodd" d="m78.0017 46.4134c.046-.1378.1838-.2296.3216-.1837.5972.1377 1.9294.3214 2.8022.4591.1837.0459.3675.0459.5053.0459s.2297.1377.2297.2755c0 .1377-.1378.2295-.2757.2295-.1378 0-.2756-.0459-.4593-.0459-.8728-.1377-2.251-.3214-2.8482-.4591-.2296-.0459-.3215-.1836-.2756-.3213z" fill-rule="evenodd"/><path clip-rule="evenodd" d="m84.2953 48.7559c.1378 0 .2756.0918.2756.2754 0 1.1477-.0459 2.0659-.0918 2.8923v.0918c-.046.8264-.0919 1.6527-.0919 2.6168 0 .1378-.0919.2755-.2756.2755-.1838 0-.2757-.0918-.2757-.2755 0-1.01.046-1.7904.0919-2.6168 0-.0459 0-.0459 0-.0918.0459-.8723.0919-1.7446.0919-2.8923 0-.1377.1378-.2754.2756-.2754z" fill-rule="evenodd"/><path clip-rule="evenodd" d="m83.6074 53.3003c.0918-.0918.2756-.0918.3675 0 .9187 1.01 1.8375 2.02 2.8481 2.8923.0919.0918.0919.2754 0 .3673-.0919.0918-.2756.0918-.3675 0-1.0106-.9182-1.9753-1.9282-2.8941-2.9382-.0459-.0918-.0459-.2296.046-.3214z" fill-rule="evenodd"/><path clip-rule="evenodd" d="m90.9557 55.3206c.0459.1377-.0459.2754-.1837.3213-1.7916.505-3.0779.7805-4.8694 1.01-.1378 0-.2756-.0918-.2756-.2295s.0918-.2755.2296-.2755c1.7916-.2754 3.0319-.505 4.7775-1.01.1379-.0459.2757.046.3216.1837z" fill-rule="evenodd"/><path clip-rule="evenodd" d="m91.2774 50.5459c.1378 0 .2297.1377.2297.2755-.1378.7804-.2756 1.5609-.4134 2.3413-.046.1377-.046.3214-.0919.4591-.1838.9182-.3216 1.8823-.4594 2.8005 0 .1377-.1378.2295-.2756.2295s-.2297-.1377-.2297-.2754c.1378-.9641.2756-1.8823.4594-2.8464.0459-.1377.0459-.3214.0919-.4591.1378-.7805.2756-1.5609.4134-2.3414 0-.0918.1378-.1836.2756-.1836z" fill-rule="evenodd"/><path clip-rule="evenodd" d="m87.0976 47.562c.0919-.0918.2756-.0918.3675.0459.4594.551.9187 1.056 1.3781 1.6069.8728 1.01 1.7916 2.0659 2.6185 3.1218.0918.0918.0918.2754-.046.3673-.0919.0918-.2756.0918-.3675-.046-.8269-1.0559-1.7456-2.0659-2.6184-3.0759-.4594-.5509-.9188-1.0559-1.3781-1.6068-.046-.1836-.046-.3213.0459-.4132z" fill-rule="evenodd"/><path clip-rule="evenodd" d="m88.8894 48.066c.0459.1377 0 .2754-.1378.3213-1.6078.7346-3.2616 1.2855-4.9153 1.8364-.2297.0918-.4135.1377-.6431.2295-.1379.0459-.2757-.0459-.3216-.1377-.0459-.1377.0459-.2755.1378-.3214.2297-.0918.4134-.1377.6431-.2295 1.6538-.5509 3.3075-1.1018 4.8694-1.8364.1838-.0459.3216.0459.3675.1378z" fill-rule="evenodd"/><path clip-rule="evenodd" d="m86.4084 48.7559c.1379 0 .2757.0918.2757.2754v4.0859c0 .1378-.0919.2755-.2757.2755-.1378 0-.2756-.0918-.2756-.2755v-4.0859c0-.1377.0919-.2754.2756-.2754z" fill-rule="evenodd"/><path clip-rule="evenodd" d="m85.9947 52.8872c.0919-.0918.2756-.0918.3675 0 .8269.8264 1.47 1.3314 2.2969 1.9741.2297.1836.4594.3673.689.5509.0919.0918.1379.2296.046.3673-.0919.0918-.2297.1377-.3675.0459-.2297-.1836-.4594-.3673-.6891-.5509-.8269-.6427-1.47-1.1936-2.3428-2.02-.0919-.0918-.0919-.2296 0-.3673z" fill-rule="evenodd"/><path clip-rule="evenodd" d="m86.9133 52.5191c.0919.0918.1379.2754.046.3672-.3675.4591-.9647.6887-1.5619.8723-.3675.0918-.7809.1836-1.1025.2755-.1837.0459-.3675.0918-.5512.0918-.1378.0459-.2757-.0459-.3216-.1837-.0459-.1377.0459-.2754.1838-.3213.1837-.0459.3675-.0918.5971-.1377.3216-.046.6891-.1378 1.0107-.2296.5512-.1377 1.0106-.3673 1.2862-.6886.1838-.1377.3216-.1377.4134-.0459z" fill-rule="evenodd"/><path clip-rule="evenodd" d="m87.9235 43.0631c.0459.1378.0459.2755-.0919.3673-.5053.2755-1.0106.5509-1.5159.8723-.1378.0918-.2756.0459-.3675-.0918-.0919-.1378-.0459-.2755.0919-.3673.5053-.3214 1.0106-.5968 1.5159-.9182.1838-.0459.3216 0 .3675.1377z" fill-rule="evenodd"/><path clip-rule="evenodd" d="m95.6878 47.7461c.0459.1378 0 .2755-.1378.3214-1.0106.4591-2.0213.9182-3.0778 1.2854-.1378.046-.2756-.0459-.3216-.1836-.0459-.1377.046-.2754.1838-.3214 1.0106-.3213 2.0212-.7804 3.0318-1.2395.1379 0 .2757.0459.3216.1377z" fill-rule="evenodd"/><path d="m92.3797 44.1191c-.0918 0-.1837-.046-.2297-.1378-.0459-.1377 0-.2295.1378-.2754.3675-.1378.735-.2755 1.1025-.4132s.735-.2296 1.1025-.3673c.1379-.0459.2297 0 .2757.1377.0459.1378 0 .2296-.1378.2755-.3675.1377-.735.2755-1.1025.4132s-.735.2295-1.1025.3673c0 0 0 0-.046 0z"/><path d="m93.5282 45.6797c-.0919 0-.1838-.046-.2297-.1378-.046-.1377 0-.2295.1378-.2754.9187-.3673 1.7456-.6428 2.5725-1.01.1378-.0459.2297 0 .3215.1377.046.1377 0 .2295-.1378.3214-.8268.3213-1.6537.6886-2.5725 1.01-.0459-.0459-.0459-.0459-.0918-.0459z"/><path d="m84.3412 51.6023c-.0918 0-.1837-.0919-.2296-.1837-.046-.1377.0459-.2295.1837-.2754l.2756-.0459c.5053-.1378 1.0566-.2296 1.516-.3673.1378-.0459.2296.0459.2756.1377.0459.1377-.046.2296-.1378.2755-.5053.1377-1.0566.2754-1.5619.4131l-.2756.046z"/><path d="m85.5349 55.228c-.0919 0-.1838-.0459-.2297-.1836-.046-.1377.0459-.2296.1378-.2755.5513-.1836 1.4241-.4591 2.2969-.6427.1378-.0459.2297.0459.2756.1836.0459.1378-.0459.2296-.1838.2755-.8728.1836-1.6996.4591-2.2968.6427z"/><path d="m92.2883 59.4066c-.0919 0-.2297-.0918-.2297-.1836 0-.1378.0919-.2296.1837-.2755.735-.0918 1.47-.1836 2.1132-.5509.0918-.0459.2297-.0459.3215.0918.046.0918.046.2296-.0918.3214-.735.4132-1.516.505-2.2969.5968z"/><path d="m97.526 54.9539c-.0919 0-.1838-.0459-.1838-.1377-.0459-.0918 0-.2295.0919-.3214l.2756-.1377c.4594-.2295.8728-.4132 1.2403-.7345.0919-.0918.2297-.0918.3216 0s.0919.2295 0 .3213c-.4134.3673-.8728.5969-1.3322.8264l-.2756.1377c-.0459.0459-.0919.0459-.1378.0459z"/><path d="m83.2397 42.4654c-.0919 0-.1378-.0459-.1838-.0918-.0918-.0918-.0459-.2295.046-.3214.5512-.3672 1.0106-.7345 1.424-1.0559.0919-.0918.2297-.0459.3216.0459.0919.0919.0459.2296-.0459.3214-.4135.3214-.8728.6886-1.4241 1.0559-.0459.0459-.0919.0459-.1378.0459z"/><path d="m25.5873 81.3049c-.3675 0-.7809 0-1.1943 0h-1.3782c-.1378 0-.2296-.0918-.2296-.2296 0-.1377.0918-.2295.2296-.2295h1.3782c4.5937 0 6.9365 0 10.5656-.9182-.4594-.2295-.8728-.5509-1.0106-.9641-.1378-.3672-.0919-.7345.0918-1.0559.735-1.3313 3.675-2.0659 4.6857-2.2954l.1378-.0459c.0459 0 5.3287-1.2855 6.0178-.4132.0919.0918.1837.2754.0459.5509-.5972 1.1936-2.3428 2.2954-5.145 3.2595-1.1025.3673-2.0672.6887-2.9859.9641.5972.0918 1.1944.0918 1.6537.1377.2757 0 .5054 0 .6891.046 4.3181.2754 8.5444.3672 12.5869.2295 2.3428-.0918 4.1344-.2754 5.6962-.4132 2.6185-.2754 4.8694-.4591 8.6363-.1836.1378 0 .2297.1377.2297.2295s-.1378.2296-.2297.2296c-3.721-.2755-5.926-.0459-8.5444.1836-1.5619.1377-3.3534.3214-5.6962.4132-4.0885.1377-8.3147.0459-12.6788-.2296-.1837 0-.4134 0-.6431-.0459-.735-.0459-1.7916-.0459-2.6644-.2754-3.7669.9641-6.1097 1.0559-10.2441 1.0559zm18.1913-6.0141c-1.1484 0-3.3075.3673-4.8234.7346l-.1379.0459c-2.4806.5968-3.9506 1.3313-4.364 2.0659-.1378.2295-.1378.4591-.046.6886.1838.4591.735.7345 1.3782.9182 1.1025-.3214 2.3887-.6886 3.8587-1.1936 2.6644-.8723 4.3181-1.9282 4.8694-3.03.0459-.046.0459-.0919.0459-.0919-.0918-.0918-.3675-.1377-.7809-.1377z"/><path d="m62.9799 82.4528c-.0459 0-.1378-.0459-.1837-.0918-.0919-.0919-.046-.2296.0459-.3214.735-.5968 1.5619-1.1936 2.4347-1.8823 1.5619-1.1936 3.2156-2.4331 4.6856-3.6268.0919-.0918.2297-.0459.3216.0459s.0459.2296-.046.3214c-1.47 1.1936-3.1237 2.4332-4.6856 3.6268-.8728.6427-1.6997 1.2855-2.4347 1.8823-.0459.0459-.0918.0459-.1378.0459z"/><path d="m91.0016 77.4025h-23.52c-.1378 0-.2296-.0919-.2296-.2296s.0918-.2295.2296-.2295h23.52c.1379 0 .2297.0918.2297.2295s-.0918.2296-.2297.2296z"/><path d="m69.365 82.4064c-2.5266 0-5.0072 0-7.5337-.0918-.1379 0-.2297-.0919-.2297-.2296s.0918-.2295.2297-.2295c5.0071.1377 10.0603.0918 15.0215.0459 2.4806 0 5.0072-.0459 7.4878-.0459.1378 0 .2297.0918.2297.2295s-.0919.2296-.2297.2296c-2.4806 0-5.0072 0-7.4878.0459-2.4806 0-5.0072.0459-7.4878.0459z"/><path d="m82.9174 82.2695c-.0919 0-.1378-.0459-.1837-.0918-.0919-.0918-.046-.2296.0459-.3214.5053-.3672 1.0106-.7345 1.5159-1.1018 2.0672-1.4691 4.2263-2.9841 6.1097-4.6827.0919-.0918.2297-.0918.3216 0s.0919.2295 0 .3214c-1.9294 1.6986-4.0884 3.2136-6.1556 4.7286-.5053.3673-1.0107.7345-1.516 1.1018-.0459.0459-.0918.0459-.1378.0459z"/><path d="m62.8426 86.2168c-.0919 0-.1838-.0918-.2297-.1836-.2297-1.1477-.1378-2.2955-.0459-3.4891l.0459-.4591c0-.1377.1378-.2295.2297-.2295.1378 0 .2297.1377.2297.2295l-.046.4591c-.0918 1.1477-.1837 2.2495.046 3.3514 0 .1836-.046.2754-.2297.3213z"/><path d="m74.3267 86.3546c-3.7209 0-7.4878-.0459-11.8978-.1377-.1378 0-.2297-.0918-.2297-.2295 0-.1378.0919-.2296.2297-.2296 8.0391.1377 13.8731.2296 21.1772 0 .1378 0 .2297.0918.2297.2296 0 .1377-.0919.2295-.2297.2295-3.2616.0918-6.2475.1377-9.2794.1377z"/><path d="m83.1926 86.8137c-.1378 0-.2297-.0918-.2297-.2295v-4.8205c0-.1377.0919-.2295.2297-.2295s.2297.0918.2297.2295v4.8205c0 .1377-.0919.2295-.2297.2295z"/><path d="m89.3937 81.9017c-.1378 0-.2296-.0918-.2296-.2295v-5.4173c0-.1377.0918-.2295.2296-.2295.1379 0 .2297.0918.2297.2295v5.4173c0 .1377-.0918.2295-.2297.2295z"/><path d="m82.9623 86.4475c-.0918 0-.1378-.0459-.1837-.0919-.0919-.0918-.0459-.2295.0459-.3213.5053-.3673 1.0107-.7346 1.516-1.1018 2.4347-1.6987 4.9153-3.4891 7.0284-5.6009.0919-.0919.2297-.0919.3216 0 .0918.0918.0918.2295 0 .3213-2.1591 2.1577-4.6397 3.9023-7.0744 5.6468-.5053.3673-1.0106.7346-1.5159 1.1019-.046.0459-.0919.0459-.1379.0459z"/><path d="m115.624 81.3044c-.414-.0459-.873-.1377-1.379-.1836-1.194-.1378-2.618-.2755-3.858-.6887-.965.3214-2.068.4132-2.986.505h-.138c-2.435.1837-5.053.2296-8.5445.0459-.6891-.0459-1.4241-.0918-2.1591-.0918-2.894-.1836-6.2015-.3673-9.6468.2755-.1378 0-.2297-.0459-.2757-.1837-.0459-.1377.046-.2295.1838-.2754 3.5372-.6887 6.8447-.4591 9.7387-.3214.735.0459 1.47.0918 2.1591.0918 3.4455.1837 6.0635.1378 8.4525-.0459h.138c.735-.0459 1.516-.1377 2.297-.3213-.735-.3214-1.332-.7346-1.654-1.3314-.138-.2754-.092-.505-.046-.6427.368-.7346 2.113-.9182 2.113-.9182.919-.0918 2.067.2295 2.389.9182.138.3213.138.8263-.597 1.4691-.23.1836-.506.3672-.781.505 1.056.2754 2.251.4132 3.215.505.552.0459 1.011.0918 1.379.1836.137 0 .229.1377.183.2755.046.1377-.092.2295-.183.2295zm-5.237-3.5809c-.092 0-.184 0-.276 0-.505.0459-1.608.3214-1.792.6886-.045.0459-.045.0918 0 .2296.368.6427 1.103 1.0559 1.976 1.3313.459-.1836.827-.3672 1.194-.6886.276-.2295.597-.5968.46-.9182-.092-.4132-.873-.6427-1.562-.6427z"/><path d="m113.466 82.4978c-.091 0-.183-.0459-.229-.1377s0-.2295.092-.3214c3.583-1.6986 7.074-3.6727 10.473-5.6009l1.654-.9182c.092-.0459.23-.0459.322.0919.046.0918.046.2295-.092.3213l-1.654.9182c-3.399 1.9282-6.891 3.9023-10.52 5.6009 0 .0459 0 .0459-.046.0459z"/><path d="m129.775 82.2236c-.046 0-.046 0-.092 0-2.619-1.01-3.905-3.3973-5.099-5.6928l-.138-.2754c-.046-.0918 0-.2296.092-.3214.092-.0459.229 0 .321.0918l.138.2755c1.194 2.2495 2.389 4.545 4.869 5.4632.138.0459.184.1836.138.2754-.046.1378-.138.1837-.229.1837z"/><path d="m121.78 91.4049c-.046 0-.137-.0459-.183-.0918-2.343-2.6628-6.11-7.4832-7.58-9.4114-.092-.0918-.046-.2296.046-.3214s.23-.0459.321.0459c1.516 1.9282 5.237 6.7487 7.58 9.4114.092.0918.092.2295 0 .3214-.092.0459-.138.0459-.184.0459z"/><path d="m121.642 91.4511c-.046 0-.138-.0459-.183-.0918-.092-.0918-.092-.2296.046-.3214 1.607-1.3772 3.261-2.525 4.869-3.6268 1.47-1.01 2.894-1.9741 4.18-3.0759.092-.0918.23-.0459.322.0459s.046.2296-.046.3214c-1.332 1.1018-2.711 2.0659-4.226 3.1218-1.608 1.1018-3.262 2.2495-4.824 3.5809-.046.0459-.092.0459-.138.0459z"/><path d="m13.552 83.3702c-.1379 0-.2297-.0918-.2297-.2295v-8.4932c0-.1377.0918-.2295.2297-.2295.1378 0 .2296.0918.2296.2295v8.4932c0 .1377-.0918.2295-.2296.2295z"/><path d="m12.4044 83.371c-.0919 0-.1378-.0459-.1838-.0918-.0918-.0918-.0459-.2295.046-.3213.735-.505 1.6078-1.1019 2.5725-1.6987 1.1484-.7345 2.4347-1.5609 3.629-2.4332.1838-.1377.1838-.1836.1838-.1836-.0459-.0459-.3675-.1836-.6431-.2754-.3216-.1378-.735-.3214-1.1485-.551-.5512-.3213-1.0106-.5509-1.47-.7804-1.1484-.5968-2.0212-1.1018-3.1697-2.02-.0918-.0918-.0918-.2296-.0459-.3214.0919-.0918.2297-.0918.3216-.0459 1.1025.9182 1.9753 1.3773 3.0778 1.9741.4594.2296.9187.505 1.47.8264.4134.2295.7809.3672 1.1025.505.5053.2295.8728.3672.9187.6886.046.2296-.1837.4591-.3675.5968-1.1943.8723-2.4806 1.6987-3.629 2.4332-.9647.5968-1.8375 1.1936-2.5725 1.6986 0 0-.046 0-.0919 0z"/><path d="m14.9754 86.9516c-1.1944 0-2.4807-.1837-3.721-.6428-2.66434-.9181-3.67497-2.3872-4.73153-5.1877-.09188-.5509-.22969-1.4691-.18375-2.4332-.04594-.0459-.09188-.0918-.09188-.1377-.3675-1.8823 1.24032-4.1777 1.92938-5.0959 1.92938-2.525 6.56908-2.2955 8.49848-2.0659 2.894.3673 5.834 2.8463 6.615 5.6927.8728 3.03-.5972 5.8764-2.205 7.575-1.516 1.515-3.721 2.2955-6.1097 2.2955zm-3.675-14.8287c0 .0919-.0919.1378-.1378.1837-1.79161.505-2.43473 1.1477-3.58317 2.9841-.91875 1.4231-.91875 4.2695-.59719 5.7386 1.01063 2.6627 1.92938 3.9941 4.45596 4.8664 3.5831 1.1936 7.2122.5968 9.3253-1.5609 1.5619-1.561 2.8941-4.2696 2.1131-7.116-.8269-2.6627-3.5831-5.004-6.3394-5.3254-1.1484-.1377-3.3075-.2755-5.2368.2295z"/><path d="m123.893 89.3387c-.092 0-.184-.0459-.184-.1378-.046-.0918 0-.2295.092-.3213.965-.505 1.792-.9182 2.389-1.7905.505-.6886.965-1.4232 1.149-2.2495.137-.6428.091-1.1477-.23-1.6987-.138-.3213-.276-.4591-.322-.505-.046 0-.046 0-.092 0-.092 0-.229-.1377-.229-.2295 0-.1377.137-.2296.275-.2296.046 0 .138.046.184.046h.322.229c.552 0 1.011-.046 1.424-.1837h.046c.046 0 .322-.1377.414-.1836.046-.0459.092-.0459.184-.0459.137 0 .229.0918.229.2295 0 .2755-.551.4132-.781.4591-.413.1377-.918.1836-1.516.1836-.046 0-.046 0-.092 0 .046.0919.092.1837.184.3214.322.5968.414 1.2396.23 1.9741-.184.9182-.735 1.6986-1.24 2.4332-.69.9641-1.608 1.4691-2.573 1.9741 0-.0459-.046-.0459-.092-.0459z"/><path d="m65.9202 86.079c-.0459 0-.0918 0-.1378-.0459-.5512-.4132-1.1025-.7805-1.6537-1.1477-.5513-.3673-1.1025-.7805-1.6538-1.1478-.0918-.0918-.1378-.2295-.0459-.3213.0919-.0919.2297-.1378.3216-.0459.5512.3672 1.1024.7804 1.6537 1.1477.5512.3673 1.1025.7804 1.6538 1.1477.0918.0918.1378.2296.0459.3214-.046.0459-.0919.0918-.1838.0918z"/><path d="m70.193 86.217c-.0459 0-.0918 0-.1378-.0459-1.1484-.9182-2.2968-1.7446-3.5372-2.6168-.4593-.3214-.8728-.6428-1.3321-.9641-.0919-.0918-.1379-.2296-.046-.3214s.2297-.1377.3216-.0459c.4594.3214.8728.6427 1.3322.9641 1.1943.8264 2.3887 1.6986 3.5372 2.6627.0918.0918.0918.2296.0459.3214-.0459 0-.1378.0459-.1838.0459z"/><path d="m75.1546 86.2639c-.0459 0-.0919 0-.0919-.0459-1.424-.7805-2.8022-1.7446-4.1343-2.6627-.5054-.3673-1.0107-.6887-1.516-1.0559-.0918-.0919-.1378-.2296-.0459-.3214s.2297-.1377.3215-.0459c.5054.3213 1.0107.6886 1.516 1.0559 1.2862.9182 2.6644 1.8363 4.0884 2.6168.0919.0459.1378.1836.0919.3214-.0459.0918-.1378.1377-.2297.1377z"/><path d="m78.8294 85.8959c-.0459 0-.0918 0-.1378-.0459-1.8375-1.1018-3.629-2.2955-5.3747-3.4891-.0918-.0918-.1378-.2296-.0918-.3214.0918-.0918.1837-.1377.3215-.0918h.046c1.7456 1.1477 3.5371 2.3873 5.3746 3.4432.0919.0459.1379.1836.0919.3213-.0919.1378-.1378.1837-.2297.1837z"/><path d="m83.3299 85.7121c-.0459 0-.0918 0-.1378-.0459-1.6997-1.0559-3.3534-2.2037-5.0531-3.4891-.0919-.0918-.1378-.2296-.046-.3214.0919-.0918.2297-.1377.3216-.0459 1.6997 1.2855 3.3534 2.4332 5.0531 3.4891.0919.0459.1378.2295.0919.3214-.0919.0459-.1378.0918-.2297.0918z"/><path d="m86.6381 84.2434c-.0459 0-.0919 0-.0919-.046l-.1378-.0459c-.1378-.0918-.3215-.1377-.5053-.2754-.735-.4591-1.3781-1.0559-2.0212-1.6527-.1838-.1837-.3675-.3214-.5513-.505-.0918-.0919-.0918-.2296 0-.3214.0919-.0918.2297-.0918.3216 0 .1837.1836.3675.3213.5512.505.6432.5968 1.2404 1.1477 1.9754 1.6068.1378.0918.2756.1836.4134.2296l.1378.0918c.0919.0459.1378.1836.0919.3213 0 .0459-.0919.0919-.1838.0919z"/><path d="m88.8898 82.5906c-.0459 0-.1378 0-.1837-.0459s-.0919-.0918-.1838-.1377l-.0918-.0459c-.8728-.505-1.8375-1.1018-2.8482-1.7446-.0918-.0918-.1378-.2295-.0459-.3213s.2297-.1377.3216-.0459c1.0106.6427 1.9293 1.2395 2.8481 1.7445l.0919.0918c.0918.0459.1837.0918.2756.1837.0919.0918.0919.2295 0 .3213-.0459 0-.1378 0-.1838 0z"/><path d="m89.7164 80.3861c-.0459 0-.0918 0-.1378-.0459l-1.7915-1.515c-.0919-.0919-.0919-.2296-.046-.3214.0919-.0918.2297-.0918.3216-.0459l1.7915 1.515c.0919.0918.0919.2295.046.3214-.046.0459-.1378.0918-.1838.0918z"/><path d="m87.0056 81.6258c-.4134 0-1.1484-.1377-1.2403-.6427-.1837-.5968.5513-.8723.9188-1.01.0919-.0459.1378-.0459.1837-.0918.0919-.0459.2297 0 .3216.0918.0459.0459.0459.0918 0 .1836h.0459s.5054-.0918.781.0919c.0459 0 .1378-.0459.1837-.0459h.0919c.2297 0 .4134 0 .5053.1836.0459.0918 0 .1836-.0459.2754-.0919.1837-.3675.2755-.5053.3214-.0919.0459-.1378.0918-.2297.0918-.1838.3214-.6432.505-1.0107.5509.046 0 .046 0 0 0zm-.5053-1.0559c-.1837.0918-.3215.1837-.2756.3214 0 .0459.0459.0918.0919.1377 0-.0459 0-.0918 0-.0918.0459-.1836.0919-.2755.1837-.3673zm.2757.3673c.1378 0 .4134-.0459.4593-.0459.0919-.0459.1378-.0459.2297-.0918-.0459-.0459-.0459-.0459-.0459-.0918 0-.046 0-.046 0-.0919h-.046c-.1837.0459-.4593.1378-.5971.3214z"/><path d="m64.9553 80.8c-.0919 0-.1378 0-.2297 0-.3216-.046-.5512-.2755-.6431-.6428-.0919-.4131.0459-.6427.1837-.7804.4594-.4591 1.3782-.3214 1.6997-.2755.4135.0918.4134.2755.4134.4132s-.1378.2295-.2756.3214c.046 0 .0919 0 .1378.0459.0919.0918.1379.2295.046.3213-.2297.3214-.781.5969-1.3322.5969zm-.3216-.5509c.046.0459.0919.0918.1838.0918.3215.0459.735-.0919.9647-.2755-.046 0-.0919 0-.2297 0-.3675.1377-.781.1837-.9188.1837zm.6891-.7346c-.2756 0-.5972.0459-.735.1836.1837-.0459.4594-.0459.8728-.0918.0919-.0459.1838-.0459.2297-.0918-.0919 0-.2297 0-.3675 0z"/><path d="m127.661 86.8137c-.046 0-.046 0-.092 0-.919-.4132-.965-.4591-.965-.505-.092-.0918-.092-.2296 0-.3214s.23-.0918.276 0c.046 0 .183.0918.873.4591.091.0459.183.1836.091.3214 0 0-.092.0459-.183.0459zm1.378-1.1477c-.046 0-.046 0-.092 0-.368-.1837-.643-.3214-.873-.4591-.322-.1837-.551-.3214-.919-.4591-.138-.0459-.183-.1837-.138-.2755.046-.1377.184-.1836.276-.1377.414.1377.689.3214 1.011.505.229.1377.505.2755.827.4591.092.0459.183.1836.091.3213 0 0-.091.046-.183.046z"/><path d="m129.039 83.5999h-.046c-.689-.1837-1.424-.4591-1.837-.5968-.138-.046-.23-.0919-.23-.0919-.092 0-.184-.0918-.184-.2295s.092-.2296.23-.2296c.046 0 .092 0 .367.0919.414.1377 1.149.4131 1.792.5968.138.0459.184.1377.184.2754-.092.0919-.184.1837-.276.1837z"/><path d="m115.578 80.9827c-1.608 0-1.791-.2754-1.837-.4132-.092-.1377-.092-.2754 0-.4131.184-.3214.689-.4132 1.01-.4591h.138c.184 0 1.011 0 1.378.4591.092.1836.046.2754.046.3213-.046.0918-.183.1377-.275.1377l.046.1378v.2295-.2295l-.046.2295c-.23 0-.322 0-.46 0zm-1.424-.5968c.138.0918.551.1377 1.516.1836-.046-.0459-.046-.0918-.046-.1377s0-.0459.046-.0918c-.184-.0918-.505-.1377-.735-.1377 0 0-.046 0-.092 0-.183 0-.597.0459-.689.1836z"/><path d="m67.6197 67.7617c-.0459 0-.0918 0-.0918-.0459-.0919-.0459-.1378-.1836-.0919-.3214.4134-.8263.8728-1.6068 1.2862-2.3413.9188-1.6528 1.8375-3.2137 2.5266-5.3714.7809-2.6168 1.6078-5.4173 1.6997-8.4473 0-.1377.0919-.2295.2297-.2295s.2297.0918.2297.2295c-.0919 3.0759-.9188 5.9223-1.6997 8.5391-.6891 2.2037-1.6078 3.7646-2.5266 5.4632-.4134.7346-.8728 1.515-1.2862 2.3414-.0919.1377-.1838.1836-.2757.1836z"/><path d="m70.7436 67.3955c-.0459 0-.0919 0-.1378-.0459-.0919-.0919-.1378-.2296-.046-.3214.735-1.1477 1.47-2.2496 2.205-3.3973.735-1.1018 1.4241-2.2495 2.1591-3.3513.0919-.0919.2297-.1378.3216-.046.0918.0919.1378.2296.0459.3214-.735 1.1018-1.47 2.2496-2.1591 3.3514-.735 1.1477-1.47 2.2495-2.205 3.3973-.0459.0459-.0918.0918-.1837.0918z"/></g><path d="m120.311 87.962c0 2.3872-1.975 4.3613-4.364 4.3613s-5.283-1.9741-5.283-4.3613c0-2.3873 2.894-4.3614 5.283-4.3614s4.364 1.9741 4.364 4.3614z" fill="#fff"/><path d="m115.211 92.4602c-1.837 0-3.445-.9182-4.272-2.3872-.781-1.4232-.643-3.1219.367-4.6828 1.792-2.3413 5.237-2.6627 7.856-.7345 1.286.9641 1.745 2.6627 1.194 4.3154-.551 1.6069-2.205 3.4891-5.145 3.4891zm-3.537-6.7945c-.919 1.4232-1.011 2.9382-.322 4.1777.735 1.3314 2.205 2.1577 3.859 2.1577 2.664 0 4.18-1.6986 4.686-3.1677.505-1.515.092-2.9841-1.011-3.8104-2.389-1.7905-5.558-1.515-7.212.6427z" fill="#000"/><path d="m114.063 87.0896c-.046 0-.092 0-.092-.0459-.092-.0459-.138-.1836-.092-.3213.368-.6428 1.333-1.2855 2.068-1.7905l.229-.1836c.092-.0918.23-.0459.322.0459s.046.2295-.046.3214l-.23.1836c-.689.4591-1.654 1.1018-1.929 1.6527-.092.0918-.138.1377-.23.1377z" fill="#000"/><path d="m116.681 87.7786c-.046 0-.092 0-.092-.0459-.689-.3673-1.745-.7345-2.48-.7345-.138 0-.23-.0919-.23-.2296s.092-.2295.23-.2295c.826 0 1.929.4131 2.664.8263.092.0459.138.1837.092.3214 0 .0459-.092.0918-.184.0918z" fill="#000"/><path d="m115.533 91.0372c-.597 0-1.241-.2754-1.838-.7804-.092-.0918-.092-.2296-.046-.3214.092-.0918.23-.0918.322-.0459.689.5968 1.332.7805 1.929.6427.781-.1836 1.378-.9641 1.654-1.6068.23-.5509.23-1.1477 0-1.6068-.184-.4591-.551-.7805-1.011-.9182-.597-.1836-1.837.0918-2.296.5509-.092.0918-.23.0918-.322 0s-.092-.2295 0-.3213c.551-.551 1.975-.9182 2.756-.6428.597.1837 1.011.5968 1.286 1.1478.276.5968.276 1.3313 0 1.9741-.321.7804-1.01 1.6527-1.975 1.8822-.138.0459-.275.0459-.459.0459z" fill="#000"/></svg>