<svg fill="none" height="51" viewBox="0 0 50 51" width="50" xmlns="http://www.w3.org/2000/svg" xmlns:xlink="http://www.w3.org/1999/xlink"><linearGradient id="a" gradientUnits="userSpaceOnUse" x1="48.1096" x2="-9.09503" y1="-61.2842" y2="174.425"><stop offset=".262754" stop-color="#b2eec0"/><stop offset=".949452" stop-color="#62f91f" stop-opacity=".69"/></linearGradient><path clip-rule="evenodd" d="m8.46317 9.75067 8.23593-6.69169 5.1474 2.05898 2.059 2.57373h4.118l3.6032-6.69169 8.2359 5.14745 2.5738 4.63275-2.5738 3.6032 2.5738 3.0884h4.6327l1.5442 3.0885-1.5442 10.8097h-5.6622l-4.118 6.1769 2.059 4.6327-8.7507 5.6622-2.5737-4.6327h-6.177l-4.1179 5.6622-8.23594-4.6327-3.60321-2.059 3.60321-6.1769v-2.059h-3.60321l-4.11797-3.6032v-10.2949l5.6622-.5148 3.60322-5.1474zm10.29553 14.41363 8.2359-6.6917 2.5738 2.5737-.5148 8.2359-7.2064 5.6622-3.0885-2.5737z" fill="#fff" fill-rule="evenodd"/><path clip-rule="evenodd" d="m8.46317 9.75067 8.23593-6.69169 5.1474 2.05898 2.059 2.57373h4.118l3.6032-6.69169 8.2359 5.14745 2.5738 4.63275-2.5738 3.6032 2.5738 3.0884h4.6327l1.5442 3.0885-1.5442 10.8097h-5.6622l-4.118 6.1769 2.059 4.6327-8.7507 5.6622-2.5737-4.6327h-6.177l-4.1179 5.6622-8.23594-4.6327-3.60321-2.059 3.60321-6.1769v-2.059h-3.60321l-4.11797-3.6032v-10.2949l5.6622-.5148 3.60322-5.1474zm10.29553 14.41363 8.2359-6.6917 2.5738 2.5737-.5148 8.2359-7.2064 5.6622-3.0885-2.5737z" fill="url(#a)" fill-rule="evenodd"/><g stroke="#000" stroke-linecap="round" stroke-linejoin="round"><path d="m10.9082 23.9062c1.63-2.874 3.2601-5.748 4.8901-8.622"/><path d="m12.4531 11.6807c.9128 1.8509 1.7665 3.7143 2.9598 5.4048"/><path d="m22.6191 5.63281c.6104 1.71909 1.0928 3.46804 1.6015 5.21899.1967.6772.3419 1.1706.7149 1.7301"/><path d="m12.0664 12.4527c2.9961-3.35561 6.831-5.96093 10.681-8.2359"/><path d="m24.0352 11.2957c1.7287-.1302 4.2377-.2885 5.7908.6435"/><path d="m30.3398 12.3247c1.3013-2.60244 2.6289-5.47096 4.5041-7.72118"/><path d="m38.3184 16.6996c1.2042-2.0532 2.4231-4.3534 4.1179-6.0482"/><path d="m38.834 15.0273c1.0638 1.7287 1.8239 3.4795 2.445 5.4049"/><path d="m41.4082 20.8181c2.1459.0593 4.2959-.0638 6.4343-.1286"/><path d="m48.7424 20.8184c-.3555 3.7878-1.0295 7.6439-1.0295 11.453"/><path d="m41.0215 31.7562c2.5755-.0991 5.1484-.2347 7.7212-.3861"/><path d="m37.1602 37.8046c1.7817-2.8281 3.6277-5.5791 5.0187-8.622"/><path d="m36.9043 37.0322c1.1473 1.8029 2.086 3.7236 3.2172 5.5335"/><path d="m20.9473 42.823c2.7423.5999 5.1284.4545 7.8498-.1287"/><path d="m28.2812 42.8232c.7952 1.7625 1.6739 3.4408 2.5738 5.1475"/><path d="m30.5977 48.2281c3.1638-1.4873 6.1039-3.4688 9.008-5.4049"/><path d="m18.373 49.3864c1.07-2.557 2.5983-4.9638 3.4746-7.5925"/><path d="m9.49414 44.239c1.79256-2.1671 3.45306-4.4045 5.40486-6.4343"/><path d="m9.10742 43.9814c2.62108 1.5727 5.07868 3.3724 7.56388 5.1475.1191.0851.8124.6784.672.2574"/><path d="m11.6816 33.4287c.3018 1.8609 1.2256 3.928 2.5738 5.2762"/><path d="m4.60352 33.043c2.36806.5297 4.91506.386 7.33508.386"/><path d="m4.99023 23.0049c2.58858.7489 5.08267.5872 7.72117.2574"/><path d="m5.37672 23.0049c-.03953 2.7275-.21202 5.4515-.24307 8.1787-.01251 1.0986.00197 1.9022.37176 2.8883"/><path d="m1.90039 19.7881c1.40208 1.2214 2.59975 2.5075 3.86059 3.8606"/><path d="m1.25781 19.7884c2.31905.1893 4.52291-.2329 6.82038-.3861"/><path d="m8.20703 20.5606c.58806-2.1297 1.50732-4.3489 3.34587-5.6622"/><path d="m8.07812 9.49316c1.09797 1.69174 2.01278 3.43484 2.83108 5.27614"/><path d="m7.94922 9.36523c2.18128.92447 4.04148 2.36027 6.17698 3.34587"/><path d="m11.5527 14.7695c1.0624.6314 2.1557 1.1383 3.2744 1.6587.3272.1521.5943.2797.8436.529"/><path d="m7.94922 19.5312c1.15088 1.6355 2.31588 3.2168 3.73188 4.6328"/><path d="m7.17773 10.7802c2.81774-3.88017 6.87387-6.47881 11.06707-8.622"/><path d="m16.4434 2.41504c2.0184 1.08621 4.0569 2.09251 6.1769 2.95978"/><path d="m23.0059 8.07844c1.7554-.32915 3.4952-.38606 5.2761-.38606"/><path d="m27.8945 7.56348c.9376 1.82686 1.8173 3.68282 2.7024 5.53352"/><path d="m28.1523 8.33534c.9426-2.51341 2.4053-4.81046 3.6033-7.20643"/><path d="m32.3984 1.25781c.7412 1.64935 1.5217 3.2676 2.3164 4.89008"/><path d="m34.7148 5.11816c2.4053 1.34468 4.5822 3.03402 6.8204 4.63271"/><path d="m32.5293 1.25781c2.3739 1.87877 5.0665 3.02524 7.5925 4.63271"/><path d="m39.7363 5.50488c.6301 1.84089 1.603 3.49263 2.3164 5.27612"/><path d="m39.9922 14.5117c.6037 1.0277 1.2031 2.0578 1.8016 3.0885"/><path d="m41.5371 21.5901c.0307-1.6573.036-3.423.5148-5.0188"/><path d="m41.7949 17.0859c2.0082.4184 4.0359.356 6.0483.6435"/><path d="m46.5566 17.0859c.8535 1.3569 1.6509 2.7282 2.4451 4.118"/><path d="m8.97852 33.6865c.27342.957.55273 1.9029.9008 2.8311"/><path d="m8.72266 35.6172c1.89144 1.1349 3.92414 2.8381 6.17694 3.0885"/><path d="m5.37695 42.6942c1.10828-2.0688 2.65679-3.8662 3.98928-5.7909"/><path d="m6.4043 42.0518c.86777.7748 2.04558 1.8246 3.21715 2.0589"/><path d="m1.12891 30.084c.99854 1.2403 2.34188 3.3658 3.98927 3.7319"/><path d="m1.12891 19.0166c.02536 3.3306.06533 6.6583.32886 9.9803.05768.7272.13902 1.414.31457 2.1162"/><path d="m18.373 22.4912c.3087 3.8893.276 7.8133.3861 11.7105"/><path d="m17.3438 30.4688c3.2553 2.4568 6.3297 5.1498 9.7801 7.3351"/><path d="m24.0352 38.5765c3.3279-3.0068 7.1059-5.4926 10.5522-8.3646"/><path d="m34.9733 19.0166c-.3313 4.7084-.303 9.464-.7721 14.1555"/><path d="m17.2148 24.8071c3.5125-2.5265 6.7645-5.4037 10.4236-7.7212"/><path d="m27.3809 17.8584c2.7617 1.7983 5.6017 3.3734 7.9785 5.6622"/><path d="m29.5697 18.8877c-.1466 3.5169-.2935 7.0335-.3861 10.5523"/><path d="m21.0742 34.4585c2.7669-1.581 5.0965-3.781 7.8499-5.4048"/><path d="m28.668 28.7959c2.2759.8966 4.7262 1.4571 6.949 2.445"/><path d="m1.38672 27.252c.99613.9868 1.98056 1.9788 3.08847 2.8311"/><path d="m1 22.6191c1.29462 1.4483 2.74532 2.7454 4.11796 4.118"/><path d="m9.36523 17.3438c1.16197.8885 2.24877 1.8711 3.34587 2.831"/><path d="m10.6523 7.17676c1.3332.69832 2.8382 1.16239 4.118 1.93029"/><path d="m13.7402 4.47461c.9675.98335 2.4646 2.42322 3.8606 2.70241"/><path d="m30.3418 3.44531c.5649 1.5015.8326 3.20954 1.5442 4.63271"/><path d="m44.2391 20.6896c-.2138-1.1169-.3973-2.2383-.6434-3.3458"/><path d="m24.0352 33.0439c1.2266.5576 2.4213 1.157 3.6032 1.8017"/><path d="m26.9941 30.8555c1.0663.9186 2.3738 1.6709 3.7319 2.059"/><path d="m29.3105 25.4502c1.4782.3079 2.9004.8632 4.3754 1.1582"/><path d="m29.6973 21.8477c1.4835.1309 2.9129.6349 4.3753.9008"/><path d="m7.82031 38.5762c1.42512.779 2.62939 1.911 3.86059 2.9598"/></g></svg>