<svg fill="none" height="81" viewBox="0 0 191 81" width="191" xmlns="http://www.w3.org/2000/svg"><path d="m1 42.6497h21.7928c6.4571 0 8.0545-1.3379 11.0309-9.4166.5947-1.6143 2.4214-12.6452 17.488-12.6452 12.6452 0 11.6697 7.6886 18.1508 12.6452 6.4812 4.9566 17.3633 4.0357 28.3942 4.0357 11.0313 0 16.8863-9.1581 16.4123-19.9094-.808-18.295148-30.9408-24.75234-39.8193-.8072-10.2109 27.5384-13.7214 31.7475-13.7214 39.2808 0 12.4809 6.6736 22.0617 37.1284 22.0617h91.2063" stroke="#000" stroke-linecap="round" stroke-linejoin="round" stroke-width=".6"/><path d="m8.80273 20.5872h35.51417c23.676 0 22.0815 21.8743 22.0815 31.4784 0 13.1833 3.4779 22.5998 22.8492 22.5998 19.3714 0 25.2904-30.8535 4.3048-37.3974-25.0214-7.8024-16.95-31.74748 1.3452-31.74749 23.4074-.00002 6.6864 28.51899 39.5494 28.51899h53.003" stroke="#000" stroke-linecap="round" stroke-linejoin="round" stroke-width=".6"/><path d="m182.338 75.4736c2.48.9728 5.003 1.6626 7.577 2.3061" stroke="#000" stroke-linecap="round" stroke-linejoin="round" stroke-width=".6"/><path d="m163.504 65.25c2.48.9727 5.003 1.6625 7.577 2.306" stroke="#000" stroke-linecap="round" stroke-linejoin="round" stroke-width=".6"/><path d="m183.188 80.2007c1.883-.8071 3.497-1.3452 6.457-2.4214" stroke="#000" stroke-linecap="round" stroke-linejoin="round" stroke-width=".6"/><path d="m164.355 69.9781c1.884-.8072 3.498-1.3453 6.458-2.4215" stroke="#000" stroke-linecap="round" stroke-linejoin="round" stroke-width=".6"/><path d="m104.045 79.7774c2.69-1.0762 3.767-1.6143 5.919-2.6905" stroke="#000" stroke-linecap="round" stroke-linejoin="round" stroke-width=".6"/><path d="m103.775 74.3975c3.229 1.3452 4.305 1.8833 6.458 2.6904" stroke="#000" stroke-linecap="round" stroke-linejoin="round" stroke-width=".6"/><path d="m28.4434 21.8741c4.0357-.4796 5.6499-.7486 8.6094-1.0177" stroke="#000" stroke-linecap="round" stroke-linejoin="round" stroke-width=".6"/><path d="m30.0566 17.3594c3.2286 1.3452 4.5738 2.1523 6.792 3.6292" stroke="#000" stroke-linecap="round" stroke-linejoin="round" stroke-width=".6"/><path d="m178.686 36.7373c1.909-.6946 5.098-1.8236 8.432-2.5051" stroke="#000" stroke-linecap="round" stroke-linejoin="round" stroke-width=".6"/><path d="m187.12 34.231c-3.646-1.5294-5.227-2.6152-8-5.5726" stroke="#000" stroke-linecap="round" stroke-linejoin="round" stroke-width=".6"/><path clip-rule="evenodd" d="m86.9671 12.6216 4.6084-3.78359 2.8803 1.16419 1.1522 1.4552h2.3042l2.0162-3.78357 4.6086 2.91047 1.44 2.6194-1.44 2.0373 1.44 1.7463h2.592l.864 1.7462-.864 6.112h-3.168l-2.304 3.4925 1.152 2.6194-4.8966 3.2015-1.4402-2.6194h-3.4564l-2.3042 3.2015-4.6085-2.6194-2.0162-1.1642 2.0162-3.4925v-1.1642h-2.0162l-2.3042-2.0373v-5.8209l3.1683-.2911 2.0162-2.9104zm5.7606 8.1493 4.6085-3.7836 1.4402 1.4552-.288 4.6568-4.0325 3.2014-1.7282-1.4552z" fill="#fff" fill-rule="evenodd"/><path clip-rule="evenodd" d="m86.9671 12.6216 4.6084-3.78359 2.8803 1.16419 1.1522 1.4552h2.3042l2.0162-3.78357 4.6086 2.91047 1.44 2.6194-1.44 2.0373 1.44 1.7463h2.592l.864 1.7462-.864 6.112h-3.168l-2.304 3.4925 1.152 2.6194-4.8966 3.2015-1.4402-2.6194h-3.4564l-2.3042 3.2015-4.6085-2.6194-2.0162-1.1642 2.0162-3.4925v-1.1642h-2.0162l-2.3042-2.0373v-5.8209l3.1683-.2911 2.0162-2.9104zm5.7606 8.1493 4.6085-3.7836 1.4402 1.4552-.288 4.6568-4.0325 3.2014-1.7282-1.4552z" fill="#fff" fill-rule="evenodd"/><g stroke="#000" stroke-width=".6"><path d="m88.3359 20.625c.9121-1.625 1.8242-3.25 2.7363-4.875" stroke-linecap="round" stroke-linejoin="round"/><path d="m89.1992 13.7119c.5108 1.0466.9885 2.1001 1.6562 3.056" stroke-linecap="round" stroke-linejoin="round"/><path d="m94.8887 10.293c.3415.972.6114 1.9608.8961 2.9508.1101.383.1913.6619.4.9783" stroke-linecap="round" stroke-linejoin="round"/><path d="m88.9844 14.1489c1.6765-1.8973 3.8223-3.3704 5.9766-4.65671" stroke-linecap="round" stroke-linejoin="round"/><path d="m95.6797 13.4937c.9673-.0736 2.3712-.1631 3.2403.3638" stroke-linecap="round" stroke-linejoin="round"/><path d="m99.209 14.0766c.7281-1.4714 1.471-3.0934 2.52-4.36566" stroke-linecap="round" stroke-linejoin="round"/><path d="m103.674 16.5497c.674-1.161 1.356-2.4616 2.304-3.4198" stroke-linecap="round" stroke-linejoin="round"/><path d="m103.961 15.6045c.595.9774 1.021 1.9673 1.368 3.056" stroke-linecap="round" stroke-linejoin="round"/><path d="m105.402 18.8784c1.201.0335 2.404-.0361 3.601-.0727" stroke-linecap="round" stroke-linejoin="round"/><path d="m109.506 18.8789c-.199 2.1417-.576 4.322-.576 6.4758" stroke-linecap="round" stroke-linejoin="round"/><path d="m105.186 25.063c1.441-.056 2.88-.1327 4.32-.2183" stroke-linecap="round" stroke-linejoin="round"/><path d="m103.025 28.4834c.997-1.599 2.03-3.1545 2.809-4.875" stroke-linecap="round" stroke-linejoin="round"/><path d="m102.881 28.0469c.642 1.0193 1.167 2.1053 1.8 3.1287" stroke-linecap="round" stroke-linejoin="round"/><path d="m93.9531 31.3208c1.5345.3392 2.8697.257 4.3925-.0728" stroke-linecap="round" stroke-linejoin="round"/><path d="m98.0566 31.3203c.445.9965.9366 1.9455 1.4402 2.9105" stroke-linecap="round" stroke-linejoin="round"/><path d="m99.3535 34.3763c1.7705-.8409 3.4155-1.9613 5.0405-3.056" stroke-linecap="round" stroke-linejoin="round"/><path d="m92.5117 35.0312c.5987-1.4458 1.4539-2.8066 1.9442-4.2929" stroke-linecap="round" stroke-linejoin="round"/><path d="m87.543 32.1215c1.003-1.2254 1.9322-2.4904 3.0243-3.6381" stroke-linecap="round" stroke-linejoin="round"/><path d="m87.3281 31.9756c1.4667.8892 2.8419 1.9067 4.2325 2.9104.0666.0481.4545.3836.376.1456" stroke-linecap="round" stroke-linejoin="round"/><path d="m88.7676 26.0088c.1688 1.0522.6857 2.2209 1.4401 2.9832" stroke-linecap="round" stroke-linejoin="round"/><path d="m84.8066 25.791c1.3251.2995 2.7503.2183 4.1045.2183" stroke-linecap="round" stroke-linejoin="round"/><path d="m85.0234 20.1152c1.4485.4235 2.8441.332 4.3205.1456" stroke-linecap="round" stroke-linejoin="round"/><path d="m85.2391 20.1152c-.0221 1.5422-.1186 3.0824-.136 4.6244-.007.6212.0011 1.0755.208 1.6331" stroke-linecap="round" stroke-linejoin="round"/><path d="m83.2949 18.2959c.7846.6906 1.4547 1.4178 2.1603 2.1828" stroke-linecap="round" stroke-linejoin="round"/><path d="m82.9355 18.2964c1.2977.107 2.5309-.1317 3.8165-.2183" stroke-linecap="round" stroke-linejoin="round"/><path d="m86.8242 18.7327c.3291-1.2041.8435-2.4589 1.8722-3.2015" stroke-linecap="round" stroke-linejoin="round"/><path d="m86.752 12.4756c.6143.9565 1.1262 1.9421 1.5841 2.9832" stroke-linecap="round" stroke-linejoin="round"/><path d="m86.6797 12.4033c1.2205.5227 2.2615 1.3345 3.4564 1.8918" stroke-linecap="round" stroke-linejoin="round"/><path d="m88.6953 15.459c.5945.357 1.2062.6436 1.8322.9378.1831.086.3326.1582.4721.2991" stroke-linecap="round" stroke-linejoin="round"/><path d="m86.6797 18.1514c.644.9247 1.2959 1.8188 2.0882 2.6194" stroke-linecap="round" stroke-linejoin="round"/><path d="m86.248 13.2031c1.5767-2.1939 3.8464-3.66318 6.1927-4.87498" stroke-linecap="round" stroke-linejoin="round"/><path d="m91.4316 8.47363c1.1295.61417 2.2701 1.18314 3.4564 1.67347" stroke-linecap="round" stroke-linejoin="round"/><path d="m95.1055 11.6753c.9823-.1861 1.9558-.2183 2.9523-.2183" stroke-linecap="round" stroke-linejoin="round"/><path d="m97.8418 11.3848c.5246 1.0329 1.0169 2.0823 1.5122 3.1287" stroke-linecap="round" stroke-linejoin="round"/><path d="m97.9844 11.8207c.5274-1.4211 1.3458-2.71988 2.0166-4.07461" stroke-linecap="round" stroke-linejoin="round"/><path d="m100.361 7.81836c.415.93256.852 1.84755 1.296 2.76494" stroke-linecap="round" stroke-linejoin="round"/><path d="m101.658 10.002c1.346.7603 2.564 1.7154 3.817 2.6194" stroke-linecap="round" stroke-linejoin="round"/><path d="m100.434 7.81836c1.328 1.06228 2.835 1.71051 4.248 2.61944" stroke-linecap="round" stroke-linejoin="round"/><path d="m104.465 10.2197c.352 1.0409.897 1.9748 1.296 2.9832" stroke-linecap="round" stroke-linejoin="round"/><path d="m104.609 15.3135c.338.5811.674 1.1635 1.008 1.7462" stroke-linecap="round" stroke-linejoin="round"/><path d="m105.473 19.3152c.017-.937.02-1.9354.288-2.8377" stroke-linecap="round" stroke-linejoin="round"/><path d="m105.617 16.7686c1.124.2365 2.259.2012 3.385.3638" stroke-linecap="round" stroke-linejoin="round"/><path d="m108.281 16.7686c.478.7671.924 1.5425 1.368 2.3283" stroke-linecap="round" stroke-linejoin="round"/><path d="m87.2559 26.1553c.153.5411.3092 1.0759.504 1.6007" stroke-linecap="round" stroke-linejoin="round"/><path d="m87.1113 27.2461c1.0584.6417 2.1958 1.6047 3.4564 1.7463" stroke-linecap="round" stroke-linejoin="round"/><path d="m85.2402 31.2479c.6202-1.1697 1.4867-2.186 2.2323-3.2743" stroke-linecap="round" stroke-linejoin="round"/><path d="m85.8164 30.8838c.4856.4381 1.1446 1.0317 1.8002 1.1642" stroke-linecap="round" stroke-linejoin="round"/><path d="m82.8633 24.1172c.5587.7013 1.3104 1.9031 2.2322 2.1101" stroke-linecap="round" stroke-linejoin="round"/><path d="m82.8633 17.8594c.0142 1.8831.0365 3.7647.184 5.643.0323.4112.0778.7995.176 1.1965" stroke-linecap="round" stroke-linejoin="round"/><path d="m92.5117 19.8242c.1727 2.1991.1544 4.4178.216 6.6213" stroke-linecap="round" stroke-linejoin="round"/><path d="m91.9355 24.3359c1.8216 1.3892 3.5419 2.9118 5.4726 4.1474" stroke-linecap="round" stroke-linejoin="round"/><path d="m95.6797 28.9199c1.8622-1.7001 3.9762-3.1056 5.9043-4.7295" stroke-linecap="round" stroke-linejoin="round"/><path d="m101.893 18.7041c-.185 2.6622-.261 4.2377-.524 6.8903" stroke-linecap="round" stroke-linejoin="round"/><path d="m91.8652 21.1342c1.9655-1.4285 3.7851-3.0553 5.8327-4.3656" stroke-linecap="round" stroke-linejoin="round"/><path d="m97.5527 17.2051c1.5454 1.0168 3.1343 1.9073 4.4643 3.2015" stroke-linecap="round" stroke-linejoin="round"/><path d="m98.7766 17.7871c-.082 1.9885-.1642 3.9769-.2161 5.9664" stroke-linecap="round" stroke-linejoin="round"/><path d="m94.0254 26.5911c1.5482-.8939 2.8518-2.1378 4.3925-3.0559" stroke-linecap="round" stroke-linejoin="round"/><path d="m98.2734 23.3896c1.2735.507 2.6446.8239 3.8886 1.3825" stroke-linecap="round" stroke-linejoin="round"/><path d="m83.0078 22.5176c.5574.5579 1.1083 1.1189 1.7282 1.6007" stroke-linecap="round" stroke-linejoin="round"/><path d="m82.791 19.8975c.7244.8188 1.5362 1.5522 2.3043 2.3283" stroke-linecap="round" stroke-linejoin="round"/><path d="m87.4707 16.915c.6502.5025 1.2583 1.058 1.8722 1.6008" stroke-linecap="round" stroke-linejoin="round"/><path d="m88.1914 11.167c.746.3948 1.5881.6572 2.3043 1.0914" stroke-linecap="round" stroke-linejoin="round"/><path d="m89.9199 9.63867c.5414.55603 1.3791 1.37013 2.1603 1.52803" stroke-linecap="round" stroke-linejoin="round"/><path d="m99.209 9.05664c.3161.84897.4659 1.81476.864 2.61936" stroke-linecap="round" stroke-linejoin="round"/><path d="m106.985 18.8068c-.12-.6315-.222-1.2655-.36-1.8918" stroke-linecap="round" stroke-linejoin="round"/><path d="m95.6797 25.792c.6864.3153 1.3549.6542 2.0162 1.0186" stroke-linecap="round" stroke-linejoin="round"/><path d="m97.3359 24.5547c.5967.5194 1.3283.9448 2.0883 1.1642" stroke-linecap="round" stroke-linejoin="round"/><path d="m98.6328 21.499c.8271.1741 1.6232.4881 2.4482.6549" stroke-linecap="round" stroke-linejoin="round"/><path d="m98.8477 19.4619c.8301.074 1.6303.359 2.4483.5093" stroke-linecap="round" stroke-linejoin="round"/><path d="m86.6074 28.9209c.7975.4405 1.4713 1.0805 2.1603 1.6735" stroke-linecap="round" stroke-linejoin="round"/><path d="m5.84375 27.584h15.60465c5.9191 0 9.8604 3.0148 10.7619 9.6857 1.3452 9.9547 8.0714 15.0665 18.0261 15.0665s15.5097-6.6975 22.3249-11.0345c4.6468-2.9571 29.5837-11.9612 34.6957 9.2935 1.618 6.7262.921 17.0766 11.317 17.0766h51.657"/></g><path clip-rule="evenodd" d="m40.8999 27.2999 4.2471-3.4868 2.6544 1.0729 1.0617 1.3411h2.1236l1.858-3.4869 4.2471 2.6822 1.3272 2.414-1.3272 1.8775 1.3272 1.6093h2.3889l.7963 1.6093-.7963 5.6326h-2.9198l-2.1235 3.2186 1.0617 2.414-4.5124 2.9504-1.3272-2.414h-3.1853l-2.1235 2.9504-4.2471-2.414-1.8581-1.0728 1.8581-3.2187v-1.0728h-1.8581l-2.1235-1.8775v-5.3644l2.9199-.2682 1.858-2.6822zm5.3105 7.5117 4.247-3.4868 1.3272 1.3411-.2654 4.2914-3.7162 2.9504-1.5926-1.3411z" fill="#fff" fill-rule="evenodd"/><path clip-rule="evenodd" d="m40.8999 27.2999 4.2471-3.4868 2.6544 1.0729 1.0617 1.3411h2.1236l1.858-3.4869 4.2471 2.6822 1.3272 2.414-1.3272 1.8775 1.3272 1.6093h2.3889l.7963 1.6093-.7963 5.6326h-2.9198l-2.1235 3.2186 1.0617 2.414-4.5124 2.9504-1.3272-2.414h-3.1853l-2.1235 2.9504-4.2471-2.414-1.8581-1.0728 1.8581-3.2187v-1.0728h-1.8581l-2.1235-1.8775v-5.3644l2.9199-.2682 1.858-2.6822zm5.3105 7.5117 4.247-3.4868 1.3272 1.3411-.2654 4.2914-3.7162 2.9504-1.5926-1.3411z" fill="#fff" fill-rule="evenodd"/><path d="m42.1621 34.6753c.8406-1.4976 1.6811-2.9951 2.5217-4.4927" stroke="#000" stroke-linecap="round" stroke-linejoin="round" stroke-width=".6"/><path d="m42.959 28.3047c.4707.9644.9109 1.9354 1.5263 2.8163" stroke="#000" stroke-linecap="round" stroke-linejoin="round" stroke-width=".6"/><path d="m48.2012 25.1533c.3147.8958.5635 1.8071.8258 2.7195.1014.3528.1763.6099.3687.9015" stroke="#000" stroke-linecap="round" stroke-linejoin="round" stroke-width=".6"/><path d="m42.7598 28.7075c1.545-1.7485 3.5225-3.1061 5.5078-4.2915" stroke="#000" stroke-linecap="round" stroke-linejoin="round" stroke-width=".6"/><path d="m48.9316 28.1045c.8915-.0678 2.1853-.1503 2.9862.3353" stroke="#000" stroke-linecap="round" stroke-linejoin="round" stroke-width=".6"/><path d="m52.1816 28.6405c.671-1.3561 1.3557-2.8508 2.3226-4.0233" stroke="#000" stroke-linecap="round" stroke-linejoin="round" stroke-width=".6"/><path d="m56.2969 30.9201c.621-1.0698 1.2495-2.2684 2.1235-3.1515" stroke="#000" stroke-linecap="round" stroke-linejoin="round" stroke-width=".6"/><path d="m56.5625 30.0498c.5486.9007.9406 1.8131 1.2608 2.8163" stroke="#000" stroke-linecap="round" stroke-linejoin="round" stroke-width=".6"/><path d="m57.8906 33.0661c1.1066.0309 2.2153-.0333 3.318-.0671" stroke="#000" stroke-linecap="round" stroke-linejoin="round" stroke-width=".6"/><path d="m61.6735 33.0654c-.1834 1.9738-.5309 3.9831-.5309 5.9679" stroke="#000" stroke-linecap="round" stroke-linejoin="round" stroke-width=".6"/><path d="m57.6895 38.7646c1.3281-.0516 2.6549-.1223 3.9816-.2011" stroke="#000" stroke-linecap="round" stroke-linejoin="round" stroke-width=".6"/><path d="m55.7012 41.9165c.9187-1.4737 1.8707-2.9071 2.588-4.4927" stroke="#000" stroke-linecap="round" stroke-linejoin="round" stroke-width=".6"/><path d="m55.5684 41.5146c.5916.9395 1.0756 1.9403 1.659 2.8834" stroke="#000" stroke-linecap="round" stroke-linejoin="round" stroke-width=".6"/><path d="m47.3398 44.5319c1.4142.3126 2.6446.2368 4.048-.0671" stroke="#000" stroke-linecap="round" stroke-linejoin="round" stroke-width=".6"/><path d="m51.1211 44.5332c.41.9184.8631 1.7929 1.3272 2.6822" stroke="#000" stroke-linecap="round" stroke-linejoin="round" stroke-width=".6"/><path d="m52.3145 47.3495c1.6315-.775 3.1476-1.8075 4.6452-2.8163" stroke="#000" stroke-linecap="round" stroke-linejoin="round" stroke-width=".6"/><path d="m46.0098 47.9513c.5517-1.3324 1.3398-2.5865 1.7917-3.9562" stroke="#000" stroke-linecap="round" stroke-linejoin="round" stroke-width=".6"/><path d="m41.4336 45.2707c.9244-1.1292 1.7807-2.2951 2.7871-3.3527" stroke="#000" stroke-linecap="round" stroke-linejoin="round" stroke-width=".6"/><path d="m41.2324 45.1348c1.3516.8194 2.619 1.7572 3.9005 2.6821.0614.0444.4189.3535.3466.1342" stroke="#000" stroke-linecap="round" stroke-linejoin="round" stroke-width=".6"/><path d="m42.5605 39.6367c.1557.9697.632 2.0468 1.3272 2.7493" stroke="#000" stroke-linecap="round" stroke-linejoin="round" stroke-width=".6"/><path d="m38.9102 39.4355c1.2211.2761 2.5345.2012 3.7825.2012" stroke="#000" stroke-linecap="round" stroke-linejoin="round" stroke-width=".6"/><path d="m39.1113 34.2051c1.3349.3902 2.621.3059 3.9816.1341" stroke="#000" stroke-linecap="round" stroke-linejoin="round" stroke-width=".6"/><path d="m39.3084 34.2051c-.0204 1.4212-.1093 2.8406-.1253 4.2617-.0065.5724.001.9911.1917 1.505" stroke="#000" stroke-linecap="round" stroke-linejoin="round" stroke-width=".6"/><path d="m37.5176 32.5293c.723.6365 1.3406 1.3066 1.9908 2.0116" stroke="#000" stroke-linecap="round" stroke-linejoin="round" stroke-width=".6"/><path d="m37.1855 32.5312c1.1959.0987 2.3324-.1213 3.5171-.2011" stroke="#000" stroke-linecap="round" stroke-linejoin="round" stroke-width=".6"/><path d="m40.7676 32.9318c.3032-1.1097.7773-2.2661 1.7253-2.9504" stroke="#000" stroke-linecap="round" stroke-linejoin="round" stroke-width=".6"/><path d="m40.7031 27.165c.5662.8816 1.0379 1.7898 1.4599 2.7493" stroke="#000" stroke-linecap="round" stroke-linejoin="round" stroke-width=".6"/><path d="m40.6348 27.0977c1.1248.4817 2.0841 1.2298 3.1852 1.7434" stroke="#000" stroke-linecap="round" stroke-linejoin="round" stroke-width=".6"/><path d="m42.4941 29.9141c.5479.329 1.1116.5931 1.6885.8642.1688.0793.3065.1458.4351.2757" stroke="#000" stroke-linecap="round" stroke-linejoin="round" stroke-width=".6"/><path d="m40.6348 32.3955c.5934.8522 1.1942 1.6761 1.9244 2.414" stroke="#000" stroke-linecap="round" stroke-linejoin="round" stroke-width=".6"/><path d="m40.2383 27.8354c1.453-2.0218 3.5446-3.3759 5.7069-4.4926" stroke="#000" stroke-linecap="round" stroke-linejoin="round" stroke-width=".6"/><path d="m45.0156 23.4775c1.0409.566 2.0921 1.0904 3.1853 1.5423" stroke="#000" stroke-linecap="round" stroke-linejoin="round" stroke-width=".6"/><path d="m48.4004 26.4277c.9052-.1715 1.8024-.2011 2.7207-.2011" stroke="#000" stroke-linecap="round" stroke-linejoin="round" stroke-width=".6"/><path d="m50.9219 26.1592c.4835.9519.9371 1.919 1.3935 2.8833" stroke="#000" stroke-linecap="round" stroke-linejoin="round" stroke-width=".6"/><path d="m51.0547 26.5617c.486-1.3097 1.2403-2.5066 1.8581-3.7551" stroke="#000" stroke-linecap="round" stroke-linejoin="round" stroke-width=".6"/><path d="m53.2441 22.874c.3822.8594.7847 1.7027 1.1945 2.5481" stroke="#000" stroke-linecap="round" stroke-linejoin="round" stroke-width=".6"/><path d="m54.4395 24.8857c1.2403.7007 2.3629 1.581 3.517 2.414" stroke="#000" stroke-linecap="round" stroke-linejoin="round" stroke-width=".6"/><path d="m53.3105 22.874c1.2242.979 2.6127 1.5764 3.9153 2.414" stroke="#000" stroke-linecap="round" stroke-linejoin="round" stroke-width=".6"/><path d="m57.0273 25.0859c.325.9593.8266 1.8199 1.1945 2.7493" stroke="#000" stroke-linecap="round" stroke-linejoin="round" stroke-width=".6"/><path d="m57.1602 29.7803c.3113.5355.6204 1.0722.929 1.6093" stroke="#000" stroke-linecap="round" stroke-linejoin="round" stroke-width=".6"/><path d="m57.9551 33.4677c.0158-.8636.0185-1.7836.2654-2.6152" stroke="#000" stroke-linecap="round" stroke-linejoin="round" stroke-width=".6"/><path d="m58.0898 31.1211c1.0356.218 2.0813.1855 3.119.3353" stroke="#000" stroke-linecap="round" stroke-linejoin="round" stroke-width=".6"/><path d="m60.543 31.1211c.4401.707.8513 1.4215 1.2608 2.1457" stroke="#000" stroke-linecap="round" stroke-linejoin="round" stroke-width=".6"/><path d="m41.168 39.7705c.141.4987.285.9916.4645 1.4752" stroke="#000" stroke-linecap="round" stroke-linejoin="round" stroke-width=".6"/><path d="m41.0352 40.7783c.9753.5914 2.0235 1.4789 3.1852 1.6093" stroke="#000" stroke-linecap="round" stroke-linejoin="round" stroke-width=".6"/><path d="m39.3105 44.4657c.5716-1.078 1.3701-2.0146 2.0572-3.0175" stroke="#000" stroke-linecap="round" stroke-linejoin="round" stroke-width=".6"/><path d="m39.8398 44.1289c.4475.4037 1.0549.9508 1.659 1.0729" stroke="#000" stroke-linecap="round" stroke-linejoin="round" stroke-width=".6"/><path d="m37.1191 37.8936c.515.6462 1.2077 1.7538 2.0572 1.9445" stroke="#000" stroke-linecap="round" stroke-linejoin="round" stroke-width=".6"/><path d="m37.1191 32.127c.0131 1.7354.0337 3.4694.1696 5.2004.0298.3789.0717.7368.1622 1.1027" stroke="#000" stroke-linecap="round" stroke-linejoin="round" stroke-width=".6"/><path d="m46.0098 33.9375c.1591 2.0266.1423 4.0713.199 6.102" stroke="#000" stroke-linecap="round" stroke-linejoin="round" stroke-width=".6"/><path d="m45.4805 38.0947c1.6787 1.2802 3.264 2.6835 5.0433 3.8221" stroke="#000" stroke-linecap="round" stroke-linejoin="round" stroke-width=".6"/><path d="m48.9316 42.3185c1.7162-1.5668 3.6644-2.862 5.4416-4.3585" stroke="#000" stroke-linecap="round" stroke-linejoin="round" stroke-width=".6"/><path d="m54.572 32.127c-.1709 2.4534-.1562 4.9313-.3982 7.3759" stroke="#000" stroke-linecap="round" stroke-linejoin="round" stroke-width=".6"/><path d="m45.4141 35.1444c1.8113-1.3165 3.4882-2.8157 5.3751-4.0233" stroke="#000" stroke-linecap="round" stroke-linejoin="round" stroke-width=".6"/><path d="m50.6562 31.5234c1.4242.9371 2.8887 1.7578 4.1144 2.9504" stroke="#000" stroke-linecap="round" stroke-linejoin="round" stroke-width=".6"/><path d="m51.785 32.0596c-.0755 1.8325-.1513 3.6649-.1991 5.4984" stroke="#000" stroke-linecap="round" stroke-linejoin="round" stroke-width=".6"/><path d="m47.4043 40.1747c1.4268-.8239 2.6281-1.9702 4.048-2.8163" stroke="#000" stroke-linecap="round" stroke-linejoin="round" stroke-width=".6"/><path d="m51.3203 37.2246c1.1736.4672 2.4372.7593 3.5834 1.274" stroke="#000" stroke-linecap="round" stroke-linejoin="round" stroke-width=".6"/><path d="m37.25 36.418c.5137.5142 1.0213 1.0311 1.5926 1.4752" stroke="#000" stroke-linecap="round" stroke-linejoin="round" stroke-width=".6"/><path d="m37.0527 34.0049c.6676.7546 1.4157 1.4305 2.1236 2.1457" stroke="#000" stroke-linecap="round" stroke-linejoin="round" stroke-width=".6"/><path d="m41.3672 31.2568c.5992.463 1.1596.975 1.7253 1.4752" stroke="#000" stroke-linecap="round" stroke-linejoin="round" stroke-width=".6"/><path d="m42.0293 25.958c.6875.3639 1.4635.6057 2.1235 1.0058" stroke="#000" stroke-linecap="round" stroke-linejoin="round" stroke-width=".6"/><path d="m43.623 24.5498c.499.5124 1.271 1.2627 1.9908 1.4081" stroke="#000" stroke-linecap="round" stroke-linejoin="round" stroke-width=".6"/><path d="m52.1836 24.0137c.2913.7824.4294 1.6724.7963 2.4139" stroke="#000" stroke-linecap="round" stroke-linejoin="round" stroke-width=".6"/><path d="m59.3494 33.0003c-.1103-.582-.2049-1.1663-.3318-1.7435" stroke="#000" stroke-linecap="round" stroke-linejoin="round" stroke-width=".6"/><path d="m48.9297 39.4355c.6325.2906 1.2486.6029 1.8581.9388" stroke="#000" stroke-linecap="round" stroke-linejoin="round" stroke-width=".6"/><path d="m50.457 38.2959c.5499.4787 1.2241.8707 1.9245 1.0729" stroke="#000" stroke-linecap="round" stroke-linejoin="round" stroke-width=".6"/><path d="m51.6523 35.4814c.7623.1605 1.4957.4498 2.2563.6035" stroke="#000" stroke-linecap="round" stroke-linejoin="round" stroke-width=".6"/><path d="m51.8516 33.6025c.765.0682 1.5021.3309 2.2562.4694" stroke="#000" stroke-linecap="round" stroke-linejoin="round" stroke-width=".6"/><path d="m40.5684 42.3203c.7349.406 1.3559.9958 1.9908 1.5423" stroke="#000" stroke-linecap="round" stroke-linejoin="round" stroke-width=".6"/><path clip-rule="evenodd" d="m75.5727 44.4576 5.6928-4.6738 3.5581 1.4381 1.4232 1.7976h2.8464l2.4906-4.6738 5.6928 3.5953 1.7791 3.2357-1.7791 2.5167 1.7791 2.1571h3.2023l1.067 2.1572-1.067 7.55h-3.914l-2.8464 4.3144 1.4232 3.2357-6.0486 3.9548-1.779-3.2358h-4.2696l-2.8465 3.9548-5.6928-3.2357-2.4906-1.4381 2.4906-4.3143v-1.4381h-2.4906l-2.8464-2.5167v-7.1905l3.9138-.3596 2.4906-3.5952zm7.1156 10.0661 5.6929-4.6738 1.779 1.7976-.3558 5.7524-4.9813 3.9548-2.1348-1.7976z" fill="#fff" fill-rule="evenodd"/><path clip-rule="evenodd" d="m75.5727 44.4576 5.6928-4.6738 3.5581 1.4381 1.4232 1.7976h2.8464l2.4906-4.6738 5.6928 3.5953 1.7791 3.2357-1.7791 2.5167 1.7791 2.1571h3.2023l1.067 2.1572-1.067 7.55h-3.914l-2.8464 4.3144 1.4232 3.2357-6.0486 3.9548-1.779-3.2358h-4.2696l-2.8465 3.9548-5.6928-3.2357-2.4906-1.4381 2.4906-4.3143v-1.4381h-2.4906l-2.8464-2.5167v-7.1905l3.9138-.3596 2.4906-3.5952zm7.1156 10.0661 5.6929-4.6738 1.779 1.7976-.3558 5.7524-4.9813 3.9548-2.1348-1.7976z" fill="#fff" fill-rule="evenodd"/><path d="m77.2656 54.3424c1.1267-2.0074 2.2534-4.0147 3.3801-6.0221" stroke="#000" stroke-linecap="round" stroke-linejoin="round" stroke-width=".6"/><path d="m78.332 45.8047c.631 1.2928 1.2211 2.5943 2.0459 3.775" stroke="#000" stroke-linecap="round" stroke-linejoin="round" stroke-width=".6"/><path d="m85.3574 41.5801c.4219 1.2007.7554 2.4222 1.107 3.6452.136.473.2363.8176.4941 1.2084" stroke="#000" stroke-linecap="round" stroke-linejoin="round" stroke-width=".6"/><path d="m78.0645 46.3442c2.0709-2.3437 4.7217-4.1634 7.3829-5.7524" stroke="#000" stroke-linecap="round" stroke-linejoin="round" stroke-width=".6"/><path d="m86.3379 45.5343c1.1949-.091 2.9292-.2015 4.0028.4494" stroke="#000" stroke-linecap="round" stroke-linejoin="round" stroke-width=".6"/><path d="m90.6953 46.2532c.8994-1.8176 1.8171-3.8212 3.1133-5.3928" stroke="#000" stroke-linecap="round" stroke-linejoin="round" stroke-width=".6"/><path d="m96.209 49.3084c.8324-1.4341 1.6749-3.0407 2.8464-4.2244" stroke="#000" stroke-linecap="round" stroke-linejoin="round" stroke-width=".6"/><path d="m96.5645 48.1406c.7353 1.2074 1.2607 2.4303 1.69 3.775" stroke="#000" stroke-linecap="round" stroke-linejoin="round" stroke-width=".6"/><path d="m98.3457 52.1846c1.4833.0414 2.9693-.0446 4.4473-.0899" stroke="#000" stroke-linecap="round" stroke-linejoin="round" stroke-width=".6"/><path d="m103.415 52.1855c-.246 2.6457-.712 5.339-.712 7.9995" stroke="#000" stroke-linecap="round" stroke-linejoin="round" stroke-width=".6"/><path d="m98.0781 59.8263c1.7803-.0692 3.5589-.164 5.3369-.2697" stroke="#000" stroke-linecap="round" stroke-linejoin="round" stroke-width=".6"/><path d="m95.4102 64.0494c1.2315-1.9753 2.5075-3.8967 3.469-6.0221" stroke="#000" stroke-linecap="round" stroke-linejoin="round" stroke-width=".6"/><path d="m95.2324 63.5107c.793 1.2592 1.4419 2.6008 2.2238 3.8649" stroke="#000" stroke-linecap="round" stroke-linejoin="round" stroke-width=".6"/><path d="m84.2031 67.5557c1.8956.419 3.5449.3174 5.426-.0899" stroke="#000" stroke-linecap="round" stroke-linejoin="round" stroke-width=".6"/><path d="m89.2715 67.5547c.5496 1.231 1.157 2.4032 1.779 3.5953" stroke="#000" stroke-linecap="round" stroke-linejoin="round" stroke-width=".6"/><path d="m90.873 71.3297c2.187-1.0388 4.2193-2.4228 6.2266-3.775" stroke="#000" stroke-linecap="round" stroke-linejoin="round" stroke-width=".6"/><path d="m82.4238 72.1389c.7396-1.7859 1.796-3.4669 2.4017-5.303" stroke="#000" stroke-linecap="round" stroke-linejoin="round" stroke-width=".6"/><path d="m76.2852 68.5449c1.239-1.5137 2.3868-3.0764 3.7359-4.4941" stroke="#000" stroke-linecap="round" stroke-linejoin="round" stroke-width=".6"/><path d="m76.0176 68.3643c1.8117 1.0984 3.5105 2.3554 5.2283 3.5952.0823.0594.5615.4738.4645.1798" stroke="#000" stroke-linecap="round" stroke-linejoin="round" stroke-width=".6"/><path d="m77.7988 60.9932c.2086 1.2997.8472 2.7435 1.779 3.6851" stroke="#000" stroke-linecap="round" stroke-linejoin="round" stroke-width=".6"/><path d="m72.9062 60.7227c1.6369.3699 3.3974.2696 5.0702.2696" stroke="#000" stroke-linecap="round" stroke-linejoin="round" stroke-width=".6"/><path d="m73.1719 53.7139c1.7892.523 3.5132.4101 5.337.1797" stroke="#000" stroke-linecap="round" stroke-linejoin="round" stroke-width=".6"/><path d="m73.4395 53.7139c-.0273 1.905-.1466 3.8076-.168 5.7124-.0087.7673.0013 1.3286.2569 2.0174" stroke="#000" stroke-linecap="round" stroke-linejoin="round" stroke-width=".6"/><path d="m71.0371 51.4668c.9692.8531 1.797 1.7514 2.6685 2.6964" stroke="#000" stroke-linecap="round" stroke-linejoin="round" stroke-width=".6"/><path d="m70.5938 51.4669c1.6029.1322 3.1263-.1627 4.7143-.2696" stroke="#000" stroke-linecap="round" stroke-linejoin="round" stroke-width=".6"/><path d="m75.3965 52.0065c.4065-1.4875 1.0419-3.0375 2.3127-3.9547" stroke="#000" stroke-linecap="round" stroke-linejoin="round" stroke-width=".6"/><path d="m75.3066 44.2764c.759 1.1816 1.3913 2.3991 1.957 3.6851" stroke="#000" stroke-linecap="round" stroke-linejoin="round" stroke-width=".6"/><path d="m75.2188 44.1865c1.5077.6457 2.7935 1.6486 4.2696 2.3369" stroke="#000" stroke-linecap="round" stroke-linejoin="round" stroke-width=".6"/><path d="m77.709 47.9609c.7343.441 1.49.7951 2.2633 1.1585.2262.1063.4108.1954.5831.3695" stroke="#000" stroke-linecap="round" stroke-linejoin="round" stroke-width=".6"/><path d="m75.2188 51.2861c.7955 1.1423 1.6008 2.2468 2.5795 3.2358" stroke="#000" stroke-linecap="round" stroke-linejoin="round" stroke-width=".6"/><path d="m74.6836 45.1744c1.9477-2.7101 4.7513-4.5251 7.6497-6.0221" stroke="#000" stroke-linecap="round" stroke-linejoin="round" stroke-width=".6"/><path d="m81.0879 39.333c1.3952.7587 2.8042 1.4615 4.2696 2.0673" stroke="#000" stroke-linecap="round" stroke-linejoin="round" stroke-width=".6"/><path d="m85.625 43.2882c1.2134-.2299 2.416-.2696 3.647-.2696" stroke="#000" stroke-linecap="round" stroke-linejoin="round" stroke-width=".6"/><path d="m89.0059 42.9277c.648 1.276 1.2561 2.5723 1.8679 3.8649" stroke="#000" stroke-linecap="round" stroke-linejoin="round" stroke-width=".6"/><path d="m89.1836 43.467c.6515-1.7555 1.6625-3.3599 2.4906-5.0334" stroke="#000" stroke-linecap="round" stroke-linejoin="round" stroke-width=".6"/><path d="m92.1172 38.5225c.5123 1.152 1.0518 2.2822 1.6011 3.4155" stroke="#000" stroke-linecap="round" stroke-linejoin="round" stroke-width=".6"/><path d="m93.7188 41.2197c1.6625.9392 3.1673 2.1191 4.7143 3.2358" stroke="#000" stroke-linecap="round" stroke-linejoin="round" stroke-width=".6"/><path d="m92.209 38.5225c1.6409 1.3122 3.502 2.113 5.2481 3.2357" stroke="#000" stroke-linecap="round" stroke-linejoin="round" stroke-width=".6"/><path d="m97.1895 41.4883c.4355 1.2858 1.1079 2.4394 1.6011 3.6851" stroke="#000" stroke-linecap="round" stroke-linejoin="round" stroke-width=".6"/><path d="m97.3672 47.7822c.4173.7178.8316 1.4373 1.2453 2.1572" stroke="#000" stroke-linecap="round" stroke-linejoin="round" stroke-width=".6"/><path d="m98.4336 52.7251c.0212-1.1575.0249-2.3908.3558-3.5054" stroke="#000" stroke-linecap="round" stroke-linejoin="round" stroke-width=".6"/><path d="m98.6133 49.5781c1.3877.2922 2.7897.2486 4.1807.4494" stroke="#000" stroke-linecap="round" stroke-linejoin="round" stroke-width=".6"/><path d="m101.902 49.5781c.59.9477 1.141 1.9055 1.69 2.8762" stroke="#000" stroke-linecap="round" stroke-linejoin="round" stroke-width=".6"/><path d="m75.9297 61.1738c.189.6684.382 1.3291.6226 1.9774" stroke="#000" stroke-linecap="round" stroke-linejoin="round" stroke-width=".6"/><path d="m75.752 62.5225c1.3074.7926 2.7124 1.9823 4.2696 2.1571" stroke="#000" stroke-linecap="round" stroke-linejoin="round" stroke-width=".6"/><path d="m73.4395 67.4656c.766-1.445 1.8364-2.7004 2.7574-4.0447" stroke="#000" stroke-linecap="round" stroke-linejoin="round" stroke-width=".6"/><path d="m74.1504 67.0166c.5998.5412 1.4139 1.2744 2.2238 1.4381" stroke="#000" stroke-linecap="round" stroke-linejoin="round" stroke-width=".6"/><path d="m70.5039 58.6572c.6902.8663 1.6188 2.3509 2.7575 2.6066" stroke="#000" stroke-linecap="round" stroke-linejoin="round" stroke-width=".6"/><path d="m70.5039 50.9268c.0175 2.3262.0452 4.6505.2273 6.9708.0399.5079.0961.9876.2175 1.478" stroke="#000" stroke-linecap="round" stroke-linejoin="round" stroke-width=".6"/><path d="m82.4238 53.3535c.2134 2.7165.1908 5.4573.2669 8.1792" stroke="#000" stroke-linecap="round" stroke-linejoin="round" stroke-width=".6"/><path d="m81.7129 58.9268c2.2502 1.716 4.3752 3.5969 6.7602 5.1232" stroke="#000" stroke-linecap="round" stroke-linejoin="round" stroke-width=".6"/><path d="m86.3379 64.5884c2.3003-2.1002 4.9117-3.8364 7.2939-5.8423" stroke="#000" stroke-linecap="round" stroke-linejoin="round" stroke-width=".6"/><path d="m94.0902 52.6016c-.2291 3.2886-.4026 4.9341-.7269 8.2109" stroke="#000" stroke-linecap="round" stroke-linejoin="round" stroke-width=".6"/><path d="m81.623 54.971c2.428-1.7647 4.6757-3.7742 7.205-5.3929" stroke="#000" stroke-linecap="round" stroke-linejoin="round" stroke-width=".6"/><path d="m88.6504 50.1182c1.9089 1.256 3.872 2.3561 5.5149 3.9548" stroke="#000" stroke-linecap="round" stroke-linejoin="round" stroke-width=".6"/><path d="m90.1614 50.8369c-.1013 2.4564-.2029 4.9126-.2669 7.3703" stroke="#000" stroke-linecap="round" stroke-linejoin="round" stroke-width=".6"/><path d="m84.291 61.7135c1.9125-1.1043 3.5228-2.6409 5.426-3.775" stroke="#000" stroke-linecap="round" stroke-linejoin="round" stroke-width=".6"/><path d="m89.5391 57.7568c1.5731.6262 3.2668 1.0178 4.8033 1.7078" stroke="#000" stroke-linecap="round" stroke-linejoin="round" stroke-width=".6"/><path d="m70.6816 56.6797c.6886.6892 1.369 1.3821 2.1349 1.9774" stroke="#000" stroke-linecap="round" stroke-linejoin="round" stroke-width=".6"/><path d="m70.4141 53.4443c.8948 1.0115 1.8976 1.9175 2.8464 2.8762" stroke="#000" stroke-linecap="round" stroke-linejoin="round" stroke-width=".6"/><path d="m76.1953 49.7598c.8032.6206 1.5544 1.3069 2.3127 1.9774" stroke="#000" stroke-linecap="round" stroke-linejoin="round" stroke-width=".6"/><path d="m77.0859 42.6602c.9215.4877 1.9618.8118 2.8465 1.3482" stroke="#000" stroke-linecap="round" stroke-linejoin="round" stroke-width=".6"/><path d="m79.2207 40.7715c.6688.6868 1.7036 1.6925 2.6685 1.8875" stroke="#000" stroke-linecap="round" stroke-linejoin="round" stroke-width=".6"/><path d="m90.6953 40.0527c.3905 1.0488.5756 2.2417 1.0674 3.2358" stroke="#000" stroke-linecap="round" stroke-linejoin="round" stroke-width=".6"/><path d="m100.3 52.0967c-.148-.7801-.274-1.5634-.4445-2.3369" stroke="#000" stroke-linecap="round" stroke-linejoin="round" stroke-width=".6"/><path d="m86.3359 60.7266c.8479.3894 1.6737.808 2.4907 1.2583" stroke="#000" stroke-linecap="round" stroke-linejoin="round" stroke-width=".6"/><path d="m88.3809 59.1973c.737.6416 1.6408 1.167 2.5795 1.4381" stroke="#000" stroke-linecap="round" stroke-linejoin="round" stroke-width=".6"/><path d="m89.9844 55.4219c1.0217.2151 2.7616.6796 3.8378.9486" stroke="#000" stroke-linecap="round" stroke-linejoin="round" stroke-width=".6"/><path d="m90.25 52.9053c1.0255.0914 2.0134.4434 3.0243.6291" stroke="#000" stroke-linecap="round" stroke-linejoin="round" stroke-width=".6"/><path d="m75.1289 64.5889c.9851.5441 1.8175 1.3347 2.6685 2.0672" stroke="#000" stroke-linecap="round" stroke-linejoin="round" stroke-width=".6"/></svg>