<svg width="124" height="40" viewBox="0 0 124 40" fill="none" xmlns="http://www.w3.org/2000/svg">
<path fill-rule="evenodd" clip-rule="evenodd" d="M25.5282 17.74C25.999 18.2154 26.7624 18.2154 27.2332 17.74C27.7041 17.2645 27.7041 16.4936 27.2332 16.0181L21.0218 9.74571L28.5426 5.36091C30.3015 4.33547 32.5 5.61727 32.5 7.66815L32.5 21.0685L23.4087 23.2648C22.7612 23.4213 22.3618 24.0782 22.5167 24.7322C22.6716 25.3861 23.3222 25.7895 23.9698 25.633L32.5 23.5722V33.5819C32.5 35.6327 30.3015 36.9145 28.5426 35.8891L18.0792 29.7886L19.5433 19.1106C19.6346 18.4445 19.1739 17.8298 18.5144 17.7376C17.8548 17.6454 17.2461 18.1106 17.1548 18.7766L15.8251 28.4744L6.31912 22.9322C4.56029 21.9068 4.56029 19.3432 6.31912 18.3178L18.8599 11.0062L25.5282 17.74Z" fill="url(#paint0_linear_1313_277882)"/>
<path d="M51.1941 9.26351H49.2891C49.2348 8.95109 49.1346 8.67434 48.9886 8.43323C48.8425 8.18874 48.6609 7.98159 48.4435 7.8118C48.2262 7.64201 47.9783 7.51467 47.6999 7.42977C47.4248 7.34148 47.1277 7.29734 46.8085 7.29734C46.2414 7.29734 45.7388 7.43996 45.3007 7.72521C44.8627 8.00706 44.5197 8.42135 44.2718 8.96807C44.0239 9.5114 43.9 10.1753 43.9 10.9597C43.9 11.7577 44.0239 12.4301 44.2718 12.9768C44.5231 13.5201 44.8661 13.931 45.3007 14.2095C45.7388 14.4846 46.2397 14.6221 46.8034 14.6221C47.1158 14.6221 47.4078 14.5813 47.6795 14.4998C47.9545 14.4149 48.2007 14.291 48.4181 14.128C48.6388 13.965 48.8239 13.7646 48.9733 13.5269C49.1261 13.2892 49.2314 13.0176 49.2891 12.7119L51.1941 12.7221C51.1228 13.2179 50.9683 13.6831 50.7306 14.1178C50.4963 14.5525 50.189 14.9362 49.8086 15.269C49.4283 15.5984 48.9835 15.8565 48.4741 16.0432C47.9647 16.2266 47.3993 16.3183 46.7779 16.3183C45.861 16.3183 45.0426 16.106 44.3227 15.6816C43.6028 15.2571 43.0357 14.6442 42.6214 13.8427C42.2071 13.0413 42 12.0803 42 10.9597C42 9.8357 42.2088 8.87469 42.6265 8.07668C43.0442 7.27527 43.613 6.66232 44.3329 6.23785C45.0528 5.81337 45.8678 5.60114 46.7779 5.60114C47.3586 5.60114 47.8985 5.68263 48.3977 5.84563C48.8969 6.00863 49.3417 6.24804 49.7322 6.56385C50.1228 6.87626 50.4437 7.25998 50.695 7.71502C50.9496 8.16666 51.116 8.68283 51.1941 9.26351Z" fill="#0B0B0D"/>
<path d="M54.6871 11.5913V16.1757H52.8432V5.74376H54.6464V9.68119H54.7381C54.9215 9.23974 55.205 8.89167 55.5887 8.63698C55.9758 8.3789 56.4682 8.24986 57.0659 8.24986C57.6092 8.24986 58.0829 8.36362 58.487 8.59114C58.8911 8.81866 59.2036 9.15145 59.4243 9.58951C59.6484 10.0276 59.7605 10.5624 59.7605 11.194V16.1757H57.9165V11.4793C57.9165 10.9529 57.7807 10.5437 57.5091 10.2517C57.2408 9.95625 56.8638 9.80853 56.3783 9.80853C56.0523 9.80853 55.7602 9.87985 55.5021 10.0225C55.2474 10.1617 55.0471 10.3637 54.9011 10.6286C54.7585 10.8935 54.6871 11.2144 54.6871 11.5913Z" fill="#0B0B0D"/>
<path d="M63.8915 16.3336C63.3957 16.3336 62.9491 16.2453 62.5518 16.0687C62.1579 15.8887 61.8455 15.6238 61.6146 15.2741C61.3871 14.9243 61.2733 14.493 61.2733 13.9803C61.2733 13.5388 61.3548 13.1738 61.5178 12.8851C61.6808 12.5965 61.9032 12.3656 62.1851 12.1924C62.4669 12.0192 62.7844 11.8885 63.1376 11.8002C63.4942 11.7085 63.8626 11.6423 64.2429 11.6015C64.7014 11.554 65.0732 11.5115 65.3584 11.4742C65.6437 11.4334 65.8508 11.3723 65.9799 11.2908C66.1123 11.2059 66.1785 11.0752 66.1785 10.8986V10.868C66.1785 10.4843 66.0648 10.1872 65.8373 9.97663C65.6097 9.76609 65.282 9.66082 64.8542 9.66082C64.4025 9.66082 64.0443 9.75929 63.7794 9.95625C63.5179 10.1532 63.3413 10.3858 63.2497 10.6541L61.528 10.4096C61.6638 9.93418 61.8879 9.53687 62.2004 9.21766C62.5128 8.89506 62.8948 8.65396 63.3464 8.49436C63.7981 8.33136 64.2973 8.24986 64.844 8.24986C65.2209 8.24986 65.5962 8.29401 65.9697 8.3823C66.3432 8.47059 66.6845 8.61661 66.9935 8.82036C67.3025 9.02071 67.5504 9.29407 67.7372 9.64044C67.9274 9.98681 68.0225 10.4198 68.0225 10.9393V16.1757H66.2498V15.1009H66.1887C66.0767 15.3182 65.9188 15.522 65.715 15.7121C65.5147 15.8989 65.2617 16.05 64.956 16.1655C64.6538 16.2775 64.299 16.3336 63.8915 16.3336ZM64.3703 14.9786C64.7404 14.9786 65.0613 14.9056 65.333 14.7596C65.6046 14.6102 65.8135 14.4132 65.9595 14.1687C66.1089 13.9242 66.1836 13.6577 66.1836 13.369V12.4471C66.1259 12.4946 66.0274 12.5388 65.8882 12.5795C65.7524 12.6203 65.5996 12.6559 65.4298 12.6865C65.26 12.717 65.0919 12.7442 64.9255 12.768C64.7591 12.7917 64.6148 12.8121 64.4925 12.8291C64.2175 12.8665 63.9713 12.9276 63.7539 13.0125C63.5366 13.0974 63.3651 13.2162 63.2395 13.369C63.1138 13.5184 63.051 13.712 63.051 13.9497C63.051 14.2893 63.1749 14.5457 63.4228 14.7189C63.6707 14.892 63.9865 14.9786 64.3703 14.9786Z" fill="#0B0B0D"/>
<path d="M73.2893 16.3285C72.5253 16.3285 71.8631 16.1604 71.3028 15.8242C70.7425 15.488 70.3078 15.0177 69.9988 14.4132C69.6932 13.8088 69.5404 13.1025 69.5404 12.2943C69.5404 11.4861 69.6932 10.778 69.9988 10.1702C70.3078 9.56234 70.7425 9.09032 71.3028 8.75414C71.8631 8.41795 72.5253 8.24986 73.2893 8.24986C74.0534 8.24986 74.7156 8.41795 75.2759 8.75414C75.8362 9.09032 76.2692 9.56234 76.5748 10.1702C76.8838 10.778 77.0383 11.4861 77.0383 12.2943C77.0383 13.1025 76.8838 13.8088 76.5748 14.4132C76.2692 15.0177 75.8362 15.488 75.2759 15.8242C74.7156 16.1604 74.0534 16.3285 73.2893 16.3285ZM73.2995 14.8513C73.7138 14.8513 74.0602 14.7375 74.3386 14.51C74.6171 14.2791 74.8242 13.9701 74.9601 13.583C75.0993 13.1958 75.1689 12.7646 75.1689 12.2892C75.1689 11.8104 75.0993 11.3774 74.9601 10.9903C74.8242 10.5998 74.6171 10.289 74.3386 10.0581C74.0602 9.82721 73.7138 9.71175 73.2995 9.71175C72.8751 9.71175 72.5219 9.82721 72.24 10.0581C71.9616 10.289 71.7527 10.5998 71.6135 10.9903C71.4777 11.3774 71.4098 11.8104 71.4098 12.2892C71.4098 12.7646 71.4777 13.1958 71.6135 13.583C71.7527 13.9701 71.9616 14.2791 72.24 14.51C72.5219 14.7375 72.8751 14.8513 73.2995 14.8513Z" fill="#0B0B0D"/>
<path d="M84.7871 10.4198L83.1062 10.6032C83.0586 10.4334 82.9754 10.2738 82.8566 10.1243C82.7411 9.97493 82.5849 9.85438 82.388 9.76269C82.191 9.671 81.9499 9.62516 81.6647 9.62516C81.2809 9.62516 80.9583 9.70836 80.6969 9.87475C80.4388 10.0411 80.3114 10.2568 80.3148 10.5217C80.3114 10.7492 80.3946 10.9342 80.5644 11.0769C80.7376 11.2195 81.0229 11.3366 81.4202 11.4283L82.7547 11.7136C83.495 11.8732 84.0451 12.1262 84.4051 12.4725C84.7684 12.8189 84.9518 13.2723 84.9552 13.8326C84.9518 14.325 84.8075 14.7596 84.5222 15.1365C84.2404 15.5101 83.8482 15.8021 83.3456 16.0127C82.843 16.2232 82.2657 16.3285 81.6137 16.3285C80.6561 16.3285 79.8853 16.1281 79.3012 15.7274C78.7171 15.3233 78.369 14.7613 78.257 14.0414L80.0551 13.8682C80.1366 14.2214 80.3097 14.4879 80.5746 14.6679C80.8395 14.8479 81.1842 14.9379 81.6086 14.9379C82.0467 14.9379 82.3982 14.8479 82.663 14.6679C82.9313 14.4879 83.0654 14.2655 83.0654 14.0007C83.0654 13.7765 82.9788 13.5915 82.8057 13.4454C82.6359 13.2994 82.371 13.1874 82.011 13.1093L80.6765 12.8291C79.926 12.6729 79.3708 12.4097 79.0108 12.0396C78.6509 11.666 78.4726 11.194 78.476 10.6235C78.4726 10.1413 78.6033 9.72364 78.8682 9.37048C79.1365 9.01392 79.5083 8.73886 79.9837 8.5453C80.4626 8.34834 81.0144 8.24986 81.6392 8.24986C82.5561 8.24986 83.2777 8.44512 83.804 8.83564C84.3338 9.22615 84.6615 9.7542 84.7871 10.4198Z" fill="#0B0B0D"/>
<path d="M42.2649 31.3019V20.87H49.0497V22.4542H44.1546V25.2863H48.6982V26.8704H44.1546V29.7178H49.0904V31.3019H42.2649Z" fill="#0B0B0D"/>
<path d="M52.7401 26.7176V31.3019H50.8962V23.478H52.6586V24.8075H52.7503C52.9302 24.3694 53.2172 24.0213 53.6111 23.7632C54.0084 23.5052 54.4991 23.3761 55.0832 23.3761C55.6231 23.3761 56.0934 23.4916 56.4941 23.7225C56.8982 23.9534 57.2106 24.2879 57.4314 24.726C57.6555 25.164 57.7659 25.6955 57.7625 26.3203V31.3019H55.9185V26.6055C55.9185 26.0826 55.7827 25.6734 55.511 25.3779C55.2428 25.0825 54.8709 24.9348 54.3955 24.9348C54.0729 24.9348 53.786 25.0061 53.5347 25.1487C53.2868 25.288 53.0915 25.49 52.9489 25.7549C52.8097 26.0198 52.7401 26.3407 52.7401 26.7176Z" fill="#0B0B0D"/>
<path d="M63.0395 34.3989C62.3774 34.3989 61.8086 34.3089 61.3331 34.1289C60.8577 33.9523 60.4757 33.7146 60.1871 33.4158C59.8984 33.117 59.6981 32.7859 59.586 32.4225L61.2466 32.0201C61.3213 32.1729 61.4299 32.3241 61.5726 32.4735C61.7152 32.6263 61.907 32.7519 62.1481 32.8504C62.3926 32.9523 62.7 33.0032 63.0701 33.0032C63.5931 33.0032 64.026 32.8759 64.369 32.6212C64.712 32.3699 64.8835 31.9556 64.8835 31.3783V29.8961H64.7918C64.6967 30.0862 64.5575 30.2815 64.3741 30.4818C64.1941 30.6822 63.9547 30.8503 63.6559 30.9861C63.3604 31.1219 62.9886 31.1899 62.5404 31.1899C61.9393 31.1899 61.3943 31.0489 60.9053 30.7671C60.4197 30.4818 60.0326 30.0574 59.7439 29.4937C59.4587 28.9266 59.316 28.2168 59.316 27.3645C59.316 26.5054 59.4587 25.7803 59.7439 25.1895C60.0326 24.5952 60.4214 24.1453 60.9104 23.8396C61.3994 23.5306 61.9444 23.3761 62.5455 23.3761C63.0039 23.3761 63.3808 23.4542 63.6763 23.6104C63.9751 23.7632 64.2128 23.9483 64.3894 24.1656C64.566 24.3796 64.7001 24.5816 64.7918 24.7718H64.8936V23.478H66.7121V31.4293C66.7121 32.0982 66.5525 32.6518 66.2333 33.0898C65.9141 33.5279 65.4777 33.8556 64.9242 34.0729C64.3707 34.2902 63.7425 34.3989 63.0395 34.3989ZM63.0548 29.7432C63.4453 29.7432 63.7781 29.6482 64.0532 29.458C64.3282 29.2678 64.5371 28.9945 64.6797 28.6379C64.8223 28.2814 64.8936 27.8535 64.8936 27.3543C64.8936 26.8619 64.8223 26.4306 64.6797 26.0605C64.5405 25.6904 64.3333 25.4034 64.0583 25.1997C63.7866 24.9925 63.4521 24.889 63.0548 24.889C62.6439 24.889 62.301 24.9959 62.0259 25.2099C61.7508 25.4238 61.5437 25.7175 61.4045 26.0911C61.2652 26.4612 61.1956 26.8823 61.1956 27.3543C61.1956 27.8331 61.2652 28.2525 61.4045 28.6124C61.5471 28.969 61.7559 29.2475 62.031 29.4478C62.3094 29.6448 62.6507 29.7432 63.0548 29.7432Z" fill="#0B0B0D"/>
<path d="M68.6019 31.3019V23.478H70.4458V31.3019H68.6019ZM69.5289 22.3676C69.2369 22.3676 68.9856 22.2708 68.775 22.0772C68.5645 21.8803 68.4592 21.6443 68.4592 21.3692C68.4592 21.0907 68.5645 20.8547 68.775 20.6612C68.9856 20.4642 69.2369 20.3657 69.5289 20.3657C69.8244 20.3657 70.0756 20.4642 70.2828 20.6612C70.4933 20.8547 70.5986 21.0907 70.5986 21.3692C70.5986 21.6443 70.4933 21.8803 70.2828 22.0772C70.0756 22.2708 69.8244 22.3676 69.5289 22.3676Z" fill="#0B0B0D"/>
<path d="M74.1858 26.7176V31.3019H72.3419V23.478H74.1043V24.8075H74.196C74.376 24.3694 74.6629 24.0213 75.0569 23.7632C75.4542 23.5052 75.9449 23.3761 76.5289 23.3761C77.0689 23.3761 77.5392 23.4916 77.9399 23.7225C78.344 23.9534 78.6564 24.2879 78.8771 24.726C79.1013 25.164 79.2116 25.6955 79.2082 26.3203V31.3019H77.3643V26.6055C77.3643 26.0826 77.2285 25.6734 76.9568 25.3779C76.6885 25.0825 76.3167 24.9348 75.8413 24.9348C75.5187 24.9348 75.2317 25.0061 74.9805 25.1487C74.7326 25.288 74.5373 25.49 74.3947 25.7549C74.2555 26.0198 74.1858 26.3407 74.1858 26.7176Z" fill="#0B0B0D"/>
<path d="M84.5464 31.4547C83.762 31.4547 83.0845 31.2917 82.514 30.9657C81.9469 30.6363 81.5106 30.1711 81.205 29.5701C80.8993 28.9656 80.7465 28.2542 80.7465 27.4358C80.7465 26.631 80.8993 25.9247 81.205 25.3168C81.514 24.7056 81.9452 24.2302 82.4988 23.8906C83.0523 23.5476 83.7026 23.3761 84.4496 23.3761C84.9319 23.3761 85.3869 23.4542 85.8148 23.6104C86.246 23.7632 86.6264 24.0009 86.9557 24.3235C87.2885 24.6462 87.55 25.057 87.7402 25.5562C87.9303 26.052 88.0254 26.6429 88.0254 27.3288V27.8942H81.6125V26.6514H86.2579C86.2545 26.2982 86.1781 25.9841 86.0287 25.709C85.8793 25.4306 85.6704 25.2116 85.4022 25.0519C85.1373 24.8923 84.8283 24.8125 84.4751 24.8125C84.0982 24.8125 83.7671 24.9042 83.4818 25.0876C83.1966 25.2676 82.9742 25.5053 82.8146 25.8007C82.6584 26.0928 82.5786 26.4137 82.5752 26.7634V27.8484C82.5752 28.3034 82.6584 28.6939 82.8248 29.0199C82.9911 29.3425 83.2238 29.5904 83.5226 29.7636C83.8214 29.9334 84.1712 30.0183 84.5719 30.0183C84.8402 30.0183 85.083 29.981 85.3003 29.9062C85.5176 29.8281 85.7061 29.7144 85.8657 29.565C86.0253 29.4156 86.1459 29.2305 86.2273 29.0098L87.949 29.2033C87.8404 29.6584 87.6332 30.0557 87.3276 30.3952C87.0254 30.7314 86.6382 30.9929 86.1662 31.1797C85.6942 31.363 85.1543 31.4547 84.5464 31.4547Z" fill="#0B0B0D"/>
<path d="M93.0491 31.4547C92.2647 31.4547 91.5872 31.2917 91.0167 30.9657C90.4496 30.6363 90.0132 30.1711 89.7076 29.5701C89.402 28.9656 89.2492 28.2542 89.2492 27.4358C89.2492 26.631 89.402 25.9247 89.7076 25.3168C90.0166 24.7056 90.4479 24.2302 91.0014 23.8906C91.5549 23.5476 92.2052 23.3761 92.9523 23.3761C93.4345 23.3761 93.8896 23.4542 94.3174 23.6104C94.7487 23.7632 95.129 24.0009 95.4584 24.3235C95.7912 24.6462 96.0527 25.057 96.2428 25.5562C96.433 26.052 96.5281 26.6429 96.5281 27.3288V27.8942H90.1151V26.6514H94.7606C94.7572 26.2982 94.6808 25.9841 94.5314 25.709C94.3819 25.4306 94.1731 25.2116 93.9048 25.0519C93.64 24.8923 93.3309 24.8125 92.9778 24.8125C92.6008 24.8125 92.2698 24.9042 91.9845 25.0876C91.6993 25.2676 91.4768 25.5053 91.3172 25.8007C91.161 26.0928 91.0812 26.4137 91.0778 26.7634V27.8484C91.0778 28.3034 91.161 28.6939 91.3274 29.0199C91.4938 29.3425 91.7264 29.5904 92.0253 29.7636C92.3241 29.9334 92.6739 30.0183 93.0746 30.0183C93.3428 30.0183 93.5856 29.981 93.803 29.9062C94.0203 29.8281 94.2088 29.7144 94.3684 29.565C94.528 29.4156 94.6485 29.2305 94.73 29.0098L96.4517 29.2033C96.343 29.6584 96.1359 30.0557 95.8303 30.3952C95.528 30.7314 95.1409 30.9929 94.6689 31.1797C94.1969 31.363 93.6569 31.4547 93.0491 31.4547Z" fill="#0B0B0D"/>
<path d="M98.088 31.3019V23.478H99.8759V24.782H99.9574C100.1 24.3303 100.345 23.9823 100.691 23.7378C101.041 23.4899 101.44 23.3659 101.888 23.3659C101.99 23.3659 102.104 23.371 102.229 23.3812C102.358 23.388 102.465 23.3999 102.55 23.4169V25.1131C102.472 25.0859 102.348 25.0621 102.178 25.0418C102.012 25.018 101.851 25.0061 101.694 25.0061C101.358 25.0061 101.056 25.0791 100.788 25.2251C100.523 25.3678 100.314 25.5664 100.161 25.8211C100.008 26.0758 99.932 26.3695 99.932 26.7023V31.3019H98.088Z" fill="#0B0B0D"/>
<path d="M103.775 31.3019V23.478H105.619V31.3019H103.775ZM104.702 22.3676C104.41 22.3676 104.159 22.2708 103.948 22.0772C103.738 21.8803 103.633 21.6443 103.633 21.3692C103.633 21.0907 103.738 20.8547 103.948 20.6612C104.159 20.4642 104.41 20.3657 104.702 20.3657C104.998 20.3657 105.249 20.4642 105.456 20.6612C105.667 20.8547 105.772 21.0907 105.772 21.3692C105.772 21.6443 105.667 21.8803 105.456 22.0772C105.249 22.2708 104.998 22.3676 104.702 22.3676Z" fill="#0B0B0D"/>
<path d="M109.359 26.7176V31.3019H107.515V23.478H109.278V24.8075H109.369C109.549 24.3694 109.836 24.0213 110.23 23.7632C110.627 23.5052 111.118 23.3761 111.702 23.3761C112.242 23.3761 112.712 23.4916 113.113 23.7225C113.517 23.9534 113.83 24.2879 114.05 24.726C114.275 25.164 114.385 25.6955 114.382 26.3203V31.3019H112.538V26.6055C112.538 26.0826 112.402 25.6734 112.13 25.3779C111.862 25.0825 111.49 24.9348 111.015 24.9348C110.692 24.9348 110.405 25.0061 110.154 25.1487C109.906 25.288 109.711 25.49 109.568 25.7549C109.429 26.0198 109.359 26.3407 109.359 26.7176Z" fill="#0B0B0D"/>
<path d="M119.659 34.3989C118.996 34.3989 118.428 34.3089 117.952 34.1289C117.477 33.9523 117.095 33.7146 116.806 33.4158C116.517 33.117 116.317 32.7859 116.205 32.4225L117.866 32.0201C117.94 32.1729 118.049 32.3241 118.192 32.4735C118.334 32.6263 118.526 32.7519 118.767 32.8504C119.012 32.9523 119.319 33.0032 119.689 33.0032C120.212 33.0032 120.645 32.8759 120.988 32.6212C121.331 32.3699 121.503 31.9556 121.503 31.3783V29.8961H121.411C121.316 30.0862 121.177 30.2815 120.993 30.4818C120.813 30.6822 120.574 30.8503 120.275 30.9861C119.979 31.1219 119.608 31.1899 119.159 31.1899C118.558 31.1899 118.013 31.0489 117.524 30.7671C117.039 30.4818 116.652 30.0574 116.363 29.4937C116.078 28.9266 115.935 28.2168 115.935 27.3645C115.935 26.5054 116.078 25.7803 116.363 25.1895C116.652 24.5952 117.04 24.1453 117.529 23.8396C118.018 23.5306 118.563 23.3761 119.165 23.3761C119.623 23.3761 120 23.4542 120.295 23.6104C120.594 23.7632 120.832 23.9483 121.008 24.1656C121.185 24.3796 121.319 24.5816 121.411 24.7718H121.513V23.478H123.331V31.4293C123.331 32.0982 123.172 32.6518 122.852 33.0898C122.533 33.5279 122.097 33.8556 121.543 34.0729C120.99 34.2902 120.362 34.3989 119.659 34.3989ZM119.674 29.7432C120.064 29.7432 120.397 29.6482 120.672 29.458C120.947 29.2678 121.156 28.9945 121.299 28.6379C121.441 28.2814 121.513 27.8535 121.513 27.3543C121.513 26.8619 121.441 26.4306 121.299 26.0605C121.16 25.6904 120.952 25.4034 120.677 25.1997C120.406 24.9925 120.071 24.889 119.674 24.889C119.263 24.889 118.92 24.9959 118.645 25.2099C118.37 25.4238 118.163 25.7175 118.024 26.0911C117.884 26.4612 117.815 26.8823 117.815 27.3543C117.815 27.8331 117.884 28.2525 118.024 28.6124C118.166 28.969 118.375 29.2475 118.65 29.4478C118.928 29.6448 119.27 29.7432 119.674 29.7432Z" fill="#0B0B0D"/>
<defs>
<linearGradient id="paint0_linear_1313_277882" x1="15.7303" y1="9.87" x2="32.7216" y2="36.0167" gradientUnits="userSpaceOnUse">
<stop stop-color="#FF61A2"/>
<stop offset="1" stop-color="#D8005A"/>
</linearGradient>
</defs>
</svg>
