<svg width="227" height="228" viewBox="0 0 227 228" fill="none" xmlns="http://www.w3.org/2000/svg">
<g filter="url(#filter0_dd_255_208039)">
<path fill-rule="evenodd" clip-rule="evenodd" d="M147.776 85.5736C147.776 85.3276 147.576 85.1283 147.33 85.1283C147.085 85.1283 146.885 85.3276 146.885 85.5736V92.3089C146.885 92.5549 147.085 92.7542 147.33 92.7542C147.576 92.7542 147.776 92.5549 147.776 92.3089V85.5736ZM147.776 105.78C147.776 105.534 147.576 105.334 147.33 105.334C147.085 105.334 146.885 105.534 146.885 105.78V119.25C146.885 119.496 147.085 119.696 147.33 119.696C147.576 119.696 147.776 119.496 147.776 119.25V105.78ZM147.776 132.721C147.776 132.475 147.576 132.276 147.33 132.276C147.085 132.276 146.885 132.475 146.885 132.721V139.456C146.885 139.702 147.085 139.902 147.33 139.902C147.576 139.902 147.776 139.702 147.776 139.456V132.721ZM79.2118 81.7578C79.2118 81.5119 79.0124 81.3125 78.7665 81.3125C78.5205 81.3125 78.3212 81.5119 78.3212 81.7578V93.3205C78.3212 93.5664 78.5205 93.7658 78.7665 93.7658C79.0124 93.7658 79.2118 93.5664 79.2118 93.3205V81.7578ZM79.2118 106.791C79.2118 106.545 79.0124 106.346 78.7665 106.346C78.5205 106.346 78.3212 106.545 78.3212 106.791V120.262C78.3212 120.508 78.5205 120.707 78.7665 120.707C79.0124 120.707 79.2118 120.508 79.2118 120.262V106.791ZM79.2118 133.733C79.2118 133.487 79.0124 133.287 78.7665 133.287C78.5205 133.287 78.3212 133.487 78.3212 133.733V140.468C78.3212 140.714 78.5205 140.913 78.7665 140.913C79.0124 140.913 79.2118 140.714 79.2118 140.468V133.733ZM95.2288 84.5442C95.2288 84.2983 95.0294 84.0989 94.7835 84.0989C94.5376 84.0989 94.3382 84.2983 94.3382 84.5442V96.8177C94.3382 97.0637 94.5376 97.263 94.7835 97.263C95.0294 97.263 95.2288 97.0637 95.2288 96.8177V84.5442ZM95.2288 106.837C95.2288 106.591 95.0294 106.392 94.7835 106.392C94.5376 106.392 94.3382 106.591 94.3382 106.837V111.847V116.857C94.3382 117.103 94.5376 117.302 94.7835 117.302C95.0294 117.302 95.2288 117.103 95.2288 116.857V111.847V106.837ZM95.2288 126.876C95.2288 126.63 95.0294 126.431 94.7835 126.431C94.5376 126.431 94.3382 126.63 94.3382 126.876V131.886C94.3382 132.132 94.5376 132.331 94.7835 132.331C95.0294 132.331 95.2288 132.132 95.2288 131.886V126.876ZM128.627 84.9289C128.873 84.9289 129.073 85.1282 129.073 85.3742V94.3685C129.073 94.6144 128.873 94.8138 128.627 94.8138C128.381 94.8138 128.182 94.6144 128.182 94.3685V85.3742C128.182 85.1282 128.381 84.9289 128.627 84.9289ZM128.627 105.279C128.873 105.279 129.073 105.478 129.073 105.724V117.079C129.073 117.325 128.873 117.525 128.627 117.525C128.381 117.525 128.182 117.325 128.182 117.079V105.724C128.182 105.478 128.381 105.279 128.627 105.279ZM128.627 127.99C128.873 127.99 129.073 128.189 129.073 128.435V134.113C129.073 134.359 128.873 134.558 128.627 134.558C128.381 134.558 128.182 134.359 128.182 134.113V128.435C128.182 128.189 128.381 127.99 128.627 127.99Z" fill="url(#paint0_linear_255_208039)"/>
<path d="M78.3064 140.904L93.8924 130.662L129.072 131.553L147.33 143.131V154.709L130.493 167.155H97.9002L78.3064 153.373V140.904Z" fill="white"/>
<path fill-rule="evenodd" clip-rule="evenodd" d="M97.8341 128.649C97.963 128.858 97.8977 129.132 97.6882 129.261C91.899 132.824 82.5502 138.611 77.2098 142.015C77.0024 142.148 76.7271 142.087 76.5949 141.879C76.4627 141.672 76.5236 141.396 76.731 141.264C82.0781 137.856 91.4324 132.065 97.2214 128.503C97.4309 128.374 97.7052 128.439 97.8341 128.649Z" fill="black"/>
<path fill-rule="evenodd" clip-rule="evenodd" d="M78.3867 139.759C78.5276 139.557 78.8052 139.508 79.0068 139.649C81.1266 141.13 83.3649 142.715 85.6316 144.321C90.9799 148.109 96.4858 152.009 100.963 154.914C101.169 155.048 101.228 155.323 101.094 155.53C100.96 155.736 100.684 155.795 100.478 155.661C95.9851 152.746 90.4534 148.828 85.0981 145.035C82.8356 143.432 80.6046 141.852 78.4967 140.379C78.2951 140.238 78.2459 139.96 78.3867 139.759Z" fill="black"/>
<path fill-rule="evenodd" clip-rule="evenodd" d="M126.918 130.42C127.053 130.214 127.329 130.156 127.535 130.29C133.871 134.427 142.218 139.634 148.442 143.191C148.656 143.313 148.73 143.585 148.608 143.798C148.486 144.012 148.214 144.086 148 143.964C141.756 140.396 133.393 135.179 127.048 131.036C126.842 130.902 126.784 130.626 126.918 130.42Z" fill="black"/>
<path fill-rule="evenodd" clip-rule="evenodd" d="M129.176 155.479C129.334 155.667 129.615 155.691 129.803 155.533C131.568 154.048 134.916 151.863 138.545 149.512C138.727 149.395 138.909 149.277 139.092 149.158C142.544 146.923 146.172 144.574 148.805 142.597C149.001 142.45 149.041 142.171 148.894 141.974C148.746 141.777 148.467 141.738 148.27 141.885C145.663 143.843 142.059 146.176 138.595 148.419C138.417 148.534 138.239 148.65 138.061 148.765C134.455 151.101 131.048 153.321 129.23 154.852C129.041 155.01 129.017 155.291 129.176 155.479Z" fill="black"/>
<path fill-rule="evenodd" clip-rule="evenodd" d="M128.716 168.336C128.863 168.533 129.142 168.573 129.339 168.426C136.461 163.084 141.356 159.524 148.923 154.183C149.124 154.041 149.171 153.763 149.03 153.562C148.888 153.362 148.61 153.314 148.409 153.455C140.835 158.802 135.933 162.367 128.805 167.713C128.608 167.861 128.568 168.14 128.716 168.336Z" fill="black"/>
<path fill-rule="evenodd" clip-rule="evenodd" d="M76.6141 151.771C76.7617 151.574 77.0408 151.534 77.2376 151.682C84.3574 157.022 90.5877 161.472 98.1569 166.815C98.3578 166.957 98.4057 167.235 98.2639 167.436C98.1221 167.636 97.8442 167.684 97.6433 167.543C90.0718 162.198 83.8333 157.742 76.7032 152.394C76.5064 152.247 76.4665 151.968 76.6141 151.771Z" fill="black"/>
<path fill-rule="evenodd" clip-rule="evenodd" d="M95.8652 153.632C95.8652 153.386 96.0646 153.187 96.3105 153.187L134.353 153.187C134.599 153.187 134.798 153.386 134.798 153.632C134.798 153.878 134.599 154.077 134.353 154.077L96.3105 154.077C96.0646 154.077 95.8652 153.878 95.8652 153.632Z" fill="black"/>
<path fill-rule="evenodd" clip-rule="evenodd" d="M90.3296 130.649C90.3375 130.403 90.5432 130.21 90.789 130.218C104.594 130.663 119.283 131.108 133.525 131.108C133.771 131.108 133.97 131.308 133.97 131.554C133.97 131.8 133.771 131.999 133.525 131.999C119.267 131.999 104.565 131.553 90.7603 131.108C90.5145 131.1 90.3217 130.895 90.3296 130.649Z" fill="black"/>
<path fill-rule="evenodd" clip-rule="evenodd" d="M131.596 167.65L95.7592 167.65C95.5132 167.65 95.3138 167.451 95.3138 167.205C95.3138 166.959 95.5132 166.76 95.7592 166.76L131.596 166.76C131.842 166.76 132.041 166.959 132.041 167.205C132.041 167.451 131.842 167.65 131.596 167.65Z" fill="black"/>
<path fill-rule="evenodd" clip-rule="evenodd" d="M78.7517 137.812C78.9976 137.812 79.197 138.011 79.197 138.257V154.264C79.197 154.51 78.9976 154.709 78.7517 154.709C78.5058 154.709 78.3064 154.51 78.3064 154.264V138.257C78.3064 138.011 78.5058 137.812 78.7517 137.812Z" fill="black"/>
<path fill-rule="evenodd" clip-rule="evenodd" d="M147.33 140.905C147.576 140.905 147.775 141.105 147.775 141.351V157.55C147.775 157.796 147.576 157.996 147.33 157.996C147.084 157.996 146.885 157.796 146.885 157.55V141.351C146.885 141.105 147.084 140.905 147.33 140.905Z" fill="black"/>
<path fill-rule="evenodd" clip-rule="evenodd" d="M97.4546 152.483C97.7005 152.483 97.8999 152.683 97.8999 152.929V167.589C97.8999 167.835 97.7005 168.034 97.4546 168.034C97.2087 168.034 97.0093 167.835 97.0093 167.589V152.929C97.0093 152.683 97.2087 152.483 97.4546 152.483Z" fill="black"/>
<path fill-rule="evenodd" clip-rule="evenodd" d="M131.299 151.147C131.545 151.147 131.744 151.347 131.744 151.593V168.259C131.744 168.505 131.545 168.705 131.299 168.705C131.053 168.705 130.854 168.505 130.854 168.259V151.593C130.854 151.347 131.053 151.147 131.299 151.147Z" fill="black"/>
<path fill-rule="evenodd" clip-rule="evenodd" d="M80.1975 140.859C80.4356 140.921 80.5789 141.163 80.5176 141.402L79.1816 146.586C79.1202 146.824 78.8774 146.967 78.6393 146.906C78.4011 146.844 78.2578 146.601 78.3192 146.363L79.6551 141.179C79.7165 140.941 79.9593 140.798 80.1975 140.859ZM83.5483 143.146C83.7864 143.208 83.9297 143.45 83.8684 143.689L80.9994 154.821C80.938 155.06 80.6952 155.203 80.4571 155.141C80.2189 155.08 80.0756 154.837 80.137 154.599L83.0059 143.466C83.0673 143.228 83.3101 143.085 83.5483 143.146Z" fill="black"/>
<path fill-rule="evenodd" clip-rule="evenodd" d="M86.9788 145.353C87.217 145.415 87.3603 145.658 87.2989 145.896L84.4251 157.048C84.3637 157.286 84.1209 157.429 83.8827 157.368C83.6446 157.306 83.5012 157.063 83.5626 156.825L86.4365 145.673C86.4979 145.435 86.7407 145.292 86.9788 145.353ZM89.8478 147.599C90.0859 147.66 90.2293 147.903 90.1679 148.141L87.2989 159.274C87.2376 159.512 86.9947 159.656 86.7566 159.594C86.5184 159.533 86.3751 159.29 86.4365 159.052L89.3054 147.919C89.3668 147.681 89.6096 147.538 89.8478 147.599ZM93.2142 149.825C93.4523 149.887 93.5956 150.13 93.5343 150.368L90.5506 161.946C90.4892 162.184 90.2464 162.327 90.0082 162.266C89.77 162.205 89.6267 161.962 89.6881 161.724L92.6718 150.146C92.7332 149.907 92.976 149.764 93.2142 149.825Z" fill="black"/>
<path fill-rule="evenodd" clip-rule="evenodd" d="M103.732 153.34C103.97 153.401 104.113 153.644 104.052 153.882L100.711 166.845C100.65 167.083 100.407 167.226 100.169 167.165C99.9308 167.103 99.7874 166.861 99.8488 166.622L103.189 153.66C103.251 153.422 103.493 153.278 103.732 153.34ZM96.6743 152.057C96.9124 152.119 97.0558 152.362 96.9944 152.6L94.012 164.173C93.9506 164.411 93.7078 164.554 93.4696 164.493C93.2315 164.432 93.0882 164.189 93.1495 163.951L96.1319 152.378C96.1933 152.139 96.4361 151.996 96.6743 152.057ZM99.7915 153.34C100.03 153.401 100.173 153.644 100.112 153.882L96.9944 165.978C96.933 166.216 96.6902 166.36 96.452 166.298C96.2139 166.237 96.0706 165.994 96.1319 165.756L99.2491 153.66C99.3105 153.422 99.5533 153.278 99.7915 153.34Z" fill="black"/>
<path fill-rule="evenodd" clip-rule="evenodd" d="M115.755 153.335C115.993 153.396 116.137 153.639 116.075 153.877L112.619 167.29C112.558 167.528 112.315 167.671 112.077 167.61C111.838 167.548 111.695 167.305 111.756 167.067L115.213 153.655C115.274 153.417 115.517 153.274 115.755 153.335ZM111.815 153.335C112.053 153.396 112.197 153.639 112.135 153.877L108.679 167.29C108.617 167.528 108.375 167.671 108.136 167.61C107.898 167.548 107.755 167.305 107.816 167.067L111.273 153.655C111.334 153.417 111.577 153.274 111.815 153.335ZM108.367 153.335C108.606 153.396 108.749 153.639 108.687 153.877L105.231 167.29C105.17 167.528 104.927 167.671 104.689 167.61C104.451 167.548 104.307 167.305 104.369 167.067L107.825 153.655C107.886 153.417 108.129 153.274 108.367 153.335Z" fill="black"/>
<path fill-rule="evenodd" clip-rule="evenodd" d="M126.733 153.834C126.972 153.895 127.115 154.138 127.054 154.376L123.726 167.29C123.664 167.529 123.421 167.672 123.183 167.61C122.945 167.549 122.802 167.306 122.863 167.068L126.191 154.154C126.253 153.916 126.495 153.773 126.733 153.834ZM122.793 153.834C123.031 153.895 123.175 154.138 123.113 154.376L119.785 167.29C119.724 167.529 119.481 167.672 119.243 167.61C119.005 167.549 118.862 167.306 118.923 167.068L122.251 154.154C122.312 153.916 122.555 153.773 122.793 153.834ZM119.346 153.834C119.584 153.895 119.727 154.138 119.666 154.376L116.338 167.29C116.276 167.529 116.034 167.672 115.795 167.61C115.557 167.549 115.414 167.306 115.475 167.068L118.803 154.154C118.865 153.916 119.108 153.773 119.346 153.834Z" fill="black"/>
<path fill-rule="evenodd" clip-rule="evenodd" d="M139.33 148.045C139.568 148.106 139.711 148.349 139.65 148.587L135.863 163.283C135.801 163.521 135.559 163.664 135.32 163.603C135.082 163.541 134.939 163.298 135 163.06L138.787 148.365C138.849 148.127 139.092 147.983 139.33 148.045ZM134.471 151.607C134.71 151.669 134.853 151.911 134.792 152.15L130.89 167.29C130.828 167.528 130.586 167.672 130.347 167.61C130.109 167.549 129.966 167.306 130.027 167.068L133.929 151.927C133.99 151.689 134.233 151.546 134.471 151.607ZM130.565 153.389C130.803 153.45 130.946 153.693 130.885 153.931L127.442 167.29C127.381 167.528 127.138 167.672 126.9 167.61C126.662 167.549 126.518 167.306 126.58 167.068L130.022 153.709C130.084 153.47 130.327 153.327 130.565 153.389Z" fill="black"/>
<path fill-rule="evenodd" clip-rule="evenodd" d="M147.618 144.927C147.856 144.989 148 145.232 147.938 145.47L145.069 156.603C145.008 156.841 144.765 156.984 144.527 156.923C144.289 156.861 144.145 156.619 144.207 156.38L147.076 145.248C147.137 145.009 147.38 144.866 147.618 144.927ZM143.432 145.818C143.671 145.879 143.814 146.122 143.752 146.36L140.31 159.72C140.248 159.958 140.006 160.101 139.767 160.04C139.529 159.979 139.386 159.736 139.447 159.498L142.89 146.138C142.951 145.9 143.194 145.757 143.432 145.818Z" fill="black"/>
</g>
<path d="M147.184 40.7524C148.177 38.6236 150.713 37.6933 152.79 38.791C168.363 47.0238 181.029 59.9097 188.989 75.7019C197.589 92.7628 200.194 112.222 196.385 130.944C192.576 149.666 182.574 166.56 167.993 178.905C153.411 191.249 135.097 198.325 116.003 198.992C96.9095 199.658 78.1472 193.877 62.7397 182.58C47.3321 171.283 36.1768 155.127 31.071 136.717C25.9653 118.306 27.2066 98.7126 34.5949 81.0935C41.4339 64.7845 53.1709 51.0464 68.1314 41.7474C70.1262 40.5074 72.7214 41.2586 73.8601 43.3129C74.9988 45.3672 74.2491 47.9458 72.2612 49.1968C58.9687 57.5617 48.5389 69.836 42.4389 84.3828C35.7895 100.24 34.6723 117.874 39.2674 134.444C43.8626 151.013 53.9024 165.553 67.7692 175.721C81.6359 185.888 98.522 191.091 115.707 190.491C132.891 189.891 149.373 183.523 162.497 172.413C175.62 161.303 184.622 146.098 188.05 129.248C191.478 112.398 189.133 94.8851 181.394 79.5304C174.294 65.4445 163.033 53.9277 149.19 46.5104C147.12 45.4011 146.192 42.8811 147.184 40.7524Z" fill="#F3F3FA"/>
<defs>
<filter id="filter0_dd_255_208039" x="62.3957" y="74.2478" width="100.845" height="116.034" filterUnits="userSpaceOnUse" color-interpolation-filters="sRGB">
<feFlood flood-opacity="0" result="BackgroundImageFix"/>
<feColorMatrix in="SourceAlpha" type="matrix" values="0 0 0 0 0 0 0 0 0 0 0 0 0 0 0 0 0 0 127 0" result="hardAlpha"/>
<feOffset dy="7.06468"/>
<feGaussianBlur stdDeviation="7.06468"/>
<feColorMatrix type="matrix" values="0 0 0 0 0.376471 0 0 0 0 0.380392 0 0 0 0 0.439216 0 0 0 0.16 0"/>
<feBlend mode="normal" in2="BackgroundImageFix" result="effect1_dropShadow_255_208039"/>
<feColorMatrix in="SourceAlpha" type="matrix" values="0 0 0 0 0 0 0 0 0 0 0 0 0 0 0 0 0 0 127 0" result="hardAlpha"/>
<feOffset dy="1.76617"/>
<feGaussianBlur stdDeviation="1.76617"/>
<feColorMatrix type="matrix" values="0 0 0 0 0.156863 0 0 0 0 0.160784 0 0 0 0 0.239216 0 0 0 0.04 0"/>
<feBlend mode="normal" in2="effect1_dropShadow_255_208039" result="effect2_dropShadow_255_208039"/>
<feBlend mode="normal" in="SourceGraphic" in2="effect2_dropShadow_255_208039" result="shape"/>
</filter>
<linearGradient id="paint0_linear_255_208039" x1="88.7273" y1="80.834" x2="82.2663" y2="205.876" gradientUnits="userSpaceOnUse">
<stop stop-color="#00CFDE"/>
<stop offset="1" stop-color="#05A660"/>
</linearGradient>
</defs>
</svg>
