<svg width="159" height="151" viewBox="0 0 159 151" fill="none" xmlns="http://www.w3.org/2000/svg">
<g filter="url(#filter0_dd_1231_246471)">
<path d="M45.7943 4.05797C46.9282 3.4033 48.3252 3.40329 49.4592 4.05797L87.0402 25.7554C88.1741 26.4101 88.8727 27.6199 88.8727 28.9293V72.3241C88.8727 73.6335 88.1741 74.8434 87.0402 75.498L49.4592 97.1955C48.3252 97.8501 46.9282 97.8501 45.7943 97.1955L8.21322 75.498C7.0793 74.8434 6.38077 73.6335 6.38077 72.3241L6.38077 28.9293C6.38077 27.6199 7.0793 26.4101 8.21322 25.7554L45.7943 4.05797Z" fill="#EF9790"/>
<path d="M46.2524 4.85144C47.1028 4.36044 48.1506 4.36044 49.0011 4.85144L86.5821 26.5489C87.4325 27.0399 87.9564 27.9473 87.9564 28.9293V72.3241C87.9564 73.3061 87.4325 74.2136 86.5821 74.7046L49.0011 96.402C48.1506 96.893 47.1028 96.893 46.2524 96.402L8.67134 74.7046C7.82089 74.2136 7.29699 73.3061 7.29699 72.3241L7.29699 28.9293C7.29699 27.9473 7.82089 27.0399 8.67134 26.5489L46.2524 4.85144Z" stroke="#EF9790" stroke-width="1.83245"/>
</g>
<path d="M97.0089 130.083L101.994 121.483L120.439 137.187C118.611 136.231 113.958 134.071 109.97 133.074C104.985 131.828 103.739 134.694 100.997 135.691C98.2554 136.688 97.0089 145.163 95.8875 142.296C94.9904 140.003 96.2613 133.199 97.0089 130.083Z" fill="white"/>
<path fill-rule="evenodd" clip-rule="evenodd" d="M37.7979 17.6044C58.7354 12.4814 74.1786 25.6787 79.2831 32.9177C95.1721 54.4259 83.2759 70.7508 72.3361 78.4829L115.478 143.452L108.518 147.628L63.0585 83.0716C46.4794 88.3047 19.2345 86.8383 11.626 57.4189C3.2733 25.1218 34.1784 17.6044 37.7979 17.6044ZM24.817 28.9811L17.1604 48.4705L20.6407 63.7837L33.8657 75.6166L47.7867 79.0968L61.7078 75.6166L75.6288 65.1758L78.413 54.0389L75.6288 40.814L64.492 31.0692L50.5709 24.8048L37.3459 23.4127L24.817 28.9811Z" fill="white"/>
<path fill-rule="evenodd" clip-rule="evenodd" d="M77.3701 59.2445C75.8491 63.5355 72.7677 67.7194 67.7768 71.5316C53.1349 82.7151 37.3943 79.4083 27.4931 70.5694C22.5201 66.1301 18.9875 60.2546 17.8218 54.102C17.817 54.1503 17.8123 54.1986 17.8077 54.247C17.7769 54.5663 17.4931 54.8002 17.1738 54.7694C16.8546 54.7386 16.6207 54.4549 16.6515 54.1356C16.8436 52.1416 17.1081 50.2545 17.4395 48.4707C17.6108 45.4474 18.4087 42.4415 19.9399 39.5865C22.943 32.0223 27.5745 27.2312 32.9997 24.6703C41.2871 20.7584 51.2516 22.1369 59.6975 26.4815C68.1424 30.8255 75.1929 38.1963 77.6208 46.4529C78.8376 50.5908 78.8918 54.9516 77.3701 59.2445ZM22.8598 36.0949C25.667 31.0106 29.3698 27.6682 33.4955 25.7207C41.3554 22.0106 50.9269 23.2762 59.1662 27.5144C67.4065 31.7532 74.1903 38.904 76.5064 46.7806C77.6616 50.7092 77.7068 54.8178 76.2753 58.8564C74.8432 62.8968 71.9189 66.9062 67.0717 70.6084C52.9312 81.409 37.81 78.2223 28.2666 69.7029C21.9816 64.0923 18.1712 56.2374 18.6045 48.5574C19.1972 45.4035 20.0015 42.5948 20.9826 40.1056C21.5588 39.0326 22.2438 37.9837 23.0435 36.9667C23.2418 36.7146 23.1981 36.3494 22.9459 36.1512C22.9185 36.1295 22.8896 36.1108 22.8598 36.0949Z" fill="black"/>
<path fill-rule="evenodd" clip-rule="evenodd" d="M71.5246 78.7422C71.7886 78.56 72.1503 78.6264 72.3324 78.8905L116.333 142.68C116.515 142.944 116.449 143.306 116.185 143.488C115.921 143.67 115.559 143.604 115.377 143.34L71.3763 79.55C71.1941 79.286 71.2605 78.9243 71.5246 78.7422Z" fill="black"/>
<path d="M94.5192 114.968L86.566 116.268C86.5657 117.186 88.0183 118.256 89.0898 119.403C89.8809 120.25 94.7487 115.656 94.5192 114.968Z" fill="white"/>
<path fill-rule="evenodd" clip-rule="evenodd" d="M62.4145 82.68C62.6767 82.4953 63.0391 82.5581 63.2238 82.8204L108.629 147.286C108.813 147.548 108.75 147.91 108.488 148.095C108.226 148.28 107.864 148.217 107.679 147.955L62.2741 83.4892C62.0894 83.227 62.1523 82.8647 62.4145 82.68Z" fill="black"/>
<path fill-rule="evenodd" clip-rule="evenodd" d="M117.028 142.649C117.19 142.926 117.098 143.281 116.821 143.444L108.869 148.116C108.592 148.279 108.236 148.186 108.074 147.91C107.911 147.633 108.004 147.277 108.28 147.115L116.233 142.442C116.509 142.28 116.865 142.372 117.028 142.649Z" fill="black"/>
<path d="M92.0095 130.052C92.781 123.278 97.405 115.795 99.6207 112.901C100.317 113.175 92.9118 108.615 92.0095 103.438C91.087 98.1455 96.6337 91.0308 109.257 98.475C120.4 105.046 110.538 114.003 107.976 114.003C107.43 116.688 136.075 145.044 135.189 147.459C103.494 130.052 104.386 120.21 103.494 120.726C98.6063 123.556 94.3681 133.947 92.5458 138.842C92.0455 138.735 91.2379 136.827 92.0095 130.052Z" fill="white"/>
<path fill-rule="evenodd" clip-rule="evenodd" d="M100.688 111.871C100.906 112.106 100.893 112.473 100.659 112.692C99.1873 114.064 97.8084 116.155 96.6086 118.616C95.4122 121.071 94.4104 123.861 93.6781 126.6C92.9454 129.341 92.4871 132.014 92.3689 134.234C92.3098 135.344 92.3365 136.329 92.4515 137.145C92.4709 137.283 92.4926 137.415 92.5165 137.54C92.5655 137.406 92.6178 137.263 92.6736 137.114C93.138 135.869 93.8423 134.136 94.8033 132.175C96.7213 128.262 99.6802 123.405 103.827 119.733C104.067 119.52 104.434 119.542 104.646 119.782C104.859 120.023 104.837 120.39 104.597 120.602C100.611 124.133 97.7325 128.838 95.8463 132.687C94.9052 134.607 94.2156 136.304 93.7618 137.52C93.5349 138.128 93.3672 138.615 93.2565 138.948C93.2011 139.115 93.1601 139.244 93.1331 139.33C93.1196 139.373 93.1095 139.406 93.103 139.427L93.0958 139.451L93.0942 139.456L93.0939 139.457C93.0939 139.457 93.0938 139.457 92.5371 139.292" fill="black"/>
<path fill-rule="evenodd" clip-rule="evenodd" d="M100.442 95.6238C97.4184 95.5043 94.5347 96.7681 92.635 100.261C91.5558 102.246 92.196 104.464 93.6146 106.656C95.001 108.799 97.0234 110.743 98.4576 112.122L98.5292 112.191C98.7604 112.413 98.7676 112.781 98.5453 113.012C98.3229 113.243 97.9553 113.25 97.7241 113.028C97.691 112.996 97.6576 112.964 97.6237 112.932C96.2046 111.567 94.1001 109.545 92.6394 107.287C91.153 104.99 90.2205 102.27 91.6146 99.7062C93.7361 95.8052 97.0453 94.327 100.487 94.4631C103.886 94.5976 107.379 96.2986 110.01 98.6647C112.631 101.023 114.501 104.139 114.478 107.184C114.455 110.31 112.448 113.141 107.799 114.875C107.498 114.987 107.164 114.834 107.051 114.534C106.939 114.233 107.092 113.899 107.393 113.787C111.737 112.167 113.298 109.68 113.317 107.176C113.336 104.591 111.722 101.767 109.233 99.5283C106.753 97.2974 103.508 95.7451 100.442 95.6238Z" fill="black"/>
<path fill-rule="evenodd" clip-rule="evenodd" d="M106.839 113.466C107.077 113.25 107.444 113.268 107.66 113.505C121.225 128.456 128.995 137.283 132.866 142.13C133.835 143.343 134.566 144.314 135.084 145.074C135.592 145.819 135.931 146.409 136.068 146.845C136.132 147.048 136.193 147.338 136.085 147.617C135.946 147.978 135.622 148.108 135.363 148.127C135.135 148.144 134.895 148.087 134.685 148.019C134.463 147.947 134.215 147.841 133.949 147.712C132.897 147.204 131.355 146.237 129.597 145.11C129.273 144.903 128.942 144.69 128.603 144.472C127.087 143.498 125.436 142.436 123.772 141.429C121.735 140.197 119.699 139.059 117.893 138.274C116.055 137.475 114.569 137.094 113.585 137.241C113.268 137.289 112.972 137.07 112.925 136.753C112.877 136.436 113.096 136.14 113.413 136.092C114.752 135.891 116.509 136.406 118.356 137.209C120.233 138.025 122.322 139.195 124.373 140.435C126.052 141.451 127.72 142.523 129.236 143.498C129.573 143.715 129.903 143.927 130.223 144.132C132.001 145.271 133.479 146.195 134.454 146.666C134.581 146.728 134.696 146.779 134.798 146.822C134.662 146.557 134.445 146.198 134.125 145.729C133.63 145.003 132.919 144.057 131.959 142.855C128.114 138.042 120.37 129.243 106.8 114.286C106.584 114.048 106.602 113.681 106.839 113.466Z" fill="black"/>
<path fill-rule="evenodd" clip-rule="evenodd" d="M92.9576 98.6841C93.2784 98.6841 93.5384 98.9441 93.5384 99.2649C93.5384 101.46 94.7634 103.348 96.5804 104.711C98.4005 106.076 100.754 106.862 102.857 106.862C103.178 106.862 103.438 107.122 103.438 107.443C103.438 107.764 103.178 108.024 102.857 108.024C100.493 108.024 97.8963 107.15 95.8835 105.64C93.8677 104.129 92.3768 101.928 92.3768 99.2649C92.3768 98.9441 92.6369 98.6841 92.9576 98.6841Z" fill="black"/>
<path fill-rule="evenodd" clip-rule="evenodd" d="M98.2687 133.801C98.5727 133.903 98.7363 134.232 98.6341 134.537C98.4332 135.134 98.1671 136.416 97.9081 138.032C97.6516 139.634 97.4085 141.522 97.2466 143.307C97.0841 145.099 97.0058 146.762 97.0712 147.924C97.0951 148.349 97.137 148.676 97.1895 148.909C97.3374 148.717 97.5188 148.456 97.7267 148.14C98.1818 147.446 98.7386 146.522 99.3063 145.545C100.441 143.594 101.602 141.463 102.047 140.622C102.197 140.339 102.549 140.231 102.832 140.381C103.116 140.531 103.224 140.882 103.074 141.166C102.622 142.018 101.454 144.162 100.311 146.129C99.7394 147.112 99.1702 148.057 98.6978 148.777C98.4623 149.136 98.2445 149.448 98.0584 149.684C97.9658 149.801 97.8734 149.909 97.7845 149.998C97.7114 150.07 97.5837 150.189 97.4198 150.252C97.1381 150.36 96.8296 150.331 96.5753 150.14C96.3639 149.98 96.2444 149.748 96.1709 149.554C96.0202 149.158 95.946 148.602 95.9115 147.99C95.8411 146.74 95.9259 145.009 96.0898 143.202C96.2542 141.389 96.5007 139.474 96.7612 137.848C97.0193 136.237 97.2976 134.867 97.5331 134.166C97.6353 133.862 97.9646 133.699 98.2687 133.801ZM96.9315 149.205C96.9315 149.205 96.9323 149.204 96.9339 149.203C96.9323 149.204 96.9315 149.205 96.9315 149.205Z" fill="black"/>
<path fill-rule="evenodd" clip-rule="evenodd" d="M88.6929 115.164C87.5675 115.358 86.2427 115.586 84.6822 115.853C84.3661 115.907 84.0659 115.695 84.0118 115.379C83.9577 115.063 84.1702 114.762 84.4863 114.708C86.0356 114.443 87.3546 114.216 88.478 114.023C90.8961 113.606 92.4076 113.346 93.3562 113.2C94.0403 113.094 94.4735 113.042 94.7513 113.04C94.8875 113.039 95.0492 113.049 95.2025 113.109C95.3432 113.165 95.4461 113.249 95.5204 113.342C95.6617 113.476 95.764 113.647 95.8075 113.848C95.856 114.071 95.8214 114.284 95.7613 114.462C95.6461 114.803 95.3953 115.138 95.1185 115.44C94.5511 116.059 93.6709 116.757 92.7443 117.414C90.8875 118.732 88.6896 119.997 88.0193 120.301C87.7273 120.434 87.383 120.305 87.2503 120.013C87.1175 119.721 87.2467 119.377 87.5387 119.244C88.1182 118.98 90.25 117.76 92.0721 116.467C92.985 115.819 93.7815 115.18 94.262 114.655C94.4347 114.467 94.5433 114.318 94.6053 114.209C94.4009 114.224 94.0708 114.265 93.5329 114.348C92.5949 114.492 91.1 114.75 88.6929 115.164Z" fill="black"/>
<path fill-rule="evenodd" clip-rule="evenodd" d="M44.8304 16.0502C57.2389 16.0516 69.3659 21.0115 77.3826 29.6113C85.4171 38.2302 89.2971 50.4811 85.217 64.9556L85.2121 64.9732L85.206 64.9905C82.5988 72.4136 75.7603 78.4371 67.3728 82.1608C58.976 85.8885 48.9394 87.3534 39.8114 85.5823C28.5302 83.3934 18.0043 75.438 12.7713 64.5895C8.11188 54.93 7.6608 43.0021 14.5478 30.8542C11.3163 34.6801 9.07393 39.204 8.41686 44.2963C8.37581 44.6144 8.08465 44.839 7.76653 44.798C7.44841 44.7569 7.2238 44.4658 7.26485 44.1477C8.20098 36.8927 12.1915 30.7928 17.5931 26.1571C17.6023 26.1487 17.6117 26.1407 17.6213 26.133C18.7611 25.1568 19.9635 24.2456 21.2131 23.4025C28.3964 18.5558 37.2021 15.9103 44.8304 16.0502ZM18.4155 26.9817C8.80052 40.3314 8.76554 53.6115 13.8175 64.0848C18.8913 74.6033 29.1114 82.3229 40.0326 84.442C48.9021 86.1629 58.6975 84.7412 66.9015 81.0991C75.1079 77.4559 81.6347 71.6328 84.104 64.6227C88.0641 50.5526 84.2917 38.7265 76.533 30.4034C68.7543 22.059 56.943 17.2118 44.8251 17.2118H44.8143L44.8143 17.2117C37.4419 17.0751 28.8656 19.6405 21.8628 24.3654C20.661 25.1762 19.5075 26.0493 18.4155 26.9817Z" fill="black"/>
<path fill-rule="evenodd" clip-rule="evenodd" d="M145.814 61.067C145.943 61.0177 146.086 61.0217 146.213 61.0781C146.339 61.1345 146.438 61.2388 146.487 61.368C147.283 63.4479 149.303 68.8282 150.927 74.733C151.739 77.6859 152.455 80.7782 152.867 83.6614C153.278 86.5358 153.393 89.2409 152.981 91.4005C152.949 91.5305 152.868 91.6434 152.756 91.7157C152.643 91.7881 152.507 91.8144 152.375 91.7893C152.244 91.7641 152.127 91.6895 152.049 91.5807C151.971 91.4719 151.938 91.3373 151.956 91.2047C152.337 89.2121 152.239 86.6409 151.834 83.8086C151.431 80.984 150.727 77.937 149.922 75.0096C148.312 69.1546 146.305 63.8119 145.513 61.7408C145.463 61.6115 145.467 61.468 145.524 61.3417C145.58 61.2153 145.684 61.1166 145.814 61.067Z" fill="black"/>
<path d="M152.724 89.858C153.491 87.5545 148.246 69.7054 145.526 61.069C152.437 62.6047 153.203 72.2644 152.724 76.9024C155.603 74.5037 160.689 68.5537 158.003 63.9478C155.315 59.342 147.286 55.9509 143.609 54.8324C146.647 49.8736 158.003 40.4373 139.291 42.3569C126.597 43.6591 130.014 52.1129 133.053 54.8324C131.294 54.672 129.022 53.7758 124.416 59.1506C119.809 64.5242 119.298 72.1051 122.017 74.0236C122.017 74.0236 123.571 69.0283 124.416 66.3475C125.534 62.7994 130.653 59.1506 130.653 59.1506C127.935 68.4264 120.576 87.4583 120.576 87.4583C120.576 87.4583 129.694 82.1809 134.012 78.8219C137.467 76.1356 141.848 79.9416 143.609 82.1809C146.327 85.6992 151.956 92.1604 152.724 89.858Z" fill="white"/>
<path fill-rule="evenodd" clip-rule="evenodd" d="M139.734 41.303C141.817 41.0331 143.95 41.0563 146.021 41.5542C146.806 41.7423 147.681 42.0189 148.434 42.4802C149.194 42.946 149.853 43.6154 150.146 44.589C150.289 45.0755 150.351 45.5824 150.329 46.0892C150.519 47.6735 149.958 49.1738 148.99 50.4926C148.014 51.8224 146.603 52.9985 145.039 53.9489C143.485 54.8898 141.807 55.6096 140.054 56.0875C138.393 56.5323 136.766 56.6982 135.452 56.4604C134.569 56.2947 133.715 55.9986 132.92 55.5819C132.764 55.5189 132.61 55.4514 132.458 55.3783C131.991 55.1492 131.568 54.8382 131.21 54.46C131.022 54.3067 130.84 54.1462 130.665 53.9788C129.323 52.7031 128.342 51.0159 128.222 49.1152C128.086 46.9787 129.36 45.4165 130.926 44.3223C131.929 43.622 133.089 43.0832 134.176 42.6772C135.497 42.0952 136.946 41.7633 138.457 41.5055C138.881 41.4268 139.306 41.3593 139.734 41.303ZM138.608 42.5377C139.03 42.4662 139.451 42.3995 139.874 42.3375C141.855 42.0808 143.855 42.1063 145.778 42.5676C146.521 42.7469 147.274 42.9914 147.889 43.3686C148.497 43.7415 148.948 44.2272 149.147 44.8888C149.49 46.0284 149.191 47.3726 148.519 48.6859C147.871 49.9282 147.002 51.0424 145.955 51.974C144.462 53.2773 142.14 54.3594 139.694 54.876C137.433 55.354 135.143 55.3341 133.354 54.6315C132.849 54.3659 132.37 54.0524 131.924 53.6955C131.29 53.0184 130.818 52.0614 130.547 51.0137C130.149 49.4714 130.241 47.9391 130.718 47.1137C131.72 45.3789 133.02 44.3323 134.569 43.6441C135.101 43.4475 135.641 43.2711 136.187 43.1153C136.985 42.8854 137.793 42.6927 138.608 42.5377ZM129.256 48.926C129.247 48.6525 129.27 48.3788 129.324 48.1106C129.285 48.3728 129.263 48.646 129.256 48.926ZM130.477 58.932C130.539 58.9603 130.595 59.0006 130.642 59.0507C130.689 59.1007 130.725 59.1595 130.749 59.2237C130.773 59.2878 130.784 59.356 130.781 59.4245C130.779 59.4929 130.763 59.5602 130.734 59.6224C128.774 63.9085 127.69 66.6445 126.485 69.6838C125.644 71.8025 124.746 74.0694 123.451 77.1109C123.119 77.8931 122.265 80.0937 121.747 82.2898C121.487 83.3906 121.319 84.4616 121.33 85.3412C121.342 86.1721 121.513 86.7042 121.781 86.9842C122.286 87.0704 122.924 86.8691 123.727 86.3425C124.574 85.7859 125.492 84.9429 126.46 83.9859C126.803 83.6473 127.154 83.2922 127.508 82.9337C128.126 82.3005 128.755 81.6786 129.396 81.0684C130.37 80.1523 131.367 79.3236 132.334 78.8401C134.879 77.5678 137.377 77.6054 139.762 78.7074C142.121 79.7971 144.343 81.9147 146.424 84.7559C147.39 86.0736 148.424 87.4455 149.726 88.3815C151.001 89.2987 152.531 89.7965 154.526 89.3529C154.594 89.3336 154.666 89.3285 154.736 89.3379C154.807 89.3472 154.874 89.3709 154.935 89.4073C154.996 89.4437 155.049 89.4922 155.091 89.5497C155.132 89.6073 155.162 89.6727 155.177 89.742C155.193 89.8113 155.194 89.883 155.181 89.9528C155.167 90.0225 155.14 90.0889 155.1 90.1477C155.06 90.2066 155.009 90.2567 154.949 90.2951C154.89 90.3334 154.823 90.3592 154.753 90.3708C152.43 90.8874 150.6 90.2955 149.117 89.229C147.661 88.1812 146.536 86.6744 145.582 85.3722C143.552 82.6007 141.456 80.6391 139.324 79.6544C137.219 78.6808 135.054 78.6454 132.801 79.7728C131.978 80.1844 131.073 80.9223 130.11 81.8284C129.5 82.4026 128.889 83.0211 128.273 83.6451C127.915 84.0058 127.556 84.3698 127.194 84.7271C126.224 85.6864 125.241 86.5958 124.299 87.2143C123.373 87.8217 122.368 88.2277 121.397 87.9666C121.326 87.9478 121.26 87.9143 121.204 87.8681C120.508 87.305 120.301 86.3281 120.288 85.3556C120.274 84.351 120.464 83.1849 120.732 82.0497C121.269 79.7761 122.146 77.5158 122.492 76.7026C123.762 73.7176 124.657 71.4595 125.499 69.3386C126.716 66.2695 127.82 63.4847 129.786 59.1887C129.815 59.1264 129.855 59.0704 129.905 59.0238C129.955 58.9772 130.014 58.9409 130.078 58.917C130.142 58.8932 130.21 58.8822 130.279 58.8848C130.347 58.8874 130.414 58.9034 130.477 58.932Z" fill="black"/>
<path fill-rule="evenodd" clip-rule="evenodd" d="M143.338 54.0178C143.374 53.9593 143.421 53.9085 143.476 53.8682C143.532 53.8279 143.595 53.7989 143.661 53.783C143.728 53.7671 143.797 53.7644 143.865 53.7753C143.933 53.7862 143.998 53.8103 144.056 53.8463C144.604 54.1821 145.153 54.5163 145.703 54.8487C148.956 56.8214 152.201 58.7885 155.08 61.4239C157.776 63.8911 159.3 66.9303 158.95 69.943C158.598 72.9733 156.374 75.7924 151.976 77.8535C151.852 77.905 151.713 77.9066 151.588 77.858C151.462 77.8094 151.361 77.7143 151.304 77.5926C151.247 77.4709 151.239 77.3319 151.282 77.2045C151.325 77.0771 151.415 76.9711 151.534 76.9087C155.735 74.9393 157.618 72.3715 157.914 69.8224C158.212 67.2556 156.923 64.5239 154.376 62.1939C151.578 59.6327 148.432 57.7242 145.177 55.7493C144.624 55.414 144.068 55.0777 143.509 54.7347C143.392 54.6622 143.308 54.5461 143.276 54.4117C143.243 54.2773 143.266 54.1357 143.338 54.0178ZM133.077 54.2524C133.092 54.3193 133.093 54.3885 133.08 54.4558C133.067 54.5232 133.042 54.5873 133.004 54.6447C132.967 54.7021 132.919 54.7515 132.862 54.7901C132.805 54.8287 132.742 54.8558 132.675 54.8697C128.297 55.7924 124.47 59.1569 122.555 63.1166C120.834 66.6725 120.696 70.6057 122.968 73.6427C123.199 69.6996 124.548 64.0814 129.816 59.2532C129.866 59.2069 129.925 59.171 129.99 59.1476C130.054 59.1241 130.122 59.1136 130.191 59.1166C130.259 59.1196 130.326 59.136 130.389 59.165C130.451 59.1939 130.506 59.2348 130.553 59.2853C130.599 59.3357 130.635 59.3948 130.658 59.4592C130.682 59.5236 130.692 59.5919 130.689 59.6603C130.686 59.7287 130.67 59.7959 130.641 59.858C130.612 59.9201 130.571 59.9758 130.521 60.0221C124.908 65.1667 123.973 71.2396 123.973 74.9913C123.973 75.0944 123.942 75.195 123.885 75.2806C123.827 75.3662 123.746 75.4328 123.65 75.4722C123.555 75.5116 123.451 75.5219 123.349 75.5019C123.248 75.4819 123.155 75.4325 123.082 75.3598C119.535 71.8127 119.577 66.8739 121.615 62.6619C123.65 58.4555 127.721 54.8476 132.46 53.8496C132.527 53.8354 132.596 53.8345 132.664 53.847C132.731 53.8596 132.795 53.8853 132.852 53.9227C132.91 53.9601 132.959 54.0085 132.998 54.0651C133.036 54.1217 133.063 54.1853 133.077 54.2524ZM131.053 47.8796C131.118 47.8578 131.186 47.849 131.255 47.8538C131.323 47.8586 131.39 47.8768 131.451 47.9074C131.512 47.9381 131.567 47.9805 131.612 48.0323C131.656 48.0841 131.691 48.1443 131.712 48.2093C132.323 50.0415 134.411 50.9731 136.987 51.0317C139.535 51.0892 142.277 50.2716 143.832 48.9373C143.939 48.8594 144.071 48.8246 144.202 48.8397C144.333 48.8548 144.453 48.9188 144.539 49.0189C144.625 49.119 144.67 49.2478 144.665 49.3795C144.66 49.5113 144.605 49.6363 144.512 49.7295C142.71 51.2751 139.692 52.1359 136.963 52.0739C134.262 52.013 131.552 51.0251 130.723 48.539C130.701 48.4741 130.693 48.4055 130.698 48.3372C130.702 48.2689 130.721 48.2023 130.751 48.141C130.782 48.0798 130.824 48.0252 130.876 47.9803C130.928 47.9355 130.988 47.9013 131.053 47.8796Z" fill="black"/>
<path fill-rule="evenodd" clip-rule="evenodd" d="M143.189 60.2217C143.208 60.1558 143.239 60.0944 143.282 60.0407C143.324 59.9871 143.377 59.9423 143.437 59.9091C143.497 59.8758 143.562 59.8546 143.63 59.8467C143.698 59.8388 143.767 59.8445 143.833 59.8632C147.261 60.8434 150.758 62.8183 152.652 65.9106C154.572 69.0461 154.771 73.2127 151.82 78.3762C151.748 78.489 151.635 78.5698 151.505 78.6019C151.375 78.6339 151.238 78.6148 151.121 78.5485C151.005 78.4822 150.919 78.3737 150.88 78.2454C150.841 78.1172 150.854 77.979 150.914 77.8595C153.721 72.9483 153.441 69.1966 151.762 66.455C150.056 63.6691 146.837 61.806 143.547 60.8667C143.481 60.8478 143.419 60.8162 143.366 60.7736C143.312 60.7309 143.267 60.6781 143.234 60.6182C143.201 60.5583 143.18 60.4925 143.172 60.4244C143.164 60.3564 143.17 60.2875 143.189 60.2217Z" fill="black"/>
<path opacity="0.6" fill-rule="evenodd" clip-rule="evenodd" d="M32.5486 35.2426C32.6057 35.0193 32.8328 34.8846 33.0558 34.9419L40.5603 36.8679C40.6222 36.8837 40.6796 36.9137 40.7281 36.9554L48.2088 43.3802L56.0955 48.3193H63.9692C64.1994 48.3193 64.3861 48.5061 64.3861 48.7367C64.3861 48.9672 64.1994 49.1541 63.9692 49.1541H55.9759C55.8977 49.1541 55.8211 49.1321 55.7549 49.0906L47.7402 44.0714C47.7225 44.0604 47.7057 44.048 47.6898 44.0344L40.2592 37.6525L32.8489 35.7506C32.6259 35.6934 32.4914 35.466 32.5486 35.2426Z" fill="white"/>
<path d="M41.4803 37.4743C41.4803 38.1623 40.9233 38.72 40.2363 38.72C39.5493 38.72 38.9924 38.1623 38.9924 37.4743C38.9924 36.7863 39.5493 36.2285 40.2363 36.2285C40.9233 36.2285 41.4803 36.7863 41.4803 37.4743Z" fill="white"/>
<path d="M49.473 43.4787C49.473 44.1667 48.9161 44.7244 48.229 44.7244C47.542 44.7244 46.985 44.1667 46.985 43.4787C46.985 42.7907 47.542 42.2329 48.229 42.2329C48.9161 42.2329 49.473 42.7907 49.473 43.4787Z" fill="white"/>
<path d="M57.4666 48.4831C57.4666 49.1711 56.9096 49.7288 56.2226 49.7288C55.5356 49.7288 54.9786 49.1711 54.9786 48.4831C54.9786 47.7951 55.5356 47.2373 56.2226 47.2373C56.9096 47.2373 57.4666 47.7951 57.4666 48.4831Z" fill="white"/>
<path d="M65.4598 48.4831C65.4598 49.1711 64.9028 49.7288 64.2158 49.7288C63.5288 49.7288 62.9718 49.1711 62.9718 48.4831C62.9718 47.7951 63.5288 47.2373 64.2158 47.2373C64.9028 47.2373 65.4598 47.7951 65.4598 48.4831Z" fill="white"/>
<path d="M33.4866 35.4733C33.4866 36.1613 32.9297 36.719 32.2427 36.719C31.5557 36.719 30.9988 36.1613 30.9988 35.4733C30.9988 34.7853 31.5557 34.2275 32.2427 34.2275C32.9297 34.2275 33.4866 34.7853 33.4866 35.4733Z" fill="white"/>
<rect x="32.841" y="40.9048" width="8.90186" height="24.4801" fill="#F5B2AD" stroke="white" stroke-width="0.855686"/>
<rect x="41.7438" y="46.8408" width="8.16004" height="18.5455" fill="#F5B2AD" stroke="white" stroke-width="0.855686"/>
<rect x="49.9031" y="52.0308" width="8.16004" height="13.3528" fill="#F5B2AD" stroke="white" stroke-width="0.855686"/>
<rect x="58.0634" y="54.999" width="8.16004" height="10.3855" fill="#F5B2AD" stroke="white" stroke-width="0.855686"/>
<defs>
<filter id="filter0_dd_1231_246471" x="2.71583" y="0.818214" width="89.8218" height="101.449" filterUnits="userSpaceOnUse" color-interpolation-filters="sRGB">
<feFlood flood-opacity="0" result="BackgroundImageFix"/>
<feColorMatrix in="SourceAlpha" type="matrix" values="0 0 0 0 0 0 0 0 0 0 0 0 0 0 0 0 0 0 127 0" result="hardAlpha"/>
<feOffset dy="0.916227"/>
<feGaussianBlur stdDeviation="1.83245"/>
<feColorMatrix type="matrix" values="0 0 0 0 0.376471 0 0 0 0 0.380392 0 0 0 0 0.439216 0 0 0 0.16 0"/>
<feBlend mode="normal" in2="BackgroundImageFix" result="effect1_dropShadow_1231_246471"/>
<feColorMatrix in="SourceAlpha" type="matrix" values="0 0 0 0 0 0 0 0 0 0 0 0 0 0 0 0 0 0 127 0" result="hardAlpha"/>
<feOffset/>
<feGaussianBlur stdDeviation="0.916227"/>
<feColorMatrix type="matrix" values="0 0 0 0 0.156863 0 0 0 0 0.160784 0 0 0 0 0.239216 0 0 0 0.08 0"/>
<feBlend mode="normal" in2="effect1_dropShadow_1231_246471" result="effect2_dropShadow_1231_246471"/>
<feBlend mode="normal" in="SourceGraphic" in2="effect2_dropShadow_1231_246471" result="shape"/>
</filter>
</defs>
</svg>
