<svg width="320" height="201" fill="none" xmlns="http://www.w3.org/2000/svg"><path d="M86.97 137.104c-10.234-1.969-17.019 6.741-22.674 14.362-7.903 6.542-6.157 10.486-5.56 11.794 3.839 8.405 8.818 23.282 22.322 25.074 7.986 1.06 22.553-10.934 27.086-19.637 3.641-6.991-5.773-16.419-7.704-19.692-4.477-7.587-7.06-10.668-13.47-11.901Z" fill="#fff"/><path opacity=".5" fill-rule="evenodd" clip-rule="evenodd" d="M74.898 138.108c2.075-2.074 8.381-.594 11.22 2.244 4.487 4.488 16.828 20.195 16.828 23.561 0 3.365-1.643 7.252-5.61 11.219-4.487 4.487-14.584 11.219-16.828 12.341-2.244 1.122-4.488 1.122-11.22-7.854-6.731-8.975-12.34-17.95-11.219-20.194.898-1.795 10.098-14.585 16.83-21.317Zm-2.68 12.341 5.609 7.854 6.731-6.732c-1.122-2.244-3.814-6.731-5.61-6.731-1.794 0-5.235 3.739-6.73 5.609Zm10.096 13.463 7.854-6.731c1.496 1.87 4.488 5.834 4.488 6.731 0 2.706-2.175 4.687-4.194 6.525-.493.449-.976.889-1.416 1.329l-6.732-7.854Zm1.122 12.342-5.61-7.854-6.73 5.61c.153.308.308.637.468.979v.001c1.004 2.146 2.238 4.784 5.14 5.751 1.704.568 5.985-2.992 6.732-4.487ZM73.34 162.79l-5.61-7.853-.25.262v.001c-1.857 1.941-5.258 5.498-3.115 8.712l.001.002c1.208 1.812 2.243 3.365 3.365 4.486l5.61-5.61Z" fill="#FCFEFF"/><path fill-rule="evenodd" clip-rule="evenodd" d="M85.368 141.152c-4.388-4.389-9.5-3.149-11.536-1.113-3.489 3.488-11.08 13.296-13.294 16.619-2.458 3.687-1.069 7.317.03 9.517l-.314.157.315-.157c1.283 2.566 3.605 6.273 5.838 9.571 2.242 3.311 4.348 6.144 5.199 6.994.31.311.638.662.966 1.012.25.268.5.535.743.785.583.6 1.184 1.165 1.841 1.625 1.294.906 2.817 1.415 4.88.899 1.03-.258 2.399-.95 3.977-1.958 1.569-1.002 3.307-2.291 5.07-3.709 3.528-2.835 7.132-6.162 9.642-8.671 2.67-2.67 3.179-5.299 2.918-7.519-.237-2.011-1.105-3.706-1.695-4.859a38.228 38.228 0 0 1-.204-.402c-.23-.459-.957-1.58-2.018-3.108a194.7 194.7 0 0 0-3.874-5.354c-2.937-3.925-6.286-8.132-8.484-10.329Zm-12.243-1.821c2.416-2.416 8.16-3.676 12.95 1.114 2.255 2.254 5.642 6.513 8.578 10.437a196.24 196.24 0 0 1 3.894 5.382c1.05 1.511 1.823 2.696 2.092 3.232.058.118.125.247.196.387.588 1.145 1.542 3.002 1.801 5.205.295 2.51-.309 5.447-3.204 8.342-2.53 2.53-6.161 5.882-9.722 8.743-1.78 1.431-3.549 2.744-5.158 3.773-1.6 1.021-3.08 1.786-4.274 2.085-2.39.597-4.206-.007-5.695-1.049-.734-.514-1.386-1.131-1.985-1.748-.278-.287-.534-.561-.782-.826-.308-.33-.604-.648-.917-.961-.931-.93-3.091-3.848-5.32-7.141-2.238-3.306-4.59-7.057-5.904-9.684-1.127-2.253-2.75-6.347.03-10.519 2.238-3.355 9.869-13.221 13.42-16.772Z" fill="#000"/><path fill-rule="evenodd" clip-rule="evenodd" d="M92.386 139.812c-4.396-4.396-9.067-3.589-12.132-2.976-2.716.544-4.309 1.349-5.629 2.405-.668.534-1.275 1.14-1.932 1.832-.189.198-.382.404-.581.618-.491.523-1.022 1.089-1.62 1.687l-.707-.707c.586-.586 1.099-1.133 1.585-1.652.203-.216.4-.427.598-.635.665-.699 1.31-1.346 2.033-1.924 1.463-1.17 3.209-2.035 6.057-2.604 3.11-.622 8.253-1.533 13.035 3.249 2.254 2.254 5.642 6.513 8.578 10.438a194.503 194.503 0 0 1 3.894 5.382c1.049 1.51 1.823 2.695 2.091 3.232.059.118.126.247.197.386.588 1.145 1.541 3.002 1.801 5.205.295 2.511-.309 5.447-3.204 8.342-2.52 2.52-6.233 6.205-9.875 9.4-1.821 1.597-3.632 3.079-5.273 4.234-1.628 1.145-3.137 2.005-4.346 2.307-4.482 1.121-7.97 1.158-10.362-.038l.447-.894c2.06 1.03 5.25 1.068 9.672-.038 1.018-.254 2.4-1.019 4.013-2.155 1.6-1.126 3.382-2.582 5.19-4.168 3.615-3.171 7.307-6.835 9.827-9.355 2.67-2.67 3.179-5.299 2.917-7.518-.236-2.011-1.104-3.706-1.694-4.86a55.948 55.948 0 0 1-.204-.401c-.23-.459-.957-1.581-2.018-3.109a192.966 192.966 0 0 0-3.874-5.353c-2.937-3.926-6.286-8.132-8.484-10.33Z" fill="#000"/><path fill-rule="evenodd" clip-rule="evenodd" d="M77.19 145.438c.61-.388 1.26-.687 1.854-.687.635 0 1.255.384 1.793.854.556.485 1.117 1.144 1.641 1.853 1.052 1.421 2.013 3.117 2.578 4.248l.161.322-7.35 7.35-6.128-8.579.236-.295c.753-.942 1.995-2.353 3.28-3.534.642-.59 1.306-1.134 1.934-1.532Zm-4.196 5.398 5 7.001 6.004-6.005c-.559-1.079-1.41-2.545-2.323-3.779-.505-.682-1.016-1.276-1.496-1.695-.498-.435-.88-.607-1.135-.607-.297 0-.742.165-1.319.531-.558.355-1.174.855-1.793 1.424-1.112 1.022-2.199 2.232-2.938 3.13Zm-5.026 3.649 6.163 8.629-6.218 6.218-.353-.354c-1.148-1.147-2.198-2.722-3.378-4.492l-.024-.036c-1.265-1.897-.78-3.881.155-5.532.845-1.494 2.115-2.82 2.989-3.733l.249-.261.417-.439Zm-2.785 4.925c-.85 1.503-1.154 3.043-.193 4.485 1.077 1.616 1.988 2.979 2.931 4.014l4.904-4.903-4.968-6.955c-.86.902-1.943 2.069-2.674 3.359Zm25.058-2.632.323.404a78.277 78.277 0 0 1 2.802 3.727c.468.668.894 1.314 1.206 1.856.156.27.288.523.383.744.088.205.171.444.171.664 0 1.849-.927 3.355-2.074 4.645-.574.646-1.217 1.252-1.844 1.828l-.41.374c-.488.444-.956.87-1.383 1.298l-.382.381-7.355-8.58 8.563-7.341Zm-7.153 7.449 6.006 7.007c.336-.321.688-.642 1.04-.963l.398-.362c.624-.573 1.234-1.15 1.773-1.755 1.08-1.215 1.821-2.491 1.821-3.981v.001s-.001-.02-.015-.067a1.765 1.765 0 0 0-.075-.204 6.362 6.362 0 0 0-.33-.639 25.777 25.777 0 0 0-1.16-1.782 76.52 76.52 0 0 0-2.44-3.27l-7.018 6.015Zm-5.064 3.669 6.054 8.475-.135.269c-.223.445-.674.99-1.212 1.53-.548.55-1.22 1.13-1.924 1.644-.701.512-1.448.97-2.142 1.265-.667.284-1.399.466-2.006.264-1.808-.603-3.001-1.808-3.875-3.119-.628-.942-1.113-1.978-1.536-2.882a39.63 39.63 0 0 0-.443-.928l-.177-.354 7.396-6.164Zm-6.15 6.427c.104.216.207.437.312.66.413.885.847 1.812 1.43 2.686.796 1.194 1.829 2.215 3.36 2.725.237.079.67.032 1.298-.235.6-.255 1.278-.667 1.943-1.153a15.636 15.636 0 0 0 1.806-1.542c.39-.392.69-.745.877-1.022l-5.063-7.088-5.963 4.969ZM99.917 172.037a.5.5 0 0 1 .251-.662l8.283-3.729a.501.501 0 0 1 .411.912l-8.284 3.729a.5.5 0 0 1-.661-.25Zm2.724-5.635a.5.5 0 0 1 .209-.675l6.37-3.356a.5.5 0 1 1 .466.885l-6.37 3.355a.5.5 0 0 1-.675-.209Zm-.796-5.145a.5.5 0 0 1 .209-.676l4.777-2.517a.5.5 0 0 1 .466.885l-4.777 2.517a.5.5 0 0 1-.675-.209ZM92.765 149.197a.5.5 0 0 1 .21-.676l4.777-2.516a.5.5 0 1 1 .466.884l-4.777 2.517a.5.5 0 0 1-.676-.209Zm2.48 4.258a.5.5 0 0 1 .21-.675l5.482-2.888a.5.5 0 1 1 .466.885l-5.482 2.888a.5.5 0 0 1-.676-.21Zm2.297 3.659a.5.5 0 0 1 .21-.675l5.573-2.936a.5.5 0 1 1 .466.885l-5.573 2.936a.5.5 0 0 1-.675-.21ZM83.211 138.818a.5.5 0 0 1 .21-.676l4.08-2.15a.5.5 0 0 1 .467.885l-4.081 2.15a.5.5 0 0 1-.676-.209Zm4.082 3.415a.5.5 0 0 1 .209-.676l4.677-2.464a.5.5 0 0 1 .466.885l-4.677 2.464a.5.5 0 0 1-.675-.209Zm3.084 3.244a.5.5 0 0 1 .21-.675l4.776-2.517a.5.5 0 1 1 .466.885l-4.777 2.516a.5.5 0 0 1-.675-.209ZM83.955 185.441a.5.5 0 0 1 .42-.568l7.963-1.195a.5.5 0 1 1 .148.989l-7.962 1.195a.5.5 0 0 1-.569-.421Zm3.996-3.119a.5.5 0 0 1 .34-.62l10.35-3.017a.5.5 0 0 1 .28.96l-10.35 3.017a.5.5 0 0 1-.62-.34Zm6.385-4.731a.5.5 0 0 1 .279-.65 86.33 86.33 0 0 1 3.795-1.403c.381-.134.75-.263 1.115-.394a37.753 37.753 0 0 0 4.604-1.963.5.5 0 1 1 .451.892 38.775 38.775 0 0 1-4.717 2.012c-.376.135-.751.266-1.137.401-1.099.385-2.275.797-3.74 1.384a.501.501 0 0 1-.65-.279Z" fill="#000"/><path fill-rule="evenodd" clip-rule="evenodd" d="M167.794 138.235a.5.5 0 0 1-.295.643c-12.627 4.67-32.017 11.662-44.69 16.201a.5.5 0 0 1-.338-.941c12.673-4.54 32.059-11.53 44.681-16.198a.499.499 0 0 1 .642.295Z" fill="#9293AB"/><path fill-rule="evenodd" clip-rule="evenodd" d="M151.006 141.169a.5.5 0 0 1 .373-.601l.524-.125c1.362-.328 4.671-1.124 7.886-1.767 1.886-.377 3.756-.705 5.19-.855.714-.074 1.343-.107 1.821-.073.236.016.465.051.658.121.179.065.437.202.542.495l.055.153-.045.156c-.1.34-.31.658-.567.951a7.112 7.112 0 0 1-.968.883c-.751.583-1.724 1.187-2.775 1.787-.968.553-2.017 1.112-3.04 1.656l-.269.144c-1.111.591-2.177 1.163-3.079 1.699a.5.5 0 0 1-.511-.86c.926-.55 2.012-1.132 3.12-1.722l.267-.142c1.025-.546 2.062-1.098 3.016-1.643 1.04-.594 1.964-1.169 2.658-1.709.347-.269.626-.522.83-.754.064-.073.119-.142.165-.206a1.973 1.973 0 0 0-.127-.012c-.39-.027-.95-.002-1.647.071-1.386.145-3.219.465-5.098.841-3.192.638-6.472 1.427-7.843 1.757l-.535.128a.5.5 0 0 1-.601-.373Zm16.142-2.346-.005-.003.005.003ZM117.251 143.078a.5.5 0 0 1 .295-.642c7.078-2.618 16.094-5.683 24.876-8.669 6.867-2.334 13.591-4.62 19.135-6.606a.5.5 0 1 1 .337.941c-5.586 2.001-12.319 4.29-19.184 6.624-8.758 2.977-17.733 6.028-24.817 8.648a.5.5 0 0 1-.642-.296Z" fill="#9293AB"/><path fill-rule="evenodd" clip-rule="evenodd" d="M134.04 140.146a.5.5 0 0 1-.373.601l-.524.125c-1.363.328-4.671 1.123-7.887 1.766-1.886.377-3.756.705-5.19.855-.713.075-1.343.108-1.82.074a2.458 2.458 0 0 1-.659-.122c-.179-.065-.437-.201-.542-.495l-.055-.153.046-.156c.099-.34.31-.658.567-.95.26-.296.591-.591.967-.883.751-.584 1.724-1.188 2.775-1.788.968-.553 2.018-1.111 3.04-1.656l.269-.143c1.111-.592 2.177-1.164 3.08-1.699a.5.5 0 1 1 .51.86c-.926.549-2.012 1.132-3.119 1.721l-.267.143c-1.026.546-2.062 1.097-3.017 1.642-1.039.594-1.963 1.17-2.658 1.709-.346.27-.625.522-.829.754-.065.073-.12.142-.166.207.039.004.081.008.128.011.389.028.949.002 1.646-.071 1.387-.144 3.219-.465 5.098-.84 3.192-.639 6.473-1.428 7.843-1.757l.536-.128a.5.5 0 0 1 .601.373Zm-16.143 2.346.006.003-.006-.003Z" fill="#9293AB"/><path fill-rule="evenodd" clip-rule="evenodd" d="M243.932 95.657a.5.5 0 0 1-.5-.5c0-.702-.003-1.406-.006-2.113-.013-2.989-.026-6.013.232-9.022.104-1.202.236-2.651.647-4.009.413-1.363 1.12-2.68 2.403-3.58 2.118-1.485 4.587-1.755 6.997-1.815a84.89 84.89 0 0 1 1.715-.02c1.836-.008 3.595-.016 5.231-.425 1.041-.26 1.735-.79 2.213-1.482.487-.706.767-1.605.918-2.616.151-1.01.168-2.095.156-3.154l-.015-.87c-.015-.739-.03-1.451-.001-2.064a.5.5 0 1 1 .999.046c-.027.578-.014 1.238.001 1.962.006.295.012.6.016.914.012 1.07-.004 2.221-.167 3.314-.163 1.09-.477 2.157-1.084 3.036-.616.893-1.517 1.566-2.794 1.885-1.764.44-3.691.448-5.551.456a78.85 78.85 0 0 0-1.612.018c-2.378.059-4.587.329-6.447 1.633-1.037.727-1.646 1.814-2.021 3.052-.376 1.243-.503 2.592-.607 3.805-.255 2.96-.242 5.927-.229 8.913.003.711.006 1.423.006 2.137a.5.5 0 0 1-.5.5Z" fill="#000"/><path fill-rule="evenodd" clip-rule="evenodd" d="M240.672 96.498a.5.5 0 0 1 .052-.705l.074-.063c-.063-.264-.117-.54-.162-.81a30.011 30.011 0 0 1-.196-1.426c-.046-.382-.08-.664-.112-.822-.328-1.598-.529-3.276-.725-4.912-.085-.708-.168-1.409-.261-2.092a.517.517 0 0 1 .286-.535.537.537 0 0 1 .365-.033h.002a.965.965 0 0 1 .233.102c.119.069.275.176.445.3.347.25.813.614 1.292.996.959.766 1.995 1.628 2.284 1.874.449.383 1.088.712 1.754.99.505.21.995.38 1.406.523l.366.128c.212.076.432.158.572.241a.78.78 0 0 1 .145.108.534.534 0 0 1-.011.802.654.654 0 0 1-.22.121 1.56 1.56 0 0 1-.328.062c-.118.012-.261.02-.43.026l-.208.006a.51.51 0 0 1 .085.238c.012.136-.033.242-.044.27l-.001.001c-.033.08-.084.154-.12.206-.155.22-.479.59-.852.994-.753.815-1.812 1.878-2.412 2.375.001 0 .001 0 0 0l-.025.024c-.018.018-.042.041-.07.071-.058.06-.13.138-.214.228-.136.148-.296.325-.459.505l-.11.121c-.198.219-.395.435-.545.595-.075.08-.144.15-.198.203a1.378 1.378 0 0 1-.093.081.519.519 0 0 1-.228.109.504.504 0 0 1-.381-.073 1.386 1.386 0 0 1-.418-.467 2.583 2.583 0 0 1-.101-.192.498.498 0 0 1-.437-.17Zm1.27-.426.027.068.335-.368-.362.3Zm4.403-4.689c-.083 0-.169 0-.259-.002a.5.5 0 0 1-.161-.972c-.102-.04-.204-.081-.307-.124-.695-.29-1.449-.667-2.018-1.151-.28-.24-1.308-1.095-2.259-1.854a49.27 49.27 0 0 0-.871-.683l.132 1.093c.193 1.617.386 3.225.705 4.781a12.838 12.838 0 0 1 .134.971c.049.403.106.862.181 1.312l.044.248c1.193-.98 2.423-1.91 3.646-2.836.333-.251.665-.503.995-.754l.038-.029ZM63.807 130.953a.5.5 0 0 1-.707.03c-.517-.474-1.038-.948-1.562-1.423-2.212-2.009-4.451-4.042-6.495-6.266-.817-.888-1.796-1.965-2.519-3.185-.726-1.225-1.22-2.636-1.016-4.191.335-2.564 1.804-4.567 3.388-6.385.38-.436.764-.859 1.144-1.277 1.234-1.36 2.416-2.662 3.22-4.144.512-.943.59-1.813.402-2.634-.19-.835-.665-1.65-1.308-2.444-.643-.793-1.431-1.539-2.22-2.245-.218-.194-.436-.386-.652-.576-.555-.488-1.09-.959-1.523-1.394a.5.5 0 1 1 .709-.705c.408.41.904.846 1.447 1.324.221.195.45.396.685.606.797.713 1.636 1.503 2.33 2.361.695.857 1.269 1.809 1.507 2.851.242 1.057.13 2.176-.498 3.333-.867 1.598-2.162 3.024-3.414 4.401-.366.403-.728.802-1.075 1.2-1.563 1.794-2.856 3.605-3.15 5.858-.165 1.255.225 2.438.884 3.551.663 1.118 1.572 2.123 2.395 3.019 2.01 2.186 4.208 4.182 6.418 6.189.526.478 1.054.957 1.58 1.439a.5.5 0 0 1 .03.707Z" fill="#000"/><path fill-rule="evenodd" clip-rule="evenodd" d="M62.224 133.924a.5.5 0 0 1-.484-.515c0-.033.002-.065.003-.097a12.309 12.309 0 0 1-.707-.428 30.218 30.218 0 0 1-1.128-.779l-.055-.04a13.43 13.43 0 0 0-.682-.472c-1.4-.838-2.773-1.823-4.112-2.784-.58-.416-1.152-.828-1.718-1.221a.518.518 0 0 1-.202-.572c.056-.184.195-.274.222-.292l.002-.001a.986.986 0 0 1 .233-.103 5.71 5.71 0 0 1 .52-.126c.42-.086 1.003-.184 1.609-.279 1.212-.19 2.548-.371 2.924-.418.586-.073 1.26-.321 1.915-.625.496-.229.953-.476 1.336-.683l.34-.183c.2-.105.41-.212.566-.26a.807.807 0 0 1 .177-.034.533.533 0 0 1 .583.55.64.64 0 0 1-.058.244 1.531 1.531 0 0 1-.177.284 6.65 6.65 0 0 1-.27.335l-.137.157c.102.015.181.059.233.098.108.083.157.188.17.215v.001c.035.079.057.166.07.227.058.264.112.753.157 1.3.093 1.106.16 2.606.122 3.384 0-.001 0-.001 0 0v.034l.006.1c.005.083.014.189.024.312.017.2.04.437.062.679l.015.163c.028.294.054.585.07.804.008.109.014.207.016.283 0 .035 0 .08-.002.123a.512.512 0 0 1-.386.474 1.403 1.403 0 0 1-.626-.007 2.417 2.417 0 0 1-.21-.056.501.501 0 0 1-.42.208Zm.544-1.225.068.026a71.97 71.97 0 0 0-.045-.496 59.14 59.14 0 0 0-.023.47Zm-.483-6.414-.176.19a.5.5 0 0 1-.825-.538c-.099.048-.199.096-.3.143-.683.316-1.47.617-2.212.709-.365.046-1.69.226-2.893.414a49.56 49.56 0 0 0-1.091.181l.895.641c1.322.949 2.638 1.894 4.001 2.71.176.105.44.294.727.5l.08.057c.33.236.707.505 1.089.753l.213.135c.084-1.541.228-3.077.372-4.604a429.88 429.88 0 0 0 .12-1.291Z" fill="#000"/><path d="M181.759 53.102c-.312-.173-.485-.364-.52-.572-.017-.208.104-.572.364-1.092.26-.52.667-1.326 1.222-2.418.416-.78.728-1.387.936-1.82.225-.45.373-.771.442-.962.087-.19.13-.312.13-.364-.035-.156-.017-.277.052-.364a.763.763 0 0 1 .338-.26 8.64 8.64 0 0 0 .416-.468c.208-.225.399-.494.572-.806.156-.364.338-.736.546-1.118.208-.381.485-.858.832-1.43.347-.59.797-1.352 1.352-2.288a31.77 31.77 0 0 1 1.144-1.846c.416-.641.858-1.274 1.326-1.898.191-.242.364-.433.52-.572.156-.156.312-.225.468-.208.208 0 .442.07.702.208.277.139.529.32.754.546.225.226.39.468.494.728.087.139.121.434.104.884s-.052.997-.104 1.638a152.41 152.41 0 0 1-.182 2.054 76.55 76.55 0 0 1-.234 2.522c-.104.97-.208 1.985-.312 3.042-.087 1.057-.156 2.08-.208 3.068-.052.97-.052 1.82 0 2.548a1.92 1.92 0 0 1 0 .442 2.919 2.919 0 0 0-.026.338c-.104.104-.277.148-.52.13-.225 0-.451-.052-.676-.156-.208-.104-.329-.234-.364-.39a.393.393 0 0 1-.104-.208c0-.104.009-.312.026-.624s.035-.806.052-1.482l.13-4.212-.338.026c-.156 0-.451.017-.884.052a24.92 24.92 0 0 0-1.404.156c-.503.052-.971.113-1.404.182-.416.052-.702.104-.858.156-.156 0-.347.104-.572.312a3.907 3.907 0 0 0-.598.806 2.71 2.71 0 0 1-.39.78c-.173.26-.26.434-.26.52-.121.087-.225.19-.312.312a34.08 34.08 0 0 1-.104.182c0 .104-.087.364-.26.78-.156.399-.355.85-.598 1.352-.243.486-.485.91-.728 1.274l-.546.832-.416-.312Zm5.382-8.372.26-.052c.191-.034.407-.07.65-.104.26-.052.494-.078.702-.078a23.806 23.806 0 0 1 1.586-.338c.329-.07.555-.104.676-.104.139 0 .26.026.364.078.069.087.13.139.182.156l.104.026c.017-.035.043-.234.078-.598l.13-1.352c.069-.537.13-1.092.182-1.664.069-.59.121-1.127.156-1.612l.078-1.144c.017-.33.035-.624.052-.884l.026-.416c-.104 0-.329.19-.676.572-.329.381-.702.884-1.118 1.508a20.243 20.243 0 0 0-1.17 2.002c-.173.33-.338.624-.494.884-.156.26-.277.39-.364.39-.035.035-.139.19-.312.468-.156.26-.329.563-.52.91-.191.33-.347.633-.468.91-.121.26-.156.408-.104.442Zm10.022 6.786a61.59 61.59 0 0 1-1.482.182c-.329.017-.58-.008-.754-.078a2.05 2.05 0 0 1-.52-.364.507.507 0 0 1-.182-.494c.052-.19.347-.563.884-1.118.33-.398.668-.771 1.014-1.118.347-.364.659-.659.936-.884.122-.104.26-.208.416-.312.156-.121.408-.303.754-.546.347-.242.858-.59 1.534-1.04a28.475 28.475 0 0 1 1.248-.936l.416-.312c-.121-.017-.39-.043-.806-.078a6.027 6.027 0 0 0-1.118 0h-.936a3.533 3.533 0 0 1-.416-.078h-.39c-.086 0-.242-.035-.468-.104a3.51 3.51 0 0 1-.624-.312c-.19-.121-.294-.242-.312-.364l.156-.078c.104-.07.191-.139.26-.208.139-.087.243-.156.312-.208.087-.052.165-.043.234.026h.494c.33-.017.702-.035 1.118-.052 1.006.017 1.742.052 2.21.104.486.035.841.104 1.066.208.243.104.477.26.702.468.278.277.39.546.338.806-.052.26-.173.494-.364.702-.069.07-.138.147-.208.234-.052.07-.104.104-.156.104l-.364.234-.884.572c-.329.225-.658.434-.988.624-.312.19-.502.33-.572.416-.121.07-.268.165-.442.286a2.05 2.05 0 0 0-.364.26c-.052.07-.173.19-.364.364-.173.174-.364.33-.572.468a47.1 47.1 0 0 0-.572.52l-.546.546-.234.234.52-.052c.347-.052.78-.095 1.3-.13a9.109 9.109 0 0 1 1.534-.026c.815-.017 1.456-.035 1.924-.052.486-.035.85-.043 1.092-.026.26 0 .46.035.598.104a.618.618 0 0 1 .312.208.776.776 0 0 1 .208.338c.052.104.061.182.026.234-.069 0-.338.026-.806.078-.468.035-1.005.07-1.612.104-.797.07-1.568.156-2.314.26-.745.104-1.49.2-2.236.286Zm13.376.676a3.472 3.472 0 0 1-.52-.702 4.525 4.525 0 0 1-.416-1.066 2.45 2.45 0 0 1-.052-.572 2.552 2.552 0 0 0 0-.52 1.528 1.528 0 0 1-.26.39 2.637 2.637 0 0 1-.312.312c-.07.07-.226.208-.468.416-.243.19-.486.347-.728.468-.572.364-1.049.563-1.43.598-.364.035-.711-.156-1.04-.572a2.012 2.012 0 0 1-.598-.754c-.104-.277-.104-.658 0-1.144a9.793 9.793 0 0 1 .26-1.768c.138-.59.424-1.37.858-2.34.364-.71.641-1.23.832-1.56.19-.346.312-.554.364-.624.26-.087.476-.078.65.026.173.087.277.252.312.494.104.173.086.468-.052.884-.122.416-.338.928-.65 1.534-.243.59-.468 1.179-.676 1.768-.191.59-.304 1.092-.338 1.508-.035.416.069.667.312.754.156.087.424.06.806-.078.398-.139.84-.485 1.326-1.04.502-.554.988-1.395 1.456-2.522.138-.346.242-.65.312-.91.069-.277.112-.58.13-.91a1.126 1.126 0 0 1 .026-.546c.069-.173.208-.32.416-.442a.976.976 0 0 1 .286-.234c.121-.087.199-.087.234 0l.416-.026c.069-.017.112.026.13.13a.566.566 0 0 0 .182.234c.19.156.242.494.156 1.014-.087.52-.33 1.248-.728 2.184-.33.71-.555 1.248-.676 1.612a4.72 4.72 0 0 0-.182 1.066c0 .312.06.607.182.884.121.278.312.529.572.754.19.121.294.26.312.416.034.156.043.338.026.546-.035.156-.139.286-.312.39-.156.087-.338.13-.546.13a.975.975 0 0 1-.572-.182Zm4.995-.754c-.052.017-.139.009-.26-.026a2.98 2.98 0 0 1-.364-.13.821.821 0 0 1-.234-.13 1.184 1.184 0 0 1-.208-.312c-.052-.139-.052-.338 0-.598.052-.277.225-.633.52-1.066.086-.173.19-.433.312-.78a43.9 43.9 0 0 0 .364-1.092c.138-.398.26-.754.364-1.066.121-.312.208-.529.26-.65.034-.294.017-.502-.052-.624-.052-.139-.2-.216-.442-.234-.174 0-.312-.017-.416-.052-.087-.034-.13-.208-.13-.52.034-.242.095-.407.182-.494.104-.104.242-.217.416-.338a2.06 2.06 0 0 1 .52-.182c.19-.035.372-.043.546-.026a.661.661 0 0 1 .416.182c.121.07.199.226.234.468a4.7 4.7 0 0 1 .052.702c.017.243.034.425.052.546.173-.139.407-.33.702-.572.312-.26.58-.503.806-.728.277-.19.606-.381.988-.572.381-.208.658-.312.832-.312.19 0 .381.052.572.156.19.087.32.2.39.338.173.295.251.555.234.78 0 .225-.096.46-.286.702-.174.225-.39.382-.65.468-.243.087-.399.13-.468.13-.104 0-.234-.078-.39-.234-.156-.156-.243-.286-.26-.39 0-.052-.113 0-.338.156-.208.139-.442.32-.702.546-.26.208-.477.399-.65.572-.295.364-.607.858-.936 1.482-.33.624-.72 1.378-1.17 2.262a6.946 6.946 0 0 0-.442 1.118c-.087.295-.208.468-.364.52Zm10.279.884c-.763 0-1.387-.286-1.872-.858-.486-.59-.72-1.317-.702-2.184a8.878 8.878 0 0 1 .364-2.002c.225-.728.52-1.421.884-2.08a9.81 9.81 0 0 1 1.196-1.768c.433-.502.884-.858 1.352-1.066.173-.086.355-.156.546-.208.208-.052.416-.078.624-.078.19 0 .39.035.598.104.208.052.381.113.52.182.294.122.52.269.676.442.156.174.294.442.416.806.052.33.078.563.078.702s-.044.347-.13.624a5.853 5.853 0 0 1-.806 1.612c-.33.45-.772.832-1.326 1.144a1.855 1.855 0 0 1-.494.208 2.907 2.907 0 0 1-1.56-.13 1.838 1.838 0 0 1-.754-.598l-.182-.208-.078.208a13.62 13.62 0 0 0-.416 1.3c-.087.399-.13.763-.13 1.092 0 .208.017.407.052.598.052.19.121.355.208.494a.624.624 0 0 0 .338.234c.173.035.355.052.546.052h.364a1.45 1.45 0 0 0 .39-.104c.294-.104.528-.217.702-.338.19-.121.381-.251.572-.39l.104-.052h-.026a5.1 5.1 0 0 0 .546-.312l.26-.156c.069 0 .138-.043.208-.13.138-.07.312-.043.52.078.225.121.338.278.338.468-.018.087-.096.225-.234.416a4.218 4.218 0 0 1-.468.494c-.156.156-.286.243-.39.26a1.038 1.038 0 0 1-.182.104.56.56 0 0 0-.208.104h.026c-.156.208-.312.312-.468.312h-.208c-.07.121-.295.26-.676.416a3.262 3.262 0 0 1-1.118.208Zm1.17-5.72c.312 0 .58-.086.806-.26.242-.19.45-.398.624-.624.346-.468.546-.919.598-1.352.069-.45.017-.763-.156-.936a.65.65 0 0 0-.286-.078c-.07-.017-.217.009-.442.078-.156.035-.373.165-.65.39-.278.225-.555.477-.832.754-.26.278-.46.512-.598.702l-.338.546c.138-.052.268-.078.39-.078.138-.017.216-.008.234.026 0 .156.026.303.078.442a.976.976 0 0 0 .234.286c.104.07.216.104.338.104Zm11.346 6.89c-.208 0-.382-.112-.52-.338a.808.808 0 0 1-.208-.442c-.018-.173.043-.494.182-.962.138-.485.372-1.222.702-2.21.173-.658.312-1.135.416-1.43.104-.312.156-.537.156-.676 0-.19.017-.346.052-.468.052-.139.078-.269.078-.39.104 0 .208-.095.312-.286.104-.19.19-.45.26-.78.069-.294.13-.529.182-.702.069-.19.104-.32.104-.39.086-.139.173-.355.26-.65.104-.294.26-.65.468-1.066.138-.52.294-1.057.468-1.612.173-.572.346-1.1.52-1.586.19-.502.346-.892.468-1.17.19-.537.338-.91.442-1.118.104-.225.104-.373 0-.442-.122-.087-.148-.234-.078-.442.069-.208.26-.442.572-.702.19-.225.355-.381.494-.468a.841.841 0 0 1 .52-.156c.225 0 .546.017.962.052.312.017.641.026.988.026h.676c.156.07.346.147.572.234.225.07.424.139.598.208.19.07.286.13.286.182 0 .104.034.174.104.208l.26.052c.121 0 .286.095.494.286.208.174.424.399.65.676.225.26.398.538.52.832.138.295.242.572.312.832.086.26.086.633 0 1.118-.018.26-.061.52-.13.78-.052.26-.113.434-.182.52-.104.07-.2.156-.286.26-.087.104-.13.2-.13.286 0 .07-.061.208-.182.416a13.586 13.586 0 0 1-1.092 1.456c-.226.26-.442.486-.65.676a4.957 4.957 0 0 1-.806.78 8.788 8.788 0 0 1-.806.598c-.451.208-.954.416-1.508.624-.538.208-1.058.382-1.56.52-.486.139-.893.2-1.222.182-.503.07-.832.139-.988.208-.139.052-.243.2-.312.442-.087.225-.174.46-.26.702-.07.226-.104.382-.104.468-.035.07-.122.286-.26.65-.122.347-.26.754-.416 1.222-.139.468-.278.927-.416 1.378-.139.45-.243.823-.312 1.118-.07.243-.156.382-.26.416a.868.868 0 0 1-.39.078Zm3.224-8.06c.069.07.338.078.806.026.468-.052.97-.182 1.508-.39a8.957 8.957 0 0 0 1.04-.442c.364-.173.71-.364 1.04-.572.173-.121.433-.338.78-.65a9.48 9.48 0 0 0 1.04-1.118 9.15 9.15 0 0 0 .26-.494c.138-.26.26-.503.364-.728.156-.242.312-.598.468-1.066.156-.485.19-.884.104-1.196-.087-.45-.312-.867-.676-1.248a2.711 2.711 0 0 0-1.3-.806 5.55 5.55 0 0 0-.962-.104c-.243 0-.512.026-.806.078-.278.087-.486.208-.624.364-.122.156-.286.486-.494.988-.122.243-.295.616-.52 1.118-.226.486-.416.945-.572 1.378-.312 1.144-.624 2.089-.936 2.834a55.039 55.039 0 0 0-.546 1.378c.017.19.008.33-.026.416-.035.07-.018.148.052.234Zm9.876 6.214c-.086.173-.216.225-.39.156a2.64 2.64 0 0 1-.39-.208.485.485 0 0 1-.312-.104.563.563 0 0 1-.182-.312.839.839 0 0 1-.026-.364c.018-.156.052-.33.104-.52.07-.208.139-.433.208-.676.139-.572.234-.988.286-1.248.052-.26.104-.485.156-.676.052-.19.122-.468.208-.832.139-.346.252-.684.338-1.014.087-.33.217-.658.39-.988.122-.45.269-.875.442-1.274.191-.416.373-.762.546-1.04a1.6 1.6 0 0 1 .182-.208c.104-.087.191-.13.26-.13.139-.139.26-.19.364-.156.122.017.269.096.442.234a.872.872 0 0 1 .234.78c-.034.295-.242.728-.624 1.3a36.514 36.514 0 0 1-.572 1.404 5.1 5.1 0 0 0-.364 1.092c.191-.277.399-.529.624-.754l.598-.598c.382-.381.694-.658.936-.832.26-.173.564-.372.91-.598.208-.139.408-.26.598-.364.191-.121.399-.208.624-.26.243-.052.503-.052.78 0a.455.455 0 0 1 .416.156c.122.121.217.286.286.494.07.208.113.45.13.728-.398-.087-.754-.07-1.066.052a3.18 3.18 0 0 0-.806.39c-.208.156-.372.277-.494.364-.26.173-.589.407-.988.702a8.932 8.932 0 0 0-1.196 1.014c-.312.347-.58.642-.806.884-.208.243-.381.46-.52.65-.121.19-.216.39-.286.598a64.63 64.63 0 0 0-.546 1.3c-.19.468-.355.754-.494.858Zm10.695.442c-.225.017-.407 0-.546-.052a9.736 9.736 0 0 1-.52-.286c-.381-.294-.667-.59-.858-.884-.173-.312-.251-.615-.234-.91a.834.834 0 0 0 0-.416 25.99 25.99 0 0 0-.026-.182c-.104-.086-.138-.139-.104-.156a.323.323 0 0 0 .078-.156c.139-.035.156-.13.052-.286-.052-.139-.026-.45.078-.936.122-.502.278-.97.468-1.404.087-.19.208-.442.364-.754.174-.312.364-.624.572-.936.208-.33.399-.59.572-.78.382-.433.72-.754 1.014-.962a4.249 4.249 0 0 1 1.04-.546c.347-.139.598-.217.754-.234.156-.017.373.087.65.312.416.121.728.295.936.52.226.208.399.538.52.988.139.503.182 1.1.13 1.794-.034.676-.329 1.551-.884 2.626-.329.676-.658 1.188-.988 1.534-.312.347-.693.71-1.144 1.092a6.008 6.008 0 0 1-.91.65 3.637 3.637 0 0 1-1.014.364Zm2.08-3.094c.347-.52.616-.996.806-1.43.208-.45.373-1.014.494-1.69.035-.19.044-.425.026-.702a3.673 3.673 0 0 0-.13-.806c-.052-.242-.13-.373-.234-.39-.225-.087-.476-.087-.754 0-.277.07-.58.278-.91.624a7.397 7.397 0 0 0-.806 1.17c-.225.433-.433.91-.624 1.43-.19.52-.372 1.075-.546 1.664-.173.659-.164 1.162.026 1.508.208.347.546.434 1.014.26.468-.19 1.014-.736 1.638-1.638Zm6.618 1.664c-.121-.104-.277-.416-.468-.936a25.484 25.484 0 0 1-.52-1.82c-.156-.71-.286-1.36-.39-1.95a6.306 6.306 0 0 0-.234-.884 14.39 14.39 0 0 0-.182-.598c-.086-.312-.112-.572-.078-.78.035-.208.156-.372.364-.494a.834.834 0 0 1 .312-.104.698.698 0 0 1 .312-.026c.208.07.399.39.572.962.174.555.33 1.291.468 2.21.07.538.156.997.26 1.378.104.382.156.607.156.676.07.139.148.277.234.416.104.122.226.113.364-.026.07-.07.208-.225.416-.468.226-.242.442-.502.65-.78.364-.485.65-.884.858-1.196.226-.312.477-.641.754-.988.122-.173.26-.364.416-.572.156-.208.312-.398.468-.572.174-.19.33-.303.468-.338.416-.07.642.017.676.26.035.243-.121.607-.468 1.092a4.387 4.387 0 0 0-.338.598c-.069.173-.138.295-.208.364a9.672 9.672 0 0 1-.65 1.066c-.294.416-.58.806-.858 1.17a9.916 9.916 0 0 1-.572.676c-.069.07-.225.2-.468.39-.225.19-.442.434-.65.728-.416.399-.745.642-.988.728-.242.087-.468.026-.676-.182Zm6.99.754a1.297 1.297 0 0 1-.312-.52c-.052-.208-.07-.416-.052-.624.017-.208.06-.381.13-.52a.72.72 0 0 1 .052-.312c.052-.087.069-.164.052-.234-.018-.07 0-.19.052-.364.052-.173.104-.338.156-.494.121-.277.251-.607.39-.988.138-.398.268-.788.39-1.17l.312-.988c.086-.277.138-.45.156-.52 0-.208.138-.32.416-.338.208-.07.364-.07.468 0 .104.052.242.217.416.494.138.139.19.347.156.624-.035.278-.148.624-.338 1.04-.07.139-.156.338-.26.598a4.57 4.57 0 0 0-.182.702c-.07.139-.156.338-.26.598-.087.243-.165.477-.234.702-.035.087-.07.217-.104.39-.035.156-.078.33-.13.52-.052.173-.122.33-.208.468-.156.71-.304 1.127-.442 1.248-.122.122-.33.018-.624-.312Zm2.522-10.556a1.187 1.187 0 0 1-.234-.364 1.879 1.879 0 0 1-.13-.468c-.018-.156 0-.234.052-.234.138-.017.303-.164.494-.442.19-.277.268-.52.234-.728 0-.07.026-.13.078-.182a.326.326 0 0 1 .182-.13c.208-.139.407-.156.598-.052.208.087.398.269.572.546.156.33.199.607.13.832-.07.208-.26.503-.572.884-.26.347-.503.538-.728.572-.208.035-.434-.043-.676-.234Zm8.697 11.128c-.069 0-.173-.009-.312-.026a.58.58 0 0 1-.312-.234c-.26-.312-.424-.572-.494-.78-.069-.208-.078-.511-.026-.91.035-.26.052-.485.052-.676.018-.208.035-.381.052-.52-.069-.07-.199-.017-.39.156-.173.156-.416.355-.728.598-.589.676-1.118 1.196-1.586 1.56-.45.347-.858.58-1.222.702-.364.104-.71.139-1.04.104a1.035 1.035 0 0 1-.702-.364c-.173-.225-.286-.511-.338-.858a6.132 6.132 0 0 1 0-1.118c.07-.572.191-1.118.364-1.638.191-.52.494-1.1.91-1.742.191-.346.442-.684.754-1.014.33-.346.685-.65 1.066-.91.399-.277.78-.477 1.144-.598a3.766 3.766 0 0 1 1.222-.26c.416-.035.789 0 1.118.104.208.104.373.156.494.156.139 0 .243-.087.312-.26a2.76 2.76 0 0 0 .26-.624c.087-.294.191-.546.312-.754l.572-1.69c.191-.468.399-.962.624-1.482.226-.52.494-1.152.806-1.898.295-.555.538-.875.728-.962.191-.104.408-.035.65.208.191.226.26.486.208.78-.052.278-.208.728-.468 1.352-.121.19-.225.373-.312.546-.086.156-.208.407-.364.754a85.508 85.508 0 0 1-.624 1.456c-.19.416-.39.893-.598 1.43-.069.277-.164.598-.286.962-.104.364-.19.694-.26.988a8.405 8.405 0 0 1-.182.78c-.052.226-.112.338-.182.338-.138.156-.268.434-.39.832-.121.381-.225.78-.312 1.196-.069.416-.13.763-.182 1.04-.034.208-.06.477-.078.806-.017.33-.026.65-.026.962v.624c0 .381-.008.624-.026.728-.017.104-.086.156-.208.156Zm-5.538-1.638c.364 0 .746-.156 1.144-.468.416-.312.832-.659 1.248-1.04.26-.242.538-.563.832-.962.312-.398.607-.797.884-1.196.295-.398.529-.745.702-1.04.174-.312.26-.502.26-.572 0-.087-.078-.147-.234-.182a2.543 2.543 0 0 0-.546-.052 1.314 1.314 0 0 0-.468.026c-.381.087-.762.26-1.144.52-.364.26-.762.65-1.196 1.17a9.423 9.423 0 0 0-1.118 1.716c-.277.59-.45 1.084-.52 1.482-.069.399-.017.598.156.598Zm11.585 1.976c-.762 0-1.386-.286-1.872-.858-.485-.59-.719-1.317-.702-2.184a8.934 8.934 0 0 1 .364-2.002c.226-.728.52-1.421.884-2.08a9.861 9.861 0 0 1 1.196-1.768c.434-.502.884-.858 1.352-1.066a3 3 0 0 1 .546-.208c.208-.052.416-.078.624-.078.191 0 .39.035.598.104.208.052.382.113.52.182.295.122.52.269.676.442.156.174.295.442.416.806.052.33.078.563.078.702s-.043.347-.13.624a5.825 5.825 0 0 1-.806 1.612c-.329.45-.771.832-1.326 1.144a1.828 1.828 0 0 1-.494.208 2.915 2.915 0 0 1-1.56-.13 1.844 1.844 0 0 1-.754-.598l-.182-.208-.078.208c-.173.468-.312.901-.416 1.3-.086.399-.13.763-.13 1.092 0 .208.018.407.052.598.052.19.122.355.208.494.07.104.182.182.338.234.174.035.356.052.546.052h.364a1.43 1.43 0 0 0 .39-.104c.295-.104.529-.217.702-.338.191-.121.382-.251.572-.39l.104-.052h-.026a5.1 5.1 0 0 0 .546-.312l.26-.156c.07 0 .139-.043.208-.13.139-.07.312-.043.52.078.226.121.338.278.338.468-.017.087-.095.225-.234.416a4.058 4.058 0 0 1-.468.494c-.156.156-.286.243-.39.26a.996.996 0 0 1-.182.104.569.569 0 0 0-.208.104h.026c-.156.208-.312.312-.468.312h-.208c-.069.121-.294.26-.676.416a3.258 3.258 0 0 1-1.118.208Zm1.17-5.72c.312 0 .581-.086.806-.26.243-.19.451-.398.624-.624.347-.468.546-.919.598-1.352.07-.45.018-.763-.156-.936a.646.646 0 0 0-.286-.078c-.069-.017-.216.009-.442.078-.156.035-.372.165-.65.39-.277.225-.554.477-.832.754a7.81 7.81 0 0 0-.598.702l-.338.546c.139-.052.269-.078.39-.078.139-.017.217-.008.234.026 0 .156.026.303.078.442.07.121.148.217.234.286.104.07.217.104.338.104Zm6.09 5.044c-.087.173-.217.225-.39.156a2.64 2.64 0 0 1-.39-.208.481.481 0 0 1-.312-.104.551.551 0 0 1-.182-.312.81.81 0 0 1-.026-.364 3.4 3.4 0 0 1 .104-.52c.069-.208.138-.433.208-.676.138-.572.234-.988.286-1.248.052-.26.104-.485.156-.676.052-.19.121-.468.208-.832.138-.346.251-.684.338-1.014a4.61 4.61 0 0 1 .39-.988c.121-.45.268-.875.442-1.274.19-.416.372-.762.546-1.04.034-.052.095-.121.182-.208.104-.087.19-.13.26-.13.138-.139.26-.19.364-.156.121.017.268.096.442.234a.872.872 0 0 1 .234.78c-.035.295-.243.728-.624 1.3a38.207 38.207 0 0 1-.572 1.404 4.992 4.992 0 0 0-.364 1.092 5.26 5.26 0 0 1 .624-.754l.598-.598c.381-.381.693-.658.936-.832.26-.173.563-.372.91-.598a7.88 7.88 0 0 1 .598-.364c.19-.121.398-.208.624-.26.242-.052.502-.052.78 0a.456.456 0 0 1 .416.156c.121.121.216.286.286.494.069.208.112.45.13.728-.399-.087-.754-.07-1.066.052a3.164 3.164 0 0 0-.806.39c-.208.156-.373.277-.494.364-.26.173-.59.407-.988.702a8.809 8.809 0 0 0-1.196 1.014c-.312.347-.581.642-.806.884-.208.243-.382.46-.52.65a2.66 2.66 0 0 0-.286.598 54.77 54.77 0 0 0-.546 1.3c-.191.468-.356.754-.494.858ZM13.657 49.402l-.078-.052a1.818 1.818 0 0 0-.208-.052 1.095 1.095 0 0 0-.26-.026.87.87 0 0 1-.598-.468 1.018 1.018 0 0 1-.078-.754c.07-.07.122-.216.156-.442.035-.225.052-.407.052-.546.07-.139.113-.234.13-.286l.13-.52c.052-.294.139-.702.26-1.222l.442-1.716c.174-.606.338-1.187.494-1.742.156-.554.295-1.023.416-1.404.139-.381.234-.598.286-.65v-.286l.026-.234c.035-.173.122-.364.26-.572.07-.19.13-.398.182-.624.052-.225.078-.372.078-.442.07-.086.165-.294.286-.624.139-.346.269-.684.39-1.014.104-.277.217-.572.338-.884.139-.312.252-.58.338-.806l.156-.338v-.13c.07-.07.234-.416.494-1.04.278-.641.65-1.464 1.118-2.47a7.13 7.13 0 0 1 .26-.468c.104-.173.156-.294.156-.364a.356.356 0 0 1 .364-.182c.156 0 .312.052.468.156a.97.97 0 0 1 .39.442l.26.416-.936 1.872c-.277.486-.511.928-.702 1.326-.173.399-.26.633-.26.702l-.156.416c-.104.277-.225.607-.364.988-.138.381-.26.728-.364 1.04-.19.538-.372.98-.546 1.326-.156.347-.234.555-.234.624 0-.034.191-.06.572-.078.382-.017.867-.026 1.456-.026h1.794c.624-.017 1.17-.026 1.638-.026.486-.017.815-.043.988-.078l1.352-.13.884-2.678c.139-.485.321-1.075.546-1.768.226-.693.425-1.282.598-1.768.278-.797.494-1.291.65-1.482.156-.19.338-.286.546-.286a.6.6 0 0 1 .208.052c.104.018.2.06.286.13.104.052.174.13.208.234.208.19.304.407.286.65 0 .243-.138.564-.416.962-.277.468-.511.98-.702 1.534-.173.538-.329.98-.468 1.326 0 .208-.026.381-.078.52a.901.901 0 0 1-.182.286c-.034.035-.104.165-.208.39-.104.226-.199.45-.286.676-.086.225-.13.364-.13.416 0 .122-.026.269-.078.442-.052.174-.112.295-.182.364-.034.104-.112.364-.234.78-.121.416-.26.91-.416 1.482-.156.555-.32 1.1-.494 1.638-.173.52-.329.953-.468 1.3 0 .122-.043.278-.13.468-.086.173-.13.33-.13.468l-.26.78c-.104.312-.156.511-.156.598-.086.399-.182.806-.286 1.222-.086.416-.164.772-.234 1.066a6.004 6.004 0 0 0-.078.546c-.069.07-.173.078-.312.026a54.524 54.524 0 0 0-.494-.182c-.329-.19-.528-.399-.598-.624-.052-.208.018-.511.208-.91.087-.139.191-.476.312-1.014.139-.555.278-1.1.416-1.638.104-.26.217-.607.338-1.04l.364-1.352c.122-.468.226-.858.312-1.17.087-.33.148-.511.182-.546v-.26c-.034-.035-.251-.06-.65-.078a13.146 13.146 0 0 0-1.482-.026c-.589 0-1.204.017-1.846.052-.624.017-1.187.06-1.69.13h-1.898l-.182.546c-.104.312-.225.693-.364 1.144-.138.433-.286.884-.442 1.352-.138.45-.26.867-.364 1.248-.086.364-.147.624-.182.78-.069.312-.164.702-.286 1.17-.104.468-.225.945-.364 1.43-.121.503-.234.936-.338 1.3-.086.364-.147.598-.182.702Zm14.053-3.094a.786.786 0 0 0-.26-.312c-.104-.087-.156-.165-.156-.234a.852.852 0 0 0-.026-.208.323.323 0 0 0-.104-.234c-.087-.104-.078-.338.026-.702.104-.381.277-.84.52-1.378.242-.555.528-1.135.858-1.742.138-.139.277-.32.416-.546.138-.225.242-.372.312-.442 0-.07.026-.13.078-.182.052-.07.112-.104.182-.104v-.156c0-.087.078-.234.234-.442.173-.208.381-.433.624-.676.242-.26.494-.503.754-.728a4.2 4.2 0 0 1 .65-.52c.364-.242.736-.39 1.118-.442.398-.052.736.035 1.014.26l.26.26.416.416c.173.139.346.286.52.442l.962.858-.468 1.3c-.226.694-.286 1.3-.182 1.82.121.52.294.97.52 1.352.086.19.26.373.52.546.277.173.537.277.78.312.138.017.268.07.39.156.121.087.182.226.182.416a.739.739 0 0 1-.104.416c-.07.104-.19.173-.364.208-.572.07-1.11-.07-1.612-.416-.486-.346-.936-.919-1.352-1.716a4.219 4.219 0 0 1-.286-.572 5.683 5.683 0 0 1-.182-.572c-.07.087-.2.252-.39.494-.19.225-.338.39-.442.494-1.23 1.248-2.297 2.089-3.198 2.522-.884.416-1.62.434-2.21.052Zm.936-1.456c0 .122.182.122.546 0 .381-.138.788-.381 1.222-.728a25.899 25.899 0 0 0 1.768-1.664c.606-.607 1.092-1.17 1.456-1.69l.572-.936c-.174-.399-.364-.667-.572-.806-.19-.156-.356-.234-.494-.234-.226 0-.564.208-1.014.624-.434.416-.902.97-1.404 1.664-.503.694-.98 1.456-1.43 2.288-.174.347-.33.685-.468 1.014l-.182.468Zm10.725 1.482a1.297 1.297 0 0 1-.338-.364c-.052-.121-.052-.355 0-.702.052-.485.122-.91.208-1.274.087-.381.191-.815.312-1.3.035-.208.13-.563.286-1.066.174-.502.382-1.048.624-1.638.243-.59.486-1.144.728-1.664.243-.537.451-.936.624-1.196a.69.69 0 0 1 .494-.13.806.806 0 0 1 .52.234c.191.156.217.433.078.832-.121.381-.381.988-.78 1.82-.208.468-.364.823-.468 1.066-.104.226-.147.364-.13.416.018.035.096.009.234-.078.104-.19.295-.407.572-.65.278-.26.572-.511.884-.754.312-.242.607-.46.884-.65a6.05 6.05 0 0 1 .572-.364c.139-.087.295-.156.468-.208.191-.07.321-.121.39-.156a2.16 2.16 0 0 1 1.222-.208c.416.052.676.208.78.468.018.139.07.243.156.312l.156.104c.07 0 .104.026.104.078l.026.078c0 .121-.095.2-.286.234-.173.018-.398.035-.676.052-.225.018-.424.06-.598.13-.173.07-.381.156-.624.26-.658.382-1.291.754-1.898 1.118-.589.364-1.161.85-1.716 1.456a4.083 4.083 0 0 0-.364.494 50.3 50.3 0 0 0-.39.624c-.086.087-.173.278-.26.572-.086.295-.164.58-.234.858-.052.26-.078.416-.078.468l-.078.26a1.583 1.583 0 0 1-.26.468c-.208.277-.381.416-.52.416-.138 0-.346-.139-.624-.416Zm16.935.598c-.173 0-.355-.095-.545-.286a3.092 3.092 0 0 1-.469-.702 2.191 2.191 0 0 1-.181-.832c0-.26.06-.745.181-1.456.14-.71.304-1.43.494-2.158.14-.45.182-.71.13-.78-.051-.07-.285.026-.701.286-.243.122-.46.252-.65.39-.191.122-.356.26-.494.416-.087.07-.217.182-.39.338a6.726 6.726 0 0 1-.546.442c-.226.173-.512.416-.858.728l-1.04.936c-.33.312-.581.555-.755.728a.57.57 0 0 1-.39.286.91.91 0 0 1-.285-.052 1.24 1.24 0 0 1-.547-.338.868.868 0 0 1-.233-.598c0-.173.069-.468.207-.884.14-.433.321-.953.547-1.56.242-.606.52-1.248.831-1.924.052-.087.096-.19.13-.312.035-.139.061-.286.079-.442.034-.156.052-.303.052-.442 0-.087.008-.173.026-.26.034-.104.069-.2.103-.286a.874.874 0 0 1 .13-.208c.07-.139.191-.173.364-.104.174.052.321.174.442.364.26.243.39.546.39.91.018.364-.069.815-.26 1.352a3.58 3.58 0 0 0-.181.364c-.035.104-.07.2-.105.286-.034.07-.06.13-.077.182l-.026.052c.069 0 .225-.078.468-.234.242-.156.528-.33.858-.52.26-.19.485-.364.675-.52.209-.173.382-.303.52-.39.14-.104.226-.156.26-.156.07 0 .157-.026.26-.078a.988.988 0 0 0 .26-.182c.07-.07.122-.104.157-.104l.078-.026h.103a.46.46 0 0 0 .209-.13c.138-.104.32-.13.545-.078.226.035.434.121.624.26.191.139.287.295.287.468 0 .07.017.13.052.182l.078.052c.138 0 .225.217.26.65.052.434.008.85-.13 1.248 0 .26-.053.572-.157.936-.086.364-.164.71-.233 1.04a7.838 7.838 0 0 0-.287 1.144 2.76 2.76 0 0 0-.026.832c.035.225.096.407.182.546.07.121.07.26 0 .416-.069.139-.208.208-.416.208Zm6.142.39c-.763 0-1.387-.286-1.872-.858-.486-.59-.72-1.317-.702-2.184a8.912 8.912 0 0 1 .364-2.002c.225-.728.52-1.421.884-2.08a9.84 9.84 0 0 1 1.196-1.768c.433-.502.884-.858 1.352-1.066a2.96 2.96 0 0 1 .546-.208c.208-.052.416-.078.624-.078.19 0 .39.035.598.104.208.052.38.113.52.182.294.122.52.269.676.442.156.174.294.442.416.806.052.33.078.563.078.702s-.044.347-.13.624a5.845 5.845 0 0 1-.806 1.612c-.33.45-.772.832-1.326 1.144a1.843 1.843 0 0 1-.494.208 2.91 2.91 0 0 1-1.56-.13 1.842 1.842 0 0 1-.754-.598l-.182-.208-.078.208c-.174.468-.312.901-.416 1.3-.087.399-.13.763-.13 1.092 0 .208.017.407.052.598.052.19.12.355.208.494.069.104.182.182.338.234.173.035.355.052.546.052h.364c.138-.017.268-.052.39-.104a2.95 2.95 0 0 0 .702-.338c.19-.121.38-.251.572-.39l.104-.052h-.026a5.1 5.1 0 0 0 .546-.312l.26-.156c.069 0 .138-.043.208-.13.138-.07.312-.043.52.078.225.121.338.278.338.468-.018.087-.096.225-.234.416a4.169 4.169 0 0 1-.468.494c-.156.156-.286.243-.39.26a1.013 1.013 0 0 1-.182.104.565.565 0 0 0-.208.104h.026c-.156.208-.312.312-.468.312h-.208c-.07.121-.295.26-.676.416a3.26 3.26 0 0 1-1.118.208Zm1.17-5.72c.312 0 .58-.086.806-.26.242-.19.45-.398.624-.624.346-.468.546-.919.598-1.352.069-.45.017-.763-.156-.936a.647.647 0 0 0-.286-.078c-.07-.017-.217.009-.442.078-.156.035-.373.165-.65.39a10.91 10.91 0 0 0-.832.754c-.26.278-.46.512-.598.702l-.338.546c.138-.052.268-.078.39-.078.138-.017.216-.008.234.026 0 .156.026.303.078.442.069.121.147.217.234.286.104.07.216.104.338.104Zm7.18 5.278c-.866 0-1.499-.312-1.897-.936a.902.902 0 0 1-.182-.52c.017-.19.069-.32.156-.39.104-.07.225-.008.364.182.242.139.589.208 1.04.208.225 0 .459-.017.702-.052.242-.052.485-.121.728-.208.26-.121.433-.225.52-.312.086-.104.069-.19-.052-.26h.026a6.126 6.126 0 0 1-1.378-.572 7.123 7.123 0 0 1-1.17-.884c-.33-.33-.52-.624-.572-.884a2.668 2.668 0 0 1 .104-1.638 4.678 4.678 0 0 1 .884-1.508c.138-.087.312-.19.52-.312.208-.138.372-.216.494-.234v.026c.329-.346.728-.624 1.196-.832.485-.208.996-.398 1.534-.572l.39-.052c.208-.035.381-.052.52-.052-.018 0 .017.017.104.052.086.017.164.035.234.052.104.052.19.078.26.078.225.035.433.139.624.312.19.173.338.381.442.624.121.226.164.442.13.65a1.93 1.93 0 0 1-.312.884c-.156.26-.347.408-.572.442.034-.017.008-.043-.078-.078a2.73 2.73 0 0 0-.234-.156l-.078.052-.026-.052a.419.419 0 0 0-.052-.182.745.745 0 0 1-.078-.338c0-.139.008-.286.026-.442.034-.19.034-.303 0-.338-.018-.035-.13-.06-.338-.078-.243-.052-.598-.009-1.066.13-.451.139-.832.33-1.144.572a8.202 8.202 0 0 0-.962.702 3.53 3.53 0 0 0-.624.624 3.2 3.2 0 0 0-.416.676 4.332 4.332 0 0 0-.234.364.647.647 0 0 0-.078.286c0 .19.138.39.416.598.294.19.728.416 1.3.676.45.19.832.399 1.144.624.312.226.528.486.65.78a.42.42 0 0 1 .026.26c0 .087-.018.148-.052.182.034.035.052.06.052.078v-.026c.138.208.138.425 0 .65-.122.226-.338.425-.65.598a4.025 4.025 0 0 1-1.092.364h.026c-.226.07-.451.121-.676.156a7.18 7.18 0 0 1-.598.026Zm8.056.468a4.248 4.248 0 0 1-.936-.546c-.295-.242-.485-.442-.572-.598 0-.156.026-.26.078-.312.052-.07.2-.095.442-.078.26 0 .676.035 1.248.104.208 0 .468-.017.78-.052.312-.035.598-.087.858-.156.277-.07.433-.156.468-.26.087 0 .104-.026.052-.078a1.966 1.966 0 0 0-.182-.208.466.466 0 0 1-.234-.078c-.087-.07-.165-.104-.234-.104 0-.087-.087-.182-.26-.286a2.037 2.037 0 0 0-.494-.286c-.381-.312-.71-.59-.988-.832-.277-.26-.381-.433-.312-.52v-.13c-.121 0-.26-.173-.416-.52-.139-.346-.208-.659-.208-.936 0-.208.06-.468.182-.78.121-.33.286-.667.494-1.014.208-.346.425-.633.65-.858.312-.294.702-.606 1.17-.936.468-.346.927-.65 1.378-.91.468-.277.858-.46 1.17-.546.312-.121.598-.182.858-.182.277 0 .52.06.728.182.173.087.33.217.468.39.156.156.286.32.39.494.121.156.2.295.234.416 0 .208-.017.442-.052.702-.035.243-.087.46-.156.65-.052.19-.139.286-.26.286l-.078.026c-.035 0-.052.043-.052.13 0 .174-.13.373-.39.598-.33.226-.615.364-.858.416-.243.035-.39-.06-.442-.286a.675.675 0 0 1-.104-.182c-.017-.052-.06-.078-.13-.078l-.078-.078c-.052-.052-.078-.139-.078-.26 0-.07.026-.13.078-.182l.078-.104c.087 0 .2-.095.338-.286.139-.208.26-.424.364-.65.121-.242.182-.407.182-.494 0-.104-.017-.164-.052-.182-.017-.017-.095-.026-.234-.026a17.08 17.08 0 0 0-.884.416c-.347.174-.676.347-.988.52-.295.156-.511.303-.65.442-.07.121-.113.2-.13.234-.017.017-.06.026-.13.026 0-.07-.06-.035-.182.104a13.43 13.43 0 0 0-.416.52l-.468.676-.312.468c-.035.035-.078.139-.13.312a2.04 2.04 0 0 0-.052.442c-.07.208-.06.355.026.442l.572.468c.607.45 1.083.823 1.43 1.118.347.295.607.538.78.728.173.19.277.364.312.52.312.52.407.919.286 1.196-.121.278-.416.52-.884.728-.173.087-.46.156-.858.208a9.44 9.44 0 0 1-1.222.078 5.661 5.661 0 0 1-.988-.026ZM13.137 75.492c-.208 0-.381-.113-.52-.338a.813.813 0 0 1-.208-.442c-.017-.173.044-.494.182-.962.139-.485.373-1.222.702-2.21.174-.659.312-1.135.416-1.43.104-.312.156-.537.156-.676 0-.19.018-.346.052-.468.052-.138.078-.268.078-.39.104 0 .208-.095.312-.286.104-.19.191-.45.26-.78.07-.294.13-.529.182-.702.07-.19.104-.32.104-.39.087-.139.174-.355.26-.65.104-.294.26-.65.468-1.066.139-.52.295-1.057.468-1.612.174-.572.347-1.1.52-1.586.191-.502.347-.892.468-1.17.191-.537.338-.91.442-1.118.104-.225.104-.373 0-.442-.121-.087-.147-.234-.078-.442.07-.208.26-.442.572-.702.191-.225.356-.381.494-.468a.842.842 0 0 1 .52-.156c.226 0 .546.017.962.052.312.017.642.026.988.026h.676c.156.07.347.147.572.234.226.07.425.139.598.208.191.07.286.13.286.182 0 .104.035.174.104.208l.26.052c.122 0 .286.095.494.286.208.174.425.399.65.676.226.26.399.538.52.832.139.295.243.572.312.832.087.26.087.633 0 1.118-.017.26-.06.52-.13.78-.052.26-.112.434-.182.52-.104.07-.199.156-.286.26-.086.104-.13.2-.13.286 0 .07-.06.208-.182.416-.121.19-.277.416-.468.676-.19.26-.398.52-.624.78-.225.26-.442.485-.65.676a4.929 4.929 0 0 1-.806.78 8.64 8.64 0 0 1-.806.598c-.45.208-.953.416-1.508.624-.537.208-1.057.382-1.56.52-.485.139-.892.2-1.222.182-.502.07-.832.139-.988.208-.138.052-.242.2-.312.442-.086.226-.173.46-.26.702-.069.225-.104.381-.104.468-.034.07-.121.286-.26.65-.121.347-.26.754-.416 1.222-.138.468-.277.928-.416 1.378-.138.45-.242.824-.312 1.118-.069.243-.156.381-.26.416a.868.868 0 0 1-.39.078Zm3.224-8.06c.07.07.338.078.806.026a6.06 6.06 0 0 0 1.508-.39 8.877 8.877 0 0 0 1.04-.442c.364-.173.711-.364 1.04-.572.174-.121.434-.338.78-.65a9.388 9.388 0 0 0 1.04-1.118c.052-.087.139-.251.26-.494.139-.26.26-.503.364-.728.156-.242.312-.598.468-1.066.156-.485.191-.884.104-1.196-.086-.45-.312-.867-.676-1.248a2.708 2.708 0 0 0-1.3-.806 5.542 5.542 0 0 0-.962-.104c-.242 0-.511.026-.806.078-.277.087-.485.208-.624.364-.121.156-.286.486-.494.988a32.34 32.34 0 0 0-.52 1.118c-.225.486-.416.945-.572 1.378-.312 1.144-.624 2.089-.936 2.834a58.633 58.633 0 0 0-.546 1.378c.018.19.009.33-.026.416-.034.07-.017.148.052.234Zm9.61 6.812c-.329.087-.597.017-.805-.208-.19-.225-.303-.572-.338-1.04-.035-.468.017-1.022.156-1.664.086-.208.156-.407.208-.598.052-.208.078-.372.078-.494.035-.173.104-.424.208-.754a37.109 37.109 0 0 1 .676-2.028c.121-.294.2-.477.234-.546.07 0 .13-.06.182-.182a.917.917 0 0 0 .078-.364c0-.138.026-.294.078-.468.07-.173.139-.294.208-.364a.91.91 0 0 1 .052-.286.789.789 0 0 0 .078-.286c0-.07.017-.139.052-.208a.346.346 0 0 0 .078-.208 10.7 10.7 0 0 0 .468-1.066c.208-.502.425-1.057.65-1.664a46.395 46.395 0 0 0 1.17-3.276c.139-.416.208-.667.208-.754 0-.139.034-.242.104-.312.07-.07.173-.104.312-.104a.386.386 0 0 1 .182-.104c.087-.017.165-.026.234-.026l.104.104.312.312a.64.64 0 0 1 .234.416c.034.156.052.338.052.546 0 .225-.026.425-.078.598a5.916 5.916 0 0 1-.312.754l-.728 1.534c-.139.347-.286.676-.442.988-.156.295-.234.477-.234.546 0 .07-.035.174-.104.312a15.27 15.27 0 0 0-.182.52c-.07.139-.165.347-.286.624-.122.26-.252.546-.39.858-.122.295-.226.555-.312.78-.087.208-.13.33-.13.364 0 .07-.009.139-.026.208 0 .07-.035.139-.104.208-.07 0-.113.052-.13.156v.13c0 .174-.139.633-.416 1.378a221.35 221.35 0 0 1-.78 2.626c-.226.797-.338 1.439-.338 1.924 0 .416-.009.694-.026.832-.017.121-.096.217-.234.286Zm3.795-.936a.787.787 0 0 0-.26-.312c-.104-.087-.156-.164-.156-.234a.857.857 0 0 0-.026-.208.324.324 0 0 0-.104-.234c-.086-.104-.078-.338.026-.702.104-.381.278-.84.52-1.378.243-.554.529-1.135.858-1.742.139-.139.278-.32.416-.546.139-.225.243-.373.312-.442 0-.07.026-.13.078-.182.052-.07.113-.104.182-.104v-.156c0-.087.078-.234.234-.442.174-.208.382-.433.624-.676.243-.26.494-.502.754-.728.26-.242.477-.416.65-.52.364-.242.737-.39 1.118-.442.399-.052.737.035 1.014.26l.26.26.416.416c.174.139.347.286.52.442l.962.858-.468 1.3c-.225.694-.286 1.3-.182 1.82.122.52.295.97.52 1.352.087.19.26.373.52.546.278.174.538.278.78.312.139.018.269.07.39.156.122.087.182.225.182.416a.74.74 0 0 1-.104.416c-.069.104-.19.174-.364.208-.572.07-1.109-.07-1.612-.416-.485-.346-.936-.918-1.352-1.716a4.195 4.195 0 0 1-.286-.572 5.655 5.655 0 0 1-.182-.572l-.39.494c-.19.226-.338.39-.442.494-1.23 1.248-2.296 2.089-3.198 2.522-.884.416-1.62.433-2.21.052Zm.936-1.456c0 .121.182.121.546 0 .382-.139.789-.381 1.222-.728a25.945 25.945 0 0 0 1.768-1.664c.607-.606 1.092-1.17 1.456-1.69l.572-.936c-.173-.398-.364-.667-.572-.806-.19-.156-.355-.234-.494-.234-.225 0-.563.208-1.014.624-.433.416-.901.97-1.404 1.664-.502.694-.979 1.456-1.43 2.288-.173.347-.329.685-.468 1.014l-.182.468Zm13.482 2.34a2.863 2.863 0 0 1-.598-.234 6.748 6.748 0 0 1-.624-.494 5.182 5.182 0 0 1-.494-.78 2.927 2.927 0 0 1-.208-.832c-.035-.33-.052-.745-.052-1.248 0-.208.035-.52.104-.936.087-.416.182-.85.286-1.3.121-.468.225-.884.312-1.248a8.64 8.64 0 0 0 .182-.702c.052-.225-.035-.355-.26-.39a3.537 3.537 0 0 0-.754-.026c-.26 0-.433-.026-.52-.078-.07-.017-.104-.043-.104-.078v-.078c0-.07-.009-.112-.026-.13a.453.453 0 0 0-.078-.182c-.035-.07-.017-.165.052-.286a.586.586 0 0 1 .416-.26 4.34 4.34 0 0 1 .624-.078 4.76 4.76 0 0 0 .832-.182c.277-.104.503-.26.676-.468.156-.381.338-.806.546-1.274.208-.468.407-.884.598-1.248.208-.381.347-.615.416-.702.295-.156.511-.216.65-.182.139.017.295.165.468.442.087.121.147.217.182.286.052.07.06.174.026.312-.035.139-.13.355-.286.65-.139.295-.355.72-.65 1.274l-.234.468-.104.182c.07.017.173.026.312.026s.312-.008.52-.026c.19-.034.433-.06.728-.078.295-.034.529-.034.702 0 .399 0 .693.078.884.234.19.139.295.381.312.728.035.19-.009.303-.13.338-.104.035-.39.052-.858.052-.156 0-.399.009-.728.026-.33.017-.676.035-1.04.052-.347.017-.65.043-.91.078-.243.018-.364.044-.364.078-.052.035-.139.2-.26.494-.104.295-.217.633-.338 1.014-.104.364-.2.694-.286.988-.121.59-.217 1.179-.286 1.768-.052.59-.06 1.1-.026 1.534.035.433.13.737.286.91.156.156.46.19.91.104.45-.104.815-.268 1.092-.494.312-.26.563-.39.754-.39.208 0 .32.096.338.286.035.174-.06.425-.286.754-.208.312-.468.59-.78.832a3.3 3.3 0 0 1-.988.494c-.33.087-.641.087-.936 0Zm6.84 2.652a1.23 1.23 0 0 1-.39-.208c-.14-.087-.209-.164-.209-.234.018-.121.044-.234.078-.338.035-.086.061-.173.078-.26.035-.173.052-.381.052-.624 0-.225.026-.659.078-1.3l.13-1.742c.052-.468.104-.884.156-1.248.052-.381.113-.763.182-1.144l.312-1.352c.087-.59.087-.953 0-1.092-.069-.139-.199-.217-.39-.234a5.793 5.793 0 0 1-.884-.156c-.242-.087-.398-.234-.468-.442-.173-.173-.216-.312-.13-.416.087-.104.26-.182.52-.234.278-.07.572-.095.884-.078.295-.017.52-.035.676-.052a.665.665 0 0 0 .416-.26c.104-.156.208-.416.312-.78.035-.156.096-.373.182-.65.104-.277.191-.529.26-.754l.13-.338a.567.567 0 0 0 .234-.468c.018-.242.13-.563.338-.962.226-.416.581-.997 1.066-1.742.59-.762 1.118-1.36 1.586-1.794a3.275 3.275 0 0 1 1.69-.806c.07-.035.226-.052.468-.052h.494c.364.017.616.087.754.208.14.121.286.33.442.624.14.226.156.538.052.936-.086.382-.199.676-.338.884a2.768 2.768 0 0 1-.39.468c-.156.173-.312.33-.468.468-.138.122-.242.182-.312.182a.502.502 0 0 1-.26-.078.46.46 0 0 0-.208-.13c-.156-.07-.182-.19-.078-.364.104-.19.217-.372.338-.546.174-.26.286-.468.338-.624a.916.916 0 0 0 .052-.416 3.12 3.12 0 0 0-.104-.442l.234.234a.669.669 0 0 0-.416-.078c-.156.018-.329.06-.52.13-.329.174-.598.364-.806.572-.208.19-.38.355-.52.494a4.288 4.288 0 0 0-1.014 1.326l-.728 1.456c-.069.139-.19.399-.364.78-.156.364-.303.71-.442 1.04a9.86 9.86 0 0 1-.364.832c-.12.225-.182.364-.182.416-.052.121-.026.182.078.182.122 0 .356-.009.702-.026.85-.104 1.482-.13 1.898-.078.434.035.685.19.754.468.295.416.252.676-.13.78-.364.087-1.04.2-2.028.338l-.832.052c-.277 0-.459.009-.546.026-.069.018-.138.044-.208.078-.069.035-.147.208-.234.52-.017.19-.052.425-.104.702-.034.26-.06.511-.078.754a3.96 3.96 0 0 0-.156.65c-.017.225-.069.425-.156.598a40.45 40.45 0 0 0-.208 2.652 27.257 27.257 0 0 1-.156 2.054c-.052.572-.19 1.014-.416 1.326a1.288 1.288 0 0 1-.39.312c-.12.087-.234.087-.338 0Zm8.814-3.588c-.364.07-.598.096-.702.078-.087-.035-.226-.139-.416-.312a2.39 2.39 0 0 1-.702-.52 2.315 2.315 0 0 1-.39-.65c-.07-.243-.096-.442-.078-.598.052-.607.2-1.257.442-1.95.242-.693.537-1.36.884-2.002a8.725 8.725 0 0 1 1.118-1.638c.416-.468.815-.771 1.196-.91a2.04 2.04 0 0 1 .988-.156c.312.035.537.2.676.494.26.503.2.823-.182.962-.052 0-.113.026-.182.078-.07.035-.104.087-.104.156.07.035.26.044.572.026a8.75 8.75 0 0 0 .936-.156c.33-.087.546-.173.65-.26a.599.599 0 0 1 .234-.078c.052 0 .182.018.39.052.294.087.442.19.442.312 0 .07.026.139.078.208a.25.25 0 0 0 .182.078c.121.017.104.096-.052.234-.139.139-.382.33-.728.572-.33.208-.538.347-.624.416-.07.052-.078.174-.026.364.139.33.147.71.026 1.144a4.461 4.461 0 0 1-.65 1.326c-.312.45-.694.876-1.144 1.274-.433.382-.901.71-1.404.988-.486.26-.962.416-1.43.468Zm-.442-1.144c.07 0 .19-.034.364-.104l.416-.208c.07-.07.156-.147.26-.234.121-.104.217-.165.286-.182.07 0 .156-.026.26-.078.104-.07.251-.2.442-.39.19-.208.442-.511.754-.91a7.1 7.1 0 0 0 .806-1.04c.19-.33.242-.632.156-.91-.017-.07-.07-.112-.156-.13a1.24 1.24 0 0 1-.286-.13c-.173 0-.338-.043-.494-.13a15.253 15.253 0 0 1-.494-.39l-.416-.52-.442.442c-.277.278-.572.694-.884 1.248a11.947 11.947 0 0 0-.754 1.664c-.208.555-.33.997-.364 1.326-.017.26.026.433.13.52a.75.75 0 0 0 .416.156Zm7.372 1.222a1.297 1.297 0 0 1-.338-.364c-.052-.121-.052-.355 0-.702.052-.485.121-.91.208-1.274.087-.381.19-.814.312-1.3.034-.208.13-.563.286-1.066.173-.502.381-1.049.624-1.638.243-.59.485-1.144.728-1.664.243-.537.45-.936.624-1.196a.69.69 0 0 1 .494-.13.806.806 0 0 1 .52.234c.19.156.216.434.078.832-.121.382-.382.988-.78 1.82-.208.468-.364.824-.468 1.066-.104.225-.147.364-.13.416.017.035.095.009.234-.078.104-.19.294-.407.572-.65.277-.26.572-.511.884-.754.312-.242.606-.46.884-.65a6.05 6.05 0 0 1 .572-.364c.138-.087.294-.156.468-.208.19-.07.32-.121.39-.156a2.16 2.16 0 0 1 1.222-.208c.416.052.676.208.78.468.017.139.07.243.156.312l.156.104c.07 0 .104.026.104.078l.026.078c0 .121-.096.2-.286.234-.173.017-.399.035-.676.052-.226.017-.425.06-.598.13s-.381.156-.624.26c-.659.381-1.291.754-1.898 1.118-.59.364-1.162.85-1.716 1.456a4.083 4.083 0 0 0-.364.494 50.3 50.3 0 0 0-.39.624c-.087.087-.174.278-.26.572-.087.295-.165.58-.234.858-.052.26-.078.416-.078.468l-.078.26a1.583 1.583 0 0 1-.26.468c-.208.278-.382.416-.52.416-.139 0-.347-.138-.624-.416Zm9.603-.052a1.71 1.71 0 0 1-.156-.26.854.854 0 0 1-.052-.26.43.43 0 0 0-.026-.13c0-.052-.035-.078-.104-.078-.052-.052-.017-.251.104-.598.139-.364.312-.78.52-1.248.225-.468.45-.918.676-1.352.243-.45.442-.806.598-1.066a.31.31 0 0 0 .156-.208c.035-.104.035-.156 0-.156l.13-.234c.104-.173.182-.286.234-.338.139-.242.243-.485.312-.728.07-.26.087-.477.052-.65-.07-.087-.147-.112-.234-.078l-.13.052c-.07.017-.173.052-.312.104a1.2 1.2 0 0 0-.338.156c-.399.278-.667.408-.806.39-.139-.034-.295-.26-.468-.676-.07-.19-.095-.33-.078-.416.017-.087.087-.182.208-.286.139-.121.269-.2.39-.234.121-.052.217-.104.286-.156.19-.121.347-.208.468-.26.139-.052.243-.087.312-.104.45-.139.832-.165 1.144-.078.312.087.546.312.702.676.243.295.364.633.364 1.014 0 .364-.121.789-.364 1.274l-.26.39c-.087.174-.104.26-.052.26.07 0 .147-.06.234-.182.052-.07.156-.173.312-.312s.26-.208.312-.208l.052-.026c.052-.017.078-.087.078-.208l.156-.156.104-.078c.07 0 .2-.078.39-.234.208-.173.45-.372.728-.598.19-.138.364-.208.52-.208.399-.121.72.009.962.39.26.382.39.876.39 1.482l-.546 1.404.936-1.144a3.4 3.4 0 0 1 .312-.364c.121-.104.225-.19.312-.26.035-.121.087-.19.156-.208l.104-.026h.052c.035-.017.052-.052.052-.104.087-.07.182-.13.286-.182a.588.588 0 0 0 .208-.208c.295-.121.563-.138.806-.052.243.07.45.286.624.65.121.208.19.39.208.546.017.156.026.39.026.702-.035.26-.07.468-.104.624-.017.139-.035.286-.052.442-.017.156-.043.373-.078.65a1.3 1.3 0 0 0-.13.442v.442c0 .226.009.382.026.468.017.07.087.104.208.104.243-.052.572-.173.988-.364.433-.208.754-.407.962-.598.26-.242.485-.364.676-.364.208-.017.338.078.39.286.035.07-.026.225-.182.468a4.691 4.691 0 0 1-.494.702c-.173.226-.303.338-.39.338-.052 0-.113.052-.182.156a.881.881 0 0 1-.234.208 6.485 6.485 0 0 1-.364.338.499.499 0 0 1-.364.156.613.613 0 0 0-.26.078.84.84 0 0 1-.312.052c-.173.052-.442.026-.806-.078-.347-.104-.572-.346-.676-.728-.07-.19-.13-.494-.182-.91a4.666 4.666 0 0 1 .026-1.3 5.76 5.76 0 0 0 .13-.858c.017-.26.052-.442.104-.546v-.364c0-.208-.026-.312-.078-.312-.07 0-.234.13-.494.39-.243.243-.537.555-.884.936-.33.381-.659.78-.988 1.196-.33.416-.598.789-.806 1.118-.156.19-.295.425-.416.702-.121.278-.208.434-.26.468-.121.139-.269.156-.442.052a1.565 1.565 0 0 1-.442-.494 1.334 1.334 0 0 1-.104-.26 1.086 1.086 0 0 1 0-.338c.035-.156.095-.381.182-.676.104-.295.243-.71.416-1.248.19-.59.355-1.118.494-1.586l.234-.728c0-.07-.13 0-.39.208-.26.19-.563.434-.91.728-.156.19-.416.477-.78.858a53.62 53.62 0 0 0-1.196 1.3c-.433.486-.85.997-1.248 1.534-.503.71-.858 1.144-1.066 1.3-.19.156-.381.113-.572-.13Z" fill="#000"/><g clip-path="url(#a)"><path d="m214.571 100.088-15.33 13.293-13.081 23.48h11.795l16.616-36.773Zm2.039 3.11-6.542 18.44 12.544 15.76-24.336 4.182h39.884l-21.55-38.382Z" fill="#0072C6"/></g><defs><clipPath id="a"><path fill="#fff" transform="translate(186.16 100.086)" d="M0 0h52v41.496H0z"/></clipPath></defs></svg>