<svg width="321" height="201" fill="none" xmlns="http://www.w3.org/2000/svg"><path fill-rule="evenodd" clip-rule="evenodd" d="M191.534 132.583a.5.5 0 0 1 .373.601c-.054.232-.11.464-.166.695-.491 2.036-.976 4.045-.23 6.133 1.069 2.991 4.011 4.155 6.46 5.123l.238.094c1.44.571 2.904 1.022 4.393 1.482.47.145.943.29 1.418.441 1.966.623 3.952 1.321 5.87 2.369.895.489 1.521 1.064 1.912 1.721.393.659.527 1.365.498 2.077-.058 1.387-.746 2.854-1.386 4.176a.501.501 0 0 1-.9-.436c.66-1.362 1.239-2.638 1.287-3.782.023-.553-.081-1.059-.358-1.524-.278-.467-.754-.929-1.533-1.355-1.83-1-3.741-1.675-5.692-2.293a226.02 226.02 0 0 0-1.384-.431c-1.498-.461-3.014-.929-4.494-1.515a28.06 28.06 0 0 0-.327-.129c-2.371-.934-5.718-2.251-6.944-5.682-.852-2.387-.29-4.697.198-6.701.057-.234.113-.465.166-.69a.502.502 0 0 1 .601-.374Z" fill="#000"/><path fill-rule="evenodd" clip-rule="evenodd" d="M190.922 134.203c-.846.93-1.526 2.013-2.236 3.142l-.2.319c-.465.736-.948 1.486-1.501 2.196l.346-.066.143-.028c.467-.089.992-.19 1.563-.305-.161.014-.31.018-.443.013a.5.5 0 1 1 .042-.999c.401.016 1.105-.105 1.939-.308a38.485 38.485 0 0 0 2.471-.708 9.539 9.539 0 0 1-1.248-1.371 5.553 5.553 0 0 1-.675-1.164 3.088 3.088 0 0 1-.201-.721Zm-6.151 6.564-.119.101a.5.5 0 1 0 .637.77c.075-.062.148-.125.221-.188 1.525.357 3.063-.289 4.42-1.039l.316-.178a68.553 68.553 0 0 0 4.316-1.055 30.59 30.59 0 0 0 1.524-.158c.365-.051.65-.106.834-.18a.839.839 0 0 0 .171-.09.58.58 0 0 0 .207-.248.538.538 0 0 0-.015-.46.608.608 0 0 0-.184-.213 1.087 1.087 0 0 0-.281-.139 3.457 3.457 0 0 0-.289-.085c-.244-.063-.577-.129-.911-.196-.157-.032-.315-.063-.464-.095a.502.502 0 0 0-.014-.075.89.89 0 0 0-.243-.26.972.972 0 0 0-.149-.046c-.055-.008-.099-.004-.111-.003-.033.002-.059.008-.067.009l-.028.007-.039.01-.09.028-.232.077a1.33 1.33 0 0 1-.051-.021c-.052-.022-.074-.037-.078-.039 0 0-.001 0 0 0a8.345 8.345 0 0 1-1.449-1.506 4.553 4.553 0 0 1-.554-.948c-.125-.309-.168-.568-.139-.774.01-.078.024-.148.04-.228l.02-.105c.011-.056.022-.122.028-.186a.777.777 0 0 0-.017-.276.542.542 0 0 0-.461-.409.65.65 0 0 0-.405.094c-.141.082-.305.228-.488.406-1.131 1.104-1.972 2.444-2.777 3.727l-.21.334c-.705 1.119-1.404 2.183-2.281 3.083l-.102.034a.977.977 0 0 0-.275.144.562.562 0 0 0-.211.376Zm8.447-2.261c.132-.064.261-.123.388-.176a44.5 44.5 0 0 0 .62-.207c.075.021.153.041.232.06l-.027.002a.61.61 0 0 0-.095.017c-.377.107-.75.208-1.118.304ZM27.555 135.036a.5.5 0 0 1-.616-.348 432.71 432.71 0 0 0-.573-2.034c-.815-2.876-1.64-5.785-2.199-8.753-.223-1.186-.485-2.617-.453-4.035.032-1.424.359-2.883 1.354-4.095 1.64-1.999 3.946-2.922 6.252-3.627.553-.169 1.103-.325 1.647-.479 1.766-.501 3.458-.981 4.925-1.814.932-.529 1.459-1.227 1.733-2.022.28-.81.308-1.752.182-2.766-.126-1.013-.4-2.064-.697-3.08-.081-.28-.165-.559-.248-.834-.212-.708-.418-1.39-.555-1.988a.5.5 0 0 1 .975-.224c.13.564.32 1.196.528 1.89.084.282.172.574.26.876.3 1.027.593 2.141.73 3.236.136 1.095.12 2.206-.23 3.216-.353 1.026-1.04 1.916-2.184 2.566-1.582.898-3.436 1.423-5.226 1.93a71.66 71.66 0 0 0-1.547.45c-2.276.695-4.331 1.549-5.772 3.305-.804.978-1.099 2.189-1.127 3.482-.03 1.299.21 2.632.436 3.828.55 2.919 1.359 5.775 2.173 8.647.194.684.388 1.37.58 2.057a.5.5 0 0 1-.348.616Z" fill="#000"/><path fill-rule="evenodd" clip-rule="evenodd" d="M24.64 136.721a.5.5 0 0 1-.139-.694l.054-.08a11.906 11.906 0 0 1-.373-.738 30.05 30.05 0 0 1-.545-1.256l-.027-.064c-.146-.355-.255-.618-.329-.761-.745-1.452-1.388-3.014-2.016-4.538-.272-.659-.54-1.311-.814-1.944a.513.513 0 0 1 .132-.593c.145-.127.31-.129.343-.13h.002c.1-.002.198.022.252.036.133.034.312.095.509.168.401.149.948.374 1.512.614 1.13.48 2.359 1.032 2.703 1.192.536.248 1.24.393 1.956.482.542.068 1.06.1 1.495.127.137.008.267.016.386.025.225.016.459.036.617.078a.814.814 0 0 1 .168.065.533.533 0 0 1 .204.776.662.662 0 0 1-.178.176 1.569 1.569 0 0 1-.3.147 6.67 6.67 0 0 1-.407.141l-.199.061a.514.514 0 0 1 .145.207c.049.127.034.242.03.272v.001c-.01.085-.039.171-.06.23-.09.254-.303.698-.554 1.186-.506.988-1.242 2.296-1.686 2.936l-.018.03a17.137 17.137 0 0 0-.193.364l-.306.61c-.025.049-.05.097-.073.146-.133.264-.264.525-.366.72a6.11 6.11 0 0 1-.137.248c-.018.03-.041.069-.067.103a.535.535 0 0 1-.19.167.504.504 0 0 1-.388.031c-.21-.068-.386-.2-.527-.337-.051-.049-.1-.102-.149-.158a.498.498 0 0 1-.467-.046Zm1.11-.752.043.058c.07-.134.146-.287.225-.444l-.269.386Zm2.982-5.699-.25.068a.5.5 0 0 1-.416-.893 13.158 13.158 0 0 1-.33-.037c-.747-.093-1.574-.254-2.252-.568-.335-.155-1.554-.703-2.674-1.179a53.11 53.11 0 0 0-1.022-.423l.42 1.016c.62 1.506 1.238 3.004 1.963 4.417.093.182.217.482.352.809l.038.09a28.596 28.596 0 0 0 .635 1.443c.887-1.264 1.822-2.491 2.751-3.711l.756-.994.029-.038ZM244.082 66.25a.5.5 0 0 1-.569-.42c-.104-.694-.212-1.39-.321-2.088-.459-2.954-.924-5.942-1.117-8.956-.077-1.204-.163-2.657.041-4.06.205-1.41.707-2.818 1.842-3.9 1.872-1.784 4.273-2.42 6.648-2.838.569-.1 1.134-.189 1.692-.276 1.815-.282 3.553-.553 5.11-1.2.99-.413 1.597-1.04 1.966-1.797.377-.77.519-1.701.518-2.723-.002-1.021-.147-2.097-.317-3.142a94.415 94.415 0 0 0-.145-.858c-.125-.728-.246-1.43-.309-2.041a.5.5 0 1 1 .995-.103c.059.575.171 1.226.294 1.94.05.29.101.59.152.901.172 1.056.328 2.197.33 3.301.001 1.103-.15 2.204-.619 3.164-.476.975-1.266 1.775-2.481 2.28-1.68.7-3.583.995-5.422 1.28-.538.084-1.071.167-1.59.258-2.343.414-4.487 1.01-6.132 2.578-.916.874-1.356 2.04-1.542 3.32-.187 1.285-.111 2.638-.033 3.852.19 2.964.646 5.897 1.104 8.847.11.703.219 1.407.325 2.113a.5.5 0 0 1-.42.568Z" fill="#000"/><path fill-rule="evenodd" clip-rule="evenodd" d="M240.984 67.567a.5.5 0 0 1-.054-.705l.064-.073c-.102-.251-.196-.516-.281-.778a29.2 29.2 0 0 1-.406-1.38c-.103-.37-.179-.644-.234-.795-.563-1.532-1.012-3.16-1.45-4.75-.189-.687-.377-1.367-.57-2.029a.514.514 0 0 1 .558-.66l.003.001c.099.01.193.046.245.066.128.05.298.133.485.23.38.196.896.486 1.426.793a117.54 117.54 0 0 1 2.538 1.512c.502.311 1.182.541 1.883.717.53.133 1.04.228 1.468.307l.38.072c.221.043.451.092.603.153.041.017.1.043.159.085a.531.531 0 0 1 .108.794.63.63 0 0 1-.199.153 1.562 1.562 0 0 1-.315.11c-.115.03-.255.06-.421.09l-.205.037c.07.076.104.16.119.223.033.132.004.244-.003.273v.002c-.021.083-.06.165-.088.22-.121.242-.386.657-.694 1.11-.623.919-1.512 2.129-2.031 2.71 0-.001 0-.001 0 0a.321.321 0 0 0-.021.027c-.016.02-.035.047-.059.081a65.988 65.988 0 0 0-.556.825l-.09.136c-.163.246-.326.49-.451.67a5.27 5.27 0 0 1-.166.23 1.054 1.054 0 0 1-.079.094.582.582 0 0 1-.209.142.504.504 0 0 1-.388-.016 1.397 1.397 0 0 1-.483-.399 2.617 2.617 0 0 1-.128-.174.499.499 0 0 1-.458-.104Zm1.192-.61.037.063.277-.414-.314.35Zm3.654-5.294-.256.037a.5.5 0 0 1-.304-.937 15.36 15.36 0 0 1-.323-.077c-.73-.184-1.531-.443-2.167-.838-.313-.194-1.456-.886-2.51-1.495a54.872 54.872 0 0 0-.963-.545c.099.353.196.707.293 1.06.433 1.57.863 3.132 1.411 4.623.071.192.157.505.251.846l.026.094c.109.39.234.837.375 1.27.027.08.053.16.081.239 1.033-1.147 2.111-2.25 3.182-3.349l.871-.894.033-.034Z" fill="#000"/><path d="M33.877 150.459c-6.428-1.237-10.689 4.233-14.24 9.019-4.963 4.108-3.866 6.586-3.491 7.407 2.41 5.278 5.537 14.621 14.017 15.746 5.016.666 14.163-6.866 17.01-12.332 2.287-4.39-3.625-10.311-4.838-12.366-2.812-4.765-4.433-6.7-8.458-7.474Z" fill="#fff"/><path fill-rule="evenodd" clip-rule="evenodd" d="M32.738 153.132c-2.681-2.681-5.773-1.906-6.981-.699-2.18 2.18-6.939 8.329-8.326 10.409-1.483 2.226-.654 4.418.031 5.79.8 1.6 2.253 3.92 3.654 5.99 1.41 2.083 2.724 3.846 3.243 4.365.194.194.407.421.616.645.158.168.313.335.46.485.362.374.73.719 1.129.998.776.543 1.677.845 2.912.536.617-.154 1.455-.575 2.443-1.206.977-.624 2.063-1.429 3.168-2.317a79.938 79.938 0 0 0 6.04-5.432c1.634-1.635 1.936-3.229 1.778-4.568-.144-1.228-.673-2.262-1.044-2.988l-.13-.255c-.136-.274-.585-.966-1.253-1.929-.66-.949-1.51-2.128-2.429-3.357-1.844-2.465-3.94-5.097-5.31-6.467Zm-7.688-1.406c1.588-1.588 5.313-2.383 8.396.699 1.426 1.427 3.56 4.111 5.404 6.575a124.664 124.664 0 0 1 2.449 3.385c.657.946 1.151 1.702 1.327 2.053l.122.24c.369.717.984 1.914 1.15 3.333.192 1.631-.205 3.532-2.065 5.392a80.796 80.796 0 0 1-6.12 5.504c-1.12.901-2.237 1.73-3.256 2.381-1.008.644-1.958 1.138-2.739 1.333-1.561.391-2.756-.007-3.728-.687-.475-.332-.894-.73-1.273-1.12-.182-.187-.343-.36-.498-.526-.19-.203-.37-.397-.567-.594-.6-.599-1.966-2.448-3.364-4.512-1.406-2.078-2.89-4.441-3.72-6.103-.712-1.424-1.775-4.082.031-6.792 1.41-2.113 6.21-8.319 8.45-10.561Z" fill="#000"/><path fill-rule="evenodd" clip-rule="evenodd" d="M37.146 152.292c-2.69-2.689-5.535-2.201-7.45-1.818-1.682.336-2.654.831-3.456 1.473-.41.327-.784.7-1.195 1.133l-.362.385c-.31.329-.646.689-1.023 1.066l-.707-.707c.365-.366.684-.705.989-1.031l.378-.402c.419-.44.83-.854 1.295-1.225.945-.756 2.07-1.31 3.884-1.673 1.961-.392 5.279-.983 8.354 2.092 1.426 1.426 3.56 4.11 5.404 6.575a121.83 121.83 0 0 1 2.45 3.385c.656.945 1.15 1.701 1.326 2.052l.122.24c.37.718.984 1.914 1.15 3.333.193 1.631-.204 3.532-2.064 5.392-1.583 1.583-3.918 3.9-6.21 5.911-1.147 1.006-2.29 1.941-3.328 2.672-1.024.721-1.996 1.278-2.79 1.477-2.826.706-5.073.744-6.636-.038l.447-.894c1.232.616 3.18.653 5.946-.038.603-.151 1.447-.613 2.458-1.325.997-.702 2.11-1.612 3.243-2.605 2.265-1.987 4.58-4.284 6.162-5.867 1.635-1.635 1.937-3.228 1.78-4.568-.145-1.228-.674-2.262-1.045-2.988l-.13-.254c-.136-.274-.584-.967-1.253-1.93-.659-.948-1.51-2.128-2.429-3.356-1.844-2.466-3.94-5.098-5.31-6.467Z" fill="#000"/><path fill-rule="evenodd" clip-rule="evenodd" d="M27.634 155.535c.39-.247.836-.46 1.264-.46.47 0 .903.281 1.248.582.364.318.725.743 1.059 1.193a19.58 19.58 0 0 1 1.635 2.696l.161.322-4.866 4.866-4.058-5.681.237-.295a21.395 21.395 0 0 1 2.079-2.24 9.17 9.17 0 0 1 1.241-.983Zm-2.3 3.556 2.929 4.101 3.519-3.519a18.399 18.399 0 0 0-1.381-2.228c-.313-.423-.625-.784-.912-1.034-.306-.267-.502-.336-.59-.336-.132 0-.373.079-.729.305a8.16 8.16 0 0 0-1.1.874 20.321 20.321 0 0 0-1.737 1.837Zm-3.371 1.991 4.093 5.731-4.148 4.148-.353-.354c-.734-.733-1.402-1.735-2.137-2.837l-.023-.035c-.85-1.276-.512-2.604.09-3.669.544-.959 1.357-1.809 1.904-2.381l.157-.163.417-.44Zm-1.607 3.477c-.519.916-.676 1.801-.129 2.622.63.943 1.16 1.736 1.694 2.353l2.83-2.829-2.898-4.056c-.508.538-1.092 1.194-1.497 1.91Zm15.6-2.011.322.404c.47.588 1.177 1.505 1.767 2.35.295.421.566.832.766 1.179.1.173.187.339.25.487.057.132.123.311.123.49 0 1.228-.617 2.217-1.35 3.041-.367.413-.776.799-1.171 1.161l-.26.237c-.306.279-.595.542-.86.807l-.382.382-4.871-5.682 5.665-4.856Zm-4.256 4.964 3.524 4.111c.17-.159.343-.317.516-.474l.247-.226c.391-.359.768-.716 1.1-1.089.661-.743 1.091-1.497 1.097-2.359-.002-.005-.01-.04-.042-.113a3.83 3.83 0 0 0-.197-.382c-.179-.31-.431-.694-.72-1.105a46.937 46.937 0 0 0-1.407-1.893l-4.118 3.53Zm-3.407 2.013 3.983 5.576-.135.269c-.153.308-.455.667-.795 1.009-.352.353-.782.723-1.23 1.052-.448.326-.93.623-1.383.815-.426.181-.941.321-1.391.171-1.187-.396-1.966-1.187-2.53-2.032-.402-.604-.717-1.275-.984-1.846a23.81 23.81 0 0 0-.27-.567l-.177-.354 4.912-4.093Zm-3.667 4.358.14.298c.257.55.52 1.113.879 1.65.485.728 1.104 1.334 2.013 1.637.081.027.297.022.684-.142.36-.153.773-.403 1.183-.703a9.633 9.633 0 0 0 1.112-.949c.194-.195.346-.369.454-.511l-2.986-4.18-3.48 2.9ZM41.837 172.473a.5.5 0 0 1 .25-.661l5.203-2.342a.5.5 0 0 1 .41.912l-5.202 2.342a.5.5 0 0 1-.661-.251Zm1.716-3.528a.5.5 0 0 1 .21-.675l4-2.107a.5.5 0 1 1 .465.884l-4 2.108a.5.5 0 0 1-.675-.21Zm-.5-3.231a.5.5 0 0 1 .21-.675l3-1.581a.5.5 0 1 1 .465.885l-3 1.58a.5.5 0 0 1-.675-.209ZM37.35 158.14a.5.5 0 0 1 .21-.675l3-1.581a.5.5 0 0 1 .466.885l-3 1.581a.5.5 0 0 1-.675-.21Zm1.558 2.675a.5.5 0 0 1 .21-.676l3.442-1.813a.5.5 0 1 1 .466.884l-3.443 1.814a.5.5 0 0 1-.675-.209Zm1.443 2.298a.5.5 0 0 1 .209-.676l3.5-1.844a.5.5 0 0 1 .466.885l-3.5 1.844a.5.5 0 0 1-.675-.209ZM31.35 151.623a.5.5 0 0 1 .21-.676l2.563-1.35a.5.5 0 1 1 .466.885l-2.563 1.35a.5.5 0 0 1-.675-.209Zm2.564 2.144a.5.5 0 0 1 .209-.675l2.937-1.547a.5.5 0 1 1 .466.884l-2.937 1.548a.5.5 0 0 1-.675-.21Zm1.936 2.038a.5.5 0 0 1 .21-.676l3-1.58a.5.5 0 1 1 .466.885l-3 1.58a.5.5 0 0 1-.676-.209ZM31.798 180.842a.5.5 0 0 1 .42-.568l5-.75a.5.5 0 1 1 .15.988l-5 .751a.5.5 0 0 1-.57-.421Zm2.515-1.934a.5.5 0 0 1 .34-.62l6.5-1.895a.5.5 0 0 1 .28.96l-6.5 1.895a.5.5 0 0 1-.62-.34Zm4.016-2.954a.5.5 0 0 1 .278-.65c.938-.375 1.7-.642 2.394-.885.239-.084.47-.165.696-.246a23.602 23.602 0 0 0 2.87-1.224.5.5 0 1 1 .452.892 24.406 24.406 0 0 1-2.984 1.273l-.718.254a53.48 53.48 0 0 0-2.338.864.5.5 0 0 1-.65-.278Z" fill="#000"/><path d="M187.74 97.01c-4.549-.923-7.549 3.077-10.049 6.577-3.5 3-2.719 4.819-2.451 5.422 1.717 3.875 3.951 10.733 9.951 11.578 3.549.5 10-5 12-9 1.607-3.213-2.589-7.568-3.451-9.078-2-3.5-3.152-4.922-6-5.5Z" fill="#fff"/><path fill-rule="evenodd" clip-rule="evenodd" d="M182.191 98.087c.924-.924 3.735-.265 5 1 2 2 7.5 9 7.5 10.5s-.732 3.233-2.5 5c-2 2-6.5 5-7.5 5.5s-2 .5-5-3.5-5.5-8-5-9c.4-.8 4.5-6.5 7.5-9.5Zm-1.195 5.5 2.5 3.5 3-3c-.5-1-1.7-3-2.5-3s-2.333 1.667-3 2.5Zm4.5 6 3.5-3c.667.834 2 2.6 2 3 .001 1.206-.969 2.089-1.868 2.908-.22.2-.435.396-.631.592l-3.001-3.5Zm.5 5.5-2.5-3.5-2.999 2.5c.068.138.137.285.208.437.448.957.998 2.132 2.292 2.563.758.253 2.666-1.333 2.999-2Zm-4.5-6-2.5-3.5a5.682 5.682 0 0 1-.111.117c-.828.866-2.344 2.45-1.388 3.883v.001c.538.807 1 1.499 1.499 1.999l2.5-2.5Z" fill="#00ACE4"/><path fill-rule="evenodd" clip-rule="evenodd" d="M192.491 114.563a.5.5 0 0 1 .251-.661l4-1.801a.5.5 0 0 1 .41.912l-4 1.801a.5.5 0 0 1-.661-.251Zm1.621-3.57a.5.5 0 0 1 .209-.676l2.893-1.523a.5.5 0 1 1 .466.884l-2.893 1.524a.5.5 0 0 1-.675-.209Zm-.931-3.004a.5.5 0 0 1 .209-.676l2.324-1.224a.5.5 0 1 1 .466.885l-2.324 1.224a.5.5 0 0 1-.675-.209ZM187.607 100.216a.5.5 0 0 1 .214-.665c.516-.272.828-.406 1.129-.534l1.081-.511a.5.5 0 0 1 .447.894c-.509.269-.819.401-1.118.529l-1.092.516a.5.5 0 0 1-.661-.229Zm2.003 2.505a.5.5 0 0 1 .211-.671c.586-.308.855-.435 1.121-.559l1.079-.539a.5.5 0 0 1 .457.889c-.572.301-.838.427-1.1.55l-1.1.549a.499.499 0 0 1-.668-.219Zm1.517 2.531a.5.5 0 0 1 .168-.687l2.191-1.326a.5.5 0 0 1 .518.856l-2.191 1.326a.5.5 0 0 1-.686-.169ZM185.607 98.716a.5.5 0 0 1 .224-.67l2-1a.5.5 0 0 1 .447.894l-2 1a.5.5 0 0 1-.671-.224ZM186.751 119.251a.5.5 0 0 1 .424-.566l3.032-.433a.5.5 0 1 1 .142.99l-3.032.433a.5.5 0 0 1-.566-.424Zm3.043-2.209a.5.5 0 0 1 .353-.607c.465-.126.907-.226 1.337-.32l1.954-.468a.5.5 0 0 1 .254.967c-.593.17-1.143.292-1.677.408l-.102.023-.206.045-1.312.314a.5.5 0 0 1-.601-.362Z" fill="#000"/><path fill-rule="evenodd" clip-rule="evenodd" d="M186.701 99.847c-1.861-1.862-3.983-1.31-4.793-.5-1.55 1.55-4.949 5.94-5.938 7.423-1.015 1.523-.455 3.026.031 3.999l-.444.222.445-.222c.568 1.137 1.602 2.789 2.604 4.269 1.01 1.492 1.942 2.742 2.302 3.101.139.139.296.307.448.47.113.12.223.238.323.34.257.265.513.505.787.697.527.369 1.131.571 1.967.362.418-.105 1.002-.395 1.706-.845a26.433 26.433 0 0 0 2.253-1.648 57.037 57.037 0 0 0 4.309-3.876c1.137-1.137 1.34-2.233 1.232-3.15-.1-.851-.467-1.568-.733-2.088l-.093-.184c-.092-.185-.406-.672-.886-1.363a88.52 88.52 0 0 0-1.735-2.397c-1.319-1.764-2.813-3.639-3.785-4.61Zm-5.5-1.208c1.19-1.19 3.945-1.762 6.207.5 1.028 1.029 2.56 2.957 3.879 4.719a90.176 90.176 0 0 1 1.755 2.425c.468.674.828 1.224.959 1.486l.087.17c.263.512.715 1.39.838 2.433.142 1.208-.156 2.612-1.518 3.974a57.898 57.898 0 0 1-4.389 3.948 27.748 27.748 0 0 1-2.342 1.712c-.724.463-1.42.827-2.001.972-1.164.291-2.061-.007-2.783-.513a6.539 6.539 0 0 1-.932-.819c-.135-.139-.25-.263-.361-.381a17.213 17.213 0 0 0-.399-.419c-.44-.44-1.426-1.774-2.423-3.248-1.007-1.487-2.072-3.184-2.671-4.381l.447-.224-.447.224c-.513-1.027-1.307-2.994.031-5.001 1.011-1.517 4.451-5.965 6.063-7.577Z" fill="#000"/><path fill-rule="evenodd" clip-rule="evenodd" d="M189.853 99.245c-1.868-1.869-3.836-1.534-5.201-1.261-1.184.237-1.857.582-2.41 1.025-.285.228-.548.49-.841.797l-.256.273c-.222.237-.465.496-.737.768l-.707-.707c.259-.26.485-.5.702-.732.092-.098.182-.195.273-.29.301-.317.601-.618.941-.89.697-.557 1.523-.962 2.839-1.225 1.41-.282 3.85-.72 6.105 1.535 1.028 1.028 2.56 2.956 3.879 4.719a88.603 88.603 0 0 1 1.755 2.425c.468.674.828 1.224.959 1.486l.086.169c.264.512.716 1.391.838 2.434.143 1.208-.155 2.612-1.518 3.974-1.131 1.132-2.805 2.793-4.449 4.235-.821.721-1.643 1.393-2.392 1.92-.734.517-1.448.93-2.043 1.078-2.03.508-3.679.546-4.845-.037l.447-.895c.834.417 2.185.455 4.155-.038.404-.101.99-.418 1.711-.926.708-.498 1.499-1.145 2.308-1.854 1.616-1.418 3.269-3.058 4.401-4.19 1.138-1.137 1.34-2.234 1.232-3.15-.1-.851-.466-1.569-.732-2.089a16.4 16.4 0 0 1-.093-.184c-.093-.185-.407-.671-.887-1.362a86.74 86.74 0 0 0-1.734-2.397c-1.32-1.764-2.814-3.639-3.786-4.61Z" fill="#000"/><path fill-rule="evenodd" clip-rule="evenodd" d="M183.074 101.344c.284-.18.631-.351.98-.351.391 0 .734.231.987.452.271.236.536.55.778.876.484.655.924 1.431 1.183 1.949l.161.322-3.672 3.672-3.063-4.288.236-.295c.344-.431.912-1.076 1.502-1.618.294-.271.606-.527.908-.719Zm-1.389 2.671 1.933 2.707 2.324-2.323a12.792 12.792 0 0 0-.927-1.483 4.616 4.616 0 0 0-.632-.718 1.24 1.24 0 0 0-.24-.172c-.061-.031-.089-.033-.089-.033-.051 0-.195.037-.444.196-.232.147-.495.36-.767.61-.425.39-.842.844-1.158 1.216Zm-2.576 1.195 3.098 4.337-3.153 3.153-.353-.353c-.535-.535-1.02-1.262-1.541-2.044l-.022-.032c-.651-.978-.384-1.991.059-2.774.398-.703.993-1.324 1.383-1.731l.112-.117.417-.439Zm-1.041 2.78c-.359.633-.446 1.203-.098 1.726.413.619.761 1.138 1.102 1.552l1.829-1.829-1.901-2.662c-.329.356-.681.768-.932 1.213Zm11.054-1.713.323.404c.337.422.844 1.081 1.269 1.688.212.303.409.601.555.854.072.126.138.25.186.364.042.096.099.248.099.406 0 .929-.468 1.67-1.001 2.27a11.99 11.99 0 0 1-.848.841l-.188.171c-.218.199-.422.385-.609.572l-.382.382-3.677-4.29 4.273-3.662Zm-2.863 3.77 2.332 2.72.263-.24.175-.16c.279-.256.545-.508.777-.769.457-.514.737-1.014.748-1.572a2.467 2.467 0 0 0-.152-.303 10.805 10.805 0 0 0-.507-.781c-.291-.415-.625-.86-.911-1.23l-2.725 2.335Zm-2.611 1.217 2.988 4.184-.134.269c-.121.241-.35.511-.596.758-.257.258-.57.528-.897.767a5.315 5.315 0 0 1-1.017.599c-.311.132-.721.251-1.096.127-.888-.297-1.469-.889-1.883-1.51-.294-.442-.527-.938-.719-1.349-.067-.143-.129-.276-.187-.392l-.177-.354 3.718-3.099Zm-2.474 3.364.058.123c.182.39.364.778.613 1.152.336.504.756.912 1.367 1.116l-.001-.001s.028.007.096-.004c.074-.012.172-.041.294-.093.243-.104.529-.276.818-.487a6.74 6.74 0 0 0 .778-.664c.101-.101.183-.192.248-.27l-1.984-2.778-2.287 1.906Z" fill="#000"/><path fill-rule="evenodd" clip-rule="evenodd" d="M230.3 91.124a.5.5 0 0 1-.295.643c-7.643 2.826-19.38 7.058-27.05 9.806a.5.5 0 0 1-.338-.941c7.67-2.748 19.403-6.978 27.041-9.803a.5.5 0 0 1 .642.295Z" fill="#9293AB"/><path fill-rule="evenodd" clip-rule="evenodd" d="M219.762 93.013a.5.5 0 0 1 .373-.601l.315-.076c.823-.198 2.831-.68 4.782-1.07 1.143-.23 2.282-.43 3.159-.52.435-.046.83-.068 1.136-.046.151.01.311.033.452.085.128.046.353.158.447.418l.055.153-.046.157a1.755 1.755 0 0 1-.384.65c-.169.191-.38.379-.613.56-.466.362-1.064.733-1.703 1.097-.588.336-1.226.676-1.844 1.005l-.164.087c-.672.358-1.314.702-1.855 1.024a.5.5 0 0 1-.511-.86 49.672 49.672 0 0 1 2.057-1.132 70.04 70.04 0 0 0 1.821-.992c.627-.358 1.177-.701 1.586-1.019.107-.084.202-.163.285-.239-.174.006-.38.021-.615.046-.83.086-1.931.279-3.067.506-1.928.386-3.908.862-4.739 1.061l-.326.078a.5.5 0 0 1-.601-.373ZM204.493 107.989a.5.5 0 0 1 .296-.642c4.282-1.584 9.747-3.442 15.067-5.251 4.156-1.413 8.224-2.796 11.571-3.995a.5.5 0 1 1 .337.942c-3.389 1.213-7.465 2.599-11.62 4.011-5.296 1.801-10.72 3.644-15.009 5.231a.5.5 0 0 1-.642-.296Z" fill="#9293AB"/><path fill-rule="evenodd" clip-rule="evenodd" d="M215.032 106.101a.5.5 0 0 1-.373.601l-.315.075c-.823.198-2.831.681-4.782 1.071-1.143.228-2.282.428-3.159.52-.435.045-.83.067-1.137.045-.15-.01-.31-.033-.452-.085-.127-.046-.353-.157-.446-.418l-.055-.153.046-.156c.071-.245.219-.462.384-.65.169-.192.379-.379.613-.56.465-.362 1.064-.733 1.703-1.098a71.702 71.702 0 0 1 2.007-1.092 47.059 47.059 0 0 0 1.856-1.024.5.5 0 0 1 .511.86c-.565.336-1.227.69-1.896 1.047l-.162.086a70.71 70.71 0 0 0-1.82.991c-.627.358-1.177.701-1.586 1.019a4.69 4.69 0 0 0-.285.239c.174-.006.38-.021.615-.046.829-.086 1.931-.279 3.067-.506 1.927-.385 3.907-.861 4.739-1.061l.326-.078a.5.5 0 0 1 .601.373ZM70.315 156.3a.5.5 0 0 1-.373.601l-.315.075c-.823.198-2.83.681-4.781 1.071-1.143.229-2.282.429-3.16.52-.435.046-.83.067-1.136.046a1.73 1.73 0 0 1-.452-.085c-.128-.047-.353-.158-.447-.419l-.055-.153.046-.156a1.76 1.76 0 0 1 .384-.65c.17-.192.38-.379.613-.56.466-.362 1.065-.733 1.703-1.098.589-.336 1.226-.675 1.845-1.005l.163-.086a49.695 49.695 0 0 0 1.856-1.024.5.5 0 1 1 .51.86c-.565.335-1.226.689-1.896 1.046l-.161.086c-.621.331-1.246.663-1.821.992-.627.358-1.176.701-1.586 1.018a4.845 4.845 0 0 0-.284.239 9.34 9.34 0 0 0 .614-.045c.83-.087 1.932-.279 3.068-.507 1.927-.385 3.907-.861 4.738-1.061l.326-.078a.5.5 0 0 1 .601.373Z" fill="#9293AB"/><path fill-rule="evenodd" clip-rule="evenodd" d="M60.104 158.012a.5.5 0 0 1 .296-.643c2.389-.883 93.781-33.859 96.196-34.76 5.303-1.977 10.644-3.969 15.917-5.858a.5.5 0 0 1 .337.942c-5.266 1.886-10.597 3.874-15.897 5.851-2.416.901-93.812 33.878-96.206 34.763a.5.5 0 0 1-.643-.295Z" fill="#9293AB"/><path d="m68.178 131.767.529-22.359 5.65-2.448 69.117 24.437-.651 27.519-4.351 2.048-35.782-15.044-.854-3.971-5.115 1.679-28.543-11.861Z" fill="#fff"/><path fill-rule="evenodd" clip-rule="evenodd" d="M72.026 114.579a.5.5 0 0 1 .488.512l-.112 4.73a.5.5 0 0 1-1-.024l.112-4.73a.5.5 0 0 1 .512-.488Zm6.337 2.731a.5.5 0 0 1 .488.512l-.102 4.3a.5.5 0 0 1-1-.024l.102-4.3a.5.5 0 0 1 .512-.488Zm6.347 2.302a.499.499 0 0 1 .488.511l-.102 4.3a.5.5 0 1 1-1-.024l.102-4.299a.5.5 0 0 1 .512-.488Zm7.413 2.326a.5.5 0 0 1 .488.512l-.109 4.592a.5.5 0 0 1-1-.023l.11-4.593a.5.5 0 0 1 .511-.488Zm-20.33 2.536a.5.5 0 0 1 .487.512l-.091 3.871a.5.5 0 0 1-1-.024l.091-3.871a.5.5 0 0 1 .512-.488Zm29.322.694a.5.5 0 0 1 .488.512l-.112 4.731a.5.5 0 1 1-1-.024l.112-4.731a.5.5 0 0 1 .512-.488Zm-22.962 1.035a.499.499 0 0 1 .487.511l-.108 4.588a.5.5 0 0 1-1-.023l.109-4.588a.5.5 0 0 1 .511-.488Zm31.428 1.891a.5.5 0 0 1 .488.512l-.122 5.161a.5.5 0 0 1-1-.023l.122-5.162a.5.5 0 0 1 .512-.488Zm-25.085.554a.5.5 0 0 1 .488.512l-.112 4.723a.5.5 0 0 1-1-.024l.112-4.723a.5.5 0 0 1 .512-.488Zm33.001 3.076a.501.501 0 0 1 .488.512l-.098 4.149a.501.501 0 0 1-1-.024l.098-4.149a.501.501 0 0 1 .512-.488Zm-25.608.104a.5.5 0 0 1 .488.511l-.105 4.453a.5.5 0 0 1-1-.024l.105-4.452a.5.5 0 0 1 .512-.488Zm35.147 2.552a.501.501 0 0 1 .488.512l-.112 4.73a.501.501 0 0 1-1-.024l.112-4.73a.501.501 0 0 1 .512-.488Zm-26.165 1.102a.5.5 0 0 1 .488.512l-.105 4.453a.5.5 0 0 1-1-.023l.105-4.454a.5.5 0 0 1 .512-.488Zm34.364 1.826a.501.501 0 0 1 .488.512l-.129 5.437a.5.5 0 1 1-.999-.024l.128-5.437a.501.501 0 0 1 .512-.488Zm-25.905 1.386a.499.499 0 0 1 .488.511l-.109 4.598a.499.499 0 1 1-.999-.023l.108-4.598a.5.5 0 0 1 .512-.488Zm7.936 2.78a.499.499 0 0 1 .488.511l-.112 4.719a.499.499 0 1 1-.999-.024l.111-4.718a.5.5 0 0 1 .512-.488Zm9.508 3.955a.499.499 0 0 1 .488.511l-.115 4.861a.5.5 0 1 1-.999-.024l.115-4.86a.499.499 0 0 1 .511-.488Zm8.2 2.906a.5.5 0 0 1 .488.512l-.112 4.729a.5.5 0 0 1-1-.023l.112-4.73a.5.5 0 0 1 .512-.488ZM74.25 110.761a.5.5 0 0 1 .489.512l-.106 4.445a.5.5 0 0 1-1-.024l.106-4.445a.5.5 0 0 1 .511-.488Zm6.347 2.301a.5.5 0 0 1 .488.512l-.108 4.589a.5.5 0 1 1-1-.024l.109-4.589a.5.5 0 0 1 .511-.488Zm6.344 2.447a.499.499 0 0 1 .488.511l-.099 4.155a.5.5 0 0 1-1-.024l.1-4.154a.5.5 0 0 1 .51-.488Zm7.41 2.47a.5.5 0 0 1 .488.512l-.095 4.01a.5.5 0 0 1-1-.023l.095-4.011a.5.5 0 0 1 .511-.488Zm8.999 2.939a.501.501 0 0 1 .488.512l-.119 5.018a.501.501 0 0 1-1-.024l.119-5.018a.5.5 0 0 1 .512-.488Zm-29.33-.407a.5.5 0 0 1 .488.512l-.095 4.009a.5.5 0 0 1-1-.024l.095-4.009a.5.5 0 0 1 .512-.488Zm6.354 2.011a.499.499 0 0 1 .488.511l-.112 4.73a.5.5 0 0 1-1-.024l.112-4.729a.5.5 0 0 1 .512-.488Zm31.435 1.609a.5.5 0 0 1 .488.512l-.122 5.161a.5.5 0 0 1-1-.024l.122-5.161a.5.5 0 0 1 .512-.488Zm-25.106 1.414a.5.5 0 0 1 .488.512l-.095 4.014a.5.5 0 0 1-1-.023l.096-4.015a.5.5 0 0 1 .511-.488Zm33.042 1.35a.5.5 0 0 1 .488.512l-.116 4.88a.499.499 0 1 1-.999-.023l.115-4.881a.5.5 0 0 1 .512-.488Zm-25.622.684a.5.5 0 0 1 .488.512l-.118 5.024a.499.499 0 1 1-1-.023l.119-5.025a.5.5 0 0 1 .511-.488Zm35.157 2.13a.499.499 0 0 1 .488.511l-.115 4.875a.5.5 0 0 1-1-.023l.116-4.875a.499.499 0 0 1 .511-.488Zm-55.467-.452a.499.499 0 0 1 .488.511l-.095 4.015a.5.5 0 1 1-1-.024l.095-4.014a.5.5 0 0 1 .512-.488Zm29.303 1.547a.5.5 0 0 1 .488.511l-.122 5.16a.501.501 0 0 1-1-.024l.122-5.159a.5.5 0 0 1 .512-.488Zm-22.956.747a.5.5 0 0 1 .488.512l-.112 4.729a.5.5 0 0 1-1-.023l.112-4.73a.5.5 0 0 1 .512-.488Zm31.411 2.616a.5.5 0 0 1 .488.512l-.129 5.438a.5.5 0 1 1-.999-.024l.128-5.438a.501.501 0 0 1 .512-.488Zm-25.075.115a.5.5 0 0 1 .489.512l-.112 4.73a.5.5 0 0 1-1-.024l.112-4.73a.5.5 0 0 1 .511-.488Zm33.005 2.932a.501.501 0 0 1 .488.512l-.112 4.73a.501.501 0 0 1-1-.024l.112-4.73a.501.501 0 0 1 .512-.488Zm-25.645.254a.5.5 0 0 1 .488.512l-.102 4.299a.5.5 0 0 1-1-.023l.102-4.3a.5.5 0 0 1 .512-.488Zm35.155 3.639a.501.501 0 0 1 .488.512l-.107 4.504a.501.501 0 0 1-1-.024l.107-4.504a.5.5 0 0 1 .512-.488Zm-17.677 3.096a.501.501 0 0 1 .488.512l-.119 5.018a.5.5 0 0 1-1-.023l.119-5.019a.5.5 0 0 1 .512-.488Zm7.922 3.331a.498.498 0 0 1 .488.511l-.111 4.73a.5.5 0 0 1-1-.024l.112-4.729a.499.499 0 0 1 .511-.488Zm9.515 3.681a.5.5 0 0 1 .488.512l-.121 5.145a.501.501 0 0 1-1-.024l.122-5.145a.5.5 0 0 1 .511-.488ZM138.785 130.918a.501.501 0 0 1 .488.512l-.794 33.538a.501.501 0 0 1-1-.024l.794-33.538a.5.5 0 0 1 .512-.488ZM68.778 107.75a.5.5 0 0 1 .488.512l-.55 23.218a.5.5 0 0 1-1-.023l.55-23.219a.5.5 0 0 1 .512-.488Z" fill="#000"/><path fill-rule="evenodd" clip-rule="evenodd" d="M140.314 161.259a.478.478 0 0 1-.596.356c-6.926-1.896-20.598-7.833-37.183-15.1a.52.52 0 0 1-.276-.664.479.479 0 0 1 .643-.262c16.627 7.286 30.209 13.18 37.045 15.051.266.073.43.35.367.619Zm4.105-29.997a.478.478 0 0 1-.611.329c-17.506-5.576-69.294-23.802-73.012-25.405a.522.522 0 0 1-.28-.663.48.48 0 0 1 .641-.266c3.667 1.581 55.412 19.794 72.92 25.371a.523.523 0 0 1 .342.634Zm-3.488 3.388a.48.48 0 0 1-.63.291c-7.523-2.9-25.799-9.299-42.668-15.176l-7.5-2.611c-13.71-4.772-25.101-8.738-26.687-9.421a.522.522 0 0 1-.28-.663.478.478 0 0 1 .641-.266c1.55.668 12.899 4.619 26.629 9.398 2.436.848 4.947 1.722 7.49 2.609 16.861 5.873 35.157 12.279 42.7 15.187a.522.522 0 0 1 .305.652Zm-43.016 9.776a.48.48 0 0 1-.628.296c-8.389-3.168-13.928-5.531-19.378-7.857-3.534-1.507-7.03-2.999-11.242-4.684a.521.521 0 0 1-.297-.655.479.479 0 0 1 .634-.283c4.26 1.704 7.766 3.2 11.3 4.708 5.426 2.315 10.918 4.659 19.302 7.825a.523.523 0 0 1 .31.65Z" fill="#000"/><path fill-rule="evenodd" clip-rule="evenodd" d="M143.957 129.189a.5.5 0 0 1 .488.511l-.774 32.678a.499.499 0 1 1-.999-.023l.773-32.678a.5.5 0 0 1 .512-.488Z" fill="#000"/><path fill-rule="evenodd" clip-rule="evenodd" d="M145.977 130.502a.5.5 0 0 1-.237.667l-1.483.708c-2.133 1.021-3.626 1.736-5.41 2.45a.5.5 0 0 1-.372-.929c1.751-.7 3.211-1.399 5.341-2.418.463-.222.958-.459 1.495-.714a.5.5 0 0 1 .666.236ZM144.571 157.846a.5.5 0 0 1-.197.679c-2.286 1.258-4.621 2.327-7.013 3.302a.5.5 0 0 1-.378-.926c2.367-.965 4.665-2.017 6.909-3.252a.5.5 0 0 1 .679.197ZM77.549 106.58a.5.5 0 0 1-.333.624c-1.386.423-2.782.811-4.172 1.197l-.054.015c-1.374.382-2.742.762-4.1 1.174a.5.5 0 0 1-.29-.957c1.37-.416 2.747-.798 4.118-1.179l.058-.016c1.392-.387 2.776-.772 4.148-1.19a.5.5 0 0 1 .624.332ZM102.391 140.251a.5.5 0 0 1 .491.509l-.093 5.291a.5.5 0 0 1-1-.018l.093-5.291a.5.5 0 0 1 .509-.491ZM97.317 137.979a.5.5 0 0 0-.512.488l-.135 5.721a.499.499 0 1 0 1 .023l.135-5.72a.5.5 0 0 0-.488-.512Z" fill="#000"/><path fill-rule="evenodd" clip-rule="evenodd" d="M100.362 143.453a.5.5 0 0 1-.3.64l-4.65 1.686a.5.5 0 0 1-.341-.94l4.65-1.686a.5.5 0 0 1 .641.3Z" fill="#9293AB"/><path fill-rule="evenodd" clip-rule="evenodd" d="M138.602 139.185a.478.478 0 0 1-.623.305c-10.24-3.685-22.824-8.285-35.404-12.885l-.282-.103c-12.487-4.565-24.955-9.124-35.11-12.78a.521.521 0 0 1-.32-.644.478.478 0 0 1 .624-.305c10.157 3.656 22.627 8.215 35.113 12.781l.283.103c12.582 4.6 25.163 9.2 35.399 12.883a.522.522 0 0 1 .32.645ZM138.896 144.795a.48.48 0 0 1-.63.292c-7.299-2.804-23.112-8.677-37.882-14.162-15.67-5.82-30.165-11.203-32.072-12.023a.521.521 0 0 1-.28-.662.478.478 0 0 1 .64-.266c1.893.813 16.296 6.162 31.907 11.959 14.79 5.493 30.665 11.388 38.011 14.21.259.1.395.391.306.652ZM139.721 150.619a.478.478 0 0 1-.626.298c-15.14-5.646-67.754-26.09-71.476-27.647a.523.523 0 0 1-.288-.66.478.478 0 0 1 .638-.272c3.703 1.548 56.301 21.987 71.438 27.632.26.097.4.387.314.649ZM139.501 155.566a.475.475 0 0 1-.628.291c-15.083-5.836-67.485-26.761-71.193-28.365a.525.525 0 0 1-.282-.664.477.477 0 0 1 .64-.265c3.688 1.595 56.072 22.514 71.157 28.35.258.1.395.392.306.653Z" fill="#000"/><path fill-rule="evenodd" clip-rule="evenodd" d="M137.866 161.071a.5.5 0 0 1 .209-.675l5.084-2.679a.501.501 0 0 1 .466.885l-5.084 2.679a.5.5 0 0 1-.675-.21Zm-.077-2.59a.5.5 0 0 1 .209-.675l5.269-2.776a.5.5 0 1 1 .466.885l-5.269 2.776a.499.499 0 0 1-.675-.21Zm0-3.006a.5.5 0 0 1 .209-.675l5.161-2.719a.5.5 0 1 1 .466.885l-5.161 2.719a.5.5 0 0 1-.675-.21ZM137.969 151.845a.5.5 0 0 1 .209-.676l4.993-2.63a.5.5 0 1 1 .466.885l-4.993 2.63a.5.5 0 0 1-.675-.209Zm0-2.631a.5.5 0 0 1 .209-.675l5.268-2.775a.5.5 0 1 1 .466.885l-5.268 2.775a.5.5 0 0 1-.675-.21Zm.133-3.076a.501.501 0 0 1 .21-.676l5.134-2.704a.5.5 0 1 1 .466.884l-5.134 2.705a.5.5 0 0 1-.676-.209ZM138.219 142.997a.5.5 0 0 1 .209-.675l5.162-2.719a.5.5 0 1 1 .466.884l-5.161 2.719a.5.5 0 0 1-.676-.209Zm.187-2.729a.5.5 0 0 1 .209-.675l4.975-2.621a.5.5 0 0 1 .466.885l-4.975 2.621a.5.5 0 0 1-.675-.21Zm0-3.006a.5.5 0 0 1 .209-.675l4.975-2.621a.5.5 0 1 1 .466.885l-4.975 2.62a.5.5 0 0 1-.675-.209ZM133.057 131.848a.5.5 0 0 1 .21-.675l4.716-2.485a.5.5 0 1 1 .466.885l-4.716 2.484a.5.5 0 0 1-.676-.209Zm3.075 1.386a.5.5 0 0 1 .21-.675l5.527-2.912a.5.5 0 1 1 .466.885l-5.527 2.912a.5.5 0 0 1-.676-.21ZM123.596 128.117a.5.5 0 0 1 .209-.675l4.165-2.194a.5.5 0 1 1 .466.885l-4.165 2.194a.5.5 0 0 1-.675-.21Zm3.01 1.42a.5.5 0 0 1 .21-.675l4.411-2.324a.5.5 0 1 1 .466.885l-4.411 2.324a.5.5 0 0 1-.676-.21Zm2.873 1.117a.5.5 0 0 1 .209-.675l4.816-2.537a.5.5 0 1 1 .466.885l-4.815 2.537a.5.5 0 0 1-.676-.21ZM113.703 124.642a.5.5 0 0 1 .21-.676l4.098-2.159a.5.5 0 0 1 .466.885l-4.098 2.159a.5.5 0 0 1-.676-.209Zm3.441 1.193a.499.499 0 0 1 .21-.675l3.914-2.063a.501.501 0 0 1 .466.885l-3.914 2.063a.5.5 0 0 1-.676-.21Zm2.581 1.271a.5.5 0 0 1 .209-.675l4.301-2.266a.5.5 0 1 1 .466.885l-4.301 2.265a.5.5 0 0 1-.675-.209ZM103.707 121.192a.5.5 0 0 1 .209-.675l4.082-2.15a.5.5 0 1 1 .466.884l-4.082 2.151a.5.5 0 0 1-.675-.21Zm3.115 1.365a.5.5 0 0 1 .209-.675l4.301-2.266a.5.5 0 1 1 .466.885l-4.3 2.266a.5.5 0 0 1-.676-.21Zm2.581 1.271a.5.5 0 0 1 .209-.675l5.003-2.636a.5.5 0 1 1 .466.885l-5.003 2.635a.5.5 0 0 1-.675-.209ZM93.059 117.629a.5.5 0 0 1 .21-.675l4.3-2.266a.5.5 0 1 1 .466.884l-4.3 2.266a.5.5 0 0 1-.676-.209Zm3.44 1.193a.5.5 0 0 1 .21-.675l3.871-2.039a.5.5 0 1 1 .466.885l-3.87 2.039a.5.5 0 0 1-.676-.21Zm3.011 1.045a.5.5 0 0 1 .21-.676l4.248-2.237a.5.5 0 1 1 .466.884l-4.248 2.238a.5.5 0 0 1-.676-.209ZM83.274 114.311a.5.5 0 0 1 .21-.676l4.193-2.209a.5.5 0 1 1 .466.885l-4.194 2.209a.5.5 0 0 1-.675-.209Zm2.903 1.476a.5.5 0 0 1 .21-.675l4.435-2.337a.5.5 0 1 1 .466.885l-4.435 2.336a.5.5 0 0 1-.675-.209Zm3.714.674a.5.5 0 0 1 .21-.675l3.597-1.896a.5.5 0 1 1 .467.885l-3.599 1.895a.5.5 0 0 1-.675-.209ZM73.275 110.862a.5.5 0 0 1 .21-.675l4.3-2.266a.5.5 0 1 1 .466.885l-4.3 2.266a.5.5 0 0 1-.676-.21Zm3.01 1.42a.5.5 0 0 1 .21-.675l4.73-2.492a.5.5 0 1 1 .467.884l-4.731 2.493a.5.5 0 0 1-.676-.21Zm3.441.818a.5.5 0 0 1 .21-.675l4.247-2.238a.5.5 0 1 1 .466.885l-4.248 2.238a.5.5 0 0 1-.675-.21ZM69.404 109.822a.5.5 0 0 1 .21-.675l5.16-2.719a.5.5 0 1 1 .466.885l-5.16 2.719a.5.5 0 0 1-.676-.21Z" fill="#000"/><path d="m12.232 55.41-.078-.052a1.782 1.782 0 0 0-.208-.052 1.09 1.09 0 0 0-.26-.026.87.87 0 0 1-.598-.468 1.017 1.017 0 0 1-.078-.754c.069-.07.12-.217.156-.442.034-.225.052-.407.052-.546a2.73 2.73 0 0 0 .13-.286l.13-.52c.052-.295.138-.702.26-1.222l.442-1.716c.173-.607.338-1.187.494-1.742.156-.555.294-1.023.416-1.404.138-.381.234-.598.286-.65v-.286l.026-.234c.034-.173.12-.364.26-.572.069-.19.13-.399.182-.624.052-.225.078-.373.078-.442.069-.087.164-.295.286-.624.138-.347.268-.685.39-1.014.104-.277.216-.572.338-.884.138-.312.25-.58.338-.806l.156-.338v-.13c.069-.07.234-.416.494-1.04.277-.641.65-1.465 1.118-2.47.069-.139.156-.295.26-.468.104-.173.156-.295.156-.364a.355.355 0 0 1 .364-.182c.156 0 .312.052.468.156a.97.97 0 0 1 .39.442l.26.416-.936 1.872c-.278.485-.512.927-.702 1.326-.174.399-.26.633-.26.702l-.156.416c-.104.277-.226.607-.364.988-.14.381-.26.728-.364 1.04-.191.537-.373.98-.546 1.326-.156.347-.234.555-.234.624 0-.035.19-.06.572-.078.38-.017.866-.026 1.456-.026H19.2c.624-.017 1.17-.026 1.638-.026.485-.017.814-.043.988-.078l1.352-.13.884-2.678c.138-.485.32-1.075.546-1.768.225-.693.424-1.283.598-1.768.277-.797.494-1.291.65-1.482.156-.19.338-.286.546-.286.052 0 .12.017.208.052.104.017.199.06.286.13.104.052.173.13.208.234.208.19.303.407.286.65 0 .243-.14.563-.416.962-.278.468-.512.98-.702 1.534-.174.537-.33.98-.468 1.326 0 .208-.026.381-.078.52a.905.905 0 0 1-.182.286c-.035.035-.104.165-.208.39s-.2.45-.286.676c-.087.225-.13.364-.13.416 0 .121-.026.269-.078.442-.052.173-.113.295-.182.364a30.04 30.04 0 0 0-.234.78c-.122.416-.26.91-.416 1.482-.156.555-.321 1.1-.494 1.638a24.3 24.3 0 0 1-.468 1.3c0 .121-.044.277-.13.468-.087.173-.13.33-.13.468l-.26.78c-.104.312-.156.511-.156.598a40.76 40.76 0 0 1-.286 1.222c-.087.416-.165.771-.234 1.066a6.004 6.004 0 0 0-.078.546c-.07.07-.174.078-.312.026a53.738 53.738 0 0 0-.494-.182c-.33-.19-.53-.399-.598-.624-.052-.208.017-.511.208-.91.086-.139.19-.477.312-1.014.138-.555.277-1.1.416-1.638.104-.26.216-.607.338-1.04.12-.45.242-.901.364-1.352.12-.468.225-.858.312-1.17.086-.33.147-.511.182-.546v-.26c-.035-.035-.252-.06-.65-.078a13.1 13.1 0 0 0-1.482-.026c-.59 0-1.205.017-1.846.052-.624.017-1.188.06-1.69.13h-1.898l-.182.546c-.104.312-.226.693-.364 1.144-.14.433-.286.884-.442 1.352-.14.45-.26.867-.364 1.248-.087.364-.148.624-.182.78-.07.312-.165.702-.286 1.17-.104.468-.226.945-.364 1.43-.122.503-.234.936-.338 1.3-.087.364-.148.598-.182.702Zm14.052-3.094a.785.785 0 0 0-.26-.312c-.104-.087-.156-.165-.156-.234a.856.856 0 0 0-.026-.208.323.323 0 0 0-.104-.234c-.087-.104-.078-.338.026-.702.104-.381.277-.84.52-1.378.243-.555.529-1.135.858-1.742a2.99 2.99 0 0 0 .416-.546c.139-.225.243-.373.312-.442 0-.07.026-.13.078-.182.052-.07.113-.104.182-.104v-.156c0-.087.078-.234.234-.442.173-.208.381-.433.624-.676a9.89 9.89 0 0 1 .754-.728c.26-.243.477-.416.65-.52.364-.243.737-.39 1.118-.442.399-.052.737.035 1.014.26l.26.26.416.416c.173.139.347.286.52.442l.962.858-.468 1.3c-.225.693-.286 1.3-.182 1.82.121.52.295.97.52 1.352.087.19.26.373.52.546.277.173.537.277.78.312.139.017.269.07.39.156.121.087.182.225.182.416a.74.74 0 0 1-.104.416c-.07.104-.19.173-.364.208-.572.07-1.11-.07-1.612-.416-.485-.347-.936-.919-1.352-1.716a4.2 4.2 0 0 1-.286-.572 5.672 5.672 0 0 1-.182-.572c-.07.087-.2.251-.39.494-.19.225-.338.39-.442.494-1.23 1.248-2.297 2.089-3.198 2.522-.884.416-1.62.433-2.21.052Zm.936-1.456c0 .121.182.121.546 0 .381-.139.789-.381 1.222-.728a25.995 25.995 0 0 0 1.768-1.664c.607-.607 1.092-1.17 1.456-1.69l.572-.936c-.173-.399-.364-.667-.572-.806-.19-.156-.355-.234-.494-.234-.225 0-.563.208-1.014.624-.433.416-.901.97-1.404 1.664-.503.693-.98 1.456-1.43 2.288-.173.347-.33.685-.468 1.014l-.182.468Zm10.726 1.482a1.298 1.298 0 0 1-.338-.364c-.052-.121-.052-.355 0-.702.052-.485.12-.91.208-1.274.086-.381.19-.815.312-1.3.034-.208.13-.563.286-1.066.173-.503.38-1.049.624-1.638.242-.59.485-1.144.728-1.664.242-.537.45-.936.624-1.196a.69.69 0 0 1 .494-.13.805.805 0 0 1 .52.234c.19.156.216.433.078.832-.122.381-.382.988-.78 1.82-.208.468-.364.823-.468 1.066-.104.225-.148.364-.13.416.017.035.095.009.234-.078.104-.19.294-.407.572-.65.277-.26.572-.511.884-.754.312-.243.606-.46.884-.65.277-.19.468-.312.572-.364.138-.087.294-.156.468-.208a4.4 4.4 0 0 0 .39-.156 2.16 2.16 0 0 1 1.222-.208c.416.052.676.208.78.468.017.139.069.243.156.312l.156.104c.069 0 .104.026.104.078l.026.078c0 .121-.096.2-.286.234-.174.017-.4.035-.676.052-.226.017-.425.06-.598.13-.174.07-.382.156-.624.26-.66.381-1.292.754-1.898 1.118-.59.364-1.162.85-1.716 1.456a4.046 4.046 0 0 0-.364.494c-.122.19-.252.399-.39.624-.087.087-.174.277-.26.572-.087.295-.165.58-.234.858-.052.26-.078.416-.078.468l-.078.26a1.585 1.585 0 0 1-.26.468c-.208.277-.382.416-.52.416-.14 0-.347-.139-.624-.416Zm16.935.598c-.174 0-.356-.095-.546-.286a3.096 3.096 0 0 1-.468-.702 2.192 2.192 0 0 1-.182-.832c0-.26.06-.745.182-1.456.138-.71.303-1.43.494-2.158.138-.45.182-.71.13-.78-.052-.07-.286.026-.702.286-.243.121-.46.251-.65.39-.191.121-.356.26-.494.416a9.77 9.77 0 0 0-.39.338 6.748 6.748 0 0 1-.546.442c-.226.173-.512.416-.858.728l-1.04.936c-.33.312-.581.555-.754.728a.572.572 0 0 1-.39.286.913.913 0 0 1-.286-.052 1.241 1.241 0 0 1-.546-.338.868.868 0 0 1-.234-.598c0-.173.069-.468.208-.884.138-.433.32-.953.546-1.56.242-.607.52-1.248.832-1.924.052-.087.095-.19.13-.312.034-.139.06-.286.078-.442a2.04 2.04 0 0 0 .052-.442c0-.087.008-.173.026-.26.034-.104.069-.2.104-.286a.872.872 0 0 1 .13-.208c.069-.139.19-.173.364-.104.173.052.32.173.442.364.26.243.39.546.39.91.017.364-.07.815-.26 1.352a3.56 3.56 0 0 0-.182.364c-.035.104-.07.2-.104.286-.035.07-.061.13-.078.182l-.026.052c.069 0 .225-.078.468-.234.242-.156.528-.33.858-.52.26-.19.485-.364.676-.52.208-.173.381-.303.52-.39.138-.104.225-.156.26-.156.069 0 .156-.026.26-.078a.99.99 0 0 0 .26-.182c.069-.07.121-.104.156-.104l.078-.026h.104a.46.46 0 0 0 .208-.13c.138-.104.32-.13.546-.078.225.035.433.121.624.26.19.139.286.295.286.468 0 .07.017.13.052.182l.078.052c.138 0 .225.217.26.65.052.433.008.85-.13 1.248 0 .26-.052.572-.156.936-.087.364-.165.71-.234 1.04a7.832 7.832 0 0 0-.286 1.144 2.76 2.76 0 0 0-.026.832c.034.225.095.407.182.546.069.121.069.26 0 .416-.07.139-.208.208-.416.208Zm6.14.39c-.762 0-1.386-.286-1.871-.858-.486-.59-.72-1.317-.702-2.184a8.91 8.91 0 0 1 .364-2.002c.225-.728.52-1.421.884-2.08a9.837 9.837 0 0 1 1.196-1.768c.433-.503.884-.858 1.352-1.066.173-.087.355-.156.546-.208.208-.052.416-.078.624-.078.19 0 .39.035.598.104.208.052.381.113.52.182.294.121.52.269.676.442.156.173.294.442.416.806.052.33.078.563.078.702s-.044.347-.13.624a5.846 5.846 0 0 1-.806 1.612c-.33.45-.772.832-1.326 1.144a1.846 1.846 0 0 1-.494.208 2.912 2.912 0 0 1-1.56-.13 1.842 1.842 0 0 1-.754-.598l-.182-.208-.078.208c-.174.468-.312.901-.416 1.3-.087.399-.13.763-.13 1.092 0 .208.017.407.052.598.052.19.121.355.208.494.07.104.182.182.338.234.173.035.355.052.546.052h.364c.138-.017.268-.052.39-.104.294-.104.528-.217.702-.338.19-.121.381-.251.572-.39l.104-.052h-.026a5.1 5.1 0 0 0 .546-.312l.26-.156c.07 0 .138-.043.208-.13.138-.07.312-.043.52.078.225.121.338.277.338.468-.018.087-.096.225-.234.416a4.176 4.176 0 0 1-.468.494c-.156.156-.286.243-.39.26a1.02 1.02 0 0 1-.182.104.562.562 0 0 0-.208.104h.026c-.156.208-.312.312-.468.312h-.208c-.07.121-.295.26-.676.416a3.262 3.262 0 0 1-1.118.208Zm1.17-5.72c.313 0 .581-.087.807-.26.242-.19.45-.399.624-.624.346-.468.546-.919.598-1.352.07-.45.017-.763-.156-.936a.647.647 0 0 0-.286-.078c-.07-.017-.217.009-.442.078-.156.035-.373.165-.65.39-.278.225-.555.477-.832.754-.26.277-.46.511-.598.702l-.338.546c.138-.052.268-.078.39-.078.138-.017.216-.009.234.026 0 .156.026.303.078.442.07.121.147.217.234.286.104.07.216.104.338.104Zm7.182 5.278c-.867 0-1.5-.312-1.898-.936a.902.902 0 0 1-.182-.52c.017-.19.07-.32.156-.39.104-.07.225-.009.364.182.242.139.59.208 1.04.208.225 0 .46-.017.702-.052.242-.052.485-.121.728-.208.26-.121.433-.225.52-.312.087-.104.07-.19-.052-.26h.026a6.129 6.129 0 0 1-1.378-.572 7.12 7.12 0 0 1-1.17-.884c-.33-.33-.52-.624-.572-.884a2.667 2.667 0 0 1 .104-1.638 4.676 4.676 0 0 1 .884-1.508c.139-.087.312-.19.52-.312.208-.139.372-.217.494-.234v.026a3.7 3.7 0 0 1 1.196-.832c.485-.208.996-.399 1.534-.572l.39-.052c.208-.035.381-.052.52-.052-.018 0 .017.017.104.052.087.017.164.035.234.052.104.052.19.078.26.078.225.035.433.139.624.312.19.173.338.381.442.624.121.225.165.442.13.65-.035.33-.139.624-.312.884-.156.26-.347.407-.572.442.034-.017.008-.043-.078-.078a2.761 2.761 0 0 0-.234-.156l-.078.052-.026-.052a.42.42 0 0 0-.052-.182.745.745 0 0 1-.078-.338c0-.139.008-.286.026-.442.035-.19.035-.303 0-.338-.017-.035-.13-.06-.338-.078-.243-.052-.598-.009-1.066.13-.45.139-.832.33-1.144.572a8.17 8.17 0 0 0-.962.702 3.53 3.53 0 0 0-.624.624c-.156.19-.295.416-.416.676a4.25 4.25 0 0 0-.234.364.647.647 0 0 0-.078.286c0 .19.139.39.416.598.294.19.728.416 1.3.676.45.19.832.399 1.144.624.312.225.529.485.65.78a.42.42 0 0 1 .026.26c0 .087-.017.147-.052.182.034.035.052.06.052.078v-.026c.138.208.138.425 0 .65-.121.225-.338.425-.65.598a4.03 4.03 0 0 1-1.092.364h.026c-.226.07-.45.121-.676.156a7.225 7.225 0 0 1-.598.026Zm8.055.468a4.26 4.26 0 0 1-.936-.546c-.294-.243-.485-.442-.572-.598 0-.156.026-.26.078-.312.052-.07.2-.095.442-.078.26 0 .676.035 1.248.104.208 0 .468-.017.78-.052.312-.035.598-.087.858-.156.278-.07.434-.156.468-.26.087 0 .104-.026.052-.078a1.947 1.947 0 0 0-.182-.208.466.466 0 0 1-.234-.078c-.087-.07-.165-.104-.234-.104 0-.087-.087-.182-.26-.286a2.03 2.03 0 0 0-.494-.286c-.381-.312-.71-.59-.988-.832-.277-.26-.381-.433-.312-.52v-.13c-.121 0-.26-.173-.416-.52-.138-.347-.208-.659-.208-.936 0-.208.06-.468.182-.78.121-.33.286-.667.494-1.014.208-.347.425-.633.65-.858.312-.295.702-.607 1.17-.936.468-.347.928-.65 1.378-.91.468-.277.858-.46 1.17-.546.312-.121.598-.182.858-.182.278 0 .52.06.728.182.174.087.33.217.468.39.156.156.286.32.39.494.121.156.2.295.234.416 0 .208-.017.442-.052.702-.035.243-.087.46-.156.65-.052.19-.138.286-.26.286l-.078.026c-.035 0-.052.043-.052.13 0 .173-.13.373-.39.598-.33.225-.615.364-.858.416-.243.035-.39-.06-.442-.286a.676.676 0 0 1-.104-.182c-.017-.052-.06-.078-.13-.078l-.078-.078c-.052-.052-.078-.139-.078-.26 0-.07.026-.13.078-.182l.078-.104c.087 0 .2-.095.338-.286.139-.208.26-.425.364-.65.121-.243.182-.407.182-.494 0-.104-.017-.165-.052-.182-.017-.017-.095-.026-.234-.026-.243.104-.537.243-.884.416s-.676.347-.988.52c-.294.156-.511.303-.65.442-.07.121-.112.2-.13.234-.017.017-.06.026-.13.026 0-.07-.06-.035-.182.104-.104.121-.243.295-.416.52l-.468.676-.312.468c-.035.035-.078.139-.13.312a2.039 2.039 0 0 0-.052.442c-.07.208-.06.355.026.442.087.07.278.225.572.468.607.45 1.084.823 1.43 1.118.347.295.607.537.78.728.174.19.278.364.312.52.312.52.407.919.286 1.196-.121.277-.416.52-.884.728-.173.087-.46.156-.858.208a9.44 9.44 0 0 1-1.222.078 5.682 5.682 0 0 1-.988-.026ZM11.712 81.5c-.208 0-.382-.113-.52-.338a.812.812 0 0 1-.208-.442c-.018-.173.043-.494.182-.962.138-.485.372-1.222.702-2.21.173-.659.312-1.135.416-1.43.104-.312.156-.537.156-.676 0-.19.017-.347.052-.468.052-.139.078-.269.078-.39.104 0 .208-.095.312-.286.104-.19.19-.45.26-.78.069-.295.13-.529.182-.702.069-.19.104-.32.104-.39.086-.139.173-.355.26-.65.104-.295.26-.65.468-1.066.138-.52.294-1.057.468-1.612.173-.572.346-1.1.52-1.586.19-.503.346-.893.468-1.17.19-.537.338-.91.442-1.118.104-.225.104-.373 0-.442-.122-.087-.148-.234-.078-.442.069-.208.26-.442.572-.702.19-.225.355-.381.494-.468a.842.842 0 0 1 .52-.156c.225 0 .546.017.962.052.312.017.64.026.988.026h.676c.156.07.346.147.572.234.225.07.424.139.598.208.19.07.286.13.286.182 0 .104.034.173.104.208l.26.052c.12 0 .286.095.494.286.208.173.424.399.65.676.225.26.398.537.52.832.138.295.242.572.312.832.086.26.086.633 0 1.118-.018.26-.061.52-.13.78-.052.26-.113.433-.182.52-.104.07-.2.156-.286.26-.087.104-.13.2-.13.286 0 .07-.061.208-.182.416a12.859 12.859 0 0 1-1.092 1.456c-.226.26-.442.485-.65.676a4.941 4.941 0 0 1-.806.78 8.684 8.684 0 0 1-.806.598c-.451.208-.954.416-1.508.624-.538.208-1.058.381-1.56.52-.486.139-.893.2-1.222.182-.503.07-.832.139-.988.208-.14.052-.243.2-.312.442-.087.225-.174.46-.26.702-.07.225-.104.381-.104.468-.035.07-.122.286-.26.65-.122.347-.26.754-.416 1.222-.14.468-.278.927-.416 1.378-.14.45-.243.823-.312 1.118-.07.243-.156.381-.26.416a.868.868 0 0 1-.39.078Zm3.224-8.06c.069.07.338.078.806.026a6.06 6.06 0 0 0 1.508-.39 8.926 8.926 0 0 0 1.04-.442c.364-.173.71-.364 1.04-.572.173-.121.433-.338.78-.65a9.413 9.413 0 0 0 1.04-1.118c.052-.087.138-.251.26-.494.138-.26.26-.503.364-.728.156-.243.312-.598.468-1.066.156-.485.19-.884.104-1.196-.087-.45-.312-.867-.676-1.248a2.707 2.707 0 0 0-1.3-.806 5.534 5.534 0 0 0-.962-.104 4.67 4.67 0 0 0-.806.078c-.278.087-.486.208-.624.364-.122.156-.286.485-.494.988-.122.243-.295.615-.52 1.118-.226.485-.416.945-.572 1.378-.312 1.144-.624 2.089-.936 2.834a57.51 57.51 0 0 0-.546 1.378c.017.19.008.33-.026.416-.035.07-.018.147.052.234Zm9.61 6.812c-.33.087-.598.017-.806-.208-.19-.225-.303-.572-.338-1.04-.035-.468.017-1.023.156-1.664.087-.208.156-.407.208-.598.052-.208.078-.373.078-.494a7.84 7.84 0 0 1 .208-.754 37.01 37.01 0 0 1 .676-2.028c.121-.295.2-.477.234-.546.07 0 .13-.06.182-.182a.918.918 0 0 0 .078-.364c0-.139.026-.295.078-.468.07-.173.139-.295.208-.364a.91.91 0 0 1 .052-.286.79.79 0 0 0 .078-.286.46.46 0 0 1 .052-.208.346.346 0 0 0 .078-.208c.121-.225.277-.58.468-1.066.208-.503.425-1.057.65-1.664a46.519 46.519 0 0 0 1.17-3.276c.139-.416.208-.667.208-.754 0-.139.035-.243.104-.312.07-.07.173-.104.312-.104a.386.386 0 0 1 .182-.104 1.2 1.2 0 0 1 .234-.026l.104.104.312.312a.64.64 0 0 1 .234.416c.035.156.052.338.052.546 0 .225-.026.425-.078.598a5.928 5.928 0 0 1-.312.754l-.728 1.534c-.139.347-.286.676-.442.988-.156.295-.234.477-.234.546 0 .07-.035.173-.104.312-.052.139-.113.312-.182.52-.07.139-.165.347-.286.624-.121.26-.251.546-.39.858-.121.295-.225.555-.312.78-.087.208-.13.33-.13.364 0 .07-.009.139-.026.208 0 .07-.035.139-.104.208-.07 0-.113.052-.13.156v.13c0 .173-.139.633-.416 1.378-.277.953-.537 1.829-.78 2.626-.225.797-.338 1.439-.338 1.924 0 .416-.009.693-.026.832-.017.121-.095.217-.234.286Zm3.795-.936a.784.784 0 0 0-.26-.312c-.104-.087-.156-.165-.156-.234a.856.856 0 0 0-.026-.208.323.323 0 0 0-.104-.234c-.087-.104-.078-.338.026-.702.104-.381.277-.84.52-1.378a22.94 22.94 0 0 1 .858-1.742c.138-.139.277-.32.416-.546.138-.225.242-.373.312-.442 0-.07.026-.13.078-.182.052-.07.112-.104.182-.104v-.156c0-.087.078-.234.234-.442.173-.208.38-.433.624-.676.242-.26.494-.503.754-.728.26-.243.476-.416.65-.52.364-.243.736-.39 1.118-.442.398-.052.736.035 1.014.26l.26.26.416.416c.173.139.346.286.52.442l.962.858-.468 1.3c-.226.693-.286 1.3-.182 1.82.12.52.294.97.52 1.352.086.19.26.373.52.546.277.173.537.277.78.312.138.017.268.07.39.156.12.087.182.225.182.416a.74.74 0 0 1-.104.416c-.07.104-.191.173-.364.208-.572.07-1.11-.07-1.612-.416-.486-.347-.936-.919-1.352-1.716a4.213 4.213 0 0 1-.286-.572 5.672 5.672 0 0 1-.182-.572c-.07.087-.2.251-.39.494-.191.225-.338.39-.442.494-1.231 1.248-2.297 2.089-3.198 2.522-.884.416-1.621.433-2.21.052Zm.936-1.456c0 .121.182.121.546 0 .38-.139.788-.381 1.222-.728a25.972 25.972 0 0 0 1.768-1.664c.606-.607 1.092-1.17 1.456-1.69l.572-.936c-.174-.399-.364-.667-.572-.806-.191-.156-.356-.234-.494-.234-.226 0-.564.208-1.014.624-.434.416-.902.97-1.404 1.664-.503.693-.98 1.456-1.43 2.288-.174.347-.33.685-.468 1.014l-.182.468Zm13.481 2.34a2.874 2.874 0 0 1-.598-.234 6.766 6.766 0 0 1-.624-.494 5.192 5.192 0 0 1-.494-.78 2.927 2.927 0 0 1-.208-.832c-.035-.33-.052-.745-.052-1.248 0-.208.035-.52.104-.936.087-.416.182-.85.286-1.3.122-.468.226-.884.312-1.248a8.64 8.64 0 0 0 .182-.702c.052-.225-.034-.355-.26-.39a3.524 3.524 0 0 0-.754-.026c-.26 0-.433-.026-.52-.078-.07-.017-.104-.043-.104-.078v-.078c0-.07-.008-.113-.026-.13 0-.035-.026-.095-.078-.182-.035-.07-.017-.165.052-.286a.585.585 0 0 1 .416-.26c.156-.035.364-.06.624-.078.278-.035.555-.095.832-.182.278-.104.503-.26.676-.468.156-.381.338-.806.546-1.274.208-.468.407-.884.598-1.248.208-.381.347-.615.416-.702.295-.156.511-.217.65-.182.139.017.295.165.468.442.087.121.148.217.182.286.052.07.06.173.026.312s-.13.355-.286.65c-.139.295-.355.72-.65 1.274l-.234.468-.104.182c.07.017.173.026.312.026s.312-.009.52-.026c.19-.035.433-.06.728-.078.295-.035.529-.035.702 0 .399 0 .694.078.884.234.19.139.295.381.312.728.035.19-.008.303-.13.338-.104.035-.39.052-.858.052-.156 0-.398.009-.728.026-.33.017-.676.035-1.04.052-.346.017-.65.043-.91.078-.242.017-.364.043-.364.078-.052.035-.139.2-.26.494-.104.295-.217.633-.338 1.014-.104.364-.2.693-.286.988-.121.59-.216 1.179-.286 1.768-.052.59-.06 1.1-.026 1.534.035.433.13.737.286.91.156.156.46.19.91.104.45-.104.815-.269 1.092-.494.312-.26.563-.39.754-.39.208 0 .32.095.338.286.035.173-.06.425-.286.754a3.54 3.54 0 0 1-.78.832c-.312.225-.641.39-.988.494-.33.087-.641.087-.936 0Zm6.84 2.652a1.232 1.232 0 0 1-.39-.208c-.139-.087-.208-.165-.208-.234.017-.121.043-.234.078-.338a1.48 1.48 0 0 0 .078-.26c.034-.173.052-.381.052-.624 0-.225.026-.659.078-1.3l.13-1.742c.052-.468.104-.884.156-1.248.052-.381.112-.763.182-1.144.086-.381.19-.832.312-1.352.086-.59.086-.953 0-1.092-.07-.139-.2-.217-.39-.234a5.817 5.817 0 0 1-.884-.156c-.243-.087-.399-.234-.468-.442-.174-.173-.217-.312-.13-.416.086-.104.26-.182.52-.234.277-.07.572-.095.884-.078.294-.017.52-.035.676-.052a.666.666 0 0 0 .416-.26c.104-.156.208-.416.312-.78a8.61 8.61 0 0 1 .182-.65c.104-.277.19-.529.26-.754l.13-.338a.567.567 0 0 0 .234-.468c.017-.243.13-.563.338-.962.225-.416.58-.997 1.066-1.742.589-.763 1.118-1.36 1.586-1.794a3.275 3.275 0 0 1 1.69-.806c.069-.035.225-.052.468-.052h.494c.364.017.615.087.754.208.138.121.286.33.442.624.138.225.156.537.052.936-.087.381-.2.676-.338.884a2.766 2.766 0 0 1-.39.468c-.156.173-.312.33-.468.468-.139.121-.243.182-.312.182a.502.502 0 0 1-.26-.078.459.459 0 0 0-.208-.13c-.156-.07-.182-.19-.078-.364.104-.19.216-.373.338-.546.173-.26.286-.468.338-.624a.914.914 0 0 0 .052-.416 3.114 3.114 0 0 0-.104-.442l.234.234a.668.668 0 0 0-.416-.078c-.156.017-.33.06-.52.13-.33.173-.598.364-.806.572-.208.19-.382.355-.52.494a4.288 4.288 0 0 0-1.014 1.326l-.728 1.456c-.07.139-.191.399-.364.78-.156.364-.304.71-.442 1.04-.122.312-.243.59-.364.832-.122.225-.182.364-.182.416-.052.121-.026.182.078.182.121 0 .355-.009.702-.026.849-.104 1.482-.13 1.898-.078.433.035.684.19.754.468.294.416.251.676-.13.78-.364.087-1.04.2-2.028.338l-.832.052c-.278 0-.46.009-.546.026-.07.017-.139.043-.208.078-.07.035-.148.208-.234.52-.018.19-.052.425-.104.702-.035.26-.061.511-.078.754-.07.208-.122.425-.156.65-.018.225-.07.425-.156.598a40.438 40.438 0 0 0-.208 2.652 27.157 27.157 0 0 1-.156 2.054c-.052.572-.191 1.014-.416 1.326a1.29 1.29 0 0 1-.39.312c-.122.087-.234.087-.338 0Zm8.814-3.588c-.364.07-.598.095-.702.078-.087-.035-.225-.139-.416-.312a2.391 2.391 0 0 1-.702-.52 2.317 2.317 0 0 1-.39-.65c-.07-.243-.095-.442-.078-.598.052-.607.2-1.257.442-1.95.243-.693.537-1.36.884-2.002a8.723 8.723 0 0 1 1.118-1.638c.416-.468.815-.771 1.196-.91.347-.139.676-.19.988-.156.312.035.537.2.676.494.26.503.2.823-.182.962-.052 0-.113.026-.182.078-.07.035-.104.087-.104.156.07.035.26.043.572.026a8.8 8.8 0 0 0 .936-.156c.33-.087.546-.173.65-.26a.599.599 0 0 1 .234-.078c.052 0 .182.017.39.052.295.087.442.19.442.312 0 .07.026.139.078.208a.25.25 0 0 0 .182.078c.121.017.104.095-.052.234-.139.139-.381.33-.728.572-.33.208-.537.347-.624.416-.07.052-.078.173-.026.364.139.33.147.71.026 1.144a4.463 4.463 0 0 1-.65 1.326 7.11 7.11 0 0 1-1.144 1.274c-.433.381-.901.71-1.404.988-.485.26-.962.416-1.43.468Zm-.442-1.144c.07 0 .19-.035.364-.104l.416-.208c.07-.07.156-.147.26-.234.121-.104.217-.165.286-.182.07 0 .156-.026.26-.078.104-.07.251-.2.442-.39.19-.208.442-.511.754-.91.347-.381.615-.728.806-1.04.19-.33.243-.633.156-.91-.017-.07-.07-.113-.156-.13a1.251 1.251 0 0 1-.286-.13c-.173 0-.338-.043-.494-.13a15.363 15.363 0 0 1-.494-.39l-.416-.52-.442.442c-.277.277-.572.693-.884 1.248a11.954 11.954 0 0 0-.754 1.664c-.208.555-.33.997-.364 1.326-.017.26.026.433.13.52a.752.752 0 0 0 .416.156Zm7.372 1.222a1.3 1.3 0 0 1-.338-.364c-.052-.121-.052-.355 0-.702.052-.485.121-.91.208-1.274.087-.381.19-.815.312-1.3.035-.208.13-.563.286-1.066.173-.503.381-1.049.624-1.638.243-.59.485-1.144.728-1.664.243-.537.45-.936.624-1.196a.69.69 0 0 1 .494-.13.805.805 0 0 1 .52.234c.19.156.217.433.078.832-.121.381-.381.988-.78 1.82-.208.468-.364.823-.468 1.066-.104.225-.147.364-.13.416.017.035.095.009.234-.078.104-.19.295-.407.572-.65.277-.26.572-.511.884-.754.312-.243.607-.46.884-.65s.468-.312.572-.364c.139-.087.295-.156.468-.208.19-.07.32-.121.39-.156a2.16 2.16 0 0 1 1.222-.208c.416.052.676.208.78.468.017.139.07.243.156.312l.156.104c.07 0 .104.026.104.078l.026.078c0 .121-.095.2-.286.234a19.18 19.18 0 0 1-.676.052c-.225.017-.425.06-.598.13s-.381.156-.624.26c-.659.381-1.291.754-1.898 1.118-.59.364-1.161.85-1.716 1.456a4.067 4.067 0 0 0-.364.494c-.121.19-.251.399-.39.624-.087.087-.173.277-.26.572-.087.295-.165.58-.234.858-.052.26-.078.416-.078.468l-.078.26a1.583 1.583 0 0 1-.26.468c-.208.277-.381.416-.52.416s-.347-.139-.624-.416Zm9.603-.052a1.716 1.716 0 0 1-.156-.26.855.855 0 0 1-.052-.26.429.429 0 0 0-.026-.13c0-.052-.034-.078-.104-.078-.052-.052-.017-.251.104-.598.139-.364.312-.78.52-1.248.226-.468.45-.919.676-1.352a27.7 27.7 0 0 1 .598-1.066.31.31 0 0 0 .156-.208c.035-.104.035-.156 0-.156l.13-.234c.104-.173.182-.286.234-.338a3.29 3.29 0 0 0 .312-.728c.07-.26.087-.477.052-.65-.07-.087-.147-.113-.234-.078l-.13.052c-.07.017-.173.052-.312.104a1.196 1.196 0 0 0-.338.156c-.398.277-.667.407-.806.39-.139-.035-.294-.26-.468-.676-.07-.19-.095-.33-.078-.416.017-.087.087-.182.208-.286.139-.121.269-.2.39-.234a1.41 1.41 0 0 0 .286-.156c.19-.121.347-.208.468-.26.139-.052.243-.087.312-.104.45-.139.832-.165 1.144-.078.312.087.546.312.702.676.243.295.364.633.364 1.014 0 .364-.121.789-.364 1.274l-.26.39c-.087.173-.104.26-.052.26.07 0 .147-.06.234-.182.052-.07.156-.173.312-.312s.26-.208.312-.208l.052-.026c.052-.017.078-.087.078-.208l.156-.156.104-.078c.07 0 .2-.078.39-.234.208-.173.45-.373.728-.598.19-.139.364-.208.52-.208.399-.121.72.009.962.39.26.381.39.875.39 1.482l-.546 1.404.936-1.144c.104-.139.208-.26.312-.364.121-.104.225-.19.312-.26.035-.121.087-.19.156-.208l.104-.026h.052c.035-.017.052-.052.052-.104.087-.07.182-.13.286-.182a.59.59 0 0 0 .208-.208c.295-.121.563-.139.806-.052.243.07.45.286.624.65.121.208.19.39.208.546.018.156.026.39.026.702a7.69 7.69 0 0 1-.104.624c-.017.139-.035.286-.052.442-.017.156-.043.373-.078.65-.07.139-.112.286-.13.442v.442c0 .225.009.381.026.468.017.07.087.104.208.104.243-.052.572-.173.988-.364.434-.208.754-.407.962-.598.26-.243.486-.364.676-.364.208-.017.338.078.39.286.035.07-.026.225-.182.468a4.694 4.694 0 0 1-.494.702c-.173.225-.303.338-.39.338-.052 0-.112.052-.182.156a.88.88 0 0 1-.234.208 6.488 6.488 0 0 1-.364.338.499.499 0 0 1-.364.156.613.613 0 0 0-.26.078.841.841 0 0 1-.312.052c-.173.052-.442.026-.806-.078-.347-.104-.572-.347-.676-.728-.07-.19-.13-.494-.182-.91a4.67 4.67 0 0 1 .026-1.3c.07-.312.113-.598.13-.858.018-.26.052-.442.104-.546v-.364c0-.208-.026-.312-.078-.312-.07 0-.234.13-.494.39-.243.243-.537.555-.884.936-.33.381-.659.78-.988 1.196-.33.416-.598.789-.806 1.118-.156.19-.294.425-.416.702-.121.277-.208.433-.26.468-.121.139-.269.156-.442.052a1.567 1.567 0 0 1-.442-.494 1.336 1.336 0 0 1-.104-.26 1.093 1.093 0 0 1 0-.338c.035-.156.095-.381.182-.676.104-.295.243-.71.416-1.248.19-.59.355-1.118.494-1.586l.234-.728c0-.07-.13 0-.39.208-.26.19-.563.433-.91.728-.156.19-.416.477-.78.858-.364.381-.763.815-1.196 1.3-.433.485-.85.997-1.248 1.534-.502.71-.858 1.144-1.066 1.3-.19.156-.381.113-.572-.13ZM168.538 182.448c-.33.052-.633.078-.91.078-.278.017-.685-.044-1.222-.182-.278-.087-.477-.191-.598-.312a27.464 27.464 0 0 1-.546-.676 3.439 3.439 0 0 1-.416-.78c-.07-.226-.078-.408-.026-.546.052-.122.164-.156.338-.104a.86.86 0 0 1 .234.156c.121.104.234.225.338.364.242.26.537.433.884.52.346.086.806.095 1.378.026.242-.052.537-.13.884-.234.346-.087.684-.2 1.014-.338.329-.139.589-.278.78-.416.918-.624 1.655-1.118 2.21-1.482l.832-.546a.32.32 0 0 1 .182-.156 3.78 3.78 0 0 1 .364-.156l.494-.494c.242-.226.468-.451.676-.676.225-.226.364-.356.416-.39.034-.156.069-.278.104-.364a1 1 0 0 0 .052-.312c.138-.139.32-.425.546-.858.242-.451.485-.945.728-1.482a8.791 8.791 0 0 0 .52-1.508c.242-1.214.303-2.236.181-3.068-.121-.832-.372-1.543-.753-2.132a6.43 6.43 0 0 0-1.378-1.612 4.436 4.436 0 0 0-.806-.494 7.086 7.086 0 0 0-1.04-.494 16.291 16.291 0 0 0-.962-.338c-.26-.087-.416-.122-.468-.104-.07.017-.217.294-.442.832a64.19 64.19 0 0 0-.754 2.002c-.295.814-.616 1.681-.962 2.6l-.936 2.6c-.104.329-.217.676-.338 1.04-.122.364-.226.684-.312.962-.087.26-.13.433-.13.52-.191.294-.347.684-.468 1.17-.104.485-.226 1.291-.364 2.418-.156.589-.269 1.04-.338 1.352-.07.294-.139.433-.208.416l-.026.026-.078.078c0 .104-.07.156-.208.156-.139 0-.304-.035-.495-.104a1.595 1.595 0 0 1-.415-.286 3.323 3.323 0 0 1-.104-.546c0-.174.069-.512.208-1.014l.311-1.196c.139-.486.287-.98.443-1.482.156-.52.303-.997.442-1.43.138-.434.242-.763.312-.988.121-.295.294-.85.52-1.664l.416-1.352c.156-.451.303-.85.442-1.196.138-.364.234-.598.285-.702.087-.226.217-.607.391-1.144.173-.538.398-1.136.676-1.794l.182-.858-.287-.13c-.207.069-.372.095-.493.078a2.006 2.006 0 0 1-.208-.078c-.104.034-.252.008-.442-.078a2.085 2.085 0 0 1-.52-.338c-.139-.139-.226-.26-.26-.364a.91.91 0 0 1-.078-.26v-.182c.017-.104.147-.2.39-.286a4.39 4.39 0 0 1 .936-.26c.398-.07.823-.113 1.274-.13a8.714 8.714 0 0 1 1.352 0c.45.034.875.13 1.274.286.398.156.832.32 1.3.494.554.208 1.135.572 1.742 1.092a9.254 9.254 0 0 1 1.69 1.794c.52.693.866 1.421 1.04 2.184.052.208.104.502.156.884.052.381.078.754.078 1.118.017.346-.018.572-.104.676a.9.9 0 0 0-.078.26c0 .086.034.147.104.182a26.805 26.805 0 0 1-.468 1.456c-.035.45-.139.918-.312 1.404-.174.485-.364.944-.572 1.378-.208.416-.399.771-.572 1.066a.454.454 0 0 0-.208.052c-.052.017-.044.034.025.052 0 .086-.095.251-.285.494-.07.052-.182.182-.338.39-.139.19-.252.32-.339.39a.54.54 0 0 1-.155.312c-.087.069-.165.104-.234.104h-.052c-.018 0-.026.034-.026.104a5.377 5.377 0 0 1-.65.754c-.295.277-.633.572-1.014.884-.364.294-.746.572-1.144.832-.382.26-.746.459-1.092.598a2.417 2.417 0 0 1-.546.286c-.191.086-.373.173-.546.26-.087.069-.278.164-.572.286-.295.138-.616.268-.962.39-.33.121-.624.208-.884.26Zm16.611-3.38a2.288 2.288 0 0 1-1.274.546 2.72 2.72 0 0 1-1.378-.208 2.772 2.772 0 0 1-1.118-.936 2.932 2.932 0 0 1-.572-1.3c-.087-.503-.096-1.153-.026-1.95.052-.676.268-1.352.65-2.028a8.09 8.09 0 0 1 1.378-1.846c.554-.538 1.1-.91 1.638-1.118.26-.174.476-.252.65-.234.19 0 .476.017.858.052.398.052.693.13.884.234.208.104.372.242.494.416.26.26.433.52.52.78.086.242.13.485.13.728-.07.381-.33.849-.78 1.404-.434.537-1.006.979-1.716 1.326a3.651 3.651 0 0 1-1.248.156c-.451-.018-.824-.13-1.118-.338-.33-.139-.546-.113-.65.078-.104.173-.2.606-.286 1.3-.07.658-.018 1.144.156 1.456.173.294.407.468.702.52.346.069.615.121.806.156.208.017.459-.061.754-.234.277-.174.45-.269.52-.286a.645.645 0 0 0 .156-.104l.338-.338c.121-.122.216-.208.286-.26a.32.32 0 0 1 .234-.104c.086 0 .164.043.234.13a.813.813 0 0 0 .208.156c.173 0 .208.104.104.312-.087.208-.269.459-.546.754a5.845 5.845 0 0 1-.988.78Zm-.026-5.512c.19-.087.39-.208.598-.364.208-.174.381-.356.52-.546.156-.208.234-.382.234-.52 0-.243-.113-.442-.338-.598-.226-.174-.564-.2-1.014-.078-.191.052-.408.182-.65.39-.243.19-.477.407-.702.65-.208.242-.382.459-.52.65-.122.19-.165.303-.13.338.052.086.199.156.442.208.242.034.511.043.806.026.312-.018.563-.07.754-.156Zm4.939 6.422c-.33.086-.598.017-.806-.208-.191-.226-.304-.572-.338-1.04-.035-.468.017-1.023.156-1.664a5.1 5.1 0 0 0 .208-.598 2.17 2.17 0 0 0 .078-.494 7.57 7.57 0 0 1 .208-.754 34.676 34.676 0 0 1 .676-2.028c.121-.295.199-.477.234-.546.069 0 .13-.061.182-.182a.921.921 0 0 0 .078-.364c0-.139.026-.295.078-.468.069-.174.138-.295.208-.364a.9.9 0 0 1 .052-.286.794.794 0 0 0 .078-.286c0-.07.017-.139.052-.208a.348.348 0 0 0 .078-.208c.121-.226.277-.581.468-1.066.208-.503.424-1.058.65-1.664.242-.607.468-1.205.676-1.794.208-.59.372-1.084.494-1.482.138-.416.208-.668.208-.754 0-.139.034-.243.104-.312.069-.07.173-.104.312-.104a.38.38 0 0 1 .182-.104c.086-.018.164-.026.234-.026l.104.104.312.312c.138.121.216.26.234.416.034.156.052.338.052.546 0 .225-.026.424-.078.598a5.983 5.983 0 0 1-.312.754l-.728 1.534c-.139.346-.286.676-.442.988-.156.294-.234.476-.234.546 0 .069-.035.173-.104.312-.052.138-.113.312-.182.52-.07.138-.165.346-.286.624-.122.26-.252.546-.39.858a28.66 28.66 0 0 0-.312.78c-.087.208-.13.329-.13.364a.878.878 0 0 1-.026.208c0 .069-.035.138-.104.208-.07 0-.113.052-.13.156v.13c0 .173-.139.632-.416 1.378-.278.953-.538 1.828-.78 2.626-.226.797-.338 1.438-.338 1.924 0 .416-.009.693-.026.832-.018.121-.096.216-.234.286Zm6.108.078c-.762 0-1.386-.286-1.872-.858-.485-.59-.719-1.318-.702-2.184a8.927 8.927 0 0 1 .364-2.002c.226-.728.52-1.422.884-2.08a9.836 9.836 0 0 1 1.196-1.768c.434-.503.884-.858 1.352-1.066a2.97 2.97 0 0 1 .546-.208c.208-.052.416-.078.624-.078.191 0 .39.034.598.104.208.052.382.112.52.182.295.121.52.268.676.442.156.173.295.442.416.806.052.329.078.563.078.702 0 .138-.043.346-.13.624a5.83 5.83 0 0 1-.806 1.612c-.329.45-.771.832-1.326 1.144a1.85 1.85 0 0 1-.494.208 2.924 2.924 0 0 1-1.56-.13 1.847 1.847 0 0 1-.754-.598l-.182-.208-.078.208c-.173.468-.312.901-.416 1.3-.086.398-.13.762-.13 1.092 0 .208.018.407.052.598.052.19.122.355.208.494.07.104.182.182.338.234.174.034.356.052.546.052h.364c.139-.018.269-.052.39-.104a2.95 2.95 0 0 0 .702-.338c.191-.122.382-.252.572-.39l.104-.052h-.026a5.1 5.1 0 0 0 .546-.312l.26-.156c.07 0 .139-.044.208-.13.139-.07.312-.044.52.078.226.121.338.277.338.468-.017.086-.095.225-.234.416a4.087 4.087 0 0 1-.468.494c-.156.156-.286.242-.39.26a1.023 1.023 0 0 1-.182.104.552.552 0 0 0-.208.104h.026c-.156.208-.312.312-.468.312h-.208c-.069.121-.294.26-.676.416a3.274 3.274 0 0 1-1.118.208Zm1.17-5.72c.312 0 .581-.087.806-.26.243-.191.451-.399.624-.624.347-.468.546-.919.598-1.352.07-.451.018-.763-.156-.936a.646.646 0 0 0-.286-.078c-.069-.018-.216.008-.442.078-.156.034-.372.164-.65.39-.277.225-.554.476-.832.754a7.7 7.7 0 0 0-.598.702l-.338.546c.139-.052.269-.078.39-.078.139-.018.217-.009.234.026 0 .156.026.303.078.442.07.121.148.216.234.286a.6.6 0 0 0 .338.104Zm7.025 10.53c-.19.017-.485-.026-.884-.13a6.197 6.197 0 0 1-.858-.286 3.835 3.835 0 0 1-.676-.702 4.564 4.564 0 0 1-.546-.91c-.121-.295-.173-.52-.156-.676.018-.139.148-.165.39-.078.26.086.434.199.52.338.156.19.338.372.546.546.208.173.416.303.624.39.208.104.373.147.494.13.434-.07.789-.286 1.066-.65.295-.347.555-.789.78-1.326.139-.382.243-.702.312-.962.087-.243.165-.52.234-.832.087-.312.191-.746.312-1.3.156-.624.26-1.066.312-1.326.07-.278.104-.46.104-.546 0-.087-.026-.148-.078-.182l-.338.182a28.66 28.66 0 0 1-.754.39c-.26.138-.459.251-.598.338a6.166 6.166 0 0 1-1.43.286c-.468.034-.832.008-1.092-.078-.121-.052-.251-.174-.39-.364a3.564 3.564 0 0 1-.312-.624 1.719 1.719 0 0 1-.078-.624c.018-.139.096-.347.234-.624.139-.278.295-.572.468-.884.191-.312.356-.572.494-.78.156-.226.252-.338.286-.338.07 0 .104-.026.104-.078a.559.559 0 0 0 .026-.182c.018-.07.148-.217.39-.442.26-.243.607-.538 1.04-.884.607-.555 1.153-.98 1.638-1.274.486-.295.936-.46 1.352-.494.122.017.234.026.338.026h.182l.156.104c.122.052.278.121.468.208.26.104.494.286.702.546.208.242.373.528.494.858.139.312.217.624.234.936a3.18 3.18 0 0 1-.26 1.118c-.138.364-.277.537-.416.52-.138-.018-.312.043-.52.182-.19.138-.286.242-.286.312a.615.615 0 0 1-.078.26c-.034.104-.147.268-.338.494-.017.086-.069.32-.156.702-.069.364-.156.78-.26 1.248-.104.468-.199.892-.286 1.274-.069.364-.112.598-.13.702-.017.069-.06.225-.13.468-.052.225-.13.485-.234.78a9.19 9.19 0 0 1-.286.832c-.069.502-.164.875-.286 1.118a3.23 3.23 0 0 1-.52.832c-.26.433-.572.771-.936 1.014-.364.26-.693.407-.988.442Zm-1.066-8.736c.035.173.269.234.702.182.434-.07.867-.217 1.3-.442a12.31 12.31 0 0 1 1.04-.468c.312-.122.529-.295.65-.52.104-.174.191-.347.26-.52.07-.174.156-.425.26-.754a.648.648 0 0 1 .13-.234c.087-.104.165-.165.234-.182a.407.407 0 0 1 .208 0c.087.017.191.052.312.104.087-.035.148-.122.182-.26a.84.84 0 0 0 .026-.468c-.017-.122-.104-.286-.26-.494a1.66 1.66 0 0 0-.598-.494c-.26-.139-.563-.052-.91.26l-1.274 1.144c-.398.364-.78.745-1.144 1.144a8.814 8.814 0 0 0-.884 1.118c-.208.346-.286.641-.234.884Zm9.684 2.99a1.21 1.21 0 0 1-.676-.104 2.082 2.082 0 0 1-.65-.442 1.401 1.401 0 0 1-.338-.598c-.069-.364-.026-.815.13-1.352.174-.555.416-1.136.728-1.742.33-.624.694-1.222 1.092-1.794.416-.572.841-1.066 1.274-1.482.451-.434.867-.728 1.248-.884.191-.122.338-.2.442-.234a.528.528 0 0 1 .364-.026c.139.034.338.121.598.26.243.069.425.147.546.234.122.086.278.26.468.52.139.26.243.52.312.78.07.26.13.554.182.884.139.433.191.719.156.858a.64.64 0 0 1-.156.286c-.138.173-.173.26-.104.26l-.026.104c0 .052-.034.138-.104.26-.121.381-.216.78-.286 1.196-.052.398-.043.728.026.988.139.381.39.606.754.676.364.069.737-.087 1.118-.468.191-.139.373-.26.546-.364.174-.122.26-.113.26.026l.078.078a.326.326 0 0 0 .182.052c.087 0 .139.034.156.104.035.069.035.164 0 .286a1.03 1.03 0 0 1-.156.364c-.26.26-.39.433-.39.52l-.104.104a7.058 7.058 0 0 1-.286.26c-.312.19-.71.286-1.196.286-.468 0-.832-.096-1.092-.286a3.201 3.201 0 0 1-.728-.78c-.208-.33-.346-.616-.416-.858l-.13-.26-.754.494c-.19.19-.398.372-.624.546a7.214 7.214 0 0 0-.416.364.897.897 0 0 1-.182.182.248.248 0 0 1-.182.078h-.26c0 .069-.086.156-.26.26a2.2 2.2 0 0 1-.572.26 1.828 1.828 0 0 1-.572.104Zm-.26-1.404c.104 0 .286-.078.546-.234.278-.174.581-.373.91-.598.347-.226.65-.451.91-.676a4.88 4.88 0 0 0 .572-.52l.338-.338c.156-.174.295-.321.416-.442.399-.451.676-.945.832-1.482.156-.555.139-.988-.052-1.3-.069-.191-.156-.295-.26-.312-.104-.018-.32.043-.65.182-.208.121-.468.355-.78.702a18.835 18.835 0 0 0-1.898 2.522c-.294.468-.537.901-.728 1.3-.19.398-.286.71-.286.936 0 .069.018.13.052.182l.078.078Zm11.653 3.562c-.572-.087-.962-.304-1.17-.65-.191-.33-.234-.841-.13-1.534.104-.33.164-.624.182-.884.034-.278.112-.451.234-.52l.026-.078c.034-.052.026-.104-.026-.156 0-.226.078-.538.234-.936a8.98 8.98 0 0 1 .13-.364l.104-.234c-.087-.139-.087-.252 0-.338.086-.087.173-.165.26-.234.104-.087.112-.182.026-.286-.035-.07.008-.226.13-.468.121-.26.26-.529.416-.806.156-.278.26-.494.312-.65 0-.035.043-.156.13-.364a35.2 35.2 0 0 1 .312-.728c.121-.278.234-.529.338-.754.121-.226.199-.373.234-.442.173-.087.104-.148-.208-.182a6.05 6.05 0 0 0-.988-.026 19.567 19.567 0 0 1-1.3-.078 1.981 1.981 0 0 1-.78-.234c-.208-.243-.286-.416-.234-.52.069-.122.277-.191.624-.208.225-.018.398-.026.52-.026.138 0 .312-.009.52-.026.225-.035.572-.078 1.04-.13l1.326-.104.078-.442c.138-.226.251-.425.338-.598.104-.191.19-.382.26-.572a3.43 3.43 0 0 0 .156-.598l.234-.416c.156-.295.251-.598.286-.91.208-.347.39-.659.546-.936.156-.295.251-.477.286-.546.19-.156.32-.234.39-.234.086 0 .26.086.52.26.156.086.294.19.416.312a.844.844 0 0 1 .234.39c.034.121-.018.242-.156.364a4.066 4.066 0 0 0-.156.39c-.07.173-.122.32-.156.442a3.92 3.92 0 0 0-.39.598c-.139.26-.234.528-.286.806-.139.294-.269.563-.39.806-.122.225-.217.338-.286.338.034.173.138.26.312.26.173-.018.459-.035.858-.052.329-.035.554-.07.676-.104.138-.052.294-.035.468.052.086.121.156.26.208.416.052.156.06.303.026.442a.322.322 0 0 1-.208.26c-.087 0-.269.052-.546.156-.26.086-.59.138-.988.156l-1.378.13-.442.884a9.526 9.526 0 0 0-.312.624 1.668 1.668 0 0 1-.182.312c0 .104-.061.26-.182.468l-.338.676a5.022 5.022 0 0 1-.364.806l-.182.364c-.07 0-.104.052-.104.156.086.208.06.364-.078.468a.745.745 0 0 0-.234.234l-.078.13c.069.069.078.156.026.26a1.977 1.977 0 0 1-.156.338c0 .138-.044.338-.13.598-.07.26-.148.502-.234.728.017.312.034.511.052.598.017.086.06.121.13.104a.542.542 0 0 0 .234 0 .818.818 0 0 1 .208-.026c.242-.104.112.502-.39 1.82-.278.433-.468.745-.572.936-.104.208-.2.312-.286.312Zm10.843-2.21a2.288 2.288 0 0 1-1.274.546 2.722 2.722 0 0 1-1.378-.208 2.778 2.778 0 0 1-1.118-.936 2.943 2.943 0 0 1-.572-1.3c-.087-.503-.095-1.153-.026-1.95.052-.676.269-1.352.65-2.028a8.12 8.12 0 0 1 1.378-1.846c.555-.538 1.101-.91 1.638-1.118.26-.174.477-.252.65-.234.191 0 .477.017.858.052.399.052.693.13.884.234.208.104.373.242.494.416.26.26.433.52.52.78.087.242.13.485.13.728-.069.381-.329.849-.78 1.404-.433.537-1.005.979-1.716 1.326a3.645 3.645 0 0 1-1.248.156c-.451-.018-.823-.13-1.118-.338-.329-.139-.546-.113-.65.078-.104.173-.199.606-.286 1.3-.069.658-.017 1.144.156 1.456.173.294.407.468.702.52.347.069.615.121.806.156.208.017.459-.061.754-.234.277-.174.451-.269.52-.286a.645.645 0 0 0 .156-.104l.338-.338c.121-.122.217-.208.286-.26a.32.32 0 0 1 .234-.104c.087 0 .165.043.234.13a.83.83 0 0 0 .208.156c.173 0 .208.104.104.312-.087.208-.269.459-.546.754a5.806 5.806 0 0 1-.988.78Zm-.026-5.512a3.26 3.26 0 0 0 .598-.364c.208-.174.381-.356.52-.546.156-.208.234-.382.234-.52 0-.243-.113-.442-.338-.598-.225-.174-.563-.2-1.014-.078-.191.052-.407.182-.65.39-.243.19-.477.407-.702.65-.208.242-.381.459-.52.65-.121.19-.165.303-.13.338.052.086.199.156.442.208.243.034.511.043.806.026.312-.018.563-.07.754-.156Zm5.491 6.526a4.298 4.298 0 0 1-.936-.546c-.295-.243-.485-.442-.572-.598 0-.156.026-.26.078-.312.052-.07.199-.096.442-.078.26 0 .676.034 1.248.104a7.47 7.47 0 0 0 1.638-.208c.277-.07.433-.156.468-.26.087 0 .104-.026.052-.078a1.894 1.894 0 0 0-.182-.208.468.468 0 0 1-.234-.078c-.087-.07-.165-.104-.234-.104 0-.087-.087-.182-.26-.286a2.007 2.007 0 0 0-.494-.286c-.381-.312-.711-.59-.988-.832-.277-.26-.381-.434-.312-.52v-.13c-.121 0-.26-.174-.416-.52-.139-.347-.208-.659-.208-.936 0-.208.061-.468.182-.78.121-.33.286-.668.494-1.014.208-.347.425-.633.65-.858.312-.295.702-.607 1.17-.936.468-.347.927-.65 1.378-.91.468-.278.858-.46 1.17-.546.312-.122.598-.182.858-.182.277 0 .52.06.728.182a1.4 1.4 0 0 1 .468.39c.156.156.286.32.39.494.121.156.199.294.234.416 0 .208-.017.442-.052.702a3.314 3.314 0 0 1-.156.65c-.052.19-.139.286-.26.286l-.078.026c-.035 0-.052.043-.052.13 0 .173-.13.372-.39.598-.329.225-.615.364-.858.416-.243.034-.39-.061-.442-.286a.677.677 0 0 1-.104-.182c-.017-.052-.061-.078-.13-.078l-.078-.078c-.052-.052-.078-.139-.078-.26 0-.07.026-.13.078-.182l.078-.104c.087 0 .199-.096.338-.286a4.77 4.77 0 0 0 .364-.65c.121-.243.182-.408.182-.494 0-.104-.017-.165-.052-.182-.017-.018-.095-.026-.234-.026a24.17 24.17 0 0 0-1.872.936c-.295.156-.511.303-.65.442a5.96 5.96 0 0 0-.13.234c-.017.017-.061.026-.13.026 0-.07-.061-.035-.182.104-.104.121-.243.294-.416.52l-.468.676-.312.468c-.035.034-.078.138-.13.312a2.018 2.018 0 0 0-.052.442c-.069.208-.061.355.026.442.087.069.277.225.572.468.607.45 1.083.823 1.43 1.118.347.294.607.537.78.728.173.19.277.364.312.52.312.52.407.918.286 1.196-.121.277-.416.52-.884.728-.173.086-.459.156-.858.208a9.443 9.443 0 0 1-1.222.078 5.775 5.775 0 0 1-.988-.026Z" fill="#000"/><g clip-path="url(#a)"><path d="m250.902 75.378-7.959 6.647-6.793 11.74h6.125l8.627-18.387Zm1.059 1.555-3.397 9.22 6.513 7.88-12.635 2.09h20.708l-11.189-19.19Z" fill="#0072C6"/></g><path d="M189.823 26.489c-.312-.174-.485-.364-.52-.572-.017-.208.104-.572.364-1.092.26-.52.668-1.326 1.222-2.418.416-.78.728-1.387.936-1.82.226-.45.373-.771.442-.962.087-.19.13-.312.13-.364-.034-.156-.017-.277.052-.364a.768.768 0 0 1 .338-.26c.087-.087.226-.243.416-.468.208-.226.399-.494.572-.806.156-.364.338-.737.546-1.118.208-.382.486-.858.832-1.43.347-.59.798-1.352 1.352-2.288.347-.607.728-1.222 1.144-1.846.416-.641.858-1.274 1.326-1.898.191-.243.364-.433.52-.572.156-.156.312-.225.468-.208.208 0 .442.07.702.208.278.139.529.32.754.546.226.225.39.468.494.728.087.139.122.433.104.884-.017.45-.052.997-.104 1.638a137.77 137.77 0 0 1-.182 2.054c-.052.71-.13 1.551-.234 2.522-.104.97-.208 1.985-.312 3.042-.086 1.057-.156 2.08-.208 3.068-.052.97-.052 1.82 0 2.548.018.156.018.303 0 .442a2.915 2.915 0 0 0-.026.338c-.104.104-.277.147-.52.13-.225 0-.45-.052-.676-.156-.208-.104-.329-.234-.364-.39a.4.4 0 0 1-.104-.208c0-.104.009-.312.026-.624.018-.312.035-.806.052-1.482l.13-4.212-.338.026c-.156 0-.45.017-.884.052-.433.035-.901.087-1.404.156-.502.052-.97.113-1.404.182-.416.052-.702.104-.858.156-.156 0-.346.104-.572.312a3.904 3.904 0 0 0-.598.806 2.713 2.713 0 0 1-.39.78c-.173.26-.26.433-.26.52-.121.087-.225.19-.312.312l-.104.182c0 .104-.086.364-.26.78-.156.398-.355.85-.598 1.352-.242.485-.485.91-.728 1.274l-.546.832-.416-.312Zm5.382-8.372.26-.052c.191-.035.408-.07.65-.104.26-.052.494-.078.702-.078a23.74 23.74 0 0 1 1.586-.338c.33-.07.555-.104.676-.104.139 0 .26.026.364.078.07.087.13.139.182.156l.104.026c.018-.035.044-.234.078-.598l.13-1.352c.07-.537.13-1.092.182-1.664.07-.59.122-1.127.156-1.612l.078-1.144c.018-.33.035-.624.052-.884l.026-.416c-.104 0-.329.19-.676.572-.329.381-.702.884-1.118 1.508a20.231 20.231 0 0 0-1.17 2.002c-.173.33-.338.624-.494.884-.156.26-.277.39-.364.39-.034.034-.138.19-.312.468-.156.26-.329.563-.52.91-.19.33-.346.633-.468.91-.121.26-.156.407-.104.442Zm10.023 6.786c-.659.087-1.153.147-1.482.182-.329.017-.581-.009-.754-.078a2.055 2.055 0 0 1-.52-.364.505.505 0 0 1-.182-.494c.052-.19.347-.564.884-1.118.329-.399.667-.771 1.014-1.118.347-.364.659-.659.936-.884.121-.104.26-.208.416-.312.156-.121.407-.303.754-.546.347-.243.858-.59 1.534-1.04a25.502 25.502 0 0 1 1.248-.936l.416-.312c-.121-.017-.39-.043-.806-.078a6.01 6.01 0 0 0-1.118 0h-.936a3.535 3.535 0 0 1-.416-.078h-.39c-.087 0-.243-.035-.468-.104a3.523 3.523 0 0 1-.624-.312c-.191-.122-.295-.243-.312-.364l.156-.078c.104-.07.191-.139.26-.208.139-.087.243-.156.312-.208.087-.052.165-.043.234.026h.494c.329-.017.702-.035 1.118-.052 1.005.017 1.742.052 2.21.104.485.035.841.104 1.066.208.243.104.477.26.702.468.277.277.39.546.338.806-.052.26-.173.494-.364.702-.069.07-.139.147-.208.234-.052.07-.104.104-.156.104l-.364.234c-.243.156-.537.347-.884.572-.329.225-.659.433-.988.624-.312.19-.503.33-.572.416-.121.07-.269.165-.442.286-.173.104-.295.19-.364.26a3.36 3.36 0 0 1-.364.364 3.73 3.73 0 0 1-.572.468c-.156.139-.347.312-.572.52l-.546.546-.234.234.52-.052c.347-.052.78-.095 1.3-.13a9.097 9.097 0 0 1 1.534-.026c.815-.017 1.456-.035 1.924-.052a8.355 8.355 0 0 1 1.092-.026c.26 0 .459.035.598.104a.626.626 0 0 1 .312.208.785.785 0 0 1 .208.338c.052.104.061.182.026.234-.069 0-.338.026-.806.078-.468.035-1.005.07-1.612.104-.797.07-1.569.156-2.314.26-.745.104-1.491.2-2.236.286Zm13.375.676a3.515 3.515 0 0 1-.52-.702 4.57 4.57 0 0 1-.416-1.066 2.45 2.45 0 0 1-.052-.572 2.552 2.552 0 0 0 0-.52 1.532 1.532 0 0 1-.26.39 2.653 2.653 0 0 1-.312.312c-.069.07-.225.208-.468.416-.243.19-.485.346-.728.468-.572.364-1.049.563-1.43.598-.364.035-.711-.156-1.04-.572a2.024 2.024 0 0 1-.598-.754c-.104-.278-.104-.659 0-1.144a9.881 9.881 0 0 1 .26-1.768c.139-.59.425-1.37.858-2.34.364-.71.641-1.23.832-1.56.191-.347.312-.555.364-.624.26-.087.477-.078.65.026.173.086.277.251.312.494.104.173.087.468-.052.884-.121.416-.338.927-.65 1.534-.243.59-.468 1.178-.676 1.768-.191.59-.303 1.092-.338 1.508-.035.416.069.667.312.754.156.086.425.06.806-.078.399-.139.841-.485 1.326-1.04.503-.555.988-1.395 1.456-2.522a8.05 8.05 0 0 0 .312-.91c.069-.277.113-.58.13-.91a1.126 1.126 0 0 1 .026-.546c.069-.174.208-.32.416-.442a.986.986 0 0 1 .286-.234c.121-.087.199-.087.234 0l.416-.026c.069-.017.113.026.13.13a.576.576 0 0 0 .182.234c.191.156.243.494.156 1.014s-.329 1.248-.728 2.184c-.329.71-.555 1.248-.676 1.612-.104.364-.165.72-.182 1.066 0 .312.061.607.182.884s.312.529.572.754c.191.121.295.26.312.416.035.156.043.338.026.546-.035.156-.139.286-.312.39-.156.087-.338.13-.546.13a.975.975 0 0 1-.572-.182Zm4.995-.754c-.052.017-.139.009-.26-.026a3.06 3.06 0 0 1-.364-.13.856.856 0 0 1-.234-.13 1.212 1.212 0 0 1-.208-.312c-.052-.139-.052-.338 0-.598.052-.277.225-.633.52-1.066.087-.173.191-.433.312-.78.121-.347.243-.71.364-1.092.139-.399.26-.754.364-1.066.121-.312.208-.529.26-.65.035-.295.017-.503-.052-.624-.052-.139-.199-.217-.442-.234-.173 0-.312-.018-.416-.052-.087-.035-.13-.208-.13-.52.035-.243.095-.408.182-.494.104-.104.243-.217.416-.338.173-.087.347-.148.52-.182.191-.035.373-.043.546-.026a.66.66 0 0 1 .416.182c.121.07.199.225.234.468.035.225.052.46.052.702.017.242.035.425.052.546.173-.139.407-.33.702-.572.312-.26.581-.503.806-.728.277-.19.607-.382.988-.572.381-.208.659-.312.832-.312.191 0 .381.052.572.156.191.087.321.2.39.338.173.294.251.554.234.78 0 .225-.095.46-.286.702a1.34 1.34 0 0 1-.65.468c-.243.087-.399.13-.468.13-.104 0-.234-.078-.39-.234-.156-.156-.243-.286-.26-.39 0-.052-.113 0-.338.156-.208.139-.442.32-.702.546-.26.208-.477.399-.65.572-.295.364-.607.858-.936 1.482-.329.624-.719 1.378-1.17 2.262a7.037 7.037 0 0 0-.442 1.118c-.087.294-.208.468-.364.52Zm10.279.884c-.762 0-1.386-.286-1.872-.858-.485-.59-.719-1.317-.702-2.184a8.933 8.933 0 0 1 .364-2.002c.226-.728.52-1.421.884-2.08a9.858 9.858 0 0 1 1.196-1.768c.434-.503.884-.858 1.352-1.066.174-.087.356-.156.546-.208.208-.052.416-.078.624-.078.191 0 .39.034.598.104.208.052.382.112.52.182.295.121.52.269.676.442.156.173.295.442.416.806.052.33.078.563.078.702s-.043.346-.13.624a5.827 5.827 0 0 1-.806 1.612c-.329.45-.771.832-1.326 1.144a1.831 1.831 0 0 1-.494.208 2.917 2.917 0 0 1-1.56-.13 1.845 1.845 0 0 1-.754-.598l-.182-.208-.078.208c-.173.468-.312.901-.416 1.3a5.22 5.22 0 0 0-.13 1.092c0 .208.018.407.052.598.052.19.122.355.208.494.07.104.182.182.338.234.174.035.356.052.546.052h.364c.139-.017.269-.052.39-.104.295-.104.529-.217.702-.338.191-.122.382-.252.572-.39l.104-.052h-.026a5.1 5.1 0 0 0 .546-.312l.26-.156c.07 0 .139-.043.208-.13.139-.07.312-.044.52.078.226.121.338.277.338.468-.017.087-.095.225-.234.416a4.065 4.065 0 0 1-.468.494c-.156.156-.286.242-.39.26a1.003 1.003 0 0 1-.182.104.566.566 0 0 0-.208.104h.026c-.156.208-.312.312-.468.312h-.208c-.069.121-.294.26-.676.416a3.26 3.26 0 0 1-1.118.208Zm1.17-5.72c.312 0 .581-.087.806-.26.243-.19.451-.399.624-.624.347-.468.546-.919.598-1.352.07-.45.018-.763-.156-.936a.646.646 0 0 0-.286-.078c-.069-.018-.216.008-.442.078-.156.035-.372.165-.65.39a11.08 11.08 0 0 0-.832.754c-.26.277-.459.511-.598.702l-.338.546c.139-.052.269-.078.39-.078.139-.018.217-.009.234.026 0 .156.026.303.078.442.07.121.148.216.234.286.104.07.217.104.338.104Zm11.346 6.89c-.208 0-.381-.113-.52-.338a.815.815 0 0 1-.208-.442c-.017-.174.044-.494.182-.962a60.1 60.1 0 0 1 .702-2.21c.174-.659.312-1.136.416-1.43.104-.312.156-.538.156-.676 0-.19.018-.347.052-.468.052-.139.078-.269.078-.39.104 0 .208-.096.312-.286.104-.19.191-.45.26-.78.07-.295.13-.529.182-.702.07-.19.104-.32.104-.39.087-.139.174-.355.26-.65.104-.295.26-.65.468-1.066.139-.52.295-1.057.468-1.612.174-.572.347-1.1.52-1.586.191-.503.347-.893.468-1.17.191-.537.338-.91.442-1.118.104-.226.104-.373 0-.442-.121-.087-.147-.234-.078-.442.07-.208.26-.442.572-.702.191-.225.356-.381.494-.468a.843.843 0 0 1 .52-.156c.226 0 .546.017.962.052.312.017.642.026.988.026h.676c.156.07.347.147.572.234.226.07.425.139.598.208.191.07.286.13.286.182 0 .104.035.173.104.208l.26.052c.122 0 .286.095.494.286.208.173.425.399.65.676.226.26.399.537.52.832.139.295.243.572.312.832.087.26.087.633 0 1.118-.017.26-.06.52-.13.78-.052.26-.112.433-.182.52-.104.07-.199.156-.286.26-.086.104-.13.2-.13.286 0 .07-.06.208-.182.416-.121.19-.277.416-.468.676-.19.26-.398.52-.624.78a8.18 8.18 0 0 1-.65.676 4.925 4.925 0 0 1-.806.78 8.54 8.54 0 0 1-.806.598c-.45.208-.953.416-1.508.624a16.39 16.39 0 0 1-1.56.52c-.485.139-.892.2-1.222.182-.502.07-.832.139-.988.208-.138.052-.242.2-.312.442-.086.225-.173.46-.26.702-.069.225-.104.381-.104.468-.034.07-.121.286-.26.65-.121.346-.26.754-.416 1.222-.138.468-.277.927-.416 1.378-.138.45-.242.823-.312 1.118-.069.242-.156.381-.26.416a.868.868 0 0 1-.39.078Zm3.224-8.06c.07.07.338.078.806.026a6.056 6.056 0 0 0 1.508-.39 8.847 8.847 0 0 0 1.04-.442 9.96 9.96 0 0 0 1.04-.572c.174-.121.434-.338.78-.65a9.322 9.322 0 0 0 1.04-1.118c.052-.087.139-.252.26-.494.139-.26.26-.503.364-.728.156-.243.312-.598.468-1.066.156-.486.191-.884.104-1.196-.086-.45-.312-.867-.676-1.248a2.705 2.705 0 0 0-1.3-.806 5.53 5.53 0 0 0-.962-.104 4.68 4.68 0 0 0-.806.078c-.277.086-.485.208-.624.364-.121.156-.286.485-.494.988a33.97 33.97 0 0 0-.52 1.118c-.225.485-.416.944-.572 1.378-.312 1.144-.624 2.088-.936 2.834a64.77 64.77 0 0 0-.546 1.378c.018.19.009.33-.026.416-.034.07-.017.147.052.234Zm9.877 6.214c-.087.173-.217.225-.39.156a2.66 2.66 0 0 1-.39-.208.482.482 0 0 1-.312-.104.552.552 0 0 1-.182-.312.81.81 0 0 1-.026-.364c.017-.156.052-.33.104-.52.069-.208.138-.434.208-.676.138-.572.234-.988.286-1.248.052-.26.104-.486.156-.676.052-.19.121-.468.208-.832.138-.347.251-.685.338-1.014.086-.33.216-.659.39-.988.121-.45.268-.875.442-1.274.19-.416.372-.763.546-1.04.034-.052.095-.121.182-.208.104-.087.19-.13.26-.13.138-.139.26-.19.364-.156.121.017.268.095.442.234a.872.872 0 0 1 .234.78c-.035.294-.243.728-.624 1.3a38.352 38.352 0 0 1-.572 1.404 4.988 4.988 0 0 0-.364 1.092 5.25 5.25 0 0 1 .624-.754l.598-.598c.381-.381.693-.659.936-.832.26-.174.563-.373.91-.598.208-.139.407-.26.598-.364a1.97 1.97 0 0 1 .624-.26c.242-.052.502-.052.78 0a.455.455 0 0 1 .416.156c.121.121.216.286.286.494.069.208.112.45.13.728-.399-.087-.754-.07-1.066.052a3.164 3.164 0 0 0-.806.39c-.208.156-.373.277-.494.364-.26.173-.59.407-.988.702a8.794 8.794 0 0 0-1.196 1.014c-.312.347-.581.641-.806.884-.208.242-.382.46-.52.65-.122.19-.217.39-.286.598-.174.398-.356.832-.546 1.3-.191.468-.356.754-.494.858Zm10.695.442a1.3 1.3 0 0 1-.546-.052 9.495 9.495 0 0 1-.52-.286c-.381-.295-.667-.59-.858-.884-.173-.312-.251-.616-.234-.91a.834.834 0 0 0 0-.416 24.894 24.894 0 0 0-.026-.182c-.104-.087-.139-.139-.104-.156a.324.324 0 0 0 .078-.156c.139-.035.156-.13.052-.286-.052-.139-.026-.45.078-.936.121-.503.277-.97.468-1.404.087-.19.208-.442.364-.754.173-.312.364-.624.572-.936.208-.33.399-.59.572-.78.381-.433.719-.754 1.014-.962a4.242 4.242 0 0 1 1.04-.546c.347-.139.598-.217.754-.234.156-.018.373.086.65.312.416.121.728.294.936.52.225.208.399.537.52.988.139.503.182 1.1.13 1.794-.035.676-.329 1.551-.884 2.626-.329.676-.659 1.187-.988 1.534-.312.346-.693.71-1.144 1.092a6.065 6.065 0 0 1-.91.65 3.64 3.64 0 0 1-1.014.364Zm2.08-3.094c.347-.52.615-.997.806-1.43.208-.45.373-1.014.494-1.69.035-.19.043-.425.026-.702a3.731 3.731 0 0 0-.13-.806c-.052-.243-.13-.373-.234-.39-.225-.087-.477-.087-.754 0-.277.07-.581.277-.91.624a7.322 7.322 0 0 0-.806 1.17c-.225.433-.433.91-.624 1.43a26.38 26.38 0 0 0-.546 1.664c-.173.659-.165 1.161.026 1.508.208.346.546.433 1.014.26.468-.19 1.014-.737 1.638-1.638Zm6.618 1.664c-.121-.104-.277-.416-.468-.936a24.984 24.984 0 0 1-.52-1.82c-.156-.71-.286-1.36-.39-1.95a6.298 6.298 0 0 0-.234-.884c-.069-.243-.13-.442-.182-.598-.087-.312-.113-.572-.078-.78.035-.208.156-.373.364-.494a.832.832 0 0 1 .312-.104.696.696 0 0 1 .312-.026c.208.07.399.39.572.962.173.555.329 1.291.468 2.21.069.537.156.997.26 1.378.104.381.156.607.156.676.069.139.147.277.234.416.104.121.225.113.364-.026.069-.07.208-.226.416-.468.225-.243.442-.503.65-.78.364-.486.65-.884.858-1.196.225-.312.477-.642.754-.988.121-.174.26-.364.416-.572.156-.208.312-.399.468-.572.173-.19.329-.303.468-.338.416-.07.641.017.676.26.035.242-.121.607-.468 1.092a4.278 4.278 0 0 0-.338.598 1.117 1.117 0 0 1-.208.364 9.851 9.851 0 0 1-.65 1.066 43.19 43.19 0 0 1-.858 1.17 9.943 9.943 0 0 1-.572.676c-.069.07-.225.2-.468.39-.225.19-.442.433-.65.728-.416.399-.745.641-.988.728-.243.087-.468.026-.676-.182Zm6.989.754a1.321 1.321 0 0 1-.312-.52c-.052-.208-.069-.416-.052-.624.018-.208.061-.382.13-.52 0-.139.018-.243.052-.312.052-.087.07-.165.052-.234-.017-.07 0-.19.052-.364s.104-.338.156-.494c.122-.278.252-.607.39-.988a43.8 43.8 0 0 0 .39-1.17c.122-.381.226-.71.312-.988.087-.277.139-.45.156-.52 0-.208.139-.32.416-.338.208-.07.364-.07.468 0 .104.052.243.216.416.494.139.139.191.346.156.624-.034.277-.147.624-.338 1.04a8.514 8.514 0 0 0-.26.598c-.086.26-.147.494-.182.702a8.514 8.514 0 0 0-.26.598c-.086.242-.164.476-.234.702a2.48 2.48 0 0 0-.104.39c-.034.156-.078.33-.13.52-.052.173-.121.33-.208.468-.156.71-.303 1.127-.442 1.248-.121.121-.329.017-.624-.312Zm2.522-10.556a1.226 1.226 0 0 1-.234-.364 1.972 1.972 0 0 1-.13-.468c-.017-.156 0-.234.052-.234.139-.018.304-.165.494-.442.191-.277.269-.52.234-.728 0-.07.026-.13.078-.182a.328.328 0 0 1 .182-.13c.208-.139.408-.156.598-.052.208.086.399.268.572.546.156.33.2.607.13.832-.069.208-.26.502-.572.884-.26.347-.502.537-.728.572-.208.034-.433-.043-.676-.234Zm8.698 11.128c-.069 0-.173-.009-.312-.026a.581.581 0 0 1-.312-.234c-.26-.312-.425-.572-.494-.78-.069-.208-.078-.511-.026-.91.035-.26.052-.485.052-.676.017-.208.035-.382.052-.52-.069-.07-.199-.018-.39.156-.173.156-.416.355-.728.598-.589.676-1.118 1.196-1.586 1.56-.451.346-.858.58-1.222.702-.364.104-.711.139-1.04.104a1.031 1.031 0 0 1-.702-.364c-.173-.226-.286-.512-.338-.858a5.958 5.958 0 0 1 0-1.118 8.34 8.34 0 0 1 .364-1.638c.191-.52.494-1.1.91-1.742.191-.347.442-.685.754-1.014.329-.347.685-.65 1.066-.91.399-.277.78-.477 1.144-.598a3.764 3.764 0 0 1 1.222-.26c.416-.035.789 0 1.118.104.208.104.373.156.494.156.139 0 .243-.087.312-.26a2.81 2.81 0 0 0 .26-.624c.087-.295.191-.546.312-.754l.572-1.69c.191-.468.399-.962.624-1.482.225-.52.494-1.153.806-1.898.295-.555.537-.875.728-.962.191-.104.407-.035.65.208.191.225.26.485.208.78-.052.277-.208.728-.468 1.352-.121.19-.225.373-.312.546-.087.156-.208.407-.364.754a86.205 86.205 0 0 1-.624 1.456c-.191.416-.39.893-.598 1.43a13.29 13.29 0 0 1-.286.962c-.104.364-.191.693-.26.988a8.755 8.755 0 0 1-.182.78c-.052.225-.113.338-.182.338-.139.156-.269.433-.39.832-.121.381-.225.78-.312 1.196-.069.416-.13.762-.182 1.04a7.298 7.298 0 0 0-.078.806c-.017.33-.026.65-.026.962v.624c0 .381-.009.624-.026.728-.017.104-.087.156-.208.156Zm-5.538-1.638c.364 0 .745-.156 1.144-.468.416-.312.832-.659 1.248-1.04.26-.243.537-.564.832-.962.312-.399.607-.798.884-1.196.295-.399.529-.745.702-1.04.173-.312.26-.503.26-.572 0-.087-.078-.147-.234-.182a2.537 2.537 0 0 0-.546-.052 1.306 1.306 0 0 0-.468.026c-.381.087-.763.26-1.144.52-.364.26-.763.65-1.196 1.17a9.364 9.364 0 0 0-1.118 1.716c-.277.59-.451 1.083-.52 1.482-.069.398-.017.598.156.598Zm11.585 1.976c-.763 0-1.387-.286-1.872-.858-.485-.59-.719-1.317-.702-2.184a8.933 8.933 0 0 1 .364-2.002c.225-.728.52-1.421.884-2.08a9.858 9.858 0 0 1 1.196-1.768c.433-.503.884-.858 1.352-1.066.173-.087.355-.156.546-.208.208-.052.416-.078.624-.078.191 0 .39.034.598.104.208.052.381.112.52.182.295.121.52.269.676.442.156.173.295.442.416.806.052.33.078.563.078.702s-.043.346-.13.624a5.854 5.854 0 0 1-.806 1.612c-.329.45-.771.832-1.326 1.144a1.845 1.845 0 0 1-.494.208 2.91 2.91 0 0 1-1.56-.13 1.845 1.845 0 0 1-.754-.598l-.182-.208-.078.208c-.173.468-.312.901-.416 1.3-.087.398-.13.762-.13 1.092 0 .208.017.407.052.598.052.19.121.355.208.494a.624.624 0 0 0 .338.234c.173.035.355.052.546.052h.364c.139-.017.269-.052.39-.104.295-.104.529-.217.702-.338.191-.122.381-.252.572-.39l.104-.052h-.026a5.1 5.1 0 0 0 .546-.312l.26-.156c.069 0 .139-.043.208-.13.139-.07.312-.044.52.078.225.121.338.277.338.468-.017.087-.095.225-.234.416a4.226 4.226 0 0 1-.468.494c-.156.156-.286.242-.39.26a1.003 1.003 0 0 1-.182.104.566.566 0 0 0-.208.104h.026c-.156.208-.312.312-.468.312h-.208c-.069.121-.295.26-.676.416a3.26 3.26 0 0 1-1.118.208Zm1.17-5.72c.312 0 .581-.087.806-.26.243-.19.451-.399.624-.624.347-.468.546-.919.598-1.352.069-.45.017-.763-.156-.936a.646.646 0 0 0-.286-.078c-.069-.018-.217.008-.442.078-.156.035-.373.165-.65.39s-.555.476-.832.754c-.26.277-.459.511-.598.702l-.338.546c.139-.052.269-.078.39-.078.139-.018.217-.009.234.026 0 .156.026.303.078.442a.978.978 0 0 0 .234.286c.104.07.217.104.338.104Zm6.089 5.044c-.087.173-.217.225-.39.156a2.66 2.66 0 0 1-.39-.208.485.485 0 0 1-.312-.104.558.558 0 0 1-.182-.312.824.824 0 0 1-.026-.364c.017-.156.052-.33.104-.52.069-.208.139-.434.208-.676.139-.572.234-.988.286-1.248.052-.26.104-.486.156-.676.052-.19.121-.468.208-.832.139-.347.251-.685.338-1.014.087-.33.217-.659.39-.988.121-.45.269-.875.442-1.274.191-.416.373-.763.546-1.04.035-.052.095-.121.182-.208.104-.087.191-.13.26-.13.139-.139.26-.19.364-.156.121.017.269.095.442.234a.872.872 0 0 1 .234.78c-.035.294-.243.728-.624 1.3a38.352 38.352 0 0 1-.572 1.404 5.042 5.042 0 0 0-.364 1.092c.191-.277.399-.529.624-.754l.598-.598c.381-.381.693-.659.936-.832.26-.174.563-.373.91-.598.208-.139.407-.26.598-.364a1.99 1.99 0 0 1 .624-.26c.243-.052.503-.052.78 0a.455.455 0 0 1 .416.156c.121.121.217.286.286.494.069.208.113.45.13.728-.399-.087-.754-.07-1.066.052a3.164 3.164 0 0 0-.806.39c-.208.156-.373.277-.494.364-.26.173-.589.407-.988.702a8.855 8.855 0 0 0-1.196 1.014c-.312.347-.581.641-.806.884-.208.242-.381.46-.52.65-.121.19-.217.39-.286.598-.173.398-.355.832-.546 1.3-.191.468-.355.754-.494.858Z" fill="#000"/><defs><clipPath id="a"><path fill="#fff" transform="translate(236.15 75.377)" d="M0 0h27v20.748H0z"/></clipPath></defs></svg>