<svg fill="none" height="40" viewBox="0 0 47 40" width="47" xmlns="http://www.w3.org/2000/svg"><path d="m37.8919 15.5676-.1005 5.6971c4.9229-.433 6.1929-1.6132 7.5869-3.2218l-.0872-4.5134-3.9681 1.9473z" fill="#ff479f"/><path clip-rule="evenodd" d="m37.0089 21.8505c.0252-.1594.1749-.2681.3343-.2429.5637.0894 2.1146.1996 3.7373-.214 1.6175-.4123 3.2729-1.3342 4.1301-3.2841.0649-.1477.2373-.2148.385-.1499.1478.0649.2149.2373.1499.385-.9535 2.1692-2.7965 3.1757-4.5207 3.6152-1.7189.4381-3.353.3233-3.9731.225-.1594-.0253-.2681-.175-.2428-.3343z" fill="#000" fill-rule="evenodd"/><path clip-rule="evenodd" d="m37.7368 15.8483c.1613.0059.2872.1414.2813.3027-.0655 1.7864-.0529 3.0137-.0368 4.5781.0059.5743.0123 1.1941.0155 1.9037.0007.1614-.1295.2928-.2909.2935s-.2928-.1295-.2935-.2909c-.0031-.7021-.0094-1.3181-.0153-1.8909-.0162-1.5695-.029-2.8139.037-4.6149.0059-.1613.1414-.2872.3027-.2813z" fill="#000" fill-rule="evenodd"/><path clip-rule="evenodd" d="m36.9681 16.1c.032-.1582.1862-.2604.3443-.2284 2.6952.5455 4.9542-.0523 7.7558-1.833.1362-.0866.3167-.0464.4033.0898s.0463.3168-.0899.4033c-2.8874 1.8354-5.2998 2.4966-8.1851 1.9126-.1582-.032-.2604-.1862-.2284-.3443z" fill="#000" fill-rule="evenodd"/><path clip-rule="evenodd" d="m44.9613 13.7691c.161-.0109.3003.1109.3111.2719.0587.872.0918 1.6974.1248 2.5184l.0001.0017c.033.8225.0659 1.6408.124 2.5043.0108.161-.1109.3003-.2719.3111-.161.0109-.3003-.1109-.3112-.2719-.0586-.872-.0918-1.6974-.1247-2.5184l-.0001-.0017c-.033-.8225-.0659-1.6407-.124-2.5043-.0108-.161.1109-.3003.2719-.3111z" fill="#000" fill-rule="evenodd"/><path d="m11.0469 32.6147 2.8399 4.9399c4.0015-2.9 4.4851-4.565 4.8549-6.6612l-2.393-3.8278-2.4045 3.709z" fill="#00a390"/><path clip-rule="evenodd" d="m13.519 38.457c-.0602-.1497.0124-.3199.1621-.3801.5296-.2128 1.9168-.9148 3.0967-2.1032 1.1761-1.1845 2.123-2.8258 1.857-4.9391-.0202-.1601.0932-.3062.2534-.3264.1601-.0201.3062.0933.3263.2534.296 2.351-.7683 4.1612-2.022 5.4238-1.2498 1.2588-2.7109 1.9996-3.2935 2.2337-.1497.0602-.3198-.0124-.38-.1621z" fill="#000" fill-rule="evenodd"/><path clip-rule="evenodd" d="m11.0594 32.9332c.1414-.0778.3191-.0262.3968.1152.8614 1.5664 1.5026 2.6129 2.3199 3.9469.3001.4898.6239 1.0183.9911 1.6256.0834.1381.0392.3177-.0989.4012s-.3177.0392-.4012-.0989c-.3633-.6008-.6852-1.1261-.9844-1.6145-.82-1.3384-1.4701-2.3995-2.3385-3.9787-.0778-.1414-.0262-.3191.1152-.3968z" fill="#000" fill-rule="evenodd"/><path clip-rule="evenodd" d="m10.5283 33.5411c-.0538-.1521.026-.3191.1781-.3728 2.5927-.9163 4.2239-2.5894 5.7131-5.5563.0724-.1442.248-.2024.3922-.13s.2025.2479.1301.3922c-1.5349 3.0578-3.2651 4.8642-6.0407 5.845-.1521.0538-.3191-.026-.3728-.1781z" fill="#000" fill-rule="evenodd"/><path clip-rule="evenodd" d="m16.19 27.4355c.1326-.092.3146-.0591.4066.0735.4983.7181.9506 1.4092 1.4006 2.0967l.0009.0015c.4508.6888.8993 1.3739 1.3927 2.085.092.1326.0591.3147-.0735.4066-.1326.092-.3147.0591-.4066-.0735-.4983-.7181-.9506-1.4092-1.4006-2.0967l-.0009-.0014c-.4508-.6888-.8993-1.374-1.3927-2.0851-.092-.1326-.0591-.3146.0735-.4066z" fill="#000" fill-rule="evenodd"/><path d="m30.2178 1.4497c-.285.87864.9925 5.04014 1.9583 6.88764-2.1425.70946-7.5154 1.97316-9.0181 3.01706 2.472-3.66765 7.3448-10.783346 7.0598-9.9047z" fill="#00ade4"/><path clip-rule="evenodd" d="m33.0814 8.65146c-.1499.05974-.3198-.01335-.3795-.16325-.7642-1.91749-1.8397-5.10557-2.3664-7.734592-.0317-.158223.0709-.312182.2291-.343877s.3122.070876.3439.229099c.5173 2.58263 1.5798 5.73508 2.3362 7.63304.0597.1499-.0134.31984-.1633.37958z" fill="#000" fill-rule="evenodd"/><path clip-rule="evenodd" d="m33.3457 8.29972c.021.15999-.0916.30675-.2516.3278-1.5845.20851-3.4471.56131-5.1446 1.07377-1.7069.51531-3.2087 1.18111-4.1048 1.99601-.1194.1085-.3042.0998-.4127-.0196-.1086-.1194-.0998-.3042.0196-.4128.9963-.906 2.6029-1.60192 4.329-2.12303 1.7356-.52395 3.6307-.8823 5.2373-1.09371.1599-.02106.3067.09157.3278.25156z" fill="#000" fill-rule="evenodd"/><path clip-rule="evenodd" d="m23.2473 11.8875c-.1211-.1067-.1328-.2913-.0262-.4124 1.4456-1.64106 2.7139-3.49515 3.9405-5.39919.3674-.57025.7316-1.1459 1.0957-1.72147.8477-1.3398 1.6951-2.67917 2.5817-3.948997.0923-.132308.2745-.164679.4068-.072302.1323.092378.1647.274521.0723.40683-.8787 1.258519-1.7145 2.579579-2.5588 3.914109-.3658.57824-.7332 1.15901-1.1064 1.73831-1.2305 1.90992-2.5178 3.79401-3.9933 5.46891-.1066.1211-.2912.1328-.4123.0262z" fill="#000" fill-rule="evenodd"/><path d="m25.5421 26.7764c.6204.6844 4.8658 1.6467 6.949 1.7281-.4505 2.2115-2.0275 7.5009-1.8696 9.3238-1.9516-3.9691-5.6998-11.7362-5.0794-11.0519z" fill="#e5b800"/><path clip-rule="evenodd" d="m33.2124 27.8719c-.0227.1598-.1707.2708-.3304.2481-2.0435-.2912-5.3441-.9444-7.8867-1.7955-.153-.0513-.2355-.2168-.1843-.3699.0512-.153.2168-.2355.3698-.1843 2.4977.8362 5.7609 1.483 7.7836 1.7712.1598.0227.2708.1707.248.3304z" fill="#000" fill-rule="evenodd"/><path clip-rule="evenodd" d="m33.0391 27.4687c.1492.0613.2205.232.1592.3813-.6075 1.4782-1.2281 3.2694-1.6282 4.9969-.4022 1.737-.5719 3.371-.3108 4.5537.0347.1576-.0648.3135-.2224.3483-.1575.0348-.3135-.0647-.3483-.2223-.2902-1.315-.0945-3.0549.3122-4.8115.409-1.7662 1.0411-3.5884 1.657-5.0872.0613-.1493.232-.2205.3813-.1592z" fill="#000" fill-rule="evenodd"/><path clip-rule="evenodd" d="m31.1284 38.0127c-.1527.052-.3187-.0297-.3707-.1825-.7043-2.0704-1.6816-4.093-2.723-6.1044-.3118-.6024-.63-1.2047-.9481-1.807-.7405-1.4019-1.4807-2.8033-2.1411-4.2041-.0688-.146-.0063-.3201.1397-.3889s.3201-.0063.3889.1397c.6545 1.3884 1.3846 2.7706 2.1222 4.167.3196.605.6405 1.2127.9574 1.8246 1.0445 2.0176 2.0384 4.0717 2.7573 6.1849.0519.1528-.0298.3188-.1826.3707z" fill="#000" fill-rule="evenodd"/><path d="m10.5659 10.388c1.4657-.52836 3.2112-.53513 6.4224.8028-3.7464 3.2112-5.771 4.214-6.4224 5.8872h-4.28156s1.338-3.2112 4.28156-6.69z" fill="#ee8625"/><g clip-rule="evenodd" fill="#000" fill-rule="evenodd"><path d="m19.3633 10.5842c-.0465-.1222-.1834-.1835-.3056-.137-1.4971.5703-3.1332 1.7673-4.5266 3.1986-1.3936 1.4314-2.5667 3.1201-3.1183 4.6929-.0433.1234.0216.2586.1451.3019.1234.0433.2586-.0217.3019-.1451.5215-1.4869 1.6469-3.1184 3.0107-4.5193 1.3641-1.4011 2.9442-2.5486 4.3558-3.0863.1222-.0466.1836-.1834.137-.3057z"/><path d="m12.444 10.1001c-.0335.1265.0419.2561.1684.2896 1.6575.4388 3.3177.8676 4.9772 1.2962.4554.1176.9108.2353 1.3661.3531.1266.0327.2559-.0434.2886-.17.0328-.1266-.0433-.2559-.1699-.2886-.4558-.118-.9115-.2357-1.3671-.3534-1.6593-.4285-3.3177-.8569-4.9737-1.29523-.1265-.03347-.2561.0419-.2896.16833z"/><path d="m13.4435 9.44014c-.0808-.10286-.2297-.12073-.3326-.03991-3.31768 2.60677-5.07893 5.77317-6.15346 8.28047-.05153.1202.00417.2594.1244.311.12023.0515.25947-.0042.311-.1244 1.05733-2.4671 2.77846-5.555 6.01076-8.09459.1029-.08082.1207-.22971.0399-.33257z"/><path d="m5.94975 17.501c2.62071 0 5.22765.1184 7.85205.2534.1306.0067.2419-.0937.2487-.2244.0067-.1306-.0938-.2419-.2244-.2487-2.6251-.135-5.2425-.254-7.87635-.254-.13081 0-.23685.1061-.23685.2369s.10604.2368.23685.2368z"/><path d="m20.8168 18.504c.008-.1157.1452-.2048.3064-.199 1.012.0363 2.0216.0531 3.0353.0531.1614 0 .2922.0939.2922.2098 0 .1158-.1308.2097-.2922.2097-1.0228 0-2.0421-.0169-3.0645-.0536-.1612-.0058-.2853-.1043-.2772-.22z"/><path d="m25.1037 16.5529c.1523-.0384.319.0192.3725.1285.2343.4794.3884.9333.3884 1.458 0 .1158-.1308.2098-.2922.2098s-.2922-.094-.2922-.2098c0-.4608-.1337-.8654-.3554-1.3191-.0535-.1093.0267-.229.1789-.2674z"/><path d="m26.5457 18.4991c.0118-.1155.1519-.2023.3128-.1938.7354.0387 1.4694.0528 2.2103.0528.1613 0 .2922.0939.2922.2098 0 .1158-.1309.2097-.2922.2097-.751 0-1.4998-.0142-2.2531-.0539-.1609-.0085-.2818-.1091-.27-.2246z"/><path d="m25.3658 19.0022c.1582-.0228.3122.0509.3438.1645.161.578.236 1.1218.153 1.7176-.0161.1153-.1592.1994-.3198.1879-.1606-.0116-.2777-.1144-.2617-.2296.0756-.5423.009-1.0424-.1445-1.5936-.0317-.1136.071-.2241.2292-.2468z"/><path d="m.678106 27.8536c.008058-.1157.14524-.2048.306405-.199 1.011979.0363 2.021589.0531 3.035349.0531.16137 0 .29218.0939.29218.2098 0 .1158-.13081.2097-.29218.2097-1.02279 0-2.04215-.0169-3.06453-.0536-.161165-.0058-.285283-.1043-.277224-.22z"/><path d="m4.96505 25.9025c.15227-.0383.31901.0192.37244.1285.23431.4794.38842.9333.38842 1.458 0 .1159-.13081.2098-.29218.2098-.16136 0-.29218-.0939-.29218-.2098 0-.4608-.13372-.8654-.35546-1.3191-.05343-.1093.0267-.229.17896-.2674z"/><path d="m6.40705 27.8487c.01181-.1155.15185-.2023.31278-.1938.73544.0387 1.46943.0528 2.21028.0528.16136 0 .29218.0939.29218.2098 0 .1158-.13082.2097-.29218.2097-.75098 0-1.49978-.0142-2.25305-.0539-.16094-.0085-.28182-.109-.27001-.2246z"/><path d="m5.22712 28.3518c.15823-.0227.31216.0509.34381.1645.16102.578.236 1.1218.153 1.7176-.01606.1153-.15924.1994-.3198.1879-.16057-.0116-.27772-.1143-.26166-.2296.07554-.5423.00899-1.0424-.14455-1.5936-.03165-.1136.07097-.2241.2292-.2468z"/><path d="m38.0765 29.293c.0081-.1157.1453-.2048.3064-.199 1.012.0363 2.0216.0532 3.0354.0532.1614 0 .2922.0939.2922.2097 0 .1159-.1308.2098-.2922.2098-1.0228 0-2.0422-.017-3.0645-.0537-.1612-.0058-.2853-.1043-.2773-.22z"/><path d="m42.3635 27.342c.1523-.0384.319.0191.3724.1284.2343.4795.3885.9334.3885 1.4581 0 .1158-.1309.2097-.2922.2097-.1614 0-.2922-.0939-.2922-.2097 0-.4608-.1337-.8655-.3555-1.3191-.0534-.1094.0267-.2291.179-.2674z"/><path d="m43.8055 29.2882c.0118-.1156.1518-.2024.3128-.1939.7354.0388 1.4694.0529 2.2102.0529.1614 0 .2922.0939.2922.2097 0 .1159-.1308.2098-.2922.2098-.7509 0-1.4997-.0143-2.253-.054-.1609-.0085-.2818-.109-.27-.2245z"/><path d="m42.6256 29.7912c.1582-.0227.3121.051.3438.1646.161.578.236 1.1217.153 1.7176-.0161.1153-.1593.1994-.3198.1878-.1606-.0115-.2777-.1143-.2617-.2296.0755-.5423.009-1.0424-.1445-1.5935-.0317-.1136.0709-.2242.2292-.2469z"/><path d="m13.6243 3.65963c.015-.16067.1574-.27879.3181-.26382.6908.06437 1.3535.07313 2.0557.07313.1614 0 .2922.13081.2922.29218s-.1308.29218-.2922.29218c-.7054 0-1.3906-.00863-2.11-.07565-.1606-.01497-.2787-.15735-.2638-.31802z"/><path d="m18.1028.722011c.1585-.030194.3115.073832.3417.232348.1448.760121.2283 1.506831.2283 2.286331 0 .16137-.1308.29218-.2922.29218-.1613 0-.2921-.13081-.2921-.29218 0-.73656-.0789-1.44621-.2181-2.17699-.0301-.158516.0739-.311496.2324-.341689z"/><path d="m19.9494 3.79996c.0195-.16019.1651-.27428.3253-.25483.6902.08381 1.381.15291 2.0767.22248.1606.01606.2777.15924.2617.31981-.0161.16056-.1592.27771-.3198.26165h-.0001c-.6947-.06948-1.3916-.13916-2.0889-.22384-.1602-.01946-.2743-.16508-.2549-.32527z"/><path d="m18.16 4.73441c.1613.00228.2903.13494.288.29629-.0084.58852-.0688 1.11403-.1519 1.67523-.0237.15962-.1722.26985-.3319.2462-.1596-.02364-.2698-.17222-.2462-.33184.0814-.549.1379-1.04598.1457-1.59788.0023-.16135.1349-.29029.2963-.288z"/><path d="m39.1576 3.64396c.0636.14832-.0051.32008-.1534.38365l-1.9562.83837c-.1483.06357-.3201-.00514-.3837-.15346-.0635-.14832.0052-.32009.1535-.38365l1.9562-.83837c.1483-.06357.3201.00514.3836.15346z"/><path d="m38.4187.783649c.1244-.10272.3086-.085105.4113.039344.3357.406637.6139.824437.8932 1.243867.0187.02806.0374.05612.0561.08419.0895.13426.0533.31567-.081.40518s-.3157.05323-.4052-.08104c-.0175-.02629-.035-.05247-.0523-.07853-.2829-.42464-.5456-.81901-.8614-1.20168-.1028-.12445-.0852-.308611.0393-.411331z"/><path d="m41.9884 2.58191c-.2166.09088-.438.18376-.6301.24856-.1529.05158-.3187-.03055-.3702-.18345-.0516-.1529.0305-.31867.1834-.37025.1795-.06053.3588-.13618.5541-.21857.1374-.05798.2828-.11931.4417-.18105.3577-.13901.7586-.26777 1.147-.26777.1613 0 .2922.13081.2922.29217 0 .16137-.1309.29218-.2922.29218-.273 0-.588.09313-.9353.2281-.1229.04775-.2559.10353-.3906.16008z"/><path d="m40.6672 3.99046c.1289-.09709.3121-.07131.4092.05758.3322.44106.5922.87473.8578 1.33354.0809.13965.0332.3184-.1065.39925-.1396.08085-.3184.03319-.3992-.10646-.2636-.45528-.509-.86339-.8189-1.27474-.0971-.12889-.0713-.31209.0576-.40917z"/></g></svg>