<svg width="47" height="40" viewBox="0 0 47 40" fill="none" xmlns="http://www.w3.org/2000/svg">
<path d="M37.8919 15.5676L37.7914 21.2647C42.7143 20.8317 43.9843 19.6515 45.3783 18.0429L45.2911 13.5295L41.323 15.4768L37.8919 15.5676Z" fill="#FF479F"/>
<path fill-rule="evenodd" clip-rule="evenodd" d="M37.0089 21.8505C37.0341 21.6911 37.1838 21.5824 37.3432 21.6076C37.9069 21.697 39.4578 21.8072 41.0805 21.3936C42.698 20.9813 44.3534 20.0594 45.2106 18.1095C45.2755 17.9618 45.4479 17.8947 45.5956 17.9596C45.7434 18.0245 45.8105 18.1969 45.7455 18.3446C44.792 20.5138 42.949 21.5203 41.2248 21.9598C39.5059 22.3979 37.8718 22.2831 37.2517 22.1848C37.0923 22.1595 36.9836 22.0098 37.0089 21.8505Z" fill="black"/>
<path fill-rule="evenodd" clip-rule="evenodd" d="M37.7368 15.8483C37.8981 15.8542 38.024 15.9897 38.0181 16.151C37.9526 17.9374 37.9652 19.1647 37.9813 20.7291C37.9872 21.3034 37.9936 21.9232 37.9968 22.6328C37.9975 22.7942 37.8673 22.9256 37.7059 22.9263C37.5445 22.927 37.4131 22.7968 37.4124 22.6354C37.4093 21.9333 37.403 21.3173 37.3971 20.7445C37.3809 19.175 37.3681 17.9306 37.4341 16.1296C37.44 15.9683 37.5755 15.8424 37.7368 15.8483Z" fill="black"/>
<path fill-rule="evenodd" clip-rule="evenodd" d="M36.9681 16.1C37.0001 15.9418 37.1543 15.8396 37.3124 15.8716C40.0076 16.4171 42.2666 15.8193 45.0682 14.0386C45.2044 13.952 45.3849 13.9922 45.4715 14.1284C45.5581 14.2646 45.5178 14.4452 45.3816 14.5317C42.4942 16.3671 40.0818 17.0283 37.1965 16.4443C37.0383 16.4123 36.9361 16.2581 36.9681 16.1Z" fill="black"/>
<path fill-rule="evenodd" clip-rule="evenodd" d="M44.9613 13.7691C45.1223 13.7582 45.2616 13.88 45.2724 14.041C45.3311 14.913 45.3642 15.7384 45.3972 16.5594L45.3973 16.5611C45.4303 17.3836 45.4632 18.2019 45.5213 19.0654C45.5321 19.2264 45.4104 19.3657 45.2494 19.3765C45.0884 19.3874 44.9491 19.2656 44.9382 19.1046C44.8796 18.2326 44.8464 17.4072 44.8135 16.5862L44.8134 16.5845C44.7804 15.762 44.7475 14.9438 44.6894 14.0802C44.6786 13.9192 44.8003 13.7799 44.9613 13.7691Z" fill="black"/>
<path d="M11.0469 32.6147L13.8868 37.5546C17.8883 34.6546 18.3719 32.9896 18.7417 30.8934L16.3487 27.0656L13.9442 30.7746L11.0469 32.6147Z" fill="#00A390"/>
<path fill-rule="evenodd" clip-rule="evenodd" d="M13.519 38.457C13.4588 38.3073 13.5314 38.1371 13.6811 38.0769C14.2107 37.8641 15.5979 37.1621 16.7778 35.9737C17.9539 34.7892 18.9008 33.1479 18.6348 31.0346C18.6146 30.8745 18.728 30.7284 18.8882 30.7082C19.0483 30.6881 19.1944 30.8015 19.2145 30.9616C19.5105 33.3126 18.4462 35.1228 17.1925 36.3854C15.9427 37.6442 14.4816 38.385 13.899 38.6191C13.7493 38.6793 13.5792 38.6067 13.519 38.457Z" fill="black"/>
<path fill-rule="evenodd" clip-rule="evenodd" d="M11.0594 32.9332C11.2008 32.8554 11.3785 32.907 11.4562 33.0484C12.3176 34.6148 12.9588 35.6613 13.7761 36.9953C14.0762 37.4851 14.4 38.0136 14.7672 38.6209C14.8506 38.759 14.8064 38.9386 14.6683 39.0221C14.5302 39.1056 14.3506 39.0613 14.2671 38.9232C13.9038 38.3224 13.5819 37.7971 13.2827 37.3087C12.4627 35.9703 11.8126 34.9092 10.9442 33.33C10.8664 33.1886 10.918 33.0109 11.0594 32.9332Z" fill="black"/>
<path fill-rule="evenodd" clip-rule="evenodd" d="M10.5283 33.5411C10.4745 33.389 10.5543 33.222 10.7064 33.1683C13.2991 32.252 14.9303 30.5789 16.4195 27.612C16.4919 27.4678 16.6675 27.4096 16.8117 27.482C16.9559 27.5544 17.0142 27.7299 16.9418 27.8742C15.4069 30.932 13.6767 32.7384 10.9011 33.7192C10.749 33.773 10.582 33.6932 10.5283 33.5411Z" fill="black"/>
<path fill-rule="evenodd" clip-rule="evenodd" d="M16.19 27.4355C16.3226 27.3435 16.5046 27.3764 16.5966 27.509C17.0949 28.2271 17.5472 28.9182 17.9972 29.6057L17.9981 29.6072C18.4489 30.296 18.8974 30.9811 19.3908 31.6922C19.4828 31.8248 19.4499 32.0069 19.3173 32.0988C19.1847 32.1908 19.0026 32.1579 18.9107 32.0253C18.4124 31.3072 17.9601 30.6161 17.5101 29.9286L17.5092 29.9272C17.0584 29.2384 16.6099 28.5532 16.1165 27.8421C16.0245 27.7095 16.0574 27.5275 16.19 27.4355Z" fill="black"/>
<path d="M30.2178 1.4497C29.9328 2.32834 31.2103 6.48984 32.1761 8.33734C30.0336 9.0468 24.6607 10.3105 23.158 11.3544C25.63 7.68675 30.5028 0.571054 30.2178 1.4497Z" fill="#00ADE4"/>
<path fill-rule="evenodd" clip-rule="evenodd" d="M33.0814 8.65146C32.9315 8.7112 32.7616 8.63811 32.7019 8.48821C31.9377 6.57072 30.8622 3.38264 30.3355 0.753618C30.3038 0.595395 30.4064 0.441436 30.5646 0.409741C30.7228 0.378046 30.8768 0.480617 30.9085 0.63884C31.4258 3.22147 32.4883 6.37392 33.2447 8.27188C33.3044 8.42178 33.2313 8.59172 33.0814 8.65146Z" fill="black"/>
<path fill-rule="evenodd" clip-rule="evenodd" d="M33.3457 8.29972C33.3667 8.45971 33.2541 8.60647 33.0941 8.62752C31.5096 8.83603 29.647 9.18883 27.9495 9.70129C26.2426 10.2166 24.7408 10.8824 23.8447 11.6973C23.7253 11.8058 23.5405 11.7971 23.432 11.6777C23.3234 11.5583 23.3322 11.3735 23.4516 11.2649C24.4479 10.3589 26.0545 9.66298 27.7806 9.14187C29.5162 8.61792 31.4113 8.25957 33.0179 8.04816C33.1778 8.0271 33.3246 8.13973 33.3457 8.29972Z" fill="black"/>
<path fill-rule="evenodd" clip-rule="evenodd" d="M23.2473 11.8875C23.1262 11.7808 23.1145 11.5962 23.2211 11.4751C24.6667 9.83404 25.935 7.97995 27.1616 6.07591C27.529 5.50566 27.8932 4.93001 28.2573 4.35444C29.105 3.01464 29.9524 1.67527 30.839 0.405443C30.9313 0.273135 31.1135 0.240764 31.2458 0.333141C31.3781 0.425519 31.4105 0.607662 31.3181 0.739971C30.4394 1.99849 29.6036 3.31955 28.7593 4.65408C28.3935 5.23232 28.0261 5.81309 27.6529 6.39239C26.4224 8.30231 25.1351 10.1864 23.6596 11.8613C23.553 11.9824 23.3684 11.9941 23.2473 11.8875Z" fill="black"/>
<path d="M25.5421 26.7764C26.1625 27.4608 30.4079 28.4231 32.4911 28.5045C32.0406 30.716 30.4636 36.0054 30.6215 37.8283C28.6699 33.8592 24.9217 26.0921 25.5421 26.7764Z" fill="#E5B800"/>
<path fill-rule="evenodd" clip-rule="evenodd" d="M33.2124 27.8719C33.1897 28.0317 33.0417 28.1427 32.882 28.12C30.8385 27.8288 27.5379 27.1756 24.9953 26.3245C24.8423 26.2732 24.7598 26.1077 24.811 25.9546C24.8622 25.8016 25.0278 25.7191 25.1808 25.7703C27.6785 26.6065 30.9417 27.2533 32.9644 27.5415C33.1242 27.5642 33.2352 27.7122 33.2124 27.8719Z" fill="black"/>
<path fill-rule="evenodd" clip-rule="evenodd" d="M33.0391 27.4687C33.1883 27.53 33.2596 27.7007 33.1983 27.85C32.5908 29.3282 31.9702 31.1194 31.5701 32.8469C31.1679 34.5839 30.9982 36.2179 31.2593 37.4006C31.294 37.5582 31.1945 37.7141 31.0369 37.7489C30.8794 37.7837 30.7234 37.6842 30.6886 37.5266C30.3984 36.2116 30.5941 34.4717 31.0008 32.7151C31.4098 30.9489 32.0419 29.1267 32.6578 27.6279C32.7191 27.4786 32.8898 27.4074 33.0391 27.4687Z" fill="black"/>
<path fill-rule="evenodd" clip-rule="evenodd" d="M31.1284 38.0127C30.9757 38.0647 30.8097 37.983 30.7577 37.8302C30.0534 35.7598 29.0761 33.7372 28.0347 31.7258C27.7229 31.1234 27.4047 30.5211 27.0866 29.9188C26.3461 28.5169 25.6059 27.1155 24.9455 25.7147C24.8767 25.5687 24.9392 25.3946 25.0852 25.3258C25.2312 25.257 25.4053 25.3195 25.4741 25.4655C26.1286 26.8539 26.8587 28.2361 27.5963 29.6325C27.9159 30.2375 28.2368 30.8452 28.5537 31.4571C29.5982 33.4747 30.5921 35.5288 31.311 37.642C31.3629 37.7948 31.2812 37.9608 31.1284 38.0127Z" fill="black"/>
<path d="M10.5659 10.388C12.0316 9.85964 13.7771 9.85287 16.9883 11.1908C13.2419 14.402 11.2173 15.4048 10.5659 17.078H6.28434C6.28434 17.078 7.62234 13.8668 10.5659 10.388Z" fill="#EE8625"/>
<path fill-rule="evenodd" clip-rule="evenodd" d="M19.3633 10.5842C19.3168 10.462 19.1799 10.4007 19.0577 10.4472C17.5606 11.0175 15.9245 12.2145 14.5311 13.6458C13.1375 15.0772 11.9644 16.7659 11.4128 18.3387C11.3695 18.4621 11.4344 18.5973 11.5579 18.6406C11.6813 18.6839 11.8165 18.6189 11.8598 18.4955C12.3813 17.0086 13.5067 15.3771 14.8705 13.9762C16.2346 12.5751 17.8147 11.4276 19.2263 10.8899C19.3485 10.8433 19.4099 10.7065 19.3633 10.5842Z" fill="black"/>
<path fill-rule="evenodd" clip-rule="evenodd" d="M12.444 10.1001C12.4105 10.2266 12.4859 10.3562 12.6124 10.3897C14.2699 10.8285 15.9301 11.2573 17.5896 11.6859C18.045 11.8035 18.5004 11.9212 18.9557 12.039C19.0823 12.0717 19.2116 11.9956 19.2443 11.869C19.2771 11.7424 19.201 11.6131 19.0744 11.5804C18.6186 11.4624 18.1629 11.3447 17.7073 11.227C16.048 10.7985 14.3896 10.3701 12.7336 9.93177C12.6071 9.8983 12.4775 9.97367 12.444 10.1001Z" fill="black"/>
<path fill-rule="evenodd" clip-rule="evenodd" d="M13.4435 9.44014C13.3627 9.33728 13.2138 9.31941 13.1109 9.40023C9.79322 12.007 8.03197 15.1734 6.95744 17.6807C6.90591 17.8009 6.96161 17.9401 7.08184 17.9917C7.20207 18.0432 7.34131 17.9875 7.39284 17.8673C8.45017 15.4002 10.1713 12.3123 13.4036 9.77271C13.5065 9.69189 13.5243 9.543 13.4435 9.44014Z" fill="black"/>
<path fill-rule="evenodd" clip-rule="evenodd" d="M5.94975 17.501C8.57046 17.501 11.1774 17.6194 13.8018 17.7544C13.9324 17.7611 14.0437 17.6607 14.0505 17.53C14.0572 17.3994 13.9567 17.2881 13.8261 17.2813C11.201 17.1463 8.5836 17.0273 5.94975 17.0273C5.81894 17.0273 5.7129 17.1334 5.7129 17.2642C5.7129 17.395 5.81894 17.501 5.94975 17.501Z" fill="black"/>
<path fill-rule="evenodd" clip-rule="evenodd" d="M20.8168 18.504C20.8248 18.3883 20.962 18.2992 21.1232 18.305C22.1352 18.3413 23.1448 18.3581 24.1585 18.3581C24.3199 18.3581 24.4507 18.452 24.4507 18.5679C24.4507 18.6837 24.3199 18.7776 24.1585 18.7776C23.1357 18.7776 22.1164 18.7607 21.094 18.724C20.9328 18.7182 20.8087 18.6197 20.8168 18.504Z" fill="black"/>
<path fill-rule="evenodd" clip-rule="evenodd" d="M25.1037 16.5529C25.256 16.5145 25.4227 16.5721 25.4762 16.6814C25.7105 17.1608 25.8646 17.6147 25.8646 18.1394C25.8646 18.2552 25.7338 18.3492 25.5724 18.3492C25.411 18.3492 25.2802 18.2552 25.2802 18.1394C25.2802 17.6786 25.1465 17.274 24.9248 16.8203C24.8713 16.711 24.9515 16.5913 25.1037 16.5529Z" fill="black"/>
<path fill-rule="evenodd" clip-rule="evenodd" d="M26.5457 18.4991C26.5575 18.3836 26.6976 18.2968 26.8585 18.3053C27.5939 18.344 28.3279 18.3581 29.0688 18.3581C29.2301 18.3581 29.361 18.452 29.361 18.5679C29.361 18.6837 29.2301 18.7776 29.0688 18.7776C28.3178 18.7776 27.569 18.7634 26.8157 18.7237C26.6548 18.7152 26.5339 18.6146 26.5457 18.4991Z" fill="black"/>
<path fill-rule="evenodd" clip-rule="evenodd" d="M25.3658 19.0022C25.524 18.9794 25.678 19.0531 25.7096 19.1667C25.8706 19.7447 25.9456 20.2885 25.8626 20.8843C25.8465 20.9996 25.7034 21.0837 25.5428 21.0722C25.3822 21.0606 25.2651 20.9578 25.2811 20.8426C25.3567 20.3003 25.2901 19.8002 25.1366 19.249C25.1049 19.1354 25.2076 19.0249 25.3658 19.0022Z" fill="black"/>
<path fill-rule="evenodd" clip-rule="evenodd" d="M0.678106 27.8536C0.686164 27.7379 0.823346 27.6488 0.984511 27.6546C1.99649 27.6909 3.0061 27.7077 4.01986 27.7077C4.18123 27.7077 4.31204 27.8016 4.31204 27.9175C4.31204 28.0333 4.18123 28.1272 4.01986 28.1272C2.99707 28.1272 1.97771 28.1103 0.95533 28.0736C0.794165 28.0678 0.670047 27.9693 0.678106 27.8536Z" fill="black"/>
<path fill-rule="evenodd" clip-rule="evenodd" d="M4.96505 25.9025C5.11732 25.8642 5.28406 25.9217 5.33749 26.031C5.5718 26.5104 5.72591 26.9643 5.72591 27.489C5.72591 27.6049 5.5951 27.6988 5.43373 27.6988C5.27237 27.6988 5.14155 27.6049 5.14155 27.489C5.14155 27.0282 5.00783 26.6236 4.78609 26.1699C4.73266 26.0606 4.81279 25.9409 4.96505 25.9025Z" fill="black"/>
<path fill-rule="evenodd" clip-rule="evenodd" d="M6.40705 27.8487C6.41886 27.7332 6.5589 27.6464 6.71983 27.6549C7.45527 27.6936 8.18926 27.7077 8.93011 27.7077C9.09147 27.7077 9.22229 27.8016 9.22229 27.9175C9.22229 28.0333 9.09147 28.1272 8.93011 28.1272C8.17913 28.1272 7.43033 28.113 6.67706 28.0733C6.51612 28.0648 6.39524 27.9643 6.40705 27.8487Z" fill="black"/>
<path fill-rule="evenodd" clip-rule="evenodd" d="M5.22712 28.3518C5.38535 28.3291 5.53928 28.4027 5.57093 28.5163C5.73195 29.0943 5.80693 29.6381 5.72393 30.2339C5.70787 30.3492 5.56469 30.4333 5.40413 30.4218C5.24356 30.4102 5.12641 30.3075 5.14247 30.1922C5.21801 29.6499 5.15146 29.1498 4.99792 28.5986C4.96627 28.485 5.06889 28.3745 5.22712 28.3518Z" fill="black"/>
<path fill-rule="evenodd" clip-rule="evenodd" d="M38.0765 29.293C38.0846 29.1773 38.2218 29.0882 38.3829 29.094C39.3949 29.1303 40.4045 29.1472 41.4183 29.1472C41.5797 29.1472 41.7105 29.2411 41.7105 29.3569C41.7105 29.4728 41.5797 29.5667 41.4183 29.5667C40.3955 29.5667 39.3761 29.5497 38.3538 29.513C38.1926 29.5072 38.0685 29.4087 38.0765 29.293Z" fill="black"/>
<path fill-rule="evenodd" clip-rule="evenodd" d="M42.3635 27.342C42.5158 27.3036 42.6825 27.3611 42.7359 27.4704C42.9702 27.9499 43.1244 28.4038 43.1244 28.9285C43.1244 29.0443 42.9935 29.1382 42.8322 29.1382C42.6708 29.1382 42.54 29.0443 42.54 28.9285C42.54 28.4677 42.4063 28.063 42.1845 27.6094C42.1311 27.5 42.2112 27.3803 42.3635 27.342Z" fill="black"/>
<path fill-rule="evenodd" clip-rule="evenodd" d="M43.8055 29.2882C43.8173 29.1726 43.9573 29.0858 44.1183 29.0943C44.8537 29.1331 45.5877 29.1472 46.3285 29.1472C46.4899 29.1472 46.6207 29.2411 46.6207 29.3569C46.6207 29.4728 46.4899 29.5667 46.3285 29.5667C45.5776 29.5667 44.8288 29.5524 44.0755 29.5127C43.9146 29.5042 43.7937 29.4037 43.8055 29.2882Z" fill="black"/>
<path fill-rule="evenodd" clip-rule="evenodd" d="M42.6256 29.7912C42.7838 29.7685 42.9377 29.8422 42.9694 29.9558C43.1304 30.5338 43.2054 31.0775 43.1224 31.6734C43.1063 31.7887 42.9631 31.8728 42.8026 31.8612C42.642 31.8497 42.5249 31.7469 42.5409 31.6316C42.6164 31.0893 42.5499 30.5892 42.3964 30.0381C42.3647 29.9245 42.4673 29.8139 42.6256 29.7912Z" fill="black"/>
<path fill-rule="evenodd" clip-rule="evenodd" d="M13.6243 3.65963C13.6393 3.49896 13.7817 3.38084 13.9424 3.39581C14.6332 3.46018 15.2959 3.46894 15.9981 3.46894C16.1595 3.46894 16.2903 3.59975 16.2903 3.76112C16.2903 3.92249 16.1595 4.0533 15.9981 4.0533C15.2927 4.0533 14.6075 4.04467 13.8881 3.97765C13.7275 3.96268 13.6094 3.8203 13.6243 3.65963Z" fill="black"/>
<path fill-rule="evenodd" clip-rule="evenodd" d="M18.1028 0.722011C18.2613 0.691817 18.4143 0.795843 18.4445 0.954359C18.5893 1.71448 18.6728 2.46119 18.6728 3.24069C18.6728 3.40206 18.542 3.53287 18.3806 3.53287C18.2193 3.53287 18.0885 3.40206 18.0885 3.24069C18.0885 2.50413 18.0096 1.79448 17.8704 1.0637C17.8403 0.905184 17.9443 0.752204 18.1028 0.722011Z" fill="black"/>
<path fill-rule="evenodd" clip-rule="evenodd" d="M19.9494 3.79996C19.9689 3.63977 20.1145 3.52568 20.2747 3.54513C20.9649 3.62894 21.6557 3.69804 22.3514 3.76761C22.512 3.78367 22.6291 3.92685 22.6131 4.08742C22.597 4.24798 22.4539 4.36513 22.2933 4.34907L22.2932 4.34907C21.5985 4.27959 20.9016 4.20991 20.2043 4.12523C20.0441 4.10577 19.93 3.96015 19.9494 3.79996Z" fill="black"/>
<path fill-rule="evenodd" clip-rule="evenodd" d="M18.16 4.73441C18.3213 4.73669 18.4503 4.86935 18.448 5.0307C18.4396 5.61922 18.3792 6.14473 18.2961 6.70593C18.2724 6.86555 18.1239 6.97578 17.9642 6.95213C17.8046 6.92849 17.6944 6.77991 17.718 6.62029C17.7994 6.07129 17.8559 5.57431 17.8637 5.02241C17.866 4.86106 17.9986 4.73212 18.16 4.73441Z" fill="black"/>
<path fill-rule="evenodd" clip-rule="evenodd" d="M39.1576 3.64396C39.2212 3.79228 39.1525 3.96404 39.0042 4.02761L37.048 4.86598C36.8997 4.92955 36.7279 4.86084 36.6643 4.71252C36.6008 4.5642 36.6695 4.39243 36.8178 4.32887L38.774 3.4905C38.9223 3.42693 39.0941 3.49564 39.1576 3.64396Z" fill="black"/>
<path fill-rule="evenodd" clip-rule="evenodd" d="M38.4187 0.783649C38.5431 0.680929 38.7273 0.698544 38.83 0.822993C39.1657 1.22963 39.4439 1.64743 39.7232 2.06686C39.7419 2.09492 39.7606 2.12298 39.7793 2.15105C39.8688 2.28531 39.8326 2.46672 39.6983 2.55623C39.564 2.64574 39.3826 2.60946 39.2931 2.47519C39.2756 2.4489 39.2581 2.42272 39.2408 2.39666C38.9579 1.97202 38.6952 1.57765 38.3794 1.19498C38.2766 1.07053 38.2942 0.886369 38.4187 0.783649Z" fill="black"/>
<path fill-rule="evenodd" clip-rule="evenodd" d="M41.9884 2.58191C41.7718 2.67279 41.5504 2.76567 41.3583 2.83047C41.2054 2.88205 41.0396 2.79992 40.9881 2.64702C40.9365 2.49412 41.0186 2.32835 41.1715 2.27677C41.351 2.21624 41.5303 2.14059 41.7256 2.0582C41.863 2.00022 42.0084 1.93889 42.1673 1.87715C42.525 1.73814 42.9259 1.60938 43.3143 1.60938C43.4756 1.60938 43.6065 1.74019 43.6065 1.90155C43.6065 2.06292 43.4756 2.19373 43.3143 2.19373C43.0413 2.19373 42.7263 2.28686 42.379 2.42183C42.2561 2.46958 42.1231 2.52536 41.9884 2.58191Z" fill="black"/>
<path fill-rule="evenodd" clip-rule="evenodd" d="M40.6672 3.99046C40.7961 3.89337 40.9793 3.91915 41.0764 4.04804C41.4086 4.4891 41.6686 4.92277 41.9342 5.38158C42.0151 5.52123 41.9674 5.69998 41.8277 5.78083C41.6881 5.86168 41.5093 5.81402 41.4285 5.67437C41.1649 5.21909 40.9195 4.81098 40.6096 4.39963C40.5125 4.27074 40.5383 4.08754 40.6672 3.99046Z" fill="black"/>
</svg>
