<svg fill="none" height="200" width="320" xmlns="http://www.w3.org/2000/svg"><path clip-rule="evenodd" d="m251.299 149.208c-.699-1.196-1.677-3.017-3.051-5.615-.129-.244-.036-.547.208-.676s.547-.036.676.208c1.376 2.602 2.344 4.404 3.031 5.578.342.585.606 1.002.811 1.28.005-.049.01-.103.015-.16.021-.266.036-.581.054-.946.003-.078.007-.158.011-.24.023-.463.051-.987.1-1.547.196-2.221.728-5.109 2.663-7.219 1.966-2.144 5.271-3.372 10.751-2.506.273.043.459.299.416.572s-.299.459-.572.416c-5.27-.833-8.19.376-9.858 2.194-1.7 1.853-2.212 4.452-2.404 6.631-.047.54-.075 1.048-.097 1.508-.004.079-.008.156-.011.232-.018.366-.034.702-.057.985-.026.328-.066.652-.155.889-.044.116-.127.288-.297.405-.206.142-.438.138-.624.066-.159-.061-.291-.171-.395-.274-.109-.109-.223-.248-.342-.408-.237-.322-.524-.777-.873-1.373zm1.588 1.248s.001-.002.003-.005c-.002.003-.003.005-.003.005z" fill="#000" fill-rule="evenodd"/><path clip-rule="evenodd" d="m245.9 140.446c-2.291 3.592-2.074 7.026-.475 9.558 1.615 2.558 4.674 4.255 8.165 4.255 4.997 0 8.421-2.753 9.881-6.029 1.467-3.293.937-7.046-1.882-9.172-5.022-3.766-11.987-3.434-15.689 1.388zm-.807-.591c4.1-5.362 11.725-5.625 17.097-1.596l.001.001c3.281 2.474 3.8 6.771 2.193 10.377-1.615 3.625-5.391 6.622-10.794 6.622-3.809 0-7.2-1.853-9.01-4.721-1.824-2.888-2.008-6.747.489-10.649.007-.011.015-.023.024-.034z" fill="#000" fill-rule="evenodd"/><path clip-rule="evenodd" d="m273.597 120.208c-.699-1.196-1.677-3.017-3.051-5.615-.129-.244-.036-.547.208-.676s.547-.036.676.208c1.376 2.602 2.344 4.404 3.031 5.578.342.585.606 1.002.811 1.28.005-.049.01-.103.014-.16.022-.266.037-.581.054-.946.004-.078.008-.158.012-.24.023-.463.051-.987.1-1.547.196-2.221.728-5.109 2.663-7.219 1.966-2.144 5.271-3.372 10.751-2.506.273.043.459.299.416.572-.044.273-.3.459-.572.416-5.27-.833-8.191.376-9.858 2.194-1.7 1.853-2.212 4.452-2.404 6.631-.047.54-.075 1.048-.097 1.508-.004.079-.008.156-.011.232-.018.366-.034.702-.057.985-.026.328-.066.652-.155.889-.044.116-.127.288-.297.405-.206.142-.439.138-.624.066-.159-.061-.291-.171-.395-.274-.11-.109-.223-.248-.342-.408-.237-.322-.524-.777-.873-1.373zm1.588 1.248s.001-.002.002-.005c-.001.003-.002.005-.002.005z" fill="#000" fill-rule="evenodd"/><path clip-rule="evenodd" d="m268.198 111.446c-2.291 3.592-2.074 7.026-.475 9.558 1.614 2.558 4.674 4.255 8.165 4.255 4.996 0 8.421-2.753 9.881-6.029 1.467-3.293.937-7.046-1.882-9.172-5.022-3.766-11.987-3.434-15.689 1.388zm-.807-.591c4.1-5.362 11.725-5.625 17.097-1.596l.001.001c3.281 2.474 3.8 6.771 2.193 10.377-1.615 3.625-5.391 6.622-10.794 6.622-3.809 0-7.2-1.853-9.01-4.721-1.824-2.888-2.008-6.747.489-10.649.007-.011.015-.023.024-.034z" fill="#000" fill-rule="evenodd"/><path d="m193.07 63.2586c6.845 1.7715 26.768 4.6626 27.883 4.586 5.31-7.5364 31.5-31.1066 15.323-44.5336-26.018-21.59378-48.291-9.7549-53.884-4.5944-6.933 6.3975-13.472 32.3034-11.935 35.1116 1.538 2.8082 15.767 7.659 22.613 9.4304z" fill="#a2e29b"/><path clip-rule="evenodd" d="m194.971 12.2889c9.086-2.53485 19.895-.9139 30.451 3.9397 6.371 2.9289 10.574 5.9705 13.129 9.0819 2.544 3.0973 3.467 6.2764 3.259 9.5361-.209 3.2789-1.565 6.6771-3.651 10.1841-2.085 3.5048-4.878 7.0836-7.922 10.7216-1.337 1.5967-2.723 3.2059-4.117 4.8244-4.932 5.7268-9.964 11.5694-13.246 17.386-2.111 3.7409-3.525 7.5129-3.72 11.2807-.195 3.7818.84 7.5254 3.567 11.1886.165.222.478.268.7.103.221-.165.267-.478.102-.6998-2.592-3.4822-3.553-6.9976-3.37-10.5402.184-3.5566 1.523-7.1745 3.592-10.8409 3.228-5.7214 8.169-11.4593 13.09-17.1739 1.405-1.6309 2.808-3.2599 4.168-4.8861 3.053-3.6476 5.888-7.2761 8.016-10.8521 2.126-3.5739 3.566-7.1303 3.789-10.6318.224-3.5207-.785-6.9477-3.484-10.2344-2.688-3.2727-7.04-6.393-13.484-9.3558-10.696-4.9177-21.754-6.61206-31.137-3.9943-9.412 2.6256-17.066 9.5707-20.941 21.7671-5.885 18.5249-6.707 39.0538-.535 57.4498.088.2618.371.4029.633.315.262-.0878.403-.3713.315-.6331-6.094-18.1623-5.292-38.4709.54-56.8289 3.782-11.9041 11.198-18.5796 20.256-21.1067z" fill="#000" fill-rule="evenodd"/><path d="m184.639 60.1511c13.513 5.2899 20.079 6.0788 33.434 8.0756 1.635-.25 3.955-.5719 3.099-2.1122-1.366-2.4579-8.343-4.8413-10.976-5.9395-8.336-3.4765-10.004-3.854-18.592-6.3919-5.489-1.622-13.949-4.4685-19.069-3.6729-2.076.3227-2.046 1.9957-.495 3.4569 3.107 2.9279 8.48 4.9713 12.599 6.584z" fill="#4dc952"/><g clip-rule="evenodd" fill-rule="evenodd"><path d="m211.861 60.3011c-.575-.2256-1.079-.4233-1.473-.5875-7.534-3.1421-9.651-3.7647-16.28-5.7141-.729-.2142-1.511-.4445-2.362-.6958-.601-.1775-1.239-.3704-1.907-.572-2.365-.7147-5.095-1.5393-7.793-2.1781-3.446-.8163-6.924-1.3513-9.587-.9374-.58.09-1.063.2816-1.419.5838-.365.3098-.57.7154-.611 1.1666-.079.867.448 1.7917 1.268 2.5645 1.609 1.5163 3.783 2.7855 6.046 3.872 2.119 1.017 4.347 1.8882 6.307 2.6543.137.0536.272.1067.407.1593 12.835 5.0246 19.447 6.0079 31.429 7.7899.206.0305.412.0612.621.0922.003.0222.008.0445.014.0667.076.2655.353.4191.618.3432.215-.0614.533-.1145.934-.1763.257.0384.516.0772.777.1164.244.0368.474-.1101.549-.3372.484-.0971.966-.2232 1.362-.401.378-.1694.768-.4243.967-.8316.217-.4424.147-.9293-.119-1.4074-.402-.7234-1.179-1.3878-2.082-1.9848-.917-.6058-2.025-1.1805-3.157-1.7055-1.56-.723-3.214-1.3721-4.509-1.8802zm6.211 7.42c-.696-.104-1.373-.2047-2.033-.3029-11.969-1.78-18.489-2.7497-31.218-7.7327-.132-.0519-.266-.1042-.401-.1569-1.965-.7685-4.16-1.6269-6.244-2.627-2.23-1.0703-4.295-2.2867-5.794-3.6983-.73-.6885-.995-1.3309-.957-1.7463.017-.1901.097-.3546.262-.4948.175-.148.466-.2866.925-.3579 2.456-.3817 5.768.1087 9.204.9223 2.665.6311 5.354 1.4435 7.717 2.1571.672.2032 1.318.3983 1.929.579.854.2521 1.638.4828 2.368.6973 6.61 1.944 8.689 2.5553 16.173 5.6765.426.1775.95.3833 1.539.6143 1.284.5035 2.874 1.127 4.407 1.8377 1.112.5154 2.169 1.066 3.027 1.6327.871.5754 1.478 1.1307 1.759 1.6362.162.292.124.423.095.482-.046.0941-.178.2241-.478.359-.583.2619-1.456.3967-2.28.5227z" fill="#000"/><path d="m219.221 63.1996c-.061-.2694-.329-.4387-.598-.3781-1.429.3214-2.852.7045-4.262 1.0841-.661.1783-1.32.3557-1.976.5257-2.064.5352-4.119 1.0032-6.22 1.2229-.274.0288-.474.2747-.445.5493.029.2747.275.474.549.4453 2.176-.2276 4.288-.7106 6.367-1.2495.675-.1751 1.345-.3554 2.011-.535 1.399-.3766 2.786-.7503 4.195-1.0672.27-.0605.439-.3281.379-.5975z" fill="#000"/><path d="m211.831 60.5695c-.051-.2714-.312-.45-.584-.399-4.785.8997-9.586 2.303-14.221 3.6893-.265.0791-.415.3578-.336.6223.079.2646.358.4149.622.3358 4.639-1.3872 9.393-2.7758 14.12-3.6646.272-.0511.45-.3124.399-.5838z" fill="#000"/><path d="m205.177 57.0782c-.089-.2611-.374-.4001-.635-.3104-4.006 1.3763-8 2.3842-12.187 2.9791-1.667.2369-3.278.568-4.899.9791-.268.0679-.429.3399-.362.6075.068.2677.34.4297.608.3618 1.591-.4036 3.167-.7272 4.794-.9583 4.257-.6048 8.312-1.629 12.371-3.0234.261-.0898.4-.3742.31-.6354z" fill="#000"/><path d="m197.939 55.2022c-.056-.2702-.322-.4432-.592-.3863-3.588.7552-7.186 1.2462-10.829 1.7433-.431.0587-.862.1175-1.293.1768-1.768.243-3.559.5237-5.302 1.0889-.262.0851-.406.3671-.321.6298s.367.4066.63.3214c1.651-.5355 3.365-.8069 5.129-1.0494.431-.0592.862-.1181 1.293-.1769 3.638-.4963 7.273-.9922 10.899-1.7553.27-.0569.443-.3221.386-.5923z" fill="#000"/><path d="m187.677 52.7148c-.027-.2747-.272-.4752-.547-.4476-4.842.4852-9.631 1.208-14.411 2.0736-.271.0492-.452.3094-.403.5811.05.2718.31.4521.582.4029 4.76-.8622 9.522-1.5807 14.332-2.0626.274-.0276.475-.2726.447-.5474z" fill="#000"/><path d="m179.344 86.2578c.169.2545.101.5982-.154.7678-.768.5124-1.555 1.2956-2.148 2.0863-.295.3937-.534.7775-.696 1.1174-.167.351-.231.6091-.231.765 0 .3058-.248.5537-.554.5537s-.554-.2479-.554-.5537c0-.3977.144-.8317.34-1.242.201-.4214.482-.8681.809-1.3049.653-.8703 1.527-1.7481 2.42-2.3431.254-.1696.598-.1009.768.1535z" fill="#000"/><path d="m174.78 78.8627c.278-.1259.606-.0019.732.2768.955 2.1147 1.909 4.2364 2.82 6.3784.028.0679.059.1385.091.2115.164.3759.356.8151.449 1.2807.06.2999-.134.5915-.434.6515s-.591-.1345-.651-.4343c-.068-.3383-.203-.6486-.365-1.0227-.035-.0812-.072-.1653-.11-.2535-.905-2.1294-1.854-4.2408-2.809-6.356-.126-.2787-.002-.6066.277-.7324z" fill="#000"/><path d="m185.231 75.3761c.293-.0871.602.0799.689.373.535 1.8007 1.036 3.6029 1.526 5.4113.08.2952-.095.5992-.39.6792-.295.0799-.599-.0946-.679-.3897-.488-1.8039-.987-3.5966-1.519-5.3853-.087-.2931.08-.6014.373-.6885z" fill="#000"/><path d="m186.081 81.9862c.006-.3057.259-.5486.565-.5425 2.35.047 4.939.8459 6.731 2.4998.225.2075.239.5577.032.7824-.208.2247-.558.2387-.783.0313-1.546-1.4274-3.852-2.1633-6.003-2.2064-.305-.0061-.548-.2589-.542-.5646z" fill="#000"/><path d="m197.432 76.6737c.265.1534.355.4922.201.7567-1.59 2.7423-3.217 5.4605-4.849 8.1742-.157.2621-.498.3468-.76.1892s-.346-.4977-.189-.7598c1.632-2.7131 3.255-5.4249 4.84-8.1591.154-.2646.493-.3546.757-.2012z" fill="#000"/><path d="m205.644 86.2538c.248.1784.305.5244.127.7727-.04.0557-.08.1114-.121.1671-1.425 1.9828-2.851 3.9677-4.314 5.931-.183.2452-.53.2958-.775.1131s-.296-.5296-.113-.7748c1.457-1.9555 2.879-3.9336 4.306-5.9187.039-.0546.078-.1093.117-.164.179-.2483.525-.3049.773-.1264z" fill="#000"/><path d="m210.622 84.7273c.25.1754.311.5206.136.7711-1.028 1.4687-2.154 2.8834-3.263 4.2781-.305.3831-.609.7646-.909 1.1454-.189.2402-.537.2815-.777.0922-.24-.1892-.282-.5373-.092-.7775.307-.3901.615-.7778.923-1.1646 1.106-1.3909 2.204-2.7705 3.21-4.2086.176-.2505.521-.3114.772-.1361z" fill="#000"/><path d="m205.929 90.5745c.232-.1993.581-.173.781.0589 1.055 1.2281 1.715 2.6753 2.34 4.0463.078.172.156.3429.234.512.128.2777.007.6066-.271.7347-.277.1282-.606.007-.734-.2706-.08-.173-.159-.3448-.237-.5152-.633-1.3876-1.226-2.6846-2.172-3.7853-.199-.2319-.173-.5815.059-.7808z" fill="#000"/><path d="m200.034 91.362c.256-.1677.599-.0964.767.1593.082.1253.166.2526.251.3816 1.35 2.05 3.004 4.5594 3.297 7.1971.033.3039-.186.5776-.489.6114-.304.0338-.578-.1852-.612-.4891-.262-2.3623-1.774-4.6616-3.164-6.7747-.07-.1068-.14-.2131-.209-.319-.168-.2556-.096-.5989.159-.7666z" fill="#000"/><path d="m202.969 99.1295c.017-.3053.279-.5386.584-.5212 2.337.1336 4.651.3658 6.968.6968.302.0432.513.3237.469.6264-.043.3025-.323.5135-.626.4695-2.286-.326-4.568-.5554-6.874-.6871-.305-.0175-.539-.2791-.521-.5844z" fill="#000"/><path d="m211.571 97.6388c.305.0115.544.2686.532.5741-.115 3.0471-.415 6.0911-.713 9.1161-.139 1.404-.277 2.804-.396 4.198-.026.305-.294.531-.599.505-.304-.026-.53-.294-.504-.599.121-1.426.261-2.842.4-4.254.297-3.007.592-5.994.705-9.0077.012-.3056.269-.544.575-.5325z" fill="#000"/><path d="m203.807 110.14c.052-.301.338-.503.639-.451 2.424.419 4.872.617 7.352.818l.073.006c.305.025.532.292.508.597-.025.304-.292.532-.597.507l-.096-.008c-2.465-.2-4.955-.402-7.428-.829-.301-.052-.504-.339-.451-.64z" fill="#000"/><path d="m204.636 107.209c.295.08.469.385.389.68-.397 1.454-1.127 2.731-1.908 3.93-.266.409-.535.804-.8 1.194-.528.776-1.042 1.532-1.497 2.338-.15.266-.488.361-.754.21-.266-.15-.361-.487-.21-.754.476-.845 1.036-1.669 1.58-2.469.259-.38.513-.754.754-1.123.762-1.17 1.416-2.332 1.766-3.618.081-.295.385-.469.68-.388z" fill="#000"/><path d="m199.351 113.78c.258-.163.6-.085.763.173.446.708.857 1.479 1.26 2.232.2.375.397.745.596 1.101.612 1.098 1.256 2.113 2.081 2.938.217.217.217.567 0 .783-.216.217-.566.217-.783 0-.935-.936-1.64-2.059-2.266-3.182-.22-.395-.428-.785-.632-1.168-.39-.731-.767-1.438-1.193-2.113-.163-.259-.085-.601.174-.764z" fill="#000"/><path d="m191.047 117.039c.293-.086.601.083.687.376.634 2.169 1.219 4.344 1.803 6.518.079.295-.096.599-.392.678-.295.079-.599-.096-.678-.391-.584-2.175-1.166-4.339-1.796-6.494-.086-.293.083-.601.376-.687z" fill="#000"/><path d="m202.763 120.076c.145.27.045.605-.225.75-1.448.78-2.908 1.537-4.366 2.291-.07.037-.14.073-.21.109-1.388.718-2.772 1.435-4.145 2.169-.27.144-.606.042-.75-.227-.144-.27-.042-.605.227-.75 1.381-.738 2.771-1.457 4.157-2.174.071-.037.142-.073.213-.11 1.457-.754 2.91-1.508 4.349-2.283.27-.145.605-.044.75.225z" fill="#000"/><path d="m207.951 119.508c-1.38 0-2.967.617-4.352 1.203-.282.119-.607-.013-.726-.295s.013-.606.295-.725c1.355-.573 3.145-1.29 4.783-1.29.306 0 .554.248.554.554s-.248.553-.554.553z" fill="#000"/><path d="m203.965 112.508c.273-.137.606-.027.743.246.333.661.674 1.327 1.017 1.996.44.858.881 1.718 1.307 2.574.018.036.036.073.055.111.163.323.35.695.438 1.135.06.299-.135.591-.434.651-.3.06-.592-.134-.652-.434-.057-.286-.176-.523-.347-.867-.017-.033-.034-.067-.052-.103-.427-.858-.859-1.701-1.293-2.548-.342-.667-.685-1.337-1.028-2.017-.137-.273-.027-.606.246-.744z" fill="#000"/><path d="m206.801 110.01c.277.129.397.458.268.735-.334.715-.746 1.374-1.138 2l-.002.002c-.397.635-.774 1.236-1.076 1.876-.131.277-.461.395-.737.265-.277-.131-.395-.461-.265-.737.331-.701.737-1.349 1.123-1.966.006-.009.012-.019.018-.028.397-.635.773-1.237 1.073-1.88.129-.277.459-.397.736-.267z" fill="#000"/><path d="m215.493 108.441c.15.267.055.605-.212.754-.416.233-.83.459-1.241.684-.983.536-1.95 1.065-2.887 1.655-.259.163-.601.085-.764-.174s-.085-.601.174-.764c.968-.609 1.982-1.163 2.978-1.707.404-.221.805-.44 1.199-.66.267-.15.604-.054.753.212z" fill="#000"/><path d="m215.54 96.4163c.216.2162.216.5668 0 .783-.879.879-1.905 1.6309-2.889 2.3508-.404.2962-.801.5869-1.177.8789-.242.187-.589.143-.777-.098-.187-.242-.143-.5896.098-.777.43-.3334.858-.6465 1.278-.9544.953-.697 1.868-1.3671 2.684-2.1833.216-.2162.567-.2162.783 0z" fill="#000"/><path d="m209.37 95.102c.178.2488.121.5946-.128.7724-.436.3112-.873.635-1.315.9621-1.188.88-2.408 1.7837-3.716 2.5288-.266.1514-.604.0588-.755-.2069-.152-.2657-.059-.6038.207-.7552 1.246-.7099 2.385-1.5536 3.554-2.4198.453-.3355.911-.6744 1.381-1.0101.249-.1777.595-.1201.772.1287z" fill="#000"/><path d="m207.967 96.12c.075-.2967.375-.4771.672-.4029 1.445.3612 2.907.5617 4.416.7249.078.0084.158.0156.241.0231.375.0337.796.0715 1.228.244.284.1136.422.4358.308.7197-.113.2839-.436.422-.719.3084-.269-.1073-.499-.1289-.853-.1622-.098-.0091-.204-.0191-.324-.0321-1.526-.1649-3.047-.3719-4.566-.7515-.296-.0742-.477-.3748-.403-.6714z" fill="#000"/><path d="m215.035 95.9779c.305.0139.542.2727.528.5782-.054 1.1882-.098 2.4986-.143 3.8619-.112 3.366-.235 7.054-.551 10.014-.033.304-.306.524-.61.491-.304-.032-.524-.305-.491-.609.311-2.917.432-6.533.543-9.884.046-1.375.09-2.7053.146-3.9242.014-.3054.272-.5418.578-.5279z" fill="#000"/><path d="m211.491 84.1028c.137.2735.026.6061-.247.7428-2.24 1.1198-5.032 2.237-6.717 2.7984-.29.0967-.603-.06-.7-.3501s.06-.6037.35-.7004c1.638-.5459 4.382-1.6434 6.572-2.7383.273-.1367.606-.0259.742.2476z" fill="#000"/><path d="m196.624 77.8685c.217-.2163.567-.2163.783 0 .146.1452.291.2905.436.4359 2.627 2.6243 5.273 5.2686 7.632 8.1896.192.2379.155.5865-.083.7786s-.587.1551-.779-.0828c-2.321-2.8736-4.928-5.4794-7.564-8.1139-.142-.1414-.283-.2828-.425-.4244-.216-.2162-.216-.5668 0-.783z" fill="#000"/><path d="m201.192 75.6536c.216-.2162.567-.2162.783 0 1.394 1.3939 3.063 3.2022 4.653 4.9305.087.0948.174.1894.261.2836 1.499 1.6299 2.908 3.1613 3.945 4.1983.216.2163.216.5668 0 .7831-.216.2162-.567.2162-.783 0-1.054-1.0542-2.478-2.6016-3.968-4.222-.09-.0975-.18-.1953-.27-.2933-1.594-1.7322-3.246-3.5227-4.621-4.8972-.216-.2162-.216-.5668 0-.783z" fill="#000"/><path d="m202.751 75.8988c.157.2622.072.6023-.19.7596-1.768 1.0607-3.539 1.8358-5.53 2.4103-.294.0848-.601-.0846-.685-.3784-.085-.2938.084-.6007.378-.6855 1.898-.5476 3.581-1.2841 5.267-2.2959.262-.1574.602-.0723.76.1899z" fill="#000"/><path d="m189.148 73.2893c.299-.0641.594.1263.658.4253.455 2.1231.788 4.2736 1.113 6.3996.046.3022-.161.5847-.463.631-.303.0462-.585-.1614-.631-.4636-.326-2.1292-.655-4.2486-1.102-6.3349-.064-.299.126-.5934.425-.6574z" fill="#000"/><path d="m189.553 80.2235c.062-.2993.355-.4916.655-.4293.122.0253.248.0506.377.0764.611.1225 1.291.2587 1.916.4817.771.2751 1.528.7033 2.062 1.4659.175.2505.114.5957-.136.7711-.251.1753-.596.1144-.771-.1361-.355-.5059-.877-.8261-1.527-1.0579-.542-.1934-1.125-.3107-1.734-.433-.136-.0274-.274-.0551-.413-.084-.299-.0622-.491-.3554-.429-.6548z" fill="#000"/><path d="m186.617 76.3222c.076.2961-.102.598-.398.6745-4.124 1.0642-8.395 2.2439-12.229 3.9822-.278.1263-.606.0029-.733-.2756-.126-.2785-.002-.6066.276-.7329 3.93-1.7822 8.286-2.9818 12.41-4.046.296-.0764.598.1017.674.3978z" fill="#000"/><path d="m180.936 73.9927c.216.2163.216.5668 0 .783-.74.7394-1.441 1.473-2.128 2.1907-1.333 1.3945-2.609 2.7286-3.992 3.9266-.231.2003-.58.1753-.781-.0558-.2-.231-.175-.5807.056-.781 1.345-1.1659 2.559-2.4351 3.867-3.8035.693-.7256 1.414-1.4791 2.195-2.26.216-.2162.566-.2162.783 0z" fill="#000"/><path d="m190.505 73.7574c.041.3031-.172.5816-.475.622-1.446.1928-3.502.6036-5.632 1.0402-.261.0535-.523.1075-.785.1614-1.864.3832-3.725.7658-5.192 1.0104-.302.0503-.587-.1535-.638-.4551-.05-.3016.154-.5869.455-.6372 1.446-.2408 3.283-.6187 5.151-1.0026.262-.0539.525-.1079.787-.1617 2.119-.4345 4.216-.8541 5.707-1.053.304-.0404.582.1725.622.4756z" fill="#000"/><path d="m189.717 73.2344c.176.2498.117.5953-.133.7716-1.52 1.0725-2.857 2.3445-4.223 3.6809-.219.2138-.57.2098-.783-.0088-.214-.2187-.21-.5692.008-.783 1.367-1.336 2.76-2.6648 4.359-3.7937.25-.1764.595-.1168.772.133z" fill="#000"/><path d="m166.704 90.3937c.026-.3047.294-.5306.599-.5047.271.0231.556.0477.853.0734 2.39.207 5.522.4783 7.959.4783.306 0 .553.2479.553.5536 0 .3058-.247.5537-.553.5537-2.489 0-5.674-.276-8.056-.4824-.297-.0258-.581-.0504-.85-.0733-.305-.0259-.531-.2939-.505-.5986z" fill="#000"/><path d="m168.363 88.7795c-.305 0-.553.2479-.553.5537v12.1808c0 .306.248.554.553.554.306 0 .554-.248.554-.554v-12.1808c0-.3058-.248-.5537-.554-.5537z" fill="#000"/><path d="m171.676 101.297c-1.238-.02-2.448-.038-3.284.005-.306.016-.566-.219-.582-.525-.015-.305.22-.565.525-.581.882-.045 2.135-.026 3.359-.006.041 0 .082.001.123.002 1.196.019 2.356.038 3.167.004.306-.013.564.224.577.53.012.305-.225.563-.53.576-.845.036-2.033.016-3.209-.003-.049-.001-.097-.001-.146-.002z" fill="#000"/><path d="m174.688 99.5778c.305-.0234.571.2047.595.5092.137 1.781.355 3.132.788 4.321.429 1.18 1.079 2.227 2.116 3.38.205.227.186.577-.041.782-.227.204-.577.186-.782-.042-1.114-1.237-1.848-2.404-2.334-3.741-.483-1.329-.712-2.796-.851-4.615-.024-.3045.204-.5707.509-.5942z" fill="#000"/><path d="m178.675 106.618c.239.191.278.54.087.778-.902 1.129-1.837 2.238-2.77 3.339-.078.092-.156.184-.234.276-.856 1.009-1.708 2.014-2.536 3.033-.192.237-.541.273-.778.08-.238-.192-.274-.541-.081-.778.835-1.028 1.695-2.042 2.549-3.05.078-.093.157-.185.235-.277.933-1.102 1.859-2.199 2.75-3.314.191-.239.539-.278.778-.087z" fill="#000"/><path d="m172.982 111.479c.23-.202.579-.178.781.052.899 1.027 1.781 2.068 2.66 3.105l.052.061c.862 1.018 1.721 2.032 2.594 3.032.597.683 1.13 1.244 1.807 1.752.245.183.294.53.111.775-.184.245-.531.294-.775.111-.77-.578-1.364-1.208-1.977-1.909-.879-1.007-1.743-2.027-2.603-3.043l-.054-.063c-.879-1.039-1.756-2.073-2.648-3.092-.202-.23-.179-.58.052-.781z" fill="#000"/><path d="m186.341 113.588c.212.22.206.57-.015.782-.85.819-1.706 1.662-2.564 2.507-1.035 1.019-2.074 2.041-3.113 3.032-.221.211-.571.203-.783-.019-.211-.221-.202-.571.019-.782 1.047-.999 2.064-2 3.084-3.005.854-.841 1.711-1.684 2.589-2.53.221-.212.571-.206.783.015z" fill="#000"/><path d="m184.822 114.452c.193-.237.542-.272.779-.079.852.697 1.89 1.526 2.995 2.135 1.113.614 2.214.959 3.207.793.302-.05.587.154.638.455.05.302-.154.587-.456.638-1.358.226-2.729-.257-3.924-.916-1.203-.664-2.312-1.553-3.161-2.247-.237-.193-.272-.542-.078-.779z" fill="#000"/><path d="m185.776 119.195c.096.29-.061.604-.351.7-1.663.555-3.282.734-4.979.858-.305.022-.57-.207-.593-.512-.022-.305.207-.57.512-.592 1.677-.123 3.183-.295 4.71-.804.29-.097.604.06.701.35z" fill="#000"/><path d="m188.147 116.632c.059.3-.135.591-.435.651-.168.034-.354.14-.556.346s-.394.487-.573.815c-.329.603-.575 1.286-.761 1.803-.017.049-.034.096-.051.142-.104.288-.421.436-.709.332-.287-.104-.436-.421-.332-.709.016-.045.033-.093.052-.143.182-.509.456-1.273.829-1.956.207-.377.455-.753.754-1.058.298-.305.673-.566 1.13-.658.3-.06.592.135.652.435z" fill="#000"/><path d="m173.153 85.5908c.232.199.259.5486.06.7807-1.389 1.6208-2.813 3.2148-4.514 4.5097-.244.1852-.591.138-.776-.1054-.186-.2433-.138-.5907.105-.7759 1.599-1.2167 2.956-2.7295 4.344-4.349.199-.2322.549-.2591.781-.0601z" fill="#000"/><path d="m168.93 87.0015c.064-.2988.359-.4886.658-.4239 1.264.2737 4.198.6847 6.096.9505.413.0578.776.1088 1.063.1499.303.0435.513.3241.47.6267-.044.3027-.324.5129-.627.4694-.275-.0394-.627-.0888-1.031-.1452-1.89-.2647-4.895-.6854-6.205-.969-.299-.0648-.489-.3595-.424-.6584z" fill="#000"/><path d="m182.619 92.1016c.306 0 .554.2478.554.5536 0 2.5078-.105 4.4585-.208 6.3287-.003.0538-.006.1076-.009.1613-.101 1.8118-.197 3.5568-.197 5.6908 0 .306-.248.554-.554.554s-.554-.248-.554-.554c0-2.165.099-3.937.199-5.7451.003-.0561.006-.1121.009-.1683.104-1.8671.206-3.7921.206-6.2674 0-.3058.248-.5536.554-.5536z" fill="#000"/><path d="m181.144 101.932c.228-.204.578-.184.782.044 1.975 2.209 3.998 4.355 6.186 6.324.228.205.246.555.041.782-.204.228-.554.246-.782.041-2.231-2.008-4.285-4.188-6.271-6.409-.204-.228-.184-.578.044-.782z" fill="#000"/><path d="m197.133 106.345c.084.294-.086.601-.38.685-3.903 1.115-6.697 1.673-10.594 2.23-.303.043-.583-.167-.626-.47-.044-.303.167-.583.47-.626 3.854-.551 6.597-1.1 10.446-2.199.294-.084.6.086.684.38z" fill="#000"/><path d="m197.792 95.9838c.302.0465.51.3292.463.6314-.264 1.7202-.581 3.4308-.895 5.1328-.064.345-.128.69-.191 1.035-.376 2.046-.734 4.083-.988 6.135-.037.304-.314.519-.617.482-.304-.038-.519-.314-.482-.618.259-2.086.622-4.15.998-6.199.064-.348.128-.695.192-1.041.314-1.7014.627-3.393.889-5.0951.046-.3023.329-.5096.631-.4631z" fill="#000"/><path d="m188.767 89.4651c.233-.1981.583-.1697.781.0633.989 1.164 1.993 2.323 2.999 3.4842 1.933 2.2311 3.873 4.4704 5.73 6.7694.192.238.155.586-.083.779-.238.192-.586.155-.778-.083-1.846-2.2855-3.763-4.4981-5.688-6.7193-1.009-1.1648-2.02-2.3319-3.024-3.5132-.198-.233-.17-.5824.063-.7804z" fill="#000"/><path d="m192.676 90.6288c.126.2789.001.6067-.277.7322-3.499 1.5743-7.125 2.787-10.729 3.9921-.455.1522-.91.3044-1.365.4571-.289.0975-.603-.0585-.701-.3483-.097-.2899.059-.6038.349-.7013.455-.1532.911-.3056 1.366-.4577 3.609-1.2073 7.181-2.4018 10.625-3.9518.279-.1254.607-.0011.732.2777z" fill="#000"/><path d="m187.188 92.1016c.306 0 .554.2478.554.5536v8.8588c0 .306-.248.554-.554.554s-.553-.248-.553-.554v-8.8588c0-.3058.247-.5536.553-.5536z" fill="#000"/><path d="m186.376 101.128c.213-.219.563-.224.783-.011 1.841 1.787 3.222 2.895 4.985 4.309.463.371.953.764 1.484 1.195.237.193.273.542.08.779s-.541.273-.779.081c-.52-.423-1.002-.81-1.462-1.179-1.771-1.42-3.198-2.564-5.08-4.391-.219-.213-.224-.563-.011-.783z" fill="#000"/><path d="m188.383 100.267c.231.201.254.551.052.781-.837.958-2.117 1.495-3.364 1.855-.793.23-1.651.406-2.416.563-.421.086-.814.167-1.152.248-.298.071-.596-.113-.667-.411-.071-.297.113-.596.41-.667.409-.097.833-.183 1.268-.272.728-.149 1.487-.304 2.249-.524 1.199-.347 2.219-.812 2.839-1.521.201-.23.551-.253.781-.052z" fill="#000"/><path d="m190.578 79.6509c.15.2669.054.6042-.213.7534-1.125.6288-2.22 1.2435-3.297 1.9227-.258.1632-.6.0859-.763-.1727s-.086-.6005.172-.7637c1.105-.6973 2.225-1.3255 3.348-1.953.267-.1491.604-.0537.753.2133z" fill="#000"/><path d="m207.482 89.9269c.131.2763.013.6065-.263.7374-2.169 1.0272-4.396 2.0327-6.708 2.7939-.29.0956-.603-.0623-.699-.3528-.096-.2904.062-.6034.353-.699 2.243-.7386 4.419-1.719 6.58-2.7429.276-.1309.607-.013.737.2634z" fill="#000"/><path d="m205.519 79.6684c.09.2612-.05.5455-.311.6349l-4.843 1.657c-.262.0893-.546-.05-.635-.3113-.09-.2613.05-.5455.311-.6349l4.843-1.657c.262-.0894.546.05.635.3113z" fill="#000"/><path d="m208.827 82.5812c.099.2576-.029.547-.287.6466l-5.608 2.1668c-.257.0995-.547-.0286-.646-.2862-.1-.2576.028-.5471.286-.6466l5.608-2.1668c.258-.0996.547.0286.647.2862z" fill="#000"/><path d="m187.162 96.611c.094.2595-.04.5464-.299.6408-1.053.3828-2.159.6265-3.222.861-.266.0586-.529.1166-.788.1761-.269.0617-.538-.1064-.599-.3755-.062-.2692.106-.5374.375-.5992.278-.0638.554-.1247.828-.1851 1.056-.2333 2.08-.4591 3.064-.8171.26-.0944.547.0395.641.299z" fill="#000"/><path d="m190.744 104.174c.071.267-.088.541-.355.611-1.67.441-3.311.883-4.949 1.396-.264.083-.544-.064-.627-.328-.082-.263.064-.544.328-.626 1.662-.521 3.322-.967 4.992-1.409.267-.07.541.089.611.356z" fill="#000"/><path d="m205.356 113.236c.134.242.047.546-.194.68-1.539.855-3.13 1.074-4.746 1.295-.09.013-.181.025-.272.038-.273.038-.526-.153-.564-.427-.038-.273.153-.526.427-.564.074-.01.148-.02.222-.03 1.658-.229 3.077-.425 4.447-1.186.241-.134.546-.047.68.194z" fill="#000"/><path d="m215.234 102.695c.184.207.165.523-.041.706-.963.855-2.111 1.413-3.187 1.936-.124.06-.246.119-.367.179-.248.121-.547.019-.669-.229-.121-.248-.019-.548.229-.669.122-.06.242-.119.363-.177 1.093-.533 2.114-1.029 2.966-1.787.207-.184.523-.165.706.041z" fill="#000"/><path d="m183.771 75.3146c.171.2172.133.5315-.084.7021-1.01.7934-2.024 1.5626-3.079 2.3093-.226.1595-.538.106-.697-.1194-.16-.2255-.106-.5375.119-.697 1.038-.7342 2.038-1.4925 3.039-2.2792.217-.1706.532-.1329.702.0842z" fill="#000"/><path d="m96.9249 150.087c.0433.266-.0244.524-.1402.755-.9181 1.836-2.9407 3.312-5.0546 4.452-2.1344 1.151-4.4587 2.01-6.0925 2.573-2.4346.838-4.6012 1.54-6.5817 2.129 1.3614.171 2.7219.216 3.8182.253.5065.016.9566.031 1.3243.056 9.1012.61 18.2976.786 27.4106.473 5.142-.176 8.97-.545 12.466-.882 1.112-.107 2.19-.211 3.267-.305 4.465-.388 8.865-.592 15.398-.089.276.021.482.261.461.537-.022.275-.262.481-.537.46-6.467-.498-10.811-.296-15.236.089-1.063.092-2.133.195-3.24.302-3.501.337-7.368.71-12.544.888-9.15.314-18.3795.137-27.5124-.475-.318-.022-.7321-.035-1.2118-.051-1.2809-.043-3.0296-.101-4.6654-.36-.4627-.073-.9243-.163-1.3719-.276-3.5327.965-6.5012 1.544-9.4751 1.89-4.4425.516-8.8893.508-15.2227.497-.9497-.001-1.9417-.003-2.9826-.003-.2761 0-.5-.224-.5-.5s.2239-.5.5-.5c1.0435 0 2.0365.002 2.9856.003 6.3432.011 10.7244.018 15.1043-.491 2.5067-.291 5.0156-.752 7.8913-1.482-.0406-.019-.0808-.038-.1207-.058-.9318-.46-1.7172-1.123-2.0716-2.09-.4529-1.235-.0113-2.319.8112-3.189.8061-.853 2.0203-1.556 3.29-2.125 2.3963-1.075 5.1702-1.749 6.3052-2.026.0724-.017.1382-.033.1967-.048.4227-.103 3.9422-.886 7.1918-1.298 1.6157-.205 3.2097-.325 4.327-.207.5391.056 1.0715.177 1.4221.456.1922.153.345.366.3899.642zm-20.0482 9.494c-.5001-.138-.9634-.304-1.3717-.506-.8016-.395-1.3413-.899-1.5751-1.537-.2816-.768-.0553-1.466.5989-2.158.6706-.709 1.7418-1.348 2.9725-1.9 2.3082-1.035 5-1.69 6.1377-1.967.0706-.017.1353-.033.1935-.047.3974-.098 3.8779-.872 7.0792-1.278 1.6099-.204 3.1041-.309 4.0967-.205.5159.055.7939.157.9039.244.0144.012.022.02.0257.024-.0003.014-.0048.058-.0477.144-.7719 1.544-2.5535 2.896-4.6349 4.018-2.0609 1.112-4.323 1.95-5.9433 2.508-3.2295 1.112-5.9762 1.981-8.4354 2.66zm19.0643-9.325c-.0002 0-.0009-.001-.0016-.003.0014.002.0018.003.0016.003z" fill="#000"/><path d="m152.093 152.688c.173.215.138.53-.078.702-3.208 2.566-6.832 5.342-10.203 7.924-1.886 1.444-3.693 2.828-5.303 4.081-.218.169-.532.13-.702-.088-.169-.218-.13-.532.088-.702 1.623-1.262 3.436-2.65 5.325-4.097 3.364-2.576 6.969-5.338 10.17-7.898.216-.173.531-.138.703.078z" fill="#000"/><path d="m133.202 164.697c.008-.276.238-.493.514-.486 10.865.295 21.739.197 32.619.099 5.445-.05 10.891-.099 16.339-.099.276 0 .5.224.5.5s-.224.5-.5.5c-5.429 0-10.865.049-16.305.098-10.892.099-21.797.197-32.68-.098-.276-.008-.494-.238-.487-.514z" fill="#000"/><path d="m135.969 164.213c.275.023.479.265.456.54-.249 2.917-.472 5.612-.005 8.412.045.273-.139.53-.411.576-.273.045-.53-.139-.576-.411-.49-2.944-.252-5.763-.005-8.661.024-.276.266-.48.541-.456z" fill="#000"/><path d="m134.556 173.172c.004-.276.232-.496.508-.491.226.004.451.007.675.011 16.369.277 29.252.495 45.448-.011.276-.009.506.208.515.484s-.208.507-.484.515c-16.22.507-29.124.289-45.487.012-.227-.004-.455-.008-.684-.011-.276-.005-.496-.233-.491-.509z" fill="#000"/><path d="m145.495 154c0-.276.224-.5.5-.5h51.207c.276 0 .5.224.5.5s-.224.5-.5.5h-51.207c-.276 0-.5-.224-.5-.5z" fill="#000"/><path d="m196.743 151.668c.183.207.164.523-.043.706-4.056 3.596-8.44 6.722-12.814 9.84-1.301.928-2.6 1.854-3.89 2.792-.223.162-.536.113-.698-.11-.163-.224-.113-.536.11-.699 1.307-.95 2.618-1.885 3.925-2.817 4.366-3.113 8.692-6.197 12.704-9.754.207-.183.523-.164.706.042z" fill="#000"/><path d="m180.202 163.5c.276 0 .5.224.5.5v5.797c0 1.463.001 2.991.001 4.703 0 .276-.224.5-.5.5-.277 0-.5-.224-.5-.5 0-1.712-.001-3.24-.001-4.703 0-1.956 0-3.795 0-5.797 0-.276.224-.5.5-.5z" fill="#000"/><path d="m193.702 151.5c.276 0 .5.224.5.5v11.789c0 .276-.224.5-.5.5s-.5-.224-.5-.5v-11.789c0-.276.224-.5.5-.5z" fill="#000"/><path d="m198.755 158.646c.195.196.195.512 0 .708-4.664 4.664-10.031 8.475-15.361 12.259-1.137.807-2.273 1.614-3.399 2.427-.224.161-.537.111-.698-.113-.162-.224-.111-.537.113-.698 1.14-.823 2.285-1.636 3.427-2.448 5.327-3.783 10.612-7.536 15.211-12.135.195-.195.512-.195.707 0z" fill="#000"/><path d="m244.046 157.117c-.056.754-.545 1.51-1.428 2.261-.538.457-1.133.835-1.765 1.149.407.1.824.192 1.246.276 1.603.319 3.261.528 4.778.703.265.031.526.061.782.09 1.201.136 2.291.259 3.133.412.271.049.451.31.402.581-.049.272-.31.452-.581.403-.805-.146-1.853-.265-3.052-.401-.26-.029-.526-.06-.798-.091-1.521-.176-3.214-.388-4.86-.717-.873-.174-1.739-.382-2.565-.636-.518.173-1.048.316-1.58.436-1.719.388-3.508.544-5.06.68l-.116.01c-6.178.541-12.432.357-18.584.092-1.425-.062-2.88-.147-4.365-.234-6.539-.383-13.657-.8-21.339.632-.272.051-.533-.128-.583-.4-.051-.271.128-.532.399-.583 7.814-1.457 15.079-1.03 21.623-.646 1.473.087 2.91.171 4.308.232 6.15.265 12.346.445 18.453-.089l.093-.008c1.568-.137 3.299-.289 4.951-.662.065-.014.129-.029.193-.044-.155-.067-.308-.136-.458-.208-1.366-.652-2.526-1.53-3.187-2.745-.165-.304-.236-.621-.194-.938.041-.313.185-.58.371-.801.359-.426.927-.738 1.482-.967 1.126-.465 2.48-.697 2.958-.741.753-.068 1.586-.002 2.36.181.768.182 1.515.488 2.07.928.56.443.972 1.065.913 1.845zm-4.722 2.976c-.574-.189-1.119-.4-1.62-.64-1.265-.604-2.218-1.362-2.739-2.321-.081-.149-.092-.255-.082-.33.011-.079.05-.174.144-.286.202-.239.586-.476 1.099-.688 1.012-.417 2.263-.632 2.668-.669.637-.058 1.361-.002 2.038.158.682.161 1.277.42 1.681.739.399.315.562.646.536.986-.027.367-.283.898-1.079 1.574-.754.641-1.657 1.117-2.646 1.477z" fill="#000"/><path d="m272.945 150.642c.137.239.054.545-.186.682-8.707 4.976-17.359 9.899-26.455 14.244-.249.119-.548.014-.667-.235s-.013-.548.236-.667c9.057-4.327 17.679-9.233 26.39-14.21.24-.137.545-.054.682.186z" fill="#000"/><path d="m247.397 163.604c.219-.169.533-.128.702.091 4.339 5.643 11.777 15.146 16.478 20.474.183.207.163.523-.044.706s-.523.163-.706-.044c-4.727-5.357-12.184-14.886-16.521-20.526-.169-.219-.128-.533.091-.701z" fill="#000"/><path d="m284.086 169.68c.177.212.148.527-.064.704-2.861 2.385-5.983 4.551-9.157 6.754-.177.123-.353.245-.53.368-3.363 2.335-6.776 4.729-10.037 7.504-.21.179-.526.154-.705-.057-.179-.21-.153-.526.057-.705 3.303-2.81 6.754-5.23 10.114-7.563.174-.121.347-.241.519-.361 3.184-2.209 6.273-4.353 9.099-6.708.212-.177.527-.148.704.064z" fill="#000"/><path d="m135.067 167.643c.157-.227.469-.283.696-.126 2.395 1.66 4.783 3.328 7.165 5.007.226.159.28.471.121.696-.159.226-.471.28-.697.121-2.38-1.677-4.766-3.344-7.159-5.002-.227-.158-.283-.469-.126-.696z" fill="#000"/><path d="m140.939 165.134c.162-.224.474-.275.698-.114.992.713 2 1.418 3.013 2.126 2.586 1.809 5.198 3.636 7.629 5.661.212.177.24.493.064.705-.177.212-.492.24-.705.064-2.396-1.997-4.954-3.786-7.527-5.586-1.02-.713-2.042-1.428-3.058-2.158-.224-.161-.275-.474-.114-.698z" fill="#000"/><path d="m150.074 164.978c.152-.231.462-.294.693-.142 1.376.907 2.722 1.844 4.062 2.778 2.646 1.842 5.271 3.67 8.072 5.227.241.134.328.438.194.679-.134.242-.438.329-.68.195-2.843-1.58-5.543-3.46-8.215-5.32-1.33-.927-2.653-1.848-3.983-2.725-.231-.152-.295-.462-.143-.692z" fill="#000"/><path d="m158.532 164.631c.152-.23.463-.292.693-.14 3.904 2.598 7.8 5.162 11.803 7.582.236.143.312.45.169.687-.143.236-.45.312-.687.169-4.022-2.432-7.934-5.007-11.839-7.605-.23-.153-.292-.463-.139-.693z" fill="#000"/><path d="m169.161 164.177c.166-.221.479-.266.7-.101 3.558 2.667 7.162 5.219 10.923 7.57.235.146.306.455.159.689-.146.234-.454.305-.689.159-3.793-2.371-7.421-4.941-10.993-7.617-.221-.166-.266-.479-.1-.7z" fill="#000"/><path d="m270.242 151.262c.243-.13.546-.039.677.204.125.234.251.468.376.701 2.639 4.928 5.257 9.817 10.587 11.866.257.1.386.389.287.647-.099.257-.389.386-.646.287-5.688-2.188-8.472-7.395-11.064-12.242-.141-.263-.281-.525-.421-.786-.131-.243-.039-.546.204-.677z" fill="#000"/><path d="m280.796 164.026c.195-.195.512-.195.707 0 .086.086.15.213.15.362 0 .131-.049.227-.081.277-.058.092-.132.146-.157.164-.064.046-.14.085-.197.112-.124.058-.288.123-.444.182-.315.118-.659.232-.734.254-1.102.326-2.217.449-3.336.468-.079.002-.154.005-.229.008.126.215.232.423.308.57.02.039.038.074.053.103.727 1.389.84 2.84.509 4.334-.445 2.008-1.557 3.73-2.684 5.297-1.482 2.059-3.455 3.194-5.594 4.257-.248.123-.548.022-.671-.225-.122-.247-.022-.547.226-.67 2.116-1.052 3.897-2.097 5.227-3.946 1.119-1.555 2.122-3.135 2.52-4.929.288-1.299.183-2.504-.419-3.654-.02-.039-.041-.08-.064-.124-.105-.205-.239-.465-.397-.706-.076-.115-.15-.215-.221-.294-.067-.008-.133-.017-.199-.029-.17-.031-.313-.135-.393-.284-.074-.136-.081-.281-.053-.401.029-.121.102-.253.236-.343.144-.096.312-.114.458-.077.127.032.242.087.343.154.078 0 .161-.001.247-.005.089-.003.194-.009.303-.015.163-.009.335-.018.477-.021 1.058-.018 2.078-.134 3.069-.427.045-.013.366-.119.667-.231.147-.055.275-.107.359-.146.005-.005.009-.01.014-.015z" fill="#000"/><path d="m180.576 163.283c.183-.207.499-.227.706-.044.415.367.825.737 1.234 1.107 1.368 1.235 2.72 2.456 4.203 3.483.397.274.791.476 1.249.676.253.111.368.406.257.659-.11.253-.405.368-.658.258-.494-.216-.949-.448-1.417-.771-1.542-1.068-2.959-2.348-4.335-3.591-.401-.362-.799-.722-1.195-1.071-.207-.183-.227-.499-.044-.706z" fill="#000"/><path d="m185.36 160.759c.147-.234.455-.304.689-.157.039.024.078.049.117.073 1.997 1.258 3.983 2.508 6.02 3.674.036.021.073.042.111.063.219.124.469.265.701.451.216.172.251.487.078.702-.172.216-.487.251-.703.078-.164-.131-.335-.228-.555-.352-.041-.024-.084-.048-.129-.074-2.055-1.177-4.056-2.437-6.049-3.691-.041-.026-.082-.052-.124-.078-.233-.147-.303-.456-.156-.689z" fill="#000"/><path d="m190.154 156.81c.184-.206.5-.225.706-.042.916.813 1.856 1.593 2.803 2.379.356.296.712.592 1.069.891.212.177.24.492.062.704-.177.212-.492.24-.704.062-.349-.292-.701-.584-1.054-.877-.951-.79-1.911-1.586-2.84-2.411-.206-.183-.225-.499-.042-.706z" fill="#000"/><path d="m189.023 160.564c.031-.106.028-.223-.017-.333-.105-.255-.397-.377-.652-.273-.062.026-.152.059-.261.098-.329.12-.83.301-1.232.528-.278.157-.571.365-.777.645-.218.297-.333.673-.232 1.1.158.665.777 1.003 1.264 1.167.516.174 1.093.227 1.488.194.776-.064 1.673-.454 2.23-1.131.221-.095.437-.195.648-.299.024-.011.065-.03.115-.054.111-.05.267-.122.385-.184.181-.095.438-.246.604-.465.051-.068.151-.231.105-.448-.047-.222-.209-.33-.285-.37-.138-.072-.292-.079-.35-.082-.162-.006-.349.013-.444.026-.219.029-.441.075-.657.126-.144-.12-.308-.19-.448-.233-.438-.134-.975-.104-1.279-.054-.066.011-.134.025-.205.042zm.577.921c-.075.005-.146.013-.207.024-.253.042-.573.147-.834.308-.195.12-.319.246-.386.367.054.004.117.004.189.001.387-.016.842-.131.988-.168.133-.034.266-.073.398-.116-.066-.064-.115-.147-.138-.243-.013-.058-.016-.117-.01-.173zm-2.474.929c-.011-.104-.003-.207.018-.304.065-.306.221-.558.413-.762-.069.034-.137.069-.205.107-.224.127-.378.251-.462.366-.071.097-.089.177-.065.277.022.093.109.208.301.316z" fill="#000"/><path d="m140.02 158.14c.888-.224 1.965-.126 2.605.01.251.053.521.136.703.308.107.101.204.252.214.449.01.186-.064.335-.133.432-.125.177-.325.307-.488.398-.011.005-.021.011-.032.017.133-.017.272.019.383.112.212.177.241.492.064.704-.248.299-.629.566-1.037.772-.414.209-.896.375-1.376.447-.474.07-.991.055-1.44-.15-.475-.216-.827-.624-.963-1.223-.14-.616-.044-1.15.283-1.563.31-.392.772-.601 1.217-.713zm1.303 1.153c.216-.065.429-.136.622-.21.021-.008.041-.016.062-.024-.537-.07-1.209-.084-1.742.05-.317.08-.53.199-.653.335.011-.002.022-.003.033-.005.155-.021.342-.041.54-.059.36-.034.775-.064 1.138-.087zm-1.611 1.315c.056.052.118.091.185.121.21.096.512.125.878.071.361-.054.741-.183 1.073-.351.128-.064.243-.132.344-.199-.083.001-.352.014-.694.034-.214.063-.426.118-.626.165-.229.054-.447.097-.634.126-.174.027-.36.047-.508.034-.006 0-.012-.001-.018-.001z" fill="#000"/><path d="m28.6099 147.951c.2761 0 .5.224.4999.5-.0002 4.015 0 7.98.0002 11.734.0001 2.369.0002 4.654.0002 6.815 0 .276-.2238.5-.5.5-.2761 0-.5-.224-.5-.5 0-2.161-.0001-4.446-.0002-6.815-.0002-3.754-.0004-7.719-.0002-11.734.0001-.276.2239-.5.5001-.5z" fill="#000"/><path d="m25.7866 148.537c.1768-.212.492-.24.7042-.064 2.3209 1.934 4.1322 2.906 6.4458 4.146 1.0403.558 2.1821 1.17 3.5175 1.949.6647.388 1.3183.687 1.9073.939.1548.067.3082.131.4574.194.4026.169.775.325 1.0644.474.2012.104.3973.221.5531.359.1554.138.3158.339.3526.612.0377.281-.0694.525-.2119.718-.1396.188-.341.366-.5807.54-2.3772 1.729-4.8879 3.361-7.2388 4.869-.3185.204-.6339.406-.9456.606-1.9945 1.277-3.8357 2.455-5.3526 3.529-.2254.16-.5374.106-.697-.119-.1595-.225-.1061-.538.1193-.697 1.5375-1.088 3.4013-2.282 5.3933-3.557.3114-.199.6258-.401.9427-.604 2.3499-1.507 4.8391-3.125 7.1905-4.835.1963-.143.3043-.248.3588-.319-.0632-.055-.171-.125-.3415-.213-.2523-.13-.569-.263-.9538-.424-.1568-.066-.3248-.137-.5044-.214-.6039-.259-1.3005-.576-2.0169-.994-1.266-.738-2.3764-1.334-3.4055-1.886-2.3603-1.266-4.2927-2.303-6.6942-4.304-.2121-.177-.2408-.493-.064-.705zm14.0245 8.786s-.0003-.001-.0007-.001zm-.0107-.097c.0004-.001.0006-.002.0006-.002z" fill="#000"/><path d="m25.5676 141.567c3.411-.549 6.9996-.39 9.6948-.063 3.0351.368 6.1657 1.85 8.7668 4.028 2.6023 2.179 4.7058 5.082 5.6529 8.328 1.7915 6.139-.7961 12.382-4.8116 16.457-5.326 5.406-14.0373 6.124-21.3286 3.657-2.9732-1.006-5.0001-2.374-6.5652-4.246-1.5527-1.857-2.6263-4.182-3.7407-7.047-.0102-.026-.0181-.053-.0238-.08-.2643-1.283-.4475-3.173-.4153-5.192-.1059-.074-.1831-.189-.2061-.327-.3018-1.811.1781-3.831 1.0031-5.749.8289-1.928 2.0293-3.806 3.2396-5.358 2.0249-2.596 5.3347-3.86 8.7341-4.408zm-1.8789 1.417c-.0408.171-.1706.315-.3518.366-2.0068.561-3.3398 1.229-4.4728 2.208-1.1451.99-2.1149 2.32-3.3606 4.269-1.0184 1.593-1.5113 3.975-1.66 6.384-.1465 2.373.0454 4.692.3398 6.147 1.1034 2.832 2.1263 5.013 3.5606 6.728 1.4287 1.709 3.2901 2.983 6.1185 3.94 7.0693 2.392 15.3293 1.63 20.2957-3.41 3.839-3.897 6.2263-9.78 4.5641-15.476-.8822-3.023-2.856-5.765-5.335-7.841-2.4803-2.077-5.435-3.462-8.2453-3.803-2.6411-.32-6.1288-.47-9.4154.059-.695.112-1.3771.253-2.0378.429z" fill="#000"/><path d="m275.526 169.842c.087-.262.37-.404.632-.316.796.265 1.352.564 1.937.897.075.043.15.086.227.13.514.296 1.078.619 1.888.993.25.116.36.413.244.664-.116.25-.413.36-.664.244-.852-.393-1.452-.738-1.968-1.035-.076-.043-.15-.086-.223-.127-.563-.322-1.053-.583-1.757-.818-.262-.087-.404-.37-.316-.632zm-.208 3.272c-.176-.145-.434-.155-.623-.01-.219.168-.26.482-.091.701l.396-.305c-.396.305-.395.306-.394.308l.002.002.003.005.008.008c.004.006.009.011.013.016l.024.024c.014.014.028.025.04.035.023.018.048.036.076.054.055.036.14.086.277.159.274.146.784.401 1.741.843.251.116.548.006.664-.244.116-.251.006-.548-.244-.664-.951-.439-1.441-.684-1.69-.817-.121-.065-.179-.1-.202-.115z" fill="#000"/></g><path d="m261 177.5c0 5.247-4.253 9.5-9.5 9.5s-11.5-4.253-11.5-9.5c0-5.246 6.253-9.5 11.5-9.5s9.5 4.254 9.5 9.5z" fill="#fff"/><path clip-rule="evenodd" d="m242.198 172.446c-2.291 3.593-2.074 7.026-.475 9.559 1.614 2.557 4.674 4.254 8.165 4.254 4.996 0 8.421-2.753 9.881-6.028 1.467-3.294.937-7.046-1.882-9.172-5.022-3.767-11.987-3.434-15.689 1.387zm-.807-.591c4.1-5.362 11.725-5.625 17.097-1.596l.001.001c3.281 2.474 3.8 6.771 2.193 10.378-1.615 3.624-5.391 6.621-10.794 6.621-3.809 0-7.2-1.852-9.01-4.72-1.824-2.889-2.008-6.748.489-10.649.007-.012.015-.024.024-.035z" fill="#000" fill-rule="evenodd"/><path clip-rule="evenodd" d="m252.834 170.723c.153.23.091.54-.139.693-.133.089-.271.18-.411.274-.748.495-1.583 1.049-2.347 1.631-.918.701-1.668 1.395-2.035 2.023-.139.238-.445.319-.684.179-.238-.139-.318-.445-.179-.683.473-.811 1.363-1.606 2.292-2.314.792-.604 1.66-1.179 2.407-1.674.139-.092.273-.182.402-.268.23-.153.541-.091.694.139z" fill="#000" fill-rule="evenodd"/><path clip-rule="evenodd" d="m247.056 174.889c0-.276.223-.5.5-.5.912 0 1.986.256 2.996.588 1.018.335 2.011.76 2.776 1.128.248.12.353.418.233.667-.119.249-.418.354-.667.234-.735-.354-1.687-.761-2.654-1.079-.976-.321-1.931-.538-2.684-.538-.277 0-.5-.224-.5-.5z" fill="#000" fill-rule="evenodd"/><path clip-rule="evenodd" d="m250.257 174.111c-1.006.237-1.891.665-2.344 1.128-.193.197-.51.2-.707.007-.198-.193-.201-.509-.008-.707.642-.655 1.737-1.144 2.83-1.401 1.095-.258 2.315-.314 3.234.017 2.917 1.054 3.863 4.248 2.834 6.881-.474 1.213-1.588 2.864-3.219 3.702-.828.425-1.791.641-2.856.475-1.062-.167-2.185-.707-3.35-1.726-.208-.182-.229-.498-.047-.705.182-.208.497-.229.705-.047 1.058.925 2.013 1.359 2.847 1.49.83.13 1.58-.035 2.244-.376 1.35-.694 2.329-2.115 2.744-3.177.871-2.228.033-4.754-2.242-5.576-.659-.238-1.659-.222-2.665.015z" fill="#000" fill-rule="evenodd"/><path clip-rule="evenodd" d="m275.326 166.487c.017.005.042.014.078.028.061.022.142.052.243.09.025.009.051.018.078.029.274.101.657.243 1.101.4.886.314 2.029.695 3.052.951.268.067.54-.096.607-.363.067-.268-.096-.54-.364-.607-.977-.244-2.084-.613-2.961-.923-.437-.155-.814-.295-1.087-.396-.026-.01-.051-.019-.076-.028-.101-.038-.186-.069-.25-.093-.039-.014-.074-.026-.101-.036-.013-.004-.029-.009-.045-.014-.007-.002-.021-.006-.037-.01-.007-.002-.021-.005-.037-.007-.011-.002-.046-.007-.091-.006-.276.006-.495.235-.489.511.006.23.166.421.379.474z" fill="#000" fill-rule="evenodd"/><path clip-rule="evenodd" d="m250.406 160.602c-.412-.109-.855-.145-1.202-.132-.252.01-.674.052-1.054.154-.19.051-.351.112-.47.18-.063.036-.104.067-.13.093.027.015.064.033.113.053.303.122.8.204 1.384.251.601.049 1.215.055 1.693.051-.043-.074-.068-.161-.068-.253 0-.104.032-.201.086-.281-.108-.043-.226-.082-.352-.116zm1.54.78c.054-.029.115-.072.17-.134.11-.125.167-.297.135-.479-.026-.152-.106-.264-.164-.331-.369-.426-.917-.668-1.425-.802-.518-.138-1.062-.181-1.496-.165-.3.012-.8.059-1.275.187-.238.064-.487.152-.707.277-.216.124-.444.306-.576.577-.143.294-.144.619.046.9.16.236.414.376.635.465.453.183 1.082.273 1.678.321.61.049 1.242.058 1.733.054.246-.001.458-.006.616-.01.05-.001.096-.002.135-.003.021-.001.04-.001.057-.002l.058-.001c.014-.001.019-.001.019-.001s0 0-.001 0c.276.005.504-.215.508-.491.003-.141-.053-.269-.146-.362z" fill="#000" fill-rule="evenodd"/><path clip-rule="evenodd" d="m158.298 97.1101c.276.0075.494.2374.486.5135-.177 6.4874-1.797 12.4624-3.762 18.5934-1.541 4.809-3.53 8.307-5.613 11.97-.912 1.602-1.841 3.237-2.759 5.027-.126.245-.427.342-.673.216s-.343-.427-.217-.673c.957-1.866 1.908-3.538 2.83-5.157 2.059-3.62 3.971-6.981 5.48-11.688 1.958-6.112 3.541-11.975 3.715-18.3158.007-.2761.237-.4937.513-.4861z" fill="#000" fill-rule="evenodd"/><path clip-rule="evenodd" d="m162.87 117.035c.232.15.298.459.148.691l-9.491 14.668c-.15.232-.459.298-.691.148s-.298-.459-.148-.691l9.491-14.668c.15-.232.459-.298.691-.148z" fill="#000" fill-rule="evenodd"/><path clip-rule="evenodd" d="m289.384 152.028c.267-.072.542.085.614.351.09.331.166.664.229.997.014-.18.047-.364.115-.535.005-.012.011-.025.017-.037.039-.078.108-.17.223-.232.114-.063.23-.073.319-.062.153.017.262.095.303.126.1.075.194.182.267.272.158.194.344.468.516.738.174.274.344.56.472.789.064.113.119.217.16.299.02.041.04.082.055.121.008.019.018.044.026.072l.001.001c0 .002.001.005.002.008.797 1.884 1.075 4.32.381 6.262-.092.26-.379.395-.639.302s-.395-.379-.302-.639c.592-1.658.363-3.848-.376-5.572-.01-.022-.018-.045-.024-.068-.004-.01-.011-.024-.021-.043-.03-.062-.076-.149-.136-.255-.073-.13-.162-.283-.258-.442.041.206.085.397.127.578.036.156.071.306.1.451.001.008.003.015.004.023.264 1.715.264 3.425.264 5.091v.018c0 .03.002.076.006.142.002.042.005.092.007.152.006.129.012.299.002.438-.005.061-.016.168-.057.271-.019.049-.069.157-.182.244-.144.11-.327.135-.489.081-.126-.043-.207-.122-.244-.162-.044-.046-.078-.096-.104-.139-.053-.085-.105-.191-.157-.313l-.003-.008c-.61-1.492-.809-3.006-.954-4.464-.021-.209-.041-.418-.061-.625-.119-1.248-.233-2.443-.554-3.617-.072-.266.085-.541.351-.614zm1.125 3.382c.026.257.051.513.075.767.019.204.038.407.059.608.041.416.086.827.143 1.234-.033-.778-.096-1.551-.214-2.323-.015-.076-.037-.174-.063-.286zm.329 5.912s0 0 0-.002z" fill="#000" fill-rule="evenodd"/><path clip-rule="evenodd" d="m292.744 165.779c.08.054.171.085.266.092.299.025.652-.175.652-.711 0-.04-.002-.074-.006-.102-.069.078-.141.152-.212.22-.119.114-.249.225-.381.318-.093.065-.202.133-.319.183zm1.345-1.734c.028.017.054.034.081.053.327.235.492.612.492 1.062 0 1.141-.872 1.78-1.735 1.708-.425-.035-.844-.244-1.128-.632-.285-.389-.404-.912-.327-1.526.034-.274.284-.468.558-.434.038.005.075.014.11.027.058-.049.118-.092.176-.128.076-.049.159-.093.245-.132.041-.034.083-.068.126-.101.151-.114.349-.24.571-.298.083-.023.189-.044.302-.035.123.009.308.06.436.235.049.068.078.137.093.201z" fill="#000" fill-rule="evenodd"/><path clip-rule="evenodd" d="m292.695 151.215c-.755-.813-1.473-1.203-2.175-1.177-.662.024-1.432.586-2.277 1.757-.822 1.141-1.621 2.727-2.373 4.512-1.254 2.972-2.347 6.413-3.201 9.102-.171.539-.333 1.048-.484 1.516l-.005.014-.005.013c-.215.556-.175.957-.011 1.267.174.332.534.645 1.115.919 1.17.553 3.008.845 5.122.956 4.2.22 9.212-.286 11.387-.575 1.064-.141 1.535-.41 1.728-.663.169-.223.217-.566.017-1.177-.199-.606-.599-1.341-1.121-2.223-.153-.259-.317-.529-.486-.81-.397-.658-.828-1.372-1.243-2.121-.601-1.084-1.214-2.441-1.844-3.84l-.043-.096c-.62-1.379-1.26-2.801-1.938-4.09-.695-1.325-1.413-2.477-2.163-3.284zm5.056 7.059c.635 1.41 1.23 2.726 1.806 3.766.406.733.821 1.42 1.214 2.07.172.286.34.564.501.836.519.875.974 1.698 1.211 2.422.236.719.299 1.476-.172 2.094-.447.587-1.27.899-2.392 1.048-2.196.292-7.279.808-11.571.583-2.132-.112-4.138-.409-5.496-1.051-.682-.322-1.257-.758-1.573-1.356-.324-.615-.333-1.321-.042-2.081.148-.457.306-.955.474-1.485.854-2.687 1.964-6.183 3.237-9.202.763-1.809 1.596-3.476 2.484-4.707.865-1.2 1.884-2.129 3.051-2.173 1.128-.042 2.108.596 2.945 1.496.841.906 1.608 2.152 2.316 3.5.691 1.317 1.342 2.763 1.958 4.132z" fill="#000" fill-rule="evenodd"/><path clip-rule="evenodd" d="m220.033 22.8262c2.005 1.1352 3.237 3.2687 3.217 5.5726l-.097 11.1683c-.019 2.2462-1.225 4.3145-3.17 5.4374l-10.003 5.7734c-1.945 1.1229-4.34 1.1328-6.294.026l-9.719-5.503c-2.005-1.1352-3.237-3.2687-3.217-5.5727l.097-11.1683c.019-2.2461 1.225-4.3144 3.17-5.4373l10.003-5.7734c1.945-1.1229 4.34-1.1328 6.294-.0261zm-3.536 8.6714c-.526 1.982-2.537 3.1719-4.502 2.6761l-9.361-2.5323c-1.542-.4174-3.147-.2036-4.526.6-1.378.8034-2.364 2.0994-2.777 3.6558-.413 1.5566-.201 3.1817.599 4.5807.8 1.3989 2.089 2.3963 3.631 2.8135 1.541.4174 3.146.2036 4.525-.5998 1.379-.8036 2.365-2.0995 2.777-3.6559l.327-1.3079c.041-.1651-.058-.3329-.222-.3773l-1.572-.4256c-.169-.0457-.343.0562-.385.226l-.319 1.2799c-.533 2.0032-2.581 3.196-4.565 2.6597-1.978-.5356-3.153-2.5914-2.624-4.5882.526-1.982 2.537-3.1728 4.503-2.6771l9.36 2.5333c1.542.4174 3.147.2036 4.526-.6 1.378-.8034 2.364-2.0993 2.777-3.6557.413-1.5567.201-3.1818-.599-4.5807-.8-1.399-2.089-2.3964-3.631-2.8136-1.541-.4174-3.146-.2036-4.525.5999s-2.365 2.0994-2.777 3.6558l-.309 1.034c-.05.1684.048.3452.218.3911l1.572.4256c.164.0443.333-.0498.381-.2121l.309-1.0336c.533-2.0033 2.581-3.1961 4.565-2.6597 1.978.5355 3.153 2.5914 2.624 4.5881z" fill="#fff" fill-rule="evenodd"/></svg>