<svg fill="none" height="79" viewBox="0 0 79 79" width="79" xmlns="http://www.w3.org/2000/svg" xmlns:xlink="http://www.w3.org/1999/xlink"><clipPath id="a"><path d="m0 0h79v79h-79z"/></clipPath><g clip-path="url(#a)"><path d="m31.3269 58.7505-19.5759-10.4069v-14.2326l18.2326-10.0465 37.6788 21.6744v13.7265l-17.7799 10.2001z" fill="#fff"/><g clip-rule="evenodd" fill="#000" fill-rule="evenodd"><path d="m49.1949 53.2949c.2727 0 .4937.2211.4937.4937v16.5085c0 .2727-.221.4937-.4937.4937s-.4938-.221-.4938-.4937v-16.5085c0-.2726.2211-.4937.4938-.4937z"/><path d="m67.274 41.5215c.2727 0 .4938.221.4938.4937v18.1114c0 .2727-.2211.4937-.4938.4937s-.4937-.221-.4937-.4937v-18.1114c0-.2727.221-.4937.4937-.4937z"/><path d="m11.5134 31.662c.2727 0 .4938.221.4938.4937v16.8402c0 .2727-.2211.4937-.4938.4937s-.4937-.221-.4937-.4937v-16.8402c0-.2727.221-.4937.4937-.4937z"/><path d="m10.5393 33.4577c.1342-.2374.4354-.3211.6728-.1869l40.0824 22.6553c.2374.1341.3211.4354.1869.6727-.1342.2374-.4354.3211-.6728.1869l-40.0824-22.6552c-.2374-.1342-.3211-.4354-.1869-.6728z"/><path d="m10.1672 47.3932c.1342-.2374.4354-.3211.6728-.1869l40.0824 22.6553c.2374.1342.3211.4354.1869.6728s-.4354.3211-.6728.1869l-40.0824-22.6553c-.2374-.1342-.3211-.4354-.1869-.6728z"/><path d="m30.3811 24.6432c.1342-.2374.4354-.3211.6728-.1869l36.8518 20.8293c.2374.1342.3211.4354.1869.6728s-.4354.3211-.6728.1869l-36.8518-20.8293c-.2374-.1342-.3211-.4354-.1869-.6728z"/><path d="m10.5364 34.5655c-.1319-.2386-.0454-.539.1932-.671l19.8566-10.9787c.2387-.1319.5391-.0454.671.1932.132.2387.0455.5391-.1932.671l-19.8565 10.9787c-.2387.132-.5391.0455-.6711-.1932z"/><path d="m48.77 56.3407c-.1389-.2347-.0612-.5375.1735-.6764l18.6902-11.0611c.2346-.1389.5375-.0612.6764.1734.1388.2347.0612.5375-.1735.6764l-18.6902 11.0612c-.2347.1388-.5375.0612-.6764-.1735z"/><path d="m47.9431 70.8011c-.1363-.2362-.0553-.5381.181-.6744l20.0334-11.5564c.2362-.1362.5381-.0552.6744.181s.0552.5382-.181.6744l-20.0334 11.5564c-.2362.1363-.5382.0552-.6744-.181z"/><path d="m65.3396 46.1993c.263.072.4178.3436.3458.6066l-4.5866 16.7529c-.072.263-.3436.4179-.6066.3459s-.4178-.3436-.3458-.6066l4.5866-16.753c.072-.263.3436-.4178.6066-.3458zm-5.2797 3.519c.2632.0714.4186.3427.3471.6059l-4.5901 16.903c-.0715.2631-.3428.4185-.6059.3471-.2632-.0715-.4186-.3427-.3471-.6059l4.5902-16.903c.0714-.2632.3427-.4186.6058-.3471zm7.7313 1.7111c.2633.0709.4192.3419.3483.6052l-2.4536 9.1067c-.0709.2634-.3418.4193-.6051.3484-.2633-.071-.4193-.3419-.3484-.6052l2.4536-9.1068c.0709-.2633.3419-.4193.6052-.3483zm-13.25 1.9005c.2632.0715.4186.3428.3471.6059l-4.3066 15.8588c-.0715.2632-.3427.4186-.6059.3471-.2632-.0714-.4186-.3427-.3471-.6059l4.3066-15.8588c.0715-.2631.3427-.4185.6059-.3471z"/><path d="m23.4122 47.3133c.0264.3346-.1352.6263-.3674.8586-.3516.3516-.8649.4846-1.3176.4313-.4568-.0538-.9453-.313-1.1524-.8507-.1674-.1441-.2225-.3884-.1192-.595.0071-.0142.0144-.0289.022-.0439.0004-.0023.0007-.0047.001-.007.0348-.237.1614-.4311.3534-.5545.0191-.0123.0385-.0237.0581-.0341.2082-.197.4835-.3312.8373-.3362.3924-.0055.9227.1348 1.2794.4211.1848.1484.3797.3839.4054.7104zm-1.9206.0716c.049.0021.1066.0076.173.0171.1739.0249.3397-.0442.4459-.1687.1212.04.2179.0913.2781.1397.0104.0083.0186.0156.025.0217-.012.0182-.0326.0444-.0671.079-.1037.1036-.2997.1728-.5039.1488-.1954-.023-.3059-.1158-.348-.2296-.001-.0027-.002-.0054-.003-.008zm.9432.0348s-.0004-.0006-.0011-.002c.0009.0013.0012.002.0011.002zm-.0063-.052c.0005-.0027.001-.0041.0012-.0041.0001 0-.0002.0013-.0012.0041z"/><path d="m30.0948 50.9871c.0264.3346-.1351.6264-.3674.8586-.3516.3516-.8649.4846-1.3176.4313-.4568-.0537-.9453-.313-1.1524-.8507-.1674-.144-.2225-.3884-.1192-.5949.0071-.0143.0144-.0289.0221-.044.0003-.0023.0006-.0047.001-.007.0347-.237.1613-.431.3533-.5544.0192-.0124.0386-.0237.0581-.0342.2083-.1969.4835-.3312.8374-.3362.3924-.0055.9227.1348 1.2793.4211.1849.1484.3797.3839.4054.7104zm-1.9205.0716c.0489.0021.1065.0077.1729.0171.174.0249.3397-.0442.4459-.1687.1212.04.2179.0914.2781.1397.0104.0083.0186.0156.025.0218-.012.0181-.0326.0444-.0671.0789-.1036.1036-.2997.1728-.5038.1488-.1954-.023-.306-.1158-.3481-.2296-.001-.0027-.002-.0053-.0029-.008zm.9432.0349c-.0001 0-.0005-.0007-.0011-.0021.0008.0014.0011.002.0011.0021zm-.0064-.0521c.0005-.0027.001-.0041.0012-.0041.0001 0-.0001.0014-.0012.0041z"/><path d="m37.4737 55.282c.0264.3346-.1351.6264-.3674.8587-.3516.3516-.8649.4846-1.3176.4313-.4568-.0538-.9453-.313-1.1524-.8508-.1674-.144-.2225-.3884-.1192-.5949.0071-.0143.0145-.0289.0221-.0439.0003-.0024.0006-.0047.001-.0071.0347-.2369.1613-.431.3533-.5544.0192-.0123.0386-.0237.0581-.0342.2083-.1969.4835-.3312.8374-.3362.3924-.0055.9227.1348 1.2793.4212.1849.1483.3797.3838.4054.7103zm-1.9205.0717c.0489.0021.1065.0076.1729.0171.174.0248.3397-.0443.4459-.1688.1212.0401.2179.0914.2781.1397.0104.0083.0186.0156.025.0218-.012.0182-.0326.0444-.0671.0789-.1036.1037-.2997.1729-.5038.1488-.1954-.023-.306-.1158-.3481-.2295-.001-.0027-.002-.0054-.0029-.008zm.9432.0348c-.0001 0-.0005-.0007-.0011-.002.0008.0013.0011.002.0011.002zm-.0064-.0521c.0005-.0027.0011-.0041.0012-.0041s-.0001.0014-.0012.0041z"/></g><path d="m52.3515 44.9207s12.3699.4559 11.1845-8.0656c-.4819-3.4703-1.7442-6.3864-5.8869-8.8222 3.33-13.0402-7.5355-20.99978-15.1765-16.9725-1.1999.6321-7.284-8.32959-14.086-4.16222-6.8018 4.16712-8.4905 13.05882-5.136 18.94282 3.354 5.8849 29.1009 19.0797 29.1009 19.0797z" fill="#cf2318"/><path clip-rule="evenodd" d="m59.9765 29.9447c1.3133.443 2.6111 1.2632 3.2438 2.4041l.0001.0002c1.2464 2.2498 1.6796 5.1465.237 7.773-1.5116 2.7517-3.4087 5.0706-6.5727 5.5878-.6295.1029-1.3757.0165-2.1769-.1821-.8084-.2005-1.7115-.5253-2.6706-.9334-1.918-.8162-4.1045-1.9846-6.2776-3.2216-1.4667-.8348-2.9379-1.707-4.3216-2.5274-.6658-.3947-1.3112-.7774-1.9262-1.1381-1.9089-1.1197-3.5089-2.0187-4.5588-2.4498-.2522-.1036-.3727-.392-.2692-.6443.1036-.2523.3921-.3728.6443-.2692 1.1267.4626 2.7892 1.4005 4.6833 2.5115.623.3654 1.2727.7507 1.9407 1.1467 1.3795.8179 2.8366 1.6818 4.2959 2.5124 2.165 1.2323 4.3116 2.3779 6.1759 3.1711.932.3966 1.7824.7003 2.5215.8836.7464.1851 1.3419.2376 1.78.166 2.6963-.4407 4.3925-2.4054 5.8665-5.0887 1.2379-2.2538.8933-4.7817-.2352-6.8188-.4657-.8398-1.502-1.5446-2.6958-1.9473-1.1983-.4042-2.4036-.4533-3.1434-.1489-.2522.1038-.5407-.0165-.6445-.2687-.1037-.2522.0166-.5407.2688-.6445 1.0509-.4324 2.5258-.3151 3.8347.1264z" fill="#000" fill-rule="evenodd"/><path clip-rule="evenodd" d="m54.9037 12.1871c3.0571 2.7824 4.8873 7.1283 4.8367 11.4235v.0004c-.0111.8855-.2259 3.5594-1.3721 6.3017-.1052.2516-.3944.3703-.646.2652-.2516-.1052-.3703-.3944-.2651-.646 1.0834-2.592 1.2857-5.1322 1.2958-5.9333.0473-4.0281-1.6765-8.0987-4.514-10.6811-2.8171-2.5639-6.7331-3.66857-11.1744-1.8069m11.8391 1.0765c-3.0777-2.80098-7.3972-4.00929-12.2211-1.9871zm-12.2211-1.9871-.0002.0001zm-.0002.0001c-1.0711.4496-2.383 1.2535-3.3141 2.0365zm.382.9106c-.9765.41-2.2033 1.1607-3.0605 1.8816-.2087.1755-.5202.1486-.6957-.0601s-.1486-.5201.0601-.6956" fill="#000" fill-rule="evenodd"/><path clip-rule="evenodd" d="m29.6191 6.72232c4.2284-1.54451 9.0603-.64061 11.6822 2.73235l-.3898.303.3896-.30331c.0001.0001.0001.00021.0002.00031.2487.31947.5832.93303.8652 1.52663.2812.5921.5508 1.2497.6381 1.6659.056.2669-.115.5286-.3819.5846-.2669.0559-.5286-.115-.5846-.3819-.0609-.2905-.2834-.8549-.5636-1.4449-.2794-.5883-.5755-1.1166-.7526-1.344l-.0002-.0003c-2.2986-2.95703-6.6385-3.84462-10.5638-2.41083-3.8911 1.42132-7.3342 5.12483-7.7455 11.30683v.0001c-.1787 2.6743.0243 5.9209 1.8364 8.1959-.0115-.0098-.023-.0197-.0345-.0296l-.3219.3744.3842-.3102c-.0093-.0115-.0186-.023-.0278-.0346 2.8752 2.4633 6.8236 4.6557 9.806 6.3118.8683.4821 1.6547.9187 2.3089 1.3034.235.1382.3136.4408.1753.6759-.1382.235-.4408.3136-.6758.1754-.6186-.3638-1.3766-.7845-2.2233-1.2543-2.9971-1.6635-7.1049-3.9433-10.0695-6.4931-.0226-.0195-.0435-.041-.0622-.0642-2.0886-2.5873-2.2633-6.1903-2.0811-8.9165l.4927.0328-.4927-.0329v.0001c.4369-6.5672 4.1294-10.61178 8.392-12.16878z" fill="#000" fill-rule="evenodd"/><path d="m45.46 24.1207c5.4887 10.5604-.9727 15.7712-2.0847 16.3964l-3.4733 2.0148c-5.2246 1.1116-9.31-3.7054-10.6996-6.2529-3.8907-8.7262.2779-13.8721 2.8485-15.3543 6.0028-4.113 11.4405.4169 13.4091 3.196z" fill="#fff"/><path d="m32.1407 37.1858c.7453 1.2077 4.8684 3.3471 6.8293 2.6709 9.3649-5.2403-1.251-16.0589.5071-17.3098 1.758-1.2509 7.7759 8.2154 4.6993 16.2955-.4897 1.2862-1.8757 2.4974-2.5694 2.8399-2.7385 1.3524-4.4965 1.1157-6.8969.3043-2.5992-.8786-4.767-4.4289-6.5588-8.0463-1.7918-3.6175 1.0819-10.244 1.7918-11.3934.71-1.1495 5.5108-3.7528 8.6888-3.178 3.1779.5747 6.2207 4.6317 7.6744 6.9307 1.4538 2.2989 1.4538 8.0801 1.1495 8.8239s-1.108 4.4289-2.9075 4.4289c-.3719 0 1.42-3.6851.879-8.283-.1466-1.246-2.1975-6.1869-4.0908-8.2154-1.8932-2.0285-4.4627-2.8399-6.6264-2.9413-2.1637-.1015-4.0232 5.3755-4.767 6.7278s-1.4537 4.4289 2.1976 10.3453z" fill="#cf2318"/><path d="m30.6191 24.7456.2367-2.299 3.3132-2.3665 7.5731 1.4199-1.0143 4.0232c-.9241-.6762-3.2388-2.157-5.105-2.6709-1.8663-.5138-4.1134 1.0481-5.0037 1.8933z" fill="#cf2318"/><path d="m39.0378 24.5762-6.4235 12.8471 1.6565 1.4876 6.4912-12.0696z" fill="#cf2318"/><path clip-rule="evenodd" d="m28.6248 25.8612c-.7657 2.3451-.7645 5.2527.2131 8.1584.9776 2.9058 2.7343 5.2228 4.7618 6.6281 2.0274 1.4053 4.295 1.8831 6.3448 1.1935 2.0498-.6897 3.5675-2.441 4.3331-4.786.7657-2.3451.7645-5.2528-.2131-8.1585-.9777-2.9057-2.7343-5.2227-4.7618-6.6281-2.0274-1.4053-4.295-1.8831-6.3448-1.1934-2.0499.6897-3.5675 2.441-4.3331 4.786zm-.9388-.3065c.8379-2.5663 2.5436-4.6035 4.957-5.4154 2.4133-.812 5.0035-.2202 7.2223 1.3177 2.2187 1.5379 4.0965 4.0377 5.1351 7.1248 1.0387 3.0871 1.0538 6.2136.2159 8.7798-.8378 2.5664-2.5436 4.6035-4.9569 5.4155s-5.0036.2201-7.2223-1.3178-4.0965-4.0376-5.1351-7.1248c-1.0387-3.0871-1.0538-6.2135-.216-8.7798z" fill="#000" fill-rule="evenodd"/><path clip-rule="evenodd" d="m30.3965 27.2219c-.5754 1.7625-.5762 3.9545.1622 6.1493.7385 2.1949 2.0641 3.9406 3.5878 4.9968 1.5238 1.0561 3.2152 1.4071 4.7356.8955 1.5204-.5115 2.6557-1.8135 3.2311-3.5759.5755-1.7625.5762-3.9544-.1622-6.1493-.7385-2.1948-2.064-3.9405-3.5878-4.9967s-3.2152-1.4071-4.7356-.8956c-1.5204.5116-2.6557 1.8135-3.2311 3.5759zm-.9387-.3064c.6476-1.9838 1.971-3.5716 3.8549-4.2054 1.8839-.6339 3.898-.1689 5.613 1.0199 1.7151 1.1888 3.1617 3.1172 3.9612 5.4934.7995 2.3763.8127 4.787.1651 6.7707-.6477 1.9837-1.9711 3.5715-3.855 4.2054-1.8839.6338-3.8979.1689-5.613-1.0199s-3.1617-3.1172-3.9612-5.4935c-.7995-2.3762-.8127-4.7869-.165-6.7706z" fill="#000" fill-rule="evenodd"/><path clip-rule="evenodd" d="m40.4531 20.5786c-2.4698-1.1452-5.4347-1.1292-8.5548.903-.2285.1488-.5344.0842-.6832-.1443-.1489-.2285-.0843-.5343.1442-.6832 3.3949-2.2112 6.7198-2.2648 9.5092-.9714 2.765 1.2821 4.9557 3.8632 6.1888 6.8468 1.2337 2.9852 1.5321 6.4294.4408 9.4705-1.0982 3.0605-3.5862 5.6603-7.8116 6.9515-.2608.0797-.5368-.0671-.6165-.3279s.0671-.5368.3279-.6165c3.9469-1.2061 6.1845-3.5922 7.1708-6.3406.9932-2.7679.7348-5.9557-.4241-8.7599-1.1596-2.8058-3.1974-5.1715-5.6915-6.328z" fill="#000" fill-rule="evenodd"/><path clip-rule="evenodd" d="m41.4953 19.7775c.1087.25-.0059.5409-.256.6496-.2057.0895-.4197.199-.6512.3201-.0355.0185-.0714.0373-.1076.0564-.1961.1029-.4038.2119-.6135.3126-.4937.237-1.0584.4588-1.6597.481-.2725.0101-.5015-.2026-.5116-.4751s.2026-.5016.4751-.5117c.3931-.0146.808-.1632 1.2688-.3844.1923-.0924.3821-.1919.5783-.2949.0372-.0195.0747-.0392.1124-.0589.232-.1214.4738-.2457.7153-.3507.2501-.1087.5409.0059.6497.256z" fill="#000" fill-rule="evenodd"/><path clip-rule="evenodd" d="m43.714 21.9678c.0802.2606-.0661.5369-.3267.6171-.361.1111-.7171.2548-1.088.4113-.0758.0321-.1527.0648-.2304.0979-.2952.1258-.6024.2567-.9124.3729-.2553.0958-.5399-.0336-.6357-.2889-.0957-.2554.0336-.54.289-.6357.2875-.1078.5687-.2276.8613-.3522.0804-.0343.1616-.0689.2441-.1037.376-.1588.7704-.3188 1.1817-.4454.2606-.0802.5369.0661.6171.3267z" fill="#000" fill-rule="evenodd"/><path clip-rule="evenodd" d="m45.3151 24.6327c.0863.2587-.0535.5383-.3122.6245-.2177.0726-.4524.1561-.6933.2418-.3445.1226-.7016.2496-1.0391.3554-.2602.0816-.5373-.0633-.6189-.3235-.0815-.2602.0633-.5372.3235-.6188.3361-.1053.6455-.2159.9637-.3295.2405-.0859.4859-.1736.7518-.2622.2587-.0862.5383.0536.6245.3123z" fill="#000" fill-rule="evenodd"/><path clip-rule="evenodd" d="m47.0758 27.3714c.1173.2462.0127.5409-.2335.6581-.0183.0087-.0366.0174-.055.0262-.6773.3226-1.3881.6612-2.1548.8924-.261.0788-.5365-.0691-.6152-.3301-.0788-.2611.069-.5366.3301-.6153.6939-.2093 1.3459-.5198 2.0434-.852l.0269-.0128c.2462-.1172.5409-.0127.6581.2335z" fill="#000" fill-rule="evenodd"/><path clip-rule="evenodd" d="m47.4691 30.3887c.0591.2662-.1087.5299-.3749.5891-.1626.0361-.2958.0925-.4759.1687-.0656.0278-.1374.0582-.2191.0912-.4191.1692-.8084.1686-1.1407.168-.0184 0-.0367 0-.0548 0-.2727 0-.4937-.2211-.4937-.4938s.221-.4937.4937-.4937c.3772 0 .5905-.0012.8257-.0962.0457-.0184.0952-.0395.1479-.0619.1988-.0846.4435-.1887.7027-.2463.2662-.0591.5299.1087.5891.3749z" fill="#000" fill-rule="evenodd"/><path clip-rule="evenodd" d="m47.5821 33.8132c.0718.2631-.0833.5345-.3464.6062-.5587.1524-1.0964.2118-1.6373.2537-.2719.0211-.5094-.1822-.5305-.454-.0211-.2719.1822-.5094.4541-.5305.5229-.0406.9865-.0944 1.4539-.2219.263-.0717.5345.0834.6062.3465z" fill="#000" fill-rule="evenodd"/><path clip-rule="evenodd" d="m46.7657 36.871c.0247.2715-.1754.5117-.447.5364-.2307.021-.4615.0392-.6889.0571-.01.0008-.0201.0016-.0302.0024-.2382.0189-.4729.0375-.7066.0593-.2715.0252-.5121-.1744-.5373-.4459-.0253-.2715.1743-.5121.4459-.5374.2415-.0224.4827-.0416.7202-.0604.0095-.0007.0189-.0015.0283-.0022.2289-.0181.4544-.0359.6792-.0564.2716-.0247.5117.1755.5364.4471z" fill="#000" fill-rule="evenodd"/><path clip-rule="evenodd" d="m39.3328 24.8131-6.524 12.6131-.8772-.4537 6.5241-12.6131zm1.8515 1.9444-6.8294 12.5311-.867-.4726 6.8294-12.531z" fill="#000" fill-rule="evenodd"/></g></svg>