<svg width="79" height="79" viewBox="0 0 79 79" fill="none" xmlns="http://www.w3.org/2000/svg">
<g clip-path="url(#clip0_4027_452340)">
<path d="M31.3269 58.7505L11.751 48.3436L11.751 34.111L29.9836 24.0645L67.6624 45.7389V59.4654L49.8825 69.6655L31.3269 58.7505Z" fill="white"/>
<path fill-rule="evenodd" clip-rule="evenodd" d="M49.1949 53.2949C49.4676 53.2949 49.6886 53.516 49.6886 53.7886L49.6886 70.2971C49.6886 70.5698 49.4676 70.7908 49.1949 70.7908C48.9222 70.7908 48.7011 70.5698 48.7011 70.2971L48.7011 53.7886C48.7011 53.516 48.9222 53.2949 49.1949 53.2949Z" fill="black"/>
<path fill-rule="evenodd" clip-rule="evenodd" d="M67.274 41.5215C67.5467 41.5215 67.7678 41.7425 67.7678 42.0152V60.1266C67.7678 60.3993 67.5467 60.6203 67.274 60.6203C67.0013 60.6203 66.7803 60.3993 66.7803 60.1266V42.0152C66.7803 41.7425 67.0013 41.5215 67.274 41.5215Z" fill="black"/>
<path fill-rule="evenodd" clip-rule="evenodd" d="M11.5134 31.662C11.7861 31.662 12.0072 31.883 12.0072 32.1557L12.0072 48.9959C12.0072 49.2686 11.7861 49.4896 11.5134 49.4896C11.2407 49.4896 11.0197 49.2686 11.0197 48.9959L11.0197 32.1557C11.0197 31.883 11.2407 31.662 11.5134 31.662Z" fill="black"/>
<path fill-rule="evenodd" clip-rule="evenodd" d="M10.5393 33.4577C10.6735 33.2203 10.9747 33.1366 11.2121 33.2708L51.2945 55.9261C51.5319 56.0602 51.6156 56.3615 51.4814 56.5988C51.3472 56.8362 51.046 56.9199 50.8086 56.7857L10.7262 34.1305C10.4888 33.9963 10.4051 33.6951 10.5393 33.4577Z" fill="black"/>
<path fill-rule="evenodd" clip-rule="evenodd" d="M10.1672 47.3932C10.3014 47.1558 10.6026 47.0721 10.84 47.2063L50.9224 69.8616C51.1598 69.9958 51.2435 70.297 51.1093 70.5344C50.9751 70.7718 50.6739 70.8555 50.4365 70.7213L10.3541 48.066C10.1167 47.9318 10.033 47.6306 10.1672 47.3932Z" fill="black"/>
<path fill-rule="evenodd" clip-rule="evenodd" d="M30.3811 24.6432C30.5153 24.4058 30.8165 24.3221 31.0539 24.4563L67.9057 45.2856C68.1431 45.4198 68.2268 45.721 68.0926 45.9584C67.9584 46.1958 67.6572 46.2795 67.4198 46.1453L30.568 25.316C30.3306 25.1818 30.2469 24.8806 30.3811 24.6432Z" fill="black"/>
<path fill-rule="evenodd" clip-rule="evenodd" d="M10.5364 34.5655C10.4045 34.3269 10.491 34.0265 10.7296 33.8945L30.5862 22.9158C30.8249 22.7839 31.1253 22.8704 31.2572 23.109C31.3892 23.3477 31.3027 23.6481 31.064 23.78L11.2075 34.7587C10.9688 34.8907 10.6684 34.8042 10.5364 34.5655Z" fill="black"/>
<path fill-rule="evenodd" clip-rule="evenodd" d="M48.77 56.3407C48.6311 56.106 48.7088 55.8032 48.9435 55.6643L67.6337 44.6032C67.8683 44.4643 68.1712 44.542 68.3101 44.7766C68.4489 45.0113 68.3713 45.3141 68.1366 45.453L49.4464 56.5142C49.2117 56.653 48.9089 56.5754 48.77 56.3407Z" fill="black"/>
<path fill-rule="evenodd" clip-rule="evenodd" d="M47.9431 70.8011C47.8068 70.5649 47.8878 70.263 48.1241 70.1267L68.1575 58.5703C68.3937 58.4341 68.6956 58.5151 68.8319 58.7513C68.9682 58.9875 68.8871 59.2895 68.6509 59.4257L48.6175 70.9821C48.3813 71.1184 48.0793 71.0373 47.9431 70.8011Z" fill="black"/>
<path fill-rule="evenodd" clip-rule="evenodd" d="M65.3396 46.1993C65.6026 46.2713 65.7574 46.5429 65.6854 46.8059L61.0988 63.5588C61.0268 63.8218 60.7552 63.9767 60.4922 63.9047C60.2292 63.8327 60.0744 63.5611 60.1464 63.2981L64.733 46.5451C64.805 46.2821 65.0766 46.1273 65.3396 46.1993ZM60.0599 49.7183C60.3231 49.7897 60.4785 50.061 60.407 50.3242L55.8169 67.2272C55.7454 67.4903 55.4741 67.6457 55.211 67.5743C54.9478 67.5028 54.7924 67.2316 54.8639 66.9684L59.4541 50.0654C59.5255 49.8022 59.7968 49.6468 60.0599 49.7183ZM67.7912 51.4294C68.0545 51.5003 68.2104 51.7713 68.1395 52.0346L65.6859 61.1413C65.615 61.4047 65.3441 61.5606 65.0808 61.4897C64.8175 61.4187 64.6615 61.1478 64.7324 60.8845L67.186 51.7777C67.2569 51.5144 67.5279 51.3584 67.7912 51.4294ZM54.5412 53.3299C54.8044 53.4014 54.9598 53.6727 54.8883 53.9358L50.5817 69.7946C50.5102 70.0578 50.239 70.2132 49.9758 70.1417C49.7126 70.0703 49.5572 69.799 49.6287 69.5358L53.9353 53.677C54.0068 53.4139 54.278 53.2585 54.5412 53.3299Z" fill="black"/>
<path fill-rule="evenodd" clip-rule="evenodd" d="M23.4122 47.3133C23.4386 47.6479 23.277 47.9396 23.0448 48.1719C22.6932 48.5235 22.1799 48.6565 21.7272 48.6032C21.2704 48.5494 20.7819 48.2902 20.5748 47.7525C20.4074 47.6084 20.3523 47.3641 20.4556 47.1575C20.4627 47.1433 20.47 47.1286 20.4776 47.1136C20.478 47.1113 20.4783 47.1089 20.4786 47.1066C20.5134 46.8696 20.64 46.6755 20.832 46.5521C20.8511 46.5398 20.8705 46.5284 20.8901 46.518C21.0983 46.321 21.3736 46.1868 21.7274 46.1818C22.1198 46.1763 22.6501 46.3166 23.0068 46.6029C23.1916 46.7513 23.3865 46.9868 23.4122 47.3133ZM21.4916 47.3849C21.5406 47.387 21.5982 47.3925 21.6646 47.402C21.8385 47.4269 22.0043 47.3578 22.1105 47.2333C22.2317 47.2733 22.3284 47.3246 22.3886 47.373C22.399 47.3813 22.4072 47.3886 22.4136 47.3947C22.4016 47.4129 22.381 47.4391 22.3465 47.4737C22.2428 47.5773 22.0468 47.6465 21.8426 47.6225C21.6472 47.5995 21.5367 47.5067 21.4946 47.3929C21.4936 47.3902 21.4926 47.3875 21.4916 47.3849ZM22.4348 47.4197C22.4348 47.4197 22.4344 47.4191 22.4337 47.4177C22.4346 47.419 22.4349 47.4197 22.4348 47.4197ZM22.4285 47.3677C22.429 47.365 22.4295 47.3636 22.4297 47.3636C22.4298 47.3636 22.4295 47.3649 22.4285 47.3677Z" fill="black"/>
<path fill-rule="evenodd" clip-rule="evenodd" d="M30.0948 50.9871C30.1212 51.3217 29.9597 51.6135 29.7274 51.8457C29.3758 52.1973 28.8625 52.3303 28.4098 52.277C27.953 52.2233 27.4645 51.964 27.2574 51.4263C27.09 51.2823 27.0349 51.0379 27.1382 50.8314C27.1453 50.8171 27.1526 50.8025 27.1603 50.7874C27.1606 50.7851 27.1609 50.7827 27.1613 50.7804C27.196 50.5434 27.3226 50.3494 27.5146 50.226C27.5338 50.2136 27.5532 50.2023 27.5727 50.1918C27.781 49.9949 28.0562 49.8606 28.4101 49.8556C28.8025 49.8501 29.3328 49.9904 29.6894 50.2767C29.8743 50.4251 30.0691 50.6606 30.0948 50.9871ZM28.1743 51.0587C28.2232 51.0608 28.2808 51.0664 28.3472 51.0758C28.5212 51.1007 28.6869 51.0316 28.7931 50.9071C28.9143 50.9471 29.011 50.9985 29.0712 51.0468C29.0816 51.0551 29.0898 51.0624 29.0962 51.0686C29.0842 51.0867 29.0636 51.113 29.0291 51.1475C28.9255 51.2511 28.7294 51.3203 28.5253 51.2963C28.3299 51.2733 28.2193 51.1805 28.1772 51.0667C28.1762 51.064 28.1752 51.0614 28.1743 51.0587ZM29.1175 51.0936C29.1174 51.0936 29.117 51.0929 29.1164 51.0915C29.1172 51.0929 29.1175 51.0935 29.1175 51.0936ZM29.1111 51.0415C29.1116 51.0388 29.1121 51.0374 29.1123 51.0374C29.1124 51.0374 29.1122 51.0388 29.1111 51.0415Z" fill="black"/>
<path fill-rule="evenodd" clip-rule="evenodd" d="M37.4737 55.282C37.5001 55.6166 37.3386 55.9084 37.1063 56.1407C36.7547 56.4923 36.2414 56.6253 35.7887 56.572C35.3319 56.5182 34.8434 56.259 34.6363 55.7212C34.4689 55.5772 34.4138 55.3328 34.5171 55.1263C34.5242 55.112 34.5316 55.0974 34.5392 55.0824C34.5395 55.08 34.5398 55.0777 34.5402 55.0753C34.5749 54.8384 34.7015 54.6443 34.8935 54.5209C34.9127 54.5086 34.9321 54.4972 34.9516 54.4867C35.1599 54.2898 35.4351 54.1555 35.789 54.1505C36.1814 54.145 36.7117 54.2853 37.0683 54.5717C37.2532 54.72 37.448 54.9555 37.4737 55.282ZM35.5532 55.3537C35.6021 55.3558 35.6597 55.3613 35.7261 55.3708C35.9001 55.3956 36.0658 55.3265 36.172 55.202C36.2932 55.2421 36.3899 55.2934 36.4501 55.3417C36.4605 55.35 36.4687 55.3573 36.4751 55.3635C36.4631 55.3817 36.4425 55.4079 36.408 55.4424C36.3044 55.5461 36.1083 55.6153 35.9042 55.5912C35.7088 55.5682 35.5982 55.4754 35.5561 55.3617C35.5551 55.359 35.5541 55.3563 35.5532 55.3537ZM36.4964 55.3885C36.4963 55.3885 36.4959 55.3878 36.4953 55.3865C36.4961 55.3878 36.4964 55.3885 36.4964 55.3885ZM36.49 55.3364C36.4905 55.3337 36.4911 55.3323 36.4912 55.3323C36.4913 55.3323 36.4911 55.3337 36.49 55.3364Z" fill="black"/>
<path d="M52.3515 44.9207C52.3515 44.9207 64.7214 45.3766 63.536 36.8551C63.0541 33.3848 61.7918 30.4687 57.6491 28.0329C60.9791 14.9927 50.1136 7.03312 42.4726 11.0604C41.2727 11.6925 35.1886 2.73081 28.3866 6.89818C21.5848 11.0653 19.8961 19.957 23.2506 25.841C26.6046 31.7259 52.3515 44.9207 52.3515 44.9207Z" fill="#CF2318"/>
<path fill-rule="evenodd" clip-rule="evenodd" d="M59.9765 29.9447C61.2898 30.3877 62.5876 31.2079 63.2203 32.3488L63.2204 32.349C64.4668 34.5988 64.9 37.4955 63.4574 40.122C61.9458 42.8737 60.0487 45.1926 56.8847 45.7098C56.2552 45.8127 55.509 45.7263 54.7078 45.5277C53.8994 45.3272 52.9963 45.0024 52.0372 44.5943C50.1192 43.7781 47.9327 42.6097 45.7596 41.3727C44.2929 40.5379 42.8217 39.6657 41.438 38.8453C40.7722 38.4506 40.1268 38.0679 39.5118 37.7072C37.6029 36.5875 36.0029 35.6885 34.953 35.2574C34.7008 35.1538 34.5803 34.8654 34.6838 34.6131C34.7874 34.3608 35.0759 34.2403 35.3281 34.3439C36.4548 34.8065 38.1173 35.7444 40.0114 36.8554C40.6344 37.2208 41.2841 37.6061 41.9521 38.0021C43.3316 38.82 44.7887 39.6839 46.248 40.5145C48.413 41.7468 50.5596 42.8924 52.4239 43.6856C53.3559 44.0822 54.2063 44.3859 54.9454 44.5692C55.6918 44.7543 56.2873 44.8068 56.7254 44.7352C59.4217 44.2945 61.1179 42.3298 62.5919 39.6465C63.8298 37.3927 63.4852 34.8648 62.3567 32.8277C61.891 31.9879 60.8547 31.2831 59.6609 30.8804C58.4626 30.4762 57.2573 30.4271 56.5175 30.7315C56.2653 30.8353 55.9768 30.715 55.873 30.4628C55.7693 30.2106 55.8896 29.9221 56.1418 29.8183C57.1927 29.3859 58.6676 29.5032 59.9765 29.9447Z" fill="black"/>
<path fill-rule="evenodd" clip-rule="evenodd" d="M54.9037 12.1871C57.9608 14.9695 59.791 19.3154 59.7404 23.6106L59.7404 23.611C59.7293 24.4965 59.5145 27.1704 58.3683 29.9127C58.2631 30.1643 57.9739 30.283 57.7223 30.1779C57.4707 30.0727 57.352 29.7835 57.4572 29.5319C58.5406 26.9399 58.7429 24.3997 58.753 23.5986C58.8003 19.5705 57.0765 15.4999 54.239 12.9175C51.4219 10.3536 47.5059 9.24893 43.0646 11.1106M54.9037 12.1871C51.826 9.38612 47.5065 8.17781 42.6826 10.2L54.9037 12.1871ZM42.6826 10.2L42.6824 10.2001L42.6826 10.2ZM42.6824 10.2001C41.6113 10.6497 40.2994 11.4536 39.3683 12.2366L42.6824 10.2001ZM43.0644 11.1107C42.0879 11.5207 40.8611 12.2714 40.0039 12.9923C39.7952 13.1678 39.4837 13.1409 39.3082 12.9322C39.1327 12.7235 39.1596 12.4121 39.3683 12.2366" fill="black"/>
<path fill-rule="evenodd" clip-rule="evenodd" d="M29.6191 6.72232C33.8475 5.17781 38.6794 6.08171 41.3013 9.45467L40.9115 9.75767L41.3011 9.45436C41.3012 9.45446 41.3012 9.45457 41.3013 9.45467C41.55 9.77414 41.8845 10.3877 42.1665 10.9813C42.4477 11.5734 42.7173 12.231 42.8046 12.6472C42.8606 12.9141 42.6896 13.1758 42.4227 13.2318C42.1558 13.2877 41.8941 13.1168 41.8381 12.8499C41.7772 12.5594 41.5547 11.995 41.2745 11.405C40.9951 10.8167 40.699 10.2884 40.5219 10.061L40.5217 10.0607C38.2231 7.10367 33.8832 6.21608 29.9579 7.64987C26.0668 9.07119 22.6237 12.7747 22.2124 18.9567L22.2124 18.9568C22.0337 21.6311 22.2367 24.8777 24.0488 27.1527C24.0373 27.1429 24.0258 27.133 24.0143 27.1231L23.6924 27.4975L24.0766 27.1873C24.0673 27.1758 24.058 27.1643 24.0488 27.1527C26.924 29.616 30.8724 31.8084 33.8548 33.4645C34.7231 33.9466 35.5095 34.3832 36.1637 34.7679C36.3987 34.9061 36.4773 35.2087 36.339 35.4438C36.2008 35.6788 35.8982 35.7574 35.6632 35.6192C35.0446 35.2554 34.2866 34.8347 33.4399 34.3649C30.4428 32.7014 26.335 30.4216 23.3704 27.8718C23.3478 27.8523 23.3269 27.8308 23.3082 27.8076C21.2196 25.2203 21.0449 21.6173 21.2271 18.8911L21.7198 18.9239L21.2271 18.891C21.2271 18.891 21.2271 18.8911 21.2271 18.8911C21.664 12.3239 25.3565 8.27932 29.6191 6.72232Z" fill="black"/>
<path d="M45.46 24.1207C50.9487 34.6811 44.4873 39.8919 43.3753 40.5171L39.902 42.5319C34.6774 43.6435 30.592 38.8265 29.2024 36.279C25.3117 27.5528 29.4803 22.4069 32.0509 20.9247C38.0537 16.8117 43.4914 21.3416 45.46 24.1207Z" fill="white"/>
<path d="M32.1407 37.1858C32.886 38.3935 37.0091 40.5329 38.97 39.8567C48.3349 34.6164 37.719 23.7978 39.4771 22.5469C41.2351 21.296 47.253 30.7623 44.1764 38.8424C43.6867 40.1286 42.3007 41.3398 41.607 41.6823C38.8685 43.0347 37.1105 42.798 34.7101 41.9866C32.1109 41.108 29.9431 37.5577 28.1513 33.9403C26.3595 30.3228 29.2332 23.6963 29.9431 22.5469C30.6531 21.3974 35.4539 18.7941 38.6319 19.3689C41.8098 19.9436 44.8526 24.0006 46.3063 26.2996C47.7601 28.5985 47.7601 34.3797 47.4558 35.1235C47.1515 35.8673 46.3478 39.5524 44.5483 39.5524C44.1764 39.5524 45.9683 35.8673 45.4273 31.2694C45.2807 30.0234 43.2298 25.0825 41.3365 23.054C39.4433 21.0255 36.8738 20.2141 34.7101 20.1127C32.5464 20.0112 30.6869 25.4882 29.9431 26.8405C29.1993 28.1928 28.4894 31.2694 32.1407 37.1858Z" fill="#CF2318"/>
<path d="M30.6191 24.7456L30.8558 22.4466L34.169 20.0801L41.7421 21.5L40.7278 25.5232C39.8037 24.847 37.489 23.3662 35.6228 22.8523C33.7565 22.3385 31.5094 23.9004 30.6191 24.7456Z" fill="#CF2318"/>
<path d="M39.0378 24.5762L32.6143 37.4233L34.2708 38.9109L40.762 26.8413L39.0378 24.5762Z" fill="#CF2318"/>
<path fill-rule="evenodd" clip-rule="evenodd" d="M28.6248 25.8612C27.8591 28.2063 27.8603 31.1139 28.8379 34.0196C29.8155 36.9254 31.5722 39.2424 33.5997 40.6477C35.6271 42.053 37.8947 42.5308 39.9445 41.8412C41.9943 41.1515 43.512 39.4002 44.2776 37.0552C45.0433 34.7101 45.0421 31.8024 44.0645 28.8967C43.0868 25.991 41.3302 23.674 39.3027 22.2686C37.2753 20.8633 35.0077 20.3855 32.9579 21.0752C30.908 21.7649 29.3904 23.5162 28.6248 25.8612ZM27.686 25.5547C28.5239 22.9884 30.2296 20.9512 32.643 20.1393C35.0563 19.3273 37.6465 19.9191 39.8653 21.457C42.084 22.9949 43.9618 25.4947 45.0004 28.5818C46.0391 31.6689 46.0542 34.7954 45.2163 37.3616C44.3785 39.928 42.6727 41.9651 40.2594 42.7771C37.8461 43.5891 35.2558 42.9972 33.0371 41.4593C30.8184 39.9214 28.9406 37.4217 27.902 34.3345C26.8633 31.2474 26.8482 28.121 27.686 25.5547Z" fill="black"/>
<path fill-rule="evenodd" clip-rule="evenodd" d="M30.3965 27.2219C29.8211 28.9844 29.8203 31.1764 30.5587 33.3712C31.2972 35.5661 32.6228 37.3118 34.1465 38.368C35.6703 39.4241 37.3617 39.7751 38.8821 39.2635C40.4025 38.752 41.5378 37.45 42.1132 35.6876C42.6887 33.9251 42.6894 31.7332 41.951 29.5383C41.2125 27.3435 39.887 25.5978 38.3632 24.5416C36.8394 23.4854 35.148 23.1345 33.6276 23.646C32.1072 24.1576 30.9719 25.4595 30.3965 27.2219ZM29.4578 26.9155C30.1054 24.9317 31.4288 23.3439 33.3127 22.7101C35.1966 22.0762 37.2107 22.5412 38.9257 23.73C40.6408 24.9188 42.0874 26.8472 42.8869 29.2234C43.6864 31.5997 43.6996 34.0104 43.052 35.9941C42.4043 37.9778 41.0809 39.5656 39.197 40.1995C37.3131 40.8333 35.2991 40.3684 33.584 39.1796C31.8689 37.9908 30.4223 36.0624 29.6228 33.6861C28.8233 31.3099 28.8101 28.8992 29.4578 26.9155Z" fill="black"/>
<path fill-rule="evenodd" clip-rule="evenodd" d="M40.4531 20.5786C37.9833 19.4334 35.0184 19.4494 31.8983 21.4816C31.6698 21.6304 31.3639 21.5658 31.2151 21.3373C31.0662 21.1088 31.1308 20.803 31.3593 20.6541C34.7542 18.4429 38.0791 18.3893 40.8685 19.6827C43.6335 20.9648 45.8242 23.5459 47.0573 26.5295C48.291 29.5147 48.5894 32.9589 47.4981 36C46.3999 39.0605 43.9119 41.6603 39.6865 42.9515C39.4257 43.0312 39.1497 42.8844 39.07 42.6236C38.9903 42.3628 39.1371 42.0868 39.3979 42.0071C43.3448 40.801 45.5824 38.4149 46.5687 35.6665C47.5619 32.8986 47.3035 29.7108 46.1446 26.9066C44.985 24.1008 42.9472 21.7351 40.4531 20.5786Z" fill="black"/>
<path fill-rule="evenodd" clip-rule="evenodd" d="M41.4953 19.7775C41.604 20.0275 41.4894 20.3184 41.2393 20.4271C41.0336 20.5166 40.8196 20.6261 40.5881 20.7472C40.5526 20.7657 40.5167 20.7845 40.4805 20.8036C40.2844 20.9065 40.0767 21.0155 39.867 21.1162C39.3733 21.3532 38.8086 21.575 38.2073 21.5972C37.9348 21.6073 37.7058 21.3946 37.6957 21.1221C37.6856 20.8496 37.8983 20.6205 38.1708 20.6104C38.5639 20.5958 38.9788 20.4472 39.4396 20.226C39.6319 20.1336 39.8217 20.0341 40.0179 19.9311C40.0551 19.9116 40.0926 19.8919 40.1303 19.8722C40.3623 19.7508 40.6041 19.6265 40.8456 19.5215C41.0957 19.4128 41.3865 19.5274 41.4953 19.7775Z" fill="black"/>
<path fill-rule="evenodd" clip-rule="evenodd" d="M43.714 21.9678C43.7942 22.2284 43.6479 22.5047 43.3873 22.5849C43.0263 22.696 42.6702 22.8397 42.2993 22.9962C42.2235 23.0283 42.1466 23.061 42.0689 23.0941C41.7737 23.2199 41.4665 23.3508 41.1565 23.467C40.9012 23.5628 40.6166 23.4334 40.5208 23.1781C40.4251 22.9227 40.5544 22.6381 40.8098 22.5424C41.0973 22.4346 41.3785 22.3148 41.6711 22.1902C41.7515 22.1559 41.8327 22.1213 41.9152 22.0865C42.2912 21.9277 42.6856 21.7677 43.0969 21.6411C43.3575 21.5609 43.6338 21.7072 43.714 21.9678Z" fill="black"/>
<path fill-rule="evenodd" clip-rule="evenodd" d="M45.3151 24.6327C45.4014 24.8914 45.2616 25.171 45.0029 25.2572C44.7852 25.3298 44.5505 25.4133 44.3096 25.499C43.9651 25.6216 43.608 25.7486 43.2705 25.8544C43.0103 25.936 42.7332 25.7911 42.6516 25.5309C42.5701 25.2707 42.7149 24.9937 42.9751 24.9121C43.3112 24.8068 43.6206 24.6962 43.9388 24.5826C44.1793 24.4967 44.4247 24.409 44.6906 24.3204C44.9493 24.2342 45.2289 24.374 45.3151 24.6327Z" fill="black"/>
<path fill-rule="evenodd" clip-rule="evenodd" d="M47.0758 27.3714C47.1931 27.6176 47.0885 27.9123 46.8423 28.0295C46.824 28.0382 46.8057 28.0469 46.7873 28.0557C46.11 28.3783 45.3992 28.7169 44.6325 28.9481C44.3715 29.0269 44.096 28.879 44.0173 28.618C43.9385 28.3569 44.0863 28.0814 44.3474 28.0027C45.0413 27.7934 45.6933 27.4829 46.3908 27.1507L46.4177 27.1379C46.6639 27.0207 46.9586 27.1252 47.0758 27.3714Z" fill="black"/>
<path fill-rule="evenodd" clip-rule="evenodd" d="M47.4691 30.3887C47.5282 30.6549 47.3604 30.9186 47.0942 30.9778C46.9316 31.0139 46.7984 31.0703 46.6183 31.1465C46.5527 31.1743 46.4809 31.2047 46.3992 31.2377C45.9801 31.4069 45.5908 31.4063 45.2585 31.4057C45.2401 31.4057 45.2218 31.4057 45.2037 31.4057C44.931 31.4057 44.71 31.1846 44.71 30.9119C44.71 30.6392 44.931 30.4182 45.2037 30.4182C45.5809 30.4182 45.7942 30.417 46.0294 30.322C46.0751 30.3036 46.1246 30.2825 46.1773 30.2601C46.3761 30.1755 46.6208 30.0714 46.88 30.0138C47.1462 29.9547 47.4099 30.1225 47.4691 30.3887Z" fill="black"/>
<path fill-rule="evenodd" clip-rule="evenodd" d="M47.5821 33.8132C47.6539 34.0763 47.4988 34.3477 47.2357 34.4194C46.677 34.5718 46.1393 34.6312 45.5984 34.6731C45.3265 34.6942 45.089 34.4909 45.0679 34.2191C45.0468 33.9472 45.2501 33.7097 45.522 33.6886C46.0449 33.648 46.5085 33.5942 46.9759 33.4667C47.2389 33.395 47.5104 33.5501 47.5821 33.8132Z" fill="black"/>
<path fill-rule="evenodd" clip-rule="evenodd" d="M46.7657 36.871C46.7904 37.1425 46.5903 37.3827 46.3187 37.4074C46.088 37.4284 45.8572 37.4466 45.6298 37.4645C45.6198 37.4653 45.6097 37.4661 45.5996 37.4669C45.3614 37.4858 45.1267 37.5044 44.893 37.5262C44.6215 37.5514 44.3809 37.3518 44.3557 37.0803C44.3304 36.8088 44.53 36.5682 44.8016 36.5429C45.0431 36.5205 45.2843 36.5013 45.5218 36.4825C45.5313 36.4818 45.5407 36.481 45.5501 36.4803C45.779 36.4622 46.0045 36.4444 46.2293 36.4239C46.5009 36.3992 46.741 36.5994 46.7657 36.871Z" fill="black"/>
<path fill-rule="evenodd" clip-rule="evenodd" d="M39.3328 24.8131L32.8088 37.4262L31.9316 36.9725L38.4557 24.3594L39.3328 24.8131ZM41.1843 26.7575L34.3549 39.2886L33.4879 38.816L40.3173 26.285L41.1843 26.7575Z" fill="black"/>
</g>
<defs>
<clipPath id="clip0_4027_452340">
<rect width="79" height="79" fill="white"/>
</clipPath>
</defs>
</svg>
