<svg width="90" height="82" fill="none" xmlns="http://www.w3.org/2000/svg"><path d="M9.342 41c0 22.23 18.02 40.25 40.25 40.25S89.842 63.23 89.842 41 71.822.75 49.592.75 9.342 18.77 9.342 41Z" fill="#0BC8D6"/><path d="M52.641 24.535s15.856 12.197 25.614 27.443c1.75 2.736 5.449 6.627 5.39 10.404 0 0-2.298 4.434-5.39 7.281-11.598 9.113-33.542 6.912-46.958 5.489l1.83-26.223L13 32.463.195 12.338 33.126 39.78c0-1.22.61-4.879-2.44-6.099C15.697 27.685 11.173 1.36 39.836 5.63c16.9 2.517 12.806 18.906 12.806 18.906Z" fill="url(#a)"/><path fill-rule="evenodd" clip-rule="evenodd" d="M53.285 1.36h-.034c-4.789 0-9.645.87-14.314 2.472a.61.61 0 1 0 .396 1.153c4.547-1.56 9.264-2.404 13.901-2.406 9.445.522 16.06 2.036 21.36 4.6 5.298 2.564 9.328 6.2 13.57 11.048a.61.61 0 1 0 .917-.803c-4.296-4.91-8.452-8.679-13.956-11.342-5.498-2.661-12.294-4.196-21.84-4.722ZM18.914 17.387a.61.61 0 0 0-.862.014 40.703 40.703 0 0 0-4.334 5.265.61.61 0 1 0 1.005.69 39.472 39.472 0 0 1 4.205-5.107.61.61 0 0 0-.014-.862Zm-8.13 11.933a.61.61 0 0 0-.79.346c-1.707 4.363-2.522 9.12-2.482 14.387.072 9.334 3.34 16.649 8.576 22.109 5.227 5.45 12.386 9.022 20.208 10.948 15.62 3.844 34.072 1.16 45.523-6.534a.61.61 0 0 0-.68-1.012c-11.12 7.471-29.207 10.138-44.552 6.361-7.66-1.885-14.591-5.366-19.618-10.607C11.95 60.087 8.8 53.072 8.732 44.044c-.039-5.133.755-9.733 2.398-13.934a.61.61 0 0 0-.346-.79ZM50.254 24.286a.61.61 0 0 0 .31.805c4.26 1.894 8.004 3.694 12.125 7.274 4.13 3.588 8.664 8.988 14.44 18.109a.61.61 0 0 0 1.031-.653C72.35 40.647 67.742 35.14 63.49 31.444c-4.262-3.702-8.141-5.561-12.43-7.467a.61.61 0 0 0-.805.31Z" fill="#000"/><path fill-rule="evenodd" clip-rule="evenodd" d="M33.736 34.29a.61.61 0 0 0-.61.61c0 12.204-.461 31.722-1.822 40.769a.61.61 0 0 0 1.206.181c1.377-9.151 1.836-28.76 1.836-40.95a.61.61 0 0 0-.61-.61Z" fill="#000"/><path fill-rule="evenodd" clip-rule="evenodd" d="M33.77 3.865c-6.35.46-12.443 3.383-14.48 9.619-3.333 10.201 4.163 20.62 14.458 21.839 5.29.626 9.889-.316 13.463-2.718 3.567-2.396 6.05-6.204 7.193-11.198.515-1.315.765-2.712.649-4.181-.203-2.56-1.508-5.238-4.259-8.004C46.97 5.377 40.116 3.405 33.77 3.865Zm19.478 17.148a.613.613 0 0 1 .01-.022c.464-1.177.68-2.401.579-3.669-.173-2.191-1.297-4.614-3.908-7.24-3.502-3.522-9.966-5.443-16.07-5-6.101.44-11.59 3.212-13.41 8.78-3.071 9.401 3.839 19.113 13.442 20.25 5.067.599 9.358-.314 12.64-2.52 2.084-1.4 3.787-3.338 5.029-5.789-3.047 3.355-7.512 6.015-11.02 7.837a.61.61 0 1 1-.563-1.083c4.043-2.098 9.13-5.209 11.893-9.068.573-.8 1.04-1.626 1.378-2.476Z" fill="#000"/><path fill-rule="evenodd" clip-rule="evenodd" d="M9.65 20.626C15.96 26.8 24.524 34.483 32.235 38.493a.61.61 0 0 0 .563-1.082c-7.535-3.919-15.985-11.483-22.295-17.657-2.681-2.623-4.965-4.983-6.619-6.693l-.806-.833c-.829-.854-1.453-1.488-1.798-1.79a2.24 2.24 0 0 0-.265-.207.789.789 0 0 0-.243-.104.624.624 0 0 0-.77.672.74.74 0 0 0 .03.15c.02.066.048.127.07.172.038.078.09.167.15.264 6.783 19.057 20.323 29.503 31.92 37.438a.61.61 0 0 0 .689-1.007C21.745 40.21 9.047 30.422 2.18 13.056l.022.021.803.83c1.654 1.71 3.95 4.083 6.644 6.719ZM51.257 23.947a.61.61 0 0 0-.422.752c4.246 15.165 5.464 30.95 4.248 48.581a.61.61 0 0 0 .294.565c2.088 1.253 4.854 1.938 7.489 2.233 2.638.295 5.219.205 6.972-.145.848-.17 1.612-.421 2.064-.8.238-.2.469-.507.462-.916-.006-.398-.234-.711-.485-.937-.491-.442-1.39-.842-2.674-1.223-1.19-.354-2.785-.71-4.848-1.06 1.394-6.442 1.201-14.953-.06-22.976-1.3-8.282-3.758-16.163-6.881-20.78a.61.61 0 0 0-1.01.684c2.974 4.397 5.396 12.067 6.687 20.285 1.29 8.209 1.432 16.845-.067 23.141a.61.61 0 0 0 .496.743c2.35.38 4.094.763 5.336 1.132 1.27.377 1.934.717 2.205.96l.032.03c-.21.163-.698.36-1.497.52-1.601.32-4.052.414-6.597.13-2.407-.27-4.833-.87-6.675-1.883 1.18-17.587-.056-33.397-4.317-48.613a.61.61 0 0 0-.752-.423Zm19.906 50.205-.001.003a.016.016 0 0 0 .001-.003Zm-.01.135.001.002v-.002ZM28.527 22.12c.025-.012.132-.048.393-.005l.739.12c3.064.503 5.739.941 8.782.866-.225.276-.432.56-.63.835l-.208.29c-.695.974-1.309 1.834-2.193 2.364-1.885 1.131-4.071 1.182-5.341-.485-.263-.345-1.028-1.632-1.4-2.759a4.113 4.113 0 0 1-.181-.738c-.029-.218-.015-.357.008-.433.015-.051.027-.054.03-.054h.001Zm11.711.878c-.515.416-.96.986-1.437 1.65l-.216.303c-.667.94-1.431 2.015-2.547 2.685-2.144 1.286-5.126 1.588-6.94-.792-.338-.444-1.17-1.85-1.588-3.115a5.318 5.318 0 0 1-.232-.963c-.04-.307-.043-.64.051-.948.1-.327.313-.625.67-.797.334-.16.722-.175 1.117-.11l.707.115c3.56.584 6.455 1.058 9.97.786.32-.219.673-.402 1.068-.534a.61.61 0 0 1 .762.8.612.612 0 0 1-.496.826c-.3.037-.597.068-.889.094Z" fill="#000"/><defs><linearGradient id="a" x1="70.558" y1="5.619" x2="31.09" y2="80.096" gradientUnits="userSpaceOnUse"><stop stop-color="#fff"/></linearGradient></defs></svg>