<svg width="234" height="145" viewBox="0 0 234 145" fill="none" xmlns="http://www.w3.org/2000/svg">
<path opacity="0.7" d="M233.382 90.2184C233.382 120.198 181.276 144.501 117 144.501C52.7234 144.501 0.617188 120.198 0.617188 90.2184C0.617188 60.2388 52.7234 35.9355 117 35.9355C181.276 35.9355 233.382 60.2388 233.382 90.2184Z" fill="url(#paint0_radial_8609_36458)" fill-opacity="0.1"/>
<path d="M73.9482 77.9504V10.212L140.24 3.44531L165.914 20.0169L164.047 77.9504H172.216L176.184 81.1683V111.277L119.234 119.213L115.266 115.478V112.911L100.62 99.1186H92.5764L73.9482 77.9504Z" fill="white"/>
<path fill-rule="evenodd" clip-rule="evenodd" d="M143.232 67.3294C142.965 67.2579 142.807 66.9837 142.879 66.717L145.206 58.0325C145.277 57.7658 145.551 57.6075 145.818 57.6789C146.085 57.7504 146.243 58.0246 146.172 58.2913L143.845 66.9758C143.773 67.2425 143.499 67.4008 143.232 67.3294ZM146.772 70.224C146.506 70.1526 146.347 69.8784 146.419 69.6117L149.521 58.0325C149.593 57.7658 149.867 57.6075 150.134 57.6789C150.401 57.7504 150.559 58.0246 150.487 58.2913L147.385 69.8705C147.313 70.1372 147.039 70.2955 146.772 70.224ZM149.875 72.5363C149.608 72.4648 149.45 72.1906 149.521 71.9239L153.244 58.0325C153.315 57.7658 153.589 57.6075 153.856 57.6789C154.123 57.7504 154.281 58.0246 154.21 58.2913L150.487 72.1827C150.416 72.4494 150.142 72.6077 149.875 72.5363ZM153.398 75.0619C153.131 74.9904 152.973 74.7163 153.044 74.4495L154.341 69.6117C154.412 69.3449 154.686 69.1866 154.953 69.2581C155.22 69.3296 155.378 69.6037 155.307 69.8705L154.01 74.7083C153.939 74.9751 153.665 75.1334 153.398 75.0619Z" fill="black"/>
<path fill-rule="evenodd" clip-rule="evenodd" d="M75.7994 80.5786C75.5326 80.5072 75.3743 80.233 75.4458 79.9663L90.9196 22.2173C90.9911 21.9506 91.2652 21.7923 91.532 21.8638C91.7987 21.9353 91.957 22.2094 91.8855 22.4762L76.4117 80.2251C76.3403 80.4918 76.0661 80.6501 75.7994 80.5786Z" fill="black"/>
<path fill-rule="evenodd" clip-rule="evenodd" d="M73.4576 42.0474C73.1908 41.9759 73.0325 41.7017 73.104 41.435L80.4084 14.1745C80.4799 13.9078 80.7541 13.7495 81.0208 13.821C81.2875 13.8925 81.4458 14.1666 81.3744 14.4334L74.0699 41.6938C73.9985 41.9606 73.7243 42.1188 73.4576 42.0474Z" fill="black"/>
<path fill-rule="evenodd" clip-rule="evenodd" d="M85.0207 92.7725C84.7548 92.6982 84.5995 92.4223 84.6738 92.1564L90.4976 71.3204C90.5719 71.0544 90.8478 70.8991 91.1137 70.9734C91.3797 71.0478 91.535 71.3236 91.4607 71.5896L85.6369 92.4256C85.5626 92.6915 85.2867 92.8469 85.0207 92.7725Z" fill="black"/>
<path fill-rule="evenodd" clip-rule="evenodd" d="M78.3688 83.3401C78.1022 83.2681 77.9444 82.9936 78.0164 82.727L92.4518 29.2639C92.5238 28.9973 92.7983 28.8395 93.0649 28.9115C93.3315 28.9835 93.4892 29.2579 93.4173 29.5245L78.9818 82.9877C78.9098 83.2543 78.6354 83.4121 78.3688 83.3401Z" fill="black"/>
<path fill-rule="evenodd" clip-rule="evenodd" d="M73.0416 55.9556C72.7748 55.8841 72.6165 55.6099 72.688 55.3432L83.1576 16.2703C83.229 16.0036 83.5032 15.8453 83.7699 15.9168C84.0367 15.9882 84.195 16.2624 84.1235 16.5291L73.6539 55.602C73.5825 55.8688 73.3083 56.0271 73.0416 55.9556Z" fill="black"/>
<path fill-rule="evenodd" clip-rule="evenodd" d="M87.775 95.7778C87.5082 95.7064 87.3499 95.4322 87.4214 95.1655L90.9916 81.8415C91.063 81.5747 91.3372 81.4164 91.6039 81.4879C91.8707 81.5594 92.029 81.8335 91.9575 82.1003L88.3873 95.4243C88.3159 95.691 88.0417 95.8493 87.775 95.7778Z" fill="black"/>
<path fill-rule="evenodd" clip-rule="evenodd" d="M72.3169 23.4849C72.0502 23.4134 71.8919 23.1392 71.9634 22.8725L75.2805 10.493C75.3519 10.2263 75.6261 10.068 75.8928 10.1394C76.1596 10.2109 76.3179 10.4851 76.2464 10.7518L72.9293 23.1313C72.8578 23.3981 72.5837 23.5563 72.3169 23.4849Z" fill="black"/>
<path fill-rule="evenodd" clip-rule="evenodd" d="M80.8031 86.5512C80.5364 86.4796 80.3782 86.2054 80.4498 85.9387L90.8903 47.0425C90.9619 46.7758 91.2361 46.6176 91.5028 46.6892C91.7695 46.7608 91.9277 47.035 91.8561 47.3017L81.4156 86.1979C81.344 86.4646 81.0698 86.6228 80.8031 86.5512Z" fill="black"/>
<path fill-rule="evenodd" clip-rule="evenodd" d="M73.3326 67.2271C73.0658 67.1556 72.9075 66.8814 72.979 66.6147L85.7759 18.8561C85.8474 18.5894 86.1215 18.4311 86.3883 18.5026C86.655 18.574 86.8133 18.8482 86.7418 19.1149L73.9449 66.8735C73.8735 67.1402 73.5993 67.2985 73.3326 67.2271Z" fill="black"/>
<path fill-rule="evenodd" clip-rule="evenodd" d="M90.4332 98.2114C90.1664 98.14 90.0081 97.8658 90.0796 97.5991L91.9034 90.7926C91.9749 90.5259 92.249 90.3676 92.5158 90.4391C92.7825 90.5105 92.9408 90.7847 92.8693 91.0514L91.0455 97.8579C90.9741 98.1246 90.6999 98.2829 90.4332 98.2114Z" fill="black"/>
<path fill-rule="evenodd" clip-rule="evenodd" d="M73.106 31.8677C72.8393 31.7962 72.681 31.5221 72.7525 31.2553L77.5392 13.3911C77.6106 13.1243 77.8848 12.966 78.1515 13.0375C78.4183 13.109 78.5766 13.3832 78.5051 13.6499L73.7184 31.5141C73.6469 31.7809 73.3727 31.9392 73.106 31.8677Z" fill="black"/>
<path fill-rule="evenodd" clip-rule="evenodd" d="M83.064 89.5103C82.7973 89.4388 82.639 89.1646 82.7105 88.8979L90.8071 58.681C90.8785 58.4143 91.1527 58.256 91.4194 58.3275C91.6862 58.3989 91.8445 58.6731 91.773 58.9398L83.6764 89.1567C83.6049 89.4234 83.3308 89.5817 83.064 89.5103Z" fill="black"/>
<path fill-rule="evenodd" clip-rule="evenodd" d="M73.5923 77.5903C73.3256 77.5189 73.1673 77.2447 73.2388 76.978L88.2978 20.7769C88.3693 20.5101 88.6435 20.3518 88.9102 20.4233C89.1769 20.4948 89.3352 20.7689 89.2638 21.0357L74.2047 77.2368C74.1332 77.5035 73.8591 77.6618 73.5923 77.5903Z" fill="black"/>
<path fill-rule="evenodd" clip-rule="evenodd" d="M174.188 20.0446C174.207 20.3201 173.998 20.5585 173.723 20.577C171.035 20.7577 168.239 20.9477 165.359 21.1434C140.943 22.8024 110.432 24.8755 87.5863 25.2492C87.3102 25.2537 87.0827 25.0336 87.0782 24.7575C87.0737 24.4814 87.2938 24.2539 87.5699 24.2494C110.388 23.8761 140.87 21.8049 165.292 20.1456C168.172 19.95 170.967 19.76 173.656 19.5793C173.931 19.5607 174.17 19.7691 174.188 20.0446Z" fill="black"/>
<path fill-rule="evenodd" clip-rule="evenodd" d="M70.5021 8.43657C70.6505 8.20364 70.9595 8.13507 71.1925 8.2834C74.4331 10.3471 77.8103 12.78 81.2493 15.2574C82.8619 16.4191 84.4882 17.5907 86.1203 18.7385C91.2503 22.3463 96.4564 25.734 101.584 27.9465C101.838 28.056 101.954 28.3502 101.845 28.6037C101.736 28.8573 101.441 28.9741 101.188 28.8647C95.9598 26.6088 90.6831 23.1699 85.545 19.5565C83.8908 18.3931 82.2528 17.213 80.6344 16.0471C77.209 13.5794 73.8717 11.1751 70.6553 9.12689C70.4224 8.97856 70.3538 8.66949 70.5021 8.43657Z" fill="black"/>
<path fill-rule="evenodd" clip-rule="evenodd" d="M135.711 0.9001C135.872 0.675681 136.184 0.624192 136.409 0.785096C136.857 1.10644 137.305 1.42786 137.753 1.74924C144.653 6.69855 151.543 11.6407 158.672 16.2287C159.641 16.8524 161.057 17.673 162.568 18.5488C162.939 18.7639 163.315 18.9823 163.693 19.2019C165.592 20.3071 167.507 21.4453 168.703 22.315C168.926 22.4774 168.976 22.7901 168.813 23.0134C168.651 23.2367 168.338 23.2861 168.115 23.1237C166.968 22.2897 165.099 21.1777 163.19 20.0662C162.819 19.8503 162.446 19.6344 162.078 19.421C160.565 18.5442 159.121 17.7073 158.131 17.0696C150.98 12.4674 144.07 7.5114 137.175 2.56536C136.725 2.24276 136.276 1.9202 135.826 1.59779C135.601 1.43689 135.55 1.12452 135.711 0.9001Z" fill="black"/>
<path fill-rule="evenodd" clip-rule="evenodd" d="M146.549 2.95631C146.584 3.23023 146.39 3.48062 146.116 3.51557C126.997 5.95473 89.6167 9.95589 70.3266 10.4246C70.0505 10.4313 69.8213 10.213 69.8146 9.93692C69.8079 9.66086 70.0262 9.43163 70.3023 9.42492C89.5363 8.95755 126.871 4.9626 145.99 2.52361C146.264 2.48866 146.514 2.68239 146.549 2.95631Z" fill="black"/>
<path fill-rule="evenodd" clip-rule="evenodd" d="M73.1878 4.14583C73.4632 4.16557 73.6705 4.40486 73.6508 4.68029C73.2037 10.9184 73.3566 18.6214 73.5459 26.3567C73.5585 26.8705 73.5712 27.3844 73.5839 27.8981C73.7625 35.1039 73.9396 42.2521 73.651 48.1311C73.2369 56.5649 73.5073 70.3923 74.6692 78.7044C74.7075 78.9779 74.5167 79.2306 74.2433 79.2688C73.9698 79.3071 73.7171 79.1164 73.6789 78.8429C72.5056 70.4494 72.2362 56.5554 72.6522 48.082C72.9389 42.2418 72.7627 35.1296 72.5839 27.9104C72.5713 27.401 72.5587 26.8912 72.5462 26.3812C72.3572 18.6563 72.2022 10.9035 72.6533 4.60881C72.6731 4.33338 72.9124 4.12609 73.1878 4.14583Z" fill="black"/>
<path fill-rule="evenodd" clip-rule="evenodd" d="M94.5634 18.3679C94.8359 18.4124 95.0208 18.6694 94.9763 18.9419C92.7055 32.8624 92.0216 47.0796 91.918 60.7561V68.9767C91.953 74.2121 92.0457 79.3517 92.1354 84.3327C92.2408 90.1791 92.3422 95.8069 92.342 101.114C92.342 101.391 92.1181 101.614 91.842 101.614C91.5658 101.614 91.342 101.39 91.342 101.114C91.3422 95.8006 91.2411 90.1985 91.1359 84.3696C91.0461 79.3928 90.9533 74.2508 90.918 68.9817C90.8998 66.2658 90.8971 63.5197 90.918 60.7505C91.0217 47.0487 91.7068 32.7737 93.9894 18.7809C94.0338 18.5084 94.2908 18.3235 94.5634 18.3679Z" fill="black"/>
<path fill-rule="evenodd" clip-rule="evenodd" d="M165.584 13.6563C165.859 13.6809 166.062 13.9238 166.037 14.1989C164.326 33.3185 163.882 65.2697 163.882 78.0188C163.882 78.2949 163.658 78.5188 163.382 78.5188C163.106 78.5188 162.882 78.2949 162.882 78.0188C162.882 65.2678 163.326 33.2777 165.041 14.1098C165.066 13.8347 165.309 13.6317 165.584 13.6563Z" fill="black"/>
<path fill-rule="evenodd" clip-rule="evenodd" d="M72.7257 76.2752C72.9351 76.0952 73.2508 76.1189 73.4309 76.3283C76.0136 79.3315 78.4664 82.3903 80.9077 85.4348C85.5141 91.1793 90.0795 96.8728 95.4003 102.046C95.5983 102.238 95.6028 102.555 95.4103 102.753C95.2178 102.951 94.9012 102.955 94.7032 102.763C89.342 97.5505 84.7042 91.7682 80.0703 85.9907C77.6381 82.9583 75.2069 79.9271 72.6727 76.9803C72.4926 76.771 72.5164 76.4553 72.7257 76.2752Z" fill="black"/>
<path fill-rule="evenodd" clip-rule="evenodd" d="M101.557 98.4216C101.582 98.6966 101.38 98.9398 101.105 98.9648C100.017 99.0636 99.0542 99.1563 98.1661 99.2417C94.5027 99.5941 92.1186 99.8234 87.5818 99.857C87.3057 99.859 87.0802 99.6368 87.0781 99.3607C87.0761 99.0846 87.2983 98.8591 87.5744 98.857C92.0645 98.8238 94.4049 98.5987 98.0597 98.2472C98.9499 98.1616 99.9181 98.0685 101.014 97.9689C101.289 97.9439 101.532 98.1466 101.557 98.4216Z" fill="black"/>
<path fill-rule="evenodd" clip-rule="evenodd" d="M155.915 31.4256C155.932 31.7012 155.723 31.9387 155.447 31.9561C141.175 32.8543 126.914 33.8148 112.651 34.7754C107.046 35.1528 101.441 35.5303 95.835 35.9041C95.5595 35.9224 95.3213 35.7139 95.3029 35.4384C95.2845 35.1629 95.493 34.9246 95.7685 34.9063C101.373 34.5326 106.977 34.1552 112.581 33.7778C126.846 32.8171 141.11 31.8564 155.385 30.958C155.66 30.9407 155.898 31.15 155.915 31.4256Z" fill="black"/>
<path fill-rule="evenodd" clip-rule="evenodd" d="M154.87 28.3633C155.146 28.3633 155.37 28.5871 155.37 28.8633L155.37 75.8905C155.37 76.1666 155.146 76.3905 154.87 76.3905C154.594 76.3905 154.37 76.1666 154.37 75.8905L154.37 28.8633C154.37 28.5871 154.594 28.3633 154.87 28.3633Z" fill="black"/>
<path fill-rule="evenodd" clip-rule="evenodd" d="M100.339 34.1557C100.614 34.1761 100.821 34.4158 100.801 34.6912C100.309 41.3385 100.467 47.406 100.632 53.6896C100.716 56.9182 100.802 60.2037 100.802 63.6543C100.802 63.9305 100.579 64.1543 100.302 64.1543C100.026 64.1543 99.8024 63.9305 99.8024 63.6543C99.8024 60.26 99.7173 57.0003 99.6334 53.7826C99.4685 47.4663 99.3079 41.3118 99.8032 34.6174C99.8236 34.342 100.063 34.1353 100.339 34.1557Z" fill="black"/>
<path fill-rule="evenodd" clip-rule="evenodd" d="M156.8 57.3604C156.824 57.6355 156.621 57.8781 156.346 57.9024C149.479 58.5082 142.854 59.0562 136.246 59.6027C124.251 60.5947 112.315 61.5819 99.1015 62.9019C98.8267 62.9293 98.5817 62.7288 98.5543 62.454C98.5268 62.1793 98.7273 61.9343 99.0021 61.9068C112.222 60.5861 124.175 59.5976 136.176 58.605C142.782 58.0587 149.403 57.5111 156.258 56.9063C156.533 56.882 156.776 57.0853 156.8 57.3604Z" fill="black"/>
<path fill-rule="evenodd" clip-rule="evenodd" d="M100.16 61.9845C100.436 61.9908 100.654 62.2197 100.648 62.4958C100.584 65.3102 100.475 68.225 100.364 71.1766C100.015 80.4726 99.6533 90.1337 100.644 98.1727C100.678 98.4467 100.483 98.6963 100.209 98.7301C99.935 98.7638 99.6855 98.5691 99.6517 98.295C98.65 90.1683 99.017 80.3874 99.3665 71.0734C99.4767 68.1381 99.5851 65.2492 99.6483 62.473C99.6546 62.1969 99.8835 61.9782 100.16 61.9845Z" fill="black"/>
<path fill-rule="evenodd" clip-rule="evenodd" d="M100.569 98.3805C100.76 98.1812 101.076 98.1746 101.276 98.3657C106.724 103.592 110.796 107.878 114.501 111.778C114.621 111.905 114.741 112.031 114.861 112.157C115.051 112.357 115.043 112.674 114.843 112.864C114.642 113.054 114.326 113.046 114.136 112.846C114.017 112.721 113.898 112.595 113.778 112.469C110.074 108.569 106.015 104.297 100.584 99.0874C100.384 98.8963 100.378 98.5798 100.569 98.3805Z" fill="black"/>
<path fill-rule="evenodd" clip-rule="evenodd" d="M98.9482 78.5507C99.1435 78.3555 99.46 78.3555 99.6553 78.5507C104.826 83.7218 111.023 91.2504 115.069 97.3183C115.222 97.5481 115.16 97.8585 114.93 98.0117C114.7 98.1649 114.39 98.1028 114.236 97.873C110.229 91.8612 104.074 84.3835 98.9482 79.2579C98.7529 79.0626 98.7529 78.746 98.9482 78.5507Z" fill="black"/>
<path fill-rule="evenodd" clip-rule="evenodd" d="M114.145 114.453C114.339 114.257 114.655 114.255 114.852 114.449C115.046 114.642 115.239 114.834 115.431 115.025C116.838 116.426 118.208 117.79 119.787 118.895C120.013 119.053 120.068 119.365 119.91 119.591C119.751 119.818 119.439 119.873 119.213 119.714C117.558 118.556 116.123 117.126 114.723 115.731C114.531 115.54 114.339 115.349 114.148 115.16C113.952 114.966 113.95 114.649 114.145 114.453Z" fill="black"/>
<path fill-rule="evenodd" clip-rule="evenodd" d="M177.837 111.009C178.109 110.963 178.367 111.146 178.414 111.418C178.46 111.69 178.277 111.949 178.005 111.995L177.921 111.502L177.837 111.009ZM158.458 115.054C147.075 116.724 132.459 118.677 119.543 119.803C119.268 119.827 119.026 119.624 119.002 119.348C118.978 119.073 119.181 118.831 119.457 118.807C132.343 117.683 146.937 115.734 158.313 114.065C164.001 113.231 168.882 112.467 172.341 111.911C174.071 111.633 175.445 111.408 176.387 111.252C176.858 111.174 177.22 111.113 177.465 111.072L177.837 111.009C177.837 111.009 177.837 111.009 177.921 111.502C178.005 111.995 178.005 111.995 178.005 111.995L177.631 112.058C177.385 112.099 177.022 112.16 176.55 112.238C175.607 112.395 174.232 112.62 172.5 112.898C169.037 113.454 164.151 114.219 158.458 115.054Z" fill="black"/>
<path fill-rule="evenodd" clip-rule="evenodd" d="M140.646 65.5816C140.817 65.3645 141.131 65.3269 141.348 65.4976C143.827 67.4472 147.822 70.5857 151.197 73.2368L157.326 78.0512C157.326 78.0513 157.326 78.0516 157.017 78.4448C156.709 78.838 156.709 78.838 156.708 78.8379L150.579 74.0232C147.204 71.3721 143.209 68.2335 140.73 66.2837C140.513 66.113 140.475 65.7986 140.646 65.5816ZM157.411 78.7536C157.24 78.9708 156.926 79.0085 156.708 78.8379L157.017 78.4448L157.326 78.0512C157.543 78.2218 157.581 78.5365 157.411 78.7536Z" fill="black"/>
<path fill-rule="evenodd" clip-rule="evenodd" d="M140.229 72.5927C140.405 72.3802 140.72 72.351 140.933 72.5275C142.15 73.5382 142.977 74.2445 143.661 74.8278C145.181 76.1256 145.989 76.8149 148.788 78.8944C149.01 79.0591 149.056 79.3723 148.891 79.5939C148.727 79.8156 148.413 79.8618 148.192 79.6971C145.365 77.597 144.531 76.8857 142.998 75.577C142.315 74.994 141.493 74.2924 140.294 73.2968C140.081 73.1204 140.052 72.8051 140.229 72.5927Z" fill="black"/>
<path fill-rule="evenodd" clip-rule="evenodd" d="M140.859 58.7931C141.135 58.7995 141.354 59.0284 141.347 59.3045C141.28 62.2275 141.299 64.6133 141.322 67.4536C141.334 69.066 141.348 70.8249 141.348 72.9116C141.348 73.1878 141.124 73.4116 140.848 73.4116C140.572 73.4116 140.348 73.1878 140.348 72.9116C140.348 70.8445 140.334 69.0927 140.322 67.4819C140.299 64.6291 140.28 62.2184 140.348 59.2814C140.354 59.0054 140.583 58.7867 140.859 58.7931Z" fill="black"/>
<path fill-rule="evenodd" clip-rule="evenodd" d="M140.685 73.2869C140.713 73.5616 140.513 73.8071 140.239 73.8353C132.643 74.6143 126.543 75.1833 120.444 75.7517L120.369 75.7588C114.295 76.3249 108.218 76.8914 100.659 77.6655C100.385 77.6936 100.139 77.4937 100.111 77.219C100.083 76.9443 100.283 76.6988 100.557 76.6707C108.121 75.8961 114.202 75.3293 120.275 74.7632L120.352 74.7561C126.45 74.1876 132.546 73.619 140.137 72.8405C140.411 72.8124 140.657 73.0122 140.685 73.2869Z" fill="black"/>
<path opacity="0.1" d="M133.191 97.5511C147.668 97.5511 159.404 85.8405 159.404 71.3947C159.404 56.9489 147.668 45.2383 133.191 45.2383C118.714 45.2383 106.978 56.9489 106.978 71.3947C106.978 85.8405 118.714 97.5511 133.191 97.5511Z" fill="#00ADE4"/>
<path opacity="0.2" d="M132.631 87.8546C142.051 87.8546 149.687 80.2349 149.687 70.8355C149.687 61.4361 142.051 53.8164 132.631 53.8164C123.211 53.8164 115.575 61.4361 115.575 70.8355C115.575 80.2349 123.211 87.8546 132.631 87.8546Z" fill="#00ADE4"/>
<path opacity="0.3" d="M132.981 79.1373C137.922 79.1373 141.928 75.1401 141.928 70.2093C141.928 65.2785 137.922 61.2812 132.981 61.2812C128.039 61.2812 124.033 65.2785 124.033 70.2093C124.033 75.1401 128.039 79.1373 132.981 79.1373Z" fill="#00ADE4"/>
<path d="M115.605 84.0185V115.687L118.757 118.524L176.895 111.749V80.5521L171.854 77.0859L115.605 84.0185Z" fill="white"/>
<path fill-rule="evenodd" clip-rule="evenodd" d="M113.946 82.3026C114.141 82.1063 114.457 82.1047 114.653 82.2989C114.848 82.4911 115.041 82.6832 115.233 82.8746C116.64 84.2755 118.01 85.6394 119.588 86.7447C119.815 86.903 119.87 87.2148 119.711 87.441C119.553 87.6673 119.241 87.7223 119.015 87.5639C117.36 86.4054 115.925 84.9757 114.525 83.5809C114.333 83.3895 114.141 83.1989 113.95 83.0097C113.754 82.8155 113.752 82.4989 113.946 82.3026Z" fill="black"/>
<path fill-rule="evenodd" clip-rule="evenodd" d="M115.052 82.6543C115.328 82.6543 115.552 82.8782 115.552 83.1543C115.552 86.2106 115.592 89.6878 115.634 93.3188C115.725 101.088 115.823 109.562 115.551 116.123C115.54 116.399 115.307 116.613 115.031 116.602C114.755 116.591 114.541 116.358 114.552 116.082C114.823 109.547 114.725 101.125 114.635 93.3703C114.592 89.73 114.552 86.2367 114.552 83.1543C114.552 82.8782 114.776 82.6543 115.052 82.6543Z" fill="black"/>
<path fill-rule="evenodd" clip-rule="evenodd" d="M180.03 80.685C180.033 80.9611 179.811 81.187 179.535 81.1894C165.822 81.3119 151.074 83.1794 136.747 84.9936C130.495 85.7853 124.323 86.5669 118.352 87.1889C118.077 87.2175 117.831 87.018 117.803 86.7434C117.774 86.4687 117.973 86.2229 118.248 86.1943C124.17 85.5773 130.314 84.7995 136.551 84.0098C150.905 82.1923 165.752 80.3125 179.526 80.1895C179.802 80.187 180.028 80.4089 180.03 80.685Z" fill="black"/>
<path fill-rule="evenodd" clip-rule="evenodd" d="M176.005 76.449C176.049 76.7216 175.864 76.9785 175.592 77.0229C165.333 78.6928 154.977 79.748 144.62 80.7177C142.968 80.8724 141.316 81.0249 139.664 81.1774C130.957 81.9811 122.261 82.7838 113.616 83.9003C113.342 83.9357 113.091 83.7424 113.056 83.4685C113.021 83.1946 113.214 82.944 113.488 82.9086C122.152 81.7895 130.87 80.9849 139.576 80.1812C141.227 80.0288 142.877 79.8765 144.527 79.722C154.882 78.7525 165.209 77.6999 175.431 76.0359C175.704 75.9915 175.96 76.1765 176.005 76.449Z" fill="black"/>
<path fill-rule="evenodd" clip-rule="evenodd" d="M170.115 76.161C170.249 75.9198 170.554 75.8332 170.795 75.9676C173.693 77.5819 176.608 79.1511 179.537 80.7132C179.781 80.8432 179.873 81.146 179.743 81.3897C179.613 81.6333 179.31 81.7255 179.067 81.5956C176.136 80.0326 173.214 78.4599 170.308 76.8412C170.067 76.7068 169.981 76.4023 170.115 76.161Z" fill="black"/>
<path fill-rule="evenodd" clip-rule="evenodd" d="M176.775 78.9051C177.05 78.8899 177.286 79.1012 177.301 79.3769C177.611 85.0135 177.428 94.9397 177.284 102.71C177.22 106.205 177.163 109.265 177.163 111.301C177.163 111.577 176.939 111.801 176.663 111.801C176.387 111.801 176.163 111.577 176.163 111.301C176.163 109.227 176.22 106.137 176.285 102.618C176.429 94.864 176.61 85.032 176.303 79.4317C176.288 79.156 176.499 78.9202 176.775 78.9051Z" fill="black"/>
<path fill-rule="evenodd" clip-rule="evenodd" d="M118.772 83.6553C119.048 83.6382 119.285 83.8478 119.302 84.1234C119.86 93.1248 119.651 102.608 119.466 111.022C119.381 114.853 119.302 118.463 119.302 121.704C119.302 121.981 119.078 122.204 118.802 122.204C118.526 122.204 118.302 121.981 118.302 121.704C118.302 118.422 118.382 114.788 118.467 110.942C118.652 102.548 118.859 93.1449 118.304 84.1852C118.287 83.9096 118.497 83.6724 118.772 83.6553Z" fill="black"/>
<path fill-rule="evenodd" clip-rule="evenodd" d="M199.72 96.7978C199.656 97.0664 199.386 97.2321 199.118 97.168L187.496 94.3938C187.228 94.3297 187.062 94.06 187.126 93.7914C187.19 93.5228 187.46 93.3571 187.729 93.4212L199.35 96.1953C199.619 96.2594 199.784 96.5292 199.72 96.7978Z" fill="black"/>
<path fill-rule="evenodd" clip-rule="evenodd" d="M104.642 111.778C104.69 112.05 104.509 112.309 104.237 112.358L92.4744 114.453C92.2025 114.501 91.9429 114.32 91.8945 114.048C91.8461 113.776 92.0272 113.517 92.2991 113.468L104.062 111.373C104.334 111.325 104.593 111.506 104.642 111.778Z" fill="black"/>
<path fill-rule="evenodd" clip-rule="evenodd" d="M175.453 68.1021C175.194 68.007 175.061 67.7197 175.156 67.4605L179.179 56.4904C179.274 56.2311 179.562 56.098 179.821 56.1931C180.08 56.2882 180.213 56.5754 180.118 56.8347L176.095 67.8048C176 68.0641 175.712 68.1972 175.453 68.1021Z" fill="black"/>
<path fill-rule="evenodd" clip-rule="evenodd" d="M186.168 76.9093C186.027 76.6715 186.106 76.3649 186.344 76.2247L197.077 69.8967C197.315 69.7565 197.622 69.8356 197.762 70.0735C197.902 70.3113 197.823 70.6179 197.585 70.7581L186.852 77.0861C186.614 77.2264 186.308 77.1472 186.168 76.9093Z" fill="black"/>
<path fill-rule="evenodd" clip-rule="evenodd" d="M108.51 119.993C108.719 120.173 108.742 120.489 108.562 120.698L102.799 127.37C102.619 127.579 102.303 127.602 102.094 127.422C101.885 127.241 101.862 126.926 102.042 126.717L107.805 120.045C107.985 119.836 108.301 119.812 108.51 119.993Z" fill="black"/>
<path fill-rule="evenodd" clip-rule="evenodd" d="M173.034 121.616C173.277 121.486 173.58 121.577 173.711 121.82C174.425 123.151 174.965 124.519 175.471 125.875C175.567 126.131 175.661 126.387 175.756 126.642C176.162 127.742 176.562 128.825 177.039 129.894C177.151 130.147 177.038 130.442 176.786 130.555C176.533 130.667 176.238 130.554 176.125 130.302C175.634 129.199 175.22 128.078 174.813 126.977C174.72 126.725 174.627 126.474 174.534 126.224C174.031 124.876 173.51 123.561 172.83 122.293C172.699 122.05 172.791 121.747 173.034 121.616Z" fill="black"/>
<path fill-rule="evenodd" clip-rule="evenodd" d="M143.804 137.25C143.528 137.239 143.313 137.006 143.324 136.73C143.394 134.948 143.394 132.569 143.376 130.629C143.368 129.66 143.354 128.804 143.343 128.189C143.338 127.882 143.333 127.635 143.329 127.465L143.325 127.271L143.324 127.204L143.823 127.191L144.323 127.18L144.325 127.248L144.329 127.444C144.333 127.615 144.338 127.863 144.343 128.171C144.354 128.788 144.368 129.648 144.376 130.62C144.394 132.562 144.394 134.962 144.323 136.77C144.312 137.046 144.08 137.261 143.804 137.25ZM143.812 126.692C144.088 126.685 144.317 126.904 144.323 127.18L143.823 127.191L143.324 127.203C143.317 126.927 143.536 126.698 143.812 126.692Z" fill="black"/>
<defs>
<radialGradient id="paint0_radial_8609_36458" cx="0" cy="0" r="1" gradientUnits="userSpaceOnUse" gradientTransform="translate(125.772 93.4225) rotate(90.993) scale(29.6583 63.588)">
<stop/>
<stop offset="1" stop-color="#3E7BFA" stop-opacity="0"/>
</radialGradient>
</defs>
</svg>
