<svg fill="none" height="148" viewBox="0 0 584 148" width="584" xmlns="http://www.w3.org/2000/svg" xmlns:xlink="http://www.w3.org/1999/xlink"><linearGradient id="a"><stop offset="0" stop-color="#73dfe7"/><stop offset="1" stop-color="#0063f7"/></linearGradient><linearGradient id="b" gradientUnits="userSpaceOnUse" x1="110.135" x2="128.884" xlink:href="#a" y1="32.9249" y2="58.2416"/><linearGradient id="c" gradientUnits="userSpaceOnUse" x1="111.508" x2="128.221" xlink:href="#a" y1="35.6943" y2="54.8545"/><linearGradient id="d" gradientUnits="userSpaceOnUse" x1="110.133" x2="128.867" xlink:href="#a" y1="32.8558" y2="58.171"/><linearGradient id="e" gradientUnits="userSpaceOnUse" x1="111.508" x2="128.219" xlink:href="#a" y1="35.6148" y2="54.7748"/><linearGradient id="f" gradientUnits="userSpaceOnUse" x1="128.745" x2="147.475" xlink:href="#a" y1="43.5776" y2="68.9053"/><linearGradient id="g" gradientUnits="userSpaceOnUse" x1="130.133" x2="146.851" xlink:href="#a" y1="46.3389" y2="65.4917"/><linearGradient id="h" gradientUnits="userSpaceOnUse" x1="128.746" x2="147.476" xlink:href="#a" y1="43.4965" y2="68.8243"/><linearGradient id="i" gradientUnits="userSpaceOnUse" x1="130.133" x2="146.845" xlink:href="#a" y1="46.2555" y2="65.4075"/><linearGradient id="j" gradientUnits="userSpaceOnUse" x1="147.377" x2="166.11" xlink:href="#a" y1="54.1977" y2="79.5125"/><linearGradient id="k" gradientUnits="userSpaceOnUse" x1="148.738" x2="165.452" xlink:href="#a" y1="56.9591" y2="76.1236"/><linearGradient id="l" gradientUnits="userSpaceOnUse" x1="147.377" x2="166.093" xlink:href="#a" y1="54.1348" y2="79.4444"/><linearGradient id="m" gradientUnits="userSpaceOnUse" x1="148.738" x2="165.45" xlink:href="#a" y1="56.8779" y2="76.0421"/><linearGradient id="n" gradientUnits="userSpaceOnUse" x1="166.003" x2="184.74" xlink:href="#a" y1="64.9012" y2="90.2069"/><linearGradient id="o" gradientUnits="userSpaceOnUse" x1="167.357" x2="184.072" xlink:href="#a" y1="67.6569" y2="86.8175"/><linearGradient id="p" gradientUnits="userSpaceOnUse" x1="165.981" x2="184.714" xlink:href="#a" y1="64.8207" y2="90.139"/><linearGradient id="q" gradientUnits="userSpaceOnUse" x1="167.352" x2="184.061" xlink:href="#a" y1="67.5791" y2="86.743"/><linearGradient id="r" gradientUnits="userSpaceOnUse" x1="184.606" x2="203.326" xlink:href="#a" y1="75.948" y2="101.255"/><linearGradient id="s" gradientUnits="userSpaceOnUse" x1="185.975" x2="202.686" xlink:href="#a" y1="78.713" y2="97.873"/><linearGradient id="t" gradientUnits="userSpaceOnUse" x1="184.605" x2="203.346" xlink:href="#a" y1="75.8762" y2="101.194"/><linearGradient id="u" gradientUnits="userSpaceOnUse" x1="185.975" x2="202.686" xlink:href="#a" y1="78.6324" y2="97.7923"/><linearGradient id="v" gradientUnits="userSpaceOnUse" x1="203.232" x2="221.973" xlink:href="#a" y1="86.6614" y2="111.975"/><linearGradient id="w" gradientUnits="userSpaceOnUse" x1="204.588" x2="221.296" xlink:href="#a" y1="89.4146" y2="108.591"/><linearGradient id="x" gradientUnits="userSpaceOnUse" x1="203.232" x2="221.973" xlink:href="#a" y1="86.5764" y2="111.89"/><linearGradient id="y" gradientUnits="userSpaceOnUse" x1="204.588" x2="221.298" xlink:href="#a" y1="89.3344" y2="108.511"/><linearGradient id="z" gradientUnits="userSpaceOnUse" x1="147.729" x2="166.458" xlink:href="#a" y1="37.7408" y2="63.0544"/><linearGradient id="A" gradientUnits="userSpaceOnUse" x1="149.104" x2="165.817" xlink:href="#a" y1="40.5033" y2="59.6636"/><linearGradient id="B" gradientUnits="userSpaceOnUse" x1="147.729" x2="166.463" xlink:href="#a" y1="37.665" y2="62.9803"/><linearGradient id="C" gradientUnits="userSpaceOnUse" x1="149.104" x2="165.812" xlink:href="#a" y1="40.421" y2="59.5807"/><linearGradient id="D" gradientUnits="userSpaceOnUse" x1="166.353" x2="185.095" xlink:href="#a" y1="48.4489" y2="73.7632"/><linearGradient id="E" gradientUnits="userSpaceOnUse" x1="167.725" x2="184.435" xlink:href="#a" y1="51.2039" y2="70.3557"/><linearGradient id="F" gradientUnits="userSpaceOnUse" x1="166.354" x2="185.075" xlink:href="#a" y1="48.3591" y2="73.6635"/><linearGradient id="G" gradientUnits="userSpaceOnUse" x1="167.725" x2="184.438" xlink:href="#a" y1="51.1242" y2="70.2765"/><linearGradient id="H"><stop offset="0" stop-color="#3161ff"/><stop offset="1" stop-color="#00c9e2"/></linearGradient><linearGradient id="I" gradientUnits="userSpaceOnUse" x1="5426.63" x2="5290.41" xlink:href="#H" y1="4385.9" y2="4154.68"/><linearGradient id="J"><stop offset="0" stop-color="#3124ff"/><stop offset="1" stop-color="#00ffe2"/></linearGradient><linearGradient id="K" gradientUnits="userSpaceOnUse" x1="4017.9" x2="2356.94" xlink:href="#J" y1="4434.7" y2="2723.89"/><linearGradient id="L" gradientUnits="userSpaceOnUse" x1="5426.63" x2="5290.41" xlink:href="#H" y1="4380.56" y2="4149.34"/><linearGradient id="M" gradientUnits="userSpaceOnUse" x1="4017.9" x2="2357.54" xlink:href="#J" y1="4428.71" y2="2718.16"/><linearGradient id="N" gradientUnits="userSpaceOnUse" x1="185.012" x2="203.766" xlink:href="#a" y1="59.5008" y2="84.7777"/><linearGradient id="O" gradientUnits="userSpaceOnUse" x1="186.334" x2="203.046" xlink:href="#a" y1="62.2724" y2="81.4366"/><linearGradient id="P" gradientUnits="userSpaceOnUse" x1="184.996" x2="203.738" xlink:href="#a" y1="59.4372" y2="84.7515"/><linearGradient id="Q" gradientUnits="userSpaceOnUse" x1="186.334" x2="203.045" xlink:href="#a" y1="62.1951" y2="81.3592"/><linearGradient id="R" gradientUnits="userSpaceOnUse" x1="203.577" x2="222.319" xlink:href="#a" y1="70.2033" y2="95.5248"/><linearGradient id="S" gradientUnits="userSpaceOnUse" x1="204.953" x2="221.659" xlink:href="#a" y1="72.9659" y2="92.1253"/><linearGradient id="T" gradientUnits="userSpaceOnUse" x1="203.583" x2="222.322" xlink:href="#a" y1="70.1086" y2="95.4259"/><linearGradient id="U" gradientUnits="userSpaceOnUse" x1="204.953" x2="221.666" xlink:href="#a" y1="72.8793" y2="92.0396"/><linearGradient id="V" gradientUnits="userSpaceOnUse" x1="166.556" x2="185.299" xlink:href="#a" y1="31.619" y2="56.9333"/><linearGradient id="W" gradientUnits="userSpaceOnUse" x1="167.926" x2="184.638" xlink:href="#a" y1="34.3739" y2="53.5343"/><linearGradient id="X" gradientUnits="userSpaceOnUse" x1="166.558" x2="185.301" xlink:href="#a" y1="31.5389" y2="56.8501"/><linearGradient id="Y" gradientUnits="userSpaceOnUse" x1="167.909" x2="184.613" xlink:href="#a" y1="34.2999" y2="53.4712"/><linearGradient id="Z" gradientUnits="userSpaceOnUse" x1="185.167" x2="203.889" xlink:href="#a" y1="42.6771" y2="67.9921"/><linearGradient id="aa" gradientUnits="userSpaceOnUse" x1="186.531" x2="203.243" xlink:href="#a" y1="45.4262" y2="64.5865"/><linearGradient id="ab" gradientUnits="userSpaceOnUse" x1="185.178" x2="203.92" xlink:href="#a" y1="42.5915" y2="67.9058"/><linearGradient id="ac" gradientUnits="userSpaceOnUse" x1="186.526" x2="203.237" xlink:href="#a" y1="45.3469" y2="64.519"/><linearGradient id="ad" gradientUnits="userSpaceOnUse" x1="6516.17" x2="6380.02" xlink:href="#H" y1="3979.29" y2="3748.1"/><linearGradient id="ae" gradientUnits="userSpaceOnUse" x1="4818.23" x2="3157.62" xlink:href="#J" y1="4084.01" y2="2373.61"/><linearGradient id="af" gradientUnits="userSpaceOnUse" x1="6516.17" x2="6380.04" xlink:href="#H" y1="3973.77" y2="3742.87"/><linearGradient id="ag" gradientUnits="userSpaceOnUse" x1="4818.23" x2="3157.29" xlink:href="#J" y1="4080.33" y2="2370.15"/><linearGradient id="ah" gradientUnits="userSpaceOnUse" x1="203.792" x2="222.526" xlink:href="#a" y1="53.3861" y2="78.6982"/><linearGradient id="ai" gradientUnits="userSpaceOnUse" x1="205.157" x2="221.869" xlink:href="#a" y1="56.1441" y2="75.3044"/><linearGradient id="aj" gradientUnits="userSpaceOnUse" x1="203.792" x2="222.541" xlink:href="#a" y1="53.294" y2="78.6105"/><linearGradient id="ak" gradientUnits="userSpaceOnUse" x1="205.157" x2="221.868" xlink:href="#a" y1="56.0641" y2="75.2241"/><linearGradient id="al" gradientUnits="userSpaceOnUse" x1="185.38" x2="204.127" xlink:href="#a" y1="25.8449" y2="51.1537"/><linearGradient id="am" gradientUnits="userSpaceOnUse" x1="186.747" x2="203.458" xlink:href="#a" y1="28.6007" y2="47.7607"/><linearGradient id="an" gradientUnits="userSpaceOnUse" x1="185.38" x2="204.123" xlink:href="#a" y1="25.7635" y2="51.0711"/><linearGradient id="ao" gradientUnits="userSpaceOnUse" x1="186.747" x2="203.461" xlink:href="#a" y1="28.5221" y2="47.6826"/><linearGradient id="ap" gradientUnits="userSpaceOnUse" x1="203.982" x2="222.716" xlink:href="#a" y1="36.544" y2="61.8593"/><linearGradient id="aq" gradientUnits="userSpaceOnUse" x1="205.361" x2="222.073" xlink:href="#a" y1="39.3022" y2="58.4625"/><linearGradient id="ar" gradientUnits="userSpaceOnUse" x1="203.98" x2="222.713" xlink:href="#a" y1="36.4634" y2="61.7818"/><linearGradient id="as" gradientUnits="userSpaceOnUse" x1="205.361" x2="222.073" xlink:href="#a" y1="39.2211" y2="58.3814"/><linearGradient id="at" gradientUnits="userSpaceOnUse" x1="5461.95" x2="5325.8" xlink:href="#H" y1="1046.06" y2="814.873"/><linearGradient id="au" gradientUnits="userSpaceOnUse" x1="186.961" x2="203.677" xlink:href="#a" y1="11.7678" y2="30.9204"/><linearGradient id="av" gradientUnits="userSpaceOnUse" x1="185.577" x2="204.311" xlink:href="#a" y1="8.93058" y2="34.2426"/><linearGradient id="aw" gradientUnits="userSpaceOnUse" x1="221.842" x2="240.595" xlink:href="#a" y1="97.5683" y2="122.886"/><linearGradient id="ax" gradientUnits="userSpaceOnUse" x1="223.2" x2="239.909" xlink:href="#a" y1="100.319" y2="119.5"/><linearGradient id="ay" gradientUnits="userSpaceOnUse" x1="221.842" x2="240.583" xlink:href="#a" y1="97.4836" y2="122.798"/><linearGradient id="az" gradientUnits="userSpaceOnUse" x1="223.207" x2="239.923" xlink:href="#a" y1="100.242" y2="119.403"/><linearGradient id="aA" gradientUnits="userSpaceOnUse" x1="222.218" x2="240.951" xlink:href="#a" y1="81.1063" y2="106.421"/><linearGradient id="aB" gradientUnits="userSpaceOnUse" x1="223.571" x2="240.283" xlink:href="#a" y1="83.8656" y2="103.026"/><linearGradient id="aC" gradientUnits="userSpaceOnUse" x1="222.225" x2="240.966" xlink:href="#a" y1="81.0271" y2="106.328"/><linearGradient id="aD" gradientUnits="userSpaceOnUse" x1="223.571" x2="240.283" xlink:href="#a" y1="83.7853" y2="102.945"/><linearGradient id="aE" gradientUnits="userSpaceOnUse" x1="222.4" x2="241.13" xlink:href="#a" y1="64.2755" y2="89.5896"/><linearGradient id="aF" gradientUnits="userSpaceOnUse" x1="223.775" x2="240.495" xlink:href="#a" y1="67.0285" y2="86.1897"/><linearGradient id="aG" gradientUnits="userSpaceOnUse" x1="222.406" x2="241.148" xlink:href="#a" y1="64.199" y2="89.5134"/><linearGradient id="aH" gradientUnits="userSpaceOnUse" x1="223.758" x2="240.471" xlink:href="#a" y1="66.954" y2="86.1143"/><linearGradient id="aI" gradientUnits="userSpaceOnUse" x1="222.405" x2="241.144" xlink:href="#a" y1="64.2937" y2="89.6107"/><linearGradient id="aJ" gradientUnits="userSpaceOnUse" x1="223.758" x2="240.469" xlink:href="#a" y1="67.0509" y2="86.2109"/><linearGradient id="aK" gradientUnits="userSpaceOnUse" x1="222.406" x2="241.15" xlink:href="#a" y1="64.2145" y2="89.5296"/><linearGradient id="aL" gradientUnits="userSpaceOnUse" x1="223.758" x2="240.471" xlink:href="#a" y1="66.9711" y2="86.1314"/><clipPath id="aM"><path d="m117.203 0h137.119v116.436h-137.119z"/></clipPath><path d="m10.4536 121v-10.182h1.5362v4.425h5.076v-4.425h1.5412v10.182h-1.5412v-4.44h-5.076v4.44zm12.4936.169c-.4839 0-.9214-.089-1.3125-.268-.3911-.183-.701-.446-.9297-.791-.2254-.345-.3381-.767-.3381-1.268 0-.431.0829-.785.2486-1.064.1657-.278.3894-.498.6712-.661.2817-.162.5966-.285.9446-.368s.7026-.146 1.0639-.189c.4574-.053.8286-.096 1.1136-.129.2851-.036.4922-.094.6215-.174.1292-.079.1939-.209.1939-.388v-.034c0-.435-.1227-.771-.3679-1.01-.242-.238-.6033-.358-1.0838-.358-.5005 0-.8949.111-1.1833.333-.285.219-.4822.463-.5916.731l-1.397-.318c.1657-.464.4077-.838.7258-1.124.3215-.288.6911-.497 1.1087-.626.4176-.133.8568-.199 1.3175-.199.3049 0 .6281.037.9694.11.3447.069.6662.198.9645.387.3016.189.5486.459.7408.811.1922.348.2883.8.2883 1.357v5.071h-1.4517v-1.044h-.0596c-.0961.192-.2403.381-.4325.567-.1923.185-.4392.339-.7408.462s-.6629.184-1.0838.184zm.3231-1.193c.411 0 .7623-.081 1.054-.244.295-.162.5187-.374.6712-.636.1557-.265.2336-.549.2336-.85v-.985c-.053.053-.1557.103-.3082.15-.1491.043-.3198.081-.5121.114-.1922.03-.3795.058-.5618.084-.1823.024-.3347.043-.4574.06-.2883.036-.5518.098-.7904.184-.2354.086-.4243.21-.5668.373-.1392.159-.2088.371-.2088.636 0 .368.1359.647.4077.835.2717.186.6181.279 1.039.279zm5.4253 1.024v-7.636h1.4368v1.213h.0795c.1392-.411.3845-.734.7358-.97.3546-.238.7557-.358 1.2031-.358.0928 0 .2022.004.3282.01.1292.007.2303.015.3032.025v1.422c-.0596-.017-.1657-.035-.3182-.055-.1524-.023-.3049-.035-.4573-.035-.3514 0-.6646.075-.9397.224-.2718.146-.4872.35-.6463.612-.1591.258-.2386.553-.2386.885v4.663zm6.8595-4.534v4.534h-1.4865v-7.636h1.4269v1.243h.0944c.1757-.405.4508-.73.8253-.975.3779-.245.8535-.368 1.4269-.368.5203 0 .9761.11 1.3672.328.391.216.6943.537.9098.965.2154.427.3231.956.3231 1.586v4.857h-1.4865v-4.678c0-.554-.1442-.986-.4325-1.298-.2884-.315-.6845-.472-1.1882-.472-.3447 0-.6513.074-.9198.224-.2651.149-.4756.367-.6314.656-.1524.285-.2287.63-.2287 1.034zm10.1719 4.688c-.7524 0-1.4003-.161-1.9439-.482-.5402-.325-.9578-.781-1.2528-1.367-.2917-.59-.4375-1.281-.4375-2.073 0-.783.1458-1.472.4375-2.069.295-.596.7059-1.062 1.2329-1.397.5303-.334 1.1501-.502 1.8594-.502.4309 0 .8485.071 1.2528.214.4044.143.7673.366 1.0888.671s.5751.701.7607 1.188c.1856.484.2784 1.073.2784 1.765v.527h-6.0703v-1.113h4.6136c0-.391-.0795-.738-.2386-1.039-.1591-.305-.3828-.546-.6712-.721-.285-.176-.6198-.264-1.0043-.264-.4176 0-.7822.103-1.0937.308-.3082.203-.5469.468-.7159.796-.1657.325-.2486.678-.2486 1.059v.87c0 .51.0895.944.2685 1.302.1823.358.4358.632.7606.821.3248.185.7043.278 1.1385.278.2817 0 .5386-.04.7706-.119.232-.083.4325-.206.6016-.368.169-.162.2983-.363.3878-.602l1.4069.254c-.1127.414-.3148.777-.6065 1.089-.2884.308-.6513.548-1.0888.721-.4342.169-.9297.253-1.4865.253zm10.6479-5.926-1.3473.239c-.0563-.173-.1458-.337-.2685-.493-.1193-.155-.2817-.283-.4872-.382-.2055-.1-.4623-.15-.7706-.15-.4209 0-.7722.095-1.0539.284-.2818.185-.4226.426-.4226.721 0 .255.0944.46.2833.616.189.156.4939.284.9148.383l1.2131.278c.7026.163 1.2263.413 1.571.751s.5171.777.5171 1.318c0 .457-.1326.865-.3978 1.223-.2618.354-.628.633-1.0987.835-.4673.202-1.0092.303-1.6257.303-.8551 0-1.5528-.182-2.093-.547-.5403-.368-.8717-.89-.9944-1.566l1.4368-.219c.0895.375.2735.658.5519.851.2784.189.6413.283 1.0888.283.4872 0 .8766-.101 1.1683-.303.2916-.206.4375-.456.4375-.751 0-.239-.0895-.439-.2685-.602-.1756-.162-.4458-.285-.8104-.367l-1.2926-.284c-.7126-.162-1.2396-.421-1.5809-.775-.3381-.355-.5071-.804-.5071-1.348 0-.45.1259-.845.3778-1.183s.5999-.602 1.044-.79c.4442-.193.9529-.289 1.5263-.289.8253 0 1.4749.179 1.9489.537.4739.355.7871.83.9396 1.427zm7.5059 0-1.3473.239c-.0564-.173-.1459-.337-.2685-.493-.1193-.155-.2817-.283-.4872-.382-.2055-.1-.4624-.15-.7706-.15-.4209 0-.7723.095-1.054.284-.2817.185-.4226.426-.4226.721 0 .255.0945.46.2834.616s.4939.284.9148.383l1.2131.278c.7026.163 1.2263.413 1.571.751s.517.777.517 1.318c0 .457-.1326.865-.3977 1.223-.2618.354-.6281.633-1.0987.835-.4674.202-1.0093.303-1.6257.303-.8552 0-1.5528-.182-2.0931-.547-.5402-.368-.8717-.89-.9943-1.566l1.4368-.219c.0895.375.2734.658.5518.851.2784.189.6414.283 1.0888.283.4872 0 .8767-.101 1.1683-.303.2917-.206.4375-.456.4375-.751 0-.239-.0894-.439-.2684-.602-.1757-.162-.4458-.285-.8104-.367l-1.2926-.284c-.7126-.162-1.2396-.421-1.581-.775-.338-.355-.5071-.804-.5071-1.348 0-.45.126-.845.3779-1.183s.5999-.602 1.044-.79c.4441-.193.9529-.289 1.5263-.289.8253 0 1.4749.179 1.9488.537.474.355.7872.83.9397 1.427zm-54.09715 25.772v-10.182h3.62925c.7921 0 1.4484.144 1.9688.433.5203.288.9098.682 1.1683 1.183.2585.497.3878 1.057.3878 1.68 0 .627-.131 1.19-.3928 1.691-.2585.497-.6496.891-1.1733 1.183-.5203.288-1.1749.432-1.9638.432h-2.4957v-1.302h2.3565c.5005 0 .9065-.086 1.2181-.259.3115-.175.5402-.414.6861-.716.1458-.301.2187-.644.2187-1.029 0-.384-.0729-.726-.2187-1.024-.1459-.298-.3762-.532-.6911-.701-.3116-.169-.7225-.253-1.233-.253h-1.9289v8.864zm10.32225-10.182v10.182h-1.4865v-10.182zm4.2221 10.351c-.4839 0-.9214-.089-1.3125-.268-.3911-.183-.701-.446-.9297-.791-.2253-.345-.338-.767-.338-1.268 0-.431.0828-.785.2486-1.064.1657-.278.3894-.498.6711-.661.2817-.162.5966-.285.9446-.368s.7027-.146 1.0639-.189c.4574-.053.8286-.096 1.1137-.129.285-.036.4922-.094.6214-.174.1293-.079.1939-.209.1939-.388v-.034c0-.435-.1226-.771-.3679-1.01-.2419-.238-.6032-.358-1.0838-.358-.5005 0-.8949.111-1.1832.333-.2851.219-.4823.463-.5916.731l-1.3971-.318c.1658-.464.4077-.838.7259-1.124.3215-.288.691-.497 1.1087-.626.4176-.133.8567-.199 1.3174-.199.305 0 .6281.037.9695.11.3447.069.6662.198.9645.387.3016.189.5485.459.7407.811.1923.348.2884.8.2884 1.357v5.071h-1.4517v-1.044h-.0597c-.0961.192-.2403.381-.4325.567-.1922.185-.4391.339-.7408.462-.3016.123-.6628.184-1.0838.184zm.3232-1.193c.411 0 .7623-.081 1.054-.244.2949-.162.5187-.374.6711-.636.1558-.265.2337-.549.2337-.85v-.985c-.053.053-.1558.103-.3082.15-.1492.043-.3199.081-.5121.114-.1923.03-.3795.058-.5618.084-.1823.024-.3348.043-.4574.06-.2883.036-.5518.098-.7905.184-.2353.086-.4242.21-.5667.373-.1392.159-.2088.371-.2088.636 0 .368.1358.647.4076.835.2718.186.6182.279 1.0391.279zm8.9899-6.612v1.193h-4.1712v-1.193zm-3.0526-1.83h1.4865v7.224c0 .288.0431.505.1293.651.0862.143.1972.24.3331.293.1392.05.29.075.4524.075.1193 0 .2237-.008.3132-.025.0895-.016.1591-.03.2088-.04l.2685 1.228c-.0862.033-.2088.067-.3679.1-.1591.036-.358.056-.5966.059-.3911.007-.7557-.063-1.0938-.208-.338-.146-.6115-.372-.8203-.677-.2088-.304-.3132-.687-.3132-1.148zm8.3312 1.83v1.193h-4.3154v-1.193zm-3.1321 7.636v-8.521c0-.478.1044-.874.3132-1.189.2088-.318.4855-.555.8302-.71.3447-.16.7192-.239 1.1236-.239.2983 0 .5535.025.7656.074.2121.047.3696.09.4723.13l-.348 1.203c-.0696-.02-.1591-.043-.2685-.07-.1093-.03-.2419-.044-.3977-.044-.3612 0-.6198.089-.7755.268-.1525.179-.2287.437-.2287.776v8.322zm7.5816.154c-.7159 0-1.3406-.164-1.8743-.492-.5336-.328-.9479-.787-1.2429-1.377-.2949-.59-.4424-1.28-.4424-2.068 0-.793.1475-1.485.4424-2.079.295-.593.7093-1.053 1.2429-1.382.5337-.328 1.1584-.492 1.8743-.492s1.3407.164 1.8743.492c.5336.329.9479.789 1.2429 1.382.295.594.4425 1.286.4425 2.079 0 .788-.1475 1.478-.4425 2.068s-.7093 1.049-1.2429 1.377-1.1584.492-1.8743.492zm.005-1.248c.464 0 .8485-.122 1.1534-.368.3049-.245.5303-.571.6761-.979.1492-.408.2238-.857.2238-1.347 0-.488-.0746-.935-.2238-1.343-.1458-.411-.3712-.74-.6761-.989s-.6894-.373-1.1534-.373c-.4673 0-.8551.124-1.1634.373-.3049.249-.5319.578-.6811.989-.1458.408-.2187.855-.2187 1.343 0 .49.0729.939.2187 1.347.1492.408.3762.734.6811.979.3083.246.6961.368 1.1634.368zm5.214 1.094v-7.636h1.4367v1.213h.0796c.1392-.411.3845-.734.7358-.97.3546-.238.7557-.358 1.2031-.358.0928 0 .2022.004.3281.01.1293.007.2304.015.3033.025v1.422c-.0597-.017-.1657-.035-.3182-.055-.1524-.023-.3049-.035-.4574-.035-.3513 0-.6645.075-.9396.224-.2718.146-.4872.35-.6463.612-.1591.258-.2386.553-.2386.885v4.663zm5.373 0v-7.636h1.4269v1.243h.0944c.1591-.421.4193-.75.7806-.985.3612-.238.7937-.358 1.2975-.358.5105 0 .938.12 1.2827.358.348.239.6049.567.7706.985h.0795c.1823-.408.4723-.733.8701-.975.3977-.245.8717-.368 1.4219-.368.6927 0 1.2578.217 1.6953.651.4408.435.6612 1.089.6612 1.964v5.121h-1.4865v-4.982c0-.517-.1409-.891-.4226-1.123s-.6181-.348-1.0092-.348c-.4839 0-.8601.149-1.1286.447-.2685.295-.4027.675-.4027 1.139v4.867h-1.4815v-5.076c0-.414-.1293-.747-.3878-.999s-.5949-.378-1.0092-.378c-.2818 0-.5419.074-.7806.224-.2353.145-.4259.349-.5717.611-.1425.262-.2138.565-.2138.91v4.708z" fill="#fff"/><path d="m230.094 16.763h1.495l2.28 3.9673h.094l2.28-3.9673h1.496l-3.167 5.3011v3.4261h-1.312v-3.4261zm10.476 8.8593c-.613 0-1.149-.1406-1.606-.4218-.458-.2813-.813-.6748-1.066-1.1804-.253-.5057-.379-1.0966-.379-1.7728 0-.6789.126-1.2727.379-1.7812s.608-.9034 1.066-1.1847c.457-.2812.993-.4218 1.606-.4218.614 0 1.149.1406 1.607.4218.457.2813.812.6762 1.065 1.1847s.379 1.1023.379 1.7812c0 .6762-.126 1.2671-.379 1.7728-.253.5056-.608.8991-1.065 1.1804-.458.2812-.993.4218-1.607.4218zm.004-1.0696c.398 0 .728-.1051.989-.3153s.455-.4901.58-.8395c.127-.3494.191-.7344.191-1.1548 0-.4176-.064-.8012-.191-1.1506-.125-.3523-.319-.6349-.58-.848s-.591-.3196-.989-.3196c-.4 0-.733.1065-.997.3196-.261.2131-.456.4957-.584.848-.125.3494-.187.733-.187 1.1506 0 .4204.062.8054.187 1.1548.128.3494.323.6293.584.8395.264.2102.597.3153.997.3153zm8.616-1.777v-3.8309h1.278v6.5454h-1.253v-1.1335h-.068c-.15.3494-.392.6406-.724.8736-.33.2301-.74.3452-1.232.3452-.42 0-.792-.0924-1.116-.277-.321-.1875-.574-.4645-.759-.831-.182-.3665-.272-.8196-.272-1.3594v-4.1633h1.274v4.0099c0 .446.123.8012.37 1.0654.248.2642.569.3963.964.3963.238 0 .475-.0597.711-.179.239-.1193.436-.2997.592-.5412.16-.2415.238-.5483.235-.9205zm2.99 2.7145v-6.5454h1.232v1.0398h.068c.119-.3523.33-.6293.631-.831.304-.2046.647-.3068 1.031-.3068.079 0 .173.0028.281.0085.111.0057.198.0128.26.0213v1.2187c-.051-.0142-.142-.0298-.273-.0468-.13-.0199-.261-.0299-.392-.0299-.301 0-.569.064-.805.1918-.233.125-.418.2997-.554.5242-.136.2215-.205.4744-.205.7585v3.9971zm7.884 0v-8.7272h5.412v1.1335h-4.095v2.6591h3.707v1.1292h-3.707v3.8054zm6.929 0v-6.5454h1.274v6.5454zm.643-7.5554c-.221 0-.412-.0738-.571-.2216-.156-.1505-.234-.3295-.234-.5369 0-.2102.078-.3892.234-.5369.159-.1506.35-.2259.571-.2259.222 0 .411.0753.567.2259.159.1477.239.3267.239.5369 0 .2074-.08.3864-.239.5369-.156.1478-.345.2216-.567.2216zm2.345 7.5554v-6.5454h1.232v1.0398h.068c.119-.3523.329-.6293.63-.831.304-.2046.648-.3068 1.032-.3068.079 0 .173.0028.281.0085.111.0057.197.0128.26.0213v1.2187c-.051-.0142-.142-.0298-.273-.0468-.131-.0199-.261-.0299-.392-.0299-.301 0-.569.064-.805.1918-.233.125-.418.2997-.554.5242-.137.2215-.205.4744-.205.7585v3.9971zm7.192.1321c-.645 0-1.2-.1377-1.666-.4133-.463-.2784-.821-.669-1.074-1.1719-.25-.5057-.375-1.098-.375-1.777 0-.6704.125-1.2613.375-1.7727.253-.5114.605-.9105 1.057-1.1975.454-.2869.986-.4303 1.594-.4303.369 0 .727.061 1.074.1832.346.1222.657.3139.933.5753.275.2613.493.6008.652 1.0184.159.4148.238.9191.238 1.5128v.4517h-5.203v-.9545h3.955c0-.3352-.068-.6321-.205-.8906-.136-.2614-.328-.4674-.575-.6179-.244-.1506-.531-.2259-.861-.2259-.358 0-.67.0881-.937.2642-.265.1733-.469.4006-.614.6818-.142.2784-.213.581-.213.9077v.7457c0 .4375.077.8097.23 1.1165.156.3068.374.5412.652.7031.279.1591.604.2387.976.2387.241 0 .462-.0341.66-.1023.199-.071.371-.1761.516-.3153s.256-.3111.332-.5157l1.206.2174c-.096.3551-.269.6662-.519.9332-.248.2642-.559.4702-.934.6179-.372.1449-.797.2173-1.274.2173zm5.629-.1321-1.926-6.5454h1.317l1.283 4.8068h.064l1.287-4.8068h1.316l1.279 4.7855h.064l1.274-4.7855h1.317l-1.922 6.5454h-1.3l-1.33-4.7258h-.098l-1.329 4.7258zm10.389.1449c-.415 0-.79-.0767-1.125-.2301-.336-.1562-.601-.3821-.797-.6775-.193-.2955-.29-.6577-.29-1.0867 0-.3693.071-.6733.213-.9119.142-.2387.334-.4276.575-.5668.242-.1392.512-.2443.81-.3153.298-.0711.602-.125.912-.162.392-.0454.71-.0823.954-.1108.245-.0312.422-.0809.533-.1491s.166-.179.166-.3324v-.0298c0-.3722-.105-.6605-.315-.8651-.207-.2045-.517-.3068-.929-.3068-.429 0-.767.0952-1.014.2855-.245.1875-.414.3963-.507.6264l-1.198-.2727c.142-.3977.35-.7187.622-.9631.276-.2471.593-.4261.951-.5369.358-.1136.734-.1704 1.129-.1704.261 0 .538.0312.831.0937.295.0597.571.1705.827.3324.258.1619.47.3935.635.6946.164.2983.247.6861.247 1.1633v4.3466h-1.245v-.8949h-.051c-.082.1648-.206.3268-.371.4858-.164.1591-.376.2912-.634.3964-.259.1051-.569.1576-.929.1576zm.277-1.0227c.352 0 .653-.0696.903-.2088.253-.1392.445-.321.575-.5455.134-.2272.201-.4701.201-.7287v-.8437c-.046.0454-.134.0881-.265.1278-.128.037-.274.0696-.439.098-.164.0256-.325.0498-.481.0725-.156.0199-.287.0369-.392.0511-.247.0313-.473.0838-.678.1577-.201.0739-.363.1804-.486.3196-.119.1364-.179.3182-.179.5454 0 .3154.117.554.35.716.233.159.53.2386.891.2386zm5.924-7.8494v8.7272h-1.274v-8.7272zm2.988 0v8.7272h-1.274v-8.7272z" fill="#fff"/><path d="m309.371 102.093v-8.727h1.317v3.7926h4.351v-3.7926h1.321v8.727h-1.321v-3.8051h-4.351v3.8051zm10.709.145c-.415 0-.79-.077-1.125-.23-.335-.156-.601-.382-.797-.678-.193-.295-.289-.657-.289-1.086 0-.3695.071-.6735.213-.9121s.333-.4276.575-.5668c.241-.1392.511-.2443.81-.3153.298-.071.602-.125.912-.1619.392-.0455.71-.0824.954-.1108.244-.0313.422-.081.533-.1492s.166-.179.166-.3324v-.0298c0-.3722-.105-.6605-.315-.8651-.208-.2045-.517-.3068-.929-.3068-.429 0-.767.0952-1.015.2855-.244.1875-.413.3963-.507.6265l-1.197-.2728c.142-.3977.349-.7187.622-.963.276-.2472.592-.4262.95-.537.358-.1136.735-.1704 1.13-.1704.261 0 .538.0312.831.0937.295.0597.571.1705.826.3324.259.1619.47.3935.635.6946.165.2983.247.6861.247 1.1634v4.3463h-1.244v-.895h-.051c-.083.165-.206.327-.371.486s-.376.291-.635.396c-.258.106-.568.158-.929.158zm.277-1.023c.352 0 .654-.069.904-.208.252-.14.444-.321.575-.546.133-.227.2-.47.2-.7285v-.8438c-.045.0455-.133.0881-.264.1279-.128.0369-.274.0696-.439.098-.165.0255-.325.0497-.481.0724-.157.0199-.287.0369-.393.0511-.247.0313-.473.0839-.677.1577-.202.0739-.364.1804-.486.3196-.119.1364-.179.3186-.179.5456 0 .315.117.554.35.716.233.159.529.238.89.238zm4.65.878v-6.5452h1.232v1.0398h.068c.119-.3523.33-.6293.631-.831.304-.2045.648-.3068 1.031-.3068.08 0 .173.0028.281.0085.111.0057.198.0128.26.0213v1.2188c-.051-.0142-.142-.0299-.272-.0469-.131-.0199-.262-.0298-.393-.0298-.301 0-.569.0639-.805.1917-.233.125-.418.2997-.554.5242-.136.2216-.204.4744-.204.7585v3.9969zm5.88-3.8861v3.8861h-1.274v-6.5452h1.223v1.0653h.081c.15-.3465.386-.625.707-.8352.324-.2102.732-.3153 1.223-.3153.446 0 .837.0937 1.172.2812.335.1847.595.4603.78.8267.185.3665.277.8196.277 1.3594v4.1631h-1.274v-4.0097c0-.4744-.124-.8452-.371-1.1122-.247-.2699-.587-.4048-1.018-.4048-.296 0-.559.0639-.789.1917-.227.1279-.407.3154-.541.5625-.131.2444-.196.5398-.196.8864zm8.719 4.0181c-.645 0-1.201-.137-1.666-.413-.463-.278-.821-.669-1.074-1.172-.25-.506-.375-1.0979-.375-1.7769 0-.6704.125-1.2613.375-1.7727.253-.5113.605-.9105 1.057-1.1974.454-.287.985-.4304 1.593-.4304.37 0 .728.0611 1.074.1832.347.1222.658.3139.933.5753.276.2614.493.6009.652 1.0185.159.4147.239.919.239 1.5128v.4517h-5.203v-.9546h3.954c0-.3352-.068-.6321-.204-.8906-.136-.2614-.328-.4673-.575-.6179-.245-.1506-.532-.2259-.861-.2259-.358 0-.671.0881-.938.2642-.264.1733-.468.4006-.613.6819-.142.2784-.213.5809-.213.9076v.7458c0 .4375.076.8096.23 1.1164.156.307.373.541.652.703.278.159.603.239.976.239.241 0 .461-.034.66-.102.199-.071.371-.177.516-.316s.255-.311.332-.515l1.206.217c-.097.355-.27.666-.52.933-.247.264-.558.47-.933.618-.372.145-.797.217-1.274.217zm9.127-5.0792-1.155.2046c-.049-.1478-.125-.2884-.23-.4219-.103-.1335-.242-.2429-.418-.3281-.176-.0853-.396-.1279-.661-.1279-.36 0-.661.081-.903.2429-.241.1591-.362.3651-.362.6179 0 .2188.081.3949.243.5284.162.1336.423.2429.784.3282l1.04.2386c.602.1392 1.051.3537 1.346.6435.296.2897.443.6661.443 1.129 0 .392-.113.742-.341 1.049-.224.303-.538.542-.941.715-.401.174-.865.26-1.394.26-.733 0-1.331-.156-1.794-.468-.463-.316-.747-.763-.852-1.343l1.231-.187c.077.321.235.564.473.728.239.162.55.243.934.243.417 0 .751-.086 1.001-.26.25-.176.375-.39.375-.643 0-.205-.077-.3765-.23-.5157-.151-.1392-.382-.2443-.695-.3153l-1.108-.2429c-.61-.1392-1.062-.3608-1.355-.6648-.289-.3039-.434-.6889-.434-1.1548 0-.3864.108-.7244.324-1.0142.215-.2898.514-.5156.894-.6776.381-.1647.817-.2471 1.309-.2471.707 0 1.264.1534 1.67.4602.406.304.675.7117.806 1.223zm6.433 0-1.155.2046c-.048-.1478-.125-.2884-.23-.4219-.102-.1335-.241-.2429-.417-.3281-.177-.0853-.397-.1279-.661-.1279-.361 0-.662.081-.903.2429-.242.1591-.363.3651-.363.6179 0 .2188.081.3949.243.5284.162.1336.424.2429.784.3282l1.04.2386c.602.1392 1.051.3537 1.347.6435.295.2897.443.6661.443 1.129 0 .392-.114.742-.341 1.049-.224.303-.538.542-.942.715-.4.174-.865.26-1.393.26-.733 0-1.331-.156-1.794-.468-.463-.316-.747-.763-.852-1.343l1.231-.187c.077.321.234.564.473.728.239.162.55.243.933.243.418 0 .752-.086 1.002-.26.25-.176.375-.39.375-.643 0-.205-.077-.3765-.23-.5157-.151-.1392-.382-.2443-.695-.3153l-1.108-.2429c-.611-.1392-1.062-.3608-1.355-.6648-.29-.3039-.435-.6889-.435-1.1548 0-.3864.108-.7244.324-1.0142s.514-.5156.895-.6776c.381-.1647.817-.2471 1.308-.2471.708 0 1.265.1534 1.671.4602.406.304.674.7117.805 1.223zm7.632 4.9472h-2.825v-8.727h2.915c.855 0 1.589.1747 2.203.5241.614.3466 1.084.8452 1.41 1.4958.33.6477.495 1.4247.495 2.3309 0 .9091-.166 1.6904-.499 2.3442-.329.653-.807 1.156-1.432 1.508-.625.35-1.38.524-2.267.524zm-1.508-1.15h1.436c.665 0 1.217-.125 1.657-.375.441-.253.77-.6182.989-1.0955.219-.4801.328-1.0653.328-1.7557 0-.6846-.109-1.2656-.328-1.7429-.216-.4772-.538-.8394-.967-1.0866s-.962-.3707-1.598-.3707h-1.517zm10.062 1.282c-.645 0-1.2-.137-1.666-.413-.463-.278-.821-.669-1.074-1.172-.25-.506-.375-1.0979-.375-1.7769 0-.6704.125-1.2613.375-1.7727.253-.5113.605-.9105 1.057-1.1974.454-.287.985-.4304 1.593-.4304.37 0 .728.0611 1.074.1832.347.1222.658.3139.933.5753.276.2614.493.6009.652 1.0185.16.4147.239.919.239 1.5128v.4517h-5.203v-.9546h3.955c0-.3352-.069-.6321-.205-.8906-.136-.2614-.328-.4673-.575-.6179-.245-.1506-.532-.2259-.861-.2259-.358 0-.671.0881-.938.2642-.264.1733-.468.4006-.613.6819-.142.2784-.213.5809-.213.9076v.7458c0 .4375.076.8096.23 1.1164.156.307.373.541.652.703.278.159.603.239.976.239.241 0 .461-.034.66-.102.199-.071.371-.177.516-.316s.255-.311.332-.515l1.206.217c-.096.355-.27.666-.52.933-.247.264-.558.47-.933.618-.372.145-.797.217-1.274.217zm5.496-8.859v8.727h-1.274v-8.727zm4.535 8.859c-.645 0-1.2-.137-1.666-.413-.463-.278-.821-.669-1.074-1.172-.25-.506-.375-1.0979-.375-1.7769 0-.6704.125-1.2613.375-1.7727.253-.5113.605-.9105 1.057-1.1974.454-.287.986-.4304 1.594-.4304.369 0 .727.0611 1.073.1832.347.1222.658.3139.934.5753.275.2614.493.6009.652 1.0185.159.4147.238.919.238 1.5128v.4517h-5.203v-.9546h3.955c0-.3352-.068-.6321-.205-.8906-.136-.2614-.328-.4673-.575-.6179-.244-.1506-.531-.2259-.861-.2259-.358 0-.67.0881-.937.2642-.265.1733-.469.4006-.614.6819-.142.2784-.213.5809-.213.9076v.7458c0 .4375.077.8096.23 1.1164.156.307.374.541.652.703.278.159.604.239.976.239.241 0 .462-.034.66-.102.199-.071.371-.177.516-.316s.256-.311.332-.515l1.206.217c-.096.355-.269.666-.519.933-.248.264-.559.47-.934.618-.372.145-.797.217-1.274.217zm6.966 2.446c-.519 0-.967-.068-1.342-.204-.372-.137-.676-.317-.912-.541-.236-.222-.412-.463-.528-.725l1.095-.451c.077.119.179.248.307.387.13.14.307.259.528.358.225.1.513.149.865.149.483 0 .882-.116 1.198-.349.315-.233.473-.602.473-1.108v-1.287h-.081c-.077.139-.188.294-.333.465-.142.17-.338.318-.588.443s-.575.187-.976.187c-.517 0-.983-.12-1.397-.362-.412-.244-.739-.604-.98-1.078-.239-.477-.358-1.064-.358-1.76 0-.6961.117-1.2926.353-1.7898.239-.4972.566-.8778.98-1.1421.415-.267.885-.4005 1.411-.4005.406 0 .734.0682.984.2045.25.1335.445.2898.584.4688.142.179.251.3366.328.473h.094v-1.0611h1.249v6.6902c0 .557-.131 1.014-.393 1.372-.261.361-.615.628-1.061.801-.443.174-.943.26-1.5.26zm-.012-3.733c.366 0 .676-.085.929-.255.255-.174.448-.421.579-.7417.134-.3239.2-.7117.2-1.1634 0-.4403-.065-.8281-.196-1.1633-.13-.3353-.322-.5966-.575-.7841-.253-.1904-.565-.2855-.937-.2855-.384 0-.704.0994-.959.2983-.256.196-.449.463-.58.8011-.128.3381-.192.7159-.192 1.1335 0 .429.066.8054.197 1.1293.13.3238.323.5768.579.7588.259.182.577.272.955.272zm6.579 1.3c-.415 0-.79-.077-1.125-.23-.335-.156-.601-.382-.797-.678-.193-.295-.289-.657-.289-1.086 0-.3695.071-.6735.213-.9121s.333-.4276.575-.5668c.241-.1392.511-.2443.81-.3153.298-.071.602-.125.911-.1619.392-.0455.711-.0824.955-.1108.244-.0313.422-.081.533-.1492.11-.0682.166-.179.166-.3324v-.0298c0-.3722-.105-.6605-.315-.8651-.208-.2045-.518-.3068-.929-.3068-.429 0-.768.0952-1.015.2855-.244.1875-.413.3963-.507.6265l-1.197-.2728c.142-.3977.349-.7187.622-.963.276-.2472.592-.4262.95-.537.358-.1136.735-.1704 1.129-.1704.262 0 .539.0312.831.0937.296.0597.571.1705.827.3324.259.1619.47.3935.635.6946.165.2983.247.6861.247 1.1634v4.3463h-1.244v-.895h-.051c-.083.165-.206.327-.371.486s-.376.291-.635.396c-.258.106-.568.158-.929.158zm.277-1.023c.352 0 .654-.069.904-.208.252-.14.444-.321.575-.546.133-.227.2-.47.2-.7285v-.8438c-.045.0455-.133.0881-.264.1279-.128.0369-.274.0696-.439.098-.165.0255-.325.0497-.482.0724-.156.0199-.286.0369-.392.0511-.247.0313-.473.0839-.677.1577-.202.0739-.364.1804-.486.3196-.119.1364-.179.3186-.179.5456 0 .315.117.554.35.716.232.159.529.238.89.238zm7.706-5.6672v1.0227h-3.576v-1.0227zm-2.617-1.5682h1.274v6.1914c0 .248.037.434.111.559.074.122.169.206.286.251.119.043.248.064.388.064.102 0 .191-.007.268-.021.077-.015.136-.026.179-.034l.23 1.052c-.074.029-.179.057-.315.085-.137.032-.307.049-.512.051-.335.006-.647-.053-.937-.178s-.524-.319-.703-.58-.269-.59-.269-.984zm6.777 8.2454c-.645 0-1.2-.137-1.666-.413-.463-.278-.821-.669-1.074-1.172-.25-.506-.375-1.0979-.375-1.7769 0-.6704.125-1.2613.375-1.7727.253-.5113.605-.9105 1.057-1.1974.454-.287.985-.4304 1.593-.4304.37 0 .728.0611 1.074.1832.347.1222.658.3139.934.5753.275.2614.492.6009.652 1.0185.159.4147.238.919.238 1.5128v.4517h-5.203v-.9546h3.955c0-.3352-.069-.6321-.205-.8906-.136-.2614-.328-.4673-.575-.6179-.245-.1506-.532-.2259-.861-.2259-.358 0-.671.0881-.938.2642-.264.1733-.468.4006-.613.6819-.142.2784-.213.5809-.213.9076v.7458c0 .4375.076.8096.23 1.1164.156.307.373.541.652.703.278.159.604.239.976.239.241 0 .461-.034.66-.102.199-.071.371-.177.516-.316s.256-.311.332-.515l1.206.217c-.096.355-.27.666-.52.933-.247.264-.558.47-.933.618-.372.145-.797.217-1.274.217zm9.127-5.0792-1.155.2046c-.048-.1478-.125-.2884-.23-.4219-.103-.1335-.242-.2429-.418-.3281-.176-.0853-.396-.1279-.66-.1279-.361 0-.662.081-.904.2429-.241.1591-.362.3651-.362.6179 0 .2188.081.3949.243.5284.162.1336.423.2429.784.3282l1.04.2386c.602.1392 1.051.3537 1.346.6435.296.2897.444.6661.444 1.129 0 .392-.114.742-.341 1.049-.225.303-.539.542-.942.715-.401.174-.865.26-1.394.26-.733 0-1.331-.156-1.794-.468-.463-.316-.747-.763-.852-1.343l1.232-.187c.076.321.234.564.473.728.238.162.549.243.933.243.417 0 .751-.086 1.001-.26.25-.176.375-.39.375-.643 0-.205-.076-.3765-.23-.5157-.15-.1392-.382-.2443-.694-.3153l-1.108-.2429c-.611-.1392-1.063-.3608-1.356-.6648-.289-.3039-.434-.6889-.434-1.1548 0-.3864.108-.7244.324-1.0142s.514-.5156.895-.6776c.38-.1647.816-.2471 1.308-.2471.707 0 1.264.1534 1.67.4602.407.304.675.7117.806 1.223z" fill="#fff"/><path d="m511.739 117.424h1.746l2.659 4.629h.11l2.66-4.629h1.745l-3.694 6.185v3.997h-1.532v-3.997zm12.223 10.336c-.716 0-1.341-.164-1.874-.492-.534-.328-.948-.787-1.243-1.377s-.443-1.28-.443-2.068c0-.793.148-1.485.443-2.079.295-.593.709-1.054 1.243-1.382.533-.328 1.158-.492 1.874-.492s1.341.164 1.874.492c.534.328.948.789 1.243 1.382.295.594.443 1.286.443 2.079 0 .788-.148 1.478-.443 2.068s-.709 1.049-1.243 1.377c-.533.328-1.158.492-1.874.492zm.005-1.248c.464 0 .849-.122 1.154-.368.304-.245.53-.571.676-.979.149-.408.223-.857.223-1.347 0-.488-.074-.935-.223-1.343-.146-.411-.372-.74-.676-.989-.305-.249-.69-.373-1.154-.373-.467 0-.855.124-1.163.373-.305.249-.532.578-.681.989-.146.408-.219.855-.219 1.343 0 .49.073.939.219 1.347.149.408.376.734.681.979.308.246.696.368 1.163.368zm10.051-2.073v-4.469h1.492v7.636h-1.462v-1.322h-.079c-.176.407-.458.747-.845 1.019-.385.268-.864.402-1.437.402-.491 0-.925-.107-1.303-.323-.374-.219-.669-.542-.885-.969-.212-.428-.318-.956-.318-1.586v-4.857h1.487v4.678c0 .52.144.935.432 1.243s.663.462 1.124.462c.278 0 .555-.069.83-.209.278-.139.509-.349.691-.631.186-.282.277-.64.273-1.074zm3.489 3.167v-7.636h1.437v1.213h.08c.139-.411.384-.734.735-.97.355-.238.756-.358 1.204-.358.092 0 .202.004.328.01.129.007.23.015.303.025v1.422c-.06-.017-.166-.035-.318-.055-.153-.023-.305-.035-.458-.035-.351 0-.664.075-.939.224-.272.146-.488.35-.647.612-.159.258-.238.553-.238.885v4.663zm-54.105 9.818v10.182h-1.536v-10.182zm3.604 5.648v4.534h-1.486v-7.636h1.427v1.242h.094c.176-.404.451-.729.826-.974.377-.245.853-.368 1.426-.368.521 0 .976.11 1.368.328.391.216.694.537.909.965.216.427.324.956.324 1.586v4.857h-1.487v-4.678c0-.554-.144-.986-.433-1.298-.288-.315-.684-.472-1.188-.472-.344 0-.651.074-.919.224-.266.149-.476.367-.632.656-.152.285-.229.63-.229 1.034zm10.515-3.102v1.193h-4.315v-1.193zm-3.132 7.636v-8.521c0-.478.105-.874.313-1.189.209-.318.486-.555.831-.71.344-.16.719-.239 1.123-.239.299 0 .554.025.766.074.212.047.369.09.472.13l-.348 1.203c-.069-.02-.159-.043-.268-.07-.11-.03-.242-.045-.398-.045-.361 0-.62.09-.776.269-.152.179-.228.437-.228.776v8.322zm4.666 0v-7.636h1.437v1.213h.079c.14-.411.385-.734.736-.97.355-.238.756-.358 1.203-.358.093 0 .203.004.328.01.13.007.231.015.304.025v1.422c-.06-.017-.166-.035-.318-.055-.153-.023-.305-.035-.458-.035-.351 0-.664.075-.939.224-.272.146-.488.35-.647.612-.159.258-.238.553-.238.885v4.663zm7.527.169c-.484 0-.921-.089-1.312-.268-.392-.183-.701-.446-.93-.791-.225-.345-.338-.767-.338-1.268 0-.431.083-.785.248-1.064.166-.278.39-.498.672-.661.281-.162.596-.285.944-.368s.703-.146 1.064-.189c.457-.053.829-.096 1.114-.129.285-.036.492-.094.621-.174.129-.079.194-.209.194-.388v-.035c0-.434-.123-.77-.368-1.009-.242-.238-.603-.358-1.084-.358-.5 0-.895.111-1.183.333-.285.219-.482.463-.591.731l-1.397-.318c.165-.464.407-.839.725-1.124.322-.288.691-.497 1.109-.626.418-.133.857-.199 1.317-.199.305 0 .629.037.97.11.345.069.666.198.964.387.302.189.549.459.741.811.192.348.289.8.289 1.357v5.071h-1.452v-1.044h-.06c-.096.192-.24.381-.432.567-.193.185-.439.339-.741.462s-.663.184-1.084.184zm.323-1.193c.411 0 .763-.081 1.054-.244.295-.162.519-.374.671-.636.156-.265.234-.549.234-.85v-.985c-.053.053-.156.103-.308.149-.149.044-.32.082-.512.115-.192.03-.38.058-.562.084-.182.024-.335.043-.457.06-.289.036-.552.098-.791.184-.235.086-.424.21-.567.373-.139.159-.208.371-.208.636 0 .368.135.646.407.835.272.186.618.279 1.039.279zm11.148-4.748-1.348.239c-.056-.173-.145-.337-.268-.493-.119-.155-.282-.283-.487-.382-.206-.1-.463-.15-.771-.15-.421 0-.772.095-1.054.284-.281.185-.422.426-.422.721 0 .255.094.46.283.616s.494.284.915.383l1.213.278c.703.163 1.226.413 1.571.751s.517.777.517 1.318c0 .457-.133.865-.398 1.223-.262.354-.628.633-1.099.835-.467.202-1.009.303-1.625.303-.855 0-1.553-.182-2.093-.547-.541-.368-.872-.89-.995-1.566l1.437-.219c.09.375.274.658.552.851.278.188.641.283 1.089.283.487 0 .876-.101 1.168-.303.292-.206.438-.456.438-.751 0-.239-.09-.439-.269-.602-.175-.162-.446-.285-.81-.368l-1.293-.283c-.712-.162-1.239-.421-1.581-.775-.338-.355-.507-.804-.507-1.348 0-.451.126-.845.378-1.183s.6-.602 1.044-.79c.444-.193.953-.289 1.526-.289.826 0 1.475.179 1.949.537.474.355.787.83.94 1.427zm5.348-1.864v1.193h-4.171v-1.193zm-3.053-1.83h1.487v7.224c0 .288.043.505.129.651.086.143.197.24.333.293.139.05.29.075.453.075.119 0 .223-.008.313-.025.089-.016.159-.03.209-.04l.268 1.228c-.086.033-.209.067-.368.1-.159.036-.358.056-.596.059-.391.007-.756-.063-1.094-.208-.338-.146-.612-.372-.82-.677-.209-.304-.314-.687-.314-1.148zm4.697 9.466v-7.636h1.437v1.213h.08c.139-.411.384-.734.735-.97.355-.238.756-.358 1.204-.358.092 0 .202.004.328.01.129.007.23.015.303.025v1.422c-.06-.017-.166-.035-.318-.055-.153-.023-.305-.035-.458-.035-.351 0-.664.075-.939.224-.272.146-.487.35-.647.612-.159.258-.238.553-.238.885v4.663zm10.211-3.167v-4.469h1.491v7.636h-1.461v-1.322h-.08c-.176.407-.457.747-.845 1.019-.385.268-.864.402-1.437.402-.49 0-.925-.107-1.302-.323-.375-.219-.67-.542-.885-.969-.213-.428-.319-.956-.319-1.586v-4.857h1.487v4.678c0 .52.144.935.432 1.243.289.308.663.462 1.124.462.278 0 .555-.069.83-.209.279-.139.509-.349.691-.631.186-.282.277-.64.274-1.074zm6.705 3.321c-.739 0-1.375-.167-1.909-.502-.53-.338-.938-.804-1.223-1.397s-.427-1.273-.427-2.038c0-.776.145-1.46.437-2.054.292-.596.703-1.062 1.233-1.397.53-.334 1.155-.502 1.874-.502.58 0 1.097.108 1.551.323.454.212.821.511 1.099.895.282.385.449.834.502 1.348h-1.446c-.08-.358-.262-.667-.547-.925-.282-.259-.66-.388-1.134-.388-.414 0-.777.109-1.089.328-.308.216-.548.524-.721.925-.172.398-.258.868-.258 1.412 0 .557.084 1.037.253 1.442.17.404.408.717.716.939.312.222.678.333 1.099.333.282 0 .537-.051.766-.154.232-.106.426-.257.581-.452.16-.196.271-.431.334-.706h1.446c-.053.494-.214.934-.482 1.322s-.628.693-1.079.915c-.447.222-.973.333-1.576.333zm8.292-7.79v1.193h-4.172v-1.193zm-3.053-1.83h1.486v7.224c0 .288.044.505.13.651.086.143.197.24.333.293.139.05.29.075.452.075.12 0 .224-.008.313-.025.09-.016.16-.03.209-.04l.269 1.228c-.086.033-.209.067-.368.1-.159.036-.358.056-.597.059-.391.007-.755-.063-1.093-.208-.339-.146-.612-.372-.821-.677-.209-.304-.313-.687-.313-1.148zm9.534 6.299v-4.469h1.492v7.636h-1.462v-1.322h-.079c-.176.407-.458.747-.846 1.019-.384.268-.863.402-1.436.402-.491 0-.925-.107-1.303-.323-.374-.219-.669-.542-.885-.969-.212-.428-.318-.956-.318-1.586v-4.857h1.486v4.678c0 .52.145.935.433 1.243s.663.462 1.124.462c.278 0 .555-.069.83-.209.278-.139.509-.349.691-.631.185-.282.277-.64.273-1.074zm3.489 3.167v-7.636h1.437v1.213h.079c.14-.411.385-.734.736-.97.355-.238.756-.358 1.203-.358.093 0 .203.004.328.01.13.007.231.015.304.025v1.422c-.06-.017-.166-.035-.318-.055-.153-.023-.305-.035-.458-.035-.351 0-.664.075-.939.224-.272.146-.488.35-.647.612-.159.258-.238.553-.238.885v4.663zm8.391.154c-.752 0-1.4-.161-1.944-.482-.54-.325-.958-.781-1.253-1.367-.292-.59-.437-1.281-.437-2.074 0-.782.145-1.471.437-2.068.295-.596.706-1.062 1.233-1.397.53-.334 1.15-.502 1.859-.502.431 0 .849.071 1.253.214.405.142.768.366 1.089.671.322.305.575.701.761 1.188.185.484.278 1.073.278 1.765v.527h-6.07v-1.113h4.613c0-.392-.079-.738-.238-1.039-.159-.305-.383-.546-.671-.721-.285-.176-.62-.264-1.005-.264-.417 0-.782.103-1.093.308-.309.203-.547.468-.716.796-.166.325-.249.678-.249 1.059v.87c0 .51.09.944.269 1.302.182.358.435.632.76.821.325.185.705.278 1.139.278.282 0 .538-.04.77-.119.232-.083.433-.206.602-.368.169-.163.298-.363.388-.602l1.407.254c-.113.414-.315.777-.607 1.089-.288.308-.651.548-1.089.721-.434.169-.929.253-1.486.253z" fill="#fff"/><path clip-rule="evenodd" d="m51.7836 76.1227c-.4924 1.3124-1.313 2.4608-1.4771 2.4608l-3.6108 3.6092-7.2215-7.0543 7.0574-7.0542 3.6108 3.6091c1.1488.9843 2.1336 2.2968 1.6412 4.4294zm-18.2155 16.2411c-1.313-.4922-2.4618-1.3124-2.4618-1.4765l-3.6108-3.6091 7.0574-7.0543 7.0574 7.0543-3.6108 3.6091c-.9847.9843-2.4619 1.9686-4.4314 1.4765zm-16.2504-18.2097c.4924-1.3124 1.313-2.4608 1.4771-2.4608l3.6108-3.6091 7.0574 7.0542-7.0574 7.0543-3.7749-3.6092c-.9847-.9843-1.9695-2.4608-1.313-4.4294zm18.2199-16.2407c1.313.4921 2.4619 1.3124 2.4619 1.4765l3.6108 3.6091-7.0574 7.0542-7.0574-7.0542 3.6108-3.6091c.9847-.9844 2.2977-2.1327 4.4313-1.4765zm19.8578 8.6955-12.3094-12.3039c-.1641-.1641-2.1336-2.1327-5.0879-3.117-4.2673-1.4765-8.3704-.3281-11.817 3.117l-12.4736 12.3039c-.1641.164-2.1336 2.1327-3.1183 5.0856-1.47717 4.2654-.3283 8.3667 3.1183 11.8118l12.3095 12.3039c.1641.164 2.1336 2.1326 5.0878 3.1169 1.1489.3282 2.4619.6563 3.6108.6563 2.9543 0 5.7444-1.3125 8.2063-3.6092l12.3094-12.3039c.1641-.164 2.1336-2.1327 3.1184-5.0856 1.4771-4.2654.3282-8.5307-2.9543-11.9758z" fill="#fff" fill-rule="evenodd"/><path d="m359.65 58.2188 7.629 4.4046v8.8093l-7.629 4.4047-7.629-4.4047v-8.8093z" fill="#a3e9ff"/><path d="m349.867 61.3797 9.783-5.6481 9.782 5.6481v11.2961l-9.782 5.648-9.783-5.648z" stroke="#30aad1"/><path d="m349.867 61.3797 9.783-5.6481 9.782 5.6481v11.2961l-9.782 5.648-9.783-5.648z" stroke="#30aad1"/><path d="m349.867 61.3797 9.783-5.6481 9.782 5.6481v11.2961l-9.782 5.648-9.783-5.648z" stroke="#30aad1"/><path d="m347.877 60.2304 11.773-6.7971 11.773 6.7971v13.5941l-11.773 6.7971-11.773-6.7971z" stroke="#30aad1"/><path d="m347.877 60.2304 11.773-6.7971 11.773 6.7971v13.5941l-11.773 6.7971-11.773-6.7971z" stroke="#30aad1"/><path d="m347.877 60.2304 11.773-6.7971 11.773 6.7971v13.5941l-11.773 6.7971-11.773-6.7971z" stroke="#e5f2f7"/><path d="m349.867 61.3797 9.783-5.6481 9.782 5.6481v11.2961l-9.782 5.648-9.783-5.648z" stroke="#30aad1"/><path d="m349.867 61.3797 9.783-5.6481 9.782 5.6481v11.2961l-9.782 5.648-9.783-5.648z" stroke="#30aad1"/><path d="m349.867 61.3797 9.783-5.6481 9.782 5.6481v11.2961l-9.782 5.648-9.783-5.648z" stroke="#30aad1"/><path d="m520.324 54.4754c-1.087-.3235-2.12-.7749-3.079-1.3367l-.325.3247c-.785.7853-2.058.7853-2.844 0l-2.211-2.2118c-.786-.7853-.786-2.0585 0-2.8437l.324-.3247c-.562-.9597-1.013-1.9918-1.336-3.079h-.583c-1.111 0-2.011-.9003-2.011-2.0108v-4.0217c0-1.1105.9-2.0108 2.011-2.0108h.583c.323-1.0872.774-2.1193 1.336-3.079l-.324-.3246c-.786-.7853-.786-2.0585 0-2.8438l2.211-2.2118c.786-.7852 2.059-.7852 2.844 0l.325.3247c.959-.5617 1.992-1.0131 3.079-1.3367v-.5829c0-1.1105.9-2.0108 2.011-2.0108h4.021c1.111 0 2.011.9003 2.011 2.0108v.5829c1.087.3236 2.119.775 3.079 1.3367l.325-.3247c.785-.7852 2.058-.7852 2.843 0l2.212 2.2118c.785.7853.785 2.0585 0 2.8438l-.324.3246c.561.9597 1.013 1.9918 1.336 3.079h.583c1.111 0 2.011.9003 2.011 2.0108v4.0217c0 1.1105-.9 2.0108-2.011 2.0108h-.583c-.323 1.0872-.775 2.1193-1.336 3.079l.324.3247c.785.7852.785 2.0584 0 2.8437l-2.212 2.2118c-.785.7853-2.058.7853-2.843 0l-.325-.3247c-.96.5618-1.992 1.0132-3.079 1.3367v.5829c0 1.1106-.9 2.0108-2.011 2.0108h-4.021c-1.111 0-2.011-.9002-2.011-2.0108z" fill="#fff"/><path clip-rule="evenodd" d="m524.346 48.6428c4.23 0 7.66-3.4296 7.66-7.6603 0-4.2306-3.43-7.6602-7.66-7.6602-4.231 0-7.66 3.4296-7.66 7.6602 0 4.2307 3.429 7.6603 7.66 7.6603z" fill="#2d9cdb" fill-rule="evenodd"/><path d="m541.581 40.0996h27.577" stroke="#fff" stroke-dasharray="3 3" stroke-linejoin="bevel"/><path d="m481.065 40.2163h26.045" stroke="#fff" stroke-dasharray="3 3" stroke-linejoin="bevel"/><path d="m481.065 76.6025v-34.4712" stroke="#fff" stroke-dasharray="3 3" stroke-linejoin="bevel"/><path d="m569.158 76.6025v-34.4712" stroke="#fff" stroke-dasharray="3 3" stroke-linejoin="bevel"/><path d="m524.729 77.3687v-18.3847" stroke="#fff" stroke-dasharray="3 3" stroke-linejoin="bevel"/><g fill="#fff"><path clip-rule="evenodd" d="m472.549 83.9307c-.354.1637-.58.5179-.58.9075v10.3401c0 .3896.226.7438.58.9074l7.962 3.6864c.267.1234.574.1234.84 0l7.963-3.6864c.353-.1636.58-.5178.58-.9074v-10.3401c0-.3896-.227-.7438-.58-.9075l-7.963-3.6863c-.266-.1234-.573-.1234-.84 0zm1.049 1.9349 6.518 3.0149v8.8886l-6.518-3.0215zm14.666 8.882v-8.882l-6.518 3.0149v8.8886zm-7.333-12.8762 6.009 2.7817-6.009 2.7817-6.009-2.7817z" fill-rule="evenodd"/><path clip-rule="evenodd" d="m516.116 83.9312c-.353.1637-.579.5179-.579.9075v10.3401c0 .3896.226.7437.579.9074l7.963 3.6864c.267.1234.574.1234.84 0l7.963-3.6864c.353-.1637.58-.5178.58-.9074v-10.3401c0-.3896-.227-.7438-.58-.9075l-7.963-3.6863c-.266-.1234-.573-.1234-.84 0zm1.05 1.9349 6.518 3.0148v8.8887l-6.518-3.0215zm14.666 8.882v-8.882l-6.518 3.0148v8.8887zm-7.333-12.8762 6.009 2.7817-6.009 2.7817-6.009-2.7817z" fill-rule="evenodd"/><path clip-rule="evenodd" d="m560.929 83.9312c-.354.1637-.58.5179-.58.9075v10.3401c0 .3896.226.7437.58.9074l7.963 3.6864c.266.1234.573.1234.84 0l7.962-3.6864c.354-.1637.58-.5178.58-.9074v-10.3401c0-.3896-.226-.7438-.58-.9075l-7.962-3.6863c-.267-.1234-.574-.1234-.84 0zm1.05 1.9349 6.518 3.0148v8.8887l-6.518-3.0215zm14.666 8.882v-8.882l-6.519 3.0148v8.8887zm-7.333-12.8762 6.009 2.7817-6.009 2.7817-6.009-2.7817z" fill-rule="evenodd"/><path d="m438.521 73.126c.196-.1952.196-.5118 0-.7071l-3.182-3.182c-.195-.1952-.512-.1952-.707 0-.195.1953-.195.5119 0 .7071l2.829 2.8285-2.829 2.8284c-.195.1953-.195.5118 0 .7071s.512.1953.707 0zm-50.145.1465h49.792v-1h-49.792z"/><path d="m388.022 59.3964c-.195.1953-.195.5119 0 .7072l3.182 3.1819c.195.1953.512.1953.707 0 .196-.1952.196-.5118 0-.7071l-2.828-2.8284 2.828-2.8284c.196-.1953.196-.5119 0-.7071-.195-.1953-.512-.1953-.707 0zm50.145-.1464h-49.791v1h49.791z"/><path d="m67.8094 68.2055c-.1953.1953-.1953.5119 0 .7071l3.1819 3.182c.1953.1953.5119.1953.7071 0 .1953-.1952.1953-.5118 0-.7071l-2.8284-2.8284 2.8284-2.8284c.1953-.1953.1953-.5119 0-.7072-.1952-.1952-.5118-.1952-.7071 0zm273.0866-.1464h-272.7331v1h272.7331z"/></g><g clip-path="url(#aM)"><path d="m140.316 32.4357-14.089-8.2426c-.163-.1146-.355-.1833-.554-.1989-.199-.0157-.399.0222-.578.1098l-7.167 3.9812 16.315 23.5648 7.154-3.9685c.217-.1622.387-.3785.495-.6272.107-.2488.147-.5213.116-.7904l.047-10.4794c.004-1.2818-.772-2.7843-1.739-3.3488z" fill="url(#b)"/><path d="m133.03 51.5951-14.089-8.2256c-.967-.5602-1.738-2.0628-1.738-3.3531l.046-10.4836c0-1.2733.793-1.8802 1.756-1.3157l14.093 8.2256c.962.5602 1.739 2.067 1.734 3.3573l-.046 10.4794c-.005 1.2903-.793 1.8802-1.756 1.3157z" fill="url(#c)"/><path d="m140.316 32.3549-14.089-8.2214c-.163-.1161-.354-.1861-.553-.2025s-.399.0213-.579.1091l-7.167 3.9728 16.315 23.5563 7.154-3.9643c.216-.1603.386-.3743.494-.6207s.15-.5167.121-.7842l.047-10.4793c0-1.2988-.776-2.8013-1.743-3.3658z" fill="url(#d)"/><path d="m133.03 51.514-14.089-8.2213c-.967-.5645-1.738-2.0671-1.738-3.3573l.046-10.4794c0-1.2733.793-1.8803 1.756-1.32l14.093 8.2256c.962.5645 1.739 2.067 1.734 3.3573l-.046 10.4794c-.005 1.2903-.793 1.8802-1.756 1.3157z" fill="url(#e)"/><path d="m158.933 43.0767-14.092-8.2214c-.162-.1162-.353-.1862-.551-.2026-.199-.0165-.398.0213-.577.1092l-7.168 3.9685 16.311 23.5606 7.18-3.9643c.216-.1603.386-.3742.494-.6206.108-.2465.15-.5168.121-.7843l.042-10.4793c-.017-1.2988-.797-2.8013-1.76-3.3658z" fill="url(#f)"/><path d="m151.648 62.2357-14.089-8.2214c-.962-.5645-1.743-2.067-1.734-3.3573l.038-10.4793c0-1.2734.789-1.8803 1.756-1.32l14.088 8.2256c.967.5645 1.743 2.067 1.739 3.3573l-.047 10.4794c0 1.2903-.788 1.8972-1.751 1.3157z" fill="url(#g)"/><path d="m158.934 42.9956-14.093-8.2214c-.162-.1161-.352-.1861-.551-.2026-.199-.0164-.398.0213-.577.1093l-7.167 3.9685 16.311 23.5605 7.18-3.9642c.215-.1603.386-.3743.494-.6207.107-.2464.149-.5167.121-.7842l.042-10.4794c-.017-1.2988-.797-2.8013-1.76-3.3658z" fill="url(#h)"/><path d="m151.648 62.1547-14.089-8.2214c-.962-.5645-1.743-2.067-1.734-3.3573l.038-10.4794c0-1.2733.789-1.8803 1.756-1.32l14.088 8.2256c.967.5645 1.743 2.067 1.739 3.3573l-.047 10.4794c0 1.2903-.788 1.8803-1.751 1.3158z" fill="url(#i)"/><path d="m177.551 53.7002-14.092-8.2257c-.163-.1153-.353-.1848-.552-.2012-.198-.0164-.397.0208-.576.1079l-7.159 3.977 16.315 23.552 7.159-3.9642c.215-.1593.385-.3726.492-.6184.108-.2459.148-.5157.118-.7823l.047-10.4793c-.013-1.2988-.789-2.8013-1.752-3.3658z" fill="url(#j)"/><path d="m170.261 72.8593-14.088-8.2256c-.967-.5603-1.743-2.067-1.739-3.3573l.047-10.4794c0-1.2733.793-1.8803 1.76-1.3158l14.088 8.2426c.967.5645 1.743 2.067 1.739 3.3573l-.047 10.4794c-.008 1.2733-.793 1.8675-1.76 1.2988z" fill="url(#k)"/><path d="m177.551 53.6198-14.092-8.2044c-.163-.1146-.354-.1834-.552-.1991-.199-.0156-.398.0223-.576.11l-7.159 3.9727 16.315 23.5351 7.159-3.9685c.215-.1605.385-.3746.492-.6211.107-.2464.148-.5166.118-.7838l.047-10.4794c-.013-1.2945-.789-2.797-1.752-3.3615z" fill="url(#l)"/><path d="m170.261 72.7787-14.088-8.2256c-.967-.5602-1.743-2.0628-1.739-3.3573l.047-10.4794c0-1.2733.793-1.8802 1.76-1.3157l14.088 8.2256c.967.5602 1.743 2.0627 1.739 3.3573l-.047 10.4794c-.008 1.2903-.793 1.8802-1.76 1.3157z" fill="url(#m)"/><path d="m196.165 64.4003-14.076-8.2214c-.163-.1161-.354-.1861-.553-.2025s-.399.0213-.579.1091l-7.163 3.977 16.298 23.5521 7.159-3.9643c.373-.2164.61-.7003.615-1.4049l.046-10.4793c-.004-1.2988-.78-2.8013-1.747-3.3658z" fill="url(#n)"/><path d="m188.875 83.5595-14.084-8.2214c-.967-.5645-1.743-2.067-1.739-3.3573l.046-10.4794c0-1.2945.793-1.8845 1.756-1.32l14.093 8.2256c.963.5645 1.743 2.067 1.734 3.3573l-.046 10.4794c-.004 1.2903-.789 1.8803-1.76 1.3158z" fill="url(#o)"/><path d="m196.165 64.3197-14.075-8.2214c-.163-.1161-.354-.186-.554-.2025-.199-.0164-.399.0213-.579.1092l-7.18 3.9685 16.315 23.5605 7.159-3.9642c.373-.2122.611-.7003.615-1.4049l.047-10.4794c-.005-1.2988-.781-2.8013-1.748-3.3658z" fill="url(#p)"/><path d="m188.875 83.4789-14.088-8.2214c-.967-.5645-1.743-2.067-1.739-3.3573l.047-10.4794c0-1.2733.793-1.8802 1.755-1.32l14.097 8.2341c.963.5645 1.743 2.067 1.735 3.3573l-.047 10.4794c-.004 1.2818-.789 1.8675-1.76 1.3073z" fill="url(#q)"/><path d="m214.783 75.4525-14.088-8.2214c-.163-.1161-.354-.186-.554-.2024-.199-.0165-.399.0212-.579.1091l-7.163 3.977 16.307 23.5351 7.159-3.9643c.216-.1603.386-.3743.494-.6207s.149-.5167.121-.7842l.046-10.4794c0-1.2818-.776-2.7843-1.743-3.3488z" fill="url(#r)"/><path d="m207.497 94.6121-14.093-8.2213c-.962-.5645-1.738-2.067-1.734-3.3573l.047-10.4794c0-1.2733.793-1.8802 1.755-1.32l14.089 8.2256c.967.5645 1.743 2.067 1.739 3.3573l-.047 10.4794c-.021 1.2903-.793 1.8802-1.756 1.3157z" fill="url(#s)"/><path d="m214.783 75.3724-14.088-8.2213c-.163-.1161-.354-.1861-.554-.2025-.199-.0165-.399.0212-.579.1091l-7.163 3.977 16.311 23.5605 7.159-3.9642c.216-.1603.386-.3743.494-.6207s.149-.5167.121-.7842l.047-10.4794c-.005-1.3073-.781-2.8098-1.748-3.3743z" fill="url(#t)"/><path d="m207.497 94.5316-14.093-8.2214c-.962-.5645-1.738-2.067-1.734-3.3573l.047-10.4793c0-1.2734.793-1.8803 1.755-1.3201l14.089 8.2172c.967.5645 1.743 2.067 1.739 3.3573l-.047 10.4794c-.021 1.2987-.793 1.8887-1.756 1.3242z" fill="url(#u)"/><path d="m233.405 86.1611-14.093-8.2256c-.162-.1153-.353-.1848-.551-.2012-.199-.0165-.398.0208-.577.1078l-7.159 3.977 16.311 23.5609 7.159-3.965c.216-.159.386-.372.493-.618s.148-.516.118-.782l.046-10.4796c-.008-1.3115-.789-2.8183-1.747-3.3743z" fill="url(#v)"/><path d="m226.111 105.316-14.089-8.2253c-.962-.5645-1.743-2.067-1.734-3.3573l.042-10.4794c0-1.2733.793-1.8802 1.76-1.3157l14.106 8.2213c.966.5645 1.743 2.067 1.738 3.3573l-.042 10.4711c-.026 1.299-.814 1.889-1.781 1.328z" fill="url(#w)"/><path d="m233.405 86.0761-14.093-8.2256c-.162-.1153-.353-.1848-.551-.2012-.199-.0164-.398.0208-.577.1079l-7.159 3.9769 16.311 23.5609 7.159-3.965c.216-.159.386-.372.493-.618s.148-.516.118-.7822l.046-10.4794c-.008-1.3072-.789-2.8098-1.747-3.3743z" fill="url(#x)"/><path d="m226.111 105.235-14.089-8.2253c-.962-.5603-1.743-2.0671-1.734-3.3574l.042-10.4793c0-1.2733.793-1.8803 1.76-1.3158l14.106 8.2214c.966.5645 1.743 2.067 1.738 3.3573l-.042 10.4791c-.026 1.295-.814 1.885-1.781 1.32z" fill="url(#y)"/><path d="m177.912 37.2445-14.089-8.2256c-.163-.1153-.354-.1847-.553-.2012-.199-.0164-.399.0208-.579.1078l-7.167 3.9685 16.315 23.5563 7.154-3.9685c.216-.1606.386-.3746.494-.6209.108-.2464.15-.5165.121-.784l.047-10.4794c0-1.286-.776-2.7885-1.743-3.353z" fill="url(#z)"/><path d="m170.638 56.4042-14.101-8.2256c-.967-.5603-1.743-2.067-1.739-3.3573l.047-10.4794c0-1.2733.793-1.8803 1.756-1.3157l14.092 8.2256c.963.5602 1.739 2.0627 1.735 3.3573l-.047 10.4793c-.004 1.2903-.793 1.8803-1.743 1.3158z" fill="url(#A)"/><path d="m177.912 37.1643-14.089-8.2256c-.163-.1146-.354-.1832-.554-.1989-.199-.0157-.398.0222-.578.1098l-7.167 3.9642 16.315 23.5649 7.154-3.9685c.216-.1607.386-.3747.494-.621s.15-.5165.121-.7839l.047-10.4794c0-1.2946-.776-2.7971-1.743-3.3616z" fill="url(#B)"/><path d="m170.638 56.3237-14.101-8.2257c-.967-.5602-1.743-2.0627-1.739-3.353l.047-10.4837c0-1.2733.793-1.8802 1.756-1.3157l14.092 8.2256c.963.5603 1.739 2.067 1.735 3.3573l-.047 10.4794c-.004 1.2903-.793 1.8675-1.743 1.3158z" fill="url(#C)"/><path d="m196.53 47.9622-14.088-8.2384c-.163-.1161-.354-.186-.554-.2025-.199-.0164-.399.0213-.579.1091l-7.163 3.977 16.311 23.5606 7.159-3.9642c.216-.1604.386-.3743.494-.6207s.15-.5168.121-.7842l.042-10.4794c0-1.3073-.78-2.8098-1.743-3.3573z" fill="url(#D)"/><path d="m189.244 67.1039-14.093-8.2214c-.963-.5645-1.743-2.067-1.734-3.3573l.046-10.4794c0-1.2733.789-1.8802 1.756-1.32l14.08 8.2256c.967.5645 1.743 2.067 1.739 3.3573l-.043 10.4794c0 1.2733-.788 1.8803-1.751 1.3158z" fill="url(#E)"/><path d="m196.53 47.8679-14.089-8.2256c-.163-.1161-.354-.1861-.553-.2025s-.399.0213-.579.1091l-7.163 3.977 16.307 23.5351 7.158-3.9643c.216-.1596.386-.3728.494-.6185s.149-.5153.121-.7821l.043-10.4836c.004-1.2818-.776-2.7843-1.739-3.3446z" fill="url(#F)"/><path d="m189.244 67.0271-14.093-8.2256c-.963-.5645-1.743-2.0671-1.734-3.3573l.046-10.4794c0-1.2734.789-1.8803 1.756-1.32l14.08 8.2256c.967.5645 1.743 2.067 1.739 3.3573l-.043 10.4794c0 1.2903-.788 1.8802-1.751 1.32z" fill="url(#G)"/><g opacity=".4"><path d="m215.169 58.9971-14.093-8.2214c-.162-.1161-.353-.1862-.551-.2026-.199-.0165-.398.0213-.577.1092l-7.159 3.977 16.311 23.5606 7.159-3.9643c.215-.1602.385-.3743.492-.6208.108-.2465.148-.5169.118-.7841l.047-10.4793c-.03-1.3073-.806-2.8098-1.747-3.3743z" fill="url(#I)" opacity=".4"/><path d="m207.857 78.1566-14.088-8.2214c-.967-.5645-1.743-2.067-1.739-3.3573l.046-10.4793c0-1.2734.794-1.8803 1.76-1.3201l14.089 8.2257c.967.5645 1.743 2.067 1.739 3.3573l-.047 10.4624c-.008 1.3072-.81 1.8972-1.76 1.3327z" fill="url(#K)" opacity=".4"/><g opacity=".4"><path d="m215.169 58.9208-14.093-8.2257c-.162-.1161-.353-.1861-.551-.2026-.199-.0164-.398.0213-.577.1093l-7.159 3.9769 16.311 23.5606 7.159-3.9642c.215-.1596.385-.3729.492-.6187s.148-.5154.118-.782l.047-10.4794c-.03-1.3115-.806-2.814-1.747-3.3742z" fill="url(#L)" opacity=".4"/><path d="m207.857 78.0964-14.088-8.2256c-.967-.5645-1.743-2.067-1.739-3.3573l.046-10.4794c0-1.2733.794-1.8803 1.76-1.32l14.089 8.2256c.967.5645 1.743 2.067 1.739 3.3573l-.047 10.4794c-.008 1.2733-.81 1.8633-1.76 1.32z" fill="url(#M)" opacity=".4"/></g></g><g opacity=".5"><path d="m215.169 58.9975-14.093-8.2257c-.163-.1146-.354-.1833-.552-.199s-.397.0223-.576.1099l-7.159 3.9728 16.311 23.5648 7.129-3.9431c.215-.1605.385-.3746.492-.621.107-.2465.148-.5167.119-.7838l.025-10.4794c.021-1.3115-.755-2.8141-1.696-3.3955z" fill="url(#N)" opacity=".5"/><path d="m207.857 78.1733-14.088-8.2257c-.967-.5602-1.743-2.0627-1.739-3.353l.046-10.4836c0-1.2734.794-1.8803 1.76-1.3158l14.089 8.2256c.967.5603 1.743 2.067 1.739 3.3573l-.047 10.4794c-.008 1.2903-.81 1.8803-1.76 1.3158z" fill="url(#O)" opacity=".5"/><g opacity=".5"><path d="m215.169 58.9336-14.093-8.2214c-.162-.1161-.353-.1861-.551-.2026-.199-.0164-.398.0213-.577.1093l-7.159 3.9769 16.311 23.5606 7.159-3.9642c.215-.1602.385-.3743.492-.6208.108-.2466.148-.5169.118-.7841l.047-10.4794c-.03-1.3073-.806-2.8098-1.747-3.3743z" fill="url(#P)" opacity=".5"/><path d="m207.857 78.0972-14.088-8.2214c-.967-.5645-1.743-2.067-1.739-3.3573l.046-10.4794c0-1.2945.794-1.8802 1.76-1.32l14.089 8.2257c.967.5645 1.743 2.067 1.739 3.3573l-.047 10.4793c-.008 1.2861-.81 1.8761-1.76 1.3158z" fill="url(#Q)" opacity=".5"/></g></g><path d="m233.761 69.7015-14.088-8.2256c-.164-.1153-.355-.1847-.554-.2011s-.399.0208-.579.1077l-7.167 3.9813 16.315 23.5605 7.159-3.9642c.373-.2122.61-.6961.615-1.4007l.046-10.4794c.017-1.3115-.78-2.814-1.747-3.3785z" fill="url(#R)"/><path d="m226.475 88.861-14.088-8.2171c-.967-.5645-1.743-2.067-1.739-3.3573l.047-10.4794c0-1.2733.793-1.8802 1.755-1.3157l14.093 8.2213c.963.5646 1.743 2.0671 1.735 3.3574l-.047 10.4793c-.004 1.2861-.789 1.876-1.756 1.3115z" fill="url(#S)"/><path d="m233.761 69.6083-14.088-8.2257c-.163-.1152-.355-.1847-.554-.2011s-.399.0208-.579.1078l-7.163 3.9727 16.315 23.5648 7.155-3.9388c.373-.2164.611-.7003.615-1.4049l.047-10.4793c.016-1.3158-.781-2.8183-1.748-3.3955z" fill="url(#T)"/><path d="m226.475 88.7802-14.088-8.2256c-.967-.5603-1.743-2.067-1.739-3.3573l.047-10.4794c0-1.2733.793-1.8803 1.755-1.3158l14.093 8.2256c.963.5603 1.743 2.0628 1.735 3.3573l-.047 10.4794c-.004 1.2903-.789 1.8803-1.756 1.3158z" fill="url(#U)"/><path d="m196.733 31.1155-14.088-8.2256c-.164-.1146-.355-.1833-.554-.1989-.199-.0157-.399.0222-.578.1098l-7.163 3.9727 16.31 23.5648 7.159-3.9685c.216-.1606.386-.3746.493-.6209.108-.2464.15-.5165.122-.784l.042-10.4794c0-1.303-.78-2.8055-1.743-3.37z" fill="url(#V)"/><path d="m189.447 50.2748-14.092-8.2256c-.963-.5603-1.743-2.0628-1.735-3.3573l.047-10.4794c0-1.2733.793-1.8802 1.756-1.3157l14.088 8.2256c.967.5602 1.743 2.0627 1.739 3.3573l-.047 10.4794c-.004 1.2902-.793 1.8802-1.756 1.3157z" fill="url(#W)"/><path d="m196.733 31.0354-14.088-8.2256c-.164-.1146-.355-.1833-.554-.1989-.199-.0157-.399.0222-.578.1098l-7.163 3.9727 16.31 23.5648 7.155-3.9939c.215-.1606.385-.3746.493-.621.108-.2463.15-.5165.122-.7839l.042-10.4794c.004-1.2733-.776-2.7801-1.739-3.3446z" fill="url(#X)"/><path d="m189.447 50.195-14.092-8.2213c-.963-.5645-1.748-2.0755-1.748-3.3488l.047-10.4837c0-1.2733.793-1.8802 1.756-1.3157l14.101 8.2171c.967.5602 1.743 2.067 1.739 3.3573l-.047 10.4794c-.004 1.2903-.793 1.8802-1.756 1.3157z" fill="url(#Y)"/><path d="m215.351 42.1678-14.092-8.2129c-.163-.1146-.354-.1833-.552-.199-.199-.0157-.398.0223-.576.1099l-7.168 3.9515 16.311 23.5648 7.167-3.9684c.216-.1606.385-.3747.493-.6211.107-.2465.148-.5167.118-.7838l.047-10.4794c-.005-1.2946-.785-2.7971-1.748-3.3616z" fill="url(#Z)"/><path d="m208.061 61.3271-14.097-8.2256c-.963-.5603-1.743-2.0628-1.739-3.3574l.043-10.4793c0-1.2734.793-1.8803 1.76-1.3158l14.088 8.2256c.967.5603 1.743 2.0628 1.739 3.3573l-.047 10.4794c.004 1.2903-.78 1.8803-1.747 1.3158z" fill="url(#aa)"/><path d="m215.351 42.0879-14.092-8.2214c-.163-.1161-.353-.1861-.552-.2026-.198-.0164-.398.0213-.577.1093l-7.158 3.9769 16.31 23.5606 7.159-3.9727c.216-.1606.385-.3747.492-.6211.108-.2465.148-.5167.119-.7838l.047-10.4794c-.005-1.3115-.785-2.8013-1.748-3.3658z" fill="url(#ab)"/><path d="m208.061 61.2473-14.097-8.2214c-.963-.5645-1.743-2.067-1.739-3.3573l.043-10.4794c0-1.2733.793-1.8845 1.76-1.32l14.101 8.2256c.967.5645 1.743 2.067 1.739 3.3573l-.047 10.4794c-.009 1.2903-.793 1.8803-1.76 1.3158z" fill="url(#ac)"/><g opacity=".4"><path d="m233.965 52.8682-14.089-8.2214c-.162-.1162-.352-.1862-.551-.2026-.199-.0165-.398.0213-.577.1092l-7.163 3.977 16.306 23.5521 7.159-3.9642c.373-.2123.611-.7004.615-1.4049l.047-10.4794c-.004-1.2988-.781-2.8013-1.747-3.3658z" fill="url(#ad)" opacity=".4"/><path d="m226.679 72.0277-14.089-8.2214c-.967-.5645-1.743-2.067-1.738-3.3573l.046-10.4794c0-1.2733.793-1.8802 1.756-1.32l14.093 8.2257c.962.5645 1.743 2.067 1.734 3.3573l-.042 10.4794c-.009 1.2902-.793 1.8675-1.76 1.3157z" fill="url(#ae)" opacity=".4"/><g opacity=".4"><path d="m233.965 52.792-14.089-8.2257c-.162-.1153-.353-.1848-.551-.2012-.199-.0164-.398.0208-.577.1079l-7.163 3.977 16.306 23.552 7.159-3.9642c.373-.2122.611-.6961.615-1.4007l.047-10.4793c-.004-1.3031-.781-2.8056-1.747-3.3658z" fill="url(#af)" opacity=".4"/><path d="m226.679 71.9511-14.089-8.2256c-.967-.5645-1.743-2.067-1.738-3.3573l.046-10.4794c0-1.2733.793-1.8803 1.756-1.3158l14.093 8.2214c.962.5645 1.743 2.067 1.734 3.3573l-.042 10.4794c-.009 1.2903-.793 1.8803-1.76 1.32z" fill="url(#ag)" opacity=".4"/></g></g><path d="m233.965 52.8853-14.089-8.2214c-.162-.1162-.352-.1862-.551-.2026-.199-.0165-.398.0213-.577.1092l-7.163 3.9728 16.306 23.5563 7.159-3.9685c.373-.2165.611-.7003.615-1.4049l.047-10.4794c-.004-1.2945-.781-2.797-1.747-3.3615z" fill="url(#ah)" opacity=".5"/><path d="m226.679 72.0446-14.089-8.2213c-.967-.5645-1.743-2.067-1.738-3.3573l.046-10.4794c0-1.2733.793-1.8845 1.756-1.32l14.093 8.2086c.962.5603 1.743 2.067 1.734 3.3573l-.042 10.4794c-.009 1.3073-.793 1.8972-1.76 1.3327z" fill="url(#ai)" opacity=".5"/><g opacity=".5"><path d="m233.965 52.8046-14.089-8.2384c-.162-.1161-.352-.1861-.551-.2026-.199-.0164-.398.0213-.577.1093l-7.163 3.9769 16.306 23.5691 7.159-3.9642c.373-.2123.611-.7004.615-1.4049l.047-10.4794c-.004-1.2988-.781-2.8013-1.747-3.3658z" fill="url(#aj)" opacity=".5"/><path d="m226.679 71.9633-14.089-8.2214c-.967-.5645-1.743-2.067-1.738-3.3573l.046-10.4794c0-1.2733.793-1.8803 1.756-1.32l14.093 8.2256c.962.5645 1.743 2.067 1.734 3.3573l-.042 10.4794c-.009 1.2903-.793 1.8803-1.76 1.3158z" fill="url(#ak)" opacity=".5"/></g><path d="m215.555 25.3432-14.093-8.2256c-.162-.1153-.353-.1848-.551-.2012-.199-.0164-.398.0208-.577.1078l-7.163 3.977 16.306 23.5648 7.159-3.9642c.216-.1593.386-.3726.493-.6184.107-.2459.148-.5157.118-.7823l.042-10.5006c0-1.2945-.772-2.8097-1.734-3.3573z" fill="url(#al)"/><path d="m208.265 44.5024-14.089-8.2257c-.963-.5645-1.743-2.067-1.735-3.3573l.043-10.4793c0-1.2734.793-1.8803 1.76-1.3158l14.088 8.2214c.967.5645 1.743 2.067 1.739 3.3573l-.046 10.4794c-.005 1.2902-.794 1.8802-1.76 1.32z" fill="url(#am)"/><path d="m215.555 25.2632-14.093-8.2257c-.162-.1153-.353-.1848-.551-.2012-.199-.0164-.398.0208-.577.1079l-7.163 3.9769 16.311 23.5606 7.158-3.9642c.216-.1593.386-.3726.493-.6185.107-.2458.148-.5156.118-.7822l.038-10.4963c0-1.2903-.772-2.7971-1.734-3.3573z" fill="url(#an)"/><path d="m208.265 44.4223-14.089-8.2256c-.963-.5645-1.743-2.067-1.735-3.3573l.043-10.4794c0-1.2733.793-1.8803 1.76-1.3158l14.088 8.2426c.967.5645 1.743 2.067 1.739 3.3573l-.046 10.4794c-.005 1.2733-.794 1.8675-1.76 1.2988z" fill="url(#ao)"/><path d="m234.169 36.0434-14.089-8.2257c-.163-.1146-.353-.1833-.552-.199-.198-.0157-.397.0223-.576.1099l-7.176 3.9643 16.315 23.5648 7.159-3.9685c.215-.1611.384-.3753.491-.6216s.148-.5163.12-.7833l.046-10.4794c.005-1.2945-.771-2.797-1.738-3.3615z" fill="url(#ap)"/><path d="m226.882 55.203-14.088-8.2256c-.967-.5602-1.743-2.0627-1.739-3.3573l.047-10.4794c0-1.2733.793-1.8802 1.76-1.3157l14.088 8.2256c.963.5603 1.743 2.0628 1.735 3.3573l-.043 10.4794c-.008 1.2903-.793 1.8802-1.76 1.3157z" fill="url(#aq)"/><path d="m234.169 35.9628-14.089-8.2256c-.163-.1147-.353-.1834-.552-.1991-.198-.0157-.397.0223-.576.1099l-7.176 3.9643 16.32 23.5648 7.158-3.9685c.215-.1611.384-.3753.491-.6216s.149-.5162.12-.7833l.047-10.4794c0-1.2945-.776-2.797-1.743-3.3615z" fill="url(#ar)"/><path d="m226.882 55.122-14.088-8.2214c-.967-.5645-1.743-2.067-1.739-3.3573l.047-10.4836c0-1.2733.793-1.8803 1.76-1.3158l14.088 8.2256c.963.5603 1.743 2.0671 1.735 3.3574l-.043 10.4793c-.008 1.2903-.793 1.8803-1.76 1.3158z" fill="url(#as)"/><path d="m215.759 8.51026-14.093-8.221367c-.162-.116154-.353-.186176-.551-.202618-.199-.0164423-.398.02131-.577.109241l-7.167 3.968494 16.31 23.56059 7.159-3.9558c.216-.1606.386-.3746.493-.6209.108-.2464.15-.5165.122-.784l.042-10.4794c.005-1.3072-.776-2.80974-1.738-3.37424z" fill="url(#at)"/><path d="m208.472 27.6703-14.084-8.2214c-.963-.5645-1.743-2.067-1.735-3.3573l.039-10.47936c0-1.29453.788-1.8845 1.755-1.32l14.089 8.22566c.967.5645 1.743 2.067 1.739 3.3573l-.047 10.4793c-.004 1.2903-.793 1.8803-1.756 1.3158z" fill="url(#au)"/><path d="m215.758 8.42969-14.093-8.221364c-.162-.1161531-.352-.1861751-.551-.20261737-.198-.01644233-.398.02131007-.577.10924137l-7.167 3.9685 16.311 23.56055 7.159-3.9642c.215-.1604.386-.3743.494-.6207.107-.2464.149-.5167.121-.7842l.042-10.4794c.004-1.2988-.776-2.8013-1.739-3.36581z" fill="url(#av)"/><path d="m208.472 27.5888-14.084-8.2214c-.963-.5645-1.743-2.067-1.735-3.3573l.039-10.49211c0-1.27332.788-1.88026 1.755-1.32001l14.089 8.23832c.967.5645 1.743 2.067 1.739 3.3573l-.047 10.4794c-.004 1.2903-.793 1.8803-1.756 1.3158z" fill="#56ccf2"/><path d="m252.014 97.0605-14.088-8.2213c-.162-.1162-.353-.1862-.551-.2026-.199-.0165-.398.0213-.577.1092l-7.163 3.977 16.306 23.5732 7.159-3.964c.373-.217.611-.7.615-1.405l.047-10.479c0-1.3204-.781-2.8272-1.748-3.3875z" fill="url(#aw)"/><path d="m244.729 116.22-14.089-8.221c-.967-.565-1.743-2.067-1.739-3.358l.047-10.4791c0-1.2733.793-1.8845 1.76-1.32l14.088 8.2251c.963.565 1.756 2.072 1.756 3.345l-.042 10.479c-.03 1.303-.806 1.893-1.781 1.329z" fill="url(#ax)"/><path d="m252.014 96.98-14.088-8.2214c-.162-.1161-.353-.1862-.551-.2026-.199-.0164-.398.0213-.577.1092l-7.163 3.977 16.315 23.5608 7.158-3.964c.374-.213.611-.701.615-1.405l.039-10.497c0-1.29-.781-2.7925-1.748-3.357z" fill="url(#ay)"/><path d="m244.729 116.139-14.089-8.221c-.967-.565-1.743-2.067-1.739-3.358l.047-10.479c0-1.2733.793-1.8803 1.76-1.32l14.088 8.226c.963.564 1.744 2.067 1.735 3.357l-.042 10.479c-.009 1.291-.785 1.898-1.76 1.316z" fill="url(#az)"/><path d="m252.379 80.6053-14.088-8.2213c-.163-.1161-.354-.1861-.554-.2025-.199-.0164-.399.0213-.579.1091l-7.146 3.9685 16.311 23.5606 7.159-3.9643c.216-.1603.386-.3743.494-.6207s.149-.5167.121-.7842l.046-10.4794c-.021-1.2987-.806-2.8012-1.764-3.3658z" fill="url(#aA)"/><path d="m245.093 99.7645-14.093-8.2214c-.963-.5645-1.739-2.067-1.734-3.3573l.046-10.4793c0-1.2734.793-1.8803 1.756-1.32l14.089 8.2256c.966.5645 1.743 2.067 1.738 3.3573l-.046 10.5006c-.005 1.2733-.793 1.859-1.756 1.2945z" fill="url(#aB)"/><path d="m252.379 80.529-14.088-8.2256c-.163-.1161-.354-.186-.554-.2025-.199-.0164-.399.0213-.579.1091l-7.146 3.9685 16.29 23.5648 7.158-3.9642c.216-.1597.386-.3729.494-.6185.108-.2457.15-.5153.121-.7822l.047-10.4836c0-1.303-.785-2.8055-1.743-3.3658z" fill="url(#aC)"/><path d="m245.093 99.6882-14.093-8.2256c-.963-.5645-1.739-2.067-1.734-3.3573l.046-10.4794c0-1.2733.793-1.8803 1.756-1.32l14.089 8.2256c.966.5645 1.743 2.067 1.738 3.3573l-.046 10.4794c-.005 1.2903-.793 1.8798-1.756 1.32z" fill="url(#aD)"/><g opacity=".4"><path d="m252.583 63.7761-14.089-8.2256c-.163-.1145-.355-.1832-.554-.1989s-.398.0222-.578.1098l-7.167 3.96 16.311 23.5648 7.158-3.9685c.216-.1606.386-.3746.494-.6209s.149-.5165.121-.784l.047-10.4793c0-1.2903-.776-2.7929-1.743-3.3574z" fill="url(#aE)" opacity=".4"/><path d="m245.28 82.9352-14.076-8.2341c-.962-.5603-1.738-2.0628-1.734-3.3573l.046-10.4794c0-1.2733.793-1.8803 1.756-1.3158l14.093 8.2341c.963.5603 1.739 2.0628 1.734 3.3573l-.046 10.4794c-.004 1.2903-.793 1.8803-1.773 1.3158z" fill="url(#aF)" opacity=".4"/><g opacity=".4"><path d="m252.583 63.6956-14.088-8.2256c-.164-.1146-.355-.1833-.554-.199-.2-.0156-.399.0223-.579.1098l-7.163 3.9728 16.311 23.5648 7.154-3.9727c.216-.1607.386-.3746.494-.621.108-.2463.15-.5165.121-.7839l.047-10.4794c0-1.2988-.776-2.8013-1.743-3.3658z" fill="url(#aG)" opacity=".4"/><path d="m245.28 82.8549-14.093-8.2214c-.962-.5645-1.739-2.067-1.734-3.3573l.046-10.4836c0-1.2733.793-1.8803 1.756-1.3158l14.093 8.2256c.963.5603 1.739 2.0671 1.734 3.3574l-.046 10.4793c.012 1.2903-.776 1.8803-1.756 1.3158z" fill="url(#aH)" opacity=".4"/></g></g><g opacity=".5"><path d="m252.583 63.7933-14.088-8.2256c-.164-.1153-.355-.1847-.554-.2011s-.399.0208-.579.1077l-7.163 3.977 16.311 23.5606 7.159-3.9643c.216-.1593.386-.3725.494-.6183.108-.2457.149-.5154.121-.7823l.046-10.4794c-.004-1.3073-.78-2.814-1.747-3.3743z" fill="url(#aI)" opacity=".5"/><path d="m245.28 82.9525-14.093-8.2256c-.962-.5645-1.739-2.067-1.734-3.3573l.046-10.4793c0-1.2734.793-1.8803 1.756-1.3158l14.093 8.2214c.963.5645 1.739 2.067 1.734 3.3573l-.046 10.4793c.012 1.2903-.776 1.8803-1.756 1.32z" fill="url(#aJ)" opacity=".5"/><g opacity=".5"><path d="m252.583 63.7127-14.088-8.2256c-.164-.1152-.355-.1847-.554-.2011s-.399.0208-.579.1078l-7.163 3.9769 16.311 23.5649 7.154-3.9898c.216-.1593.387-.3725.495-.6182.107-.2458.149-.5155.12-.7824l.047-10.4794c0-1.2776-.776-2.7885-1.743-3.3531z" fill="url(#aK)" opacity=".5"/><path d="m245.28 82.872-14.093-8.2256c-.962-.5603-1.739-2.067-1.734-3.3573l.046-10.4794c0-1.2733.793-1.8803 1.756-1.3158l14.093 8.2214c.963.5645 1.739 2.067 1.734 3.3573l-.046 10.4794c.012 1.2945-.776 1.8845-1.756 1.32z" fill="url(#aL)" opacity=".5"/></g></g></g></svg>