<svg fill="none" height="200" viewBox="0 0 326 200" width="326" xmlns="http://www.w3.org/2000/svg" xmlns:xlink="http://www.w3.org/1999/xlink"><clipPath id="a"><path d="m183 97h52v52h-52z"/></clipPath><g clip-path="url(#a)"><path d="m217.06 143.142h-15.86c-.31.002-.616-.066-.895-.2-.279-.133-.525-.329-.717-.571l-10.071-12.602c-.197-.247-.336-.537-.403-.847-.068-.31-.063-.631.013-.938l3.831-15.427c.074-.289.209-.56.396-.793.186-.233.421-.424.687-.559l14.196-7.115c.286-.141.6-.215.919-.215s.633.074.919.215l14.378 7.124c.272.132.512.324.701.561s.323.513.391.808l3.657 15.427c.067.3.066.612-.003.912s-.204.58-.396.821l-10.14 12.636c-.193.239-.437.432-.715.564-.277.132-.581.2-.888.199zm-15.86-2.123h15.825l10.097-12.558-3.64-15.366-14.317-7.09-14.144 7.09-3.822 15.374z" fill="#238fcf"/><path d="m227.391 108.37 1.802-1.482-18.971-9.3948v2.3746z" fill="#1bbfd3"/><path d="m185.773 130.443-2.314.512 13.234 16.605 1.04-2.106z" fill="#79bf43"/><path d="m208.09 99.8766v-2.3746l-18.72 9.386 1.751 1.508z" fill="#1bbfd3"/><path d="m189.855 110.113-1.802-1.551-5.053 20.314 2.323-.511z" fill="#1d4489"/><path d="m233.015 128.374 2.314.511-4.81-20.323-1.837 1.508z" fill="#1d4489"/><path d="m232.539 130.443-12.09 15.037 1.031 2.106 13.373-16.631z" fill="#79bf43"/><path d="m199.649 146.372-1.04 2.132h20.947l-1.04-2.132z" fill="#1bbfd3"/></g><path d="m86.9709 136.473c-10.2352-1.969-17.0197 6.741-22.6746 14.362-7.9029 6.542-6.1568 10.487-5.5595 11.795 3.8379 8.404 8.8173 23.282 22.3207 25.073 7.9868 1.06 22.5535-10.934 27.0865-19.637 3.641-6.991-5.773-16.419-7.704-19.691-4.4775-7.588-7.0597-10.669-13.4691-11.902z" fill="#fff"/><g clip-rule="evenodd" fill-rule="evenodd"><path d="m74.8982 137.477c2.0743-2.074 8.3809-.594 11.2192 2.244 4.4877 4.488 16.8286 20.195 16.8286 23.561 0 3.365-1.643 7.252-5.6094 11.219-4.4877 4.488-14.585 11.219-16.8288 12.341-2.2439 1.122-4.4877 1.122-11.2192-7.853-6.7316-8.976-12.3412-17.951-11.2193-20.195.8976-1.795 10.0973-14.585 16.8289-21.317zm-2.681 12.341 5.6096 7.854 6.7315-6.732c-1.1219-2.243-3.8145-6.731-5.6096-6.731-1.795 0-5.2356 3.74-6.7315 5.609zm10.0973 13.464 7.8535-6.732c1.4958 1.87 4.4876 5.834 4.4876 6.732.0001 2.705-2.1748 4.686-4.1935 6.524-.4926.449-.9759.889-1.416 1.329zm1.1219 12.341-5.6096-7.854-6.7315 5.61c.1541.308.3083.638.4682.979l.0001.001h.0001c1.0043 2.146 2.2381 4.784 5.1412 5.751 1.703.568 5.9836-2.991 6.7315-4.487zm-10.0973-13.463-5.6096-7.854c-.0796.084-.1633.171-.2504.263h-.0002c-1.8573 1.942-5.2584 5.498-3.1151 8.713l.0012.001c1.2079 1.812 2.2429 3.365 3.3645 4.486z" fill="#fcfeff" opacity=".5"/><path d="m85.3683 140.521c-4.3888-4.389-9.5003-3.149-11.5364-1.113-3.4888 3.488-11.0791 13.297-13.2941 16.619-2.4581 3.687-1.0687 7.317.0311 9.517l-.3151.157.3151-.157c1.2834 2.566 3.6056 6.273 5.8382 9.571 2.2417 3.311 4.3483 6.144 5.1986 6.994.3106.311.6386.662.9662 1.012.2506.268.501.536.7432.785.5831.6 1.1837 1.165 1.8412 1.626 1.2936.905 2.8164 1.414 4.8789.898 1.0314-.258 2.3996-.95 3.9782-1.958 1.5683-1.002 3.3066-2.291 5.0705-3.709 3.5275-2.835 7.1314-6.162 9.6408-8.671 2.6703-2.67 3.1793-5.299 2.9183-7.518-.237-2.012-1.105-3.707-1.695-4.86-.0727-.142-.1413-.276-.2039-.401-.2295-.459-.9569-1.581-2.0182-3.109-1.0515-1.514-2.4082-3.395-3.8735-5.353-2.9369-3.926-6.2863-8.132-8.4841-10.33zm-12.2435-1.82c2.4162-2.417 8.1609-3.677 12.9506 1.113 2.2543 2.254 5.6419 6.513 8.5778 10.437 1.4711 1.967 2.8348 3.857 3.894 5.382 1.0494 1.511 1.8228 2.696 2.0918 3.232.058.118.125.247.196.387.588 1.145 1.542 3.002 1.801 5.205.295 2.511-.309 5.447-3.2042 8.342-2.5301 2.53-6.161 5.882-9.7214 8.743-1.7801 1.431-3.5491 2.745-5.1586 3.773-1.5992 1.021-3.0793 1.787-4.274 2.085-2.3897.598-4.206-.007-5.695-1.049-.7338-.514-1.3855-1.131-1.985-1.748-.278-.287-.5337-.56-.7816-.826-.3082-.33-.6046-.647-.9176-.96-.9306-.931-3.0907-3.849-5.3196-7.142-2.2382-3.306-4.5907-7.057-5.9045-9.684-1.1263-2.253-2.7494-6.347.0312-10.518 2.2371-3.356 9.8683-13.222 13.4191-16.772z" fill="#000"/><path d="m92.3861 139.181c-4.3964-4.396-9.067-3.588-12.1316-2.976-2.7166.544-4.3095 1.349-5.6292 2.405-.6682.535-1.2754 1.141-1.9324 1.832-.1884.198-.3816.405-.5813.618-.4909.523-1.0215 1.089-1.619 1.687l-.7071-.707c.5854-.586 1.0981-1.133 1.5849-1.652.2025-.216.4005-.427.5975-.635.6647-.699 1.3097-1.345 2.0327-1.924 1.463-1.17 3.2093-2.034 6.0578-2.604 3.1096-.622 8.2528-1.533 13.0348 3.249 2.2543 2.254 5.642 6.514 8.5778 10.438 1.471 1.966 2.835 3.857 3.894 5.382 1.049 1.511 1.823 2.695 2.091 3.232.059.118.126.247.197.386.588 1.146 1.541 3.002 1.801 5.205.295 2.511-.309 5.447-3.204 8.343-2.52 2.519-6.233 6.204-9.8751 9.399-1.821 1.597-3.632 3.079-5.2732 4.234-1.6274 1.145-3.1369 2.005-4.3457 2.307-4.4816 1.121-7.9703 1.158-10.3623-.038l.4473-.894c2.0602 1.03 5.2497 1.068 9.6725-.038 1.0173-.254 2.3986-1.019 4.0127-2.155 1.6002-1.126 3.3814-2.582 5.1893-4.168 3.6152-3.171 7.3075-6.835 9.8275-9.355 2.67-2.67 3.179-5.298 2.917-7.518-.236-2.011-1.104-3.706-1.694-4.86-.073-.142-.141-.276-.204-.401-.23-.459-.957-1.581-2.018-3.109-1.052-1.514-2.408-3.394-3.874-5.353-2.9367-3.926-6.286-8.132-8.4839-10.33z" fill="#000"/><path d="m77.1895 144.807c.611-.388 1.26-.687 1.8541-.687.6355 0 1.2551.384 1.793.854.5568.486 1.117 1.144 1.6419 1.853 1.0517 1.421 2.0124 3.118 2.5775 4.248l.1612.322-7.3505 7.351-6.1281-8.58.2363-.295c.7532-.942 1.9949-2.353 3.2799-3.534.6419-.59 1.3063-1.133 1.9347-1.532zm-4.1959 5.398 5.0007 7.001 6.0041-6.004c-.5592-1.08-1.4103-2.546-2.3237-3.78-.5046-.682-1.0158-1.276-1.4955-1.695-.4986-.435-.8807-.607-1.1356-.607-.2964 0-.7419.165-1.3182.531-.5588.355-1.1744.855-1.7939 1.424-1.1117 1.022-2.1985 2.232-2.9379 3.13zm-5.0257 3.649 6.1635 8.629-6.2183 6.218-.3536-.353c-1.1478-1.148-2.1975-2.723-3.3775-4.493l-.024-.036c-1.2647-1.897-.7802-3.881.1548-5.532.8455-1.494 2.1151-2.82 2.9887-3.733.0873-.091.1706-.178.2491-.261zm-2.7849 4.926c-.8505 1.502-1.1544 3.042-.193 4.485 1.0773 1.615 1.9878 2.978 2.9315 4.014l4.9038-4.904-4.9678-6.955c-.8599.902-1.9438 2.069-2.6745 3.36zm25.0583-2.633.3231.404c.7464.933 1.8664 2.389 2.802 3.727.4671.668.894 1.315 1.206 1.856.1557.27.2881.523.383.745.0876.204.1708.443.1708.663 0 1.849-.9276 3.355-2.0741 4.645-.5745.646-1.2166 1.252-1.8445 1.828-.1379.126-.2748.251-.4102.374-.4873.444-.9553.87-1.3828 1.298l-.3818.382-7.3551-8.581zm-7.1536 7.449 6.0059 7.007c.336-.321.6886-.642 1.0406-.962.133-.121.2658-.242.3977-.363.6242-.573 1.2343-1.149 1.7728-1.755 1.0796-1.215 1.8215-2.491 1.8215-3.981v.002c-.0002 0-.0016-.021-.0148-.067-.0146-.052-.0388-.12-.0753-.205-.0732-.171-.1843-.386-.33-.639-.2909-.504-.6988-1.124-1.1592-1.782-.7939-1.135-1.7269-2.362-2.4417-3.27zm-5.0634 3.669 6.0533 8.475-.1346.269c-.2227.445-.6744.99-1.2119 1.53-.5479.55-1.221 1.13-1.9242 1.644-.7009.512-1.4474.97-2.142 1.265-.667.284-1.3986.466-2.0055.264-1.8082-.603-3.0016-1.808-3.8753-3.119-.628-.942-1.1127-1.978-1.5358-2.882-.1547-.331-.3011-.644-.4432-.928l-.1771-.354zm-6.1503 6.427c.104.216.2072.437.3118.661.4136.884.8474 1.811 1.4303 2.685.7959 1.194 1.8287 2.215 3.3596 2.725.2378.08.6706.032 1.2982-.235.6-.255 1.2783-.667 1.943-1.153.6624-.484 1.2957-1.03 1.8057-1.542.3907-.392.6895-.745.877-1.022l-5.0628-7.088z" fill="#000"/><path d="m99.9169 171.406c-.1134-.252-.0011-.548.2511-.662l8.283-3.728c.252-.114.548-.002.662.25.113.252.001.548-.251.661l-8.284 3.729c-.252.114-.548.001-.6611-.25zm2.7241-5.635c-.129-.244-.035-.546.209-.675l6.37-3.356c.244-.128.547-.035.675.21.129.244.035.546-.209.675l-6.37 3.356c-.244.128-.546.035-.675-.21zm-.796-5.145c-.129-.245-.035-.547.209-.676l4.777-2.516c.245-.129.547-.035.676.209.128.244.035.547-.21.675l-4.777 2.517c-.244.129-.546.035-.675-.209z" fill="#000"/><path d="m92.7654 148.566c-.1287-.244-.035-.547.2093-.676l4.7771-2.516c.2443-.129.5467-.035.6754.209s.035.547-.2093.675l-4.7771 2.517c-.2443.129-.5467.035-.6754-.209zm2.4799 4.258c-.1287-.244-.035-.546.2093-.675l5.4824-2.888c.244-.129.546-.035.675.209.129.245.035.547-.209.676l-5.4823 2.888c-.2443.128-.5467.035-.6754-.21zm2.2972 3.66c-.1287-.245-.035-.547.2093-.676l5.5732-2.936c.244-.129.547-.035.676.209.128.245.035.547-.21.676l-5.5731 2.936c-.2443.129-.5467.035-.6754-.209z" fill="#000"/><path d="m83.2112 138.187c-.1287-.244-.035-.547.2093-.675l4.0813-2.151c.2443-.128.5467-.035.6754.21.1287.244.035.546-.2093.675l-4.0813 2.15c-.2443.129-.5467.035-.6754-.209zm4.0813 3.415c-.1287-.244-.035-.547.2093-.676l4.6767-2.463c.2443-.129.5467-.035.6754.209s.035.547-.2093.675l-4.6767 2.464c-.2443.129-.5467.035-.6754-.209zm3.0843 3.244c-.1287-.244-.035-.546.2094-.675l4.7771-2.517c.2443-.129.5467-.035.6754.21.1287.244.035.546-.2093.675l-4.7771 2.517c-.2444.128-.5468.035-.6755-.21z" fill="#000"/><path d="m83.9553 184.81c-.041-.273.1472-.527.4202-.568l7.962-1.195c.2731-.041.5277.148.5687.421.0409.273-.1472.527-.4203.568l-7.962 1.195c-.2731.041-.5277-.147-.5686-.421zm3.9953-3.119c-.0773-.265.075-.542.3401-.62l10.3506-3.017c.2651-.077.5427.075.6199.341.0773.265-.075.542-.3401.62l-10.3505 3.016c-.2652.078-.5427-.075-.62-.34zm6.3853-4.731c-.1025-.256.0222-.547.2786-.65 1.4873-.595 2.6923-1.017 3.7954-1.403.3815-.134.7507-.263 1.1152-.394 1.4199-.509 2.7929-1.048 4.6039-1.963.246-.125.547-.026.672.22.124.247.025.548-.221.672-1.859.94-3.272 1.494-4.7172 2.012-.3754.135-.7512.267-1.1366.402-1.0987.384-2.275.797-3.7403 1.383-.2564.102-.5474-.022-.65-.279z" fill="#000"/><path d="m167.794 137.604c.096.259-.036.546-.295.642-12.627 4.67-32.017 11.662-44.69 16.201-.26.093-.547-.042-.64-.302s.042-.546.302-.639c12.673-4.54 32.059-11.53 44.681-16.198.259-.096.547.037.642.296z" fill="#9293ab"/><path d="m151.006 140.537c-.063-.269.104-.538.373-.601.108-.025.286-.068.524-.125 1.362-.328 4.671-1.123 7.886-1.767 1.886-.377 3.756-.705 5.19-.854.714-.075 1.343-.108 1.821-.074.236.016.465.051.658.121.179.065.437.202.542.495l.055.153-.045.156c-.1.34-.31.659-.567.951-.261.296-.592.591-.968.883-.751.584-1.724 1.187-2.775 1.788-.968.552-2.017 1.111-3.04 1.655-.09.048-.18.096-.269.144-1.111.591-2.177 1.163-3.079 1.699-.238.141-.544.063-.685-.175-.141-.237-.063-.544.174-.685.926-.549 2.012-1.132 3.12-1.722.089-.047.178-.095.267-.142 1.025-.546 2.062-1.098 3.016-1.643 1.04-.594 1.964-1.169 2.658-1.709.347-.269.626-.521.83-.754.064-.073.119-.142.165-.206-.038-.005-.081-.009-.127-.012-.39-.027-.95-.002-1.647.071-1.386.145-3.219.465-5.098.841-3.192.638-6.472 1.427-7.843 1.757-.241.058-.424.102-.535.128-.269.063-.538-.104-.601-.373zm16.142-2.346s-.002-.001-.005-.003c.004.002.006.003.005.003z" fill="#9293ab"/><path d="m117.251 142.446c-.096-.259.036-.546.295-.642 7.078-2.618 16.094-5.683 24.876-8.669 6.867-2.334 13.591-4.62 19.135-6.606.26-.093.546.042.639.302s-.042.547-.302.64c-5.586 2-12.319 4.289-19.184 6.623-8.758 2.977-17.733 6.028-24.817 8.648-.259.096-.546-.037-.642-.296z" fill="#9293ab"/><path d="m134.04 139.514c.063.269-.104.538-.373.601-.109.025-.287.068-.524.125-1.363.328-4.671 1.123-7.887 1.766-1.886.378-3.756.706-5.19.855-.713.075-1.343.108-1.82.074-.237-.017-.466-.051-.659-.121-.179-.065-.437-.202-.542-.496l-.055-.153.046-.156c.099-.339.31-.658.567-.95.26-.296.591-.591.967-.883.751-.584 1.724-1.187 2.775-1.788.968-.553 2.018-1.111 3.04-1.656.09-.048.18-.095.269-.143 1.111-.592 2.177-1.163 3.08-1.699.237-.141.544-.063.685.175.141.237.063.544-.175.685-.926.549-2.012 1.132-3.119 1.722-.089.047-.178.094-.267.142-1.026.546-2.062 1.097-3.017 1.643-1.039.593-1.963 1.169-2.658 1.709-.346.269-.625.521-.829.753-.065.074-.12.142-.166.207.039.004.081.008.128.012.389.027.949.001 1.646-.071 1.387-.145 3.219-.465 5.098-.841 3.192-.639 6.473-1.427 7.843-1.757.242-.058.424-.102.536-.128.269-.063.538.104.601.373zm-16.143 2.346s.002.001.006.003c-.004-.002-.006-.003-.006-.003z" fill="#9293ab"/><path d="m244.294 98.1948c-.27-.0578-.442-.3235-.384-.5935.147-.6863.29-1.376.435-2.0675.61-2.926 1.228-5.8865 2.109-8.7752.352-1.1546.784-2.544 1.469-3.7858.688-1.2469 1.654-2.3876 3.097-3.0004 2.381-1.0108 4.852-.7598 7.222-.3154.568.1066 1.128.2233 1.681.3385 1.797.3747 3.519.7336 5.205.6758 1.071-.0368 1.861-.4108 2.473-.9883.624-.5883 1.085-1.4096 1.443-2.3669.358-.9558.602-2.0139.81-3.0518.058-.2855.113-.5717.167-.8539.14-.7261.274-1.4257.43-2.0193.07-.2671.343-.4268.61-.3568s.427.3433.357.6104c-.146.5594-.271 1.2078-.408 1.919-.056.2893-.113.5891-.175.8975-.211 1.0485-.467 2.1715-.854 3.2056-.387 1.0327-.916 2.0101-1.694 2.7436-.789.7443-1.81 1.2151-3.125 1.2603-1.818.0624-3.703-.3315-5.525-.7119-.533-.1114-1.061-.2216-1.58-.3189-2.338-.4385-4.555-.6349-6.646.253-1.165.4948-1.988 1.4305-2.613 2.563-.627 1.1375-1.033 2.4302-1.388 3.5943-.866 2.8412-1.472 5.7467-2.082 8.6693-.146.6963-.291 1.3935-.44 2.091-.058.2701-.324.4421-.594.3843z" fill="#000"/><path d="m240.93 98.3374c-.132-.2422-.043-.5461.199-.6787.028-.0155.057-.0311.085-.0466-.007-.2706-.001-.5515.011-.8265.021-.4806.063-.9626.099-1.3663.002-.023.004-.0457.006-.068.035-.3834.061-.6667.062-.8275.013-1.6314.166-3.314.316-4.9556.065-.7101.129-1.4125.181-2.0998.004-.0554.02-.1515.085-.2495.074-.1107.184-.1849.306-.2143.187-.0453.335.0289.364.0435l.002.001c.089.0443.165.1109.207.1482.102.0919.232.2293.373.3854.286.3183.667.7709 1.055 1.2446.779.9492 1.612 2.0083 1.843 2.3092.36.4682.915.923 1.509 1.3342.45.3112.894.5797 1.266.8048.118.0715.229.1386.331.2013.191.1183.389.2444.51.3553.033.0302.078.0761.119.1356.033.0487.112.1784.098.3578-.018.2235-.163.3609-.277.4239-.096.0532-.19.0676-.24.0731-.106.012-.225.0038-.334-.0081-.117-.0128-.259-.0345-.426-.0641-.063-.0113-.131-.0239-.204-.0379.038.0957.041.1861.033.2505-.016.1354-.082.2303-.099.255l-.001.0009c-.049.0707-.114.1335-.16.1759-.198.1833-.592.4782-1.041.7946-.906.64-2.164 1.4587-2.855 1.8198.001-.0003.001-.0003 0 .0002-.002.0014-.011.0066-.029.0179-.022.0137-.049.0321-.084.0553-.068.0464-.155.1071-.256.1783-.164.1163-.357.2558-.554.398-.044.0318-.089.0636-.133.0954-.239.1727-.477.3433-.658.4682-.089.0617-.171.117-.236.1568-.03.0186-.068.0416-.107.0604-.016.0079-.055.0263-.104.0399-.023.0063-.075.0194-.142.019-.058-.0004-.221-.0115-.358-.1515-.154-.1581-.249-.3567-.311-.5433-.022-.0672-.041-.1369-.058-.2084-.16-.015-.31-.1065-.393-.2579zm1.332-.1521c.003.0249.007.049.012.0722.123-.0875.261-.1868.404-.29-.139.072-.278.1446-.416.2178zm5.284-3.6668c-.081-.0178-.166-.0364-.253-.0559-.269-.06-.439-.3271-.379-.5967.047-.2113.221-.3614.424-.3874-.091-.0604-.183-.1223-.274-.1857-.62-.4289-1.278-.9543-1.733-1.5471-.225-.2922-1.051-1.3429-1.823-2.2842-.252-.3068-.495-.5993-.709-.849-.032.3655-.066.7308-.099 1.0957-.148 1.6217-.296 3.235-.308 4.8234-.002.2044-.031.5277-.063.8802-.003.0322-.006.0646-.009.0973-.036.404-.076.8653-.096 1.3205-.004.085-.007.1691-.009.2519 1.371-.7088 2.768-1.3626 4.158-2.0127.377-.1767.754-.3531 1.13-.5303.014-.0068.029-.0135.043-.02z" fill="#000"/><path d="m63.8066 130.322c-.1867.203-.503.217-.7065.03-.5171-.474-1.0386-.948-1.5616-1.423-2.2128-2.009-4.4517-4.042-6.4955-6.266-.8169-.888-1.7957-1.965-2.5189-3.185-.726-1.225-1.2198-2.636-1.0165-4.19.3353-2.565 1.8041-4.568 3.3885-6.386.3799-.435.7643-.859 1.1437-1.277 1.2344-1.36 2.4165-2.662 3.2208-4.144.5114-.943.5893-1.813.4018-2.633-.1911-.836-.6653-1.65-1.3088-2.4443-.6424-.7931-1.4311-1.5394-2.2201-2.2452-.2171-.1941-.4359-.3866-.6516-.5765-.5551-.4883-1.09-.9589-1.5228-1.3939-.1948-.1958-.194-.5123.0018-.7071.1957-.1948.5123-.194.7071.0018.4079.4099.9036.846 1.4473 1.3244.2212.1946.4504.3963.6848.606.7971.7129 1.6354 1.5029 2.3305 2.361.6942.8568 1.2684 1.8086 1.5066 2.8508.2417 1.057.1298 2.176-.4977 3.333-.8676 1.598-2.1628 3.024-3.414 4.401-.3662.403-.7287.802-1.0756 1.2-1.5632 1.794-2.8562 3.605-3.1507 5.858-.1642 1.256.2257 2.439.8852 3.551.6624 1.118 1.5712 2.123 2.3948 3.019 2.0102 2.186 4.2074 4.182 6.4176 6.189.5265.478 1.0538.957 1.5794 1.439.2035.187.2171.503.0304.707z" fill="#000"/><path d="m62.2241 133.293c-.276-.008-.4929-.239-.4844-.515.001-.032.002-.065.0031-.097-.2369-.131-.4762-.279-.7071-.428-.4036-.262-.7977-.543-1.1273-.779-.0188-.013-.0373-.026-.0555-.04-.313-.224-.5442-.389-.6822-.472-1.3999-.838-2.7725-1.823-4.1116-2.784-.5792-.416-1.1522-.827-1.7184-1.22-.0457-.032-.1205-.095-.172-.2-.0582-.12-.0659-.253-.0296-.373.0557-.184.1949-.274.2221-.292l.0019-.001c.0833-.054.1794-.086.2325-.103.131-.041.3154-.084.5213-.126.4196-.086 1.0024-.184 1.6077-.279 1.2129-.19 2.548-.371 2.9245-.418.586-.073 1.2598-.321 1.9152-.625.4961-.229.9526-.476 1.3354-.683.1215-.066.2356-.127.3411-.183.1992-.105.4083-.212.5648-.26.0427-.013.1055-.029.1772-.033.0587-.004.2108-.007.3581.096.1836.129.2289.323.2253.454-.0031.11-.0383.198-.0585.243-.0435.098-.111.197-.1764.284-.0705.095-.1612.207-.2711.335-.0419.049-.0873.101-.1361.157.1018.015.1809.059.2325.099.1087.082.1569.187.1695.214l.0004.001c.036.079.0573.166.0705.227.0575.264.1119.754.1575 1.3.0922 1.106.1603 2.606.1218 3.384 0-.001 0-.001 0 0 0 .003-.0001.013.0006.034.0009.026.0026.059.0052.101.0051.082.0134.188.0239.311.017.2.0393.438.062.679.005.055.0101.109.0152.163.0274.294.0541.585.0701.804.0079.109.0139.208.0156.283.0007.035.001.08-.0024.123-.0014.018-.0052.061-.0183.11-.0062.023-.0213.075-.0557.132-.0294.05-.1217.185-.3118.232-.2146.053-.4338.034-.6261-.007-.0691-.015-.1391-.034-.2093-.056-.0939.131-.2487.213-.4212.208zm.5437-1.225c.0234.01.0462.018.0684.027-.0129-.151-.0284-.321-.0448-.496-.0085.156-.0164.313-.0236.469zm-.4824-6.414c-.0566.062-.1154.125-.1764.19-.1883.202-.5047.213-.7066.025-.1584-.148-.1994-.374-.1188-.563-.0982.048-.1982.096-.2992.143-.6837.316-1.4701.617-2.212.71-.3656.045-1.6903.225-2.893.413-.392.062-.7677.123-1.0914.181.2989.213.5969.427.8945.641 1.3228.95 2.6387 1.894 4.0017 2.71.1754.105.4393.294.727.5.0263.019.0528.038.0794.057.3298.236.7071.505 1.0894.753.0713.046.1423.091.2127.135.084-1.541.2285-3.077.3723-4.604.0391-.415.0781-.83.1158-1.243.0015-.016.003-.032.0046-.048z" fill="#000"/></g><path d="m214.508 61.2573c-.139 0-.295-.1127-.468-.338-.173-.2254-.251-.442-.234-.65.017-.2774.095-.676.234-1.196s.295-1.0487.468-1.586c.173-.5374.329-.962.468-1.274.069-.2774.13-.52.182-.728.069-.2254.113-.3727.13-.442.052-.0694.13-.2514.234-.546.121-.2947.217-.5807.286-.858.035-.1387.104-.3987.208-.78.121-.3987.26-.858.416-1.378.173-.52.338-1.0314.494-1.534.173-.5027.321-.9447.442-1.326.121-.3814.199-.6327.234-.754.139-.208.243-.4074.312-.598.069-.1907.113-.3207.13-.39.104-.0694.165-.156.182-.26.017-.1214.026-.2167.026-.286 0-.0867.026-.156.078-.208.069-.052.104-.1127.104-.182.069-.052.113-.13.13-.234.017-.1214.069-.2254.156-.312l.13-.442 1.534-.026c-.035.208-.087.468-.156.78-.069.2946-.234.6933-.494 1.196-.087.3466-.191.6586-.312.936-.104.2773-.147.4593-.13.546-.035.0346-.113.208-.234.52-.104.312-.234.6933-.39 1.144-.139.4506-.286.9013-.442 1.352-.139.4506-.269.8493-.39 1.196-.104.3293-.173.5373-.208.624-.139.2773-.295.6846-.468 1.222-.173.5373-.433 1.2653-.78 2.184-.139.2773-.312.6933-.52 1.248-.191.5546-.347 1.0573-.468 1.508-.191.676-.329 1.144-.416 1.404-.069.2773-.13.4246-.182.442-.052.0346-.147.0433-.286.026zm.208-15.496c-.485.0173-.849-.0087-1.092-.078-.225-.0694-.303-.2427-.234-.52.052-.208.165-.364.338-.468s.425-.182.754-.234c.191-.0347.433-.078.728-.13.312-.052.607-.104.884-.156.572-.0694 1.04-.13 1.404-.182.381-.052.771-.0954 1.17-.13.399-.0347.901-.0694 1.508-.104.503-.0347.927-.0607 1.274-.078.364-.0347.546-.052.546-.052.052 0 .234.0173.546.052.312.0346.65.078 1.014.13s.633.1126.806.182c.399.0866.685.208.858.364.191.156.321.3813.39.676.052.208.052.338 0 .39-.052.0346-.147.0866-.286.156-.399.1213-.693.182-.884.182s-.407-.0434-.65-.13c-.087-.0867-.191-.1647-.312-.234-.104-.0694-.295-.1214-.572-.156-.26-.052-.676-.0954-1.248-.13-.485.052-.91.078-1.274.078s-.546.0433-.546.13l-1.534.078-1.274.13c-.173.0173-.416.0433-.728.078-.312.0173-.615.0433-.91.078-.295.0173-.52.0433-.676.078zm6.609 15.21c-.312-.1734-.485-.364-.52-.572-.017-.208.104-.572.364-1.092s.668-1.326 1.222-2.418c.416-.78.728-1.3867.936-1.82.226-.4507.373-.7714.442-.962.087-.1907.13-.312.13-.364-.034-.156-.017-.2774.052-.364.07-.104.182-.1907.338-.26.087-.0867.226-.2427.416-.468.208-.2254.399-.494.572-.806.156-.364.338-.7367.546-1.118.208-.3814.486-.858.832-1.43.347-.5894.798-1.352 1.352-2.288.347-.6067.728-1.222 1.144-1.846.416-.6414.858-1.274 1.326-1.898.191-.2427.364-.4334.52-.572.156-.156.312-.2254.468-.208.208 0 .442.0693.702.208.278.1386.529.3206.754.546.226.2253.39.468.494.728.087.1386.122.4333.104.884-.017.4506-.052.9966-.104 1.638-.052.6413-.112 1.326-.182 2.054-.052.7106-.13 1.5513-.234 2.522-.104.9706-.208 1.9846-.312 3.042-.086 1.0573-.156 2.08-.208 3.068-.052.9706-.052 1.82 0 2.548.018.156.018.3033 0 .442-.017.1386-.026.2513-.026.338-.104.104-.277.1473-.52.13-.225 0-.45-.052-.676-.156-.208-.104-.329-.234-.364-.39-.052-.052-.086-.1214-.104-.208 0-.104.009-.312.026-.624.018-.312.035-.806.052-1.482l.13-4.212-.338.026c-.156 0-.45.0173-.884.052-.433.0346-.901.0866-1.404.156-.502.052-.97.1126-1.404.182-.416.052-.702.104-.858.156-.156 0-.346.104-.572.312-.208.208-.407.4766-.598.806-.069.2426-.199.5026-.39.78-.173.26-.26.4333-.26.52-.121.0866-.225.1906-.312.312-.069.1213-.104.182-.104.182 0 .104-.086.364-.26.78-.156.3986-.355.8493-.598 1.352-.242.4853-.485.91-.728 1.274l-.546.832zm5.382-8.372s.087-.0174.26-.052c.191-.0347.408-.0694.65-.104.26-.052.494-.078.702-.078.728-.1734 1.257-.286 1.586-.338.33-.0694.555-.104.676-.104.139 0 .26.026.364.078.07.0866.13.1386.182.156.07.0173.104.026.104.026.018-.0347.044-.234.078-.598.035-.364.078-.8147.13-1.352.07-.5374.13-1.092.182-1.664.07-.5894.122-1.1267.156-1.612.035-.5027.061-.884.078-1.144.018-.3294.035-.624.052-.884.018-.2774.026-.416.026-.416-.104 0-.329.1906-.676.572-.329.3813-.702.884-1.118 1.508s-.806 1.2913-1.17 2.002c-.173.3293-.338.624-.494.884s-.277.39-.364.39c-.034.0346-.138.1906-.312.468-.156.26-.329.5633-.52.91-.19.3293-.346.6326-.468.91-.121.26-.156.4073-.104.442zm9.033 8.84c-.156-.0694-.338-.208-.546-.416-.364-.2427-.641-.52-.832-.832-.19-.2947-.303-.7194-.338-1.274 0-.0867.078-.2254.234-.416.156-.208.356-.3727.598-.494.243-.1214.494-.0867.754.104-.121.364-.199.6673-.234.91-.017.2426.052.442.208.598.156.1386.46.26.91.364.295.0693.572.0953.832.078.278-.0174.607-.0607.988-.13.399-.0347.746-.0694 1.04-.104.312-.0347.529-.1127.65-.234.486-.1907.928-.4334 1.326-.728.416-.2947.694-.5894.832-.884.208-.2774.321-.494.338-.65.018-.156.026-.4247.026-.806-.017-.364-.043-.6414-.078-.832-.017-.208-.078-.4334-.182-.676-.104-.26-.286-.65-.546-1.17 0-.104-.13-.3034-.39-.598-.26-.2947-.511-.5807-.754-.858-.121-.2774-.277-.5894-.468-.936-.173-.3467-.381-.598-.624-.754-.069-.104-.138-.26-.208-.468-.069-.208-.13-.3207-.182-.338 0 0-.026-.0434-.078-.13-.034-.0867-.078-.1907-.13-.312-.242-.52-.268-1.1527-.078-1.898.191-.7454.572-1.4474 1.144-2.106.139-.2254.347-.4854.624-.78.295-.312.572-.5807.832-.806.278-.2254.451-.338.52-.338 0 0 .052-.0174.156-.052.122-.052.269-.1387.442-.26.208-.052.425-.13.65-.234.243-.104.477-.156.702-.156.312-.104.546-.1734.702-.208.156-.052.312-.0694.468-.052.156 0 .399.0173.728.052.451.1213.806.2946 1.066.52.26.208.442.4853.546.832l.182 1.118-1.092.806c-.208.0693-.442.104-.702.104s-.485-.0087-.676-.026c-.173-.0347-.26-.052-.26-.052-.104 0-.147-.052-.13-.156.018-.104.087-.156.208-.156.052-.0347.122-.1127.208-.234.104-.1214.243-.26.416-.416.191-.3294.234-.5287.13-.598-.086-.0867-.433-.0954-1.04-.026-.589.0173-1.17.1733-1.742.468-.554.2773-1.022.6933-1.404 1.248-.45.3813-.771.7713-.962 1.17-.19.3986-.286.7453-.286 1.04.035.1213.087.2946.156.52.07.208.165.4333.286.676.728 1.0226 1.257 1.742 1.586 2.158.33.416.494.6673.494.754v.13c.018 0 .087.1126.208.338.139.2253.269.468.39.728.122.2426.182.3986.182.468 0 0 .018.052.052.156.052.0866.113.2166.182.39.07.052.13.2513.182.598.052.3466.096.7106.13 1.092.052.3813.078.676.078.884s-.052.4333-.156.676c-.104.2253-.234.4506-.39.676-.156.2253-.329.442-.52.65-.19.208-.485.468-.884.78-.398.2946-.823.572-1.274.832-.433.2773-.84.4593-1.222.546-.26.104-.598.182-1.014.234-.398.0693-.814.1126-1.248.13-.416.0173-.788 0-1.118-.052-.312-.0347-.511-.0954-.598-.182zm18.448.13c-.087-.052-.217-.0954-.39-.13-.156-.0347-.295-.0954-.416-.182-.122-.0694-.191-.182-.208-.338-.018-.052-.035-.104-.052-.156 0-.052.026-.1734.078-.364.052-.1734.13-.468.234-.884.104-.3467.19-.65.26-.91.086-.26.13-.4074.13-.442.069.0346.138.0173.208-.052.069-.0694.104-.2514.104-.546-.018-.0694 0-.182.052-.338.069-.156.147-.312.234-.468 0-.052.017-.2167.052-.494.052-.2774.104-.5547.156-.832.242-.8147.494-1.534.754-2.158.277-.624.485-1.0747.624-1.352 0-.0347.026-.13.078-.286s.112-.312.182-.468c.069-.1734.121-.286.156-.338.017-.156.06-.3554.13-.598.086-.26.182-.5027.286-.728.121-.2427.234-.4074.338-.494 0-.104.043-.2774.13-.52.086-.2427.19-.494.312-.754.121-.2774.234-.5114.338-.702.104-.1907.164-.286.182-.286 0 0 .008-.052.026-.156.034-.104.138-.2687.312-.494 0 0 .008-.0867.026-.26.034-.1734.121-.312.26-.416.069-.26.112-.4334.13-.52.017-.104-.009-.1734-.078-.208-.156-.4507-.018-.6847.416-.702.104 0 .225-.1474.364-.442.086-.156.251-.2514.494-.286.26-.0347.641-.104 1.144-.208.329-.052.641-.104.936-.156.294-.052.442-.078.442-.078.242 0 .554.0173.936.052.398.0346.71.078.936.13.624.2946 1.1.6673 1.43 1.118.329.4506.52.8753.572 1.274.034.208 0 .52-.104.936-.087.3986-.208.8233-.364 1.274-.139.4506-.304.858-.494 1.222-.174.3466-.338.5806-.494.702.086-.0174.052.078-.104.286s-.356.4246-.598.65c-.226.208-.399.3293-.52.364 0 0-.061.1126-.182.338-.122.208-.295.3726-.52.494-.208.1213-.434.2686-.676.442-.226.156-.408.338-.546.546 0-.1387-.044-.182-.13-.13-.087.0346-.182.104-.286.208-.104.0866-.191.1473-.26.182-.399.2426-.789.442-1.17.598-.364.1386-.728.2426-1.092.312-.087.0693-.226.1126-.416.13-.174.0173-.347.026-.52.026l-.884-.13-.546 1.482c-.208.6933-.408 1.3086-.598 1.846-.174.5373-.347 1.0746-.52 1.612-.174.52-.364 1.1266-.572 1.82-.07.468-.174.7713-.312.91-.139.1386-.269.156-.39.052zm3.536-9.1c.641 0 1.196-.0694 1.664-.208.485-.1387.918-.338 1.3-.598.398-.2774.771-.5807 1.118-.91.138-.1387.329-.3467.572-.624.242-.2774.494-.572.754-.884.277-.3294.511-.624.702-.884.277-.3814.476-.806.598-1.274.121-.4854.19-.9274.208-1.326.017-.416-.026-.7107-.13-.884-.226-.3294-.546-.52-.962-.572-.399-.0694-.815-.052-1.248.052-.434.104-.824.2513-1.17.442-.087.0346-.243.234-.468.598-.208.364-.451.8233-.728 1.378-.26.5373-.529 1.118-.806 1.742-.26.6066-.503 1.196-.728 1.768-.226.5546-.408 1.0313-.546 1.43-.122.3986-.165.65-.13.754zm8.395 6.734c-.156-.1214-.268-.2427-.338-.364-.052-.1214-.052-.3554 0-.702.052-.4854.122-.91.208-1.274.087-.3814.191-.8147.312-1.3.035-.208.13-.5634.286-1.066.174-.5027.382-1.0487.624-1.638.243-.5894.486-1.144.728-1.664.243-.5374.451-.936.624-1.196.139-.104.304-.1474.494-.13.208.0173.382.0953.52.234.191.156.217.4333.078.832-.121.3813-.381.988-.78 1.82-.208.468-.364.8233-.468 1.066-.104.2253-.147.364-.13.416.018.0346.096.0086.234-.078.104-.1907.295-.4074.572-.65.278-.26.572-.5114.884-.754.312-.2427.607-.4594.884-.65.278-.1907.468-.312.572-.364.139-.0867.295-.156.468-.208.191-.0694.321-.1214.39-.156.399-.1907.806-.26 1.222-.208s.676.208.78.468c.018.1386.07.2426.156.312.104.0693.156.104.156.104.07 0 .104.026.104.078.018.052.026.078.026.078 0 .1213-.095.1993-.286.234-.173.0173-.398.0346-.676.052-.225.0173-.424.0606-.598.13-.173.0693-.381.156-.624.26-.658.3813-1.291.754-1.898 1.118-.589.364-1.161.8493-1.716 1.456-.121.1386-.242.3033-.364.494-.121.1906-.251.3986-.39.624-.086.0866-.173.2773-.26.572-.086.2946-.164.5806-.234.858-.052.26-.078.416-.078.468 0 0-.026.0866-.078.26-.052.156-.138.312-.26.468-.208.2773-.381.416-.52.416-.138 0-.346-.1387-.624-.416zm10.67.52c-.226 0-.408-.0434-.546-.13-.122-.0867-.278-.208-.468-.364-.33-.3467-.564-.676-.702-.988-.139-.3294-.182-.6414-.13-.936.052-.1387.069-.2687.052-.39 0-.1387 0-.208 0-.208-.087-.0867-.113-.1387-.078-.156.034-.0347.069-.0867.104-.156.104 0 .138-.0954.104-.286-.035-.1387.034-.442.208-.91.173-.468.39-.91.65-1.326.104-.1734.26-.3987.468-.676.208-.2947.433-.5807.676-.858.26-.2947.494-.5287.702-.702.433-.364.814-.6327 1.144-.806.329-.1734.684-.3034 1.066-.39.381-.0867.641-.13.78-.13.156 0 .364.1386.624.416.398.1733.684.3813.858.624.19.2426.312.598.364 1.066.052.52.008 1.118-.13 1.794-.122.6586-.529 1.482-1.222 2.47-.434.624-.832 1.092-1.196 1.404-.364.2946-.798.5893-1.3.884-.364.2426-.694.4246-.988.546-.295.104-.642.1733-1.04.208zm2.496-2.756c.416-.468.745-.91.988-1.326.26-.416.502-.9447.728-1.586.069-.1907.112-.4247.13-.702.017-.2947.008-.5634-.026-.806-.018-.26-.078-.4074-.182-.442-.208-.1214-.46-.156-.754-.104-.295.0346-.616.1993-.962.494-.538.4506-1.006 1.014-1.404 1.69-.399.6586-.789 1.4126-1.17 2.262-.26.624-.321 1.1266-.182 1.508.156.364.476.494.962.39.502-.1214 1.126-.5807 1.872-1.378zm7.528 2.314c-.174.1213-.295.182-.364.182-.07-.0174-.2-.1214-.39-.312-.33-.312-.564-.9014-.702-1.768-.122-.884-.182-2.1234-.182-3.718.069-.7107.104-1.3174.104-1.82.017-.5027.026-.7887.026-.858.052-.0694.156-.104.312-.104.173 0 .32.0346.442.104.173.0866.286.2166.338.39.069.1733.112.4853.13.936.017.4333.026 1.1006.026 2.002-.052.6933-.078 1.3-.078 1.82 0 .5026.026.7886.078.858.069.1213.147.156.234.104.104-.0694.286-.234.546-.494.138-.1907.312-.442.52-.754.208-.3294.372-.5894.494-.78.19-.2427.364-.4767.52-.702.173-.2254.294-.3727.364-.442.069-.1387.156-.2687.26-.39.104-.1214.19-.2427.26-.364.19-.3294.39-.598.598-.806.208-.2254.346-.338.416-.338.069.052.13.0693.182.052.069-.0347.138-.052.208-.052.121-.1214.286-.1214.494 0 .069.052.13.1126.182.182.052.052.078.1126.078.182 0 .0866-.07.2686-.208.546-.122.2773-.269.546-.442.806-.156.2426-.278.39-.364.442 0 0-.026.026-.078.078s-.113.1126-.182.182c-.035.1213-.148.338-.338.65-.191.2946-.425.6326-.702 1.014-.278.3813-.564.7626-.858 1.144-.295.3813-.555.7193-.78 1.014-.174.2426-.373.4593-.598.65-.226.1733-.408.2946-.546.364zm7.255.026c-.26-.0347-.485-.2167-.676-.546-.173-.3467-.277-.6587-.312-.936.017-.1387.035-.338.052-.598.035-.26.069-.5287.104-.806.069-.3294.165-.728.286-1.196.121-.4854.243-.9707.364-1.456.139-.4854.26-.9014.364-1.248.104-.3467.173-.5547.208-.624.087-.1387.225-.1734.416-.104.191.0693.347.1733.468.312.104.1386.165.3033.182.494.035.1906.009.468-.078.832-.069.364-.208.9013-.416 1.612-.191.6933-.338 1.2566-.442 1.69-.087.416-.121.858-.104 1.326-.069.5893-.121.9533-.156 1.092-.035.1213-.121.1733-.26.156zm2.99-10.374c-.069.052-.139.078-.208.078-.052-.0174-.147-.0694-.286-.156-.121-.0174-.277-.0954-.468-.234-.173-.156-.329-.312-.468-.468-.121-.1734-.182-.2774-.182-.312-.017-.1734-.009-.39.026-.65.052-.2774.147-.52.286-.728.139-.2254.338-.3467.598-.364.069 0 .13.0086.182.026.052.0173.208.078.468.182.139.26.277.5546.416.884.139.312.199.624.182.936-.017.2946-.199.5633-.546.806zm6.358 11.102c-.191.0693-.33.0953-.416.078-.07-.0347-.252-.1647-.546-.39-.122-.208-.2-.39-.234-.546-.018-.1734-.026-.4767-.026-.91.034-.26.104-.6327.208-1.118.121-.4854.26-.9967.416-1.534.156-.5374.294-1.0227.416-1.456.138-.4334.242-.728.312-.884.121-.416.147-.6674.078-.754-.07-.104-.278-.1734-.624-.208-.694-.0867-1.318.1386-1.872.676-.555.5373-1.11 1.2393-1.664 2.106-.416.6413-.668 1.196-.754 1.664-.07.4506-.078.7626-.026.936.052.1386.173.2166.364.234.19 0 .398-.0434.624-.13.242-.0867.45-.1734.624-.26.121-.0694.268-.1387.442-.208.19-.0867.372-.1647.546-.234.104 0 .173.0346.208.104.052.052.078.1646.078.338 0 .0693.026.13.078.182s.112.0953.182.13c.069.0693-.035.2253-.312.468-.26.2426-.668.52-1.222.832-.52.1213-.945.182-1.274.182-.312 0-.616-.1127-.91-.338-.486-.2947-.763-.7714-.832-1.43-.052-.676.086-1.4994.416-2.47.329-.78.693-1.4127 1.092-1.898.398-.5027.823-.988 1.274-1.456.069-.0694.225-.1734.468-.312.26-.156.58-.2947.962-.416.433-.1387.84-.2254 1.222-.26.381-.0347.71.0433.988.234.312.0693.511.0606.598-.026.086-.104.234-.416.442-.936.346-.8667.684-1.742 1.014-2.626.329-.9014.684-1.8114 1.066-2.73.173-.3294.277-.5807.312-.754.052-.1907.112-.3207.182-.39h.494c.069 0 .19.0606.364.182.173.1213.294.286.364.494 0 .156-.07.5026-.208 1.04-.139.52-.364 1.144-.676 1.872-.278.6413-.555 1.2913-.832 1.95-.26.6413-.512 1.326-.754 2.054-.191.5373-.364.9706-.52 1.3-.156.3293-.26.6153-.312.858-.104.4506-.234.858-.39 1.222-.139.3466-.234.5893-.286.728-.226.6586-.408 1.196-.546 1.612-.139.3986-.243.7366-.312 1.014-.07.26-.113.5286-.13.806 0 .26.026.572.078.936 0 .0693-.009.1386-.026.208-.018.0693-.087.1473-.208.234zm6.229-.546c-.676-.2774-1.118-.6587-1.326-1.144-.191-.5027-.226-1.274-.104-2.314.034-.5374.052-.8927.052-1.066 0-.1734-.096-.3467-.286-.52-.052-.0694-.148-.1647-.286-.286-.122-.1214-.174-.2254-.156-.312-.018-.1214-.009-.2514.026-.39.034-.156.086-.234.156-.234.069 0 .138-.0174.208-.052.086-.0347.164-.0347.234 0 .069 0 .147.0086.234.026.086.0173.13.0606.13.13.069.1213.182.1386.338.052.156-.104.32-.3294.494-.676.173-.2774.398-.5547.676-.832.294-.2774.58-.5287.858-.754.294-.2427.537-.416.728-.52.086-.0347.216-.078.39-.13.173-.052.355-.0954.546-.13.208-.0347.381-.0434.52-.026.312.0173.572.104.78.26.225.156.433.338.624.546.225.156.364.364.416.624.069.26.086.5373.052.832-.035.2946-.113.5633-.234.806-.052.1733-.2.3813-.442.624-.243.2426-.52.4766-.832.702-.312.2253-.598.39-.858.494-.226.052-.52.0953-.884.13-.347.0346-.676.052-.988.052-.295-.0174-.494-.052-.598-.104-.122-.0694-.217.026-.286.286-.07.26-.122.6326-.156 1.118-.035.3813-.035.6586 0 .832.034.1733.069.2946.104.364.121.1213.286.2773.494.468.225.1733.537.1993.936.078.329-.0867.65-.312.962-.676.329-.364.632-.6587.91-.884.069-.1214.182-.1907.338-.208.173-.0347.355-.026.546.026.19.1213.268.2686.234.442-.018.156-.104.3986-.26.728-.052.1213-.174.2773-.364.468-.174.1733-.373.3553-.598.546-.208.1733-.399.312-.572.416-.52.2773-1.006.4246-1.456.442-.451 0-.884-.078-1.3-.234zm1.534-5.278c.381-.0867.684-.1474.91-.182.225-.0347.442-.13.65-.286.208-.1734.468-.494.78-.962.069-.1907.086-.3814.052-.572-.018-.1907-.061-.3207-.13-.39-.156-.1734-.347-.2254-.572-.156-.208.052-.408.1473-.598.286-.122.052-.304.182-.546.39-.226.1906-.451.416-.676.676-.226.2426-.408.468-.546.676-.139.208-.174.3293-.104.364-.035.0693.06.1126.286.13.242.0173.407.026.494.026zm5.595 4.992c-.156-.1214-.269-.2427-.338-.364-.052-.1214-.052-.3554 0-.702.052-.4854.121-.91.208-1.274.086-.3814.19-.8147.312-1.3.034-.208.13-.5634.286-1.066.173-.5027.381-1.0487.624-1.638.242-.5894.485-1.144.728-1.664.242-.5374.45-.936.624-1.196.138-.104.303-.1474.494-.13.208.0173.381.0953.52.234.19.156.216.4333.078.832-.122.3813-.382.988-.78 1.82-.208.468-.364.8233-.468 1.066-.104.2253-.148.364-.13.416.017.0346.095.0086.234-.078.104-.1907.294-.4074.572-.65.277-.26.572-.5114.884-.754.312-.2427.606-.4594.884-.65.277-.1907.468-.312.572-.364.138-.0867.294-.156.468-.208.19-.0694.32-.1214.39-.156.398-.1907.806-.26 1.222-.208s.676.208.78.468c.017.1386.069.2426.156.312.104.0693.156.104.156.104.069 0 .104.026.104.078.017.052.026.078.026.078 0 .1213-.096.1993-.286.234-.174.0173-.399.0346-.676.052-.226.0173-.425.0606-.598.13-.174.0693-.382.156-.624.26-.659.3813-1.292.754-1.898 1.118-.59.364-1.162.8493-1.716 1.456-.122.1386-.243.3033-.364.494-.122.1906-.252.3986-.39.624-.087.0866-.174.2773-.26.572-.087.2946-.165.5806-.234.858-.052.26-.078.416-.078.468 0 0-.026.0866-.078.26-.052.156-.139.312-.26.468-.208.2773-.382.416-.52.416-.139 0-.347-.1387-.624-.416z" fill="#000"/><path d="m13.6573 48.7713s-.026-.0174-.078-.052c-.052-.0174-.1213-.0347-.208-.052-.0693-.0174-.156-.026-.26-.026-.2773-.0694-.4766-.2254-.598-.468-.1213-.2254-.1473-.4767-.078-.754.0694-.0694.1214-.2167.156-.442.0347-.2254.052-.4074.052-.546.0694-.1387.1127-.234.13-.286.0174-.0694.0607-.2427.13-.52.052-.2947.1387-.702.26-1.222.1387-.5374.286-1.1094.442-1.716.1734-.6067.338-1.1874.494-1.742.156-.5547.2947-1.0227.416-1.404.1387-.3814.234-.598.286-.65 0 0 0-.026 0-.078 0-.0694 0-.1387 0-.208 0 0 .0087-.078.026-.234.0347-.1734.1214-.364.26-.572.0694-.1907.13-.3987.182-.624.052-.2254.078-.3727.078-.442.0694-.0867.1647-.2947.286-.624.1387-.3467.2687-.6847.39-1.014.104-.2774.2167-.572.338-.884.1387-.312.2514-.5807.338-.806.104-.2254.156-.338.156-.338 0-.0694 0-.104 0-.104 0-.0174 0-.026 0-.026.0694-.0694.234-.416.494-1.04.2774-.6414.65-1.4647 1.118-2.47.0694-.1387.156-.2947.26-.468.104-.1734.156-.2947.156-.364.0867-.1387.208-.1994.364-.182.156 0 .312.052.468.156.1734.104.3034.2513.39.442l.26.416-.936 1.872c-.2773.4853-.5113.9273-.702 1.326-.1733.3986-.26.6326-.26.702 0 0-.052.1386-.156.416-.104.2773-.2253.6066-.364.988-.1386.3813-.26.728-.364 1.04-.1906.5373-.3726.9793-.546 1.326-.156.3466-.234.5546-.234.624 0-.0347.1907-.0607.572-.078.3814-.0174.8667-.026 1.456-.026h1.794c.624-.0174 1.17-.026 1.638-.026.4854-.0174.8147-.0434.988-.078l1.352-.13.884-2.678c.1387-.4854.3207-1.0747.546-1.768.2254-.6934.4247-1.2827.598-1.768.2774-.7974.494-1.2914.65-1.482.156-.1907.338-.286.546-.286.052 0 .1214.0173.208.052.104.0173.1994.0606.286.13.104.052.1734.13.208.234.208.1906.3034.4073.286.65 0 .2426-.1386.5633-.416.962-.2773.468-.5113.9793-.702 1.534-.1733.5373-.3293.9793-.468 1.326 0 .208-.026.3813-.078.52-.052.1213-.1126.2166-.182.286-.0346.0346-.104.1646-.208.39-.104.2253-.1993.4506-.286.676-.0866.2253-.13.364-.13.416 0 .1213-.026.2686-.078.442-.052.1733-.1126.2946-.182.364-.0346.104-.1126.364-.234.78-.1213.416-.26.91-.416 1.482-.156.5546-.3206 1.1006-.494 1.638-.1733.52-.3293.9533-.468 1.3 0 .1213-.0433.2773-.13.468-.0866.1733-.13.3293-.13.468-.0693.208-.156.468-.26.78s-.156.5113-.156.598c-.0866.3986-.182.806-.286 1.222-.0866.416-.1646.7713-.234 1.066-.052.312-.078.494-.078.546-.0693.0693-.1733.078-.312.026-.1386-.052-.3033-.1127-.494-.182-.3293-.1907-.5286-.3987-.598-.624-.052-.208.0174-.5114.208-.91.0867-.1387.1907-.4767.312-1.014.1387-.5547.2774-1.1007.416-1.638.104-.26.2167-.6067.338-1.04.1214-.4507.2427-.9014.364-1.352.1214-.468.2254-.858.312-1.17.0867-.3294.1474-.5114.182-.546 0-.0694 0-.13 0-.182s0-.078 0-.078c-.0346-.0347-.2513-.0607-.65-.078-.3986-.0347-.8926-.0434-1.482-.026-.5893 0-1.2046.0173-1.846.052-.624.0173-1.1873.0606-1.69.13-.1906 0-.4073 0-.65 0-.2426 0-.4333 0-.572 0-.1906 0-.3553 0-.494 0-.1213 0-.182 0-.182 0-.0173.052-.078.234-.182.546s-.2253.6933-.364 1.144c-.1386.4333-.286.884-.442 1.352-.1386.4506-.26.8666-.364 1.248-.0866.364-.1473.624-.182.78-.0693.312-.1646.702-.286 1.17-.104.468-.2253.9446-.364 1.43-.1213.5026-.234.936-.338 1.3-.0866.364-.1473.598-.182.702zm14.0524-3.094c-.0693-.1387-.156-.2427-.26-.312-.104-.0867-.156-.1647-.156-.234 0-.0694-.0086-.1387-.026-.208 0-.0867-.0346-.1647-.104-.234-.0866-.104-.078-.338.026-.702.104-.3814.2774-.8407.52-1.378.2427-.5547.5287-1.1354.858-1.742.1387-.1387.2774-.3207.416-.546.1387-.2254.2427-.3727.312-.442 0-.0694.026-.13.078-.182.052-.0694.1127-.104.182-.104v-.156c0-.0867.078-.234.234-.442.1734-.208.3814-.4334.624-.676.2427-.26.494-.5027.754-.728.26-.2427.4767-.416.65-.52.364-.2427.7367-.39 1.118-.442.3987-.052.7367.0346 1.014.26.052.052.1387.1386.26.26.1214.1213.26.26.416.416.1734.1386.3467.286.52.442l.962.858-.468 1.3c-.2253.6933-.286 1.3-.182 1.82.1214.52.2947.9706.52 1.352.0867.1906.26.3726.52.546.2774.1733.5374.2773.78.312.1387.0173.2687.0693.39.156.1214.0866.182.2253.182.416 0 .1733-.0346.312-.104.416-.0693.104-.1906.1733-.364.208-.572.0693-1.1093-.0694-1.612-.416-.4853-.3467-.936-.9187-1.352-1.716-.0693-.104-.1646-.2947-.286-.572-.104-.2947-.1646-.4854-.182-.572-.0693.0866-.1993.2513-.39.494-.1906.2253-.338.39-.442.494-1.2306 1.248-2.2966 2.0886-3.198 2.522-.884.416-1.6206.4333-2.21.052zm.936-1.456c0 .1213.182.1213.546 0 .3814-.1387.7887-.3814 1.222-.728.5894-.5027 1.1787-1.0574 1.768-1.664.6067-.6067 1.092-1.17 1.456-1.69l.572-.936c-.1733-.3987-.364-.6674-.572-.806-.1906-.156-.3553-.234-.494-.234-.2253 0-.5633.208-1.014.624-.4333.416-.9013.9706-1.404 1.664-.5026.6933-.9793 1.456-1.43 2.288-.1733.3466-.3293.6846-.468 1.014-.1213.312-.182.468-.182.468zm10.7256 1.482c-.156-.1214-.2686-.2427-.338-.364-.052-.1214-.052-.3554 0-.702.052-.4854.1214-.91.208-1.274.0867-.3814.1907-.8147.312-1.3.0347-.208.13-.5634.286-1.066.1734-.5027.3814-1.0487.624-1.638.2427-.5894.4854-1.144.728-1.664.2427-.5374.4507-.936.624-1.196.1387-.104.3034-.1474.494-.13.208.0173.3814.0953.52.234.1907.156.2167.4333.078.832-.1213.3813-.3813.988-.78 1.82-.208.468-.364.8233-.468 1.066-.104.2253-.1473.364-.13.416.0174.0346.0954.0086.234-.078.104-.1907.2947-.4074.572-.65.2774-.26.572-.5114.884-.754.312-.2427.6067-.4594.884-.65.2774-.1907.468-.312.572-.364.1387-.0867.2947-.156.468-.208.1907-.0694.3207-.1214.39-.156.3987-.1907.806-.26 1.222-.208s.676.208.78.468c.0174.1386.0694.2426.156.312.104.0693.156.104.156.104.0694 0 .104.026.104.078.0174.052.026.078.026.078 0 .1213-.0953.1993-.286.234-.1733.0173-.3986.0346-.676.052-.2253.0173-.4246.0606-.598.13-.1733.0693-.3813.156-.624.26-.6586.3813-1.2913.754-1.898 1.118-.5893.364-1.1613.8493-1.716 1.456-.1213.1386-.2426.3033-.364.494-.1213.1906-.2513.3986-.39.624-.0866.0866-.1733.2773-.26.572-.0866.2946-.1646.5806-.234.858-.052.26-.078.416-.078.468 0 0-.026.0866-.078.26-.052.156-.1386.312-.26.468-.208.2773-.3813.416-.52.416-.1386 0-.3466-.1387-.624-.416zm16.9352.598c-.1733 0-.3553-.0954-.546-.286-.1733-.1907-.3293-.4247-.468-.702-.1213-.2947-.182-.572-.182-.832s.0607-.7454.182-1.456c.1387-.7107.3033-1.43.494-2.158.1387-.4507.182-.7107.13-.78-.052-.0694-.286.026-.702.286-.2427.1213-.4593.2513-.65.39-.1907.1213-.3553.26-.494.416-.0867.0693-.2167.182-.39.338s-.3553.3033-.546.442c-.2253.1733-.5113.416-.858.728s-.6933.624-1.04.936c-.3293.312-.5807.5546-.754.728-.0347.0693-.0867.13-.156.182s-.1473.0866-.234.104c-.0867 0-.182-.0174-.286-.052-.1907-.052-.3727-.1647-.546-.338-.156-.1734-.234-.3727-.234-.598 0-.1734.0693-.468.208-.884.1387-.4334.3207-.9534.546-1.56.2427-.6067.52-1.248.832-1.924.052-.0867.0953-.1907.13-.312.0347-.1387.0607-.286.078-.442.0347-.156.052-.3034.052-.442 0-.0867.0087-.1734.026-.26.0347-.104.0693-.1994.104-.286.052-.104.0953-.1734.13-.208.0693-.1387.1907-.1734.364-.104.1733.052.3207.1733.442.364.26.2426.39.546.39.91.0173.364-.0693.8146-.26 1.352-.0693.1213-.13.2426-.182.364-.0347.104-.0693.1993-.104.286-.0347.0693-.0607.13-.078.182-.0173.0346-.026.052-.026.052.0693 0 .2253-.078.468-.234s.5287-.3294.858-.52c.26-.1907.4853-.364.676-.52.208-.1734.3813-.3034.52-.39.1387-.104.2253-.156.26-.156.0693 0 .156-.026.26-.078s.1907-.1127.26-.182c.0693-.0694.1213-.104.156-.104.052-.0174.078-.026.078-.026h.104c.0693-.0174.1387-.0607.208-.13.1387-.104.3207-.13.546-.078.2253.0346.4333.1213.624.26.1907.1386.286.2946.286.468 0 .0693.0173.13.052.182.052.0346.078.052.078.052.1387 0 .2253.2166.26.65.052.4333.0087.8493-.13 1.248 0 .26-.052.572-.156.936-.0867.364-.1647.7106-.234 1.04-.1387.4333-.234.8146-.286 1.144-.052.3293-.0607.6066-.026.832.0347.2253.0953.4073.182.546.0693.1213.0693.26 0 .416-.0693.1386-.208.208-.416.208zm6.1411.39c-.7627 0-1.3867-.286-1.872-.858-.4854-.5894-.7194-1.3174-.702-2.184.0346-.624.156-1.2914.364-2.002.2253-.728.52-1.4214.884-2.08.364-.676.7626-1.2654 1.196-1.768.4333-.5027.884-.858 1.352-1.066.1733-.0867.3553-.156.546-.208.208-.052.416-.078.624-.078.1906 0 .39.0346.598.104.208.052.3813.1126.52.182.2946.1213.52.2686.676.442.156.1733.2946.442.416.806.052.3293.078.5633.078.702 0 .1386-.0434.3466-.13.624-.208.624-.4767 1.1613-.806 1.612-.3294.4506-.7714.832-1.326 1.144-.1387.0866-.3034.156-.494.208-.1734.0346-.3554.052-.546.052-.3467 0-.6847-.0607-1.014-.182-.312-.1387-.5634-.338-.754-.598l-.182-.208-.078.208c-.1734.468-.312.9013-.416 1.3-.0867.3986-.13.7626-.13 1.092 0 .208.0173.4073.052.598.052.1906.1213.3553.208.494.0693.104.182.182.338.234.1733.0346.3553.052.546.052h.364c.1386-.0174.2686-.052.39-.104.2946-.104.5286-.2167.702-.338.1906-.1214.3813-.2514.572-.39l.104-.052h-.026c.208-.104.39-.208.546-.312.1733-.104.26-.156.26-.156.0693 0 .1386-.0434.208-.13.1386-.0694.312-.0434.52.078.2253.1213.338.2773.338.468-.0174.0866-.0954.2253-.234.416-.1387.1733-.2947.338-.468.494-.156.156-.286.2426-.39.26-.0174.0173-.078.052-.182.104-.104.0346-.1734.0693-.208.104h.026c-.156.208-.312.312-.468.312h-.208c-.0694.1213-.2947.26-.676.416-.3814.1386-.754.208-1.118.208zm1.17-5.72c.312 0 .5806-.0867.806-.26.2426-.1907.4506-.3987.624-.624.3466-.468.546-.9187.598-1.352.0693-.4507.0173-.7627-.156-.936-.104-.052-.1994-.078-.286-.078-.0694-.0174-.2167.0086-.442.078-.156.0346-.3727.1646-.65.39-.2774.2253-.5547.4766-.832.754-.26.2773-.4594.5113-.598.702l-.338.546c.1386-.052.2686-.078.39-.078.1386-.0174.2166-.0087.234.026 0 .156.026.3033.078.442.0693.1213.1473.2166.234.286.104.0693.2166.104.338.104zm7.181 5.278c-.8666 0-1.4993-.312-1.898-.936-.1213-.1734-.182-.3467-.182-.52.0174-.1907.0694-.3207.156-.39.104-.0694.2254-.0087.364.182.2427.1386.5894.208 1.04.208.2254 0 .4594-.0174.702-.052.2427-.052.4854-.1214.728-.208.26-.1214.4334-.2254.52-.312.0867-.104.0694-.1907-.052-.26h.026c-.4506-.1214-.91-.312-1.378-.572-.4506-.2774-.8406-.572-1.17-.884-.3293-.3294-.52-.624-.572-.884-.1386-.5374-.104-1.0834.104-1.638.208-.572.5027-1.0747.884-1.508.1387-.0867.312-.1907.52-.312.208-.1387.3727-.2167.494-.234v.026c.3294-.3467.728-.624 1.196-.832.4854-.208.9967-.3987 1.534-.572l.39-.052c.208-.0347.3814-.052.52-.052-.0173 0 .0174.0173.104.052.0867.0173.1647.0346.234.052.104.052.1907.078.26.078.2254.0346.4334.1386.624.312.1907.1733.338.3813.442.624.1214.2253.1647.442.13.65-.0346.3293-.1386.624-.312.884-.156.26-.3466.4073-.572.442.0347-.0174.0087-.0434-.078-.078-.0693-.052-.1473-.104-.234-.156l-.078.052s-.0086-.0174-.026-.052c0-.052-.0173-.1127-.052-.182-.052-.104-.078-.2167-.078-.338 0-.1387.0087-.286.026-.442.0347-.1907.0347-.3034 0-.338-.0173-.0347-.13-.0607-.338-.078-.2426-.052-.598-.0087-1.066.13-.4506.1386-.832.3293-1.144.572-.3813.2426-.702.4766-.962.702-.26.208-.468.416-.624.624-.156.1906-.2946.416-.416.676-.0866.1213-.1646.2426-.234.364-.052.104-.078.1993-.078.286 0 .1906.1387.39.416.598.2947.1906.728.416 1.3.676.4507.1906.832.3986 1.144.624.312.2253.5287.4853.65.78.0347.0693.0434.156.026.26 0 .0866-.0173.1473-.052.182.0347.0346.052.0606.052.078v-.026c.1387.208.1387.4246 0 .65-.1213.2253-.338.4246-.65.598-.2946.156-.6586.2773-1.092.364h.026c-.2253.0693-.4506.1213-.676.156-.208.0173-.4073.026-.598.026zm8.0554.468c-.3294-.1387-.6414-.3207-.936-.546-.2947-.2427-.4854-.442-.572-.598 0-.156.026-.26.078-.312.052-.0694.1993-.0954.442-.078.26 0 .676.0346 1.248.104.208 0 .468-.0174.78-.052.312-.0347.598-.0867.858-.156.2773-.0694.4333-.156.468-.26.0866 0 .104-.026.052-.078-.052-.0694-.1127-.1387-.182-.208-.0694 0-.1474-.026-.234-.078-.0867-.0694-.1647-.104-.234-.104 0-.0867-.0867-.182-.26-.286-.156-.1214-.3207-.2167-.494-.286-.3814-.312-.7107-.5894-.988-.832-.2774-.26-.3814-.4334-.312-.52 0-.0694 0-.104 0-.104 0-.0174 0-.026 0-.026-.1214 0-.26-.1734-.416-.52-.1387-.3467-.208-.6587-.208-.936 0-.208.0606-.468.182-.78.1213-.3294.286-.6674.494-1.014.208-.3467.4246-.6327.65-.858.312-.2947.702-.6067 1.17-.936.468-.3467.9273-.65 1.378-.91.468-.2774.858-.4594 1.17-.546.312-.1214.598-.182.858-.182.2773 0 .52.0606.728.182.1733.0866.3293.2166.468.39.156.156.286.3206.39.494.1213.156.1993.2946.234.416 0 .208-.0174.442-.052.702-.0347.2426-.0867.4593-.156.65-.052.1906-.1387.286-.26.286 0 0-.026.0086-.078.026-.0347 0-.052.0433-.052.13 0 .1733-.13.3726-.39.598-.3294.2253-.6154.364-.858.416-.2427.0346-.39-.0607-.442-.286-.052-.0694-.0867-.13-.104-.182-.0174-.052-.0607-.078-.13-.078 0 0-.026-.026-.078-.078s-.078-.1387-.078-.26c0-.0694.026-.13.078-.182.052-.0694.078-.104.078-.104.0866 0 .1993-.0954.338-.286.1386-.208.26-.4247.364-.65.1213-.2427.182-.4074.182-.494 0-.104-.0174-.1647-.052-.182-.0174-.0174-.0954-.026-.234-.026-.2427.104-.5374.2426-.884.416-.3467.1733-.676.3466-.988.52-.2947.156-.5114.3033-.65.442-.0694.1213-.1127.1993-.13.234-.0174.0173-.0607.026-.13.026 0-.0694-.0607-.0347-.182.104-.104.1213-.2427.2946-.416.52-.156.2253-.312.4506-.468.676-.1387.208-.2427.364-.312.468-.0347.0346-.078.1386-.13.312-.0347.156-.052.3033-.052.442-.0694.208-.0607.3553.026.442.0866.0693.2773.2253.572.468.6066.4506 1.0833.8233 1.43 1.118.3466.2946.6066.5373.78.728.1733.1906.2773.364.312.52.312.52.4073.9186.286 1.196-.1214.2773-.416.52-.884.728-.1734.0866-.4594.156-.858.208-.3987.052-.806.078-1.222.078-.416.0173-.7454.0086-.988-.026zm-65.7167 28.144c-.208 0-.3813-.1127-.52-.338-.104-.104-.1733-.2514-.208-.442-.0173-.1734.0434-.494.182-.962.1387-.4854.3727-1.222.702-2.21.1734-.6587.312-1.1354.416-1.43.104-.312.156-.5374.156-.676 0-.1907.0174-.3467.052-.468.052-.1387.078-.2687.078-.39.104 0 .208-.0954.312-.286.104-.1907.1907-.4507.26-.78.0694-.2947.13-.5287.182-.702.0694-.1907.104-.3207.104-.39.0867-.1387.1734-.3554.26-.65.104-.2947.26-.65.468-1.066.1387-.52.2947-1.0574.468-1.612.1734-.572.3467-1.1007.52-1.586.1907-.5027.3467-.8927.468-1.17.1907-.5374.338-.91.442-1.118.104-.2254.104-.3727 0-.442-.1213-.0867-.1473-.234-.078-.442.0694-.208.26-.442.572-.702.1907-.2254.3554-.3814.494-.468.1387-.104.312-.156.52-.156.2254 0 .546.0173.962.052.312.0173.6414.026.988.026h.676c.156.0693.3467.1473.572.234.2254.0693.4247.1386.598.208.1907.0693.286.13.286.182 0 .104.0347.1733.104.208.0867.0173.1734.0346.26.052.1214 0 .286.0953.494.286.208.1733.4247.3986.65.676.2254.26.3987.5373.52.832.1387.2946.2427.572.312.832.0867.26.0867.6326 0 1.118-.0173.26-.0606.52-.13.78-.052.26-.1126.4333-.182.52-.104.0693-.1993.156-.286.26-.0866.104-.13.1993-.13.286 0 .0693-.0606.208-.182.416-.1213.1906-.2773.416-.468.676-.1906.26-.3986.52-.624.78-.2253.26-.442.4853-.65.676-.2253.2773-.494.5373-.806.78-.2946.2426-.5633.442-.806.598-.4506.208-.9533.416-1.508.624-.5373.208-1.0573.3813-1.56.52-.4853.1386-.8926.1993-1.222.182-.5026.0693-.832.1386-.988.208-.1386.052-.2426.1993-.312.442-.0866.2253-.1733.4593-.26.702-.0693.2253-.104.3813-.104.468-.0346.0693-.1213.286-.26.65-.1213.3466-.26.754-.416 1.222-.1386.468-.2773.9273-.416 1.378-.1386.4506-.2426.8233-.312 1.118-.0693.2426-.156.3813-.26.416-.104.052-.234.078-.39.078zm3.224-8.06c.0694.0693.338.078.806.026s.9707-.182 1.508-.39c.3467-.1214.6934-.2687 1.04-.442.364-.1734.7107-.364 1.04-.572.1734-.1214.4334-.338.78-.65.3467-.312.6934-.6847 1.04-1.118.052-.0867.1387-.2514.26-.494.1387-.26.26-.5027.364-.728.156-.2427.312-.598.468-1.066.156-.4854.1907-.884.104-1.196-.0866-.4507-.312-.8667-.676-1.248-.364-.3987-.7973-.6674-1.3-.806-.3813-.0694-.702-.104-.962-.104-.2426 0-.5113.026-.806.078-.2773.0866-.4853.208-.624.364-.1213.156-.286.4853-.494.988-.1213.2426-.2946.6153-.52 1.118-.2253.4853-.416.9446-.572 1.378-.312 1.144-.624 2.0886-.936 2.834-.2946.728-.4766 1.1873-.546 1.378.0174.1906.0087.3293-.026.416-.0346.0693-.0173.1473.052.234zm9.6105 6.812c-.3293.0866-.598.0173-.806-.208-.1907-.2254-.3033-.572-.338-1.04s.0173-1.0227.156-1.664c.0867-.208.156-.4074.208-.598.052-.208.078-.3727.078-.494.0347-.1734.104-.4247.208-.754.104-.3467.2167-.702.338-1.066s.234-.6847.338-.962c.1213-.2947.1993-.4767.234-.546.0693 0 .13-.0607.182-.182.052-.1214.078-.2427.078-.364 0-.1387.026-.2947.078-.468.0693-.1734.1387-.2947.208-.364 0-.0867.0173-.182.052-.286.052-.1214.078-.2167.078-.286 0-.0694.0173-.1387.052-.208.052-.0694.078-.1387.078-.208.1213-.2254.2773-.5807.468-1.066.208-.5027.4247-1.0574.65-1.664.2427-.6067.468-1.2047.676-1.794.208-.5894.3727-1.0834.494-1.482.1387-.416.208-.6674.208-.754 0-.1387.0347-.2427.104-.312.0693-.0694.1733-.104.312-.104.052-.052.1127-.0867.182-.104.0867-.0174.1647-.026.234-.026 0 0 .0347.0346.104.104l.312.312c.1387.1213.2167.26.234.416.0347.156.052.338.052.546 0 .2253-.026.4246-.078.598-.052.1733-.156.4246-.312.754-.156.3293-.3987.8406-.728 1.534-.1387.3466-.286.676-.442.988-.156.2946-.234.4766-.234.546 0 .0693-.0347.1733-.104.312-.052.1386-.1127.312-.182.52-.0693.1386-.1647.3466-.286.624-.1213.26-.2513.546-.39.858-.1213.2946-.2253.5546-.312.78-.0867.208-.13.3293-.13.364 0 .0693-.0087.1386-.026.208 0 .0693-.0347.1386-.104.208-.0693 0-.1127.052-.13.156v.13c0 .1733-.1387.6326-.416 1.378-.2773.9533-.5373 1.8286-.78 2.626-.2253.7973-.338 1.4386-.338 1.924 0 .416-.0087.6933-.026.832-.0173.1213-.0953.2166-.234.286zm3.7946-.936c-.0694-.1387-.156-.2427-.26-.312-.104-.0867-.156-.1647-.156-.234 0-.0694-.0087-.1387-.026-.208 0-.0867-.0347-.1647-.104-.234-.0867-.104-.078-.338.026-.702.104-.3814.2773-.8407.52-1.378.2426-.5547.5286-1.1354.858-1.742.1386-.1387.2773-.3207.416-.546.1386-.2254.2426-.3727.312-.442 0-.0694.026-.13.078-.182.052-.0694.1126-.104.182-.104v-.156c0-.0867.078-.234.234-.442.1733-.208.3813-.4334.624-.676.2426-.26.494-.5027.754-.728.26-.2427.4766-.416.65-.52.364-.2427.7366-.39 1.118-.442.3986-.052.7366.0346 1.014.26l.26.26.416.416c.1733.1386.3466.286.52.442l.962.858-.468 1.3c-.2254.6933-.286 1.3-.182 1.82.1213.52.2946.9706.52 1.352.0866.1906.26.3726.52.546.2773.1733.5373.2773.78.312.1386.0173.2686.0693.39.156.1213.0866.182.2253.182.416 0 .1733-.0347.312-.104.416-.0694.104-.1907.1733-.364.208-.572.0693-1.1094-.0694-1.612-.416-.4854-.3467-.936-.9187-1.352-1.716-.0694-.104-.1647-.2947-.286-.572-.104-.2947-.1647-.4854-.182-.572-.0694.0866-.1994.2513-.39.494-.1907.2253-.338.39-.442.494-1.2307 1.248-2.2967 2.0886-3.198 2.522-.884.416-1.6207.4333-2.21.052zm.936-1.456c0 .1213.182.1213.546 0 .3813-.1387.7886-.3814 1.222-.728.5893-.5027 1.1786-1.0574 1.768-1.664.6066-.6067 1.092-1.17 1.456-1.69l.572-.936c-.1734-.3987-.364-.6674-.572-.806-.1907-.156-.3554-.234-.494-.234-.2254 0-.5634.208-1.014.624-.4334.416-.9014.9706-1.404 1.664-.5027.6933-.9794 1.456-1.43 2.288-.1734.3466-.3294.6846-.468 1.014-.1214.312-.182.468-.182.468zm13.4816 2.34c-.2427-.0694-.442-.1474-.598-.234-.156-.104-.364-.2687-.624-.494-.208-.2774-.3727-.5374-.494-.78-.104-.2427-.1733-.52-.208-.832-.0347-.3294-.052-.7454-.052-1.248 0-.208.0347-.52.104-.936.0867-.416.182-.8494.286-1.3.1213-.468.2253-.884.312-1.248.104-.364.1647-.598.182-.702.052-.2254-.0347-.3554-.26-.39-.2253-.0347-.4767-.0434-.754-.026-.26 0-.4333-.026-.52-.078-.0693-.0174-.104-.0434-.104-.078 0-.052 0-.078 0-.078 0-.0694-.0087-.1127-.026-.13 0-.0347-.026-.0954-.078-.182-.0347-.0694-.0173-.1647.052-.286.0867-.1387.2253-.2254.416-.26.156-.0347.364-.0607.624-.078.2773-.0347.5547-.0954.832-.182.2773-.104.5027-.26.676-.468.156-.3814.338-.806.546-1.274s.4073-.884.598-1.248c.208-.3814.3467-.6154.416-.702.2947-.156.5113-.2167.65-.182.1387.0173.2947.1646.468.442.0867.1213.1473.2166.182.286.052.0693.0607.1733.026.312-.0347.1386-.13.3553-.286.65-.1387.2946-.3553.7193-.65 1.274-.0867.1733-.1647.3293-.234.468-.0693.1213-.104.182-.104.182.0693.0173.1733.026.312.026s.312-.0087.52-.026c.1907-.0347.4333-.0607.728-.078.2947-.0347.5287-.0347.702 0 .3987 0 .6933.078.884.234.1907.1386.2947.3813.312.728.0347.1906-.0087.3033-.13.338-.104.0346-.39.052-.858.052-.156 0-.3987.0086-.728.026-.3293.0173-.676.0346-1.04.052-.3467.0173-.65.0433-.91.078-.2427.0173-.364.0433-.364.078-.052.0346-.1387.1993-.26.494-.104.2946-.2167.6326-.338 1.014-.104.364-.1993.6933-.286.988-.1213.5893-.2167 1.1786-.286 1.768-.052.5893-.0607 1.1006-.026 1.534.0347.4333.13.7366.286.91.156.156.4593.1906.91.104.4507-.104.8147-.2687 1.092-.494.312-.26.5633-.39.754-.39.208 0 .3207.0953.338.286.0347.1733-.0607.4246-.286.754-.208.312-.468.5893-.78.832-.312.2253-.6413.39-.988.494-.3293.0866-.6413.0866-.936 0zm6.8394 2.652c-.1213-.0347-.2513-.104-.39-.208-.1387-.0867-.208-.1647-.208-.234.0173-.1214.0433-.234.078-.338.0347-.0867.0607-.1734.078-.26.0347-.1734.052-.3814.052-.624 0-.2254.026-.6587.078-1.3.052-.6934.0953-1.274.13-1.742.052-.468.104-.884.156-1.248.052-.3814.1127-.7627.182-1.144.0867-.3814.1907-.832.312-1.352.0867-.5894.0867-.9534 0-1.092-.0693-.1387-.1993-.2167-.39-.234-.3293-.0347-.624-.0867-.884-.156-.2427-.0867-.3987-.234-.468-.442-.1733-.1734-.2167-.312-.13-.416s.26-.182.52-.234c.2773-.0694.572-.0954.884-.078.2947-.0174.52-.0347.676-.052.1733-.0347.312-.1214.416-.26.104-.156.208-.416.312-.78.0347-.156.0953-.3727.182-.65.104-.2774.1907-.5287.26-.754.0867-.2254.13-.338.13-.338.156-.1214.234-.2774.234-.468.0173-.2427.13-.5634.338-.962.2253-.416.5807-.9967 1.066-1.742.5893-.7627 1.118-1.3607 1.586-1.794.4853-.4334 1.0487-.702 1.69-.806.0693-.0347.2253-.052.468-.052h.494c.364.0173.6153.0866.754.208.1387.1213.286.3293.442.624.1387.2253.156.5373.052.936-.0867.3813-.1993.676-.338.884-.0867.1386-.2167.2946-.39.468-.156.1733-.312.3293-.468.468-.1387.1213-.2427.182-.312.182-.0867 0-.1733-.026-.26-.078-.0693-.0694-.1387-.1127-.208-.13-.156-.0694-.182-.1907-.078-.364.104-.1907.2167-.3727.338-.546.1733-.26.286-.468.338-.624s.0693-.2947.052-.416c-.0173-.1214-.052-.2687-.104-.442l.234.234c-.1213-.0694-.26-.0954-.416-.078-.156.0173-.3293.0606-.52.13-.3293.1733-.598.364-.806.572-.208.1906-.3813.3553-.52.494-.416.364-.754.806-1.014 1.326s-.5027 1.0053-.728 1.456c-.0693.1386-.1907.3986-.364.78-.156.364-.3033.7106-.442 1.04-.1213.312-.2427.5893-.364.832-.1213.2253-.182.364-.182.416-.052.1213-.026.182.078.182.1213 0 .3553-.0087.702-.026.8493-.104 1.482-.13 1.898-.078.4333.0346.6847.1906.754.468.2947.416.2513.676-.13.78-.364.0866-1.04.1993-2.028.338-.2773.0173-.5547.0346-.832.052-.2773 0-.4593.0086-.546.026-.0693.0173-.1387.0433-.208.078-.0693.0346-.1473.208-.234.52-.0173.1906-.052.4246-.104.702-.0347.26-.0607.5113-.078.754-.0693.208-.1213.4246-.156.65-.0173.2253-.0693.4246-.156.598-.104.9533-.1733 1.8373-.208 2.652-.0347.7973-.0867 1.482-.156 2.054-.052.572-.1907 1.014-.416 1.326-.1213.1386-.2513.2426-.39.312-.1213.0866-.234.0866-.338 0zm8.8144-3.588c-.364.0693-.598.0953-.702.078-.0867-.0347-.2253-.1387-.416-.312-.2773-.1387-.5113-.312-.702-.52-.1733-.208-.3033-.4247-.39-.65-.0693-.2427-.0953-.442-.078-.598.052-.6067.1993-1.2567.442-1.95.2427-.6934.5373-1.3607.884-2.002.3467-.6414.7193-1.1874 1.118-1.638.416-.468.8147-.7714 1.196-.91.3467-.1387.676-.1907.988-.156.312.0346.5373.1993.676.494.26.5026.1993.8233-.182.962-.052 0-.1127.026-.182.078-.0693.0346-.104.0866-.104.156.0693.0346.26.0433.572.026.312-.0347.624-.0867.936-.156.3293-.0867.546-.1734.65-.26.104-.052.182-.078.234-.078s.182.0173.39.052c.2947.0866.442.1906.442.312 0 .0693.026.1386.078.208.052.052.1127.078.182.078.1213.0173.104.0953-.052.234-.1387.1386-.3813.3293-.728.572-.3293.208-.5373.3466-.624.416-.0693.052-.078.1733-.026.364.1387.3293.1473.7106.026 1.144-.1213.4333-.338.8753-.65 1.326-.312.4506-.6933.8753-1.144 1.274-.4333.3813-.9013.7106-1.404.988-.4853.26-.962.416-1.43.468zm-.442-1.144c.0693 0 .1907-.0347.364-.104.1733-.0867.312-.156.416-.208.0693-.0694.156-.1474.26-.234.1213-.104.2167-.1647.286-.182.0693 0 .156-.026.26-.078.104-.0694.2513-.1994.442-.39.1907-.208.442-.5114.754-.91.3467-.3814.6153-.728.806-1.04.1907-.3294.2427-.6327.156-.91-.0173-.0694-.0693-.1127-.156-.13-.0693-.0174-.1647-.0607-.286-.13-.1733 0-.338-.0434-.494-.13-.1387-.104-.3033-.234-.494-.39l-.416-.52-.442.442c-.2773.2773-.572.6933-.884 1.248-.2947.5373-.546 1.092-.754 1.664-.208.5546-.3293.9966-.364 1.326-.0173.26.026.4333.13.52.104.0866.2427.1386.416.156zm7.372 1.222c-.156-.1214-.2686-.2427-.338-.364-.052-.1214-.052-.3554 0-.702.052-.4854.1214-.91.208-1.274.0867-.3814.1907-.8147.312-1.3.0347-.208.13-.5634.286-1.066.1734-.5027.3814-1.0487.624-1.638.2427-.5894.4854-1.144.728-1.664.2427-.5374.4507-.936.624-1.196.1387-.104.3034-.1474.494-.13.208.0173.3814.0953.52.234.1907.156.2167.4333.078.832-.1213.3813-.3813.988-.78 1.82-.208.468-.364.8233-.468 1.066-.104.2253-.1473.364-.13.416.0174.0346.0954.0086.234-.078.104-.1907.2947-.4074.572-.65.2774-.26.572-.5114.884-.754.312-.2427.6067-.4594.884-.65.2774-.1907.468-.312.572-.364.1387-.0867.2947-.156.468-.208.1907-.0694.3207-.1214.39-.156.3987-.1907.806-.26 1.222-.208s.676.208.78.468c.0174.1386.0694.2426.156.312.104.0693.156.104.156.104.0694 0 .104.026.104.078.0174.052.026.078.026.078 0 .1213-.0953.1993-.286.234-.1733.0173-.3986.0346-.676.052-.2253.0173-.4246.0606-.598.13-.1733.0693-.3813.156-.624.26-.6586.3813-1.2913.754-1.898 1.118-.5893.364-1.1613.8493-1.716 1.456-.1213.1386-.2426.3033-.364.494-.1213.1906-.2513.3986-.39.624-.0866.0866-.1733.2773-.26.572-.0866.2946-.1646.5806-.234.858-.052.26-.078.416-.078.468 0 0-.026.0866-.078.26-.052.156-.1386.312-.26.468-.208.2773-.3813.416-.52.416-.1386 0-.3466-.1387-.624-.416zm9.6032-.052c-.052-.0694-.104-.156-.156-.26-.0347-.104-.052-.1907-.052-.26 0-.0347-.0087-.078-.026-.13 0-.052-.0347-.078-.104-.078-.052-.052-.0174-.2514.104-.598.1386-.364.312-.78.52-1.248.2253-.468.4506-.9187.676-1.352.2426-.4507.442-.806.598-1.066.0866-.052.1386-.1214.156-.208.0346-.104.0346-.156 0-.156 0 0 .0433-.078.13-.234.104-.1734.182-.286.234-.338.1386-.2427.2426-.4854.312-.728.0693-.26.0866-.4767.052-.65-.0694-.0867-.1474-.1127-.234-.078-.0867.0346-.13.052-.13.052-.0694.0173-.1734.052-.312.104-.1214.0346-.234.0866-.338.156-.3987.2773-.6674.4073-.806.39-.1387-.0347-.2947-.26-.468-.676-.0694-.1907-.0954-.3294-.078-.416.0173-.0867.0866-.182.208-.286.1386-.1214.2686-.1994.39-.234.1213-.052.2166-.104.286-.156.1906-.1214.3466-.208.468-.26.1386-.052.2426-.0867.312-.104.4506-.1387.832-.1647 1.144-.078.312.0866.546.312.702.676.2426.2946.364.6326.364 1.014 0 .364-.1214.7886-.364 1.274l-.26.39c-.0867.1733-.104.26-.052.26.0693 0 .1473-.0607.234-.182.052-.0694.156-.1734.312-.312.156-.1387.26-.208.312-.208 0 0 .0173-.0087.052-.026.052-.0174.078-.0867.078-.208.052-.052.104-.104.156-.156.0693-.052.104-.078.104-.078.0693 0 .1993-.078.39-.234.208-.1734.4506-.3727.728-.598.1906-.1387.364-.208.52-.208.3986-.1214.7193.0086.962.39.26.3813.39.8753.39 1.482l-.546 1.404.936-1.144c.104-.1387.208-.26.312-.364.1213-.104.2253-.1907.312-.26.0346-.1214.0866-.1907.156-.208.0693-.0174.104-.026.104-.026h.052c.0346-.0174.052-.052.052-.104.0866-.0694.182-.13.286-.182.104-.0694.1733-.1387.208-.208.2946-.1214.5633-.1387.806-.052.2426.0693.4506.286.624.65.1213.208.1906.39.208.546.0173.156.026.39.026.702-.0347.26-.0694.468-.104.624-.0174.1386-.0347.286-.052.442-.0174.156-.0434.3726-.078.65-.0694.1386-.1127.286-.13.442v.442c0 .2253.0086.3813.026.468.0173.0693.0866.104.208.104.2426-.052.572-.1734.988-.364.4333-.208.754-.4074.962-.598.26-.2427.4853-.364.676-.364.208-.0174.338.078.39.286.0346.0693-.026.2253-.182.468-.1387.2426-.3034.4766-.494.702-.1734.2253-.3034.338-.39.338-.052 0-.1127.052-.182.156-.0694.0866-.1474.156-.234.208-.1214.1213-.2427.234-.364.338-.104.104-.2254.156-.364.156-.0694 0-.156.026-.26.078-.0867.0346-.1907.052-.312.052-.1734.052-.442.026-.806-.078-.3467-.104-.572-.3467-.676-.728-.0694-.1907-.13-.494-.182-.91-.052-.4334-.0434-.8667.026-1.3.0693-.312.1126-.598.13-.858.0173-.26.052-.442.104-.546 0-.052 0-.1734 0-.364 0-.208-.026-.312-.078-.312-.0694 0-.234.13-.494.39-.2427.2426-.5374.5546-.884.936-.3294.3813-.6587.78-.988 1.196-.3294.416-.598.7886-.806 1.118-.156.1906-.2947.4246-.416.702-.1214.2773-.208.4333-.26.468-.1214.1386-.2687.156-.442.052-.156-.104-.3034-.2687-.442-.494-.052-.104-.0867-.1907-.104-.26-.0174-.0867-.0174-.1994 0-.338.0346-.156.0953-.3814.182-.676.104-.2947.2426-.7107.416-1.248.1906-.5894.3553-1.118.494-1.586.156-.4854.234-.728.234-.728 0-.0694-.13 0-.39.208-.26.1906-.5634.4333-.91.728-.156.1906-.416.4766-.78.858-.364.3813-.7627.8146-1.196 1.3-.4334.4853-.8494.9966-1.248 1.534-.5027.7106-.858 1.144-1.066 1.3-.1907.156-.3814.1126-.572-.13z" fill="#000"/></svg>