<svg enable-background="new 0 0 512 512" viewBox="0 0 512 512" xmlns="http://www.w3.org/2000/svg" xmlns:xlink="http://www.w3.org/1999/xlink"><linearGradient id="a" gradientUnits="userSpaceOnUse" x1="288.4383" x2="261.1489" y1="261.3354" y2="218.608"><stop offset="0" stop-color="#f89f20"/><stop offset=".2502" stop-color="#f79a20"/><stop offset=".5331" stop-color="#f68d20"/><stop offset=".6196" stop-color="#f58720"/><stop offset=".7232" stop-color="#f48120"/><stop offset="1" stop-color="#f37521"/></linearGradient><linearGradient id="b" gradientUnits="userSpaceOnUse" x1="284.1299" x2="244.2456" y1="260.7604" y2="182.804"><stop offset="0" stop-color="#f58720"/><stop offset=".3587" stop-color="#e16f27"/><stop offset=".703" stop-color="#d4602c"/><stop offset=".9816" stop-color="#d05b2e"/></linearGradient><path d="m1.75 94.2h508.36v323.64h-508.22z" fill="#fff"/><path d="m508.36 274.21s-138.91 97.95-393.3 141.88h393.3z" fill="#f48120"/><g fill="#231f20"><path d="m510.11 92.31h-510.11v327.41h512v-327.54h-1.89zm-1.75 3.64v320c-3.64 0-500.95 0-504.59 0 0-3.64 0-316.36 0-320z"/><path d="m44.73 192.42h-21.15v74.11h21.15c11.18 0 19.27-2.69 26.41-8.49 8.49-7.01 13.47-17.52 13.47-28.43-.13-21.96-16.43-37.19-39.88-37.19zm16.98 55.78c-4.58 4.04-10.37 5.93-19.81 5.93h-3.9v-49.04h3.91c9.3 0 14.96 1.62 19.81 5.93 4.99 4.45 7.95 11.32 7.95 18.46-.01 7.14-2.98 14.28-7.96 18.72z"/><path d="m91.22 192.42h14.42v74.11h-14.42z"/><path d="m140.93 220.85c-8.62-3.23-11.18-5.39-11.18-9.3 0-4.72 4.58-8.22 10.78-8.22 4.31 0 7.95 1.75 11.59 6.06l7.55-9.84c-6.2-5.39-13.61-8.22-21.83-8.22-13.07 0-23.17 9.16-23.17 21.29 0 10.24 4.72 15.49 18.19 20.35 5.66 2.02 8.49 3.37 9.97 4.18 2.83 1.89 4.31 4.58 4.31 7.68 0 6.06-4.72 10.51-11.18 10.51-6.87 0-12.4-3.5-15.76-9.84l-9.3 9.03c6.6 9.84 14.69 14.15 25.6 14.15 14.96 0 25.6-9.97 25.6-24.39.26-11.99-4.73-17.38-21.17-23.44z"/><path d="m166.8 229.61c0 21.83 17.11 38.67 39.07 38.67 6.2 0 11.59-1.21 18.05-4.31v-16.98c-5.79 5.79-10.91 8.08-17.38 8.08-14.55 0-24.93-10.51-24.93-25.6 0-14.28 10.64-25.47 24.25-25.47 6.87 0 12.13 2.43 18.05 8.35v-16.98c-6.33-3.23-11.59-4.58-17.79-4.58-21.67.01-39.32 17.26-39.32 38.82z"/><path d="m338.73 242.27-19.81-49.85h-15.76l31.39 75.99h7.82l31.93-75.99h-15.63z"/><path d="m380.9 266.53h40.96v-12.53h-26.54v-19.94h25.6v-12.54h-25.6v-16.43h26.54v-12.67h-40.96z"/><path d="m479.12 214.38c0-13.88-9.57-21.83-26.27-21.83h-21.42v74.11h14.42v-29.78h1.89l19.94 29.78h17.79l-23.31-31.26c10.9-2.29 16.96-9.7 16.96-21.02zm-29.1 12.26h-4.18v-22.5h4.45c9.03 0 13.88 3.77 13.88 11.05 0 7.41-4.85 11.45-14.15 11.45z"/></g><circle cx="268.26" cy="229.74" fill="url(#a)" r="39.48"/><circle cx="268.26" cy="229.74" fill="url(#b)" opacity=".65" r="39.48"/><path d="m488.29 195.25c0-1.35-.94-2.02-2.43-2.02h-2.16v6.47h1.62v-2.56l1.89 2.56h1.89l-2.16-2.69c.81-.14 1.35-.82 1.35-1.76zm-2.7.94h-.27v-1.75h.27c.81 0 1.21.27 1.21.81 0 .67-.4.94-1.21.94z" fill="#231f20"/><path d="m486.13 190.8c-3.1 0-5.66 2.56-5.66 5.66s2.56 5.66 5.66 5.66 5.66-2.56 5.66-5.66-2.56-5.66-5.66-5.66zm0 10.38c-2.43 0-4.58-2.02-4.58-4.72 0-2.56 2.02-4.72 4.58-4.72 2.43 0 4.45 2.16 4.45 4.72s-2.02 4.72-4.45 4.72z" fill="#231f20"/></svg>