<svg height="1.5in" viewBox="0 0 152.407 108" width="2.11676in" xmlns="http://www.w3.org/2000/svg"><path d="m0 0h152.407v108h-152.407z" fill="none"/><path d="m60.4117 25.6968h31.5v56.6064h-31.5z" fill="#ff5f00"/><g transform="translate(-319.79649 -252)"><path d="m382.20839 306a35.9375 35.9375 0 0 1 13.7499-28.3032 36 36 0 1 0 0 56.6064 35.938 35.938 0 0 1 -13.7499-28.3032z" fill="#eb001b"/><path d="m454.20349 306a35.99867 35.99867 0 0 1 -58.2452 28.3032 36.00518 36.00518 0 0 0 0-56.6064 35.99867 35.99867 0 0 1 58.2452 28.3032z" fill="#f79e1b"/><path d="m450.76889 328.3077v-1.1589h.4673v-.2361h-1.1901v.2361h.4675v1.1589zm2.3105 0v-1.3973h-.3648l-.41959.9611-.41971-.9611h-.365v1.3973h.2576v-1.054l.3935.9087h.2671l.39351-.911v1.0563z" fill="#f79e1b"/></g></svg>