<svg fill="none" height="153" viewBox="0 0 372 153" width="372" xmlns="http://www.w3.org/2000/svg" xmlns:xlink="http://www.w3.org/1999/xlink"><filter id="a" color-interpolation-filters="sRGB" filterUnits="userSpaceOnUse" height="25.2738" width="31.7128" x="120.915" y=".040039"><feFlood flood-opacity="0" result="BackgroundImageFix"/><feColorMatrix in="SourceAlpha" type="matrix" values="0 0 0 0 0 0 0 0 0 0 0 0 0 0 0 0 0 0 127 0"/><feOffset/><feGaussianBlur stdDeviation="2"/><feColorMatrix type="matrix" values="0 0 0 0 0.811765 0 0 0 0 0.137255 0 0 0 0 0.0941176 0 0 0 0.5 0"/><feBlend in2="BackgroundImageFix" mode="normal" result="effect1_dropShadow"/><feBlend in="SourceGraphic" in2="effect1_dropShadow" mode="normal" result="shape"/></filter><path d="m5.58 25.85c0 .5267-.19.97-.57 1.33-.37333.36-.87.58-1.49.66v.71c0 .1334-.04.24-.12.32-.07333.08-.17333.12-.3.12s-.23-.04-.31-.12c-.07333-.08-.11-.1866-.11-.32v-.69c-.4-.0333-.78667-.1133-1.16-.24-.36667-.1333-.68-.3133-.94-.54-.126667-.0933-.19-.2266-.19-.4 0-.12.03-.22.09-.3.066667-.0866.146667-.13.24-.13s.206667.0434.34.13c.64.4334 1.28667.65 1.94.65.49333 0 .87333-.1 1.14-.3.27333-.2.41-.4833.41-.85 0-.22-.07333-.3966-.22-.53-.14-.14-.32-.25-.54-.33-.21333-.08-.51-.1666-.89-.26-.5-.1266-.90667-.2533-1.22-.38-.31333-.1266-.58333-.3233-.81-.59-.22-.2666-.33-.62-.33-1.06 0-.54.193333-.9966.58-1.37.39333-.38.91-.6066 1.55-.68v-.7c0-.1333.03667-.24.11-.32.08-.08.18333-.12.31-.12s.22667.04.3.12c.08.08.12.1867.12.32v.7c.34.0334.66333.1167.97.25.31333.1267.59.3.83.52.13333.1067.2.24.2.4 0 .1134-.03333.2134-.1.3-.06667.0867-.14667.13-.24.13s-.20667-.0433-.34-.13c-.28667-.22-.56-.3833-.82-.49-.26-.1066-.56667-.16-.92-.16-.46 0-.82667.1067-1.1.32-.27333.2134-.41.5034-.41.87 0 .2467.07667.4467.23.6.15333.1534.34333.2734.57.36.22667.08.53667.1667.93.26.48667.12.88.2434 1.18.37.3.12.55667.3067.77.56.21333.2467.32.5834.32 1.01zm6.4128-2.53c.42 0 .7967.0967 1.13.29.3333.1867.59.45.77.79.1867.34.28.73.28 1.17s-.1.8367-.3 1.19c-.2.3467-.4767.62-.83.82-.3467.1934-.7433.29-1.19.29-.8733 0-1.5467-.2966-2.01999-.89-.46666-.6-.7-1.4533-.7-2.56 0-.78.11-1.45.33-2.01.22-.5666.53667-1 .94999-1.3.4133-.3.9033-.45 1.47-.45.38 0 .76.07 1.14.21s.7033.3334.97.58c.1333.1134.2.2467.2.4 0 .12-.0333.2234-.1.31-.0667.08-.1467.12-.24.12-.06 0-.1167-.01-.17-.03-.0467-.02-.1033-.0533-.17-.1-.56-.4333-1.0933-.65-1.6-.65-.5533 0-.9833.2567-1.29.77-.3067.5067-.46 1.2167-.46 2.13v.02c.1467-.34.3833-.6066.71-.8.3333-.2.7067-.3 1.12-.3zm-.19 3.71c.4133 0 .7433-.13.99-.39.2533-.2666.38-.6166.38-1.05 0-.4266-.1267-.77-.38-1.03-.2467-.2666-.5767-.4-.99-.4-.42 0-.7633.1334-1.03.4-.26.26-.39.6034-.39 1.03 0 .4334.13.7834.39 1.05.26.26.6033.39 1.03.39zm5.8163.84c-.82 0-1.4466-.3066-1.88-.92-.4266-.6133-.64-1.5066-.64-2.68 0-1.18.2134-2.0766.64-2.69.4334-.6133 1.06-.92 1.88-.92s1.4434.3067 1.87.92c.4334.6067.65 1.5.65 2.68s-.2166 2.0767-.65 2.69c-.4266.6134-1.05.92-1.87.92zm0-.83c.5134 0 .89-.2233 1.13-.67.24-.4466.36-1.15.36-2.11s-.12-1.66-.36-2.1c-.24-.4466-.6166-.67-1.13-.67-.5133 0-.89.2234-1.13.67-.24.44-.36 1.14-.36 2.1 0 .9534.12 1.6567.36 2.11.24.4467.6167.67 1.13.67zm5.9961.83c-.82 0-1.4466-.3066-1.88-.92-.4266-.6133-.64-1.5066-.64-2.68 0-1.18.2134-2.0766.64-2.69.4334-.6133 1.06-.92 1.88-.92s1.4434.3067 1.87.92c.4334.6067.65 1.5.65 2.68s-.2166 2.0767-.65 2.69c-.4266.6134-1.05.92-1.87.92zm0-.83c.5134 0 .89-.2233 1.13-.67.24-.4466.36-1.15.36-2.11s-.12-1.66-.36-2.1c-.24-.4466-.6166-.67-1.13-.67-.5133 0-.89.2234-1.13.67-.24.44-.36 1.14-.36 2.1 0 .9534.12 1.6567.36 2.11.24.4467.6167.67 1.13.67zm5.9961.83c-.82 0-1.4466-.3066-1.88-.92-.4266-.6133-.64-1.5066-.64-2.68 0-1.18.2134-2.0766.64-2.69.4334-.6133 1.06-.92 1.88-.92s1.4434.3067 1.87.92c.4334.6067.65 1.5.65 2.68s-.2166 2.0767-.65 2.69c-.4266.6134-1.05.92-1.87.92zm0-.83c.5134 0 .89-.2233 1.13-.67.24-.4466.36-1.15.36-2.11s-.12-1.66-.36-2.1c-.24-.4466-.6166-.67-1.13-.67-.5133 0-.89.2234-1.13.67-.24.44-.36 1.14-.36 2.1 0 .9534.12 1.6567.36 2.11.24.4467.6167.67 1.13.67zm-24.0313 54.81c0 .5267-.19.97-.57 1.33-.37333.36-.87.58-1.49.66v.71c0 .1334-.04.24-.12.32-.07333.08-.17333.12-.3.12s-.23-.04-.31-.12c-.07333-.08-.11-.1866-.11-.32v-.69c-.4-.0333-.78667-.1133-1.16-.24-.36667-.1333-.68-.3133-.94-.54-.126667-.0933-.19-.2266-.19-.4 0-.12.03-.22.09-.3.066667-.0866.146667-.13.24-.13s.206667.0434.34.13c.64.4334 1.28667.65 1.94.65.49333 0 .87333-.1 1.14-.3.27333-.2.41-.4833.41-.85 0-.22-.07333-.3966-.22-.53-.14-.14-.32-.25-.54-.33-.21333-.08-.51-.1666-.89-.26-.5-.1266-.90667-.2533-1.22-.38-.31333-.1266-.58333-.3233-.81-.59-.22-.2666-.33-.62-.33-1.06 0-.54.193333-.9966.58-1.37.39333-.38.91-.6066 1.55-.68v-.7c0-.1333.03667-.24.11-.32.08-.08.18333-.12.31-.12s.22667.04.3.12c.08.08.12.1867.12.32v.7c.34.0334.66333.1167.97.25.31333.1267.59.3.83.52.13333.1067.2.24.2.4 0 .1134-.03333.2134-.1.3-.06667.0867-.14667.13-.24.13s-.20667-.0433-.34-.13c-.28667-.22-.56-.3833-.82-.49-.26-.1066-.56667-.16-.92-.16-.46 0-.82667.1067-1.1.32-.27333.2134-.41.5034-.41.87 0 .2467.07667.4467.23.6.15333.1534.34333.2734.57.36.22667.08.53667.1667.93.26.48667.12.88.2434 1.18.37.3.12.55667.3067.77.56.21333.2467.32.5834.32 1.01zm7.0628-1.68c.4267.12.75.3267.97.62.22.2867.33.65.33 1.09 0 .6134-.2167 1.0967-.65 1.45-.4267.3534-1.0067.53-1.74.53-.4333 0-.85-.07-1.25-.21-.39332-.14-.72665-.3333-.99999-.58-.13333-.1066-.2-.24-.2-.4 0-.12.03334-.22.1-.3.06667-.0866.14667-.13.24-.13.1 0 .21334.0434.34.13.28669.2134.56669.3767.83999.49.28.1067.58.16.9.16.9467 0 1.42-.4033 1.42-1.21 0-.3933-.1267-.6866-.38-.88-.2467-.2-.6233-.3-1.13-.3h-.55c-.1267 0-.2267-.04-.3-.12-.0733-.0866-.11-.1866-.11-.3 0-.1066.0367-.2.11-.28.0733-.0866.1733-.13.3-.13h.39c.4867 0 .8567-.1 1.11-.3.26-.2066.39-.5066.39-.9 0-.3466-.1067-.6166-.32-.81-.2067-.1933-.5-.29-.88-.29-.56 0-1.12.2167-1.67999.65-.12666.0867-.24.13-.34.13-.09333 0-.17333-.04-.24-.12-.06666-.0866-.1-.19-.1-.31 0-.16.06667-.2933.2-.4.27334-.2466.60329-.44.98999-.58.3933-.14.7967-.21 1.21-.21.66 0 1.1867.1667 1.58.5.3933.3334.5867.78.58 1.34 0 .3867-.1.73-.3 1.03-.2.2934-.4767.5067-.83.64zm4.9861 3.7c-.82 0-1.4467-.3066-1.88-.92-.4267-.6133-.64-1.5066-.64-2.68 0-1.18.2133-2.0766.64-2.69.4333-.6133 1.06-.92 1.88-.92s1.4433.3067 1.87.92c.4333.6067.65 1.5.65 2.68s-.2167 2.0767-.65 2.69c-.4267.6134-1.05.92-1.87.92zm0-.83c.5133 0 .89-.2233 1.13-.67.24-.4466.36-1.15.36-2.11s-.12-1.66-.36-2.1c-.24-.4466-.6167-.67-1.13-.67s-.89.2234-1.13.67c-.24.44-.36 1.14-.36 2.1 0 .9534.12 1.6567.36 2.11.24.4467.6167.67 1.13.67zm5.9961.83c-.82 0-1.4467-.3066-1.88-.92-.4267-.6133-.64-1.5066-.64-2.68 0-1.18.2133-2.0766.64-2.69.4333-.6133 1.06-.92 1.88-.92s1.4433.3067 1.87.92c.4333.6067.65 1.5.65 2.68s-.2167 2.0767-.65 2.69c-.4267.6134-1.05.92-1.87.92zm0-.83c.5133 0 .89-.2233 1.13-.67.24-.4466.36-1.15.36-2.11s-.12-1.66-.36-2.1c-.24-.4466-.6167-.67-1.13-.67s-.89.2234-1.13.67c-.24.44-.36 1.14-.36 2.1 0 .9534.12 1.6567.36 2.11.24.4467.6167.67 1.13.67zm5.9961.83c-.82 0-1.4467-.3066-1.88-.92-.4267-.6133-.64-1.5066-.64-2.68 0-1.18.2133-2.0766.64-2.69.4333-.6133 1.06-.92 1.88-.92s1.4433.3067 1.87.92c.4333.6067.65 1.5.65 2.68s-.2167 2.0767-.65 2.69c-.4267.6134-1.05.92-1.87.92zm0-.83c.5133 0 .89-.2233 1.13-.67.24-.4466.36-1.15.36-2.11s-.12-1.66-.36-2.1c-.24-.4466-.6167-.67-1.13-.67s-.89.2234-1.13.67c-.24.44-.36 1.14-.36 2.1 0 .9534.12 1.6567.36 2.11.24.4467.6167.67 1.13.67zm-24.0411 54.81c0 .527-.19.97-.57 1.33-.37333.36-.87.58-1.49.66v.71c0 .133-.04.24-.12.32-.07333.08-.17333.12-.3.12s-.23-.04-.31-.12c-.07333-.08-.11-.187-.11-.32v-.69c-.4-.033-.78667-.113-1.16-.24-.36667-.133-.68-.313-.94-.54-.126667-.093-.19-.227-.19-.4 0-.12.03-.22.09-.3.066667-.087.146667-.13.24-.13s.206667.043.34.13c.64.433 1.28667.65 1.94.65.49333 0 .87333-.1 1.14-.3.27333-.2.41-.483.41-.85 0-.22-.07333-.397-.22-.53-.14-.14-.32-.25-.54-.33-.21333-.08-.51-.167-.89-.26-.5-.127-.90667-.253-1.22-.38s-.58333-.323-.81-.59c-.22-.267-.33-.62-.33-1.06 0-.54.193333-.997.58-1.37.39333-.38.91-.607 1.55-.68v-.7c0-.133.03667-.24.11-.32.08-.08.18333-.12.31-.12s.22667.04.3.12c.08.08.12.187.12.32v.7c.34.033.66333.117.97.25.31333.127.59.3.83.52.13333.107.2.24.2.4 0 .113-.03333.213-.1.3s-.14667.13-.24.13-.20667-.043-.34-.13c-.28667-.22-.56-.383-.82-.49s-.56667-.16-.92-.16c-.46 0-.82667.107-1.1.32s-.41.503-.41.87c0 .247.07667.447.23.6s.34333.273.57.36c.22667.08.53667.167.93.26.48667.12.88.243 1.18.37.3.12.55667.307.77.56.21333.247.32.583.32 1.01zm6.0528 2.02c-.82 0-1.4467-.307-1.87999-.92-.42666-.613-.64-1.507-.64-2.68 0-1.18.21334-2.077.64-2.69.43329-.613 1.05999-.92 1.87999-.92s1.4433.307 1.87.92c.4333.607.65 1.5.65 2.68s-.2167 2.077-.65 2.69c-.4267.613-1.05.92-1.87.92zm0-.83c.5133 0 .89-.223 1.13-.67s.36-1.15.36-2.11-.12-1.66-.36-2.1c-.24-.447-.6167-.67-1.13-.67s-.89.223-1.13.67c-.24.44-.36 1.14-.36 2.1 0 .953.12 1.657.36 2.11.24.447.6167.67 1.13.67z" fill="#9aa5b5"/><g opacity=".8"><path d="m223.519 44.8853 32.134-8.5217 18.847-6.6532 33.206-4.6904 33.388-9.6481 29.364-9.86666" opacity=".499674" stroke="#00ade4" stroke-dasharray="1 4" stroke-linecap="square" stroke-width="2"/><g fill="#b0b1c4"><path d="m293.379 150.805c1.57.011 2.624-1.068 2.621-2.507.003-1.374-.977-2.368-2.252-2.368-.781 0-1.47.38-1.818 1.005h-.05c.004-1.531.565-2.461 1.574-2.461.625 0 1.047.362 1.182.92h1.296c-.156-1.176-1.104-2.06-2.478-2.06-1.748 0-2.852 1.456-2.852 3.942-.004 2.667 1.381 3.522 2.777 3.529zm-.007-1.065c-.778 0-1.346-.643-1.35-1.403.008-.763.597-1.402 1.368-1.402.77 0 1.335.611 1.331 1.392.004.795-.579 1.413-1.349 1.413zm6.811-6.648h-1.126l-2.344 8.708h1.126zm3.764.341h-1.253l-1.808 1.162v1.207l1.701-1.087h.043v5.991h1.317zm4.372-.099c-1.577-.011-2.625 1.072-2.625 2.493.004 1.371.98 2.361 2.255 2.361.785 0 1.467-.38 1.818-1.005h.05c-.003 1.556-.568 2.483-1.573 2.483-.629 0-1.051-.363-1.182-.941h-1.297c.149 1.203 1.101 2.08 2.479 2.08 1.744 0 2.855-1.455 2.852-3.959-.004-2.649-1.382-3.505-2.777-3.512zm.003 1.065c.778 0 1.35.647 1.35 1.389.003.753-.597 1.399-1.364 1.399-.774 0-1.332-.611-1.335-1.389 0-.781.579-1.399 1.349-1.399z"/><path d="m238.902 150.805c1.57.011 2.624-1.068 2.621-2.507.003-1.374-.977-2.368-2.252-2.368-.781 0-1.47.38-1.818 1.005h-.05c.004-1.531.565-2.461 1.574-2.461.625 0 1.047.362 1.182.92h1.296c-.156-1.176-1.104-2.06-2.478-2.06-1.748 0-2.852 1.456-2.852 3.942-.004 2.667 1.381 3.522 2.777 3.529zm-.007-1.065c-.778 0-1.346-.643-1.35-1.403.007-.763.597-1.402 1.368-1.402.77 0 1.335.611 1.331 1.392.004.795-.579 1.413-1.349 1.413zm6.811-6.648h-1.126l-2.344 8.708h1.126zm3.764.341h-1.253l-1.808 1.162v1.207l1.701-1.087h.043v5.991h1.317zm2.113 7.273h1.367l3.09-6.147v-1.126h-4.954v1.101h3.59v.05z"/><path d="m319.975 150.805c1.57.011 2.624-1.068 2.621-2.507.003-1.374-.977-2.368-2.252-2.368-.781 0-1.47.38-1.818 1.005h-.049c.003-1.531.564-2.461 1.573-2.461.625 0 1.047.362 1.182.92h1.296c-.156-1.176-1.104-2.06-2.478-2.06-1.747 0-2.852 1.456-2.852 3.942-.003 2.667 1.382 3.522 2.777 3.529zm-.007-1.065c-.778 0-1.346-.643-1.349-1.403.007-.763.596-1.402 1.367-1.402.77 0 1.335.611 1.332 1.392.003.795-.579 1.413-1.35 1.413zm6.811-6.648h-1.126l-2.343 8.708h1.125zm.806 7.614h4.986v-1.101h-3.168v-.05l1.254-1.274c1.413-1.357 1.804-2.017 1.804-2.838 0-1.218-.991-2.109-2.454-2.109-1.442 0-2.464.895-2.464 2.276h1.253c0-.742.469-1.207 1.193-1.207.693 0 1.208.422 1.208 1.108 0 .607-.37 1.04-1.087 1.768l-2.525 2.475zm8.899.139c1.755.003 2.802-1.382 2.802-3.768 0-2.372-1.054-3.743-2.802-3.743-1.747 0-2.798 1.367-2.801 3.743 0 2.383 1.047 3.768 2.801 3.768zm0-1.112c-.905 0-1.473-.909-1.47-2.656.004-1.733.568-2.646 1.47-2.646.906 0 1.471.913 1.474 2.646 0 1.747-.565 2.656-1.474 2.656z"/><path d="m266.001 150.805c1.57.011 2.624-1.068 2.621-2.507.003-1.374-.977-2.368-2.252-2.368-.781 0-1.47.38-1.818 1.005h-.05c.004-1.531.565-2.461 1.574-2.461.625 0 1.047.362 1.182.92h1.296c-.156-1.176-1.104-2.06-2.478-2.06-1.748 0-2.852 1.456-2.852 3.942-.003 2.667 1.381 3.522 2.777 3.529zm-.007-1.065c-.778 0-1.346-.643-1.349-1.403.007-.763.596-1.402 1.367-1.402.77 0 1.335.611 1.331 1.392.004.795-.578 1.413-1.349 1.413zm6.811-6.648h-1.126l-2.343 8.708h1.125zm3.764.341h-1.253l-1.808 1.162v1.207l1.701-1.087h.043v5.991h1.317zm4.432 7.372c1.573 0 2.699-.866 2.702-2.049-.003-.909-.674-1.669-1.519-1.811v-.049c.735-.164 1.246-.824 1.25-1.613-.004-1.118-1.034-1.949-2.433-1.949-1.41 0-2.44.827-2.436 1.949-.004.789.501 1.449 1.25 1.613v.049c-.859.142-1.523.902-1.52 1.811-.003 1.183 1.119 2.049 2.706 2.049zm0-1.015c-.824 0-1.356-.455-1.349-1.126-.007-.696.564-1.189 1.349-1.189.774 0 1.342.497 1.349 1.189-.007.671-.536 1.126-1.349 1.126zm0-3.313c-.675 0-1.158-.437-1.151-1.069-.007-.625.462-1.044 1.151-1.044.678 0 1.144.419 1.151 1.044-.007.635-.487 1.069-1.151 1.069z"/><path d="m348.3 150.805c1.569.011 2.624-1.068 2.621-2.507.003-1.374-.977-2.368-2.252-2.368-.781 0-1.47.38-1.818 1.005h-.05c.004-1.531.565-2.461 1.573-2.461.625 0 1.048.362 1.183.92h1.296c-.156-1.176-1.104-2.06-2.479-2.06-1.747 0-2.851 1.456-2.851 3.942-.004 2.667 1.381 3.522 2.777 3.529zm-.007-1.065c-.778 0-1.346-.643-1.35-1.403.007-.763.597-1.402 1.368-1.402.77 0 1.335.611 1.331 1.392.004.795-.579 1.413-1.349 1.413zm6.811-6.648h-1.126l-2.344 8.708h1.126zm.806 7.614h4.986v-1.101h-3.168v-.05l1.254-1.274c1.413-1.357 1.804-2.017 1.804-2.838 0-1.218-.991-2.109-2.454-2.109-1.442 0-2.465.895-2.465 2.276h1.254c0-.742.469-1.207 1.193-1.207.693 0 1.207.422 1.207 1.108 0 .607-.369 1.04-1.086 1.768l-2.525 2.475zm9.169-7.273h-1.254l-1.807 1.162v1.207l1.701-1.087h.043v5.991h1.317z"/><path d="m184.196 150.806c1.569.011 2.624-1.068 2.621-2.507.003-1.374-.977-2.368-2.252-2.368-.781 0-1.47.38-1.818 1.005h-.05c.004-1.531.565-2.461 1.573-2.461.625 0 1.048.362 1.183.92h1.296c-.156-1.176-1.104-2.06-2.479-2.06-1.747 0-2.851 1.456-2.851 3.942-.004 2.667 1.381 3.522 2.777 3.529zm-.007-1.065c-.778 0-1.346-.643-1.35-1.403.007-.763.597-1.402 1.367-1.402.771 0 1.336.611 1.332 1.392.004.795-.579 1.413-1.349 1.413zm6.811-6.648h-1.126l-2.344 8.708h1.126zm3.764.341h-1.254l-1.807 1.162v1.207l1.701-1.087h.043v5.991h1.317zm4.805 0h-1.254l-1.807 1.162v1.207l1.701-1.087h.042v5.991h1.318z"/></g><path d="m0 0h7.95257v28.5215h-7.95257z" fill="#27a430" transform="matrix(-1 0 0 1 194.804 107.65)"/><path d="m0 0h7.95257v16.9915h-7.95257z" fill="#fd8d42" transform="matrix(-1 0 0 1 194.804 119.18)"/><path d="m0 0h7.95257v5.46157h-7.95257z" fill="#00a390" transform="matrix(-1 0 0 1 194.804 130.71)"/><path d="m0 0h7.95257v3.0342h-7.95257z" fill="#db0196" transform="matrix(-1 0 0 1 194.804 133.138)"/><path d="m0 0h7.95257v1.21369h-7.95257z" fill="#954e02" transform="matrix(-1 0 0 1 194.804 134.958)"/><path d="m0 0h7.95257v13.9574h-7.95257z" fill="#503ddd" transform="matrix(-1 0 0 1 194.804 93.6934)"/><path d="m0 0h8.61428v80.7103h-8.61428z" fill="#2188dd" transform="matrix(-1 0 0 1 195.257 55.2441)"/><path d="m48.7973 150.806c1.5696.011 2.6242-1.068 2.6207-2.507.0035-1.374-.9766-2.368-2.2514-2.368-.7813 0-1.4702.38-1.8182 1.005h-.0497c.0035-1.531.5646-2.461 1.5731-2.461.625 0 1.0476.362 1.1826.92h1.2961c-.1562-1.176-1.1044-2.06-2.4787-2.06-1.7471 0-2.8515 1.456-2.8515 3.942-.0036 2.667 1.3814 3.522 2.777 3.529zm-.0071-1.065c-.7777 0-1.3459-.643-1.3495-1.403.0071-.763.5966-1.402 1.3672-1.402s1.3352.611 1.3317 1.392c.0035.795-.5789 1.413-1.3494 1.413zm6.811-6.648h-1.1257l-2.3437 8.708h1.1257zm3.4695 7.713c1.5696.011 2.6243-1.068 2.6207-2.507.0036-1.374-.9765-2.368-2.2514-2.368-.7812 0-1.4702.38-1.8182 1.005h-.0497c.0036-1.531.5646-2.461 1.5732-2.461.625 0 1.0476.362 1.1825.92h1.2962c-.1563-1.176-1.1044-2.06-2.4787-2.06-1.7472 0-2.8516 1.456-2.8516 3.942-.0035 2.667 1.3814 3.522 2.777 3.529zm-.0071-1.065c-.7777 0-1.3459-.643-1.3494-1.403.0071-.763.5965-1.402 1.3671-1.402s1.3353.611 1.3317 1.392c.0036.795-.5788 1.413-1.3494 1.413z" fill="#b0b1c4"/><path d="m0 0h7.95257v25.6112h-7.95257z" fill="#27a430" transform="matrix(-1 0 0 1 57.8428 110.56)"/><path d="m0 0h7.95257v15.2577h-7.95257z" fill="#fd8d42" transform="matrix(-1 0 0 1 57.8428 120.913)"/><path d="m0 0h7.95257v4.90428h-7.95257z" fill="#00a390" transform="matrix(-1 0 0 1 57.8428 131.268)"/><path d="m0 0h7.95257v2.7246h-7.95257z" fill="#db0196" transform="matrix(-1 0 0 1 57.8428 133.447)"/><path d="m0 0h7.95257v1.08984h-7.95257z" fill="#954e02" transform="matrix(-1 0 0 1 57.8428 135.081)"/><path d="m0 0h7.95257v12.5331h-7.95257z" fill="#503ddd" transform="matrix(-1 0 0 1 57.8428 98.0273)"/><path d="m0 0h8.61428v72.4745h-8.61428z" fill="#2188dd" transform="matrix(-1 0 0 1 58.1465 63.4795)"/><rect fill="#cdf4fe" height="10.981" rx="4" width="28.7143" x="204.59" y="141.992"/><path d="m211.203 150.805c1.569.01 2.624-1.069 2.621-2.508.003-1.374-.977-2.368-2.252-2.368-.781 0-1.47.38-1.818 1.005h-.05c.004-1.531.565-2.461 1.573-2.461.625 0 1.048.362 1.183.92h1.296c-.156-1.176-1.104-2.06-2.479-2.06-1.747 0-2.851 1.456-2.851 3.942-.004 2.667 1.381 3.522 2.777 3.53zm-.007-1.066c-.778 0-1.346-.643-1.35-1.403.007-.763.597-1.402 1.368-1.402.77 0 1.335.611 1.331 1.392.004.795-.579 1.413-1.349 1.413zm6.811-6.648h-1.126l-2.344 8.708h1.126zm3.764.341h-1.253l-1.808 1.162v1.207l1.701-1.087h.043v5.991h1.317zm4.51 7.373c1.57.01 2.624-1.069 2.621-2.508.003-1.374-.977-2.368-2.252-2.368-.781 0-1.47.38-1.818 1.005h-.05c.004-1.531.565-2.461 1.574-2.461.625 0 1.047.362 1.182.92h1.296c-.156-1.176-1.104-2.06-2.478-2.06-1.748 0-2.852 1.456-2.852 3.942-.004 2.667 1.381 3.522 2.777 3.53zm-.007-1.066c-.778 0-1.346-.643-1.35-1.403.008-.763.597-1.402 1.368-1.402.77 0 1.335.611 1.331 1.392.004.795-.578 1.413-1.349 1.413z" fill="#9293ab"/><path d="m0 0h7.95257v32.208h-7.95257z" fill="#27a430" transform="matrix(-1 0 0 1 222.651 103.962)"/><path d="m0 0h7.95257v19.1877h-7.95257z" fill="#fd8d42" transform="matrix(-1 0 0 1 222.651 116.982)"/><path d="m0 0h7.95257v6.1675h-7.95257z" fill="#00a390" transform="matrix(-1 0 0 1 222.651 130.003)"/><path d="m0 0h7.95257v3.42638h-7.95257z" fill="#db0196" transform="matrix(-1 0 0 1 222.651 132.744)"/><path d="m0 0h7.95257v1.37057h-7.95257z" fill="#954e02" transform="matrix(-1 0 0 1 222.651 134.8)"/><path d="m0 0h7.95257v15.7614h-7.95257z" fill="#503ddd" transform="matrix(-1 0 0 1 222.651 88.2012)"/><path d="m0 0h8.61428v91.1422h-8.61428z" fill="#2188dd" transform="matrix(-1 0 0 1 223.254 44.8105)"/><path d="m76.4975 150.805c1.5696.01 2.6242-1.069 2.6207-2.508.0035-1.374-.9766-2.368-2.2514-2.368-.7813 0-1.4702.38-1.8182 1.005h-.0497c.0035-1.531.5646-2.461 1.5731-2.461.625 0 1.0476.362 1.1826.92h1.2961c-.1562-1.176-1.1044-2.06-2.4787-2.06-1.7471 0-2.8515 1.456-2.8515 3.942-.0036 2.667 1.3814 3.522 2.777 3.53zm-.0072-1.066c-.7777 0-1.3458-.643-1.3494-1.403.0071-.763.5966-1.402 1.3672-1.402s1.3352.611 1.3317 1.392c.0035.795-.5789 1.413-1.3495 1.413zm6.8111-6.648h-1.1257l-2.3437 8.708h1.1257zm1.0725 7.614h1.3672l3.0894-6.147v-1.126h-4.9538v1.101h3.5902v.05z" fill="#b0b1c4"/><path d="m0 0h7.95257v26.3873h-7.95257z" fill="#27a430" transform="matrix(-1 0 0 1 85.2354 109.783)"/><path d="m0 0h7.95257v15.7201h-7.95257z" fill="#fd8d42" transform="matrix(-1 0 0 1 85.2354 120.45)"/><path d="m0 0h7.95257v5.05288h-7.95257z" fill="#00a390" transform="matrix(-1 0 0 1 85.2354 131.117)"/><path d="m0 0h7.95257v2.80714h-7.95257z" fill="#db0196" transform="matrix(-1 0 0 1 85.2354 133.363)"/><path d="m0 0h7.95257v1.12286h-7.95257z" fill="#954e02" transform="matrix(-1 0 0 1 85.2354 135.047)"/><path d="m0 0h7.95257v12.9129h-7.95257z" fill="#503ddd" transform="matrix(-1 0 0 1 85.2354 96.8701)"/><path d="m0 0h8.61428v74.6707h-8.61428z" fill="#2188dd" transform="matrix(-1 0 0 1 85.4255 61.2822)"/><path d="m103.597 150.806c1.569.011 2.624-1.068 2.62-2.507.004-1.374-.976-2.368-2.251-2.368-.781 0-1.47.38-1.818 1.005h-.05c.004-1.531.565-2.461 1.573-2.461.625 0 1.048.362 1.183.92h1.296c-.156-1.176-1.105-2.06-2.479-2.06-1.747 0-2.851 1.456-2.851 3.942-.004 2.667 1.381 3.522 2.777 3.529zm-.008-1.065c-.777 0-1.345-.643-1.349-1.403.007-.763.597-1.402 1.367-1.402.771 0 1.335.611 1.332 1.392.003.795-.579 1.413-1.35 1.413zm6.812-6.648h-1.126l-2.344 8.708h1.126zm3.391 7.713c1.573 0 2.699-.866 2.702-2.049-.003-.909-.674-1.669-1.52-1.811v-.049c.735-.164 1.247-.824 1.25-1.613-.003-1.118-1.033-1.949-2.432-1.949-1.41 0-2.44.827-2.436 1.949-.004.789.501 1.449 1.25 1.613v.049c-.86.142-1.524.902-1.52 1.811-.004 1.183 1.119 2.049 2.706 2.049zm0-1.015c-.824 0-1.357-.455-1.35-1.126-.007-.696.565-1.19 1.35-1.19.774 0 1.342.498 1.349 1.19-.007.671-.536 1.126-1.349 1.126zm0-3.313c-.675 0-1.158-.437-1.151-1.069-.007-.625.462-1.044 1.151-1.044.678 0 1.143.419 1.15 1.044-.007.635-.486 1.069-1.15 1.069z" fill="#b0b1c4"/><path d="m0 0h7.95257v27.5514h-7.95257z" fill="#27a430" transform="matrix(-1 0 0 1 112.627 108.62)"/><path d="m0 0h7.95257v16.4136h-7.95257z" fill="#fd8d42" transform="matrix(-1 0 0 1 112.627 119.758)"/><path d="m0 0h7.95257v5.27581h-7.95257z" fill="#00a390" transform="matrix(-1 0 0 1 112.627 130.896)"/><path d="m0 0h7.95257v2.931h-7.95257z" fill="#db0196" transform="matrix(-1 0 0 1 112.627 133.241)"/><path d="m0 0h7.95257v1.17241h-7.95257z" fill="#954e02" transform="matrix(-1 0 0 1 112.627 134.999)"/><path d="m0 0h7.95257v13.4826h-7.95257z" fill="#503ddd" transform="matrix(-1 0 0 1 112.627 95.1377)"/><path d="m0 0h8.61428v77.965h-8.61428z" fill="#2188dd" transform="matrix(-1 0 0 1 112.704 57.9893)"/><path d="m130.974 150.805c1.57.011 2.624-1.068 2.621-2.507.003-1.374-.977-2.368-2.252-2.368-.781 0-1.47.38-1.818 1.005h-.049c.003-1.531.564-2.461 1.573-2.461.625 0 1.047.362 1.182.92h1.296c-.156-1.176-1.104-2.06-2.478-2.06-1.747 0-2.852 1.456-2.852 3.942-.003 2.667 1.382 3.522 2.777 3.529zm-.007-1.065c-.778 0-1.346-.643-1.349-1.403.007-.763.596-1.402 1.367-1.402.77 0 1.335.611 1.331 1.392.004.795-.578 1.413-1.349 1.413zm6.811-6.648h-1.126l-2.343 8.708h1.125zm3.331.242c-1.577-.011-2.624 1.072-2.624 2.493.003 1.371.98 2.361 2.255 2.361.785 0 1.466-.38 1.818-1.005h.05c-.004 1.556-.569 2.483-1.573 2.483-.629 0-1.052-.363-1.183-.941h-1.296c.149 1.203 1.101 2.08 2.479 2.08 1.743 0 2.855-1.455 2.851-3.959-.003-2.649-1.381-3.505-2.777-3.512zm.004 1.065c.777 0 1.349.647 1.349 1.389.004.753-.597 1.399-1.364 1.399-.774 0-1.331-.611-1.335-1.389 0-.781.579-1.399 1.35-1.399z" fill="#b0b1c4"/><path d="m0 0h7.95257v39.1929h-7.95257z" fill="#27a430" transform="matrix(-1 0 0 1 140.02 96.9775)"/><path d="m0 0h7.95257v23.3489h-7.95257z" fill="#fd8d42" transform="matrix(-1 0 0 1 140.02 112.822)"/><path d="m0 0h7.95257v7.50503h-7.95257z" fill="#00a390" transform="matrix(-1 0 0 1 140.02 128.666)"/><path d="m0 0h7.95257v4.16946h-7.95257z" fill="#db0196" transform="matrix(-1 0 0 1 140.02 132.002)"/><path d="m0 0h7.95257v1.6678h-7.95257z" fill="#954e02" transform="matrix(-1 0 0 1 140.02 134.503)"/><path d="m0 0h7.95257v19.1795h-7.95257z" fill="#503ddd" transform="matrix(-1 0 0 1 140.02 77.7988)"/><path d="m0 0h7.89642v110.908h-7.89642z" fill="#2188dd" transform="matrix(-1 0 0 1 139.982 25.0459)"/><path d="m155.871 150.806c1.57.011 2.624-1.068 2.621-2.507.003-1.374-.977-2.368-2.252-2.368-.781 0-1.47.38-1.818 1.005h-.049c.003-1.531.564-2.461 1.573-2.461.625 0 1.047.362 1.182.92h1.296c-.156-1.176-1.104-2.06-2.478-2.06-1.747 0-2.852 1.456-2.852 3.942-.003 2.667 1.382 3.522 2.777 3.529zm-.007-1.065c-.778 0-1.346-.643-1.349-1.403.007-.763.596-1.402 1.367-1.402.77 0 1.335.611 1.331 1.392.004.795-.578 1.413-1.349 1.413zm6.811-6.648h-1.126l-2.343 8.708h1.125zm3.764.341h-1.253l-1.808 1.162v1.207l1.701-1.087h.043v5.991h1.317zm4.535 7.412c1.754.003 2.802-1.382 2.802-3.768 0-2.372-1.055-3.743-2.802-3.743s-2.798 1.367-2.802 3.743c0 2.383 1.048 3.768 2.802 3.768zm0-1.112c-.905 0-1.474-.909-1.47-2.656.003-1.733.568-2.646 1.47-2.646.906 0 1.47.913 1.474 2.646 0 1.747-.565 2.656-1.474 2.656z" fill="#b0b1c4"/><path d="m0 0h7.95257v28.5215h-7.95257z" fill="#27a430" transform="matrix(-1 0 0 1 167.412 107.65)"/><path d="m0 0h7.95257v16.9915h-7.95257z" fill="#fd8d42" transform="matrix(-1 0 0 1 167.412 119.18)"/><path d="m0 0h7.95257v5.46157h-7.95257z" fill="#00a390" transform="matrix(-1 0 0 1 167.412 130.71)"/><path d="m0 0h7.95257v3.0342h-7.95257z" fill="#db0196" transform="matrix(-1 0 0 1 167.412 133.138)"/><path d="m0 0h7.95257v1.21369h-7.95257z" fill="#954e02" transform="matrix(-1 0 0 1 167.412 134.958)"/><path d="m0 0h7.95257v13.9574h-7.95257z" fill="#503ddd" transform="matrix(-1 0 0 1 167.412 93.6934)"/><path d="m0 0h8.61428v80.7103h-8.61428z" fill="#2188dd" transform="matrix(-1 0 0 1 167.979 55.2441)"/><path d="m76.811 61.2832h8.61428v61.4935h-8.61428z" fill="#3dc7f6"/><path d="m49.5 63h8.8v58h-8.8z" fill="#3dc7f6"/><path d="m104.09 57.9893h8.61428v58.7483h-8.61428z" fill="#3dc7f6"/><path d="m132.086 25.0459h8.61428v61.4935h-8.61428z" fill="#3dc7f6"/><path d="m76.811 61.2832h8.61428v38.4335h-8.61428z" fill="#a3e9ff"/><path d="m49.5 63h8.8v37h-8.8z" fill="#a3e9ff"/><path d="m104.09 57.9893h8.61428v36.2373h-8.61428z" fill="#a3e9ff"/><path d="m132.086 25.0459h8.61428v37.8844h-8.61428z" fill="#a3e9ff"/><path d="m159.365 55.2432h8.61428v58.7483h-8.61428z" fill="#3dc7f6"/><path d="m159.365 55.2432h8.61428v36.2373h-8.61428z" fill="#a3e9ff"/><path d="m186.643 55.2432h8.61428v54.905h-8.61428z" fill="#3dc7f6"/><path d="m214.639 44.8115h8.61428v63.1407h-8.61428z" fill="#3dc7f6"/><path d="m186.643 55.2432h8.61428v34.0411h-8.61428z" fill="#a3e9ff"/><path d="m214.639 44.8115h8.61428v39.5316h-8.61428z" fill="#a3e9ff"/></g><g filter="url(#a)"><path d="m135.956 4.46046c.399-.56095 1.232-.56095 1.63 0l10.855 15.27384c.47.6621-.003 1.5793-.815 1.5793h-21.71c-.812 0-1.285-.9172-.815-1.5793z" fill="#cf2318"/></g><path d="m132.5 15.0304c0-1.933 1.567-3.5 3.5-3.5v-.5304.5304c1.933 0 3.5 1.567 3.5 3.5v2.9696h-4.241 1.467v1h-1.467v-1h-2.759z" stroke="#f3f3fa" stroke-linecap="round" stroke-linejoin="round"/><path d="m136 12.5c-1.381 0-2.5 1.1193-2.5 2.5v.5" opacity=".5" stroke="#f3f3fa" stroke-linecap="round" stroke-linejoin="round"/><path d="m193.881 49h2.628c1.718 0 2.429-.8381 2.429-1.9318 0-1.1506-.796-1.7756-1.464-1.8182v-.071c.625-.1705 1.179-.5824 1.179-1.5199 0-1.0653-.71-1.9318-2.23-1.9318h-2.542zm.88-.7812v-2.5285h1.79c.952 0 1.548.6392 1.548 1.3779 0 .6392-.44 1.1506-1.59 1.1506zm0-3.2955v-2.4148h1.662c.966 0 1.392.5114 1.392 1.1506 0 .767-.625 1.2642-1.42 1.2642zm8.947 1.8466c0 1.0227-.781 1.4915-1.406 1.4915-.696 0-1.193-.5114-1.193-1.3069v-3.409h-.838v3.4659c0 1.392.739 2.0596 1.761 2.0596.824 0 1.364-.4403 1.62-.9943h.056v.9233h.839v-5.4545h-.839zm4.433 2.3437c1.051 0 1.406-.6534 1.591-.9517h.099v.8381h.81v-7.2727h-.838v2.6846h-.071c-.185-.2841-.511-.9375-1.577-.9375-1.377 0-2.329 1.0938-2.329 2.8125 0 1.733.952 2.8267 2.315 2.8267zm.114-.7528c-1.051 0-1.591-.9233-1.591-2.0881 0-1.1505.525-2.0454 1.591-2.0454 1.023 0 1.562.8238 1.562 2.0454 0 1.2358-.554 2.0881-1.562 2.0881zm6.239 2.7983c1.307 0 2.358-.5966 2.358-2.0029v-5.6107h-.81v.8664h-.085c-.184-.2841-.525-.9375-1.591-.9375-1.378 0-2.329 1.0938-2.329 2.7699 0 1.7046.994 2.6705 2.315 2.6705 1.065 0 1.406-.625 1.591-.9233h.071v1.1079c0 .9091-.639 1.3211-1.52 1.3211-.991 0-1.339-.5221-1.562-.8239l-.668.4687c.341.5718 1.012 1.0938 2.23 1.0938zm-.028-2.9972c-1.051 0-1.591-.7954-1.591-1.9318 0-1.1079.525-2.0028 1.591-2.0028 1.022 0 1.562.8238 1.562 2.0028 0 1.2074-.554 1.9318-1.562 1.9318zm6.207.9517c1.108 0 1.918-.5539 2.173-1.3778l-.809-.2273c-.213.5682-.707.8523-1.364.8523-.984 0-1.662-.6357-1.701-1.804h3.96v-.3551c0-2.0312-1.208-2.7273-2.344-2.7273-1.477 0-2.457 1.1648-2.457 2.8409 0 1.6762.965 2.7983 2.542 2.7983zm-1.701-3.2812c.057-.8487.657-1.6051 1.616-1.6051.909 0 1.491.6818 1.491 1.6051zm7.607-2.2869h-1.165v-1.3069h-.838v1.3069h-.824v.7102h.824v3.4091c0 .9517.767 1.4062 1.477 1.4062.313 0 .511-.0568.625-.0994l-.17-.7528c-.071.0142-.185.0426-.37.0426-.369 0-.724-.1137-.724-.8239v-3.1818h1.165z" fill="#383946"/><path d="m193 53h178" stroke="#cf2318" stroke-linecap="round" stroke-linejoin="round"/></svg>