<svg fill="none" height="187" viewBox="0 0 372 187" width="372" xmlns="http://www.w3.org/2000/svg" xmlns:xlink="http://www.w3.org/1999/xlink"><filter id="a" color-interpolation-filters="sRGB" filterUnits="userSpaceOnUse" height="63" width="142" x="198" y="2"><feFlood flood-opacity="0" result="BackgroundImageFix"/><feColorMatrix in="SourceAlpha" type="matrix" values="0 0 0 0 0 0 0 0 0 0 0 0 0 0 0 0 0 0 127 0"/><feOffset dy="4"/><feGaussianBlur stdDeviation="2"/><feColorMatrix type="matrix" values="0 0 0 0 0 0 0 0 0 0 0 0 0 0 0 0 0 0 0.1 0"/><feBlend in2="BackgroundImageFix" mode="normal" result="effect1_dropShadow"/><feBlend in="SourceGraphic" in2="effect1_dropShadow" mode="normal" result="shape"/></filter><filter id="b" color-interpolation-filters="sRGB" filterUnits="userSpaceOnUse" height="59" width="138" x="200" y=".5"><feFlood flood-opacity="0" result="BackgroundImageFix"/><feColorMatrix in="SourceAlpha" type="matrix" values="0 0 0 0 0 0 0 0 0 0 0 0 0 0 0 0 0 0 127 0"/><feOffset dy=".5"/><feGaussianBlur stdDeviation="1"/><feColorMatrix type="matrix" values="0 0 0 0 0.376471 0 0 0 0 0.380392 0 0 0 0 0.439216 0 0 0 0.16 0"/><feBlend in2="BackgroundImageFix" mode="normal" result="effect1_dropShadow"/><feColorMatrix in="SourceAlpha" type="matrix" values="0 0 0 0 0 0 0 0 0 0 0 0 0 0 0 0 0 0 127 0"/><feOffset/><feGaussianBlur stdDeviation=".5"/><feColorMatrix type="matrix" values="0 0 0 0 0.156863 0 0 0 0 0.160784 0 0 0 0 0.239216 0 0 0 0.08 0"/><feBlend in2="effect1_dropShadow" mode="normal" result="effect2_dropShadow"/><feBlend in="SourceGraphic" in2="effect2_dropShadow" mode="normal" result="shape"/></filter><filter id="c" color-interpolation-filters="sRGB" filterUnits="userSpaceOnUse" height="63" width="142" x="220" y="57"><feFlood flood-opacity="0" result="BackgroundImageFix"/><feColorMatrix in="SourceAlpha" type="matrix" values="0 0 0 0 0 0 0 0 0 0 0 0 0 0 0 0 0 0 127 0"/><feOffset dy="4"/><feGaussianBlur stdDeviation="2"/><feColorMatrix type="matrix" values="0 0 0 0 0 0 0 0 0 0 0 0 0 0 0 0 0 0 0.1 0"/><feBlend in2="BackgroundImageFix" mode="normal" result="effect1_dropShadow"/><feBlend in="SourceGraphic" in2="effect1_dropShadow" mode="normal" result="shape"/></filter><filter id="d" color-interpolation-filters="sRGB" filterUnits="userSpaceOnUse" height="59" width="138" x="222" y="55.5"><feFlood flood-opacity="0" result="BackgroundImageFix"/><feColorMatrix in="SourceAlpha" type="matrix" values="0 0 0 0 0 0 0 0 0 0 0 0 0 0 0 0 0 0 127 0"/><feOffset dy=".5"/><feGaussianBlur stdDeviation="1"/><feColorMatrix type="matrix" values="0 0 0 0 0.376471 0 0 0 0 0.380392 0 0 0 0 0.439216 0 0 0 0.16 0"/><feBlend in2="BackgroundImageFix" mode="normal" result="effect1_dropShadow"/><feColorMatrix in="SourceAlpha" type="matrix" values="0 0 0 0 0 0 0 0 0 0 0 0 0 0 0 0 0 0 127 0"/><feOffset/><feGaussianBlur stdDeviation=".5"/><feColorMatrix type="matrix" values="0 0 0 0 0.156863 0 0 0 0 0.160784 0 0 0 0 0.239216 0 0 0 0.08 0"/><feBlend in2="effect1_dropShadow" mode="normal" result="effect2_dropShadow"/><feBlend in="SourceGraphic" in2="effect2_dropShadow" mode="normal" result="shape"/></filter><filter id="e" color-interpolation-filters="sRGB" filterUnits="userSpaceOnUse" height="14.304" width="16.1209" x="128.711" y="41.3525"><feFlood flood-opacity="0" result="BackgroundImageFix"/><feColorMatrix in="SourceAlpha" type="matrix" values="0 0 0 0 0 0 0 0 0 0 0 0 0 0 0 0 0 0 127 0"/><feOffset/><feGaussianBlur stdDeviation="2"/><feColorMatrix type="matrix" values="0 0 0 0 0.811765 0 0 0 0 0.137255 0 0 0 0 0.0941176 0 0 0 0.5 0"/><feBlend in2="BackgroundImageFix" mode="normal" result="effect1_dropShadow"/><feBlend in="SourceGraphic" in2="effect1_dropShadow" mode="normal" result="shape"/></filter><path d="m5.58 59.85c0 .5267-.19.97-.57 1.33-.37333.36-.87.58-1.49.66v.71c0 .1334-.04.24-.12.32-.07333.08-.17333.12-.3.12s-.23-.04-.31-.12c-.07333-.08-.11-.1866-.11-.32v-.69c-.4-.0333-.78667-.1133-1.16-.24-.36667-.1333-.68-.3133-.94-.54-.126667-.0933-.19-.2266-.19-.4 0-.12.03-.22.09-.3.066667-.0866.146667-.13.24-.13s.206667.0434.34.13c.64.4334 1.28667.65 1.94.65.49333 0 .87333-.1 1.14-.3.27333-.2.41-.4833.41-.85 0-.22-.07333-.3966-.22-.53-.14-.14-.32-.25-.54-.33-.21333-.08-.51-.1666-.89-.26-.5-.1266-.90667-.2533-1.22-.38-.31333-.1266-.58333-.3233-.81-.59-.22-.2666-.33-.62-.33-1.06 0-.54.193333-.9966.58-1.37.39333-.38.91-.6066 1.55-.68v-.7c0-.1333.03667-.24.11-.32.08-.08.18333-.12.31-.12s.22667.04.3.12c.08.08.12.1867.12.32v.7c.34.0334.66333.1167.97.25.31333.1267.59.3.83.52.13333.1067.2.24.2.4 0 .1134-.03333.2134-.1.3-.06667.0867-.14667.13-.24.13s-.20667-.0433-.34-.13c-.28667-.22-.56-.3833-.82-.49-.26-.1066-.56667-.16-.92-.16-.46 0-.82667.1067-1.1.32-.27333.2134-.41.5034-.41.87 0 .2467.07667.4467.23.6.15333.1534.34333.2734.57.36.22667.08.53667.1667.93.26.48667.12.88.2434 1.18.37.3.12.55667.3067.77.56.21333.2467.32.5834.32 1.01zm6.4128-2.53c.42 0 .7967.0967 1.13.29.3333.1867.59.45.77.79.1867.34.28.73.28 1.17s-.1.8367-.3 1.19c-.2.3467-.4767.62-.83.82-.3467.1934-.7433.29-1.19.29-.8733 0-1.5467-.2966-2.01999-.89-.46666-.6-.7-1.4533-.7-2.56 0-.78.11-1.45.33-2.01.22-.5666.53667-1 .94999-1.3.4133-.3.9033-.45 1.47-.45.38 0 .76.07 1.14.21s.7033.3334.97.58c.1333.1134.2.2467.2.4 0 .12-.0333.2234-.1.31-.0667.08-.1467.12-.24.12-.06 0-.1167-.01-.17-.03-.0467-.02-.1033-.0533-.17-.1-.56-.4333-1.0933-.65-1.6-.65-.5533 0-.9833.2567-1.29.77-.3067.5067-.46 1.2167-.46 2.13v.02c.1467-.34.3833-.6066.71-.8.3333-.2.7067-.3 1.12-.3zm-.19 3.71c.4133 0 .7433-.13.99-.39.2533-.2666.38-.6166.38-1.05 0-.4266-.1267-.77-.38-1.03-.2467-.2666-.5767-.4-.99-.4-.42 0-.7633.1334-1.03.4-.26.26-.39.6034-.39 1.03 0 .4334.13.7834.39 1.05.26.26.6033.39 1.03.39zm5.8163.84c-.82 0-1.4466-.3066-1.88-.92-.4266-.6133-.64-1.5066-.64-2.68 0-1.18.2134-2.0766.64-2.69.4334-.6133 1.06-.92 1.88-.92s1.4434.3067 1.87.92c.4334.6067.65 1.5.65 2.68s-.2166 2.0767-.65 2.69c-.4266.6134-1.05.92-1.87.92zm0-.83c.5134 0 .89-.2233 1.13-.67.24-.4466.36-1.15.36-2.11s-.12-1.66-.36-2.1c-.24-.4466-.6166-.67-1.13-.67-.5133 0-.89.2234-1.13.67-.24.44-.36 1.14-.36 2.1 0 .9534.12 1.6567.36 2.11.24.4467.6167.67 1.13.67zm5.9961.83c-.82 0-1.4466-.3066-1.88-.92-.4266-.6133-.64-1.5066-.64-2.68 0-1.18.2134-2.0766.64-2.69.4334-.6133 1.06-.92 1.88-.92s1.4434.3067 1.87.92c.4334.6067.65 1.5.65 2.68s-.2166 2.0767-.65 2.69c-.4266.6134-1.05.92-1.87.92zm0-.83c.5134 0 .89-.2233 1.13-.67.24-.4466.36-1.15.36-2.11s-.12-1.66-.36-2.1c-.24-.4466-.6166-.67-1.13-.67-.5133 0-.89.2234-1.13.67-.24.44-.36 1.14-.36 2.1 0 .9534.12 1.6567.36 2.11.24.4467.6167.67 1.13.67zm5.9961.83c-.82 0-1.4466-.3066-1.88-.92-.4266-.6133-.64-1.5066-.64-2.68 0-1.18.2134-2.0766.64-2.69.4334-.6133 1.06-.92 1.88-.92s1.4434.3067 1.87.92c.4334.6067.65 1.5.65 2.68s-.2166 2.0767-.65 2.69c-.4266.6134-1.05.92-1.87.92zm0-.83c.5134 0 .89-.2233 1.13-.67.24-.4466.36-1.15.36-2.11s-.12-1.66-.36-2.1c-.24-.4466-.6166-.67-1.13-.67-.5133 0-.89.2234-1.13.67-.24.44-.36 1.14-.36 2.1 0 .9534.12 1.6567.36 2.11.24.4467.6167.67 1.13.67zm-24.0313 54.81c0 .527-.19.97-.57 1.33-.37333.36-.87.58-1.49.66v.71c0 .133-.04.24-.12.32-.07333.08-.17333.12-.3.12s-.23-.04-.31-.12c-.07333-.08-.11-.187-.11-.32v-.69c-.4-.033-.78667-.113-1.16-.24-.36667-.133-.68-.313-.94-.54-.126667-.093-.19-.227-.19-.4 0-.12.03-.22.09-.3.066667-.087.146667-.13.24-.13s.206667.043.34.13c.64.433 1.28667.65 1.94.65.49333 0 .87333-.1 1.14-.3.27333-.2.41-.483.41-.85 0-.22-.07333-.397-.22-.53-.14-.14-.32-.25-.54-.33-.21333-.08-.51-.167-.89-.26-.5-.127-.90667-.253-1.22-.38s-.58333-.323-.81-.59c-.22-.267-.33-.62-.33-1.06 0-.54.193333-.997.58-1.37.39333-.38.91-.607 1.55-.68v-.7c0-.133.03667-.24.11-.32.08-.08.18333-.12.31-.12s.22667.04.3.12c.08.08.12.187.12.32v.7c.34.033.66333.117.97.25.31333.127.59.3.83.52.13333.107.2.24.2.4 0 .113-.03333.213-.1.3s-.14667.13-.24.13-.20667-.043-.34-.13c-.28667-.22-.56-.383-.82-.49s-.56667-.16-.92-.16c-.46 0-.82667.107-1.1.32s-.41.503-.41.87c0 .247.07667.447.23.6s.34333.273.57.36c.22667.08.53667.167.93.26.48667.12.88.243 1.18.37.3.12.55667.307.77.56.21333.247.32.583.32 1.01zm7.0628-1.68c.4267.12.75.327.97.62.22.287.33.65.33 1.09 0 .613-.2167 1.097-.65 1.45-.4267.353-1.0067.53-1.74.53-.4333 0-.85-.07-1.25-.21-.39332-.14-.72665-.333-.99999-.58-.13333-.107-.2-.24-.2-.4 0-.12.03334-.22.1-.3.06667-.087.14667-.13.24-.13.1 0 .21334.043.34.13.28669.213.56669.377.83999.49.28.107.58.16.9.16.9467 0 1.42-.403 1.42-1.21 0-.393-.1267-.687-.38-.88-.2467-.2-.6233-.3-1.13-.3h-.55c-.1267 0-.2267-.04-.3-.12-.0733-.087-.11-.187-.11-.3 0-.107.0367-.2.11-.28.0733-.087.1733-.13.3-.13h.39c.4867 0 .8567-.1 1.11-.3.26-.207.39-.507.39-.9 0-.347-.1067-.617-.32-.81-.2067-.193-.5-.29-.88-.29-.56 0-1.12.217-1.67999.65-.12666.087-.24.13-.34.13-.09333 0-.17333-.04-.24-.12-.06666-.087-.1-.19-.1-.31 0-.16.06667-.293.2-.4.27334-.247.60329-.44.98999-.58.3933-.14.7967-.21 1.21-.21.66 0 1.1867.167 1.58.5s.5867.78.58 1.34c0 .387-.1.73-.3 1.03-.2.293-.4767.507-.83.64zm4.9861 3.7c-.82 0-1.4467-.307-1.88-.92-.4267-.613-.64-1.507-.64-2.68 0-1.18.2133-2.077.64-2.69.4333-.613 1.06-.92 1.88-.92s1.4433.307 1.87.92c.4333.607.65 1.5.65 2.68s-.2167 2.077-.65 2.69c-.4267.613-1.05.92-1.87.92zm0-.83c.5133 0 .89-.223 1.13-.67s.36-1.15.36-2.11-.12-1.66-.36-2.1c-.24-.447-.6167-.67-1.13-.67s-.89.223-1.13.67c-.24.44-.36 1.14-.36 2.1 0 .953.12 1.657.36 2.11.24.447.6167.67 1.13.67zm5.9961.83c-.82 0-1.4467-.307-1.88-.92-.4267-.613-.64-1.507-.64-2.68 0-1.18.2133-2.077.64-2.69.4333-.613 1.06-.92 1.88-.92s1.4433.307 1.87.92c.4333.607.65 1.5.65 2.68s-.2167 2.077-.65 2.69c-.4267.613-1.05.92-1.87.92zm0-.83c.5133 0 .89-.223 1.13-.67s.36-1.15.36-2.11-.12-1.66-.36-2.1c-.24-.447-.6167-.67-1.13-.67s-.89.223-1.13.67c-.24.44-.36 1.14-.36 2.1 0 .953.12 1.657.36 2.11.24.447.6167.67 1.13.67zm5.9961.83c-.82 0-1.4467-.307-1.88-.92-.4267-.613-.64-1.507-.64-2.68 0-1.18.2133-2.077.64-2.69.4333-.613 1.06-.92 1.88-.92s1.4433.307 1.87.92c.4333.607.65 1.5.65 2.68s-.2167 2.077-.65 2.69c-.4267.613-1.05.92-1.87.92zm0-.83c.5133 0 .89-.223 1.13-.67s.36-1.15.36-2.11-.12-1.66-.36-2.1c-.24-.447-.6167-.67-1.13-.67s-.89.223-1.13.67c-.24.44-.36 1.14-.36 2.1 0 .953.12 1.657.36 2.11.24.447.6167.67 1.13.67zm-24.0411 54.81c0 .527-.19.97-.57 1.33-.37333.36-.87.58-1.49.66v.71c0 .133-.04.24-.12.32-.07333.08-.17333.12-.3.12s-.23-.04-.31-.12c-.07333-.08-.11-.187-.11-.32v-.69c-.4-.033-.78667-.113-1.16-.24-.36667-.133-.68-.313-.94-.54-.126667-.093-.19-.227-.19-.4 0-.12.03-.22.09-.3.066667-.087.146667-.13.24-.13s.206667.043.34.13c.64.433 1.28667.65 1.94.65.49333 0 .87333-.1 1.14-.3.27333-.2.41-.483.41-.85 0-.22-.07333-.397-.22-.53-.14-.14-.32-.25-.54-.33-.21333-.08-.51-.167-.89-.26-.5-.127-.90667-.253-1.22-.38s-.58333-.323-.81-.59c-.22-.267-.33-.62-.33-1.06 0-.54.193333-.997.58-1.37.39333-.38.91-.607 1.55-.68v-.7c0-.133.03667-.24.11-.32.08-.08.18333-.12.31-.12s.22667.04.3.12c.08.08.12.187.12.32v.7c.34.033.66333.117.97.25.31333.127.59.3.83.52.13333.107.2.24.2.4 0 .113-.03333.213-.1.3s-.14667.13-.24.13-.20667-.043-.34-.13c-.28667-.22-.56-.383-.82-.49s-.56667-.16-.92-.16c-.46 0-.82667.107-1.1.32s-.41.503-.41.87c0 .247.07667.447.23.6s.34333.273.57.36c.22667.08.53667.167.93.26.48667.12.88.243 1.18.37.3.12.55667.307.77.56.21333.247.32.583.32 1.01zm6.0528 2.02c-.82 0-1.4467-.307-1.87999-.92-.42666-.613-.64-1.507-.64-2.68 0-1.18.21334-2.077.64-2.69.43329-.613 1.05999-.92 1.87999-.92s1.4433.307 1.87.92c.4333.607.65 1.5.65 2.68s-.2167 2.077-.65 2.69c-.4267.613-1.05.92-1.87.92zm0-.83c.5133 0 .89-.223 1.13-.67s.36-1.15.36-2.11-.12-1.66-.36-2.1c-.24-.447-.6167-.67-1.13-.67s-.89.223-1.13.67c-.24.44-.36 1.14-.36 2.1 0 .953.12 1.657.36 2.11.24.447.6167.67 1.13.67z" fill="#9aa5b5"/><g opacity=".8"><path d="m223.519 78.8853 32.134-8.5217 18.847-6.6532 33.206-4.6904 33.389-9.6481 29.363-9.8667" opacity=".499674" stroke="#00ade4" stroke-dasharray="1 4" stroke-linecap="square" stroke-width="2"/><g fill="#b0b1c4"><path d="m293.379 184.805c1.57.011 2.624-1.068 2.621-2.507.003-1.374-.977-2.368-2.252-2.368-.781 0-1.47.38-1.818 1.005h-.05c.004-1.531.565-2.461 1.574-2.461.625 0 1.047.362 1.182.92h1.296c-.156-1.176-1.104-2.06-2.478-2.06-1.748 0-2.852 1.456-2.852 3.942-.003 2.667 1.381 3.522 2.777 3.529zm-.007-1.065c-.778 0-1.346-.643-1.349-1.403.007-.763.596-1.402 1.367-1.402.77 0 1.335.611 1.331 1.392.004.795-.578 1.413-1.349 1.413zm6.811-6.648h-1.126l-2.343 8.708h1.125zm3.764.341h-1.253l-1.808 1.162v1.207l1.701-1.087h.043v5.991h1.317zm4.372-.099c-1.577-.011-2.625 1.072-2.625 2.493.004 1.371.98 2.361 2.255 2.361.785 0 1.467-.38 1.819-1.005h.049c-.003 1.556-.568 2.483-1.573 2.483-.628 0-1.051-.363-1.182-.941h-1.297c.15 1.203 1.101 2.08 2.479 2.08 1.744 0 2.855-1.455 2.852-3.959-.004-2.649-1.382-3.505-2.777-3.512zm.003 1.065c.778 0 1.35.647 1.35 1.389.003.753-.597 1.399-1.364 1.399-.774 0-1.332-.611-1.335-1.389 0-.781.579-1.399 1.349-1.399z"/><path d="m238.902 184.805c1.57.011 2.624-1.068 2.621-2.507.003-1.374-.977-2.368-2.252-2.368-.781 0-1.47.38-1.818 1.005h-.05c.004-1.531.565-2.461 1.574-2.461.625 0 1.047.362 1.182.92h1.296c-.156-1.176-1.104-2.06-2.478-2.06-1.748 0-2.852 1.456-2.852 3.942-.004 2.667 1.381 3.522 2.777 3.529zm-.007-1.065c-.778 0-1.346-.643-1.35-1.403.008-.763.597-1.402 1.368-1.402.77 0 1.335.611 1.331 1.392.004.795-.579 1.413-1.349 1.413zm6.811-6.648h-1.126l-2.343 8.708h1.125zm3.764.341h-1.253l-1.808 1.162v1.207l1.701-1.087h.043v5.991h1.317zm2.113 7.273h1.367l3.09-6.147v-1.126h-4.954v1.101h3.59v.05z"/><path d="m319.975 184.805c1.57.011 2.625-1.068 2.621-2.507.004-1.374-.977-2.368-2.251-2.368-.782 0-1.471.38-1.819 1.005h-.049c.003-1.531.564-2.461 1.573-2.461.625 0 1.047.362 1.182.92h1.297c-.157-1.176-1.105-2.06-2.479-2.06-1.747 0-2.852 1.456-2.852 3.942-.003 2.667 1.382 3.522 2.777 3.529zm-.007-1.065c-.778 0-1.346-.643-1.349-1.403.007-.763.596-1.402 1.367-1.402.77 0 1.335.611 1.332 1.392.003.795-.579 1.413-1.35 1.413zm6.811-6.648h-1.125l-2.344 8.708h1.125zm.806 7.614h4.986v-1.101h-3.167v-.05l1.253-1.274c1.413-1.357 1.804-2.017 1.804-2.838 0-1.218-.991-2.109-2.454-2.109-1.442 0-2.464.895-2.464 2.276h1.253c0-.742.469-1.207 1.193-1.207.693 0 1.208.422 1.208 1.108 0 .607-.369 1.04-1.087 1.768l-2.525 2.475zm8.899.139c1.755.003 2.802-1.382 2.802-3.768 0-2.372-1.054-3.743-2.802-3.743-1.747 0-2.798 1.367-2.801 3.743 0 2.383 1.047 3.768 2.801 3.768zm0-1.112c-.905 0-1.473-.909-1.47-2.656.004-1.733.568-2.646 1.47-2.646.906 0 1.471.913 1.474 2.646 0 1.747-.564 2.656-1.474 2.656z"/><path d="m266.001 184.805c1.57.011 2.624-1.068 2.621-2.507.003-1.374-.977-2.368-2.252-2.368-.781 0-1.47.38-1.818 1.005h-.049c.003-1.531.564-2.461 1.573-2.461.625 0 1.047.362 1.182.92h1.296c-.156-1.176-1.104-2.06-2.478-2.06-1.747 0-2.852 1.456-2.852 3.942-.003 2.667 1.382 3.522 2.777 3.529zm-.007-1.065c-.778 0-1.346-.643-1.349-1.403.007-.763.596-1.402 1.367-1.402.77 0 1.335.611 1.331 1.392.004.795-.578 1.413-1.349 1.413zm6.811-6.648h-1.126l-2.343 8.708h1.125zm3.764.341h-1.253l-1.808 1.162v1.207l1.701-1.087h.043v5.991h1.317zm4.432 7.372c1.573 0 2.699-.866 2.703-2.049-.004-.909-.675-1.669-1.52-1.811v-.049c.735-.164 1.246-.824 1.25-1.613-.004-1.118-1.034-1.949-2.433-1.949-1.41 0-2.44.827-2.436 1.949-.004.789.501 1.449 1.25 1.613v.049c-.859.142-1.523.902-1.52 1.811-.003 1.183 1.119 2.049 2.706 2.049zm0-1.015c-.824 0-1.356-.455-1.349-1.126-.007-.696.564-1.189 1.349-1.189.774 0 1.342.497 1.35 1.189-.008.671-.537 1.126-1.35 1.126zm0-3.313c-.675 0-1.158-.437-1.15-1.069-.008-.625.461-1.044 1.15-1.044.678 0 1.144.419 1.151 1.044-.007.635-.487 1.069-1.151 1.069z"/><path d="m348.3 184.805c1.57.011 2.624-1.068 2.621-2.507.003-1.374-.977-2.368-2.252-2.368-.781 0-1.47.38-1.818 1.005h-.05c.004-1.531.565-2.461 1.574-2.461.625 0 1.047.362 1.182.92h1.296c-.156-1.176-1.104-2.06-2.478-2.06-1.748 0-2.852 1.456-2.852 3.942-.004 2.667 1.381 3.522 2.777 3.529zm-.007-1.065c-.778 0-1.346-.643-1.35-1.403.008-.763.597-1.402 1.368-1.402.77 0 1.335.611 1.331 1.392.004.795-.579 1.413-1.349 1.413zm6.811-6.648h-1.126l-2.344 8.708h1.126zm.806 7.614h4.986v-1.101h-3.168v-.05l1.254-1.274c1.413-1.357 1.804-2.017 1.804-2.838 0-1.218-.991-2.109-2.454-2.109-1.442 0-2.465.895-2.465 2.276h1.254c0-.742.469-1.207 1.193-1.207.693 0 1.208.422 1.208 1.108 0 .607-.37 1.04-1.087 1.768l-2.525 2.475zm9.169-7.273h-1.253l-1.808 1.162v1.207l1.701-1.087h.043v5.991h1.317z"/><path d="m184.196 184.806c1.569.011 2.624-1.068 2.62-2.507.004-1.374-.976-2.368-2.251-2.368-.781 0-1.47.38-1.818 1.005h-.05c.004-1.531.565-2.461 1.573-2.461.625 0 1.048.362 1.183.92h1.296c-.156-1.176-1.104-2.06-2.479-2.06-1.747 0-2.851 1.456-2.851 3.942-.004 2.667 1.381 3.522 2.777 3.529zm-.007-1.065c-.778 0-1.346-.643-1.35-1.403.007-.763.597-1.402 1.367-1.402.771 0 1.336.611 1.332 1.392.004.795-.579 1.413-1.349 1.413zm6.811-6.648h-1.126l-2.344 8.708h1.126zm3.764.341h-1.254l-1.807 1.162v1.207l1.701-1.087h.042v5.991h1.318zm4.805 0h-1.254l-1.808 1.162v1.207l1.701-1.087h.043v5.991h1.318z"/></g><path d="m0 0h7.95257v28.5215h-7.95257z" fill="#27a430" transform="matrix(-1 0 0 1 194.804 141.65)"/><path d="m0 0h7.95257v16.9915h-7.95257z" fill="#fd8d42" transform="matrix(-1 0 0 1 194.804 153.18)"/><path d="m0 0h7.95257v5.46157h-7.95257z" fill="#00a390" transform="matrix(-1 0 0 1 194.804 164.71)"/><path d="m0 0h7.95257v3.0342h-7.95257z" fill="#db0196" transform="matrix(-1 0 0 1 194.804 167.138)"/><path d="m0 0h7.95257v1.21369h-7.95257z" fill="#954e02" transform="matrix(-1 0 0 1 194.804 168.958)"/><path d="m0 0h7.95257v13.9574h-7.95257z" fill="#503ddd" transform="matrix(-1 0 0 1 194.804 127.693)"/><path d="m0 0h8.61428v80.7103h-8.61428z" fill="#2188dd" transform="matrix(-1 0 0 1 195.257 89.2441)"/><path d="m48.7973 184.806c1.5696.011 2.6242-1.068 2.6207-2.507.0035-1.374-.9766-2.368-2.2514-2.368-.7813 0-1.4702.38-1.8182 1.005h-.0497c.0035-1.531.5646-2.461 1.5731-2.461.625 0 1.0476.362 1.1826.92h1.2961c-.1562-1.176-1.1044-2.06-2.4787-2.06-1.7471 0-2.8515 1.456-2.8515 3.942-.0036 2.667 1.3814 3.522 2.777 3.529zm-.0071-1.065c-.7777 0-1.3459-.643-1.3495-1.403.0071-.763.5966-1.402 1.3672-1.402s1.3352.611 1.3317 1.392c.0035.795-.5789 1.413-1.3494 1.413zm6.811-6.648h-1.1257l-2.3437 8.708h1.1257zm3.4695 7.713c1.5696.011 2.6243-1.068 2.6207-2.507.0036-1.374-.9765-2.368-2.2514-2.368-.7812 0-1.4702.38-1.8182 1.005h-.0497c.0036-1.531.5646-2.461 1.5732-2.461.625 0 1.0476.362 1.1825.92h1.2962c-.1563-1.176-1.1044-2.06-2.4787-2.06-1.7472 0-2.8516 1.456-2.8516 3.942-.0035 2.667 1.3814 3.522 2.777 3.529zm-.0071-1.065c-.7777 0-1.3459-.643-1.3494-1.403.0071-.763.5965-1.402 1.3671-1.402s1.3353.611 1.3317 1.392c.0036.795-.5788 1.413-1.3494 1.413z" fill="#b0b1c4"/><path d="m0 0h7.95257v25.6112h-7.95257z" fill="#27a430" transform="matrix(-1 0 0 1 57.8428 144.56)"/><path d="m0 0h7.95257v15.2577h-7.95257z" fill="#fd8d42" transform="matrix(-1 0 0 1 57.8428 154.913)"/><path d="m0 0h7.95257v4.90428h-7.95257z" fill="#00a390" transform="matrix(-1 0 0 1 57.8428 165.268)"/><path d="m0 0h7.95257v2.7246h-7.95257z" fill="#db0196" transform="matrix(-1 0 0 1 57.8428 167.447)"/><path d="m0 0h7.95257v1.08984h-7.95257z" fill="#954e02" transform="matrix(-1 0 0 1 57.8428 169.081)"/><path d="m0 0h7.95257v12.5331h-7.95257z" fill="#503ddd" transform="matrix(-1 0 0 1 57.8428 132.027)"/><path d="m0 0h8.61428v72.4745h-8.61428z" fill="#2188dd" transform="matrix(-1 0 0 1 58.1465 97.4795)"/><rect fill="#cdf4fe" height="10.981" rx="4" width="28.7143" x="204.59" y="175.992"/><path d="m211.203 184.805c1.57.01 2.624-1.069 2.621-2.508.003-1.374-.977-2.368-2.252-2.368-.781 0-1.47.38-1.818 1.005h-.05c.004-1.531.565-2.461 1.574-2.461.625 0 1.047.362 1.182.92h1.296c-.156-1.176-1.104-2.06-2.478-2.06-1.748 0-2.852 1.456-2.852 3.942-.004 2.667 1.381 3.522 2.777 3.53zm-.007-1.066c-.778 0-1.346-.643-1.35-1.403.008-.763.597-1.402 1.368-1.402.77 0 1.335.611 1.331 1.392.004.795-.578 1.413-1.349 1.413zm6.811-6.648h-1.126l-2.343 8.708h1.125zm3.764.341h-1.253l-1.808 1.162v1.207l1.701-1.087h.043v5.991h1.317zm4.51 7.373c1.57.01 2.624-1.069 2.621-2.508.003-1.374-.977-2.368-2.252-2.368-.781 0-1.47.38-1.818 1.005h-.049c.003-1.531.564-2.461 1.573-2.461.625 0 1.047.362 1.182.92h1.296c-.156-1.176-1.104-2.06-2.478-2.06-1.747 0-2.852 1.456-2.852 3.942-.003 2.667 1.382 3.522 2.777 3.53zm-.007-1.066c-.778 0-1.346-.643-1.349-1.403.007-.763.596-1.402 1.367-1.402.77 0 1.335.611 1.331 1.392.004.795-.578 1.413-1.349 1.413z" fill="#9293ab"/><path d="m0 0h7.95257v32.208h-7.95257z" fill="#27a430" transform="matrix(-1 0 0 1 222.651 137.962)"/><path d="m0 0h7.95257v19.1877h-7.95257z" fill="#fd8d42" transform="matrix(-1 0 0 1 222.651 150.982)"/><path d="m0 0h7.95257v6.1675h-7.95257z" fill="#00a390" transform="matrix(-1 0 0 1 222.651 164.003)"/><path d="m0 0h7.95257v3.42638h-7.95257z" fill="#db0196" transform="matrix(-1 0 0 1 222.651 166.744)"/><path d="m0 0h7.95257v1.37057h-7.95257z" fill="#954e02" transform="matrix(-1 0 0 1 222.651 168.8)"/><path d="m0 0h7.95257v15.7614h-7.95257z" fill="#503ddd" transform="matrix(-1 0 0 1 222.651 122.201)"/><path d="m0 0h8.61428v91.1422h-8.61428z" fill="#2188dd" transform="matrix(-1 0 0 1 223.254 78.8105)"/><path d="m76.4975 184.805c1.5696.01 2.6242-1.069 2.6207-2.508.0035-1.374-.9766-2.368-2.2514-2.368-.7813 0-1.4702.38-1.8182 1.005h-.0497c.0035-1.531.5646-2.461 1.5731-2.461.625 0 1.0476.362 1.1826.92h1.2961c-.1562-1.176-1.1044-2.06-2.4787-2.06-1.7471 0-2.8515 1.456-2.8515 3.942-.0036 2.667 1.3814 3.522 2.777 3.53zm-.0072-1.066c-.7777 0-1.3458-.643-1.3494-1.403.0071-.763.5966-1.402 1.3672-1.402s1.3352.611 1.3317 1.392c.0035.795-.5789 1.413-1.3495 1.413zm6.8111-6.648h-1.1257l-2.3437 8.708h1.1257zm1.0725 7.614h1.3672l3.0894-6.147v-1.126h-4.9538v1.101h3.5902v.05z" fill="#b0b1c4"/><path d="m0 0h7.95257v26.3873h-7.95257z" fill="#27a430" transform="matrix(-1 0 0 1 85.2354 143.783)"/><path d="m0 0h7.95257v15.7201h-7.95257z" fill="#fd8d42" transform="matrix(-1 0 0 1 85.2354 154.45)"/><path d="m0 0h7.95257v5.05288h-7.95257z" fill="#00a390" transform="matrix(-1 0 0 1 85.2354 165.117)"/><path d="m0 0h7.95257v2.80714h-7.95257z" fill="#db0196" transform="matrix(-1 0 0 1 85.2354 167.363)"/><path d="m0 0h7.95257v1.12286h-7.95257z" fill="#954e02" transform="matrix(-1 0 0 1 85.2354 169.047)"/><path d="m0 0h7.95257v12.9129h-7.95257z" fill="#503ddd" transform="matrix(-1 0 0 1 85.2354 130.87)"/><path d="m0 0h8.61428v74.6707h-8.61428z" fill="#2188dd" transform="matrix(-1 0 0 1 85.4255 95.2822)"/><path d="m103.597 184.806c1.569.011 2.624-1.068 2.62-2.507.004-1.374-.976-2.368-2.251-2.368-.781 0-1.47.38-1.818 1.005h-.05c.004-1.531.565-2.461 1.573-2.461.625 0 1.048.362 1.183.92h1.296c-.156-1.176-1.105-2.06-2.479-2.06-1.747 0-2.851 1.456-2.851 3.942-.004 2.667 1.381 3.522 2.777 3.529zm-.008-1.065c-.777 0-1.345-.643-1.349-1.403.007-.763.597-1.402 1.367-1.402.771 0 1.335.611 1.332 1.392.003.795-.579 1.413-1.35 1.413zm6.812-6.648h-1.126l-2.344 8.708h1.126zm3.391 7.713c1.573 0 2.699-.866 2.702-2.049-.003-.909-.674-1.669-1.52-1.811v-.049c.735-.164 1.247-.824 1.25-1.613-.003-1.118-1.033-1.949-2.432-1.949-1.41 0-2.44.827-2.436 1.949-.004.789.501 1.449 1.25 1.613v.049c-.86.142-1.524.902-1.52 1.811-.004 1.183 1.119 2.049 2.706 2.049zm0-1.015c-.824 0-1.357-.455-1.35-1.126-.007-.696.565-1.19 1.35-1.19.774 0 1.342.498 1.349 1.19-.007.671-.536 1.126-1.349 1.126zm0-3.313c-.675 0-1.158-.437-1.151-1.069-.007-.625.462-1.044 1.151-1.044.678 0 1.143.419 1.15 1.044-.007.635-.486 1.069-1.15 1.069z" fill="#b0b1c4"/><path d="m0 0h7.95257v27.5514h-7.95257z" fill="#27a430" transform="matrix(-1 0 0 1 112.627 142.62)"/><path d="m0 0h7.95257v16.4136h-7.95257z" fill="#fd8d42" transform="matrix(-1 0 0 1 112.627 153.758)"/><path d="m0 0h7.95257v5.27581h-7.95257z" fill="#00a390" transform="matrix(-1 0 0 1 112.627 164.896)"/><path d="m0 0h7.95257v2.931h-7.95257z" fill="#db0196" transform="matrix(-1 0 0 1 112.627 167.241)"/><path d="m0 0h7.95257v1.17241h-7.95257z" fill="#954e02" transform="matrix(-1 0 0 1 112.627 168.999)"/><path d="m0 0h7.95257v13.4826h-7.95257z" fill="#503ddd" transform="matrix(-1 0 0 1 112.627 129.138)"/><path d="m0 0h8.61428v77.965h-8.61428z" fill="#2188dd" transform="matrix(-1 0 0 1 112.704 91.9893)"/><path d="m130.974 184.805c1.57.011 2.624-1.068 2.621-2.507.003-1.374-.977-2.368-2.252-2.368-.781 0-1.47.38-1.818 1.005h-.05c.004-1.531.565-2.461 1.574-2.461.625 0 1.047.362 1.182.92h1.296c-.156-1.176-1.104-2.06-2.478-2.06-1.748 0-2.852 1.456-2.852 3.942-.004 2.667 1.381 3.522 2.777 3.529zm-.007-1.065c-.778 0-1.346-.643-1.35-1.403.008-.763.597-1.402 1.368-1.402.77 0 1.335.611 1.331 1.392.004.795-.578 1.413-1.349 1.413zm6.811-6.648h-1.126l-2.343 8.708h1.125zm3.331.242c-1.577-.011-2.624 1.072-2.624 2.493.003 1.371.98 2.361 2.255 2.361.784 0 1.466-.38 1.818-1.005h.05c-.004 1.556-.569 2.483-1.574 2.483-.628 0-1.051-.363-1.182-.941h-1.296c.149 1.203 1.101 2.08 2.478 2.08 1.744 0 2.855-1.455 2.852-3.959-.004-2.649-1.381-3.505-2.777-3.512zm.004 1.065c.777 0 1.349.647 1.349 1.389.003.753-.597 1.399-1.364 1.399-.774 0-1.331-.611-1.335-1.389 0-.781.579-1.399 1.35-1.399z" fill="#b0b1c4"/><path d="m0 0h7.95257v39.1929h-7.95257z" fill="#27a430" transform="matrix(-1 0 0 1 140.02 130.978)"/><path d="m0 0h7.95257v23.3489h-7.95257z" fill="#fd8d42" transform="matrix(-1 0 0 1 140.02 146.822)"/><path d="m0 0h7.95257v7.50503h-7.95257z" fill="#00a390" transform="matrix(-1 0 0 1 140.02 162.666)"/><path d="m0 0h7.95257v4.16946h-7.95257z" fill="#db0196" transform="matrix(-1 0 0 1 140.02 166.002)"/><path d="m0 0h7.95257v1.6678h-7.95257z" fill="#954e02" transform="matrix(-1 0 0 1 140.02 168.503)"/><path d="m0 0h7.95257v19.1795h-7.95257z" fill="#503ddd" transform="matrix(-1 0 0 1 140.02 111.799)"/><path d="m0 0h7.89642v110.908h-7.89642z" fill="#2188dd" transform="matrix(-1 0 0 1 139.982 59.0459)"/><path d="m155.871 184.806c1.57.011 2.624-1.068 2.621-2.507.003-1.374-.977-2.368-2.252-2.368-.781 0-1.47.38-1.818 1.005h-.05c.004-1.531.565-2.461 1.574-2.461.625 0 1.047.362 1.182.92h1.296c-.156-1.176-1.104-2.06-2.478-2.06-1.748 0-2.852 1.456-2.852 3.942-.004 2.667 1.381 3.522 2.777 3.529zm-.007-1.065c-.778 0-1.346-.643-1.35-1.403.008-.763.597-1.402 1.368-1.402.77 0 1.335.611 1.331 1.392.004.795-.579 1.413-1.349 1.413zm6.811-6.648h-1.126l-2.343 8.708h1.125zm3.764.341h-1.253l-1.808 1.162v1.207l1.701-1.087h.043v5.991h1.317zm4.535 7.412c1.754.003 2.802-1.382 2.802-3.768 0-2.372-1.055-3.743-2.802-3.743s-2.798 1.367-2.802 3.743c0 2.383 1.048 3.768 2.802 3.768zm0-1.112c-.906 0-1.474-.909-1.47-2.656.003-1.733.568-2.646 1.47-2.646.906 0 1.47.913 1.474 2.646 0 1.747-.565 2.656-1.474 2.656z" fill="#b0b1c4"/><path d="m0 0h7.95257v28.5215h-7.95257z" fill="#27a430" transform="matrix(-1 0 0 1 167.412 141.65)"/><path d="m0 0h7.95257v16.9915h-7.95257z" fill="#fd8d42" transform="matrix(-1 0 0 1 167.412 153.18)"/><path d="m0 0h7.95257v5.46157h-7.95257z" fill="#00a390" transform="matrix(-1 0 0 1 167.412 164.71)"/><path d="m0 0h7.95257v3.0342h-7.95257z" fill="#db0196" transform="matrix(-1 0 0 1 167.412 167.138)"/><path d="m0 0h7.95257v1.21369h-7.95257z" fill="#954e02" transform="matrix(-1 0 0 1 167.412 168.958)"/><path d="m0 0h7.95257v13.9574h-7.95257z" fill="#503ddd" transform="matrix(-1 0 0 1 167.412 127.693)"/><path d="m0 0h8.61428v80.7103h-8.61428z" fill="#2188dd" transform="matrix(-1 0 0 1 167.979 89.2441)"/><path d="m76.811 95.2832h8.61428v61.4935h-8.61428z" fill="#3dc7f6"/><path d="m49.5 97h8.8v58h-8.8z" fill="#3dc7f6"/><path d="m104.09 91.9893h8.61428v58.7483h-8.61428z" fill="#3dc7f6"/><path d="m132.086 59.0459h8.61428v61.4935h-8.61428z" fill="#3dc7f6"/><path d="m76.811 95.2832h8.61428v38.4335h-8.61428z" fill="#a3e9ff"/><path d="m49.5 97h8.8v37h-8.8z" fill="#a3e9ff"/><path d="m104.09 91.9893h8.61428v36.2373h-8.61428z" fill="#a3e9ff"/><path d="m132.086 59.0459h8.61428v37.8844h-8.61428z" fill="#a3e9ff"/><path d="m159.365 89.2432h8.61428v58.7483h-8.61428z" fill="#3dc7f6"/><path d="m159.365 89.2432h8.61428v36.2373h-8.61428z" fill="#a3e9ff"/><path d="m186.643 89.2432h8.61428v54.905h-8.61428z" fill="#3dc7f6"/><path d="m214.639 78.8115h8.61428v63.1407h-8.61428z" fill="#3dc7f6"/><path d="m186.643 89.2432h8.61428v34.0411h-8.61428z" fill="#a3e9ff"/><path d="m214.639 78.8115h8.61428v39.5316h-8.61428z" fill="#a3e9ff"/></g><g filter="url(#a)" opacity=".5"><g filter="url(#b)"><rect fill="#fff" height="55" rx="4" width="134" x="202" y="2"/></g></g><path d="m212.398 14.8317h2.248v6.1683h1.306v-6.1683h2.248v-1.1044h-5.802zm8.452 6.2748c1.598 0 2.614-1.1257 2.614-2.8125 0-1.6903-1.016-2.8196-2.614-2.8196s-2.613 1.1293-2.613 2.8196c0 1.6868 1.015 2.8125 2.613 2.8125zm.007-1.0298c-.884 0-1.317-.7883-1.317-1.7862s.433-1.7969 1.317-1.7969c.87 0 1.304.799 1.304 1.7969s-.434 1.7862-1.304 1.7862zm6.422-4.5312h-1.076v-1.3069h-1.286v1.3069h-.774v.9943h.774v3.0326c-.007 1.0263.739 1.5306 1.705 1.5022.366-.0107.618-.0817.756-.1279l-.216-1.0049c-.071.0177-.217.0497-.377.0497-.323 0-.582-.1137-.582-.6321v-2.8196h1.076zm2.644 5.5646c.856 0 1.368-.4013 1.602-.8594h.043v.7493h1.235v-3.6506c0-1.4417-1.175-1.875-2.215-1.875-1.147 0-2.028.5114-2.312 1.5057l1.2.1705c.128-.3729.49-.6925 1.119-.6925.596 0 .923.3054.923.8416v.0213c0 .3693-.387.3871-1.349.4901-1.059.1136-2.071.4297-2.071 1.6584 0 1.0724.785 1.6406 1.825 1.6406zm.334-.9446c-.536 0-.919-.245-.919-.7173 0-.4937.429-.6996 1.005-.7813.337-.0462 1.012-.1314 1.178-.2663v.6427c0 .6073-.49 1.1222-1.264 1.1222zm5.125-6.4382h-1.286v7.2727h1.286zm10.084 2.4538c-.224-1.6158-1.467-2.5533-3.079-2.5533-1.9 0-3.331 1.385-3.331 3.7358 0 2.3473 1.413 3.7358 3.331 3.7358 1.729 0 2.876-1.1186 3.079-2.5071l-1.328-.0071c-.167.8523-.863 1.3317-1.733 1.3317-1.179 0-2.024-.8842-2.024-2.5533 0-1.6406.838-2.5532 2.027-2.5532.885 0 1.577.5007 1.73 1.3707zm3.529 4.9254c1.598 0 2.613-1.1257 2.613-2.8125 0-1.6903-1.015-2.8196-2.613-2.8196s-2.614 1.1293-2.614 2.8196c0 1.6868 1.016 2.8125 2.614 2.8125zm.007-1.0298c-.884 0-1.318-.7883-1.318-1.7862s.434-1.7969 1.318-1.7969c.87 0 1.303.799 1.303 1.7969s-.433 1.7862-1.303 1.7862zm8.009-3.0895c-.178-.9233-.917-1.5128-2.195-1.5128-1.314 0-2.209.6463-2.205 1.6549-.004.7954.486 1.321 1.534 1.5376l.93.1953c.501.1101.735.3125.735.6215 0 .3728-.404.6534-1.015.6534-.59 0-.973-.2557-1.083-.7458l-1.254.1208c.16 1.0014 1.002 1.5944 2.34 1.5944 1.364 0 2.326-.7066 2.33-1.74-.004-.7777-.504-1.2536-1.534-1.4773l-.931-.1989c-.554-.1242-.774-.316-.77-.6321-.004-.3693.405-.625.941-.625.593 0 .905.3232 1.005.6819zm3.901-1.4417h-1.076v-1.3069h-1.286v1.3069h-.774v.9943h.774v3.0326c-.007 1.0263.739 1.5306 1.705 1.5022.365-.0107.618-.0817.756-.1279l-.217-1.0049c-.071.0177-.216.0497-.376.0497-.323 0-.582-.1137-.582-.6321v-2.8196h1.076z" fill="#6b6d85"/><path d="m215.469 43.0909h.801l.004-.9588c1.803-.1321 2.834-1.1633 2.834-2.544 0-1.5725-1.402-2.1819-2.51-2.4546l-.311-.0809.008-2.7358c.797.1065 1.343.5497 1.424 1.2485h1.27c-.034-1.2997-1.108-2.2713-2.689-2.3991l.004-.9844h-.801l-.004.9929c-1.53.1534-2.651 1.108-2.651 2.4844 0 1.2145.869 1.9261 2.271 2.3054l.367.098-.009 2.902c-.831-.1023-1.474-.554-1.542-1.3764h-1.321c.081 1.4701 1.142 2.4162 2.859 2.544zm.809-2.1264.009-2.6804c.865.2386 1.517.554 1.517 1.2912 0 .7457-.622 1.2699-1.526 1.3892zm-.788-4.125c-.635-.1875-1.334-.5242-1.329-1.2571 0-.6392.507-1.1378 1.333-1.2614zm8.11 5.2798c1.782 0 3.09-1.0653 3.086-2.5142.004-1.1037-.665-1.8963-1.824-2.0753v-.0682c.912-.2343 1.504-.9502 1.5-1.9304.004-1.2826-1.048-2.3778-2.727-2.3778-1.603 0-2.89.9673-2.932 2.3864h1.274c.03-.8012.784-1.287 1.641-1.287.89 0 1.474.5412 1.47 1.3466.004.8438-.674 1.3978-1.641 1.3978h-.737v1.0738h.737c1.21 0 1.909.6137 1.909 1.4915 0 .848-.737 1.4233-1.764 1.4233-.946 0-1.683-.4858-1.734-1.2614h-1.338c.055 1.4233 1.316 2.3949 3.08 2.3949zm6.102-1.3125h-1.228l-.042.4773c-.098 1.1548-.371 2.3182-.486 2.8466h.903c.205-.5583.657-1.8367.789-2.8594zm4.516 1.3125c1.781 0 3.089-1.0653 3.085-2.5142.004-1.1037-.665-1.8963-1.824-2.0753v-.0682c.912-.2343 1.504-.9502 1.5-1.9304.004-1.2826-1.048-2.3778-2.727-2.3778-1.602 0-2.889.9673-2.932 2.3864h1.274c.03-.8012.784-1.287 1.641-1.287.89 0 1.474.5412 1.47 1.3466.004.8438-.673 1.3978-1.641 1.3978h-.737v1.0738h.737c1.211 0 1.909.6137 1.909 1.4915 0 .848-.737 1.4233-1.764 1.4233-.946 0-1.683-.4858-1.734-1.2614h-1.338c.055 1.4233 1.316 2.3949 3.081 2.3949zm4.512-1.8238h4.138v1.7045h1.257v-1.7045h1.155v-1.1165h-1.155v-5.9063h-1.623l-3.772 5.9574zm4.147-1.1165h-2.766v-.0682l2.698-4.2699h.068zm3.705 1.1165h4.138v1.7045h1.257v-1.7045h1.155v-1.1165h-1.155v-5.9063h-1.624l-3.771 5.9574zm4.146-1.1165h-2.765v-.0682l2.697-4.2699h.068zm4.417 2.902c.465 0 .853-.3793.853-.8523 0-.4645-.388-.848-.853-.848-.469 0-.852.3835-.852.848 0 .473.383.8523.852.8523zm5.252.0639c2.016 0 3.196-1.6449 3.196-4.5043 0-2.838-1.197-4.4872-3.196-4.4872-2.002 0-3.196 1.6449-3.2 4.4872 0 2.8551 1.18 4.5 3.2 4.5043zm0-1.1378c-1.18 0-1.892-1.1847-1.892-3.3665.005-2.1733.716-3.3707 1.892-3.3707 1.172 0 1.888 1.1974 1.888 3.3707 0 2.1818-.711 3.3665-1.888 3.3665zm7.746 1.1122c1.782 0 3.09-1.0653 3.086-2.5142.004-1.1037-.665-1.8963-1.824-2.0753v-.0682c.912-.2343 1.504-.9502 1.5-1.9304.004-1.2826-1.048-2.3778-2.727-2.3778-1.603 0-2.89.9673-2.932 2.3864h1.274c.03-.8012.784-1.287 1.641-1.287.89 0 1.474.5412 1.47 1.3466.004.8438-.674 1.3978-1.641 1.3978h-.737v1.0738h.737c1.21 0 1.909.6137 1.909 1.4915 0 .848-.737 1.4233-1.764 1.4233-.946 0-1.683-.4858-1.734-1.2614h-1.339c.056 1.4233 1.317 2.3949 3.081 2.3949z" fill="#000"/><path d="m295.582 39.5085h3.424v1.4915h.838v-1.4915h.994v-.7812h-.994v-5h-1.066l-3.196 5.0568zm3.424-.7812h-2.472v-.0568l2.415-3.8211h.057zm5.535 2.3721c1.605 0 2.528-1.3601 2.528-3.7358 0-2.3579-.937-3.7358-2.528-3.7358s-2.528 1.3779-2.528 3.7358c0 2.3757.923 3.7358 2.528 3.7358zm0-.7812c-1.058 0-1.676-1.0618-1.676-2.9546 0-1.8892.625-2.9687 1.676-2.9687s1.676 1.0795 1.676 2.9687c0 1.8928-.618 2.9546-1.676 2.9546zm7.585-.6818c0 .7954.497 1.463 1.421 1.463.909 0 1.406-.6676 1.406-1.463v-.3836c0-.7954-.483-1.463-1.406-1.463-.909 0-1.421.6676-1.421 1.463zm-3.622-4.162c0 .7955.497 1.4631 1.421 1.4631.909 0 1.406-.6676 1.406-1.4631v-.3835c0-.7954-.483-1.4631-1.406-1.4631-.91 0-1.421.6677-1.421 1.4631zm.27 5.5256h.81l5-7.2727h-.81zm4.077-1.7472c0-.4403.199-.8522.696-.8522.511 0 .682.4119.682.8522v.3836c0 .4403-.185.8522-.682.8522-.512 0-.696-.4119-.696-.8522zm-3.622-4.1619c0-.4403.198-.8523.696-.8523.511 0 .681.412.681.8523v.3835c0 .4404-.184.8523-.681.8523-.512 0-.696-.4119-.696-.8523z" fill="#da291d"/><path d="m284 40 4-6 4 6z" fill="#da291d"/><g filter="url(#c)" opacity=".5"><g filter="url(#d)"><rect fill="#fff" height="55" rx="4" width="134" x="224" y="57"/></g></g><path d="m234.717 76h1.318v-3.0895h3.022v-1.1044h-3.022v-1.9744h3.341v-1.1044h-4.659zm7.782.1065c1.598 0 2.613-1.1257 2.613-2.8125 0-1.6903-1.015-2.8196-2.613-2.8196s-2.614 1.1293-2.614 2.8196c0 1.6868 1.016 2.8125 2.614 2.8125zm.007-1.0298c-.884 0-1.318-.7883-1.318-1.7862s.434-1.7969 1.318-1.7969c.87 0 1.303.799 1.303 1.7969s-.433 1.7862-1.303 1.7862zm3.697.9233h1.286v-3.2067c0-.6924.522-1.1825 1.229-1.1825.216 0 .486.0391.596.0746v-1.1826c-.117-.0213-.319-.0355-.461-.0355-.625 0-1.147.3551-1.346.9872h-.057v-.909h-1.247zm6.155.1065c1.272 0 2.145-.6214 2.373-1.5696l-1.201-.1349c-.174.4616-.6.7031-1.154.7031-.831 0-1.381-.5469-1.392-1.4808h3.8v-.3942c0-1.914-1.151-2.7557-2.493-2.7557-1.562 0-2.582 1.147-2.582 2.8303 0 1.7116 1.005 2.8018 2.649 2.8018zm-1.37-3.3487c.039-.696.554-1.2819 1.321-1.2819.738 0 1.236.5397 1.243 1.2819zm7.263 3.3487c1.37 0 2.244-.8132 2.336-1.9708h-1.228c-.11.5859-.533.9232-1.098.9232-.802 0-1.321-.6711-1.321-1.7862 0-1.1008.529-1.7613 1.321-1.7613.618 0 .998.3977 1.098.9233h1.228c-.088-1.1826-1.012-1.9603-2.343-1.9603-1.598 0-2.607 1.1542-2.607 2.8196 0 1.6513.984 2.8125 2.614 2.8125zm4.962.0036c.855 0 1.367-.4013 1.601-.8594h.043v.7493h1.236v-3.6506c0-1.4417-1.176-1.875-2.216-1.875-1.147 0-2.028.5114-2.312 1.5057l1.2.1705c.128-.3729.49-.6925 1.119-.6925.596 0 .923.3054.923.8416v.0213c0 .3693-.387.3871-1.349.4901-1.059.1136-2.071.4297-2.071 1.6584 0 1.0724.785 1.6406 1.826 1.6406zm.333-.9446c-.536 0-.919-.245-.919-.7173 0-.4937.429-.6996 1.005-.7813.337-.0462 1.012-.1314 1.179-.2663v.6427c0 .6073-.491 1.1222-1.265 1.1222zm8.15-3.1783c-.177-.9233-.916-1.5128-2.194-1.5128-1.314 0-2.209.6463-2.206 1.6549-.003.7954.487 1.321 1.534 1.5376l.931.1953c.501.1101.735.3125.735.6215 0 .3728-.405.6534-1.016.6534-.589 0-.973-.2557-1.083-.7458l-1.253.1208c.159 1.0014 1.001 1.5944 2.34 1.5944 1.363 0 2.326-.7066 2.329-1.74-.003-.7777-.504-1.2536-1.534-1.4773l-.93-.1989c-.554-.1242-.774-.316-.771-.6321-.003-.3693.405-.625.941-.625.593 0 .906.3232 1.005.6819zm3.901-1.4417h-1.076v-1.3069h-1.285v1.3069h-.775v.9943h.775v3.0326c-.007 1.0263.738 1.5306 1.704 1.5022.366-.0107.618-.0817.757-.1279l-.217-1.0049c-.071.0177-.217.0497-.376.0497-.324 0-.583-.1137-.583-.6321v-2.8196h1.076zm3.431 5.561c1.272 0 2.145-.6214 2.373-1.5696l-1.201-.1349c-.174.4616-.6.7031-1.154.7031-.831 0-1.381-.5469-1.392-1.4808h3.8v-.3942c0-1.914-1.151-2.7557-2.493-2.7557-1.563 0-2.582 1.147-2.582 2.8303 0 1.7116 1.005 2.8018 2.649 2.8018zm-1.37-3.3487c.039-.696.554-1.2819 1.321-1.2819.738 0 1.235.5397 1.243 1.2819zm6.908 3.3381c.937 0 1.36-.5575 1.562-.9553h.078v.8594h1.264v-7.2727h-1.289v2.7201h-.053c-.195-.3941-.597-.973-1.559-.973-1.261 0-2.251.9872-2.251 2.8054 0 1.7969.962 2.8161 2.248 2.8161zm.358-1.0547c-.849 0-1.296-.7457-1.296-1.7685 0-1.0156.44-1.7436 1.296-1.7436.828 0 1.282.6854 1.282 1.7436 0 1.0583-.462 1.7685-1.282 1.7685zm12.679-3.8601c-.224-1.6158-1.467-2.5533-3.079-2.5533-1.9 0-3.331 1.385-3.331 3.7358 0 2.3473 1.413 3.7358 3.331 3.7358 1.729 0 2.876-1.1186 3.079-2.5071l-1.328-.0071c-.167.8523-.863 1.3317-1.733 1.3317-1.179 0-2.025-.8842-2.025-2.5533 0-1.6406.838-2.5532 2.028-2.5532.884 0 1.577.5007 1.73 1.3707zm3.529 4.9254c1.598 0 2.613-1.1257 2.613-2.8125 0-1.6903-1.015-2.8196-2.613-2.8196s-2.614 1.1293-2.614 2.8196c0 1.6868 1.016 2.8125 2.614 2.8125zm.007-1.0298c-.885 0-1.318-.7883-1.318-1.7862s.433-1.7969 1.318-1.7969c.87 0 1.303.799 1.303 1.7969s-.433 1.7862-1.303 1.7862zm8.008-3.0895c-.177-.9233-.916-1.5128-2.194-1.5128-1.314 0-2.209.6463-2.205 1.6549-.004.7954.486 1.321 1.534 1.5376l.93.1953c.501.1101.735.3125.735.6215 0 .3728-.405.6534-1.016.6534-.589 0-.973-.2557-1.083-.7458l-1.253.1208c.16 1.0014 1.001 1.5944 2.34 1.5944 1.364 0 2.326-.7066 2.33-1.74-.004-.7777-.505-1.2536-1.535-1.4773l-.93-.1989c-.554-.1242-.774-.316-.771-.6321-.003-.3693.405-.625.942-.625.593 0 .905.3232 1.004.6819zm3.901-1.4417h-1.076v-1.3069h-1.285v1.3069h-.774v.9943h.774v3.0326c-.007 1.0263.738 1.5306 1.704 1.5022.366-.0107.618-.0817.757-.1279l-.217-1.0049c-.071.0177-.217.0497-.376.0497-.323 0-.583-.1137-.583-.6321v-2.8196h1.076z" fill="#6b6d85"/><path d="m237.469 98.0909h.801l.004-.9588c1.803-.1321 2.834-1.1633 2.834-2.544 0-1.5725-1.402-2.1819-2.51-2.4546l-.311-.0809.008-2.7358c.797.1065 1.343.5497 1.424 1.2485h1.27c-.034-1.2997-1.108-2.2713-2.689-2.3991l.004-.9844h-.801l-.004.9929c-1.53.1534-2.651 1.108-2.651 2.4844 0 1.2145.869 1.9261 2.271 2.3054l.367.098-.009 2.902c-.831-.1023-1.474-.554-1.542-1.3764h-1.321c.081 1.4701 1.142 2.4162 2.859 2.544zm.809-2.1264.009-2.6804c.865.2386 1.517.554 1.517 1.2912 0 .7457-.622 1.2699-1.526 1.3892zm-.788-4.125c-.635-.1875-1.334-.5242-1.329-1.2571 0-.6392.507-1.1378 1.333-1.2614zm7.974-3.6861c-1.832-.017-3.03 1.2997-3.03 2.9531.005 1.6662 1.211 2.8679 2.723 2.8679.925 0 1.718-.4517 2.165-1.1846h.068c-.004 2.0071-.758 3.179-2.037 3.179-.835 0-1.372-.5114-1.542-1.2572h-1.3c.192 1.4106 1.283 2.4077 2.842 2.4077 2.029 0 3.299-1.7429 3.299-4.7983-.005-3.1875-1.632-4.1548-3.188-4.1676zm.004 1.108c1.01 0 1.756.8565 1.756 1.8153.004.9716-.784 1.8239-1.781 1.8239-1.002 0-1.726-.8012-1.73-1.8111 0-1.0142.754-1.8281 1.755-1.8281zm4.54 6.0341h4.138v1.7045h1.257v-1.7045h1.155v-1.1165h-1.155v-5.9063h-1.624l-3.771 5.9574zm4.146-1.1165h-2.766v-.0682l2.698-4.2699h.068zm6.927 2.9403c1.781 0 3.089-1.0653 3.085-2.5142.004-1.1037-.665-1.8963-1.824-2.0753v-.0682c.912-.2343 1.505-.9502 1.5-1.9304.005-1.2826-1.048-2.3778-2.727-2.3778-1.602 0-2.889.9673-2.932 2.3864h1.274c.03-.8012.784-1.287 1.641-1.287.891 0 1.474.5412 1.47 1.3466.004.8438-.673 1.3978-1.64 1.3978h-.738v1.0738h.738c1.21 0 1.909.6137 1.909 1.4915 0 .848-.738 1.4233-1.765 1.4233-.946 0-1.683-.4858-1.734-1.2614h-1.338c.055 1.4233 1.317 2.3949 3.081 2.3949zm7.743 0c1.824.0171 3.034-1.2954 3.03-2.9702.004-1.6704-1.211-2.8679-2.723-2.8679-.921 0-1.718.4432-2.165 1.1804h-.064c.004-1.9815.754-3.1576 2.033-3.1576.839 0 1.368.5113 1.547 1.2358h1.299c-.2-1.3807-1.287-2.3864-2.846-2.3864-2.029 0-3.294 1.7429-3.294 4.777-.005 3.2131 1.632 4.1761 3.183 4.1889zm-.004-1.1079c-1.015 0-1.756-.8523-1.756-1.8324.004-.9759.78-1.8281 1.785-1.8281.998 0 1.731.8053 1.726 1.8153.005 1.0312-.758 1.8452-1.755 1.8452zm5.056 1.0696c.464 0 .852-.3793.852-.8523 0-.4645-.388-.848-.852-.848-.469 0-.853.3835-.853.848 0 .473.384.8523.853.8523zm2.542-.081h5.744v-1.1293h-3.929v-.0639l1.734-1.8153c1.598-1.6151 2.054-2.3864 2.054-3.3622 0-1.402-1.142-2.4759-2.787-2.4759-1.632 0-2.825 1.0568-2.825 2.6506h1.257c-.004-.9375.601-1.5512 1.543-1.5512.886 0 1.559.5455 1.559 1.4148 0 .7713-.46 1.3253-1.397 2.3182l-2.953 3.0597zm10.397.1193c1.782 0 3.09-1.0653 3.086-2.5142.004-1.1037-.665-1.8963-1.824-2.0753v-.0682c.912-.2343 1.504-.9502 1.5-1.9304.004-1.2826-1.049-2.3778-2.728-2.3778-1.602 0-2.889.9673-2.931 2.3864h1.274c.03-.8012.784-1.287 1.64-1.287.891 0 1.475.5412 1.471 1.3466.004.8438-.674 1.3978-1.641 1.3978h-.737v1.0738h.737c1.21 0 1.909.6137 1.909 1.4915 0 .848-.737 1.4233-1.764 1.4233-.946 0-1.683-.4858-1.735-1.2614h-1.338c.056 1.4233 1.317 2.3949 3.081 2.3949z" fill="#000"/><path d="m320.026 96.0994c1.385 0 2.4-1.0227 2.4-2.4147 0-1.4098-.98-2.4432-2.315-2.4432-.49 0-.966.174-1.264.4119h-.043l.256-2.1449h3.039v-.7812h-3.778l-.44 3.5795.824.0994c.301-.2166.816-.3728 1.264-.3693.927.0071 1.605.7103 1.605 1.662 0 .9339-.654 1.6193-1.548 1.6193-.746 0-1.339-.4794-1.407-1.1364h-.852c.053 1.108 1.009 1.9176 2.259 1.9176zm6.226 0c1.47.0178 2.429-1.0902 2.429-2.4432 0-1.4062-1.041-2.4147-2.287-2.4147-.75 0-1.392.3657-1.79.9659h-.057c.004-1.772.693-2.7983 1.818-2.7983.767 0 1.229.4829 1.392 1.1364h.867c-.178-1.1293-1.037-1.9177-2.259-1.9177-1.637 0-2.642 1.4489-2.642 4.0199 0 2.6882 1.335 3.4375 2.529 3.4517zm0-.7812c-.913 0-1.581-.7777-1.577-1.6477.003-.8701.703-1.6478 1.605-1.6478.891 0 1.548.7316 1.548 1.6335 0 .9233-.685 1.662-1.576 1.662zm7.532-.6818c0 .7954.498 1.463 1.421 1.463.909 0 1.406-.6676 1.406-1.463v-.3836c0-.7954-.483-1.463-1.406-1.463-.909 0-1.421.6676-1.421 1.463zm-3.622-4.162c0 .7955.497 1.4631 1.421 1.4631.909 0 1.406-.6676 1.406-1.4631v-.3835c0-.7954-.483-1.4631-1.406-1.4631-.909 0-1.421.6677-1.421 1.4631zm.27 5.5256h.81l5-7.2727h-.81zm4.077-1.7472c0-.4403.199-.8522.696-.8522.511 0 .682.4119.682.8522v.3836c0 .4403-.185.8522-.682.8522-.511 0-.696-.4119-.696-.8522zm-3.622-4.1619c0-.4403.199-.8523.696-.8523.511 0 .682.412.682.8523v.3835c0 .4404-.185.8523-.682.8523-.512 0-.696-.4119-.696-.8523z" fill="#da291d"/><path d="m306 95 4-6 4 6z" fill="#da291d"/><g filter="url(#e)"><path d="m135.956 45.773c.399-.561 1.232-.561 1.63 0l3.059 4.304c.47.6621-.003 1.5792-.815 1.5792h-6.118c-.812 0-1.285-.9171-.815-1.5792z" fill="#cf2318"/></g></svg>