<svg fill="none" height="107" viewBox="0 0 212 107" width="212" xmlns="http://www.w3.org/2000/svg"><g fill="#0b0b0d"><path d="m8.88068 94h.88068v-3.2528h3.87784v3.2528h.8807v-7.2727h-.8807v3.2386h-3.87784v-3.2386h-.88068zm7.00462-6.4915h2.2869v6.4915h.8807v-6.4915h2.2869v-.7812h-5.4545zm6.416 0h2.2869v6.4915h.8807v-6.4915h2.287v-.7812h-5.4546zm6.8138 6.4915h.8806v-2.6562h1.5909c1.6939 0 2.4574-1.0299 2.4574-2.3154s-.7635-2.3011-2.4716-2.3011h-2.4573zm.8806-3.4375v-3.054h1.5483c1.1826 0 1.6336.6463 1.6336 1.5199s-.451 1.5341-1.6194 1.5341zm-18.8565 9.9825h-1.16477v-1.3064h-.83807v1.3064h-.82386v.711h.82386v3.409c0 .951.76705 1.406 1.47724 1.406.3125 0 .5114-.057.625-.099l-.1704-.753c-.071.014-.1847.042-.3693.042-.3694 0-.72447-.113-.72447-.823v-3.182h1.16477zm1.2607 5.455h.838v-3.452c0-.738.5824-1.278 1.3779-1.278.2237 0 .4545.042.5113.057v-.853c-.0959-.007-.316-.014-.4403-.014-.6534 0-1.2216.37-1.4205.909h-.0568v-.824h-.8096zm5.3258.128c.9517 0 1.4488-.512 1.6193-.867h.0426v.739h.8381v-3.594c0-1.733-1.321-1.932-2.0171-1.932-.8238 0-1.7613.285-2.1875 1.279l.7955.284c.1846-.398.6214-.824 1.4204-.824.7706 0 1.1506.408 1.1506 1.108v.028c0 .405-.4119.37-1.4062.498-1.0121.131-2.1165.355-2.1165 1.605 0 1.065.8238 1.676 1.8608 1.676zm.1278-.753c-.6676 0-1.1506-.298-1.1506-.881 0-.639.5824-.838 1.2358-.923.3552-.043 1.3069-.142 1.4489-.312v.767c0 .681-.5398 1.349-1.5341 1.349zm6.3308-4.83h-1.2216v-.5535c0-.5398.2273-.8239.7813-.8239.2414 0 .3835.0568.4687.0852l.2415-.7244c-.1279-.0568-.3835-.142-.7955-.142-.7812 0-1.5341.4687-1.5341 1.4062v.7524h-.8806v.711h.8806v4.744h.8381v-4.744h1.2216zm3.6035 0h-1.2216v-.5535c0-.5398.2273-.8239.7813-.8239.2415 0 .3835.0568.4687.0852l.2415-.7244c-.1278-.0568-.3835-.142-.7954-.142-.7813 0-1.5341.4687-1.5341 1.4062v.7524h-.8807v.711h.8807v4.744h.838v-4.744h1.2216zm1.1746 5.455h.838v-5.455h-.838zm.4261-6.3636c.3267 0 .5966-.2557.5966-.5682s-.2699-.5682-.5966-.5682-.5966.2557-.5966.5682.2699.5682.5966.5682zm4.1628 6.4776c1.2074 0 2.0029-.739 2.1449-1.705h-.8381c-.1562.597-.6534.952-1.3068.952-.9943 0-1.6335-.824-1.6335-2.088 0-1.236.6534-2.046 1.6335-2.046.7387 0 1.179.455 1.3068.952h.8381c-.142-1.023-1.0085-1.705-2.1591-1.705-1.4773 0-2.4574 1.165-2.4574 2.827 0 1.634.9375 2.813 2.4716 2.813z"/><path d="m70.8807 94h4.2613v-.7812h-3.3806v-6.4915h-.8807zm7.7273.1136c1.4772 0 2.4715-1.1221 2.4715-2.8125 0-1.7045-.9943-2.8267-2.4715-2.8267-1.4773 0-2.4716 1.1222-2.4716 2.8267 0 1.6904.9943 2.8125 2.4716 2.8125zm0-.7528c-1.1222 0-1.6336-.9659-1.6336-2.0597 0-1.0937.5114-2.0738 1.6336-2.0738 1.1221 0 1.6335.9801 1.6335 2.0738 0 1.0938-.5114 2.0597-1.6335 2.0597zm5.356.767c.9517 0 1.4488-.5113 1.6193-.8664h.0426v.7386h.8381v-3.5938c0-1.7329-1.3211-1.9318-2.0171-1.9318-.8239 0-1.7614.2841-2.1875 1.2784l.7955.2841c.1846-.3977.6214-.8238 1.4204-.8238.7706 0 1.1506.4083 1.1506 1.1079v.0284c0 .4049-.4119.3694-1.4063.4972-1.012.1314-2.1164.3551-2.1164 1.6051 0 1.0653.8238 1.6761 1.8608 1.6761zm.1278-.7528c-.6676 0-1.1506-.2983-1.1506-.8807 0-.6392.5824-.8381 1.2358-.9233.3551-.0426 1.3068-.142 1.4489-.3125v.7671c0 .6818-.5398 1.3494-1.5341 1.3494zm5.9615.7386c1.0511 0 1.4062-.6534 1.5909-.9517h.0994v.8381h.8097v-7.2727h-.8381v2.6846h-.071c-.1847-.2841-.5114-.9375-1.5767-.9375-1.3779 0-2.3296 1.0938-2.3296 2.8125 0 1.733.9517 2.8267 2.3154 2.8267zm.1136-.7528c-1.0511 0-1.5909-.9233-1.5909-2.0881 0-1.1505.5256-2.0454 1.5909-2.0454 1.0227 0 1.5625.8238 1.5625 2.0454 0 1.2358-.554 2.0881-1.5625 2.0881zm-19.2862 12.6392h2.6278c1.7188 0 2.429-.838 2.429-1.932 0-1.15-.7955-1.775-1.4631-1.818v-.071c.625-.17 1.179-.582 1.179-1.52 0-1.0652-.7102-1.9317-2.2301-1.9317h-2.5426zm.8807-.781v-2.529h1.7897c.9517 0 1.5483.64 1.5483 1.378 0 .639-.4403 1.151-1.5909 1.151zm0-3.296v-2.4145h1.6619c.9659 0 1.392.5115 1.392 1.1505 0 .767-.625 1.264-1.4204 1.264zm7.1147 4.205c.9517 0 1.4488-.512 1.6193-.867h.0426v.739h.8381v-3.594c0-1.733-1.3211-1.932-2.0171-1.932-.8238 0-1.7613.285-2.1875 1.279l.7955.284c.1846-.398.6214-.824 1.4204-.824.7706 0 1.1506.408 1.1506 1.108v.028c0 .405-.4119.37-1.4063.498-1.012.131-2.1164.355-2.1164 1.605 0 1.065.8238 1.676 1.8608 1.676zm.1278-.753c-.6676 0-1.1506-.298-1.1506-.881 0-.639.5824-.838 1.2358-.923.3551-.043 1.3069-.142 1.4489-.312v.767c0 .681-.5398 1.349-1.5341 1.349zm4.7399-6.6477h-.8381v7.2727h.8381zm3.1401 7.4007c.9517 0 1.4488-.512 1.6193-.867h.0426v.739h.8381v-3.594c0-1.733-1.321-1.932-2.0171-1.932-.8238 0-1.7613.285-2.1875 1.279l.7955.284c.1846-.398.6214-.824 1.4204-.824.7706 0 1.1506.408 1.1506 1.108v.028c0 .405-.4119.37-1.4062.498-1.0121.131-2.1165.355-2.1165 1.605 0 1.065.8238 1.676 1.8608 1.676zm.1278-.753c-.6676 0-1.1505-.298-1.1505-.881 0-.639.5823-.838 1.2357-.923.3552-.043 1.3069-.142 1.4489-.312v.767c0 .681-.5398 1.349-1.5341 1.349zm4.7399-2.656c0-.952.5895-1.492 1.392-1.492.7777 0 1.25.508 1.25 1.364v3.409h.8381v-3.466c0-1.392-.7422-2.06-1.8466-2.06-.8238 0-1.3352.37-1.5909.924h-.071v-.853h-.8097v5.455h.8381zm7.2274 3.395c1.207 0 2.003-.739 2.145-1.705h-.838c-.156.597-.6535.952-1.307.952-.9943 0-1.6335-.824-1.6335-2.088 0-1.236.6534-2.046 1.6335-2.046.7387 0 1.179.455 1.307.952h.838c-.142-1.023-1.009-1.705-2.1592-1.705-1.4772 0-2.4573 1.165-2.4573 2.827 0 1.634.9375 2.813 2.4715 2.813zm5.657 0c1.108 0 1.918-.554 2.173-1.378l-.809-.227c-.213.568-.707.852-1.364.852-.984 0-1.662-.636-1.701-1.804h3.96v-.355c0-2.032-1.208-2.728-2.344-2.728-1.477 0-2.458 1.165-2.458 2.841s.966 2.799 2.543 2.799zm-1.701-3.282c.057-.848.657-1.605 1.616-1.605.909 0 1.491.682 1.491 1.605zm5.234 3.168h.838v-3.452c0-.738.583-1.278 1.378-1.278.224 0 .455.042.512.057v-.853c-.096-.007-.316-.014-.441-.014-.653 0-1.221.37-1.42.909h-.057v-.824h-.81z"/><path d="m163.761 86.7273h-.88v7.2727h.88zm2.491 3.9915c0-.9518.589-1.4915 1.392-1.4915.777 0 1.25.5078 1.25 1.3636v3.4091h.838v-3.4659c0-1.3921-.742-2.0597-1.847-2.0597-.824 0-1.335.3694-1.591.9233h-.071v-.8522h-.809v5.4545h.838zm8.875-.9518c-.263-.7741-.852-1.2926-1.932-1.2926-1.151 0-2.003.6534-2.003 1.5767 0 .7529.448 1.2571 1.449 1.4915l.909.2131c.55.1278.81.3906.81.767 0 .4688-.497.8523-1.279.8523-.685 0-1.115-.2947-1.264-.8807l-.795.1989c.195.9268.958 1.4204 2.074 1.4204 1.267 0 2.13-.6924 2.13-1.6335 0-.7599-.476-1.2393-1.449-1.4773l-.809-.1988c-.647-.1598-.938-.3764-.938-.7955 0-.4687.497-.8096 1.165-.8096.731 0 1.033.4048 1.179.7812zm3.733-1.2215h-1.165v-1.3069h-.838v1.3069h-.824v.7102h.824v3.4091c0 .9517.767 1.4062 1.477 1.4062.313 0 .512-.0568.625-.0994l-.17-.7528c-.071.0142-.185.0426-.369.0426-.37 0-.725-.1137-.725-.8239v-3.1818h1.165zm2.866 5.5823c.951 0 1.449-.5113 1.619-.8664h.043v.7386h.838v-3.5938c0-1.7329-1.321-1.9318-2.017-1.9318-.824 0-1.762.2841-2.188 1.2784l.796.2841c.184-.3977.621-.8238 1.42-.8238.771 0 1.151.4083 1.151 1.1079v.0284c0 .4049-.412.3694-1.407.4972-1.012.1314-2.116.3551-2.116 1.6051 0 1.0653.824 1.6761 1.861 1.6761zm.128-.7528c-.668 0-1.151-.2983-1.151-.8807 0-.6392.582-.8381 1.236-.9233.355-.0426 1.307-.142 1.449-.3125v.7671c0 .6818-.54 1.3494-1.534 1.3494zm4.739-2.6562c0-.9518.59-1.4915 1.392-1.4915.778 0 1.25.5078 1.25 1.3636v3.4091h.839v-3.4659c0-1.3921-.743-2.0597-1.847-2.0597-.824 0-1.335.3694-1.591.9233h-.071v-.8522h-.81v5.4545h.838zm7.228 3.3948c1.207 0 2.003-.7386 2.145-1.7045h-.838c-.157.5966-.654.9517-1.307.9517-.994 0-1.634-.8239-1.634-2.0881 0-1.2358.654-2.0454 1.634-2.0454.738 0 1.179.4545 1.307.9517h.838c-.142-1.0228-1.009-1.7046-2.159-1.7046-1.478 0-2.458 1.1648-2.458 2.8267 0 1.6336.938 2.8125 2.472 2.8125zm5.657 0c1.108 0 1.917-.5539 2.173-1.3778l-.81-.2273c-.213.5682-.706.8523-1.363.8523-.984 0-1.662-.6357-1.701-1.804h3.959v-.3551c0-2.0312-1.207-2.7273-2.343-2.7273-1.478 0-2.458 1.1648-2.458 2.8409 0 1.6762.966 2.7983 2.543 2.7983zm-1.701-3.2812c.057-.8487.657-1.6051 1.616-1.6051.909 0 1.491.6818 1.491 1.6051zm9.098-1.0654c-.263-.7741-.852-1.2926-1.932-1.2926-1.151 0-2.003.6534-2.003 1.5767 0 .7529.448 1.2571 1.449 1.4915l.909.2131c.551.1278.81.3906.81.767 0 .4688-.497.8523-1.279.8523-.685 0-1.115-.2947-1.264-.8807l-.795.1989c.195.9268.959 1.4204 2.074 1.4204 1.267 0 2.13-.6924 2.13-1.6335 0-.7599-.476-1.2393-1.449-1.4773l-.809-.1988c-.647-.1598-.938-.3764-.938-.7955 0-.4687.497-.8096 1.165-.8096.732 0 1.033.4048 1.179.7812z"/></g><path d="m173 7-5 2.88675v-5.7735zm-69 24.5h29.315v1h-29.315zm30.815-1.5v-21h1v21zm2.5-23.5h31.185v1h-31.185zm-2.5 2.5c0-1.38071 1.12-2.5 2.5-2.5v1c-.828 0-1.5.67157-1.5 1.5zm-1.5 22.5c.829 0 1.5-.6716 1.5-1.5h1c0 1.3807-1.119 2.5-2.5 2.5z" fill="#4dc952"/><path d="m173 69-5-2.8868v5.7736zm-69-24.5h29.315v-1h-29.315zm30.815 1.5v21h1v-21zm2.5 23.5h31.185v-1h-31.185zm-2.5-2.5c0 1.3807 1.12 2.5 2.5 2.5v-1c-.828 0-1.5-.6716-1.5-1.5zm-1.5-22.5c.829 0 1.5.6716 1.5 1.5h1c0-1.3807-1.119-2.5-2.5-2.5z" fill="#9293ab"/><rect fill="#a3e9ff" height="34" rx="2" width="34" x="70" y="22"/><path d="m70 38-5-2.8868v5.7736zm-70 .5h65.5v-1h-65.5z" fill="#4dc952"/><path d="m173 38-5-2.8868v5.7736zm-69 .5h64.5v-1h-64.5z" fill="#9293ab"/><rect fill="#b0b1c4" height="14" rx="2" width="14" x="173"/><rect fill="#4dc952" height="12" rx="2" width="12" x="174" y="1"/><rect fill="#b0b1c4" height="14" rx="2" width="14" x="173" y="32"/><rect fill="#b0b1c4" height="14" rx="2" width="14" x="173" y="62"/></svg>