<svg fill="none" height="22" viewBox="0 0 13 22" width="13" xmlns="http://www.w3.org/2000/svg"><path d="m.37207 6.9996c1.09935-1.21307 2.88177-1.21307 3.98112 0 1.09935-1.21307 2.88178-1.21307 3.98112 0 1.09935-1.21307 2.88179-1.21307 3.98109 0 0-3.63926-2.67357-6.589444-5.97165-6.589444s-5.97168 2.950184-5.97168 6.589444z" fill="#adeefa"/><path d="m6.34369.410156c-1.09983 0-1.99145 2.949604-1.99164 6.588334.00034.00037.00071.00074.00108.00111 1.09935-1.21307 2.88178-1.21307 3.98113 0 .00033-.00037.0007-.00074.00108-.00111-.00019-3.63873-.89181-6.588334-1.99165-6.588334z" fill="#ff7d97"/><path d="m3.66478 11.4126h5.35777c.82194 0 1.48825.7353 1.48825 1.6422v5.912c0 .907-.66631 1.6423-1.48825 1.6423h-5.35777c-.82193 0-1.48827-.7353-1.48827-1.6423v-5.912c0-.9069.66634-1.6422 1.48827-1.6422z" fill="#ffec80"/><path d="m4.85583 14.6163v-3.2042h2.97654v3.2042l-1.48827-1.177z" fill="#fff"/><g fill="#6b6d85"><path d="m12.6875 7c0-3.85981-2.84579-7-6.34375-7-3.49795 0-6.34375 3.14019-6.34375 7 0 .12818.0541358.24638.142688.32299l4.254962 3.67991h-.73279c-1.02579 0-1.86033.9209-1.86033 2.0528v1.1085c0 .2267.16657.4106.37206.4106.2055 0 .37207-.1839.37207-.4106v-1.1085c0-.6791.50073-1.2317 1.1162-1.2317h.81907v2.7937c0 .1539.07803.2949.20207.3653.12405.0702.2734.0581.38677-.0316l1.2715-1.0056 1.2715 1.0056c.06441.0509.14042.0769.21681.0769.05808 0 .11634-.015.16996-.0453.12405-.0704.20207-.2113.20207-.3653v-2.7937h.81803c.61547 0 1.11616.5526 1.11616 1.2317v5.912c0 .6792-.50069 1.2317-1.11616 1.2317h-5.35778c-.61547 0-1.1162-.5525-1.1162-1.2317v-1.1085c0-.2267-.16657-.4105-.37207-.4105-.20549 0-.37206.1838-.37206.4105v1.1085c0 1.1319.83454 2.0528 1.86033 2.0528h5.35778c1.02576 0 1.86036-.9209 1.86036-2.0528v-5.912c0-1.1319-.8346-2.0528-1.86036-2.0528h-.73279l4.25495-3.67991c.0886-.07661.1427-.19481.1427-.32299zm-.7993-.86866c-.9903-.61444-2.21694-.59912-3.19581.04492-.05492-1.49283-.25862-2.87797-.58735-3.96557-.15682-.51887-.32641-.92109-.50028-1.231388 2.23259.569078 3.95874 2.615288 4.28344 5.152038zm-5.54445-5.310226c.25688 0 .6874.431946 1.05533 1.649336.30361 1.00447.49325 2.2909.5478 3.68692-.49366-.31691-1.04823-.47608-1.60313-.47608s-1.10947.15917-1.60313.47608c.05455-1.39602.24419-2.68245.5478-3.68692.36794-1.21739.79845-1.649336 1.05533-1.649336zm1.54304 6.285266-1.54252 3.87922-1.54278-3.87996c.89501-.80511 2.19051-.80482 3.0853.00074zm-3.84435.13396 1.46178 3.67626-4.542277-3.9281c.935007-.72286 2.229127-.6389 3.080497.25184zm4.60444-.00193c.85144-.88894 2.14432-.97228 3.07872-.24991l-4.54072 3.9267zm-3.5641-6.259108c-.17387.310298-.34346.712478-.50029 1.231388-.32872 1.0876-.53242 2.47278-.58734 3.96561-.97887-.64404-2.20558-.65936-3.195837-.04492.324707-2.53679 2.050837-4.583 4.283467-5.152078zm2.37769 12.838998-.89943-.7113c-.06482-.0512-.14079-.0769-.21677-.0769-.07597 0-.15195.0257-.21677.0769l-.89943.7113v-1.9943h2.2324z"/><path d="m8.87387 19.036c.20549 0 .37206-.1839.37206-.4106s-.16657-.4106-.37206-.4106h-1.15341c-.2055 0-.37207.1839-.37207.4106s.16657.4106.37207.4106z"/><path d="m2.17663 16.4227c.09786 0 .19385-.044.26305-.1204.06921-.0763.10902-.1822.10902-.2902s-.03981-.2139-.10902-.2902c-.0692-.0764-.16519-.1203-.26305-.1203-.09785 0-.19384.0439-.26305.1203-.0692.0763-.10901.1822-.10901.2902s.03981.2139.10901.2902c.06921.0764.1652.1204.26305.1204z"/></g></svg>