<svg fill="none" height="180" viewBox="0 0 320 180" width="320" xmlns="http://www.w3.org/2000/svg" xmlns:xlink="http://www.w3.org/1999/xlink"><radialGradient id="a" cx="0" cy="0" gradientTransform="matrix(-.51398581 29.65384591 -63.57845035 -1.10199606 168.773 128.921)" gradientUnits="userSpaceOnUse" r="1"><stop offset="0"/><stop offset="1" stop-color="#3e7bfa" stop-opacity="0"/></radialGradient><path d="m276.382 125.717c0 29.98-52.106 54.283-116.382 54.283-64.2761 0-116.3823-24.303-116.3823-54.283 0-29.9794 52.1062-54.2827 116.3823-54.2827 64.276 0 116.382 24.3033 116.382 54.2827z" fill="url(#a)" fill-opacity=".1" opacity=".7"/><path d="m116.948 113.45v-67.7385l66.292-6.7667 25.674 16.5716-1.867 57.9336h8.169l3.968 3.218v30.109l-56.95 7.935-3.968-3.734v-2.567l-14.646-13.793h-8.044z" fill="#fff"/><g clip-rule="evenodd" fill="#000" fill-rule="evenodd"><path d="m186.232 102.827c-.267-.071-.425-.345-.353-.612l2.327-8.6845c.071-.2667.345-.425.612-.3535s.425.3456.354.6124l-2.327 8.6846c-.072.267-.346.425-.613.353zm3.54 2.895c-.266-.071-.425-.346-.353-.612l3.102-11.5795c.072-.2667.346-.425.613-.3535s.425.3456.353.6124l-3.102 11.5796c-.072.266-.346.425-.613.353zm3.103 2.312c-.267-.071-.425-.345-.354-.612l3.723-13.8915c.071-.2667.345-.425.612-.3535s.425.3456.354.6124l-3.723 13.8916c-.071.266-.345.425-.612.353zm3.523 2.526c-.267-.072-.425-.346-.354-.612l1.297-4.838c.071-.267.345-.425.612-.354.267.072.425.346.354.613l-1.297 4.837c-.071.267-.345.425-.612.354z"/><path d="m118.799 116.078c-.267-.072-.425-.346-.354-.613l15.474-57.7486c.072-.2668.346-.4251.612-.3536.267.0715.426.3457.354.6124l-15.474 57.7488c-.071.267-.345.425-.612.354z"/><path d="m116.457 77.5466c-.267-.0714-.425-.3456-.353-.6123l7.304-27.2605c.071-.2667.346-.425.612-.3535.267.0714.425.3456.354.6123l-7.305 27.2605c-.071.2667-.345.425-.612.3535z"/><path d="m128.021 128.271c-.266-.074-.421-.35-.347-.616l5.824-20.836c.074-.266.35-.421.616-.347.266.075.422.35.347.616l-5.824 20.836c-.074.266-.35.422-.616.347z"/><path d="m121.369 118.838c-.267-.072-.425-.347-.353-.613l14.436-53.4636c.072-.2666.346-.4243.613-.3524.266.072.424.3465.352.6131l-14.435 53.4629c-.072.267-.347.425-.613.353z"/><path d="m116.042 91.4539c-.267-.0715-.425-.3457-.354-.6124l10.47-39.0729c.072-.2667.346-.425.612-.3536.267.0715.425.3457.354.6124l-10.47 39.0729c-.071.2668-.345.425-.612.3536z"/><path d="m130.775 131.277c-.267-.072-.425-.346-.354-.613l3.571-13.324c.071-.267.345-.425.612-.353.267.071.425.345.353.612l-3.57 13.324c-.071.267-.345.425-.612.354z"/><path d="m115.317 58.9832c-.267-.0715-.425-.3457-.354-.6124l3.317-12.3795c.072-.2667.346-.425.613-.3536.267.0715.425.3457.353.6124l-3.317 12.3795c-.071.2667-.345.425-.612.3536z"/><path d="m123.803 122.05c-.267-.072-.425-.346-.353-.613l10.44-38.8962c.072-.2667.346-.4249.613-.3533s.425.3458.353.6125l-10.44 38.896c-.072.267-.346.425-.613.354z"/><path d="m116.333 102.727c-.267-.072-.425-.346-.353-.613l12.796-47.7584c.072-.2667.346-.425.613-.3535.266.0714.425.3456.353.6123l-12.797 47.7586c-.071.267-.345.425-.612.354z"/><path d="m133.433 133.711c-.267-.072-.425-.346-.353-.613l1.823-6.806c.072-.267.346-.425.613-.354.266.072.425.346.353.613l-1.823 6.806c-.072.267-.346.425-.613.354z"/><path d="m116.106 67.367c-.267-.0715-.426-.3457-.354-.6124l4.787-17.8643c.071-.2667.345-.425.612-.3535s.425.3456.354.6124l-4.787 17.8642c-.072.2667-.346.425-.612.3536z"/><path d="m126.064 125.009c-.267-.072-.425-.346-.354-.613l8.097-30.2167c.072-.2667.346-.425.612-.3535.267.0714.425.3456.354.6123l-8.097 30.2169c-.071.267-.345.425-.612.354z"/><path d="m116.592 113.089c-.267-.071-.425-.345-.354-.612l15.059-56.2011c.072-.2667.346-.425.613-.3536.266.0715.425.3457.353.6124l-15.059 56.2013c-.071.267-.345.425-.612.353z"/><path d="m217.188 55.5446c.019.2755-.19.5139-.465.5324-2.688.1807-5.484.3707-8.364.5664-24.416 1.659-54.927 3.7321-77.773 4.1058-.276.0045-.503-.2156-.508-.4917-.004-.2761.216-.5036.492-.5081 22.818-.3733 53.3-2.4445 77.722-4.1038 2.88-.1956 5.675-.3856 8.364-.5663.275-.0186.514.1898.532.4653z"/><path d="m113.502 43.9363c.148-.2329.458-.3015.69-.1531 3.241 2.0636 6.618 4.4966 10.057 6.9739 1.613 1.1618 3.239 2.3333 4.871 3.4811 5.13 3.6078 10.336 6.9955 15.464 9.2081.254.1094.37.4036.261.6572-.109.2535-.404.3704-.657.261-5.228-2.2559-10.505-5.6948-15.643-9.3083-1.654-1.1634-3.292-2.3434-4.911-3.5093-3.425-2.4678-6.762-4.872-9.979-6.9203-.233-.1483-.301-.4574-.153-.6903z"/><path d="m178.711 36.3991c.161-.2244.473-.2759.698-.115.448.3214.896.6428 1.344.9642 6.9 4.9493 13.79 9.8914 20.919 14.4794.969.6238 2.385 1.4444 3.896 2.3201.371.2151.747.4335 1.125.6531 1.899 1.1052 3.814 2.2434 5.01 3.1131.223.1624.273.4751.11.6984-.162.2234-.475.2727-.698.1103-1.147-.834-3.016-1.946-4.925-3.0575-.371-.2159-.744-.4317-1.112-.6452-1.513-.8768-2.957-1.7137-3.947-2.3514-7.151-4.6021-14.061-9.5582-20.956-14.5042-.45-.3226-.899-.6452-1.349-.9676-.225-.1609-.276-.4733-.115-.6977z"/><path d="m189.549 38.4551c.035.2739-.159.5243-.433.5592-19.119 2.4392-56.499 6.4404-75.789 6.9091-.276.0067-.506-.2116-.512-.4877-.007-.2761.211-.5053.487-.512 19.234-.4674 56.569-4.4623 75.688-6.9013.274-.035.524.1588.559.4327z"/><path d="m116.188 39.6444c.275.0197.483.259.463.5344-.447 6.2381-.294 13.9412-.105 21.6765.012.5138.025 1.0277.038 1.5413.178 7.2059.356 14.354.067 20.233-.414 8.4338-.144 22.2614 1.018 30.5734.038.273-.152.526-.426.564-.273.039-.526-.152-.564-.426-1.173-8.393-1.443-22.287-1.027-30.7604.287-5.8403.111-12.9525-.068-20.1717-.013-.5093-.025-1.0192-.038-1.5292-.189-7.7249-.344-15.4776.107-21.7724.02-.2754.259-.4827.535-.4629z"/><path d="m137.563 53.866c.273.0444.458.3014.413.574-2.27 13.9204-2.954 28.1376-3.058 41.8142v8.2208c.035 5.235.128 10.375.217 15.356.106 5.846.207 11.474.207 16.781 0 .277-.224.5-.5.5s-.5-.223-.5-.5c0-5.313-.101-10.915-.206-16.744-.09-4.977-.183-10.119-.218-15.388-.018-2.716-.021-5.4622 0-8.2315.104-13.7017.789-27.9768 3.071-41.9695.045-.2726.302-.4575.574-.413z"/><path d="m208.584 49.1556c.275.0246.478.2675.453.5426-1.711 19.1196-2.155 51.0708-2.155 63.8198 0 .276-.224.5-.5.5s-.5-.224-.5-.5c0-12.751.444-44.741 2.159-63.909.025-.275.268-.478.543-.4534z"/><path d="m115.726 111.774c.209-.18.525-.156.705.054 2.583 3.003 5.035 6.062 7.477 9.106 4.606 5.745 9.172 11.438 14.492 16.611.198.193.203.509.01.707-.192.198-.509.203-.707.01-5.361-5.212-9.999-10.995-14.633-16.772-2.432-3.032-4.863-6.064-7.397-9.01-.18-.21-.157-.525.053-.706z"/><path d="m144.557 133.92c.025.275-.177.519-.452.544-1.088.098-2.051.191-2.939.276-3.663.353-6.047.582-10.584.616-.276.002-.502-.22-.504-.497-.002-.276.22-.501.496-.503 4.49-.033 6.831-.259 10.486-.61.89-.086 1.858-.179 2.954-.278.275-.025.518.177.543.452z"/><path d="m198.915 66.9239c.017.2756-.192.5131-.468.5305-14.272.8982-28.533 1.8586-42.796 2.8193-5.605.3774-11.21.7549-16.816 1.1286-.275.0184-.514-.1901-.532-.4656s.19-.5138.466-.5321c5.604-.3737 11.208-.7511 16.812-1.1285 14.265-.9607 28.529-1.9214 42.804-2.8198.275-.0173.513.192.53.4676z"/><path d="m197.87 63.8628c.276 0 .5.2239.5.5v47.0272c0 .276-.224.5-.5.5s-.5-.224-.5-.5v-47.0272c0-.2761.224-.5.5-.5z"/><path d="m143.338 69.655c.276.0203.482.2601.462.5355-.492 6.6472-.333 12.7148-.169 18.9984.085 3.2285.171 6.5141.171 9.9647 0 .2761-.224.5-.5.5s-.5-.2239-.5-.5c0-3.3944-.085-6.6541-.169-9.8718-.165-6.3162-.326-12.4708.17-19.1651.02-.2754.26-.4821.535-.4617z"/><path d="m199.8 92.8596c.024.2751-.179.5178-.454.5421-6.867.6058-13.492 1.1538-20.1 1.7003-11.995.992-23.931 1.9792-37.145 3.2991-.274.0275-.519-.173-.547-.4478-.027-.2748.173-.5198.448-.5472 13.22-1.3207 25.173-2.3092 37.174-3.3018 6.606-.5464 13.227-1.0939 20.082-1.6988.275-.0242.518.1791.542.4541z"/><path d="m143.16 97.484c.276.0063.495.2352.489.5113-.065 2.8147-.174 5.7297-.285 8.6807-.348 9.296-.71 18.957.281 26.996.033.274-.161.524-.435.558-.274.033-.524-.161-.558-.436-1.001-8.126-.634-17.907-.285-27.221.11-2.935.219-5.824.282-8.6005.006-.2761.235-.4948.511-.4885z"/><path d="m143.569 133.879c.191-.199.507-.205.707-.014 5.448 5.226 9.52 9.512 13.225 13.412.12.127.24.253.36.379.19.2.182.517-.018.707-.201.19-.517.182-.707-.018-.119-.125-.238-.251-.358-.377-3.704-3.9-7.763-8.172-13.194-13.382-.2-.191-.206-.507-.015-.707z"/><path d="m141.948 114.05c.195-.195.512-.195.707 0 5.171 5.171 11.368 12.7 15.414 18.768.153.229.091.54-.139.693s-.54.091-.694-.139c-4.007-6.011-10.162-13.489-15.288-18.615-.195-.195-.195-.512 0-.707z"/><path d="m157.145 149.952c.194-.197.51-.198.707-.004.194.192.387.384.579.576 1.407 1.4 2.777 2.764 4.356 3.87.226.158.281.47.123.696-.159.226-.471.281-.697.123-1.655-1.159-3.09-2.588-4.49-3.983-.192-.192-.384-.382-.575-.571-.196-.195-.198-.511-.003-.707z"/><path d="m220.837 146.507c.272-.046.53.137.577.409.046.272-.137.531-.409.577l-.084-.493zm-19.379 4.045c-11.383 1.67-25.999 3.623-38.915 4.749-.275.024-.517-.179-.541-.454-.024-.276.179-.518.455-.542 12.886-1.124 27.48-3.073 38.856-4.742 5.688-.834 10.569-1.598 14.028-2.154 1.73-.278 3.104-.503 4.046-.659.471-.078.833-.139 1.078-.18l.372-.063s0 0 .084.493.084.493.084.493l-.374.063c-.246.041-.609.102-1.081.18-.943.157-2.318.382-4.05.661-3.463.555-8.349 1.32-14.042 2.155z"/><path d="m183.646 101.08c.171-.217.485-.255.702-.084 2.479 1.949 6.474 5.088 9.849 7.739l6.129 4.814s0 .001-.309.394c-.308.393-.308.393-.309.393l-6.129-4.815c-3.375-2.651-7.37-5.79-9.849-7.739-.217-.171-.255-.485-.084-.702zm16.765 13.172c-.171.217-.485.255-.703.084l.309-.393.309-.394c.217.171.255.486.085.703z"/><path d="m183.229 108.091c.176-.212.491-.241.704-.065 1.217 1.011 2.044 1.717 2.728 2.301 1.52 1.297 2.328 1.987 5.127 4.066.222.165.268.478.103.7-.164.221-.478.268-.699.103-2.827-2.1-3.661-2.811-5.194-4.12-.683-.583-1.505-1.285-2.704-2.28-.213-.177-.242-.492-.065-.705z"/><path d="m183.859 94.2924c.276.0063.495.2353.488.5114-.067 2.923-.048 5.3092-.025 8.1492.012 1.612.026 3.371.026 5.458 0 .276-.224.5-.5.5s-.5-.224-.5-.5c0-2.067-.014-3.819-.026-5.43-.023-2.853-.042-5.2633.026-8.2003.006-.2761.235-.4947.511-.4883z"/><path d="m183.685 108.785c.028.275-.172.521-.446.549-7.596.779-13.696 1.348-19.795 1.916l-.075.007c-6.074.566-12.151 1.133-19.71 1.907-.274.028-.52-.172-.548-.446-.028-.275.172-.521.446-.549 7.564-.774 13.645-1.341 19.718-1.907l.077-.007c6.098-.569 12.194-1.137 19.785-1.916.274-.028.52.172.548.446z"/></g><path d="m176.191 133.05c14.477 0 26.213-11.711 26.213-26.157 0-14.4453-11.736-26.1559-26.213-26.1559s-26.213 11.7106-26.213 26.1559c0 14.446 11.736 26.157 26.213 26.157z" fill="#00ade4" opacity=".1"/><path d="m175.631 123.355c9.42 0 17.056-7.62 17.056-17.02 0-9.3989-7.636-17.0186-17.056-17.0186s-17.056 7.6197-17.056 17.0186c0 9.4 7.636 17.02 17.056 17.02z" fill="#00ade4" opacity=".2"/><path d="m175.981 114.636c4.942 0 8.947-3.998 8.947-8.928 0-4.931-4.005-8.9285-8.947-8.9285-4.941 0-8.947 3.9975-8.947 8.9285 0 4.93 4.006 8.928 8.947 8.928z" fill="#00ade4" opacity=".3"/><path d="m158.605 119.519v31.668l3.151 2.837 58.139-6.775v-31.197l-5.042-3.466z" fill="#fff"/><path clip-rule="evenodd" d="m156.946 117.802c.195-.196.511-.198.707-.004.195.192.388.384.58.576 1.407 1.401 2.777 2.765 4.355 3.87.227.158.282.47.123.696-.158.227-.47.282-.696.123-1.655-1.158-3.09-2.588-4.49-3.983-.192-.191-.384-.382-.575-.571-.196-.194-.198-.511-.004-.707z" fill="#000" fill-rule="evenodd"/><path clip-rule="evenodd" d="m158.052 118.154c.276 0 .5.223.5.5 0 3.056.04 6.533.082 10.164.091 7.769.189 16.243-.083 22.804-.011.276-.244.491-.52.479-.276-.011-.49-.244-.479-.52.271-6.535.173-14.957.083-22.711-.043-3.641-.083-7.134-.083-10.216 0-.277.224-.5.5-.5z" fill="#000" fill-rule="evenodd"/><path clip-rule="evenodd" d="m223.03 116.185c.003.276-.219.502-.495.504-13.713.123-28.461 1.99-42.788 3.804-6.252.792-12.424 1.574-18.395 2.196-.275.028-.521-.171-.549-.446-.029-.275.17-.52.445-.549 5.922-.617 12.066-1.395 18.303-2.184 14.354-1.818 29.201-3.698 42.975-3.821.276-.002.502.22.504.496z" fill="#000" fill-rule="evenodd"/><path clip-rule="evenodd" d="m219.005 111.948c.044.273-.141.53-.413.574-10.259 1.67-20.615 2.725-30.972 3.695-1.652.154-3.304.307-4.956.459-8.707.804-17.403 1.607-26.048 2.723-.274.036-.525-.158-.56-.431-.035-.274.158-.525.432-.56 8.664-1.119 17.382-1.924 26.088-2.728 1.651-.152 3.301-.305 4.951-.459 10.355-.969 20.682-2.022 30.904-3.686.273-.044.529.141.574.413z" fill="#000" fill-rule="evenodd"/><path clip-rule="evenodd" d="m213.115 111.66c.134-.241.439-.328.68-.193 2.898 1.614 5.813 3.183 8.742 4.745.244.13.336.433.206.677s-.433.336-.676.206c-2.931-1.563-5.853-3.136-8.759-4.755-.241-.134-.327-.438-.193-.68z" fill="#000" fill-rule="evenodd"/><path clip-rule="evenodd" d="m219.775 114.404c.275-.015.511.196.526.472.31 5.637.127 15.563-.017 23.333-.064 3.496-.121 6.555-.121 8.591 0 .276-.224.5-.5.5s-.5-.224-.5-.5c0-2.073.057-5.164.122-8.682.144-7.755.325-17.587.018-23.187-.015-.276.196-.512.472-.527z" fill="#000" fill-rule="evenodd"/><path clip-rule="evenodd" d="m161.772 119.155c.276-.018.513.192.53.468.558 9.001.349 18.484.164 26.898-.085 3.832-.164 7.441-.164 10.683 0 .276-.224.5-.5.5s-.5-.224-.5-.5c0-3.283.08-6.917.165-10.763.185-8.394.392-17.797-.163-26.756-.017-.276.193-.513.468-.53z" fill="#000" fill-rule="evenodd"/><path clip-rule="evenodd" d="m242.721 132.297c-.064.268-.334.434-.603.37l-11.621-2.774c-.269-.064-.434-.334-.37-.603.064-.268.333-.434.602-.37l11.621 2.774c.269.064.435.334.371.603z" fill="#000" fill-rule="evenodd"/><path clip-rule="evenodd" d="m147.642 147.277c.048.272-.133.532-.405.58l-11.763 2.095c-.271.049-.531-.133-.58-.404-.048-.272.133-.532.405-.58l11.763-2.095c.272-.049.531.132.58.404z" fill="#000" fill-rule="evenodd"/><path clip-rule="evenodd" d="m218.454 103.602c-.259-.095-.392-.383-.297-.642l4.023-10.9701c.095-.2593.383-.3924.642-.2973s.392.3823.297.6416l-4.023 10.9698c-.095.26-.383.393-.642.298z" fill="#000" fill-rule="evenodd"/><path clip-rule="evenodd" d="m229.168 112.407c-.14-.237-.061-.544.177-.684l10.733-6.328c.238-.14.544-.061.684.177.141.237.061.544-.176.684l-10.733 6.328c-.238.14-.545.061-.685-.177z" fill="#000" fill-rule="evenodd"/><path clip-rule="evenodd" d="m151.511 155.491c.209.181.232.497.052.706l-5.763 6.672c-.18.209-.496.232-.705.051-.209-.18-.232-.496-.052-.705l5.763-6.672c.18-.209.496-.232.705-.052z" fill="#000" fill-rule="evenodd"/><path clip-rule="evenodd" d="m216.035 157.114c.243-.13.546-.039.677.205.714 1.33 1.254 2.699 1.76 4.054.096.256.19.512.285.767.406 1.1.806 2.183 1.283 3.253.112.252-.001.547-.254.66-.252.112-.547-.001-.66-.253-.491-1.103-.905-2.224-1.312-3.325-.093-.252-.186-.503-.279-.753-.503-1.348-1.024-2.663-1.704-3.93-.131-.244-.039-.547.204-.678z" fill="#000" fill-rule="evenodd"/><path clip-rule="evenodd" d="m186.804 172.748c-.276-.011-.491-.243-.48-.519.07-1.782.071-4.162.053-6.102-.009-.968-.022-1.825-.033-2.439-.006-.308-.011-.554-.014-.724l-.004-.195-.002-.066.5-.013.5-.012.001.069.005.196c.003.171.008.418.014.727.011.616.024 1.476.033 2.448.018 1.942.018 4.342-.053 6.15-.011.276-.244.491-.52.48zm.008-10.558c.276-.006.505.212.512.488l-.5.012-.5.012c-.006-.276.212-.505.488-.512z" fill="#000" fill-rule="evenodd"/></svg>