<svg fill="none" height="117" viewBox="0 0 117 117" width="117" xmlns="http://www.w3.org/2000/svg"><path d="m54.1257 99.3113c-.9481-2.8443 5.0943-23.9157 8.4521-34.5818-8.5336 1.8962-26.751-5.4753-6.1012-18.4597-4.1455 6.8833-4.9547 14.0031 8.9066 9.7846-3.9004-2.9013-17.7768-17.7767 5.333-15.4063 15.6758 1.6078 11.4562 12.0486 7.7033 15.4064 2.1727-.1975 4.9775-1.3037 10.6661 5.333 5.6885 6.6367 6.3206 15.9989 2.9628 18.3691 0 0-1.9199-6.17-2.9628-9.4807-1.3802-4.3811-7.7033-8.8884-7.7033-8.8884 3.3578 11.4562 12.4458 34.9608 12.4458 34.9608s-11.2607-6.5179-16.5937-10.6659c-4.2665-3.3183-9.6785 1.3827-11.8512 4.148-3.3575 4.3454-10.3094 12.3256-11.2575 9.4809z" fill="#fff"/><g clip-rule="evenodd" fill-rule="evenodd"><path d="m70.1772 39.2555c-2.5811-.3344-5.2264-.3062-7.7962.3106-.9727.2335-2.0643.5773-3.0055 1.1542-.9514.5832-1.7824 1.4263-2.1516 2.6539-.1847.6139-.2534 1.2438-.2314 1.875-.2346 1.9824.4687 3.8547 1.6719 5.4936 1.214 1.6535 2.9652 3.1125 4.905 4.2905 1.9432 1.1801 4.1071 2.0974 6.1772 2.6517 2.0593.5513 4.0814.7581 5.7225.4614 1.0634-.1922 2.1345-.5669 3.1481-1.0914.1939-.0779.3845-.1617.5713-.2517.5892-.2837 1.1093-.6785 1.5629-1.1493.2326-.1898.4579-.3882.675-.5945 1.6693-1.5868 2.8927-3.6903 3.0441-6.065.1709-2.6813-1.4314-4.6355-3.3775-5.9954-1.2452-.8701-2.6842-1.5379-4.0312-2.0412-1.6411-.7225-3.4377-1.1343-5.307-1.453-.5224-.0971-1.0486-.1809-1.5776-.2494zm1.3658 1.6976c-.5085-.0874-1.0295-.1688-1.5626-.2484-2.4376-.315-4.8971-.2832-7.258.2835-.9154.2198-1.8339.5202-2.5826.9791-.7385.4526-1.2773 1.0367-1.5154 1.8282-.414 1.3765-.0555 3.0113.7687 4.6245.8172 1.5993 2.0366 3.0638 3.1473 4.0338 1.8299 1.5981 4.6825 2.9291 7.6929 3.5656 2.7805.5879 5.5872.561 7.7749-.2962.6096-.3205 1.1974-.7039 1.7431-1.1412.7671-.8208 1.3433-1.9852 1.6748-3.2692.4892-1.8947.3712-3.7601-.2012-4.7514-1.2254-2.1222-2.8146-3.4044-4.7137-4.2479-.6952-.2583-1.3724-.4737-1.9889-.6502-.9792-.2805-1.9751-.5217-2.9793-.7102z" fill="#000"/><path d="m81.5618 61.0335c-.3672.168-.5288.6019-.3608.9692 2.421 5.2924 3.7586 8.6668 5.2456 12.4181 1.0371 2.6165 2.1469 5.4163 3.7476 9.1781.4097.9628 1.4615 3.6756 2.1002 6.3814.3201 1.3564.5267 2.6713.5121 3.7471-.0136.9997-.2154 1.6224-.5118 1.9487-.5866.0891-1.3418-.1467-2.3124-.7837-1.0388-.6816-2.1678-1.7185-3.3628-2.8998-.4219-.417-.8543-.8544-1.2911-1.2963-.7759-.785-1.5657-1.584-2.3352-2.3077-1.2051-1.1332-2.4437-2.1641-3.65-2.7673-3.1672-1.5836-6.2797-1.5368-9.2487-.1645-2.9321 1.3552-5.6876 3.9836-8.2611 7.4972-1.1935 1.6294-2.4637 3.312-4.059 4.4591-1.5573 1.1199-3.4214 1.7263-5.8585 1.1847-.3942-.0876-.7848.161-.8725.5552-.0876.3943.161.7849.5552.872 2.896.644 5.1798-.0943 7.0297-1.4245 1.8119-1.3029 3.2082-3.1757 4.385-4.7823 2.503-3.4174 5.0811-5.8258 7.6948-7.0339 2.5769-1.191 5.2226-1.2341 7.981.1451 1.0044.5022 2.1137 1.407 3.3022 2.5246.7535.7086 1.5054 1.4696 2.2657 2.239.4413.4466.8855.8961 1.3343 1.3397 1.1984 1.1847 2.417 2.3136 3.5886 3.0824 1.1487.7539 2.4178 1.2722 3.6546.94.0986-.0265.1907-.0734.2701-.1377.8924-.7218 1.1479-1.9631 1.1643-3.1701.0169-1.2501-.2197-2.6988-.5512-4.103-.6645-2.8153-1.7494-5.6114-2.1778-6.6181-1.5671-3.6827-2.6724-6.4696-3.7117-9.0899-1.5042-3.7924-2.87-7.2361-5.2972-12.542-.168-.3673-.6019-.5288-.9692-.3608z" fill="#000"/><path d="m62.6847 63.6676c-.3772-.1443-.7999.0446-.9441.4218-.9826 2.5698-3.4801 9.2171-5.4868 16.5139-1.0033 3.6481-1.8876 7.4714-2.3973 11.0369-.5081 3.5539-.6524 6.9052-.1398 9.5868.0759.396.4589.656.8556.581.3966-.076.6567-.459.5809-.856-.4677-2.4462-.3486-5.61.1511-9.1048.4979-3.4833 1.3658-7.2423 2.3596-10.8561 1.9876-7.2271 4.4647-13.8217 5.4427-16.3793.1442-.3773-.0446-.8-.4219-.9442z" fill="#000"/><path d="m57.9634 45.5885c-.2715-.299-.734-.3212-1.0329-.0497-1.0592.9619-2.2578 2.4067-3.1675 3.963-.8962 1.5335-1.5837 3.2972-1.4516 4.8665.0681.8078.3553 1.5763.9486 2.2088.5878.6267 1.4255 1.0662 2.5037 1.3154 2.1296.4921 5.3596.2792 10.0434-.9015.3916-.0988.6291-.4963.5303-.8879-.0987-.3916-.4962-.629-.8878-.5303-4.6243 1.1658-7.5755 1.3063-9.3566.8947-.8771-.2026-1.4271-.5292-1.7663-.8909-.3338-.3559-.513-.798-.5579-1.3311-.0937-1.1125.407-2.5515 1.2569-4.0057.8365-1.4313 1.9418-2.759 2.888-3.6183.299-.2716.3212-.734.0497-1.033z" fill="#000"/><path d="m78.299 55.3115c-.0832.3952.1697.7831.5649.8663 5.376 1.1318 10.0828 5.2675 12.438 10.1362 2.0784 4.2965 2.2732 9.0246-.3612 12.7157-.3256-4.8704-2.0496-11.7032-8.4698-17.5884-.2977-.2729-.7602-.2528-1.0331.0449s-.2528.7603.0449 1.0332c6.9072 6.3316 8.059 13.8035 8.059 18.4229 0 .2958.1782.5624.4515.6756.2732.1132.5878.0506.7969-.1586 4.4147-4.4158 4.3553-10.5584 1.8284-15.7822-2.5227-5.215-7.5715-9.6921-13.4533-10.9305-.3951-.0832-.783.1698-.8662.5649z" fill="#000"/><path d="m83.1893 53.1467c-.3384.2204-.7914.1248-1.0118-.2136-.2867-.4401-1.0133-.8754-2.2376-1.1932-1.1829-.3071-2.675-.465-4.2689-.4836-3.2068-.0372-6.6455.4897-8.5862 1.3409-.3698.1622-.8011-.0061-.9634-.376-.1622-.3698.0061-.8011.376-.9633 2.2072-.9682 5.8792-1.5025 9.1906-1.464 1.6652.0194 3.284.1837 4.6194.5304 1.2942.336 2.4934.8862 3.0955 1.8105.2205.3384.1248.7914-.2136 1.0119z" fill="#000"/><path d="m57.5754 44.9152c-.2202-.3386-.6731-.4346-1.0117-.2144-5.5196 3.5897-8.4257 6.8076-9.455 9.6703-.5212 1.4497-.5587 2.8043-.2098 4.0393.3467 1.2271 1.0614 2.29 1.9747 3.1907 1.814 1.789 4.4832 3.0111 6.9849 3.6954 1.259.3444 2.4986.5591 3.5997.6389 1.0882.0788 2.0914.0296 2.8532-.1904.388-.1121.6117-.5175.4997-.9055-.1121-.388-.5175-.6117-.9055-.4996-.5247.1515-1.3321.2099-2.3418.1368-.9969-.0722-2.1425-.2689-3.3194-.5909-2.3701-.6483-4.7751-1.7788-6.3439-3.326-.7782-.7675-1.3319-1.6186-1.5942-2.547-.2601-.9205-.247-1.9628.1787-3.1469.8646-2.4048 3.4376-5.4021 8.8761-8.9391.3385-.2201.4345-.6731.2143-1.0116z" fill="#000"/></g><path d="m103.691 25.877c0 .6318-.263 1.2987-.789 2.0007-.527.6669-1.176 1.3689-1.949 2.106-.772.702-1.6141 1.4216-2.5267 2.1587s-1.755 1.4742-2.5272 2.2113c-.7722.702-1.4216 1.3864-1.9481 2.0533s-.7897 1.2812-.7897 1.8428c0 .3861.0351.8073.1053 1.2636.1053.4212.2457.7722.4212 1.053-.1755.3159-.351.5616-.5265.7371s-.4037.2632-.6845.2632c-.2457 0-.4738-.1053-.6844-.3159-.1755-.2106-.3335-.4738-.4739-.7897s-.2632-.6494-.3685-1.0004c-.0702-.351-.1053-.6669-.1053-.9477 0-.8073.1053-1.4742.3159-2.0007.2106-.5616.5265-1.0705.9477-1.5268.4563-.4914 1.0003-.9828 1.6321-1.4742s1.3689-1.053 2.2113-1.6848c.6318-.4914 1.2636-1.0179 1.8954-1.5795.6669-.5616 1.2461-1.1057 1.7375-1.6322.5264-.5616.9474-1.0881 1.2634-1.5795.351-.5265.527-1.0003.527-1.4215 0-.351-.158-.702-.474-1.053-.281-.351-.667-.6494-1.1585-.8951-.4914-.2808-1.0705-.4914-1.7374-.6318-.6669-.1755-1.3689-.2632-2.106-.2632-1.6497 0-2.9484.1228-3.8961.3685-.9126.2457-1.6497.3686-2.2113.3686-.2808 0-.5616-.0702-.8424-.2106-.2808-.1755-.4212-.4212-.4212-.7371 0-.4212.3159-.7722.9477-1.053s1.3513-.4914 2.1586-.6318c.8424-.1404 1.6322-.2282 2.3693-.2633.7722-.0702 1.2811-.1053 1.5268-.1053 1.0881 0 2.1236.158 3.1064.4739s1.8431.7195 2.5801 1.2109c.772.4914 1.369 1.0706 1.79 1.7375.456.6318.684 1.2811.684 1.948zm-6.8969 22.4289c0 .4212-.2106.7371-.6318.9477-.4212.2457-.8073.3686-1.1583.3686-.3159 0-.6844-.1755-1.1056-.5265-.4212-.3159-.6318-.6318-.6318-.9477 0-.1053 0-.2457 0-.4212.0351-.2106.0877-.4212.1579-.6318.1053-.2106.2282-.3861.3686-.5265.1404-.1755.3334-.2633.5791-.2633.1053 0 .2808.0878.5265.2633.2808.1404.5616.3159.8424.5265s.5265.4387.7371.6844c.2106.2106.3159.3861.3159.5265z" fill="#1a1a1a"/><path clip-rule="evenodd" d="m95.5305 21.0186c-.2183 0-.7036.0326-1.4805.1032l-.011.001-.011.0005c-.7137.034-1.4827.1192-2.3077.2566-.7725.1345-1.45.3342-2.0367.5949-.5769.2564-.6437.4779-.6437.5853 0 .1232.037.2074.1616.2907.2094.101.4047.1451.5901.1451.4965 0 1.1839-.1102 2.0783-.351l.0046-.0012c1.0085-.2615 2.3567-.3849 4.0245-.3849.7736 0 1.5155.0916 2.224.2769.6983.1481 1.3212.372 1.8611.6785.5329.2681.9749.6036 1.3069 1.0152.365.4094.596.8733.596 1.3844 0 .56-.231 1.1321-.611 1.7019-.336.5231-.778 1.0728-1.3178 1.649-.5065.5426-1.0992 1.099-1.7762 1.6694.0017-.0015.0035-.003.0052-.0046l-.3401-.3825.3297.3915c.0018-.0015.0035-.0029.0052-.0044-.638.5669-1.2766 1.0991-1.916 1.5964l-.0071.0055c-.8407.6306-1.5754 1.1902-2.2042 1.6793-.6138.4774-1.1365.9502-1.5707 1.4178-.3778.4093-.6577.8617-.8442 1.3589l-.0039.0105c-.1785.4462-.2794 1.0429-.2794 1.8105 0 .2336.0287.5073.0907.8238-.0023-.0077-.0046-.0154-.007-.0232l-.4903.1471.502-.1004c-.0016-.0078-.0031-.0157-.0047-.0235.0979.3229.211.6283.3391.9164.1213.2729.2508.4873.3839.6512-.0052-.005-.0105-.0102-.0159-.0155l-.362.3619.3933-.3277c-.0051-.0061-.0103-.0124-.0154-.0187.1286.1231.2278.1504.3066.1504.1645 0 .2559-.0467.3225-.1133.0911-.0911.1912-.2172.2985-.3843.0484.0979.1003.1915.1559.2805l.434-.2713-.4474-.2486c-.0488.0877-.0963.1674-.1425.2394-.1355-.274-.2435-.5823-.3278-.9197l-.0058-.0229-.0036-.0234c-.0734-.4772-.1112-.9248-.1112-1.3414 0-.7226.3369-1.4469.8998-2.16.5463-.6919 1.2144-1.3953 2.0009-2.1107-.0015.0014-.003.0029-.0045.0043l.3534.3703-.3443-.3788c-.0015.0014-.0031.0028-.0046.0042.7821-.7463 1.6338-1.4913 2.5545-2.2349.904-.7302 1.7372-1.4418 2.5004-2.135-.002.0014-.003.0028-.005.0043l.353.3702-.344-.3787c-.001.0014-.003.0028-.004.0042.755-.7211 1.384-1.4023 1.891-2.0436-.002.0017-.003.0033-.004.005l.409.3071-.401-.3172c-.002.0017-.003.0034-.004.0051.482-.645.683-1.2046.683-1.6886 0-.542-.183-1.0886-.587-1.6483l-.009-.0129-.009-.0135c-.375-.5936-.913-1.1216-1.632-1.5789l-.009-.0059c-.692-.4612-1.5078-.8459-2.4528-1.1496-.9295-.2988-1.9119-.4493-2.9497-.4493zm-1.5623-.9173c.7616-.0692 1.2905-.1065 1.5623-.1065 1.1384 0 2.2269.1654 3.263.4984 1.0187.3275 1.9215.7492 2.7025 1.2694.819.5217 1.469 1.1466 1.935 1.8796.502.7001.772 1.4478.772 2.2348 0 .7784-.324 1.551-.892 2.3078l-.008.0102c-.544.6897-1.211 1.4093-1.996 2.159l-.009.0086c-.781.7095-1.6307 1.4354-2.5501 2.178-.9027.7291-1.7344 1.4569-2.4954 2.1833l-.009.0086c-.7559.6872-1.3851 1.3512-1.8907 1.9917-.4901.6207-.6797 1.1249-.6797 1.5256 0 .3491.0312.7361.0958 1.1621.0952.3734.2159.6639.3529.8832l.16.256-.1466.2639c-.1891.3403-.3914.6298-.612.8504-.2844.2844-.6493.4132-1.0464.4132-.4094 0-.7615-.181-1.0464-.4658l-.0164-.0165-.0149-.0178c-.2124-.2549-.3935-.5612-.5484-.9095-.1497-.3369-.2799-.6907-.391-1.0612l-.007-.0231-.0047-.0236c-.0751-.3755-.1152-.7259-.1152-1.0481 0-.8445.1091-1.5798.3504-2.1856.2347-.6237.5857-1.1873 1.0489-1.6891l.0011-.0011c.4782-.515 1.0434-1.0248 1.6929-1.53.6339-.493 1.3723-1.0556 2.2149-1.6875.6213-.4834 1.2433-1.0018 1.866-1.5553l.0103-.0091c.6543-.5511 1.2182-1.0809 1.693-1.5897.5116-.5457.9127-1.0485 1.2077-1.5071l.004-.0072c.322-.482.441-.8563.441-1.1375 0-.1864-.082-.4207-.343-.7106l-.01-.0111-.009-.0116c-.225-.2817-.5479-.5372-.9874-.7569l-.0127-.0064-.0124-.0071c-.4368-.2496-.9639-.4437-1.5889-.5753l-.0125-.0026-.0123-.0033c-.6216-.1635-1.2796-.2464-1.9758-.2464-1.6302 0-2.8786.1221-3.7654.3516-.9297.2502-1.7157.3855-2.342.3855-.3692 0-.7279-.0929-1.0713-.2646l-.0217-.0109-.0206-.0129c-.4218-.2635-.6618-.6687-.6618-1.1711 0-.7351.5649-1.2156 1.2517-1.5208.6765-.3007 1.4375-.522 2.2788-.6683l.0035-.0007c.8551-.1425 1.6613-.2325 2.418-.269zm.3643 26.7174c-.0776.0066-.1109.0335-.1397.0695l-.0178.0222-.02.02c-.0891.0891-.1759.2072-.2565.3618-.0518.1606-.0918.3201-.1201.4784v.3761c0 .072.0496.2564.4271.5395l.0105.0078.01.0084c.3905.3254.6427.4079.778.4079.2318 0 .5284-.0818.9004-.2988l.0142-.0083.0148-.0074c.1499-.075.2315-.153.2768-.221.0389-.0583.0661-.1313.0712-.2335-.0015-.0027-.0032-.0056-.0052-.009-.0238-.0396-.0721-.1031-.1599-.1909l-.014-.0139-.0127-.015c-.1844-.215-.4022-.418-.6556-.608-.2591-.1943-.5139-.353-.7642-.4782l-.0359-.018-.0327-.0233c-.1114-.0795-.1926-.1288-.2473-.1561-.0085-.0043-.0156-.0076-.0214-.0102zm1.9568 1.5387c.0003.0008 0 0 0 0zm-2.877-2.1318c.246-.2935.585-.4323.9599-.4323.1744 0 .3319.0661.4395.1199.1109.0554.2291.1295.3517.2155.299.1524.5939.3386.8848.5568.3027.227.5721.4755.806.7461.1171.1186.2215.2434.2999.374.0798.1331.1519.3043.1519.5003 0 .3002-.0765.5857-.2439.8368-.1622.2432-.3908.4261-.6557.5611-.4659.2696-.9368.4302-1.4024.4302-.4929 0-.9743-.2646-1.4234-.6368-.46-.3476-.8259-.7936-.8259-1.3492v-.4636l.0069-.0418c.0397-.238.099-.4745.1773-.7095l.0115-.0345.0163-.0326c.1212-.2423.2683-.4585.4456-.6404z" fill="#1a1a1a" fill-rule="evenodd"/><path d="m43.2905 53.6329c0 .6318-.2633 1.2987-.7898 2.0007-.5265.6669-1.1758 1.3689-1.948 2.106-.7722.702-1.6146 1.4215-2.5272 2.1586s-1.755 1.4742-2.5272 2.2113c-.7722.702-1.4216 1.3865-1.9481 2.0534s-.7897 1.2811-.7897 1.8427c0 .3861.0351.8073.1053 1.2636.1053.4212.2457.7722.4212 1.053-.1755.3159-.351.5616-.5265.7371s-.4037.2633-.6845.2633c-.2457 0-.4738-.1053-.6844-.3159-.1755-.2106-.3335-.4739-.4739-.7898s-.2632-.6493-.3685-1.0003c-.0702-.351-.1053-.6669-.1053-.9477 0-.8073.1053-1.4742.3159-2.0007.2106-.5616.5265-1.0706.9477-1.5269.4563-.4914 1.0003-.9828 1.6321-1.4742s1.3689-1.053 2.2113-1.6848c.6318-.4914 1.2636-1.0179 1.8954-1.5795.6669-.5616 1.2461-1.1056 1.7375-1.6321.5265-.5616.9477-1.0881 1.2636-1.5795.351-.5265.5265-1.0004.5265-1.4216 0-.351-.158-.702-.4739-1.053-.2808-.351-.6669-.6493-1.1583-.895-.4914-.2808-1.0705-.4914-1.7374-.6318-.6669-.1755-1.3689-.2633-2.106-.2633-1.6497 0-2.9484.1229-3.8961.3686-.9126.2457-1.6497.3685-2.2113.3685-.2808 0-.5616-.0702-.8424-.2106-.2808-.1755-.4212-.4212-.4212-.7371 0-.4212.3159-.7722.9477-1.053s1.3513-.4914 2.1586-.6318c.8424-.1404 1.6322-.2281 2.3693-.2632.7722-.0702 1.2811-.1053 1.5268-.1053 1.0881 0 2.1236.1579 3.1064.4738s1.8427.7196 2.5798 1.211c.7722.4914 1.3689 1.0705 1.7901 1.7374.4563.6318.6845 1.2812.6845 1.9481zm-6.8972 22.4289c0 .4212-.2106.7371-.6318.9477-.4212.2457-.8073.3685-1.1583.3685-.3159 0-.6844-.1755-1.1056-.5265-.4212-.3159-.6318-.6318-.6318-.9477 0-.1053 0-.2457 0-.4212.0351-.2106.0877-.4212.1579-.6318.1053-.2106.2282-.3861.3686-.5265.1404-.1755.3334-.2632.5791-.2632.1053 0 .2808.0877.5265.2632.2808.1404.5616.3159.8424.5265s.5265.4388.7371.6845c.2106.2106.3159.3861.3159.5265z" fill="#1a1a1a"/><path clip-rule="evenodd" d="m35.1297 48.7745c-.2183 0-.7036.0325-1.4805.1032l-.011.0009-.011.0006c-.7137.034-1.4828.1191-2.3077.2565-.7725.1345-1.45.3343-2.0367.595-.5769.2564-.6437.4779-.6437.5852 0 .1233.037.2074.1616.2907.2093.101.4046.1452.5901.1452.4965 0 1.1838-.1102 2.0783-.351l.0046-.0012c1.0085-.2615 2.3567-.3849 4.0245-.3849.7736 0 1.5155.0916 2.224.2768.6983.1481 1.3212.3721 1.8611.6786.5325.2681.9745.6035 1.3071 1.0151.3651.4094.5953.8734.5953 1.3844 0 .5601-.2309 1.1322-.6101 1.702-.3367.5231-.7781 1.0728-1.3182 1.6489-.5065.5426-1.0992 1.0991-1.7762 1.6695.0017-.0015.0034-.0031.0052-.0046l-.3401-.3826.3297.3916c.0017-.0015.0035-.003.0052-.0044-.638.5669-1.2767 1.0991-1.9161 1.5964l-.007.0055c-.8407.6305-1.5754 1.1902-2.2043 1.6793-.6137.4774-1.1364.9502-1.5706 1.4178-.3778.4093-.6577.8616-.8442 1.3589l-.0039.0104c-.1785.4463-.2794 1.043-.2794 1.8106 0 .2336.0286.5073.0907.8238-.0023-.0077-.0047-.0155-.007-.0232l-.4903.1471.502-.1004c-.0016-.0079-.0032-.0157-.0047-.0235.0979.3229.211.6282.339.9163.1213.273.2508.4873.384.6513-.0053-.005-.0106-.0102-.0159-.0156l-.362.362.3933-.3277c-.0052-.0062-.0103-.0124-.0154-.0187.1286.123.2278.1504.3066.1504.1645 0 .2559-.0467.3225-.1133.0911-.0911.1912-.2172.2984-.3843.0484.0979.1004.1915.156.2804l.434-.2713-.4474-.2486c-.0488.0878-.0963.1674-.1426.2395-.1354-.2741-.2434-.5823-.3278-.9197l-.0057-.023-.0036-.0233c-.0734-.4773-.1112-.9249-.1112-1.3415 0-.7225.3369-1.4468.8998-2.1599.5463-.6919 1.2144-1.3954 2.0009-2.1107-.0015.0014-.003.0028-.0045.0043l.3534.3702-.3443-.3787c-.0015.0014-.0031.0028-.0046.0042.7821-.7463 1.6337-1.4913 2.5545-2.235.904-.7301 1.7372-1.4418 2.4999-2.135-.0015.0014-.003.0029-.0045.0043l.3534.3703-.3443-.3788c-.0015.0014-.0031.0028-.0046.0042.7551-.721 1.3845-1.4022 1.8912-2.0435-.0012.0016-.0025.0033-.0037.005l.4095.3071-.4018-.3172c-.0013.0017-.0026.0034-.004.0051.4827-.6451.6837-1.2046.6837-1.6886 0-.542-.1833-1.0886-.5876-1.6484l-.0093-.0129-.0085-.0134c-.3749-.5936-.9135-1.1216-1.6321-1.579l-.0092-.0058c-.6919-.4612-1.5075-.8459-2.4525-1.1497-.9295-.2987-1.9119-.4492-2.9497-.4492zm-1.5623-.9174c.7616-.0691 1.2905-.1064 1.5623-.1064 1.1384 0 2.2269.1654 3.263.4984 1.0186.3274 1.9213.7492 2.7026 1.2694.8186.5217 1.4689 1.1465 1.935 1.8796.5023.7001.772 1.4478.772 2.2348 0 .7783-.3245 1.5509-.8921 2.3078l-.0076.0102c-.5446.6897-1.2112 1.4093-1.9965 2.1589l-.009.0086c-.7804.7095-1.6306 1.4354-2.55 2.178-.9027.7291-1.7344 1.4569-2.4954 2.1834l-.009.0086c-.7559.6872-1.3851 1.3511-1.8908 1.9917-.49.6207-.6796 1.1249-.6796 1.5255 0 .3492.0312.7361.0957 1.1621.0953.3735.2159.6639.353.8832l.16.256-.1466.2639c-.1891.3404-.3914.6299-.612.8505-.2844.2844-.6493.4132-1.0464.4132-.4094 0-.7616-.181-1.0464-.4659l-.0164-.0164-.0149-.0178c-.2124-.2549-.3935-.5612-.5484-.9096-.1497-.3368-.2799-.6906-.3911-1.0611l-.0069-.0231-.0047-.0236c-.0751-.3756-.1152-.7259-.1152-1.0481 0-.8446.1091-1.5798.3504-2.1856.2346-.6237.5857-1.1874 1.0489-1.6892l.001-.0011c.4783-.515 1.0435-1.0247 1.693-1.5299.6339-.493 1.3723-1.0556 2.2149-1.6876.6213-.4833 1.2433-1.0017 1.866-1.5553l.0102-.0091c.6544-.551 1.2182-1.0809 1.6931-1.5897.5116-.5456.9125-1.0484 1.2073-1.507l.0046-.0072c.3213-.482.4406-.8564.4406-1.1376 0-.1863-.0816-.4206-.3425-.7105l-.0099-.0111-.0093-.0116c-.2254-.2818-.548-.5372-.9875-.757l-.0127-.0063-.0124-.0071c-.4368-.2496-.9639-.4437-1.5889-.5753l-.0125-.0027-.0123-.0032c-.6216-.1636-1.2796-.2464-1.9758-.2464-1.6302 0-2.8787.122-3.7654.3516-.9297.2502-1.7157.3855-2.342.3855-.3692 0-.7279-.0929-1.0713-.2646l-.0217-.0109-.0207-.0129c-.4217-.2636-.6617-.6687-.6617-1.1712 0-.735.5649-1.2155 1.2516-1.5207.6766-.3007 1.4376-.5221 2.2789-.6684l.0035-.0006c.855-.1425 1.6612-.2326 2.418-.2691zm.3642 26.7174c-.0775.0066-.1108.0335-.1397.0696l-.0177.0221-.02.0201c-.0891.089-.1759.2072-.2565.3618-.0519.1606-.0918.32-.1201.4784v.3761c0 .0719.0496.2563.4271.5394l.0105.0079.01.0084c.3905.3254.6427.4079.778.4079.2318 0 .5284-.0819.9004-.2989l.0142-.0083.0148-.0074c.1498-.0749.2315-.1529.2768-.2209.0389-.0583.0661-.1314.0712-.2336-.0015-.0026-.0032-.0056-.0052-.0089-.0238-.0396-.0721-.1031-.16-.191l-.0139-.0139-.0128-.0149c-.1843-.2151-.4021-.418-.6555-.6081-.2591-.1943-.5139-.353-.7642-.4781l-.036-.018-.0326-.0233c-.1114-.0796-.1926-.1288-.2473-.1562-.0085-.0042-.0156-.0075-.0215-.0102zm1.9569 1.5388c.0003.0007 0 0 0 0zm-2.877-2.1319c.246-.2934.585-.4322.9599-.4322.1744 0 .3319.0661.4395.1199.1109.0554.2291.1294.3517.2155.299.1523.5939.3385.8848.5567.3027.2271.5721.4755.806.7462.1171.1185.2215.2434.2998.374.0799.1331.152.3042.152.5003 0 .3001-.0766.5856-.244.8367-.1621.2433-.3907.4262-.6556.5611-.4659.2696-.9368.4303-1.4024.4303-.4929 0-.9743-.2646-1.4234-.6369-.46-.3475-.8259-.7936-.8259-1.3492v-.4635l.0069-.0418c.0397-.238.099-.4746.1773-.7095l.0115-.0346.0162-.0325c.1212-.2424.2683-.4586.4457-.6405z" fill="#1a1a1a" fill-rule="evenodd"/><path d="m70.9692 17.5759c0 .4212-.1755.8658-.5265 1.3338-.351.4446-.7839.9126-1.2987 1.404-.5148.468-1.0764.9477-1.6848 1.4391s-1.17.9828-1.6848 1.4742c-.5148.468-.9477.9243-1.2987 1.3689s-.5265.8541-.5265 1.2285c0 .2574.0234.5382.0702.8424.0702.2808.1638.5148.2808.702-.117.2106-.234.3744-.351.4914s-.2691.1755-.4563.1755c-.1638 0-.3159-.0702-.4563-.2106-.117-.1404-.2223-.3159-.3159-.5265s-.1755-.4329-.2457-.6669c-.0468-.234-.0702-.4446-.0702-.6318 0-.5382.0702-.9828.2106-1.3338.1404-.3744.351-.7137.6318-1.0179.3042-.3276.6669-.6552 1.0881-.9828s.9126-.702 1.4742-1.1232c.4212-.3276.8424-.6786 1.2636-1.053.4446-.3744.8307-.7371 1.1583-1.0881.351-.3744.6318-.7254.8424-1.053.234-.351.351-.6669.351-.9477 0-.234-.1053-.468-.3159-.702-.1872-.234-.4446-.4329-.7722-.5967-.3276-.1872-.7137-.3276-1.1583-.4212-.4446-.117-.9126-.1755-1.404-.1755-1.0998 0-1.9656.0819-2.5974.2457-.6084.1638-1.0998.2457-1.4742.2457-.1872 0-.3744-.0468-.5616-.1404-.1872-.117-.2808-.2808-.2808-.4914 0-.2808.2106-.5148.6318-.702s.9009-.3276 1.4391-.4212c.5616-.0936 1.0881-.1521 1.5795-.1755.5148-.0468.8541-.0702 1.0179-.0702.7254 0 1.4157.1053 2.0709.3159s1.2285.4797 1.7199.8073c.5148.3276.9126.7137 1.1934 1.1583.3042.4212.4563.8541.4563 1.2987zm-4.5981 14.9526c0 .2808-.1404.4914-.4212.6318-.2808.1638-.5382.2457-.7722.2457-.2106 0-.4563-.117-.7371-.351-.2808-.2106-.4212-.4212-.4212-.6318 0-.0702 0-.1638 0-.2808.0234-.1404.0585-.2808.1053-.4212.0702-.1404.1521-.2574.2457-.351.0936-.117.2223-.1755.3861-.1755.0702 0 .1872.0585.351.1755.1872.0936.3744.2106.5616.351s.351.2925.4914.4563c.1404.1404.2106.2574.2106.351z" fill="#1a1a1a"/><path clip-rule="evenodd" d="m65.5287 14.3613c-.1442 0-.4666.0216-.9848.0687l-.0157.0014c-.4747.0226-.9864.079-1.5355.1704-.5134.0894-.963.222-1.352.3949-.382.1698-.4146.3113-.4146.3679 0 .0732.02.1218.0954.1726.1361.0654.2622.0936.3813.0936.3279 0 .7838-.0729 1.3792-.2332l.0033-.0008c.6752-.1751 1.5764-.2574 2.6891-.2574.5175 0 1.0139.0612 1.4883.1852.4671.0991.8844.249 1.2466.4546.357.1798.6544.4052.8785.6825.2458.2757.4027.5904.4027.9387 0 .3799-.1566.766-.4107 1.148-.2255.3501-.5207.7177-.8814 1.1025-.3384.3625-.7341.7341-1.186 1.1148-.4256.3782-.8518.7333-1.2784 1.0651l-.0051.0039c-.5603.4203-1.05.7933-1.4691 1.1193-.4084.3176-.7558.632-1.0443.9426-.2497.2706-.4346.5695-.5577.8979l-.0028.0074c-.1175.2937-.1845.6881-.1845 1.198 0 .1535.0188.334.0597.5433.0649.2139.1399.4161.2246.6069.08.1798.1649.3204.2517.4275.0816.0777.1416.0925.1864.0925.1041 0 .1586-.0292.1978-.0684.0572-.0572.1203-.1361.1882-.2407-.0883-.1814-.1589-.3844-.2142-.6055l-.0041-.0164-.0025-.0167c-.0491-.3192-.0745-.6188-.0745-.898 0-.4894.2281-.9775.6052-1.4551.3651-.4624.8114-.9323 1.3364-1.4099.5219-.4979 1.0901-.9949 1.7043-1.491.6022-.4865 1.1573-.9605 1.6653-1.4222.5026-.48.9212-.9331 1.2581-1.3595.3197-.4272.4507-.7952.4507-1.1108 0-.3554-.12-.7149-.3871-1.0846l-.0066-.0093-.0061-.0096c-.2477-.3922-.604-.7418-1.0806-1.045l-.0065-.0042c-.4591-.3061-1.0008-.5616-1.6289-.7635-.6172-.1984-1.2696-.2984-1.9591-.2984zm-1.0432-.6602c.5073-.0461.8608-.071 1.0432-.071.7614 0 1.4896.1106 2.1828.3334.6808.2188 1.2846.5009 1.8076.849.548.3493.9841.768 1.2969 1.2599.3371.47.5189.9731.5189 1.5035 0 .5259-.2193 1.046-.5997 1.5532l-.0054.0072c-.3639.4609-.8091.9415-1.3333 1.4419l-.0064.0061c-.5207.4733-1.0879.9576-1.7011 1.4529-.6013.4857-1.1553.9705-1.6621 1.4543l-.0064.0061c-.5032.4574-.9217.8991-1.2578 1.3248-.325.4117-.4478.7426-.4478 1.002 0 .231.0206.4873.0633.7699.063.2466.1425.4374.2321.5807l.1143.1829-.1047.1885c-.1268.228-.2629.4231-.4121.5723-.1948.1948-.4446.2826-.7149.2826-.2807 0-.5214-.1242-.7148-.3177l-.0117-.0117-.0106-.0127c-.1434-.1721-.2653-.3783-.3692-.6121-.1002-.2256-.1874-.4624-.2618-.7103l-.0049-.0165-.0034-.0169c-.0503-.2515-.0773-.4867-.0773-.7035 0-.5648.073-1.0582.2353-1.4659.1576-.4187.3933-.7971.7041-1.1338.3198-.3445.6984-.686 1.1323-1.0234.4226-.3288.9149-.7039 1.4767-1.1252.4137-.3218.8279-.667 1.2426-1.0357l.0073-.0065c.4357-.3668.8108-.7194 1.1266-1.0578.3403-.363.6067-.6971.8022-1.0012l.0033-.0051c.2128-.3193.2896-.5641.2896-.7449 0-.1164-.0507-.267-.222-.4574l-.0071-.0079-.0067-.0083c-.1476-.1846-.3596-.3528-.6502-.4981l-.0181-.0091c-.2887-.1649-.6373-.294-1.052-.3813l-.0178-.0038c-.4122-.1085-.8487-.1639-1.3109-.1639-1.0858 0-1.9158.0813-2.504.2336-.6207.167-1.147.2578-1.5676.2578-.2503 0-.4932-.063-.7251-.179l-.0155-.0078-.0147-.0092c-.2879-.1799-.4527-.4576-.4527-.8014 0-.505.3885-.8315.8489-1.0361.4532-.2014.9625-.3495 1.525-.4473l.0025-.0005c.5706-.0951 1.1089-.1552 1.6143-.1796zm.2403 17.8608c-.0406.0046-.0558.0191-.0699.0367l-.0126.0158-.0143.0143c-.057.057-.1132.1331-.1657.2335-.0337.1046-.0597.2085-.0782.3116v.2486c0 .0363.0254.1529.2749.3401l.015.0112c.2589.2158.4212.2667.5027.2667.1489 0 .3424-.0526.588-.1959l.0102-.006.0105-.0052c.0971-.0485.1479-.098.1752-.1391.0224-.0335.0389-.0759.043-.1362-.0147-.0243-.0454-.0648-.1026-.122l-.0099-.0099-.0092-.0107c-.1216-.1419-.2655-.276-.4331-.4017-.1717-.1288-.3403-.2338-.5058-.3165l-.0256-.0128-.0234-.0167c-.0737-.0526-.1267-.0847-.1616-.1021-.0028-.0014-.0053-.0026-.0076-.0037zm1.2863 1.0101c.0003.0008 0 0 0 0zm-1.9136-1.4468c.1691-.2012.4019-.2961.658-.2961.1221 0 .2313.0461.3039.0824.075.0375.1544.0872.2362.1446.2002.1021.3975.2267.5919.3726.2029.1521.3836.3188.5406.5004.0787.0797.1495.1643.2029.2533.0545.0909.1048.2094.1048.3461 0 .2044-.0522.3995-.1667.5714-.1108.1662-.2666.2905-.4458.3819-.3128.1809-.6307.2898-.9466.2898-.3369 0-.6632-.1806-.964-.4298-.3086-.2333-.5599-.5369-.5599-.9186v-.3111l.005-.0298c.0266-.16.0665-.3189.1191-.4767l.0082-.0247.0116-.0232c.0816-.1632.1808-.3093.3008-.4325z" fill="#1a1a1a" fill-rule="evenodd"/><path d="m48.2369 37.619c-1.2312.7823-2.424.6587-3.7318.3407-1.8817-1.3933 2.9839-2.5178 3.9666-2.3728 1.5441.2278.5812 1.5136-.2348 2.0321z" fill="#00ade4"/><path clip-rule="evenodd" d="m47.037 34.982c.5665-.1071 1.1627-.1744 1.5415-.1185.4671.0689.9356.2418 1.2189.6407.3037.4276.2508.9029.1298 1.2381-.1197.3315-.336.63-.5536.867-.2229.2428-.485.462-.7445.6269-1.3601.8642-2.6824.7882-3.9372.5169-.1674.0209-.3427-.0157-.4942-.1162-.1116-.028-.2231-.0569-.3343-.0863-.3905-.1032-.6233-.5034-.5201-.8939.0078-.0295.0173-.0582.0284-.0859-.0823-.3889.0352-.7392.2198-1.0061.1835-.2651.4439-.4696.6955-.6266.2593-.1618.5557-.3018.8581-.4215.6047-.2395 1.2926-.4213 1.8919-.5346zm-2.1457 2.3173c1.1498.2602 2.0377.2844 2.9534-.2975.1485-.0944.3128-.2303.4517-.3816.0989-.1078.1681-.2049.2115-.2821-.0373-.0094-.0843-.0191-.1429-.0278-.1125-.0166-.4931.0023-1.0564.1088-.5306.1003-1.1257.2595-1.6251.4572-.2496.0989-.4604.2015-.6222.3025-.0733.0457-.1288.0863-.17.1205z" fill="#07182b" fill-rule="evenodd"/><path clip-rule="evenodd" d="m52.1437 39.5994c-.0231-.0941-.0653-.1851-.1275-.2672-.2439-.3219-.7025-.3852-1.0244-.1413-.3509.2658-.6316.5392-.8149.8282-.1876.2957-.3041.6617-.208 1.0509.0938.3804.3533.6296.5889.7803.2359.1508.5066.2431.7582.3003.5026.1141 1.0844.1224 1.5595.0397.2339-.0407.4946-.1123.7178-.242.2069-.1203.5523-.3997.5523-.8879 0-.3007-.0893-.5789-.2621-.8107-.1665-.2233-.3827-.3669-.5861-.4587-.3813-.1719-.8137-.2059-1.1537-.1916z" fill="#000" fill-rule="evenodd"/><path d="m25.0263 18.8526c.7862.1837 1.4703.387 1.9613 1.046-.5256-2.9149 4.2066-3.5429 5.692-3.5565 2.3331-.0213 5.2177.203 7.2306 1.5211.6764.443 1.1685 1.1708.815 1.9874-.5194 1.2-1.7665 1.1463-2.8634 1.1463-.8215 0 1.6414.0714 2.4624.0959 2.7845.0829 5.6202.3186 8.3333.9763 1.6365.3967 3.924 1.155 4.6286 2.8939.5245 1.2945-.668 2.2555-1.6126 2.9114-1.729 1.2005-3.5904 1.5952-5.6441 1.5952-.4144 0-.2776.0654-.0916.3835.345.5898.44 1.2939.1569 1.9308-.6117 1.3765-2.3487 1.8104-3.6872 2.0528-1.4794.268-3.0022.2147-4.4629-.1308-1.2074-.2855-2.4387-.7689-3.417-1.5515-.1401-.1121-.4965-.4412-.3923-.6756.0372-.0836-.4813.1575-.6624.2049-1.7058.4458-3.5068.6997-5.265.7932-2.2062.1172-4.605.0586-6.7206-.6451-1.3435-.4468-3.531-1.6098-3.4954-3.3036.031-1.4744 1.6365-2.3372 2.8068-2.8025 1.084-.4309 2.19-.6924 3.3559-.7234.5708-.0153.5924.0191-.0043-.0959-1.1089-.2138-2.2474-.4804-3.2209-1.0766-1.0742-.6578-2.294-1.9624-1.8654-3.3385.3449-1.1073 1.3645-1.7719 2.4669-1.9351 1.1279-.1669 2.3952.0392 3.4954.2964z" fill="#00ade4"/><path clip-rule="evenodd" d="m32.673 15.6109c2.3393-.0213 5.425.1915 7.6378 1.6406.4147.2715.8152.6562 1.052 1.1482.2475.5141.3015 1.1223.0335 1.7414-.0387.0895-.0806.1741-.1254.2542 2.5143.1075 5.0798.3621 7.5588.9631.8381.2032 1.8884.5088 2.833 1.0077.9394.4961 1.8574 1.2272 2.3011 2.3223.3821.943.1135 1.7715-.3409 2.3988-.4301.5938-1.0575 1.0582-1.5324 1.3879-1.6382 1.1375-3.3783 1.601-5.2193 1.7031.1793.603.1735 1.2687-.1082 1.9027-.4045.9101-1.1651 1.4667-1.9346 1.8194-.7659.3511-1.6106.5328-2.2905.656-1.5826.2866-3.2071.2289-4.7616-.1387-1.2695-.3002-2.6137-.8188-3.7055-1.6922-.0815-.0652-.2256-.1903-.3576-.35-.0187.0057-.0374.011-.0554.0157-1.7602.4601-3.6108.7203-5.4111.816-2.2326.1187-4.7423.0663-6.9902-.6814-.7247-.241-1.6901-.6776-2.4859-1.3032-.7802-.6131-1.5348-1.5215-1.5098-2.7097.0216-1.0279.5977-1.7932 1.24-2.3267.639-.5309 1.4162-.8967 2.0277-1.1399.2218-.0881.445-.1698.6701-.2446-.2215-.1031-.4392-.2184-.6511-.3481-.6037-.3698-1.265-.929-1.7234-1.6189-.4615-.6945-.7593-1.5942-.4582-2.5607.4502-1.4453 1.7582-2.2487 3.0579-2.4411 1.2711-.1881 2.651.0465 3.7689.3077.3781.0884.7889.1911 1.1873.3725.1156-.3183.2884-.608.5058-.8675.5015-.5985 1.2139-1.0078 1.9213-1.2917 1.4144-.5678 3.0664-.7356 3.8659-.7429zm6.8366 2.8641c-1.813-1.1872-4.4965-1.4229-6.8233-1.4016-.6859.0062-2.1428.1593-3.3344.6376-.5957.2391-1.0606.5342-1.3451.8737-.4127.4926-.0399 1.7058-.697 2.0108-.3348.1554-.9086-.26-.9086-.26-.3879-.1722-.7568-.5875-1.5413-.7709-1.0825-.253-2.2373-.4307-3.222-.285-.905.1339-1.6361.6599-1.8757 1.4292-.1275.4095-.0298.8501.28 1.3164.3129.4709.7986.8929 1.2691 1.1811.8504.5207 1.872.769 2.9774.9821.1178.0227.2093.0391.2802.0518.0157.0028.0304.0055.0442.008.0337.0061.0738.0134.1063.0204.0124.0027.0495.0108.0908.0242.0152.0049.0768.0249.1456.0648.0308.0178.1181.0703.1995.1695.0899.1095.226.3519.139.6622-.0737.2627-.2615.389-.3214.4259-.0757.0466-.1426.0685-.1709.0771-.0609.0186-.1112.0252-.126.0271-.0384.0049-.0724.0063-.0851.0068-.0321.0013-.0717.0017-.1051.0021-.0081 0-.0167.0001-.0255.0002-.0717.0007-.1657.0015-.2862.0048-1.066.0284-2.0871.2671-3.1052.672-.5588.2221-1.1696.5203-1.6336.9058-.4608.3828-.7029.7861-.7123 1.2325-.0107.5056.3107 1.0256.9513 1.5291.6249.4912 1.4251.8595 2.0438 1.0653 1.9832.6596 4.2712.7245 6.451.6087 1.7157-.0912 3.4665-.3388 5.1173-.7701 0 0 .0082-.0025.0277-.0092.0222-.0078.0499-.018.0839-.0309.018-.0069.0512-.0198.088-.034.0508-.0196.1083-.0419.1416-.0545.0701-.0264.1746-.0651.2676-.0884l.0032-.0009c.0277-.0071.1608-.0415.3139-.0231.0667.0081.3562.0498.54.3376.0913.143.118.2837.1164.4026.0106.0113.0222.0233.0347.0355.0324.0316.0626.0573.081.0721.8648.6918 1.9832 1.1401 3.1285 1.4109 1.3669.3233 2.788.3721 4.1643.1229.6585-.1193 1.3515-.2758 1.9417-.5463.5866-.269 1.0003-.6176 1.2076-1.084.1705-.3835.1291-.8388-.1199-1.2646-.025-.0427-.0443-.0723-.0684-.1093-.0115-.0176-.0241-.0369-.039-.0602-.0181-.0283-.0484-.0763-.0757-.1302-.0226-.0446-.0776-.1577-.0926-.3072-.0188-.1864.0273-.4214.2081-.6118.1465-.1544.3161-.207.3904-.2264.1465-.0382.3067-.0388.4-.0388 1.9531 0 3.6551-.3731 5.227-1.4646.4699-.3263.911-.6703 1.1821-1.0446.2469-.3409.3123-.6401.1698-.9916-.2608-.6438-.8388-1.1612-1.6285-1.5782-.7844-.4143-1.6961-.6861-2.4946-.8797-2.6423-.6405-5.4207-.8737-8.1827-.956-.0502-.0015-.1066-.0031-.168-.005-.4402-.013-1.1403-.0338-1.6823-.0522-.306-.0104-.5706-.0203-.708-.0279-.0326-.0018-.0694-.0041-.1001-.007-.0051-.0004-.0552-.0048-.1093-.0172-.0143-.0033-.0609-.0141-.117-.0373-.0265-.0109-.0854-.0367-.1511-.0845-.0503-.0365-.2107-.1608-.2758-.3992-.0823-.3017.0434-.5493.1602-.68.0963-.1077.1994-.1583.2347-.1749.0789-.037.147-.051.1629-.0543.0438-.0091.081-.0125.0904-.0133.0151-.0013.0289-.0021.0379-.0026.0183-.0009.0371-.0014.0536-.0017.0341-.0007.0782-.0009.1312-.0009h.1106c.5379.0005.9756.0008 1.3498-.0986.3436-.0913.5785-.2524.7319-.6069.0855-.1975.0702-.3615-.0091-.5262-.0899-.1869-.2736-.3876-.5354-.559z" fill="#1a1a1a" fill-rule="evenodd"/></svg>