<svg fill="none" height="123" viewBox="0 0 92 123" width="92" xmlns="http://www.w3.org/2000/svg"><g opacity=".7"><path d="m60.4 94.95v-8.5l8-4.5 8 5v8.5l-7.5 4.5z" fill="#fcfeff" stroke="#000"/><path d="m68.4 90.95v9m8-13.5v9m-16-9v9m0-9 7.725 4.617m-.725-9.617 9.725 5.617m-17.725 7.383 9.725 5.617m-8.725-13.568 7.795-4.5m.205 8.951 7.795-4.5m-7.795 13.5 8.5-5m-6-5-2.5 9.192m5-10.193-2.5 9.194m5-10.387-2.5 9.193" stroke="#000" stroke-linecap="round" stroke-linejoin="round"/><circle cx="68.072" cy="71.794" fill="#fff" r="6.828"/><path d="m64.097 71.655c1.242 1.214 2.275 2.552 2.945 4.428.13 1.27-1.455-6.587 7.46-12.084" stroke="#000" stroke-linecap="round" stroke-linejoin="round"/><path d="m69.593 65.263c-6.282 0-8.032 4.547-7.538 7.374.38 2.182 1.6 3.908 3.533 4.907 3.846 1.988 7.736.253 9.423-3.533 1.836-4.122-1.374-7.508-3.392-8.289-1.66-.642-3.915-.681-5.638 0" stroke="#000" stroke-linecap="round" stroke-linejoin="round"/><circle cx="43.846" cy="72.171" fill="#fff" r="6.828"/><path d="m39.872 72.032c1.24 1.214 2.274 2.552 2.944 4.428.13 1.27-1.455-6.587 7.46-12.084" stroke="#000" stroke-linecap="round" stroke-linejoin="round"/><path d="m45.368 65.64c-6.282 0-8.032 4.547-7.539 7.373.381 2.183 1.6 3.91 3.533 4.908 3.846 1.988 7.736.253 9.423-3.533 1.837-4.122-1.374-7.508-3.392-8.289-1.66-.643-3.914-.681-5.638 0" stroke="#000" stroke-linecap="round" stroke-linejoin="round"/><circle cx="18.679" cy="72.171" fill="#fff" r="6.828"/><g stroke="#000"><path d="m14.705 72.032c1.24 1.214 2.274 2.552 2.944 4.428.13 1.27-1.455-6.587 7.46-12.084" stroke-linecap="round" stroke-linejoin="round"/><path d="m20.2 65.64c-6.281 0-8.031 4.547-7.538 7.373.381 2.183 1.6 3.91 3.533 4.908 3.846 1.988 7.736.253 9.423-3.533 1.837-4.122-1.374-7.508-3.392-8.289-1.66-.643-3.914-.681-5.638 0" stroke-linecap="round" stroke-linejoin="round"/><path d="m36.625 95.255v-8.5l8-4.5 8 5v8.5l-7.5 4.5z" fill="#fcfeff"/><path d="m44.625 91.255v9m8-13.5v9m-16-9v9m0-9 7.725 4.618m-.725-9.618 9.725 5.618m-17.725 7.382 9.725 5.618m-8.725-13.568 7.794-4.5m.206 8.95 7.794-4.5m-7.794 13.5 8.5-5m-6-5-2.5 9.193m5-10.193-2.5 9.193m5-10.386-2.5 9.193" stroke-linecap="round" stroke-linejoin="round"/><path d="m12.85 95.805v-8.5l8-4.5 8 5v8.5l-7.5 4.5z" fill="#fcfeff"/><path d="m20.85 91.805v9m8-13.5v9m-16-9v9m0-9 7.725 4.617m-.725-9.617 9.725 5.617m-17.725 7.383 9.725 5.617m-8.725-13.567 7.794-4.5m.206 8.95 7.794-4.5m-7.794 13.5 8.5-5m-6-5-2.5 9.193m5-10.193-2.5 9.193m5-10.387-2.5 9.194" stroke-linecap="round" stroke-linejoin="round"/></g><path d="m59.396 17.114c6.052 11.746-1.073 17.541-2.3 18.236l-3.83 2.241c-5.761 1.237-10.267-4.12-11.8-6.954-4.29-9.706.307-15.429 3.142-17.077 6.62-4.575 12.617.463 14.788 3.554z" fill="#2bb1f2" opacity=".5"/><path d="m57.564 17.114c6.088 11.746-1.079 17.541-2.312 18.236l-3.853 2.241c-5.795 1.237-10.326-4.12-11.867-6.954-4.316-9.706.308-15.429 3.159-17.077 6.658-4.575 12.69.463 14.873 3.554z" stroke="#000"/><ellipse rx="9.46" ry="12.73" stroke="#000" transform="matrix(.94753435 -.31965397 .31809944 .94805877 47.570467 25.273397)"/><path d="m51 37.534c18.129-5.555 5.675-33.253-8.778-23.814m4.064 2.903-.571 11.313" stroke="#000" stroke-linecap="round"/><path d="m45.859 27.113c2.442.47 5.076 1.077 7.326 1.41" stroke="#000" stroke-linecap="round"/><path d="m46.027 26.845c-.314.003-.572.039-.67.504-.12.561.37.78.702.785.46.006.902-.54.915-1.171.017-.798-.737-1.137-1.226-1.039-.465.095-.843.659-.839 1.299.004.724.726.9 1.145.669.402-.221.518-.99.164-1.329-.378-.361-.612.392-.78.737m-.825-8.065c.545-.566.932-1.326 1.283-2.11.126-.283.255-.577.336-.89.006-.023.045-.322.09-.31.066.019.142.472.161.53.134.417.297.83.481 1.209.257.527.604.911.95 1.323m2.763 10.377c3.505-.237 4.284-.405.645-2.596m-1.823-13.009c1.103-.041 2.173-.824 3.165-1.257m-.066 3.372c.84-.316 1.65-.727 2.506-.992m-.132 3.637c.645-.203 1.276-.449 1.912-.662m-.396 4.1c.827-.25 1.597-.621 2.374-.992m-1.582 3.702c.4 0 .744.006 1.12-.147.29-.117.553-.247.857-.315m-1.582 4.099c.59-.046 1.146-.109 1.715-.264m-2.506 3.437c.527-.049 1.056-.084 1.583-.132" stroke="#000" stroke-linecap="round"/><path d="m46.758 52.048-8.66-16.39-18.322-2.561 12.824 4.857 8.745 17.2 17.368 1.14-4.268 6.11 15.194-6.892-14.569-7.934 3.861 5.618z" fill="#fcfeff" stroke="#000" stroke-linecap="round" stroke-linejoin="round"/></g></svg>