<svg width="12" height="11" viewBox="0 0 12 11" fill="none" xmlns="http://www.w3.org/2000/svg">
<g clip-path="url(#clip0_6592_660023)">
<path d="M3.50537 1.00391H8.51611C9.89979 1.00391 11.0215 2.1256 11.0215 3.50928V6.01465C11.0215 7.39833 9.89979 8.52002 8.51611 8.52002H6.01074L3.50537 10.399V8.52002C2.12169 8.52002 1 7.39833 1 6.01465V3.50928C1 2.1256 2.12169 1.00391 3.50537 1.00391Z" stroke="#FAFBFC" stroke-linecap="round" stroke-linejoin="round"/>
<mask id="mask0_6592_660023" style="mask-type:luminance" maskUnits="userSpaceOnUse" x="3" y="3" width="7" height="4">
<path fill-rule="evenodd" clip-rule="evenodd" d="M3.50586 3.39941C3.22972 3.39941 3.00586 3.62327 3.00586 3.89941C3.00586 4.17556 3.22972 4.39941 3.50586 4.39941H8.5166C8.79274 4.39941 9.0166 4.17556 9.0166 3.89941C9.0166 3.62327 8.79274 3.39941 8.5166 3.39941H3.50586ZM3.50586 5.1219C3.22972 5.1219 3.00586 5.34576 3.00586 5.6219C3.00586 5.89804 3.22972 6.1219 3.50586 6.1219H7.89026C8.1664 6.1219 8.39026 5.89804 8.39026 5.6219C8.39026 5.34576 8.1664 5.1219 7.89026 5.1219H3.50586Z" fill="#D4C7F0"/>
</mask>
<g mask="url(#mask0_6592_660023)">
<path d="M4.00586 3.89941C4.00586 4.17556 3.782 4.39941 3.50586 4.39941V2.39941C2.67743 2.39941 2.00586 3.07099 2.00586 3.89941H4.00586ZM3.50586 3.39941C3.782 3.39941 4.00586 3.62327 4.00586 3.89941H2.00586C2.00586 4.72784 2.67743 5.39941 3.50586 5.39941V3.39941ZM8.5166 3.39941H3.50586V5.39941H8.5166V3.39941ZM8.0166 3.89941C8.0166 3.62327 8.24046 3.39941 8.5166 3.39941V5.39941C9.34503 5.39941 10.0166 4.72784 10.0166 3.89941H8.0166ZM8.5166 4.39941C8.24046 4.39941 8.0166 4.17556 8.0166 3.89941H10.0166C10.0166 3.07099 9.34503 2.39941 8.5166 2.39941V4.39941ZM3.50586 4.39941H8.5166V2.39941H3.50586V4.39941ZM4.00586 5.6219C4.00586 5.89804 3.782 6.1219 3.50586 6.1219V4.1219C2.67743 4.1219 2.00586 4.79348 2.00586 5.6219H4.00586ZM3.50586 5.1219C3.782 5.1219 4.00586 5.34576 4.00586 5.6219H2.00586C2.00586 6.45033 2.67743 7.1219 3.50586 7.1219V5.1219ZM7.89026 5.1219H3.50586V7.1219H7.89026V5.1219ZM7.39026 5.6219C7.39026 5.34576 7.61412 5.1219 7.89026 5.1219V7.1219C8.71869 7.1219 9.39026 6.45033 9.39026 5.6219H7.39026ZM7.89026 6.1219C7.61412 6.1219 7.39026 5.89804 7.39026 5.6219H9.39026C9.39026 4.79348 8.71869 4.1219 7.89026 4.1219V6.1219ZM3.50586 6.1219H7.89026V4.1219H3.50586V6.1219Z" fill="#F4F4F4"/>
</g>
</g>
<defs>
<clipPath id="clip0_6592_660023">
<rect width="12" height="11" fill="white"/>
</clipPath>
</defs>
</svg>
