<svg width="16" height="17" viewBox="0 0 16 17" fill="none" xmlns="http://www.w3.org/2000/svg">
<path d="M4.72956 1.88965H11.2705C13.0767 1.88965 14.5409 3.35388 14.5409 5.1601V8.43056C14.5409 10.2368 13.0767 11.701 11.2705 11.701H8.00002L4.72956 14.1539V11.701C2.92334 11.701 1.45911 10.2368 1.45911 8.43056V5.1601C1.45911 3.35388 2.92334 1.88965 4.72956 1.88965Z" stroke="#383946" stroke-linecap="round" stroke-linejoin="round"/>
<mask id="path-2-inside-1_6592_660005" fill="white">
<path fill-rule="evenodd" clip-rule="evenodd" d="M4.72949 5.17188C4.45335 5.17188 4.22949 5.39573 4.22949 5.67188C4.22949 5.94802 4.45335 6.17187 4.72949 6.17187H11.2704C11.5465 6.17187 11.7704 5.94802 11.7704 5.67188C11.7704 5.39573 11.5465 5.17188 11.2704 5.17188H4.72949ZM4.72949 7.42057C4.45335 7.42057 4.22949 7.64442 4.22949 7.92057C4.22949 8.19671 4.45335 8.42057 4.72949 8.42057H10.4528C10.7289 8.42057 10.9528 8.19671 10.9528 7.92057C10.9528 7.64442 10.7289 7.42057 10.4528 7.42057H4.72949Z"/>
</mask>
<path d="M5.22949 5.67188C5.22949 5.94802 5.00563 6.17188 4.72949 6.17188V4.17188C3.90107 4.17188 3.22949 4.84345 3.22949 5.67188H5.22949ZM4.72949 5.17187C5.00563 5.17187 5.22949 5.39573 5.22949 5.67188H3.22949C3.22949 6.5003 3.90107 7.17187 4.72949 7.17187V5.17187ZM11.2704 5.17187H4.72949V7.17187H11.2704V5.17187ZM10.7704 5.67188C10.7704 5.39573 10.9943 5.17187 11.2704 5.17187V7.17187C12.0988 7.17187 12.7704 6.5003 12.7704 5.67188H10.7704ZM11.2704 6.17188C10.9943 6.17188 10.7704 5.94802 10.7704 5.67188H12.7704C12.7704 4.84345 12.0988 4.17188 11.2704 4.17188V6.17188ZM4.72949 6.17188H11.2704V4.17188H4.72949V6.17188ZM5.22949 7.92057C5.22949 8.19671 5.00563 8.42057 4.72949 8.42057V6.42057C3.90107 6.42057 3.22949 7.09214 3.22949 7.92057H5.22949ZM4.72949 7.42057C5.00564 7.42057 5.22949 7.64442 5.22949 7.92057H3.22949C3.22949 8.74899 3.90106 9.42057 4.72949 9.42057V7.42057ZM10.4528 7.42057H4.72949V9.42057H10.4528V7.42057ZM9.95279 7.92057C9.95279 7.64442 10.1766 7.42057 10.4528 7.42057V9.42057C11.2812 9.42057 11.9528 8.74899 11.9528 7.92057H9.95279ZM10.4528 8.42057C10.1766 8.42057 9.95279 8.19671 9.95279 7.92057H11.9528C11.9528 7.09214 11.2812 6.42057 10.4528 6.42057V8.42057ZM4.72949 8.42057H10.4528V6.42057H4.72949V8.42057Z" fill="#C3C4C8" mask="url(#path-2-inside-1_6592_660005)"/>
</svg>
