<svg width="16" height="17" viewBox="0 0 16 17" fill="none" xmlns="http://www.w3.org/2000/svg">
<rect y="0.00390625" width="16" height="16" rx="8" fill="#7D4DD3"/>
<path d="M5.50537 4.00391H10.5161C11.8998 4.00391 13.0215 5.1256 13.0215 6.50928V9.01465C13.0215 10.3983 11.8998 11.52 10.5161 11.52H8.01074L5.50537 13.399V11.52C4.12169 11.52 3 10.3983 3 9.01465V6.50928C3 5.1256 4.12169 4.00391 5.50537 4.00391Z" stroke="#FAFBFC" stroke-linecap="round" stroke-linejoin="round"/>
<mask id="path-3-inside-1_6627_648326" fill="white">
<path fill-rule="evenodd" clip-rule="evenodd" d="M5.50586 6.39941C5.22972 6.39941 5.00586 6.62327 5.00586 6.89941C5.00586 7.17556 5.22972 7.39941 5.50586 7.39941H10.5166C10.7927 7.39941 11.0166 7.17556 11.0166 6.89941C11.0166 6.62327 10.7927 6.39941 10.5166 6.39941H5.50586ZM5.50586 8.1219C5.22972 8.1219 5.00586 8.34576 5.00586 8.6219C5.00586 8.89804 5.22972 9.1219 5.50586 9.1219H9.89026C10.1664 9.1219 10.3903 8.89804 10.3903 8.6219C10.3903 8.34576 10.1664 8.1219 9.89026 8.1219H5.50586Z"/>
</mask>
<path d="M6.00586 6.89941C6.00586 7.17556 5.782 7.39941 5.50586 7.39941V5.39941C4.67743 5.39941 4.00586 6.07099 4.00586 6.89941H6.00586ZM5.50586 6.39941C5.782 6.39941 6.00586 6.62327 6.00586 6.89941H4.00586C4.00586 7.72784 4.67743 8.39941 5.50586 8.39941V6.39941ZM10.5166 6.39941H5.50586V8.39941H10.5166V6.39941ZM10.0166 6.89941C10.0166 6.62327 10.2405 6.39941 10.5166 6.39941V8.39941C11.345 8.39941 12.0166 7.72784 12.0166 6.89941H10.0166ZM10.5166 7.39941C10.2405 7.39941 10.0166 7.17556 10.0166 6.89941H12.0166C12.0166 6.07099 11.345 5.39941 10.5166 5.39941V7.39941ZM5.50586 7.39941H10.5166V5.39941H5.50586V7.39941ZM6.00586 8.6219C6.00586 8.89804 5.782 9.1219 5.50586 9.1219V7.1219C4.67743 7.1219 4.00586 7.79348 4.00586 8.6219H6.00586ZM5.50586 8.1219C5.782 8.1219 6.00586 8.34576 6.00586 8.6219H4.00586C4.00586 9.45033 4.67743 10.1219 5.50586 10.1219V8.1219ZM9.89026 8.1219H5.50586V10.1219H9.89026V8.1219ZM9.39026 8.6219C9.39026 8.34576 9.61412 8.1219 9.89026 8.1219V10.1219C10.7187 10.1219 11.3903 9.45033 11.3903 8.6219H9.39026ZM9.89026 9.1219C9.61412 9.1219 9.39026 8.89804 9.39026 8.6219H11.3903C11.3903 7.79348 10.7187 7.1219 9.89026 7.1219V9.1219ZM5.50586 9.1219H9.89026V7.1219H5.50586V9.1219Z" fill="#D4C7F0" mask="url(#path-3-inside-1_6627_648326)"/>
</svg>
