<svg fill="none" height="49" viewBox="0 0 36 49" width="36" xmlns="http://www.w3.org/2000/svg"><path d="m2.23085 45.1668-.25624-4.3479c1.48573-1.2277 4.18046-1.1867 3.2788-1.2277-.90166-.0409-2.39073-1.5516-3.02256-2.3018-.08541-.4774-.20499-2.1382 0-4.9618.205-2.8236 4.32045-4.6548 6.35255-5.2175v-14.2203l2.2541-.6138 2.664.6138v13.7599l2.5616-.3069v-16.72675l2.664-.5627 2.2029.5627v16.72675l1.4344.3069v-18.21025h3.4837l1.3832.6139v18.05675c5.492.9821 7.4114 3.2055 7.6846 4.1944v5.1664c-1.6803 3.7649-8.1798 5.4221-11.2195 5.7802l-4.9693-6.8032-2.664 1.023 5.1743 7.1102-.3074 4.2968c-8.074 1.8824-15.83025-1.0231-18.69915-2.7111z" fill="#fff"/><g clip-rule="evenodd" fill="#000" fill-rule="evenodd"><path d="m8.0773 12.6543c.02511-.0698.10214-.106.17205-.0809 1.08812.3904 2.17945.7278 3.28705 1.0666.0711.0217.111.0968.0892.1677-.0217.0709-.0969.1108-.1679.0891-1.1074-.3387-2.20443-.6778-3.29932-1.0707-.0699-.0251-.1062-.102-.08108-.1718z"/><path d="m8.0773 30.4512c.02511-.0698.10214-.106.17205-.0809 1.08812.3904 2.17945.7278 3.28705 1.0666.0711.0217.111.0968.0892.1677-.0217.0709-.0969.1108-.1679.0891-1.1074-.3387-2.20443-.6779-3.29932-1.0707-.0699-.0251-.1062-.102-.08108-.1718z"/><path d="m10.461 12.1742c.0179-.0719.0909-.1158.163-.0979.3412.0845.6806.1748 1.0194.2649.7944.2112 1.5852.4215 2.3869.555.0733.0121.1228.0813.1106.1545-.0122.0731-.0815.1226-.1548.1104-.8149-.1356-1.6258-.3513-2.4257-.5639-.3358-.0894-.6698-.1781-1.0012-.2603-.0721-.0178-.1161-.0907-.0982-.1627z"/><path d="m13.5598 12.824c.022.0708-.0176.1461-.0886.1681-1.1529.3572-2.3361.5606-3.51815.7442-.0734.0114-.14216-.0387-.15358-.112s.03882-.1419.11221-.1533c1.18112-.1836 2.34732-.3845 3.47982-.7354.0709-.022.1463.0176.1683.0884z"/><path d="m14.1302 30.7547c.0222.0708-.0173.1462-.0882.1683-1.0792.3376-2.1893.5387-3.2986.7225-.0733.0121-.1426-.0374-.1547-.1106-.0122-.0731.0374-.1423.1107-.1544 1.1084-.1836 2.2024-.3823 3.2622-.7138.0709-.0221.1464.0173.1686.088z"/><path d="m11.7119 11.9374c.0122.0732-.0372.1424-.1105.1546-.2998.0498-.5868.1269-.8876.2077-.0306.0082-.0613.0164-.0923.0247-.84738.2267-1.70636.4004-2.56053.5731-.02583.0052-.05166.0104-.07748.0156-.0728.0148-.14377-.0322-.15852-.1049s.03231-.1436.10511-.1583c.0248-.005.04959-.01.07438-.015.85649-.1732 1.70826-.3455 2.54754-.5699.031-.0083.0621-.0167.0931-.025.2988-.0803.5986-.1608.9121-.213.0732-.0121.1425.0373.1547.1104z"/><path d="m8.57395 11.6201c.07427 0 .13449.0601.13449.1343v20.0576c0 .0742-.06022.1343-.13449.1343-.07428 0-.1345-.0601-.1345-.1343v-20.0576c0-.0742.06022-.1343.1345-.1343zm4.93975 0c.0743 0 .1345.0601.1345.1343v20.0576c0 .0742-.0602.1343-.1345.1343s-.1345-.0601-.1345-.1343v-20.0576c0-.0742.0602-.1343.1345-.1343zm-2.6345.9865c.0742 0 .1345.0601.1345.1342v19.0712c0 .0742-.0603.1343-.1345.1343-.0743 0-.1345-.0601-.1345-.1343v-19.0712c0-.0741.0602-.1342.1345-.1342z"/><path d="m15.1984 9.40825c.0251-.0698.1021-.10605.172-.08097 1.0882.39041 2.1795.72792 3.2871 1.06662.071.0217.111.0968.0892.1677-.0217.0709-.0969.1108-.168.0891-1.1074-.3387-2.2043-.67783-3.2992-1.07067-.0699-.02508-.1062-.10199-.0811-.17178z"/><path d="m15.6252 29.1264c.0311-.0674.111-.0968.1784-.0658 1.0502.4831 2.1081.9138 3.1822 1.3471.0688.0278.1021.1061.0743.1748-.0279.0688-.1063.102-.1751.0742-1.0738-.4332-2.1373-.866-3.1939-1.3522-.0675-.031-.097-.1108-.0659-.1781z"/><path d="m17.8292 8.76311c.0179-.07199.0908-.11586.1629-.09799.3412.08455.6807.17483 1.0195.26493.7944.21125 1.5851.42155 2.3869.55497.0733.0122.1228.08138.1106.15454-.0123.07315-.0816.12257-.1548.11038-.815-.13562-1.6258-.35123-2.4257-.56392-.3359-.08931-.6698-.1781-1.0013-.26024-.0721-.01786-.116-.09069-.0981-.16267z"/><path d="m22.2071 9.42452c.0161.0724-.0296.14413-.1021.16022-1.2549.27844-2.6068.48446-3.7066.65206-.2038.031-.3988.0607-.5831.0894-.0733.0114-.1421-.0388-.1535-.1121s.0388-.1419.1122-.1533c.1855-.0288.3816-.0587.586-.08987 1.1001-.16766 2.4414-.37208 3.6866-.64837.0725-.01609.1444.02956.1605.10196z"/><path d="m21.7091 29.4683c.0238.0702-.014.1464-.0844.1702-1.4091.4758-2.8555.7467-4.3017.9916-.0732.0124-.1426-.0368-.1551-.1099-.0124-.0732.0369-.1425.1101-.1549 1.4452-.2447 2.8733-.5128 4.2606-.9812.0703-.0238.1467.0139.1705.0842z"/><path d="m19.4688 9.09846c.0059.07394-.0494.13859-.1235.1444-.3029.02378-.5956.07576-.9022.1302-.0312.00554-.0626.0111-.0941.01667-.8639.15253-1.7347.25132-2.6007.34955-.0261.00297-.0523.00594-.0785.00892-.0738.00837-.1404-.04457-.1488-.11826s.0446-.14022.1184-.1486c.0251-.00285.0503-.0057.0754-.00855.8683-.09851 1.7318-.19648 2.5874-.34753.0316-.00559.0633-.01122.095-.01685.3046-.05411.6102-.10843.927-.13329.0741-.00582.1388.04941.1446.12334z"/><path d="m15.9421 8.49707c.0743 0 .1345.06012.1345.13429v21.53724c0 .0742-.0602.1343-.1345.1343s-.1345-.0601-.1345-.1343v-21.53724c0-.07417.0602-.13429.1345-.13429zm4.9398.49322c.0743 0 .1345.06012.1345.13429v21.04402c0 .0742-.0602.1343-.1345.1343s-.1345-.0601-.1345-.1343v-21.04402c0-.07417.0602-.13429.1345-.13429zm-2.6346.98644c.0743 0 .1345.06017.1345.13427v20.0576c0 .0742-.0602.1343-.1345.1343-.0742 0-.1345-.0601-.1345-.1343v-20.0576c0-.0741.0603-.13427.1345-.13427z"/><path d="m24.7482 8.09184c.0251-.06979.1021-.10604.172-.08096 1.0882.39041 2.1795.72787 3.2871 1.06662.071.02172.111.09681.0892.16773-.0217.07091-.0969.11079-.168.08906-1.1073-.33868-2.2043-.67783-3.2992-1.07066-.0699-.02508-.1062-.10199-.0811-.17179z"/><path d="m21.8132 31.0624c.0511-.0538.1363-.0561.1902-.0051.7598.719 1.522 1.3406 2.2972 1.9659.0578.0466.0668.1312.0201.1889s-.1314.0666-.1891.02c-.7753-.6253-1.5449-1.2528-2.3133-1.9798-.0539-.0511-.0562-.136-.0051-.1899z"/><path d="m21.5666 8.41703c.0273-.06897.1054-.10277.1745-.0755.3269.12909.6513.26361.9752.39788.7591.3148 1.5149.62818 2.2918.86682.071.02181.1108.09695.089.16784-.0218.07088-.0971.11067-.1681.08886-.7897-.24257-1.5646-.56388-2.3291-.88083-.321-.13309-.6401-.26541-.9577-.39081-.0691-.02728-.103-.10529-.0756-.17426z"/><path d="m28.0347 9.06943c.0055.07396-.05.1384-.1241.14395-1.2819.09593-2.6494.10628-3.762.11471-.206.00156-.4034.00305-.5898.00501-.0742.00078-.1351-.0587-.1359-.13286s.0588-.13491.1331-.1357c.1878-.00197.3861-.00348.5928-.00505 1.1129-.00845 2.4697-.01875 3.7417-.11394.0741-.00554.1386.04992.1442.12388z"/><path d="m27.9727 32.4539c.0085.0736-.0444.1403-.1182.1488-2.1474.2473-2.9762.2474-4.4612.2474-.0743 0-.1345-.0601-.1345-.1343 0-.0741.0602-.1342.1345-.1342h.0017c1.4778 0 2.2958 0 4.4286-.2457.0738-.0085.1406.0443.1491.118z"/><path d="m26.6561 8.46641c.0002.07416-.0598.13445-.1341.13466l-4.5035.01254c-.0742.0002-.1346-.05975-.1348-.13392-.0002-.07416.0598-.13445.1341-.13466l4.5034-.01253c.0743-.00021.1347.05974.1349.13391z"/><path d="m22.2409 7.83887c.0743 0 .1345.06012.1345.13428v23.51015c0 .0742-.0602.1343-.1345.1343-.0742 0-.1345-.0601-.1345-.1343v-23.51015c0-.07416.0603-.13428.1345-.13428zm5.1045 0c.0742 0 .1344.06012.1344.13428v24.33215c0 .0742-.0602.1343-.1344.1343-.0743 0-.1345-.0601-.1345-.1343v-24.33215c0-.07416.0602-.13428.1345-.13428zm-3.6225.98644c.0742 0 .1345.06012.1345.13428v24.00341c0 .0741-.0603.1342-.1345.1342-.0743 0-.1345-.0601-.1345-.1342v-24.00341c0-.07416.0602-.13428.1345-.13428z"/><path d="m19.0753 31.4402c.0237.0703-.0142.1465-.0847.1701-1.0189.3414-2.0357.6881-3.0526 1.0347-3.3495 1.1419-6.69975 2.284-10.12659 3.2418-.07153.02-.14575-.0216-.16577-.0931-.02003-.0714.02173-.1455.09325-.1655 3.41887-.9556 6.75931-2.0944 10.10751-3.2358 1.018-.347 2.0368-.6943 3.0587-1.0368.0704-.0235.1466.0143.1702.0846z"/><path d="m18.2006 31.3815c.0561-.0486.141-.0426.1897.0134.2138.2457.4265.4907.6385.735 1.8495 2.1304 3.647 4.2011 5.6533 6.2043.0525.0524.0525.1374 0 .1899-.0525.0524-.1377.0524-.1902 0-2.0135-2.0104-3.8174-4.0885-5.6661-6.218-.2121-.2444-.4248-.4894-.6386-.7351-.0487-.056-.0427-.1408.0134-.1895z"/><path d="m18.5377 35.4035c.0596-.0443.1439-.0319.1882.0277 2.1404 2.8769 3.6214 4.8486 5.4315 7.1488.0459.0583.0357.1427-.0227.1885-.0584.0459-.1429.0357-.1888-.0226-1.8124-2.3032-3.2953-4.2773-5.436-7.1546-.0443-.0595-.0318-.1436.0278-.1878z"/><path d="m27.215 27.1739c.0191-.0716.0928-.1142.1646-.0951.2522.0671.5002.1319.744.1956 2.1323.5571 3.9488 1.0317 5.5614 2.2946 1.0244.8023 1.3906 1.6681 1.271 2.5294-.1178.8481-.7026 1.6558-1.4966 2.3628-1.5871 1.4132-4.0864 2.4911-5.7579 2.7435-.5623.1477-1.4792.2765-2.3887.3859-.4584.0552-.9135.1052-1.3249.1505-.4158.0457-.787.0865-1.0718.1227-.0736.0094-.141-.0427-.1504-.1163-.0093-.0735.0428-.1408.1165-.1501.2834-.036.6598-.0775 1.0796-.1237.4132-.0454.8685-.0956 1.3189-.1497.9163-.1102 1.8186-.2379 2.3591-.3809.0048-.0012.0096-.0022.0145-.0029 1.6216-.2429 4.077-1.3002 5.626-2.6794.7752-.6902 1.3044-1.4442 1.4093-2.1993.103-.7418-.1994-1.5206-1.1706-2.2812-1.5661-1.2265-3.3266-1.6869-5.4676-2.247-.2421-.0633-.489-.1279-.7411-.195-.0718-.0191-.1144-.0927-.0953-.1644z"/><path d="m34.9344 31.5192c.0712.0211.1118.0958.0907.1669-.0153.0517-.0297.1677-.0407.3482-.0108.1753-.0178.398-.0227.6534-.0062.322-.009.6924-.012 1.0813-.0017.2289-.0035.4642-.0061.6998-.0069.6341-.0193 1.2693-.0514 1.777-.0161.2536-.0372.4783-.0657.6564-.0142.089-.0306.1688-.0499.236-.0186.0649-.0426.128-.0767.1766-1.2432 1.7741-3.1631 3.0207-5.3432 3.8441-2.1808.8236-4.6305 1.2271-6.9469 1.3097-.0742.0027-.1366-.0553-.1392-.1294-.0027-.0741.0554-.1363.1296-.139 2.294-.0818 4.7138-.4814 6.8613-1.2925 2.1481-.8113 4.0154-2.0308 5.218-3.7469.0085-.012.0227-.0412.0386-.0966.0152-.053.0296-.1213.0428-.2043.0265-.1659.047-.3809.0628-.6311.0317-.5.0441-1.1289.051-1.7629.0025-.2335.0043-.4678.006-.6963.003-.3903.0059-.7638.0121-1.087.0049-.2566.012-.4837.0231-.6647.0107-.1757.0259-.3223.0513-.4081.0211-.0711.096-.1116.1672-.0906z"/><path d="m16.2728 35.214c.0278.0688-.0056.147-.0745.1748-3.9129 1.5744-7.0816 2.7358-10.55972 4.0106-1.42693.523-2.90594 1.0651-4.50977 1.6627-.06959.0259-.147055-.0094-.173022-.0789s.009398-.1468.078992-.1728c1.60662-.5985 3.08707-1.1412 4.51467-1.6644 3.47645-1.2742 6.63955-2.4336 10.54835-4.0063.0689-.0278.1472.0055.175.0743z"/><path d="m15.0809 35.0735c.0601-.0436.1442-.0302.1879.0298.3169.4362.635.8718.9533 1.3076 1.7434 2.3874 3.4903 4.7797 5.0619 7.2903.0393.0629.0202.1458-.0428.1851s-.146.0202-.1853-.0427c-1.566-2.5018-3.3065-4.8852-5.05-7.2728-.3185-.4362-.6372-.8726-.9549-1.3098-.0436-.06-.0302-.144.0299-.1875z"/><path d="m.882978 40.1302c.036852-.0644.119012-.0868.183502-.05 1.14023.6506 2.99707 1.3393 3.92565 1.6326 5.58747 1.7652 12.90007 2.6781 17.70997 1.4775.072-.018.1451.0257.1631.0977.018.0719-.0258.1448-.0979.1628-4.8788 1.2179-12.247.2901-17.85631-1.4819-.9348-.2953-2.81298-.9908-3.977967-1.6555-.064492-.0368-.086898-.1188-.050045-.1832z"/><path d="m1.98103 39.6926c.07418-.0039.13744.053.14129.1271.16482 3.1679.16484 4.1568.16484 6.6243 0 .0742-.06021.1343-.13449.1343s-.13449-.0601-.13449-.1343v-.001c0-2.4639 0-3.448-.16448-6.6094-.00385-.074.05316-.1372.12733-.141z"/><path d="m21.131 42.2822c.0743.0009.1337.0618.1329.1359-.01.8364-.0569 1.7868-.1033 2.7278-.0025.0522-.0051.1043-.0077.1565-.0488.9932-.0949 1.968-.0949 2.7861 0 .0742-.0602.1343-.1344.1343-.0743 0-.1345-.0601-.1345-.1343 0-.8259.0464-1.8074.0952-2.7993.0025-.0515.005-.1031.0076-.1547.0465-.9426.0931-1.8884.103-2.7196.0009-.0741.0618-.1335.1361-.1327z"/><path d="m1.38444 44.7223c.04317-.0604.12717-.0744.18761-.0313 2.28181 1.6274 5.70327 2.7969 9.38915 3.3413 3.6843.5442 7.6173.4614 10.9162-.4026.0719-.0188.1454.0241.1642.0959.0189.0717-.0241.1451-.0959.1639-3.3415.8751-7.3121.9567-11.0239.4085-3.71029-.548-7.17746-1.7276-9.50609-3.3884-.06045-.0431-.07445-.127-.03127-.1873z"/><path d="m18.7442 35.3811c.0267.0693-.008.1469-.0773.1735-.3913.15-.7062.2739-.9805.3818-.6234.2453-1.0369.408-1.6613.6072-.0708.0226-.1465-.0164-.1691-.087-.0226-.0707.0165-.1463.0872-.1688.6156-.1964 1.0185-.3549 1.6369-.5982.2749-.1082.5925-.2332.9904-.3857.0693-.0266.1471.008.1737.0772z"/><path d="m2.14633 36.7008c.06963-.0258.14704.0097.17288.0792.46968 1.2636 1.63353 2.2353 2.88605 2.7163.06933.0266.10391.1043.07725.1735-.02667.0692-.10448.1038-.17381.0772-1.30441-.501-2.53841-1.5197-3.04167-2.8736-.02584-.0695.00966-.1468.0793-.1726z"/><path d="m2.31931 32.336c.07426.0015.13321.0629.13166.137-.03305 1.584-.02356 2.4196-.0126 3.3855.00607.5347.01259 1.1093.01261 1.8727 0 .0742-.06021.1343-.13449.1343s-.1345-.0601-.1345-.1343c-.00001-.7576-.0065-1.3305-.01255-1.8648-.01098-.969-.02052-1.8113.0126-3.399.00155-.0741.06301-.133.13727-.1314z"/><path d="m18.6211 31.3487c.0742.0015.1332.0629.1316.137-.0324 1.5543-.0239 2.1908-.0132 2.989.0063.4656.0132.9862.0133 1.776 0 .0742-.0602.1343-.1345.1343s-.1345-.0601-.1345-.1343c0-.7829-.007-1.302-.0132-1.7677-.0107-.8017-.0193-1.4449.0132-3.0029.0015-.0741.063-.133.1373-.1314z"/><path d="m23.913 37.2676c.0743.0016.1333.0629.1317.1371-.0324 1.5542-.0239 2.1908-.0132 2.9889.0063.4656.0132.9862.0133 1.7761 0 .0741-.0603.1342-.1345.1342-.0743 0-.1345-.0601-.1345-.1342 0-.7829-.007-1.3021-.0132-1.7677-.0107-.8018-.0193-1.445.0132-3.0029.0015-.0742.063-.133.1372-.1315z"/><path d="m6.12982 35.1299c.07426.0016.13321.0629.13166.1371-.03055 1.464-.02478 1.7052-.01506 2.1112.00663.2771.01511.631.01512 1.5029 0 .0742-.06021.1343-.13449.1343s-.13449-.0601-.13449-.1343c-.00002-.858-.00839-1.2121-.01499-1.4913-.00975-.4124-.01563-.6613.01498-2.1284.00155-.0742.063-.133.13727-.1315z"/><path d="m1.80727 31.3496c.07377-.0087.1406.044.14928.1176.07029.5966.37422 1.1692.78818 1.6857.41331.5158.9297.9673 1.41057 1.3205.91258.6702 1.94252 1.2373 3.05465 1.191.07422-.003.13689.0545.13998.1286s-.05456.1367-.12878.1398c-1.2086.0503-2.30254-.5654-3.22524-1.2431-.49325-.3623-1.02888-.8295-1.4612-1.369-.43168-.5386-.767-1.1576-.8453-1.8221-.00868-.0736.04409-.1404.11786-.149z"/><path d="m8.70472 27.3154c.01866.0718-.0245.1451-.09639.1637-1.69295.4388-3.34318 1.0491-4.58731 2.2509-.6238.6026-1.22394 1.3914-1.46463 2.2154-.15376.5263-.05187 1.0269.17249 1.5389.02977.0679-.00126.1471-.06931.1768-.06805.0298-.14735-.0012-.17712-.0692-.23803-.5432-.36239-1.112-.18428-1.7217.25917-.8873.89577-1.715 1.53582-2.3333 1.2957-1.2516 3.00227-1.876 4.70676-2.3177.0719-.0186.14531.0244.16397.0962z"/></g><path d="m13.5138 26.5509c.6323-.1014 1.465-.2007 2.3052-.2669z" fill="#22222a"/><path clip-rule="evenodd" d="m15.9526 26.2712c.0071.0729-.0455.138-.1184.1464l-2.3052.2669c-.0726.0084-.1387-.0427-.1487-.115-.01-.0724.0397-.1394.1119-.151.6363-.102 1.4726-.2017 2.316-.2681.0731-.0058.1373.048.1444.1208z" fill="#000" fill-rule="evenodd"/><path clip-rule="evenodd" d="m20.7896 26.3742c.0066-.0738.072-.1283.146-.1217.1885.0169.3302.027.4618.0364.2436.0174.4527.0323.8601.0831.0737.0092.126.0764.1168.1499-.0092.0736-.0764.1258-.1501.1166-.4012-.05-.5998-.0642-.8384-.0811-.1321-.0094-.2764-.0197-.4743-.0374-.0739-.0066-.1285-.0719-.1219-.1458z" fill="#000" fill-rule="evenodd"/><path clip-rule="evenodd" d="m13.1683 12.7757c.072.0185.1152.0917.0967.1635l-2.1641 8.3848c-.0185.0718-.0919.115-.1638.0965s-.1152-.0917-.0967-.1635l2.1641-8.3848c.0186-.0718.0919-.115.1638-.0965zm.326 2.3017c.072.0185.1152.0917.0967.1635l-2.3762 9.2068c-.0186.0718-.0919.115-.1638.0965-.072-.0185-.1152-.0917-.0967-.1635l2.3762-9.2068c.0186-.0718.0919-.115.1638-.0965zm.053 3.9457c.0719.0186.1152.0918.0966.1636-.4657 1.8045-.893 3.4409-1.3109 5.041l-.0261.0999c-.4089 1.5654-.8094 3.0986-1.2288 4.7235-.0185.0718-.0918.115-.1638.0965-.0719-.0185-.1152-.0917-.0966-.1635.4194-1.6253.82-3.1587 1.2288-4.7239l.0262-.1003c.4179-1.6001.8451-3.2362 1.3108-5.0402.0185-.0718.0918-.1151.1638-.0966zm-3.94996 15.4548c.07165.0195.11385.0934.09427.1649l-.99021 3.617c-.01959.0715-.09355.1136-.1652.0941-.07165-.0196-.11385-.0934-.09427-.165l.99021-3.6169c.01959-.0715.09355-.1137.1652-.0941zm-1.25895.5762c.07193.0185.11521.0917.09668.1636l-.91197 3.5334c-.01854.0718-.09187.115-.1638.0965s-.11521-.0917-.09668-.1635l.91197-3.5335c.01854-.0718.09187-.115.1638-.0965zm-.92006 0c.07192.0185.11521.0917.09667.1636l-.91197 3.5334c-.01853.0718-.09187.115-.1638.0965s-.11521-.0917-.09667-.1635l.91197-3.5335c.01853-.0718.09187-.115.1638-.0965zm-1.73713 6.7305c.07193.0185.11521.0918.09667.1636l-1.16919 4.53c-.01853.0718-.09187.115-.1638.0965-.07192-.0185-.11521-.0917-.09667-.1635l1.16919-4.53c.01853-.0719.09187-.1151.1638-.0966zm.82516.3677c.07193.0186.11521.0918.09667.1636l-1.07428 4.1623c-.01853.0718-.09187.115-.1638.0965s-.11521-.0917-.09667-.1635l1.07428-4.1623c.01853-.0718.09187-.1151.1638-.0966zm.92006.5093c.07193.0185.11521.0917.09668.1636l-1.07014 4.1462c-.01854.0718-.09187.1151-.1638.0965-.07193-.0185-.11521-.0917-.09668-.1635l1.07014-4.1463c.01854-.0718.09188-.115.1638-.0965z" fill="#000" fill-rule="evenodd"/><path d="m3.63379 41.3477c-.19698.7632-.37448 1.435-.55074 2.1023l-.526 2.0079c.18527-.7179.35505-1.3607.526-2.0079z" fill="#22222a"/><path clip-rule="evenodd" d="m11.9175 13.269c.0719.0185.1152.0917.0967.1635l-1.0515 4.0741c-.0186.0718-.0919.115-.1638.0965-.072-.0185-.1152-.0917-.0967-.1635l1.0515-4.0741c.0185-.0718.0919-.115.1638-.0965zm-7.48784 21.3728c.07193.0186.11521.0918.09667.1636l-.92599 3.5878c-.01853.0718-.09187.115-.1638.0965s-.11521-.0917-.09667-.1636l.92599-3.5877c.01853-.0718.09187-.1151.1638-.0966zm1.84427.4933c.07193.0185.11521.0917.09668.1635l-1.05151 4.0741c-.01854.0718-.09187.115-.1638.0965s-.11521-.0917-.09667-.1635l1.0515-4.0741c.01854-.0718.09187-.115.1638-.0965zm-1.0515 0c.07192.0185.11521.0917.09667.1635l-1.01839 3.9458c-.01853.0718-.09187.115-.1638.0965s-.11521-.0917-.09667-.1636l1.01839-3.9457c.01853-.0718.09187-.115.1638-.0965zm-2.40522 5.7542c.07193.0185.11521.0917.09667.1635l-.63649 2.4661c-.01854.0719-.09187.1151-.1638.0966s-.11521-.0918-.09668-.1636l.6365-2.4661c.01853-.0718.09187-.115.1638-.0965zm.85135.3289c.0718.0186.11495.0917.09644.1635-.1956.7578-.372 1.4256-.54694 2.0879l-.00393.0149-.00007.0002-.5258 2.0071-.00012.0005c-.01877.0717-.09211.1146-.16392.096-.0718-.0186-.11495-.0918-.09643-.1635.18536-.7182.35522-1.3614.52615-2.0084.00001-.0001.00002-.0001.00003-.0002l.55056-2.1016.00012-.0004c.01877-.0717.09211-.1146.16391-.096zm.90805.4931c.07193.0185.11522.0918.09668.1636l-1.07295 4.1571c-.01854.0718-.09187.1151-.1638.0966-.07193-.0186-.11521-.0918-.09667-.1636l1.07294-4.1571c.01854-.0719.09188-.1151.1638-.0966z" fill="#000" fill-rule="evenodd"/><path clip-rule="evenodd" d="m2.84215 33.4905c.07193.0185.11521.0918.09668.1636l-.46677 1.8085c-.01853.0718-.09187.115-.16379.0965-.07193-.0185-.11522-.0917-.09668-.1636l.46676-1.8084c.01854-.0718.09187-.1151.1638-.0966zm.88178.6577c.07192.0185.11521.0917.09667.1635l-.88177 3.4165c-.01854.0718-.09188.115-.1638.0965-.07193-.0185-.11521-.0918-.09668-.1636l.88178-3.4164c.01853-.0718.09187-.115.1638-.0965z" fill="#000" fill-rule="evenodd"/><path clip-rule="evenodd" d="m18.7456 9.81586c.072.01851.1152.09173.0967.16355l-.3819 1.47969c-.0185.0718-.0919.115-.1638.0965s-.1152-.0917-.0967-.1636l.3819-1.47961c.0186-.07182.0919-.11504.1638-.09653zm-5.2389 12.65934c.072.0185.1152.0917.0967.1635l-2.2489 8.7136c-.0186.0718-.0919.115-.1638.0965-.072-.0185-.1153-.0917-.0967-.1635l2.2489-8.7136c.0186-.0718.0919-.115.1638-.0965zm0 3.5648c.072.0185.1152.0917.0967.1635l-1.3289 5.1488c-.0185.0718-.0918.115-.1638.0965-.0719-.0185-.1152-.0917-.0966-.1635l1.3288-5.1488c.0186-.0718.0919-.115.1638-.0965zm.147 3.5047c.0719.0185.1152.0917.0967.1635l-.368 1.4256c-.0185.0718-.0918.115-.1638.0965-.0719-.0185-.1152-.0917-.0966-.1636l.3679-1.4255c.0185-.0718.0919-.115.1638-.0965zm-1.0608 4.1101c.0719.0185.1152.0918.0966.1636l-.8486 3.2881c-.0186.0718-.0919.115-.1638.0965s-.1152-.0917-.0967-.1635l.8487-3.2881c.0185-.0719.0918-.1151.1638-.0966zm-1.1145.244c.0719.0185.1152.0917.0967.1635l-.9555 3.7018c-.0185.0719-.0918.1151-.1638.0966-.0719-.0185-.1152-.0918-.0966-.1636l.9554-3.7018c.0185-.0718.0919-.115.1638-.0965zm-1.0268.4137c.0719.0185.1152.0917.0966.1635l-.84862 3.2881c-.01854.0719-.09188.1151-.1638.0966-.07193-.0185-.11521-.0918-.09668-.1636l.8487-3.2881c.0185-.0718.0918-.1151.1638-.0965zm-1.20162 8.2203c.07193.0185.11521.0917.09668.1635-.22049.8543-.39664 1.5613-.57144 2.2628l-.01161.0466c-.17862.7168-.35683 1.4313-.58034 2.2941-.0186.0718-.09197.115-.16388.0964-.07191-.0185-.11513-.0918-.09653-.1636.22317-.8615.40111-1.5749.57973-2.2918l.01167-.0468c.17477-.7014.35115-1.4093.57192-2.2647.01854-.0718.09187-.115.1638-.0965zm.96662.3288c.0719.0185.1152.0917.0967.1635-.2248.8709-.46331 1.7754-.69797 2.6651-.18963.7191-.37674 1.4286-.55201 2.103-.01866.0717-.09207.1148-.16397.0962-.07189-.0186-.11505-.0919-.09639-.1637.17601-.6773.36318-1.3869.55273-2.1056.23426-.8883.47216-1.7903.69711-2.662.0186-.0718.0919-.115.1638-.0965zm-1.88668-.3288c.07192.0185.11521.0917.09667.1635l-1.18812 4.6034c-.01854.0718-.09187.1151-.1638.0965-.07193-.0185-.11521-.0917-.09668-.1635l1.18813-4.6034c.01853-.0718.09187-.115.1638-.0965z" fill="#000" fill-rule="evenodd"/><path clip-rule="evenodd" d="m20.4989 9.48695c.0719.01851.1152.09173.0966.16355l-2.0792 8.0559c-.0185.0718-.0918.1151-.1638.0966-.0719-.0186-.1152-.0918-.0966-.1636l2.0792-8.05592c.0185-.07182.0918-.11503.1638-.09653zm-.9201 0c.0719.01851.1152.09173.0967.16355l-1.2562 4.8672c-.0186.0718-.0919.115-.1638.0965-.072-.0185-.1152-.0917-.0967-.1635l1.2562-4.86722c.0185-.07182.0919-.11503.1638-.09653zm1.3351 2.46615c.0719.0185.1152.0917.0967.1635l-2.5913 10.04c-.0186.0718-.0919.115-.1638.0965-.072-.0185-.1152-.0917-.0967-.1636l2.5913-10.0399c.0185-.0718.0918-.1151.1638-.0965zm-5.3041 20.5508c.0719.0185.1152.0917.0966.1635l-.8062 3.1238c-.0185.0718-.0919.115-.1638.0965s-.1152-.0917-.0967-.1636l.8063-3.1237c.0185-.0718.0918-.115.1638-.0965zm-1.1788.4932c.0719.0185.1152.0917.0966.1636l-.8062 3.1237c-.0185.0718-.0919.115-.1638.0965s-.1152-.0917-.0967-.1635l.8063-3.1238c.0185-.0718.0918-.115.1638-.0965zm-1.005.3288c.072.0185.1152.0917.0967.1636l-.8486 3.2881c-.0186.0718-.0919.115-.1638.0965-.072-.0185-.1153-.0917-.0967-.1635l.8486-3.2882c.0186-.0718.0919-.115.1638-.0965zm-1.6259 9.8644c.072.0185.1152.0917.0967.1636l-1.273 4.9322c-.0185.0718-.0919.115-.1638.0965s-.1152-.0917-.0967-.1636l1.273-4.9322c.0186-.0718.0919-.115.1638-.0965zm.9667.3288c.0719.0185.1152.0918.0966.1636-.2142.8302-.4392 1.701-.6608 2.5586-.1809.7001-.3595 1.3915-.5281 2.0448-.0186.0718-.0919.115-.1639.0965-.0719-.0185-.1152-.0918-.0966-.1636.1687-.6534.3473-1.3448.5282-2.0449.2215-.8575.4465-1.7282.6608-2.5584.0185-.0719.0918-.1151.1638-.0966zm-1.8867-.3288c.0719.0185.1152.0917.0966.1636l-1.18808 4.6033c-.01854.0719-.09187.1151-.1638.0966s-.11521-.0918-.09668-.1636l1.18816-4.6034c.0185-.0718.0918-.115.1638-.0965z" fill="#000" fill-rule="evenodd"/><path clip-rule="evenodd" d="m22.8392 8.66535c.0719.0185.1152.09173.0967.16355l-.5092 1.9729c-.0185.0718-.0919.115-.1638.0965s-.1152-.0917-.0967-.1635l.5092-1.97293c.0186-.07181.0919-.11503.1638-.09652zm.8352.32881c.072.01851.1152.09173.0967.16355l-1.3444 5.20889c-.0185.0718-.0919.115-.1638.0965s-.1152-.0917-.0967-.1635l1.3444-5.20891c.0186-.07182.0919-.11504.1638-.09653zm0 4.07404c.072.0185.1152.0918.0967.1636l-1.3444 5.2088c-.0185.0719-.0919.1151-.1638.0966s-.1152-.0918-.0967-.1636l1.3444-5.2089c.0186-.0718.0919-.115.1638-.0965zm-2.872 3.4887c.072.0185.1153.0917.0967.1635l-2.5035 9.7c-.0186.0718-.0919.115-.1638.0965-.072-.0185-.1152-.0917-.0967-.1635l2.5035-9.7c.0186-.0718.0919-.115.1638-.0965zm.1563 2.9593c.0719.0185.1152.0917.0967.1635l-2.6598 10.3055c-.0186.0718-.0919.115-.1638.0965-.072-.0185-.1152-.0917-.0967-.1635l2.6598-10.3055c.0186-.0718.0919-.115.1638-.0965zm0 4.074c.0719.0186.1152.0918.0967.1636l-1.6083 6.2314c-.0186.0718-.0919.115-.1638.0965s-.1152-.0917-.0967-.1635l1.6083-6.2314c.0186-.0718.0919-.1151.1638-.0966zm-2.1309 8.2565c.0719.0185.1152.0917.0966.1635l-.9335 3.617c-.0185.0718-.0919.115-.1638.0965s-.1152-.0917-.0967-.1635l.9336-3.617c.0185-.0718.0918-.115.1638-.0965zm-1.0516 0c.072.0185.1153.0917.0967.1635l-1.1032 4.2746c-.0186.0718-.0919.115-.1638.0965-.072-.0185-.1152-.0917-.0967-.1635l1.1032-4.2746c.0186-.0718.0919-.115.1638-.0965zm-1.0049.3288c.0719.0185.1152.0917.0967.1635l-.9335 3.617c-.0186.0718-.0919.115-.1638.0965-.072-.0185-.1152-.0917-.0967-.1635l.9335-3.617c.0186-.0718.0919-.115.1638-.0965zm-.9563 11.3441c.0719.0185.1152.0917.0967.1635l-1.3154 5.0966c-.0186.0718-.0919.115-.1638.0965-.072-.0185-.1152-.0917-.0967-.1635l1.3154-5.0966c.0186-.0718.0919-.1151.1638-.0965zm-1.0515 0c.0719.0185.1152.0917.0967.1635l-1.2306 4.7678c-.0185.0718-.0918.115-.1638.0965-.0719-.0185-.1152-.0917-.0966-.1635l1.2305-4.7678c.0185-.0718.0919-.1151.1638-.0965zm-.9201 0c.072.0185.1153.0917.0967.1635l-1.2305 4.7678c-.0186.0718-.0919.115-.1638.0965-.072-.0185-.1152-.0917-.0967-.1635l1.2305-4.7678c.0186-.0718.0919-.1151.1638-.0965z" fill="#000" fill-rule="evenodd"/><path clip-rule="evenodd" d="m23.682 16.5569c.0719.0186.1152.0918.0967.1636l-1.4852 5.7542c-.0185.0718-.0919.1151-.1638.0966-.0719-.0186-.1152-.0918-.0967-.1636l1.4852-5.7542c.0185-.0718.0919-.1151.1638-.0966zm.1138 3.1238c.072.0185.1152.0917.0967.1635l-1.5276 5.9187c-.0185.0718-.0918.115-.1638.0965-.0719-.0185-.1152-.0917-.0966-.1636l1.5275-5.9186c.0186-.0718.0919-.115.1638-.0965zm0 4.074c.072.0185.1152.0918.0967.1636l-1.5276 5.9186c-.0185.0718-.0918.1151-.1638.0965-.0719-.0185-.1152-.0917-.0966-.1635l1.5275-5.9186c.0186-.0719.0919-.1151.1638-.0966zm-2.8719 3.4887c.0719.0185.1152.0917.0966.1635l-.6365 2.4661c-.0185.0718-.0918.1151-.1638.0965-.0719-.0185-.1152-.0917-.0966-.1635l.6365-2.4661c.0185-.0718.0918-.115.1638-.0965zm-1.4428 5.5898c.072.0185.1152.0917.0967.1635l-.7213 2.795c-.0186.0718-.0919.115-.1638.0965-.072-.0185-.1153-.0917-.0967-.1636l.7213-2.7949c.0186-.0718.0919-.115.1638-.0965zm.8063.4411c.0719.0185.1152.0917.0966.1635l-.8062 3.1238c-.0185.0718-.0919.115-.1638.0965s-.1152-.0918-.0967-.1636l.8063-3.1237c.0185-.0718.0918-.115.1638-.0965zm.7834 1.0386c.0719.0185.1152.0917.0967.1635l-.7835 3.0355c-.0185.0718-.0918.115-.1638.0965-.0719-.0185-.1152-.0917-.0966-.1635l.7834-3.0355c.0185-.0718.0919-.1151.1638-.0965zm-2.4187 9.3711c.072.0185.1152.0918.0967.1636l-1.1881 4.6034c-.0185.0718-.0919.115-.1638.0965s-.1152-.0917-.0967-.1636l1.1881-4.6033c.0186-.0719.0919-.1151.1638-.0966zm-1.0515 0c.072.0185.1152.0918.0967.1636l-1.273 4.9322c-.0185.0718-.0919.115-.1638.0965s-.1152-.0917-.0967-.1635l1.273-4.9322c.0186-.0719.0919-.1151.1638-.0966zm-.92 0c.0719.0185.1152.0918.0966.1636l-1.1881 4.6034c-.0185.0718-.0919.115-.1638.0965s-.1152-.0917-.0967-.1636l1.1882-4.6033c.0185-.0719.0918-.1151.1638-.0966z" fill="#000" fill-rule="evenodd"/><path clip-rule="evenodd" d="m23.7562 28.0804c.0719.0185.1152.0917.0967.1635l-.972 3.7659c-.0185.0719-.0919.1151-.1638.0966s-.1152-.0918-.0967-.1636l.972-3.7659c.0186-.0718.0919-.115.1638-.0965zm.0754 3.2727c.0719.0185.1152.0917.0967.1635l-.297 1.1509c-.0186.0718-.0919.115-.1638.0965-.072-.0185-.1153-.0917-.0967-.1636l.297-1.1508c.0185-.0718.0919-.115.1638-.0965zm-1.9809 4.1101c.0719.0185.1152.0918.0967.1636l-.8062 3.1237c-.0186.0718-.0919.115-.1638.0965-.072-.0185-.1152-.0917-.0967-.1635l.8062-3.1237c.0186-.0719.0919-.1151.1638-.0966zm.7079.8221c.072.0185.1152.0917.0967.1635l-.8062 3.1237c-.0186.0719-.0919.1151-.1638.0966-.072-.0185-.1152-.0918-.0967-.1636l.8062-3.1237c.0186-.0718.0919-.115.1638-.0965zm.9242.4932c.072.0185.1152.0917.0967.1635l-.976 3.7814c-.0185.0718-.0918.115-.1638.0965-.0719-.0185-.1152-.0917-.0966-.1635l.9759-3.7814c.0186-.0718.0919-.115.1638-.0965zm-2.8337 6.9051c.072.0185.1153.0917.0967.1635l-1.1881 4.6034c-.0185.0718-.0919.115-.1638.0965s-.1152-.0917-.0967-.1635l1.1881-4.6034c.0186-.0718.0919-.115.1638-.0965zm-.92 0c.0719.0185.1152.0917.0967.1635l-1.1882 4.6034c-.0185.0718-.0918.115-.1638.0965-.0719-.0185-.1152-.0917-.0966-.1635l1.1881-4.6034c.0185-.0718.0918-.115.1638-.0965zm1.4199 2.1372c.0719.0186.1152.0918.0967.1636l-.5516 2.1373c-.0186.0718-.0919.115-.1638.0965-.072-.0185-.1152-.0917-.0967-.1635l.5516-2.1373c.0186-.0718.0919-.1151.1638-.0966z" fill="#000" fill-rule="evenodd"/><path clip-rule="evenodd" d="m26.3941 37.2719c.0719.0185.1152.0917.0966.1636l-1.2305 4.7678c-.0185.0718-.0919.115-.1638.0965s-.1152-.0917-.0967-.1636l1.2306-4.7678c.0185-.0718.0918-.115.1638-.0965zm-1.0515 0c.0719.0185.1152.0917.0966.1636l-1.2305 4.7678c-.0186.0718-.0919.115-.1638.0965s-.1152-.0917-.0967-.1636l1.2306-4.7678c.0185-.0718.0918-.115.1638-.0965zm-.9201 0c.0719.0185.1152.0917.0967.1636l-.5092 1.9728c-.0186.0719-.0919.1151-.1638.0966-.072-.0185-.1152-.0918-.0967-.1636l.5092-1.9729c.0185-.0718.0919-.115.1638-.0965z" fill="#000" fill-rule="evenodd"/><path clip-rule="evenodd" d="m29.6841 36.3383c.0719.0185.1152.0918.0967.1636l-1.2595 4.8799c-.0185.0718-.0919.115-.1638.0965s-.1152-.0917-.0967-.1636l1.2595-4.8799c.0185-.0718.0919-.115.1638-.0965zm-1.2205.6548c.0719.0185.1152.0917.0967.1635l-1.2178 4.7184c-.0185.0718-.0919.115-.1638.0965s-.1152-.0917-.0967-.1635l1.2178-4.7184c.0185-.0718.0919-.115.1638-.0965zm-.9201 0c.072.0185.1153.0917.0967.1635l-1.2178 4.7184c-.0185.0718-.0918.115-.1638.0965-.0719-.0185-.1152-.0917-.0966-.1635l1.2177-4.7184c.0186-.0718.0919-.115.1638-.0965z" fill="#000" fill-rule="evenodd"/><path clip-rule="evenodd" d="m33.3726 34.477c.0719.0185.1152.0917.0967.1635l-1.3155 5.0967c-.0185.0718-.0918.115-.1638.0965-.0719-.0185-.1152-.0918-.0966-.1636l1.3154-5.0966c.0185-.0718.0919-.115.1638-.0965zm-1.2637.822c.0719.0185.1152.0918.0967.1636l-1.273 4.9322c-.0185.0718-.0919.115-.1638.0965s-.1152-.0917-.0967-.1635l1.273-4.9322c.0186-.0719.0919-.1151.1638-.0966zm-1.0474.4932c.072.0186.1153.0918.0967.1636l-1.273 4.9322c-.0185.0718-.0918.115-.1638.0965-.0719-.0185-.1152-.0917-.0966-.1635l1.273-4.9322c.0185-.0718.0918-.1151.1637-.0966z" fill="#000" fill-rule="evenodd"/><path clip-rule="evenodd" d="m34.9535 32.1986c.0719.0185.1152.0917.0967.1635l-1.6915 6.5536c-.0186.0719-.0919.1151-.1638.0966-.072-.0185-.1152-.0918-.0967-.1636l1.6915-6.5536c.0185-.0718.0919-.1151.1638-.0965zm0 3.5648c.0719.0185.1152.0917.0967.1635l-.432 1.6736c-.0185.0718-.0919.115-.1638.0965s-.1152-.0917-.0967-.1635l.432-1.6736c.0185-.0718.0919-.1151.1638-.0965z" fill="#000" fill-rule="evenodd"/><path d="m31.9643 14.7041c-1.337 0-2.1727 3.0038-2.6741 4.5056-.5014 1.5019-.9926 2.5462 1.3371 2.5031 1.7257-.043 6.0548.6035 4.8468-1.335-.906-1.4646-2.3399-5.6737-3.5098-5.6737z" fill="#ef9790"/><path clip-rule="evenodd" d="m30.9526 15.1077c.2864-.3187.6228-.5374 1.0114-.5374.1873 0 .3661.084.5318.2117.1663.1283.3301.3089.4904.5227.3207.4275.6423 1.0084.952 1.6275.2407.4812.4766.9905.7007 1.4743.0646.1395.1282.2768.1907.4107.2807.6019.537 1.1323.7586 1.4906l-.1144.0705.1142-.0709c.1581.2538.237.4826.2295.688-.0077.2122-.107.3806-.2641.5076-.1528.1236-.36.2085-.5939.2683-.2354.0602-.5078.0974-.7989.1192-.5819.0437-1.2539.0271-1.8836.0029-.1326-.0052-.2632-.0106-.3907-.0159-.4818-.0201-.9193-.0383-1.2559-.0299h-.0009c-.5888.0109-1.0174-.046-1.3171-.1723-.3085-.13-.4826-.3351-.5465-.6031-.0608-.2552-.0177-.5522.0636-.8649.0636-.2447.1549-.5137.2506-.7959.0272-.0802.0548-.1615.0822-.2436l.127.0422-.127-.0422c.0464-.139.0959-.2916.1486-.4542.2297-.7084.5205-1.6052.8808-2.3762.2217-.4742.4738-.9103.7609-1.2297zm-1.3835 3.6818c-.0534.1647-.1039.3203-.1516.4632-.0286.0858-.057.1695-.0847.2512-.0951.2802-.182.5365-.2429.7708-.0791.3042-.1071.5472-.0623.7353.0419.1755.1505.3172.3894.4179.2477.1043.6312.1618 1.2071.1512.3465-.0086.7962.0101 1.2792.0303.1262.0052.2547.0106.3841.0156.6297.0242 1.288.0401 1.8531-.0023.2824-.0212.5377-.0567.7523-.1115.2161-.0553.3812-.1278.4913-.2169.1059-.0856.1601-.1851.1646-.3087.0048-.1305-.0453-.3055-.1891-.5363l-.0002-.0004c-.2314-.374-.4941-.919-.7736-1.5183-.0632-.1353-.1272-.2736-.1921-.4137-.2239-.4832-.4574-.9875-.6961-1.4647-.3083-.6162-.6211-1.1791-.9267-1.5865-.1528-.2038-.3-.3634-.4395-.4711-.1402-.1081-.2621-.1557-.3674-.1557-.2799 0-.5493.1568-.8113.4482-.2613.2907-.5001.6994-.7172 1.1639-.3525.7541-.6366 1.6302-.8664 2.3385z" fill="#000" fill-rule="evenodd"/><path d="m31.5 15.7793c.2589.9477.1294 1.9385.5177 2.8862.1295.3015.0863-.0862.0863-.1723 0-.56 0-1.12-.0863-1.6801-.0431-.2153-.1726-.6461-.0863-.8615.0432-.0861.4746.6462.4746.6892.2589.6031.3452 1.3785.1294 1.9816" fill="#ef9790"/><path clip-rule="evenodd" d="m31.4644 15.6503c.0716-.0195.1456.0226.1651.0942.1144.4188.1551.8463.1947 1.2616.0065.0682.013.136.0197.2035.0286.2854.0624.5656.1238.8408-.0044-.408-.0209-.8111-.0827-1.2133-.0063-.0311-.0157-.072-.0264-.1186-.0213-.0926-.0478-.2078-.0655-.3135-.014-.0844-.0246-.1727-.0254-.2564-.0007-.0823.0078-.1694.0386-.2463.0014-.0035.0029-.0069.0046-.0102.0107-.0214.0297-.0464.0608-.0634.0313-.0172.0629-.0197.0875-.0169.042.0049.0726.0264.0852.0358.0302.0225.0594.0554.0836.0852.0515.0634.1128.1534.1701.2434.058.0909.1146.186.157.2616.0211.0377.0393.0717.0526.0985.0065.0132.0127.0264.0176.0383.0024.0058.0053.0132.0078.0212v.0003c.0003.0009.0007.0022.0012.004.2647.6238.3561 1.429.1276 2.068-.025.0698-.102.1062-.1719.0813-.07-.025-.1064-.1018-.0815-.1716.2015-.5632.1229-1.3028-.1263-1.8835-.0029-.0068-.0053-.0137-.007-.0208-.0017-.0039-.0045-.0099-.0086-.0181-.0105-.0211-.0263-.0507-.0463-.0864-.0398-.0711-.0938-.1619-.1491-.2486-.0081-.0128-.0162-.0254-.0243-.0377.0032.0254.0071.0515.0116.0781.0168.101.0383.1936.0581.2789.012.0518.0234.101.0328.1476l.0011.0059-.0001.0001c.0879.5701.0879 1.1387.0879 1.6955v.0049c0 .0109.0008.0276.0021.0506.0007.0139.0016.0302.0024.0489.002.0433.0039.0981.0005.1423-.0015.0196-.0049.0514-.0167.0809-.0056.014-.0193.0438-.0502.0674-.0394.03-.0892.0367-.1334.022-.0348-.0116-.0573-.0334-.0681-.0451-.0126-.0135-.0228-.0282-.0309-.0413-.0164-.0264-.0329-.0604-.0501-.1005l-.0009-.002v-.0001c-.202-.4931-.2681-.9944-.3167-1.4805-.007-.0698-.0137-.1391-.0202-.2081-.0399-.4164-.0783-.8183-.1861-1.213-.0195-.0716.0227-.1454.0944-.1649z" fill="#000" fill-rule="evenodd"/><path d="m32.3198 19.8715c-.0862.6893.7335.6893.7335.1293 0-.4308-.604-.2585-.6472-.0431-.0431.3877.6903-.3877.3883-.3015-.1726.043-.3883.3446-.3883.3015" fill="#ef9790"/><path clip-rule="evenodd" d="m32.5159 20.1947c.0396.0469.0932.0719.1492.0766.1184.0098.2534-.0712.2534-.27 0-.0528-.0122-.0806-.0247-.0962-.0318.0394-.0679.078-.1035.1122-.0389.0373-.0812.0732-.1235.103-.0406.0284-.0888.0567-.1385.0712-.0038.0011-.0079.0022-.0124.0032zm.4836-.5444c.0126.0069.0249.0145.0368.0231.0994.0712.1512.1861.1512.3279 0 .3612-.2749.5601-.5448.5376-.1334-.0111-.2643-.0763-.3534-.1978-.0893-.1216-.128-.2873-.1032-.4857.0092-.0736.0764-.1258.1501-.1166.0167.0021.0324.0071.0464.0146.0228-.0206.047-.0384.0705-.0533.0256-.0162.0532-.0309.0821-.0436.0144-.0122.0291-.0241.0442-.0355.0493-.0373.1115-.0765.1799-.0941.0257-.0071.0571-.0132.0899-.0107.0353.0027.0864.017.1217.0653.0169.0231.0252.0471.0286.0688z" fill="#000" fill-rule="evenodd"/><path d="m12.2231 1c-1.337-.000012-2.1727 3.00376-2.6741 4.50563-.50137 1.50188-.99266 2.54618 1.3371 2.5031 1.7257-.04308 6.0548.60347 4.8468-1.335-.906-1.46463-2.3399-5.67372-3.5098-5.67373z" fill="#ef9790"/><path clip-rule="evenodd" d="m11.2113 1.40263c.2865-.3187.6229-.537399 1.0115-.537396.1873.000002.3661.083961.5318.211736.1663.12826.3301.30888.4904.52262.3207.42758.6423 1.00844.952 1.62756.2407.48119.4766.99045.7007 1.47429.0646.13944.1282.27677.1907.41071.2807.60186.537 1.13224.7586 1.49053l-.1144.07056.1142-.07093c.1581.25379.237.48263.2295.68799-.0077.2122-.107.38058-.2641.50763-.1528.1236-.3601.20853-.5939.26833-.2354.06018-.5078.09733-.7989.11918-.5819.04366-1.2539.0271-1.8836.00283-.1326-.00511-.2632-.01055-.3907-.01587-.4818-.02008-.9193-.03831-1.256-.0299l-.0008.00002c-.5888.01088-1.01738-.04602-1.31708-.17228-.30857-.12999-.48259-.33512-.54648-.60308-.06087-.25527-.01771-.55224.06356-.86496.0636-.2447.15488-.51373.2506-.79586.02722-.08024.0548-.16154.08221-.24365l.12701.04227-.12701-.04227c.04638-.13892.09588-.29157.14859-.45415.22969-.7084.5205-1.60525.8808-2.3762.2217-.4742.4737-.9103.7608-1.22971zm-1.3834 3.68178c-.05342.16468-.1039.3203-.15161.46321-.02863.08578-.05703.16949-.08473.25116-.09506.28026-.182.53658-.24289.77088-.07905.30414-.10712.54716-.06226.7353.04184.17547.15048.3172.38937.41784.24769.10434.63122.16181 1.20712.1512.3465-.00863.7962.01014 1.2792.03029.1262.00526.2546.01062.3841.01561.6297.02427 1.288.04011 1.8531-.00228.2823-.02119.5377-.05668.7522-.11154.2162-.05527.3813-.12779.4914-.21685.1059-.0856.1601-.18508.1646-.30872.0048-.13049-.0453-.30549-.1891-.53632l-.0003-.00037c-.2313-.37402-.494-.91901-.7735-1.51829-.0632-.13535-.1272-.27362-.1921-.41366-.2239-.48327-.4574-.9875-.6962-1.46471-.3082-.61623-.6211-1.17919-.9266-1.58659-.1528-.20374-.3-.3634-.4396-.47105-.1402-.10813-.2621-.15571-.3673-.15571-.2799-.00001-.5493.15677-.8113.4482-.2613.29073-.5001.69944-.7172 1.16391-.3525.75414-.6367 1.63016-.8664 2.33849z" fill="#000" fill-rule="evenodd"/><path d="m11.7588 2.07422c.2588.9477.1294 1.93847.5177 2.88617.1294.30154.0863-.08615.0863-.17231 0-.56 0-1.12-.0863-1.68001-.0431-.21538-.1726-.64616-.0863-.86154.0432-.08616.4746.64616.4746.68923.2589.60308.3451 1.37847.1294 1.98156" fill="#ef9790"/><path clip-rule="evenodd" d="m11.7232 1.9452c.0716-.01952.1456.02267.1651.09422.1144.41882.1551.84631.1947 1.26156.0065.0682.0129.13606.0197.20349.0286.2855.0624.56565.1238.84088-.0044-.40801-.0209-.81108-.0827-1.2133-.0063-.03111-.0157-.07203-.0264-.11866-.0213-.09259-.0478-.20774-.0655-.31348-.0141-.08438-.0246-.17272-.0254-.25644-.0007-.08225.0078-.16936.0386-.24628.0014-.00346.0029-.00686.0046-.01019.0107-.02142.0297-.04637.0608-.06341.0313-.01714.0629-.0197.0874-.01685.0421.00488.0727.02643.0853.0358.0302.02249.0593.0554.0836.08517.0515.06336.1128.15342.1701.24341.058.09094.1146.186.1569.26161.0211.03766.0394.07166.0527.0985.0065.01321.0127.0264.0176.03827.0024.00583.0053.01321.0077.0212l.0001.0003c.0003.0009.0007.00225.0012.00398.2647.62381.3561 1.42901.1275 2.06803-.0249.06985-.1019.10624-.1718.0813-.07-.02494-.1064-.10179-.0815-.17163.2015-.56317.1229-1.30273-.1264-1.88349-.0028-.00673-.0052-.01366-.0069-.02074-.0018-.00394-.0045-.00989-.0086-.01812-.0105-.02112-.0263-.05073-.0463-.08644-.0399-.07112-.0938-.16183-.1491-.24858-.0082-.01276-.0163-.02535-.0243-.03771.0032.02545.0071.05157.0116.07815.0168.10099.0383.19359.0581.27885.012.05186.0234.101.0328.14767l.0011.00589-.0001.00002c.0879.57016.0879 1.13876.0879 1.69556v.00487c0 .0109.0008.02758.0021.05058.0007.01394.0016.0302.0024.04891.002.04335.0039.0981.0004.14235-.0015.01961-.0048.05133-.0166.08087-.0056.01404-.0193.04382-.0502.06738-.0394.03003-.0893.03671-.1334.02202-.0348-.01158-.0573-.03336-.0682-.04507-.0125-.01354-.0227-.02825-.0308-.04138-.0164-.02638-.0329-.06032-.0501-.10045l-.0009-.00204v-.00001c-.2021-.49314-.2681-.99449-.3167-1.48057-.007-.06978-.0137-.13912-.0203-.20807-.0398-.41638-.0782-.81831-.186-1.21305-.0195-.07155.0227-.14537.0944-.16488z" fill="#000" fill-rule="evenodd"/><path d="m12.5786 6.16646c-.0863.68924.7335.68924.7335.12923 0-.43077-.604-.25846-.6472-.04307-.0431.38769.6903-.3877.3883-.30154-.1726.04307-.3883.34461-.3883.30154" fill="#ef9790"/><path clip-rule="evenodd" d="m12.7747 6.48965c.0396.0469.0932.07191.1492.07656.1184.00986.2534-.07122.2534-.27002 0-.05275-.0122-.0806-.0247-.09617-.0318.03936-.0679.07795-.1035.1122-.0389.03728-.0812.07321-.1235.10296-.0406.02849-.0888.05677-.1385.07121-.0038.00111-.008.00221-.0124.00326zm.4836-.54442c.0126.00686.0249.01454.0368.02311.0994.07118.1512.18605.1512.32785 0 .3612-.2749.56013-.5448.53767-.1334-.0111-.2643-.07635-.3535-.19781-.0892-.12166-.128-.28734-.1031-.48575.0092-.07359.0764-.12579.1501-.11659.0167.00208.0323.00715.0464.0146.0228-.02062.0469-.03839.0705-.0533.0256-.01623.0532-.03086.0821-.04361.0144-.01217.0291-.02411.0442-.03552.0493-.03726.1115-.07645.1798-.09402.0258-.00719.0572-.01323.09-.01074.0353.00267.0864.01701.1217.06532.0169.02309.0251.0471.0286.06879z" fill="#000" fill-rule="evenodd"/></svg>