
<svg width="24" height="25" viewBox="0 0 24 25" fill="none" xmlns="http://www.w3.org/2000/svg">
<path d="M12 22.5C6.47715 22.5 2 18.0228 2 12.5C2 6.97715 6.47715 2.5 12 2.5C17.5228 2.5 22 6.97715 22 12.5C22 18.0228 17.5228 22.5 12 22.5Z" fill="#CF2318"/>
<path fill-rule="evenodd" clip-rule="evenodd" d="M11.9884 5.98828C11.2172 5.98828 10.6046 6.63666 10.6483 7.40662L10.9895 13.4106C11.0181 13.9142 11.4348 14.3079 11.9391 14.3079C12.4375 14.3079 12.8514 13.9232 12.8878 13.4261L13.327 7.42851C13.384 6.6507 12.7683 5.98828 11.9884 5.98828ZM12 19.0108C12.8705 19.0108 13.5762 18.3052 13.5762 17.4347C13.5762 16.5642 12.8705 15.8585 12 15.8585C11.1295 15.8585 10.4238 16.5642 10.4238 17.4347C10.4238 18.3052 11.1295 19.0108 12 19.0108Z" fill="#FCFEFF"/>
</svg>
