<svg width="24" height="24" viewBox="0 0 24 24" fill="none" xmlns="http://www.w3.org/2000/svg">
<rect width="24" height="24" fill="white" fill-opacity="0.01"/>
<path fill-rule="evenodd" clip-rule="evenodd" d="M21.3657 3.76559C21.6781 3.45317 21.6781 2.94664 21.3657 2.63423C21.0533 2.32179 20.5467 2.32179 20.2342 2.63423L2.6343 20.2341C2.32186 20.5466 2.32186 21.0532 2.6343 21.3657C2.94671 21.678 3.45324 21.678 3.76566 21.3657L21.3657 3.76559ZM3.25973 13.5468C3.47834 14.6018 4.27066 15.4736 5.34215 15.8293L4.1253 17.0461C2.89346 16.4053 1.98052 15.259 1.69302 13.8714C1.59924 13.4188 1.59934 12.896 1.5995 12.1009L1.59951 11.9999L1.5995 11.8989C1.59934 11.1039 1.59924 10.581 1.69302 10.1285C2.07751 8.27275 3.58062 6.84853 5.46909 6.48791C5.93097 6.39971 6.46612 6.39979 7.30241 6.39992H7.39951H8.79951C9.24134 6.39992 9.59951 6.7581 9.59951 7.19992C9.59951 7.64175 9.24134 7.99992 8.79951 7.99992H7.39951C6.43332 7.99992 6.06249 8.00351 5.76921 8.05951C4.48417 8.3049 3.50649 9.26223 3.25973 10.4531C3.2037 10.7235 3.19951 11.0679 3.19951 11.9999C3.19951 12.9319 3.2037 13.2764 3.25973 13.5468ZM20.7393 10.4531C20.5208 9.39826 19.7286 8.52666 18.6576 8.17077L19.8744 6.954C21.1059 7.59488 22.0185 8.74107 22.3061 10.1285C22.3998 10.581 22.3997 11.1039 22.3995 11.8989V11.9999V12.1009C22.3997 12.896 22.3998 13.4188 22.3061 13.8714C21.9216 15.7271 20.4184 17.1513 18.5299 17.5119C18.068 17.6001 17.5329 17.6001 16.6966 17.5999H16.5995H15.1995C14.7577 17.5999 14.3995 17.2418 14.3995 16.7999C14.3995 16.3581 14.7577 15.9999 15.1995 15.9999H16.5995C17.5657 15.9999 17.9366 15.9963 18.2299 15.9403C19.5149 15.6949 20.4926 14.7376 20.7393 13.5468C20.7953 13.2764 20.7995 12.9319 20.7995 11.9999C20.7995 11.0679 20.7953 10.7235 20.7393 10.4531Z" fill="#4F5162"/>
</svg>
