<svg width="17" height="16" viewBox="0 0 17 16" fill="none" xmlns="http://www.w3.org/2000/svg">
    <rect x="0.5" width="16" height="16" rx="8" fill="#7D4DD3" />
    <path
      d="M8.80147 6.64017C9.12659 5.68594 8.90309 4.58964 8.13098 3.8181C7.46049 3.14811 6.54619 2.8841 5.69287 3.04656C5.46937 3.0872 5.38816 3.37143 5.55058 3.53386L6.50552 4.48809C6.93227 4.91452 6.93227 5.58436 6.50552 6.01079C6.07877 6.43722 5.40843 6.43722 4.98168 6.01079L4.02674 5.05656C3.86418 4.89412 3.57974 4.97541 3.53907 5.19875C3.39678 6.05146 3.64069 6.98542 4.31119 7.63504C5.0833 8.40658 6.18043 8.60953 7.13537 8.30503L11.4834 12.6498C11.9507 13.1167 12.7025 13.1167 13.1495 12.6498C13.6168 12.1829 13.6168 11.4316 13.1495 10.9849L8.80147 6.64017Z"
      fill="white"
    />
  </svg>