<svg width="130" height="81" viewBox="0 0 130 81" fill="none" xmlns="http://www.w3.org/2000/svg">
<path opacity="0.7" d="M129.742 50.5269C129.742 67.2042 100.756 80.7238 64.9999 80.7238C29.2438 80.7238 0.257812 67.2042 0.257812 50.5269C0.257812 33.8497 29.2438 20.3301 64.9999 20.3301C100.756 20.3301 129.742 33.8497 129.742 50.5269Z" fill="url(#paint0_radial_13545_388567)" fill-opacity="0.1"/>
<path d="M41.0508 43.704V6.02205L77.9281 2.25781L92.2104 11.4764L91.1717 43.704H95.7161L97.9233 45.4941V62.2433L66.2427 66.6579L64.0354 64.5804V63.1522L55.8881 55.4796H51.4134L41.0508 43.704Z" fill="white"/>
<path fill-rule="evenodd" clip-rule="evenodd" d="M79.5927 37.7927C79.4443 37.753 79.3562 37.6004 79.396 37.4521L80.6905 32.621C80.7302 32.4726 80.8827 32.3846 81.0311 32.4243C81.1795 32.4641 81.2676 32.6166 81.2278 32.765L79.9333 37.596C79.8936 37.7444 79.741 37.8325 79.5927 37.7927ZM81.5621 39.403C81.4137 39.3632 81.3256 39.2107 81.3654 39.0623L83.0913 32.621C83.1311 32.4726 83.2836 32.3846 83.432 32.4243C83.5804 32.4641 83.6684 32.6166 83.6287 32.765L81.9027 39.2063C81.863 39.3547 81.7104 39.4427 81.5621 39.403ZM83.288 40.6892C83.1396 40.6495 83.0516 40.497 83.0913 40.3486L85.1619 32.621C85.2017 32.4726 85.3542 32.3846 85.5026 32.4243C85.651 32.4641 85.739 32.6166 85.6993 32.765L83.6287 40.4926C83.5889 40.6409 83.4364 40.729 83.288 40.6892ZM85.2478 42.0942C85.0994 42.0545 85.0113 41.902 85.0511 41.7536L85.7722 39.0623C85.812 38.914 85.9645 38.8259 86.1129 38.8657C86.2613 38.9054 86.3493 39.0579 86.3095 39.2063L85.5884 41.8975C85.5487 42.0459 85.3962 42.134 85.2478 42.0942Z" fill="black"/>
<path fill-rule="evenodd" clip-rule="evenodd" d="M42.0797 45.1657C41.9313 45.126 41.8433 44.9735 41.883 44.8251L50.4909 12.7001C50.5306 12.5517 50.6832 12.4637 50.8315 12.5034C50.9799 12.5432 51.068 12.6957 51.0282 12.8441L42.4204 44.9691C42.3806 45.1174 42.2281 45.2055 42.0797 45.1657Z" fill="black"/>
<path fill-rule="evenodd" clip-rule="evenodd" d="M40.7775 23.7341C40.6291 23.6943 40.541 23.5418 40.5808 23.3934L44.6441 8.22879C44.6839 8.08041 44.8364 7.99235 44.9848 8.03211C45.1332 8.07187 45.2212 8.22439 45.1815 8.37277L41.1181 23.5374C41.0784 23.6858 40.9258 23.7739 40.7775 23.7341Z" fill="black"/>
<path fill-rule="evenodd" clip-rule="evenodd" d="M47.2101 51.9501C47.0622 51.9088 46.9758 51.7553 47.0171 51.6074L50.2568 40.0165C50.2982 39.8686 50.4516 39.7822 50.5996 39.8235C50.7475 39.8649 50.8339 40.0183 50.7926 40.1663L47.5529 51.7571C47.5115 51.905 47.3581 51.9915 47.2101 51.9501Z" fill="black"/>
<path fill-rule="evenodd" clip-rule="evenodd" d="M43.5098 46.7027C43.3615 46.6627 43.2738 46.51 43.3138 46.3617L51.3441 16.6208C51.3841 16.4725 51.5368 16.3847 51.6851 16.4248C51.8334 16.4648 51.9212 16.6175 51.8811 16.7658L43.8509 46.5067C43.8108 46.655 43.6582 46.7428 43.5098 46.7027Z" fill="black"/>
<path fill-rule="evenodd" clip-rule="evenodd" d="M40.5465 31.4685C40.3981 31.4287 40.3101 31.2762 40.3498 31.1278L46.1739 9.39206C46.2137 9.24368 46.3662 9.15563 46.5146 9.19538C46.6629 9.23514 46.751 9.38766 46.7112 9.53604L40.8872 31.2718C40.8474 31.4202 40.6949 31.5082 40.5465 31.4685Z" fill="black"/>
<path fill-rule="evenodd" clip-rule="evenodd" d="M48.7423 53.6228C48.5939 53.583 48.5059 53.4305 48.5456 53.2821L50.5317 45.8701C50.5714 45.7217 50.7239 45.6337 50.8723 45.6735C51.0207 45.7132 51.1087 45.8657 51.069 46.0141L49.083 53.4261C49.0432 53.5745 48.8907 53.6625 48.7423 53.6228Z" fill="black"/>
<path fill-rule="evenodd" clip-rule="evenodd" d="M40.1432 13.406C39.9948 13.3662 39.9067 13.2137 39.9465 13.0653L41.7918 6.17875C41.8315 6.03037 41.984 5.94232 42.1324 5.98207C42.2808 6.02183 42.3688 6.17435 42.3291 6.32273L40.4838 13.2093C40.4441 13.3577 40.2916 13.4457 40.1432 13.406Z" fill="black"/>
<path fill-rule="evenodd" clip-rule="evenodd" d="M44.8638 48.488C44.7154 48.4481 44.6274 48.2956 44.6672 48.1472L50.4752 26.5098C50.515 26.3614 50.6675 26.2734 50.8159 26.3132C50.9643 26.3531 51.0523 26.5056 51.0124 26.654L45.2045 48.2914C45.1647 48.4398 45.0121 48.5278 44.8638 48.488Z" fill="black"/>
<path fill-rule="evenodd" clip-rule="evenodd" d="M40.7086 37.74C40.5602 37.7002 40.4722 37.5477 40.5119 37.3993L47.6307 10.8318C47.6704 10.6834 47.8229 10.5954 47.9713 10.6351C48.1197 10.6749 48.2078 10.8274 48.168 10.9758L41.0493 37.5433C41.0095 37.6917 40.857 37.7797 40.7086 37.74Z" fill="black"/>
<path fill-rule="evenodd" clip-rule="evenodd" d="M50.2213 54.9763C50.0729 54.9365 49.9849 54.784 50.0246 54.6356L51.0392 50.8493C51.0789 50.7009 51.2314 50.6129 51.3798 50.6526C51.5282 50.6924 51.6163 50.8449 51.5765 50.9933L50.562 54.7796C50.5222 54.928 50.3697 55.016 50.2213 54.9763Z" fill="black"/>
<path fill-rule="evenodd" clip-rule="evenodd" d="M40.5817 18.0681C40.4333 18.0283 40.3452 17.8758 40.385 17.7274L43.0478 7.78977C43.0875 7.64139 43.24 7.55334 43.3884 7.5931C43.5368 7.63285 43.6249 7.78537 43.5851 7.93375L40.9223 17.8714C40.8826 18.0198 40.73 18.1078 40.5817 18.0681Z" fill="black"/>
<path fill-rule="evenodd" clip-rule="evenodd" d="M46.1217 50.1364C45.9733 50.0967 45.8853 49.9442 45.925 49.7958L50.429 32.9865C50.4688 32.8381 50.6213 32.7501 50.7697 32.7898C50.9181 32.8296 51.0061 32.9821 50.9664 33.1305L46.4623 49.9398C46.4226 50.0881 46.2701 50.1762 46.1217 50.1364Z" fill="black"/>
<path fill-rule="evenodd" clip-rule="evenodd" d="M40.8527 43.5056C40.7043 43.4658 40.6162 43.3133 40.656 43.1649L49.0331 11.901C49.0729 11.7526 49.2254 11.6645 49.3738 11.7043C49.5222 11.744 49.6102 11.8966 49.5705 12.0449L41.1933 43.3089C41.1535 43.4573 41.001 43.5453 40.8527 43.5056Z" fill="black"/>
<path fill-rule="evenodd" clip-rule="evenodd" d="M96.8127 11.4919C96.823 11.6452 96.7071 11.7778 96.5538 11.7881C95.0585 11.8886 93.5035 11.9943 91.9013 12.1031C78.3187 13.026 61.346 14.1793 48.6372 14.3872C48.4836 14.3897 48.357 14.2672 48.3545 14.1136C48.352 13.96 48.4745 13.8335 48.6281 13.831C61.3214 13.6233 78.2784 12.4712 91.8639 11.5481C93.4658 11.4393 95.0209 11.3336 96.5165 11.2331C96.6698 11.2228 96.8024 11.3387 96.8127 11.4919Z" fill="black"/>
<path fill-rule="evenodd" clip-rule="evenodd" d="M39.1339 5.03502C39.2164 4.90545 39.3883 4.8673 39.5179 4.94982C41.3206 6.09782 43.1993 7.45122 45.1124 8.82936C46.0095 9.47563 46.9142 10.1273 47.8221 10.7658C50.6758 12.7728 53.5719 14.6573 56.4244 15.8882C56.5654 15.949 56.6304 16.1127 56.5695 16.2538C56.5087 16.3948 56.345 16.4598 56.204 16.3989C53.2957 15.144 50.3603 13.231 47.5021 11.2209C46.5818 10.5737 45.6706 9.91725 44.7704 9.26868C42.8648 7.89591 41.0083 6.55845 39.2191 5.41904C39.0895 5.33653 39.0514 5.1646 39.1339 5.03502Z" fill="black"/>
<path fill-rule="evenodd" clip-rule="evenodd" d="M75.4086 0.840703C75.4981 0.715861 75.6718 0.687219 75.7967 0.776728C76.046 0.95549 76.2953 1.13429 76.5445 1.31307C80.3828 4.06631 84.2156 6.81557 88.1814 9.36779C88.7206 9.71479 89.5081 10.1713 90.3486 10.6585C90.555 10.7781 90.7647 10.8996 90.9746 11.0218C92.0308 11.6366 93.0964 12.2697 93.7617 12.7535C93.8859 12.8439 93.9134 13.0178 93.823 13.1421C93.7326 13.2663 93.5587 13.2938 93.4345 13.2034C92.7965 12.7395 91.757 12.1209 90.6947 11.5026C90.4884 11.3824 90.2812 11.2624 90.0763 11.1436C89.2348 10.6559 88.4316 10.1903 87.8803 9.83557C83.9023 7.27547 80.0588 4.51848 76.223 1.76706C75.9728 1.58761 75.7227 1.40817 75.4725 1.22882C75.3477 1.13931 75.3191 0.965545 75.4086 0.840703Z" fill="black"/>
<path fill-rule="evenodd" clip-rule="evenodd" d="M81.4375 1.98321C81.457 2.13559 81.3492 2.27488 81.1968 2.29432C70.5607 3.65119 49.7667 5.87699 39.0359 6.13774C38.8823 6.14147 38.7548 6.02 38.7511 5.86643C38.7473 5.71286 38.8688 5.58535 39.0224 5.58161C49.722 5.32162 70.491 3.09928 81.1264 1.7425C81.2788 1.72306 81.4181 1.83083 81.4375 1.98321Z" fill="black"/>
<path fill-rule="evenodd" clip-rule="evenodd" d="M40.6278 2.64525C40.7811 2.65624 40.8964 2.78935 40.8854 2.94257C40.6367 6.41272 40.7217 10.6979 40.827 15.0009C40.834 15.2867 40.8411 15.5726 40.8482 15.8583C40.9475 19.8669 41.046 23.8433 40.8855 27.1137C40.6552 31.8053 40.8056 39.4973 41.4519 44.1213C41.4732 44.2734 41.3671 44.414 41.215 44.4352C41.0628 44.4565 40.9223 44.3504 40.901 44.1983C40.2483 39.5291 40.0985 31.8001 40.3299 27.0864C40.4894 23.8376 40.3914 19.8811 40.2919 15.8652C40.2849 15.5818 40.2779 15.2982 40.2709 15.0145C40.1658 10.7172 40.0796 6.40448 40.3305 2.9028C40.3415 2.74958 40.4746 2.63427 40.6278 2.64525Z" fill="black"/>
<path fill-rule="evenodd" clip-rule="evenodd" d="M52.5185 10.5584C52.6701 10.5831 52.7729 10.726 52.7482 10.8777C51.485 18.6214 51.1045 26.5303 51.0469 34.1384V38.7114C51.0664 41.6237 51.1179 44.4829 51.1678 47.2537C51.2265 50.506 51.2829 53.6367 51.2827 56.5892C51.2827 56.7428 51.1582 56.8673 51.0046 56.8673C50.851 56.8673 50.7264 56.7427 50.7264 56.5891C50.7266 53.6332 50.6703 50.5168 50.6118 47.2742C50.5618 44.5057 50.5102 41.6453 50.4906 38.7142C50.4805 37.2034 50.4789 35.6757 50.4906 34.1352C50.5483 26.5131 50.9294 18.5721 52.1992 10.7881C52.2239 10.6365 52.3668 10.5336 52.5185 10.5584Z" fill="black"/>
<path fill-rule="evenodd" clip-rule="evenodd" d="M92.0265 7.93667C92.1795 7.95036 92.2924 8.08549 92.2787 8.2385C91.327 18.8745 91.0797 36.6485 91.0797 43.7407C91.0797 43.8943 90.9552 44.0188 90.8016 44.0188C90.648 44.0188 90.5234 43.8943 90.5234 43.7407C90.5234 36.6475 90.7705 18.8518 91.7246 8.18892C91.7383 8.03591 91.8735 7.92298 92.0265 7.93667Z" fill="black"/>
<path fill-rule="evenodd" clip-rule="evenodd" d="M40.3702 42.7704C40.4867 42.6702 40.6623 42.6834 40.7625 42.7999C42.1992 44.4706 43.5637 46.1721 44.9217 47.8657C47.4842 51.0613 50.0239 54.2286 52.9838 57.1062C53.0939 57.2133 53.0964 57.3894 52.9893 57.4996C52.8823 57.6097 52.7062 57.6122 52.596 57.5051C49.6136 54.6055 47.0337 51.389 44.4559 48.175C43.1029 46.4881 41.7505 44.8019 40.3407 43.1626C40.2405 43.0462 40.2538 42.8706 40.3702 42.7704Z" fill="black"/>
<path fill-rule="evenodd" clip-rule="evenodd" d="M56.4092 55.0909C56.4231 55.2439 56.3103 55.3791 56.1574 55.3931C55.5525 55.448 55.0166 55.4996 54.5226 55.5471C52.4847 55.7431 51.1585 55.8707 48.6347 55.8894C48.4811 55.8905 48.3556 55.7669 48.3545 55.6133C48.3534 55.4597 48.477 55.3342 48.6306 55.3331C51.1283 55.3146 52.4303 55.1894 54.4634 54.9939C54.9586 54.9463 55.4972 54.8945 56.107 54.8391C56.26 54.8251 56.3953 54.9379 56.4092 55.0909Z" fill="black"/>
<path fill-rule="evenodd" clip-rule="evenodd" d="M86.6471 17.8232C86.6567 17.9765 86.5402 18.1086 86.3869 18.1182C78.4475 18.6179 70.5143 19.1522 62.5797 19.6866C59.462 19.8966 56.344 20.1066 53.2254 20.3145C53.0721 20.3247 52.9396 20.2087 52.9293 20.0554C52.9191 19.9022 53.0351 19.7696 53.1884 19.7594C56.3062 19.5516 59.4237 19.3416 62.5411 19.1316C70.4762 18.5972 78.4113 18.0628 86.352 17.5631C86.5053 17.5534 86.6374 17.6699 86.6471 17.8232Z" fill="black"/>
<path fill-rule="evenodd" clip-rule="evenodd" d="M86.0667 16.1172C86.2203 16.1172 86.3449 16.2417 86.3449 16.3953L86.345 42.556C86.345 42.7096 86.2205 42.8341 86.0669 42.8341C85.9132 42.8341 85.7887 42.7096 85.7887 42.556L85.7886 16.3953C85.7886 16.2417 85.9131 16.1172 86.0667 16.1172Z" fill="black"/>
<path fill-rule="evenodd" clip-rule="evenodd" d="M55.7309 19.3406C55.8841 19.352 55.9991 19.4853 55.9878 19.6385C55.7142 23.3363 55.8025 26.7116 55.894 30.2071C55.941 32.0031 55.9889 33.8308 55.9889 35.7503C55.9889 35.9039 55.8643 36.0285 55.7107 36.0285C55.5571 36.0285 55.4326 35.9039 55.4326 35.7503C55.4326 33.8621 55.3852 32.0488 55.3385 30.2588C55.2468 26.7452 55.1575 23.3215 55.433 19.5975C55.4444 19.4443 55.5777 19.3293 55.7309 19.3406Z" fill="black"/>
<path fill-rule="evenodd" clip-rule="evenodd" d="M87.1405 32.2498C87.154 32.4028 87.0409 32.5378 86.8879 32.5513C83.0682 32.8883 79.3825 33.1932 75.7066 33.4972C69.0341 34.049 62.3939 34.5982 55.0436 35.3325C54.8908 35.3477 54.7545 35.2362 54.7392 35.0833C54.7239 34.9305 54.8355 34.7942 54.9883 34.7789C62.3426 34.0443 68.9918 33.4943 75.6678 32.9422C79.3427 32.6383 83.0257 32.3337 86.839 31.9972C86.992 31.9837 87.127 32.0968 87.1405 32.2498Z" fill="black"/>
<path fill-rule="evenodd" clip-rule="evenodd" d="M55.6323 34.8204C55.7858 34.8239 55.9075 34.9512 55.904 35.1048C55.8683 36.6704 55.8075 38.2919 55.746 39.9338C55.5521 45.1051 55.3506 50.4794 55.9018 54.9514C55.9206 55.1039 55.8123 55.2427 55.6598 55.2615C55.5073 55.2803 55.3685 55.1719 55.3497 55.0194C54.7925 50.4987 54.9967 45.0577 55.1911 39.8764C55.2524 38.2435 55.3127 36.6365 55.3479 35.0921C55.3514 34.9385 55.4787 34.8169 55.6323 34.8204Z" fill="black"/>
<path fill-rule="evenodd" clip-rule="evenodd" d="M55.8591 55.0661C55.9655 54.9552 56.1415 54.9515 56.2524 55.0579C59.2834 57.9649 61.5486 60.3497 63.6093 62.5191C63.6762 62.5896 63.743 62.6599 63.8095 62.7299C63.9153 62.8413 63.9108 63.0173 63.7994 63.1231C63.6881 63.2289 63.512 63.2244 63.4062 63.113C63.3401 63.0434 63.2738 62.9736 63.2072 62.9036C61.1465 60.7341 58.8889 58.3573 55.8674 55.4594C55.7565 55.353 55.7528 55.1769 55.8591 55.0661Z" fill="black"/>
<path fill-rule="evenodd" clip-rule="evenodd" d="M54.9579 44.0385C55.0666 43.9299 55.2427 43.9299 55.3513 44.0385C58.2279 46.9151 61.6751 51.1032 63.9255 54.4787C64.0107 54.6065 63.9761 54.7792 63.8483 54.8644C63.7205 54.9496 63.5478 54.9151 63.4626 54.7872C61.2331 51.443 57.8093 47.2832 54.9579 44.4319C54.8493 44.3232 54.8493 44.1471 54.9579 44.0385Z" fill="black"/>
<path fill-rule="evenodd" clip-rule="evenodd" d="M63.412 64.0083C63.52 63.8991 63.6961 63.8982 63.8053 64.0062C63.9134 64.1131 64.0207 64.22 64.1276 64.3265C64.9103 65.1058 65.6723 65.8645 66.5506 66.4794C66.6765 66.5674 66.7071 66.7409 66.619 66.8667C66.5309 66.9926 66.3575 67.0232 66.2316 66.9351C65.3109 66.2906 64.5126 65.4953 63.7337 64.7194C63.6269 64.6129 63.5204 64.5069 63.414 64.4016C63.3049 64.2936 63.3039 64.1175 63.412 64.0083Z" fill="black"/>
<path fill-rule="evenodd" clip-rule="evenodd" d="M98.8429 62.0919C98.9944 62.0661 99.138 62.168 99.1638 62.3194C99.1896 62.4708 99.0877 62.6145 98.9363 62.6403L98.8896 62.3661L98.8429 62.0919ZM88.063 64.3422C81.7305 65.2711 73.5996 66.3572 66.4151 66.9839C66.2621 66.9972 66.1272 66.884 66.1139 66.731C66.1005 66.5779 66.2138 66.443 66.3668 66.4297C73.5353 65.8044 81.6537 64.7202 87.9823 63.7918C91.1461 63.3276 93.8615 62.9026 95.786 62.5936C96.7482 62.4392 97.5126 62.3137 98.0364 62.2268C98.2983 62.1834 98.5 62.1497 98.6362 62.1268L98.8429 62.0919C98.8431 62.0919 98.8429 62.0919 98.8896 62.3661C98.9363 62.6403 98.9364 62.6403 98.9363 62.6403L98.7284 62.6754C98.5918 62.6983 98.3897 62.7322 98.1274 62.7756C97.6027 62.8626 96.8374 62.9882 95.8742 63.1429C93.9478 63.4522 91.2298 63.8776 88.063 64.3422Z" fill="black"/>
<path fill-rule="evenodd" clip-rule="evenodd" d="M78.1538 36.823C78.2487 36.7023 78.4236 36.6814 78.5443 36.7763C79.9235 37.8608 82.1456 39.6067 84.0229 41.0815L87.4325 43.7597C87.4325 43.7597 87.4328 43.7599 87.261 43.9787C87.0892 44.1974 87.0891 44.1974 87.0891 44.1974L83.6793 41.519C81.802 40.0442 79.5798 38.2982 78.2005 37.2136C78.0797 37.1186 78.0588 36.9438 78.1538 36.823ZM87.4797 44.1505C87.3848 44.2713 87.2099 44.2922 87.0891 44.1974L87.261 43.9787L87.4325 43.7597C87.5533 43.8546 87.5746 44.0297 87.4797 44.1505Z" fill="black"/>
<path fill-rule="evenodd" clip-rule="evenodd" d="M77.9221 40.7235C78.0202 40.6053 78.1956 40.5891 78.3138 40.6872C78.9908 41.2495 79.4511 41.6424 79.8313 41.9669C80.6771 42.6888 81.1263 43.0722 82.6836 44.2291C82.8069 44.3207 82.8326 44.4949 82.741 44.6182C82.6494 44.7415 82.4752 44.7672 82.3518 44.6756C80.7792 43.5074 80.3156 43.1117 79.4626 42.3836C79.0826 42.0593 78.6253 41.6691 77.9584 41.1152C77.8402 41.017 77.8239 40.8417 77.9221 40.7235Z" fill="black"/>
<path fill-rule="evenodd" clip-rule="evenodd" d="M78.2725 33.047C78.4261 33.0505 78.5477 33.1779 78.5442 33.3314C78.5067 34.9575 78.5172 36.2847 78.5298 37.8647C78.5369 38.7616 78.5447 39.7401 78.5446 40.9009C78.5446 41.0545 78.4201 41.1791 78.2665 41.1791C78.1129 41.1791 77.9884 41.0545 77.9884 40.9009C77.9884 39.751 77.9806 38.7765 77.9735 37.8804C77.961 36.2934 77.9503 34.9524 77.988 33.3186C77.9916 33.165 78.119 33.0434 78.2725 33.047Z" fill="black"/>
<path fill-rule="evenodd" clip-rule="evenodd" d="M78.1753 41.1092C78.191 41.262 78.0798 41.3986 77.927 41.4142C73.7017 41.8476 70.3081 42.1641 66.9157 42.4803L66.8735 42.4842C63.4951 42.7992 60.1144 43.1143 55.9095 43.5449C55.7567 43.5605 55.6201 43.4494 55.6045 43.2965C55.5888 43.1437 55.7 43.0072 55.8529 42.9915C60.0603 42.5606 63.443 42.2453 66.8213 41.9304L66.864 41.9264C70.2565 41.6102 73.6478 41.2939 77.8703 40.8608C78.0231 40.8452 78.1596 40.9563 78.1753 41.1092Z" fill="black"/>
<path opacity="0.1" d="M74.0063 54.6068C82.0598 54.6068 88.5884 48.0923 88.5884 40.0563C88.5884 32.0203 82.0598 25.5059 74.0063 25.5059C65.9529 25.5059 59.4243 32.0203 59.4243 40.0563C59.4243 48.0923 65.9529 54.6068 74.0063 54.6068Z" fill="#00ADE4"/>
<path opacity="0.2" d="M73.6951 49.2104C78.9352 49.2104 83.1831 44.9717 83.1831 39.7429C83.1831 34.5141 78.9352 30.2754 73.6951 30.2754C68.455 30.2754 64.207 34.5141 64.207 39.7429C64.207 44.9717 68.455 49.2104 73.6951 49.2104Z" fill="#00ADE4"/>
<path opacity="0.3" d="M73.8904 44.3628C76.6393 44.3628 78.8677 42.1392 78.8677 39.3962C78.8677 36.6533 76.6393 34.4297 73.8904 34.4297C71.1415 34.4297 68.9131 36.6533 68.9131 39.3962C68.9131 42.1392 71.1415 44.3628 73.8904 44.3628Z" fill="#00ADE4"/>
<path d="M64.2241 47.0772V64.6942L65.977 66.2719L98.3189 62.5031V45.1489L95.5142 43.2207L64.2241 47.0772Z" fill="white"/>
<path fill-rule="evenodd" clip-rule="evenodd" d="M63.3011 46.1235C63.4092 46.0143 63.5853 46.0134 63.6945 46.1215C63.8025 46.2284 63.9099 46.3352 64.0168 46.4417C64.7994 47.221 65.5615 47.9798 66.4398 48.5946C66.5656 48.6827 66.5962 48.8561 66.5081 48.982C66.4201 49.1078 66.2466 49.1384 66.1208 49.0503C65.2001 48.4058 64.4018 47.6105 63.6228 46.8346C63.516 46.7282 63.4096 46.6221 63.3032 46.5169C63.194 46.4088 63.1931 46.2327 63.3011 46.1235Z" fill="black"/>
<path fill-rule="evenodd" clip-rule="evenodd" d="M63.9158 46.3164C64.0695 46.3164 64.194 46.4409 64.194 46.5945C64.194 48.2947 64.2165 50.2291 64.24 52.249C64.2903 56.5709 64.3451 61.2846 64.1938 64.9347C64.1874 65.0882 64.0579 65.2075 63.9044 65.2011C63.7509 65.1947 63.6316 65.0652 63.638 64.9117C63.7887 61.2762 63.7341 56.5915 63.6839 52.2776C63.6603 50.2525 63.6377 48.3092 63.6377 46.5945C63.6377 46.4409 63.7622 46.3164 63.9158 46.3164Z" fill="black"/>
<path fill-rule="evenodd" clip-rule="evenodd" d="M100.062 45.221C100.064 45.3746 99.9403 45.5002 99.7867 45.5016C92.1583 45.5697 83.9544 46.6086 75.9844 47.6178C72.5064 48.0582 69.073 48.493 65.7513 48.839C65.5985 48.8549 65.4618 48.744 65.4459 48.5912C65.4299 48.4384 65.5409 48.3016 65.6937 48.2857C68.9882 47.9425 72.4059 47.5098 75.8753 47.0705C83.8605 46.0595 92.1197 45.0137 99.7817 44.9453C99.9353 44.944 100.061 45.0674 100.062 45.221Z" fill="black"/>
<path fill-rule="evenodd" clip-rule="evenodd" d="M97.8232 42.8644C97.8479 43.016 97.745 43.1589 97.5934 43.1836C91.8868 44.1126 86.1258 44.6995 80.3644 45.2389C79.4452 45.325 78.526 45.4098 77.607 45.4947C72.7636 45.9418 67.9261 46.3883 63.117 47.0094C62.9647 47.0291 62.8252 46.9215 62.8055 46.7692C62.7859 46.6168 62.8934 46.4774 63.0458 46.4577C67.8658 45.8352 72.715 45.3876 77.5583 44.9405C78.4767 44.8557 79.3949 44.771 80.3126 44.6851C86.0727 44.1458 91.8175 43.5602 97.504 42.6345C97.6556 42.6098 97.7985 42.7127 97.8232 42.8644Z" fill="black"/>
<path fill-rule="evenodd" clip-rule="evenodd" d="M94.5464 42.7053C94.6212 42.5711 94.7906 42.523 94.9248 42.5977C96.5366 43.4957 98.1585 44.3687 99.7878 45.2376C99.9234 45.3099 99.9746 45.4784 99.9024 45.614C99.8301 45.7495 99.6616 45.8008 99.526 45.7285C97.8958 44.859 96.2703 43.9841 94.6541 43.0837C94.5199 43.0089 94.4717 42.8395 94.5464 42.7053Z" fill="black"/>
<path fill-rule="evenodd" clip-rule="evenodd" d="M98.2514 44.2309C98.4047 44.2225 98.5359 44.34 98.5443 44.4934C98.7165 47.629 98.6145 53.1507 98.5347 57.4732C98.4988 59.4178 98.4674 61.1196 98.4674 62.2522C98.4674 62.4058 98.3429 62.5304 98.1893 62.5304C98.0357 62.5304 97.9111 62.4058 97.9111 62.2522C97.9111 61.0988 97.9429 59.3795 97.9791 57.4223C98.0588 53.1087 98.1599 47.6392 97.9889 44.5239C97.9805 44.3705 98.098 44.2393 98.2514 44.2309Z" fill="black"/>
<path fill-rule="evenodd" clip-rule="evenodd" d="M65.9853 46.8736C66.1386 46.8641 66.2706 46.9807 66.2801 47.134C66.5904 52.1414 66.4742 57.4168 66.3711 62.0973C66.3242 64.2287 66.2799 66.2367 66.2799 68.0399C66.2799 68.1935 66.1554 68.318 66.0018 68.318C65.8482 68.318 65.7236 68.1935 65.7236 68.0399C65.7236 66.2137 65.7682 64.1921 65.8154 62.0527C65.9184 57.3832 66.0338 52.1526 65.7249 47.1684C65.7154 47.0151 65.832 46.8831 65.9853 46.8736Z" fill="black"/>
<path fill-rule="evenodd" clip-rule="evenodd" d="M111.016 54.1869C110.981 54.3363 110.831 54.4285 110.681 54.3928L104.216 52.8496C104.067 52.8139 103.975 52.6639 104.011 52.5145C104.046 52.3651 104.196 52.2729 104.346 52.3085L110.81 53.8518C110.96 53.8874 111.052 54.0375 111.016 54.1869Z" fill="black"/>
<path fill-rule="evenodd" clip-rule="evenodd" d="M58.1246 62.5226C58.1516 62.6738 58.0508 62.8183 57.8996 62.8452L51.3561 64.0107C51.2049 64.0376 51.0604 63.9369 51.0335 63.7856C51.0066 63.6344 51.1073 63.4899 51.2586 63.463L57.802 62.2975C57.9533 62.2706 58.0977 62.3714 58.1246 62.5226Z" fill="black"/>
<path fill-rule="evenodd" clip-rule="evenodd" d="M97.5171 38.2244C97.3729 38.1715 97.2989 38.0117 97.3517 37.8675L99.5899 31.765C99.6428 31.6208 99.8026 31.5467 99.9468 31.5996C100.091 31.6525 100.165 31.8123 100.112 31.9565L97.874 38.0591C97.8211 38.2033 97.6613 38.2773 97.5171 38.2244Z" fill="black"/>
<path fill-rule="evenodd" clip-rule="evenodd" d="M103.477 43.1245C103.399 42.9922 103.443 42.8217 103.575 42.7437L109.546 39.2235C109.678 39.1455 109.849 39.1895 109.927 39.3218C110.005 39.4541 109.961 39.6247 109.829 39.7027L103.858 43.2229C103.726 43.3009 103.555 43.2569 103.477 43.1245Z" fill="black"/>
<path fill-rule="evenodd" clip-rule="evenodd" d="M60.2774 67.0901C60.3936 67.1905 60.4065 67.3661 60.3061 67.4824L57.1005 71.194C57.0001 71.3103 56.8245 71.3231 56.7082 71.2227C56.592 71.1223 56.5791 70.9467 56.6795 70.8304L59.8851 67.1188C59.9855 67.0025 60.1611 66.9897 60.2774 67.0901Z" fill="black"/>
<path fill-rule="evenodd" clip-rule="evenodd" d="M96.1719 67.9947C96.3072 67.9221 96.4759 67.9729 96.5485 68.1083C96.9457 68.8482 97.246 69.6097 97.5275 70.3635C97.5809 70.5063 97.6335 70.6487 97.6859 70.7906C97.9118 71.4021 98.1345 72.0048 98.3996 72.5997C98.4622 72.74 98.3991 72.9045 98.2588 72.967C98.1185 73.0295 97.954 72.9665 97.8915 72.8262C97.6182 72.213 97.3879 71.5894 97.1616 70.9768C97.1098 70.8365 97.0582 70.6969 97.0064 70.5581C96.7263 69.8082 96.4368 69.0763 96.0584 68.3714C95.9857 68.236 96.0365 68.0674 96.1719 67.9947Z" fill="black"/>
<path fill-rule="evenodd" clip-rule="evenodd" d="M79.9112 76.6924C79.7577 76.6863 79.6382 76.557 79.6442 76.4035C79.6832 75.412 79.6833 74.0884 79.6735 73.0093C79.6686 72.4705 79.6612 71.9939 79.6551 71.6521C79.652 71.4812 79.6493 71.344 79.6473 71.2495L79.6449 71.1411L79.6441 71.1043L79.9221 71.0971L80.2002 71.0906L80.2011 71.1287L80.2035 71.2378C80.2055 71.3328 80.2082 71.4706 80.2113 71.6421C80.2174 71.9852 80.2248 72.4634 80.2297 73.0043C80.2396 74.0845 80.2396 75.4195 80.2001 76.4254C80.194 76.5789 80.0647 76.6984 79.9112 76.6924ZM79.9156 70.8191C80.0691 70.8154 80.1966 70.937 80.2002 71.0906L79.9221 71.0971L79.6441 71.1037C79.6404 70.9501 79.762 70.8227 79.9156 70.8191Z" fill="black"/>
<defs>
<radialGradient id="paint0_radial_13545_388567" cx="0" cy="0" r="1" gradientUnits="userSpaceOnUse" gradientTransform="translate(69.88 52.3093) rotate(90.993) scale(16.4986 35.3732)">
<stop/>
<stop offset="1" stop-color="#3E7BFA" stop-opacity="0"/>
</radialGradient>
</defs>
</svg>
