<svg fill="none" height="81" viewBox="0 0 130 81" width="130" xmlns="http://www.w3.org/2000/svg" xmlns:xlink="http://www.w3.org/1999/xlink"><radialGradient id="a" cx="0" cy="0" gradientTransform="matrix(-.28592489 16.49612224 -35.36788765 -.61302647 69.88 52.3093)" gradientUnits="userSpaceOnUse" r="1"><stop offset="0"/><stop offset="1" stop-color="#3e7bfa" stop-opacity="0"/></radialGradient><path d="m129.742 50.5269c0 16.6773-28.986 30.1969-64.7421 30.1969s-64.742088-13.5196-64.742088-30.1969c0-16.6772 28.985988-30.1968 64.742088-30.1968s64.7421 13.5196 64.7421 30.1968z" fill="url(#a)" fill-opacity=".1" opacity=".7"/><path d="m41.0508 43.704v-37.68195l36.8773-3.76424 14.2823 9.21859-1.0387 32.2276h4.5444l2.2072 1.7901v16.7492l-31.6806 4.4146-2.2073-2.0775v-1.4282l-8.1473-7.6726h-4.4747z" fill="#fff"/><g clip-rule="evenodd" fill="#000" fill-rule="evenodd"><path d="m79.5927 37.7927c-.1484-.0397-.2365-.1923-.1967-.3406l1.2945-4.8311c.0397-.1484.1922-.2364.3406-.1967.1484.0398.2365.1923.1967.3407l-1.2945 4.831c-.0397.1484-.1923.2365-.3406.1967zm1.9694 1.6103c-.1484-.0398-.2365-.1923-.1967-.3407l1.7259-6.4413c.0398-.1484.1923-.2364.3407-.1967.1484.0398.2364.1923.1967.3407l-1.726 6.4413c-.0397.1484-.1923.2364-.3406.1967zm1.7259 1.2862c-.1484-.0397-.2364-.1922-.1967-.3406l2.0706-7.7276c.0398-.1484.1923-.2364.3407-.1967.1484.0398.2364.1923.1967.3407l-2.0706 7.7276c-.0398.1483-.1923.2364-.3407.1966zm1.9598 1.405c-.1484-.0397-.2365-.1922-.1967-.3406l.7211-2.6913c.0398-.1483.1923-.2364.3407-.1966.1484.0397.2364.1922.1966.3406l-.7211 2.6912c-.0397.1484-.1922.2365-.3406.1967z"/><path d="m42.0797 45.1657c-.1484-.0397-.2364-.1922-.1967-.3406l8.6079-32.125c.0397-.1484.1923-.2364.3406-.1967.1484.0398.2365.1923.1967.3407l-8.6078 32.125c-.0398.1483-.1923.2364-.3407.1966z"/><path d="m40.7775 23.7341c-.1484-.0398-.2365-.1923-.1967-.3407l4.0633-15.16461c.0398-.14838.1923-.23644.3407-.19668s.2364.19228.1967.34066l-4.0634 15.16463c-.0397.1484-.1923.2365-.3406.1967z"/><path d="m47.2101 51.9501c-.1479-.0413-.2343-.1948-.193-.3427l3.2397-11.5909c.0414-.1479.1948-.2343.3428-.193.1479.0414.2343.1948.193.3428l-3.2397 11.5908c-.0414.1479-.1948.2344-.3428.193z"/><path d="m43.5098 46.7027c-.1483-.04-.236-.1927-.196-.341l8.0303-29.7409c.04-.1483.1927-.2361.341-.196.1483.04.2361.1927.196.341l-8.0302 29.7409c-.0401.1483-.1927.2361-.3411.196z"/><path d="m40.5465 31.4685c-.1484-.0398-.2364-.1923-.1967-.3407l5.8241-21.73574c.0398-.14838.1923-.23643.3407-.19668.1483.03976.2364.19228.1966.34066l-5.824 21.73576c-.0398.1484-.1923.2364-.3407.1967z"/><path d="m48.7423 53.6228c-.1484-.0398-.2364-.1923-.1967-.3407l1.9861-7.412c.0397-.1484.1922-.2364.3406-.1966.1484.0397.2364.1922.1967.3406l-1.986 7.412c-.0398.1484-.1923.2364-.3407.1967z"/><path d="m40.1432 13.406c-.1484-.0398-.2365-.1923-.1967-.3407l1.8453-6.88655c.0397-.14838.1922-.23643.3406-.19668.1484.03976.2364.19228.1967.34066l-1.8453 6.88657c-.0397.1484-.1922.2364-.3406.1967z"/><path d="m44.8638 48.488c-.1484-.0399-.2364-.1924-.1966-.3408l5.808-21.6374c.0398-.1484.1923-.2364.3407-.1966.1484.0399.2364.1924.1965.3408l-5.8079 21.6374c-.0398.1484-.1924.2364-.3407.1966z"/><path d="m40.7086 37.74c-.1484-.0398-.2364-.1923-.1967-.3407l7.1188-26.5675c.0397-.1484.1922-.2364.3406-.1967.1484.0398.2365.1923.1967.3407l-7.1187 26.5675c-.0398.1484-.1923.2364-.3407.1967z"/><path d="m50.2213 54.9763c-.1484-.0398-.2364-.1923-.1967-.3407l1.0146-3.7863c.0397-.1484.1922-.2364.3406-.1967.1484.0398.2365.1923.1967.3407l-1.0145 3.7863c-.0398.1484-.1923.2364-.3407.1967z"/><path d="m40.5817 18.0681c-.1484-.0398-.2365-.1923-.1967-.3407l2.6628-9.93763c.0397-.14838.1922-.23643.3406-.19667.1484.03975.2365.19227.1967.34065l-2.6628 9.93765c-.0397.1484-.1923.2364-.3406.1967z"/><path d="m46.1217 50.1364c-.1484-.0397-.2364-.1922-.1967-.3406l4.504-16.8093c.0398-.1484.1923-.2364.3407-.1967.1484.0398.2364.1923.1967.3407l-4.5041 16.8093c-.0397.1483-.1922.2364-.3406.1966z"/><path d="m40.8527 43.5056c-.1484-.0398-.2365-.1923-.1967-.3407l8.3771-31.2639c.0398-.1484.1923-.2365.3407-.1967.1484.0397.2364.1923.1967.3406l-8.3772 31.264c-.0398.1484-.1923.2364-.3406.1967z"/><path d="m96.8127 11.4919c.0103.1533-.1056.2859-.2589.2962-1.4953.1005-3.0503.2062-4.6525.315-13.5826.9229-30.5553 2.0762-43.2641 2.2841-.1536.0025-.2802-.12-.2827-.2736s.12-.2801.2736-.2826c12.6933-.2077 29.6503-1.3598 43.2358-2.2829 1.6019-.1088 3.157-.2145 4.6526-.315.1533-.0103.2859.1056.2962.2588z"/><path d="m39.1339 5.03502c.0825-.12957.2544-.16772.384-.0852 1.8027 1.148 3.6814 2.5014 5.5945 3.87954.8971.64627 1.8018 1.29794 2.7097 1.93644 2.8537 2.007 5.7498 3.8915 8.6023 5.1224.141.0608.206.2245.1451.3656-.0608.141-.2245.206-.3655.1451-2.9083-1.2549-5.8437-3.1679-8.7019-5.178-.9203-.6472-1.8315-1.30365-2.7317-1.95222-1.9056-1.37277-3.7621-2.71023-5.5513-3.84964-.1296-.08251-.1677-.25444-.0852-.38402z"/><path d="m75.4086.840703c.0895-.124842.2632-.153484.3881-.063975.2493.178762.4986.357562.7478.536342 3.8383 2.75324 7.6711 5.5025 11.6369 8.05472.5392.347 1.3267.80351 2.1672 1.29071.2064.1196.4161.2411.626.3633 1.0562.6148 2.1218 1.2479 2.7871 1.7317.1242.0904.1517.2643.0613.3886-.0904.1242-.2643.1517-.3885.0613-.638-.4639-1.6775-1.0825-2.7398-1.7008-.2063-.1202-.4135-.2402-.6184-.359-.8415-.4877-1.6447-.9533-2.196-1.30803-3.978-2.5601-7.8215-5.31709-11.6573-8.06851-.2502-.17945-.5003-.35889-.7505-.53824-.1248-.08951-.1534-.263275-.0639-.388117z"/><path d="m81.4375 1.98321c.0195.15238-.0883.29167-.2407.31111-10.6361 1.35687-31.4301 3.58267-42.1609 3.84342-.1536.00373-.2811-.11774-.2848-.27131-.0038-.15357.1177-.28108.2713-.28482 10.6996-.25999 31.4686-2.48233 42.104-3.83911.1524-.01944.2917.08833.3111.24071z"/><path d="m40.6278 2.64525c.1533.01099.2686.1441.2576.29732-.2487 3.47015-.1637 7.75533-.0584 12.05833.007.2858.0141.5717.0212.8574.0993 4.0086.1978 7.985.0373 11.2554-.2303 4.6916-.0799 12.3836.5664 17.0076.0213.1521-.0848.2927-.2369.3139-.1522.0213-.2927-.0848-.314-.2369-.6527-4.6692-.8025-12.3982-.5711-17.1119.1595-3.2488.0615-7.2053-.038-11.2212-.007-.2834-.014-.567-.021-.8507-.1051-4.2973-.1913-8.61002.0596-12.1117.011-.15322.1441-.26853.2973-.25755z"/><path d="m52.5185 10.5584c.1516.0247.2544.1676.2297.3193-1.2632 7.7437-1.6437 15.6526-1.7013 23.2607v4.573c.0195 2.9123.071 5.7715.1209 8.5423.0587 3.2523.1151 6.383.1149 9.3355 0 .1536-.1245.2781-.2781.2781s-.2782-.1246-.2782-.2782c.0002-2.9559-.0561-6.0723-.1146-9.3149-.05-2.7685-.1016-5.6289-.1212-8.56-.0101-1.5108-.0117-3.0385 0-4.579.0577-7.6221.4388-15.5631 1.7086-23.3471.0247-.1516.1676-.2545.3193-.2297z"/><path d="m92.0265 7.93667c.153.01369.2659.14882.2522.30183-.9517 10.636-1.199 28.41-1.199 35.5022 0 .1536-.1245.2781-.2781.2781s-.2782-.1245-.2782-.2781c0-7.0932.2471-24.8889 1.2012-35.55178.0137-.15301.1489-.26594.3019-.25225z"/><path d="m40.3702 42.7704c.1165-.1002.2921-.087.3923.0295 1.4367 1.6707 2.8012 3.3722 4.1592 5.0658 2.5625 3.1956 5.1022 6.3629 8.0621 9.2405.1101.1071.1126.2832.0055.3934-.107.1101-.2831.1126-.3933.0055-2.9824-2.8996-5.5623-6.1161-8.1401-9.3301-1.353-1.6869-2.7054-3.3731-4.1152-5.0124-.1002-.1164-.0869-.292.0295-.3922z"/><path d="m56.4092 55.0909c.0139.153-.0989.2882-.2518.3022-.6049.0549-1.1408.1065-1.6348.154-2.0379.196-3.3641.3236-5.8879.3423-.1536.0011-.2791-.1225-.2802-.2761s.1225-.2791.2761-.2802c2.4977-.0185 3.7997-.1437 5.8328-.3392.4952-.0476 1.0338-.0994 1.6436-.1548.153-.014.2883.0988.3022.2518z"/><path d="m86.6471 17.8232c.0096.1533-.1069.2854-.2602.295-7.9394.4997-15.8726 1.034-23.8072 1.5684-3.1177.21-6.2357.42-9.3543.6279-.1533.0102-.2858-.1058-.2961-.2591-.0102-.1532.1058-.2858.2591-.296 3.1178-.2078 6.2353-.4178 9.3527-.6278 7.9351-.5344 15.8702-1.0688 23.8109-1.5685.1533-.0097.2854.1068.2951.2601z"/><path d="m86.0667 16.1172c.1536 0 .2782.1245.2782.2781l.0001 26.1607c0 .1536-.1245.2781-.2781.2781-.1537 0-.2782-.1245-.2782-.2781l-.0001-26.1607c0-.1536.1245-.2781.2781-.2781z"/><path d="m55.7309 19.3406c.1532.0114.2682.1447.2569.2979-.2736 3.6978-.1853 7.0731-.0938 10.5686.047 1.796.0949 3.6237.0949 5.5432 0 .1536-.1246.2782-.2782.2782s-.2781-.1246-.2781-.2782c0-1.8882-.0474-3.7015-.0941-5.4915-.0917-3.5136-.181-6.9373.0945-10.6613.0114-.1532.1447-.2682.2979-.2569z"/><path d="m87.1405 32.2498c.0135.153-.0996.288-.2526.3015-3.8197.337-7.5054.6419-11.1813.9459-6.6725.5518-13.3127 1.101-20.663 1.8353-.1528.0152-.2891-.0963-.3044-.2492-.0153-.1528.0963-.2891.2491-.3044 7.3543-.7346 14.0035-1.2846 20.6795-1.8367 3.6749-.3039 7.3579-.6085 11.1712-.945.153-.0135.288.0996.3015.2526z"/><path d="m55.6323 34.8204c.1535.0035.2752.1308.2717.2844-.0357 1.5656-.0965 3.1871-.158 4.829-.1939 5.1713-.3954 10.5456.1558 15.0176.0188.1525-.0895.2913-.242.3101s-.2913-.0896-.3101-.2421c-.5572-4.5207-.353-9.9617-.1586-15.143.0613-1.6329.1216-3.2399.1568-4.7843.0035-.1536.1308-.2752.2844-.2717z"/><path d="m55.8591 55.0661c.1064-.1109.2824-.1146.3933-.0082 3.031 2.907 5.2962 5.2918 7.3569 7.4612.0669.0705.1337.1408.2002.2108.1058.1114.1013.2874-.0101.3932-.1113.1058-.2874.1013-.3932-.0101-.0661-.0696-.1324-.1394-.199-.2094-2.0607-2.1695-4.3183-4.5463-7.3398-7.4442-.1109-.1064-.1146-.2825-.0083-.3933z"/><path d="m54.9579 44.0385c.1087-.1086.2848-.1086.3934 0 2.8766 2.8766 6.3238 7.0647 8.5742 10.4402.0852.1278.0506.3005-.0772.3857s-.3005.0507-.3857-.0772c-2.2295-3.3442-5.6533-7.504-8.5047-10.3553-.1086-.1087-.1086-.2848 0-.3934z"/><path d="m63.412 64.0083c.108-.1092.2841-.1101.3933-.0021.1081.1069.2154.2138.3223.3203.7827.7793 1.5447 1.538 2.423 2.1529.1259.088.1565.2615.0684.3873-.0881.1259-.2615.1565-.3874.0684-.9207-.6445-1.719-1.4398-2.4979-2.2157-.1068-.1065-.2133-.2125-.3197-.3178-.1091-.108-.1101-.2841-.002-.3933z"/><path d="m98.8429 62.0919c.1515-.0258.2951.0761.3209.2275s-.0761.2951-.2275.3209l-.0467-.2742zm-10.7799 2.2503c-6.3325.9289-14.4634 2.015-21.6479 2.6417-.153.0133-.2879-.0999-.3012-.2529-.0134-.1531.0999-.288.2529-.3013 7.1685-.6253 15.2869-1.7095 21.6155-2.6379 3.1638-.4642 5.8792-.8892 7.8037-1.1982.9622-.1544 1.7266-.2799 2.2504-.3668.2619-.0434.4636-.0771.5998-.1l.2067-.0349c.0002 0 0 0 .0467.2742s.0468.2742.0467.2742l-.2079.0351c-.1366.0229-.3387.0568-.601.1002-.5247.087-1.29.2126-2.2532.3673-1.9264.3093-4.6444.7347-7.8112 1.1993z"/><path d="m78.1538 36.823c.0949-.1207.2698-.1416.3905-.0467 1.3792 1.0845 3.6013 2.8304 5.4786 4.3052l3.4096 2.6782s.0003.0002-.1715.219c-.1718.2187-.1719.2187-.1719.2187l-3.4098-2.6784c-1.8773-1.4748-4.0995-3.2208-5.4788-4.3054-.1208-.095-.1417-.2698-.0467-.3906zm9.3259 7.3275c-.0949.1208-.2698.1417-.3906.0469l.1719-.2187.1715-.219c.1208.0949.1421.27.0472.3908z"/><path d="m77.9221 40.7235c.0981-.1182.2735-.1344.3917-.0363.677.5623 1.1373.9552 1.5175 1.2797.8458.7219 1.295 1.1053 2.8523 2.2622.1233.0916.149.2658.0574.3891s-.2658.149-.3892.0574c-1.5726-1.1682-2.0362-1.5639-2.8892-2.292-.38-.3243-.8373-.7145-1.5042-1.2684-.1182-.0982-.1345-.2735-.0363-.3917z"/><path d="m78.2725 33.047c.1536.0035.2752.1309.2717.2844-.0375 1.6261-.027 2.9533-.0144 4.5333.0071.8969.0149 1.8754.0148 3.0362 0 .1536-.1245.2782-.2781.2782s-.2781-.1246-.2781-.2782c0-1.1499-.0078-2.1244-.0149-3.0205-.0125-1.587-.0232-2.928.0145-4.5618.0036-.1536.131-.2752.2845-.2716z"/><path d="m78.1753 41.1092c.0157.1528-.0955.2894-.2483.305-4.2253.4334-7.6189.7499-11.0113 1.0661l-.0422.0039c-3.3784.315-6.7591.6301-10.964 1.0607-.1528.0156-.2894-.0955-.305-.2484-.0157-.1528.0955-.2893.2484-.305 4.2074-.4309 7.5901-.7462 10.9684-1.0611l.0427-.004c3.3925-.3162 6.7838-.6325 11.0063-1.0656.1528-.0156.2893.0955.305.2484z"/></g><path d="m74.0063 54.6068c8.0535 0 14.5821-6.5145 14.5821-14.5505s-6.5286-14.5504-14.5821-14.5504c-8.0534 0-14.582 6.5144-14.582 14.5504s6.5286 14.5505 14.582 14.5505z" fill="#00ade4" opacity=".1"/><path d="m73.6951 49.2104c5.2401 0 9.488-4.2387 9.488-9.4675s-4.2479-9.4675-9.488-9.4675-9.4881 4.2387-9.4881 9.4675 4.248 9.4675 9.4881 9.4675z" fill="#00ade4" opacity=".2"/><path d="m73.8904 44.3628c2.7489 0 4.9773-2.2236 4.9773-4.9666 0-2.7429-2.2284-4.9665-4.9773-4.9665s-4.9773 2.2236-4.9773 4.9665c0 2.743 2.2284 4.9666 4.9773 4.9666z" fill="#00ade4" opacity=".3"/><path d="m64.2241 47.0772v17.617l1.7529 1.5777 32.3419-3.7688v-17.3542l-2.8047-1.9282z" fill="#fff"/><path clip-rule="evenodd" d="m63.3011 46.1235c.1081-.1092.2842-.1101.3934-.002.108.1069.2154.2137.3223.3202.7826.7793 1.5447 1.5381 2.423 2.1529.1258.0881.1564.2615.0683.3874-.088.1258-.2615.1564-.3873.0683-.9207-.6445-1.719-1.4398-2.498-2.2157-.1068-.1064-.2132-.2125-.3196-.3177-.1092-.1081-.1101-.2842-.0021-.3934z" fill="#000" fill-rule="evenodd"/><path clip-rule="evenodd" d="m63.9158 46.3164c.1537 0 .2782.1245.2782.2781 0 1.7002.0225 3.6346.046 5.6545.0503 4.3219.1051 9.0356-.0462 12.6857-.0064.1535-.1359.2728-.2894.2664s-.2728-.1359-.2664-.2894c.1507-3.6355.0961-8.3202.0459-12.6341-.0236-2.0251-.0462-3.9684-.0462-5.6831 0-.1536.1245-.2781.2781-.2781z" fill="#000" fill-rule="evenodd"/><path clip-rule="evenodd" d="m100.062 45.221c.002.1536-.1217.2792-.2753.2806-7.6284.0681-15.8323 1.107-23.8023 2.1162-3.478.4404-6.9114.8752-10.2331 1.2212-.1528.0159-.2895-.095-.3054-.2478-.016-.1528.095-.2896.2478-.3055 3.2945-.3432 6.7122-.7759 10.1816-1.2152 7.9852-1.011 16.2444-2.0568 23.9064-2.1252.1536-.0013.2793.1221.2803.2757z" fill="#000" fill-rule="evenodd"/><path clip-rule="evenodd" d="m97.8232 42.8644c.0247.1516-.0782.2945-.2298.3192-5.7066.929-11.4676 1.5159-17.229 2.0553-.9192.0861-1.8384.1709-2.7574.2558-4.8434.4471-9.6809.8936-14.49 1.5147-.1523.0197-.2918-.0879-.3115-.2402-.0196-.1524.0879-.2918.2403-.3115 4.82-.6225 9.6692-1.0701 14.5125-1.5172.9184-.0848 1.8366-.1695 2.7543-.2554 5.7601-.5393 11.5049-1.1249 17.1914-2.0506.1516-.0247.2945.0782.3192.2299z" fill="#000" fill-rule="evenodd"/><path clip-rule="evenodd" d="m94.5464 42.7053c.0748-.1342.2442-.1823.3784-.1076 1.6118.898 3.2337 1.771 4.863 2.6399.1356.0723.1868.2408.1146.3764-.0723.1355-.2408.1868-.3764.1145-1.6302-.8695-3.2557-1.7444-4.8719-2.6448-.1342-.0748-.1824-.2442-.1077-.3784z" fill="#000" fill-rule="evenodd"/><path clip-rule="evenodd" d="m98.2514 44.2309c.1533-.0084.2845.1091.2929.2625.1722 3.1356.0702 8.6573-.0096 12.9798-.0359 1.9446-.0673 3.6464-.0673 4.779 0 .1536-.1245.2782-.2781.2782s-.2782-.1246-.2782-.2782c0-1.1534.0318-2.8727.068-4.8299.0797-4.3136.1808-9.7831.0098-12.8984-.0084-.1534.1091-.2846.2625-.293z" fill="#000" fill-rule="evenodd"/><path clip-rule="evenodd" d="m65.9853 46.8736c.1533-.0095.2853.1071.2948.2604.3103 5.0074.1941 10.2828.091 14.9633-.0469 2.1314-.0912 4.1394-.0912 5.9426 0 .1536-.1245.2781-.2781.2781s-.2782-.1245-.2782-.2781c0-1.8262.0446-3.8478.0918-5.9872.103-4.6695.2184-9.9001-.0905-14.8843-.0095-.1533.1071-.2853.2604-.2948z" fill="#000" fill-rule="evenodd"/><path clip-rule="evenodd" d="m111.016 54.1869c-.035.1494-.185.2416-.335.2059l-6.465-1.5432c-.149-.0357-.241-.1857-.205-.3351.035-.1494.185-.2416.335-.206l6.464 1.5433c.15.0356.242.1857.206.3351z" fill="#000" fill-rule="evenodd"/><path clip-rule="evenodd" d="m58.1246 62.5226c.027.1512-.0738.2957-.225.3226l-6.5435 1.1655c-.1512.0269-.2957-.0738-.3226-.2251-.0269-.1512.0738-.2957.2251-.3226l6.5434-1.1655c.1513-.0269.2957.0739.3226.2251z" fill="#000" fill-rule="evenodd"/><path clip-rule="evenodd" d="m97.5171 38.2244c-.1442-.0529-.2182-.2127-.1654-.3569l2.2382-6.1025c.0529-.1442.2127-.2183.3569-.1654s.2182.2127.1652.3569l-2.238 6.1026c-.0529.1442-.2127.2182-.3569.1653z" fill="#000" fill-rule="evenodd"/><path clip-rule="evenodd" d="m103.477 43.1245c-.078-.1323-.034-.3028.098-.3808l5.971-3.5202c.132-.078.303-.034.381.0983s.034.3029-.098.3809l-5.971 3.5202c-.132.078-.303.034-.381-.0984z" fill="#000" fill-rule="evenodd"/><path clip-rule="evenodd" d="m60.2774 67.0901c.1162.1004.1291.276.0287.3923l-3.2056 3.7116c-.1004.1163-.276.1291-.3923.0287-.1162-.1004-.1291-.276-.0287-.3923l3.2056-3.7116c.1004-.1163.276-.1291.3923-.0287z" fill="#000" fill-rule="evenodd"/><path clip-rule="evenodd" d="m96.1719 67.9947c.1353-.0726.304-.0218.3766.1136.3972.7399.6975 1.5014.979 2.2552.0534.1428.106.2852.1584.4271.2259.6115.4486 1.2142.7137 1.8091.0626.1403-.0005.3048-.1408.3673s-.3048-.0005-.3673-.1408c-.2733-.6132-.5036-1.2368-.7299-1.8494-.0518-.1403-.1034-.2799-.1552-.4187-.2801-.7499-.5696-1.4818-.948-2.1867-.0727-.1354-.0219-.304.1135-.3767z" fill="#000" fill-rule="evenodd"/><path clip-rule="evenodd" d="m79.9112 76.6924c-.1535-.0061-.273-.1354-.267-.2889.039-.9915.0391-2.3151.0293-3.3942-.0049-.5388-.0123-1.0154-.0184-1.3572-.0031-.1709-.0058-.3081-.0078-.4026l-.0024-.1084-.0008-.0368.278-.0072.2781-.0065.0009.0381.0024.1091c.002.095.0047.2328.0078.4043.0061.3431.0135.8213.0184 1.3622.0099 1.0802.0099 2.4152-.0296 3.4211-.0061.1535-.1354.273-.2889.267zm.0044-5.8733c.1535-.0037.281.1179.2846.2715l-.2781.0065-.278.0066c-.0037-.1536.1179-.281.2715-.2846z" fill="#000" fill-rule="evenodd"/></svg>