<svg xmlns="http://www.w3.org/2000/svg" width="17" height="17" fill="none"><rect width="16" height="16" x=".012" y=".004" fill="#7D4DD3" rx="8"/><path fill="#fff" fill-rule="evenodd" d="M8.012 3.004a5 5 0 1 0 5 5 .5.5 0 0 1 1 0 6 6 0 1 1-1.363-3.807V2.919a.5.5 0 1 1 1 0v2.5a.5.5 0 0 1-.5.5h-2.5a.5.5 0 0 1 0-1h1.298a4.982 4.982 0 0 0-3.935-1.915Z" clip-rule="evenodd"/><path fill="#fff" d="M7.025 11.64a.31.31 0 0 0 .168-.056l4.147-3.192A.497.497 0 0 0 11.508 8a.497.497 0 0 0-.168-.393l-4.147-3.18a.27.27 0 0 0-.337 0 .497.497 0 0 0-.168.393v6.383c0 .157.067.314.168.393.05.034.11.045.169.045Zm.337-6.057 3.135 2.416-3.135 2.416V5.583Z"/></svg>