<svg fill="none" height="205" viewBox="0 0 389 205" width="389" xmlns="http://www.w3.org/2000/svg" xmlns:xlink="http://www.w3.org/1999/xlink"><linearGradient id="a"><stop offset="0"/><stop offset="1" stop-color="#3e7bfa" stop-opacity="0"/></linearGradient><radialGradient id="b" cx="0" cy="0" gradientTransform="matrix(-.52114461 30.04568069 -64.46210396 -1.11810009 211.395 90.7464)" gradientUnits="userSpaceOnUse" r="1" xlink:href="#a"/><radialGradient id="c" cx="0" cy="0" gradientTransform="matrix(-.52114461 30.04568069 -64.46210396 -1.11810009 127.395 150.746)" gradientUnits="userSpaceOnUse" r="1" xlink:href="#a"/><radialGradient id="d" cx="0" cy="0" gradientTransform="matrix(-.52114461 30.04568069 -64.46210396 -1.11810009 279.395 144.746)" gradientUnits="userSpaceOnUse" r="1" xlink:href="#a"/><path d="m320.5 87.5c0 30.376-52.83 55-118 55s-118-24.624-118-55c0-30.3757 52.83-55 118-55s118 24.6243 118 55z" fill="url(#b)" fill-opacity=".1" opacity=".7"/><path d="m236.5 147.5c0 30.376-52.83 55-118 55-65.1696 0-118-24.624-118-55s52.8304-55 118-55c65.17 0 118 24.624 118 55z" fill="url(#c)" fill-opacity=".1" opacity=".7"/><path d="m388.5 141.5c0 30.376-52.83 55-118 55s-118-24.624-118-55 52.83-55 118-55 118 24.624 118 55z" fill="url(#d)" fill-opacity=".1" opacity=".7"/><path clip-rule="evenodd" d="m302.463 51.5977c.104.2558-.019.5475-.275.6517-25.67 10.4503-98.962 45.9826-121.964 57.5196-.695.348-1.376.69-2.043 1.023-4.849 2.43-8.924 4.471-12.136 6.236-3.673 2.019-6.142 3.638-7.357 5.018-.603.685-.838 1.245-.83 1.714.008.453.245.946.883 1.497.641.555 1.638 1.125 3.044 1.718 1.4.592 3.177 1.196 5.355 1.831 3.142.917 8.178 2.341 14.33 4.081 17.312 4.897 43.469 12.295 61.181 17.923 4.513 1.434 8.352 2.907 11.399 4.434 3.039 1.523 5.332 3.118 6.711 4.813 1.398 1.717 1.873 3.566 1.195 5.503-.662 1.888-2.393 3.769-5.174 5.674-7.315 5.011-37.031 23.192-54.538 32.989-.241.134-.546.048-.681-.193-.134-.241-.048-.545.193-.68 17.493-9.789 47.181-27.953 54.461-32.941 2.719-1.862 4.238-3.592 4.795-5.18.539-1.54.202-3.031-1.026-4.541-1.247-1.532-3.392-3.051-6.383-4.55-2.984-1.494-6.769-2.95-11.255-4.375-17.695-5.622-43.813-13.01-61.126-17.907-6.162-1.742-11.208-3.17-14.362-4.09-2.197-.641-4.014-1.257-5.464-1.869-1.444-.61-2.552-1.228-3.309-1.883-.761-.659-1.215-1.398-1.229-2.238-.013-.825.401-1.62 1.079-2.391 1.347-1.531 3.972-3.225 7.627-5.233 3.23-1.776 7.324-3.827 12.169-6.254.667-.334 1.348-.675 2.043-1.023 22.997-11.5345 96.323-47.0845 122.035-57.5518.256-.1042.548.0188.652.2745z" fill="#000" fill-rule="evenodd"/><path clip-rule="evenodd" d="m294.946 43.5596c.125.2462.027.5472-.219.6723-14.763 7.5062-45.658 21.6543-75.223 35.1029-4.779 2.1739-9.524 4.3294-14.159 6.4357-24.057 10.9303-45.197 20.5355-53.154 24.4985-1.417.706-2.817 1.397-4.186 2.074-3.226 1.593-6.287 3.105-9.035 4.541-3.918 2.048-7.159 3.922-9.303 5.631-1.074.856-1.842 1.647-2.288 2.373-.441.717-.543 1.326-.373 1.87.175.561.673 1.166 1.678 1.787 1 .619 2.449 1.221 4.424 1.797 2.052.598 5.069 1.471 8.782 2.545 17.995 5.205 52.329 15.135 72.23 21.458 4.5 1.43 8.486 2.763 11.726 4.069 3.229 1.303 5.769 2.599 7.341 3.974.789.691 1.366 1.428 1.645 2.229.285.816.245 1.657-.13 2.505-.726 1.645-2.705 3.31-5.961 5.102-7.698 4.238-17.331 9.795-27.294 15.543-8.861 5.111-17.982 10.373-26.235 14.991-.241.135-.545.049-.68-.192s-.049-.546.192-.681c8.218-4.598 17.338-9.859 26.204-14.974 9.982-5.757 19.642-11.33 27.331-15.563 3.244-1.786 4.948-3.315 5.528-4.63.279-.63.297-1.209.101-1.772-.202-.579-.645-1.18-1.359-1.805-1.437-1.257-3.842-2.502-7.057-3.799-3.202-1.292-7.157-2.615-11.655-4.044-19.887-6.318-54.199-16.243-72.197-21.449-3.716-1.074-6.737-1.948-8.792-2.547-2.017-.589-3.562-1.221-4.67-1.906-1.104-.684-1.83-1.454-2.107-2.341-.282-.904-.063-1.815.476-2.691.534-.868 1.404-1.744 2.516-2.631 2.227-1.775 5.543-3.686 9.464-5.735 2.758-1.442 5.835-2.962 9.067-4.558 1.367-.675 2.762-1.364 4.171-2.066 7.974-3.972 29.138-13.5877 53.192-24.5168 4.635-2.1058 9.377-4.2603 14.153-6.4326 29.575-13.4529 60.445-27.5902 75.183-35.0841.246-.1251.547-.027.673.2191z" fill="#000" fill-rule="evenodd"/><path d="m144.276 148.632-25.448 10.708-22.4515-7.07v-28.498l29.1575-10.808 18.742 7.077v1.047 5.716z" fill="#fff"/><path clip-rule="evenodd" d="m121.549 112.57c.073-.266.348-.423.615-.35 3.863 1.057 7.802 2.37 11.877 3.742.25.085.5.169.751.253 3.845 1.296 7.817 2.634 11.984 3.86.265.078.416.355.339.62-.078.265-.356.417-.621.339-4.186-1.231-8.175-2.575-12.018-3.87-.252-.085-.503-.169-.754-.254-4.078-1.373-7.991-2.677-11.822-3.725-.267-.073-.423-.348-.351-.615z" fill="#000" fill-rule="evenodd"/><path clip-rule="evenodd" d="m96.3766 121.81c.2762 0 .5.224.5.5v30.568c0 .276-.2238.5-.5.5-.2761 0-.5-.224-.5-.5v-30.568c0-.276.2239-.5.5-.5z" fill="#000" fill-rule="evenodd"/><path clip-rule="evenodd" d="m144.276 119.018c.276 0 .5.223.5.5v29.445c0 .276-.224.5-.5.5s-.5-.224-.5-.5v-29.445c0-.277.224-.5.5-.5zm-24.253 8.501c.276 0 .5.224.5.5v31.858c0 .276-.224.5-.5.5s-.5-.224-.5-.5v-31.858c0-.276.224-.5.5-.5z" fill="#000" fill-rule="evenodd"/><path clip-rule="evenodd" d="m95.288 152.743c.0728-.267.3478-.424.6142-.351 4.2458 1.162 8.7808 2.332 13.5238 3.555 3.857.994 7.851 2.024 11.939 3.114.267.071.425.345.354.612s-.345.425-.612.354c-4.066-1.084-8.057-2.113-11.916-3.108-4.755-1.226-9.3079-2.401-13.5527-3.562-.2664-.073-.4232-.348-.3503-.614z" fill="#000" fill-rule="evenodd"/><path clip-rule="evenodd" d="m96.5004 123.63c.0728-.266.3478-.423.6142-.35 4.2464 1.162 8.7814 2.331 13.5234 3.554 3.857.995 7.852 2.025 11.939 3.115.267.071.426.345.355.612-.072.267-.346.425-.612.354-4.067-1.084-8.058-2.114-11.917-3.109-4.754-1.226-9.308-2.4-13.5523-3.561-.2664-.073-.4232-.348-.3503-.615z" fill="#000" fill-rule="evenodd"/><path clip-rule="evenodd" d="m147.777 147.85c.096.259-.036.547-.295.643-5.483 2.032-24.755 9.835-30.157 12.096-.254.106-.547-.014-.654-.268-.107-.255.014-.548.268-.655 5.404-2.261 24.692-10.071 30.195-12.111.259-.096.547.036.643.295z" fill="#000" fill-rule="evenodd"/><path clip-rule="evenodd" d="m145.744 119.344c.096.259-.037.546-.295.642-3.716 1.378-11.907 4.921-18.49 7.768-3.128 1.354-5.893 2.55-7.642 3.281-.255.107-.548-.013-.654-.268-.107-.254.013-.547.268-.654 1.723-.721 4.465-1.907 7.576-3.253 6.596-2.853 14.854-6.425 18.594-7.811.259-.096.547.036.643.295z" fill="#000" fill-rule="evenodd"/><path clip-rule="evenodd" d="m124.805 112.538c.096.259-.036.547-.295.643-4.679 1.734-17.909 7.29-25.0481 10.288-1.224.514-2.269.952-3.0612 1.284-.2547.107-.5476-.014-.6542-.268-.1066-.255.0135-.548.2682-.655.788-.329 1.8291-.766 3.0496-1.279 7.1327-2.995 20.3957-8.565 25.0977-10.308.259-.096.547.036.643.295z" fill="#000" fill-rule="evenodd"/><path clip-rule="evenodd" d="m134.338 116.188c.104.255-.018.547-.274.652-3.636 1.488-9.169 3.918-14.273 6.16-3.904 1.715-7.557 3.319-9.919 4.308-.255.106-.548-.014-.654-.268-.107-.255.013-.548.268-.655 2.313-.968 5.953-2.566 9.856-4.28 5.133-2.254 10.721-4.709 14.344-6.191.255-.104.547.018.652.274z" fill="#000" fill-rule="evenodd"/><path clip-rule="evenodd" d="m130.224 125.47c.252.109.4.411.331.677-1.318 5.089-2.955 10.803-4.576 16.453l-.053.187c-.019.064-.037.129-.056.193l-4.375 15.721c-.073.264-.335.389-.588.28-.252-.109-.4-.411-.331-.677 1.232-4.756 2.796-10.215 4.379-15.734l4.681-16.821c.073-.263.336-.388.588-.279zm-5.758 2.464c.252.11.399.411.331.677-.743 2.869-1.401 5.101-2.051 7.305l-.013.044c-.005.015-.009.03-.013.045l-1.988 7.077c-.074.264-.337.387-.589.278-.251-.109-.399-.411-.33-.676.712-2.751 1.352-4.921 1.992-7.094l2.073-7.378c.074-.263.336-.387.588-.278z" fill="#000" fill-rule="evenodd"/><path clip-rule="evenodd" d="m144.722 119.38c.254.107.404.411.335.678l-8.349 32.24c-.07.268-.332.397-.587.29-.254-.107-.404-.411-.335-.678l8.35-32.24c.069-.268.331-.397.586-.29zm-5.565 2.918c.255.107.405.411.336.678l-8.098 31.269c-.069.267-.332.397-.586.289-.255-.107-.405-.411-.336-.678l8.098-31.268c.07-.268.332-.397.586-.29zm-4.75 1.97c.255.107.405.411.336.678l-8.155 31.614c-.069.267-.332.397-.586.29-.255-.107-.405-.41-.336-.678l8.156-31.614c.069-.267.331-.397.585-.29zm10.324 12.044c.253.112.398.418.324.684l-3.676 13.156c-.074.265-.339.389-.592.277-.253-.113-.398-.419-.324-.684l3.675-13.156c.074-.266.339-.39.593-.277z" fill="#000" fill-rule="evenodd"/><path d="m112.875 66.6626c-1.059 4.0829-4.594 9.2979-8.01 9.5256-7.3566.49-7.5775-4.7498-7.5775-9.0927.4536-4.0828 4.1535-9.0926 7.5775-9.0926 4.762 0 8.917 2.1573 8.01 8.6597z" fill="#fff"/><path clip-rule="evenodd" d="m107.627 62.5399c.716.0863 1.401.5924 1.985 1.4804.152.2307.088.5408-.143.6925-.23.1518-.54.0878-.692-.1429-.497-.7551-.957-.9995-1.27-1.0371-.295-.0357-.586.0991-.811.4148-.457.6423-.535 1.9518.599 3.0379 1.405 1.3461 1.79 3.3013.983 4.495-.424.6268-1.139.9669-2.03.8789-.863-.0852-1.873-.5659-3.002-1.5068-.212-.1768-.241-.4921-.064-.7042.176-.2121.492-.2408.704-.064 1.05.8749 1.876 1.2221 2.46 1.2799.558.055.902-.1468 1.103-.4441.443-.6544.34-2.076-.846-3.2126-1.458-1.3966-1.494-3.256-.721-4.3403.39-.5477 1.012-.9156 1.745-.8274z" fill="#000" fill-rule="evenodd"/><path clip-rule="evenodd" d="m108.602 61.6346c.266.0739.422.3495.348.6156-.912 3.2851-2.188 7.1115-3.476 10.6146-.095.2592-.382.392-.641.2968-.26-.0953-.393-.3827-.297-.6419 1.281-3.486 2.548-7.2857 3.451-10.5372.074-.2661.349-.4218.615-.3479z" fill="#000" fill-rule="evenodd"/><path clip-rule="evenodd" d="m101.221 59.1856c.073-.2663.348-.4222.614-.3483l3.343.9287c.267.0739.423.3496.35.6159s-.348.4222-.614.3483l-3.344-.9287c-.266-.0739-.422-.3497-.349-.6159zm1.668-.9156c.066-.2682.337-.4316.605-.3649.737.1833 1.139.2985 1.529.4106l.014.0041c.38.1092.752.2159 1.43.3845.268.0667.432.3381.366.6063s-.337.4315-.605.3649c-.695-.173-1.08-.2835-1.465-.3942l-.013-.0038c-.385-.1104-.774-.222-1.495-.4013-.268-.0666-.432-.3381-.366-.6062z" fill="#000" fill-rule="evenodd"/><path clip-rule="evenodd" d="m98.1057 63.0614c.0751-.2657.3512-.4196.6168-.3437l3.0305.866c.266.0759.42.3528.345.6185s-.351.4196-.617.3437l-3.0304-.866c-.2656-.0758-.42-.3527-.3449-.6185zm.8758-1.5462c.0921-.2603.3776-.3959.6377-.303l3.0308 1.0824c.26.0929.396.3792.304.6395-.092.2602-.377.3959-.637.303l-3.0313-1.0825c-.2602-.0929-.3964-.3792-.3042-.6394zm1.0785-1.2889c.087-.2622.37-.4039.632-.3166l3.247 1.0825c.262.0874.404.3707.318.6329-.087.2621-.369.4038-.631.3165l-3.248-1.0825c-.262-.0873-.4041-.3707-.318-.6328z" fill="#000" fill-rule="evenodd"/><path clip-rule="evenodd" d="m96.8069 66.3083c.0751-.2657.3512-.4196.6168-.3437l3.0313.866c.265.0758.419.3527.344.6184s-.351.4196-.616.3438l-3.0312-.866c-.2656-.0759-.42-.3528-.3449-.6185zm.6494-1.7318c.0751-.2657.3512-.4196.6168-.3438l3.0309.8659c.265.0759.42.3528.345.6185s-.351.4196-.617.3437l-3.0308-.8658c-.2656-.0759-.42-.3528-.3449-.6185zm-.8659 4.1133c.0751-.2657.3512-.4196.6168-.3438l3.0308.866c.266.0759.42.3528.345.6185s-.351.4196-.6169.3437l-3.0308-.8659c-.2656-.0759-.42-.3528-.3449-.6185z" fill="#000" fill-rule="evenodd"/><path clip-rule="evenodd" d="m96.8005 70.8798c.0614-.2692.3292-.4372.5982-.3751l2.8143.6495c.269.0621.438.3307.376.6-.061.2692-.329.4372-.5979.3751l-2.8144-.6495c-.2691-.0621-.4375-.3307-.3762-.6zm.8681 1.9397c.0661-.268.337-.4311.6049-.3641l2.5975.6494c.268.0669.432.3386.366.6067-.067.2681-.337.4311-.605.3641l-2.5982-.6494c-.2679-.0669-.4314-.3386-.3652-.6067z" fill="#000" fill-rule="evenodd"/><path clip-rule="evenodd" d="m103.632 62.2614c-1.486 1.7703-2.575 4.0377-2.817 5.9785-.429 3.4295.03 5.8185 1.373 7.1616.02.0206.039.043.056.0668.141.2017.381.3591.73.4573.348.0984.771.1269 1.215.0947.443-.0321.885-.1228 1.264-.2465.388-.1266.672-.2755.823-.4023.036-.0301.077-.0551.12-.074 1.39-.6113 2.661-1.896 3.673-3.5371 1.007-1.6351 1.729-3.5809 2.044-5.4488.316-1.8774.211-3.6185-.367-4.8778-.56-1.2198-1.572-2.0161-3.216-2.0652-1.601-.0478-3.396 1.1048-4.898 2.8928zm-.765-.6431c1.566-1.8656 3.628-3.3109 5.693-3.2492 2.039.0609 3.382 1.097 4.095 2.6474.693 1.5109.778 3.4777.444 5.4611-.335 1.9929-1.102 4.0608-2.179 5.8075-1.059 1.7191-2.446 3.1694-4.061 3.9005-.286.221-.679.4028-1.096.5389-.454.1484-.977.2551-1.501.2931-.522.0379-1.068.0093-1.56-.1295-.478-.1349-.937-.3839-1.251-.8089-1.6627-1.6909-2.0635-4.4852-1.6288-7.9633.2718-2.1726 1.4628-4.6144 3.0448-6.4976z" fill="#000" fill-rule="evenodd"/><path clip-rule="evenodd" d="m100.455 61.1608c-1.4386 1.633-2.4679 3.7327-2.6705 5.5568-.0029.0258-.0078.0514-.0146.0764-.3001 1.1004-.3051 2.4812-.0462 3.7754.2605 1.3023.7721 2.4393 1.4329 3.1002.0205.0206.0393.0429.056.0668.3855.5507 1.0574 1.0455 1.9094 1.461.844.4118 1.823.7253 2.769.9355.269.0599.439.327.379.5966-.06.2695-.327.4395-.596.3796-1.003-.2228-2.059-.5587-2.99-1.0129-.9089-.4433-1.7398-1.0193-2.2652-1.7505-.8376-.8561-1.3982-2.1931-1.6757-3.5801-.2796-1.3981-.2872-2.9236.0519-4.197.2401-2.0624 1.3777-4.3298 2.9096-6.0688 1.5314-1.7389 3.5574-3.058 5.6084-2.9968 1.278.0382 2.367.403 4.03.9599.143.0479.291.0973.443.148.262.0873.403.3705.316.6325-.087.2619-.371.4035-.633.3162-.134-.0449-.264-.0884-.39-.1305-1.725-.5765-2.671-.8929-3.796-.9265-1.617-.0483-3.38 1.014-4.828 2.6582z" fill="#000" fill-rule="evenodd"/><path d="m138.875 80.6626c-1.059 4.0829-4.594 9.2979-8.01 9.5256-7.357.49-7.578-4.7498-7.578-9.0927.454-4.0828 4.154-9.0926 7.578-9.0926 4.762 0 8.917 2.1573 8.01 8.6597z" fill="#fff"/><path clip-rule="evenodd" d="m133.627 76.5399c.716.0863 1.401.5924 1.985 1.4804.152.2307.088.5408-.143.6925-.23.1518-.54.0878-.692-.1429-.497-.7551-.957-.9995-1.27-1.0371-.295-.0357-.586.0991-.811.4148-.457.6423-.535 1.9518.599 3.0379 1.405 1.3461 1.79 3.3013.983 4.495-.424.6268-1.139.9669-2.03.8789-.863-.0852-1.873-.5659-3.002-1.5068-.212-.1768-.241-.4921-.064-.7042.176-.2121.492-.2408.704-.064 1.05.8749 1.876 1.2221 2.46 1.2799.558.055.902-.1468 1.103-.4441.443-.6544.34-2.076-.846-3.2126-1.458-1.3966-1.494-3.256-.721-4.3403.39-.5477 1.012-.9156 1.745-.8274z" fill="#000" fill-rule="evenodd"/><path clip-rule="evenodd" d="m134.602 75.6346c.266.0739.422.3495.348.6156-.912 3.2851-2.188 7.1115-3.476 10.6146-.095.2592-.382.392-.641.2968-.26-.0953-.393-.3827-.297-.6419 1.281-3.486 2.548-7.2857 3.451-10.5372.074-.2661.349-.4218.615-.3479z" fill="#000" fill-rule="evenodd"/><path clip-rule="evenodd" d="m127.221 73.1856c.073-.2663.348-.4222.614-.3483l3.343.9287c.267.0739.423.3496.35.6159s-.348.4222-.614.3483l-3.344-.9287c-.266-.0739-.422-.3497-.349-.6159zm1.668-.9156c.066-.2682.337-.4316.605-.3649.737.1833 1.139.2985 1.529.4106l.014.0041c.38.1092.752.2159 1.43.3845.268.0667.432.3381.366.6063s-.337.4315-.605.3649c-.695-.173-1.08-.2835-1.465-.3942l-.013-.0038c-.385-.1104-.774-.222-1.495-.4013-.268-.0666-.432-.3381-.366-.6062z" fill="#000" fill-rule="evenodd"/><path clip-rule="evenodd" d="m124.106 77.0614c.075-.2657.351-.4196.616-.3437l3.031.866c.266.0759.42.3528.345.6185s-.351.4196-.617.3437l-3.03-.866c-.266-.0758-.42-.3527-.345-.6185zm.875-1.5462c.093-.2603.378-.3959.638-.303l3.031 1.0824c.26.0929.396.3792.304.6395-.092.2602-.377.3959-.637.303l-3.031-1.0825c-.26-.0929-.397-.3792-.305-.6394zm1.079-1.2889c.087-.2622.37-.4039.632-.3166l3.247 1.0825c.262.0874.404.3707.318.6329-.087.2621-.369.4038-.631.3165l-3.248-1.0825c-.262-.0873-.404-.3707-.318-.6328z" fill="#000" fill-rule="evenodd"/><path clip-rule="evenodd" d="m122.807 80.3083c.075-.2657.351-.4196.617-.3437l3.031.866c.265.0758.419.3527.344.6184s-.351.4196-.616.3438l-3.031-.866c-.266-.0759-.42-.3528-.345-.6185zm.649-1.7318c.075-.2657.352-.4196.617-.3438l3.031.8659c.265.0759.42.3528.345.6185s-.351.4196-.617.3437l-3.031-.8658c-.265-.0759-.42-.3528-.345-.6185zm-.866 4.1133c.076-.2657.352-.4196.617-.3438l3.031.866c.266.0759.42.3528.345.6185s-.351.4196-.617.3437l-3.031-.8659c-.265-.0759-.42-.3528-.345-.6185z" fill="#000" fill-rule="evenodd"/><path clip-rule="evenodd" d="m122.801 84.8798c.061-.2692.329-.4372.598-.3751l2.814.6495c.269.0621.438.3307.376.6-.061.2692-.329.4372-.598.3751l-2.814-.6495c-.269-.0621-.438-.3307-.376-.6zm.868 1.9397c.066-.268.337-.4311.604-.3641l2.598.6494c.268.0669.432.3386.366.6067-.067.2681-.337.4311-.605.3641l-2.598-.6494c-.268-.0669-.432-.3386-.365-.6067z" fill="#000" fill-rule="evenodd"/><path clip-rule="evenodd" d="m129.632 76.2614c-1.486 1.7703-2.575 4.0377-2.817 5.9785-.429 3.4295.03 5.8185 1.373 7.1616.02.0206.039.043.056.0668.141.2017.381.3591.73.4573.348.0984.771.1269 1.215.0947.443-.0321.885-.1228 1.264-.2465.388-.1266.672-.2755.823-.4023.036-.0301.077-.0551.12-.074 1.39-.6113 2.661-1.896 3.673-3.5371 1.007-1.6351 1.729-3.5809 2.044-5.4488.316-1.8774.211-3.6185-.367-4.8778-.56-1.2198-1.572-2.0161-3.216-2.0652-1.601-.0478-3.396 1.1048-4.898 2.8928zm-.765-.6431c1.566-1.8656 3.628-3.3109 5.693-3.2492 2.039.0609 3.382 1.097 4.095 2.6474.693 1.5109.778 3.4777.444 5.4611-.335 1.9929-1.102 4.0608-2.179 5.8075-1.059 1.7191-2.446 3.1694-4.061 3.9005-.286.221-.679.4028-1.096.5389-.454.1484-.977.2551-1.501.2931-.522.0379-1.068.0093-1.56-.1295-.478-.1349-.937-.3839-1.251-.8089-1.663-1.6909-2.064-4.4852-1.629-7.9633.272-2.1726 1.463-4.6144 3.045-6.4976z" fill="#000" fill-rule="evenodd"/><path clip-rule="evenodd" d="m126.455 75.1608c-1.439 1.633-2.468 3.7327-2.671 5.5568-.002.0258-.007.0514-.014.0764-.3 1.1004-.305 2.4812-.046 3.7754.26 1.3023.772 2.4393 1.433 3.1002.02.0206.039.0429.056.0668.385.5507 1.057 1.0455 1.909 1.461.844.4118 1.823.7253 2.769.9355.269.0599.439.327.379.5966-.06.2695-.327.4395-.596.3796-1.003-.2228-2.059-.5587-2.99-1.0129-.909-.4433-1.74-1.0193-2.265-1.7505-.838-.8561-1.398-2.1931-1.676-3.5801-.279-1.3981-.287-2.9236.052-4.197.24-2.0624 1.378-4.3298 2.91-6.0688 1.531-1.7389 3.557-3.058 5.608-2.9968 1.278.0382 2.367.403 4.03.9599.143.0479.291.0973.443.148.262.0873.403.3705.316.6325-.087.2619-.371.4035-.633.3162-.134-.0449-.264-.0884-.39-.1305-1.725-.5765-2.671-.8929-3.796-.9265-1.617-.0483-3.38 1.014-4.828 2.6582z" fill="#000" fill-rule="evenodd"/><path d="m136.875 37.6626c-1.059 4.0829-4.594 9.2979-8.01 9.5256-7.357.49-7.578-4.7498-7.578-9.0927.454-4.0828 4.154-9.0926 7.578-9.0926 4.762 0 8.917 2.1573 8.01 8.6597z" fill="#fff"/><path clip-rule="evenodd" d="m131.627 33.5399c.716.0863 1.401.5924 1.985 1.4804.152.2307.088.5408-.143.6925-.23.1518-.54.0878-.692-.1429-.497-.7551-.957-.9995-1.27-1.0371-.295-.0357-.586.0991-.811.4148-.457.6423-.535 1.9518.599 3.0379 1.405 1.3461 1.79 3.3013.983 4.495-.424.6268-1.139.9669-2.03.8789-.863-.0852-1.873-.5659-3.002-1.5068-.212-.1768-.241-.4921-.064-.7042.176-.2121.492-.2408.704-.064 1.05.8749 1.876 1.2221 2.46 1.2799.558.055.902-.1468 1.103-.4441.443-.6544.34-2.076-.846-3.2126-1.458-1.3966-1.494-3.256-.721-4.3403.39-.5477 1.012-.9156 1.745-.8274z" fill="#000" fill-rule="evenodd"/><path clip-rule="evenodd" d="m132.602 32.6346c.266.0739.422.3495.348.6156-.912 3.2851-2.188 7.1115-3.476 10.6146-.095.2592-.382.392-.641.2968-.26-.0953-.393-.3827-.297-.6419 1.281-3.486 2.548-7.2857 3.451-10.5372.074-.2661.349-.4218.615-.3479z" fill="#000" fill-rule="evenodd"/><path clip-rule="evenodd" d="m125.221 30.1856c.073-.2663.348-.4222.614-.3483l3.343.9287c.267.0739.423.3496.35.6159s-.348.4222-.614.3483l-3.344-.9287c-.266-.0739-.422-.3497-.349-.6159zm1.668-.9156c.066-.2682.337-.4316.605-.3649.737.1833 1.139.2985 1.529.4106l.014.0041c.38.1092.752.2159 1.43.3845.268.0667.432.3381.366.6063s-.337.4315-.605.3649c-.695-.173-1.08-.2835-1.465-.3942l-.013-.0038c-.385-.1104-.774-.222-1.495-.4013-.268-.0666-.432-.3381-.366-.6062z" fill="#000" fill-rule="evenodd"/><path clip-rule="evenodd" d="m122.106 34.0614c.075-.2657.351-.4196.616-.3437l3.031.866c.266.0759.42.3528.345.6185s-.351.4196-.617.3437l-3.03-.866c-.266-.0758-.42-.3527-.345-.6185zm.875-1.5462c.093-.2603.378-.3959.638-.303l3.031 1.0824c.26.0929.396.3792.304.6395-.092.2602-.377.3959-.637.303l-3.031-1.0825c-.26-.0929-.397-.3792-.305-.6394zm1.079-1.2889c.087-.2622.37-.4039.632-.3166l3.247 1.0825c.262.0874.404.3707.318.6329-.087.2621-.369.4038-.631.3165l-3.248-1.0825c-.262-.0873-.404-.3707-.318-.6328z" fill="#000" fill-rule="evenodd"/><path clip-rule="evenodd" d="m120.807 37.3083c.075-.2657.351-.4196.617-.3437l3.031.866c.265.0758.419.3527.344.6184s-.351.4196-.616.3438l-3.031-.866c-.266-.0759-.42-.3528-.345-.6185zm.649-1.7318c.075-.2657.352-.4196.617-.3438l3.031.8659c.265.0759.42.3528.345.6185s-.351.4196-.617.3437l-3.031-.8658c-.265-.0759-.42-.3528-.345-.6185zm-.866 4.1133c.076-.2657.352-.4196.617-.3438l3.031.866c.266.0759.42.3528.345.6185s-.351.4196-.617.3437l-3.031-.8659c-.265-.0759-.42-.3528-.345-.6185z" fill="#000" fill-rule="evenodd"/><path clip-rule="evenodd" d="m120.801 41.8798c.061-.2692.329-.4372.598-.3751l2.814.6495c.269.0621.438.3307.376.6-.061.2692-.329.4372-.598.3751l-2.814-.6495c-.269-.0621-.438-.3307-.376-.6zm.868 1.9397c.066-.268.337-.4311.604-.3641l2.598.6494c.268.0669.432.3386.366.6067-.067.2681-.337.4311-.605.3641l-2.598-.6494c-.268-.0669-.432-.3386-.365-.6067z" fill="#000" fill-rule="evenodd"/><path clip-rule="evenodd" d="m127.632 33.2614c-1.486 1.7703-2.575 4.0377-2.817 5.9785-.429 3.4295.03 5.8185 1.373 7.1616.02.0206.039.043.056.0668.141.2017.381.3591.73.4573.348.0984.771.1269 1.215.0947.443-.0321.885-.1228 1.264-.2465.388-.1266.672-.2755.823-.4023.036-.0301.077-.0551.12-.074 1.39-.6113 2.661-1.896 3.673-3.5371 1.007-1.6351 1.729-3.5809 2.044-5.4488.316-1.8774.211-3.6185-.367-4.8778-.56-1.2198-1.572-2.0161-3.216-2.0652-1.601-.0478-3.396 1.1048-4.898 2.8928zm-.765-.6431c1.566-1.8656 3.628-3.3109 5.693-3.2492 2.039.0609 3.382 1.097 4.095 2.6474.693 1.5109.778 3.4777.444 5.4611-.335 1.9929-1.102 4.0608-2.179 5.8075-1.059 1.7191-2.446 3.1694-4.061 3.9005-.286.221-.679.4028-1.096.5389-.454.1484-.977.2551-1.501.2931-.522.0379-1.068.0093-1.56-.1295-.478-.1349-.937-.3839-1.251-.8089-1.663-1.6909-2.064-4.4852-1.629-7.9633.272-2.1726 1.463-4.6144 3.045-6.4976z" fill="#000" fill-rule="evenodd"/><path clip-rule="evenodd" d="m124.455 32.1608c-1.439 1.633-2.468 3.7327-2.671 5.5568-.002.0258-.007.0514-.014.0764-.3 1.1004-.305 2.4812-.046 3.7754.26 1.3023.772 2.4393 1.433 3.1002.02.0206.039.0429.056.0668.385.5507 1.057 1.0455 1.909 1.461.844.4118 1.823.7253 2.769.9355.269.0599.439.327.379.5966-.06.2695-.327.4395-.596.3796-1.003-.2228-2.059-.5587-2.99-1.0129-.909-.4433-1.74-1.0193-2.265-1.7505-.838-.8561-1.398-2.1931-1.676-3.5801-.279-1.3981-.287-2.9236.052-4.197.24-2.0624 1.378-4.3298 2.91-6.0688 1.531-1.7389 3.557-3.058 5.608-2.9968 1.278.0382 2.367.403 4.03.9599.143.0479.291.0973.443.148.262.0873.403.3705.316.6325-.087.2619-.371.4035-.633.3162-.134-.0449-.264-.0884-.39-.1305-1.725-.5765-2.671-.8929-3.796-.9265-1.617-.0483-3.38 1.014-4.828 2.6582z" fill="#000" fill-rule="evenodd"/><path clip-rule="evenodd" d="m104 15.2861c.276 0 .5.2239.5.5v28.4803c0 .2761-.224.5-.5.5s-.5-.2239-.5-.5v-28.4803c0-.2761.224-.5.5-.5zm0 67.1842c.276 0 .5.2239.5.5v17.3157c0 .276-.224.5-.5.5s-.5-.224-.5-.5v-17.3157c0-.2761.224-.5.5-.5zm0 32.1317c.276 0 .5.224.5.5v10.684c0 .276-.224.5-.5.5s-.5-.224-.5-.5v-10.684c0-.276.224-.5.5-.5z" fill="#000" fill-rule="evenodd"/><path clip-rule="evenodd" d="m117 15.2861c.276 0 .5.2239.5.5v21.8305c0 .2762-.224.5-.5.5s-.5-.2238-.5-.5v-21.8305c0-.2761.224-.5.5-.5zm0 38.2034c.276 0 .5.2239.5.5v15.5932c0 .2762-.224.5-.5.5s-.5-.2238-.5-.5v-15.5932c0-.2761.224-.5.5-.5zm0 35.8644c.276 0 .5.2239.5.5v17.9321c0 .276-.224.5-.5.5s-.5-.224-.5-.5v-17.9321c0-.2761.224-.5.5-.5z" fill="#000" fill-rule="evenodd"/><path clip-rule="evenodd" d="m128.005 5.28624c.276.00249.498.22836.495.50449l-.188 20.92807c-.003.2761-.229.4979-.505.4954s-.498-.2283-.495-.5045l.188-20.92798c.003-.27613.229-.49797.505-.49548zm-.401 44.47206c.276.0025.498.2284.496.5045l-.165 18.312c-.003.2762-.229.498-.505.4955s-.498-.2284-.495-.5045l.165-18.312c.002-.2761.228-.498.504-.4955zm-.405 44.4721c.276 0 .5.2238.5.5v19.5556c0 .276-.224.5-.5.5s-.5-.224-.5-.5v-19.5556c0-.2762.224-.5.5-.5z" fill="#000" fill-rule="evenodd"/><path d="m269.667 19.7863v-16.66667l29.333 4v16.66667z" fill="#fff"/><path clip-rule="evenodd" d="m269.15.583984c.276 0 .5.223858.5.499996v54.70212c0 .2762-.224.5-.5.5s-.5-.2238-.5-.5v-54.70212c0-.276138.224-.499996.5-.499996z" fill="#000" fill-rule="evenodd"/><path clip-rule="evenodd" d="m267 0c.276 0 .5.223858.5.5v56.2861c0 .2762-.224.5-.5.5s-.5-.2238-.5-.5v-56.2861c0-.276142.224-.5.5-.5z" fill="#000" fill-rule="evenodd"/><path clip-rule="evenodd" d="m266.506 1.00424c.045-.272602.301-.457852.574-.413768 2.616.423148 9.023 1.151348 15.819 1.921858l.284.03219c6.699.75944 13.718 1.55519 17.758 2.1323.273.03905.463.29231.424.56568s-.292.46332-.566.42427c-4.025-.57503-11.034-1.36965-17.745-2.13049l-.267-.03031c-6.779-.76858-13.22-1.50028-15.867-1.92832-.272-.04409-.458-.30081-.414-.57341z" fill="#000" fill-rule="evenodd"/><path clip-rule="evenodd" d="m268.84 17.3739c.033-.2741.283-.4691.557-.4356 7.147.8751 14.969 1.97 22.445 3.0164 2.542.3558 5.044.706 7.466 1.04.274.0378.465.2901.427.5637-.038.2735-.29.4647-.563.427-2.427-.3347-4.932-.6853-7.476-1.0414-7.474-1.046-15.283-2.1391-22.421-3.0131-.274-.0335-.469-.283-.435-.557z" fill="#000" fill-rule="evenodd"/><path clip-rule="evenodd" d="m298.534 3.50342c.276 0 .5.22385.5.49999v17.74309c0 .2761-.224.5-.5.4999-.277 0-.5-.2238-.5-.5 0-3.7279 0-10.1515 0-17.74298 0-.27614.224-.5.5-.5z" fill="#000" fill-rule="evenodd"/><path d="m247.973 145.579v-9.453l14.553-4.944 31.525-.47 7.938 6.938v9.911l-11.893 6.443h-30.229z" fill="#fff"/><g clip-rule="evenodd" fill-rule="evenodd"><path d="m244.613 142.729c.174-.214.489-.246.703-.071 2.998 2.447 5.247 4.351 7.332 6.116l.001.001c2.085 1.765 4.006 3.392 6.354 5.289.215.173.248.488.075.703-.174.215-.489.248-.704.075-2.357-1.905-4.285-3.538-6.37-5.303l-.001-.001c-2.086-1.765-4.329-3.664-7.319-6.105-.214-.175-.246-.49-.071-.704z" fill="#000"/><path d="m290.987 154.504c-6.981-.108-25.775-.398-32.119-.496-.276-.004-.496-.231-.492-.508.004-.276.232-.496.508-.492 6.343.098 25.138.388 32.119.496.276.004.496.231.492.507-.004.277-.232.497-.508.493z" fill="#000"/><path d="m248.12 133.284c.276 0 .5.224.5.5v14.769c0 .276-.224.5-.5.5s-.5-.224-.5-.5v-14.769c0-.276.224-.5.5-.5z" fill="#000"/><path d="m259.867 141.115c.276 0 .5.224.5.5v11.398c0 .276-.224.5-.5.5s-.5-.224-.5-.5v-11.398c0-.276.224-.5.5-.5z" fill="#000"/><path d="m290.096 140.619c.276 0 .5.224.5.5v13.875c0 .276-.224.5-.5.5s-.5-.224-.5-.5v-13.875c0-.276.224-.5.5-.5z" fill="#000"/><path d="m301.99 133.682c.276 0 .5.223.5.5v13.875c0 .276-.224.5-.5.5-.277 0-.5-.224-.5-.5v-13.875c0-.277.223-.5.5-.5z" fill="#000"/><path d="m246.861 134.79c.149-.232.459-.299.691-.15 4.41 2.835 6.078 3.889 8.11 5.172 1.164.736 2.448 1.547 4.436 2.812.233.148.302.457.153.69-.148.233-.457.302-.69.154-1.983-1.262-3.265-2.073-4.43-2.808-2.034-1.285-3.707-2.342-8.12-5.179-.232-.149-.299-.458-.15-.691z" fill="#000"/><path d="m259.329 143.046c0-.276.224-.5.5-.5h30.725c.276 0 .5.224.5.5s-.224.5-.5.5c-6.442 0-24.87 0-30.725 0-.276 0-.5-.224-.5-.5z" fill="#000"/><path d="m290.796 128.49c.164-.222.476-.27.699-.107l-.296.403-.295.403c-.223-.163-.271-.476-.108-.699zm.403.296c-.295.403-.295.403-.295.403l.375.276c.242.177.592.433 1.024.75.865.632 2.059 1.506 3.379 2.469 2.637 1.924 5.776 4.207 7.775 5.635.225.16.537.108.697-.116.161-.225.109-.537-.116-.698-1.994-1.424-5.129-3.704-7.767-5.629-1.319-.963-2.513-1.836-3.377-2.468-.432-.317-.782-.573-1.024-.75l-.375-.275s0 0-.296.403z" fill="#000"/><path d="m267.719 129.199c.087.262-.055.545-.317.632-5.126 1.709-17.665 6.269-20.505 7.405-.257.103-.547-.022-.65-.279-.103-.256.022-.547.278-.649 2.864-1.146 15.421-5.712 20.561-7.425.262-.088.545.054.633.316z" fill="#000"/><path d="m280.728 130.908c-6.359.044-12.75.089-19.187.089-.276 0-.5-.224-.5-.5s.224-.5.5-.5c6.433 0 12.821-.044 19.18-.089l.091-.001c6.328-.044 12.629-.089 18.916-.089.277 0 .5.224.5.5 0 .277-.223.5-.5.5-6.284 0-12.581.045-18.911.089z" fill="#000"/><path d="m305.447 135.978c.124.247.024.547-.223.67-3.802 1.901-7.227 3.444-10.51 4.922-1.855.836-3.665 1.651-5.472 2.499-.25.117-.548.009-.665-.241s-.01-.547.24-.665c1.836-.861 3.657-1.681 5.518-2.519 3.267-1.471 6.654-2.996 10.441-4.89.247-.123.548-.023.671.224zm-1.028 10.865c.123.247.023.547-.224.671l-.004.002c-5.944 2.972-9.913 4.956-14.949 7.319-.25.118-.548.01-.665-.24s-.01-.548.24-.665c5.025-2.357 8.984-4.337 14.931-7.311.247-.123.547-.023.671.224z" fill="#000"/><path d="m252.079 137.666c.265.078.417.356.339.621l-2.478 8.425c-.078.265-.356.416-.621.338s-.417-.356-.339-.621l2.478-8.424c.078-.265.356-.417.621-.339zm3.453 1.978c.267.069.428.342.359.609-.395 1.535-.961 3.116-1.516 4.664l-.004.012c-.556 1.553-1.099 3.07-1.472 4.516-.069.267-.341.428-.609.359-.267-.069-.428-.342-.359-.609.384-1.491.94-3.044 1.49-4.578l.013-.037c.557-1.557 1.107-3.094 1.489-4.576.069-.268.341-.429.609-.36zm3.495 2.485c.264.084.409.365.326.628l-3.039 9.566c-.084.263-.365.409-.628.325-.263-.083-.409-.365-.325-.628l3.038-9.565c.084-.264.365-.409.628-.326z" fill="#000"/><path d="m272.153 142.617c.267.069.428.341.359.609-.45 1.745-.881 3.481-1.311 5.209l-.007.03c-.427 1.718-.852 3.429-1.29 5.131-.069.267-.342.428-.609.359-.268-.069-.429-.341-.36-.609.438-1.697.862-3.405 1.289-5.124l.007-.028c.429-1.728.862-3.468 1.313-5.218.069-.267.341-.428.609-.359zm-4.233 0c.268.069.429.341.36.609-.453 1.756-.937 3.488-1.417 5.202l-.009.031c-.477 1.706-.95 3.394-1.386 5.084-.069.268-.341.428-.609.36-.267-.069-.428-.342-.359-.609.438-1.7.913-3.397 1.39-5.1l.01-.035c.48-1.716.962-3.438 1.411-5.183.069-.267.342-.428.609-.359zm-4.679.498c.266.074.421.35.347.616l-2.744 9.822c-.075.266-.35.421-.616.347s-.422-.35-.347-.616l2.744-9.822c.074-.266.35-.422.616-.347z" fill="#000"/><path d="m284.354 143.117c.267.069.428.341.359.609l-2.557 9.924c-.069.268-.342.429-.609.36-.268-.069-.429-.342-.36-.609l2.558-9.925c.069-.267.341-.428.609-.359zm-4.46 0c.267.069.428.341.359.609l-2.557 9.924c-.069.268-.342.429-.609.36-.268-.069-.429-.342-.36-.609l2.558-9.925c.069-.267.341-.428.609-.359zm-3.965-.018c.268.069.429.342.36.609l-2.558 9.924c-.069.268-.341.429-.609.36-.267-.069-.428-.342-.359-.609l2.557-9.925c.069-.267.342-.428.609-.359z" fill="#000"/><path d="m297.765 139.148c.268.069.428.342.36.609l-2.938 11.398c-.069.267-.341.428-.609.359-.267-.069-.428-.341-.359-.609l2.937-11.397c.069-.268.342-.429.609-.36zm-4.554 2.483c.265.078.416.356.338.621l-3.517 11.893c-.079.265-.357.416-.622.338-.264-.078-.416-.356-.337-.621l3.517-11.894c.078-.264.356-.416.621-.337zm-4.689 1.482c.267.069.428.341.359.609l-2.681 10.406c-.069.268-.342.429-.609.36-.268-.069-.429-.342-.36-.609l2.682-10.407c.069-.267.342-.428.609-.359z" fill="#000"/><path d="m301.729 137.166c.267.07.428.343.358.61l-3.082 11.893c-.07.268-.343.428-.61.359s-.428-.342-.358-.61l3.082-11.893c.07-.267.343-.428.61-.359z" fill="#000"/><path d="m271.408 136.41h-3.91l-4.209-5.191 2.61-2.745v-6.911h-2.61l2.61-9.049h2.899l2.61-2.32v-4.639l6.379-3.479 3.479 2.337v4.041l2.319-4.041 4.819 2.302 1.27 5.799-2.899 2.609v4.639h2.899l-1.27 8.712-3.756-1.031-3.382 3.776 1.022 5.191-5.663 2.36-5.217-.944zm3.027-16.34 3.582-2.388 2.388 1.194-1.592 4.776-2.786 1.99-1.592-.796z" fill="#fff"/><path d="m262.847 121.125c.086-.262.369-.405.631-.319.427.14.857.229 1.335.32 1.418.27 2.838.506 4.265.744.66.11 1.321.22 1.985.334.272.046.455.305.408.577s-.305.455-.577.408c-.653-.112-1.309-.221-1.967-.331-1.432-.238-2.872-.478-4.301-.75-.481-.091-.966-.19-1.46-.352-.262-.086-.405-.369-.319-.631z" fill="#000"/><path d="m264.244 112.257c.043-.272.3-.458.573-.414.505.081.984.172 1.503.334 1.589.496 3.169 1.044 4.74 1.588.715.248 1.427.495 2.137.736.262.089.402.373.313.634-.088.262-.372.402-.634.313-.724-.246-1.443-.495-2.161-.744-1.563-.542-3.119-1.081-4.693-1.572-.452-.141-.877-.223-1.364-.302-.273-.044-.458-.3-.414-.573z" fill="#000"/><path d="m270.503 105.169c.086-.262.369-.405.631-.319 1.649.543 3.336.961 5.039 1.383.71.176 1.423.352 2.137.539.267.07.427.343.357.61s-.343.427-.61.357c-.687-.179-1.384-.352-2.085-.526-1.718-.425-3.464-.857-5.151-1.413-.262-.086-.405-.369-.318-.631z" fill="#000"/><path d="m275.785 101.612c.096-.259.384-.391.642-.294 1.668.619 3.348 1.203 5.034 1.789.377.131.755.263 1.133.395.261.091.399.376.308.636-.091.261-.376.399-.637.308-.376-.131-.752-.262-1.129-.393-1.686-.586-3.378-1.175-5.057-1.798-.259-.096-.391-.384-.294-.643z" fill="#000"/><path d="m282.78 104.438c.064-.269.333-.435.602-.371 1.325.315 2.637.761 3.917 1.195.492.167.98.333 1.461.488.263.085.407.367.322.63s-.367.407-.63.322c-.511-.166-1.017-.337-1.519-.508-1.263-.428-2.507-.85-3.783-1.154-.268-.064-.434-.334-.37-.602z" fill="#000"/><path d="m286.577 119.745c.066-.268.337-.432.605-.366.521.129 1.044.257 1.568.385.615.15 1.231.301 1.843.452.268.066.431.337.365.605s-.337.432-.605.366c-.614-.152-1.226-.302-1.838-.451-.522-.128-1.046-.256-1.572-.386-.268-.066-.432-.337-.366-.605z" fill="#000"/><path d="m284.324 127.409c.062-.269.33-.437.599-.375.876.202 1.751.431 2.618.658.398.105.795.209 1.19.31.267.068.429.34.36.608-.068.267-.34.429-.608.361-.407-.104-.811-.21-1.214-.316-.859-.225-1.71-.448-2.57-.647-.269-.062-.437-.33-.375-.599z" fill="#000"/><path d="m282.029 130.438c.273-.044.53.141.573.414.054.333.088.642.096.997.028 1.256.011 2.519-.006 3.772-.008.585-.016 1.168-.019 1.747-.001.276-.227.499-.503.497s-.498-.227-.497-.503c.003-.596.011-1.188.019-1.778.017-1.242.034-2.475.006-3.712-.006-.3-.035-.562-.083-.861-.044-.273.142-.53.414-.573z" fill="#000"/><path d="m276.601 133.586c.275-.022.516.184.537.459.087 1.107.111 2.244.135 3.362.015.697.03 1.387.059 2.059.012.276-.201.51-.477.522s-.51-.202-.522-.478c-.032-.723-.046-1.432-.061-2.135-.023-1.089-.045-2.162-.131-3.252-.021-.275.184-.516.46-.537z" fill="#000"/><path d="m274.661 133.522c.204.186.218.502.032.706-.285.311-.566.638-.854.975-.023.027-.046.054-.069.081-.265.309-.535.625-.813.935-.604.673-1.258 1.335-2.009 1.874-.225.161-.537.109-.698-.115-.161-.225-.109-.537.115-.698.664-.476 1.262-1.075 1.847-1.729.27-.3.533-.608.799-.919.023-.026.045-.053.068-.079.288-.336.579-.675.876-1 .186-.204.502-.218.706-.031z" fill="#000"/><path d="m272.375 127.89c.187.203.174.519-.029.707-.412.38-.83.745-1.243 1.108-1.036.907-2.048 1.793-2.889 2.828-.174.215-.489.247-.704.073-.214-.174-.247-.489-.072-.703.898-1.106 2.009-2.079 3.069-3.007.399-.35.791-.693 1.162-1.035.203-.187.519-.174.706.029z" fill="#000"/><path d="m271.196 121.432c.272.049.452.31.403.581-.466 2.562-.059 5.133.193 6.729.017.107.033.21.049.307.042.273-.145.529-.418.571-.273.043-.528-.144-.571-.417-.015-.1-.032-.206-.05-.318-.252-1.588-.684-4.314-.187-7.051.049-.271.31-.451.581-.402z" fill="#000"/><path d="m277.463 111.387c.134.241.047.545-.195.68-2.227 1.237-3.067 2.39-3.672 3.419-.14.238-.446.317-.684.177s-.318-.446-.178-.684c.682-1.159 1.643-2.45 4.049-3.787.241-.134.545-.047.68.195z" fill="#000"/><path d="m276.651 105.919c.276.006.495.235.489.511-.007.32-.014.64-.021.96-.044 1.996-.088 3.989-.108 5.982-.003.276-.229.498-.505.495-.276-.002-.498-.228-.495-.504.02-2.001.064-4 .108-5.996.007-.32.014-.639.021-.959.006-.276.235-.495.511-.489z" fill="#000"/><path d="m281.465 103.538c.276 0 .5.224.5.5v5.726c0 .276-.224.5-.5.5s-.5-.224-.5-.5v-5.726c0-.276.224-.5.5-.5z" fill="#000"/><path d="m280.322 109.25c0-.276.223-.5.5-.5.59 0 1.305.086 1.985.316.678.229 1.358.613 1.824 1.235.166.221.121.534-.1.7-.22.166-.534.121-.7-.1-.305-.407-.783-.698-1.344-.888-.558-.188-1.162-.263-1.665-.263-.277 0-.5-.224-.5-.5z" fill="#000"/><path d="m289.67 104.459c.194.197.192.513-.005.707-.471.465-.941.931-1.412 1.398-1.098 1.088-2.199 2.179-3.309 3.256-.319.309-.628.587-.992.859-.221.166-.534.121-.7-.1-.165-.221-.121-.534.1-.7.319-.239.595-.486.896-.777 1.106-1.073 2.2-2.158 3.297-3.244.472-.468.944-.936 1.418-1.403.196-.194.513-.192.707.004z" fill="#000"/><path d="m291.082 110.761c.196.194.197.511.003.707-.383.387-.767.766-1.149 1.143-.829.818-1.648 1.625-2.425 2.48-.099.109-.17.233-.248.409-.112.253-.407.367-.66.256-.252-.112-.367-.407-.255-.66.1-.226.224-.458.423-.677.796-.876 1.647-1.716 2.486-2.543.377-.373.752-.742 1.118-1.112.194-.196.511-.197.707-.003z" fill="#000"/><path d="m287.463 105.404c.241-.135.546-.048.68.193.338.607.489 1.21.638 1.808.008.034.017.068.025.101.132.528.248 1.045.362 1.555.193.864.382 1.709.639 2.553.008.026.016.047.023.062.002.004.004.008.005.011.236.102.358.369.276.617-.088.262-.371.403-.633.316-.41-.137-.564-.509-.627-.715-.266-.872-.472-1.791-.673-2.686-.113-.502-.223-.996-.342-1.47-.005-.021-.01-.042-.016-.063-.157-.629-.278-1.114-.55-1.602-.135-.241-.048-.546.193-.68z" fill="#000"/><path d="m286.697 114.23c.269-.06.536.11.596.379.521 2.342.705 4.082-.018 6.07-.094.26-.381.394-.641.299-.259-.094-.393-.381-.299-.641.623-1.713.491-3.22-.018-5.511-.06-.269.11-.536.38-.596z" fill="#000"/><path d="m289.366 119.821c.273-.042.528.144.571.417.241 1.552-.054 3.323-.486 4.928-.387 1.44-.899 2.794-1.276 3.795-.045.12-.089.235-.13.344-.097.258-.385.389-.644.292-.258-.096-.389-.385-.292-.643.042-.111.085-.227.131-.347.378-1.003.872-2.312 1.246-3.701.42-1.564.672-3.171.463-4.514-.043-.273.144-.529.417-.571z" fill="#000"/><path d="m285.054 126.154c.258.099.387.388.288.646-.447 1.162-.87 2.056-1.439 2.862-.571.809-1.272 1.507-2.252 2.301-.214.174-.529.141-.703-.073-.174-.215-.141-.53.073-.704.938-.759 1.565-1.392 2.065-2.1.5-.71.888-1.517 1.322-2.645.099-.257.389-.386.646-.287z" fill="#000"/><path d="m283.57 135.92c.109.254-.009.548-.262.657-1.094.469-1.913.81-2.603 1.097-1.302.542-2.142.891-3.498 1.546-.436.211-.75.302-1.193.376-.273.045-.53-.139-.576-.411-.045-.273.139-.53.411-.576.36-.059.582-.124.923-.289 1.381-.667 2.254-1.031 3.576-1.581.688-.287 1.499-.624 2.566-1.081.253-.109.547.009.656.262z" fill="#000"/><path d="m271.512 137.942c.036-.273.287-.466.561-.43.893.118 1.773.325 2.625.525.095.022.189.044.283.066.95.221 1.868.423 2.794.5.275.023.48.265.457.54s-.265.48-.54.457c-1.007-.084-1.989-.302-2.938-.523-.094-.022-.188-.044-.281-.066-.859-.201-1.691-.396-2.531-.507-.274-.037-.467-.288-.43-.562z" fill="#000"/><path d="m271.743 135.52c.274-.039.527.151.566.424.036.256.071.509.106.761.068.498.135.989.214 1.483.044.272-.142.529-.414.572-.273.044-.529-.142-.573-.414-.081-.505-.151-1.016-.22-1.52-.034-.249-.068-.497-.103-.741-.039-.273.151-.526.424-.565z" fill="#000"/><path d="m270.917 113.309c.21.18.234.495.054.705-.693.809-1.314 2.323-1.727 4.008-.41 1.672-.592 3.413-.471 4.624.028.275-.173.52-.448.547-.274.028-.519-.173-.547-.447-.136-1.363.068-3.225.495-4.962.423-1.726 1.089-3.429 1.939-4.421.18-.21.495-.234.705-.054z" fill="#000"/><path d="m266.714 111.963c.242.132.331.436.199.678-1.518 2.784-2.582 6.013-2.512 9.079.006.276-.213.505-.489.511s-.505-.213-.511-.489c-.075-3.296 1.064-6.701 2.634-9.579.133-.243.436-.332.679-.2z" fill="#000"/><path d="m271.659 110.702c.192.198.187.515-.012.707-.207.201-.414.404-.623.609-.681.666-1.373 1.344-2.096 1.981-.208.182-.523.162-.706-.045-.182-.207-.162-.523.045-.706.701-.618 1.367-1.27 2.044-1.932.212-.208.425-.416.641-.625.198-.192.514-.187.707.011z" fill="#000"/><path d="m271.429 105.019c.276 0 .5.224.5.5 0 .986-.038 1.978-.075 2.959-.017.451-.034.9-.047 1.345v.019c-.008.265-.011.345.032.473.087.262-.054.545-.316.632-.262.088-.545-.054-.633-.316-.1-.302-.092-.551-.084-.777 0-.02.001-.04.002-.061.013-.462.031-.921.048-1.376.037-.971.073-1.931.073-2.898 0-.276.224-.5.5-.5z" fill="#000"/><path d="m270.114 110.648c.08-.264.359-.413.624-.332 1.03.314 1.952.54 2.845.759.052.012.103.025.155.038.939.23 1.853.458 2.808.777.262.087.403.37.316.632s-.37.404-.632.316c-.912-.303-1.79-.523-2.73-.754-.053-.013-.106-.026-.16-.039-.89-.218-1.837-.45-2.894-.773-.264-.08-.413-.36-.332-.624z" fill="#000"/><path d="m284.569 103.361c.231.151.296.461.146.692-.335.513-.669 1.024-1.004 1.534-.634.966-1.266 1.93-1.89 2.903-.149.232-.458.3-.69.151-.233-.15-.301-.459-.151-.691.626-.977 1.263-1.949 1.899-2.918.334-.509.667-1.017.998-1.525.151-.231.46-.296.692-.146z" fill="#000"/><path d="m278.115 101.687c.125.246.028.547-.218.673-.798.408-1.6.803-2.399 1.197-1.644.81-3.277 1.614-4.849 2.522-.239.138-.545.056-.683-.183s-.056-.545.183-.683c1.599-.924 3.285-1.754 4.946-2.572.791-.391 1.578-.778 2.347-1.171.245-.126.547-.029.673.217z" fill="#000"/><path d="m284.142 102.617c.145.236.072.544-.163.688-1.13.696-2.294 1.337-3.444 1.971-.246.136-.492.271-.737.407-.307.17-.618.348-.934.529-.919.526-1.875 1.074-2.862 1.501-.254.11-.548-.006-.658-.26-.11-.253.007-.548.26-.657.932-.404 1.817-.91 2.722-1.429.326-.186.654-.374.988-.559.249-.138.497-.275.745-.411 1.15-.634 2.288-1.262 3.395-1.943.236-.145.544-.072.688.163z" fill="#000"/><path d="m266.861 122.003c.276 0 .5.224.5.5 0 .849.062 1.698.127 2.569l.001.01c.064.862.129 1.745.129 2.632 0 .276-.224.5-.5.5s-.5-.224-.5-.5c0-.847-.063-1.697-.127-2.568l-.001-.008c-.064-.862-.129-1.746-.129-2.635 0-.276.224-.5.5-.5z" fill="#000"/><path d="m266.043 127.48c.067-.268.338-.431.606-.364 1.188.297 2.272.541 3.594.839.666.149 1.392.313 2.223.503.269.062.437.33.375.6-.061.269-.33.437-.599.375-.819-.188-1.54-.35-2.204-.5-1.331-.299-2.432-.547-3.632-.847-.267-.067-.43-.338-.363-.606z" fill="#000"/><path d="m267.654 127.029c.201.19.209.507.019.707-.916.966-1.835 1.933-2.763 2.892-.074.076-.15.157-.228.24-.33.35-.699.741-1.137 1.05-.225.159-.537.106-.696-.12-.16-.226-.106-.538.12-.697.347-.245.63-.544.953-.886.087-.091.176-.186.27-.283.924-.954 1.84-1.918 2.755-2.884.19-.2.507-.209.707-.019z" fill="#000"/><path d="m262.506 131.307c.041-.273.296-.461.569-.42 1.046.158 1.938.336 2.898.528.026.005.053.011.079.016.938.188 1.948.391 3.247.607.272.045.456.303.411.575-.045.273-.303.457-.575.411-1.316-.219-2.34-.424-3.277-.612-.027-.005-.055-.011-.082-.016-.96-.193-1.831-.366-2.851-.52-.273-.042-.461-.296-.419-.569z" fill="#000"/><path d="m273.324 133.446c.068-.267.34-.429.608-.361 1.326.336 2.675.428 4.084.5.276.014.488.249.474.525-.014.275-.249.488-.525.474-1.408-.072-2.847-.166-4.279-.53-.268-.068-.43-.34-.362-.608z" fill="#000"/><path d="m267.595 131.62c.224-.162.536-.113.699.11.726.997 1.394 2.046 2.053 3.08.303.475.603.946.906 1.408.081.123.148.232.214.338.085.139.168.272.272.423.166.241.328.433.504.565.221.165.266.479.1.7-.166.22-.479.265-.7.1-.303-.228-.538-.522-.728-.798-.106-.154-.223-.342-.327-.508-.064-.103-.123-.198-.171-.271-.319-.487-.628-.971-.934-1.452-.65-1.02-1.29-2.024-1.997-2.996-.163-.223-.114-.536.109-.699z" fill="#000"/><path d="m262.803 131.066c.21-.18.526-.155.705.054 1.181 1.378 2.373 2.858 3.433 4.174.332.411.65.806.951 1.177.174.214.141.529-.073.703-.215.174-.53.141-.704-.073-.305-.376-.626-.775-.959-1.189-1.059-1.313-2.237-2.776-3.407-4.141-.18-.209-.155-.525.054-.705z" fill="#000"/><path d="m265.975 136.39c.005-.276.233-.495.509-.49.943.018 1.852.257 2.7.491.059.016.118.032.176.049.801.221 1.547.428 2.303.491.275.023.48.265.457.54s-.265.48-.54.457c-.854-.072-1.688-.303-2.469-.52-.065-.018-.129-.035-.193-.053-.855-.236-1.652-.44-2.453-.455-.276-.005-.496-.234-.49-.51z" fill="#000"/><path d="m273.527 124.147c.157-.226.469-.283.696-.125.343.239.671.465.984.681 1.788 1.237 3.123 2.16 4.455 3.27.212.177.241.492.064.704-.177.213-.492.241-.704.064-1.295-1.079-2.588-1.973-4.378-3.211-.314-.217-.644-.445-.992-.687-.226-.157-.283-.469-.125-.696z" fill="#000"/><path d="m275.279 118.081c.275.031.472.278.442.552-.101.906-.203 1.988-.306 3.076-.155 1.65-.313 3.314-.468 4.403-.039.273-.292.463-.566.424-.273-.039-.463-.292-.424-.565.153-1.073.305-2.683.458-4.306.103-1.094.207-2.195.312-3.142.03-.275.278-.472.552-.442z" fill="#000"/><path d="m280.252 115.697c.169.218.13.533-.088.702-.457.355-1.412 1.034-2.414 1.746-.147.104-.295.21-.443.315-1.17.832-2.31 1.649-2.793 2.048-.213.175-.529.145-.704-.068-.176-.213-.146-.528.067-.704.518-.428 1.697-1.271 2.85-2.091.149-.106.297-.211.443-.315 1.008-.716 1.942-1.379 2.38-1.72.218-.17.532-.131.702.087z" fill="#000"/><path d="m277.76 115.61c.147-.234.456-.304.69-.157 1.142.717 2.374 1.284 3.631 1.861.515.238 1.035.477 1.554.729.143.069.296.134.466.207.089.038.184.078.284.122.272.119.572.261.832.434.229.153.292.463.138.693-.153.23-.463.292-.693.139-.183-.122-.415-.234-.679-.35-.077-.034-.16-.069-.244-.105-.184-.079-.376-.161-.541-.241-.477-.232-.972-.459-1.474-.69-1.28-.589-2.605-1.199-3.806-1.953-.234-.146-.304-.455-.158-.689z" fill="#000"/><path d="m283.634 124.504c.139.239.058.545-.181.683-.251.146-.769.46-1.4.842-1.472.891-3.557 2.153-4.289 2.519-.247.123-.548.023-.671-.224-.124-.247-.024-.547.223-.671.696-.348 2.664-1.539 4.124-2.423.665-.403 1.225-.742 1.51-.907.239-.139.545-.058.684.181z" fill="#000"/><path d="m283.825 117.834c.27.06.44.327.38.597-.254 1.143-.445 2.288-.638 3.448l-.001.006c-.193 1.154-.387 2.323-.648 3.494-.06.27-.327.44-.596.38-.27-.06-.44-.327-.38-.597.254-1.142.445-2.287.638-3.448l.001-.006c.193-1.154.388-2.323.648-3.494.06-.27.327-.44.596-.38z" fill="#000"/><path d="m280.41 117.703c.27.057.443.322.386.593-.041.197-.083.396-.124.594-.155.737-.31 1.478-.478 2.216-.067.296-.136.589-.203.88-.129.551-.256 1.098-.375 1.65l-.019.086c-.004.023-.007.036-.009.047-.002.013-.003.024-.003.053 0 .276-.224.5-.5.5-.277 0-.5-.224-.5-.5 0-.152.022-.251.044-.353.003-.015.007-.029.01-.043.12-.56.251-1.122.38-1.678.068-.29.135-.578.2-.864.166-.729.319-1.459.473-2.194.042-.2.083-.4.126-.601.057-.27.322-.443.592-.386z" fill="#000"/><path d="m279.811 123.643c.134.241.047.545-.194.679-.487.271-1.004.505-1.496.728-.153.069-.303.136-.449.204-.15.07-.302.142-.457.215-.5.236-1.023.483-1.555.685-.259.098-.547-.031-.646-.289-.098-.259.032-.547.29-.646.492-.187.966-.41 1.458-.643.161-.076.324-.153.49-.229.164-.076.325-.149.484-.221.484-.219.948-.429 1.395-.678.242-.134.546-.047.68.195z" fill="#000"/><path d="m277.608 117.325c.124-.247.424-.347.671-.223l.002.001c1.022.511 1.523.761 2.791 1.268.256.103.381.394.278.65-.102.257-.393.381-.65.279-1.305-.522-1.833-.786-2.868-1.304-.247-.123-.347-.424-.224-.671z" fill="#000"/><path d="m285.244 118.533c.025.275-.178.518-.453.543-1.362.125-3.374.227-4.935.227-.276 0-.5-.224-.5-.5s.224-.5.5-.5c1.528 0 3.51-.101 4.845-.223.275-.025.518.178.543.453z" fill="#000"/><path d="m278.019 123.544c.064-.269.334-.435.602-.371.294.07.585.141.875.211.685.165 1.363.329 2.048.481.122.027.242.054.36.081.639.144 1.245.28 1.862.342.275.028.476.273.448.547-.027.275-.272.476-.547.448-.684-.068-1.359-.221-1.996-.365-.116-.026-.23-.052-.343-.077-.695-.154-1.388-.321-2.077-.488-.288-.069-.575-.139-.861-.207-.269-.064-.435-.333-.371-.602z" fill="#000"/><path d="m283.563 122.029c-.058.27-.324.441-.594.383-1.189-.256-2.371-.512-3.552-.772-.27-.06-.44-.327-.38-.596.059-.27.326-.44.596-.381 1.178.26 2.358.516 3.546.772.27.058.442.324.384.594zm-1.747-4.987c.106.256-.016.548-.271.653-.854.352-1.583.634-2.13.837-.259.096-.547-.036-.643-.295s.036-.546.295-.642c.537-.199 1.254-.477 2.096-.824.256-.106.548.016.653.271z" fill="#000"/><path d="m280.704 126.672c-.114.251-.411.362-.662.248l-3.413-1.552c-.251-.114-.362-.41-.248-.662.114-.251.411-.362.662-.248l3.413 1.552c.251.114.362.41.248.662z" fill="#000"/><path d="m277.005 136.352c-.045.272-.302.457-.574.413l-3.709-.602c-.273-.044-.458-.301-.414-.573.045-.273.302-.458.574-.414l3.709.602c.273.044.458.301.414.574zm-7.293-1.515c-.035.274-.285.467-.559.432l-3.86-.494c-.274-.035-.468-.286-.433-.56s.286-.467.56-.432l3.86.494c.274.036.468.286.432.56z" fill="#000"/><path d="m286.899 108.248c-.07.267-.343.427-.61.357-.777-.202-1.42-.406-2.018-.599-.074-.024-.148-.048-.221-.072-.515-.167-.997-.323-1.521-.468-.266-.073-.422-.349-.349-.615.074-.266.349-.422.616-.349.546.151 1.05.315 1.563.481.073.024.147.048.22.072.592.191 1.214.387 1.962.583.267.069.427.342.358.61z" fill="#000"/><path d="m270.154 130.392c-.056.271-.321.444-.591.388-.751-.157-1.411-.307-2.057-.455-.046-.01-.092-.021-.138-.031-.599-.137-1.191-.272-1.841-.411-.27-.057-.443-.323-.385-.593.057-.27.323-.442.593-.385.658.14 1.256.277 1.855.414.046.01.092.021.139.032.645.147 1.298.295 2.038.45.27.056.444.321.387.591zm.926-4.899c-.058.27-.324.441-.594.383l-3.346-.724c-.269-.058-.441-.324-.383-.594.059-.27.325-.441.595-.383l3.345.724c.27.058.442.324.383.594z" fill="#000"/><path d="m269.089 119.277c-.056.271-.321.444-.592.387l-4.698-.985c-.271-.057-.444-.322-.387-.592s.322-.443.592-.387l4.698.985c.271.057.444.322.387.592zm.443-2.822c-.059.27-.326.44-.596.381l-3.86-.847c-.27-.059-.44-.326-.381-.595.059-.27.326-.441.595-.382l3.861.847c.269.06.44.326.381.596z" fill="#000"/><path d="m276.912 109.554c-.056.271-.321.444-.591.388l-5.413-1.123c-.27-.056-.444-.32-.388-.591.056-.27.321-.444.591-.388l5.413 1.123c.27.056.444.321.388.591zm-2.745 4.329c-.097.259-.385.39-.644.293l-3.585-1.345c-.259-.096-.39-.385-.293-.643.097-.259.385-.39.644-.293l3.585 1.345c.259.097.39.385.293.643z" fill="#000"/><path d="m280.005 105.541c-.077.265-.353.417-.617.342-.829-.236-1.464-.425-1.983-.584l-3.302-.972c-.261-.076-.413-.348-.342-.611.072-.262.34-.419.604-.353.938.234 1.521.416 2.326.668.307.096.647.202 1.051.325l1.924.566c.264.078.416.355.339.619z" fill="#000"/></g><path d="m159.181 94.8414v-59.6315l36.353-15.9443 51.659 10.2044v57.3993l-33.483 18.4957-12.755-2.233-.46-18.1561-27.682 12.9003z" fill="#fff"/><path clip-rule="evenodd" d="m172.051 59.812c.276 0 .5.2239.5.5001-.001 10.7257 0 16.9652 0 23.4883.001 4.3593.001 8.8453.001 14.8814 0 .2762-.224.5-.5.5s-.5-.2238-.5-.5c0-6.0359 0-10.5218-.001-14.8811 0-6.5232-.001-12.7629 0-23.4887 0-.2762.224-.5.5-.5z" fill="#000" fill-rule="evenodd"/><path clip-rule="evenodd" d="m200.662 67.3052c.277 0 .5.2239.5.5-.001 10.615 0 15.927 0 21.638.001 3.9161.001 8.0197.001 14.1488 0 .277-.224.5-.5.5s-.5-.224-.5-.5c0-6.1289 0-10.2325-.001-14.1485 0-5.7111-.001-11.0234 0-21.6384 0-.2761.224-.4999.5-.4999z" fill="#000" fill-rule="evenodd"/><path clip-rule="evenodd" d="m159.375 33.8374c.276 0 .5.2239.5.5-.001 12.3396-.001 29.1577-.001 43.351v16.9222c0 .2761-.224.5-.5.5s-.5-.2239-.5-.5001c0-4.6773 0-10.5342 0-16.923 0-14.1931 0-31.0109.001-43.3501 0-.2762.223-.5.5-.5z" fill="#000" fill-rule="evenodd"/><path clip-rule="evenodd" d="m214.287 35.9697c.276 0 .5.2239.5.5001-.001 14.2673-.001 33.7128 0 50.1236v19.5676c0 .276-.224.5-.5.5s-.5-.224-.5-.5c0-5.409 0-12.1806 0-19.5675-.001-16.4108-.001-35.8564 0-50.1238 0-.2762.223-.5.5-.5z" fill="#000" fill-rule="evenodd"/><path clip-rule="evenodd" d="m246.983 25.0698c.277 0 .5.2239.5.5001v43.6305c0 6.4007.001 12.4778.001 17.9564 0 .2762-.224.5-.5.5s-.5-.2238-.5-.5c0-5.4786-.001-11.5556-.001-17.9563 0-13.9544 0-29.4471 0-43.6307 0-.2762.224-.5.5-.5z" fill="#000" fill-rule="evenodd"/><path clip-rule="evenodd" d="m197.914 18.0069c.098.2582-.032.5469-.29.6448-9.667 3.6676-32.265 13.3601-41.506 17.3237-.397.1703-.769.3301-1.115.4783-.253.1088-.547-.0087-.656-.2625s.008-.5478.262-.6566c.348-.1491.723-.3099 1.123-.4815 9.237-3.962 31.849-13.6607 41.538-17.3364.258-.0979.547.032.644.2902z" fill="#000" fill-rule="evenodd"/><path clip-rule="evenodd" d="m252.886 26.0385c.118.2498.01.5477-.239.6654-16.419 7.7361-25.356 11.9398-43.6 20.4497-.25.1168-.547.0085-.664-.2417-.117-.2503-.009-.5478.242-.6645 18.241-8.5092 27.177-12.7123 43.595-20.4481.25-.1177.548-.0106.666.2392z" fill="#000" fill-rule="evenodd"/><path clip-rule="evenodd" d="m249.81 85.2835c.129.2443.036.5467-.209.6755-7.967 4.2011-14.53 7.855-20.283 11.058-7.74 4.309-14.014 7.803-20.271 10.714-.251.117-.548.008-.664-.242-.117-.251-.008-.548.242-.665 6.235-2.901 12.454-6.364 20.156-10.653 5.75-3.2019 12.327-6.8641 20.354-11.0966.244-.1288.547-.0352.675.2091z" fill="#000" fill-rule="evenodd"/><path clip-rule="evenodd" d="m190.597 17.6948c.05-.2715.311-.4506.583-.4002 7.194 1.3376 21.787 4.1772 36.197 6.9809 8.374 1.6294 16.686 3.2468 23.448 4.5503.271.0522.448.3144.396.5856-.052.2711-.314.4486-.586.3963-6.767-1.3045-15.082-2.9225-23.458-4.5523-14.405-2.803-28.989-5.6407-36.18-6.9776-.271-.0505-.45-.3115-.4-.583zm-37.089 15.5882c.051-.2715.312-.4508.583-.4005 2.552.4731 6.101 1.1489 10.31 1.9504 15.262 2.9063 39.2 7.4649 55.75 9.998.273.0418.461.297.419.5699-.042.273-.297.4604-.57.4186-16.571-2.5363-40.542-7.1012-55.802-10.0071-4.202-.8004-7.744-1.4749-10.289-1.9465-.272-.0504-.451-.3113-.401-.5828zm16.686 31.377c.044-.2726.301-.4579.573-.4138 8.034 1.2982 13.865 2.3672 20.034 3.4983 4.419.8103 9.013 1.6524 14.713 2.6334.272.0468.455.3054.408.5776-.047.2721-.305.4548-.577.4079-5.727-.9855-10.325-1.8284-14.743-2.6386-6.155-1.1286-11.963-2.1936-19.994-3.4915-.273-.044-.458-.3007-.414-.5733z" fill="#000" fill-rule="evenodd"/><path clip-rule="evenodd" d="m158.891 94.4795c.073-.2665.347-.4239.614-.3516 3.986 1.0816 7.919 2.0267 11.896 2.8564.27.0564.443.3213.387.5916s-.321.4437-.592.3873c-3.996-.8339-7.949-1.7836-11.953-2.8702-.267-.0723-.424-.347-.352-.6135z" fill="#000" fill-rule="evenodd"/><path clip-rule="evenodd" d="m197.454 101.735c.072-.267.347-.424.613-.352 6.365 1.727 15.793 3.579 22.301 4.699.273.047.455.305.408.578-.046.272-.305.454-.577.407-6.518-1.121-15.983-2.979-22.394-4.719-.266-.072-.423-.347-.351-.613z" fill="#000" fill-rule="evenodd"/><path clip-rule="evenodd" d="m227.267 37.9146c.267.0689.428.3415.359.6089l-12.474 48.4067c-.069.2674-.342.4283-.609.3594-.268-.0689-.429-.3416-.36-.609l12.475-48.4066c.069-.2674.341-.4283.609-.3594zm-4.257 1.9133c.267.0689.428.3415.359.6089l-8.217 31.8886c-.069.2674-.342.4283-.609.3594-.268-.0689-.429-.3415-.36-.6089l8.218-31.8886c.069-.2674.342-.4283.609-.3594zm-3.755 1.7901c.268.0689.429.3416.36.609l-5.127 19.8941c-.069.2674-.341.4283-.609.3594-.267-.0689-.428-.3416-.359-.609l5.127-19.8941c.068-.2674.341-.4283.608-.3594z" fill="#000" fill-rule="evenodd"/><path clip-rule="evenodd" d="m239.622 32.1748c.268.0689.428.3416.36.609l-17.586 68.2412c-.069.268-.342.429-.609.36-.268-.069-.429-.342-.36-.609l17.586-68.2418c.069-.2674.342-.4283.609-.3594zm-4.174 1.5945c.267.0689.428.3415.359.6089l-17.833 69.1978c-.068.268-.341.429-.609.36-.267-.069-.428-.342-.359-.609l17.833-69.1983c.069-.2674.341-.4284.609-.3594zm-3.787 1.9133c.268.0689.429.3415.36.6089l-17.188 66.6965c-.069.268-.342.429-.609.36-.268-.069-.429-.342-.36-.609l17.188-66.697c.069-.2674.342-.4283.609-.3594z" fill="#000" fill-rule="evenodd"/><path clip-rule="evenodd" d="m247.264 30.2614c.267.0689.428.3416.359.609l-16.764 65.0526c-.069.2674-.341.4283-.609.3594-.267-.0689-.428-.3416-.359-.609l16.764-65.0526c.069-.2674.342-.4283.609-.3594zm-3.293 0c.267.0689.428.3416.359.609l-17.257 66.9659c-.069.2674-.342.4283-.609.3594s-.428-.3416-.359-.609l17.257-66.9659c.069-.2674.341-.4283.609-.3594zm4.016 11.7988c.268.0689.429.3415.36.6089l-13.149 51.0217c-.069.2674-.341.4283-.609.3594-.267-.0689-.428-.3416-.359-.609l13.148-51.0216c.069-.2674.342-.4283.609-.3594z" fill="#000" fill-rule="evenodd"/><path clip-rule="evenodd" d="m247.052 60.3792c.267.0689.428.3415.359.6089l-7.77 30.1512c-.069.2674-.341.4283-.609.3594-.267-.0689-.428-.3416-.359-.609l7.77-30.1511c.069-.2674.342-.4283.609-.3594zm0 13.8879c.267.0689.428.3416.359.609l-3.615 14.031c-.069.2674-.342.4283-.609.3594-.268-.0689-.429-.3416-.36-.609l3.616-14.031c.069-.2674.342-.4283.609-.3594z" fill="#000" fill-rule="evenodd"/><path clip-rule="evenodd" d="m184.186 66.7821c.117.2502.009.5478-.241.6647l-11.824 5.526c-.25.1169-.548.0089-.664-.2413-.117-.2502-.009-.5478.241-.6647l11.824-5.5259c.25-.117.548-.0089.664.2412zm-6.103-1.1706c.117.2502.009.5478-.241.6647l-5.721 2.6736c-.25.1169-.548.0089-.664-.2413-.117-.2502-.009-.5477.241-.6647l5.721-2.6736c.25-.1169.547-.0089.664.2413z" fill="#000" fill-rule="evenodd"/><path clip-rule="evenodd" d="m201.088 69.8973c.117.2502.009.5477-.241.6647l-28.381 13.2638c-.25.1169-.548.0089-.665-.2413-.117-.2501-.009-.5477.241-.6646l28.381-13.2639c.25-.1169.548-.0089.665.2413zm-6.697-.8933c.117.2501.009.5477-.241.6646l-21.684 10.1342c-.25.1169-.548.0089-.665-.2412-.117-.2502-.009-.5478.241-.6647l21.685-10.1342c.25-.1169.547-.0089.664.2413zm-5.047-1.1611c.116.2502.008.5478-.242.6647l-16.636 7.7751c-.25.1169-.548.0089-.665-.2413-.117-.2501-.009-.5477.241-.6646l16.637-7.7752c.25-.1169.548-.0088.665.2413z" fill="#000" fill-rule="evenodd"/><path clip-rule="evenodd" d="m201.364 73.3524c.117.2502.009.5477-.241.6647l-28.657 13.3928c-.25.1169-.548.0089-.665-.2413-.117-.2501-.009-.5477.241-.6646l28.657-13.3929c.25-.1169.548-.0089.665.2413zm0 3.5201c.117.2502.009.5478-.241.6647l-28.657 13.3928c-.25.1169-.548.0089-.665-.2413-.117-.2501-.009-.5477.241-.6646l28.657-13.3929c.25-.1169.548-.0089.665.2413zm-.595 4.301c.117.2502.009.5478-.241.6647l-28.062 13.1148c-.25.1169-.548.0089-.665-.2413-.117-.2501-.009-.5477.241-.6646l28.062-13.1149c.251-.1169.548-.0089.665.2413zm0 3.5908c.117.2502.009.5478-.241.6647l-28.062 13.1148c-.25.117-.548.0089-.665-.2412-.117-.2502-.009-.5478.241-.6647l28.062-13.1148c.251-.117.548-.0089.665.2412z" fill="#000" fill-rule="evenodd"/></svg>