<svg width="17" height="17" viewBox="0 0 17 17" fill="none" xmlns="http://www.w3.org/2000/svg">
<rect x="0.0117188" y="0.699219" width="16" height="16" rx="8" fill="#7D4DD3"/>
<path fill-rule="evenodd" clip-rule="evenodd" d="M8.51846 3.48479C8.22318 3.31014 7.85567 3.30921 7.55951 3.48237L3.53688 5.83422C3.39302 5.91833 3.30469 6.07186 3.30469 6.23778V10.8467C3.30469 11.1788 3.48164 11.4861 3.76973 11.6542L7.75656 13.9809C7.90317 14.0664 8.0848 14.0668 8.23174 13.9818L12.2545 11.6548C12.5443 11.4872 12.7227 11.1789 12.7227 10.8455V6.23778C12.7227 6.07271 12.6352 5.91984 12.4925 5.83543L8.51846 3.48479ZM7.52404 8.9922L4.24648 7.05973V10.8467L7.52404 12.7594V8.9922ZM11.7809 10.8455L8.46583 12.7631V8.9934L11.7809 7.05605V10.8455ZM11.3267 6.23536L7.99599 8.18186L4.70164 6.23948L8.03692 4.28949L11.3267 6.23536Z" fill="white"/>
</svg>
