<svg width="12" height="12" viewBox="0 0 12 12" fill="none" xmlns="http://www.w3.org/2000/svg">
<path fill-rule="evenodd" clip-rule="evenodd" d="M3.75 1.58356C3.75 1.58337 3.75 1.58319 3.75 1.58301C4.93087 1.58301 5.89927 2.20364 5.99263 2.99288L6.00749 2.99246C6.10152 2.20368 7.06961 1.58356 8.25 1.58356C9.46362 1.58356 10.4528 2.5894 10.4984 3.84817L10.5 3.8473C10.5 3.86475 10.4999 3.8822 10.4997 3.89965C10.4999 3.9127 10.5 3.92578 10.5 3.93888C10.5 4.02676 10.4954 4.11352 10.4864 4.19891C10.271 7.02196 7.54265 9.80775 6.26608 10.8789C6.25059 10.8919 6.22854 10.8835 6.20085 10.8558C6.06878 10.9136 5.91597 10.9117 5.78526 10.8501C5.76937 10.884 5.75228 10.8948 5.73392 10.8794C4.45708 9.80801 1.72782 7.02125 1.51342 4.19758C1.50455 4.11262 1.5 4.02631 1.5 3.93888C1.5 3.92585 1.5001 3.91284 1.5003 3.89986C1.5001 3.88251 1.5 3.86515 1.5 3.8478L1.50162 3.84867C1.54691 2.58966 2.53622 1.58356 3.75 1.58356Z" fill="#FFA86B"/>
<path d="M5.5 4.28605C5.5 4.09535 5.5817 4 5.7451 4H6.2549C6.4183 4 6.5 4.09535 6.5 4.28605L6.39706 6.73764C6.39706 6.89366 6.32353 6.97168 6.17647 6.97168H5.82353C5.67647 6.97168 5.60294 6.89366 5.60294 6.73764L5.5 4.28605ZM5.72549 9C5.57843 9 5.5049 8.92199 5.5049 8.76596V8.13146C5.5049 7.97544 5.57843 7.89742 5.72549 7.89742H6.27451C6.42157 7.89742 6.4951 7.97544 6.4951 8.13146V8.76596C6.4951 8.92199 6.42157 9 6.27451 9H5.72549Z" fill="white"/>
</svg>
