<svg width="12" height="12" viewBox="0 0 12 12" fill="none" xmlns="http://www.w3.org/2000/svg">
<path fill-rule="evenodd" clip-rule="evenodd" d="M7.83268 6.17818C7.88253 6.0623 7.87078 5.92913 7.80141 5.82377C7.73205 5.71841 7.61435 5.65499 7.48821 5.65499L5.32215 5.65497C5.21558 5.65497 5.143 5.54695 5.18327 5.44829L6.5266 2.15704C6.53632 2.13324 6.55188 2.11226 6.57232 2.09667C6.98433 1.78236 7.5833 1.58453 8.25 1.58453C9.46333 1.58453 10.4523 2.58989 10.4983 3.84823C10.4983 3.84865 10.4988 3.84892 10.4992 3.84872C10.4995 3.84852 10.5 3.84879 10.5 3.84922C10.5 3.86635 10.4999 3.88349 10.4997 3.90062C10.4999 3.91368 10.5 3.92676 10.5 3.93986C10.5 4.02774 10.4954 4.1145 10.4864 4.19988C10.2725 7.00305 7.58095 9.76949 6.29326 10.857C6.28696 10.8623 6.28146 10.868 6.2759 10.8741C6.17781 10.9819 6.03076 11.018 5.89988 10.9824C5.83061 10.9635 5.80859 10.8833 5.83696 10.8174L7.83268 6.17818ZM5.28235 10.2087C5.24132 10.3041 5.1185 10.3302 5.04355 10.2584C3.665 8.93653 1.69429 6.58068 1.51342 4.19855C1.50455 4.1136 1.5 4.02728 1.5 3.93986C1.5 3.92683 1.5001 3.91382 1.5003 3.90084C1.5001 3.88379 1.5 3.86675 1.5 3.84971C1.5 3.84929 1.50045 3.84902 1.50083 3.84922C1.50119 3.84941 1.50164 3.84915 1.50165 3.84874C1.54738 2.59025 2.53636 1.58469 3.74972 1.58453C3.74988 1.58453 3.75 1.58441 3.75 1.58426C3.75 1.58411 3.75012 1.58398 3.75028 1.58398C4.5107 1.58405 5.18299 1.84147 5.59021 2.23553C5.63199 2.27597 5.64267 2.33802 5.6207 2.39185L4.19363 5.88826C4.14643 6.00389 4.15991 6.13544 4.22957 6.23911C4.29922 6.34278 4.41592 6.40496 4.54082 6.40496L6.69084 6.40498C6.79862 6.40498 6.87122 6.51526 6.82863 6.61426L5.28235 10.2087Z" fill="#CF2318"/>
</svg>
