<svg fill="none" height="201" viewBox="0 0 320 201" width="320" xmlns="http://www.w3.org/2000/svg"><path d="m0 .616455h320v199.659h-320z" fill="#fff"/><path clip-rule="evenodd" d="m167.563 97.7859c.115.2311.022.5122-.21.6278-2.19 1.0932-4.401 2.1863-6.607 3.2703 9.167.68 22.05 1.495 30.733 2.007-.9-1.182-1.8-2.374-2.679-3.544-.156-.207-.114-.5003.093-.6554.207-.155.501-.1131.657.0936 1.037 1.3818 2.103 2.7908 3.162 4.1788 1.942.113 3.631.208 4.963.28.258.014.456.234.443.492-.014.259-.235.456-.494.443-1.145-.062-2.555-.141-4.162-.234 2.875 3.754 5.637 7.265 7.578 9.547 1.244-.621 2.388-1.206 3.381-1.735.228-.121.512-.035.634.193s.035.511-.193.633c-.676.36-1.421.746-2.219 1.151 9.385.376 21.973.926 30.854 1.349-.509-.549-1.024-1.102-1.541-1.658-.176-.19-.165-.486.024-.662.19-.175.487-.165.663.025.739.795 1.472 1.583 2.193 2.359 2.329.112 4.352.214 5.926.298.258.014.456.235.442.493-.013.258-.234.456-.493.442-1.352-.073-3.037-.158-4.963-.252 3.981 4.283 7.555 8.121 9.99 10.639.92-.475 1.833-.953 2.746-1.439.229-.122.513-.035.635.193.121.228.035.511-.193.633-.834.443-1.667.881-2.506 1.314.266.271.513.521.742.75.183.183.183.479 0 .662-.183.182-.48.182-.663 0-.288-.288-.605-.61-.95-.963-5.062 2.596-10.35 5.105-16.869 8.198h-.001l-1.235.586c2.087.102 3.906.193 5.349.271.258.014.456.234.442.493-.014.258-.234.455-.493.442-1.83-.099-4.268-.22-7.09-.355l-.122.058.9.969.069.074c4.395 4.728 8.363 8.998 10.962 11.678 1.109-.577 2.135-1.115 3.055-1.606.229-.121.513-.035.635.193.121.228.035.512-.193.633-.854.455-1.798.951-2.814 1.48.205.208.398.403.58.584.183.183.183.479 0 .662s-.48.183-.663 0c-.242-.241-.505-.507-.786-.795-5.89 3.049-13.903 7.05-21.134 10.555 1.525.075 2.874.144 3.995.204.259.014.457.235.443.493s-.235.456-.493.442c-1.524-.082-3.469-.18-5.706-.288-1.18.568-2.332 1.12-3.442 1.647-.233.111-.513.012-.624-.221-.112-.233-.012-.513.221-.624.615-.292 1.242-.591 1.879-.896-9.804-.465-23.889-1.076-33.298-1.443l.1.117c.168.196.146.491-.051.66-.197.168-.493.145-.661-.051-.054-.063-.109-.128-.165-.193l-.126-.148c-6.081 3.185-15.28 7.79-23.414 11.727l.182.01c.258.013.457.234.443.492s-.235.456-.494.442c-.563-.03-1.19-.065-1.873-.103-1.046.503-2.067.992-3.056 1.462-.234.111-.513.012-.625-.222-.111-.233-.012-.512.222-.623.5-.238 1.008-.481 1.524-.727-8.642-.499-23.377-1.421-33.447-2.171l.169.253c.144.215.086.505-.13.649-.215.143-.506.085-.65-.13-.19-.285-.382-.572-.577-.861-1.378-.105-2.653-.205-3.794-.3-.258-.022-.45-.248-.428-.506.021-.257.248-.448.506-.427.931.078 1.953.159 3.047.243-2.325-3.429-5.022-7.272-8.546-12.208-1.43.705-2.814 1.389-4.139 2.051-.231.115-.513.021-.629-.21-.115-.231-.021-.512.21-.628 1.04-.518 2.115-1.051 3.22-1.597l-1.434-.081h-.01-.001c-8.1315-.459-19.516-1.102-30.5329-1.172.259.384.5136.763.7645 1.139.1436.215.0854.505-.13.649-.2155.143-.5065.085-.6501-.13-.3643-.546-.7366-1.099-1.1188-1.664-.2783 0-.5563-.001-.8339-.001-.2589 0-.4688-.209-.4688-.468 0-.258.2099-.468.4688-.468h.1972c-2.2742-3.335-4.918-7.092-8.3268-11.863-.8046.344-1.6254.697-2.4659 1.062-.2374.103-.5135-.005-.6167-.242-.1033-.237.0055-.513.2429-.616.7771-.337 1.5369-.665 2.2823-.984l-.133-.186c-.1505-.21-.1017-.503.109-.653s.5034-.101.6539.109l.2523.353c2.2773-.972 4.4268-1.873 6.5324-2.755v-.001h.0001.0001.0001.0001.0002.0002c6.0637-2.541 11.7638-4.931 19.1061-8.415-.0158-.05-.0235-.103-.0217-.157.0023-.071.0204-.138.0508-.198-2.1004-3.075-4.5187-6.517-7.5601-10.78-.8534.365-1.7249.74-2.6186 1.128-.2374.103-.5136-.006-.6168-.243s.0056-.512.243-.615c.8304-.361 1.6411-.71 2.4356-1.05-.2478-.347-.4996-.699-.7556-1.057-.1504-.21-.1016-.503.109-.653.2107-.15.5034-.101.6539.109.2972.415.5887.823.8749 1.224 2.2197-.947 4.3192-1.827 6.3767-2.689h.0007l.0007-.001h.0001.0008.0001.0001.0001c4.8632-2.038 9.4924-3.979 14.922-6.465-.035-.066-.055-.141-.055-.221 0-.258.21-.468.469-.468.358 0 .718.001 1.077.002 1.243-.577 2.531-1.183 3.874-1.827.233-.112.513-.013.625.22s.014.512-.219.624c-.716.343-1.416.675-2.102.998 10.64.11 21.489.722 29.305 1.163l.001.001.605.034c-.538-.755-1.096-1.536-1.675-2.346-.151-.21-.102-.503.109-.653s.503-.101.654.109c.646.904 1.266 1.772 1.862 2.608 3.745-1.861 7.909-3.891 12.261-6.013h.001l.002-.001.757-.369c1.9-.927 3.834-1.87 5.782-2.823-.655-.052-1.277-.102-1.864-.151-.258-.021-.45-.248-.428-.505.021-.258.248-.449.506-.428 1.042.087 2.196.179 3.439.274 2.676-1.313 5.369-2.6411 8.03-3.9694.231-.1156.513-.0219.629.2093zm31.382 17.5391c-.139-.006-.277-.011-.414-.016-.259-.01-.461-.228-.451-.486s.228-.46.487-.45c.442.017.895.035 1.361.053-2.042-2.433-4.839-6.006-7.701-9.753-9.177-.538-23.644-1.452-33.139-2.175-2.43 1.192-4.845 2.37-7.208 3.522l-.755.368-.001.001c-4.02 1.959-7.876 3.839-11.389 5.58.407.022.802.044 1.185.065.258.013.456.234.442.492s-.234.456-.493.442c-.475-.025-.968-.053-1.479-.081 2.844 4.005 5.118 7.267 7.126 10.242.318.024.64.049.968.073 2.129-.962 4.373-2.004 6.799-3.167.234-.111.514-.013.626.22s.013.512-.22.624c-1.848.886-3.592 1.702-5.26 2.466 8.906.648 20.728 1.396 28.971 1.884-.033-.168.028-.341.158-.45l-.557-.599-.001-.001c-.754-.811-1.52-1.636-2.294-2.468-.177-.189-.166-.486.024-.661.19-.176.486-.165.663.024.735.791 1.464 1.575 2.181 2.347l.025.026.017.019.062.066.009.01c.256.275.51.549.763.82 3.849-1.717 12.629-5.689 19.495-9.037zm-18.822 9.762c4.3-1.921 13.891-6.268 20.788-9.686 9.842.389 24.057 1.009 33.498 1.462 4.13 4.444 7.884 8.481 10.459 11.151-4.97 2.542-10.176 5.012-16.59 8.055v.001l-.066.031c-.892.423-1.808.858-2.75 1.305l-.906-.043-.351-.378c-.176-.189-.473-.2-.663-.024-.1.093-.151.22-.149.347-9.746-.456-22.885-1.023-31.76-1.368 1.056-.712 2.147-1.456 3.278-2.237.213-.147.266-.439.119-.651-.147-.213-.439-.266-.652-.119-1.459 1.008-2.848 1.951-4.184 2.846-2.086-2.129-5.264-5.526-8.91-9.444 1.394.08 2.625.149 3.646.204.259.014.48-.184.494-.442s-.185-.479-.443-.493c-1.253-.067-2.821-.156-4.619-.26-.079-.086-.159-.171-.239-.257zm34.064 37.655c7.508-3.621 16.123-7.913 22.406-11.162-2.611-2.7-6.499-6.883-10.779-11.488l-.001-.001c-.555-.598-1.117-1.202-1.684-1.811-10.008-.471-23.971-1.074-33.08-1.426-.005.113-.05.225-.137.312-.183.183-.48.183-.663 0-.058-.059-.118-.118-.179-.179-5.021 3.342-9.328 6.01-13.841 8.806h-.001c-1.798 1.114-3.63 2.249-5.552 3.454.692.053 1.327.101 1.896.143.258.019.452.243.433.501s-.244.451-.502.432c-.83-.061-1.8-.135-2.882-.218 3.16 4.166 6.361 8.288 8.68 11.078l.44.017c.288-.152.567-.3.838-.444.228-.122.512-.036.634.192.053.1.067.209.046.312 9.971.393 24.467 1.025 33.928 1.482zm-36.732-1.111c-.001.078.017.152.051.218-6.458 3.376-16.278 8.281-24.638 12.307-8.474-.478-25.115-1.512-35.857-2.321-2.381-3.529-5.135-7.46-8.771-12.555l.285.015c.259.014.48-.184.493-.442.004-.057-.004-.113-.02-.165 2.382-1.168 4.877-2.385 7.439-3.634l.755-.368c5.039-2.456 10.314-5.031 15.473-7.606.062-.031.114-.074.154-.124.35.034.708.069 1.074.104.537.656 1.036 1.253 1.487 1.779.169.196.465.219.661.051.197-.169.22-.464.051-.66-.276-.322-.57-.671-.88-1.044 9.709.92 23.821 2.091 32.574 2.776-.316.201-.635.404-.958.609-.218.139-.282.428-.143.646.14.218.429.282.648.143.47-.3.934-.595 1.393-.885 3.153 4.16 6.369 8.307 8.729 11.156zm-29.803-37.478c9.622.717 23.517 1.592 32.279 2.103 3.85 4.14 7.244 7.774 9.47 10.051-4.939 3.284-9.185 5.914-13.644 8.677h-.001c-2.134 1.322-4.317 2.674-6.648 4.143l-.242-.019c-.454-.6-.904-1.198-1.35-1.791-.155-.207-.449-.249-.656-.094-.207.156-.249.449-.094.656.282.375.566.753.852 1.131-9.052-.71-23.622-1.921-33.246-2.844-2.542-3.116-5.886-7.458-9.069-11.677l.097.005c.259.014.48-.184.494-.442.011-.208-.115-.391-.299-.462 3.111-1.343 5.962-2.538 8.74-3.703 3.997-1.675 7.845-3.288 12.106-5.19l.155.231c.143.215.434.273.65.13.215-.144.273-.434.13-.649l-.068-.101zm-10.427-11.387-.391-.022c-8.301-.469-19.991-1.128-31.219-1.176-6.023 2.789-11.0225 4.884-16.2797 7.088h-.0002-.0003-.0006l-.0003.001c-1.9931.835-4.0233 1.686-6.1603 2.596 3.0825 4.323 5.5255 7.802 7.6498 10.919l.2325.008c.1097-.037.2259-.031.3277.011 13.0074.423 24.0474.854 32.1764 1.269.023-.106.083-.204.176-.275.155-.115.358-.121.516-.031.015-.008.031-.016.047-.023 3.496-1.517 6.642-2.836 9.697-4.117 3.874-1.623 7.599-3.185 11.698-5.009-1.077-.083-2.083-.163-3.001-.24-.258-.021-.45-.247-.428-.505.021-.257.248-.449.506-.427.789.065 1.644.134 2.552.205-2.003-2.954-4.283-6.215-7.13-10.218l-.153-.008-.218.108c-.213.106-.467.036-.597-.154zm-13.144 21.658c-8.145-.422-19.348-.862-32.6073-1.294.3608.533.7129 1.057 1.058 1.574.1436.215.0854.505-.13.649-.2154.143-.5065.085-.6501-.13-.3876-.581-.7842-1.17-1.1923-1.772-7.525 3.581-13.3373 6.017-19.5043 8.602h-.0001-.0001l-.0001.001h-.0002-.0002c-2.0408.855-4.1204 1.727-6.3138 2.662 3.5333 4.947 6.245 8.806 8.5799 12.243 11.2427.05 22.9403.71 31.2276 1.178.618.035 1.217.068 1.795.101l-.052-.073c-.15-.21-.101-.503.109-.653.211-.15.504-.101.654.109l.489.683.101.006c2.662-1.308 5.475-2.68 8.372-4.092l.001-.001.005-.002h.001l.001-.001.757-.369c4.682-2.283 9.565-4.665 14.367-7.055-.28-.029-.553-.057-.819-.084-.257-.027-.444-.257-.417-.514.026-.257.257-.444.514-.417.814.084 1.697.173 2.637.265-2.603-3.227-5.897-7.518-8.982-11.616z" fill="#6938c0" fill-rule="evenodd" opacity=".5"/><path clip-rule="evenodd" d="m78.1641 24.5971c.2745-.0302.5216.1674.5519.4414.0057.0516.0063.141.0066.2179.0004.0937-.0001.2217-.0012.3808-.0024.3185-.0076.7673-.0151 1.3269-.0134 1.0061-.0343 2.3737-.059 3.9929-.0028.1822-.0056.3674-.0085.5558-.0568 3.7261-.1306 8.6397-.1826 13.5401-.052 4.9012-.082 9.786-.0512 13.4556.0154 1.8358.0459 3.3618.0962 4.4318.0252.5369.0549.9485.0886 1.2238.0046.038.0092.0721.0136.1025 1.2386.2629 2.4973.3548 3.8009.45.1542.0113.309.0226.4645.0342 1.4509.1087 2.9013.1692 4.361.2301.4252.0177.8512.0355 1.2782.0545 1.8871.084 3.7866.1919 5.6843.4287.2794.0348.6083.1148.8912.1836.031.0076.0615.015.0913.0222.3383.0818.5678.1302.689.1302.2761 0 .5.2235.5.4992s-.2239.4991-.5.4991c-.2677 0-.6303-.0872-.9243-.1582-.0283-.0069-.0563-.0137-.0842-.0204-.2976-.0722-.5683-.1378-.7871-.1651-1.8562-.2317-3.7227-.3382-5.6048-.422-.4206-.0187-.8424-.0363-1.265-.0539-1.4627-.061-2.9353-.1225-4.4044-.2325-.1551-.0116-.3109-.0229-.4671-.0343-1.3875-.101-2.8146-.2048-4.2218-.5336-.241-.0563-.343-.2512-.3633-.29l-.0006-.0011c-.0364-.0695-.0585-.1411-.0727-.1948-.0299-.1123-.0525-.2535-.0713-.4074-.0384-.3133-.0694-.7549-.0949-1.298-.0512-1.0899-.0819-2.6315-.0973-4.4702-.0308-3.6796-.0007-8.5723.0513-13.4745.052-4.903.1259-9.8187.1826-13.5448.0029-.1883.0057-.3736.0085-.5556.0247-1.6196.0456-2.9862.059-3.9913.0075-.5592.0127-1.0054.015-1.3208.0011-.1579.0016-.2815.0012-.3695-.0002-.0526-.0008-.0844-.0011-.1012-.0002-.0166-.0003-.0185.0005-.0112-.0303-.274.1677-.5206.4421-.5509z" fill="#b0b1c4" fill-rule="evenodd"/><path clip-rule="evenodd" d="m93.0779 62.7406c.2762 0 .5.2235.5.4991v.7477c.1698.059.3913.1594.6515.2773.0252.0114.0507.023.0765.0347.3829.1732 1.0433.4012 1.7197.6348.3106.1072.6247.2156.9168.3205.4331.1554.8509.3145 1.0769.4458.0542.0315.1413.0857.2133.1641.0355.0388.101.1191.1326.2391.0381.1453.0148.3091-.0835.4441-.0813.1117-.1849.1635-.2389.1861-.0601.0251-.1172.038-.1595.0454-.0851.0148-.179.019-.2704.019h-2.1421c-.1488.0243-.3018.0523-.4585.081-.4521.0827-.9346.171-1.4344.1923v.157l-1 .0003v-.1581c-.1121.0033-.202.0023-.2708-.0026-.0439-.0032-.122-.0103-.2005-.0367-.032-.0108-.1301-.0453-.2176-.1364-.0499-.0519-.105-.1316-.1296-.2401-.0253-.1114-.0097-.2148.0221-.2964.0545-.14.1542-.214.1829-.2347.0418-.0304.0814-.0503.1062-.0618.0512-.0238.1046-.0414.148-.0543.0908-.0271.2143-.0551.3593-.0815v-.2916c0-.2311-.008-.4145-.015-.577-.0031-.0714-.0061-.1387-.0081-.2043-.003-.0983-.0043-.206.006-.3043.0031-.0297.0079-.0675.0171-.1101v-1.1993c0-.2756.2239-.4991.5-.4991zm1.9809 3.0594h-1.1141c-.12 0-.2433.0037-.3668.0105v-.7439c.0802.0357.1731.0777.2816.1268.011.005.0222.0101.0335.0152.3459.1565.8997.3548 1.4708.5534-.0408.005-.0824.0102-.1243.0154-.0587.0073-.1191.0148-.1807.0226z" fill="#b0b1c4" fill-rule="evenodd"/><path clip-rule="evenodd" d="m253.223 100.341c11.033 11.654 19.197 26.392 23.085 33.902.127.245.031.546-.214.673-.245.126-.547.031-.674-.214-3.88-7.493-11.991-22.128-22.923-33.675-10.945-11.5614-24.572-19.8842-39.538-15.1499-23.902 9.9798-37.473 30.2909-41.778 36.7379-.153.229-.463.291-.693.138s-.292-.463-.139-.692l.006-.008c4.319-6.468 18.036-27.0082 42.238-37.1055l.021-.0085.021-.0067c15.553-4.932 29.573 3.7735 40.588 15.4087z" fill="#b0b1c4" fill-rule="evenodd"/><path clip-rule="evenodd" d="m67.9138 24.2803c.2761.001.4992.2252.4982.5009-.0341 9.5189-.0911 19.0344-.3437 28.5562-.0446 1.6812-.0317 3.2417-.0169 5.0383.0083.9931.0171 2.0584.0171 3.2561 0 .9933.2371 2.8634.9062 4.4673.6782 1.6259 1.7075 2.7837 3.206 2.7837h.0748l.0716.0218c1.0122.3093 2.6289.4705 4.6048.5275 1.962.0566 4.2302.0098 6.519-.0767 1.7497-.0661 3.5178-.156 5.1659-.2397 2.6384-.1341 4.9691-.2525 6.4234-.2329.3124.0042.6334.0078.9603.0114 1.7507.0193 3.6723.0406 5.3595.1757 1.002.0802 1.94.2019 2.723.3927.766.1866 1.46.4565 1.902.8834.805.7776 1.116 1.8091 1.244 2.9013.091.7807.093 1.6513.095 2.5318.001.3326.002.6667.008.9979.054 3.196.035 8.5051.017 13.7127-.009 2.5651-.017 5.1056-.017 7.3568 0 .2757-.224.4991-.5.4991-.277 0-.5-.2234-.5-.4991 0-2.2616.008-4.8087.017-7.3775.018-5.2004.037-10.4892-.017-13.6752-.007-.3696-.007-.7264-.008-1.0713-.002-.8566-.004-1.6391-.088-2.3593-.117-.9935-.382-1.7545-.946-2.2998-.243-.2344-.717-.4539-1.444-.6309-.709-.1728-1.587-.2891-2.566-.3675-1.6494-.1321-3.5294-.153-5.2815-.1724-.3292-.0037-.654-.0073-.9718-.0116-1.4261-.0192-3.6951.0963-6.2992.2288-1.6544.0843-3.444.1754-5.2387.2432-2.2964.0868-4.5906.1345-6.5857.077-1.9412-.056-3.6462-.2122-4.798-.5497-2.0868-.039-3.3419-1.6915-4.0536-3.3974-.7293-1.7484-.983-3.7533-.983-4.8511 0-1.1768-.0087-2.2336-.0169-3.2243-.0149-1.81-.028-3.3993.017-5.0965.2523-9.5094.3093-19.0149.3434-28.5334.001-.2756.2256-.4983.5018-.4973z" fill="#000" fill-rule="evenodd"/><path clip-rule="evenodd" d="m112.989 95.8374c2.874-.1712 5.884-.2187 6.797-.2187.942 0 2.613.1653 3.904.4873.629.1567 1.249.3692 1.634.6681.195.1512.407.3847.442.7133.035.344-.139.6269-.352.8335l-.076.0737-.1.0366c-4.969 1.8278-10.55 1.7048-14.669 1.2253.037.0184.067.0321.087.0412.003.0014.006.0026.008.0036.215.0684.363.2766.346.5107-.019.275-.259.482-.534.463-.065-.005-.116-.022-.124-.025h-.001c-.017-.005-.033-.011-.043-.015-.021-.009-.043-.018-.063-.027-.042-.019-.095-.044-.156-.075-.123-.06-.289-.146-.481-.25-.383-.208-.881-.4957-1.359-.8124-.09-.0593-.179-.1204-.269-.1828-.022-.0038-.044-.0075-.067-.0113-.186-.0314-.33-.1618-.388-.3279-.208-.1657-.399-.3361-.555-.5055-.162-.1754-.317-.3828-.399-.612-.088-.2473-.099-.5549.1-.8298m1.703 1.3398c4.05.6609 10.628 1.2555 16.335-.78-.206-.1592-.643-.3324-1.261-.4865-1.205-.3005-2.794-.4576-3.662-.4576-.897 0-3.887.0471-6.737.217-1.427.085-2.807.2001-3.87.3534-.533.077-.971.1615-1.29.2521-.153.0435-.266.085-.344.1217.031.0502.081.1192.161.2064.163.1771.396.373.668.5735zm16.403-.8082s0 .0013-.002.0038c.001-.0025.002-.0037.002-.0038zm-11.788-1.6955c-1.435.0856-2.849.2026-3.953.362zm-3.953.362c-.55.0795-1.039.1715-1.421.2799zm-1.421.2799c-.19.0541-.367.1161-.518.1893zm-.518.1893c-.139.0678-.31.1707-.426.3327z" fill="#000" fill-rule="evenodd"/><path clip-rule="evenodd" d="m117.737 59.3158c.038-.273.291-.4634.564-.4253 2 .2785 3.469 1.2388 4.526 2.6407 1.046 1.3864 1.678 3.1866 2.064 5.1459.652 3.311.625 7.217.602 10.6248-.005.6135-.009 1.2109-.009 1.7858v17.8015c0 .2756-.224.4991-.5.4991s-.5-.2235-.5-.4991v-17.8016c0-.5897.004-1.1973.008-1.8172.023-3.4136.048-7.1984-.583-10.4007-.371-1.8861-.962-3.5209-1.88-4.7379-.907-1.2013-2.143-2.0126-3.866-2.2526-.273-.0381-.464-.2903-.426-.5634z" fill="#000" fill-rule="evenodd"/><path clip-rule="evenodd" d="m84.2608 56.9995c-.0602-.2082-.2525-.3605-.4805-.3605-.2762 0-.5.2235-.5.4991 0 .2561.1303.45.2715.5772.1342.1208.3015.2053.4644.2686.3283.1275.7752.2197 1.2954.2911 1.0502.1442 2.5353.2208 4.2995.2641 1.9251.0472 4.2223.0551 6.6947.0637 2.051.007 4.2222.0145 6.4022.0452 4.831.068 9.736.2496 13.624.7865 1.945.2686 3.613.6233 4.881 1.0868 1.292.4721 2.062 1.0193 2.366 1.5995.128.2442.431.3385.675.2105.245-.1279.339-.4295.211-.6737-.486-.9266-1.566-1.5832-2.908-2.0737-1.365-.499-3.113-.8655-5.088-1.1383-3.954-.546-8.912-.7278-13.747-.7958-2.208-.0311-4.3844-.0385-6.4328-.0454-2.4565-.0084-4.7291-.0161-6.6535-.0633-1.7615-.0432-3.1979-.1191-4.1878-.2551-.4999-.0686-.8528-.1485-1.0691-.2325-.0554-.0215-.0933-.0401-.118-.054z" fill="#000" fill-rule="evenodd"/><path clip-rule="evenodd" d="m83.9163 25.011c.2761 0 .5.2235.5.4991v32.6758c0 .2757-.2239.4991-.5.4991-.2762 0-.5-.2234-.5-.4991v-32.6758c0-.2756.2238-.4991.5-.4991z" fill="#000" fill-rule="evenodd"/><path d="m108.302 104.151c1.12-1.162 2.552-1.9 3.956-2.133 3.891-1.518 11.705.2 11.705 8.054 0 5.762-4.102 9.814-8.685 9.765-3.137-.033-7.304-3.413-8.531-7.118-1.236-3.734-.245-6.7 1.555-8.568z" fill="#ae82fc"/><path clip-rule="evenodd" d="m119.794 102.084c2.598 1.301 4.669 3.861 4.669 7.988 0 5.996-4.287 10.317-9.19 10.265-1.727-.019-3.661-.946-5.296-2.298-1.642-1.357-3.056-3.203-3.705-5.163-.742-2.242-.719-4.239-.198-5.913-.503.655-.927 1.375-1.24 2.162-.102.256-.393.382-.65.28-.256-.102-.382-.392-.28-.648.842-2.117 2.385-3.757 4.069-4.984 1.174-1.205 2.668-1.98 4.152-2.239 2.082-.793 5.128-.722 7.669.55zm-11.162 2.445c1.25-.9 2.6-1.575 3.808-2.046 1.808-.705 4.586-.667 6.905.494 2.281 1.142 4.118 3.368 4.118 7.095 0 5.528-3.916 9.312-8.18 9.266-1.41-.015-3.128-.794-4.668-2.067-1.532-1.267-2.816-2.964-3.393-4.708-1.173-3.542-.239-6.301 1.41-8.034z" fill="#000" fill-rule="evenodd"/><path d="m107.736 62.1484c1.12-1.1621 2.552-1.8995 3.956-2.133 3.891-1.5178 11.705.1999 11.705 8.0546 0 5.7616-4.102 9.8139-8.685 9.765-3.137-.0335-7.304-3.4136-8.531-7.1181-1.237-3.7343-.245-6.7003 1.555-8.5685z" fill="#fafbfc"/><path clip-rule="evenodd" d="m119.228 60.0819c2.598 1.301 4.668 3.8606 4.668 7.9881 0 5.9959-4.286 10.3165-9.189 10.2642-1.728-.0185-3.662-.9459-5.296-2.2972-1.642-1.3577-3.056-3.203-3.705-5.1634-.742-2.2424-.719-4.2392-.198-5.9128-.503.6552-.927 1.3749-1.241 2.1619-.102.2562-.392.3814-.649.2797-.257-.1018-.382-.392-.28-.6482.842-2.1167 2.385-3.7567 4.069-4.9839 1.173-1.2046 2.668-1.9799 4.152-2.2386 2.082-.7929 5.128-.7219 7.669.5502zm-11.162 2.4443c1.25-.8998 2.6-1.5745 3.808-2.0459 1.808-.7051 4.586-.6671 6.905.4939 2.281 1.1421 4.117 3.3687 4.117 7.0958 0 5.5273-3.915 9.3114-8.179 9.2659-1.41-.015-3.128-.7944-4.668-2.0677-1.532-1.2668-2.816-2.9638-3.393-4.7079-1.173-3.5417-.239-6.3008 1.41-8.0341z" fill="#000" fill-rule="evenodd"/><path d="m69.9512 29.6212c1.034-1.0731 2.357-1.7541 3.6534-1.9698 3.5933-1.4016 10.8089.1847 10.8089 7.4384 0 5.3207-3.7875 9.063-8.0201 9.0178-2.8972-.0309-6.7456-3.1524-7.8784-6.5734-1.1418-3.4487-.2262-6.1876 1.4362-7.913z" fill="#fff"/><path clip-rule="evenodd" d="m80.5806 27.6787c2.4117 1.2075 4.3328 3.584 4.3328 7.4111 0 5.555-3.9729 9.5656-8.5253 9.517-1.6072-.0172-3.4015-.8793-4.9145-2.1301-1.5209-1.2574-2.8311-2.9672-3.4333-4.7859-.6583-1.9879-.6671-3.7689-.244-5.2791-.4068.5564-.7519 1.1615-1.0128 1.8174-.102.2562-.3926.3814-.6493.2796-.2566-.1017-.382-.3919-.2801-.6481.7808-1.9623 2.2099-3.4815 3.7678-4.6175 1.088-1.1156 2.4732-1.8345 3.8493-2.0753 1.9334-.7348 4.7554-.6677 7.1094.5109zm-10.2995 2.3203c1.1504-.8276 2.3927-1.4486 3.5055-1.8826 1.6587-.6471 4.2135-.6129 6.3457.4547 2.0944 1.0486 3.7811 3.0921 3.7811 6.5187 0 5.0864-3.602 8.5605-7.5147 8.5187-1.29-.0137-2.8685-.7278-4.2873-1.9007-1.4108-1.1664-2.5911-2.7279-3.1217-4.3303-1.078-3.2559-.2201-5.7881 1.2914-7.3785z" fill="#000" fill-rule="evenodd"/><path d="m118.104 131.353c.084-.341.203-.652.351-.939.028-.102.058-.205.093-.312.802-2.462 2.709-4.492 5.214-5.245 4.843-1.456 13.235 1.173 12.367 7.424-.694 4.987-4.079 9.149-9.255 8.594-2.701-.29-4.887-1.022-6.628-3.309-1.119-1.469-2.647-4.171-2.142-6.213z" fill="#cfb4ff"/><path clip-rule="evenodd" d="m132.305 125.23c2.711 1.313 4.794 3.704 4.319 7.119-.359 2.579-1.416 4.973-3.086 6.658-1.681 1.696-3.969 2.659-6.718 2.364-2.771-.297-5.114-1.063-6.973-3.503-.578-.759-1.265-1.84-1.744-3.004-.473-1.151-.775-2.457-.485-3.631.089-.36.214-.692.368-1 .026-.094.055-.189.087-.285.847-2.601 2.867-4.764 5.544-5.569 2.553-.767 5.991-.455 8.688.851zm-12.581 10.653c.304.522.626.996.92 1.381 1.625 2.135 3.653 2.832 6.283 3.114 2.428.261 4.421-.58 5.9-2.073 1.49-1.503 2.471-3.684 2.806-6.093.394-2.835-1.285-4.883-3.764-6.084-2.493-1.207-5.672-1.481-7.963-.793-1.469.442-2.725 1.358-3.642 2.556.062-.039.124-.078.187-.115.48-.292.979-.55 1.459-.792.083-.042.165-.084.246-.125.394-.198.769-.386 1.119-.581.241-.135.545-.049.68.191.135.241.049.545-.192.68-.371.207-.769.407-1.163.605-.08.04-.16.081-.239.121-.477.24-.946.483-1.39.753-.873.531-1.604 1.141-2.047 1.968-.366 1.415.021 2.281.584 3.542.149.334.311.697.474 1.104.1.25-.015.531-.258.641z" fill="#000" fill-rule="evenodd"/><path d="m110.191 141.594c.52-1.116 1.206-1.929 2.052-2.158 3.458-2.2 13.794-1.964 15.399 3.211 2.48 7.994-6.419 12.206-11.667 12.007-2.542-.096-5.833-.795-6.679-4.07-.61-2.361-.286-6.457.895-8.99z" fill="#ae82fc"/><path clip-rule="evenodd" d="m125.294 139.22c1.324.759 2.377 1.832 2.826 3.28.65 2.097.561 3.973-.048 5.599-.607 1.619-1.716 2.959-3.056 4.016-2.666 2.103-6.321 3.142-9.06 3.038-1.299-.049-2.837-.253-4.173-.892-1.354-.648-2.505-1.748-2.971-3.552-.089-.346-.159-.724-.21-1.125-1.542-2.888-.292-6.136 1.153-8.239.524-1.11 1.266-2.059 2.282-2.369.946-.582 2.293-.981 3.776-1.188 1.525-.213 3.237-.228 4.891-.007 1.651.221 3.269.682 4.59 1.439zm-14.668 2.622c-.548 1.195-.909 2.775-1.056 4.358-.149 1.601-.075 3.153.21 4.259.38 1.471 1.298 2.358 2.436 2.902 1.156.553 2.535.747 3.778.794 2.508.095 5.928-.872 8.403-2.824 1.231-.97 2.209-2.17 2.738-3.582.526-1.406.619-3.054.03-4.954-.354-1.14-1.196-2.037-2.369-2.709-1.176-.674-2.66-1.106-4.225-1.315-1.563-.21-3.184-.195-4.62.005-1.445.202-2.66.585-3.44 1.081-.489.312-1.209 1.017-1.885 1.985z" fill="#000" fill-rule="evenodd"/><path d="m146.964 148.601c-1.219 7.722-17.84 8.764-19.763.719-2.117-2.451-2.821-5.482 0-8.667 3.23-3.648 10.673-2.391 14.488-.565 3.146 1.506 5.854 4.84 5.275 8.513z" fill="#ae82fc"/><path clip-rule="evenodd" d="m134.241 137.819c2.813.089 5.696.877 7.664 1.819 3.259 1.559 6.18 5.068 5.552 9.041-.334 2.117-1.721 3.741-3.567 4.851-1.844 1.109-4.18 1.729-6.52 1.842-2.339.113-4.723-.278-6.663-1.237-1.911-.944-3.414-2.454-3.963-4.581-1.061-1.256-1.799-2.695-1.894-4.263-.097-1.618.496-3.297 1.976-4.969 1.762-1.99 4.618-2.591 7.415-2.503zm-5.262 13.824c.584.646 1.322 1.178 2.171 1.597.425.21.876.391 1.346.543-1.212-.588-2.426-1.309-3.517-2.14zm7.995 2.745c.116-.003.232-.008.348-.013 2.208-.107 4.376-.693 6.052-1.7 1.673-1.006 2.82-2.407 3.096-4.151.532-3.374-1.963-6.534-4.997-7.986-1.847-.884-4.594-1.637-7.263-1.721-2.686-.085-5.167.509-6.635 2.167-1.34 1.513-1.805 2.942-1.727 4.248.08 1.318.718 2.588 1.731 3.762 2.284 2.644 6.32 4.619 9.193 5.294.077.018.145.053.202.1z" fill="#000" fill-rule="evenodd"/><path d="m140.957 136.755c-.706-.139-1.367-.299-1.987-.481-4.213-2.413-8.557-5.284-8.103-9.686.751-7.272 8.761-8.251 15.283-4.922 5.568 2.841 5.826 9.469 1.682 13.314-1.886 1.75-4.035 2.336-6.875 1.775z" fill="#ae82fc"/><path clip-rule="evenodd" d="m136.221 119.668c3.058-.775 6.817-.151 10.157 1.553 2.933 1.497 4.493 4.013 4.753 6.677.258 2.655-.778 5.424-2.959 7.448-.994.922-2.074 1.552-3.293 1.871-.899.235-1.857.297-2.891.196.259.15.514.299.76.448.237.142.313.449.171.685-.143.236-.45.312-.687.17-.703-.423-1.458-.848-2.242-1.29-.399-.225-.806-.454-1.218-.69-2.193-.65-3.91-1.579-5.264-2.854-1.365-1.285-2.334-2.897-3.06-4.862-.054-.146-.036-.301.038-.425-.145-.648-.191-1.333-.116-2.058.197-1.911.876-3.438 1.913-4.588 1.035-1.148 2.404-1.892 3.938-2.281zm2.947 16.144c.587.17 1.215.321 1.886.454 1.364.269 2.532.257 3.571-.015 1.037-.271 1.975-.809 2.867-1.637 1.963-1.821 2.87-4.288 2.643-6.619-.225-2.321-1.578-4.54-4.212-5.885-3.182-1.624-6.69-2.175-9.456-1.475-1.377.349-2.559 1.005-3.441 1.982-.879.975-1.483 2.297-1.661 4.022-.207 2.001.665 3.68 2.159 5.187 1.491 1.504 3.554 2.787 5.644 3.986z" fill="#000" fill-rule="evenodd"/><path d="m163.603 120.363c.277-.839.568-1.62.877-2.347 3.4-4.76 7.329-9.606 12.112-8.36 7.902 2.059 7.588 11.983 2.774 19.415-4.109 6.343-11.476 5.616-15-.043-1.604-2.576-1.877-5.289-.763-8.665z" fill="#ae82fc"/><path clip-rule="evenodd" d="m183.246 117.307c.318 3.802-1.008 8.249-3.46 12.035-2.139 3.301-5.165 4.81-8.157 4.707-2.981-.102-5.848-1.803-7.688-4.758-1.529-2.454-1.9-5.033-1.109-8.083-.266.371-.529.734-.789 1.082-.165.221-.478.267-.699.103-.222-.165-.268-.478-.103-.699.591-.793 1.194-1.649 1.819-2.537.321-.455.648-.919.981-1.387 1.095-2.563 2.411-4.498 4.044-5.939 1.645-1.452 3.585-2.378 5.881-2.954.168-.043.337.006.457.114.741-.076 1.506-.024 2.295.182 2.078.541 3.639 1.608 4.718 3.04 1.075 1.427 1.65 3.188 1.81 5.094zm-18.327.954c-.295.699-.575 1.45-.841 2.258-1.075 3.256-.803 5.812.712 8.245 1.685 2.705 4.263 4.198 6.874 4.288 2.6.089 5.312-1.21 7.282-4.252 2.362-3.646 3.599-7.877 3.303-11.41-.147-1.762-.674-3.332-1.612-4.577-.935-1.24-2.298-2.186-4.171-2.674-2.174-.567-4.189.231-6.13 1.829-1.937 1.595-3.725 3.926-5.417 6.293z" fill="#000" fill-rule="evenodd"/><path d="m198.075 82.0462c.619-.6312 1.226-1.2041 1.824-1.7212 5.154-2.7769 10.82-5.3983 14.563-2.1752 6.184 5.3248 1.52 14.0951-6.081 18.6481-6.49 3.8861-12.781-.0075-13.446-6.6384-.303-3.0179.65-5.5734 3.14-8.1133z" fill="#ae82fc"/><path clip-rule="evenodd" d="m217.057 87.9452c-1.393 3.5529-4.547 6.9615-8.419 9.2807-3.378 2.0228-6.76 2.0458-9.4.6371-2.631-1.4038-4.454-4.1921-4.801-7.6537-.288-2.8759.516-5.3538 2.574-7.744-.404.2164-.8.4258-1.186.6244-.246.126-.548.0295-.674-.2157s-.029-.5461.216-.6722c.881-.4518 1.8-.9552 2.754-1.477.489-.2677.987-.5402 1.493-.8131 2.113-1.819 4.149-2.9772 6.251-3.5522 2.118-.5795 4.268-.5574 6.583-.0646.17.0361.301.154.361.3035.697.2582 1.361.6413 1.979 1.1734 1.626 1.3999 2.557 3.0444 2.893 4.8044.335 1.7538.074 3.588-.624 5.369zm-16.872-7.2071c-.573.4978-1.157 1.0493-1.753 1.6572-2.401 2.4497-3.286 4.8638-3 7.7145.318 3.1692 1.974 5.6434 4.277 6.8728 2.295 1.2243 5.302 1.251 8.414-.6127 3.73-2.2338 6.708-5.4868 8.002-8.7884.646-1.6464.866-3.2877.574-4.8183-.292-1.5243-1.097-2.9729-2.564-4.2354-1.701-1.4646-3.861-1.6354-6.31-1.0547-2.442.579-5.077 1.8853-7.64 3.265z" fill="#000" fill-rule="evenodd"/><path d="m225.646 79.7515c.64-.5623 1.276-1.0639 1.912-1.507 5.803-2.0078 12.265-3.7497 17.487.444 8.628 6.9283 4.58 15.4944-3.892 18.9488-7.231 2.9487-15.715-2.4568-17.808-9.7365-.953-3.3131-.272-5.8868 2.301-8.1493z" fill="#cfb4ff"/><path clip-rule="evenodd" d="m249.992 89.6038c-1.048 3.6301-4.321 6.7305-8.65 8.4955-3.787 1.5444-7.878.8907-11.27-1.0623-3.388-1.9513-6.122-5.2231-7.208-8.9985-.494-1.7197-.576-3.2883-.172-4.7398.369-1.3294 1.135-2.5204 2.29-3.6171-.723.2539-1.431.4975-2.116.7168-.263.0842-.544-.0603-.629-.3228-.084-.2625.061-.5436.324-.6278.995-.3185 2.027-.6847 3.099-1.0648.546-.1938 1.103-.3911 1.669-.5876 2.266-1.5654 4.554-2.4214 7.013-2.6378 2.474-.2176 5.09.2144 7.994 1.1772.156.0516.269.1721.317.3162.928.4067 1.833.9479 2.706 1.6485 4.432 3.5596 5.694 7.6286 4.633 11.3043zm-22.204-10.9105c-.601.4217-1.203.8984-1.811 1.4328-1.231 1.0823-1.98 2.2123-2.322 3.4396-.342 1.2292-.288 2.6041.171 4.1974 1.007 3.5043 3.561 6.5751 6.746 8.4092 3.182 1.8325 6.948 2.4072 10.392 1.0029 4.143-1.6893 7.13-4.5992 8.067-7.8478.924-3.203-.104-6.8812-4.299-10.25-4.963-3.9859-11.129-2.3922-16.944-.3841z" fill="#000" fill-rule="evenodd"/><path clip-rule="evenodd" d="m274.335 128.549c-3.195 2.025-7.704 2.18-12.117.636-3.861-1.35-6.491-4.547-7.733-8.253-1.241-3.704-1.115-7.963.579-11.508.772-1.614 1.753-2.843 3.019-3.663 1.159-.75 2.523-1.135 4.115-1.192-.704-.286-1.394-.572-2.059-.863-.253-.111-.367-.406-.256-.658.111-.253.406-.367.659-.256.934.41 1.946.817 2.995 1.24.549.221 1.109.446 1.673.679 2.336.279 4.345.957 6.123 2.068 2.393 1.495 4.327 3.747 6.082 6.769.082.142.087.307.027.447.425.919.743 1.923.931 3.025.955 5.598-.803 9.479-4.038 11.529zm-9.379-22.863c-.73-.082-1.498-.124-2.307-.126-1.64-.004-2.952.346-4.022 1.039-1.072.694-1.945 1.759-2.66 3.255-1.573 3.291-1.7 7.28-.533 10.761 1.165 3.478 3.603 6.4 7.114 7.628 4.224 1.477 8.392 1.275 11.251-.537 2.819-1.786 4.492-5.22 3.588-10.519-.692-4.057-3.311-6.7-6.633-8.702-1.824-1.099-3.821-1.985-5.798-2.799z" fill="#000" fill-rule="evenodd"/><path d="m148.01 134.314c.615-.478 1.224-.9 1.829-1.27 5.409-1.51 11.406-2.742 15.94 1.377 7.491 6.804 3.318 14.399-4.608 17.082-6.766 2.291-14.211-3.115-15.716-9.877-.685-3.077.08-5.389 2.555-7.312z" fill="#eadeff"/><path clip-rule="evenodd" d="m169.727 144.674c-1.164 3.272-4.338 5.928-8.396 7.302-3.558 1.205-7.271.377-10.267-1.6-2.993-1.975-5.314-5.123-6.097-8.642-.357-1.602-.345-3.047.108-4.359.396-1.149 1.117-2.159 2.157-3.067-.609.172-1.207.336-1.786.484-.267.068-.539-.094-.608-.361-.068-.267.094-.539.361-.607.926-.235 1.888-.512 2.887-.799.508-.146 1.025-.295 1.552-.443 2.16-1.304 4.301-1.96 6.565-2.022 2.278-.061 4.649.48 7.25 1.522.146.058.249.177.292.316.822.423 1.615.967 2.371 1.653 3.858 3.505 4.792 7.307 3.611 10.623zm-19.686-11.168c-.568.35-1.142.75-1.724 1.202-1.179.916-1.92 1.9-2.297 2.992-.377 1.094-.405 2.343-.077 3.818.722 3.243 2.876 6.179 5.673 8.025 2.794 1.844 6.187 2.574 9.394 1.488 3.868-1.31 6.744-3.793 7.775-6.691 1.015-2.853.29-6.251-3.342-9.55-4.289-3.896-9.98-2.794-15.402-1.284z" fill="#000" fill-rule="evenodd"/><path d="m220.736 151.744c-1.903-7.397 4.215-13.702 11.324-13.665 14.492.076 14.082 15.471 8.17 20.18-7.57 6.028-17.265 2.151-19.494-6.515z" fill="#fff"/><g clip-rule="evenodd" fill-rule="evenodd"><path d="m228.312 160.982c-3.81-1.356-6.906-4.625-8.06-9.114-1.999-7.77 4.435-14.327 11.811-14.288 3.714.019 6.521 1.022 8.532 2.632 2.01 1.61 3.185 3.796 3.69 6.113 1.003 4.597-.612 9.83-3.744 12.324-3.915 3.119-8.412 3.692-12.229 2.333zm.336-.94c3.481 1.239 7.616.737 11.27-2.173 2.781-2.215 4.328-7.034 3.39-11.331-.464-2.13-1.534-4.101-3.339-5.547-1.803-1.444-4.379-2.395-7.911-2.413-6.843-.036-12.644 6.018-10.838 13.042 1.075 4.178 3.941 7.18 7.428 8.422z" fill="#000"/><path d="m38.9692 95.9519c.0517-.2708.3134-.4485.5847-.397 2.0053.3811 4.0409.7491 6.0934 1.1203 8.9635 1.6208 18.2485 3.2997 26.732 6.3698 10.4466 3.78 19.7405 9.687 25.8187 20.243.4398.763.8999 1.532 1.3624 2.304.7066 1.18 1.4186 2.37 2.0726 3.566.132.242.043.545-.199.677-.243.132-.547.043-.679-.199-.649-1.187-1.3378-2.338-2.0335-3.499-.4641-.775-.9309-1.554-1.3905-2.352-5.923-10.286-14.9853-16.072-25.2925-19.802-8.396-3.038-17.5766-4.6985-26.5355-6.319-2.0612-.3728-4.1106-.7435-6.1361-1.1284-.2712-.0515-.4493-.3129-.3977-.5837z" fill="#000"/><path d="m86.6254 54.8781c.1331.2415.0448.545-.1972.6779-6.1038 3.3513-13.0613 5.6105-20.1033 5.6952-.2762.0033-.5027-.2174-.506-.4931-.0033-.2756.2178-.5018.4939-.5051 6.8402-.0823 13.637-2.2793 19.6335-5.5717.242-.1329.546-.0448.6791.1968z" fill="#000"/><path d="m86.197 58.3917c.267.0702.4265.3432.3563.6098-.2123.805-.4321 1.6167-.7016 2.4237-.968 2.8992-2.6915 5.4206-4.3572 7.8575-.1798.2631-.3589.5251-.5364.7866-.1549.2282-.4658.2879-.6944.1332-.2286-.1546-.2884-.4649-.1335-.6932.1772-.2611.3549-.5211.5321-.7806 1.6771-2.4554 3.3194-4.86 4.2407-7.6192.2585-.7739.4713-1.5584.6832-2.3621.0703-.2666.3437-.4258.6108-.3557z" fill="#000"/><path d="m118.06 59.2653c.235.1445.308.452.163.6867-2.887 4.6837-6.8 7.8717-11.046 11.2176-.217.1708-.531.1339-.702-.0825-.171-.2163-.134-.5302.083-.701 4.252-3.3511 8.03-6.4422 10.814-10.9573.144-.2347.452-.3079.688-.1635z" fill="#000"/><path d="m125.182 73.1155c.051.2711-.129.5315-.4.5817-5.528 1.022-11.08 1.5457-16.647 2.0711-.166.0156-.332.0312-.498.0469-.275.026-.518-.1755-.544-.4499-.026-.2745.175-.518.45-.544.16-.0151.321-.0302.481-.0453 5.58-.5265 11.092-1.0467 16.576-2.0604.271-.0502.532.1288.582.3999z" fill="#000"/><path d="m87.0783 98.3312c.1895-.2006.5059-.2099.7068-.0208.9581.9017 1.9255 1.7996 2.8949 2.6996 4.244 3.938 8.5264 7.912 12.233 12.405.175.213.145.527-.069.703-.213.175-.528.144-.703-.068-3.6601-4.437-7.8821-8.355-12.1229-12.291-.9742-.905-1.9494-1.8097-2.9189-2.7222-.201-.1891-.2103-.505-.0209-.7056z" fill="#000"/><path d="m193.321 78.1876c.226.1588.28.4702.121.6956-1.304 1.847-2.646 3.6555-3.982 5.4576-3.649 4.9203-7.262 9.7928-9.986 15.272-.123.2469-.423.3478-.67.2252-.248-.1225-.349-.4221-.226-.669 2.767-5.5648 6.458-10.5428 10.124-15.4858 1.326-1.7876 2.648-3.5706 3.922-5.3751.159-.2254.471-.2793.697-.1205z" fill="#000"/><path d="m189.373 89.6625c.224.1602.276.4719.116.6963l-5.387 7.5293c-.161.2243-.473.2763-.698.116-.225-.1602-.277-.4719-.116-.6963l5.387-7.5293c.161-.2243.473-.2763.698-.116z" fill="#000"/><path d="m169.338 82.7635c.194.1969.19.513-.007.7059-.505.4938-1.019.9815-1.532 1.469-1.983 1.8827-3.961 3.7616-5.42 5.9713-.488.7396-.899 1.5083-1.14 2.2832 1.347-.0998 2.688.6295 3.641 1.6164 1.066 1.104 1.796 2.6834 1.489 4.149-.077.3687-.241.6896-.529.8992-.287.2095-.623.2525-.93.2195-.584-.063-1.231-.418-1.798-.8097-.585-.4049-1.159-.904-1.611-1.3457-.226-.2215-.425-.4324-.583-.6142-.149-.1716-.285-.3464-.361-.489-.34-.6405-.506-1.2859-.543-1.9226-.239.3116-.407.7015-.476 1.1123-.322 1.897-.048 3.9288.456 5.9809.315 1.287.709 2.538 1.093 3.76.235.747.466 1.483.674 2.21.076.265-.077.541-.343.617-.265.076-.542-.077-.618-.342-.193-.675-.418-1.391-.65-2.13-.393-1.251-.807-2.57-1.128-3.878-.516-2.103-.825-4.2899-.47-6.3844.151-.8949.687-1.8623 1.574-2.3399.239-1.1391.806-2.2147 1.418-3.1414 1.528-2.3149 3.615-4.2955 5.607-6.1859.503-.4771 1-.9486 1.48-1.4182.197-.1929.514-.1896.707.0073zm-8.312 11.4647c-.066.7173.048 1.4311.415 2.1231.018.0344.089.1359.234.3032.136.1572.316.3479.526.554.423.4135.954.8735 1.481 1.2383.546.378 1.018.6034 1.336.6377.144.0156.206-.0136.232-.0331.028-.0197.096-.0855.14-.2976.215-1.0234-.294-2.2824-1.23-3.2516-.923-.9562-2.116-1.4817-3.134-1.274z" fill="#000"/><path d="m157.28 78.6384c.017.1182.041.2462.071.3837.021.0944.044.1964.069.3017.059.2571.124.5343.156.771.213 1.5628.495 3.1118.8 4.665.119-.1305.237-.2609.356-.3913 1.52-1.6674 3.036-3.3318 4.327-5.1181-.583.0042-1.166.0015-1.746-.0063-.176-.0023-.57-.0574-1.004-.1235-.439-.0668-.971-.1534-1.488-.2376l-.058-.0094c-.537-.0875-1.053-.1713-1.435-.2281-.017-.0024-.033-.0048-.048-.0071zm.506 8.2714c.002.0079.003.0159.005.0238l.025.1214c.054.2703.318.4452.588.3907.271-.0545.446-.3178.392-.588l-.022-.1081c-.052-.2568-.104-.5133-.155-.7695.265-.2935.534-.5881.803-.8842 1.763-1.9344 3.582-3.9313 5.026-6.0934.001-.0006.001-.0013.002-.002.021-.031.122-.1816.091-.3863-.02-.1321-.089-.2472-.189-.3263-.087-.0692-.175-.0942-.225-.1044-.094-.0192-.177-.0096-.207-.0058-.042.0052-.082.0133-.111.0198-.031.0067-.062.0145-.088.0208l-.003.0008c-.026.0065-.048.0119-.069.0167-.034.0077-.049.0098-.051.0103-.755.0115-1.514.0099-2.272-.0002-.089-.0012-.397-.0408-.866-.1122-.434-.0659-.961-.1518-1.481-.2364l-.055-.009c-.535-.0871-1.058-.1722-1.449-.2302-.194-.0289-.362-.052-.484-.0653-.059-.0064-.12-.0119-.171-.0132-.022-.0006-.066-.0013-.115.0052-.02.0028-.078.0111-.144.0402-.042.0184-.267.1249-.298.4049-.045.4017.032.8363.111 1.2024.029.1343.057.2583.084.3745.055.232.101.433.127.6226.251 1.8364.594 3.651.955 5.4548-.282.3134-.561.628-.837.9446-.181.2081-.159.5233.05.7042.208.1809.524.1589.705-.0491.108-.1246.218-.2493.328-.3741z" fill="#000"/><path d="m191.935 117.308c.026-.274.271-.475.545-.449 3.56.343 7.119.693 10.678 1.049.274.027.475.272.447.546-.027.274-.272.474-.547.447-3.557-.355-7.115-.705-10.674-1.048-.274-.027-.476-.271-.449-.545z" fill="#000"/><path d="m191.951 121.589c.074-.266.35-.42.616-.346 2.865.801 5.724 1.618 8.58 2.447.266.077.418.354.341.619s-.355.417-.62.34c-2.853-.829-5.709-1.645-8.57-2.445-.266-.074-.422-.35-.347-.615z" fill="#000"/><path d="m134.576 157.978c.24.136.325.441.188.681-.887 1.563-1.761 3.131-2.62 4.709-.132.242-.436.332-.678.2-.243-.131-.333-.434-.201-.677.863-1.584 1.74-3.157 2.629-4.724.137-.24.442-.324.682-.189z" fill="#000"/><path d="m139.208 158.613c.276-.012.51.202.521.477.067 1.574.125 3.148.175 4.722.009.276-.207.506-.483.515s-.507-.207-.516-.483c-.051-1.571-.108-3.141-.175-4.712-.012-.275.203-.508.478-.519z" fill="#000"/><path d="m99.5828 138.904c.9152.216 1.8102.594 2.3542.883.261.138 1.132.676 1.832 1.306.346.31.692.68.885 1.068.098.197.172.431.159.681-.014.264-.123.507-.32.704-.274.273-.667.292-.949.27-.313-.024-.673-.114-1.046-.236-.75-.246-1.653-.656-2.5265-1.092-.8782-.437-1.7452-.91-2.4269-1.29-.0488-.027-.0966-.053-.1431-.079.2141.491.5328.964.7818 1.334.0754.112.1445.215.2023.305.1482.233.0796.541-.1534.689s-.542.08-.6903-.153c-.0388-.061-.092-.139-.155-.233-.2516-.372-.6579-.974-.9143-1.572-.136-.317-.2502-.675-.2688-1.034-.2178-.13-.3051-.407-.194-.641.0804-.17.2442-.273.4193-.285.1101-.172.2631-.328.4651-.456.3859-.245.8477-.332 1.2969-.34.4532-.008.9334.063 1.3917.171zm-2.2107 1.053c.0224.013.0451.026.0683.039.1784.1.3781.212.591.33.6769.377 1.5286.842 2.3866 1.269.862.43 1.713.814 2.392 1.036.342.112.615.175.812.19.105.008.16.001.183-.004.009-.012.009-.02.009-.026v-.001c.001-.023-.005-.082-.056-.186-.107-.214-.339-.483-.658-.77-.628-.565-1.429-1.058-1.633-1.166-.48-.255-1.295-.599-2.1138-.792-.4087-.096-.8013-.151-1.1442-.145-.3468.006-.6042.074-.7779.184-.0215.014-.0411.028-.059.042z" fill="#000"/><path d="m49.6903 132.375c6.8223-3.096 14.6931-1.041 21.3003 1.522 2.5245.979 5.1809 2.374 7.072 4.486 4.5537 1.426 8.6512 4.278 12.5244 6.973.8599.598 1.7088 1.189 2.5492 1.755.229.154.2894.464.135.693-.1544.228-.4651.288-.6941.134-.8697-.585-1.7388-1.189-2.6115-1.796-3.4586-2.405-6.9746-4.85-10.8164-6.324.351.558.6517 1.157.8912 1.801.2376.64.4264 1.54.2944 2.333-.0672.404-.2233.813-.5326 1.135-.3166.33-.7523.526-1.2926.569-.7784.062-1.6911-.115-2.574-.444-.888-.331-1.7819-.83-2.5248-1.449-.7394-.616-1.3582-1.376-1.6453-2.238-.2938-.882-.2272-1.839.3546-2.777.3088-.498.7972-.77 1.3116-.907.5094-.135 1.079-.148 1.6236-.105.3513.027.7049.078 1.0426.142-1.5798-1.317-3.5197-2.294-5.4695-3.051-6.5941-2.558-14.1091-4.454-20.5243-1.543-.2514.114-.5478.003-.6621-.248-.1142-.251-.0031-.547.2483-.661zm27.805 6.878c-.5916-.177-1.5776-.449-2.5177-.522-.4873-.038-.9316-.02-1.289.075-.3524.094-.5838.25-.7182.467-.4223.681-.4583 1.33-.2559 1.937.2092.628.6853 1.244 1.3371 1.787.6481.54 1.4414.984 2.2339 1.28.7977.297 1.5589.43 2.1451.384.3327-.026.5265-.136.6493-.264.13-.136.2231-.337.2684-.609.0927-.557-.0407-1.27-.2455-1.821-.3777-1.016-.9296-1.915-1.6075-2.714z" fill="#000"/><path d="m65.7185 124.711c-.3259.118-.6512.237-.9765.351-.2605.091-.5459-.046-.6374-.306s.0456-.545.3061-.636c.3026-.106.6136-.219.931-.335.9311-.338 1.9175-.696 2.9102-.96 1.341-.357 2.7506-.561 4.1666-.325.2724.045.4564.302.411.574s-.303.456-.5754.411c-1.2192-.203-2.4726-.034-3.7445.304-.9462.252-1.8713.588-2.7911.922z" fill="#000"/><path d="m64.5955 123.816c.0887-.261.3726-.401.6341-.313.3217.109.6447.217.9685.326 2.2674.759 4.5718 1.531 6.7384 2.655.245.127.3403.429.2129.673-.1274.245-.4292.34-.6742.213-2.0921-1.086-4.3167-1.831-6.5907-2.593-.3244-.109-.6498-.218-.976-.328-.2615-.089-.4016-.372-.313-.633z" fill="#000"/><path d="m77.1281 125.683c.0758.265-.0779.542-.3434.617-1.846.527-3.6922 1.02-5.5603 1.481-.2681.066-.5391-.098-.6053-.365-.0662-.268.0974-.538.3655-.605 1.8556-.457 3.6902-.947 5.5253-1.47.2656-.076.5423.077.6182.342z" fill="#000"/><path d="m69.177 121.544c.121-.248.4204-.35.6686-.23.5622.274 1.1407.544 1.7272.819 2.6368 1.232 5.4333 2.54 7.6296 4.549.2035.187.2173.502.0307.706-.1866.203-.5029.217-.7065.03-2.072-1.896-4.6949-3.124-7.3244-4.355-.6001-.281-1.2006-.562-1.7949-.851-.2482-.121-.3513-.42-.2303-.668z" fill="#000"/><path d="m195.601 146.597c.114-.251.41-.363.662-.25 2.331 1.051 4.666 2.098 7.001 3.146 8.908 3.996 17.825 7.996 26.634 12.218 1.65.791 3.262 1.61 4.863 2.49.242.133.33.437.197.678-.133.242-.437.33-.679.197-1.582-.871-3.178-1.68-4.814-2.465-8.796-4.216-17.699-8.21-26.605-12.205-2.337-1.048-4.674-2.096-7.009-3.149-.252-.113-.363-.409-.25-.66z" fill="#b0b1c4"/><path d="m195.651 147.254c.162-.224.474-.275.698-.114.034.025.067.049.101.073 2.769 1.99 5.551 3.99 8.128 6.277.206.183.225.498.042.704-.184.206-.5.225-.706.042-2.538-2.252-5.285-4.227-8.067-6.226-.028-.02-.055-.04-.082-.059-.224-.161-.275-.473-.114-.697z" fill="#b0b1c4"/><path d="m195.189 147.354c.038-.273.29-.464.564-.427.999.137 1.997.277 2.995.416 3.422.477 6.837.953 10.262 1.344.992.114 1.933.255 2.915.478.269.061.438.328.377.597s-.329.437-.599.376c-.935-.212-1.838-.348-2.806-.459-3.44-.393-6.871-.871-10.295-1.349-.996-.138-1.991-.277-2.986-.414-.273-.037-.464-.289-.427-.562z" fill="#b0b1c4"/><path d="m235.47 151.507c.091-.261.376-.399.637-.308 6.74 2.336 13.474 4.688 20.202 7.059.261.091.397.377.305.637-.091.259-.377.396-.637.304-6.727-2.37-13.459-4.722-20.198-7.057-.261-.09-.399-.375-.309-.635z" fill="#000"/><path d="m240.006 148.765c.073-.266.348-.422.614-.349 5.375 1.473 10.756 2.898 16.153 4.283.267.069.428.341.359.608s-.341.428-.609.359c-5.401-1.387-10.787-2.813-16.168-4.287-.266-.073-.422-.348-.349-.614z" fill="#000"/></g></svg>