<svg width="49" height="48" viewBox="0 0 49 48" fill="none" xmlns="http://www.w3.org/2000/svg">
<path d="M45.5 4.26316L26.9419 21L16.1977 11.8421L3.5 21M45.5 4.26316V12.5789M45.5 4.26316L36.9884 3" stroke="#B0B1C3" stroke-width="2"/>
<path d="M3.5 33C3.5 31.8954 4.39543 31 5.5 31H9.5C10.6046 31 11.5 31.8954 11.5 33V45H3.5V33Z" fill="#B0B1C3"/>
<path d="M20.5 37C20.5 35.8954 21.3954 35 22.5 35H26.5C27.6046 35 28.5 35.8954 28.5 37V45H20.5V37Z" fill="#B0B1C3"/>
<path d="M37.5 25C37.5 23.8954 38.3954 23 39.5 23H43.5C44.6046 23 45.5 23.8954 45.5 25V45H37.5V25Z" fill="#B0B1C3"/>
</svg>
