<svg fill="none" height="213" viewBox="0 0 320 213" width="320" xmlns="http://www.w3.org/2000/svg" xmlns:xlink="http://www.w3.org/1999/xlink"><radialGradient id="a" cx="0" cy="0" gradientTransform="matrix(0 54.5 -94 0 163 158.5)" gradientUnits="userSpaceOnUse" r="1"><stop offset="0" stop-color="#c4c4c4"/><stop offset="1" stop-color="#c4c4c4" stop-opacity="0"/></radialGradient><linearGradient id="b" gradientUnits="userSpaceOnUse" x1="202.965" x2="209.013" y1="140.879" y2="3.92989"><stop offset="0" stop-color="#e4e7ef" stop-opacity=".52"/><stop offset="1" stop-color="#f4f6f8"/></linearGradient><linearGradient id="c" gradientUnits="userSpaceOnUse" x1="102.288" x2="108.336" y1="119.992" y2="-16.9565"><stop offset=".62" stop-color="#e4e7ef"/><stop offset="1" stop-color="#f4f6f8" stop-opacity=".03"/></linearGradient><linearGradient id="d" gradientUnits="userSpaceOnUse" x1="91.2893" x2="97.3306" y1="135.949" y2="-1.00048"><stop offset="0" stop-color="#e4e7ef"/><stop offset="1" stop-color="#f4f6f8"/></linearGradient><linearGradient id="e" gradientUnits="userSpaceOnUse" x1="229.695" x2="232.556" y1="91.3907" y2="75.2064"><stop offset="0" stop-color="#ffc5a1" stop-opacity=".4"/><stop offset="1" stop-color="#ffc5a1" stop-opacity=".4"/></linearGradient><linearGradient id="f" gradientUnits="userSpaceOnUse" x1="228.218" x2="236.591" y1="102.063" y2="54.738"><stop offset=".43" stop-color="#eabdad" stop-opacity=".2"/><stop offset="1" stop-color="#eabdad" stop-opacity="0"/></linearGradient><radialGradient id="g" cx="0" cy="0" gradientTransform="matrix(26.2292 0 0 26.1725 230.227 87.0474)" gradientUnits="userSpaceOnUse" r="1"><stop offset=".63" stop-color="#ffc5a1" stop-opacity=".19"/><stop offset="1" stop-color="#b1a6cd" stop-opacity=".2"/></radialGradient><linearGradient id="h"><stop offset="0" stop-color="#f6b4e2"/><stop offset="1" stop-color="#f5b1e1" stop-opacity="0"/></linearGradient><linearGradient id="i" gradientUnits="userSpaceOnUse" x1="226.008" x2="247.18" xlink:href="#h" y1="156.507" y2="128.793"/><linearGradient id="j"><stop offset=".3" stop-color="#f4aee0"/><stop offset=".98" stop-color="#f6b3e2" stop-opacity="0"/></linearGradient><linearGradient id="k" gradientUnits="userSpaceOnUse" x1="226.993" x2="248.778" xlink:href="#j" y1="157.751" y2="129.24"/><linearGradient id="l"><stop offset=".21" stop-color="#efe59c"/><stop offset=".85" stop-color="#efe59c" stop-opacity="0"/></linearGradient><linearGradient id="m" gradientUnits="userSpaceOnUse" x1="153.158" x2="165.599" xlink:href="#l" y1="82.4369" y2="77.2632"/><linearGradient id="n" gradientUnits="userSpaceOnUse" x1="160.239" x2="160.239" xlink:href="#l" y1="95.3206" y2="73.154"/><linearGradient id="o"><stop offset=".5" stop-color="#b1a6cc"/><stop offset=".79" stop-color="#fff" stop-opacity="0"/></linearGradient><linearGradient id="p" gradientUnits="userSpaceOnUse" x1="202.161" x2="223.499" xlink:href="#o" y1="141.786" y2="101.3"/><linearGradient id="q"><stop offset=".08" stop-color="#b1a6cc"/><stop offset=".85" stop-color="#fff" stop-opacity="0"/></linearGradient><linearGradient id="r" gradientUnits="userSpaceOnUse" x1="209.146" x2="208.898" xlink:href="#q" y1="131.712" y2="103.17"/><linearGradient id="s"><stop offset=".26" stop-color="#9ebcfd"/><stop offset=".88" stop-color="#fff" stop-opacity="0"/></linearGradient><linearGradient id="t" gradientUnits="userSpaceOnUse" x1="163.906" x2="166.405" xlink:href="#s" y1="130.823" y2="109.91"/><linearGradient id="u"><stop offset=".37" stop-color="#9ebcfd"/><stop offset="1" stop-color="#fff" stop-opacity="0"/></linearGradient><linearGradient id="v" gradientUnits="userSpaceOnUse" x1="162.351" x2="162.351" xlink:href="#u" y1="131.109" y2="113.455"/><linearGradient id="w"><stop offset=".44" stop-color="#70ffd6"/><stop offset=".77" stop-color="#70ffd6" stop-opacity="0"/></linearGradient><linearGradient id="x" gradientUnits="userSpaceOnUse" x1="204.938" x2="228.011" xlink:href="#w" y1="81.3217" y2="37.54"/><linearGradient id="y"><stop offset=".18" stop-color="#bbecd8"/><stop offset=".71" stop-color="#bbecd8" stop-opacity="0"/></linearGradient><linearGradient id="z" gradientUnits="userSpaceOnUse" x1="202.563" x2="221.612" xlink:href="#y" y1="91.471" y2="26.009"/><linearGradient id="A" gradientUnits="userSpaceOnUse" x1="127.658" x2="121.166" xlink:href="#h" y1="95.3728" y2="64.6338"/><linearGradient id="B" gradientUnits="userSpaceOnUse" x1="130.108" x2="123.415" xlink:href="#j" y1="95.215" y2="63.5314"/><linearGradient id="C"><stop offset=".44" stop-color="#ffc5a1"/><stop offset=".91" stop-color="#ffc5a1" stop-opacity="0"/></linearGradient><linearGradient id="D" gradientUnits="userSpaceOnUse" x1="158.797" x2="172.593" xlink:href="#C" y1="161.431" y2="147.374"/><linearGradient id="E"><stop offset=".21" stop-color="#ffc5a1"/><stop offset=".85" stop-color="#ffc5a1" stop-opacity="0"/></linearGradient><linearGradient id="F" gradientUnits="userSpaceOnUse" x1="166.791" x2="166.791" xlink:href="#E" y1="164.757" y2="144.648"/><linearGradient id="G" gradientUnits="userSpaceOnUse" x1="101.022" x2="102.671" xlink:href="#C" y1="100.721" y2="81.0856"/><linearGradient id="H" gradientUnits="userSpaceOnUse" x1="109.612" x2="96.7436" xlink:href="#E" y1="98.0655" y2="82.5488"/><linearGradient id="I" gradientUnits="userSpaceOnUse" x1="138.676" x2="160.014" xlink:href="#o" y1="54.261" y2="13.7747"/><linearGradient id="J" gradientUnits="userSpaceOnUse" x1="145.694" x2="145.432" xlink:href="#q" y1="46.0236" y2="15.8981"/><linearGradient id="K" gradientUnits="userSpaceOnUse" x1="69.8735" x2="76.1322" xlink:href="#l" y1="137.664" y2="125.733"/><linearGradient id="L" gradientUnits="userSpaceOnUse" x1="84.2697" x2="70.0888" xlink:href="#l" y1="142.497" y2="125.398"/><linearGradient id="M" gradientUnits="userSpaceOnUse" x1="72.1735" x2="78.9957" xlink:href="#l" y1="22.2111" y2="9.22042"/><linearGradient id="N" gradientUnits="userSpaceOnUse" x1="84.3303" x2="80.1263" xlink:href="#l" y1="29.0631" y2="10.1032"/><linearGradient id="O" gradientUnits="userSpaceOnUse" x1="70.8984" x2="57.4853" xlink:href="#s" y1="57.468" y2="41.2086"/><linearGradient id="P" gradientUnits="userSpaceOnUse" x1="70.0003" x2="57.2166" xlink:href="#u" y1="58.8285" y2="46.6245"/><linearGradient id="Q" gradientUnits="userSpaceOnUse" x1="139.638" x2="115.095" xlink:href="#w" y1="147.153" y2="111.107"/><linearGradient id="R" gradientUnits="userSpaceOnUse" x1="147.299" x2="102.091" xlink:href="#y" y1="155.233" y2="111.296"/><linearGradient id="S" gradientUnits="userSpaceOnUse" x1="226.094" x2="269.724" y1="153.051" y2="110.004"><stop offset=".12" stop-color="#feb7d5"/><stop offset=".6" stop-color="#feb7d5" stop-opacity="0"/></linearGradient><linearGradient id="T"><stop offset="0" stop-color="#b1a7cb"/><stop offset="1" stop-color="#b1a6cd"/></linearGradient><linearGradient id="U" gradientUnits="userSpaceOnUse" x1="200.198" x2="215.777" xlink:href="#T" y1="125.959" y2="125.959"/><linearGradient id="V" gradientUnits="userSpaceOnUse" x1="154.242" x2="179.325" y1="129.445" y2="107.615"><stop offset=".32" stop-color="#9ebcfd"/><stop offset=".6" stop-color="#9ebcfd" stop-opacity="0"/></linearGradient><linearGradient id="W" gradientUnits="userSpaceOnUse" x1="207.155" x2="242.997" y1="68.8167" y2="37.6312"><stop offset=".4" stop-color="#bbecd8"/><stop offset="1" stop-color="#bbecd8" stop-opacity="0"/></linearGradient><linearGradient id="X" gradientUnits="userSpaceOnUse" x1="137.447" x2="144.661" xlink:href="#T" y1="38.7637" y2="38.7637"/><linearGradient id="Y" gradientUnits="userSpaceOnUse" x1="158.032" x2="184.434" y1="162.58" y2="139.603"><stop offset=".32" stop-color="#ffc5a1"/><stop offset="1"/></linearGradient><path clip-rule="evenodd" d="m163 213c51.915 0 94-24.4 94-54.5s-42.085-54.5-94-54.5-94 24.4-94 54.5 42.085 54.5 94 54.5zm-26-101.5v12c-5.667 1.167-17.3 5.5-18.5 13.5s-.5 14.333 0 16.5l8 7-11 3v14.5c15 8.5 44.6 11.2 55 8s6-10.667 2.5-14l-15-21 8.5-3 16 20.5c10-1.667 30.4-7 32-15s.667-16.333 0-19.5c-1.684-8-21.5-10.5-21.5-10.5v-15z" fill="url(#a)" fill-opacity=".2" fill-rule="evenodd"/><path d="m168.624 88.8477c.279-26.3657 1.188-44.8495.279-46.0353-2.027-2.6505 63.75-2.0925 75.354-.3487 0 0 .559 45.1982-.979 46.105-2.656 1.6042-74.654.279-74.654.279z" fill="url(#b)" opacity=".25"/><path d="m59.8564 75.3161c.3496-26.5749 2.3767-50.9875 1.3282-52.1733-2.3767-2.7203 75.1444-1.7438 88.9844 0 0 0 .839 50.9875-.978 51.8943-3.286 1.6042-89.3346.279-89.3346.279z" fill="url(#c)" opacity=".25"/><path d="m59.9961 123.095c.2796-15.415 1.6776-29.5042.9087-30.2017-1.6776-1.5345 53.6142-1.0463 63.5402 0 0 0 .629 29.5047-.699 30.0627-2.306.906-63.7499.139-63.7499.139z" fill="url(#d)" opacity=".25"/><g stroke="#000"><path d="m135.375 79.875c3.314 1.191 6.637 2.2199 10 3.25" stroke-linecap="round" stroke-linejoin="round"/><path d="m135.375 134c3.314 1.191 6.637 2.22 10 3.25" stroke-linecap="round" stroke-linejoin="round"/><path d="m142.625 78.375c3.435.8524 6.882 1.9178 10.375 2.5" stroke-linecap="round" stroke-linejoin="round"/><path d="m140.625 82.625c3.588-.5584 7.155-1.1731 10.625-2.25" stroke-linecap="round" stroke-linejoin="round"/><path d="m143.019 137.091c3.367-.558 6.714-1.166 9.962-2.183" stroke-linecap="round" stroke-linejoin="round"/><path d="m134.625 80.125c2.674-.5417 5.349-1.0785 7.986-1.7847 1.009-.2702 1.987-.5442 3.014-.7153" stroke-linecap="round" stroke-linejoin="round"/><path d="m143.5 80v58m-7-61v61m15-61v61" stroke-linecap="round" stroke-linejoin="round"/><path d="m157 70c3.314 1.191 6.637 2.2199 10 3.25" stroke-linecap="round" stroke-linejoin="round"/><path d="m158.282 130c3.198 1.474 6.419 2.787 9.68 4.105" stroke-linecap="round" stroke-linejoin="round"/><path d="m165 68c3.435.8524 6.882 1.9178 10.375 2.5" stroke-linecap="round" stroke-linejoin="round"/><path d="m164.5 72.25c3.588-.5584 8.5-1.25 13-2.25" stroke-linecap="round" stroke-linejoin="round"/><path d="m163 134c4.39-.745 8.754-1.564 13-3" stroke-linecap="round" stroke-linejoin="round"/><path d="m158 70.4906c2.711-.3082 5.423-.6112 8.111-1.0865 1.028-.1819 2.027-.3701 3.064-.4517" stroke-linecap="round" stroke-linejoin="round"/><path d="m165.875 72v61m-7-65.5v65.5m15-64v64" stroke-linecap="round" stroke-linejoin="round"/><path d="m186 66c3.314 1.191 6.637 2.2199 10 3.25" stroke-linecap="round" stroke-linejoin="round"/><path d="m177 136c2.32 2.199 4.646 4.098 7 6" stroke-linecap="round" stroke-linejoin="round"/><path d="m176.333 67c3.29 1.3013 6.565 2.8154 9.95 3.8568" stroke-linecap="round" stroke-linejoin="round"/><path d="m182 69.2268c3.631-.0383 8.592-.0185 13.188-.363" stroke-linecap="round" stroke-linejoin="round"/><path d="m181.5 140.75c4.5 0 7 0 13.5-.75" stroke-linecap="round" stroke-linejoin="round"/><path d="m177.325 67.0378c3.965-.0111 8.28-.0231 13.675-.0381" stroke-linecap="round" stroke-linejoin="round"/><path d="m182.5 68.5v73m11-76v74m-15.5-74v71.5" stroke-linecap="round" stroke-linejoin="round"/><path d="m128 149.999c13.552-3.794 26.703-8.537 40-13" stroke-linecap="round" stroke-linejoin="round"/><path d="m166 136.999c6.308 7.263 12.322 14.322 19.125 21.125" stroke-linecap="round" stroke-linejoin="round"/><path d="m167 149.249c6.5 8.75 11 14.75 16.5 21.75" stroke-linecap="round" stroke-linejoin="round"/><path d="m193.5 123.999c7.5 2 13.625 3.284 19 7.5 12.12 9.506-8 21-18 22.5-3.347.887-11.072 1.564-14.5 2" stroke-linecap="round" stroke-linejoin="round"/><path d="m178.5 169.999c14-.5 29.573-4.885 37-15.5 1.031-1.474.435-15.328.931-17" stroke-linecap="round" stroke-linejoin="round"/><path d="m113.75 165.749c16.75-6.25 29-10.5 45.75-17.25" stroke-linecap="round" stroke-linejoin="round"/><path d="m156.5 148.249c6.24 8.601 12.616 17.111 18.25 26.125" stroke-linecap="round" stroke-linejoin="round"/><path d="m113.5 163.499c3.5 2 9.171 4.105 12 5 17 5.379 39.29 8.178 54 4.5" stroke-linecap="round" stroke-linejoin="round"/><path d="m116.5 162.374c.5 9.625.5 12.625.5 20.125" stroke-linecap="round" stroke-linejoin="round"/><path d="m174.625 170.249c-.064 5.351-.625 12.25-.625 17.25" stroke-linecap="round" stroke-linejoin="round"/><path d="m115 177.499c14 10 41.836 14.289 62 9" stroke-linecap="round" stroke-linejoin="round"/><path d="m159 151.999c2.716-.868 4.093-1.5 8-3" stroke-linecap="round" stroke-linejoin="round"/><path d="m117.125 153.249c1.477 3.98 5.118 7.007 9 8.5" stroke-linecap="round" stroke-linejoin="round"/><path d="m117.5 155.999c0-6.5-.156-8.513 0-16" stroke-linecap="round" stroke-linejoin="round"/><path d="m167 151.499c0-6.5-.156-7.013 0-14.5" stroke-linecap="round" stroke-linejoin="round"/><path d="m183.069 169.499c0-6.5-.156-7.013 0-14.5" stroke-linecap="round" stroke-linejoin="round"/><path d="m129.069 159.499c0-6.5-.156-3.513 0-11" stroke-linecap="round" stroke-linejoin="round"/><path d="m116 136.999c.451 3.835 3.882 7.248 6.84 9.424 2.787 2.049 6.011 3.848 9.535 3.701" stroke-linecap="round" stroke-linejoin="round"/><path d="m118.375 143.249c-.702-1.605-1.046-3.231-.542-4.958.759-2.603 2.637-5.061 4.556-6.917 3.856-3.731 8.953-5.608 14.111-6.947" stroke-linecap="round" stroke-linejoin="round"/><path d="m151.5 121.999c1.92-.308 4.448-.61 7-.811z" fill="#22222a" stroke-linecap="round" stroke-linejoin="round"/><path d="m174 121.499c1.659.149 2.101.125 4 .362" stroke-linecap="round" stroke-linejoin="round"/><path d="m143.778 106 6.571-25.5m-17.46 67.754-2.77 10.746m-2.505 9.723-3.551 13.777m6.056-12.659c-1.103 4.281-2.189 8.496-3.262 12.659m16.852-53c2.601-10.095 4.963-19.026 7.791-30m-18.587 71.89c-1.111 4.314-2.195 8.518-3.249 12.61m6.829-26.5 3.007-11m11.839-59c-2.522 9.7882-4.92 19.093-7.216 28zm-15.656 60.754c-.938 3.638-1.86 7.218-2.77 10.746z" stroke-linecap="round" stroke-linejoin="round"/></g><path d="m121.5 167c-.594 2.304-1.129 4.334-1.661 6.348-.004.016-.008.031-.012.046l-1.597 6.106c.563-2.183 1.078-4.138 1.597-6.106.004-.015.008-.03.012-.046z" fill="#22222a"/><path d="m118.915 166-1.933 7.5m4.018-15.588 2.812-10.912m.446 21.5c-1.114 4.324-2.201 8.539-3.258 12.643m5.219-32.643c-1.049 4.07-2.079 8.066-3.093 12zm-4.719 18.5c-1.179 4.573-2.127 8.066-3.27 12.5zm7.912-18.5-3.193 12.391c1.041-4.041 2.106-8.172 3.193-12.391zm17.137-66.4995c-1.079 4.1882-2.144 8.3184-3.193 12.3902z" stroke="#000" stroke-linecap="round" stroke-linejoin="round"/><path d="m117.575 149c.468-1.819.941-3.652 1.417-5.5zm1.417 6.89c.877-3.402 1.769-6.865 2.678-10.39z" stroke="#000" stroke-linecap="round" stroke-linejoin="round"/><path d="m142.1 146-2.577 10m5.025-19.5 6.83-26.5m-15.72 61-3.608 14m6.402-14c-1.37 5.315-2.177 8.756-3.533 14m7.398-29c.951-3.691 1.918-7.441 2.901-11.258m2.124-8.242c1.312-5.089 2.655-10.302 4.036-15.658m-9.991 51.158c-1.235 4.793-2.603 9.903-3.796 14.5m8.434-32.5c.846-3.279 1.705-6.612 2.577-10m2.104-8.164c.371-1.436.743-2.881 1.118-4.336m14.302-55.4995c.385-1.493.772-2.9931 1.16-4.5z" stroke="#000" stroke-linecap="round" stroke-linejoin="round"/><path d="m143.4 173-3.608 14m8.762-34 2.577-10m14.869-57.6974 3.814-14.8023m-20.685 103.4997c-1.182 4.587-2.471 9.579-3.61 14m-3.191 0c1.269-4.922 2.555-9.914 3.866-15zm9.406-36.5c.805-3.121 1.62-6.286 2.448-9.5zm14.56-56.4997c2.021-7.8405 4.122-15.9919 6.314-24.5zm-.294 13.5337c2.531-9.8222 5.155-20.0029 7.868-30.5337zm-8.238 31.966c-.828 3.214-1.644 6.381-2.448 9.5z" stroke="#000" stroke-linecap="round" stroke-linejoin="round"/><path d="m148.663 188.5 3.737-14.5m6.056-23.5 2.835-11m4.638-18 7.602-29.5m4.639-18 1.546-6m-1.546 29.2316c1.259-4.8842 2.635-10.2263 4.082-15.8414m-30.795 107.1098c1.227-4.761 2.47-9.586 3.737-14.5zm9.535-37c1.095-4.248 2.21-8.577 3.35-13zm4.937-19.159c2.557-9.921 5.238-20.324 8.077-31.341zm12.241-47.4996c1.326-5.1439 2.686-10.4206 4.082-15.8414zm-23.778 104.6586c1.289-5 2.62-10.167 3.995-15.5zm10.308-40c.929-3.605 1.874-7.271 2.835-11zm4.422-17.159c1.587-6.156 3.215-12.474 4.884-18.951z" stroke="#000" stroke-linecap="round" stroke-linejoin="round"/><path d="m157.406 188.5 3.607-14m6.314-24.5 2.191-8.5m2.448-9.5 1.933-7.5m3.865-15 4.51-17.5m-22.332 97.5c1.269-4.925 2.555-9.916 3.865-15zm9.576-37.159c.804-3.121 1.62-6.286 2.448-9.5zm8.463-32.841c1.5-5.822 3.045-11.814 4.639-18zm-14.588 69c1.167-4.53 2.37-9.197 3.607-14zm8.573-33.268c.781-3.031 1.574-6.109 2.379-9.232zm6.015-23.342c1.509-5.854 3.055-11.855 4.639-18z" stroke="#000" stroke-linecap="round" stroke-linejoin="round"/><path d="m166.663 188.5 3.608-14m3.995-15.5 2.448-9.5m2.835-11 2.951-11.453m-13.043 61.453c1.185-4.599 2.386-9.259 3.608-14zm6.958-27c.805-3.124 1.621-6.289 2.448-9.5zm5.412-21c.299-1.16.6-2.327.902-3.5zm-8.919 47c.551-2.137 1.109-4.304 1.675-6.5zm5.798-22.5c.969-3.758 1.956-7.591 2.964-11.5z" stroke="#000" stroke-linecap="round" stroke-linejoin="round"/><path d="m184.523 155-1.546 6m.603 8.5c1.223-4.742 2.466-9.569 3.737-14.5zm3.193 0c1.213-4.706 2.459-9.54 3.737-14.5z" stroke="#000" stroke-linecap="round" stroke-linejoin="round"/><path d="m190.302 168.5 3.698-14.35m-.904 14.35c1.209-4.693 2.44-9.47 3.698-14.35zm3.579-1.5c1.242-4.819 2.517-9.766 3.825-14.841z" stroke="#000" stroke-linecap="round" stroke-linejoin="round"/><path d="m200.817 165.5 3.866-15m3.18-1.5c-1.22 4.736-2.528 9.809-3.865 15m7.702-17.5c-1.366 5.302-2.698 10.47-3.994 15.5z" stroke="#000" stroke-linecap="round" stroke-linejoin="round"/><path d="m211.364 159.5 5.136-19.932m-1.312 15.932c.434-1.685.872-3.381 1.312-5.09z" stroke="#000" stroke-linecap="round" stroke-linejoin="round"/><path d="m78.5 166.5c8.5-51.194 46-53 65-53 12.707.889 23 .346 41.5-1.5 12.191-2.54 12.914-5.379 8.5-7.689m39.824-5.811c9.845 25.475-15.998 25-22.824 25-7 0-54.5-4.609-54.5-20.5.125-1.074 1.23-1.857 3-2.39m18.5-.263c-1.332-.163-2.674-.297-4-.401" stroke="#000" stroke-linecap="round" stroke-linejoin="round"/><path d="m104.5 33.7503c-9.0295.9621-15.75 7.25-15.75 16.75s11.2499 14.5 19.25 14.5c8 0 18.506-4.0136 20.5-12.5 2.35-10-4.734-17.0379-12.5-19.889-9.994-3.6688-19.8677 1.4223-27.25 7.639" stroke="#d9dae6" stroke-linecap="round" stroke-linejoin="round"/><path d="m102.5 52.8333c-2-2-2.138-6.6088 1-8.3333 2.499-1.4997 5.462-2.0228 8-1 1.577.6355 3.505 2.3329 3.695 4.25.191 1.9357-.783 3.8904-2.195 5.0833-3.238 2.7355-8.5 2-10.5 0z" stroke="#d9dae6" stroke-linecap="round" stroke-linejoin="round"/><path d="m105 54c-2.612 2.481-6.3184 5.7035-9 8" stroke="#d9dae6" stroke-linecap="round" stroke-linejoin="round"/><path d="m88 52c3.3639-.3571 6.717-.8259 10.0483-1.4583.9873-.1874 1.9587-.4125 2.9517-.5417" stroke="#d9dae6" stroke-linecap="round" stroke-linejoin="round"/><path d="m110.625 30.75c-.068 4.1867-1.062 8.3103-2 12.375" stroke="#d9dae6" stroke-linecap="round" stroke-linejoin="round"/><path d="m66.5 109.5c3.5 0 4.6353 5.208 7.4404 5 3.8029-.282 6.6192-16.5 9.0596-16.5 1.7405 0 5.8916 18.948 6 18.5.1567-.648 4-14.5 6-14.5s1.8798 5.119 4 8.715c1.882 3.193 3-4.562 4.5-4.562s1.644 2.562 2.5 5.347 3.689-2.75 9-2.75c.337 0 10.495 0 8.75 0" stroke="#d9dae6" stroke-linecap="round" stroke-linejoin="round"/><path d="m73.4999 114.375c-.1704 1.591.8766.586.4792.139-.5395-.607-1.3331.017-1.2014.709.1532.804 1.0378-.218 1.1597-.535.1792-.466-.6549-.785-.8125-.313" stroke="#d9dae6" stroke-linecap="round" stroke-linejoin="round"/><path d="m82.375 97.7501c-.1087.7429.6598 1.1272.625.5-.0361-.6489-1.11-.9425-.9931-.0069.0719.5751 1.049.4413 1.1112-.1181.0604-.5443-.8681-.7507-.8681-.125" stroke="#d9dae6" stroke-linecap="round" stroke-linejoin="round"/><path d="m88.875 115.875c-.3551.301-.7715.777-.6111 1.299.095.308.8339.403 1.0347.187.7164-.771-.9025-1.083-1.0208-.68-.3051 1.037 1.3254 1.08 1.4583.25.1729-1.081-1.1768-.914-1.6111-.306" stroke="#d9dae6" stroke-linecap="round" stroke-linejoin="round"/><path d="m99.625 111.375c-.5011.788.407.692.2362.007-.1168-.467-.6308-.221-.7084.118-.0943.413.4104.73.4653.236.024-.216-.1533-.915-.3681-.486" stroke="#d9dae6" stroke-linecap="round" stroke-linejoin="round"/><path d="m113.25 108.5c-.074.359-.243 1.097.361 1.097.243 0 .501-.291.583-.5.2-.503-.688-.825-.993-.52-.273.273-.066.876.299.916.416.046.74-.37.25-.493" stroke="#d9dae6" stroke-linecap="round" stroke-linejoin="round"/><path d="m103.25 105.875c.059.723.796 1.273.75.278-.018-.385-.683-.787-.847-.278-.4 1.237 1.026.429.347-.25" stroke="#d9dae6" stroke-linecap="round" stroke-linejoin="round"/><path d="m95.0002 101.625c-.2338.16-1.2731 1.45-.25 1.222.4015-.089.6999-.816.2222-1-.4282-.164-.6284.319-.4583.702.2221.499.4861-.538.4861-.674" stroke="#d9dae6" stroke-linecap="round" stroke-linejoin="round"/><path d="m230.577 95.3483c4.942 0 8.948-3.9972 8.948-8.9281 0-4.9308-4.006-8.928-8.948-8.928-4.941 0-8.947 3.9972-8.947 8.928 0 4.9309 4.006 8.9281 8.947 8.9281z" fill="url(#e)"/><path d="m230.787 113.762c14.477 0 26.213-11.711 26.213-26.1564 0-14.4458-11.736-26.1564-26.213-26.1564s-26.213 11.7106-26.213 26.1564c0 14.4454 11.736 26.1564 26.213 26.1564z" fill="url(#f)"/><path d="m230.227 104.066c9.42 0 17.056-7.6192 17.056-17.0186s-7.636-17.0191-17.056-17.0191c-9.419 0-17.056 7.6197-17.056 17.0191s7.637 17.0186 17.056 17.0186z" fill="url(#g)"/><path d="m228.76 82.793-1.818 10.602 3.006-3.906.07.279 1.468 8.2305 3.775-.7672-3.216-7.7423 4.684 1.0463z" fill="#fff"/><path d="m229 83.499c-.833 3.2084-1.667 6.4167-2.5 9.625" stroke="#000" stroke-linecap="round" stroke-linejoin="round"/><path d="m226 94.124c1.281-1.3235 2.434-2.7225 3.625-4.125" stroke="#000" stroke-linecap="round" stroke-linejoin="round"/><path d="m229.5 89.874c.962 3.0828 1.614 6.2389 2.375 9.375" stroke="#000" stroke-linecap="round" stroke-linejoin="round"/><path d="m231.625 89.624c1.583 2.5901 2.628 5.4942 3.875 8.25" stroke="#000" stroke-linecap="round" stroke-linejoin="round"/><path d="m231.625 89.624c1.909.5441 3.825 1.0189 5.75 1.5" stroke="#000" stroke-linecap="round" stroke-linejoin="round"/><path d="m228.5 83.249c2.874 2.6306 5.837 5.1643 8.625 7.875" stroke="#000" stroke-linecap="round" stroke-linejoin="round"/><path d="m230.625 98.249c1.758-.1151 3.498-.3142 5.25-.5" stroke="#000" stroke-linecap="round" stroke-linejoin="round"/><g opacity=".65"><g opacity=".65"><path d="m230.556 144.09c3.635-1.814 6.85-7.185 8.248-10.254.909-2.022 1.678-6.696 5.453-8.858 3.774-2.162 6.92 5.022 5.242 8.161-3.076 5.789-7.829 13.531-12.512 12.625-7.27-1.465-6.431-1.674-6.431-1.674z" fill="url(#i)" opacity=".69"/><path d="m230.276 144.02c3.635-1.813 7.13-3.627 8.528-6.766.909-2.022 5.592-8.439 9.367-10.671s3.915 5.58 2.237 8.718c-3.076 5.79-6.99 12.137-11.674 11.23-7.269-1.464-8.458-2.511-8.458-2.511z" fill="url(#k)" opacity=".22"/><path d="m153.944 85.8485c1.398-2.5807 2.027-3.5572 3.425-6.696.909-1.953.629-9.765 4.404-11.9971 3.775-2.232 12.792 4.6036 11.114 7.7423-3.075 5.7893-10.485 18.9024-14.12 15.7636-3.775-3.1387-4.823-4.8128-4.823-4.8128z" fill="url(#m)" opacity=".17"/><path d="m153.664 85.7788-.279-5.58c-.21-3.2086.559-8.6491 4.264-10.8811 3.704-2.232 10.904 6.5565 9.227 9.6953-3.076 5.7893-2.727 9.9046-7.829 11.9971-.909.3487-5.383-5.2313-5.383-5.2313z" fill="url(#n)" opacity=".8"/><path d="m200.778 128.117c2.307-1.256 5.732-5.301 7.13-8.37.909-2.023 2.446-9.486 6.221-11.649 3.775-2.162 10.066 5.092 8.947 8.51-1.677 5.162-.419 8.161-15.658 13.043-4.613 1.465-6.64-1.534-6.64-1.534z" fill="url(#p)" opacity=".2"/><path d="m200.289 127.908c1.887-4.395 2.935-6.138 3.914-11.021.769-3.906-2.167-11.788 2.167-14.508 4.334-2.7203 12.023 7.463 11.394 13.671-.839 8.091-4.614 11.579-10.485 14.229-1.049.488-6.99-2.371-6.99-2.371z" fill="url(#r)" opacity=".8"/><path d="m156.321 126.513c1.398-2.581.349-17.577 4.124-19.74 3.775-2.162 14.819 7.533 13.142 10.672-3.076 5.789-10.346 12.416-14.61 10.253-.839-.488-1.747-.837-2.656-1.185z" fill="url(#t)" opacity=".38"/><path d="m155.831 126.373c1.398-1.744 1.608-2.232 2.027-3.209 1.258-3.417-.489-10.462 3.286-12.625 3.774-2.162 9.087 5.092 7.409 8.231-3.076 5.789-4.753 8.021-7.549 8.719-1.818.418-3.705 0-5.173-1.116z" fill="url(#v)" opacity=".8"/><path d="m204.762 67.7135c2.307-1.2555 5.033-8.5793 6.431-11.6483.909-1.953 2.447-9.4861 6.221-11.6483 3.775-2.1623 9.297 4.9523 8.948 8.5095-.559 6.0683-3.006 11.6483-9.437 12.2063-5.312.4883-12.163 2.5808-12.163 2.5808z" fill="url(#x)" opacity=".2"/><path d="m205.322 66.9458c1.887-4.3942 1.817-7.254 2.866-12.1365.769-3.906-2.517-11.1601 1.817-13.9501s13.911 6.417 12.233 12.4853c-1.258 4.464-3.775 9.2071-5.243 10.4626-.978.7672-11.324 3.2085-11.673 3.1387z" fill="url(#z)" opacity=".8"/><path d="m123.537 80.6869c-2.307-2.4412-4.054-3.2783-5.452-6.3473-1.538-2.9992-2.028-6.3473-1.538-9.6953.769-4.2547 8.318-1.953 9.646 1.395 2.447 6.0683 4.054 10.1138 1.468 17.7166-.349.9765-4.124-3.069-4.124-3.069z" fill="url(#A)" opacity=".69"/><path d="m125.983 82.6402c-1.677-2.5111-3.285-1.8136-4.683-4.8826-.909-1.953-1.748-10.7415-.979-15.0661.769-4.3245 6.781.6278 8.109 3.9758 2.446 6.0683 4.543 13.0433.908 16.1821-2.726 2.3715-3.355-.2092-3.355-.2092z" fill="url(#B)" opacity=".22"/><path d="m159.956 159.574c1.398-2.581 3.635-4.603 4.753-7.812 2.237-6.487-.14-10.463 3.565-12.625s13.421 9.975 11.743 13.113c-3.075 5.79-15.378 11.3-19.013 8.161-3.705-3.278-1.048-.837-1.048-.837z" fill="url(#D)" opacity=".17"/><path d="m159.956 159.574c1.188-1.395 2.446-4.743 2.656-5.789 1.817-7.254-2.167-10.323 1.538-12.555 3.704-2.232 10.904 6.556 9.227 9.695-3.076 5.789-5.662 7.812-10.835 9.905-.839.348-2.586-1.256-2.586-1.256z" fill="url(#F)" opacity=".8"/><path d="m100.819 98.1937c-.559-2.8597-.21-5.859-1.3981-9.0675-2.4466-6.4171-6.8504-7.8818-5.3825-11.9971 1.468-4.1153 16.7066-.9765 17.4756 2.511 1.398 6.4171-4.544 18.4839-9.297 18.4839-4.9631-.0698-1.398.0697-1.398.0697z" fill="url(#G)" opacity=".17"/><path d="m100.819 98.1944c.07-1.8135-1.1886-5.2313-1.6779-6.138-3.2853-6.7658-8.3183-6.5566-6.8503-10.6021 1.4679-4.1153 12.5822-1.953 13.3512 1.5345 1.398 6.417.699 9.6255-1.957 14.5081-.42.7672-2.866.6975-2.866.6975z" fill="url(#H)" opacity=".8"/><path d="m137.307 40.5807c2.307-1.2555 5.732-5.301 7.13-8.37.909-1.953 2.447-9.4861 6.221-11.6483 3.775-2.1623 10.066 5.0917 8.948 8.5095-1.678 5.0918-.42 8.1608-15.658 13.0433-4.614 1.4648-6.641-1.5345-6.641-1.5345z" fill="url(#I)" opacity=".1"/><path d="m136.818 40.3715c1.887-4.3943 2.936-6.138 3.914-11.0206.769-3.906-2.097-11.7878 2.167-14.508 4.264-2.7203 12.023 7.4633 11.394 13.671-.839 8.0911-6.92 13.1829-12.792 15.8334-1.048.4185-4.683-3.9758-4.683-3.9758z" fill="url(#J)" opacity=".6"/><path d="m73.1377 138.998c-.6291-2.859-.7689-4.045-1.6776-7.323-.5593-2.093-5.8718-7.882-4.4038-11.997 1.4679-4.116 12.722-4.674 13.491-1.186 1.398 6.417 4.1941 21.204-.6291 21.134-4.8932 0-6.7805-.628-6.7805-.628z" fill="url(#K)" opacity=".17"/><path d="m72.9281 139.137-3.8445-4.115c-2.2369-2.302-5.1728-6.975-3.7048-11.09 1.4679-4.115 12.5823-2.023 13.3512 1.465 1.398 6.417 4.3339 9.346 1.7475 14.229-.5592.906-7.5494-.489-7.5494-.489z" fill="url(#L)" opacity=".8"/><path d="m77.1919 22.794c-.6291-2.8598-1.0485-5.9288-1.9572-9.2071-.5592-2.0925-5.5922-5.99852-4.1242-10.04404 1.4679-4.045526 12.7221-4.74303 13.491-1.25551 1.398 6.41703 0 23.29665-4.8232 23.29665-4.8931-.0698-2.5864-2.79-2.5864-2.79z" fill="url(#M)" opacity=".17"/><path d="m76.5629 24.3981-1.5378-5.4405c-.9088-3.069-1.3981-8.5793 1.8174-11.50883 3.2155-2.92951 12.093 4.04553 11.1843 7.46333-1.7476 6.2775-4.0543 8.2305-8.6678 11.3693-.7689.558-2.7961-1.8833-2.7961-1.8833z" fill="url(#N)" opacity=".8"/><path d="m62.5825 59.9714c-.9087-2.79-12.5124-12.4156-11.5337-16.6006.9786-4.185 15.6579-5.5103 16.7763-2.0925 2.0971 6.2078 1.8874 16.0426-2.6562 17.5771-.8388.279-1.7476.6975-2.5864 1.116z" fill="url(#O)" opacity=".38"/><path d="m62.093 60.2503c-.3495-2.232-.4893-2.7203-.9786-3.627-1.6078-3.2783-7.8989-6.8356-6.9203-11.0903.9786-4.2548 9.9959-3.069 11.1144.3487 2.097 6.2078 2.5164 8.9978 1.1184 11.4391-.8388 1.5345-2.4466 2.6505-4.3339 2.9295z" fill="url(#P)" opacity=".8"/></g><g opacity=".65"><path d="m125.844 139.416c0-2.65-.839-2.999-2.936-5.65-1.328-1.743-7.2-6.626-7.41-10.95-.209-4.325 8.738-5.86 11.674-3.906 5.103 3.348 7.2 5.859 4.683 11.787-.699 1.674-1.118 4.255-.14 8.161.769 2.86-5.871.558-5.871.558z" fill="url(#Q)" opacity=".2"/><path d="m131.156 139.556c-3.006-3.767-.559 4.185-10.905-3.697-3.075-2.441-11.044-2.999-11.463-8.091-.42-5.092 12.232-9.277 16.776-4.952 3.355 3.208 2.027 10.671 2.446 12.555.28 1.185 3.356 3.906 3.146 4.185z" fill="url(#R)" opacity=".8"/></g><path d="m230.647 143.407c3.635-1.814 4.614-2.372 6.431-4.046.769-.697 2.517 1.116 5.522 1.535 1.748.209-2.936 4.394-5.941 3.906-7.27-1.116-6.012-1.395-6.012-1.395z" fill="url(#S)" opacity=".65"/><path d="m154.035 86.0718c-.28-.9068.28-3.0691 1.328-4.6036.559-.837 4.264 4.1153 5.383 6.4868.768 1.6043.209 1.4648-1.748 3.348-.769.6975-3.845-3.8362-4.963-5.2312z" fill="#efe59c" opacity=".65" stroke="#706f6f" stroke-miterlimit="10" stroke-width=".04"/><g opacity=".65"><path d="m200.219 128.326c3.635-1.813 5.592-4.952 7.409-6.626.769-.698 4.893 1.465 7.969 1.883 1.748.209-8.388 7.603-11.254 6.696-1.468-.558-2.866-1.185-4.124-1.953z" fill="url(#U)" opacity=".65"/><path d="m155.552 126.025c3.635-1.814 3.006-3.976 4.823-5.58.769-.698 1.538.837 2.866 2.58.349.419-.909 4.534-3.285 4.325-1.538-.14-3.006-.558-4.404-1.325z" fill="url(#V)" opacity=".65"/><path d="m204.553 67.016c3.635-1.8135 5.452-5.022 7.2-6.6263.769-.6975 4.054 2.1623 5.452 3.906.349.4185-1.538 1.2555-3.915 1.116-2.376-.1395-8.737 1.6043-8.737 1.6043z" fill="url(#W)" opacity=".65"/></g><path d="m99.7213 89.2107c-.2796-.9068 3.4947-.4185 5.0327-.6278.979-.1395-.419 2.79.14 6.696 0 .2093-2.796 2.5808-3.146 2.2321-1.537-1.674-2.0267-5.3708-2.0267-8.3003z" fill="#ffc5a1" opacity=".65"/><path d="m79.3801 26.2951c-.7689.558-.8388-.837-2.6563-1.3253-.9786-.279 3.4252-5.2313 4.5436-8.649.5592-1.674 1.398.9765 3.7747 2.3017.9087.4185-2.4466 5.9288-5.662 7.6726z" fill="#efe59c" opacity=".65"/><path d="m137.678 38.2225c.209-.9068 2.726-4.2548 4.404-5.0918.978-.4185.978 4.464 2.446 7.7423.699 1.6042-.978 1.953-3.006 3.4875-.838.558-5.102-2.79-3.844-6.138z" fill="url(#X)" opacity=".65"/><path d="m66.378 57.5437c.2796.9068.9787 2.9295 0 4.4641-.5592.837-6.2212-4.3943-10.3454-5.0221-1.7475-.279 2.9359-.279 3.8446-2.6505.3495-.837 5.662-.279 6.5008 3.2085z" fill="#9ebcfd" opacity=".65"/><path d="m127.262 85.8621c-.839-3.9758-4.823-5.4406-5.941-7.6028-.49-.9068 2.097-.7673 4.124-1.674.489-.2093 2.586-.837 1.817 1.395s0 7.8818 0 7.8818z" fill="#feb7d5" opacity=".65"/><path d="m80.4286 139.779c.3495.907-4.6834.14-6.1513.419-.9787.209-3.0757-1.395-4.7534-3.837-.9786-1.464 0 1.047 4.8233-.418 1.0485-.279 2.7261 1.534 6.0814 3.836z" fill="#efe59c" opacity=".65"/><path d="m123.208 135.943c-.279-.907 3.286-.349 4.754-.558.978-.14 1.118 1.395 3.215 4.185.14.139-5.033.279-5.382-.14-1.468-1.674-2.587-.628-2.587-3.487z" fill="#bbecd8" opacity=".65"/><path d="m159.907 159.518c3.075-2.65 3.145-4.603 4.963-6.277.769-.698 1.957 1.883 3.285 3.627.35.418-4.474 4.324-6.571 3.906-.699-.209-1.258-.628-1.677-1.256z" fill="url(#Y)" opacity=".65"/></g></svg>