<svg fill="none" height="117" viewBox="0 0 108 117" width="108" xmlns="http://www.w3.org/2000/svg" xmlns:xlink="http://www.w3.org/1999/xlink"><linearGradient id="a" gradientUnits="userSpaceOnUse" x1="66.7725" x2="19.5659" y1="72.0717" y2="97.5981"><stop offset=".123566" stop-color="#8fd7fe"/><stop offset=".528827" stop-color="#4facdf"/></linearGradient><linearGradient id="b" gradientUnits="userSpaceOnUse" x1="73.9491" x2="76.9674" y1="14.1007" y2="-9.76359"><stop offset="0" stop-color="#8fd7fe"/><stop offset=".640464" stop-color="#4facdf"/></linearGradient><path d="m17.5599 79.9666-5.9157-6.381 13.5843 3.7406 28.4832-1.9803 12.7079-4.6208c4.8203 1.7603 10.736 5.2809 10.736 5.2809s-9.9326 4.1807-13.3652 5.7209v29.9251l-31.3316 3.52-8.3258-9.241v-24.2041z" fill="#fff"/><path d="m33.0744 84.2923-16.8493-4.3869-4.6803-5.9537 14.6651 3.4469 27.1459-1.5668 14.3531-4.387 9.9847 4.387-12.7929 5.6404z" fill="url(#a)"/><g clip-rule="evenodd" fill="#000" fill-rule="evenodd"><path d="m32.5184 83.8809c.1723 0 .312.1403.312.3133v31.4768c0 .173-.1397.314-.312.314s-.312-.141-.312-.314v-31.4768c0-.173.1397-.3133.312-.3133z"/><path d="m63.8202 79.8193c.1723 0 .312.1403.312.3134v31.8833c0 .173-.1397.313-.3121.313-.1723 0-.312-.14-.312-.313v-31.8833c0-.1731.1397-.3134.3121-.3134z"/><path d="m64.8827 111.776c.0203.172-.102.328-.2732.348-8.7945 1.046-14.3499 1.627-20.1829 2.237-4.3577.456-8.8703.928-15.0043 1.622-.1713.019-.3257-.105-.345-.277s.1039-.327.2751-.346c6.1478-.696 10.6614-1.168 15.0177-1.623 5.826-.609 11.3705-1.189 20.166-2.235.1712-.021.3263.102.3466.274z"/><path d="m22.9063 104.882c.1263-.118.3237-.111.441.016 2.0863 2.256 3.5683 3.842 4.8503 5.214 1.9457 2.081 3.4309 3.67 5.8693 6.364.1159.128.1065.326-.021.443-.1275.116-.3248.107-.4407-.022-2.436-2.691-3.9159-4.274-5.8583-6.352-1.2817-1.371-2.7648-2.958-4.8569-5.221-.1173-.126-.11-.325.0163-.442z"/><path d="m24.1583 81.3828c.1723 0 .312.1403.312.3134v25.8518c0 .173-.1397.314-.312.314s-.312-.141-.312-.314v-25.8518c0-.1731.1397-.3134.312-.3134z"/><path d="m29.076 84.6211c.0112.1727.1597.3035.3316.2923 9.3056-.6095 24.2731-1.8283 36.4096-3.0471.1714-.0172.2965-.1708.2794-.343-.0172-.1722-.1701-.2978-.3415-.2806-12.1294 1.2181-27.0898 2.4363-36.3881 3.0453-.1719.0113-.3023.1604-.291.3331z"/><path d="m54.1668 75.4413c.0113.1727-.119.3219-.2909.3332-12.3375.8125-17.8591 1.0998-28.9226 1.6249-.1721.0082-.3182-.1253-.3264-.2982-.0081-.1728.1249-.3196.297-.3278 11.0607-.5249 16.5783-.8121 28.9111-1.6243.172-.0113.3205.1195.3318.2922z"/><path d="m52.1951 74.2524c.1068-.1358.303-.1589.4382-.0516 3.5745 2.836 7.5943 5.05 11.6151 7.2645.7319.403 1.4637.8061 2.193 1.2129.1506.0841.2049.2749.1212.4261-.0837.1513-.2737.2058-.4243.1218-.723-.4034-1.4507-.8041-2.1802-1.2058-4.0199-2.2136-8.0925-4.4563-11.7116-7.3278-.1352-.1072-.1583-.3043-.0514-.4401z"/><path d="m70.9384 69.4834c.0491.1659-.045.3404-.2102.3897-.1489.0444-.2961.0884-.4419.1319-7.1776 2.1428-10.5877 3.1608-16.5211 5.452-.1609.0621-.3414-.0184-.4032-.18-.0619-.1615.0184-.3428.1792-.4049 5.9563-2.3001 9.387-3.3242 16.5607-5.4658.1479-.0442.2974-.0888.4485-.1339.1652-.0494.3389.0451.388.211z"/><path d="m80.049 75.3853c.0478.1663-.0478.34-.2134.3879-6.2578 1.8114-10.4885 3.632-15.9449 6.0674-.1575.0702-.3419-.001-.4119-.1591-.0699-.1582.001-.3434.1584-.4136 5.4633-2.4385 9.7256-4.2733 16.0256-6.0969.1656-.0479.3385.0481.3862.2143z"/><path d="m66.111 70.2505c.0741-.1563.2603-.2226.4159-.1482 4.2464 2.0307 8.8999 4.2657 12.9472 6.298.1541.0774.2166.2657.1395.4205-.077.1547-.2645.2175-.4186.1401-4.0413-2.0293-8.6897-4.2619-12.9364-6.2928-.1556-.0744-.2216-.2614-.1476-.4176z"/><path d="m11.3815 73.4032c.127-.117.3244-.1084.4409.0192.5765.6317 1.1376 1.261 1.6942 1.8854 1.6029 1.798 3.1684 3.5541 4.9597 5.2031.127.1169.1356.3152.0192.4427-.1165.1276-.3138.1362-.4409.0193-1.816-1.6718-3.4108-3.4608-5.0196-5.2655-.5527-.62-1.1071-1.2419-1.6726-1.8615-.1165-.1276-.1079-.3258.0191-.4427z"/><path d="m24.2955 76.6818c.111-.1323.3078-.1493.4397-.0378 3.8486 3.2548 6.2818 5.4947 9.7259 8.9535.1219.1224.1219.3208 0 .4432-.1218.1224-.3194.1224-.4412 0-3.4312-3.4458-5.8512-5.6737-9.6867-8.9173-.1318-.1115-.1487-.3092-.0377-.4416z"/><path d="m16.1423 79.6527c.0406-.1682.2093-.2715.3767-.2307.5058.1231.9943.2418 1.4678.3567 5.7711 1.4017 9.3111 2.2614 14.7366 4.1189.1631.0559.2503.2339.1947.3977s-.2329.2514-.396.1955c-5.3979-1.848-8.9123-2.7016-14.6858-4.1038-.4722-.1147-.9596-.2331-1.4643-.356-.1675-.0407-.2703-.2101-.2297-.3783z"/><path d="m11.2893 73.5595c.0411-.1681.2101-.2709.3775-.2296 2.3698.5843 4.7245 1.2251 7.075 1.8648l.1555.0423c2.4034.654 4.8026 1.3055 7.2166 1.8952.1674.0409.2702.2104.2294.3786-.0407.1681-.2095.2713-.3769.2304-2.4231-.5919-4.8299-1.2455-7.2323-1.8993l-.1526-.0415c-2.3525-.6403-4.7011-1.2794-7.0635-1.8619-.1674-.0412-.2697-.2109-.2287-.379z"/><path d="m53.544 73.3208c.1723 0 .312.1403.312.3134v8.9354c0 .173-.1397.3133-.312.3133-.1724 0-.3121-.1403-.3121-.3133v-8.9354c0-.1731.1397-.3134.3121-.3134z"/><path d="m30.3037 113.05c-.1641-.053-.2544-.229-.2016-.394l2.1709-6.772c.0528-.164.2286-.255.3928-.202.1641.053.2543.23.2015.395l-2.1709 6.771c-.0528.165-.2286.255-.3927.202zm-2.3459-2.421c-.1641-.053-.2543-.229-.2015-.394l4.5143-14.0815c.0528-.1647.2286-.2552.3927-.2021s.2544.2297.2016.3944l-4.5143 14.0812c-.0528.165-.2287.255-.3928.202zm-2.6523-2.861c-.1632-.054-.2526-.23-.2-.394 1.1589-3.615 2.4009-7.294 3.6271-10.9242l.0478-.1415c.0161-.0476.0322-.0953.0483-.1429l3.4393-10.3537.001-.0031c.0543-.1636.2301-.2523.3933-.1985.1632.0537.2526.2297.2.3938-1.071 3.3407-2.2487 6.8294-3.4419 10.3617l-3.7206 11.2004-.001.003c-.0543.164-.2301.252-.3933.199z"/><path d="m24.1867 100.949c-.1643-.053-.255-.229-.2027-.394l5.4473-17.1617c.0524-.1649.2279-.2559.3922-.2033s.255.2289.2027.3938l-5.4473 17.1622c-.0523.165-.2279.256-.3922.203zm-.0033-9.9022c-.1641-.0531-.2544-.2296-.2016-.3943l2.6806-8.361c.0528-.1647.2286-.2552.3927-.2021.1642.0531.2544.2296.2016.3944l-2.6805 8.3609c-.0529.1647-.2287.2552-.3928.2021z"/><path d="m45.4122 83.7843c-.1641-.0531-.2543-.2296-.2015-.3943l2.3977-7.48c.0528-.1647.2286-.2552.3927-.2021.164.0531.2542.2296.2015.3943l-2.3978 7.48c-.0528.1647-.2286.2552-.3926.2021zm3.7785-.6591c-.1641-.0531-.2543-.2296-.2015-.3943l2.1862-6.82c.0528-.1647.2286-.2552.3926-.2021.1641.0531.2543.2296.2015.3943l-2.1861 6.82c-.0528.1647-.2286.2552-.3927.2021zm3.1211.0008c-.1641-.0531-.2543-.2296-.2015-.3943l1.1283-3.52c.0528-.1647.2286-.2552.3927-.2021s.2543.2296.2015.3943l-1.1283 3.52c-.0528.1647-.2286.2552-.3927.2021z"/><path d="m35.3655 84.6642c-.1641-.0531-.2543-.2297-.2015-.3944l2.5388-7.9201c.0528-.1647.2286-.2552.3927-.2021s.2543.2296.2015.3943l-2.5389 7.9202c-.0527.1647-.2286.2552-.3926.2021zm3.721-.4794c-.1641-.0531-.2543-.2296-.2015-.3943l2.3848-7.4399c.0528-.1647.2287-.2552.3927-.2021.1641.0531.2543.2296.2015.3943l-2.3848 7.4399c-.0528.1647-.2287.2552-.3927.2021zm3.1376-.0506c-.1641-.0531-.2543-.2296-.2015-.3943l2.3684-7.3885c.0528-.1647.2286-.2552.3927-.2021s.2543.2296.2015.3943l-2.3684 7.3885c-.0528.1647-.2286.2552-.3927.2021z"/><path d="m31.9957 83.7857c-.164-.0531-.2542-.2296-.2015-.3943l2.1156-6.5998c.0528-.1647.2286-.2552.3926-.2021.1641.0531.2543.2296.2015.3943l-2.1155 6.5998c-.0528.1647-.2286.2552-.3927.2021zm-2.3452-2.4207c-.1641-.0531-.2543-.2296-.2015-.3943l1.3398-4.1799c.0528-.1647.2286-.2552.3927-.2021.164.0531.2542.2297.2015.3943l-1.3399 4.1799c-.0528.1647-.2286.2552-.3926.2021zm-2.7912-2.4208c-.164-.0531-.2542-.2297-.2014-.3943l.5641-1.76c.0528-.1647.2286-.2552.3927-.2021.164.0531.2542.2297.2014.3944l-.5641 1.7599c-.0528.1647-.2286.2552-.3927.2021z"/><path d="m3.28441 45.3451c.10982-.1334.30651-.1521.4393-.0418 1.98555 1.6491 3.91407 3.3603 5.83911 5.0684.27533.2443.55058.4886.82598.7326.1292.1145.1415.3125.0275.4423-.114.1297-.3112.1421-.44042.0276-.27581-.2444-.55133-.4889-.82674-.7333-1.92572-1.7087-3.84604-3.4126-5.82313-5.0546-.1328-.1103-.15142-.3078-.0416-.4412z"/><path d="m8.1012 44.1858c.13462-.1081.33096-.0861.43854.0491 1.34637 1.6921 2.72546 3.3529 4.10866 5.0185.1824.2197.365.4396.5475.6595.1103.133.0924.3306-.0399.4414-.1324.1107-.3292.0928-.4395-.0402-.1824-.2197-.3648-.4394-.5473-.6592-1.3827-1.665-2.76623-3.3312-4.11698-5.0287-.10757-.1352-.08564-.3324.04898-.4404z"/></g><path d="m23.0894 7.52037-4.3683.62671c.7488-1.5041-2.8083-4.59586-4.6804-5.95372l4.6804-1.253419c1.4977.501369 3.5362 4.595859 4.3683 6.580429z" fill="#fff"/><path d="m20.5932 59.5371c-5.7412-8.2726-2.8082-13.892-.6241-15.6677 2.1842-1.8801 5.9285-1.2534 11.5449 1.8801 5.6164 3.1336 5.3044 13.7876 4.9923 15.6677-.312 1.8801-8.7366 8.4606-15.9131-1.8801z" fill="#fff"/><path d="m35.3995 48.973c3.3003 5.744 2.3695 12.4902-2.0791 15.0681-4.4486 2.5778-10.7304.0111-14.0307-5.7329s-2.3694-12.4903 2.0792-15.0681c4.4486-2.5779 10.7303-.0112 14.0306 5.7329z" fill="#fff"/><path clip-rule="evenodd" d="m18.5584 44.8164c-.3177.345-.6242.731-.9176 1.1608-.0662.0969-.0708.218-.0223.3164-.4042.8512-.6485 1.7851-.7514 2.7616-.3384 3.2097.844 6.9163 2.9614 9.8261 1.7132 2.3544 4.2116 4.3617 6.9169 5.3405 2.7111.9809 5.6523.9338 8.1948-.8686 2.156-1.5284 2.6886-4.2074 2.336-6.9793-.3535-2.7798-1.6029-5.7418-3.1353-7.9768-1.3737-2.0035-4.198-4.4494-7.3187-5.4872-1.1041-.3672-2.2544-.5609-3.3955-.4906-.0619-.1241-.2012-.1958-.3428-.166-1.9761.4159-3.4506 1.3004-4.473 2.5008-.0177.0207-.0351.0415-.0525.0623zm.4697.413c.9728-1.052 2.0409-1.6719 3.1405-1.9722 1.4447-.3946 2.9742-.2456 4.4575.2476 2.977.99 5.6951 3.3433 7.0008 5.2477 1.4849 2.1657 2.6912 5.0346 3.0303 7.7008.3401 2.674-.1977 5.0558-2.0769 6.3879-2.3378 1.6573-5.0552 1.7202-7.6234.791-2.574-.9313-4.9753-2.8542-6.6245-5.1206-2.0455-2.8111-3.1637-6.3657-2.8448-9.3905.1557-1.4768.6525-2.8182 1.5405-3.8917z" fill="#000" fill-rule="evenodd"/><path clip-rule="evenodd" d="m29.4194 44.0763c.1344.1083.156.3055.0481.4405-.9235 1.1559-1.5752 2.0286-2.4456 3.3399-.0956.144-.2893.1829-.4327.0869s-.1821-.2906-.0865-.4346c.8823-1.3292 1.5453-2.2168 2.4781-3.3844.1078-.135.3042-.1566.4386-.0483z" fill="#000" fill-rule="evenodd"/><path clip-rule="evenodd" d="m31.5583 45.3958c.1346.1081.1564.3053.0488.4405-.365.4582-.7335.9335-1.1167 1.4278-.014.0181-.0281.0362-.0421.0543-.3979.5133-.8117 1.0465-1.2514 1.5984-.1076.1351-.304.157-.4385.0489-.1346-.1081-.1564-.3053-.0487-.4404.4367-.5483.8481-1.0785 1.2462-1.5919.0144-.0186.0287-.0371.0431-.0556.3824-.4933.7531-.9715 1.1208-1.433.1076-.1352.304-.1571.4385-.049z" fill="#000" fill-rule="evenodd"/><path clip-rule="evenodd" d="m33.7711 46.725c.1297.114.1428.3119.0294.4422-.9768 1.121-1.6922 1.891-2.4224 2.6769-.4172.449-.8393.9032-1.3176 1.4311-.116.128-.3134.1373-.4408.0208-.1275-.1165-.1368-.3147-.0208-.4427.4889-.5394.9145-.9974 1.3328-1.4475.7247-.7798 1.4274-1.536 2.3991-2.6513.1135-.1303.3106-.1435.4403-.0295z" fill="#000" fill-rule="evenodd"/><path clip-rule="evenodd" d="m35.0905 48.9247c.1303.1133.1443.3112.0315.442-.0479.0555-.0957.1109-.1435.1663-1.213 1.4055-2.4205 2.8046-3.593 4.2387-.1094.1338-.306.1532-.4392.0434-.1332-.1099-.1525-.3073-.0431-.4411 1.1779-1.4408 2.3903-2.8455 3.6019-4.2493.0484-.0562.0969-.1123.1453-.1684.1129-.1308.3099-.1449.4401-.0316z" fill="#000" fill-rule="evenodd"/><path clip-rule="evenodd" d="m36.0599 51.109c.139.1024.169.2985.0671.438-.9321 1.2765-2.0095 2.3547-3.1005 3.4465-.1155.1156-.2312.2314-.347.3476-.1218.1224-.3194.1224-.4412 0-.1219-.1223-.1219-.3207 0-.4431.1154-.116.2304-.2311.3448-.3456 1.0959-1.097 2.1388-2.1409 3.0407-3.376.1019-.1395.2972-.1697.4361-.0674z" fill="#000" fill-rule="evenodd"/><path d="m89.8622 31.6488-4.9923-3.1335c6.49-1.0028 11.6488-5.2226 13.4169-7.2072l6.5522 3.1336c-2.496 4.0109-11.0245 6.4759-14.9768 7.2071z" fill="#fff"/><path d="m100.159 11.5942-8.1126-1.5668c.7488-3.00826-2.6002-6.89382-4.3683-8.46057 5.7412-.50136 8.4246.62671 9.0486 1.25342z" fill="#fff"/><path d="m94.0194 10.1301c0-1.53111-1.5039-5.7893-5.5141-8.30637h5.5141l4.2608 1.25854 3.7598 8.80973c-2.8408-.5034-8.0206-1.7619-8.0206-1.7619z" fill="#fff" fill-opacity=".2"/><path clip-rule="evenodd" d="m84.7565.151109c.0893-.14804114.2811-.1953926.4285-.105762.1136.069047.2273.137953.341.206873 2.1705 1.31531 4.3496 2.63577 5.6672 5.04009.8524 1.55528 1.1667 3.10672 1.3272 4.79909.0163.1722-.1095.3252-.2811.3416-.1715.0164-.3238-.1099-.3402-.2822-.1564-1.64963-.4577-3.10601-1.2526-4.5563-1.2346-2.25276-3.2783-3.49251-5.4822-4.829426-.1005-.06097-.2014-.122142-.3025-.183621-.1474-.089631-.1945-.282302-.1053-.430344z" fill="#000" fill-rule="evenodd"/><path clip-rule="evenodd" d="m91.1692 9.67805c.0401-.16832.2084-.27214.376-.23189.8736.2098 1.7653.39206 2.6697.57694.5926.1211 1.1907.2434 1.7927.3752 1.5086.3304 3.0163.7162 4.4254 1.2823.16.0643.238.2466.174.4073s-.246.2388-.406.1746c-1.3605-.5467-2.8284-.9238-4.3263-1.2519-.5827-.1276-1.174-.2485-1.765-.3694-.9155-.1872-1.83-.3743-2.7096-.5855-.1676-.0403-.271-.20934-.2309-.37765z" fill="#000" fill-rule="evenodd"/><path clip-rule="evenodd" d="m96.2632 2.47335c.1432-.09623.337-.05763.4328.08622 2.0774 3.11856 3.327 7.12948 3.987 9.77983.042.1679-.06.338-.227.38s-.336-.0601-.378-.228c-.655-2.63051-1.8843-6.55642-3.9007-9.58337-.0958-.14384-.0573-.33846.0859-.43468z" fill="#000" fill-rule="evenodd"/><path clip-rule="evenodd" d="m88.9959 1.88523c-.9613.0528-2.0258.09279-3.2497.03645-.1722-.00792-.3053-.15449-.2974-.32737.0078-.17288.1538-.3066.3259-.29868 1.1936.05494 2.2342.01616 3.1871-.03617.2073-.01138.4112-.02347.612-.03538.7175-.04253 1.3963-.08277 2.0518-.08043 1.7024.00607 3.2785.29856 5.1997 1.547.1447.09402.1861.28802.0924.43332-.0936.14529-.2867.18686-.4314.09285-1.8035-1.17196-3.2576-1.44074-4.8629-1.44646-.6341-.00227-1.287.0364-2.0008.07868-.2036.01206-.4122.02441-.6267.03619z" fill="#000" fill-rule="evenodd"/><path clip-rule="evenodd" d="m91.7343 1.31096c.0621-.16145.2427-.24182.4035-.17951 1.2147.47086 2.4462 1.33757 3.5648 2.3145 1.1216.97956 2.1457 2.08398 2.9457 3.04799.1103.13294.0924.33054-.04.44133s-.3291.09282-.4394-.04013c-.7842-.94499-1.7851-2.02379-2.8758-2.97628-1.0937-.95512-2.2618-1.76929-3.38-2.20274-.1608-.06231-.2408-.24371-.1788-.40516z" fill="#000" fill-rule="evenodd"/><path d="m75.8715 78.6723-6.0153-3.2722 7.2685-1.7619 8.0204 5.0341z" fill="#fff"/><path clip-rule="evenodd" d="m78.5975 74.1931c-4.3402 0-6.6559.5939-9.5069 1.9502-.1557.0741-.3418.0073-.4156-.1491-.0737-.1564-.0073-.3432.1485-.4173 2.9421-1.3996 5.3502-2.0105 9.774-2.0105.1723 0 .312.1403.312.3134 0 .173-.1397.3133-.312.3133z" fill="#000" fill-rule="evenodd"/><path clip-rule="evenodd" d="m85.7903 78.4699c-4.0934-1.0724-8.2697-.3855-12.369.7393-.1662.0456-.3378-.0528-.3832-.2197s.0525-.3393.2187-.3849c4.1284-1.1328 8.4355-1.856 12.691-.7411.1667.0437.2667.2149.2232.3823-.0435.1675-.214.2678-.3807.2241z" fill="#000" fill-rule="evenodd"/><path clip-rule="evenodd" d="m70.1945 75.1012c.0791-.1537.2673-.214.4204-.1345 2.0023 1.0389 4.0233 1.9963 6.0694 2.9552.1562.0732.2237.2597.1508.4165-.0728.1568-.2585.2246-.4147.1514-2.0465-.9591-4.0775-1.9211-6.092-2.9663-.1531-.0795-.213-.2685-.1339-.4223z" fill="#000" fill-rule="evenodd"/><path clip-rule="evenodd" d="m76.2738 73.6235c.0775-.1545.2652-.2166.419-.1387 3.1746 1.6077 6.2465 3.264 9.2415 5.1976.1449.0936.1869.2875.0937.4331-.0932.1455-.2862.1877-.4312.0941-2.9687-1.9166-6.0188-3.5618-9.1849-5.1652-.1539-.0779-.2157-.2664-.1381-.4209z" fill="#000" fill-rule="evenodd"/><path clip-rule="evenodd" d="m31.0048 62.9638c.1541-.0774.3415-.0146.4186.1402.212.4258.4245.8515.637 1.2773 3.1451 6.3015 6.2965 12.6157 8.0467 19.511.0425.1677-.0583.3383-.2253.3811-.167.0427-.3369-.0586-.3794-.2263-1.7329-6.8271-4.8554-13.084-8.0069-19.3989-.2101-.421-.4203-.8423-.6303-1.264-.077-.1548-.0146-.343.1396-.4204z" fill="#000" fill-rule="evenodd"/><path clip-rule="evenodd" d="m36.7475 64.2649c.1645-.0518.3396.0401.3912.2052.6617 2.1182 1.3055 4.2377 1.949 6.3557.9883 3.2535 1.9757 6.5037 3.0251 9.7405.0533.1645-.0363.3414-.2001.395-.1639.0535-.34-.0364-.3933-.201-1.0504-3.2399-2.0416-6.5026-3.0318-9.7622-.6432-2.1171-1.286-4.233-1.9444-6.3404-.0516-.1651.0399-.341.2043-.3928z" fill="#000" fill-rule="evenodd"/><path clip-rule="evenodd" d="m20.763 66.6015c3.1465-.7292 6.3485 1.2915 8.2834 3.5989.0544.0649.1069.1391.1574.2209.4316.0166.8561.0966 1.2267.1913 1.6159.4133 2.6755 1.1695 3.1705 2.268.4897 1.0867.3897 2.4291-.1271 3.936-.0562.1636-.2337.2506-.3967.1942-.1629-.0563-.2495-.2347-.1934-.3983.4941-1.4404.5434-2.5977.1487-3.4735-.3894-.8641-1.2479-1.5333-2.756-1.919-.2444-.0625-.5038-.1153-.7648-.1461.0622.168.1181.3451.1668.5245.1526.5631.2472 1.1991.2332 1.7528-.007.2767-.0414.5452-.1166.7783-.0745.231-.198.4541-.4022.6011-.4442.3199-1.0222.1413-1.6315-.3143-.465-.3478-.8603-.8706-1.0281-1.4472-.1709-.5873-.1059-1.2422.3773-1.7881.3714-.4196.8494-.6294 1.341-.7147-1.8803-2.1714-4.7987-3.8913-7.5483-3.2541-.1679.0389-.3354-.0662-.3742-.2349-.0387-.1686.066-.3368.2339-.3758zm8.0661 4.4503c-.0136.0009-.0273.002-.0409.0031-.4851.0396-.9071.1989-1.2112.5425-.3157.3567-.3666.7772-.2447 1.1959.125.4293.4311.843.8019 1.1203.583.4361.8179.3633.895.3077.0566-.0407.1208-.1256.1722-.2849.0507-.1571.0803-.3611.0864-.6011.0122-.4795-.0708-1.0535-.2115-1.5723-.073-.2692-.1581-.5112-.2472-.7112z" fill="#000" fill-rule="evenodd"/><path d="m104.546 23.9739c2.308 2.0283-9.7747 6.4604-14.2862 7.8029l-5.7647-4.5308c2.6153.137 10.3669-3.6614 13.7851-6.0409 2.2558 1.0068 4.2608 1.0068 6.2658 2.7688z" fill="#fff"/><path clip-rule="evenodd" d="m84.1893 28.1203c.0745-.156.2609-.2219.4162-.147 1.0424.502 1.9961 1.1467 2.9213 1.7781.0304.0207.0607.0414.0911.0621.8993.6139 1.7728 1.2102 2.7044 1.678.1542.0774.2167.2656.1396.4204s-.2645.2175-.4186.1401c-.9699-.4869-1.8742-1.1044-2.7636-1.7115-.0345-.0236-.0691-.0472-.1036-.0708-.9292-.634-1.8463-1.2525-2.8404-1.7314-.1554-.0748-.221-.262-.1464-.418z" fill="#000" fill-rule="evenodd"/><path clip-rule="evenodd" d="m98.3999 20.7655c.1272.1167.1362.3149.02.4427-4.6709 5.1376-9.6696 6.3816-14.8023 7.5387-.1682.0379-.3351-.0682-.3728-.2371s.068-.3365.2361-.3744c5.1177-1.1537 9.9467-2.3656 14.4781-7.3497.1162-.1278.3136-.1368.4409-.0202z" fill="#000" fill-rule="evenodd"/><path clip-rule="evenodd" d="m105.795 23.8208c.141.0993.175.2947.077.4364-1.929 2.7665-4.904 4.4581-8.102 5.6439-2.4249.8992-5.0097 1.5178-7.3917 2.0879-.7546.1806-1.4888.3563-2.1911.5346-.167.0424-.3367-.0593-.3789-.2271s.059-.3382.2261-.3806c.7191-.1824 1.4645-.3609 2.2261-.5432 2.3747-.5684 4.9071-1.1747 7.2933-2.0595 3.1462-1.1667 5.9832-2.8001 7.8062-5.4154.099-.1417.294-.1762.435-.077z" fill="#000" fill-rule="evenodd"/><path clip-rule="evenodd" d="m97.4533 20.7249c.071-.1577.2558-.2278.4128-.1565.525.2383 1.0483.4778 1.5709.7169 2.762 1.2641 5.504 2.5188 8.355 3.5293.162.0576.247.2366.19.3998s-.235.2488-.398.1912c-2.879-1.0206-5.65-2.2887-8.4117-3.5527-.5212-.2385-1.042-.4769-1.5632-.7134-.157-.0713-.2268-.2569-.1558-.4146z" fill="#000" fill-rule="evenodd"/><path clip-rule="evenodd" d="m104.6 14.4667c.154-.0774.342-.0146.419.1402.768 1.5432.443 3.1406-.219 4.5954-.498 1.0945-1.211 2.1553-1.838 3.0892-.201.2991-.393.5853-.567.8553-.093.1454-.286.1872-.431.0933-.145-.0938-.186-.2878-.093-.4332.187-.2914.389-.5917.596-.9.621-.9253 1.291-1.9224 1.765-2.9651.628-1.3806.874-2.7584.229-4.0546-.078-.1548-.015-.3431.139-.4205z" fill="#000" fill-rule="evenodd"/><path clip-rule="evenodd" d="m103.252 13.4302c.358-.2812.844-.4369 1.323-.3247.253.0592.425.2137.533.4036.092-.0005.185.0071.273.0236.323.0601.703.2705.744.7452.037.4245-.123.8796-.355 1.2494-.233.3704-.571.7081-.952.8664-.289.1203-.602.1501-.836-.0627-.071-.0652-.123-.1429-.159-.2252-.17-.0703-.341-.1523-.495-.2511-.379-.2437-.702-.6192-.702-1.2104 0-.4965.268-.9329.626-1.2141zm1.805 2.0131c.066-.0758.128-.1598.185-.2503.188-.3001.283-.6185.262-.8608-.007-.0751-.052-.1489-.237-.1833 0-.0001-.001-.0002-.001-.0003.002.0514.002.1023.001.1523-.009.4242-.12.8724-.21 1.1424zm-.678-1.7381c-.246-.0386-.519.0432-.743.2187-.24.1886-.386.4555-.386.7204 0 .3121.152.5137.415.6824.009.0059.018.0117.027.0175.014-.2257.056-.4828.124-.7247.053-.1833.124-.3693.219-.532.083-.1425.195-.2837.344-.3823zm-.011 1.6851c.002-.0022.004-.0045.006-.0067.026-.0262.046-.0502.06-.0694.009-.0121.013-.0191.014-.0211.077-.213.184-.6222.195-.9896-.022.0269-.046.0604-.07.1016-.026.0448-.051.0951-.074.1499 0 .0183-.001.0369-.004.0557-.009.0567-.022.1275-.036.2005-.002.0066-.003.0133-.004.02-.016.0827-.033.1729-.049.2673-.016.0986-.03.1974-.038.2918z" fill="#000" fill-rule="evenodd"/><path clip-rule="evenodd" d="m35.6277 22.8669c-.9225.7275-1.4342 1.762-1.0781 3.0873.1201.4469.2726.8869.4316 1.3344.0188.0527.0376.1055.0565.1584.1402.3934.2831.7942.4047 1.1987.274.9113.4504 1.8726.2657 2.9219 1.5914 1.0147 2.667 2.159 3.353 3.374.9184 1.6265 1.121 3.3488.9659 4.9942-.1548 1.6417-.6666 3.217-1.1871 4.5632-.2006.5186-.4041 1.0074-.5894 1.4523-.0551.1323-.1086.2607-.1599.3848-.2263.5477-.4076 1.0065-.5114 1.3717-.0474.1664-.2201.2627-.3858.2152-.1657-.0476-.2616-.221-.2143-.3874.1152-.405.3105-.8959.5351-1.4397.0526-.1271.1069-.2575.1625-.391.1848-.4438.3841-.9225.5815-1.4328.5131-1.327 1.0008-2.8392 1.1475-4.3953.1464-1.5524-.0474-3.1383-.8874-4.626-.6028-1.0676-1.5473-2.1006-2.967-3.0388-.2611.83-.7243 1.5209-1.3476 2.0178-.7709.6146-1.7682.9173-2.885.8365-1.0118-.0733-2.2749-.345-3.2168-.9486-.4746-.3041-.8817-.7016-1.1238-1.2142-.2443-.5175-.3078-1.1257-.1371-1.8228.1962-.8015.6687-1.2973 1.2938-1.5513.6051-.2458 1.3294-.2564 2.0415-.1591 1.4267.1948 2.9486.8441 3.7336 1.2136.4334.2041.8394.4154 1.2192.6335.0978-.8219-.0465-1.6002-.2841-2.3905-.1167-.3883-.2539-.7732-.3947-1.1682-.0189-.053-.0378-.1061-.0568-.1594-.1592-.4479-.3192-.9086-.4464-1.3819-.4336-1.6139.2162-2.8925 1.2952-3.7434 1.0643-.8393 2.5561-1.2778 3.8993-1.2778.1723 0 .312.1403.312.3133 0 .1731-.1397.3134-.312.3134-1.227 0-2.5767.405-3.5139 1.144zm-.6258 9.0011c-.4155-.2467-.867-.486-1.3569-.7166-.7748-.3647-2.225-.9788-3.5528-1.1601-.6652-.0909-1.2637-.0677-1.7233.1191-.4396.1786-.7736.5141-.9219 1.12-.1403.5729-.0812 1.0315.095 1.4045.1784.3778.4896.6944.8955.9545.8191.5248 1.9655.7823 2.926.8518.9747.0705 1.8141-.1936 2.4522-.7022.5534-.4412.9691-1.0774 1.1862-1.871z" fill="#000" fill-rule="evenodd"/><path clip-rule="evenodd" d="m40.6788 20.8985c.1693.2386.2342.546.1331.8797-.093.3069-.234.5526-.4371.7003-.2184.1589-.4682.1749-.6917.0929-.2102-.0773-.3882-.2358-.5249-.4179-.0015-.002-.003-.0039-.0044-.006-.1184-.0497-.2292-.1243-.3186-.2292-.0144-.0169-.0279-.0342-.0406-.052-.0794.102-.1622.2269-.2685.3874-.0149.0225-.0303.0458-.0462.0697-.0956.144-.2893.1829-.4327.0869s-.1821-.2905-.0865-.4345c.0189-.0286.0377-.0571.0564-.0854.1704-.2583.3325-.5041.55-.6936.0385-.0335.0782-.065.1195-.0945.0841-.306.2859-.5152.5372-.6221.2542-.1082.5418-.1061.7933-.0341.2519.072.499.223.6617.4524zm-1.13.7037c.2127.0113.4183-.0919.5008-.2473-.034-.0028-.075-.0033-.1222-.001-.0783.0038-.1576.0144-.2226.0253-.0858.0144-.1622.0304-.2308.0482.0218.0619.047.1205.0748.1748zm.5302-.3263c.0001 0 0 .0007-.0002.0022zm.0544.0952s-.0009-.0003-.0023-.0011c.0017.0006.0024.001.0023.0011z" fill="#000" fill-rule="evenodd"/><path clip-rule="evenodd" d="m56.1092 1.95727c.13.11356.1438.31148.0307.44208-1.0564 1.22007-2.1266 2.4757-3.1825 3.71469-.1075.12605-.2148.25194-.3219.3776-.112.13147-.309.14681-.4399.03426-.1309-.11254-.1462-.31035-.0341-.44182.1071-.12566.2144-.25158.3219-.37769 1.0557-1.2387 2.1274-2.49623 3.1856-3.71828.113-.13059.3101-.1444.4402-.03084z" fill="#000" fill-rule="evenodd"/><path clip-rule="evenodd" d="m53.977 21.138c.1032-.1386.2987-.167.4368-.0635 1.2173.9133 2.4022 1.7931 3.4947 2.5955.1391.1022.1694.2982.0677.4379s-.2969.1702-.436.068c-1.0944-.8037-2.2811-1.6849-3.4999-2.5993-.1381-.1035-.1664-.2999-.0633-.4386z" fill="#000" fill-rule="evenodd"/><path clip-rule="evenodd" d="m67.4491 12.126c.1219.1223.1219.3207 0 .4431-1.2627 1.2681-2.3845 2.431-3.4557 3.5412-2.5181 2.6102-4.756 4.9298-7.885 7.6437-.1304.1131-.3275.0986-.4401-.0324-.1126-.1309-.0982-.3288.0322-.4419 3.1072-2.6949 5.3175-4.9861 7.8265-7.5869 1.0743-1.1135 2.2033-2.2838 3.4809-3.5668.1218-.1224.3194-.1224.4412 0z" fill="#000" fill-rule="evenodd"/><path clip-rule="evenodd" d="m54.6437 2.41198c.1034-.13845.299-.16651.4369-.06267 1.9892 1.49832 3.5074 2.82883 5.0307 4.16379.3434.30099.6871.6022 1.0365.90561 1.8993 1.64917 3.9803 3.37519 7.138 5.51509.1428.0968.1805.2916.0841.435-.0964.1435-.2904.1813-.4332.0845-3.1849-2.1583-5.2862-3.90129-7.197-5.56052-.353-.3065-.699-.60975-1.0439-.91194-1.5219-1.33371-3.0205-2.64696-4.9897-4.13016-.1378-.10384-.1658-.30025-.0624-.4387z" fill="#000" fill-rule="evenodd"/><path clip-rule="evenodd" d="m60.1246 19.6724c-.164-.0531-.2542-.2296-.2014-.3944l3.1203-9.72977c.0528-.16473.2286-.25526.3926-.20221.164.05306.2542.2296.2014.39433l-3.1203 9.72985c-.0528.1647-.2286.2552-.3926.2022zm5.2572-5.2728c-.164-.0531-.2541-.2296-.2013-.3944l.6685-2.0846c.0528-.1648.2286-.2553.3927-.2022.164.053.2541.2296.2013.3943l-.6685 2.0846c-.0528.1648-.2286.2553-.3927.2023z" fill="#000" fill-rule="evenodd"/><path clip-rule="evenodd" d="m56.2309 23.173c-.1641-.0531-.2542-.2296-.2014-.3943l1.8088-5.6404c.0528-.1647.2286-.2553.3927-.2022.164.053.2541.2296.2013.3943l-1.8088 5.6404c-.0528.1647-.2286.2552-.3926.2022zm3.4166-10.654c-.1641-.0531-.2542-.2296-.2014-.3944l1.3064-4.07357c.0528-.16473.2286-.25526.3926-.20221.1641.05306.2542.2296.2014.39433l-1.3064 4.07355c-.0528.1648-.2286.2553-.3926.2023zm-2.5176-1.8802c-.164-.053-.2542-.2296-.2014-.3943l1.4069-4.38694c.0528-.16473.2286-.25526.3926-.20221.1641.05305.2542.2296.2014.39432l-1.4069 4.38693c-.0528.1648-.2286.2553-.3926.2022zm-2.8629-2.19344c-.164-.05305-.2542-.2296-.2014-.39433l1.4692-4.5814c.0529-.16473.2287-.25526.3927-.20221s.2542.2296.2013.39433l-1.4692 4.5814c-.0528.16473-.2286.25526-.3926.20221z" fill="#000" fill-rule="evenodd"/><path d="m51.7785 24.2581-11.0281-8.8097 10.5268-11.32682 11.78 9.31312z" fill="url(#b)"/><path clip-rule="evenodd" d="m50.5143 3.04516c.13.11356.1437.31148.0307.44208-1.0511 1.21389-2.1179 2.46564-3.1713 3.7016-2.9868 3.50456-5.8654 6.88216-7.97 8.90976-.1244.1198-.3219.1157-.4412-.0092s-.1152-.3233.0092-.4431c2.0805-2.0043 4.9264-5.3435 7.9054-8.83877 1.0583-1.24176 2.1334-2.50322 3.197-3.73153.113-.13059.3101-.1444.4402-.03084z" fill="#000" fill-rule="evenodd"/><path clip-rule="evenodd" d="m38.1374 14.2526c.1091-.134.3057-.1536.4391-.044 3.4767 2.8586 10.096 7.9086 13.7356 10.5485.1397.1013.1712.2972.0703.4375s-.2959.1719-.4356.0705c-3.6471-2.6452-10.2768-7.703-13.7657-10.5716-.1333-.1096-.1529-.307-.0437-.4409z" fill="#000" fill-rule="evenodd"/><path clip-rule="evenodd" d="m61.8542 13.2138c.1219.1224.1219.3208 0 .4432-1.2627 1.2681-2.3845 2.4309-3.4557 3.5412-2.5181 2.6102-4.756 4.9298-7.885 7.6437-.1305.1131-.3275.0986-.4401-.0324-.1127-.1309-.0982-.3288.0322-.4419 3.1072-2.695 5.3174-4.9861 7.8265-7.5869 1.0743-1.1135 2.2033-2.2838 3.4809-3.5669.1218-.1223.3194-.1223.4412 0z" fill="#000" fill-rule="evenodd"/><path clip-rule="evenodd" d="m49.0488 3.49987c.1034-.13845.299-.16651.4368-.06267 1.9893 1.49832 3.5075 2.82883 5.0308 4.16379.3434.30099.6871.6022 1.0365.90561 1.8992 1.6492 3.9803 3.3752 7.138 5.5151.1428.0968.1805.2916.0841.435-.0964.1435-.2904.1813-.4332.0845-3.1849-2.1583-5.2862-3.9013-7.197-5.56053-.353-.3065-.699-.60975-1.0439-.91194-1.5219-1.33371-3.0205-2.64696-4.9897-4.13016-.1378-.10384-.1658-.30025-.0624-.4387z" fill="#000" fill-rule="evenodd"/><path clip-rule="evenodd" d="m54.6694 9.5421c.0944.14477.0541.339-.0901.43382-1.8602 1.22348-2.9079 2.51828-3.4831 3.71498-.5756 1.1975-.6872 2.3159-.6458 3.1999.0306.6541.1372 1.1404.2125 1.4841.0299.1364.0549.2503.0682.3433.0054.0376.0114.0893.0081.1414-.0016.0262-.0063.0684-.0239.115-.0181.0479-.0576.1199-.1399.1699-.1698.1031-.3287.0114-.3537-.003l-.0002-.0001c-.0493-.0284-.0919-.0661-.1228-.0953-.1153-.1092-.3036-.3338-.5779-.661-.0164-.0195-.033-.0394-.05-.0597-.2906-.3465-.5471-.6765-.8035-1.0065-.7341-.9446-1.4681-1.8892-3.004-3.2229-.1304-.1132-.1447-.3111-.032-.442s.3098-.1453.4401-.0321c1.5859 1.3771 2.3657 2.3808 3.1075 3.3355.2465.3173.4889.6293.7553.9477-.0476-.2871-.0903-.6232-.1072-.9849-.0451-.9636.0769-2.1905.7072-3.5017.6306-1.3121 1.7609-2.6894 3.7032-3.96686.1442-.09481.3376-.05432.432.09046z" fill="#000" fill-rule="evenodd"/><path d="m25.8459 20.6789c-1.3728-.497-4.8962-1.5407-5.2623-1.7394-.7321 1.7891.3051 5.384.9152 6.9578 1.2202 1.2425 4.164 3.7772 3.4319 1.988-.7322-1.7892.305-5.7154.9152-7.2064z" fill="#fff"/><path clip-rule="evenodd" d="m19.8171 18.4405c.1704.0257.2878.1852.2622.3564-.4037 2.7031.1861 5.1995 1.3975 7.6904.0756.1555.0114.3431-.1435.4191-.1548.0759-.3417.0114-.4173-.1441-1.2502-2.5708-1.8812-5.1967-1.4538-8.0584.0256-.1711.1844-.2891.3549-.2634z" fill="#000" fill-rule="evenodd"/><path clip-rule="evenodd" d="m25.412 19.419c.1417.0985.177.2937.0789.436-1.7871 2.5923-1.7331 5.43-1.0221 8.4593.0396.1685-.0643.3372-.2321.3769-.1677.0397-.3357-.0646-.3753-.2331-.728-3.1017-.8177-6.1542 1.1164-8.9598.0981-.1423.2925-.1778.4342-.0793z" fill="#000" fill-rule="evenodd"/><path clip-rule="evenodd" d="m18.4091 18.0445c.0601-.1622.2398-.2448.4013-.1844.5686.2124 1.1433.4206 1.7203.6295 1.7021.6164 3.4245 1.2402 5.0734 2.0045.1564.0725.2247.2586.1525.4158-.0722.1571-.2576.2257-.4141.1532-1.6221-.7519-3.3079-1.3624-5.003-1.9764-.5819-.2107-1.1648-.4218-1.7467-.6392-.1615-.0604-.2438-.2408-.1837-.403z" fill="#000" fill-rule="evenodd"/><path clip-rule="evenodd" d="m19.1299 24.9451c.0707-.1578.2554-.2282.4125-.1572 1.6902.7639 3.2162 1.707 4.7458 2.6524.4469.2761.894.5525 1.3456.8246.1478.0891.1957.2816.1071.43-.0887.1484-.2804.1965-.4281.1074-.4651-.2802-.9209-.5618-1.3728-.8411-1.5234-.9414-3.0037-1.8561-4.6536-2.6018-.1572-.071-.2273-.2565-.1565-.4143z" fill="#000" fill-rule="evenodd"/><path d="m20.0812 1.06853c-1.3728-.496992-3.0077-.503364-6.0153.75514 3.5089 3.02049 5.4052 3.96374 6.0153 5.53755h4.0102s-1.2532-3.02048-4.0102-6.29269z" fill="#fff"/><path clip-rule="evenodd" d="m11.757 1.21995c.0614-.16172.2417-.242879.4027-.18127 1.4184.54266 2.9615 1.67802 4.2722 3.03005 1.3109 1.35233 2.4188 2.95168 2.9412 4.44744.057.16331-.0286.34213-.1912.39941s-.3407-.02867-.3977-.19198c-.4827-1.38215-1.5278-2.90587-2.7995-4.2177-1.272-1.31211-2.7413-2.38199-4.0472-2.88157-.161-.06161-.2418-.24265-.1805-.40438z" fill="#000" fill-rule="evenodd"/><path clip-rule="evenodd" d="m18.4092.773773c.0441.167299-.0552.338817-.2218.383107-1.5528.41278-3.1081.81621-4.6624 1.21939-.4266.11064-.853.22127-1.2794.33207-.1668.04335-.3371-.05732-.3802-.22486-.0432-.16755.057-.33851.2239-.38187.4269-.11095.8538-.22169 1.2807-.3324 1.554-.40311 3.1069-.805921 4.6577-1.218172.1666-.044285.3374.055437.3815.222735z" fill="#000" fill-rule="evenodd"/><path clip-rule="evenodd" d="m17.3146.11977c.1065-.1360802.3026-.1597192.4381-.0527987 3.1238 2.4648187 4.781 5.4582387 5.7907 7.8242387.0679.15907-.0055.34328-.1639.41145-.1584.06818-.3418-.00551-.4097-.16458-.987-2.31291-2.5915-5.20234-5.6026-7.578317-.1355-.106921-.1591-.303912-.0526-.439993z" fill="#000" fill-rule="evenodd"/><path clip-rule="evenodd" d="m24.4041 7.84888c-2.4521 0-4.8918.11121-7.3497.2382-.1721.00889-.3188-.12401-.3277-.29684-.0088-.17283.1235-.32015.2956-.32904 2.4589-.12704 4.9124-.23903 7.3818-.23903.1723 0 .312.14029.312.31335s-.1397.31336-.312.31336z" fill="#000" fill-rule="evenodd"/><path d="m11.5595 70.5395c-3.00765-1.7619-9.77488-2.5171-11.028067-2.7688l2.506377-2.2653 5.01276 1.2585c2.17223 1.8459 5.91503 5.1852 3.50893 3.7756z" fill="#fff"/><path clip-rule="evenodd" d="m10.9808 68.7363c.4222.167.8381.3314 1.2465.4891.1608.062.2411.2433.1793.4049-.0619.1615-.2424.2421-.4032.18-.4186-.1615-.8414-.3287-1.2678-.4973-1.39329-.5509-2.82575-1.1172-4.28018-1.5555-1.89579-.5711-3.797-.9136-5.640099-.7153-.171345.0185-.325129-.1061-.343488-.2782-.018358-.172.105662-.3265.277007-.3449 1.96038-.211 3.95256.1557 5.8859.7382 1.48198.4465 2.94816 1.0262 4.34606 1.579z" fill="#000" fill-rule="evenodd"/><path clip-rule="evenodd" d="m4.72816 64.5345c.11869.1255.11363.3239-.01131.443-1.36258 1.3-2.0951 1.6912-3.804775 2.4781-.156655.0721-.341855.003-.413655-.1543s-.003011-.3433.153643-.4154c1.674767-.7709 2.340357-1.1276 3.634977-2.3627.12493-.1192.32243-.1141.44112.0113z" fill="#000" fill-rule="evenodd"/><path clip-rule="evenodd" d="m3.31836 65.1903c0-.1731.1397-.3133.31202-.3133 1.81046 0 3.29788.3846 5.40919 1.3741.15616.0732.22367.2596.1508.4165-.07288.1568-.25854.2246-.4147.1514-2.05373-.9625-3.45012-1.3153-5.14529-1.3153-.17232 0-.31202-.1403-.31202-.3134z" fill="#000" fill-rule="evenodd"/><path clip-rule="evenodd" d="m8.00871 65.8513c.12064-.1236.31819-.1255.44125-.0044 1.67164 1.6459 3.41594 3.1295 5.31034 4.5035.1397.1013.1712.2972.0703.4375s-.296.1719-.4357.0706c-1.9204-1.3929-3.68858-2.8969-5.38182-4.5641-.12305-.1211-.12501-.3195-.00437-.4431z" fill="#000" fill-rule="evenodd"/><path d="m58.4288 69.0295 3.5089-6.2927h7.2685z" fill="#fff"/><path clip-rule="evenodd" d="m62.0999 61.2715c.1614.0608.2431.2414.1826.4034-.5432 1.4547-1.2904 2.8188-2.0555 4.1532-.1263.2202-.253.4395-.3794.6583-.6429 1.1131-1.278 2.2125-1.813 3.3541-.0734.1566-.2593.2238-.4152.1501-.1559-.0736-.2228-.2603-.1494-.4169.5474-1.1683 1.1983-2.295 1.8414-3.408.1255-.2173.2507-.434.3748-.6504.7636-1.3317 1.4882-2.6576 2.012-4.0604.0605-.1621.2404-.2442.4017-.1834z" fill="#000" fill-rule="evenodd"/><path clip-rule="evenodd" d="m62.2835 63.2654c-.5209.0314-1.0426.0628-1.5652.0927-.1721.0099-.3195-.1222-.3293-.295s.1217-.3208.2938-.3307c.5183-.0296 1.0371-.0609 1.5563-.0922 2.3045-.139 4.6172-.2784 6.9376-.2784.1723 0 .312.1403.312.3134 0 .173-.1397.3133-.312.3133-2.2999 0-4.5897.138-6.8932.2769z" fill="#000" fill-rule="evenodd"/><path clip-rule="evenodd" d="m68.8797 62.4245c.0873.1492.0377.3413-.1108.429-1.1356.6709-2.1532 1.2472-3.1067 1.7873-2.7352 1.5493-4.9438 2.8003-7.9017 5.1277-.1357.1068-.3318.0829-.4381-.0534-.1063-.1362-.0825-.3331.0532-.4399 2.9978-2.3588 5.2567-3.6382 8.0052-5.1949.9487-.5373 1.9558-1.1077 3.0717-1.767.1485-.0877.3398-.0379.4272.1112z" fill="#000" fill-rule="evenodd"/><path d="m59.4313 48.641-5.514-4.7824 18.7978-9.3132 5.5141 5.0342z" fill="#fff"/><path clip-rule="evenodd" d="m56.1563 45.0183c.1005.1406.0685.3364-.0715.4373-2.652 1.9121-5.7357 4.8115-7.8169 7.3444-2.4955 3.0371-3.9768 6.3465-3.16 10.2428.1947.9286.5366 1.9574 1.0716 2.8212.109.176.2254.3442.3495.5028.1286-1.9399.3624-3.6633.7526-4.8821.1442-.4505.3137-.8449.5151-1.1604.2007-.3142.445-.5688.746-.7094.6422-.3001 1.3381-.0096 2.0369.6779.7321.7202.9803 1.8222.9944 2.8828.0142 1.07-.2083 2.1653-.4893 2.9475-.2002.5571-.5143 1.1981-.9768 1.6518-.4767.4676-1.1224.7421-1.9229.5061-.4068-.12-.774-.3019-1.1046-.5299-.0198.4804-.0343.9713-.0442 1.4692-.1208 6.0959.4601 13.066.5766 13.9031.0238.1714-.0952.3297-.2659.3537-.1706.0239-.3283-.0956-.3522-.267-.1214-.8731-.7038-7.8765-.5824-14.0022.0131-.6642.0346-1.32.066-1.9581-.3177-.3144-.5925-.6734-.8287-1.0548-.5852-.9449-.9481-2.0488-1.1523-3.0231-.8715-4.157.7309-7.6571 3.2893-10.7708 2.1152-2.5743 5.2383-5.5108 7.9342-7.4546.14-.1009.335-.0688.4355.0718zm-9.0395 21.9707c.3627.3132.7756.5525 1.244.6907.5406.1594.9606-.0094 1.311-.3531.3646-.3577.6391-.8963.8259-1.4162.2581-.7184.4654-1.7388.4523-2.7265-.0132-.9971-.2496-1.8949-.8071-2.4434-.6472-.6368-1.0638-.685-1.337-.5574-.1567.0732-.3208.2241-.4839.4795-.1622.2542-.3118.5937-.4463 1.014-.4065 1.2695-.6413 3.1583-.7589 5.3124z" fill="#000" fill-rule="evenodd"/><path clip-rule="evenodd" d="m51.8716 48.381c-.0592.0622-.125.1084-.1899.1337-.0111.0043-.0224.0082-.034.0114-.0148-.0893-.0263-.1904-.0332-.304-.0082-.1335-.0984-.2423-.2184-.28.0716-.0382.1532-.0682.2445-.0865.0518.0472.1171.139.1741.3171.0235.0735.0423.1429.0569.2083zm-.118-1.1692c-.0043-.0014-.0087-.0027-.013-.004-.3103-.0917-.6054.0289-.8061.2031-.1017.0882-.1907.1993-.2564.325-.0926.1143-.1643.2425-.2112.38-.0977.2862-.083.6067.0783.8936.1607.2856.4487.5072.8434.6394.0682.0228.1387.0207.2016-.0015.1252.0675.2705.0931.4281.0463.2876-.0855.4385-.3677.4928-.6415.0303-.1529.0371-.3266.0175-.5174.1234-.2195.1992-.492.1528-.7462-.0248-.1357-.0864-.2727-.2014-.3812-.1157-.1089-.2637-.1688-.4259-.1869-.1031-.0115-.2034-.0141-.3005-.0087z" fill="#000" fill-rule="evenodd"/><path clip-rule="evenodd" d="m52.5239 42.5069c.1006-.1405.2956-.1725.4355-.0714 1.1912.8605 2.2257 1.8877 3.2454 2.9004.3654.3628.7288.7237 1.0969 1.0744.0143.0136.029.0276.0441.042.2359.225.5644.5383.8748.7847.1663.132.3142.234.4307.2929.0517.0262.0873.0387.1084.0439.1449-.0485.307.0161.3773.1573.077.1548.0146.343-.1396.4204-.1243.0624-.252.0579-.3479.0394-.0976-.0188-.1929-.0577-.2791-.1013-.1726-.0874-.3593-.2201-.5367-.3609-.3338-.265-.6816-.5968-.9144-.8188-.0163-.0156-.032-.0306-.0472-.045-.3888-.3705-.7646-.7436-1.1369-1.1133-1.0087-1.0016-1.9918-1.9778-3.1402-2.8074-.1399-.101-.1718-.2968-.0711-.4373zm6.2507 5.0696s-.0005 0-.0014-.0001z" fill="#000" fill-rule="evenodd"/><path clip-rule="evenodd" d="m71.6746 33.4991c.0679.159-.0055.3433-.1638.4114-3.3266 1.4318-6.5394 3.0977-9.7585 4.7774-.1179.0615-.2359.1231-.3538.1846-3.0986 1.6172-6.2073 3.2396-9.4169 4.6594-.1577.0698-.3419-.0021-.4113-.1605-.0695-.1583.0021-.3433.1598-.413 3.1908-1.4115 6.2834-3.0256 9.3868-4.6452.1159-.0605.2318-.121.3477-.1814 3.2171-1.6787 6.4494-3.3551 9.8003-4.7973.1584-.0682.3419.0055.4097.1646z" fill="#000" fill-rule="evenodd"/><path clip-rule="evenodd" d="m77.7361 38.0872c.0887.1484.0408.3409-.107.43-2.2382 1.3486-4.6093 2.4751-6.958 3.591-.6193.2942-1.2371.5877-1.8504.8843-2.2412 1.0839-4.4142 2.2519-6.5959 3.4245-1.3116.7049-2.6264 1.4116-3.961 2.1027-.1531.0793-.3413.0189-.4203-.1349s-.0188-.3428.1343-.4221c1.3159-.6814 2.6233-1.384 3.9325-2.0876 2.1923-1.1782 4.3896-2.359 6.6396-3.4472.6223-.3009 1.2459-.5973 1.8689-.8932 2.3452-1.1144 4.6801-2.2238 6.8892-3.5549.1478-.0891.3395-.041.4281.1074z" fill="#000" fill-rule="evenodd"/><path clip-rule="evenodd" d="m71.3426 33.04c.1168-.1273.3142-.1354.4409-.0181.8371.7747 1.7023 1.5022 2.5736 2.2349.16.1345.3202.2692.4805.4044 1.0303.8692 2.0606 1.7566 3.0358 2.736.1219.1224.1219.3208 0 .4432-.1218.1223-.3194.1223-.4412 0-.9547-.9588-1.9672-1.8314-2.996-2.6993-.1587-.1339-.3179-.2677-.4773-.4017-.8711-.7325-1.7493-1.471-2.5983-2.2567-.1267-.1172-.1347-.3155-.018-.4427z" fill="#000" fill-rule="evenodd"/><path clip-rule="evenodd" d="m81.0842 33.1624c.0495.1657-.0442.3404-.2092.3901-1.09.3284-2.1516.7861-3.2149 1.2803-.3378.1569-.6771.3182-1.0175.4801-.724.3442-1.4532.6908-2.1842 1.0035-.1586.0679-.3419-.0062-.4094-.1655-.0675-.1592.0063-.3432.1648-.411.7198-.3079 1.4297-.6455 2.1474-.9867.3432-.1632.6882-.3272 1.0368-.4892 1.0708-.4976 2.1645-.9703 3.2977-1.3117.165-.0498.339.0443.3885.2101z" fill="#000" fill-rule="evenodd"/><path clip-rule="evenodd" d="m82.5334 31.9922c.1032.1046.1607.2389.1866.3817.0334.1847-.0153.3544-.0861.4897-.0705.1348-.1714.2528-.2749.3498-.2019.1892-.464.3444-.6706.4025-.2205.062-.4292.0636-.6189-.0062-.1888-.0694-.326-.1974-.4256-.3364-.0407-.0567-.0768-.1179-.1091-.1816-.0581-.0468-.1092-.107-.1433-.1838-.0438-.0983-.0477-.1964-.0323-.2822-.0196-.0677-.0368-.1323-.0526-.1914-.0023-.0087-.0046-.0174-.0069-.0259-.0446-.1672.0541-.339.2205-.3839.0945-.0254.1905-.0045.264.049.1164-.0795.248-.1469.3788-.1909.147-.0494.3635-.093.5578-.0062.002.0009.0041.0018.0061.0027.1409-.0516.2941-.0814.4445-.0622.1276.0163.2571.0689.362.1753zm-.5041.6592c.0219-.028.0393-.0546.0522-.0793.0279-.0533.0257-.0793.0245-.0861-.0045-.025-.0099-.0397-.0135-.0474-.0058-.0007-.0128-.001-.0208-.0008-.0023.0453-.009.0885-.0181.1284-.0066.0287-.0148.0571-.0243.0852z" fill="#000" fill-rule="evenodd"/><path d="m42.0067 43.4201c.2908-.197 2.7815-2.9462 3.9906-4.2961l.761 6.6458c-.9777 3.1382-3.1637 9.4649-4.0865 9.666-.9228.201-2.8597-.7142-3.7129-1.197.8948-3.5241 2.7571-10.6216 3.0478-10.8187z" fill="#fff"/><path d="m41.6365 55.1856 3.01-8.5567 2.2532-.5049-4.0119 9.3122z" fill="#4facdf"/><path clip-rule="evenodd" d="m42.0448 43.2108c.1679.0389.2723.2072.2333.3758-.7397 3.1926-1.6831 6.3309-2.6229 9.4568-.1654.5502-.3307 1.1-.4947 1.6497-.0495.1658-.2234.2601-.3885.2107s-.2588-.2239-.2093-.3897c.1647-.5521.3305-1.1035.4962-1.6546.9398-3.1265 1.8766-6.2428 2.6113-9.414.0391-.1686.2068-.2736.3746-.2347z" fill="#000" fill-rule="evenodd"/><path clip-rule="evenodd" d="m46.5788 37.9213c.1499.0849.2028.2758.1181.4265-1.4538 2.5845-3.3971 4.316-5.539 6.2244-.15.1337-.301.2683-.4529.4041-.1288.1151-.326.1037-.4404-.0253-.1145-.1291-.1029-.3271.0259-.4422.1471-.1315.293-.2615.4375-.3904 2.1562-1.922 4.0251-3.5879 5.4257-6.0779.0848-.1507.2751-.204.4251-.1192z" fill="#000" fill-rule="evenodd"/><path clip-rule="evenodd" d="m45.96 37.5135c.1723.0053.3075.1498.302.3227-.0324 1.0187.1654 2.6821.4107 4.3765.1094.7552.2284 1.5174.3385 2.2226.1339.8578.2547 1.6312.3288 2.2048.0222.1716-.0984.3289-.2693.3515-.171.0226-.3276-.0983-.3498-.2699-.0738-.5706-.1919-1.3268-.3241-2.1732-.11-.704-.2298-1.4705-.3419-2.2447-.2439-1.6846-.4513-3.4032-.4169-4.4865.0055-.173.1497-.309.322-.3038z" fill="#000" fill-rule="evenodd"/><path clip-rule="evenodd" d="m47.5919 44.2622c.154.0774.2162.2656.1389.4203-1.8506 3.7052-3.3201 7.5089-4.6769 11.4295-.0566.1635-.2344.2502-.3972.1937-.1628-.0566-.2489-.235-.1923-.3985 1.3612-3.9334 2.8409-7.7655 4.7086-11.5048.0773-.1548.2648-.2175.4189-.1402z" fill="#000" fill-rule="evenodd"/><path clip-rule="evenodd" d="m43.7466 55.4543c.0176.1721-.1072.3262-.2787.3441-.8879.0929-2.0094-.1348-2.9956-.5139-.9774-.3758-1.901-.9308-2.3413-1.5541-.0996-.141-.0664-.3366.0743-.4369.1406-.1003.3354-.0672.4351.0739.3314.469 1.1117.9688 2.0559 1.3318.9355.3596 1.9534.5548 2.7079.4759.1715-.0179.3248.1071.3424.2792z" fill="#000" fill-rule="evenodd"/><path clip-rule="evenodd" d="m46.3379 41.3139c-.033.1699-.1969.281-.3661.2481-.1844-.0358-.4674-.1361-.7251-.2414-.2596-.1061-.533-.2335-.6971-.3365-.146-.0917-.1902-.285-.0986-.4318s.2842-.1914.4302-.0997c.117.0734.3496.1845.6017.2875.254.1039.4885.1834.6084.2066.1692.0329.2796.1973.2466.3672z" fill="#000" fill-rule="evenodd"/><path clip-rule="evenodd" d="m47.0325 45.016c.009.1728-.1232.3205-.2954.3298-.1329.0072-.3242.0539-.5652.1329-.2076.0681-.4311.1528-.6602.2396-.0318.012-.0637.0241-.0957.0362-.2573.0973-.5213.1952-.7543.2617-.2161.0617-.4694.1166-.6769.0726-.142-.0301-.2645-.1054-.3647-.1868-.1019-.0828-.1979-.1859-.2871-.2955-.1778-.2185-.3539-.4944-.5187-.7638-.0507-.0827-.1002-.1647-.1488-.245-.1139-.1886-.2227-.3688-.3296-.5315-.1569-.2388-.2812-.394-.3724-.4644-.1366-.1054-.162-.3021-.0568-.4394s.3011-.1631.4377-.0577c.1833.1414.3575.3796.5127.6159.1138.1731.2325.3696.3492.5628.0471.078.0939.1555.1399.2306.1646.2688.3216.5127.4704.6955.0741.091.1397.1589.1965.205.0586.0475.092.0591.1016.0611.0402.0085.1564.0008.3773-.0622.2041-.0582.4445-.147.7049-.2454.0312-.0118.0628-.0237.0946-.0358.2273-.0861.4654-.1763.6875-.2492.2485-.0814.5056-.151.7255-.163.1721-.0093.319.1232.328.296z" fill="#000" fill-rule="evenodd"/><path clip-rule="evenodd" d="m44.1546 45.4852c.1633.055.251.2326.196.3966-1.4979 4.4622-2.2764 6.8457-3.055 9.2297l-.0001.0001c-.0537.1645-.23.2543-.3937.2006-.1638-.0536-.253-.2305-.1992-.395.7789-2.3848 1.558-4.7701 3.0566-9.2347.0551-.164.2321-.2524.3954-.1973z" fill="#000" fill-rule="evenodd"/><path d="m7.85519 35.7636-5.61641-6.267c-.52004-.7312-1.372898-2.3188-.62404-2.8202.93606-.6267 5.30438.3133 7.80056.6267 1.9969.2507 2.9122-1.7757 3.1202-2.8202 1.7682 2.8202 5.8037 7.0818 5.3044 7.8339-.624.94-4.0563.6267-8.4246 0-3.49465-.5014-2.08015 2.2979-1.56011 3.4468z" fill="#fff"/><path clip-rule="evenodd" d="m.0913893 27.375c.1218527-.1224.3194147-.1224.4412667 0 .281375.2826.562924.5648.844404.847 5.14835 5.1615 10.27264 10.299 13.85464 16.8295.0832.1516.0282.3421-.1227.4256-.151.0835-.3407.0283-.4239-.1232-3.5378-6.4499-8.6033-11.5289-13.76623-16.7056-.275622-.2764-.551521-.553-.8274807-.8302-.1218524-.1223-.1218524-.3207 0-.4431z" fill="#000" fill-rule="evenodd"/><path clip-rule="evenodd" d="m12.1233 21.9407c.169-.0339.3334.0761.3672.2458.2667 1.3392.2645 2.8293-.411 4.1425-.4339.8436-1.2077 1.2264-2.015 1.356-.80064.1285-1.66499.0155-2.36152-.1554-.40851-.1002-.8481-.2472-1.28982-.3949-.01808-.0061-.03616-.0121-.05425-.0182-.46518-.1555-.93619-.3115-1.40617-.4278-.94692-.2343-1.82633-.2905-2.56732.0964-.24999.1306-.38058.3114-.44425.5258-.06727.2265-.06384.5072-.00401.8251.11039.5866.39119 1.2018.60021 1.6596.0193.0423.03799.0833.05588.1227.0714.1575.00215.3433-.15469.415-.15684.0718-.34186.0022-.41327-.1553-.01775-.0392-.03682-.0808-.05692-.1248-.20536-.4487-.51885-1.1337-.6444-1.8008-.06938-.3686-.08771-.7606.01918-1.1206.11049-.3721.34995-.6915.75436-.9027.94805-.4951 2.0161-.3935 3.00454-.1489.49769.1232.99134.287 1.45398.4417.01429.0048.02855.0095.04278.0143.45147.151.86923.2907 1.25225.3846.65416.1605 1.42795.2556 2.11499.1453.68045-.1092 1.24395-.4121 1.55905-1.0247.5863-1.1398.6049-2.4694.3534-3.732-.0338-.1697.0758-.3347.2448-.3687z" fill="#000" fill-rule="evenodd"/><path clip-rule="evenodd" d="m10.4273 33.46c-.77104-.1404-1.48934-.1631-2.0756.0787-.18027.0744-.27664.1685-.33247.2631-.05825.0987-.08816.2252-.08901.3864-.00155.2916.08768.6157.18117.9552.01568.0569.03148.1143.04699.172.0449.1671-.05358.3391-.21996.3842-.16637.045-.33764-.0539-.38253-.2209-.01297-.0483-.02718-.0994-.04204-.1528-.09239-.3322-.20972-.754-.20767-1.1411.00124-.2337.04457-.4794.17616-.7025.13402-.2271.34408-.4044.63227-.5233.75472-.3113 1.61872-.2623 2.42399-.1157.5086.0926 1.0361.2344 1.5123.3624.2648.0712.5137.1381.7347.1899.5175.1214 1.6093.315 2.6908.3809.5409.0329 1.0691.0332 1.517-.0201.4592-.0547.7859-.1606.9662-.3024.1358-.1066.3319-.0826.4381.0537s.0823.3332-.0535.4399c-.3198.2513-.7897.3731-1.2773.4312-.499.0594-1.0679.0574-1.6282.0232-1.1208-.0682-2.2475-.2677-2.795-.3961-.262-.0614-.5288-.1334-.8014-.207-.4543-.1227-.9245-.2496-1.415-.3389z" fill="#000" fill-rule="evenodd"/><path clip-rule="evenodd" d="m11.4264 24.2226c.1434-.096.3371-.0571.4327.0869.5581.8408 1.0678 1.6314 1.5489 2.3779 1.687 2.6172 3.024 4.6914 4.8735 6.4781.1242.12.1281.3183.0086.443-.1195.1248-.317.1286-.4412.0086-1.9064-1.8415-3.2935-3.9943-4.989-6.6257-.4763-.7391-.9768-1.5159-1.52-2.3343-.0956-.144-.0569-.3385.0865-.4345z" fill="#000" fill-rule="evenodd"/></svg>