<svg xmlns="http://www.w3.org/2000/svg" width="320" height="200" fill="none"><path fill="url(#a)" fill-opacity=".2" d="M279.853 141.997c.605 23.394-44.417 43.535-100.561 44.988-56.143 1.453-102.147-16.333-102.753-39.727-.605-23.393 44.418-43.534 100.561-44.987 56.144-1.453 102.148 16.333 102.753 39.726Z"/><path fill="#FFFBEE" d="m98.379 63.184 141.877-8.497V135.6L96.162 150.639l2.217-87.455Z"/><path fill="#fff" d="m109.049 69.545 120.81-7.715v68.256l-120.81 14.542V69.545Z"/><path fill="#000" fill-rule="evenodd" d="M242.992 54.272a.5.5 0 0 1-.47.528c-48.438 2.829-96.522 5.657-149.91 8.84a.5.5 0 1 1-.059-1c53.388-3.181 101.473-6.01 149.911-8.838a.5.5 0 0 1 .528.47ZM231.276 61.48a.5.5 0 0 1-.47.528c-25.019 1.461-43.332 2.639-62.548 3.874-17.997 1.157-36.784 2.364-62.612 3.904a.5.5 0 0 1-.06-.998c25.808-1.539 44.6-2.747 62.602-3.904 19.226-1.236 37.551-2.414 62.56-3.874a.5.5 0 0 1 .528.47ZM233.043 129.704a.5.5 0 0 1-.456.541c-31.737 2.74-51.817 5.11-76.447 8.018-13.504 1.594-28.376 3.35-47.288 5.416a.5.5 0 1 1-.108-.994c18.892-2.064 33.758-3.819 47.261-5.413 24.642-2.909 44.744-5.282 76.496-8.023a.5.5 0 0 1 .542.455ZM242.284 134.86a.5.5 0 0 1-.444.55c-19.514 2.102-36.56 4.339-52.901 6.484-29.83 3.916-57.308 7.522-93.147 9.429a.5.5 0 0 1-.053-.999c35.804-1.904 63.217-5.503 93.02-9.415 16.346-2.146 33.411-4.386 52.974-6.493a.5.5 0 0 1 .551.444Z" clip-rule="evenodd"/><path fill="#000" fill-rule="evenodd" d="M238.604 53.448a.5.5 0 0 1 .5.5v80.258a.5.5 0 1 1-1 0V53.948a.5.5 0 0 1 .5-.5ZM97.533 61.58a.5.5 0 0 1 .5.5V153.3a.5.5 0 0 1-1 0V62.08a.5.5 0 0 1 .5-.5ZM108.798 67.019a.5.5 0 0 1 .5.5v77.43a.5.5 0 0 1-1 0v-77.43a.5.5 0 0 1 .5-.5ZM229.009 59.595a.5.5 0 0 1 .5.5v70.359a.5.5 0 0 1-1 0v-70.36a.5.5 0 0 1 .5-.5ZM183.905 83.94a.5.5 0 0 1-.464.534c-11.373.806-22.317 1.096-33.475 1.393-8.438.224-16.999.451-25.961.907a.5.5 0 1 1-.051-.999c9.025-.459 17.596-.686 26.031-.91 11.125-.294 22.012-.583 33.386-1.388a.5.5 0 0 1 .534.463ZM147.246 99.359c-8.874.406-17.804.718-21.9.324a.5.5 0 1 1 .095-.995c4.009.385 12.851.08 21.759-.328 2.348-.108 4.7-.222 6.964-.332 6.292-.306 11.91-.58 14.915-.58a.5.5 0 1 1 0 1c-2.978 0-8.555.272-14.835.577-2.27.11-4.633.225-6.998.334ZM167.63 112.387a.5.5 0 0 1-.431.56c-8.814 1.142-32.656 1.561-41.469 1.242a.5.5 0 0 1 .036-.999c8.79.318 32.57-.103 41.304-1.235a.5.5 0 0 1 .56.432Z" clip-rule="evenodd"/><path fill="#FEDF76" d="M67.625 118.809c.486-.753.694-1.421.771-1.857a12.45 12.45 0 0 1-.032-.113c0-.646.138-.484.032.113 1.816 6.329 4.82 8.772 7.326 9.524a21.433 21.433 0 0 1 2.06-.588c4.402-1.028 1.746 1.73-2.06.588-6.176 2.119-8.227 6.35-8.686 9.796.215.774.413 1.6.59 2.481 1.086 5.418-1.213 2.189-.59-2.481-1.767-6.355-4.71-9.152-6.879-9.503-1.868 1.568-3.1 2.272-2.336 1.001.476-.794 1.321-1.165 2.336-1.001 2.4-2.014 5.852-5.455 7.468-7.96Z"/><path fill="#000" fill-rule="evenodd" d="M68.936 116.603a2.66 2.66 0 0 1-.029.318c1.748 6.004 4.55 8.291 6.81 9.03a21.662 21.662 0 0 1 1.951-.55 9.336 9.336 0 0 1 1.408-.234c.365-.027.68-.013.924.062a.883.883 0 0 1 .38.223.654.654 0 0 1 .186.513.772.772 0 0 1-.172.414 1.346 1.346 0 0 1-.275.254c-.386.274-1.028.498-1.793.585a6.838 6.838 0 0 1-2.59-.217c-5.797 2.043-7.73 5.998-8.19 9.237.207.757.398 1.562.57 2.416.271 1.354.35 2.243.284 2.721a1.08 1.08 0 0 1-.122.393.595.595 0 0 1-.573.31.685.685 0 0 1-.446-.248c-.08-.091-.145-.2-.2-.309-.217-.429-.422-1.164-.537-2.066a12.72 12.72 0 0 1 .005-3.146c-.867-3.078-2.007-5.27-3.17-6.728-1.092-1.366-2.18-2.059-3.064-2.274-.853.706-1.599 1.251-2.076 1.478a1.35 1.35 0 0 1-.436.138.67.67 0 0 1-.325-.044.585.585 0 0 1-.316-.314.671.671 0 0 1-.044-.336c.01-.088.033-.17.059-.242.051-.144.134-.304.237-.475.554-.922 1.513-1.369 2.61-1.266 2.376-2.019 5.663-5.321 7.203-7.708.407-.631.596-1.187.677-1.564l-.018-.065v-.07c0-.174.009-.316.027-.423.006-.037.023-.13.07-.22a.51.51 0 0 1 .344-.261c.332-.071.51.184.54.232a.562.562 0 0 1 .085.264c.005.054.007.113.005.172Zm-7.756 9.947c.979.407 1.998 1.205 2.958 2.407 1.024 1.282 1.999 3.045 2.807 5.35.86-2.895 2.95-5.956 7.403-7.841-2.161-1.078-4.407-3.411-5.98-7.943-.093.18-.2.366-.322.557l-.42-.271.42.271c-1.503 2.328-4.517 5.405-6.866 7.47Zm18.538-.36-.002-.001.002.001Zm-10.84-9.614-.001.008a.042.042 0 0 1 .001-.008Z" clip-rule="evenodd"/><path fill="#FEDF76" d="M66.112 111.821c-3.483.649-5.76 2.78-6.081 4.872.056.205.09.397.102.572.129 1.957-.264.597-.11-.519l.008-.053c-.488-1.773-2.558-4.482-4.547-5.093a7.994 7.994 0 0 1-1.931.221c.591-.394 1.257-.428 1.931-.221 4.574-1.132 4.708-6.225 4.738-6.192.643 3.026.533 5.877 5.89 6.413Z"/><path fill="#000" fill-rule="evenodd" d="M55.49 111.082c-.74-.196-1.515-.143-2.215.323a.5.5 0 0 0 .278.916 8.6 8.6 0 0 0 1.909-.202c.828.296 1.715 1.017 2.477 1.915.765.902 1.343 1.912 1.582 2.696-.075.603-.015 1.26.065 1.557a.954.954 0 0 0 .053.152.588.588 0 0 0 .072.117.512.512 0 0 0 .886-.133.783.783 0 0 0 .048-.194c.023-.184.02-.51-.013-.997a3.252 3.252 0 0 0-.09-.561c.334-1.779 2.359-3.743 5.662-4.358a.5.5 0 0 0-.042-.989c-2.587-.259-3.727-1.059-4.339-2.04-.319-.512-.517-1.108-.676-1.787a24.2 24.2 0 0 1-.242-1.202c-.06-.322-.123-.655-.194-.991a.502.502 0 0 0-.605-.383c-.19.045-.28.179-.3.207-.049.073-.066.144-.068.15v.001a.534.534 0 0 0-.014.068 2.006 2.006 0 0 0-.011.096l-.013.119a8.091 8.091 0 0 1-.602 2.307c-.556 1.289-1.6 2.671-3.607 3.213Zm4.161 7.029.001-.004v.004Zm.33-2.847c.697-1.368 2.1-2.585 3.976-3.339-1.473-.44-2.391-1.165-2.982-2.112-.386-.619-.613-1.304-.78-1.997a8.452 8.452 0 0 1-.179.449c-.537 1.244-1.503 2.621-3.223 3.409.7.444 1.354 1.059 1.91 1.713.501.592.944 1.243 1.278 1.877Z" clip-rule="evenodd"/><defs><radialGradient id="a" cx="0" cy="0" r="1" gradientTransform="rotate(72.935 -8.745 192.866) scale(35.0463 85.0349)" gradientUnits="userSpaceOnUse"><stop stop-opacity=".43"/><stop offset="1" stop-opacity="0"/></radialGradient></defs></svg>
