<svg fill="none" height="200" viewBox="0 0 320 200" width="320" xmlns="http://www.w3.org/2000/svg"><path d="m0 0h320v200h-320z" fill="#fafbfc"/><path d="m69.4885 122.284 21.6664-16.951h52.4331l25.133 16.951v19.299l-25.133 17.059h-49.3998l-25.5663-17.059z" fill="#fff"/><g clip-rule="evenodd" fill-rule="evenodd"><path d="m93.2743 104.59c.1749.214.1434.529-.0703.704-4.0723 3.332-11.3804 8.524-17.5947 12.939-2.9068 2.065-5.5743 3.96-7.5594 5.415-.2227.164-.5356.115-.6988-.107-.1633-.223-.1151-.536.1076-.699 2.0128-1.476 4.7012-3.386 7.6217-5.46 6.1993-4.404 13.444-9.551 17.4903-12.862.2137-.175.5287-.144.7036.07z" fill="#000"/><path d="m66.0427 119.55c.1564-.228.4677-.285.6953-.129 3.426 2.353 6.5463 4.582 9.5462 6.725 6.815 4.867 13.0085 9.291 20.752 13.724.2397.137.3228.442.1856.682s-.4427.323-.6824.186c-7.7886-4.459-14.0435-8.926-20.8789-13.808-2.9925-2.138-6.0963-4.354-9.4887-6.685-.2276-.156-.2854-.467-.1291-.695z" fill="#000"/><path d="m140.134 103.357c.15-.232.459-.3.691-.151 9.971 6.4 20.816 13.658 29.93 20.492.221.165.266.479.1.7s-.479.265-.7.1c-9.086-6.813-19.908-14.056-29.87-20.45-.232-.149-.3-.459-.151-.691z" fill="#000"/><path d="m139.735 140.591c.176.213.492.243.704.067 2.787-2.306 8.062-5.69 13.762-9.319.285-.181.57-.363.857-.545 5.429-3.456 11.126-7.082 15.259-10.132.222-.164.27-.477.106-.7-.164-.222-.478-.269-.7-.105-4.103 3.029-9.774 6.638-15.216 10.102-.282.179-.563.358-.843.537-5.674 3.612-11.015 7.036-13.862 9.391-.213.176-.243.491-.067.704z" fill="#000"/><path d="m139.712 161.916c.16.225.472.279.697.119 3.329-2.353 6.36-4.582 9.275-6.725 6.62-4.867 12.635-9.29 20.157-13.723.238-.14.317-.446.177-.684s-.447-.317-.685-.177c-7.567 4.459-13.644 8.927-20.284 13.809-2.907 2.137-5.922 4.354-9.217 6.684-.225.159-.279.471-.12.697z" fill="#000"/><path d="m66.9108 140.018c.1577-.227.4693-.283.6959-.125 3.5235 2.451 6.7328 4.773 9.8183 7.004 7.01 5.071 13.3812 9.68 21.3466 14.297.2389.139.3203.445.1818.684s-.4445.32-.6834.182c-8.0105-4.644-14.4432-9.297-21.4737-14.383-3.0781-2.226-6.2708-4.535-9.7606-6.963-.2267-.158-.2826-.469-.1249-.696z" fill="#000"/><path d="m89.3555 137.745c0-.277.2239-.5.5-.5h59.7995c.276 0 .5.223.5.5 0 .276-.224.5-.5.5h-59.7995c-.2761 0-.5-.224-.5-.5z" fill="#000"/><path d="m147.921 105.833c-22.965 0-39.811.087-60.6373 1.279-.2757.015-.512-.195-.5277-.471-.0158-.276.1949-.512.4706-.528 20.8574-1.193 37.7274-1.28 60.6944-1.28.276 0 .5.224.5.5s-.224.5-.5.5z" fill="#000"/><path d="m145.322 159.219h-56.3327c-.2762 0-.5-.224-.5-.5 0-.277.2238-.5.5-.5h56.3327c.276 0 .5.223.5.5 0 .276-.224.5-.5.5z" fill="#000"/><path d="m69.9216 117.628c.2761 0 .5.223.5.5v24.735c0 .276-.2239.5-.5.5-.2762 0-.5-.224-.5-.5v-24.735c0-.277.2238-.5.5-.5z" fill="#000"/><path d="m167.854 119.333c.276 0 .5.224.5.5v25.033c0 .276-.224.5-.5.5s-.5-.224-.5-.5v-25.033c0-.276.224-.5.5-.5z" fill="#000"/><path d="m92.453 135.112c.2761 0 .5.224.5.5v22.654c0 .276-.2239.5-.5.5s-.5-.224-.5-.5v-22.654c0-.276.2239-.5.5-.5z" fill="#000"/><path d="m143.588 131.669c.276 0 .5.224.5.5 0 1.084.021 3.166.048 5.739.025 2.478.056 5.413.076 8.351.042 5.969.042 11.977-.126 14.128-.022.275-.262.481-.538.459-.275-.021-.481-.262-.459-.537.164-2.097.165-8.05.123-14.043-.02-2.927-.05-5.859-.076-8.338-.027-2.581-.048-4.672-.048-5.759 0-.276.224-.5.5-.5z" fill="#000"/><path d="m72.6664 123.192c.2585.075.4092.342.341.602-.2121.81-.767 2.358-1.3078 3.867l-.0072.02c-.0028.008-.0055.016-.0083.024l-1.2871 3.799c-.0865.256-.3598.398-.6182.323-.2585-.076-.4092-.342-.341-.602.2085-.797.7571-2.327 1.2949-3.828l.0052-.014 1.3103-3.869c.0865-.255.3598-.397.6182-.322z" fill="#000"/><path d="m75.2587 126.173c.2677.068.428.339.358.606l-4.2434 16.206c-.07.267-.3437.429-.6113.361-.2677-.068-.428-.339-.358-.607l4.2434-16.205c.0699-.268.3436-.429.6113-.361zm7.0883 4.691c.2676.068.4279.339.358.607l-4.3551 16.632c-.07.267-.3437.429-.6114.361-.2676-.068-.4279-.34-.358-.607l4.3552-16.632c.0699-.267.3436-.429.6113-.361z" fill="#000"/><path d="m89.5484 135.37c.2677.068.428.339.358.606l-4.5153 17.245c-.0699.267-.3436.428-.6113.36-.2676-.068-.4279-.339-.358-.606l4.5153-17.244c.07-.267.3437-.429.6113-.361z" fill="#000"/><path d="m106.238 137.688c.267.067.428.339.358.606l-5.27 20.124c-.07.268-.343.429-.611.361s-.428-.339-.358-.606l5.27-20.125c.069-.267.343-.428.611-.36zm-8.3168 0c.2677.067.428.339.358.606l-5.2694 20.124c-.07.268-.3437.429-.6113.361-.2677-.068-.428-.339-.358-.606l5.2694-20.125c.0699-.267.3436-.428.6113-.36z" fill="#000"/><path d="m114.874 137.261c.268.068.428.339.358.607-.888 3.391-1.806 7.078-2.717 10.74l-.024.095c-.903 3.629-1.799 7.231-2.652 10.488-.07.267-.344.429-.611.361-.268-.068-.428-.34-.358-.607.851-3.25 1.746-6.848 2.65-10.48l.023-.091c.911-3.661 1.83-7.354 2.72-10.752.07-.267.344-.429.611-.361z" fill="#000"/><path d="m132.273 137.688c.267.067.428.339.358.606l-5.249 20.044c-.07.267-.343.429-.611.361s-.428-.339-.358-.607l5.248-20.044c.07-.267.344-.428.612-.36zm-8.317 0c.268.067.428.339.358.606l-5.248 20.044c-.07.267-.344.429-.612.361-.267-.068-.428-.339-.358-.607l5.249-20.044c.07-.267.343-.428.611-.36z" fill="#000"/><path d="m140.969 137.687c.268.068.428.34.358.607l-5.248 20.044c-.07.267-.344.429-.611.361-.268-.068-.428-.34-.358-.607l5.248-20.044c.07-.267.344-.429.611-.361z" fill="#000"/><path d="m161.481 125.412c.267.067.428.339.358.606l-6.565 25.07c-.07.268-.344.429-.611.361-.268-.068-.428-.339-.358-.606l6.564-25.071c.07-.267.344-.428.612-.36zm-10.191 7.158c.267.068.427.34.358.607l-6.477 24.735c-.07.267-.344.429-.612.361-.267-.068-.428-.34-.358-.607l6.477-24.735c.07-.267.344-.429.612-.361z" fill="#000"/><path d="m167.649 131.29c.268.068.428.34.358.607l-3.35 12.794c-.07.267-.344.429-.612.361-.267-.068-.428-.34-.358-.607l3.351-12.794c.069-.267.343-.429.611-.361z" fill="#000"/><path d="m103.428 82.9882 9.04-7.3449 5.65 2.2599 2.26 2.825h4.52l3.955-7.3449 9.039 5.6499 2.825 5.0849-2.825 3.955 2.825 3.3899h5.085l1.695 3.39-1.695 11.865h-6.215l-4.519 6.78 2.259 5.085-9.604 6.214-2.825-5.084h-6.78l-4.52 6.214-9.04-5.084-3.955-2.26 3.955-6.78v-2.26h-3.955l-4.5199-3.955v-11.3l6.2149-.565 3.955-5.6499zm11.3 15.8197 9.04-7.3449 2.825 2.825-.565 9.04-7.91 6.215-3.39-2.825z" fill="#fff"/><path d="m103.428 82.9882 9.04-7.3449 5.65 2.2599 2.26 2.825h4.52l3.955-7.3449 9.039 5.6499 2.825 5.0849-2.825 3.955 2.825 3.3899h5.085l1.695 3.39-1.695 11.865h-6.215l-4.519 6.78 2.259 5.085-9.604 6.214-2.825-5.084h-6.78l-4.52 6.214-9.04-5.084-3.955-2.26 3.955-6.78v-2.26h-3.955l-4.5199-3.955v-11.3l6.2149-.565 3.955-5.6499zm11.3 15.8197 9.04-7.3449 2.825 2.825-.565 9.04-7.91 6.215-3.39-2.825z" fill="#ae82fc"/><path d="m111.726 88.6269c.24.1363.324.4414.188.6816l-5.367 9.4636c-.137.2402-.442.3245-.682.1883-.24-.1363-.324-.4414-.188-.6816l5.367-9.4636c.136-.2402.442-.3245.682-.1883z" fill="#000"/><path d="m107.586 84.6585c.247-.1221.547-.0204.669.2273.135.2735.268.5461.401.8175.861 1.7634 1.698 3.4747 2.808 5.0477.159.2256.105.5376-.12.6968-.226.1593-.538.1055-.697-.1201-1.16-1.6438-2.035-3.4343-2.893-5.1929-.132-.2698-.264-.539-.396-.8067-.122-.2477-.02-.5475.228-.6696z" fill="#000"/><path d="m118.798 77.9971c.26-.0924.546.0436.638.3039.57 1.6032 1.039 3.2309 1.504 4.8466.088.3037.175.607.263.9096.217.7465.359 1.2186.721 1.7611.153.2298.091.5402-.139.6934s-.54.0911-.693-.1387c-.456-.6835-.633-1.2928-.847-2.0298l-.002-.007c-.089-.307-.178-.6131-.266-.9185-.465-1.6159-.925-3.21-1.483-4.7821-.092-.2602.044-.5461.304-.6385z" fill="#000"/><path d="m119.537 76.6601c.141.2378.062.5444-.176.6849-4.212 2.4891-8.368 5.3174-11.605 8.9424-.184.206-.5.2239-.706.0399-.206-.1839-.224-.5-.04-.7059 3.341-3.7415 7.603-6.6324 11.842-9.1374.238-.1404.545-.0616.685.1761z" fill="#000"/><path d="m123.74 85.0981c-1.101-.0644-2.234.012-3.183.0835-.276.0208-.516-.1856-.537-.461-.02-.2754.186-.5154.461-.5362.948-.0714 2.142-.1533 3.318-.0846 1.167.0683 2.378.2875 3.333.8607.237.1421.314.4492.172.686s-.449.3136-.686.1715c-.75-.4497-1.768-.655-2.878-.7199z" fill="#000"/><path d="m132.704 76.9542c.212.1767.241.492.064.7042-1.792 2.1498-3.12 4.8296-4.407 7.4262-.158.319-.316.6368-.474.9521-.123.247-.423.3471-.67.2236-.247-.1234-.348-.4238-.224-.6708.156-.3124.313-.6295.472-.9498 1.279-2.5821 2.662-5.3745 4.535-7.6215.177-.2122.492-.2408.704-.064z" fill="#000"/><path d="m141.071 83.6234c.195.1952.195.5118 0 .7071-1.56 1.5598-2.742 3.6038-3.901 5.6076-.181.3118-.361.6226-.541.9304-.14.2382-.446.3181-.684.1784-.239-.1397-.318-.4461-.179-.6843.175-.2978.351-.6024.529-.9113 1.153-1.9946 2.408-4.1672 4.069-5.8279.195-.1953.512-.1953.707 0z" fill="#000"/><path d="m136.5 88.3535c.236-.1447.544-.0714.688.1638 1.193 1.9373 2.042 3.8968 2.734 6.041.085.2628-.059.5446-.322.6293-.263.0848-.545-.0595-.63-.3223-.671-2.0824-1.49-3.9664-2.633-5.8239-.145-.2352-.072-.5431.163-.6879z" fill="#000"/><path d="m147.15 94.9791c.008.276-.209.5066-.485.5149-.559.017-1.121.0377-1.685.0585-1.789.0659-3.601.1327-5.406.0828-.276-.0076-.494-.2376-.486-.5136.007-.276.237-.4936.513-.486 1.77.0489 3.537-.0162 5.319-.0818.57-.021 1.141-.042 1.715-.0594.276-.0084.506.2086.515.4846z" fill="#000"/><path d="m147.685 94.6377c.275.0258.477.2696.451.5445-.126 1.3463-.287 2.687-.447 4.0236-.341 2.8472-.68 5.6752-.68 8.5012 0 .276-.224.5-.5.5-.277 0-.5-.224-.5-.5 0-2.886.351-5.816.695-8.6951.159-1.3217.316-2.6326.437-3.9231.026-.275.269-.4769.544-.4511z" fill="#000"/><path d="m148.138 106.688c.016.276-.194.513-.47.529-2.826.166-5.654.315-8.485.424-.276.011-.508-.204-.519-.48s.205-.508.48-.519c2.823-.109 5.643-.257 8.465-.423.276-.017.512.194.529.469z" fill="#000"/><path d="m140.643 103.862c.251.115.361.411.247.662-1.313 2.872-2.992 5.512-4.66 8.134-.295.463-.589.926-.881 1.389-.147.233-.456.303-.689.156-.234-.147-.304-.456-.157-.689.297-.471.594-.938.89-1.404 1.669-2.624 3.306-5.198 4.587-8.001.115-.251.412-.362.663-.247z" fill="#000"/><path d="m134.375 112.511c.233-.148.542-.08.691.153.638 1.004 1.217 2.038 1.787 3.059.021.038.041.075.062.113.551.987 1.093 1.961 1.684 2.905.146.235.075.543-.159.689-.234.147-.543.076-.689-.159-.604-.966-1.158-1.96-1.705-2.941-.022-.04-.044-.08-.067-.12-.571-1.024-1.136-2.033-1.757-3.009-.148-.233-.08-.542.153-.69z" fill="#000"/><path d="m126.234 119.043c.058.27-.114.536-.384.594-3.036.65-5.73.818-8.828.14-.27-.059-.44-.325-.381-.595s.325-.441.595-.382c2.922.64 5.466.488 8.404-.141.27-.058.536.114.594.384z" fill="#000"/><path d="m124.975 118.833c.251-.113.547-.001.661.25.866 1.919 1.823 3.748 2.811 5.623.129.244.036.546-.209.675-.244.129-.546.035-.675-.209-.987-1.872-1.959-3.727-2.839-5.677-.113-.252-.001-.548.251-.662z" fill="#000"/><path d="m138.026 119.012c.153.229.091.54-.139.693-.106.071-.212.142-.319.213-3.079 2.053-6.237 4.16-9.633 5.756-.25.117-.547.01-.665-.24-.117-.25-.01-.548.24-.665 3.326-1.564 6.43-3.633 9.526-5.699.099-.065.198-.131.297-.197.229-.153.54-.091.693.139z" fill="#000"/><path d="m118.276 117.685c.262.087.403.37.316.632-.493 1.479-1.167 2.888-1.854 4.262-.123.246-.247.491-.37.735-.568 1.127-1.127 2.235-1.603 3.372-.106.254-.399.374-.654.268-.255-.107-.375-.4-.268-.654.491-1.173 1.069-2.319 1.638-3.447.121-.241.243-.482.363-.722.685-1.369 1.331-2.724 1.799-4.13.088-.262.371-.404.633-.316z" fill="#000"/><path d="m110.837 113.42c.199.191.205.508.014.707-1.501 1.561-2.836 3.226-4.192 4.917-.564.703-1.131 1.411-1.716 2.117-.176.213-.491.243-.704.067-.212-.176-.242-.491-.066-.704.563-.681 1.118-1.374 1.676-2.069 1.367-1.705 2.747-3.426 4.281-5.021.191-.199.508-.206.707-.014z" fill="#000"/><path d="m103.706 120.303c.142-.237.449-.314.686-.172 2.567 1.541 4.993 3.278 7.404 5.006.31.222.621.444.931.666.026.018.074.056.123.095.029.022.058.045.083.064.026.019.052.039.077.058.002-.001.004-.001.006-.002.262-.087.545.054.632.316.025.074.071.229.03.4-.025.102-.084.22-.199.309-.111.085-.23.109-.313.113-.146.007-.269-.043-.324-.067-.07-.031-.137-.07-.194-.105-.115-.072-.234-.16-.324-.229-.04-.031-.078-.06-.108-.084l-.012-.009-.041-.032-.013-.01c-.002-.002-.003-.002-.004-.003-.312-.223-.622-.445-.933-.668-2.415-1.729-4.806-3.442-7.336-4.96-.237-.142-.314-.449-.171-.686zm8.997 6.359s-.001-.003-.003-.01c.003.007.003.01.003.01zm.539-.49c.009.003.01.004.001.001 0 0-.001-.001-.001-.001z" fill="#000"/><path d="m106.879 108.484c.273-.044.53.141.574.414.318 1.959 1.293 4.125 2.685 5.517.195.196.195.512 0 .708-.196.195-.512.195-.707 0-1.568-1.568-2.621-3.94-2.965-6.065-.045-.273.141-.53.413-.574z" fill="#000"/><path d="m98.7027 108.445c.0602-.27.3276-.439.597-.379 2.0823.466 4.2903.444 6.5123.421.476-.004.953-.009 1.43-.009.276 0 .5.224.5.5s-.224.5-.5.5c-.453 0-.914.005-1.38.01-2.225.023-4.574.048-6.7805-.446-.2695-.06-.4391-.328-.3788-.597z" fill="#000"/><path d="m99.134 97.3977c.0768-.2652.354-.4181.6193-.3413 2.7387.7922 5.3907.6271 8.2737.2666.274-.0342.524.1602.558.4342.035.274-.16.5239-.434.5581-2.909.3636-5.732.5534-8.6756-.2983-.2653-.0768-.4181-.354-.3414-.6193z" fill="#000"/><path d="m100.046 97.0367c.276.004.497.2311.493.5072-.021 1.4568-.077 2.9121-.132 4.3601-.002.047-.004.094-.006.14-.057 1.497-.112 2.986-.129 4.475-.014 1.2.005 2.001.376 2.989.097.259-.034.547-.293.644-.258.097-.5463-.034-.6432-.292-.4411-1.177-.4537-2.14-.4399-3.352.0171-1.504.0733-3.007.1302-4.502.0018-.045.0035-.091.0052-.136.0554-1.451.1105-2.8959.1314-4.3406.004-.2761.2311-.4967.5073-.4927z" fill="#000"/><path d="m95.8474 93.6771c.1814-.2082.4972-.23.7054-.0486 1.5546 1.3543 2.8813 2.7781 4.2562 4.2534l.019.0202c.188.202.177.5184-.025.7066-.202.1883-.519.1771-.707-.0249l-.003-.0028c-1.3851-1.4868-2.6818-2.8784-4.1971-4.1985-.2082-.1814-.2299-.4972-.0485-.7054z" fill="#000"/><path d="m103.503 93.5485c.019.2755-.19.5138-.465.5321-.773.0516-1.523.1297-2.28.2087-.476.0496-.9542.0995-1.4433.1433-1.2491.1119-2.5228.1785-3.8372.0712-.2753-.0224-.4802-.2638-.4577-.539s.2638-.4801.539-.4577c1.2311.1005 2.4395.0394 3.6667-.0705.4571-.041.9235-.0895 1.3955-.1386.775-.0806 1.565-.1628 2.35-.2151.276-.0184.514.1901.532.4656z" fill="#000"/><path d="m107.225 88.3475c.16.2247.108.537-.116.6975-1.87 1.3355-2.842 3.624-3.482 5.9411-.073.2662-.348.4224-.615.3489-.266-.0735-.422-.3489-.348-.6151.651-2.3581 1.697-4.9414 3.863-6.4887.225-.1605.537-.1084.698.1163z" fill="#000"/><path d="m102.732 82.2863c.232-.1504.541-.0844.692.1472 1.221 1.8825 2.238 3.8196 3.145 5.8603.112.2523-.002.5478-.254.66-.253.1121-.548-.0015-.66-.2539-.89-2.0013-1.882-3.8908-3.07-5.722-.15-.2316-.085-.5413.147-.6916z" fill="#000"/><path d="m102.403 82.3693c.107-.2542.401-.373.655-.2652 1.232.5223 2.368 1.1864 3.469 1.8417.073.0432.145.0863.218.1294 1.033.6153 2.039 1.2146 3.107 1.7077.251.1157.361.4128.245.6635-.116.2508-.413.3602-.664.2445-1.118-.5161-2.167-1.141-3.19-1.7509-.076-.045-.151-.0899-.227-.1348-1.104-.6567-2.186-1.2879-3.348-1.7804-.254-.1077-.373-.4012-.265-.6555z" fill="#000"/><path d="m106.388 88.2414c.141-.2374.448-.3155.685-.1744 1.131.6721 2.298 1.2145 3.518 1.7822l.034.0158c.354.1649.724.3365 1.066.6795.196.1953.196.5118 0 .7071-.195.1953-.511.1953-.707 0-.203-.2036-.42-.312-.783-.4809l-.052-.0242c-1.206-.5611-2.412-1.1218-3.586-1.8198-.238-.1411-.316-.4479-.175-.6853z" fill="#000"/><path d="m102.575 93.3141c.226-.1589.538-.1047.697.1212 1.261 1.7922 2.519 3.4975 4.041 5.0191.195.1952.195.5118 0 .7071-.196.1952-.512.1952-.707 0-1.587-1.5868-2.887-3.3528-4.152-5.1508-.159-.2258-.105-.5377.121-.6966z" fill="#000"/><path d="m114.608 74.427c.126.2459.028.5471-.218.6728-4.58 2.3413-8.947 5.1498-11.97 9.3122-.162.2234-.475.273-.698.1108-.224-.1623-.273-.475-.111-.6984 3.163-4.3555 7.7-7.2515 12.324-9.615.246-.1257.547-.0283.673.2176z" fill="#000"/><path d="m111.745 74.7001c.131-.2432.434-.3342.677-.2033 2.206 1.1869 4.427 2.2829 6.733 3.2262.255.1045.378.3965.273.6521-.104.2555-.396.378-.652.2734-2.348-.9606-4.602-2.0736-6.828-3.2712-.243-.1308-.334-.434-.203-.6772z" fill="#000"/><path d="m125.18 81.2282c-1.947 0-3.819.0627-5.699.4152-.271.0509-.533-.1279-.583-.3993-.051-.2714.127-.5327.399-.5836 1.973-.37 3.921-.4323 5.883-.4323.276 0 .5.2239.5.5 0 .2762-.224.5-.5.5z" fill="#000"/><path d="m124.528 80.1421c.246-.1261.547-.0291.673.2166.931 1.8125 1.809 3.6508 2.683 5.4799.097.2022.193.4043.29.6063.119.2491.014.5476-.236.6668-.249.1191-.547.0138-.666-.2354-.097-.2019-.194-.4039-.29-.6057-.875-1.8311-1.747-3.6562-2.67-5.4553-.126-.2457-.03-.5471.216-.6732z" fill="#000"/><path d="m129.217 73.0774c.247.1235.348.4238.224.6708-.442.8833-.919 1.7609-1.392 2.6302-.235.4315-.469.8609-.696 1.288-.692 1.298-1.34 2.5952-1.846 3.9436-.097.2586-.385.3896-.644.2926-.258-.0969-.389-.3851-.292-.6437.529-1.4103 1.201-2.7532 1.899-4.0629.237-.4438.475-.8815.712-1.3167.468-.8597.93-1.7099 1.365-2.5783.123-.247.424-.3471.67-.2236z" fill="#000"/><path d="m129.495 73.2098c.252-.1132.548-.0008.661.2511.81 1.8026 1.664 3.5729 2.536 5.3524.121.248.019.5475-.229.669-.248.1214-.548.0189-.669-.2291-.873-1.7822-1.733-3.5644-2.55-5.3824-.113-.2519-.001-.5479.251-.661z" fill="#000"/><path d="m131.806 77.6593c.135-.241.44-.3272.681-.1924 2.116 1.183 4.078 2.6093 6.012 4.0155.508.3693 1.014.7372 1.52 1.0989.225.1605.277.4728.117.6975-.161.2247-.473.2768-.698.1163-.522-.3728-1.038-.7481-1.553-1.122-1.928-1.4014-3.827-2.7823-5.886-3.9334-.241-.1347-.328-.4394-.193-.6804z" fill="#000"/><path d="m129.449 73.3556c.172-.2166.486-.2532.703-.0818 1.271 1.0059 2.633 1.8205 4.039 2.6103.337.1893.677.3778 1.019.5672 1.076.5954 2.17 1.201 3.233 1.8776.233.1483.302.4573.154.6903s-.457.3017-.69.1534c-1.035-.6587-2.092-1.2435-3.162-1.8355-.347-.1921-.695-.3849-1.044-.5812-1.417-.7961-2.835-1.6417-4.17-2.698-.216-.1713-.253-.4858-.082-.7023z" fill="#000"/><path d="m137.589 77.854c.262-.0894.546.0499.635.3111.336.9814.765 1.9177 1.216 2.8667.065.1376.131.2756.197.4141.386.8094.78 1.6349 1.121 2.4866.102.2564-.022.5474-.279.6499-.256.1026-.547-.0221-.65-.2785-.327-.8191-.705-1.6117-1.092-2.4224-.067-.1397-.134-.2799-.201-.4208-.452-.9521-.902-1.9325-1.258-2.9717-.089-.2613.05-.5456.311-.635z" fill="#000"/><path d="m137.781 87.7833c.238-.1399.544-.0603.684.1778.663 1.1292 1.322 2.2606 1.979 3.3922.138.2388.057.5448-.182.6834-.238.1387-.544.0575-.683-.1813-.657-1.1311-1.314-2.2608-1.976-3.3878-.14-.2381-.061-.5445.178-.6843z" fill="#000"/><path d="m140.437 89.9954c.265.0793.415.3581.336.6226-.477 1.5883-.508 3.3475-.539 5.0982-.002.092-.004.1841-.005.276-.005.2761-.233.4958-.51.4907-.276-.0051-.495-.2331-.49-.5092.002-.104.004-.2087.005-.3141.03-1.7152.063-3.6037.581-5.329.079-.2645.358-.4145.622-.3352z" fill="#000"/><path d="m139.522 90.9373c.056-.2703.321-.4438.591-.3875 1.067.2223 2.146.3182 3.252.3978.172.0123.344.0243.518.0363.933.0647 1.887.1309 2.838.2666.273.0391.463.2924.424.5657-.039.2734-.292.4634-.566.4243-.911-.1301-1.823-.1935-2.757-.2583-.176-.0122-.352-.0245-.529-.0372-1.111-.0799-2.247-.1793-3.384-.4162-.27-.0563-.444-.3212-.387-.5915z" fill="#000"/><path d="m144.971 90.6161c.234-.1471.543-.0768.69.157.942 1.4984 1.822 3.011 2.694 4.5381.137.2397.054.5452-.186.6822s-.545.0537-.682-.1861c-.871-1.5239-1.742-3.0217-2.673-4.5018-.147-.2337-.077-.5424.157-.6894z" fill="#000"/><path d="m103.856 108.779c.265-.075.542.078.618.344.3 1.049.602 2.071.976 3.069.097.259-.034.547-.293.644-.258.097-.546-.034-.643-.293-.39-1.039-.701-2.094-1.002-3.145-.076-.266.078-.543.344-.619z" fill="#000"/><path d="m103.282 111.122c.142-.237.449-.314.686-.172.485.292.978.616 1.47.939.045.03.09.059.135.089.54.355 1.08.707 1.631 1.028 1.104.645 2.208 1.14 3.342 1.266.274.03.472.278.441.552-.03.275-.277.472-.552.442-1.339-.149-2.587-.726-3.735-1.396-.576-.336-1.137-.702-1.677-1.057-.044-.029-.088-.058-.132-.086-.495-.326-.971-.639-1.438-.919-.237-.142-.313-.449-.171-.686z" fill="#000"/><path d="m104.701 112.38c.227.158.284.469.127.696-.482.695-.994 1.383-1.5 2.062-.266.358-.531.714-.789 1.067-.755 1.035-1.468 2.074-2.06 3.179-.131.243-.434.335-.677.204-.2435-.13-.3351-.433-.2047-.676.6247-1.167 1.3697-2.249 2.1337-3.296.271-.371.542-.735.811-1.096.499-.67.991-1.331 1.464-2.013.157-.227.468-.284.695-.127z" fill="#000"/><path d="m100.795 118.108c.184-.206.5-.223.706-.04.479.428 1.02.91 1.596 1.318.581.41 1.158.717 1.7.825.271.054.447.318.393.588-.055.271-.318.447-.589.393-.743-.149-1.455-.547-2.081-.99-.629-.445-1.21-.963-1.683-1.386l-.002-.002c-.206-.184-.224-.5-.04-.706z" fill="#000"/><path d="m95.0634 104.916c.2151-.173.5298-.139.703.076.1995.248.4011.513.6088.786.3983.524.8195 1.078 1.2937 1.599.7173.788 1.4496 1.371 2.1952 1.536.2699.06.4399.327.3799.597s-.3273.439-.5969.38c-1.0626-.237-1.9717-1.021-2.7176-1.84-.5015-.551-.9776-1.176-1.3922-1.721-.1987-.261-.3833-.503-.5499-.71-.1731-.215-.1391-.53.076-.703z" fill="#000"/><path d="m95.3731 92.658c.2761-.0021.5017.2201.5038.4962.0278 3.6565.0717 7.2928.3594 10.9188.0624.787.149 1.509.3319 2.241.067.268-.0959.539-.3638.606s-.5394-.096-.6063-.363c-.2025-.81-.2945-1.596-.3587-2.405-.2908-3.666-.3347-7.3353-.3625-10.9902-.0021-.2761.2201-.5017.4962-.5038z" fill="#000"/><path d="m114.265 96.4733c.275-.0219.516.1836.538.4588.24 3.0248.293 6.0769.345 9.1069.022 1.262.044 2.521.08 3.772.007.276-.21.506-.486.514s-.506-.21-.514-.486c-.036-1.274-.058-2.547-.08-3.817-.053-3.016-.105-6.018-.342-9.0107-.022-.2753.183-.5162.459-.538z" fill="#000"/><path d="m112.775 105.428c.166-.221.48-.264.7-.098 1.165.879 2.299 1.777 3.427 2.671 2.374 1.88 4.722 3.74 7.274 5.357.234.148.303.456.155.69-.147.233-.456.302-.69.155-2.596-1.645-5.016-3.561-7.412-5.459-1.119-.886-2.232-1.768-3.356-2.616-.221-.166-.264-.48-.098-.7z" fill="#000"/><path d="m132.485 105.127c.177.212.149.527-.064.704-1.618 1.348-3.302 2.62-4.976 3.883-.294.222-.588.444-.882.666-1.965 1.488-3.9 2.984-5.709 4.619-.205.185-.521.169-.706-.036s-.169-.521.036-.706c1.844-1.666 3.809-3.185 5.776-4.674.295-.224.591-.447.886-.67 1.674-1.264 3.337-2.519 4.935-3.851.212-.176.528-.148.704.065z" fill="#000"/><path d="m132.56 92.6593c.276.0194.483.2584.464.5338-.152 2.16-.235 4.3284-.318 6.5063-.016.4176-.032.8356-.048 1.2536-.102 2.596-.224 5.201-.483 7.792-.027.275-.272.475-.547.448-.275-.028-.475-.273-.448-.547.256-2.559.376-5.138.478-7.732.017-.416.033-.832.049-1.2487.083-2.1778.166-4.3649.319-6.5424.02-.2754.259-.483.534-.4636z" fill="#000"/><path d="m124.896 90.7718c.148.2333.079.5422-.155.6899-1.987 1.2586-3.868 2.672-5.742 4.1242-.421.3263-.842.6549-1.264.9841-1.45 1.1316-2.909 2.2706-4.41 3.3501-.224.1609-.537.1099-.698-.114-.161-.2241-.11-.5366.114-.6978 1.483-1.067 2.922-2.1897 4.369-3.3192.425-.331.85-.6627 1.277-.9936 1.878-1.456 3.79-2.8935 5.819-4.1786.234-.1478.543-.0784.69.1549z" fill="#000"/><path d="m123.772 91.6139c.151-.2314.461-.2968.692-.1461.633.4117 1.274.8154 1.916 1.2203 2.399 1.511 4.822 3.0378 6.916 5.0534.199.1916.205.5081.013.707s-.508.2049-.707.0133c-2.012-1.9374-4.323-3.3937-6.708-4.8974-.655-.4123-1.314-.8283-1.975-1.2586-.232-.1507-.297-.4605-.147-.6919z" fill="#000"/><path d="m126.614 92.5172c.275.0115.49.2445.478.5204l-.003.0821c-.16 3.8335-.319 7.6623-.42 11.4923-.007.276-.237.494-.513.487s-.494-.237-.487-.513c.101-3.838.261-7.6733.421-11.5044.001-.0285.002-.0571.003-.0856.012-.2759.245-.4903.521-.4788z" fill="#000"/><path d="m126.317 103.921c.14.238.061.545-.177.685-1.443.852-2.782 1.852-4.145 2.87-.037.028-.075.056-.112.084-1.394 1.041-2.816 2.097-4.365 2.982-.239.137-.545.054-.682-.186s-.054-.545.186-.682c1.488-.851 2.863-1.87 4.263-2.915.042-.032.085-.064.128-.096 1.351-1.009 2.728-2.039 4.219-2.918.238-.141.545-.061.685.176z" fill="#000"/><path d="m125.139 103.71c.101-.257.391-.384.648-.282 1.081.425 2.198.781 3.333 1.143.157.049.314.099.472.15 1.29.412 2.595.844 3.842 1.399.253.112.366.407.254.66-.112.252-.407.366-.66.253-1.192-.53-2.451-.947-3.741-1.36-.156-.049-.312-.099-.469-.149-1.132-.361-2.283-.727-3.397-1.166-.257-.101-.383-.392-.282-.648z" fill="#000"/><path d="m95.3042 101.846c.1944-.196.5109-.198.7071-.003.0642.063.1282.127.1921.19 1.0318 1.023 2.0339 2.017 3.1508 2.876.2189.168.2598.482.0915.701-.1684.219-.4823.26-.7012.092-1.1686-.899-2.2127-1.935-3.2343-2.948-.0676-.067-.1352-.134-.2027-.201-.1961-.194-.1976-.511-.0033-.707z" fill="#000"/><path d="m94.9024 96.7402c.2059-.1841.522-.1664.706.0395.9355 1.0464 1.9351 2.0093 2.9501 2.987.5151.4963 1.0341.9963 1.5505 1.5123.195.196.195.512 0 .707-.1951.196-.5117.196-.707 0-.488-.488-.9923-.974-1.5006-1.463-1.0316-.9943-2.0792-2.0038-3.0385-3.0768-.184-.2059-.1663-.522.0395-.706z" fill="#000"/><path d="m104.02 91.0181c.167-.2194.481-.2612.7-.0935 1.08.8256 2.102 1.7251 3.107 2.6087.198.174.395.3475.591.5197.208.1818.229.4977.048.7055-.182.2078-.498.2289-.706.047-.201-.1759-.401-.352-.601-.5276-1.004-.8834-1.996-1.7561-3.046-2.5589-.219-.1678-.261-.4816-.093-.7009z" fill="#000"/><path d="m105.386 79.9312c.128-.2446.431-.3391.675-.2109.617.323 1.268.5989 1.941.8842.101.0429.203.0859.305.1294.772.3287 1.565.6783 2.299 1.1193.237.142.314.4492.172.686-.142.2367-.449.3135-.686.1715-.67-.402-1.406-.7284-2.177-1.0568-.099-.0422-.199-.0846-.299-.1271-.671-.2839-1.363-.5772-2.019-.9207-.244-.1281-.339-.4303-.211-.6749z" fill="#000"/><path d="m108.869 76.8406c.196-.1937.513-.1911.707.0058.528.5369 1.185 1.1815 1.891 1.728.716.553 1.436.9681 2.088 1.0985.27.0542.446.3176.392.5884s-.318.4464-.588.3922c-.881-.176-1.748-.7043-2.503-1.288-.764-.5901-1.46-1.2754-1.993-1.8178-.194-.1969-.191-.5134.006-.7071z" fill="#000"/><path d="m127.264 75.5991c.259-.0973.547.0334.644.2919.259.6881.464 1.4172.662 2.123.046.165.092.3287.138.4903.248.8671.506 1.6877.874 2.424.124.247.024.5474-.223.6709s-.548.0233-.671-.2236c-.413-.8258-.692-1.7236-.942-2.5965-.049-.1724-.097-.3433-.144-.5128-.198-.7026-.388-1.3795-.63-2.0232-.097-.2585.034-.5468.292-.644z" fill="#000"/><path d="m141.88 90.8337c.27-.0599.537.11.597.3796.184.831.339 1.6761.491 2.5108.072.3952.144.7881.218 1.1761.052.2712-.126.5331-.397.5851-.271.0519-.533-.1258-.585-.3971-.078-.4066-.151-.8092-.224-1.2091-.151-.8239-.299-1.6363-.479-2.4489-.06-.2695.11-.5366.379-.5965z" fill="#000"/><path d="m120.064 108.347c.114-.251.411-.362.662-.248 1.358.617 2.68 1.28 3.987 1.994.243.132.332.435.2.678-.132.242-.436.332-.678.199-1.288-.702-2.588-1.354-3.923-1.961-.251-.114-.362-.41-.248-.662z" fill="#000"/><path d="m123.389 105.826c.18-.209.496-.232.705-.052 1.123.968 2.495 1.755 3.907 2.158.266.076.42.353.344.618-.076.266-.353.419-.618.344-1.57-.449-3.068-1.313-4.286-2.362-.209-.181-.232-.496-.052-.706z" fill="#000"/><path d="m125.821 100.118c.056-.2699.321-.4434.591-.3871.814.1695 1.609.4051 2.382.6331l.06.018c.799.236 1.573.463 2.357.619.27.054.446.318.392.589-.054.27-.318.446-.588.392-.835-.167-1.651-.407-2.444-.641-.015-.005-.03-.009-.045-.013-.784-.232-1.545-.457-2.318-.618-.27-.056-.444-.321-.387-.592z" fill="#000"/><path d="m126.236 96.2215c.024-.275.267-.4784.542-.4541.853.0753 1.683.2571 2.483.4509.183.0441.363.0886.541.1328.617.1525 1.216.3007 1.824.4112.271.0494.452.3097.402.5813-.049.2717-.309.4519-.581.4025-.642-.1166-1.281-.2749-1.903-.4287-.174-.0431-.347-.0858-.518-.1272-.792-.1916-1.561-.3583-2.336-.4267-.275-.0242-.478-.2669-.454-.542z" fill="#000"/><path d="m102.283 114.388c.133-.242.436-.332.679-.199 1.359.743 2.546 1.771 3.673 2.748.218.189.434.376.648.559.211.179.236.494.057.705-.179.21-.495.235-.705.056-.228-.194-.453-.389-.676-.582-1.129-.977-2.22-1.921-3.477-2.609-.242-.132-.331-.436-.199-.678z" fill="#000"/></g><path d="m196.76 65.5202c0 20.7099-17.084 37.4988-38.158 37.4988-21.075 0-38.159-16.7889-38.159-37.4988 0-20.7098 17.084-37.4985 38.159-37.4985 21.074 0 38.158 16.7887 38.158 37.4985z" fill="#fff"/><path d="m145.106 68.5188h8.822v29.8982h-8.822z" fill="#cfb4ff"/><path d="m177.112 58.5666h8.821v39.1718h-8.821z" fill="#cfb4ff"/><path d="m128.266 78.1115h8.821v13.3866h-8.821z" fill="#f6f1ff"/><path d="m160.884 64.0707h8.821v35.9463h-8.821z" fill="#f6f1ff"/><path clip-rule="evenodd" d="m127.74 77.2604c.276.0012.499.226.498.5022-.019 4.2681-.012 9.4001-.006 14.2217.003 2.2969.006 4.5234.006 6.5524 0 .2762-.224.5-.5.5-.277 0-.5-.2238-.5-.5 0-2.0263-.003-4.2511-.006-6.5471-.006-4.8231-.013-9.9604.006-14.2313.001-.2761.226-.499.502-.4979z" fill="#000" fill-rule="evenodd"/><path clip-rule="evenodd" d="m138.296 77.4079c.044.2725-.141.5295-.413.5738-3.53.5748-6.831.4126-10.387.0033-.274-.0316-.471-.2796-.44-.5539.032-.2744.28-.4712.554-.4396 3.518.4049 6.713.5565 10.112.0032.273-.0443.529.1406.574.4132z" fill="#000" fill-rule="evenodd"/><path clip-rule="evenodd" d="m137.767 76.9905c.276-.0001.5.2237.5.4998.001 3.7504.001 8.3025.001 12.311 0 4.2115 0 7.823.001 9.2745 0 .2761-.223.5002-.5.5004-.276.0003-.5-.2234-.5-.4995-.001-1.4517-.001-5.0642-.001-9.2764 0-4.0085 0-8.5603-.001-12.3097 0-.2761.223-.5.5-.5001z" fill="#000" fill-rule="evenodd"/><path clip-rule="evenodd" d="m144.541 67.5655c.276.0008.499.2253.498.5014-.018 6.4524-.012 14.2115-.006 21.4998.003 3.4714.006 6.836.006 9.9017 0 .2761-.224.5-.5.5s-.5-.2239-.5-.5c0-3.0639-.003-6.4274-.006-9.8981-.006-7.2894-.012-15.052.006-21.5062.001-.2762.225-.4994.502-.4986z" fill="#000" fill-rule="evenodd"/><path clip-rule="evenodd" d="m155.09 67.5347c.066.2681-.098.539-.366.605-3.562.8764-6.889.6274-10.455.0071-.272-.0474-.454-.3063-.407-.5783.048-.2721.307-.4543.579-.4069 3.508.6103 6.677.8356 10.044.0071.268-.066.539.0979.605.366z" fill="#000" fill-rule="evenodd"/><path clip-rule="evenodd" d="m154.568 67.1576c.276-.0001.5.2238.5.4999.001 5.6682.001 12.5484.001 18.6073 0 6.3658 0 11.8249.002 14.0192 0 .276-.224.5-.5.5s-.5-.224-.5-.5c-.002-2.1939-.002-7.6536-.002-14.0199 0-6.0589 0-12.9389-.001-18.6064 0-.2762.224-.5001.5-.5001z" fill="#000" fill-rule="evenodd"/><path clip-rule="evenodd" d="m160.206 63.4941c.276.0007.499.2251.498.5013-.018 7.3789-.011 16.2524-.005 24.5871.002 3.9697.005 7.8171.005 11.3227 0 .2758-.224.4998-.5.4998s-.5-.224-.5-.4998c0-3.504-.003-7.3505-.005-11.3196-.006-8.3357-.013-17.2122.005-24.5927.001-.2761.225-.4994.502-.4988z" fill="#000" fill-rule="evenodd"/><path clip-rule="evenodd" d="m170.75 63.3884c.075.2658-.08.5419-.345.6167-3.575 1.0059-6.913.7193-10.483.0091-.27-.0539-.446-.3171-.392-.588.053-.2708.317-.4467.588-.3928 3.504.6972 6.661.953 10.016.0091.266-.0748.542.08.616.3459z" fill="#000" fill-rule="evenodd"/><path clip-rule="evenodd" d="m170.233 63.0278c.277-.0001.5.2237.501.4999.001 6.4818.001 14.3497.001 21.2783-.001 7.2798-.001 13.5227.001 16.032 0 .276-.224.5-.5.5s-.5-.224-.5-.5c-.002-2.5089-.002-8.7523-.001-16.0325 0-6.9287 0-14.7964-.001-21.2776-.001-.2762.223-.5001.499-.5001z" fill="#000" fill-rule="evenodd"/><path clip-rule="evenodd" d="m176.539 58.2432c.276.0005.499.2248.499.501-.018 9.1904-.012 20.2426-.006 30.6233.003 4.9439.006 9.7355.006 14.1015 0 .276-.224.5-.5.5s-.5-.224-.5-.5c0-4.3647-.003-9.1555-.006-14.099-.006-10.3815-.012-21.4361.006-30.6278 0-.2762.225-.4996.501-.499z" fill="#000" fill-rule="evenodd"/><path clip-rule="evenodd" d="m187.075 57.992c.091.2606-.046.5459-.307.6372-3.598 1.261-6.958.8998-10.535.0135-.268-.0664-.431-.3376-.365-.6056.067-.268.338-.4315.606-.3651 3.497.8665 6.633 1.1809 9.963.0135.261-.0913.546.0459.638.3065z" fill="#000" fill-rule="evenodd"/><path clip-rule="evenodd" d="m186.567 57.662c.276 0 .5.2238.5.4999.001 8.0727.001 17.8717.001 26.501 0 9.0667 0 16.8421.001 19.9671 0 .276-.223.5-.5.5-.276 0-.5-.224-.5-.5-.001-3.125-.001-10.9004-.001-19.9674 0-8.6293 0-18.4283-.001-26.5005 0-.2762.224-.5001.5-.5001z" fill="#000" fill-rule="evenodd"/><path d="m219.133 162.859c.477-1.849 2.933-10.613 4.101-14.763l4.473.372 14.16 16.999-6.807-1.912c-9.991-2.163-15.032 11.681-16.598 10.935s.074-9.32.671-11.631z" fill="#fff"/><path clip-rule="evenodd" d="m189.08 98.9254 52.697 76.9916-9.069 4.534-53.959-75.963c-20.698 6.974-47.757 3.074-58.444-13.4737-41.3781-64.0692 38.223-90.769551 72.523-54.7258 26.251 27.5853 8.343 55.8356-3.748 62.6369zm-33.939-.5085c19.973 1.2208 40.899-14.2212 40.899-33.3634 0-19.1423-21.576-35.9568-40.899-35.9568-19.324 0-34.988 15.5178-34.988 34.6601 0 19.1422 18.511 33.653 34.988 34.6601z" fill="#f6f1ff" fill-rule="evenodd"/><path d="m210.205 148.269c1.121-.509 7.763-4.456 6.55-5.414-.14-.252-.644-.113-9.414 1.388z" fill="#fff"/><path clip-rule="evenodd" d="m194.433 74.451c-1.892 5.4771-5.732 10.8346-11.976 15.7274-18.305 14.3436-37.97 10.1026-50.343-1.2289-6.675-6.1129-11.258-14.3275-12.347-22.8159-.073.636-.141 1.2812-.202 1.9359-.026.2749-.27.4769-.545.451-.275-.0258-.477-.2696-.451-.5445.242-2.5748.575-5.0101.993-7.3107.213-3.8665 1.208-7.709 3.115-11.3566 3.755-9.715 9.543-15.8473 16.303-19.1208 10.334-5.0046 22.783-3.2488 33.358 2.3317 10.574 5.5805 19.379 15.0382 22.406 25.5993 1.516 5.2883 1.582 10.854-.311 16.3321zm-68.641-29.5991c3.566-6.7554 8.312-11.192 13.623-13.764 9.959-4.8227 22.062-3.1694 32.456 2.3161 10.395 5.4855 18.977 14.7508 21.912 24.9905 1.465 5.1121 1.524 10.4662-.295 15.7299-1.819 5.2648-5.527 10.4712-11.647 15.2669-17.868 14.0007-36.987 9.8696-49.052-1.1792-7.937-7.2697-12.775-17.4778-12.225-27.472.75-4.1018 1.77-7.7558 3.015-10.9943.732-1.3977 1.602-2.7644 2.618-4.0898.168-.2192.126-.533-.093-.701-.093-.0714-.204-.105-.312-.1031z" fill="#000" fill-rule="evenodd"/><path clip-rule="evenodd" d="m153.75 19.0965c15.536.0012 30.764 6.1798 40.841 17.0227 10.093 10.8595 14.994 26.3727 9.891 44.9464l-.004.0149-.005.0146c-3.245 9.4792-11.821 17.3975-22.377 22.3759-10.562 4.982-23.182 7.058-34.611 4.783-14.11-2.809-27.276-13.02-33.819-26.9349-5.871-12.4876-6.4-27.941 2.46-43.678-3.59 4.6753-6.076 10.2085-6.868 16.5112-.035.274-.285.4682-.559.4337s-.468-.2845-.434-.5585c1.083-8.6101 5.229-15.8054 10.99-21.3815.115-.1672.232-.3344.35-.5017.096-.1373.25-.2112.406-.2122 1.546-1.4251 3.199-2.7383 4.932-3.9359 8.624-5.9584 19.274-9.0797 28.807-8.8997zm-33.728 14.1983c-11.786 17.117-11.779 34.1395-5.451 47.5988 6.411 13.6346 19.318 23.6344 33.11 26.3794 11.189 2.228 23.591.198 33.989-4.706 10.399-4.905 18.719-12.6476 21.852-21.7812 5.005-18.2336.191-33.3835-9.663-43.9859-9.871-10.6208-24.826-16.7034-40.114-16.7034h-.01v-.0001c-9.32-.1771-19.767 2.8799-28.224 8.7225-1.949 1.3471-3.792 2.8409-5.489 4.4759z" fill="#000" fill-rule="evenodd"/><path clip-rule="evenodd" d="m188.914 99.399c.227-.1574.538-.1011.696.1258l52.206 75.2462c.158.226.101.538-.126.695-.226.158-.538.102-.695-.125l-52.207-75.246c-.157-.227-.101-.5386.126-.696z" fill="#000" fill-rule="evenodd"/><path clip-rule="evenodd" d="m178.854 103.805c.226-.158.538-.103.696.123l53.392 76.144c.159.226.104.537-.122.696-.226.158-.538.104-.697-.122l-53.391-76.144c-.159-.226-.104-.538.122-.697z" fill="#000" fill-rule="evenodd"/><path clip-rule="evenodd" d="m242.599 174.725c.14.238.061.545-.177.685l-9.157 5.379c-.238.14-.545.061-.685-.177s-.06-.545.178-.685l9.157-5.38c.238-.14.545-.06.684.178z" fill="#000" fill-rule="evenodd"/><path d="m213.998 157.484c.692-6.074 4.837-12.781 6.823-15.376.625.246-6.014-3.843-6.823-8.484-.827-4.744 4.146-11.122 15.462-4.448 9.99 5.891 1.148 13.92-1.148 13.92-.49 2.407 25.19 27.827 24.396 29.992-28.414-15.604-27.615-24.428-28.414-23.965-4.382 2.537-8.181 11.852-9.815 16.24-.448-.096-1.172-1.806-.481-7.879z" fill="#fff"/><path clip-rule="evenodd" d="m221.906 141.532c.166.221.121.534-.099.7-1.048.787-2.055 2.166-2.974 3.928-.914 1.753-1.718 3.842-2.379 5.999-1.325 4.326-2.051 8.852-1.96 11.411.002.054.005.106.007.154.345-.575.791-1.499 1.347-2.653.208-.431.431-.894.67-1.382.929-1.9 2.076-4.135 3.425-6.204 1.345-2.063 2.913-3.996 4.699-5.265.225-.16.537-.107.697.118s.107.537-.118.697c-1.636 1.163-3.123 2.975-4.441 4.997-1.314 2.016-2.439 4.205-3.364 6.096-.222.455-.435.896-.637 1.315-.624 1.295-1.145 2.375-1.538 2.986-.131.203-.272.394-.422.527-.124.109-.448.342-.819.142-.154-.084-.245-.213-.298-.314-.054-.104-.09-.219-.116-.33-.051-.222-.079-.508-.091-.849-.097-2.713.661-7.359 2.003-11.739.673-2.197 1.499-4.345 2.449-6.168.944-1.812 2.035-3.347 3.259-4.266.221-.165.534-.121.7.1zm-7.767 22.689s.002-.002.006-.004c-.004.003-.006.004-.006.004z" fill="#000" fill-rule="evenodd"/><path clip-rule="evenodd" d="m221.558 126.601c-2.717-.107-5.31 1.03-7.017 4.168-.972 1.787-.368 4.159 1.096 6.348 1.453 2.173 3.63 3.967 5.439 4.549.263.085.408.367.323.63-.085.262-.366.407-.629.322-2.084-.671-4.426-2.645-5.964-4.945-1.528-2.284-2.389-5.091-1.143-7.382 1.898-3.489 4.857-4.811 7.935-4.689 3.041.12 6.168 1.643 8.524 3.761 2.347 2.112 4.019 4.901 3.999 7.622-.021 2.791-1.813 5.323-5.975 6.876-.259.096-.547-.035-.643-.294-.097-.259.035-.547.293-.643 3.9-1.455 5.308-3.69 5.325-5.946.017-2.325-1.434-4.862-3.668-6.871-2.226-2.003-5.14-3.397-7.895-3.506z" fill="#000" fill-rule="evenodd"/><path clip-rule="evenodd" d="m227.308 142.633c.205-.186.521-.17.707.034 12.161 13.403 19.126 21.316 22.596 25.66.868 1.087 1.523 1.957 1.987 2.638.456.668.757 1.194.88 1.582.057.181.11.436.016.679-.122.313-.403.427-.63.444-.201.015-.413-.035-.6-.096-.198-.065-.419-.159-.657-.274-.942-.455-2.324-1.322-3.9-2.332-.29-.185-.587-.377-.891-.572-1.359-.873-2.839-1.825-4.331-2.728-1.826-1.104-3.653-2.125-5.273-2.829-1.647-.717-2.985-1.061-3.873-.928-.273.041-.528-.147-.569-.42s.148-.528.421-.569c1.194-.179 2.764.28 4.419 1 1.682.731 3.554 1.779 5.392 2.891 1.505.91 3 1.871 4.359 2.745.303.194.598.384.885.568 1.594 1.021 2.92 1.851 3.796 2.274.135.065.256.119.36.16-.121-.243-.323-.581-.63-1.031-.444-.652-1.081-1.5-1.943-2.578-3.446-4.315-10.389-12.203-22.555-25.612-.185-.204-.17-.52.034-.706z" fill="#000" fill-rule="evenodd"/><path clip-rule="evenodd" d="m214.853 129.387c.276 0 .5.224.5.5 0 1.976 1.103 3.675 2.735 4.899 1.635 1.226 3.749 1.932 5.639 1.932.276 0 .5.224.5.5 0 .277-.224.5-.5.5-2.115 0-4.438-.781-6.239-2.132-1.804-1.352-3.135-3.319-3.135-5.699 0-.276.223-.5.5-.5z" fill="#000" fill-rule="evenodd"/><path clip-rule="evenodd" d="m219.6 160.867c.261.088.402.371.314.633-.181.537-.419 1.688-.651 3.137-.231 1.436-.448 3.129-.594 4.73-.145 1.607-.216 3.099-.157 4.142.023.407.064.716.116.929.138-.176.311-.422.51-.726.408-.622.907-1.451 1.416-2.326 1.017-1.75 2.058-3.66 2.458-4.414.129-.244.432-.337.676-.208s.337.432.207.676c-.404.764-1.451 2.686-2.476 4.448-.512.881-1.022 1.728-1.445 2.373-.211.322-.406.601-.573.812-.082.105-.165.201-.243.279-.066.065-.178.168-.32.223-.247.095-.516.07-.737-.097-.185-.14-.291-.344-.356-.516-.134-.352-.2-.847-.231-1.396-.063-1.119.013-2.67.159-4.289.148-1.625.369-3.341.602-4.798.232-1.445.481-2.672.691-3.298.088-.261.372-.402.634-.314zm-1.18 13.805s.001 0 .002-.001c-.001.001-.002.001-.002.001z" fill="#000" fill-rule="evenodd"/><path clip-rule="evenodd" d="m211.021 144.118c-1.009.174-2.197.378-3.596.618-.272.046-.53-.137-.577-.409-.046-.272.137-.531.409-.577 1.389-.238 2.571-.441 3.579-.615 2.167-.373 3.522-.607 4.372-.737.614-.095 1.001-.142 1.248-.143.121-.001.263.008.397.06.123.049.212.122.277.204.124.118.214.267.252.443.043.196.013.383-.04.54-.102.302-.325.599-.572.869-.507.554-1.295 1.178-2.126 1.767-1.664 1.181-3.633 2.314-4.232 2.587-.251.114-.548.003-.662-.249-.114-.251-.003-.548.248-.662.521-.237 2.434-1.332 4.068-2.491.818-.581 1.534-1.155 1.966-1.627.173-.189.276-.335.329-.438-.181.011-.485.049-1.001.128-.841.129-2.181.36-4.339.732z" fill="#000" fill-rule="evenodd"/><path d="m166.846 46.3885-37.538 21.3298.69-4.7609 34.463-19.1644-3.198-1.6068c5.044-.9371 15.094-2.5591 14.948-1.5511s-7.198 7.6242-10.705 10.8063z" fill="#ae82fc"/><path clip-rule="evenodd" d="m164.827 43.7215c.122.2475.021.5474-.227.6699-6.241 3.0876-12.05 6.3499-17.749 9.5886-.581.3302-1.161.6601-1.74.9896-5.098 2.9007-10.135 5.7666-15.328 8.4442-.246.1265-.547.0301-.674-.2153-.126-.2455-.03-.547.215-.6736 5.175-2.6674 10.193-5.523 15.294-8.4251.578-.3292 1.158-.659 1.739-.9892 5.7-3.2392 11.531-6.5141 17.8-9.6155.247-.1225.547-.0211.67.2264z" fill="#000" fill-rule="evenodd"/><path clip-rule="evenodd" d="m162.829 42.398c.635.2613 1.37.6178 2.188 1.1045.237.1413.315.4481.174.6854-.142.2373-.448.3151-.686.1739-2.116-1.2601-3.616-1.5779-4.117-1.6562-.063-.0098-.11-.016-.143-.0199l-.039-.0044-.016-.0018-.012-.0015c-.003-.0004-.018-.0023-.034-.0056-.004-.0008-.035-.0067-.073-.0202-.025-.0099-.099-.0488-.145-.0818-.096-.104-.18-.4576-.098-.6699.076-.0886.215-.1778.259-.1946.023-.0068.061-.0154.074-.0178.024-.0039.043-.0051.049-.0054.014-.0009.025-.0011.028-.0011l.011-.0001.035.0002c.027.0002.072.0001.134-.0015.248-.0063.797-.0368 1.696-.1804.631-.101 1.24-.1985 1.826-.2924 3.72-.5959 6.525-1.0452 8.502-1.3009 1.143-.1478 2.029-.2337 2.665-.2433.316-.0049.592.0086.817.0509.197.0371.479.1173.653.3512.129.1725.131.3624.116.4804-.017.1203-.059.2334-.104.3288-.09.1931-.238.4197-.426.6725-.382.5118-.995 1.2174-1.852 2.1305-1.718 1.8303-4.458 4.5408-8.397 8.2885-.133.1268-.325.1702-.5.113s-.304-.2057-.336-.3867c-.252-1.3985.244-2.662.706-3.6255.104-.217.201-.409.29-.5854.034-.0672.067-.1321.099-.1953-5.328 3.4886-11.571 6.9186-17.583 10.2208l-.026.0144c-6.448 3.542-12.622 6.9329-17.175 10.1119-.025.0175-.052.0326-.079.0452-.562.2555-1.101.4285-1.56.3472-.255-.0451-.479-.1668-.65-.3683-.162-.191-.254-.4257-.307-.6649-.103-.4676-.09-1.0944-.023-1.8427.069-.7611.2-1.7067.364-2.8371.04-.2733.293-.4627.567-.4231.273.0395.462.2932.423.5665-.165 1.1348-.292 2.0537-.358 2.7836-.067.7426-.064 1.2331.004 1.536.032.146.071.21.092.2343.012.0137.023.024.062.031.126.0223.402-.0178.931-.2543 4.593-3.2021 10.787-6.6044 17.187-10.1197l.067-.0365c6.455-3.5453 13.122-7.2095 18.64-10.9277.133-.0891.3-.1098.45-.0556s.265.1768.31.3299c.066.2254.048.4511.005.6469-.042.1972-.118.399-.203.5943-.097.2249-.231.4895-.367.7598-.088.1744-.177.3512-.259.5211-.297.6208-.561 1.2795-.646 1.9666 3.5-3.3445 5.965-5.7912 7.543-7.4725.85-.9065 1.432-1.5789 1.779-2.044.08-.1066.144-.1981.194-.2755-.114-.0092-.257-.0133-.433-.0107-.575.0088-1.415.0882-2.552.2352-1.961.2536-4.748.7001-8.471 1.2965-.412.066-.835.1338-1.27.2033zm-2.528-.7123s.001.0001.003.0004zm-.052.9959c-.003-.0001-.003 0 0 0z" fill="#000" fill-rule="evenodd"/></svg>