<svg width="20" height="21" viewBox="0 0 20 21" fill="none" xmlns="http://www.w3.org/2000/svg">
<g filter="url(#filter0_dd_1195_330155)">
<circle cx="10" cy="10" r="8" fill="white"/>
<circle cx="10" cy="10" r="7.5" fill="#0278D5"/>
<path fill-rule="evenodd" clip-rule="evenodd" d="M9.97949 6.55859C8.08101 6.55859 6.54199 8.09762 6.54199 9.99609C6.54199 10.77 6.79748 11.484 7.2292 12.0586L7.2292 11.1997C7.2292 11.0098 7.3831 10.8559 7.57295 10.8559C7.7628 10.8559 7.9167 11.0098 7.9167 11.1997L7.9167 12.9146C7.91671 12.9158 7.91672 12.9171 7.91672 12.9184C7.91672 13.0845 7.79889 13.2231 7.64225 13.2552C7.61987 13.2598 7.5967 13.2622 7.57297 13.2622C7.57296 13.2622 7.57296 13.2622 7.57295 13.2622C7.57281 13.2622 7.57267 13.2622 7.57253 13.2622L5.85449 13.2622C5.66464 13.2622 5.51074 13.1083 5.51074 12.9184C5.51074 12.7286 5.66464 12.5747 5.85449 12.5747L6.75961 12.5747C6.19351 11.8686 5.85449 10.9717 5.85449 9.99609C5.85449 7.71792 7.70132 5.87109 9.97949 5.87109C10.1693 5.87109 10.3232 6.025 10.3232 6.21484C10.3232 6.40469 10.1693 6.55859 9.97949 6.55859ZM12.347 8.46865L12.347 7.50377C13.0065 8.13038 13.417 9.01532 13.417 9.99609C13.417 11.8946 11.878 13.4336 9.97949 13.4336C9.78964 13.4336 9.63574 13.5875 9.63574 13.7773C9.63574 13.9672 9.78964 14.1211 9.97949 14.1211C12.2577 14.1211 14.1045 12.2743 14.1045 9.99609C14.1045 8.86424 13.6484 7.83895 12.9109 7.09394L13.722 7.09394C13.9118 7.09394 14.0657 6.94004 14.0657 6.75019C14.0657 6.56034 13.9118 6.40644 13.722 6.40644L12.0071 6.40644L12.0032 6.40642C11.8371 6.40642 11.6985 6.52425 11.6665 6.68089C11.6619 6.70327 11.6595 6.72644 11.6595 6.75017L11.6595 6.75019L11.6595 8.46865C11.6595 8.6585 11.8134 8.8124 12.0032 8.8124C12.1931 8.8124 12.347 8.6585 12.347 8.46865Z" fill="white"/>
</g>
<defs>
<filter id="filter0_dd_1195_330155" x="0" y="0.5" width="20" height="20" filterUnits="userSpaceOnUse" color-interpolation-filters="sRGB">
<feFlood flood-opacity="0" result="BackgroundImageFix"/>
<feColorMatrix in="SourceAlpha" type="matrix" values="0 0 0 0 0 0 0 0 0 0 0 0 0 0 0 0 0 0 127 0" result="hardAlpha"/>
<feOffset dy="0.5"/>
<feGaussianBlur stdDeviation="1"/>
<feColorMatrix type="matrix" values="0 0 0 0 0.376471 0 0 0 0 0.380392 0 0 0 0 0.439216 0 0 0 0.16 0"/>
<feBlend mode="normal" in2="BackgroundImageFix" result="effect1_dropShadow_1195_330155"/>
<feColorMatrix in="SourceAlpha" type="matrix" values="0 0 0 0 0 0 0 0 0 0 0 0 0 0 0 0 0 0 127 0" result="hardAlpha"/>
<feOffset/>
<feGaussianBlur stdDeviation="0.5"/>
<feColorMatrix type="matrix" values="0 0 0 0 0.156863 0 0 0 0 0.160784 0 0 0 0 0.239216 0 0 0 0.08 0"/>
<feBlend mode="normal" in2="effect1_dropShadow_1195_330155" result="effect2_dropShadow_1195_330155"/>
<feBlend mode="normal" in="SourceGraphic" in2="effect2_dropShadow_1195_330155" result="shape"/>
</filter>
</defs>
</svg>
