<svg fill="none" height="46" viewBox="0 0 641 46" width="641" xmlns="http://www.w3.org/2000/svg"><rect fill="#fafbfc" height="45.5" rx="3.75" width="640.5" x=".25" y=".25"/><path d="m13.3438 21.5c-.0469-.3958-.237-.7031-.5704-.9219-.3333-.2187-.7421-.3281-1.2265-.3281-.3542 0-.6641.0573-.9297.1719-.263.1146-.4688.2721-.6172.4726-.14583.2006-.21875.4284-.21875.6836 0 .2136.05078.3972.15234.5508.10421.151.23701.2773.39841.3789.1615.099.3308.181.5078.2461.1771.0625.3399.1133.4883.1523l.8125.2188c.2084.0547.4401.1302.6953.2266.2579.0963.5039.2278.7383.3945.237.1641.4323.375.586.6328.1536.2578.2304.5742.2304.9492 0 .4323-.1133.8229-.3398 1.1719-.224.349-.5521.6263-.9844.832-.4297.2058-.9518.3086-1.5664.3086-.5729 0-1.069-.0924-1.4883-.2773-.41665-.1849-.74477-.4427-.98436-.7735-.23698-.3307-.37109-.7148-.40234-1.1523h1c.02604.3021.1276.5521.30469.75.17971.1953.40621.3411.67971.4375.276.0937.5729.1406.8906.1406.3698 0 .7018-.0599.9961-.1797.2943-.1224.5273-.2916.6992-.5078.1719-.2187.2578-.4739.2578-.7656 0-.2656-.0742-.4818-.2226-.6484-.1485-.1667-.3438-.3021-.586-.4063s-.5039-.1953-.7851-.2734l-.9844-.2813c-.625-.1797-1.11979-.4362-1.48438-.7695-.36458-.3333-.54687-.7695-.54687-1.3086 0-.4479.12109-.8385.36328-1.1719.24479-.3359.57292-.5963.98437-.7812.4141-.1875.8763-.2813 1.3867-.2813.5157 0 .974.0925 1.375.2774.4011.1823.7188.4323.9531.75.237.3177.362.6784.3751 1.082zm2.6396 6v-8h.9687v7.1406h3.7188v.8594zm7.1562-8v8h-.9687v-8zm5.2862 3.2656v-.8437h4.8125v.8437zm0 2.3125v-.8437h4.8125v.8437z" fill="#000"/><path d="m50.4375 13.5c-.0859-.263-.1992-.4987-.3398-.707-.1381-.211-.3034-.3907-.4961-.5391-.1901-.1484-.4063-.2617-.6485-.3398-.2422-.0782-.5078-.1172-.7969-.1172-.4739 0-.9049.1224-1.2929.3672s-.6966.6054-.9258 1.082-.3437 1.0612-.3437 1.7539.1158 1.2773.3476 1.7539.5456.8372.9414 1.082.8412.3672 1.336.3672c.4583 0 .8619-.0976 1.2109-.2929.3516-.198.625-.4766.8203-.836.1979-.362.2969-.7877.2969-1.2773l.2969.0625h-2.4063v-.8594h3.0469v.8594c0 .6588-.1406 1.2317-.4219 1.7187-.2786.487-.6641.8646-1.1563 1.1328-.4895.2657-1.052.3985-1.6874.3985-.7084 0-1.3308-.1667-1.8672-.5-.5339-.3334-.9506-.8073-1.25-1.4219-.2969-.6146-.4453-1.3438-.4453-2.1875 0-.6328.0846-1.2018.2539-1.707.1718-.5078.414-.9401.7265-1.2969s.6823-.6302 1.1094-.8203.8971-.2852 1.4101-.2852c.4219 0 .8152.0638 1.1797.1914.3672.125.694.3034.9805.5352.2891.2292.53.5039.7227.8242.1927.3177.3255.6706.3984 1.0586zm9.4561 1.5c0 .8437-.1524 1.5729-.4571 2.1875s-.7226 1.0885-1.2539 1.4219c-.5312.3333-1.138.5-1.8203.5s-1.2891-.1667-1.8203-.5c-.5313-.3334-.9492-.8073-1.2539-1.4219s-.457-1.3438-.457-2.1875c0-.8438.1523-1.5729.457-2.1875s.7226-1.0885 1.2539-1.4219c.5312-.3333 1.138-.5 1.8203-.5s1.2891.1667 1.8203.5c.5313.3334.9492.8073 1.2539 1.4219s.4571 1.3437.4571 2.1875zm-.9375 0c0-.6927-.1159-1.2773-.3477-1.7539-.2292-.4766-.5404-.8372-.9336-1.082-.3906-.2448-.8281-.3672-1.3125-.3672s-.9232.1224-1.3164.3672c-.3906.2448-.7018.6054-.9336 1.082-.2292.4766-.3437 1.0612-.3437 1.7539s.1145 1.2773.3437 1.7539c.2318.4766.543.8372.9336 1.082.3932.2448.832.3672 1.3164.3672s.9219-.1224 1.3125-.3672c.3932-.2448.7044-.6054.9336-1.082.2318-.4766.3477-1.0612.3477-1.7539zm9.3164 0c0 .8437-.1524 1.5729-.4571 2.1875s-.7226 1.0885-1.2539 1.4219c-.5312.3333-1.138.5-1.8203.5s-1.2891-.1667-1.8203-.5c-.5313-.3334-.9492-.8073-1.2539-1.4219s-.457-1.3438-.457-2.1875c0-.8438.1523-1.5729.457-2.1875s.7226-1.0885 1.2539-1.4219c.5312-.3333 1.138-.5 1.8203-.5s1.2891.1667 1.8203.5c.5313.3334.9492.8073 1.2539 1.4219s.4571 1.3437.4571 2.1875zm-.9375 0c0-.6927-.1159-1.2773-.3477-1.7539-.2292-.4766-.5404-.8372-.9336-1.082-.3906-.2448-.8281-.3672-1.3125-.3672s-.9232.1224-1.3164.3672c-.3906.2448-.7018.6054-.9336 1.082-.2292.4766-.3437 1.0612-.3437 1.7539s.1145 1.2773.3437 1.7539c.2318.4766.543.8372.9336 1.082.3932.2448.832.3672 1.3164.3672s.9219-.1224 1.3125-.3672c.3932-.2448.7044-.6054.9336-1.082.2318-.4766.3477-1.0612.3477-1.7539zm5.0351 4h-2.4687v-8h2.5781c.776 0 1.4401.1602 1.9922.4805.5521.3177.9752.7747 1.2695 1.3711.2943.5937.4414 1.3046.4414 2.1328 0 .8333-.1484 1.5508-.4453 2.1523-.2969.599-.7292 1.0599-1.2969 1.3828-.5677.3203-1.2578.4805-2.0703.4805zm-1.5-.8594h1.4375c.6615 0 1.2097-.1276 1.6445-.3828.4349-.2552.7592-.6185.9727-1.0898.2135-.4714.3203-1.0326.3203-1.6836 0-.6459-.1055-1.2018-.3164-1.668-.2109-.4687-.526-.8281-.9453-1.0781-.4193-.2526-.9414-.3789-1.5664-.3789h-1.5469z" fill="#1b841d"/><path d="m80.9014 19v-8h2.7031c.625 0 1.138.1068 1.5391.3203.401.2109.6979.5013.8906.8711s.289.7904.289 1.2617c0 .4714-.0963.8893-.289 1.2539s-.4883.6511-.8867.8594c-.3985.2057-.9076.3086-1.5274.3086h-2.1875v-.875h2.1563c.4271 0 .7708-.0625 1.0312-.1875.263-.125.4531-.3021.5703-.5313.1198-.2317.1797-.5078.1797-.8281s-.0599-.6002-.1797-.8398-.3112-.4245-.5742-.5547c-.263-.1328-.6107-.1992-1.043-.1992h-1.7031v7.1406zm3.7656-3.5938 1.9687 3.5938h-1.125l-1.9375-3.5938zm3.2705 3.5938v-8h4.8281v.8594h-3.8593v2.7031h3.6093v.8594h-3.6093v2.7187h3.9218v.8594zm9.4805-2.5h1.0625l.8906 1.1719.2344.3125 1.3285 1.7656h-1.0629l-.875-1.1719-.2188-.2969zm3.844-1.5c0 .8437-.153 1.5729-.457 2.1875-.305.6146-.723 1.0885-1.2542 1.4219-.5313.3333-1.138.5-1.8203.5s-1.2891-.1667-1.8203-.5c-.5313-.3334-.9493-.8073-1.2539-1.4219-.3047-.6146-.4571-1.3438-.4571-2.1875 0-.8438.1524-1.5729.4571-2.1875.3046-.6146.7226-1.0885 1.2539-1.4219.5312-.3333 1.138-.5 1.8203-.5s1.289.1667 1.8203.5c.5312.3334.9492.8073 1.2542 1.4219.304.6146.457 1.3437.457 2.1875zm-.938 0c0-.6927-.116-1.2773-.3474-1.7539-.2292-.4766-.5404-.8372-.9336-1.082-.3907-.2448-.8282-.3672-1.3125-.3672-.4844 0-.9232.1224-1.3164.3672-.3907.2448-.7019.6054-.9336 1.082-.2292.4766-.3438 1.0612-.3438 1.7539s.1146 1.2773.3438 1.7539c.2317.4766.5429.8372.9336 1.082.3932.2448.832.3672 1.3164.3672.4843 0 .9218-.1224 1.3125-.3672.3932-.2448.7044-.6054.9336-1.082.2314-.4766.3474-1.0612.3474-1.7539zm7.817-4h.968v5.2969c0 .5468-.129 1.0351-.386 1.4648-.256.4271-.616.7643-1.082 1.0117-.467.2448-1.013.3672-1.641.3672s-1.174-.1224-1.641-.3672c-.466-.2474-.828-.5846-1.086-1.0117-.255-.4297-.382-.918-.382-1.4648v-5.2969h.968v5.2188c0 .3906.086.7382.258 1.0429.172.3021.417.5404.735.7149.32.1718.703.2578 1.148.2578s.828-.086 1.148-.2578c.321-.1745.566-.4128.735-.7149.172-.3047.258-.6523.258-1.0429zm2.903 8v-8h4.828v.8594h-3.859v2.7031h3.609v.8594h-3.609v2.7187h3.922v.8594zm10.949-6c-.047-.3958-.237-.7031-.57-.9219-.333-.2187-.742-.3281-1.227-.3281-.354 0-.664.0573-.929.1719-.263.1146-.469.2721-.618.4726-.145.2006-.218.4284-.218.6836 0 .2136.05.3972.152.5508.104.151.237.2773.398.3789.162.099.331.181.508.2461.177.0625.34.1133.489.1523l.812.2188c.208.0547.44.1302.695.2266.258.0963.504.2278.739.3945.237.1641.432.375.586.6328.153.2578.23.5742.23.9492 0 .4323-.113.8229-.34 1.1719-.224.349-.552.6263-.984.832-.43.2058-.952.3086-1.567.3086-.573 0-1.069-.0924-1.488-.2773-.417-.1849-.745-.4427-.984-.7735-.237-.3307-.371-.7148-.403-1.1523h1c.026.3021.128.5521.305.75.18.1953.406.3411.68.4375.276.0937.573.1406.89.1406.37 0 .702-.0599.997-.1797.294-.1224.527-.2916.699-.5078.172-.2187.258-.4739.258-.7656 0-.2656-.075-.4818-.223-.6484-.149-.1667-.344-.3021-.586-.4063s-.504-.1953-.785-.2734l-.985-.2813c-.625-.1797-1.119-.4362-1.484-.7695s-.547-.7695-.547-1.3086c0-.4479.121-.8385.363-1.1719.245-.3359.573-.5963.985-.7812.414-.1875.876-.2813 1.387-.2813.515 0 .973.0925 1.375.2774.401.1823.718.4323.953.75.237.3177.362.6784.375 1.082zm2.202-1.1406v-.8594h6v.8594h-2.515v7.1406h-.969v-7.1406zm11.87 1.1406c-.046-.3958-.237-.7031-.57-.9219-.333-.2187-.742-.3281-1.226-.3281-.355 0-.665.0573-.93.1719-.263.1146-.469.2721-.617.4726-.146.2006-.219.4284-.219.6836 0 .2136.051.3972.152.5508.104.151.237.2773.399.3789.161.099.33.181.508.2461.177.0625.339.1133.488.1523l.812.2188c.209.0547.44.1302.696.2266.257.0963.504.2278.738.3945.237.1641.432.375.586.6328.153.2578.23.5742.23.9492 0 .4323-.113.8229-.34 1.1719-.223.349-.552.6263-.984.832-.43.2058-.952.3086-1.566.3086-.573 0-1.069-.0924-1.489-.2773-.416-.1849-.744-.4427-.984-.7735-.237-.3307-.371-.7148-.402-1.1523h1c.026.3021.127.5521.304.75.18.1953.407.3411.68.4375.276.0937.573.1406.891.1406.369 0 .702-.0599.996-.1797.294-.1224.527-.2916.699-.5078.172-.2187.258-.4739.258-.7656 0-.2656-.074-.4818-.223-.6484-.148-.1667-.344-.3021-.586-.4063s-.504-.1953-.785-.2734l-.984-.2813c-.625-.1797-1.12-.4362-1.485-.7695-.364-.3333-.547-.7695-.547-1.3086 0-.4479.122-.8385.364-1.1719.245-.3359.573-.5963.984-.7812.414-.1875.876-.2813 1.387-.2813.515 0 .974.0925 1.375.2774.401.1823.719.4323.953.75.237.3177.362.6784.375 1.082z" fill="#000"/><path d="m44 22.5h94" stroke="#000"/><path d="m45.7969 28 2.375 6.7344h.0937l2.375-6.7344h1.0157l-2.9375 8h-1l-2.9375-8zm6.7461 8h-1.0157l2.9375-8h1l2.9375 8h-1.0156l-2.3906-6.7344h-.0625zm.375-3.125h4.0937v.8594h-4.0937zm6.7304 3.125v-8h.9688v7.1406h3.7187v.8594zm7.1563-8v8h-.9688v-8zm4.4111 8h-2.4687v-8h2.5781c.776 0 1.4401.1602 1.9922.4805.5521.3177.9752.7747 1.2695 1.3711.2943.5937.4414 1.3046.4414 2.1328 0 .8333-.1484 1.5508-.4453 2.1523-.2969.599-.7292 1.0599-1.2969 1.3828-.5677.3203-1.2578.4805-2.0703.4805zm-1.5-.8594h1.4375c.6615 0 1.2097-.1276 1.6446-.3828.4348-.2552.7591-.6185.9726-1.0898.2135-.4714.3203-1.0326.3203-1.6836 0-.6459-.1054-1.2018-.3164-1.668-.2109-.4687-.526-.8281-.9453-1.0781-.4193-.2526-.9414-.3789-1.5664-.3789h-1.5469z" fill="#cf2318"/><g fill="#000"><path d="m79.7471 36v-8h2.7031c.625 0 1.138.1068 1.5391.3203.401.2109.6979.5013.8906.8711s.289.7904.289 1.2617c0 .4714-.0963.8893-.289 1.2539s-.4883.6511-.8867.8594c-.3985.2057-.9076.3086-1.5274.3086h-2.1875v-.875h2.1563c.4271 0 .7708-.0625 1.0312-.1875.263-.125.4531-.3021.5703-.5313.1198-.2317.1797-.5078.1797-.8281s-.0599-.6002-.1797-.8398-.3112-.4245-.5742-.5547c-.263-.1328-.6107-.1992-1.043-.1992h-1.7031v7.1406zm3.7656-3.5938 1.9687 3.5938h-1.125l-1.9375-3.5938zm3.2705 3.5938v-8h4.8281v.8594h-3.8593v2.7031h3.6093v.8594h-3.6093v2.7187h3.9218v.8594zm9.4805-2.5h1.0625l.8906 1.1719.2344.3125 1.3281 1.7656h-1.0625l-.875-1.1719-.2188-.2969zm3.8433-1.5c0 .8437-.1519 1.5729-.4566 2.1875s-.7227 1.0885-1.2539 1.4219c-.5313.3333-1.138.5-1.8203.5s-1.2891-.1667-1.8203-.5c-.5313-.3334-.9493-.8073-1.2539-1.4219-.3047-.6146-.4571-1.3438-.4571-2.1875 0-.8438.1524-1.5729.4571-2.1875.3046-.6146.7226-1.0885 1.2539-1.4219.5312-.3333 1.138-.5 1.8203-.5s1.289.1667 1.8203.5c.5312.3334.9492.8073 1.2539 1.4219s.4566 1.3437.4566 2.1875zm-.9371 0c0-.6927-.1159-1.2773-.3476-1.7539-.2292-.4766-.5404-.8372-.9336-1.082-.3907-.2448-.8282-.3672-1.3125-.3672-.4844 0-.9232.1224-1.3164.3672-.3907.2448-.7019.6054-.9336 1.082-.2292.4766-.3438 1.0612-.3438 1.7539s.1146 1.2773.3438 1.7539c.2317.4766.5429.8372.9336 1.082.3932.2448.832.3672 1.3164.3672.4843 0 .9218-.1224 1.3125-.3672.3932-.2448.7044-.6054.9336-1.082.2317-.4766.3476-1.0612.3476-1.7539zm7.8161-4h.969v5.2969c0 .5468-.129 1.0351-.387 1.4648-.255.4271-.616.7643-1.082 1.0117-.466.2448-1.013.3672-1.64.3672-.628 0-1.175-.1224-1.641-.3672-.466-.2474-.828-.5846-1.086-1.0117-.255-.4297-.383-.918-.383-1.4648v-5.2969h.969v5.2188c0 .3906.086.7382.258 1.0429.172.3021.417.5404.734.7149.321.1718.703.2578 1.149.2578.445 0 .828-.086 1.148-.2578.32-.1745.565-.4128.735-.7149.171-.3047.257-.6523.257-1.0429zm2.904 8v-8h4.828v.8594h-3.86v2.7031h3.61v.8594h-3.61v2.7187h3.922v.8594zm10.949-6c-.047-.3958-.237-.7031-.57-.9219-.334-.2187-.743-.3281-1.227-.3281-.354 0-.664.0573-.93.1719-.263.1146-.468.2721-.617.4726-.146.2006-.219.4284-.219.6836 0 .2136.051.3972.153.5508.104.151.237.2773.398.3789.162.099.331.181.508.2461.177.0625.34.1133.488.1523l.813.2188c.208.0547.44.1302.695.2266.258.0963.504.2278.738.3945.237.1641.433.375.586.6328.154.2578.231.5742.231.9492 0 .4323-.114.8229-.34 1.1719-.224.349-.552.6263-.984.832-.43.2058-.952.3086-1.567.3086-.573 0-1.069-.0924-1.488-.2773-.417-.1849-.745-.4427-.985-.7735-.237-.3307-.371-.7148-.402-1.1523h1c.026.3021.128.5521.305.75.179.1953.406.3411.679.4375.277.0937.573.1406.891.1406.37 0 .702-.0599.996-.1797.294-.1224.528-.2916.699-.5078.172-.2187.258-.4739.258-.7656 0-.2656-.074-.4818-.222-.6484-.149-.1667-.344-.3021-.586-.4063-.243-.1042-.504-.1953-.786-.2734l-.984-.2813c-.625-.1797-1.12-.4362-1.484-.7695-.365-.3333-.547-.7695-.547-1.3086 0-.4479.121-.8385.363-1.1719.245-.3359.573-.5963.985-.7812.414-.1875.876-.2813 1.386-.2813.516 0 .974.0925 1.375.2774.401.1823.719.4323.953.75.237.3177.362.6784.375 1.082zm2.202-1.1406v-.8594h6v.8594h-2.516v7.1406h-.968v-7.1406zm11.87 1.1406c-.047-.3958-.237-.7031-.57-.9219-.334-.2187-.742-.3281-1.227-.3281-.354 0-.664.0573-.929.1719-.263.1146-.469.2721-.618.4726-.145.2006-.218.4284-.218.6836 0 .2136.05.3972.152.5508.104.151.237.2773.398.3789.162.099.331.181.508.2461.177.0625.34.1133.489.1523l.812.2188c.208.0547.44.1302.695.2266.258.0963.504.2278.739.3945.237.1641.432.375.586.6328.153.2578.23.5742.23.9492 0 .4323-.113.8229-.34 1.1719-.224.349-.552.6263-.984.832-.43.2058-.952.3086-1.567.3086-.573 0-1.069-.0924-1.488-.2773-.417-.1849-.745-.4427-.984-.7735-.237-.3307-.371-.7148-.403-1.1523h1c.026.3021.128.5521.305.75.18.1953.406.3411.68.4375.276.0937.573.1406.89.1406.37 0 .702-.0599.996-.1797.295-.1224.528-.2916.7-.5078.172-.2187.258-.4739.258-.7656 0-.2656-.075-.4818-.223-.6484-.149-.1667-.344-.3021-.586-.4063s-.504-.1953-.785-.2734l-.985-.2813c-.625-.1797-1.119-.4362-1.484-.7695s-.547-.7695-.547-1.3086c0-.4479.121-.8385.363-1.1719.245-.3359.573-.5963.985-.7812.414-.1875.876-.2813 1.387-.2813.515 0 .973.0925 1.375.2774.401.1823.718.4323.953.75.237.3177.362.6784.375 1.082z"/><path d="m154.275 19.5 1.725 2.862 1.725-2.862h1.275l-2.325 3.5 2.325 3.5h-1.275l-1.725-2.7161-1.725 2.7161h-1.275l2.287-3.5-2.287-3.5z"/><path d="m165.641 19.5v8h-.969v-6.9844h-.047l-1.953 1.2969v-.9844l2-1.3281zm4.91 8.1094c-.589 0-1.09-.1602-1.504-.4805-.414-.3229-.731-.7904-.949-1.4023-.219-.6146-.328-1.3568-.328-2.2266 0-.8646.109-1.6029.328-2.2148.221-.6146.539-1.0834.953-1.4063.416-.3255.916-.4883 1.5-.4883.583 0 1.082.1628 1.496.4883.417.3229.734.7917.953 1.4063.221.6119.332 1.3502.332 2.2148 0 .8698-.109 1.612-.328 2.2266-.219.6119-.535 1.0794-.949 1.4023-.414.3203-.916.4805-1.504.4805zm0-.8594c.583 0 1.036-.2813 1.359-.8438s.485-1.3645.485-2.4062c0-.6927-.075-1.2826-.223-1.7695-.146-.487-.357-.8581-.633-1.1133-.273-.2552-.603-.3828-.988-.3828-.578 0-1.03.2851-1.356.8554-.325.5678-.488 1.3711-.488 2.4102 0 .6927.073 1.2812.219 1.7656s.355.8529.629 1.1055c.276.2526.608.3789.996.3789zm6.875.8594c-.589 0-1.09-.1602-1.504-.4805-.414-.3229-.731-.7904-.949-1.4023-.219-.6146-.328-1.3568-.328-2.2266 0-.8646.109-1.6029.328-2.2148.221-.6146.539-1.0834.953-1.4063.416-.3255.916-.4883 1.5-.4883.583 0 1.082.1628 1.496.4883.417.3229.734.7917.953 1.4063.221.6119.332 1.3502.332 2.2148 0 .8698-.109 1.612-.328 2.2266-.219.6119-.535 1.0794-.949 1.4023-.414.3203-.916.4805-1.504.4805zm0-.8594c.583 0 1.036-.2813 1.359-.8438s.485-1.3645.485-2.4062c0-.6927-.075-1.2826-.223-1.7695-.146-.487-.357-.8581-.633-1.1133-.273-.2552-.603-.3828-.988-.3828-.578 0-1.03.2851-1.356.8554-.325.5678-.488 1.3711-.488 2.4102 0 .6927.073 1.2812.219 1.7656s.355.8529.629 1.1055c.276.2526.608.3789.996.3789zm8.344-.75v-.4219c0-.2916.059-.5586.179-.8008.123-.2447.3-.4401.531-.5859.235-.1484.519-.2227.852-.2227.339 0 .622.0743.852.2227.229.1458.402.3412.519.5859.117.2422.176.5092.176.8008v.4219c0 .2917-.06.5599-.18.8047-.117.2422-.291.4375-.523.5859-.229.1459-.511.2188-.844.2188-.339 0-.624-.0729-.855-.2188-.232-.1484-.408-.3437-.528-.5859-.12-.2448-.179-.513-.179-.8047zm.796-.4219v.4219c0 .2422.058.4596.172.6523.115.1901.313.2852.594.2852.273 0 .466-.0951.578-.2852.115-.1927.172-.4101.172-.6523v-.4219c0-.2422-.055-.4583-.164-.6484-.109-.1927-.305-.2891-.586-.2891-.273 0-.47.0964-.59.2891-.117.1901-.176.4062-.176.6484zm-4.781-4.1562v-.4219c0-.2917.06-.5586.18-.8008.122-.2448.299-.4401.531-.5859.234-.1485.518-.2227.852-.2227.338 0 .622.0742.851.2227.229.1458.403.3411.52.5859.117.2422.176.5091.176.8008v.4219c0 .2916-.06.5599-.18.8047-.117.2421-.292.4375-.524.5859-.229.1458-.51.2187-.843.2187-.339 0-.624-.0729-.856-.2187-.232-.1484-.407-.3438-.527-.5859-.12-.2448-.18-.5131-.18-.8047zm.797-.4219v.4219c0 .2422.057.4596.172.6523.114.1901.312.2852.594.2852.273 0 .466-.0951.578-.2852.114-.1927.172-.4101.172-.6523v-.4219c0-.2422-.055-.4583-.164-.6484-.11-.1927-.305-.2891-.586-.2891-.274 0-.47.0964-.59.2891-.117.1901-.176.4062-.176.6484zm-.5 6.5 5.5-8h.891l-5.5 8z"/><path d="m40.327 39.8371c-.338 0-.5937-.0953-.767-.286-.1647-.1907-.247-.4247-.247-.702v-13.367c0-.3813-.1257-.6673-.377-.858-.2427-.1907-.5547-.286-.936-.286v-.676c.3813 0 .6933-.0953.936-.286.2513-.1907.377-.4767.377-.858v-13.36701c0-.27734.0823-.51134.247-.702.1733-.19067.429-.286.767-.286h1.274v.585h-1.3v13.54901c0 .208-.039.403-.117.585s-.182.3467-.312.494-.286.2687-.468.364c-.1733.0953-.3553.1603-.546.195v.13c.1907.0347.3727.0997.546.195.182.0953.338.2167.468.364s.234.312.312.494.117.377.117.585v13.549h1.3v.585z"/><path d="m142.234 39.2521h1.3v-13.549c0-.208.039-.403.117-.585s.182-.3467.312-.494.282-.2687.455-.364.36-.1603.559-.195v-.13c-.199-.0347-.386-.0997-.559-.195s-.325-.2167-.455-.364-.234-.312-.312-.494-.117-.377-.117-.585v-13.54901h-1.3v-.585h1.274c.338 0 .589.09533.754.286.173.19066.26.42466.26.702v13.36701c0 .3813.121.6673.364.858.251.1907.568.286.949.286v.676c-.381 0-.698.0953-.949.286-.243.1907-.364.4767-.364.858v13.367c0 .2773-.087.5113-.26.702-.165.1907-.416.286-.754.286h-1.274z"/></g><rect height="45.5" rx="3.75" stroke="#d9dae5" stroke-width=".5" width="640.5" x=".25" y=".25"/></svg>