<svg width="641" height="46" viewBox="0 0 641 46" fill="none" xmlns="http://www.w3.org/2000/svg">
<rect x="0.25" y="0.25" width="640.5" height="45.5" rx="3.75" fill="#FAFBFC"/>
<path d="M13.3438 21.5C13.2969 21.1042 13.1068 20.7969 12.7734 20.5781C12.4401 20.3594 12.0313 20.25 11.5469 20.25C11.1927 20.25 10.8828 20.3073 10.6172 20.4219C10.3542 20.5365 10.1484 20.694 10 20.8945C9.85417 21.0951 9.78125 21.3229 9.78125 21.5781C9.78125 21.7917 9.83203 21.9753 9.93359 22.1289C10.0378 22.2799 10.1706 22.4062 10.332 22.5078C10.4935 22.6068 10.6628 22.6888 10.8398 22.7539C11.0169 22.8164 11.1797 22.8672 11.3281 22.9062L12.1406 23.125C12.349 23.1797 12.5807 23.2552 12.8359 23.3516C13.0938 23.4479 13.3398 23.5794 13.5742 23.7461C13.8112 23.9102 14.0065 24.1211 14.1602 24.3789C14.3138 24.6367 14.3906 24.9531 14.3906 25.3281C14.3906 25.7604 14.2773 26.151 14.0508 26.5C13.8268 26.849 13.4987 27.1263 13.0664 27.332C12.6367 27.5378 12.1146 27.6406 11.5 27.6406C10.9271 27.6406 10.431 27.5482 10.0117 27.3633C9.59505 27.1784 9.26693 26.9206 9.02734 26.5898C8.79036 26.2591 8.65625 25.875 8.625 25.4375H9.625C9.65104 25.7396 9.7526 25.9896 9.92969 26.1875C10.1094 26.3828 10.3359 26.5286 10.6094 26.625C10.8854 26.7187 11.1823 26.7656 11.5 26.7656C11.8698 26.7656 12.2018 26.7057 12.4961 26.5859C12.7904 26.4635 13.0234 26.2943 13.1953 26.0781C13.3672 25.8594 13.4531 25.6042 13.4531 25.3125C13.4531 25.0469 13.3789 24.8307 13.2305 24.6641C13.082 24.4974 12.8867 24.362 12.6445 24.2578C12.4023 24.1536 12.1406 24.0625 11.8594 23.9844L10.875 23.7031C10.25 23.5234 9.75521 23.2669 9.39062 22.9336C9.02604 22.6003 8.84375 22.1641 8.84375 21.625C8.84375 21.1771 8.96484 20.7865 9.20703 20.4531C9.45182 20.1172 9.77995 19.8568 10.1914 19.6719C10.6055 19.4844 11.0677 19.3906 11.5781 19.3906C12.0938 19.3906 12.5521 19.4831 12.9531 19.668C13.3542 19.8503 13.6719 20.1003 13.9062 20.418C14.1432 20.7357 14.2682 21.0964 14.2813 21.5H13.3438ZM15.9834 27.5V19.5H16.9521V26.6406H20.6709V27.5H15.9834ZM23.1396 19.5V27.5H22.1709V19.5H23.1396ZM28.4258 22.7656V21.9219H33.2383V22.7656H28.4258ZM28.4258 25.0781V24.2344H33.2383V25.0781H28.4258Z" fill="black"/>
<path d="M50.4375 13.5C50.3516 13.237 50.2383 13.0013 50.0977 12.793C49.9596 12.582 49.7943 12.4023 49.6016 12.2539C49.4115 12.1055 49.1953 11.9922 48.9531 11.9141C48.7109 11.8359 48.4453 11.7969 48.1562 11.7969C47.6823 11.7969 47.2513 11.9193 46.8633 12.1641C46.4753 12.4089 46.1667 12.7695 45.9375 13.2461C45.7083 13.7227 45.5938 14.3073 45.5938 15C45.5938 15.6927 45.7096 16.2773 45.9414 16.7539C46.1732 17.2305 46.487 17.5911 46.8828 17.8359C47.2786 18.0807 47.724 18.2031 48.2188 18.2031C48.6771 18.2031 49.0807 18.1055 49.4297 17.9102C49.7813 17.7122 50.0547 17.4336 50.25 17.0742C50.4479 16.7122 50.5469 16.2865 50.5469 15.7969L50.8438 15.8594H48.4375V15H51.4844V15.8594C51.4844 16.5182 51.3438 17.0911 51.0625 17.5781C50.7839 18.0651 50.3984 18.4427 49.9062 18.7109C49.4167 18.9766 48.8542 19.1094 48.2188 19.1094C47.5104 19.1094 46.888 18.9427 46.3516 18.6094C45.8177 18.276 45.401 17.8021 45.1016 17.1875C44.8047 16.5729 44.6563 15.8437 44.6563 15C44.6563 14.3672 44.7409 13.7982 44.9102 13.293C45.082 12.7852 45.3242 12.3529 45.6367 11.9961C45.9492 11.6393 46.319 11.3659 46.7461 11.1758C47.1732 10.9857 47.6432 10.8906 48.1562 10.8906C48.5781 10.8906 48.9714 10.9544 49.3359 11.082C49.7031 11.207 50.0299 11.3854 50.3164 11.6172C50.6055 11.8464 50.8464 12.1211 51.0391 12.4414C51.2318 12.7591 51.3646 13.112 51.4375 13.5H50.4375ZM59.8936 15C59.8936 15.8437 59.7412 16.5729 59.4365 17.1875C59.1318 17.8021 58.7139 18.276 58.1826 18.6094C57.6514 18.9427 57.0446 19.1094 56.3623 19.1094C55.68 19.1094 55.0732 18.9427 54.542 18.6094C54.0107 18.276 53.5928 17.8021 53.2881 17.1875C52.9834 16.5729 52.8311 15.8437 52.8311 15C52.8311 14.1562 52.9834 13.4271 53.2881 12.8125C53.5928 12.1979 54.0107 11.724 54.542 11.3906C55.0732 11.0573 55.68 10.8906 56.3623 10.8906C57.0446 10.8906 57.6514 11.0573 58.1826 11.3906C58.7139 11.724 59.1318 12.1979 59.4365 12.8125C59.7412 13.4271 59.8936 14.1562 59.8936 15ZM58.9561 15C58.9561 14.3073 58.8402 13.7227 58.6084 13.2461C58.3792 12.7695 58.068 12.4089 57.6748 12.1641C57.2842 11.9193 56.8467 11.7969 56.3623 11.7969C55.8779 11.7969 55.4391 11.9193 55.0459 12.1641C54.6553 12.4089 54.3441 12.7695 54.1123 13.2461C53.8831 13.7227 53.7686 14.3073 53.7686 15C53.7686 15.6927 53.8831 16.2773 54.1123 16.7539C54.3441 17.2305 54.6553 17.5911 55.0459 17.8359C55.4391 18.0807 55.8779 18.2031 56.3623 18.2031C56.8467 18.2031 57.2842 18.0807 57.6748 17.8359C58.068 17.5911 58.3792 17.2305 58.6084 16.7539C58.8402 16.2773 58.9561 15.6927 58.9561 15ZM68.2725 15C68.2725 15.8437 68.1201 16.5729 67.8154 17.1875C67.5107 17.8021 67.0928 18.276 66.5615 18.6094C66.0303 18.9427 65.4235 19.1094 64.7412 19.1094C64.0589 19.1094 63.4521 18.9427 62.9209 18.6094C62.3896 18.276 61.9717 17.8021 61.667 17.1875C61.3623 16.5729 61.21 15.8437 61.21 15C61.21 14.1562 61.3623 13.4271 61.667 12.8125C61.9717 12.1979 62.3896 11.724 62.9209 11.3906C63.4521 11.0573 64.0589 10.8906 64.7412 10.8906C65.4235 10.8906 66.0303 11.0573 66.5615 11.3906C67.0928 11.724 67.5107 12.1979 67.8154 12.8125C68.1201 13.4271 68.2725 14.1562 68.2725 15ZM67.335 15C67.335 14.3073 67.2191 13.7227 66.9873 13.2461C66.7581 12.7695 66.4469 12.4089 66.0537 12.1641C65.6631 11.9193 65.2256 11.7969 64.7412 11.7969C64.2568 11.7969 63.818 11.9193 63.4248 12.1641C63.0342 12.4089 62.723 12.7695 62.4912 13.2461C62.262 13.7227 62.1475 14.3073 62.1475 15C62.1475 15.6927 62.262 16.2773 62.4912 16.7539C62.723 17.2305 63.0342 17.5911 63.4248 17.8359C63.818 18.0807 64.2568 18.2031 64.7412 18.2031C65.2256 18.2031 65.6631 18.0807 66.0537 17.8359C66.4469 17.5911 66.7581 17.2305 66.9873 16.7539C67.2191 16.2773 67.335 15.6927 67.335 15ZM72.3701 19H69.9014V11H72.4795C73.2555 11 73.9196 11.1602 74.4717 11.4805C75.0238 11.7982 75.4469 12.2552 75.7412 12.8516C76.0355 13.4453 76.1826 14.1562 76.1826 14.9844C76.1826 15.8177 76.0342 16.5352 75.7373 17.1367C75.4404 17.7357 75.0081 18.1966 74.4404 18.5195C73.8727 18.8398 73.1826 19 72.3701 19ZM70.8701 18.1406H72.3076C72.9691 18.1406 73.5173 18.013 73.9521 17.7578C74.387 17.5026 74.7113 17.1393 74.9248 16.668C75.1383 16.1966 75.2451 15.6354 75.2451 14.9844C75.2451 14.3385 75.1396 13.7826 74.9287 13.3164C74.7178 12.8477 74.4027 12.4883 73.9834 12.2383C73.5641 11.9857 73.042 11.8594 72.417 11.8594H70.8701V18.1406Z" fill="#1B841D"/>
<path d="M80.9014 19V11H83.6045C84.2295 11 84.7425 11.1068 85.1436 11.3203C85.5446 11.5312 85.8415 11.8216 86.0342 12.1914C86.2269 12.5612 86.3232 12.9818 86.3232 13.4531C86.3232 13.9245 86.2269 14.3424 86.0342 14.707C85.8415 15.0716 85.5459 15.3581 85.1475 15.5664C84.749 15.7721 84.2399 15.875 83.6201 15.875H81.4326V15H83.5889C84.016 15 84.3597 14.9375 84.6201 14.8125C84.8831 14.6875 85.0732 14.5104 85.1904 14.2812C85.3102 14.0495 85.3701 13.7734 85.3701 13.4531C85.3701 13.1328 85.3102 12.8529 85.1904 12.6133C85.0706 12.3737 84.8792 12.1888 84.6162 12.0586C84.3532 11.9258 84.0055 11.8594 83.5732 11.8594H81.8701V19H80.9014ZM84.667 15.4062L86.6357 19H85.5107L83.5732 15.4062H84.667ZM87.9375 19V11H92.7656V11.8594H88.9063V14.5625H92.5156V15.4219H88.9063V18.1406H92.8281V19H87.9375ZM97.418 16.5H98.4805L99.3711 17.6719L99.6055 17.9844L100.934 19.75H99.8711L98.9961 18.5781L98.7773 18.2812L97.418 16.5ZM101.262 15C101.262 15.8437 101.109 16.5729 100.805 17.1875C100.5 17.8021 100.082 18.276 99.5508 18.6094C99.0195 18.9427 98.4128 19.1094 97.7305 19.1094C97.0482 19.1094 96.4414 18.9427 95.9102 18.6094C95.3789 18.276 94.9609 17.8021 94.6563 17.1875C94.3516 16.5729 94.1992 15.8437 94.1992 15C94.1992 14.1562 94.3516 13.4271 94.6563 12.8125C94.9609 12.1979 95.3789 11.724 95.9102 11.3906C96.4414 11.0573 97.0482 10.8906 97.7305 10.8906C98.4128 10.8906 99.0195 11.0573 99.5508 11.3906C100.082 11.724 100.5 12.1979 100.805 12.8125C101.109 13.4271 101.262 14.1562 101.262 15ZM100.324 15C100.324 14.3073 100.208 13.7227 99.9766 13.2461C99.7474 12.7695 99.4362 12.4089 99.043 12.1641C98.6523 11.9193 98.2148 11.7969 97.7305 11.7969C97.2461 11.7969 96.8073 11.9193 96.4141 12.1641C96.0234 12.4089 95.7122 12.7695 95.4805 13.2461C95.2513 13.7227 95.1367 14.3073 95.1367 15C95.1367 15.6927 95.2513 16.2773 95.4805 16.7539C95.7122 17.2305 96.0234 17.5911 96.4141 17.8359C96.8073 18.0807 97.2461 18.2031 97.7305 18.2031C98.2148 18.2031 98.6523 18.0807 99.043 17.8359C99.4362 17.5911 99.7474 17.2305 99.9766 16.7539C100.208 16.2773 100.324 15.6927 100.324 15ZM108.141 11H109.109V16.2969C109.109 16.8437 108.98 17.332 108.723 17.7617C108.467 18.1888 108.107 18.526 107.641 18.7734C107.174 19.0182 106.628 19.1406 106 19.1406C105.372 19.1406 104.826 19.0182 104.359 18.7734C103.893 18.526 103.531 18.1888 103.273 17.7617C103.018 17.332 102.891 16.8437 102.891 16.2969V11H103.859V16.2188C103.859 16.6094 103.945 16.957 104.117 17.2617C104.289 17.5638 104.534 17.8021 104.852 17.9766C105.172 18.1484 105.555 18.2344 106 18.2344C106.445 18.2344 106.828 18.1484 107.148 17.9766C107.469 17.8021 107.714 17.5638 107.883 17.2617C108.055 16.957 108.141 16.6094 108.141 16.2188V11ZM111.044 19V11H115.872V11.8594H112.013V14.5625H115.622V15.4219H112.013V18.1406H115.935V19H111.044ZM121.993 13C121.946 12.6042 121.756 12.2969 121.423 12.0781C121.09 11.8594 120.681 11.75 120.196 11.75C119.842 11.75 119.532 11.8073 119.267 11.9219C119.004 12.0365 118.798 12.194 118.649 12.3945C118.504 12.5951 118.431 12.8229 118.431 13.0781C118.431 13.2917 118.481 13.4753 118.583 13.6289C118.687 13.7799 118.82 13.9062 118.981 14.0078C119.143 14.1068 119.312 14.1888 119.489 14.2539C119.666 14.3164 119.829 14.3672 119.978 14.4062L120.79 14.625C120.998 14.6797 121.23 14.7552 121.485 14.8516C121.743 14.9479 121.989 15.0794 122.224 15.2461C122.461 15.4102 122.656 15.6211 122.81 15.8789C122.963 16.1367 123.04 16.4531 123.04 16.8281C123.04 17.2604 122.927 17.651 122.7 18C122.476 18.349 122.148 18.6263 121.716 18.832C121.286 19.0378 120.764 19.1406 120.149 19.1406C119.576 19.1406 119.08 19.0482 118.661 18.8633C118.244 18.6784 117.916 18.4206 117.677 18.0898C117.44 17.7591 117.306 17.375 117.274 16.9375H118.274C118.3 17.2396 118.402 17.4896 118.579 17.6875C118.759 17.8828 118.985 18.0286 119.259 18.125C119.535 18.2187 119.832 18.2656 120.149 18.2656C120.519 18.2656 120.851 18.2057 121.146 18.0859C121.44 17.9635 121.673 17.7943 121.845 17.5781C122.017 17.3594 122.103 17.1042 122.103 16.8125C122.103 16.5469 122.028 16.3307 121.88 16.1641C121.731 15.9974 121.536 15.862 121.294 15.7578C121.052 15.6536 120.79 15.5625 120.509 15.4844L119.524 15.2031C118.899 15.0234 118.405 14.7669 118.04 14.4336C117.675 14.1003 117.493 13.6641 117.493 13.125C117.493 12.6771 117.614 12.2865 117.856 11.9531C118.101 11.6172 118.429 11.3568 118.841 11.1719C119.255 10.9844 119.717 10.8906 120.228 10.8906C120.743 10.8906 121.201 10.9831 121.603 11.168C122.004 11.3503 122.321 11.6003 122.556 11.918C122.793 12.2357 122.918 12.5964 122.931 13H121.993ZM124.195 11.8594V11H130.195V11.8594H127.68V19H126.711V11.8594H124.195ZM136.065 13C136.019 12.6042 135.828 12.2969 135.495 12.0781C135.162 11.8594 134.753 11.75 134.269 11.75C133.914 11.75 133.604 11.8073 133.339 11.9219C133.076 12.0365 132.87 12.194 132.722 12.3945C132.576 12.5951 132.503 12.8229 132.503 13.0781C132.503 13.2917 132.554 13.4753 132.655 13.6289C132.759 13.7799 132.892 13.9062 133.054 14.0078C133.215 14.1068 133.384 14.1888 133.562 14.2539C133.739 14.3164 133.901 14.3672 134.05 14.4062L134.862 14.625C135.071 14.6797 135.302 14.7552 135.558 14.8516C135.815 14.9479 136.062 15.0794 136.296 15.2461C136.533 15.4102 136.728 15.6211 136.882 15.8789C137.035 16.1367 137.112 16.4531 137.112 16.8281C137.112 17.2604 136.999 17.651 136.772 18C136.549 18.349 136.22 18.6263 135.788 18.832C135.358 19.0378 134.836 19.1406 134.222 19.1406C133.649 19.1406 133.153 19.0482 132.733 18.8633C132.317 18.6784 131.989 18.4206 131.749 18.0898C131.512 17.7591 131.378 17.375 131.347 16.9375H132.347C132.373 17.2396 132.474 17.4896 132.651 17.6875C132.831 17.8828 133.058 18.0286 133.331 18.125C133.607 18.2187 133.904 18.2656 134.222 18.2656C134.591 18.2656 134.924 18.2057 135.218 18.0859C135.512 17.9635 135.745 17.7943 135.917 17.5781C136.089 17.3594 136.175 17.1042 136.175 16.8125C136.175 16.5469 136.101 16.3307 135.952 16.1641C135.804 15.9974 135.608 15.862 135.366 15.7578C135.124 15.6536 134.862 15.5625 134.581 15.4844L133.597 15.2031C132.972 15.0234 132.477 14.7669 132.112 14.4336C131.748 14.1003 131.565 13.6641 131.565 13.125C131.565 12.6771 131.687 12.2865 131.929 11.9531C132.174 11.6172 132.502 11.3568 132.913 11.1719C133.327 10.9844 133.789 10.8906 134.3 10.8906C134.815 10.8906 135.274 10.9831 135.675 11.168C136.076 11.3503 136.394 11.6003 136.628 11.918C136.865 12.2357 136.99 12.5964 137.003 13H136.065Z" fill="black"/>
<line x1="44" y1="22.5" x2="138" y2="22.5" stroke="black"/>
<path d="M45.7969 28L48.1719 34.7344H48.2656L50.6406 28H51.6563L48.7188 36H47.7188L44.7813 28H45.7969ZM52.543 36H51.5273L54.4648 28H55.4648L58.4023 36H57.3867L54.9961 29.2656H54.9336L52.543 36ZM52.918 32.875H57.0117V33.7344H52.918V32.875ZM59.6484 36V28H60.6172V35.1406H64.3359V36H59.6484ZM66.8047 28V36H65.8359V28H66.8047ZM71.2158 36H68.7471V28H71.3252C72.1012 28 72.7653 28.1602 73.3174 28.4805C73.8695 28.7982 74.2926 29.2552 74.5869 29.8516C74.8812 30.4453 75.0283 31.1562 75.0283 31.9844C75.0283 32.8177 74.8799 33.5352 74.583 34.1367C74.2861 34.7357 73.8538 35.1966 73.2861 35.5195C72.7184 35.8398 72.0283 36 71.2158 36ZM69.7158 35.1406H71.1533C71.8148 35.1406 72.363 35.013 72.7979 34.7578C73.2327 34.5026 73.557 34.1393 73.7705 33.668C73.984 33.1966 74.0908 32.6354 74.0908 31.9844C74.0908 31.3385 73.9854 30.7826 73.7744 30.3164C73.5635 29.8477 73.2484 29.4883 72.8291 29.2383C72.4098 28.9857 71.8877 28.8594 71.2627 28.8594H69.7158V35.1406Z" fill="#CF2318"/>
<path d="M79.7471 36V28H82.4502C83.0752 28 83.5882 28.1068 83.9893 28.3203C84.3903 28.5312 84.6872 28.8216 84.8799 29.1914C85.0726 29.5612 85.1689 29.9818 85.1689 30.4531C85.1689 30.9245 85.0726 31.3424 84.8799 31.707C84.6872 32.0716 84.3916 32.3581 83.9932 32.5664C83.5947 32.7721 83.0856 32.875 82.4658 32.875H80.2783V32H82.4346C82.8617 32 83.2054 31.9375 83.4658 31.8125C83.7288 31.6875 83.9189 31.5104 84.0361 31.2812C84.1559 31.0495 84.2158 30.7734 84.2158 30.4531C84.2158 30.1328 84.1559 29.8529 84.0361 29.6133C83.9163 29.3737 83.7249 29.1888 83.4619 29.0586C83.1989 28.9258 82.8512 28.8594 82.4189 28.8594H80.7158V36H79.7471ZM83.5127 32.4062L85.4814 36H84.3564L82.4189 32.4062H83.5127ZM86.7832 36V28H91.6113V28.8594H87.752V31.5625H91.3613V32.4219H87.752V35.1406H91.6738V36H86.7832ZM96.2637 33.5H97.3262L98.2168 34.6719L98.4512 34.9844L99.7793 36.75H98.7168L97.8418 35.5781L97.623 35.2812L96.2637 33.5ZM100.107 32C100.107 32.8437 99.9551 33.5729 99.6504 34.1875C99.3457 34.8021 98.9277 35.276 98.3965 35.6094C97.8652 35.9427 97.2585 36.1094 96.5762 36.1094C95.8939 36.1094 95.2871 35.9427 94.7559 35.6094C94.2246 35.276 93.8066 34.8021 93.502 34.1875C93.1973 33.5729 93.0449 32.8437 93.0449 32C93.0449 31.1562 93.1973 30.4271 93.502 29.8125C93.8066 29.1979 94.2246 28.724 94.7559 28.3906C95.2871 28.0573 95.8939 27.8906 96.5762 27.8906C97.2585 27.8906 97.8652 28.0573 98.3965 28.3906C98.9277 28.724 99.3457 29.1979 99.6504 29.8125C99.9551 30.4271 100.107 31.1562 100.107 32ZM99.1699 32C99.1699 31.3073 99.054 30.7227 98.8223 30.2461C98.5931 29.7695 98.2819 29.4089 97.8887 29.1641C97.498 28.9193 97.0605 28.7969 96.5762 28.7969C96.0918 28.7969 95.653 28.9193 95.2598 29.1641C94.8691 29.4089 94.5579 29.7695 94.3262 30.2461C94.097 30.7227 93.9824 31.3073 93.9824 32C93.9824 32.6927 94.097 33.2773 94.3262 33.7539C94.5579 34.2305 94.8691 34.5911 95.2598 34.8359C95.653 35.0807 96.0918 35.2031 96.5762 35.2031C97.0605 35.2031 97.498 35.0807 97.8887 34.8359C98.2819 34.5911 98.5931 34.2305 98.8223 33.7539C99.054 33.2773 99.1699 32.6927 99.1699 32ZM106.986 28H107.955V33.2969C107.955 33.8437 107.826 34.332 107.568 34.7617C107.313 35.1888 106.952 35.526 106.486 35.7734C106.02 36.0182 105.473 36.1406 104.846 36.1406C104.218 36.1406 103.671 36.0182 103.205 35.7734C102.739 35.526 102.377 35.1888 102.119 34.7617C101.864 34.332 101.736 33.8437 101.736 33.2969V28H102.705V33.2188C102.705 33.6094 102.791 33.957 102.963 34.2617C103.135 34.5638 103.38 34.8021 103.697 34.9766C104.018 35.1484 104.4 35.2344 104.846 35.2344C105.291 35.2344 105.674 35.1484 105.994 34.9766C106.314 34.8021 106.559 34.5638 106.729 34.2617C106.9 33.957 106.986 33.6094 106.986 33.2188V28ZM109.89 36V28H114.718V28.8594H110.858V31.5625H114.468V32.4219H110.858V35.1406H114.78V36H109.89ZM120.839 30C120.792 29.6042 120.602 29.2969 120.269 29.0781C119.935 28.8594 119.526 28.75 119.042 28.75C118.688 28.75 118.378 28.8073 118.112 28.9219C117.849 29.0365 117.644 29.194 117.495 29.3945C117.349 29.5951 117.276 29.8229 117.276 30.0781C117.276 30.2917 117.327 30.4753 117.429 30.6289C117.533 30.7799 117.666 30.9062 117.827 31.0078C117.989 31.1068 118.158 31.1888 118.335 31.2539C118.512 31.3164 118.675 31.3672 118.823 31.4062L119.636 31.625C119.844 31.6797 120.076 31.7552 120.331 31.8516C120.589 31.9479 120.835 32.0794 121.069 32.2461C121.306 32.4102 121.502 32.6211 121.655 32.8789C121.809 33.1367 121.886 33.4531 121.886 33.8281C121.886 34.2604 121.772 34.651 121.546 35C121.322 35.349 120.994 35.6263 120.562 35.832C120.132 36.0378 119.61 36.1406 118.995 36.1406C118.422 36.1406 117.926 36.0482 117.507 35.8633C117.09 35.6784 116.762 35.4206 116.522 35.0898C116.285 34.7591 116.151 34.375 116.12 33.9375H117.12C117.146 34.2396 117.248 34.4896 117.425 34.6875C117.604 34.8828 117.831 35.0286 118.104 35.125C118.381 35.2187 118.677 35.2656 118.995 35.2656C119.365 35.2656 119.697 35.2057 119.991 35.0859C120.285 34.9635 120.519 34.7943 120.69 34.5781C120.862 34.3594 120.948 34.1042 120.948 33.8125C120.948 33.5469 120.874 33.3307 120.726 33.1641C120.577 32.9974 120.382 32.862 120.14 32.7578C119.897 32.6536 119.636 32.5625 119.354 32.4844L118.37 32.2031C117.745 32.0234 117.25 31.7669 116.886 31.4336C116.521 31.1003 116.339 30.6641 116.339 30.125C116.339 29.6771 116.46 29.2865 116.702 28.9531C116.947 28.6172 117.275 28.3568 117.687 28.1719C118.101 27.9844 118.563 27.8906 119.073 27.8906C119.589 27.8906 120.047 27.9831 120.448 28.168C120.849 28.3503 121.167 28.6003 121.401 28.918C121.638 29.2357 121.763 29.5964 121.776 30H120.839ZM123.041 28.8594V28H129.041V28.8594H126.525V36H125.557V28.8594H123.041ZM134.911 30C134.864 29.6042 134.674 29.2969 134.341 29.0781C134.007 28.8594 133.599 28.75 133.114 28.75C132.76 28.75 132.45 28.8073 132.185 28.9219C131.922 29.0365 131.716 29.194 131.567 29.3945C131.422 29.5951 131.349 29.8229 131.349 30.0781C131.349 30.2917 131.399 30.4753 131.501 30.6289C131.605 30.7799 131.738 30.9062 131.899 31.0078C132.061 31.1068 132.23 31.1888 132.407 31.2539C132.584 31.3164 132.747 31.3672 132.896 31.4062L133.708 31.625C133.916 31.6797 134.148 31.7552 134.403 31.8516C134.661 31.9479 134.907 32.0794 135.142 32.2461C135.379 32.4102 135.574 32.6211 135.728 32.8789C135.881 33.1367 135.958 33.4531 135.958 33.8281C135.958 34.2604 135.845 34.651 135.618 35C135.394 35.349 135.066 35.6263 134.634 35.832C134.204 36.0378 133.682 36.1406 133.067 36.1406C132.494 36.1406 131.998 36.0482 131.579 35.8633C131.162 35.6784 130.834 35.4206 130.595 35.0898C130.358 34.7591 130.224 34.375 130.192 33.9375H131.192C131.218 34.2396 131.32 34.4896 131.497 34.6875C131.677 34.8828 131.903 35.0286 132.177 35.125C132.453 35.2187 132.75 35.2656 133.067 35.2656C133.437 35.2656 133.769 35.2057 134.063 35.0859C134.358 34.9635 134.591 34.7943 134.763 34.5781C134.935 34.3594 135.021 34.1042 135.021 33.8125C135.021 33.5469 134.946 33.3307 134.798 33.1641C134.649 32.9974 134.454 32.862 134.212 32.7578C133.97 32.6536 133.708 32.5625 133.427 32.4844L132.442 32.2031C131.817 32.0234 131.323 31.7669 130.958 31.4336C130.593 31.1003 130.411 30.6641 130.411 30.125C130.411 29.6771 130.532 29.2865 130.774 28.9531C131.019 28.6172 131.347 28.3568 131.759 28.1719C132.173 27.9844 132.635 27.8906 133.146 27.8906C133.661 27.8906 134.119 27.9831 134.521 28.168C134.922 28.3503 135.239 28.6003 135.474 28.918C135.711 29.2357 135.836 29.5964 135.849 30H134.911Z" fill="black"/>
<path d="M154.275 19.5L156 22.362L157.725 19.5H159L156.675 23L159 26.5H157.725L156 23.7839L154.275 26.5H153L155.287 23L153 19.5H154.275Z" fill="black"/>
<path d="M165.641 19.5V27.5H164.672V20.5156H164.625L162.672 21.8125V20.8281L164.672 19.5H165.641ZM170.551 27.6094C169.962 27.6094 169.461 27.4492 169.047 27.1289C168.633 26.806 168.316 26.3385 168.098 25.7266C167.879 25.112 167.77 24.3698 167.77 23.5C167.77 22.6354 167.879 21.8971 168.098 21.2852C168.319 20.6706 168.637 20.2018 169.051 19.8789C169.467 19.5534 169.967 19.3906 170.551 19.3906C171.134 19.3906 171.633 19.5534 172.047 19.8789C172.464 20.2018 172.781 20.6706 173 21.2852C173.221 21.8971 173.332 22.6354 173.332 23.5C173.332 24.3698 173.223 25.112 173.004 25.7266C172.785 26.3385 172.469 26.806 172.055 27.1289C171.641 27.4492 171.139 27.6094 170.551 27.6094ZM170.551 26.75C171.134 26.75 171.587 26.4687 171.91 25.9062C172.233 25.3437 172.395 24.5417 172.395 23.5C172.395 22.8073 172.32 22.2174 172.172 21.7305C172.026 21.2435 171.815 20.8724 171.539 20.6172C171.266 20.362 170.936 20.2344 170.551 20.2344C169.973 20.2344 169.521 20.5195 169.195 21.0898C168.87 21.6576 168.707 22.4609 168.707 23.5C168.707 24.1927 168.78 24.7812 168.926 25.2656C169.072 25.75 169.281 26.1185 169.555 26.3711C169.831 26.6237 170.163 26.75 170.551 26.75ZM177.426 27.6094C176.837 27.6094 176.336 27.4492 175.922 27.1289C175.508 26.806 175.191 26.3385 174.973 25.7266C174.754 25.112 174.645 24.3698 174.645 23.5C174.645 22.6354 174.754 21.8971 174.973 21.2852C175.194 20.6706 175.512 20.2018 175.926 19.8789C176.342 19.5534 176.842 19.3906 177.426 19.3906C178.009 19.3906 178.508 19.5534 178.922 19.8789C179.339 20.2018 179.656 20.6706 179.875 21.2852C180.096 21.8971 180.207 22.6354 180.207 23.5C180.207 24.3698 180.098 25.112 179.879 25.7266C179.66 26.3385 179.344 26.806 178.93 27.1289C178.516 27.4492 178.014 27.6094 177.426 27.6094ZM177.426 26.75C178.009 26.75 178.462 26.4687 178.785 25.9062C179.108 25.3437 179.27 24.5417 179.27 23.5C179.27 22.8073 179.195 22.2174 179.047 21.7305C178.901 21.2435 178.69 20.8724 178.414 20.6172C178.141 20.362 177.811 20.2344 177.426 20.2344C176.848 20.2344 176.396 20.5195 176.07 21.0898C175.745 21.6576 175.582 22.4609 175.582 23.5C175.582 24.1927 175.655 24.7812 175.801 25.2656C175.947 25.75 176.156 26.1185 176.43 26.3711C176.706 26.6237 177.038 26.75 177.426 26.75ZM185.77 26V25.5781C185.77 25.2865 185.829 25.0195 185.949 24.7773C186.072 24.5326 186.249 24.3372 186.48 24.1914C186.715 24.043 186.999 23.9687 187.332 23.9687C187.671 23.9687 187.954 24.043 188.184 24.1914C188.413 24.3372 188.586 24.5326 188.703 24.7773C188.82 25.0195 188.879 25.2865 188.879 25.5781V26C188.879 26.2917 188.819 26.5599 188.699 26.8047C188.582 27.0469 188.408 27.2422 188.176 27.3906C187.947 27.5365 187.665 27.6094 187.332 27.6094C186.993 27.6094 186.708 27.5365 186.477 27.3906C186.245 27.2422 186.069 27.0469 185.949 26.8047C185.829 26.5599 185.77 26.2917 185.77 26ZM186.566 25.5781V26C186.566 26.2422 186.624 26.4596 186.738 26.6523C186.853 26.8424 187.051 26.9375 187.332 26.9375C187.605 26.9375 187.798 26.8424 187.91 26.6523C188.025 26.4596 188.082 26.2422 188.082 26V25.5781C188.082 25.3359 188.027 25.1198 187.918 24.9297C187.809 24.737 187.613 24.6406 187.332 24.6406C187.059 24.6406 186.862 24.737 186.742 24.9297C186.625 25.1198 186.566 25.3359 186.566 25.5781ZM181.785 21.4219V21C181.785 20.7083 181.845 20.4414 181.965 20.1992C182.087 19.9544 182.264 19.7591 182.496 19.6133C182.73 19.4648 183.014 19.3906 183.348 19.3906C183.686 19.3906 183.97 19.4648 184.199 19.6133C184.428 19.7591 184.602 19.9544 184.719 20.1992C184.836 20.4414 184.895 20.7083 184.895 21V21.4219C184.895 21.7135 184.835 21.9818 184.715 22.2266C184.598 22.4687 184.423 22.6641 184.191 22.8125C183.962 22.9583 183.681 23.0312 183.348 23.0312C183.009 23.0312 182.724 22.9583 182.492 22.8125C182.26 22.6641 182.085 22.4687 181.965 22.2266C181.845 21.9818 181.785 21.7135 181.785 21.4219ZM182.582 21V21.4219C182.582 21.6641 182.639 21.8815 182.754 22.0742C182.868 22.2643 183.066 22.3594 183.348 22.3594C183.621 22.3594 183.814 22.2643 183.926 22.0742C184.04 21.8815 184.098 21.6641 184.098 21.4219V21C184.098 20.7578 184.043 20.5417 183.934 20.3516C183.824 20.1589 183.629 20.0625 183.348 20.0625C183.074 20.0625 182.878 20.1589 182.758 20.3516C182.641 20.5417 182.582 20.7578 182.582 21ZM182.082 27.5L187.582 19.5H188.473L182.973 27.5H182.082Z" fill="black"/>
<path d="M40.327 39.8371C39.989 39.8371 39.7333 39.7418 39.56 39.5511C39.3953 39.3604 39.313 39.1264 39.313 38.8491V25.4821C39.313 25.1008 39.1873 24.8148 38.936 24.6241C38.6933 24.4334 38.3813 24.3381 38 24.3381V23.6621C38.3813 23.6621 38.6933 23.5668 38.936 23.3761C39.1873 23.1854 39.313 22.8994 39.313 22.5181V9.15109C39.313 8.87375 39.3953 8.63975 39.56 8.44909C39.7333 8.25842 39.989 8.16309 40.327 8.16309H41.601V8.74809H40.301V22.2971C40.301 22.5051 40.262 22.7001 40.184 22.8821C40.106 23.0641 40.002 23.2288 39.872 23.3761C39.742 23.5234 39.586 23.6448 39.404 23.7401C39.2307 23.8354 39.0487 23.9004 38.858 23.9351V24.0651C39.0487 24.0998 39.2307 24.1648 39.404 24.2601C39.586 24.3554 39.742 24.4768 39.872 24.6241C40.002 24.7714 40.106 24.9361 40.184 25.1181C40.262 25.3001 40.301 25.4951 40.301 25.7031V39.2521H41.601V39.8371H40.327Z" fill="black"/>
<path d="M142.234 39.2521H143.534V25.7031C143.534 25.4951 143.573 25.3001 143.651 25.1181C143.729 24.9361 143.833 24.7714 143.963 24.6241C144.093 24.4768 144.245 24.3554 144.418 24.2601C144.591 24.1648 144.778 24.0998 144.977 24.0651V23.9351C144.778 23.9004 144.591 23.8354 144.418 23.7401C144.245 23.6448 144.093 23.5234 143.963 23.3761C143.833 23.2288 143.729 23.0641 143.651 22.8821C143.573 22.7001 143.534 22.5051 143.534 22.2971V8.74809H142.234V8.16309H143.508C143.846 8.16309 144.097 8.25842 144.262 8.44909C144.435 8.63975 144.522 8.87375 144.522 9.15109V22.5181C144.522 22.8994 144.643 23.1854 144.886 23.3761C145.137 23.5668 145.454 23.6621 145.835 23.6621V24.3381C145.454 24.3381 145.137 24.4334 144.886 24.6241C144.643 24.8148 144.522 25.1008 144.522 25.4821V38.8491C144.522 39.1264 144.435 39.3604 144.262 39.5511C144.097 39.7418 143.846 39.8371 143.508 39.8371H142.234V39.2521Z" fill="black"/>
<rect x="0.25" y="0.25" width="640.5" height="45.5" rx="3.75" stroke="#D9DAE5" stroke-width="0.5"/>
</svg>
