<svg fill="none" height="198" viewBox="0 0 144 198" width="144" xmlns="http://www.w3.org/2000/svg" xmlns:xlink="http://www.w3.org/1999/xlink"><clipPath id="a"><path d="m0 0h144v198h-144z"/></clipPath><g clip-path="url(#a)"><path clip-rule="evenodd" d="m24.4138 68.0449c.3332-.1323.7077.0379.8365.3801.6545 1.739 1.3209 3.479 1.9886 5.2225 3.9257 10.2504 7.8963 20.618 9.7514 31.5745.0612.361-.1745.705-.5264.768-.352.063-.6869-.179-.7481-.541-1.8307-10.8114-5.7461-21.0375-9.673-31.2938-.6695-1.7485-1.3393-3.4978-1.9991-5.2511-.1288-.3423.0369-.7269.3701-.8592z" fill="#000" fill-rule="evenodd"/><path clip-rule="evenodd" d="m28.4883 101.012c.3417-.057.6851.092.7669.333.6599 1.947 1.159 3.888 1.6604 5.837.0246.096.0493.192.074.288.0629.244-.1664.478-.5122.523-.3457.044-.6769-.118-.7398-.362-.0241-.094-.0481-.187-.0722-.281-.5029-1.955-.9963-3.874-1.6478-5.796-.0818-.241.1289-.484.4707-.542z" fill="#000" fill-rule="evenodd"/><path clip-rule="evenodd" d="m78.3642.229024c.2394-.2775954.6567-.3069479.9321-.065561.0805.070597.1615.141543.2428.212836 4.7835 4.192521 10.9339 9.583151 14.3545 15.571601 1.7472 3.0587 2.8121 6.3217 2.5904 9.6979-.1371 2.088-.7643 4.1874-1.9872 6.2791 1.2446.9286 2.2345 2.0776 2.8426 3.4635 1.2278 2.7987.8094 6.3521-1.8066 10.5986-3.2434 5.2649-7.8749 9.149-12.5138 12.8734-.3484.2797-.6968.5585-1.0447.8369-4.311 3.4497-8.5437 6.8367-11.7836 11.1839-6.8325 9.1672-10.6772 22.1337-8.0232 33.2978.0851.357-.1337.717-.4885.803-.3549.085-.7115-.135-.7965-.493-2.7667-11.6375 1.2423-25.0035 8.2517-34.4081 3.347-4.4907 7.7104-7.981 11.9953-11.4086.3562-.2849.7119-.5694 1.0663-.854 4.646-3.7301 9.1057-7.4877 12.2145-12.5341 2.4845-4.0331 2.7074-7.1077 1.7206-9.3569-.4884-1.1131-1.2945-2.0749-2.3497-2.8784-.6389.9267-1.3988 1.8512-2.289 2.7719-2.3821 2.4639-6.0534 4.7698-9.9682 6.1265-3.905 1.3535-8.1636 1.7996-11.6743.3894-2.2119-.8884-3.0881-2.747-2.9949-4.6436.0908-1.848 1.0925-3.7424 2.6056-4.9088 2.5774-1.9871 6.134-3.2296 9.8206-3.7337 3.6911-.5048 7.577-.2786 10.8442.7335 1.1701.3625 2.2742.8304 3.265 1.41 1.1071-1.9117 1.6544-3.7953 1.7753-5.6363.199-3.0304-.7517-6.0298-2.417-8.9451-3.3086-5.7923-9.3192-11.06103-14.156-15.3008l-.1633-.14318c-.2754-.241382-.3045-.662101-.065-.939696zm14.3127 32.087676c-.8709-.5039-1.8594-.9245-2.9399-1.2592-3.0558-.9466-6.7452-1.17-10.2784-.6869-3.5376.4838-6.8543 1.6669-9.1955 3.4719-1.2155.937-2.0176 2.4737-2.0885 3.9165-.0685 1.3941.5358 2.6861 2.1642 3.3402 3.0982 1.2445 7.001.8896 10.7556-.4117 3.745-1.2979 7.2316-3.5003 9.4515-5.7965.8337-.8623 1.5401-1.7208 2.131-2.5743z" fill="#000" fill-rule="evenodd"/><path clip-rule="evenodd" d="m128.805.183171c.253.251164.261.666524.018.927739l-12.731 13.68769c-.243.2612-.645.2694-.897.0182-.253-.2511-.261-.6665-.018-.9277l12.731-13.687738c.243-.2612096.645-.269354.897-.018191z" fill="#000" fill-rule="evenodd"/><path clip-rule="evenodd" d="m143.919 11.3337c.176.3096.056.6968-.267.8649l-18.67 9.724c-.323.1681-.726.0533-.901-.2563-.176-.3096-.056-.6968.267-.8649l18.67-9.724c.323-.1681.726-.0533.901.2563z" fill="#000" fill-rule="evenodd"/><path d="m16.0769 50.1666c0 3.9292-.3079 10.3085-1.5166 12.1439-.5948.9032-1.2854 1.4202-2.022 1.4202s-1.4272-.517-2.022-1.4202c-1.2087-1.8354-1.5163-8.8044-1.5163-12.7336 0-5.8627 1.3049-7.0769 3.5383-7.0769s3.5386 1.8039 3.5386 7.6666z" fill="#fff"/><path clip-rule="evenodd" d="m10.9501 44.4349c-.434.7428-.7706 2.2308-.7706 5.142 0 1.9411.0762 4.6274.2999 7.0432.1119 1.2094.2588 2.3285.4457 3.2428.1959.9587.408 1.5433.5763 1.7989.5144.7812.8952.8894 1.0369.8894.1418 0 .5225-.1082 1.0369-.8894.1756-.2666.3858-.8278.5793-1.7203.1856-.8567.3319-1.8999.4436-3.0334.223-2.2646.2993-4.8007.2993-6.7415 0-2.894-.3307-4.5726-.8024-5.4947-.2221-.4343-.455-.6595-.6665-.7859-.2135-.1275-.4928-.2065-.8902-.2065-.4603 0-.7699.0641-.9927.169-.2018.0949-.4022.2554-.5955.5864zm3.6102 17.8756c1.2087-1.8354 1.5166-8.2147 1.5166-12.1439 0-5.8627-1.3052-7.6666-3.5386-7.6666s-3.5383 1.2142-3.5383 7.0769c0 3.9292.3076 10.8982 1.5163 12.7336.5948.9032 1.2854 1.4202 2.022 1.4202s1.4272-.517 2.022-1.4202z" fill="#000" fill-rule="evenodd"/><path d="m16.0769 69.6273c0 1.9542-1.5842 3.5385-3.5385 3.5385-1.9542 0-3.5384-1.5843-3.5384-3.5385s1.5842-3.5384 3.5384-3.5384c1.9543 0 3.5385 1.5842 3.5385 3.5384z" fill="#fff"/><path clip-rule="evenodd" d="m12.5384 71.5576c1.3029 0 2.359-1.0562 2.359-2.359s-1.0561-2.359-2.359-2.359c-1.3028 0-2.3589 1.0562-2.3589 2.359s1.0561 2.359 2.3589 2.359zm0 1.1794c1.9543 0 3.5385-1.5842 3.5385-3.5384s-1.5842-3.5384-3.5385-3.5384c-1.9542 0-3.5384 1.5842-3.5384 3.5384s1.5842 3.5384 3.5384 3.5384z" fill="#000" fill-rule="evenodd"/><path d="m28.0785 146.755-10.223 21.809v12.268l27.2614 14.312 34.0767-4.771 9.5415-21.809v-11.586l-24.5352-14.994z" fill="#fff"/><g clip-rule="evenodd" fill="#000" fill-rule="evenodd"><path d="m15.8968 178.457c.1823-.329.597-.448.9263-.266 4.4633 2.469 10.0771 5.668 15.685 8.863l.1612.092c5.5563 3.166 11.096 6.323 15.5047 8.765.3293.182.4484.597.266.926-.1824.33-.5972.449-.9264.266-4.416-2.446-9.9614-5.606-15.5135-8.77l-.1669-.095c-5.6102-3.197-11.2158-6.39-15.67-8.855-.3293-.182-.4486-.596-.2664-.926z"/><path d="m89.0125 166.578c.3439.153.4989.556.346.9-2.0805 4.681-3.6653 8.272-5.0194 11.34-2.1924 4.967-3.7801 8.564-5.8875 13.201-.1558.342-.5598.494-.9025.338s-.4942-.56-.3384-.903c2.1047-4.63 3.6878-8.217 5.8774-13.178 1.3541-3.068 2.9401-6.661 5.0248-11.352.1529-.344.5556-.498.8996-.346z"/><path d="m81.9096 188.89c.0661.371-.1806.725-.5511.791-14.4953 2.588-22.3215 3.607-31.7992 4.84-3.0117.392-6.1901.805-9.8022 1.298-.373.051-.7165-.21-.7674-.583-.0508-.373.2103-.717.5832-.768 3.6238-.494 6.8083-.908 9.8227-1.301 9.47-1.232 17.2618-2.246 31.7233-4.828.3705-.066.7245.18.7907.551z"/><path d="m16.5785 166.19c.1822-.33.5969-.449.9263-.267 4.4632 2.47 10.0771 5.668 15.6849 8.863l.1612.092c5.5564 3.167 11.096 6.323 15.5048 8.765.3292.183.4483.597.2659.927-.1824.329-.5971.448-.9264.266-4.416-2.446-9.9614-5.606-15.5135-8.77l-.1668-.095c-5.6103-3.197-11.2159-6.391-15.67-8.855-.3294-.182-.4486-.597-.2664-.926z"/><path d="m60.8783 141.654c.1822-.329.5969-.448.9263-.266 4.4632 2.47 10.0771 5.668 15.6849 8.863l.1612.092c5.5564 3.166 11.096 6.323 15.5048 8.765.3293.183.4483.597.2659.927-.1823.329-.5971.448-.9264.265-4.416-2.446-9.9614-5.606-15.5135-8.769l-.1668-.095c-5.6103-3.197-11.2159-6.391-15.67-8.855-.3294-.182-.4486-.597-.2664-.927z"/><path d="m29.0379 144.769c.3439.153.4988.556.346.899-2.0805 4.681-3.6653 8.272-5.0194 11.34-2.1924 4.967-3.7801 8.565-5.8875 13.201-.1558.343-.5599.494-.9025.338-.3427-.155-.4942-.559-.3384-.902 2.1046-4.63 3.6878-8.217 5.8774-13.178 1.3541-3.068 2.9401-6.662 5.0248-11.352.1528-.344.5556-.499.8996-.346zm60.6566 9.541c.344.153.4989.556.346.9-2.0805 4.681-3.6654 8.272-5.0195 11.34-2.1924 4.967-3.78 8.564-5.8874 13.2-.1558.343-.5598.495-.9025.339-.3426-.156-.4942-.56-.3384-.903 2.1047-4.63 3.6879-8.217 5.8775-13.178 1.3541-3.068 2.9401-6.661 5.0247-11.352.1529-.344.5556-.499.8996-.346z"/><path d="m67.5981 141.865c.0661.37-.1806.724-.5512.79-14.4952 2.589-22.3214 3.607-31.7991 4.84-3.0117.392-6.1901.806-9.8022 1.298-.373.051-.7165-.21-.7674-.583s.2103-.716.5832-.767c3.6238-.494 6.8083-.909 9.8227-1.301 9.47-1.232 17.2618-2.246 31.7232-4.829.3706-.066.7246.181.7908.552zm14.9937 34.758c.0662.37-.1805.724-.5511.791-14.4952 2.588-22.3215 3.606-31.7992 4.84-3.0116.392-6.19.805-9.8021 1.298-.373.051-.7166-.21-.7674-.583-.0509-.373.2102-.717.5832-.768 3.6238-.494 6.8083-.908 9.8227-1.301 9.47-1.232 17.2618-2.246 31.7232-4.828.3705-.066.7246.18.7907.551z"/><path d="m88.0515 154.934c.3763-.002.6829.302.6847.678.0052 1.096.0171 2.836.0303 4.762.0238 3.468.0517 7.537.0517 9.516 0 .376-.3051.681-.6815.681s-.6815-.305-.6815-.681c0-1.976-.0279-6.032-.0516-9.497-.0133-1.928-.0252-3.673-.0304-4.775-.0018-.376.3019-.683.6783-.684zm-68.9171 10.942c.3764-.002.6829.302.6847.678.0052 1.095.0171 2.836.0303 4.761.0238 3.469.0517 7.538.0517 9.517 0 .376-.3051.681-.6815.681s-.6815-.305-.6815-.681c0-1.975-.0279-6.031-.0516-9.496-.0132-1.928-.0252-3.674-.0304-4.776-.0018-.376.3019-.683.6783-.684zm59.9751 10.223c.3764-.002.683.302.6847.678.0052 1.096.0172 2.836.0304 4.762.0238 3.469.0517 7.537.0517 9.516 0 .376-.3052.681-.6816.681s-.6815-.305-.6815-.681c0-1.976-.0278-6.032-.0516-9.497-.0132-1.928-.0252-3.673-.0304-4.775-.0018-.376.3019-.683.6783-.684zm-34.7583 4.77c.3764-.001.683.302.6847.679.0052 1.095.0172 2.836.0304 4.761.0238 3.469.0517 7.538.0517 9.517 0 .376-.3052.681-.6816.681s-.6815-.305-.6815-.681c0-1.976-.0278-6.031-.0516-9.496-.0132-1.928-.0252-3.674-.0304-4.776-.0018-.376.3019-.683.6783-.685z"/><path d="m78.0102 177.057c.3632.099.5776.473.4788.836l-3.4077 12.531c-.0988.364-.4733.578-.8365.479s-.5776-.473-.4788-.836l3.4077-12.531c.0988-.364.4733-.578.8365-.479zm-4.0892.681c.3632.099.5776.474.4788.837l-3.4078 12.531c-.0987.363-.4732.578-.8365.479-.3632-.099-.5775-.473-.4788-.837l3.4078-12.531c.0987-.363.4733-.577.8365-.479zm-4.0892.68c.3632.099.5775.474.4788.837l-3.4078 12.531c-.0987.363-.4733.578-.8365.479s-.5775-.473-.4788-.837l3.4078-12.531c.0987-.363.4732-.577.8365-.479zm-4.7707.682c.3632.099.5776.473.4788.836l-3.2224 11.85c-.0988.363-.4733.578-.8365.479s-.5776-.473-.4788-.837l3.2224-11.849c.0987-.363.4733-.578.8365-.479zm-4.0893.68c.3632.099.5776.473.4788.837l-3.2227 11.851c-.0988.363-.4733.577-.8365.478-.3632-.098-.5776-.473-.4788-.836l3.2227-11.851c.0988-.363.4733-.578.8365-.479zm-4.2745.682c.3632.098.5776.473.4788.836l-3.2224 11.85c-.0988.363-.4733.577-.8365.479-.3632-.099-.5776-.474-.4788-.837l3.2224-11.85c.0988-.363.4733-.577.8365-.478zm-4.0889.68c.3633.098.5776.473.4789.836l-3.2229 11.851c-.0987.364-.4732.578-.8364.479-.3633-.099-.5776-.473-.4789-.836l3.2228-11.851c.0988-.364.4733-.578.8365-.479zm-3.9039 0c.3633.098.5776.473.4789.836l-3.4078 12.531c-.0988.364-.4733.578-.8365.479s-.5776-.473-.4788-.836l3.4077-12.531c.0988-.364.4733-.578.8365-.479z"/><path d="m85.4308 163.738c.3764.004.6786.312.6751.688l-.0958 10.278c-.0035.377-.3115.679-.6879.675-.3764-.003-.6786-.311-.6751-.688l.0958-10.278c.0035-.376.3115-.678.6879-.675zm-2.8284 6.871c.3764 0 .6816.305.6816.681v8.842c0 .376-.3052.681-.6816.681s-.6815-.305-.6815-.681v-8.842c0-.376.3051-.681.6815-.681z"/><path d="m22.1238 169.27c.3632.098.5775.473.4786.836l-2.7264 10.019c-.0989.363-.4734.578-.8366.479s-.5775-.473-.4787-.837l2.7265-10.019c.0988-.363.4734-.577.8366-.478zm3.4043 1.362c.3637.097.5799.47.4829.834l-2.9081 10.904c-.097.364-.4704.58-.8341.483s-.5799-.47-.4829-.834l2.9081-10.904c.097-.364.4704-.58.8341-.483zm3.4034 2.043c.3643.095.5829.467.4883.831l-2.6338 10.139c-.0947.364-.4667.582-.831.488-.3644-.095-.583-.467-.4883-.831l2.6338-10.138c.0946-.365.4667-.583.831-.489zm3.4082 2.045c.3642.095.5823.468.4872.832l-2.7258 10.433c-.0951.364-.4675.582-.8317.487-.3641-.095-.5822-.468-.4871-.832l2.7258-10.433c.0951-.364.4675-.582.8316-.487zm4.0908 2.045c.3639.096.5811.469.4852.833l-2.8758 10.904c-.096.364-.4688.582-.8328.486-.3639-.096-.5812-.469-.4852-.833l2.8758-10.905c.0959-.364.4688-.581.8328-.485zm3.4127 2.296c.3633.099.5776.473.4789.837l-2.8975 10.654c-.0987.363-.4732.578-.8365.479-.3632-.099-.5775-.473-.4788-.837l2.8974-10.654c.0988-.363.4733-.578.8365-.479zm3.4048 1.794c.3637.097.5799.47.4829.834l-2.8634 10.737c-.097.363-.4705.579-.8342.482s-.5799-.47-.4829-.834l2.8635-10.736c.097-.364.4705-.58.8341-.483z"/></g><path d="m28.0786 126.309-9.5415 21.128 10.223 4.77 16.3569 10.223 34.7583-6.134 4.7707-10.223 4.0892-9.541-25.8983-14.312z" fill="#2bb1f2"/><path clip-rule="evenodd" d="m16.5775 145.743c.1822-.329.597-.448.9263-.266.8372.463 1.7147.952 2.6249 1.461.3285.184.4457.6.2618.928-.1838.328-.5991.446-.9275.262-.9087-.509-1.7842-.996-2.6191-1.458-.3294-.183-.4486-.597-.2664-.927zm7.8523 4.4c.1856-.327.6015-.442.929-.256 1.6979.962 3.4504 1.959 5.2204 2.967.3271.186.4413.602.255.929-.1862.327-.6024.441-.9295.255-1.7697-1.008-3.5212-2.004-5.2179-2.966-.3275-.185-.4425-.601-.257-.929zm10.4361 5.937c.1863-.327.6024-.441.9295-.255 1.7698 1.008 3.5212 2.005 5.2177 2.967.3274.185.4424.601.2567.929-.1856.327-.6016.442-.929.256-1.6976-.962-3.45-1.959-5.22-2.967-.3271-.187-.4412-.603-.2549-.93zm10.4426 5.919c.184-.328.5993-.445.9277-.261.9085.509 1.7839.997 2.6185 1.459.3293.182.4483.597.2659.926-.1823.33-.5971.449-.9264.266-.8369-.463-1.7142-.952-2.6242-1.462-.3284-.184-.4455-.599-.2615-.928z" fill="#000" fill-rule="evenodd"/><path clip-rule="evenodd" d="m60.5375 121.208c.1822-.329.5969-.448.9263-.266.8372.463 1.7147.952 2.6249 1.461.3284.184.4457.599.2618.928-.1838.328-.5991.446-.9276.262-.9086-.509-1.7841-.997-2.619-1.459-.3294-.182-.4487-.596-.2664-.926zm7.8523 4.4c.1856-.327.6015-.442.929-.257 1.6979.963 3.4503 1.959 5.2204 2.967.3271.187.4412.603.255.93-.1863.327-.6024.441-.9295.255-1.7698-1.008-3.5213-2.004-5.218-2.966-.3275-.185-.4425-.601-.2569-.929zm10.436 5.937c.1863-.327.6025-.441.9296-.255 1.7697 1.008 3.5211 2.005 5.2176 2.966.3275.186.4424.602.2568.929-.1857.328-.6016.443-.929.257-1.6977-.962-3.45-1.959-5.22-2.967-.3271-.187-.4412-.603-.255-.93zm10.4427 5.919c.1839-.328.5993-.445.9276-.261.9086.508 1.7839.997 2.6186 1.459.3292.182.4483.597.2659.926-.1824.33-.5971.449-.9264.266-.8369-.463-1.7142-.953-2.6243-1.462-.3283-.184-.4454-.6-.2614-.928z" fill="#000" fill-rule="evenodd"/><path clip-rule="evenodd" d="m29.037 124.323c.344.152.4989.555.346.899-.4653 1.047-.9008 2.034-1.3102 2.969-.151.345-.5529.502-.8977.351s-.5018-.553-.3508-.898c.4104-.937.8468-1.926 1.3131-2.975.1529-.344.5556-.499.8996-.346zm-3.8888 8.925c.3467.147.5088.546.3621.893-.8378 1.98-1.55 3.699-2.2158 5.305-.0943.227-.1876.452-.2803.676-.1442.348-.5429.513-.8906.368-.3477-.144-.5127-.543-.3685-.89.0926-.224.1859-.449.2802-.676.6657-1.606 1.3798-3.329 2.2197-5.314.1466-.347.5466-.509.8932-.362zm64.5454.616c.344.153.4989.556.346.9-.4795 1.079-.9327 2.1-1.3628 3.07-.1525.344-.5552.499-.8993.346-.3441-.152-.4993-.555-.3468-.899.4303-.97.8836-1.992 1.3633-3.071.1529-.344.5557-.499.8996-.346zm-4.0804 9.209c.3443.152.5002.554.3482.898-.3278.743-.6411 1.453-.943 2.137-.6304 1.428-1.2107 2.743-1.7677 4.001-.1523.345-.5549.5-.8991.348-.3442-.153-.4997-.555-.3474-.899.5568-1.259 1.1368-2.573 1.7671-4.001.3019-.684.6153-1.394.9432-2.136.152-.345.5544-.5.8987-.348zm-65.4822 2.137c.3449.151.5025.552.3518.897-.413.946-.8492 1.927-1.3252 2.974-.1557.343-.5598.494-.9025.339-.3426-.156-.4941-.56-.3384-.903.473-1.041.9065-2.015 1.317-2.955.1506-.345.5523-.503.8973-.352zm60.0442 10.132c.3432.154.4963.557.3419.901-.4431.985-.9 1.995-1.3844 3.061-.1557.343-.5598.494-.9024.339-.3427-.156-.4942-.56-.3385-.903.4837-1.064.9399-2.073 1.3822-3.056.1544-.344.5579-.497.9012-.342z" fill="#000" fill-rule="evenodd"/><path clip-rule="evenodd" d="m67.5971 121.418c.0661.371-.1806.725-.5511.791-.8901.159-1.755.312-2.5967.459-.3708.065-.724-.182-.789-.553s.1829-.724.5537-.789c.8402-.147 1.7037-.3 2.5923-.459.3706-.066.7246.181.7908.551zm-7.7686 1.354c.0622.371-.1884.723-.5596.785-1.8349.307-3.5558.587-5.1912.845-.3718.058-.7207-.196-.7794-.567-.0587-.372.1952-.721.567-.78 1.631-.257 3.3478-.536 5.1785-.843.3713-.062.7226.189.7847.56zm-10.3748 1.649c.0548.372-.2027.718-.5751.773-1.7984.265-3.5166.507-5.2055.739-.3729.051-.7166-.21-.7678-.583-.0511-.373.2097-.716.5826-.768 1.6852-.231 3.399-.473 5.1924-.736.3724-.055.7187.202.7734.575zm-10.4033 1.444c.0489.373-.214.716-.5872.765-1.0566.138-2.123.277-3.211.418-.6577.086-1.3233.173-1.9995.261-.3732.049-.7153-.215-.764-.588s.2144-.715.5877-.764c.6772-.088 1.3434-.175 2.0013-.26 1.0873-.142 2.1522-.281 3.2083-.419.3732-.049.7154.214.7644.587zm-10.4176 1.365c.05.373-.212.716-.5851.766-.8438.113-1.7102.229-2.6031.351-.373.051-.7165-.21-.7674-.583-.0508-.373.2103-.717.5832-.767.8942-.122 1.7616-.239 2.6065-.352.373-.05.716.212.7659.585zm53.958 28.947c.0662.37-.1805.724-.5511.79-.89.159-1.755.312-2.5967.46-.3707.065-.7239-.183-.7889-.554s.1829-.724.5536-.789c.8403-.147 1.7037-.3 2.5924-.459.3706-.066.7246.181.7907.552zm-7.7685 1.353c.0622.372-.1884.723-.5596.785-1.8349.307-3.5558.587-5.1912.845-.3718.059-.7208-.195-.7794-.567-.0587-.372.1951-.721.5669-.78 1.6311-.257 3.3478-.536 5.1786-.842.3712-.062.7226.188.7847.559zm-10.3748 1.649c.0547.372-.2027.719-.5751.774-1.7984.264-3.5167.507-5.2055.738-.3729.051-.7167-.21-.7678-.582-.0512-.373.2097-.717.5826-.768 1.6851-.231 3.3989-.473 5.1924-.737.3724-.055.7186.203.7734.575zm-10.4034 1.444c.049.374-.2139.716-.5871.765-1.0561.138-2.122.277-3.2094.418-.6583.086-1.3244.173-2.0011.261-.3732.049-.7153-.214-.764-.588-.0487-.373.2144-.715.5876-.763.6767-.089 1.3423-.175 1.9997-.261 1.0879-.141 2.1534-.28 3.21-.419.3732-.049.7154.214.7643.587zm-10.4175 1.365c.0499.373-.212.716-.5851.766-.8438.113-1.7102.23-2.6031.351-.373.051-.7165-.21-.7674-.583s.2103-.716.5832-.767c.8941-.122 1.7616-.239 2.6064-.352.3731-.05.716.212.766.585z" fill="#000" fill-rule="evenodd"/><path clip-rule="evenodd" d="m53.9764 131.761c.3764 0 .6815.305.6815.681v5.453h6.1338c.3764 0 .6816.305.6816.681s-.3052.682-.6816.682h-6.1338v5.452c0 .376-.3051.681-.6815.681s-.6816-.305-.6816-.681v-5.452h-6.1338c-.3764 0-.6815-.306-.6815-.682s.3051-.681.6815-.681h6.1338v-5.453c0-.376.3052-.681.6816-.681z" fill="#000" fill-rule="evenodd"/></g></svg>