<svg fill="none" height="201" viewBox="0 0 321 201" width="321" xmlns="http://www.w3.org/2000/svg" xmlns:xlink="http://www.w3.org/1999/xlink"><mask id="a" fill="#000" height="13" maskUnits="userSpaceOnUse" width="34" x="105.809" y="46.5855"><path d="m105.809 46.5855h34v13h-34z" fill="#fff"/><path d="m110.911 52.0998c0 .1025-.042.2563-.126.4612-.075.1957-.168.4612-.28.7967-.103.3261-.21.7314-.322 1.2159-.112.4752-.196 1.0389-.252 1.6911-.009.1211-.019.219-.028.2935 0 .0745-.005.1398-.014.1957v.1537.1817c0 .0652.005.1118.014.1398.019.0372.028.0791.028.1257 0 .2143-.112.3215-.336.3215-.103 0-.201-.0513-.294-.1537-.084-.1025-.121-.2143-.112-.3355.009-.1211.028-.3447.056-.6708.037-.3261.079-.6849.126-1.0762.056-.3913.117-.778.182-1.16s.135-.6895.21-.9224c-.103.0559-.219.1118-.35.1677s-.271.1071-.42.1537c-.149.0373-.294.0699-.434.0979-.14.0279-.266.0419-.378.0419-.392 0-.719-.1351-.98-.4053s-.392-.6103-.392-1.0203c0-.2422.051-.4565.154-.6429.112-.1863.247-.3401.406-.4612.168-.1304.345-.2283.532-.2935s.359-.0978.518-.0978c.383 0 .691.0652.924.1956.243.1305.443.4193.602.8666.009.0186.014.0465.014.0838.009.028.014.0466.014.0559 0 .0373-.009.0746-.028.1118-.009.028-.014.0606-.014.0979 0 .0093.009.0419.028.0978.103-.0559.187-.1584.252-.3075.075-.1491.163-.2842.266-.4053.019 0 .051.014.098.0419.047.028.093.0653.14.1119.056.0372.103.0792.14.1257.037.0466.056.0886.056.1258zm-1.302.573c0-.0838-.019-.1863-.056-.3074-.028-.1305-.084-.2516-.168-.3634-.075-.1211-.177-.219-.308-.2935-.131-.0839-.294-.1258-.49-.1258-.14 0-.28.0233-.42.0699s-.266.1071-.378.1817c-.112.0745-.205.1677-.28.2795-.065.1025-.098.2143-.098.3354 0 .2702.084.4519.252.5451.168.0839.373.1258.616.1258.121 0 .257-.014.406-.042.159-.0279.303-.0605.434-.0978.14-.0466.257-.0932.35-.1397.093-.0559.14-.1119.14-.1678z" fill="#000"/><path d="m116.656 52.0998c0 .1025-.042.2563-.126.4612-.074.1957-.168.4612-.28.7967-.102.3261-.21.7314-.322 1.2159-.112.4752-.196 1.0389-.252 1.6911-.009.1211-.018.219-.028.2935 0 .0745-.004.1398-.014.1957v.1537.1817c0 .0652.005.1118.014.1398.019.0372.028.0791.028.1257 0 .2143-.112.3215-.336.3215-.102 0-.2-.0513-.294-.1537-.084-.1025-.121-.2143-.112-.3355.01-.1211.028-.3447.056-.6708.038-.3261.08-.6849.126-1.0762.056-.3913.117-.778.182-1.16.066-.382.136-.6895.21-.9224-.102.0559-.219.1118-.35.1677-.13.0559-.27.1071-.42.1537-.149.0373-.294.0699-.434.0979-.14.0279-.266.0419-.378.0419-.392 0-.718-.1351-.98-.4053-.261-.2702-.392-.6103-.392-1.0203 0-.2422.052-.4565.154-.6429.112-.1863.248-.3401.406-.4612.168-.1304.346-.2283.532-.2935.187-.0652.36-.0978.518-.0978.383 0 .691.0652.924.1956.243.1305.444.4193.602.8666.01.0186.014.0465.014.0838.01.028.014.0466.014.0559 0 .0373-.009.0746-.028.1118-.009.028-.014.0606-.014.0979 0 .0093.01.0419.028.0978.103-.0559.187-.1584.252-.3075.075-.1491.164-.2842.266-.4053.019 0 .052.014.098.0419.047.028.094.0653.14.1119.056.0372.103.0792.14.1257.038.0466.056.0886.056.1258zm-1.302.573c0-.0838-.018-.1863-.056-.3074-.028-.1305-.084-.2516-.168-.3634-.074-.1211-.177-.219-.308-.2935-.13-.0839-.294-.1258-.49-.1258-.14 0-.28.0233-.42.0699s-.266.1071-.378.1817c-.112.0745-.205.1677-.28.2795-.065.1025-.098.2143-.098.3354 0 .2702.084.4519.252.5451.168.0839.374.1258.616.1258.122 0 .257-.014.406-.042.159-.0279.304-.0605.434-.0978.14-.0466.257-.0932.35-.1397.094-.0559.14-.1119.14-.1678z" fill="#000"/><path d="m119.014 55.9433c0 .0559-.028.1118-.084.1677-.056.0466-.121.0931-.196.1397-.065.0373-.131.0699-.196.0979-.065.0186-.103.0279-.112.0279-.084 0-.149-.0186-.196-.0559-.037-.0466-.07-.0932-.098-.1398-.019-.0559-.033-.1071-.042-.1537 0-.0466 0-.0792 0-.0978 0-.0373.009-.0839.028-.1398.019-.0652.047-.1258.084-.1817s.079-.1025.126-.1397c.056-.0466.117-.0699.182-.0699.121 0 .233.0512.336.1537.112.1025.168.233.168.3914z" fill="#000"/><path d="m124.483 52.0998c0 .1025-.042.2563-.126.4612-.074.1957-.168.4612-.28.7967-.102.3261-.21.7314-.322 1.2159-.112.4752-.196 1.0389-.252 1.6911-.009.1211-.018.219-.028.2935 0 .0745-.004.1398-.014.1957v.1537.1817c0 .0652.005.1118.014.1398.019.0372.028.0791.028.1257 0 .2143-.112.3215-.336.3215-.102 0-.2-.0513-.294-.1537-.084-.1025-.121-.2143-.112-.3355.01-.1211.028-.3447.056-.6708.038-.3261.08-.6849.126-1.0762.056-.3913.117-.778.182-1.16.066-.382.136-.6895.21-.9224-.102.0559-.219.1118-.35.1677-.13.0559-.27.1071-.42.1537-.149.0373-.294.0699-.434.0979-.14.0279-.266.0419-.378.0419-.392 0-.718-.1351-.98-.4053-.261-.2702-.392-.6103-.392-1.0203 0-.2422.052-.4565.154-.6429.112-.1863.248-.3401.406-.4612.168-.1304.346-.2283.532-.2935.187-.0652.36-.0978.518-.0978.383 0 .691.0652.924.1956.243.1305.444.4193.602.8666.01.0186.014.0465.014.0838.01.028.014.0466.014.0559 0 .0373-.009.0746-.028.1118-.009.028-.014.0606-.014.0979 0 .0093.01.0419.028.0978.103-.0559.187-.1584.252-.3075.075-.1491.164-.2842.266-.4053.019 0 .052.014.098.0419.047.028.094.0653.14.1119.056.0372.103.0792.14.1257.038.0466.056.0886.056.1258zm-1.302.573c0-.0838-.018-.1863-.056-.3074-.028-.1305-.084-.2516-.168-.3634-.074-.1211-.177-.219-.308-.2935-.13-.0839-.294-.1258-.49-.1258-.14 0-.28.0233-.42.0699s-.266.1071-.378.1817c-.112.0745-.205.1677-.28.2795-.065.1025-.098.2143-.098.3354 0 .2702.084.4519.252.5451.168.0839.374.1258.616.1258.122 0 .257-.014.406-.042.159-.0279.304-.0605.434-.0978.14-.0466.257-.0932.35-.1397.094-.0559.14-.1119.14-.1678z" fill="#000"/><path d="m130.229 52.0998c0 .1025-.042.2563-.126.4612-.075.1957-.168.4612-.28.7967-.103.3261-.21.7314-.322 1.2159-.112.4752-.196 1.0389-.252 1.6911-.01.1211-.019.219-.028.2935 0 .0745-.005.1398-.014.1957v.1537.1817c0 .0652.004.1118.014.1398.018.0372.028.0791.028.1257 0 .2143-.112.3215-.336.3215-.103 0-.201-.0513-.294-.1537-.084-.1025-.122-.2143-.112-.3355.009-.1211.028-.3447.056-.6708.037-.3261.079-.6849.126-1.0762.056-.3913.116-.778.182-1.16.065-.382.135-.6895.21-.9224-.103.0559-.22.1118-.35.1677-.131.0559-.271.1071-.42.1537-.15.0373-.294.0699-.434.0979-.14.0279-.266.0419-.378.0419-.392 0-.719-.1351-.98-.4053-.262-.2702-.392-.6103-.392-1.0203 0-.2422.051-.4565.154-.6429.112-.1863.247-.3401.406-.4612.168-.1304.345-.2283.532-.2935.186-.0652.359-.0978.518-.0978.382 0 .69.0652.924.1956.242.1305.443.4193.602.8666.009.0186.014.0465.014.0838.009.028.014.0466.014.0559 0 .0373-.01.0746-.028.1118-.01.028-.014.0606-.014.0979 0 .0093.009.0419.028.0978.102-.0559.186-.1584.252-.3075.074-.1491.163-.2842.266-.4053.018 0 .051.014.098.0419.046.028.093.0653.14.1119.056.0372.102.0792.14.1257.037.0466.056.0886.056.1258zm-1.302.573c0-.0838-.019-.1863-.056-.3074-.028-.1305-.084-.2516-.168-.3634-.075-.1211-.178-.219-.308-.2935-.131-.0839-.294-.1258-.49-.1258-.14 0-.28.0233-.42.0699s-.266.1071-.378.1817c-.112.0745-.206.1677-.28.2795-.066.1025-.098.2143-.098.3354 0 .2702.084.4519.252.5451.168.0839.373.1258.616.1258.121 0 .256-.014.406-.042.158-.0279.303-.0605.434-.0978.14-.0466.256-.0932.35-.1397.093-.0559.14-.1119.14-.1678z" fill="#000"/><path d="m139.166 54.0425c0 .1398-.032.3354-.098.587-.056.2516-.144.5031-.266.7547-.112.2423-.261.4566-.448.6429-.177.177-.387.2656-.63.2656-.112 0-.233-.0094-.364-.028-.121-.028-.238-.0699-.35-.1258-.102-.0559-.186-.1304-.252-.2236-.065-.1025-.098-.2283-.098-.3774 0-.0838.024-.1863.07-.3074.047-.1212.108-.233.182-.3355.075-.1118.159-.2049.252-.2795.103-.0745.206-.1118.308-.1118.056 0 .122.028.196.0839.075.0466.112.0978.112.1537 0 .0652-.023.1304-.07.1957-.037.0652-.079.1304-.126.1956-.046.0653-.093.1305-.14.1957-.037.0652-.056.1351-.056.2096 0 .0466.014.0839.042.1119.038.0279.066.0419.084.0419.14 0 .271-.0559.392-.1677.122-.1118.229-.2423.322-.3914.103-.149.182-.2981.238-.4472.056-.1584.084-.2795.084-.3634 0-.0466-.028-.0699-.084-.0699-.028 0-.079.0187-.154.0559-.065.0373-.13.056-.196.056-.084 0-.149-.0373-.196-.1119-.046-.0745-.07-.1257-.07-.1537 0-.0373.019-.0839.056-.1398.038-.0559.084-.1118.14-.1677s.112-.1025.168-.1397c.056-.0373.108-.0559.154-.0559.056 0 .131.0046.224.0139.094.0094.182.0327.266.0699.084.028.154.0746.21.1398.066.0559.098.1304.098.2236zm-.07-6.0237c-.298.4845-.625.983-.98 1.4954-.354.5125-.676 1.0343-.966 1.5654-.046.0838-.14.2562-.28.5171s-.298.5637-.476.9084c-.168.3355-.35.6895-.546 1.0622-.186.3727-.364.7221-.532 1.0482-.158.3168-.289.587-.392.8106-.102.2143-.154.3355-.154.3634l-.364.7547c-.093.1864-.177.3634-.252.5311-.065.1677-.098.2562-.098.2656-.065.1584-.121.3028-.168.4332-.046.1118-.088.2236-.126.3354-.028.1119-.042.1911-.042.2376 0 .028.014.0839.042.1678.038.0931.056.1537.056.1816 0 .1025-.046.1957-.14.2796-.093.0931-.163.1397-.21.1397-.177 0-.303-.0652-.378-.1956-.065-.1305-.098-.2609-.098-.3914 0-.1956.075-.4985.224-.9084.159-.41.355-.8712.588-1.3837.234-.5124.49-1.0435.77-1.5932.28-.5591.546-1.0855.798-1.5793.262-.5032.49-.9411.686-1.3138.196-.382.327-.6475.392-.7966 0-.0093-.056.0046-.168.0419-.112.028-.247.0652-.406.1118-.149.0373-.308.0746-.476.1118-.158.0373-.284.0559-.378.0559-.158 0-.303-.0139-.434-.0419-.13-.0373-.256-.0745-.378-.1118-.121-.0466-.242-.0839-.364-.1118-.121-.0373-.242-.0606-.364-.0699-.018 0-.056.0326-.112.0978-.046.0653-.107.1398-.182.2237-.074.0745-.163.1444-.266.2096-.102.0652-.214.0978-.336.0978-.242 0-.42-.0559-.532-.1677-.102-.1118-.154-.2329-.154-.3634 0-.149.038-.3074.112-.4751.084-.1771.187-.3355.308-.4752.131-.1491.271-.2702.42-.3634.159-.0932.318-.1398.476-.1398.084 0 .187.0373.308.1118.131.0746.196.1491.196.2237 0 .0093-.023.0465-.07.1118-.037.0652-.084.1071-.14.1257.01 0 .066.028.168.0839.112.0466.243.1025.392.1677.159.0559.318.1118.476.1677.168.0466.318.0699.448.0699.411 0 .77-.0745 1.078-.2236s.579-.3354.812-.5591c.234-.2329.434-.4798.602-.7407.168-.2702.318-.5171.448-.7407.131-.233.248-.424.35-.573.112-.1491.224-.2237.336-.2237.103 0 .206.0373.308.1118.112.0746.168.1817.168.3215zm-6.034 2.2641c-.102 0-.214.0513-.336.1538-.112.1025-.168.2329-.168.3913 0 .0373.019.0559.056.0559.028 0 .066-.028.112-.0839.056-.0652.108-.1351.154-.2096.056-.0745.098-.1444.126-.2096.038-.0653.056-.0979.056-.0979z" fill="#000"/></mask><path d="m.5.616455h320v199.659h-320z" fill="#fff"/><path d="m145.578 42.2898c-15.219-.1148-44.59-.2689-48.9449-.0365-.273.0146-.4382.2546-.3968.5244.8813 5.7496 2.7139 17.1814 3.562 20.5679 1.0907 4.3558.3637 30.1275-3.6362 45.7354-3.9998 15.608 0 13.794-9.8171 14.157-6.5263.241-10.157 1.836-11.6847 2.993-.3183.241-.1549.674.2435.703 15.3897 1.105 46.6002 3.122 55.4372 2.837 11.271-.363 15.635-17.786 18.907-36.2979 2.587-14.6362-1.005-39.6954-3.195-50.7916-.046-.2321-.238-.3899-.475-.3917z" fill="#f6f1ff"/><path clip-rule="evenodd" d="m144.789 41.5388c.259-.0939.546.0401.64.2992 8.925 24.5862 5.98 57.8391-5.313 83.008-.113.251-.409.364-.661.251s-.364-.408-.252-.66c11.208-24.9781 14.106-57.9602 5.286-82.2588-.094-.2592.04-.5455.3-.6394z" fill="#000" fill-rule="evenodd"/><path clip-rule="evenodd" d="m94.4819 122.78c.0716.266-.0866.54-.3534.611-4.7225 1.265-8.7203 1.232-11.9421 1.205-.4903-.004-.9627-.008-1.4169-.007-3.4807.007-5.7338.301-7.1898 2.562-2.4731 3.84-3.7928 7.57-3.6924 10.833.0994 3.231 1.591 6.056 4.8671 8.146.2327.148.3008.457.1522.689-.1487.232-.4579.3-.6906.152-3.5442-2.261-5.2183-5.384-5.3282-8.957-.109-3.541 1.3185-7.471 3.8507-11.403 1.776-2.758 4.5795-3.014 8.0291-3.02.4644-.001.9436.003 1.4378.007 3.2214.025 7.0817.056 11.664-1.171.2667-.072.541.086.6125.353z" fill="#000" fill-rule="evenodd"/><path clip-rule="evenodd" d="m104.435 117.766c.012-.276.246-.489.521-.477 3.407.151 6.802.386 10.192.621 5.646.39 11.276.78 16.918.78.276 0 .5.223.5.499 0 .275-.224.499-.5.499-5.668 0-11.37-.394-17.046-.786-3.382-.234-6.756-.467-10.108-.616-.276-.012-.49-.245-.477-.52z" fill="#000" fill-rule="evenodd"/><path clip-rule="evenodd" d="m105.788 106.69c.016-.275.252-.486.527-.471 2.594.144 5.186.307 7.777.47 7.383.466 14.758.931 22.135.931.276 0 .5.223.5.499 0 .275-.224.499-.5.499-7.412 0-14.833-.468-22.225-.934-2.585-.163-5.166-.325-7.742-.468-.276-.015-.487-.251-.472-.526z" fill="#000" fill-rule="evenodd"/><path clip-rule="evenodd" d="m105.569 95.6925c.021-.2749.262-.4801.537-.4584 12.01.9449 23.957 1.8664 35.981 1.8664.276 0 .5.2235.5.4992 0 .2756-.224.4991-.5.4991-12.069 0-24.055-.925-36.059-1.8695-.276-.0217-.481-.262-.459-.5368z" fill="#000" fill-rule="evenodd"/><path clip-rule="evenodd" d="m165.014 101.727c1.724.532 3.238 1.221 4.187 2.091 1.721 1.577 2.315 3.508 2.08 5.476-.232 1.944-1.267 3.894-2.742 5.588-2.935 3.372-7.781 5.911-12.121 5.362-.947-.12-1.873-.309-2.766-.559-.06.029-.127.045-.197.047-1.503.045-3.189-.407-4.635-1.219-1.444-.811-2.703-2.012-3.28-3.511-.069-.181-.132-.371-.19-.57-.097-.128-.19-.257-.28-.387-1.087-1.579-1.643-3.355-1.414-5.165.218-1.715 1.132-3.4 2.847-4.93.113-.22.233-.434.359-.64.687-1.124 1.588-2.045 2.726-2.516.887-.367 2.341-.546 4.015-.581 1.695-.036 3.681.076 5.673.329 1.991.252 4 .648 5.738 1.185zm-17.704 2.844c.047-.04.094-.08.141-.119.142-.119.201-.298.172-.467.031-.053.061-.104.092-.155.618-1.009 1.374-1.749 2.257-2.114.7-.29 1.992-.471 3.652-.505 1.64-.034 3.576.074 5.526.321 1.95.248 3.9.633 5.569 1.148 1.683.52 3.023 1.156 3.806 1.873 1.475 1.351 1.962 2.96 1.763 4.623-.201 1.686-1.115 3.456-2.504 5.051-2.792 3.207-7.332 5.521-11.24 5.026-4.374-.553-8.204-2.647-10.282-5.276-.449-1.72-.447-4.217.08-6.564.228-1.017.552-1.989.968-2.842zm-1.813 2.082c-.479.785-.75 1.575-.849 2.352-.111.88-.004 1.766.297 2.633-.05-1.422.091-2.974.421-4.443.041-.182.084-.362.131-.542z" fill="#000" fill-rule="evenodd"/><path d="m139.017 158.542c-1.424-3.002 11.371-28.595 7.754-32.387-16.598-7.641-25.605-19.566-25.022-20.812 2.117-1.522 16.36 9.378 28.053 12.697l11.026 23.469c-7.489-1.068-18.329 18.928-21.811 17.033z" fill="#fff"/><path clip-rule="evenodd" d="m132.428 109.44c5.298 2.956 11.73 6.479 17.51 8.12.266.075.42.351.345.616-.076.265-.352.419-.618.344-5.913-1.678-12.448-5.264-17.724-8.208-.226-.126-.45-.251-.671-.374-2.373-1.326-4.46-2.491-6.103-3.269-.9-.426-1.641-.724-2.21-.871-.284-.073-.504-.103-.666-.101-.007 0-.013 0-.019.001.033.097.083.219.154.366.206.424.556.996 1.058 1.69 1.001 1.383 2.57 3.207 4.68 5.237 4.219 4.059 10.575 8.917 18.817 12.711l.087.04.066.069c.591.62.785 1.605.784 2.702-.001 1.122-.207 2.485-.545 3.989-.676 3.012-1.901 6.686-3.185 10.309-.44 1.24-.886 2.474-1.32 3.675-.84 2.322-1.636 4.523-2.256 6.417-.47 1.436-.832 2.675-1.033 3.642-.1.484-.157.885-.17 1.2-.008.182 0 .317.015.415.209.034.517-.025.977-.284.585-.331 1.286-.914 2.089-1.702 1.208-1.185 2.579-2.759 4.059-4.458.487-.56.986-1.133 1.496-1.71 2.04-2.315 4.232-4.685 6.393-6.409 2.138-1.706 4.367-2.881 6.461-2.582.273.039.463.292.424.565s-.293.462-.566.423c-1.65-.235-3.585.69-5.695 2.373-2.086 1.665-4.226 3.975-6.267 6.29-.496.562-.986 1.125-1.468 1.679-1.488 1.708-2.897 3.326-4.136 4.541-.819.803-1.595 1.462-2.298 1.859-.686.386-1.444.6-2.115.235l-.143-.078-.07-.147c-.142-.299-.171-.673-.155-1.051.016-.391.084-.851.19-1.362.212-1.022.588-2.304 1.061-3.749.625-1.908 1.43-4.135 2.274-6.467.433-1.198.876-2.423 1.31-3.648 1.284-3.623 2.491-7.247 3.152-10.194.331-1.475.52-2.757.521-3.772.001-.975-.172-1.603-.452-1.947-8.31-3.841-14.723-8.745-18.996-12.855-2.143-2.062-3.754-3.931-4.797-5.372-.52-.719-.907-1.343-1.147-1.839-.12-.247-.211-.479-.261-.684-.044-.183-.081-.445.031-.683l.055-.118.106-.076c.245-.176.538-.235.821-.239.284-.004.599.048.93.133.662.171 1.471.501 2.387.935 1.676.794 3.793 1.976 6.155 3.295.224.125.45.251.678.378z" fill="#000" fill-rule="evenodd"/><path clip-rule="evenodd" d="m167.474 115.505c.144-.235.452-.309.688-.165 6.117 3.742 12.895 7.022 17.969 9.477.421.204.831.402 1.227.594 2.57 1.247 4.619 2.259 5.722 2.964.278.177.514.346.689.505.088.08.172.168.239.264.065.091.139.224.154.39.018.19-.047.371-.175.507-.113.118-.251.181-.36.217-.218.071-.5.093-.81.093-1.082 0-2.874-.125-4.942-.278-.267-.02-.539-.041-.816-.061-1.872-.14-3.93-.294-5.913-.401-2.278-.123-4.436-.183-6.083-.092-.825.045-1.5.128-1.988.251-.244.061-.422.129-.544.195-.078.042-.118.077-.138.097 0 .002.001.004.001.006.003.05.017.131.052.249.071.236.208.557.414.959.411.801 1.058 1.856 1.87 3.088 1.58 2.398 3.748 5.413 5.915 8.425l.17.237c2.218 3.084 4.419 6.151 5.947 8.506.762 1.175 1.369 2.192 1.727 2.955.176.376.309.725.356 1.018.024.146.034.317-.012.485-.05.186-.168.366-.376.47-.815.407-1.722.409-2.662.164-.935-.243-1.94-.739-2.996-1.384-1.609-.983-3.413-2.362-5.347-3.84-.596-.455-1.205-.92-1.824-1.386-5.32-4.003-11.47-8.103-17.908-7.72-.275.016-.512-.194-.529-.469-.016-.275.194-.512.47-.528 6.855-.407 13.286 3.945 18.569 7.92.639.48 1.26.955 1.863 1.416 1.924 1.469 3.668 2.802 5.228 3.755 1.022.624 1.93 1.063 2.726 1.27.715.186 1.307.178 1.806-.021-.03-.154-.114-.394-.27-.727-.327-.698-.902-1.667-1.66-2.835-1.512-2.331-3.698-5.376-5.921-8.467l-.178-.248c-2.16-3.003-4.338-6.032-5.93-8.447-.816-1.24-1.488-2.331-1.924-3.182-.217-.424-.385-.806-.482-1.127-.048-.161-.083-.323-.093-.476-.008-.149.004-.334.095-.507.128-.244.342-.413.561-.532.223-.121.489-.214.779-.287.58-.146 1.328-.233 2.178-.28 1.704-.094 3.908-.031 6.192.092 1.994.108 4.064.263 5.935.402.276.021.547.041.814.061 2.039.151 3.757.271 4.8.276-.063-.043-.132-.089-.207-.137-1.042-.666-3.027-1.649-5.621-2.907-.397-.193-.808-.391-1.231-.596-5.068-2.452-11.889-5.752-18.051-9.522-.235-.144-.309-.451-.165-.686zm25.72 14.218s-.001-.001-.002-.003c.001.002.002.003.002.003zm.129-.417c.002-.001.003-.001.003-.001s-.001 0-.003.001z" fill="#000" fill-rule="evenodd"/><path clip-rule="evenodd" d="m179.768 104.529c.026-.107.069-.202.121-.29.019-.03.038-.061.059-.091.277-.184.623-.356.968-.464.263-.081.493-.116.669-.106s.244.059.271.09.008.009.019.035c.012.025.026.062.038.113.026.103.043.24.046.409.001.02.001.041.001.063-.681.133-1.218.206-1.633.233-.231.015-.415.016-.559.008zm-.519-1.111c-.144.105-.274.215-.385.326-.191.192-.415.479-.433.821-.01.195.05.389.186.55.052.062.112.114.176.158.032.151.077.307.137.47.108.291.421.863.809 1.332.196.236.434.476.703.638.268.162.635.284 1.025.142.217-.078.389-.227.52-.378.134-.154.25-.338.35-.532.198-.388.356-.862.463-1.335.049-.217.088-.439.116-.657.066-.106.093-.237.065-.369-.006-.029-.015-.057-.026-.084.005-.101.006-.2.004-.296-.004-.218-.026-.433-.075-.629-.048-.191-.129-.397-.276-.565-.264-.301-.631-.41-.966-.429-.184-.01-.375.005-.564.038-.018-.042-.043-.082-.073-.118-.177-.212-.492-.241-.704-.064-.032.026-.064.053-.096.079-.332.275-.684.567-.956.902zm2.59 1.908c-.005.022-.01.043-.014.064-.094.415-.228.805-.379 1.1-.075.147-.148.258-.214.333-.067.077-.105.094-.106.094-.001 0-.001 0-.001 0-.002.001-.009.004-.031 0-.026-.005-.071-.02-.135-.059-.132-.08-.288-.224-.449-.419-.262-.315-.476-.684-.583-.907.146.001.301-.004.466-.015.398-.026.876-.088 1.446-.191z" fill="#000" fill-rule="evenodd"/><path clip-rule="evenodd" d="m187.557 96.4833c.972-.5123 2.127-.8304 3.164-.5715.61.1523 1.076.4314 1.364.8396.29.4111.353.8865.285 1.3353-.131.8686-.756 1.7395-1.456 2.3043-.97.782-1.901.949-2.817.717-.261-.066-.517-.164-.769-.283-.046.002-.092.004-.139.006-.152.006-.311.013-.481.018-.376.009-.795.005-1.14-.08-.342-.085-.785-.301-.874-.8289-.074-.4381.143-.9182.475-1.4104.519-.7673 1.407-1.5298 2.388-2.0464zm-.009 3.3354c-.405-.2161-.833-.5093-1.312-.8469-.035-.0248-.072-.0444-.111-.059.428-.5562 1.119-1.1356 1.898-1.5466.871-.4586 1.759-.6597 2.456-.4859.453.1131.678.2889.789.4459.108.1541.152.3542.113.6121-.082.5446-.52 1.2113-1.095 1.6757-.745.6-1.356.675-1.944.526-.02-.005-.04-.01-.06-.016-.075-.1814-.254-.3095-.463-.3095-.086 0-.177.0016-.271.0042z" fill="#000" fill-rule="evenodd"/><path clip-rule="evenodd" d="m193.206 88.9183c1.675-1.6401 3.926-1.7659 5.946-.9354.919.3778 1.632 1.0924 1.949 1.9608.321.8808.221 1.8891-.435 2.7897-.509.6985-1.246 1.0493-2.042 1.1873-.788.1365-1.659.071-2.502-.0806-.449-.0807-.901-.1884-1.341-.3087-.013.1189-.068.2336-.165.3193-.206.1831-.522.1646-.706-.0415-.119-.1343-.247-.2733-.375-.4124-.109-.1182-.218-.2365-.322-.3519-.282-.0957-.546-.1886-.785-.2729-.241-.0845-.457-.1604-.641-.2218-.262-.0872-.404-.3699-.316-.6314.087-.2615.37-.4029.632-.3157.053.0176.107.036.163.0551-.154-.4111-.186-.854-.03-1.3293.154-.468.479-.93.97-1.4106zm.58 3.2655c.777.2584 1.648.5183 2.513.6738.788.1417 1.529.1878 2.154.0795.615-.1068 1.088-.3571 1.404-.7908.46-.632.511-1.2922.304-1.8613-.212-.5816-.707-1.0984-1.389-1.379-1.748-.7183-3.544-.5687-4.866.725-.428.4194-.634.7496-.72 1.0096-.08.2436-.065.4565.022.6815.094.2421.273.5017.535.8117.015.0167.029.0334.043.05z" fill="#000" fill-rule="evenodd"/><path clip-rule="evenodd" d="m190.382 23.6843c9.726-3.0773 20.712-3.6585 30.158-2.3872 2.435.3277 5.357 1.3382 8.06 2.6553 2.235 1.0888 4.352 2.4034 5.944 3.7482 4.628-1.2027 10.206-1.9874 14.394-1.9874 7.288 0 12.64 2.3285 17.409 4.801.766.397 1.514.7961 2.252 1.1893 3.877 2.0681 7.447 3.9717 11.613 4.5388.774.1054 1.671.2158 2.659.3374 3.468.4267 8.061.992 12.437 1.9674 2.816.6275 5.565 1.4293 7.889 2.4841 2.316 1.0513 4.262 2.3766 5.407 4.0801 2.738 4.0738 2.919 9.3903 1.222 13.6795-1.699 4.2938-5.329 7.6581-10.284 7.6581h-8.064c-.055 0-.08.009-.088.0123-.005.0023-.008.004-.013.0101-.016.0201-.058.0945-.072.2831-.029.3806.072.9596.263 1.6706.181.6722.426 1.4046.661 2.109l.026.0762c.239.7149.47 1.4118.59 1.9428.502 2.2172-.186 4.3983-1.506 6.4244-1.318 2.0244-3.295 3.9415-5.472 5.6686-4.354 3.4554-9.607 6.2289-12.287 7.634-4.007 2.1005-9.465 2.8106-14.723 2.2251-5.257-.5853-10.404-2.4755-13.761-5.6738-.064-.0614-.129-.1244-.194-.189-.694.405-1.441.8017-2.218 1.1838-2.509 1.2337-5.4 2.3488-8.011 3.1275-2.575.7681-4.95 1.2317-6.418 1.1146-11.826-.0045-18.271-3.8755-21.019-7.6464-.515-.7065-.904-1.4164-1.171-2.1-1.419.1231-3.074.1491-4.877.0651-7.681-.358-18.239-2.7255-24.689-8.3332-2.135-1.8564-3.255-3.8941-3.513-5.9958-.257-2.0958.351-4.189 1.546-6.1489 1.158-1.8979 2.88-3.6952 4.961-5.2905-2.371-.8449-4.903-1.9816-7.095-3.4424-2.292-1.5271-4.257-3.4381-5.247-5.7846-1.001-2.3701-.981-5.1215.584-8.2469 4.404-8.792 12.923-14.3838 22.647-17.4603zm-9.743 35.3249c2.135.6948 4.061 1.144 5.38 1.3731 3.229.5606 5.282-1.5206 5.64-3.478.178-.9727-.056-2.0109-.908-2.5992-.841-.5804-2.102-.5925-3.69.0486-2.363.9546-4.61 2.1622-6.589 3.5478-2.486-.8412-5.207-2.0149-7.519-3.5557-2.207-1.4709-3.996-3.2464-4.881-5.342-.875-2.072-.892-4.5181.558-7.4127 4.241-8.4684 12.485-13.9275 22.054-16.9552 9.567-3.0271 20.403-3.6038 29.723-2.3495 2.294.3088 5.11 1.2744 7.755 2.5631 1.939.9449 3.759 2.0508 5.196 3.1746-.71.2032-1.39.4162-2.031.6375-1.255.4332-2.374.9028-3.278 1.4-.894.4915-1.625 1.0345-2.053 1.634-.217.3053-.368.6417-.407 1.0044-.039.3682.041.7291.232 1.069.367.6558 1.136 1.2248 2.244 1.7375l.1.0463h.11c2.42 0 4.289-.1886 5.682-.5323 1.381-.3408 2.361-.8507 2.916-1.5502.582-.7347.632-1.5939.331-2.4435-.292-.8259-.919-1.6674-1.734-2.48-.014-.0135-.027-.027-.041-.0405 4.414-1.0901 9.595-1.7948 13.509-1.7948 7.05 0 12.233 2.2438 16.948 4.6886.742.3847 1.475.776 2.203 1.1649 3.877 2.0698 7.628 4.073 11.987 4.6664.794.108 1.705.2202 2.704.3432 3.465.4266 7.987.9833 12.311 1.9468 2.781.62 5.456 1.4037 7.692 2.4186 2.244 1.0185 3.995 2.247 4.991 3.7276 2.527 3.7604 2.718 8.724 1.122 12.7564-1.594 4.0278-4.92 7.0266-9.354 7.0266h-8.064c-.344 0-.657.1218-.876.39-.2.2452-.273.5543-.294.8384-.043.5649.101 1.2882.294 2.005.189.7017.442 1.4594.675 2.1548l.029.0874c.245.7318.457 1.3753.564 1.8467.421 1.862-.135 3.7658-1.369 5.6604-1.235 1.8964-3.119 3.7358-5.256 5.4312-4.271 3.3896-9.445 6.1244-12.13 7.5316-3.782 1.9828-9.026 2.6871-14.147 2.1169-5.124-.5704-10.035-2.4058-13.181-5.4039-.002-.0012-.003-.0025-.004-.0038 1.135-.7254 2.076-1.468 2.696-2.1936.559-.6539.938-1.3889.829-2.142-.114-.7774-.714-1.3703-1.63-1.8071-1.229-.586-2.249-.986-3.086-1.2259-.831-.238-1.516-.3285-2.06-.2628-.561.0675-1.013.309-1.269.7535-.241.4183-.251.9214-.167 1.4007.17.9582.775 2.1234 1.506 3.2131.482.7169 1.035 1.4259 1.595 2.0549-.608.3479-1.264.6944-1.955 1.0345-2.456 1.2077-5.295 2.3028-7.855 3.0665-2.583.7705-4.809 1.1807-6.07 1.0746l-.021-.0018h-.021c-11.636 0-17.728-3.8026-20.23-7.2354-.41-.5618-.72-1.1089-.945-1.6251 1.145-.1521 2.11-.3807 2.815-.6869.424-.1843.795-.4136 1.047-.7064.267-.3091.403-.6951.314-1.1218-.082-.3969-.344-.7527-.696-1.0707-.357-.3229-.849-.6451-1.472-.9688l-.036-.0184-.038-.0126c-.802-.2652-1.547-.2484-2.153.0715-.608.321-.993.9031-1.159 1.5976-.144.5991-.133 1.2984.04 2.0523-1.319.1031-2.853.1225-4.528.0445-7.592-.3539-17.879-2.6989-24.078-8.0888-1.987-1.728-2.955-3.5536-3.177-5.3644-.223-1.8169.296-3.6858 1.407-5.5083 1.181-1.935 3.012-3.7883 5.253-5.419zm26.127 24.2363c1.191-.1455 2.125-.3668 2.75-.6384.358-.1554.575-.3104.689-.4422.099-.1154.108-.1942.092-.268-.021-.1035-.112-.2839-.388-.5334-.265-.2395-.664-.5096-1.226-.8041-.601-.1907-1.038-.138-1.334.0185-.301.1586-.54.4674-.655.9476-.109.4566-.098 1.0458.072 1.72zm38.305 4.1282c1.156-.7234 2.076-1.4418 2.647-2.1099.495-.5798.647-1.0271.6-1.3504-.044-.299-.288-.6767-1.071-1.05-1.199-.5716-2.165-.9476-2.931-1.1672-.773-.2215-1.31-.2739-1.665-.2312-.338.0408-.463.1589-.521.2601-.073.1274-.115.356-.049.7294.132.747.64 1.7703 1.352 2.8309.494.7358 1.068 1.4618 1.638 2.0883zm-10.785-58.5719c-.929.2519-1.814.5208-2.632.8033-1.223.422-2.285.8702-3.123 1.331-.849.4664-1.423.9216-1.72 1.3385-.145.2028-.211.3791-.227.5309-.016.1461.012.3014.11.4766.203.3625.705.8025 1.692 1.2722 2.322-.0057 4.067-.191 5.331-.5029 1.296-.3198 2.02-.7564 2.372-1.2007.324-.4092.385-.8911.172-1.4913-.221-.6238-.73-1.3405-1.498-2.1061-.15-.15-.309-.3006-.477-.4515zm-52.61 29.488c1.748-1.1563 3.701-2.1789 5.76-3.0106 1.457-.5882 2.311-.453 2.746-.1529.423.2923.627.8678.493 1.5988-.265 1.4498-1.828 3.1349-4.484 2.6737-1.136-.1972-2.73-.5621-4.515-1.109z" fill="#000" fill-rule="evenodd"/><path clip-rule="evenodd" d="m25.9441 52.6339c7.1208-4.3636 15.6885-6.5956 23.4327-5.7253 12.1782 1.3684 22.5787 6.6561 28.2925 14.4024 5.7316 7.7704 6.6928 17.9449.1215 28.9085.003.0224.0118.0654.0376.1359.062.1694.1895.4042.3929.7049.4035.5968 1.0423 1.3619 1.8328 2.234 1.2304 1.3576 2.7874 2.9308 4.3072 4.4665.43.4344.857.8658 1.2728 1.2885.9393.9547 1.8209 1.8647 2.5418 2.6567.7136.784 1.2951 1.479 1.6135 1.998.1467.239.2964.531.3019.812.0032.164-.0429.366-.2083.526-.1544.149-.3452.194-.4908.205-.277.021-.6174-.064-.982-.192-.3835-.135-.8629-.344-1.4461-.63-2.3757-1.165-4.7854-2.263-7.1965-3.362-3.9662-1.8073-7.9365-3.6165-11.7668-5.7289-10.314 3.0478-25.0333 4.9999-37.0352 3.0265-6.893-1.1332-12.9691-3.574-16.7722-7.9292-3.8274-4.383-5.27469-10.6123-3.0924-19.1262 1.9936-7.778 7.7224-14.3078 14.8431-18.6713zm42.1737 41.6234c-.7195-.4017-1.4344-.8149-2.1441-1.242-.2365-.1423-.5438-.0663-.6864.1698-.1425.2361-.0663.5429.1702.6852.4385.2639.8795.5228 1.3225.7771-10.135 2.8552-24.1828 4.6136-35.6519 2.7282-6.7908-1.1164-12.598-3.4972-16.1809-7.6002-3.5586-4.0751-5.00028-9.9406-2.8774-18.2227 1.913-7.4635 7.4354-13.8017 14.3974-18.068 6.9619-4.2662 15.3087-6.4257 22.7978-5.5841 11.9819 1.3464 22.0931 6.5378 27.5991 14.0023 5.4808 7.4305 6.4524 17.1827.0438 27.8454-.1956.3254-.1115.6965-.0187.9498.1029.2813.2824.5941.5032.9207.4448.6578 1.1229 1.4657 1.9201 2.3453 1.2467 1.3756 2.8257 2.9709 4.3479 4.5089.4274.4318.8503.8591 1.2601 1.2758.9382.9542 1.8083 1.8522 2.5154 2.6292.6817.748 1.1887 1.359 1.4628 1.787-.0474-.015-.0993-.032-.1559-.052-.3314-.116-.7716-.307-1.3378-.584-2.4311-1.192-4.8688-2.303-7.2928-3.407-3.6453-1.6609-7.2597-3.3075-10.7748-5.1968 1.0382-.3288 2.0246-.6682 2.9511-1.015.2586-.0968.3896-.3845.2926-.6426-.097-.2582-.3852-.3889-.6437-.2922-1.18.4418-2.4591.8714-3.8196 1.2819z" fill="#000" fill-rule="evenodd"/><path clip-rule="evenodd" d="m26.2909 64.7449c.276-.009.5071.2071.5161.4826.1289 3.9436.4164 11.8292.6716 17.7414.0963 2.2293.1877 4.1736.2643 5.5199.1297.0902.2146.2402.2146.41 0 .4948-.0035.8699-.0102 1.1346-.0034.132-.0077.2406-.0131.3246-.0042.0661-.0113.1643-.0324.2432-.005.0186-.021.0777-.0598.1419-.0166.0275-.1886.3039-.5317.2351-.139-.0279-.2266-.1051-.267-.1477-.0425-.0448-.0678-.0878-.0804-.1113-.0254-.0473-.0386-.0896-.0442-.1082-.0212-.0712-.0333-.1603-.0415-.2266-.0193-.1561-.0399-.3981-.0619-.7064-.0883-1.2394-.2081-3.7104-.3357-6.6661-.2555-5.9163-.5431-13.8054-.6721-17.7518-.009-.2756.2075-.5062.4834-.5152z" fill="#000" fill-rule="evenodd"/><path clip-rule="evenodd" d="m38.27 64.8241c-4.0311 0-7.8719.4289-11.8751 1.1406-.2718.0483-.5315-.1325-.5799-.4039s.1327-.5306.4046-.579c4.0448-.719 7.946-1.156 12.0504-1.156.2762 0 .5.2235.5.4992 0 .2756-.2238.4991-.5.4991z" fill="#000" fill-rule="evenodd"/><path clip-rule="evenodd" d="m35.9494 64.0563c.276-.011.5086.2034.5196.4788.0644 1.6122.1297 4.6505.2029 8.0559.1245 5.7909.2718 12.6435.4761 15.3505.0208.2749-.1856.5146-.461.5353-.2753.0207-.5154-.1853-.5361-.4602-.2059-2.7266-.3555-9.6713-.4809-15.4891-.0729-3.3814-.1375-6.382-.2002-7.9526-.011-.2755.2037-.5077.4796-.5186z" fill="#000" fill-rule="evenodd"/><path clip-rule="evenodd" d="m40.9703 74.0069c.0033 1.2764.0187 2.6058.0343 3.9538.0359 3.1024.0729 6.3032-.0344 9.1832-.0103.2755.2051.5072.4811.5174.2759.0103.5079-.2048.5182-.4802.1082-2.9037.0707-6.1498.0347-9.2667-.0147-1.2797-.0293-2.5376-.0334-3.7411.2751.0341.5576.0609.8452.0814 1.1358.0811 2.3836.0666 3.6257.0053 1.6838-.0833 3.3941-.2556 4.8118-.3984.6625-.0667 1.2611-.127 1.7632-.1688.2752-.0229.4797-.2642.4568-.5389s-.2646-.4789-.5398-.456c-.5323.0443-1.1486.1065-1.8222.1744-1.4052.1417-3.0594.3086-4.7192.3906-1.2209.0603-2.4247.0732-3.5049-.0039-.3508-.0251-.6852-.0594-1.0004-.1039-.1156-.2403-.3319-.392-.5142-.4761-.2637-.1216-.5718-.1667-.8232-.177-.246-.0102-.5154.0099-.7097.0737-.0504.0166-.1232.0447-.1944.0937-.0588.0404-.2087.1585-.2391.3783-.0339.2457.1052.411.1811.4788.0767.0685.1608.108.2166.1308.3528.1441.7452.259 1.1662.3496z" fill="#000" fill-rule="evenodd"/><path clip-rule="evenodd" d="m50.995 71.5996c.2761 0 .5.2235.5.4992l.0001 14.9689c0 .2757-.2238.4992-.5.4992-.2761 0-.5-.2235-.5-.4992l-.0001-14.9689c0-.2757.2238-.4992.5-.4992z" fill="#000" fill-rule="evenodd"/><path clip-rule="evenodd" d="m56.698 76.4927c-.0198.0665-.0372.1543-.05.2646-.0283.2439-.0287.5476-.0141.8773.0129.2892.0364.5816.0584.8547.0029.0365.0059.0725.0087.1082.023.2881.045.5773.0372.7779-.0309.7936.0057 1.8194.0447 2.916.0102.2864.0206.5776.03.8707.0446 1.3912.067 2.8287-.079 3.8927-.0375.2731-.2897.4642-.5633.4268s-.465-.2892-.4275-.5623c.1327-.9671.1153-2.3209.0703-3.7253-.009-.2805-.0191-.563-.0291-.8439-.0393-1.1014-.0778-2.1788-.0454-3.0134.005-.1282-.01-.3499-.0347-.6599-.0028-.0348-.0057-.0704-.0086-.1067-.0219-.2715-.047-.5828-.0607-.8912-.0154-.3477-.0177-.7136.0197-1.0363.0344-.2965.1124-.6675.3443-.9247.1488-.1651.3439-.2076.4531-.2215.1223-.0156.248-.0086.3577.0043.222.0259.4753.0881.7053.1529.2253.0635.4501.1359.6304.194.007.0022.0139.0045.0207.0067.0937.0301.1721.0553.235.0743.0593.0179.0863.0245.0924.026.0012.0003.0016.0004.0012.0004 1.2624.2132 2.5782.3233 3.8439.2671-.0019.0001-.0018.0001.0009-.0003.0058-.0007.0232-.0029.0577-.0089.0393-.0067.0853-.0155.1414-.0261.0085-.0016.0172-.0033.0261-.005.1302-.0246.3002-.0564.4693-.076.1605-.0186.3644-.0322.5512.0009.168.0299.5192.1401.6122.5284.0515.2149.0751.5199.0859.8567.0111.3479.0093.7675-.0016 1.2311-.0219.9279-.0807 2.0524-.1507 3.1718-.0747 1.1958-.1613 2.3764-.2305 3.3193-.0614.8384-.1091 1.4888-.1225 1.7947-.012.2754-.2453.489-.5212.477s-.4898-.2449-.4778-.5203c.0135-.3112.063-.9873.126-1.8486.0695-.9499.1555-2.125.2279-3.2843.0697-1.1153.1277-2.2246.1491-3.1331.0107-.4545.0121-.8537.0018-1.1757-.0057-.1787-.0149-.3236-.0261-.4362-.0316.002-.0676.0052-.1082.0099-.1291.015-.2665.0403-.3983.0652-.0112.0021-.023.0044-.0353.0068-.103.0197-.2396.0459-.3329.05-1.351.06-2.7391-.0578-4.0551-.2801-.1059-.0179-.2833-.0751-.4378-.125-.0105-.0033-.0208-.0067-.031-.01l-.0157-.005c-.1835-.0591-.3929-.1266-.6001-.1849-.2148-.0606-.4048-.1048-.5453-.1217zm-.1196-.006c.0005-.0001.0011-.0001.0018-.0002z" fill="#000" fill-rule="evenodd"/><path d="m224.621 159.665h-20.494c-.372 0-.613-.39-.448-.722l8.577-17.193c.166-.333.625-.374.848-.076l6.274 8.372 5.664 8.851c.213.332-.026.768-.421.768z" fill="#ae82fc"/><g fill="#000"><path clip-rule="evenodd" d="m203.119 157.51c-.314.03-.628.063-.941.099-.275.032-.471.28-.439.554.033.274.281.47.555.438 3.21-.376 6.504-.383 9.83-.303.993.024 1.99.056 2.989.088 2.333.074 4.673.149 6.977.124-.003 0 .037.003.181.009.118.005.274.01.435.009.157 0 .335-.007.49-.029.077-.01.166-.027.252-.057.066-.023.223-.083.332-.236.06-.084.078-.164.082-.185.008-.034.011-.064.012-.083.002-.041 0-.076-.003-.102-.007-.053-.019-.105-.034-.156-.031-.102-.086-.239-.178-.429-.186-.38-.549-1.02-1.257-2.099-1.417-2.163-4.248-6.132-9.9-13.397l-.02-.025-.023-.023c-.11-.108-.251-.186-.416-.211-.159-.023-.304.008-.422.054-.222.087-.42.257-.588.431-.345.36-.733.925-1.139 1.6-.819 1.362-1.788 3.298-2.732 5.287-.779 1.64-1.546 3.33-2.205 4.78-.141.311-.278.611-.408.897-.37.812-.691 1.511-.943 2.037-.126.263-.234.478-.32.642-.043.081-.079.146-.109.196-.014.025-.026.044-.036.059-.005.007-.009.013-.011.017l-.004.004c0 .001-.001.002-.001.001-.002.003-.004.006-.006.009zm1.194-.099c2.594-.184 5.219-.173 7.835-.111 1.01.025 2.017.057 3.021.089 2.323.074 4.628.147 6.91.122.024 0 .065.002.089.004h.009c.036.002.082.004.137.007.104.004.234.008.365.008-.183-.35-.516-.92-1.113-1.832-1.383-2.109-4.156-6.001-9.7-13.132-.031.027-.068.062-.11.106-.264.275-.605.759-1.005 1.423-.792 1.316-1.743 3.214-2.685 5.2-.775 1.633-1.538 3.313-2.197 4.763-.142.312-.279.613-.41.9-.369.812-.694 1.519-.951 2.055-.07.144-.134.277-.195.398z" fill-rule="evenodd"/><path clip-rule="evenodd" d="m211.954 146.224c.276 0 .5.224.5.5 0 2.069.213 4.436.42 5.539.051.271-.128.532-.4.583-.271.05-.532-.128-.583-.399-.221-1.179-.437-3.611-.437-5.723 0-.276.224-.5.5-.5z" fill-rule="evenodd"/><path clip-rule="evenodd" d="m213.404 154.227c.12.207.181.461.201.73.018.233-.128.441-.341.511.001.012.001.025.001.037 0 .276-.223.499-.5.499-.146 0-.305-.017-.449-.082-.006-.003-.012-.005-.018-.008-.031.015-.064.028-.099.038-.138.041-.331.047-.507-.075-.155-.107-.215-.258-.239-.343-.026-.091-.031-.179-.031-.245-.001-.135.022-.274.048-.383.024-.101.062-.231.118-.332.131-.238.29-.444.476-.588.187-.144.438-.254.721-.209.291.047.496.237.619.45zm-1.554.796s.001-.001.003-.002c-.002.002-.003.002-.003.002z" fill-rule="evenodd"/><path clip-rule="evenodd" d="m145.391 108.487c.263-.084.545.062.628.324.516 1.62 1.284 2.832 2.314 3.625 1.024.788 2.354 1.198 4.067 1.13 1.593-.064 2.572-.321 3.408-.808.857-.499 1.603-1.258 2.708-2.431.189-.2.506-.21.707-.021s.211.505.021.706c-1.085 1.151-1.928 2.024-2.933 2.608-1.026.598-2.182.876-3.871.943-1.903.076-3.475-.38-4.718-1.336-1.237-.952-2.099-2.363-2.656-4.113-.084-.263.062-.544.325-.627z" fill-rule="evenodd"/><path clip-rule="evenodd" d="m66.9406 86.0744c.0372.2732-.1544.5247-.4281.5618-9.1284 1.2388-34.9145 2.5152-44.0686 2.6586-.2761.0043-.5035-.2157-.5078-.4913s.216-.5026.4921-.5069c9.1437-.1433 34.8818-1.4191 43.9496-2.6496.2737-.0371.5256.1542.5628.4274z" fill-rule="evenodd"/><path clip-rule="evenodd" d="m94.2035 42.2264c.0237-.2747.266-.4782.5411-.4545 19.2404 1.6545 27.5484 1.63 43.4814 1.5831 2.905-.0085 6.063-.0178 9.587-.0178.276 0 .5.2235.5.4992 0 .2756-.224.4991-.5.4991-3.52 0-6.676.0093-9.58.0178-15.941.047-24.288.0716-43.5742-1.5868-.2751-.0237-.479-.2655-.4553-.5401z" fill-rule="evenodd"/><path d="m230.695 77.2687c0 .0479-.008.1278-.024.2396s-.048.2156-.096.3114c-.032.1118-.088.2077-.168.2875-.08.0959-.184.1438-.312.1438-.368 0-.608-.1118-.72-.3354s-.168-.4712-.168-.7428c0-.0639-.016-.1677-.048-.3114-.032-.1438-.064-.3035-.096-.4792s-.064-.3514-.096-.5271-.048-.3274-.048-.4552c0-.2396-.016-.5112-.048-.8146-.016-.3035-.048-.607-.096-.9105-.032-.3194-.072-.6229-.12-.9104-.032-.2875-.064-.5431-.096-.7667l-.072-.0719c-.176.1118-.336.2476-.48.4073-.128.1597-.264.3115-.408.4552-.128.1438-.272.2636-.432.3594-.144.0959-.32.1438-.528.1438-.288 0-.544-.0959-.768-.2875-.224-.2077-.408-.4473-.552-.7188s-.256-.5431-.336-.8146c-.064-.2875-.096-.5111-.096-.6709 0-.3514.072-.7507.216-1.1979.16-.4473.376-.8625.648-1.2459.272-.3993.592-.7347.96-1.0063.384-.2715.808-.4073 1.272-.4073.176 0 .336.0479.48.1438.144.0958.272.2156.384.3594.128.1278.232.2635.312.4073.096.1437.176.2555.24.3354.176.2076.312.3913.408.5511.096.1437.144.3274.144.551 0 .0479-.024.1917-.072.4313s-.072.4392-.072.599c0 .6548.016 1.3257.048 2.0125.048.6709.104 1.3018.168 1.8928.064.575.128 1.0781.192 1.5094s.112.7268.144.8865c.032.1278.096.2076.192.2396.096.0479.144.1837.144.4073zm-2.088-8.0503c-.016-.1597-.08-.3593-.192-.5989-.096-.2396-.304-.3594-.624-.3594-.272 0-.52.1198-.744.3594-.224.2236-.416.4951-.576.8146-.16.3035-.28.6069-.36.9104-.08.2875-.12.5032-.12.6469 0 .032.008.1038.024.2156.032.1118.064.2316.096.3594.048.1278.104.2396.168.3355.064.0958.136.1437.216.1437.192 0 .408-.1278.648-.3833.24-.2716.464-.5751.672-.9105.224-.3354.408-.6549.552-.9583.16-.3035.24-.4952.24-.5751z"/><path d="m240.006 71.0633c0 .1437-.096.2955-.288.4552s-.416.3115-.672.4552c-.256.1278-.52.2396-.792.3355-.256.0958-.448.1437-.576.1437-.144 0-.304-.0399-.48-.1198-.16-.0798-.32-.1757-.48-.2875-.144-.1118-.272-.2156-.384-.3115-.112-.0958-.184-.1597-.216-.1916-.048.0479-.12.1437-.216.2875-.096.1437-.216.3035-.36.4792-.128.1597-.272.3034-.432.4312-.144.1278-.296.1917-.456.1917-.416 0-.776-.2236-1.08-.6709-.304-.4472-.56-.9583-.768-1.5333-.192-.5751-.344-1.1261-.456-1.6532-.096-.5431-.144-.9105-.144-1.1021 0-.1118.056-.1997.168-.2636.128-.0798.224-.1198.288-.1198.224 0 .376.0799.456.2396.08.1438.12.3035.12.4792 0 .1438.04.3993.12.7667.096.3674.208.7427.336 1.1261.128.3833.264.7267.408 1.0302.144.2875.272.4313.384.4313.208 0 .384-.1278.528-.3834.16-.2715.288-.575.384-.9104.096-.3514.168-.6789.216-.9823.048-.3195.072-.5271.072-.623 0-.016 0-.0639 0-.1437.016-.0959.032-.1917.048-.2875.016-.0959.024-.1837.024-.2636.016-.0799.024-.1358.024-.1677 0-.1118-.024-.1837-.072-.2156-.048-.048-.072-.1358-.072-.2636 0-.0958.048-.1837.144-.2635.096-.0959.304-.1438.624-.1438.128 0 .224.0399.288.1198.08.0639.136.1438.168.2396s.048.1917.048.2875c.016.0799.024.1358.024.1677 0 .016-.008.1278-.024.3354-.016.2077-.032.4393-.048.6949 0 .2395-.008.4711-.024.6948-.016.2236-.024.3594-.024.4073s.024.1437.072.2875c.048.1437.104.2955.168.4552.08.1438.168.2795.264.4073.096.1118.2.1677.312.1677.192 0 .368-.0239.528-.0719.176-.0639.336-.1277.48-.1916.16-.0799.304-.1438.432-.1917.128-.0639.248-.0958.36-.0958.144 0 .272.0319.384.0958.128.0639.192.1437.192.2396z"/><path d="m252.369 70.057c0 .2875-.136.6469-.408 1.0782-.256.4153-.608.8226-1.056 1.2219s-.968.7427-1.56 1.0302c-.592.2715-1.208.4073-1.848.4073-.288 0-.592-.0479-.912-.1437-.32-.0959-.632-.2316-.936-.4073-.304-.1917-.576-.4153-.816-.6709-.24-.2715-.416-.575-.528-.9104-.096.0958-.216.2555-.36.4791-.128.2237-.272.4553-.432.6949-.16.2236-.336.4232-.528.5989-.192.1598-.392.2396-.6.2396s-.384-.1038-.528-.3114c-.128-.2237-.232-.4633-.312-.7188-.08-.2716-.136-.5271-.168-.7667s-.048-.3754-.048-.4073c0-.1917.056-.5511.168-1.0782.112-.543.28-1.1021.504-1.6771s.504-1.0861.84-1.5334c.352-.4472.76-.6708 1.224-.6708.176 0 .288.0798.336.2396.064.1437.096.2875.096.4312v.7188c.08.0639.16.1118.24.1437.096.016.176.048.24.0959.08.0319.136.0878.168.1677.048.0799.072.2076.072.3833 0 .1118-.008.2157-.024.3115-.016.0799-.024.1597-.024.2396 0 .4153.032.8226.096 1.2219s.192.7587.384 1.0782c.192.3034.456.559.792.7667.336.1916.784.2875 1.344.2875.704 0 1.296-.1438 1.776-.4313.496-.3035.904-.6309 1.224-.9823.336-.3674.6-.6948.792-.9823.192-.3035.352-.4553.48-.4553.208 0 .312.1039.312.3115zm-8.424-1.0542c0-.0639-.016-.1198-.048-.1677-.032-.0639-.048-.1198-.048-.1677 0-.0639.016-.1198.048-.1677s.048-.1118.048-.1917c0-.0479-.016-.0799-.048-.0958-.032-.032-.048-.0639-.048-.0959-.144.032-.296.1677-.456.4073-.144.2396-.288.5191-.432.8386-.128.3194-.232.6469-.312.9823-.08.3195-.12.583-.12.7907 0 .1118.032.2955.096.551.064.2556.136.4233.216.5032.272-.5591.52-1.1022.744-1.6293.24-.5271.36-1.0462.36-1.5573z"/><path d="m255.856 74.3457c0 .1278-.048.2236-.144.2875s-.208.0958-.336.0958c-.144 0-.296-.1357-.456-.4073-.144-.2715-.288-.6149-.432-1.0302s-.28-.8626-.408-1.3417c-.128-.4952-.24-.9504-.336-1.3657-.096-.4313-.176-.7906-.24-1.0782-.048-.2875-.072-.4472-.072-.4791 0-.0639-.032-.2316-.096-.5032-.048-.2715-.12-.6948-.216-1.2698-.08-.575-.176-1.3177-.288-2.2282-.096-.9264-.2-2.0685-.312-3.4261 0-.1438.024-.3275.072-.5511s.16-.3354.336-.3354c.224 0 .392.1517.504.4552.128.3035.224.6788.288 1.1261.08.4472.136.9184.168 1.4136.032.4791.072.9024.12 1.2698.064.5111.12.9743.168 1.3896.064.4153.12.8306.168 1.2459.064.3993.136.8226.216 1.2698.096.4472.208.9424.336 1.4855z"/><path d="m259.143 64.0193c0 .032-.056.0959-.168.1917s-.248.1997-.408.3115c-.144.0958-.296.1837-.456.2635-.16.0799-.288.1198-.384.1198-.064 0-.152 0-.264 0-.096-.016-.2-.0479-.312-.0958-.096-.0479-.184-.1118-.264-.1917-.08-.0958-.12-.2156-.12-.3594 0-.2236.08-.4312.24-.6229.16-.2077.368-.3115.624-.3115.048 0 .152.024.312.0719.176.0319.352.0799.528.1437.176.0639.328.1358.456.2157.144.0798.216.1677.216.2635zm.792 8.9607c0 .1118-.088.2077-.264.2875-.16.0799-.28.1198-.36.1198-.16 0-.304-.1038-.432-.3115-.128-.2076-.24-.4472-.336-.7187-.096-.2716-.176-.5271-.24-.7667-.064-.2556-.112-.4313-.144-.5271-.048-.1597-.112-.3514-.192-.575s-.16-.4393-.24-.6469c-.064-.2077-.12-.3914-.168-.5511s-.072-.2476-.072-.2635c0-.2236.04-.4313.12-.623.096-.1916.208-.2875.336-.2875.144 0 .296.1118.456.3355.16.2236.312.5111.456.8625.16.3354.304.7108.432 1.1261.128.3993.24.7826.336 1.15.096.3514.168.6629.216.9344.064.2555.096.4073.096.4552z"/><path d="m267.813 64.211c-.208.2396-.504.4792-.888.7188-.384.2236-.768.4312-1.152.6229s-.72.3594-1.008.5031c-.288.1278-.432.2157-.432.2636s.032.1917.096.4313c.064.2395.136.5271.216.8625.096.3194.192.6549.288 1.0063s.176.6628.24.9344c.032.1597.072.3673.12.6229s.088.5111.12.7667c.048.2556.088.4872.12.6948.032.1917.048.2955.048.3115 0 .2396-.04.4871-.12.7427s-.208.3833-.384.3833c-.096 0-.184-.0399-.264-.1198-.08-.0798-.152-.1677-.216-.2635-.064-.1118-.112-.2156-.144-.3115-.032-.0958-.048-.1677-.048-.2156 0-.0319 0-.0799 0-.1438.016-.0638.024-.1357.024-.2156 0-.3035-.048-.7427-.144-1.3177-.032-.1757-.096-.4473-.192-.8146-.096-.3674-.192-.7428-.288-1.1261-.112-.4472-.24-.9344-.384-1.4615-.064-.2236-.104-.3354-.12-.3354-.112 0-.304.0718-.576.2156-.256.1278-.552.2955-.888.5031-.336.1917-.688.4073-1.056.6469-.368.2236-.712.4393-1.032.6469-.32.1917-.592.3594-.816.5032-.24.1277-.384.1916-.432.1916-.208 0-.376-.0718-.504-.2156s-.192-.3035-.192-.4792c0-.0958.136-.2316.408-.4073.256-.1917.584-.3993.984-.6229.384-.2236.808-.4552 1.272-.6948.448-.2396.864-.4553 1.248-.6469.4-.1917.728-.3514.984-.4792.272-.1278.408-.1917.408-.1917-.144-.7347-.264-1.3896-.36-1.9646-.08-.4952-.16-.9504-.24-1.3657-.064-.4153-.096-.6389-.096-.6708 0-.2077.04-.3594.12-.4553.096-.1118.2-.1677.312-.1677.176 0 .288.1198.336.3594.176.8625.336 1.6292.48 2.3001.16.6708.312 1.2139.456 1.6292.144-.032.392-.1198.744-.2636.352-.1597.72-.3274 1.104-.5031s.728-.3274 1.032-.4552c.32-.1438.504-.2156.552-.2156.096 0 .152.0319.168.0958.032.0639.064.1198.096.1677z"/><path d="m274.133 63.8277c-.208 1.1021-.4 2.1643-.576 3.1865-.08.4313-.16.8865-.24 1.3657-.08.4632-.16.9264-.24 1.3896-.064.4472-.128.8785-.192 1.2938-.048.3993-.088.7667-.12 1.1021-.064.5111-.112 1.0941-.144 1.749s-.064 1.2778-.096 1.8688c-.032.6868-.048 1.3817-.048 2.0845 0 .1437-.016.3034-.048.4791s-.048.3514-.048.5271c0 .1598-.04.2955-.12.4073-.064.1118-.168.1677-.312.1677-.128 0-.232-.1038-.312-.3114-.064-.1917-.12-.4233-.168-.6948-.048-.2556-.08-.5191-.096-.7907-.016-.2555-.024-.4392-.024-.551 0-.1278 0-.2875 0-.4792 0-.1757.008-.4473.024-.8146.032-.3514.072-.8146.12-1.3897.048-.5909.12-1.3576.216-2.3 0-.016-.112-.0959-.336-.2396-.208-.1438-.472-.3195-.792-.5271-.304-.2236-.624-.4632-.96-.7188-.32-.2555-.592-.5031-.816-.7427-.032-.032-.08-.1038-.144-.2156s-.096-.2476-.096-.4073c0-.0799.04-.1598.12-.2396.08-.0959.168-.1438.264-.1438.064 0 .128.032.192.0958.368.3195.792.6789 1.272 1.0782.48.3834.952.7347 1.416 1.0542.032-.2875.096-.7268.192-1.3177.112-.591.224-1.222.336-1.8928.112-.6868.216-1.3497.312-1.9886.112-.6389.192-1.15.24-1.5334 0-.0639.016-.1677.048-.3115.032-.1437.08-.2875.144-.4312.064-.1438.136-.2636.216-.3594.08-.1118.168-.1677.264-.1677.048 0 .152.0479.312.1437.16.0799.24.2716.24.5751z"/><path d="m201.547 45.6428c0 .0479-.04.2555-.12.6229s-.16.7827-.24 1.2459c-.048.2715-.128.6788-.24 1.2219-.096.5271-.144 1.3337-.144 2.4198 0 .032-.008.1198-.024.2636 0 .1278-.024.2635-.072.4073-.032.1437-.088.2795-.168.4073-.08.1118-.2.1677-.36.1677-.144 0-.304-.0639-.48-.1917-.4-.2875-.768-.6229-1.104-1.0062-.336-.3834-.624-.7987-.864-1.2459-.24-.4632-.424-.9424-.552-1.4376-.128-.4951-.192-.9982-.192-1.5094 0-.0639.04-.1198.12-.1677.096-.0639.168-.0958.216-.0958.24 0 .424.1357.552.4073.144.2715.28.599.408.9823.144.3833.304.7907.48 1.2219.192.4153.472.7747.84 1.0782.048-.0639.088-.1837.12-.3594s.056-.3275.072-.4552c.016-.1118.04-.3275.072-.6469.032-.3355.064-.6869.096-1.0542.048-.3674.08-.7188.096-1.0542.032-.3355.048-.5671.048-.6948 0-.0959.008-.2077.024-.3355.016-.1277.048-.2475.096-.3594.064-.1118.144-.2076.24-.2875.096-.0798.224-.1198.384-.1198.08 0 .216.056.408.1678.192.0958.288.2316.288.4073z"/><path d="m210.336 51.5606c.016.032.024.0799.024.1438 0 .0958-.072.2396-.216.4313-.048.0639-.152.1677-.312.3114-.16.1438-.376.2875-.648.4313-.272.1437-.608.2715-1.008.3833-.384.1118-.84.1677-1.368.1677-.368 0-.728-.0798-1.08-.2395-.352-.1757-.664-.4233-.936-.7428-.272-.3354-.496-.7427-.672-1.2219-.176-.4951-.264-1.0702-.264-1.725 0-.623.08-1.206.24-1.749.16-.5431.36-1.0223.6-1.4376.256-.4153.536-.7427.84-.9823s.6-.3594.888-.3594c.256 0 .512.0559.768.1677.272.0959.512.2236.72.3834.224.1597.4.3434.528.551.128.1917.192.3914.192.599 0 .2396-.112.4872-.336.7427-.208.2556-.464.4952-.768.7188-.304.2076-.608.3833-.912.5271-.304.1278-.544.1917-.72.1917-.096 0-.184-.04-.264-.1198-.064-.0959-.096-.2077-.096-.3354 0-.2237.096-.3994.288-.5271.208-.1278.432-.2396.672-.3355.24-.1118.456-.2396.648-.3833.208-.1438.312-.3434.312-.599 0-.0319-.04-.1118-.12-.2396s-.296-.1917-.648-.1917c-.16 0-.344.0959-.552.2876-.208.1757-.408.4232-.6.7427-.192.3035-.352.6708-.48 1.1021-.128.4153-.192.8705-.192 1.3657 0 .4153.072.7906.216 1.126.16.3355.36.623.6.8626.24.2236.52.3993.84.5271.32.1277.648.1916.984.1916.24 0 .496-.0479.768-.1437.288-.1118.552-.2236.792-.3354.256-.1278.472-.2396.648-.3355.192-.1118.312-.1677.36-.1677s.096.024.144.0719c.064.0479.104.0958.12.1437z"/><path d="m215.223 53.3815c0 .1278-.048.2236-.144.2875s-.208.0959-.336.0959c-.144 0-.296-.1358-.456-.4073-.144-.2716-.288-.615-.432-1.0303s-.28-.8625-.408-1.3417c-.128-.4951-.24-.9503-.336-1.3656-.096-.4313-.176-.7907-.24-1.0782-.048-.2875-.072-.4472-.072-.4792 0-.0639-.032-.2316-.096-.5031-.048-.2715-.12-.6948-.216-1.2698-.08-.5751-.176-1.3178-.288-2.2282-.096-.9264-.2-2.0685-.312-3.4262 0-.1437.024-.3274.072-.551.048-.2237.16-.3355.336-.3355.224 0 .392.1518.504.4553.128.3034.224.6788.288 1.126.08.4473.136.9185.168 1.4136.032.4792.072.9025.12 1.2698.064.5112.12.9744.168 1.3897.064.4153.12.8306.168 1.2458.064.3994.136.8226.216 1.2699.096.4472.208.9424.336 1.4854z"/><path d="m221.39 48.9012c0 .3514-.048.6868-.144 1.0063-.096.3194-.224.5989-.384.8385s-.352.4313-.576.5751c-.208.1277-.44.1916-.696.1916-.448 0-.8-.1278-1.056-.3833-.256-.2556-.456-.5511-.6-.8865-.128-.3354-.216-.6709-.264-1.0063-.032-.3514-.048-.6149-.048-.7906 0-.2875.04-.607.12-.9584.096-.3674.216-.7028.36-1.0063.16-.3035.336-.559.528-.7667.192-.2076.392-.3114.6-.3114.048 0 .12.0159.216.0479.112.0319.224.0799.336.1437.112.0639.208.1438.288.2396.096.0959.16.2077.192.3355.176.0159.352.0798.528.1916s.272.1997.288.2636c.128.4153.208.8306.24 1.2459.048.4152.072.7587.072 1.0302zm-1.08-.4313c0-.2396-.024-.4871-.072-.7427-.048-.2715-.144-.5431-.288-.8146-.032.016-.072.024-.12.024-.064 0-.12-.008-.168-.024-.032-.016-.064-.024-.096-.024-.192 0-.344.0559-.456.1677-.112.0959-.2.2317-.264.4073-.048.1598-.08.3355-.096.5271-.016.1917-.024.3754-.024.5511s.008.3754.024.599c.016.2076.048.4073.096.599.064.1916.144.3593.24.5031.096.1278.224.1917.384.1917s.296-.0799.408-.2396c.112-.1757.2-.3754.264-.599s.104-.4392.12-.6469c.032-.2236.048-.3833.048-.4792z"/><path d="m230.733 49.7158c0 .1597-.024.3274-.072.5031-.048.1598-.096.2955-.144.4073-.032.048-.184.2157-.456.5032-.256.2715-.584.559-.984.8625-.384.3035-.824.583-1.32.8386-.48.2396-.944.3594-1.392.3594-.272 0-.552-.048-.84-.1438-.272-.0958-.528-.2476-.768-.4552-.24-.2236-.44-.4952-.6-.8146-.144-.3195-.216-.7108-.216-1.174 0-.7667.128-1.4615.384-2.0845.256-.6229.512-1.118.768-1.4854.112-.1757.256-.3514.432-.5271.192-.1917.376-.3594.552-.5032.176-.1597.336-.2875.48-.3833.16-.0958.272-.1438.336-.1438.144 0 .272.04.384.1198.128.0799.192.1598.192.2396 0 .1278-.04.2396-.12.3355-.064.0798-.16.1757-.288.2875-.128.0958-.28.2316-.456.4073-.176.1597-.36.3753-.552.6469-.384.5271-.672 1.0701-.864 1.6292-.176.5431-.264 1.0222-.264 1.4375s.152.7507.456 1.0063c.32.2396.648.3594.984.3594.608 0 1.144-.1358 1.608-.4073.48-.2716.888-.575 1.224-.9105.336-.3354.608-.6389.816-.9104s.36-.4073.456-.4073c.176 0 .264.1358.264.4073z"/><path d="m234.072 43.0552c0 .0319-.056.0958-.168.1917-.112.0958-.248.1996-.408.3114-.144.0959-.296.1837-.456.2636-.16.0798-.288.1198-.384.1198-.064 0-.152 0-.264 0-.096-.016-.2-.0479-.312-.0959-.096-.0479-.184-.1118-.264-.1916-.08-.0959-.12-.2157-.12-.3594 0-.2236.08-.4313.24-.623.16-.2076.368-.3114.624-.3114.048 0 .152.0239.312.0719.176.0319.352.0798.528.1437s.328.1358.456.2156c.144.0799.216.1678.216.2636zm.792 8.9607c0 .1118-.088.2076-.264.2875-.16.0798-.28.1198-.36.1198-.16 0-.304-.1039-.432-.3115s-.24-.4472-.336-.7188c-.096-.2715-.176-.5271-.24-.7667-.064-.2555-.112-.4312-.144-.5271-.048-.1597-.112-.3514-.192-.575s-.16-.4392-.24-.6469c-.064-.2076-.12-.3913-.168-.551-.048-.1598-.072-.2476-.072-.2636 0-.2236.04-.4312.12-.6229.096-.1917.208-.2875.336-.2875.144 0 .296.1118.456.3354s.312.5111.456.8625c.16.3355.304.7108.432 1.1261.128.3993.24.7827.336 1.15.096.3514.168.6629.216.9344.064.2556.096.4073.096.4553z"/><path d="m242.743 43.2469c-.208.2396-.504.4791-.888.7187-.384.2236-.768.4313-1.152.623-.384.1916-.72.3594-1.008.5031-.288.1278-.432.2156-.432.2636 0 .0479.032.1916.096.4312s.136.5271.216.8625c.096.3195.192.6549.288 1.0063s.176.6629.24.9344c.032.1598.072.3674.12.623.048.2555.088.5111.12.7666.048.2556.088.4872.12.6949.032.1916.048.2955.048.3114 0 .2396-.04.4872-.12.7428-.08.2555-.208.3833-.384.3833-.096 0-.184-.0399-.264-.1198s-.152-.1677-.216-.2635c-.064-.1119-.112-.2157-.144-.3115s-.048-.1677-.048-.2156c0-.032 0-.0799 0-.1438.016-.0639.024-.1358.024-.2156 0-.3035-.048-.7428-.144-1.3178-.032-.1757-.096-.4472-.192-.8146s-.192-.7427-.288-1.1261c-.112-.4472-.24-.9344-.384-1.4615-.064-.2236-.104-.3354-.12-.3354-.112 0-.304.0719-.576.2156-.256.1278-.552.2955-.888.5032-.336.1917-.688.4073-1.056.6469-.368.2236-.712.4392-1.032.6469-.32.1916-.592.3594-.816.5031-.24.1278-.384.1917-.432.1917-.208 0-.376-.0719-.504-.2156-.128-.1438-.192-.3035-.192-.4792 0-.0959.136-.2316.408-.4073.256-.1917.584-.3993.984-.623.384-.2236.808-.4552 1.272-.6948.448-.2396.864-.4552 1.248-.6469.4-.1916.728-.3514.984-.4791.272-.1278.408-.1917.408-.1917-.144-.7348-.264-1.3896-.36-1.9647-.08-.4951-.16-.9503-.24-1.3656-.064-.4153-.096-.6389-.096-.6709 0-.2076.04-.3594.12-.4552.096-.1118.2-.1677.312-.1677.176 0 .288.1198.336.3594.176.8625.336 1.6292.48 2.3.16.6709.312 1.214.456 1.6293.144-.032.392-.1198.744-.2636.352-.1597.72-.3274 1.104-.5031s.728-.3275 1.032-.4553c.32-.1437.504-.2156.552-.2156.096 0 .152.032.168.0958.032.0639.064.1198.096.1678z"/><path d="m249.063 42.8635c-.208 1.1021-.4 2.1643-.576 3.1866-.08.4312-.16.8865-.24 1.3656-.08.4632-.16.9264-.24 1.3897-.064.4472-.128.8785-.192 1.2937-.048.3994-.088.7667-.12 1.1022-.064.5111-.112 1.0941-.144 1.749-.032.6548-.064 1.2778-.096 1.8688-.032.6868-.048 1.3816-.048 2.0844 0 .1438-.016.3035-.048.4792s-.048.3514-.048.5271c0 .1597-.04.2955-.12.4073-.064.1118-.168.1677-.312.1677-.128 0-.232-.1038-.312-.3115-.064-.1916-.12-.4232-.168-.6948-.048-.2555-.08-.5191-.096-.7906-.016-.2556-.024-.4393-.024-.5511 0-.1278 0-.2875 0-.4792 0-.1757.008-.4472.024-.8146.032-.3514.072-.8146.12-1.3896.048-.591.12-1.3577.216-2.3001 0-.0159-.112-.0958-.336-.2395-.208-.1438-.472-.3195-.792-.5271-.304-.2237-.624-.4633-.96-.7188-.32-.2556-.592-.5032-.816-.7427-.032-.032-.08-.1039-.144-.2157s-.096-.2476-.096-.4073c0-.0798.04-.1597.12-.2396.08-.0958.168-.1437.264-.1437.064 0 .128.0319.192.0958.368.3195.792.6788 1.272 1.0782.48.3833.952.7347 1.416 1.0542.032-.2875.096-.7268.192-1.3178.112-.591.224-1.2219.336-1.8927.112-.6869.216-1.3497.312-1.9886.112-.639.192-1.1501.24-1.5334 0-.0639.016-.1677.048-.3115.032-.1437.08-.2875.144-.4313.064-.1437.136-.2635.216-.3593.08-.1119.168-.1678.264-.1678.048 0 .152.048.312.1438.16.0799.24.2715.24.575z"/><path d="m265.414 45.6428c0 .0479-.04.2555-.12.6229s-.16.7827-.24 1.2459c-.048.2715-.128.6788-.24 1.2219-.096.5271-.144 1.3337-.144 2.4198 0 .032-.008.1198-.024.2636 0 .1278-.024.2635-.072.4073-.032.1437-.088.2795-.168.4073-.08.1118-.2.1677-.36.1677-.144 0-.304-.0639-.48-.1917-.4-.2875-.768-.6229-1.104-1.0062-.336-.3834-.624-.7987-.864-1.2459-.24-.4632-.424-.9424-.552-1.4376-.128-.4951-.192-.9982-.192-1.5094 0-.0639.04-.1198.12-.1677.096-.0639.168-.0958.216-.0958.24 0 .424.1357.552.4073.144.2715.28.599.408.9823.144.3833.304.7907.48 1.2219.192.4153.472.7747.84 1.0782.048-.0639.088-.1837.12-.3594s.056-.3275.072-.4552c.016-.1118.04-.3275.072-.6469.032-.3355.064-.6869.096-1.0542.048-.3674.08-.7188.096-1.0542.032-.3355.048-.5671.048-.6948 0-.0959.008-.2077.024-.3355.016-.1277.048-.2475.096-.3594.064-.1118.144-.2076.24-.2875.096-.0798.224-.1198.384-.1198.08 0 .216.056.408.1678.192.0958.288.2316.288.4073z"/><path d="m272.931 50.9138c0 .2715-.096.5111-.288.7187-.176.1917-.408.3594-.696.5032-.272.1277-.576.2316-.912.3114-.336.0799-.656.1438-.96.1917-.304.0319-.576.0559-.816.0719-.224 0-.368 0-.432 0-.352 0-.624-.0559-.816-.1677s-.288-.3115-.288-.599c0-.0958.008-.1757.024-.2396.016-.0799.08-.1198.192-.1198.048 0 .128.016.24.0479.112.016.2.024.264.024s.264-.008.6-.024c.352-.0319.72-.0798 1.104-.1437.4-.0639.752-.1518 1.056-.2636.32-.1278.48-.2875.48-.4792 0-.0319-.168-.1277-.504-.2875-.32-.1757-.808-.4632-1.464-.8625-.512-.3195-.872-.6389-1.08-.9584-.208-.3354-.312-.7826-.312-1.3417 0-.3514.072-.6389.216-.8625.16-.2236.368-.3993.624-.5271.272-.1278.576-.2156.912-.2635.352-.0639.72-.0959 1.104-.0959.032 0 .128.016.288.0479.176.032.36.0879.552.1678.192.0638.36.1517.504.2635.16.0958.24.2077.24.3354 0 .032-.032.0799-.096.1438-.048.0639-.136.1837-.264.3594-.048-.016-.136-.04-.264-.0719-.112-.0319-.248-.0639-.408-.0958-.144-.048-.296-.0799-.456-.0959-.16-.0319-.288-.0479-.384-.0479-.416 0-.752.0799-1.008.2396-.256.1438-.384.4313-.384.8625 0 .2077.08.3993.24.575.176.1757.392.3435.648.5032.256.1437.528.2955.816.4552.304.1438.584.3035.84.4792s.464.3674.624.575c.176.1917.264.4153.264.6709z"/></g><path d="m138.246 77.7623c0 6.4197-5.213 11.6239-11.644 11.6239-6.43 0-11.644-5.2042-11.644-11.6239 0-6.4198 5.214-11.624 11.644-11.624 6.431 0 11.644 5.2042 11.644 11.624z" fill="#fff"/><path d="m129.929 76.7262c0 1.9765-1.605 3.5787-3.585 3.5787s-3.585-1.6022-3.585-3.5787c0-1.9766 1.605-3.5788 3.585-3.5788s3.585 1.6022 3.585 3.5788z" fill="#ae82fc"/><path clip-rule="evenodd" d="m126.265 64.4029c3.671.0725 7.285 1.9118 9.898 4.9519 2.74 3.1884 3.166 7.0798 2.173 11.1293-.484 1.9746-1.141 4.2111-3.048 5.8613-1.915 1.6565-4.992 2.6445-10.134 2.3886l-.032-.0016-.031-.0055c-3.959-.7026-6.638-2.3111-8.328-4.4035-.492-.6098-.897-1.2564-1.224-1.9277-.01.009-.02.0177-.031.0261-.219.1681-.533.1272-.701-.0913-1.225-1.5902-1.417-3.8959-1.066-6.1291.351-2.2383 1.264-4.519 2.402-6.1795.411-.7938.874-1.4991 1.366-2.0772.572-.6737 1.205-1.1999 1.862-1.4728.084-.0351.173-.0454.257-.0342 2.059-1.4378 4.348-2.0799 6.637-2.0348zm-9.262 6.1321c-.057.1102-.112.2225-.166.3368-.862 1.8085-1.45 4.0822-1.436 6.3755.015 2.2904.628 4.576 2.141 6.4496 1.505 1.8643 3.941 3.3697 7.693 4.0416 4.993.2438 7.761-.7311 9.398-2.1475 1.648-1.4258 2.249-3.3771 2.731-5.3443.941-3.8343.512-7.3651-1.96-10.2419-2.453-2.8534-5.809-4.5377-9.159-4.6038-3.324-.0656-6.698 1.46-9.242 5.134z" fill="#000" fill-rule="evenodd"/><path clip-rule="evenodd" d="m126.467 67.7122c2.621.0518 5.192 1.364 7.047 3.5224 1.961 2.2812 2.259 5.0622 1.555 7.9323-.34 1.385-.808 2.995-2.184 4.185-1.382 1.1964-3.584 1.8906-7.207 1.7103l-.031-.0016-.032-.0055c-2.802-.4974-4.715-1.6396-5.926-3.1393-1.208-1.4956-1.678-3.2976-1.688-5.0475-.002-.2745.008-.5484.027-.8203-.102-1.4701.307-2.9978 1.214-4.3253.291-.5614.62-1.0626.972-1.4757.41-.4824.872-.8698 1.361-1.0734.064-.0265.131-.0389.196-.0384 1.456-1.004 3.075-1.4549 4.696-1.423zm-7.435 8.3341c.105-1.2989.468-2.5534.96-3.5872.036-.0758.073-.1503.11-.2233 1.755-2.5302 4.071-3.5703 6.345-3.5255 2.3.0454 4.614 1.2026 6.308 3.1744 1.693 1.9694 1.994 4.3899 1.343 7.0449-.338 1.3775-.751 2.7023-1.867 3.6679-1.106.9564-2.998 1.6374-6.471 1.4692-2.597-.4667-4.265-1.5057-5.292-2.7774-.445-.5512-.777-1.1552-1.012-1.7903.165.078.366.0632.52-.0551.219-.1681.26-.4815.092-.7-.608-.7889-.956-1.7229-1.036-2.6976z" fill="#000" fill-rule="evenodd"/><path clip-rule="evenodd" d="m126.109 72.6489c1.194.0236 2.348.6197 3.174 1.5803.901 1.0484 1.025 2.3209.714 3.5887-.143.5838-.355 1.3426-1.008 1.9075-.661.5712-1.673.8662-3.232.7886l-.031-.0015-.031-.0056c-1.232-.2186-2.103-.7272-2.664-1.4218-.558-.6903-.769-1.5154-.773-2.2997-.001-.1159.003-.2315.01-.3463-.041-.6722.146-1.3653.551-1.965.129-.2461.276-.4699.437-.6585.189-.2224.418-.4213.681-.5307.03-.0122.059-.0214.089-.0277.644-.4265 1.361-.6225 2.083-.6083zm-2.837 3.7882c.043-.4991.184-.9824.374-1.3809.011-.0235.022-.0466.034-.0693.683-.9759 1.562-1.3566 2.409-1.3399.873.0173 1.77.4583 2.435 1.2322.633.7367.76 1.6487.502 2.7013-.141.5763-.299 1.05-.692 1.3905-.384.3316-1.086.6129-2.495.5475-1.025-.1877-1.653-.593-2.03-1.0599-.094-.1174-.176-.2418-.245-.3718.21-.1699.247-.4769.082-.692-.215-.2778-.341-.6089-.374-.9577z" fill="#000" fill-rule="evenodd"/><path d="m153.203 71.6253-5.134 3.6674 5.621 4.3312 7.804-.432-4.118-4.7006 5.974-4.2073z" fill="#ae82fc"/><path clip-rule="evenodd" d="m149.288 74.7231c.275-.0194.515.1878.534.4628s-.188.5136-.464.533l-.035-.4979zm-9.79 1.6933c-5.181.3675-10.86.7725-12.858.9226-.275.0207-.515-.1854-.536-.4603s.186-.5145.461-.5352c2.001-.1503 7.683-.5554 12.862-.9229 2.59-.1837 5.056-.3581 6.873-.4865l2.988-.211s0 0 .035.4979.036.4979.035.4979l-2.987.211c-1.818.1284-4.283.3027-6.873.4865z" fill="#000" fill-rule="evenodd"/><path clip-rule="evenodd" d="m153.673 70.8917c.126.2453.029.5461-.217.6718-.408.2086-.768.4994-1.173.8263-.041.0332-.083.0667-.125.1006-.536.4307-1.599 1.2105-2.55 1.908-.627.4591-1.204.8826-1.55 1.1474-.22.1676-.534.126-.701-.0928-.168-.2189-.127-.5322.093-.6998.383-.2933.983-.7326 1.619-1.1988.927-.6796 1.933-1.4165 2.462-1.8417.042-.0341.085-.0689.129-.1042.392-.3171.834-.6747 1.34-.9334.246-.1257.547-.0288.673.2166z" fill="#000" fill-rule="evenodd"/><path clip-rule="evenodd" d="m164.19 69.8183c.036.2733-.157.5239-.431.5598-.97.1272-3.435.4282-5.819.7192-2.138.2611-4.21.514-5.076.6261-.274.0354-.525-.1575-.56-.4308-.036-.2734.157-.5238.431-.5592.898-.1162 2.973-.3694 5.107-.6299 2.364-.2884 4.799-.5856 5.787-.7151.274-.0359.525.1565.561.4299z" fill="#000" fill-rule="evenodd"/><path clip-rule="evenodd" d="m164.032 69.7817c.157.2264.101.5375-.126.6946-.738.5109-1.485 1.0084-2.227 1.5029-.071.0473-.142.0945-.213.1416-.814.5423-1.622 1.0827-2.415 1.6411-.103.0724-.204.1422-.303.2107-.337.2325-.65.4491-.937.6993-.208.1815-.523.1604-.705-.0471s-.161-.5229.047-.7043c.334-.2913.71-.5508 1.053-.7882.093-.0636.182-.1256.269-.1863.804-.5666 1.622-1.1135 2.436-1.6556.071-.047.141-.094.212-.141.744-.4954 1.483-.9879 2.213-1.4933.227-.1572.538-.1009.696.1256z" fill="#000" fill-rule="evenodd"/><path clip-rule="evenodd" d="m161.608 79.5055c-.459-.5234-.964-.9711-1.532-1.4053-.976-.7446-1.84-1.5985-2.684-2.4323-.122-.1205-.243-.2406-.365-.3599-.197-.1934-.199-.5094-.005-.7059.193-.1965.51-.199.707-.0056.124.1221.247.2437.37.3647.848.8375 1.663 1.643 2.584 2.3461.606.4626 1.164.9548 1.678 1.541.181.2075.16.5228-.048.7043-.207.1815-.523.1604-.705-.0471z" fill="#000" fill-rule="evenodd"/><path clip-rule="evenodd" d="m155.03 80.5706c-.143.2353-.451.3097-.687.1661-2.148-1.3088-4.05-2.8149-5.975-4.3399-.288-.2284-.577-.4571-.867-.6857-.217-.1708-.254-.4846-.083-.7011.171-.2164.486-.2534.703-.0826.293.2313.584.4616.873.6905 1.929 1.5275 3.778 2.9922 5.87 4.2666.236.1436.31.4508.166.6861z" fill="#000" fill-rule="evenodd"/><path clip-rule="evenodd" d="m163.517 79.0462c.011.2755-.205.5071-.481.5174-1.568.0584-3.128.1032-4.685.1479-2.066.0593-4.128.1185-6.201.2093-.276.0121-.509-.2014-.521-.4768s.201-.5085.477-.5206c2.072-.0907 4.155-.1505 6.233-.2103 1.558-.0448 3.114-.0895 4.66-.1471.276-.0103.508.2047.518.4802z" fill="#000" fill-rule="evenodd"/><path clip-rule="evenodd" d="m158.118 74.9771c-.005.2756-.233.4951-.509.4902-2.044-.036-4.06.0558-6.097.1485-1.077.049-2.16.0983-3.255.1291-.276.0077-.506-.2094-.514-.4849-.007-.2756.21-.5053.486-.513 1.058-.0297 2.122-.0781 3.191-.1266 2.059-.0935 4.134-.1878 6.207-.1512.276.0049.496.2322.491.5079z" fill="#000" fill-rule="evenodd"/><path clip-rule="evenodd" d="m134.585 74.615c.272.0471.454.3055.407.5771-.01.0599-.02.119-.029.1771.003.0065.005.0131.008.0198.056.1584.027.3261-.063.4537-.065.7897.024 1.3832.12 1.8138.031.138.063.2609.093.3743.002.0098.005.0197.008.0296.026.0989.053.2001.071.2888.02.0906.043.2196.03.3513-.014.1524-.081.3521-.28.4848-.166.1102-.348.1199-.459.1175-.124-.0027-.26-.0239-.399-.0518-.269-.054-.643-.1531-1.132-.2828l-.054-.0144c-1.045-.2767-2.688-.7107-5.245-1.2448-.835-.1745-1.431-.3128-1.82-.4242-.191-.0547-.354-.1089-.476-.1655-.058-.0266-.137-.0677-.208-.1288-.053-.0451-.233-.2147-.197-.491.035-.2649.241-.3837.294-.4127.078-.0423.159-.0654.215-.0791.12-.0291.269-.048.424-.0624.317-.0294.757-.0476 1.262-.0653.136-.0047.277-.0094.422-.0143.953-.0318 2.106-.0703 3.25-.1659 1.163-.0971 2.281-.2507 3.151-.5022.009-.0579.018-.1166.029-.176.047-.2716.306-.4537.578-.4066zm-.698 1.6399c-.9.2213-1.949.3539-2.976.4397-.877.0732-1.759.1137-2.545.1428 2.298.4911 3.814.8912 4.796 1.1515l.017.0044c.424.1125.734.1946.963.2471-.028-.1056-.059-.2286-.09-.3663-.092-.4131-.177-.9483-.165-1.6192zm.639 2.0495c0 .0001-.002.0003-.006.0004.004-.0005.006-.0005.006-.0004zm-8.753-2.0973c0-.0001 0 .0003.001.001-.001-.0007-.002-.001-.001-.001zm-.077.7732c-.002.0005-.002.0007-.002.0007z" fill="#000" fill-rule="evenodd"/><path d="m110.911 52.0998c0 .1025-.042.2563-.126.4612-.075.1957-.168.4612-.28.7967-.103.3261-.21.7314-.322 1.2159-.112.4752-.196 1.0389-.252 1.6911-.009.1211-.019.219-.028.2935 0 .0745-.005.1398-.014.1957v.1537.1817c0 .0652.005.1118.014.1398.019.0372.028.0791.028.1257 0 .2143-.112.3215-.336.3215-.103 0-.201-.0513-.294-.1537-.084-.1025-.121-.2143-.112-.3355.009-.1211.028-.3447.056-.6708.037-.3261.079-.6849.126-1.0762.056-.3913.117-.778.182-1.16s.135-.6895.21-.9224c-.103.0559-.219.1118-.35.1677s-.271.1071-.42.1537c-.149.0373-.294.0699-.434.0979-.14.0279-.266.0419-.378.0419-.392 0-.719-.1351-.98-.4053s-.392-.6103-.392-1.0203c0-.2422.051-.4565.154-.6429.112-.1863.247-.3401.406-.4612.168-.1304.345-.2283.532-.2935s.359-.0978.518-.0978c.383 0 .691.0652.924.1956.243.1305.443.4193.602.8666.009.0186.014.0465.014.0838.009.028.014.0466.014.0559 0 .0373-.009.0746-.028.1118-.009.028-.014.0606-.014.0979 0 .0093.009.0419.028.0978.103-.0559.187-.1584.252-.3075.075-.1491.163-.2842.266-.4053.019 0 .051.014.098.0419.047.028.093.0653.14.1119.056.0372.103.0792.14.1257.037.0466.056.0886.056.1258zm-1.302.573c0-.0838-.019-.1863-.056-.3074-.028-.1305-.084-.2516-.168-.3634-.075-.1211-.177-.219-.308-.2935-.131-.0839-.294-.1258-.49-.1258-.14 0-.28.0233-.42.0699s-.266.1071-.378.1817c-.112.0745-.205.1677-.28.2795-.065.1025-.098.2143-.098.3354 0 .2702.084.4519.252.5451.168.0839.373.1258.616.1258.121 0 .257-.014.406-.042.159-.0279.303-.0605.434-.0978.14-.0466.257-.0932.35-.1397.093-.0559.14-.1119.14-.1678z" fill="#000"/><path d="m116.656 52.0998c0 .1025-.042.2563-.126.4612-.074.1957-.168.4612-.28.7967-.102.3261-.21.7314-.322 1.2159-.112.4752-.196 1.0389-.252 1.6911-.009.1211-.018.219-.028.2935 0 .0745-.004.1398-.014.1957v.1537.1817c0 .0652.005.1118.014.1398.019.0372.028.0791.028.1257 0 .2143-.112.3215-.336.3215-.102 0-.2-.0513-.294-.1537-.084-.1025-.121-.2143-.112-.3355.01-.1211.028-.3447.056-.6708.038-.3261.08-.6849.126-1.0762.056-.3913.117-.778.182-1.16.066-.382.136-.6895.21-.9224-.102.0559-.219.1118-.35.1677-.13.0559-.27.1071-.42.1537-.149.0373-.294.0699-.434.0979-.14.0279-.266.0419-.378.0419-.392 0-.718-.1351-.98-.4053-.261-.2702-.392-.6103-.392-1.0203 0-.2422.052-.4565.154-.6429.112-.1863.248-.3401.406-.4612.168-.1304.346-.2283.532-.2935.187-.0652.36-.0978.518-.0978.383 0 .691.0652.924.1956.243.1305.444.4193.602.8666.01.0186.014.0465.014.0838.01.028.014.0466.014.0559 0 .0373-.009.0746-.028.1118-.009.028-.014.0606-.014.0979 0 .0093.01.0419.028.0978.103-.0559.187-.1584.252-.3075.075-.1491.164-.2842.266-.4053.019 0 .052.014.098.0419.047.028.094.0653.14.1119.056.0372.103.0792.14.1257.038.0466.056.0886.056.1258zm-1.302.573c0-.0838-.018-.1863-.056-.3074-.028-.1305-.084-.2516-.168-.3634-.074-.1211-.177-.219-.308-.2935-.13-.0839-.294-.1258-.49-.1258-.14 0-.28.0233-.42.0699s-.266.1071-.378.1817c-.112.0745-.205.1677-.28.2795-.065.1025-.098.2143-.098.3354 0 .2702.084.4519.252.5451.168.0839.374.1258.616.1258.122 0 .257-.014.406-.042.159-.0279.304-.0605.434-.0978.14-.0466.257-.0932.35-.1397.094-.0559.14-.1119.14-.1678z" fill="#000"/><path d="m119.014 55.9433c0 .0559-.028.1118-.084.1677-.056.0466-.121.0931-.196.1397-.065.0373-.131.0699-.196.0979-.065.0186-.103.0279-.112.0279-.084 0-.149-.0186-.196-.0559-.037-.0466-.07-.0932-.098-.1398-.019-.0559-.033-.1071-.042-.1537 0-.0466 0-.0792 0-.0978 0-.0373.009-.0839.028-.1398.019-.0652.047-.1258.084-.1817s.079-.1025.126-.1397c.056-.0466.117-.0699.182-.0699.121 0 .233.0512.336.1537.112.1025.168.233.168.3914z" fill="#000"/><path d="m124.483 52.0998c0 .1025-.042.2563-.126.4612-.074.1957-.168.4612-.28.7967-.102.3261-.21.7314-.322 1.2159-.112.4752-.196 1.0389-.252 1.6911-.009.1211-.018.219-.028.2935 0 .0745-.004.1398-.014.1957v.1537.1817c0 .0652.005.1118.014.1398.019.0372.028.0791.028.1257 0 .2143-.112.3215-.336.3215-.102 0-.2-.0513-.294-.1537-.084-.1025-.121-.2143-.112-.3355.01-.1211.028-.3447.056-.6708.038-.3261.08-.6849.126-1.0762.056-.3913.117-.778.182-1.16.066-.382.136-.6895.21-.9224-.102.0559-.219.1118-.35.1677-.13.0559-.27.1071-.42.1537-.149.0373-.294.0699-.434.0979-.14.0279-.266.0419-.378.0419-.392 0-.718-.1351-.98-.4053-.261-.2702-.392-.6103-.392-1.0203 0-.2422.052-.4565.154-.6429.112-.1863.248-.3401.406-.4612.168-.1304.346-.2283.532-.2935.187-.0652.36-.0978.518-.0978.383 0 .691.0652.924.1956.243.1305.444.4193.602.8666.01.0186.014.0465.014.0838.01.028.014.0466.014.0559 0 .0373-.009.0746-.028.1118-.009.028-.014.0606-.014.0979 0 .0093.01.0419.028.0978.103-.0559.187-.1584.252-.3075.075-.1491.164-.2842.266-.4053.019 0 .052.014.098.0419.047.028.094.0653.14.1119.056.0372.103.0792.14.1257.038.0466.056.0886.056.1258zm-1.302.573c0-.0838-.018-.1863-.056-.3074-.028-.1305-.084-.2516-.168-.3634-.074-.1211-.177-.219-.308-.2935-.13-.0839-.294-.1258-.49-.1258-.14 0-.28.0233-.42.0699s-.266.1071-.378.1817c-.112.0745-.205.1677-.28.2795-.065.1025-.098.2143-.098.3354 0 .2702.084.4519.252.5451.168.0839.374.1258.616.1258.122 0 .257-.014.406-.042.159-.0279.304-.0605.434-.0978.14-.0466.257-.0932.35-.1397.094-.0559.14-.1119.14-.1678z" fill="#000"/><path d="m130.229 52.0998c0 .1025-.042.2563-.126.4612-.075.1957-.168.4612-.28.7967-.103.3261-.21.7314-.322 1.2159-.112.4752-.196 1.0389-.252 1.6911-.01.1211-.019.219-.028.2935 0 .0745-.005.1398-.014.1957v.1537.1817c0 .0652.004.1118.014.1398.018.0372.028.0791.028.1257 0 .2143-.112.3215-.336.3215-.103 0-.201-.0513-.294-.1537-.084-.1025-.122-.2143-.112-.3355.009-.1211.028-.3447.056-.6708.037-.3261.079-.6849.126-1.0762.056-.3913.116-.778.182-1.16.065-.382.135-.6895.21-.9224-.103.0559-.22.1118-.35.1677-.131.0559-.271.1071-.42.1537-.15.0373-.294.0699-.434.0979-.14.0279-.266.0419-.378.0419-.392 0-.719-.1351-.98-.4053-.262-.2702-.392-.6103-.392-1.0203 0-.2422.051-.4565.154-.6429.112-.1863.247-.3401.406-.4612.168-.1304.345-.2283.532-.2935.186-.0652.359-.0978.518-.0978.382 0 .69.0652.924.1956.242.1305.443.4193.602.8666.009.0186.014.0465.014.0838.009.028.014.0466.014.0559 0 .0373-.01.0746-.028.1118-.01.028-.014.0606-.014.0979 0 .0093.009.0419.028.0978.102-.0559.186-.1584.252-.3075.074-.1491.163-.2842.266-.4053.018 0 .051.014.098.0419.046.028.093.0653.14.1119.056.0372.102.0792.14.1257.037.0466.056.0886.056.1258zm-1.302.573c0-.0838-.019-.1863-.056-.3074-.028-.1305-.084-.2516-.168-.3634-.075-.1211-.178-.219-.308-.2935-.131-.0839-.294-.1258-.49-.1258-.14 0-.28.0233-.42.0699s-.266.1071-.378.1817c-.112.0745-.206.1677-.28.2795-.066.1025-.098.2143-.098.3354 0 .2702.084.4519.252.5451.168.0839.373.1258.616.1258.121 0 .256-.014.406-.042.158-.0279.303-.0605.434-.0978.14-.0466.256-.0932.35-.1397.093-.0559.14-.1119.14-.1678z" fill="#000"/><path d="m139.166 54.0425c0 .1398-.032.3354-.098.587-.056.2516-.144.5031-.266.7547-.112.2423-.261.4566-.448.6429-.177.177-.387.2656-.63.2656-.112 0-.233-.0094-.364-.028-.121-.028-.238-.0699-.35-.1258-.102-.0559-.186-.1304-.252-.2236-.065-.1025-.098-.2283-.098-.3774 0-.0838.024-.1863.07-.3074.047-.1212.108-.233.182-.3355.075-.1118.159-.2049.252-.2795.103-.0745.206-.1118.308-.1118.056 0 .122.028.196.0839.075.0466.112.0978.112.1537 0 .0652-.023.1304-.07.1957-.037.0652-.079.1304-.126.1956-.046.0653-.093.1305-.14.1957-.037.0652-.056.1351-.056.2096 0 .0466.014.0839.042.1119.038.0279.066.0419.084.0419.14 0 .271-.0559.392-.1677.122-.1118.229-.2423.322-.3914.103-.149.182-.2981.238-.4472.056-.1584.084-.2795.084-.3634 0-.0466-.028-.0699-.084-.0699-.028 0-.079.0187-.154.0559-.065.0373-.13.056-.196.056-.084 0-.149-.0373-.196-.1119-.046-.0745-.07-.1257-.07-.1537 0-.0373.019-.0839.056-.1398.038-.0559.084-.1118.14-.1677s.112-.1025.168-.1397c.056-.0373.108-.0559.154-.0559.056 0 .131.0046.224.0139.094.0094.182.0327.266.0699.084.028.154.0746.21.1398.066.0559.098.1304.098.2236zm-.07-6.0237c-.298.4845-.625.983-.98 1.4954-.354.5125-.676 1.0343-.966 1.5654-.046.0838-.14.2562-.28.5171s-.298.5637-.476.9084c-.168.3355-.35.6895-.546 1.0622-.186.3727-.364.7221-.532 1.0482-.158.3168-.289.587-.392.8106-.102.2143-.154.3355-.154.3634l-.364.7547c-.093.1864-.177.3634-.252.5311-.065.1677-.098.2562-.098.2656-.065.1584-.121.3028-.168.4332-.046.1118-.088.2236-.126.3354-.028.1119-.042.1911-.042.2376 0 .028.014.0839.042.1678.038.0931.056.1537.056.1816 0 .1025-.046.1957-.14.2796-.093.0931-.163.1397-.21.1397-.177 0-.303-.0652-.378-.1956-.065-.1305-.098-.2609-.098-.3914 0-.1956.075-.4985.224-.9084.159-.41.355-.8712.588-1.3837.234-.5124.49-1.0435.77-1.5932.28-.5591.546-1.0855.798-1.5793.262-.5032.49-.9411.686-1.3138.196-.382.327-.6475.392-.7966 0-.0093-.056.0046-.168.0419-.112.028-.247.0652-.406.1118-.149.0373-.308.0746-.476.1118-.158.0373-.284.0559-.378.0559-.158 0-.303-.0139-.434-.0419-.13-.0373-.256-.0745-.378-.1118-.121-.0466-.242-.0839-.364-.1118-.121-.0373-.242-.0606-.364-.0699-.018 0-.056.0326-.112.0978-.046.0653-.107.1398-.182.2237-.074.0745-.163.1444-.266.2096-.102.0652-.214.0978-.336.0978-.242 0-.42-.0559-.532-.1677-.102-.1118-.154-.2329-.154-.3634 0-.149.038-.3074.112-.4751.084-.1771.187-.3355.308-.4752.131-.1491.271-.2702.42-.3634.159-.0932.318-.1398.476-.1398.084 0 .187.0373.308.1118.131.0746.196.1491.196.2237 0 .0093-.023.0465-.07.1118-.037.0652-.084.1071-.14.1257.01 0 .066.028.168.0839.112.0466.243.1025.392.1677.159.0559.318.1118.476.1677.168.0466.318.0699.448.0699.411 0 .77-.0745 1.078-.2236s.579-.3354.812-.5591c.234-.2329.434-.4798.602-.7407.168-.2702.318-.5171.448-.7407.131-.233.248-.424.35-.573.112-.1491.224-.2237.336-.2237.103 0 .206.0373.308.1118.112.0746.168.1817.168.3215zm-6.034 2.2641c-.102 0-.214.0513-.336.1538-.112.1025-.168.2329-.168.3913 0 .0373.019.0559.056.0559.028 0 .066-.028.112-.0839.056-.0652.108-.1351.154-.2096.056-.0745.098-.1444.126-.2096.038-.0653.056-.0979.056-.0979z" fill="#000"/><path d="m110.911 52.0998c0 .1025-.042.2563-.126.4612-.075.1957-.168.4612-.28.7967-.103.3261-.21.7314-.322 1.2159-.112.4752-.196 1.0389-.252 1.6911-.009.1211-.019.219-.028.2935 0 .0745-.005.1398-.014.1957v.1537.1817c0 .0652.005.1118.014.1398.019.0372.028.0791.028.1257 0 .2143-.112.3215-.336.3215-.103 0-.201-.0513-.294-.1537-.084-.1025-.121-.2143-.112-.3355.009-.1211.028-.3447.056-.6708.037-.3261.079-.6849.126-1.0762.056-.3913.117-.778.182-1.16s.135-.6895.21-.9224c-.103.0559-.219.1118-.35.1677s-.271.1071-.42.1537c-.149.0373-.294.0699-.434.0979-.14.0279-.266.0419-.378.0419-.392 0-.719-.1351-.98-.4053s-.392-.6103-.392-1.0203c0-.2422.051-.4565.154-.6429.112-.1863.247-.3401.406-.4612.168-.1304.345-.2283.532-.2935s.359-.0978.518-.0978c.383 0 .691.0652.924.1956.243.1305.443.4193.602.8666.009.0186.014.0465.014.0838.009.028.014.0466.014.0559 0 .0373-.009.0746-.028.1118-.009.028-.014.0606-.014.0979 0 .0093.009.0419.028.0978.103-.0559.187-.1584.252-.3075.075-.1491.163-.2842.266-.4053.019 0 .051.014.098.0419.047.028.093.0653.14.1119.056.0372.103.0792.14.1257.037.0466.056.0886.056.1258zm-1.302.573c0-.0838-.019-.1863-.056-.3074-.028-.1305-.084-.2516-.168-.3634-.075-.1211-.177-.219-.308-.2935-.131-.0839-.294-.1258-.49-.1258-.14 0-.28.0233-.42.0699s-.266.1071-.378.1817c-.112.0745-.205.1677-.28.2795-.065.1025-.098.2143-.098.3354 0 .2702.084.4519.252.5451.168.0839.373.1258.616.1258.121 0 .257-.014.406-.042.159-.0279.303-.0605.434-.0978.14-.0466.257-.0932.35-.1397.093-.0559.14-.1119.14-.1678z" mask="url(#a)" stroke="#000" stroke-width=".2"/><path d="m116.656 52.0998c0 .1025-.042.2563-.126.4612-.074.1957-.168.4612-.28.7967-.102.3261-.21.7314-.322 1.2159-.112.4752-.196 1.0389-.252 1.6911-.009.1211-.018.219-.028.2935 0 .0745-.004.1398-.014.1957v.1537.1817c0 .0652.005.1118.014.1398.019.0372.028.0791.028.1257 0 .2143-.112.3215-.336.3215-.102 0-.2-.0513-.294-.1537-.084-.1025-.121-.2143-.112-.3355.01-.1211.028-.3447.056-.6708.038-.3261.08-.6849.126-1.0762.056-.3913.117-.778.182-1.16.066-.382.136-.6895.21-.9224-.102.0559-.219.1118-.35.1677-.13.0559-.27.1071-.42.1537-.149.0373-.294.0699-.434.0979-.14.0279-.266.0419-.378.0419-.392 0-.718-.1351-.98-.4053-.261-.2702-.392-.6103-.392-1.0203 0-.2422.052-.4565.154-.6429.112-.1863.248-.3401.406-.4612.168-.1304.346-.2283.532-.2935.187-.0652.36-.0978.518-.0978.383 0 .691.0652.924.1956.243.1305.444.4193.602.8666.01.0186.014.0465.014.0838.01.028.014.0466.014.0559 0 .0373-.009.0746-.028.1118-.009.028-.014.0606-.014.0979 0 .0093.01.0419.028.0978.103-.0559.187-.1584.252-.3075.075-.1491.164-.2842.266-.4053.019 0 .052.014.098.0419.047.028.094.0653.14.1119.056.0372.103.0792.14.1257.038.0466.056.0886.056.1258zm-1.302.573c0-.0838-.018-.1863-.056-.3074-.028-.1305-.084-.2516-.168-.3634-.074-.1211-.177-.219-.308-.2935-.13-.0839-.294-.1258-.49-.1258-.14 0-.28.0233-.42.0699s-.266.1071-.378.1817c-.112.0745-.205.1677-.28.2795-.065.1025-.098.2143-.098.3354 0 .2702.084.4519.252.5451.168.0839.374.1258.616.1258.122 0 .257-.014.406-.042.159-.0279.304-.0605.434-.0978.14-.0466.257-.0932.35-.1397.094-.0559.14-.1119.14-.1678z" mask="url(#a)" stroke="#000" stroke-width=".2"/><path d="m119.014 55.9433c0 .0559-.028.1118-.084.1677-.056.0466-.121.0931-.196.1397-.065.0373-.131.0699-.196.0979-.065.0186-.103.0279-.112.0279-.084 0-.149-.0186-.196-.0559-.037-.0466-.07-.0932-.098-.1398-.019-.0559-.033-.1071-.042-.1537 0-.0466 0-.0792 0-.0978 0-.0373.009-.0839.028-.1398.019-.0652.047-.1258.084-.1817s.079-.1025.126-.1397c.056-.0466.117-.0699.182-.0699.121 0 .233.0512.336.1537.112.1025.168.233.168.3914z" mask="url(#a)" stroke="#000" stroke-width=".2"/><path d="m124.483 52.0998c0 .1025-.042.2563-.126.4612-.074.1957-.168.4612-.28.7967-.102.3261-.21.7314-.322 1.2159-.112.4752-.196 1.0389-.252 1.6911-.009.1211-.018.219-.028.2935 0 .0745-.004.1398-.014.1957v.1537.1817c0 .0652.005.1118.014.1398.019.0372.028.0791.028.1257 0 .2143-.112.3215-.336.3215-.102 0-.2-.0513-.294-.1537-.084-.1025-.121-.2143-.112-.3355.01-.1211.028-.3447.056-.6708.038-.3261.08-.6849.126-1.0762.056-.3913.117-.778.182-1.16.066-.382.136-.6895.21-.9224-.102.0559-.219.1118-.35.1677-.13.0559-.27.1071-.42.1537-.149.0373-.294.0699-.434.0979-.14.0279-.266.0419-.378.0419-.392 0-.718-.1351-.98-.4053-.261-.2702-.392-.6103-.392-1.0203 0-.2422.052-.4565.154-.6429.112-.1863.248-.3401.406-.4612.168-.1304.346-.2283.532-.2935.187-.0652.36-.0978.518-.0978.383 0 .691.0652.924.1956.243.1305.444.4193.602.8666.01.0186.014.0465.014.0838.01.028.014.0466.014.0559 0 .0373-.009.0746-.028.1118-.009.028-.014.0606-.014.0979 0 .0093.01.0419.028.0978.103-.0559.187-.1584.252-.3075.075-.1491.164-.2842.266-.4053.019 0 .052.014.098.0419.047.028.094.0653.14.1119.056.0372.103.0792.14.1257.038.0466.056.0886.056.1258zm-1.302.573c0-.0838-.018-.1863-.056-.3074-.028-.1305-.084-.2516-.168-.3634-.074-.1211-.177-.219-.308-.2935-.13-.0839-.294-.1258-.49-.1258-.14 0-.28.0233-.42.0699s-.266.1071-.378.1817c-.112.0745-.205.1677-.28.2795-.065.1025-.098.2143-.098.3354 0 .2702.084.4519.252.5451.168.0839.374.1258.616.1258.122 0 .257-.014.406-.042.159-.0279.304-.0605.434-.0978.14-.0466.257-.0932.35-.1397.094-.0559.14-.1119.14-.1678z" mask="url(#a)" stroke="#000" stroke-width=".2"/><path d="m130.229 52.0998c0 .1025-.042.2563-.126.4612-.075.1957-.168.4612-.28.7967-.103.3261-.21.7314-.322 1.2159-.112.4752-.196 1.0389-.252 1.6911-.01.1211-.019.219-.028.2935 0 .0745-.005.1398-.014.1957v.1537.1817c0 .0652.004.1118.014.1398.018.0372.028.0791.028.1257 0 .2143-.112.3215-.336.3215-.103 0-.201-.0513-.294-.1537-.084-.1025-.122-.2143-.112-.3355.009-.1211.028-.3447.056-.6708.037-.3261.079-.6849.126-1.0762.056-.3913.116-.778.182-1.16.065-.382.135-.6895.21-.9224-.103.0559-.22.1118-.35.1677-.131.0559-.271.1071-.42.1537-.15.0373-.294.0699-.434.0979-.14.0279-.266.0419-.378.0419-.392 0-.719-.1351-.98-.4053-.262-.2702-.392-.6103-.392-1.0203 0-.2422.051-.4565.154-.6429.112-.1863.247-.3401.406-.4612.168-.1304.345-.2283.532-.2935.186-.0652.359-.0978.518-.0978.382 0 .69.0652.924.1956.242.1305.443.4193.602.8666.009.0186.014.0465.014.0838.009.028.014.0466.014.0559 0 .0373-.01.0746-.028.1118-.01.028-.014.0606-.014.0979 0 .0093.009.0419.028.0978.102-.0559.186-.1584.252-.3075.074-.1491.163-.2842.266-.4053.018 0 .051.014.098.0419.046.028.093.0653.14.1119.056.0372.102.0792.14.1257.037.0466.056.0886.056.1258zm-1.302.573c0-.0838-.019-.1863-.056-.3074-.028-.1305-.084-.2516-.168-.3634-.075-.1211-.178-.219-.308-.2935-.131-.0839-.294-.1258-.49-.1258-.14 0-.28.0233-.42.0699s-.266.1071-.378.1817c-.112.0745-.206.1677-.28.2795-.066.1025-.098.2143-.098.3354 0 .2702.084.4519.252.5451.168.0839.373.1258.616.1258.121 0 .256-.014.406-.042.158-.0279.303-.0605.434-.0978.14-.0466.256-.0932.35-.1397.093-.0559.14-.1119.14-.1678z" mask="url(#a)" stroke="#000" stroke-width=".2"/><path d="m139.166 54.0425c0 .1398-.032.3354-.098.587-.056.2516-.144.5031-.266.7547-.112.2423-.261.4566-.448.6429-.177.177-.387.2656-.63.2656-.112 0-.233-.0094-.364-.028-.121-.028-.238-.0699-.35-.1258-.102-.0559-.186-.1304-.252-.2236-.065-.1025-.098-.2283-.098-.3774 0-.0838.024-.1863.07-.3074.047-.1212.108-.233.182-.3355.075-.1118.159-.2049.252-.2795.103-.0745.206-.1118.308-.1118.056 0 .122.028.196.0839.075.0466.112.0978.112.1537 0 .0652-.023.1304-.07.1957-.037.0652-.079.1304-.126.1956-.046.0653-.093.1305-.14.1957-.037.0652-.056.1351-.056.2096 0 .0466.014.0839.042.1119.038.0279.066.0419.084.0419.14 0 .271-.0559.392-.1677.122-.1118.229-.2423.322-.3914.103-.149.182-.2981.238-.4472.056-.1584.084-.2795.084-.3634 0-.0466-.028-.0699-.084-.0699-.028 0-.079.0187-.154.0559-.065.0373-.13.056-.196.056-.084 0-.149-.0373-.196-.1119-.046-.0745-.07-.1257-.07-.1537 0-.0373.019-.0839.056-.1398.038-.0559.084-.1118.14-.1677s.112-.1025.168-.1397c.056-.0373.108-.0559.154-.0559.056 0 .131.0046.224.0139.094.0094.182.0327.266.0699.084.028.154.0746.21.1398.066.0559.098.1304.098.2236zm-.07-6.0237c-.298.4845-.625.983-.98 1.4954-.354.5125-.676 1.0343-.966 1.5654-.046.0838-.14.2562-.28.5171s-.298.5637-.476.9084c-.168.3355-.35.6895-.546 1.0622-.186.3727-.364.7221-.532 1.0482-.158.3168-.289.587-.392.8106-.102.2143-.154.3355-.154.3634l-.364.7547c-.093.1864-.177.3634-.252.5311-.065.1677-.098.2562-.098.2656-.065.1584-.121.3028-.168.4332-.046.1118-.088.2236-.126.3354-.028.1119-.042.1911-.042.2376 0 .028.014.0839.042.1678.038.0931.056.1537.056.1816 0 .1025-.046.1957-.14.2796-.093.0931-.163.1397-.21.1397-.177 0-.303-.0652-.378-.1956-.065-.1305-.098-.2609-.098-.3914 0-.1956.075-.4985.224-.9084.159-.41.355-.8712.588-1.3837.234-.5124.49-1.0435.77-1.5932.28-.5591.546-1.0855.798-1.5793.262-.5032.49-.9411.686-1.3138.196-.382.327-.6475.392-.7966 0-.0093-.056.0046-.168.0419-.112.028-.247.0652-.406.1118-.149.0373-.308.0746-.476.1118-.158.0373-.284.0559-.378.0559-.158 0-.303-.0139-.434-.0419-.13-.0373-.256-.0745-.378-.1118-.121-.0466-.242-.0839-.364-.1118-.121-.0373-.242-.0606-.364-.0699-.018 0-.056.0326-.112.0978-.046.0653-.107.1398-.182.2237-.074.0745-.163.1444-.266.2096-.102.0652-.214.0978-.336.0978-.242 0-.42-.0559-.532-.1677-.102-.1118-.154-.2329-.154-.3634 0-.149.038-.3074.112-.4751.084-.1771.187-.3355.308-.4752.131-.1491.271-.2702.42-.3634.159-.0932.318-.1398.476-.1398.084 0 .187.0373.308.1118.131.0746.196.1491.196.2237 0 .0093-.023.0465-.07.1118-.037.0652-.084.1071-.14.1257.01 0 .066.028.168.0839.112.0466.243.1025.392.1677.159.0559.318.1118.476.1677.168.0466.318.0699.448.0699.411 0 .77-.0745 1.078-.2236s.579-.3354.812-.5591c.234-.2329.434-.4798.602-.7407.168-.2702.318-.5171.448-.7407.131-.233.248-.424.35-.573.112-.1491.224-.2237.336-.2237.103 0 .206.0373.308.1118.112.0746.168.1817.168.3215zm-6.034 2.2641c-.102 0-.214.0513-.336.1538-.112.1025-.168.2329-.168.3913 0 .0373.019.0559.056.0559.028 0 .066-.028.112-.0839.056-.0652.108-.1351.154-.2096.056-.0745.098-.1444.126-.2096.038-.0653.056-.0979.056-.0979z" mask="url(#a)" stroke="#000" stroke-width=".2"/><path d="m73.9947 126.683h17.0717.8889c11.6777-.532 36.0637-.603 40.1887 3.374 5.157 4.97 6.402 13.491 5.335 18.285-1.067 4.793 4.624 9.586 14.049 7.456 9.424-2.131 22.762 1.242 38.588 6.035 12.662 3.835 41.434 4.32 54.238 4.083l-32.721 13.137c-3.556-.177-11.736-.426-16.004 0-5.335.533-26.852-5.681-32.543-7.811-4.552-1.704-12.329 0-15.648 1.065-4.92.414-15.898.781-20.451-1.065-4.348-1.763-1.579-3.019.589-3.489-5.95 1.201-18.759 3.489-24.773 3.489-6.1175 0-7.5282-2.367-7.4689-3.55-3.3788 2.071-11.7367 6.142-18.1385 5.858-8.0022-.355-10.4917-3.551-11.7365-5.858-1.2448-2.308 4.6235-29.647 4.6235-33.197 0-2.841 2.6081-6.391 3.9121-7.812z" fill="#f6f1ff"/><path clip-rule="evenodd" d="m95.2662 39.652c.2698-.0587.5362.1121.595.3815 5.5338 25.3631 5.8398 50.4937-.2623 75.7985-.1685.699-.2352 1.511-.3095 2.416-.033.402-.0676.823-.1132 1.26-.1437 1.376-.3976 2.859-1.1204 4.146-.7355 1.309-1.9367 2.38-3.8968 2.962-1.0932.324-2.4174.494-4.0246.475 1.4266.636 2.6578 1.46 3.7159 2.434 2.9902 2.753 4.529 6.653 5.2516 10.739 1.2 6.788.1726 14.286-.381 18.327-.1111.811-.2032 1.482-.2542 1.981-.4181 4.08.1039 6.732 1.2066 8.415 1.0873 1.66 2.8007 2.47 5.0037 2.728 2.217.259 4.873-.049 7.746-.582 1.612-.299 3.248-.659 4.899-1.023 1.317-.29 2.644-.582 3.977-.847 2.806-.558 6.32-1.479 9.723-2.37.554-.145 1.105-.29 1.649-.431 3.858-1.006 7.437-1.901 9.346-2.026.168-.011.357-.027.554-.044.306-.026.632-.053.933-.067.517-.022 1.067-.01 1.591.117.533.13 1.043.381 1.469.834.422.45.729 1.067.912 1.882l.012.054v.055c0 1.394-1.136 2.38-2.478 3.072-1.377.71-3.172 1.218-4.89 1.584-.048.01-.096.02-.143.03 4.841-.05 11.116-.307 17.296-.825 5.625-.472 9.68-.165 13.189.549 2.828.576 5.299 1.418 7.919 2.311.618.211 1.245.424 1.886.637 6.713 2.234 15.33 4.571 34.071 4.013.276-.008.506.208.514.484.008.275-.209.506-.485.514-18.86.562-27.594-1.793-34.416-4.063-.656-.219-1.292-.435-1.916-.648-2.615-.89-5.013-1.707-7.773-2.269-3.404-.694-7.363-.998-12.906-.533-9.291.779-18.813.972-23.412.753-.024-.001-.05-.003-.075-.005-.011-.001-.071-.007-.135-.029-.02-.007-.055-.02-.095-.044-.034-.02-.113-.071-.174-.171-.075-.123-.097-.28-.043-.429.043-.122.121-.192.155-.22.067-.054.133-.078.148-.084h.001c.025-.01.047-.016.061-.019.076-.02.205-.036.326-.051.114-.013.259-.03.429-.049l.113-.013c.22-.025.478-.055.766-.09 1.157-.141 2.807-.367 4.49-.726 1.691-.359 3.382-.846 4.64-1.494 1.263-.651 1.908-1.368 1.936-2.133-.154-.655-.39-1.08-.653-1.36-.268-.286-.595-.454-.976-.547-.389-.095-.83-.11-1.31-.089-.294.013-.567.036-.847.06-.2.018-.403.035-.619.049-1.789.117-5.255.978-9.158 1.996-.541.141-1.09.284-1.642.429-3.401.891-6.949 1.821-9.788 2.385-1.278.254-2.598.544-3.919.835-1.681.369-3.365.74-4.969 1.037-2.891.537-5.671.87-8.046.592-2.3884-.279-4.4226-1.186-5.7236-3.172-1.2855-1.963-1.7924-4.887-1.3645-9.064.0544-.531.1502-1.234.2646-2.072.5554-4.07 1.549-11.352.3806-17.96-.5536-3.131-1.5873-6.067-3.3553-8.418-.1093.028-.2288.02-.339-.031-1.4644-.688-2.6282-.903-3.5573-.804-.9166.097-1.6499.504-2.2583 1.149-1.251 1.328-1.9577 3.647-2.4406 6.264-.2387 1.294-.4182 2.63-.5886 3.913l-.0175.133c-.1632 1.23-.3202 2.413-.5145 3.437-.1992 1.051-.447 1.989-.8122 2.657-.1845.337-.4161.637-.7173.842-.3132.213-.6763.304-1.0725.254-2.7527-.343-4.907-1.988-6.3749-4.127-1.4653-2.135-2.2707-4.793-2.3273-7.253-.0426-1.849.0427-4.974.8632-7.654.4105-1.341 1.0164-2.609 1.9167-3.548.9095-.949 2.1065-1.546 3.6408-1.551 2.0053-.155 3.8177-.103 5.4535.128.1085-.097.2585-.147.4139-.122 3.6087.577 6.1069.467 7.8444-.048 1.7163-.509 2.704-1.416 3.3094-2.493.6181-1.101.8571-2.413.9979-3.761.0393-.377.0711-.763.1027-1.148.0778-.944.1549-1.881.3423-2.658 6.0634-25.1444 5.7624-50.1216.2575-75.353-.0588-.2694.1123-.5353.3821-.594zm-5.8051 90.881c-.0947-.093-.1909-.184-.2889-.274-2.7537-2.536-6.8559-4.035-12.9511-3.562l-.0194.002h-.0194c-1.2524 0-2.2002.473-2.9382 1.243-.7511.784-1.2966 1.888-1.6828 3.15-.7728 2.524-.8617 5.52-.8198 7.339.0524 2.275.8016 4.743 2.1526 6.712 1.3482 1.965 3.2716 3.401 5.6739 3.701.1547.019.2737-.013.3859-.089.1244-.085.2619-.239.4023-.496.2847-.52.5104-1.326.7073-2.363.189-.997.3427-2.156.5076-3.398l.0156-.118c.17-1.28.3525-2.641.5964-3.963.4824-2.614 1.2238-5.205 2.6957-6.767.7529-.799 1.6998-1.332 2.8811-1.458.8091-.086 1.7058.022 2.7012.341z" fill="#000" fill-rule="evenodd"/><path clip-rule="evenodd" d="m131.183 129.53c.209-.181.524-.158.705.05 4.364 5.027 6.012 9.28 6.476 12.826.374 2.855-.028 5.241-.341 7.103-.073.435-.142.842-.195 1.22-.142 1.02-.161 1.77.052 2.348.197.534.623.996 1.579 1.363.978.374 2.461.628 4.682.746 2.213.118 5.121.1 8.925-.046 2.533-.098 7.086-.173 11.376-.039 2.144.067 4.231.186 5.971.382 1.714.194 3.169.469 3.993.883 4.352 2.188 18.418 7.176 32.078 8.029 3.518.219 8.897.328 14.643.444 1.359.027 2.738.055 4.119.085 7.199.155 14.425.364 18.795.855.274.03.472.277.441.551s-.278.471-.553.441c-4.316-.484-11.492-.694-18.705-.849-1.374-.03-2.749-.058-4.105-.085-5.747-.116-11.156-.225-14.698-.446-13.809-.862-28.005-5.892-32.465-8.133-.643-.323-1.927-.588-3.655-.783-1.702-.192-3.759-.31-5.89-.376-4.263-.133-8.792-.058-11.306.038-3.816.147-6.759.166-9.017.046-2.25-.12-3.86-.38-4.987-.811-1.148-.44-1.838-1.076-2.16-1.951-.306-.832-.246-1.802-.103-2.83.057-.412.13-.844.206-1.296.311-1.857.681-4.068.329-6.76-.435-3.323-1.985-7.399-6.24-12.301-.181-.208-.159-.524.05-.704z" fill="#000" fill-rule="evenodd"/><path clip-rule="evenodd" d="m111.314 153.844c-2.809.12-5.628.241-8.451.275-.276.004-.502-.217-.506-.493-.003-.275.218-.502.494-.505 2.755-.033 5.546-.152 8.345-.272 4.738-.202 9.498-.405 14.138-.194.276.012.49.245.477.521-.013.275-.246.488-.522.476-4.607-.209-9.276-.009-13.975.192z" fill="#000" fill-rule="evenodd"/><path clip-rule="evenodd" d="m136.642 159.745c-.573.117-1.168.236-1.792.336-7.14 1.137-14.591 1.095-21.864 1.053-1.988-.011-3.963-.022-5.915-.009-.277.002-.502-.22-.504-.496s.221-.501.497-.502c1.98-.014 3.975-.002 5.975.009 7.262.04 14.603.082 21.653-1.041.6-.096 1.177-.211 1.748-.328.061-.013.122-.025.183-.038.508-.104 1.015-.208 1.523-.296 1.141-.196 2.309-.314 3.593-.171.275.03.473.277.442.551-.03.274-.278.471-.552.441-1.155-.128-2.22-.026-3.313.163-.491.085-.982.185-1.492.29-.061.013-.121.025-.182.038z" fill="#000" fill-rule="evenodd"/><path clip-rule="evenodd" d="m175.409 159.436c.262-.086.545.056.632.317.086.262-.056.544-.318.631l-.157-.474zm-12.049 4.951c-6.551 2.085-13.896 4.357-16.968 5.064-.269.062-.538-.106-.6-.374-.062-.269.106-.537.375-.599 3.023-.696 10.321-2.951 16.89-5.042 3.278-1.044 6.366-2.044 8.635-2.783 1.134-.37 2.064-.674 2.709-.886.323-.106.575-.188.747-.245l.261-.086s0 0 .157.474.157.474.157.474l-.262.086c-.172.057-.424.14-.747.246-.647.212-1.577.516-2.712.886-2.27.74-5.36 1.74-8.642 2.785zm17.324-2.389c.256-.104.548.019.652.274.104.256-.02.547-.275.651l-.189-.463zm-6.688 3.656c-3.904 1.45-8.601 3.087-11.685 3.797-.269.062-.538-.106-.6-.374-.062-.269.106-.537.375-.599 3.012-.693 7.652-2.308 11.561-3.759 1.95-.724 3.709-1.405 4.982-1.904.636-.25 1.15-.454 1.505-.596.178-.071.315-.126.409-.164l.141-.057s0 0 .188.462c.189.463.189.463.189.463l-.144.058c-.094.038-.233.093-.411.165-.357.142-.873.347-1.511.598-1.277.501-3.042 1.184-4.999 1.91z" fill="#000" fill-rule="evenodd"/><path clip-rule="evenodd" d="m196.81 165.918c.258-.098.547.031.645.289s-.031.546-.289.644l-.178-.467zm-5.435 3.187c-3.339 1.323-7.557 3.037-11.086 4.602-.252.112-.548-.001-.66-.253s.002-.547.254-.659c3.547-1.574 7.78-3.293 11.123-4.618 1.672-.663 3.123-1.228 4.156-1.627.516-.199.928-.357 1.211-.465l.325-.124.112-.043s0 0 .178.466c.178.467.178.467.178.467l-.112.042-.323.124c-.282.108-.693.265-1.209.464-1.03.398-2.478.962-4.147 1.624z" fill="#000" fill-rule="evenodd"/><path clip-rule="evenodd" d="m210.991 166.299c.264-.081.544.066.625.33.082.263-.066.543-.33.624l-.148-.477zm-6.636 3.206c-3.912 1.324-8.692 3.034-12.207 4.594-.253.112-.548-.001-.66-.253s.001-.547.254-.659c3.559-1.58 8.376-3.302 12.292-4.628 1.961-.663 3.699-1.228 4.948-1.627.624-.2 1.126-.358 1.472-.466.173-.054.307-.096.398-.124l.139-.043s0 0 .147.477c.148.477.148.477.148.477l-.137.042c-.09.028-.223.069-.395.123-.345.108-.845.266-1.467.465-1.245.398-2.978.961-4.932 1.622z" fill="#000" fill-rule="evenodd"/><path clip-rule="evenodd" d="m243.56 166.027c.062.269-.107.536-.376.597-5.346 1.216-10.636 3.831-16.004 6.485-.452.224-.904.448-1.357.671-5.806 2.859-11.712 5.627-17.762 6.44-.274.037-.526-.155-.563-.428s.155-.524.429-.561c5.865-.788 11.632-3.48 17.453-6.347.459-.225.918-.452 1.377-.68 5.342-2.641 10.737-5.309 16.205-6.553.269-.061.537.107.598.376z" fill="#000" fill-rule="evenodd"/><path clip-rule="evenodd" d="m69.6625 134.037c.2761.003.497.23.4933.505-.0596 4.528-.8008 9.045-1.5289 13.482-.1656 1.009-.3305 2.014-.4865 3.014-.0946.606-.225 1.409-.3754 2.334-.5992 3.688-1.515 9.324-1.7396 12.219-.0064.082-.0127.162-.0188.24-.0749.956-.1243 1.586-.0457 2.158.0802.584.2991 1.127.8486 1.876 1.504 2.051 4.0153 2.698 6.6305 2.948 2.5139.241 6.1066.514 9.8591.054 3.753-.459 7.6267-1.647 10.7312-4.298.2099-.179.5255-.154.705.055.1795.21.1548.525-.055.704-3.3068 2.823-7.3941 4.057-11.2595 4.53-3.8659.474-7.5489.191-10.0761-.051-2.6608-.254-5.5668-.931-7.3421-3.352-.6208-.847-.9242-1.542-1.0324-2.33-.0941-.685-.0354-1.426.0366-2.337.0071-.09.0144-.181.0216-.274.2283-2.943 1.1565-8.654 1.7551-12.337.1484-.913.2766-1.702.3688-2.293.1588-1.017.3255-2.034.4922-3.05.727-4.433 1.4528-8.859 1.5114-13.305.0037-.275.2304-.496.5066-.492z" fill="#000" fill-rule="evenodd"/><path clip-rule="evenodd" d="m69.7804 140.551c.262-.087.5451.055.6323.316.1941.582.3195 1.344.4143 2.209.0954.871.1628 1.881.2305 2.97.0101.162.0201.325.0303.49.1275 2.071.2715 4.41.6106 6.736.7394 5.071 2.3733 9.819 6.4898 11.597.2534.11.37.404.2603.657s-.404.369-.6574.26c-4.657-2.012-6.3424-7.296-7.0822-12.37-.3455-2.369-.4919-4.748-.6189-6.813-.0103-.167-.0204-.332-.0306-.495-.0678-1.092-.134-2.079-.2265-2.923-.0931-.851-.2099-1.525-.369-2.003-.0872-.261.0545-.544.3165-.631z" fill="#000" fill-rule="evenodd"/><path clip-rule="evenodd" d="m94.3224 159.777c.0891.261-.0506.544-.312.633-.7453.254-2.1132.842-3.7786 1.563-.0771.033-.1548.067-.233.101-1.5994.692-3.4301 1.485-5.1742 2.183-1.8233.73-3.5787 1.368-4.8879 1.678-.6444.153-1.2358.241-1.6881.192-.2266-.025-.4769-.089-.6788-.252-.2253-.181-.3333-.438-.3333-.716 0-.276.2238-.499.5-.499.26 0 .4737.198.4977.451.0252.008.0643.017.1223.023.2725.03.7235-.022 1.3492-.17 1.2309-.292 2.9266-.905 4.7467-1.634 1.7308-.692 3.5499-1.48 5.1522-2.173.077-.034.1535-.067.2295-.1 1.6443-.711 3.06-1.322 3.8538-1.592.2614-.089.5455.051.6345.312z" fill="#000" fill-rule="evenodd"/><path clip-rule="evenodd" d="m137.148 166.322c.034.274-.16.523-.434.558-1.613.201-3.161.63-4.753 1.072-.535.148-1.075.298-1.625.441-1.547.403-3.282 1.012-4.303 2.103-.038.042-.055.069-.062.084.009.017.035.058.106.119.233.202.691.413 1.28.609.57.189 1.196.342 1.71.456.256.057.482.103.657.139.014.003.028.006.042.009.144.029.276.056.341.074.266.076.419.352.344.617-.076.265-.353.419-.618.343-.002 0-.009-.002-.024-.005-.017-.004-.04-.009-.068-.015-.052-.011-.118-.025-.198-.041l-.019-.004c-.176-.036-.409-.084-.674-.142-.527-.117-1.191-.279-1.809-.484-.598-.198-1.224-.459-1.619-.802-.201-.173-.402-.419-.446-.744-.047-.347.1-.652.327-.894 1.236-1.322 3.233-1.985 4.781-2.388.514-.134 1.033-.277 1.555-.422 1.61-.447 3.258-.905 4.951-1.116.274-.034.524.16.558.433zm-11.182 4.272s0-.002.001-.006c0 .004-.001.006-.001.006z" fill="#000" fill-rule="evenodd"/><path clip-rule="evenodd" d="m136.195 166.351c.236-.144.544-.07.688.166.031.052.073.112.13.193.034.049.073.105.118.172.11.161.238.358.348.571.198.383.437 1.009.109 1.578-.235.408-.621.676-1.021.858-.403.182-.864.297-1.311.373-.62.106-1.296.148-1.797.18-.201.013-.374.024-.504.036-.941.091-1.892.157-2.834.222-.5.034-.996.068-1.488.106-.276.021-.516-.185-.537-.459-.021-.275.185-.515.46-.536.509-.039 1.014-.074 1.516-.109.933-.064 1.858-.128 2.787-.218.184-.017.392-.03.618-.044.482-.03 1.043-.065 1.61-.162.405-.069.773-.165 1.067-.298.296-.134.475-.287.567-.446.046-.081.054-.265-.131-.624-.082-.159-.184-.317-.286-.467-.028-.041-.058-.084-.088-.128-.07-.1-.14-.202-.187-.278-.144-.236-.069-.543.166-.686z" fill="#000" fill-rule="evenodd"/><path clip-rule="evenodd" d="m140.679 123.027c.237.141.315.447.175.684-1.652 2.777-3.956 4.843-6.417 5.496-3.212.851-7.688 1.173-12.597 1.181-4.919.008-10.309-.298-15.368-.719-10.1162-.843-18.9313-2.146-20.0393-2.317-.2729-.043-.4597-.298-.4174-.57.0424-.272.2979-.459.5708-.417 1.0939.17 9.884 1.469 19.9699 2.309 5.042.42 10.402.724 15.282.716 4.89-.008 9.26-.331 12.343-1.148 2.12-.563 4.241-2.398 5.813-5.041.141-.237.447-.315.685-.174z" fill="#000" fill-rule="evenodd"/></svg>