<svg width="21" height="28" viewBox="0 0 21 28" fill="none" xmlns="http://www.w3.org/2000/svg">
<path fill-rule="evenodd" clip-rule="evenodd" d="M11.3777 3.072C12.5493 1.90043 14.4488 1.90043 15.6203 3.072L18.5773 6.029C19.7489 7.20057 19.7489 9.10006 18.5773 10.2716L17.0988 11.7501L15.2868 9.93813C15.7189 9.35116 15.6694 8.52076 15.1382 7.98961L13.6597 6.51111C13.0739 5.92533 12.1242 5.92533 11.5384 6.51111L7.36005 10.6895C6.77427 11.2753 6.77426 12.225 7.36005 12.8108L8.83855 14.2893C9.3697 14.8204 10.2001 14.87 10.7871 14.4379L12.5991 16.2499L11.1206 17.7284C9.949 18.9 8.0495 18.9 6.87793 17.7284L3.92094 14.7714C2.74937 13.5998 2.74937 11.7003 3.92094 10.5288L11.3777 3.072Z" fill="#0278D5"/>
<path fill-rule="evenodd" clip-rule="evenodd" d="M9.32054 24.928C8.14897 26.0996 6.24947 26.0996 5.0779 24.928L2.1209 21.971C0.949332 20.7994 0.949333 18.8999 2.12091 17.7284L3.5994 16.2499L5.4114 18.0619C4.9793 18.6488 5.02883 19.4792 5.55999 20.0104L7.03849 21.4889C7.62428 22.0747 8.57402 22.0747 9.15981 21.4889L13.3382 17.3105C13.924 16.7248 13.924 15.775 13.3382 15.1892L11.8597 13.7107C11.3285 13.1796 10.4981 13.13 9.91118 13.5621L8.09917 11.7501L9.57767 10.2716C10.7492 9.10003 12.6487 9.10003 13.8203 10.2716L16.7773 13.2286C17.9489 14.4002 17.9489 16.2997 16.7773 17.4712L9.32054 24.928Z" fill="#0278D5"/>
</svg>
    