<svg fill="none" height="137" viewBox="0 0 307 137" width="307" xmlns="http://www.w3.org/2000/svg"><g clip-rule="evenodd" fill-rule="evenodd"><path d="m173.144 4.68535c6.511 3.53703 11.761 9.53915 14.634 18.44435 5.079 15.7442 3.434 27.1213-3.959 34.7185-6.872 7.0628-17.605 9.5182-27.147 10.7738-9.768 1.2853-19.336 1.6097-28.564-.5941-5.58-1.3327-10.937-3.5655-16.081-6.9417-3.918 9.1084-6.896 17.717-7.532 24.0761-.084.8363-.168 1.6527-.25 2.4512-.424 4.1266-.798 7.7739-.835 11.1986-.043 4.0289.402 7.2749 1.576 9.9989 2.168 5.028 7.673 10.09 23.571 13.463 6.15 1.304 17.173 2.266 31.344 2.915 14.057.643 30.878.968 48.424 1.076 35.088.216 72.93-.433 97.057-1.098l.275 9.996c-24.207.668-62.165 1.319-97.393 1.102-17.612-.109-34.579-.435-48.82-1.087-14.127-.647-25.912-1.627-32.962-3.122-17.102-3.628-26.5967-9.816-30.6791-19.287-1.9508-4.526-2.443-9.343-2.3925-14.0641.0421-3.9268.4742-8.1165.8987-12.2335.0796-.7713.1588-1.5401.2352-2.3042.8425-8.4244 4.7984-19.1931 9.3877-29.5374-.672-.6387-1.341-1.3012-2.005-1.9882-10.9802-11.3457-19.9608-10.4296-21.6519-9.7954l-.8489.3183h-64.9067v-10h63.2079c6.4841-1.8748 18.5367-.339 30.6936 11.8199 3.107-6.4168 6.261-12.4923 8.869-17.5166l.011-.0208c2.712-5.2257 4.71-9.0838 5.61-11.2226.978-2.3229 2.74-4.3024 4.626-5.9063 1.94-1.6499 4.306-3.15277 6.901-4.44711 5.181-2.58372 11.667-4.5314 18.375-5.045055 6.702-.513141 13.936.385945 20.331 3.859415zm-56.922 47.15885c.347-.7315.697-1.4625 1.05-2.1921 3.089-6.3948 6.245-12.4747 8.904-17.598l.147-.2837c2.538-4.8882 4.726-9.1037 5.805-11.6653.138-.3293.636-1.1046 1.888-2.1698 1.199-1.0193 2.849-2.1001 4.885-3.1155 4.082-2.0359 9.317-3.6128 14.675-4.0231 5.365-.4108 10.543.3668 14.794 2.676 4.135 2.2456 7.764 6.1322 9.891 12.727 4.499 13.9464 2.143 20.8193-1.608 24.6744-4.272 4.3896-11.828 6.589-21.286 7.8334-9.232 1.2147-17.414 1.3902-24.936-.4061-4.879-1.1652-9.597-3.1883-14.209-6.4572z" fill="#9293ab" opacity=".2"/><path d="m156.664 3.84706c14.29 1.48398 27.032 11.61714 27.697 26.69294.387 8.7676-1.805 16.9239-6.383 22.9006-4.588 5.9894-11.55 9.7556-20.605 9.7556-2.42 0-4.84.0277-7.242.0552-6.407.0732-12.684.145-18.466-.3135-7.954-.6308-15.078-2.2694-20.425-6.3581-.439-.336-.857-.6794-1.257-1.0291-1.48 3.685-2.803 6.9239-3.981 9.8054-1.218 2.9816-2.28 5.5807-3.197 7.8956-3.4728 8.7636-4.8583 13.4278-4.8583 19.4075 0 9.9758 2.6603 18.6948 11.3223 24.9528 8.707 6.29 23.556 10.155 48.104 10.155h147.209c.276 0 .5.224.5.5s-.224.5-.5.5h-147.209c-24.608 0-39.721-3.866-48.689-10.344-9.0117-6.51-11.7373-15.595-11.7373-25.7638 0-6.1791 1.4475-10.9911 4.9283-19.7759.921-2.3257 1.986-4.9318 3.207-7.9188 1.213-2.9687 2.58-6.3137 4.112-10.1335-1.653-1.5738-2.978-3.2509-4.177-4.9209-.544-.7576-1.057-1.507-1.562-2.2434-1.045-1.5257-2.052-2.9954-3.21-4.3663-1.6976-2.0095-3.6835-3.7566-6.484-5.0069-2.8055-1.2524-6.4604-2.0205-11.5129-2.0205-12.0173 0-18.6883 4.3899-22.4848 9.0438-3.1675 3.8827-4.3537 7.9513-4.9579 10.0237-.1257.4314-.2263.7762-.3142 1.0149-2.3961 6.5037-4.2783 10.4298-6.9403 12.6968-2.6955 2.2956-6.1103 2.829-11.333 2.829h-35.17395c-.276147 0-.500005-.2239-.500005-.5 0-.2762.223858-.5.500005-.5h35.17395c5.1993 0 8.2846-.5463 10.6847-2.5903 2.4336-2.0725 4.2424-5.7457 6.6503-12.2812.073-.1983.1612-.5031.2746-.8953.5842-2.0196 1.8392-6.3579 5.1609-10.4298 3.9971-4.8996 10.9591-9.4116 23.2597-9.4116 5.1522 0 8.9541.7831 11.9205 2.1074 2.9714 1.3265 5.0724 3.1819 6.8404 5.2747 1.19 1.4092 2.246 2.9494 3.308 4.4988.498.7265.997 1.4551 1.513 2.1732 1.107 1.5431 2.307 3.0681 3.766 4.5013 2.669-6.671 5.825-14.7544 9.528-24.743 7.248-19.54683 23.21-26.72651 37.54-25.23834zm-46.286 50.71764c.463.4168.951.8244 1.47 1.2207 5.114 3.9113 12.002 5.5295 19.896 6.1556 5.734.4547 11.942.3837 18.331.3107 2.412-.0276 4.85-.0555 7.298-.0555 8.748 0 15.414-3.6243 19.811-9.3638 4.406-5.7522 6.557-13.663 6.178-22.2484-.637-14.4529-12.865-24.29505-26.801-25.74228-13.895-1.44303-29.416 5.49028-36.499 24.59138-3.773 10.177-6.981 18.3836-9.684 25.1316z" fill="#000"/><path d="m293.26 124.177c.101-.257.391-.384.648-.283 3.973 1.558 8.019 2.665 12.169 3.702.267.067.43.339.363.607s-.338.431-.606.364c-4.16-1.04-8.256-2.16-12.291-3.742-.257-.101-.384-.391-.283-.648z" fill="#000"/><path d="m305.992 127.91c.094.26-.04.547-.299.641-1.162.422-2.193.793-3.132 1.13-2.937 1.055-4.974 1.787-7.264 2.768-.254.109-.548-.009-.657-.263-.109-.253.009-.547.263-.656 2.32-.994 4.393-1.739 7.34-2.797.936-.336 1.96-.704 3.108-1.122.259-.094.546.04.641.299z" fill="#000"/><path d="m177.361 126.741c.124.247.024.548-.223.671-3.48 1.74-5.231 2.615-9.592 4.36-.256.102-.547-.022-.65-.279-.102-.256.022-.547.279-.65 4.323-1.729 6.046-2.591 9.513-4.324l.002-.001c.247-.124.548-.024.671.223z" fill="#000"/><path d="m129.976 49.0793c3.918 5.2891 10.576 10.0145 20.597 13.1395 17.218 5.369 23.39 20.7305 21.298 34.6923-2.088 13.9399-12.446 26.6449-28.395 26.6449-15.702 0-25.102-3.816-30.55-10.441-5.429-6.603-6.829-15.8777-6.829-26.5352 0-.8732.008-1.8065.017-2.7904.066-7.8003.16-18.7844-3.473-28.2467-2.04-5.3114-5.2465-10.1176-10.2781-13.5999-5.0315-3.4822-11.9304-5.6698-21.4056-5.6698h-57.3206c-.2761 0-.5-.2239-.5-.5 0-.2762.2239-.5.5-.5h57.3206c9.6316 0 16.7412 2.2256 21.9747 5.8476s8.548 8.6109 10.642 14.0636c3.707 9.6545 3.609 20.8428 3.54 28.6239-.008.9814-.017 1.9086-.017 2.7717 0 10.6206 1.408 19.5842 6.601 25.9002 5.176 6.294 14.215 10.076 29.778 10.076 15.317 0 25.369-12.194 27.406-25.793 2.034-13.5778-3.953-28.3965-20.606-33.5895-10.171-3.1716-17.03-7.9996-21.104-13.4989-4.077-5.5034-5.345-11.6526-4.373-17.4048 1.944-11.4967 12.809-21.3147 27.797-21.3147 9.564 0 15.113 2.9221 18.836 7.3713 3.059 3.6546 4.862 8.3264 6.694 13.0731.371.9611.743 1.9254 1.127 2.8849 2.297 5.7381 5.037 11.3853 10.446 15.6148 5.404 4.225 13.541 7.0861 26.731 7.0861h85.546c.277 0 .5.2239.5.5 0 .2762-.223.5-.5.5h-85.546c-13.331 0-21.712-2.8927-27.347-7.2983-5.629-4.4012-8.449-10.2615-10.758-16.031-.396-.9884-.776-1.9719-1.151-2.9444-1.834-4.7443-3.567-9.228-6.509-12.7434-3.499-4.1815-8.744-7.0131-18.069-7.0131-14.542 0-24.955 9.5059-26.811 20.4814-.927 5.484.275 11.358 4.191 16.6428z" fill="#000"/><path d="m166.464 122.43c.107-.255.399-.376.654-.269 2.006.836 3.494 1.477 4.761 2.023 2.04.879 3.507 1.511 5.644 2.313.259.096.39.385.293.643-.097.259-.385.39-.644.293-2.157-.809-3.656-1.455-5.717-2.343-1.267-.546-2.747-1.183-4.721-2.006-.255-.106-.376-.399-.27-.654z" fill="#000"/><path d="m262.863 107.676c.101-.258.391-.384.648-.283 3.972 1.557 8.019 2.665 12.168 3.702.268.067.431.338.364.606s-.339.431-.606.364c-4.16-1.04-8.257-2.159-12.291-3.741-.257-.101-.384-.391-.283-.648z" fill="#000"/><path d="m275.594 111.409c.094.259-.039.546-.299.641-1.161.422-2.192.792-3.132 1.13-2.936 1.054-4.974 1.786-7.264 2.768-.254.108-.548-.009-.656-.263-.109-.254.009-.548.262-.657 2.32-.994 4.394-1.739 7.34-2.797.936-.336 1.96-.704 3.108-1.121.26-.095.547.039.641.299z" fill="#000"/><path d="m287.363 62.0087c-.094-.2595.039-.5464.299-.6407 3.085-1.122 8.26-2.9554 13.681-4.0633.27-.0553.534.1192.59.3898.055.2705-.119.5347-.39.59-5.343 1.092-10.459 2.9029-13.539 4.0232-.26.0944-.547-.0394-.641-.299z" fill="#000"/><path d="m288.189 48.4356c.201-.1889.518-.1787.707.0228 2.226 2.3752 3.955 3.9782 5.847 5.2928 1.891 1.3146 3.964 2.3541 6.892 3.5824.255.1068.375.3998.268.6545-.107.2546-.4.3745-.654.2676-2.957-1.2401-5.102-2.3111-7.077-3.6833-1.974-1.3721-3.758-3.0321-6.006-5.4301-.189-.2015-.179-.5179.023-.7067z" fill="#000"/><path d="m59.7308 36.1618c.025.275-.1777.5182-.4527.5432-3.0237.2749-5.1675.5488-7.9971.9104-1.633.2087-3.4943.4466-5.885.7306-.2743.0326-.523-.1633-.5555-.4375-.0326-.2742.1633-.5229.4375-.5555 2.3677-.2813 4.2219-.5182 5.8541-.7268 2.8447-.3634 5.0152-.6407 8.0555-.9171.275-.025.5182.1777.5432.4527z" fill="#000"/><path d="m47.481 30.3698c.1062-.2549.3989-.3754.6538-.2692 5.2454 2.1856 7.4449 3.5046 11.0472 5.903.2299.1531.2921.4635.1391.6933-.153.2299-.4634.2922-.6933.1391-3.5581-2.369-5.7011-3.6554-10.8776-5.8123-.2549-.1062-.3754-.399-.2692-.6539z" fill="#000"/><path d="m8.86035 47.5635v-1h25.18635c4.8602 0 8.9672 1.2387 12.0486 3.9004 3.0825 2.6626 5.0776 6.6963 5.8167 12.1655 1.0718 7.9313 4.2783 13.8864 9.1567 17.8635 4.883 3.9806 11.4925 6.0212 19.4423 6.0212 7.9084 0 14.0737-2.6563 19.648-6.2019 2.793-1.776 5.431-3.7711 8.072-5.7708l.058-.0437c2.616-1.981 5.237-3.9655 7.987-5.7154 1.926-1.2258 5.894-3.0452 10.877-4.5508 4.99-1.5074 11.033-2.7112 17.112-2.6817 6.078.0295 12.224 1.2926 17.381 4.7515 5.169 3.466 9.296 9.1041 11.384 17.7859.488 2.0294.848 4.267 1.213 6.5398.128.7915.256 1.5873.39 2.3801.523 3.0882 1.145 6.1519 2.197 8.8689 1.051 2.713 2.519 5.05 4.716 6.711 2.192 1.658 5.156 2.679 9.264 2.679h83.375v1h-83.375c-4.282 0-7.47-1.067-9.867-2.881-2.393-1.81-3.953-4.328-5.045-7.148-1.091-2.8171-1.726-5.9654-2.251-9.0629-.138-.8138-.268-1.6228-.397-2.4219-.363-2.2607-.714-4.4422-1.192-6.4312-2.038-8.4709-6.035-13.8808-10.969-17.1892-4.943-3.3154-10.876-4.5531-16.829-4.582-5.952-.0289-11.893 1.1512-16.818 2.639-4.93 1.4896-8.806 3.2766-10.63 4.4371-2.715 1.728-5.308 3.6917-7.936 5.681l-.042.0318c-2.636 1.9959-5.306 4.0158-8.138 5.8173-5.6751 3.6094-12.0262 6.3581-20.185 6.3581-8.1173 0-14.9694-2.0848-20.0741-6.2462-5.1092-4.165-8.4164-10.3688-9.5159-18.5046-.7159-5.2978-2.629-9.0805-5.4793-11.5426-2.8514-2.463-6.7019-3.6572-11.395-3.6572z" fill="#000"/><path d="m139.731 23.1273 7.378-6.0664 4.611 1.8666 1.845 2.3332h3.689l3.228-6.0664 7.378 4.6665 2.305 4.1998-2.305 3.2665 2.305 2.7998h4.15l1.384 2.7999-1.384 9.7995h-5.072l-3.689 5.5997 1.845 4.1998-7.84 5.1331-2.305-4.1998h-5.534l-3.689 5.1331-7.378-4.1998-3.228-1.8666 3.228-5.5997v-1.8666h-3.228l-3.689-3.2665v-9.3329l5.073-.4666 3.228-4.6664zm9.222 13.066 7.379-6.0664 2.305 2.3333-.461 7.4663-6.456 5.133-2.767-2.3332z" fill="#fff"/><path d="m139.731 23.1273 7.378-6.0664 4.611 1.8666 1.845 2.3332h3.689l3.228-6.0664 7.378 4.6665 2.305 4.1998-2.305 3.2665 2.305 2.7998h4.15l1.384 2.7999-1.384 9.7995h-5.072l-3.689 5.5997 1.845 4.1998-7.84 5.1331-2.305-4.1998h-5.534l-3.689 5.1331-7.378-4.1998-3.228-1.8666 3.228-5.5997v-1.8666h-3.228l-3.689-3.2665v-9.3329l5.073-.4666 3.228-4.6664zm9.222 13.066 7.379-6.0664 2.305 2.3333-.461 7.4663-6.456 5.133-2.767-2.3332z" fill="#fff"/><g fill="#000"><path d="m146.546 27.7075c.241.135.327.4397.192.6806l-4.381 7.8163c-.135.2409-.44.3267-.68.1917-.241-.135-.327-.4397-.192-.6806l4.381-7.8163c.135-.2409.439-.3267.68-.1917z"/><path d="m143.085 24.4281c.248-.121.547-.0178.668.2304.111.2264.219.4519.328.6761.703 1.4569 1.382 2.8636 2.284 4.1567.158.2264.103.5381-.124.6961-.226.158-.538.1025-.696-.124-.951-1.3638-1.668-2.8494-2.369-4.3014-.107-.2228-.214-.4448-.322-.6654-.121-.2482-.017-.5475.231-.6685z"/><path d="m152.246 18.9224c.26-.0914.546.0457.637.3062.466 1.3268.849 2.674 1.229 4.0084.072.2507.143.5009.214.7505.178.6172.291.9954.578 1.4313.152.2306.088.5407-.143.6926-.23.1519-.54.0881-.692-.1425-.379-.5754-.527-1.0893-.701-1.6956l-.003-.0099c-.073-.2539-.145-.507-.217-.7593-.38-1.3347-.754-2.6485-1.209-3.9444-.091-.2605.046-.5459.307-.6373z"/><path d="m152.956 17.8543c.141.237.064.544-.173.6857-3.435 2.0543-6.818 4.3845-9.45 7.368-.183.2071-.499.2268-.706.0441s-.227-.4986-.044-.7057c2.736-3.1006 6.224-5.4941 9.687-7.5646.237-.1417.544-.0645.686.1725z"/><path d="m156.303 24.9568c-.892-.0527-1.81.0098-2.585.0689-.276.021-.516-.1852-.537-.4606-.021-.2753.185-.5155.461-.5365.773-.059 1.753-.1272 2.72-.07.959.0567 1.966.2392 2.765.7245.236.1433.311.4508.168.6868-.144.2361-.451.3112-.687.1679-.592-.3596-1.405-.5278-2.305-.581z"/><path d="m163.681 18.075c.213.1755.244.4906.068.7038-1.455 1.7672-2.535 3.9708-3.586 6.1168-.129.2633-.258.5258-.386.7865-.123.2476-.423.3491-.67.2268-.248-.1223-.349-.4222-.227-.6698.127-.2577.255-.5196.385-.7842 1.043-2.1314 2.177-4.4474 3.712-6.3118.176-.2132.491-.2437.704-.0681z"/><path d="m170.516 23.5882c.197.1941.198.5107.004.7071-1.264 1.2794-2.223 2.9564-3.169 4.6123-.148.2577-.295.5149-.443.77-.138.239-.444.3204-.683.1819s-.32-.4444-.182-.6833c.142-.2451.285-.4961.431-.751.94-1.6465 1.971-3.4522 3.335-4.8328.194-.1964.511-.1983.707-.0042z"/><path d="m166.677 27.4835c.236-.1435.543-.0685.687.1674.977 1.6069 1.673 3.2317 2.239 5.0077.084.2631-.061.5444-.324.6283-.263.0838-.545-.0615-.628-.3246-.547-1.7148-1.213-3.2645-2.142-4.7918-.143-.2359-.068-.5435.168-.687z"/><path d="m175.506 33.0281c.009.276-.208.5067-.484.5151-.455.014-.913.031-1.373.0482-1.46.0545-2.944.1098-4.421.0685-.276-.0077-.493-.2377-.486-.5138.008-.276.238-.4935.514-.4858 1.441.0403 2.879-.0133 4.332-.0674.466-.0174.933-.0348 1.403-.0492.276-.0085.507.2084.515.4844z"/><path d="m175.859 32.6623c.275.0255.477.2691.452.5441-.104 1.1165-.235 2.2262-.366 3.3314-.279 2.3486-.554 4.6765-.554 7.0052 0 .2762-.224.5-.5.5-.277 0-.5-.2238-.5-.5 0-2.388.287-4.8167.569-7.1969.129-1.0904.257-2.1706.355-3.2321.026-.2749.269-.4772.544-.4517z"/><path d="m176.312 42.6969c.017.2756-.193.5124-.469.5288-2.307.1373-4.615.2605-6.927.3505-.276.0107-.508-.2043-.519-.4802s.204-.5083.48-.5191c2.303-.0896 4.604-.2124 6.907-.3494.275-.0164.512.1937.528.4694z"/><path d="m170.139 40.2876c.252.1137.364.4099.25.6615-1.074 2.3778-2.448 4.5633-3.809 6.7293-.24.3821-.48.7636-.718 1.1454-.146.2344-.454.3062-.689.1602-.234-.1459-.306-.4543-.16-.6887.242-.3891.485-.7754.727-1.1602 1.362-2.1678 2.694-4.2878 3.738-6.5977.114-.2516.41-.3635.661-.2498z"/><path d="m164.941 47.4362c.234-.147.542-.0767.689.1571.523.8311.997 1.6872 1.461 2.5307.017.0307.034.0614.051.0921.45.8157.892 1.6185 1.373 2.397.145.235.072.5431-.163.6882s-.543.0722-.688-.1627c-.494-.8002-.947-1.6226-1.394-2.4325-.018-.0332-.036-.0664-.054-.0996-.466-.8459-.927-1.6777-1.432-2.4809-.147-.2338-.077-.5424.157-.6894z"/><path d="m158.433 52.8868c.059.2699-.113.5361-.383.5946-2.487.5395-4.701.6797-7.246.1162-.269-.0597-.44-.3266-.38-.5962s.327-.4398.596-.3801c2.368.5242 4.43.4007 6.818-.1172.27-.0585.537.1128.595.3827z"/><path d="m157.28 52.6528c.252-.1124.548.0009.66.2531.706 1.582 1.486 3.0909 2.293 4.639.127.2449.032.5469-.213.6745s-.547.0325-.674-.2124c-.806-1.5464-1.6-3.0804-2.319-4.6939-.113-.2522.001-.5478.253-.6603z"/><path d="m168.043 52.8298c.154.2289.094.5397-.135.6941-.087.059-.175.1181-.263.1773-2.511 1.6949-5.094 3.4382-7.871 4.7595-.25.1186-.548.0126-.667-.2367-.118-.2494-.012-.5477.237-.6663 2.708-1.2885 5.236-2.9943 7.765-4.7011.08-.0539.16-.1078.24-.1617.229-.1544.539-.094.694.1349z"/><path d="m151.876 51.701c.262.0864.404.3691.318.6313-.404 1.2275-.956 2.3956-1.518 3.5311-.101.2039-.202.4065-.302.6082-.464.9306-.918 1.8424-1.305 2.7784-.106.2552-.398.3765-.653.271-.256-.1055-.377-.398-.271-.6531.401-.9717.875-1.9214 1.339-2.8531.099-.199.198-.3972.296-.5946.559-1.1307 1.084-2.2451 1.464-3.4007.087-.2623.369-.4049.632-.3185z"/><path d="m145.839 48.1971c.2.1902.208.5067.018.7069-1.223 1.2864-2.308 2.6567-3.414 4.0521-.461.5814-.925 1.1671-1.404 1.753-.174.2138-.489.2454-.703.0707-.214-.1748-.246-.4898-.071-.7036.458-.56.91-1.1308 1.365-1.7042 1.117-1.4101 2.247-2.8361 3.502-4.1568.19-.2002.506-.2083.707-.0181z"/><path d="m139.879 53.8998c.144-.2361.451-.3113.687-.1679 2.099 1.2744 4.082 2.7118 6.05 4.1381.253.1838.506.3674.76.5505.022.016.065.0503.107.0832.023.0181.045.0358.063.0497.008.0063.016.0126.024.0188.25-.0589.508.0821.59.3304.021.0636.065.2104.026.3749-.024.099-.081.215-.194.3033-.11.0851-.227.1091-.309.113-.143.007-.26-.0424-.308-.0634-.063-.028-.122-.0625-.171-.0931-.16-.1011-.425-.314-.414-.3064-.255-.1839-.508-.3677-.762-.5513-1.971-1.4291-3.919-2.8411-5.981-4.093-.236-.1433-.311-.4508-.168-.6868zm7.331 5.3156c.003.0107.002.0088-.001-.0029 0 .001.001.0019.001.0029z"/><path d="m142.533 44.0991c.273-.0436.529.142.573.4146.257 1.6052 1.047 3.3767 2.168 4.5108.194.1964.192.513-.005.7071-.196.1941-.513.1922-.707-.0042-1.294-1.3103-2.16-3.2866-2.443-5.0554-.044-.2727.142-.5292.414-.5729z"/><path d="m135.784 44.1329c.061-.2693.329-.4383.598-.3773 1.688.382 3.476.3639 5.289.3456.39-.004.78-.0079 1.172-.0079.276 0 .5.2238.5.5 0 .2761-.224.5-.5.5-.368 0-.742.004-1.122.008-1.816.0194-3.747.0401-5.56-.3704-.269-.0609-.438-.3287-.377-.598z"/><path d="m136.137 35.0032c.078-.265.356-.417.621-.3394 2.215.6485 4.363.5145 6.713.2172.274-.0347.525.1593.559.4333.035.2739-.159.5241-.433.5588-2.377.3006-4.697.4598-7.12-.2496-.265-.0775-.417-.3553-.34-.6203z"/><path d="m136.972 34.6436c.276.004.496.231.492.5071-.017 1.2042-.062 2.4068-.107 3.6025-.002.0389-.003.0777-.005.1165-.046 1.2362-.092 2.4653-.105 3.6939-.011.99.005 1.6381.302 2.4391.096.2589-.037.5466-.296.6425-.258.096-.546-.0361-.642-.2951-.366-.9869-.376-1.7959-.364-2.7977.014-1.2438.06-2.4856.106-3.7204.001-.0373.003-.0747.004-.1121.046-1.199.09-2.3913.108-3.5835.003-.2761.231-.4967.507-.4928z"/><path d="m133.476 31.8964c.182-.2071.498-.227.705-.0444 1.273 1.1217 2.358 2.3006 3.479 3.518l.017.0182c.187.2031.174.5195-.029.7065-.203.1871-.52.174-.707-.0291v-.0006c-1.132-1.2292-2.188-2.3757-3.421-3.4629-.207-.1826-.227-.4986-.044-.7057z"/><path d="m139.883 31.8433c.019.2755-.189.514-.465.5325-.63.0425-1.238.1067-1.854.1717-.388.041-.78.0824-1.182.1188-1.022.0926-2.068.1483-3.149.059-.275-.0228-.48-.2643-.457-.5395s.264-.4799.54-.4571c.996.0823 1.976.0323 2.976-.0583.37-.0335.749-.0735 1.134-.1139.634-.0668 1.282-.1351 1.925-.1784.275-.0186.514.1897.532.4652z"/><path d="m142.903 27.5011c.161.2238.111.5363-.113.6981-1.499 1.084-2.286 2.9483-2.808 4.8595-.072.2664-.347.4234-.613.3507-.267-.0727-.424-.3475-.351-.614.532-1.9502 1.392-4.1096 3.187-5.4066.223-.1618.536-.1115.698.1123z"/><path d="m139.115 22.4732c.232-.1491.542-.0815.691.151 1 1.5592 1.831 3.1632 2.573 4.8519.111.2529-.004.5479-.257.6589s-.548-.0039-.659-.2567c-.724-1.6497-1.532-3.2062-2.499-4.7143-.149-.2324-.082-.5417.151-.6908z"/><path d="m138.809 22.5804c.109-.2538.403-.3713.657-.2624 1.012.4341 1.944.9859 2.843 1.5269.059.0355.117.071.176.1063.844.5088 1.661 1.0013 2.529 1.4064.25.1169.358.4144.241.6646s-.414.3583-.664.2415c-.918-.4284-1.778-.9471-2.613-1.4503-.062-.0373-.123-.0746-.185-.1117-.901-.5427-1.78-1.0608-2.721-1.4647-.254-.1089-.372-.4028-.263-.6566z"/><path d="m142.069 27.4196c.142-.2366.449-.3131.686-.1708.919.5527 1.867.999 2.864 1.4685l.03.0138c.288.1355.601.2832.893.578.194.1964.192.513-.004.7071-.197.1941-.513.1922-.707-.0042-.154-.1554-.317-.2389-.614-.3787l-.044-.0208c-.983-.4629-1.971-.9277-2.934-1.5067-.236-.1423-.313-.4495-.17-.6862z"/><path d="m138.984 31.5832c.227-.1577.538-.1017.696.125 1.029 1.4799 2.052 2.8829 3.288 4.1338.194.1965.193.513-.004.7071-.196.1941-.513.1923-.707-.0042-1.301-1.3164-2.365-2.7804-3.398-4.2657-.158-.2268-.102-.5384.125-.696z"/><path d="m148.936 16.0145c.126.2453.03.547-.215.6739-3.734 1.9314-7.283 4.243-9.738 7.6636-.161.2244-.473.2758-.697.1148-.225-.161-.276-.4734-.115-.6978 2.594-3.6144 6.312-6.0145 10.091-7.9689.245-.1268.547-.0308.674.2144z"/><path d="m146.439 16.2385c.132-.2425.436-.332.678-.2 1.798.9793 3.608 1.883 5.486 2.6604.255.1056.376.398.271.6532-.106.2551-.399.3763-.654.2707-1.92-.7951-3.763-1.7159-5.581-2.7061-.243-.132-.332-.4357-.2-.6782z"/><path d="m157.483 21.7607c-1.587 0-3.108.0518-4.633.3413-.271.0514-.533-.1268-.584-.3981-.052-.2713.126-.5329.398-.5844 1.62-.3074 3.216-.3588 4.819-.3588.277 0 .5.2239.5.5 0 .2762-.223.5-.5.5z"/><path d="m156.912 20.6982c.246-.1249.547-.0265.672.2198.76 1.4982 1.477 3.0176 2.19 4.5281.079.1671.158.334.237.5008.118.2497.011.5477-.239.6657-.249.118-.547.0113-.665-.2384-.079-.1668-.158-.3336-.237-.5003-.714-1.5124-1.425-3.0188-2.178-4.5036-.125-.2463-.027-.5472.22-.6721z"/><path d="m160.818 14.8629c.247.1223.349.4222.226.6697-.374.7574-.766 1.4872-1.155 2.2085-.759 1.4102-1.5 2.7882-2.052 4.2768-.096.2589-.384.3911-.642.2951-.259-.096-.391-.3836-.296-.6426.575-1.551 1.375-3.039 2.154-4.4877.379-.7061.754-1.4029 1.095-2.093.122-.2476.422-.3491.67-.2268z"/><path d="m160.97 14.9709c.252-.1121.548.0017.66.254.66 1.4876 1.357 2.9487 2.068 4.4182.12.2486.016.5476-.232.6679-.249.1203-.548.0164-.668-.2322-.713-1.4722-1.415-2.9451-2.082-4.448-.112-.2524.002-.5479.254-.6599z"/><path d="m162.813 18.6816c.136-.2403.441-.3249.681-.189 1.733.9802 3.34 2.1625 4.919 3.3243.414.3045.826.6077 1.238.9055.224.1618.274.4743.112.6981-.161.2238-.474.2741-.698.1123-.427-.3089-.85-.6196-1.27-.9288-1.573-1.157-3.118-2.2933-4.793-3.241-.24-.136-.325-.441-.189-.6814z"/><path d="m160.898 15.1152c.172-.2155.487-.2503.703-.0777 1.031.8261 2.138 1.496 3.284 2.1477.274.1558.551.311.83.4672.878.4921 1.775.9942 2.645 1.5548.233.1495.3.4589.15.6911-.149.2321-.459.2991-.691.1496-.842-.5423-1.701-1.0234-2.573-1.512-.284-.1589-.569-.3186-.855-.4814-1.158-.6581-2.32-1.3594-3.415-2.2365-.216-.1726-.251-.4873-.078-.7028z"/><path d="m167.583 18.8038c.262-.0884.545.0519.634.3135.272.8057.621 1.5754.989 2.3589.053.1133.106.2271.16.3414.315.6685.638 1.353.917 2.0592.102.2568-.024.5473-.281.6488s-.547-.0244-.649-.2812c-.266-.6738-.573-1.3257-.889-1.9954-.054-.1154-.109-.2314-.164-.3481-.369-.7866-.738-1.6001-1.03-2.4632-.089-.2616.052-.5454.313-.6339z"/><path d="m167.724 27.0115c.239-.1386.544-.0574.683.1814.542.9328 1.079 1.8674 1.615 2.8021.138.2395.055.545-.185.6825-.239.1374-.545.0546-.682-.1849-.536-.9342-1.073-1.8671-1.613-2.7977-.138-.2388-.057-.5448.182-.6834z"/><path d="m169.961 28.8313c.264.0785.415.3567.337.6215-.386 1.3007-.411 2.7432-.437 4.1925-.001.0748-.002.1495-.004.2243-.005.2761-.233.4958-.509.4908-.276-.0051-.496-.233-.49-.5091.001-.0867.003-.1741.004-.2621.024-1.4141.051-2.9844.477-4.4206.079-.2648.357-.4158.622-.3373z"/><path d="m169.099 29.6738c.057-.2702.322-.4431.592-.3861.864.1822 1.739.2611 2.641.3267.14.0102.28.0201.422.03.761.0534 1.544.1083 2.324.221.273.0395.463.2931.423.5664-.039.2733-.293.4628-.566.4233-.74-.1069-1.481-.159-2.243-.2125-.143-.0101-.288-.0203-.433-.0308-.906-.066-1.839-.1485-2.774-.3456-.27-.057-.443-.3222-.386-.5924z"/><path d="m173.59 29.3523c.234-.1458.542-.0739.688.1607.771 1.2392 1.489 2.4897 2.201 3.7512.136.2405.051.5455-.189.6813-.241.1357-.546.0509-.681-.1896-.711-1.2583-1.421-2.4942-2.18-3.715-.146-.2345-.074-.5428.161-.6886z"/><path d="m140.056 44.3451c.265-.075.542.0796.617.3453.244.8668.49 1.7075.794 2.5287.096.2589-.036.5466-.295.6426-.259.0959-.546-.0362-.642-.2951-.32-.8618-.574-1.736-.82-2.6044-.075-.2658.08-.5421.346-.6171z"/><path d="m139.534 46.3167c.143-.236.45-.3112.687-.1678.398.2416.801.5105 1.202.7773.037.0245.074.0489.111.0733.44.2932.88.583 1.327.8469.897.5301 1.785.9311 2.689 1.0328.275.0309.472.2784.441.5528-.03.2744-.278.4718-.552.441-1.114-.1252-2.146-.6097-3.087-1.1656-.472-.2791-.932-.5825-1.372-.8752-.036-.0239-.072-.0478-.108-.0715-.404-.2694-.791-.5268-1.17-.7571-.237-.1433-.312-.4508-.168-.6869z"/><path d="m140.82 47.3301c.228.1559.286.467.13.6949-.41.6004-.832 1.1724-1.247 1.7364-.835 1.1328-1.645 2.233-2.297 3.465-.129.2441-.432.3372-.676.208s-.337-.4318-.208-.6759c.686-1.2961 1.573-2.5013 2.432-3.6693.405-.5493.803-1.0904 1.171-1.6288.156-.2279.467-.2863.695-.1303z"/><path d="m137.515 52.074c.185-.2049.501-.2209.706-.0358.391.3538.829.7483 1.295 1.0814.469.3361.928.5804 1.351.6661.271.0548.446.3186.391.5892-.055.2707-.319.4457-.589.3909-.627-.1267-1.221-.4645-1.735-.833-.518-.3704-.995-.8015-1.38-1.1496l-.003-.003c-.205-.1852-.221-.5013-.036-.7062z"/><path d="m132.848 41.1688c.216-.1719.531-.1361.702.08.166.2085.332.4293.502.6559.324.4306.663.8822 1.048 1.3098.583.6484 1.164 1.1109 1.743 1.2409.269.0606.438.3281.378.5976-.061.2694-.328.4387-.598.3781-.897-.2019-1.656-.8688-2.267-1.5478-.411-.4577-.805-.9807-1.145-1.4321-.161-.2143-.31-.4125-.443-.5798-.172-.2161-.136-.5307.08-.7026z"/><path d="m133.155 31.0269c.277-.0021.502.2201.504.4962.023 3.0201.059 6.0206.293 9.0124.051.6482.121 1.2397.269 1.8376.066.268-.097.5391-.365.6053-.269.0662-.54-.0974-.606-.3655-.167-.6753-.242-1.329-.295-1.9993-.237-3.0314-.273-6.0645-.296-9.083-.002-.2761.22-.5017.496-.5037z"/><path d="m148.567 34.1783c.276-.0216.516.1841.538.4594.196 2.5009.239 5.026.283 7.5292.017 1.0423.035 2.0807.064 3.1121.008.276-.21.506-.486.5137s-.506-.2098-.513-.4858c-.03-1.0548-.048-2.1067-.066-3.1561-.043-2.4899-.085-4.966-.279-7.4349-.022-.2753.184-.516.459-.5376z"/><path d="m147.287 41.6062c.168-.2194.482-.2615.701-.0939.954.7288 1.882 1.4723 2.804 2.2113 1.935 1.5511 3.845 3.0823 5.924 4.4148.232.149.3.4583.151.6908s-.458.3001-.691.1511c-2.123-1.361-4.105-2.9488-6.063-4.518-.911-.7307-1.818-1.4574-2.732-2.1552-.219-.1677-.261-.4814-.094-.7009z"/><path d="m163.515 41.3539c.178.2111.151.5266-.06.7046-1.322 1.1153-2.699 2.1671-4.065 3.2103-.24.1835-.48.3667-.719.55-1.604 1.2288-3.181 2.4624-4.654 3.8094-.204.1864-.52.1722-.706-.0316-.187-.2038-.172-.52.031-.7064 1.508-1.3788 3.115-2.6349 4.72-3.8652.242-.1851.483-.3695.724-.5536 1.367-1.0438 2.722-2.079 4.024-3.1773.212-.1781.527-.1513.705.0598z"/><path d="m163.66 32.3821c.276.0191.484.258.464.5335-.072 1.0377-.134 1.9733-.192 2.8566-.182 2.7429-.33 4.981-.648 8.2054-.027.2748-.272.4756-.547.4484s-.476-.2719-.448-.5467c.317-3.2071.463-5.4258.644-8.1642.059-.885.121-1.8244.194-2.8689.019-.2755.258-.4833.533-.4641z"/><path d="m157.328 29.5071c.149.2325.081.5418-.151.6908-1.618 1.037-3.15 2.2021-4.679 3.4012-.344.2691-.687.5402-1.031.8119-1.184.9349-2.377 1.8771-3.603 2.7698-.224.1625-.536.1133-.699-.11-.162-.2232-.113-.536.11-.6985 1.209-.88 2.382-1.8058 3.563-2.7385.346-.2736.693-.5478 1.042-.8216 1.534-1.2028 3.097-2.3923 4.757-3.4562.233-.1491.542-.0814.691.1511z"/><path d="m156.259 30.202c.152-.2306.462-.2943.693-.1424.513.3384 1.035.6707 1.558 1.0045 1.959 1.2485 3.947 2.5161 5.663 4.188.198.1927.202.5093.009.707-.192.1978-.509.2019-.707.0092-1.634-1.593-3.51-2.7894-5.456-4.0306-.535-.3412-1.075-.6859-1.617-1.0431-.231-.1519-.295-.462-.143-.6926z"/><path d="m158.657 30.9106c.276.0113.491.2442.479.5201l-.002.0675c-.131 3.1664-.261 6.3281-.343 9.4912-.007.276-.237.494-.513.4868s-.494-.2368-.487-.5128c.083-3.1707.213-6.3388.343-9.5028l.003-.071c.012-.2759.245-.4904.52-.479z"/><path d="m158.489 40.3703c.141.2371.064.5441-.173.6856-1.174.7006-2.263 1.5241-3.377 2.3661-.03.0226-.06.0452-.089.0678-1.138.8597-2.302 1.735-3.572 2.4693-.239.1383-.545.0565-.683-.1825-.139-.2391-.057-.5449.182-.6831 1.209-.699 2.327-1.5375 3.47-2.4014.035-.0267.07-.0535.106-.0803 1.101-.8327 2.229-1.6854 3.45-2.4146.237-.1415.544-.064.686.1731z"/><path d="m157.365 40.208c.102-.2565.393-.3815.649-.2793.879.3504 1.788.6431 2.715.9418.128.0412.256.0826.385.1242 1.052.3407 2.122.6989 3.146 1.1591.251.1132.364.4092.25.661-.113.2519-.409.3642-.661.251-.968-.4355-1.991-.7792-3.043-1.1197-.127-.0411-.255-.0821-.383-.1233-.923-.2976-1.866-.6014-2.779-.9651-.256-.1023-.381-.3931-.279-.6497z"/><path d="m133.037 38.6392c.195-.195.512-.1947.707.0009.052.0521.104.1042.155.1561.844.8461 1.658 1.663 2.565 2.369.217.1696.257.4837.087.7016s-.484.2571-.702.0875c-.958-.7462-1.814-1.6052-2.647-2.4412-.056-.0557-.111-.1113-.166-.1668-.195-.1955-.195-.5121.001-.7071z"/><path d="m132.713 34.4187c.207-.1828.523-.1632.706.0437.761.862 1.573 1.6531 2.4 2.4591.421.4103.845.8244 1.27 1.2537.194.1964.192.513-.005.7071-.196.1941-.513.1922-.707-.0042-.395-.4006-.806-.8007-1.22-1.2046-.843-.8224-1.703-1.6603-2.488-2.549-.183-.207-.163-.5229.044-.7058z"/><path d="m140.142 29.7043c.169-.2184.483-.2584.701-.0894.884.6839 1.721 1.4293 2.541 2.1591.161.1436.322.2866.482.4285.207.183.226.499.043.7058-.183.2067-.499.2259-.706.0429-.165-.1457-.328-.2914-.491-.4365-.82-.7297-1.627-1.448-2.481-2.109-.218-.169-.258-.483-.089-.7014z"/><path d="m141.249 20.5599c.129-.244.432-.337.676-.2076.499.2648 1.027.4911 1.577.7268.082.0354.165.0711.249.1071.63.2715 1.282.5625 1.888.9304.236.1433.311.4508.168.6869-.143.236-.451.3112-.687.1678-.541-.3282-1.136-.5956-1.765-.8668-.081-.0348-.162-.0697-.244-.1048-.547-.2343-1.116-.4782-1.655-.7639-.244-.1293-.337-.4319-.207-.6759z"/><path d="m144.108 17.9857c.198-.1925.515-.188.708.01.43.443.963.9717 1.534 1.4191.581.454 1.154.786 1.665.8893.27.0547.445.3185.391.5892-.055.2707-.319.4457-.59.3909-.74-.1498-1.462-.5971-2.082-1.0818-.628-.4915-1.199-1.0612-1.635-1.5096-.193-.198-.189-.5146.009-.7071z"/><path d="m159.154 16.9421c.259-.0962.547.0356.643.2944.213.5721.381 1.1787.542 1.7618.038.1359.075.2705.113.4031.202.7157.411 1.387.708 1.9877.122.2476.021.5474-.227.6697-.247.1224-.547.0208-.67-.2267-.34-.6895-.57-1.4376-.774-2.1589-.04-.1433-.079-.2851-.118-.4255-.161-.5799-.315-1.1347-.511-1.6627-.097-.2588.035-.5466.294-.6429z"/><path d="m171.095 29.522c.27-.0592.536.1114.596.3811.151.6879.277 1.3886.401 2.0789.059.326.118.6497.178.9686.051.2713-.127.5329-.398.5842-.272.0514-.533-.127-.585-.3983-.063-.3374-.124-.6707-.183-1.0013-.123-.6796-.243-1.348-.39-2.0176-.059-.2697.111-.5364.381-.5956z"/><path d="m153.226 44.0338c.115-.2508.412-.3606.663-.2453 1.11.5109 2.191 1.0598 3.26 1.6498.242.1335.33.4376.196.6794-.133.2417-.437.3295-.679.1961-1.049-.5788-2.108-1.1167-3.195-1.6168-.251-.1154-.361-.4123-.245-.6632z"/><path d="m155.954 41.9312c.182-.2081.497-.2298.706-.0483.908.7917 2.016 1.4343 3.153 1.7631.265.0767.418.3539.342.6192-.077.2653-.354.4182-.62.3415-1.296-.3747-2.53-1.0961-3.533-1.9701-.208-.1814-.229-.4973-.048-.7054z"/><path d="m157.917 37.2568c.057-.2702.322-.443.592-.3861.668.1408 1.321.3361 1.95.5243l.051.0153c.652.195 1.28.381 1.915.5096.271.0547.446.3185.391.5892s-.319.4457-.589.3909c-.687-.1389-1.357-.3383-2.003-.5316l-.035-.0104c-.641-.1918-1.259-.3766-1.886-.5088-.27-.057-.443-.3222-.386-.5924z"/><path d="m158.254 34.0488c.025-.275.267-.4781.542-.4535.705.0628 1.387.2145 2.042.3748.15.0367.297.0736.443.1102.503.1258.988.2472 1.481.3379.272.0499.451.3106.401.5822s-.31.4512-.582.4013c-.527-.097-1.053-.2287-1.561-.3559-.141-.0354-.282-.0705-.42-.1044-.646-.1582-1.268-.2943-1.892-.3501-.276-.0245-.479-.2674-.454-.5425z"/><path d="m138.716 49.0173c.134-.2416.438-.3291.679-.1954 1.12.6192 2.097 1.4759 3.017 2.2829.177.1556.353.3093.526.4591.209.1803.233.496.053.7051-.181.2092-.496.2326-.706.0523-.187-.1615-.371-.323-.554-.4831-.921-.8065-1.803-1.579-2.82-2.1413-.241-.1337-.329-.4379-.195-.6796z"/></g><path d="m121.407 74.2979 9.188-7.5437 5.743 2.3212 2.297 2.9014h4.594l4.02-7.5437 9.189 5.8028 2.871 5.2226-2.871 4.062 2.871 3.4817h5.168l1.723 3.4816-1.723 12.186h-6.317l-4.594 6.9632 2.297 5.223-9.762 6.383-2.872-5.223h-6.891l-4.594 6.383-9.189-5.222-4.019-2.321 4.019-6.964v-2.321h-4.019l-4.595-4.0618v-11.6056l6.317-.5803 4.02-5.8028zm11.486 16.2479 9.188-7.5437 2.871 2.9014-.574 9.2845-8.04 6.383-3.445-2.9013z" fill="#fff"/><path d="m121.407 74.2979 9.188-7.5437 5.743 2.3212 2.297 2.9014h4.594l4.02-7.5437 9.189 5.8028 2.871 5.2226-2.871 4.062 2.871 3.4817h5.168l1.723 3.4816-1.723 12.186h-6.317l-4.594 6.9632 2.297 5.223-9.762 6.383-2.872-5.223h-6.891l-4.594 6.383-9.189-5.222-4.019-2.321 4.019-6.964v-2.321h-4.019l-4.595-4.0618v-11.6056l6.317-.5803 4.02-5.8028zm11.486 16.2479 9.188-7.5437 2.871 2.9014-.574 9.2845-8.04 6.383-3.445-2.9013z" fill="#fff"/><path d="m129.835 80.0997c.241.1352.327.44.191.6808l-5.455 9.7197c-.135.2408-.44.3264-.681.1913-.241-.1352-.326-.44-.191-.6808l5.455-9.7197c.136-.2408.44-.3264.681-.1913z" fill="#000"/><path d="m125.638 76.0249c.248-.1211.548-.0181.669.23.137.2809.272.5608.407.8395.876 1.8111 1.726 3.5699 2.855 5.1865.159.2263.103.5381-.123.6962s-.538.1028-.696-.1236c-1.179-1.6872-2.067-3.525-2.94-5.3312-.134-.2772-.268-.5537-.402-.8288-.121-.2481-.018-.5475.23-.6686z" fill="#000"/><path d="m137.034 69.1842c.26-.0916.546.0454.637.3059.579 1.6461 1.055 3.3173 1.528 4.9768.089.3119.178.6234.268.9343.22.7667.365 1.2538.734 1.8132.152.2305.088.5406-.142.6927-.231.152-.541.0885-.693-.142-.462-.7001-.641-1.3238-.859-2.081l-.002-.0066c-.09-.3152-.18-.6296-.269-.9432-.474-1.6597-.941-3.2974-1.508-4.9126-.092-.2606.045-.546.306-.6375z" fill="#000"/><path d="m137.772 67.8038c.142.2371.064.5441-.173.6856-4.281 2.5566-8.507 5.462-11.798 9.1863-.182.207-.498.2265-.705.0436-.207-.1828-.227-.4988-.044-.7057 3.394-3.8414 7.726-6.81 12.035-9.3828.237-.1415.544-.0641.685.173z" fill="#000"/><path d="m142.053 76.4516c-1.12-.0661-2.271.0123-3.237.0858-.275.021-.515-.1853-.536-.4606-.021-.2754.185-.5156.46-.5365.964-.0734 2.176-.1575 3.372-.0869 1.187.0701 2.416.2953 3.386.8832.236.1432.312.4507.168.6868-.143.2361-.45.3115-.686.1683-.763-.4626-1.8-.6735-2.927-.7401z" fill="#000"/><path d="m151.157 68.1094c.213.1757.243.4908.067.7039-1.822 2.2093-3.173 4.9632-4.481 7.63-.161.3276-.321.654-.481.9778-.123.2475-.423.3489-.67.2264-.248-.1225-.349-.4224-.227-.6699.159-.3209.319-.6466.48-.9756 1.3-2.6521 2.706-5.5185 4.608-7.825.175-.213.491-.2433.704-.0676z" fill="#000"/><path d="m159.661 74.9581c.196.1942.198.5108.003.7071-1.586 1.6033-2.789 3.7043-3.967 5.7622-.183.3202-.366.6393-.55.9554-.138.2388-.444.3201-.683.1814-.239-.1386-.32-.4446-.182-.6834.178-.306.357-.6189.538-.9362 1.172-2.0487 2.447-4.2784 4.134-5.9828.194-.1963.511-.198.707-.0037z" fill="#000"/><path d="m155.029 79.8186c.236-.1436.544-.0688.687.167 1.211 1.9885 2.075 3.9999 2.777 6.201.084.263-.061.5444-.324.6284-.263.0839-.544-.0612-.628-.3243-.684-2.1398-1.516-4.076-2.679-5.985-.144-.2358-.069-.5434.167-.6871z" fill="#000"/><path d="m165.838 86.6136c.009.276-.208.5066-.484.5151-.568.0174-1.139.0386-1.713.06-1.818.0677-3.66.1363-5.495.0851-.276-.0077-.493-.2377-.486-.5138.008-.276.238-.4935.514-.4858 1.799.0502 3.596-.0167 5.406-.084.579-.0216 1.16-.0432 1.743-.0611.276-.0084.507.2085.515.4845z" fill="#000"/><path d="m166.39 86.2761c.275.0255.477.2691.452.5441-.129 1.3817-.292 2.7581-.455 4.1307-.347 2.9245-.692 5.8314-.692 8.7343 0 .2762-.224.4998-.5.4998s-.5-.2236-.5-.4998c0-2.9622.357-5.9701.707-8.9262.161-1.3579.321-2.7047.444-4.0313.026-.2749.269-.4771.544-.4516z" fill="#000"/><path d="m166.843 98.6403c.016.2756-.194.5124-.47.5288-2.872.1707-5.746.3238-8.624.4357-.276.0107-.508-.2043-.519-.4802-.011-.276.204-.5083.48-.5191 2.869-.1115 5.736-.2642 8.604-.4347.276-.0164.512.1938.529.4695z" fill="#000"/><path d="m159.228 95.7482c.252.1138.363.41.25.6616-1.334 2.9486-3.04 5.6582-4.736 8.3522-.299.475-.598.95-.895 1.426-.146.234-.454.306-.689.16-.234-.146-.305-.455-.159-.689.301-.483.603-.963.904-1.441 1.696-2.696 3.36-5.3397 4.664-8.2204.113-.2516.41-.3632.661-.2494z" fill="#000"/><path d="m152.869 104.63c.234-.147.543-.077.69.156.649 1.031 1.237 2.092 1.816 3.141.021.039.042.077.064.116.559 1.013 1.111 2.014 1.711 2.985.146.235.073.543-.162.688s-.543.073-.688-.162c-.614-.993-1.177-2.013-1.733-3.021-.022-.041-.045-.082-.068-.123-.58-1.051-1.155-2.089-1.786-3.091-.147-.233-.077-.542.156-.689z" fill="#000"/><path d="m144.579 111.33c.059.27-.113.536-.382.595-3.086.668-5.824.84-8.972.144-.269-.059-.44-.326-.38-.596.059-.269.326-.44.596-.38 2.971.657 5.557.501 8.544-.146.27-.058.536.113.594.383z" fill="#000"/><path d="m143.313 111.125c.252-.113.548 0 .66.252.88 1.971 1.854 3.851 2.858 5.776.128.245.033.547-.212.674-.244.128-.546.033-.674-.212-1.004-1.923-1.991-3.827-2.885-5.83-.112-.252.001-.548.253-.66z" fill="#000"/><path d="m156.565 111.302c.154.229.094.54-.135.694-.108.073-.216.145-.325.218-3.129 2.109-6.339 4.273-9.79 5.912-.249.118-.547.012-.666-.237-.118-.25-.012-.548.237-.667 3.382-1.606 6.536-3.732 9.684-5.853.1-.067.201-.135.301-.203.229-.154.54-.093.694.136z" fill="#000"/><path d="m136.495 109.946c.262.086.405.369.318.631-.5 1.518-1.185 2.964-1.884 4.375-.125.253-.25.504-.375.755-.578 1.157-1.146 2.296-1.63 3.464-.106.255-.398.376-.653.271-.255-.106-.377-.398-.271-.654.499-1.204 1.086-2.38 1.664-3.538.124-.248.247-.495.369-.741.697-1.407 1.354-2.799 1.831-4.245.086-.262.369-.405.631-.318z" fill="#000"/><path d="m128.93 105.561c.2.19.208.507.018.707-1.526 1.604-2.884 3.315-4.262 5.052-.573.722-1.15 1.448-1.743 2.174-.175.213-.49.245-.704.07s-.245-.49-.07-.704c.572-.699 1.137-1.411 1.704-2.125 1.39-1.752 2.791-3.518 4.35-5.156.191-.2.507-.208.707-.018z" fill="#000"/><path d="m121.698 112.628c.143-.237.45-.312.686-.169 2.61 1.582 5.075 3.367 7.526 5.141.315.228.631.456.946.684.026.019.075.057.125.097.029.023.059.046.084.066.027.021.054.042.081.062.004-.002.007-.003.011-.004.262-.087.545.056.631.318.025.075.071.23.03.4-.024.102-.083.22-.198.31-.111.086-.23.11-.315.115-.148.007-.272-.044-.327-.069-.071-.031-.139-.071-.197-.107-.117-.074-.237-.164-.328-.235-.042-.032-.08-.062-.111-.086l-.012-.01-.041-.032-.013-.01c-.004-.003-.005-.004-.005-.004-.317-.228-.632-.457-.948-.685-2.455-1.777-4.885-3.536-7.457-5.096-.236-.143-.312-.45-.168-.686zm9.144 6.521s-.001-.004-.003-.01c.003.007.003.01.003.01zm.539-.485c.009.003.01.004.001.001 0-.001-.001-.001-.001-.001z" fill="#000"/><path d="m124.917 100.497c.273-.044.529.142.573.415.323 2.015 1.316 4.243 2.733 5.675.194.196.193.513-.004.707-.196.194-.513.193-.707-.004-1.591-1.607-2.66-4.04-3.01-6.22-.043-.273.142-.529.415-.573z" fill="#000"/><path d="m116.612 100.446c.061-.27.329-.439.598-.378 2.117.479 4.362.456 6.62.433.484-.005.969-.01 1.453-.01.276 0 .5.224.5.5s-.224.5-.5.5c-.46 0-.929.005-1.403.01-2.261.024-4.648.049-6.891-.458-.269-.06-.438-.328-.377-.597z" fill="#000"/><path d="m117.05 89.1001c.078-.2651.356-.4171.621-.3396 2.784.8138 5.48.6441 8.411.2739.274-.0346.524.1595.559.4334.034.274-.16.5242-.434.5588-2.956.3734-5.825.5683-8.817-.3063-.265-.0775-.417-.3552-.34-.6202z" fill="#000"/><path d="m117.969 88.7403c.276.0039.497.231.493.5071-.022 1.4959-.078 2.9901-.134 4.4775-.002.0481-.004.0962-.006.1443-.058 1.5371-.114 3.067-.131 4.5967-.014 1.2325.005 2.0581.383 3.0761.096.259-.036.547-.295.643-.258.096-.546-.036-.642-.295-.447-1.204-.46-2.191-.446-3.4354.017-1.5448.074-3.0875.132-4.6231.002-.0467.004-.0933.005-.1399.057-1.4907.113-2.9745.134-4.4585.004-.2761.231-.4968.507-.4928z" fill="#000"/><path d="m113.71 85.2829c.182-.2073.498-.2274.705-.0449 1.58 1.3906 2.928 2.8526 4.326 4.3679l.019.0205c.187.203.174.5194-.029.7066s-.519.1744-.707-.0286l-.002-.003c-1.408-1.527-2.727-2.9567-4.267-4.3128-.208-.1825-.228-.4984-.045-.7057z" fill="#000"/><path d="m121.475 85.1446c.019.2756-.19.514-.465.5325-.786.0529-1.548.1332-2.318.2143-.483.051-.969.1022-1.466.1472-1.27.1149-2.564.1833-3.9.0732-.275-.0227-.48-.2642-.457-.5395.023-.2752.264-.4799.539-.4572 1.252.1033 2.48.0405 3.728-.0724.464-.0421.939-.092 1.418-.1424.788-.0828 1.59-.1672 2.389-.2209.275-.0186.514.1897.532.4652z" fill="#000"/><path d="m125.258 79.808c.162.2239.112.5364-.112.6981-1.904 1.3739-2.893 3.7282-3.543 6.1094-.073.2664-.348.4233-.615.3505-.266-.0727-.423-.3477-.35-.6141.661-2.4205 1.724-5.0698 3.922-6.6567.224-.1616.537-.1111.698.1128z" fill="#000"/><path d="m120.705 73.5872c.233-.1493.542-.0819.691.1505 1.242 1.9327 2.274 3.9215 3.196 6.0168.111.2527-.004.5478-.257.659-.252.1111-.547-.0036-.659-.2564-.904-2.0561-1.913-3.9975-3.121-5.879-.149-.2324-.082-.5417.15-.6909z" fill="#000"/><path d="m120.373 73.6661c.108-.2539.402-.3715.656-.2628 1.252.5362 2.406 1.2182 3.526 1.8912.073.0443.147.0886.22.1329 1.051.632 2.073 1.2476 3.16 1.7542.25.1167.358.4142.242.6645-.117.2503-.415.3585-.665.2418-1.136-.5299-2.202-1.1716-3.243-1.798-.076-.0462-.153-.0923-.23-.1384-1.122-.6745-2.222-1.323-3.404-1.829-.254-.1087-.371-.4026-.262-.6564z" fill="#000"/><path d="m124.424 79.6982c.142-.2367.449-.3134.686-.1712 1.15.6905 2.335 1.2477 3.576 1.8306l.034.0161c.361.1695.735.3453 1.082.6964.194.1963.193.5129-.003.7071-.197.1943-.513.1926-.708-.0036-.208-.2105-.429-.3223-.798-.4956l-.053-.0249c-1.226-.5763-2.451-1.152-3.645-1.8688-.237-.1422-.313-.4494-.171-.6861z" fill="#000"/><path d="m120.547 84.913c.227-.1578.539-.1021.696.1245 1.282 1.841 2.562 3.5931 4.109 5.1566.194.1963.193.5129-.004.7071-.196.1943-.513.1926-.707-.0037-1.612-1.629-2.932-3.442-4.218-5.2885-.158-.2266-.102-.5382.124-.696z" fill="#000"/><path d="m132.763 65.5094c.127.2454.03.547-.215.6737-4.656 2.4047-9.096 5.29-12.17 9.5673-.161.2242-.474.2754-.698.1142-.224-.1611-.275-.4735-.114-.6978 3.213-4.471 7.823-7.4447 12.523-9.8722.245-.1267.547-.0305.674.2148z" fill="#000"/><path d="m129.869 65.79c.132-.2425.436-.3323.679-.2004 2.242 1.2192 4.499 2.345 6.843 3.3139.255.1054.377.3978.271.653-.105.2552-.398.3766-.653.2711-2.387-.9865-4.677-2.1295-6.939-3.3594-.243-.132-.332-.4356-.201-.6782z" fill="#000"/><path d="m143.516 72.4771c-1.979 0-3.882.0643-5.793.4264-.271.0514-.533-.1268-.584-.3982-.052-.2713.127-.5329.398-.5843 2.006-.38 3.984-.4439 5.979-.4439.276 0 .5.2238.5.5 0 .2761-.224.5-.5.5z" fill="#000"/><path d="m142.86 71.3859c.246-.1251.547-.0269.672.2193.945 1.8614 1.838 3.7492 2.726 5.6279.099.2077.197.4153.295.6227.118.2496.011.5477-.238.6658-.25.1182-.548.0116-.666-.238-.098-.2074-.196-.4148-.294-.6222-.89-1.8805-1.776-3.7553-2.715-5.6033-.125-.2462-.027-.5472.22-.6722z" fill="#000"/><path d="m147.615 64.1301c.247.1225.349.4224.226.6699-.462.9335-.949 1.837-1.431 2.7323-.948 1.7586-1.878 3.4852-2.568 5.3439-.096.2588-.384.3908-.643.2948-.259-.0961-.391-.3839-.295-.6428.713-1.9211 1.702-3.7578 2.67-5.5549.474-.88.942-1.7506 1.371-2.6168.122-.2475.422-.3489.67-.2264z" fill="#000"/><path d="m147.907 64.2664c.253-.1122.548.0014.66.2537.824 1.8517 1.692 3.67 2.578 5.4978.12.2485.016.5475-.232.668-.249.1204-.548.0166-.668-.2319-.887-1.8303-1.761-3.6605-2.591-5.5276-.113-.2523.001-.5478.253-.66z" fill="#000"/><path d="m150.259 68.8294c.136-.2405.441-.3253.681-.1895 2.151 1.2149 4.145 2.6794 6.11 4.1236.517.3793 1.031.7573 1.546 1.1289.224.1616.275.4741.113.6981-.162.2239-.474.2744-.698.1128-.53-.3829-1.055-.7683-1.578-1.1522-1.96-1.4394-3.891-2.858-5.985-4.0405-.24-.1358-.325-.4408-.189-.6812z" fill="#000"/><path d="m147.863 64.4109c.173-.2157.488-.2507.703-.0782 1.293 1.0335 2.678 1.8704 4.106 2.6816.343.1945.689.3881 1.037.5827 1.093.6115 2.205 1.2333 3.286 1.9281.232.1494.299.4588.15.691-.149.2323-.459.2995-.691.1502-1.052-.6767-2.127-1.2775-3.214-1.8855-.352-.1973-.706-.3953-1.061-.5969-1.44-.8175-2.881-1.6858-4.237-2.7702-.216-.1725-.251-.4871-.079-.7028z" fill="#000"/><path d="m156.134 69.0373c.261-.0886.545.0516.634.3132.341 1.0088.778 1.9713 1.236 2.9459.066.1414.133.2832.2.4255.393.8314.793 1.6786 1.139 2.5528.102.2568-.024.5473-.281.649-.256.1016-.547-.0241-.649-.2809-.333-.8418-.717-1.6564-1.111-2.489-.067-.1434-.135-.2874-.203-.4321-.46-.9778-.917-1.984-1.278-3.0504-.089-.2616.051-.5454.313-.634z" fill="#000"/><path d="m156.33 79.2333c.239-.1387.545-.0577.683.181.675 1.1597 1.344 2.3217 2.012 3.4839.137.2394.055.545-.185.6826-.239.1376-.545.055-.682-.1844-.668-1.1617-1.336-2.322-2.009-3.4795-.139-.2387-.058-.5448.181-.6836z" fill="#000"/><path d="m159.02 81.5076c.265.0786.416.3569.337.6217-.485 1.6337-.517 3.4429-.548 5.2403-.002.0948-.004.1896-.005.2843-.005.2761-.233.4958-.509.4907-.277-.005-.496-.233-.491-.5091.002-.1066.004-.214.005-.322.031-1.7622.064-3.6994.59-5.4689.078-.2647.357-.4156.621-.337z" fill="#000"/><path d="m158.102 82.464c.057-.2702.322-.4432.592-.3863 1.085.2284 2.181.3269 3.305.4086.175.0127.351.025.527.0374.949.0664 1.918.1344 2.884.2738.273.0394.463.293.424.5663-.04.2733-.293.4629-.567.4234-.926-.1337-1.854-.1987-2.803-.2653-.178-.0126-.357-.0251-.537-.0382-1.129-.0821-2.283-.1842-3.439-.4274-.27-.0569-.443-.3221-.386-.5923z" fill="#000"/><path d="m163.639 82.1425c.235-.1459.543-.0742.689.1602.958 1.5388 1.852 3.0921 2.738 4.6604.136.2404.052.5454-.189.6813-.24.136-.545.0513-.681-.1891-.885-1.5651-1.771-3.1037-2.717-4.6241-.146-.2344-.074-.5428.16-.6887z" fill="#000"/><path d="m121.846 100.8c.265-.075.542.079.617.345.305 1.078.612 2.127.992 3.153.096.259-.036.547-.294.643-.259.096-.547-.036-.643-.295-.396-1.066-.712-2.149-1.018-3.229-.075-.266.08-.542.346-.617z" fill="#000"/><path d="m121.267 103.198c.143-.236.45-.312.687-.168.493.299.994.632 1.494.964.045.03.091.06.137.091.549.364 1.098.726 1.658 1.056 1.123.663 2.246 1.172 3.398 1.301.275.031.472.278.442.553-.031.274-.279.471-.553.441-1.361-.153-2.628-.745-3.795-1.433-.585-.346-1.155-.721-1.704-1.085-.045-.03-.089-.06-.134-.089-.503-.335-.987-.657-1.462-.944-.236-.144-.311-.451-.168-.687z" fill="#000"/><path d="m122.694 104.495c.228.156.286.468.13.695-.506.739-1.028 1.447-1.544 2.147-1.043 1.413-2.061 2.793-2.877 4.333-.13.244-.432.337-.676.208-.244-.13-.337-.432-.208-.676.851-1.604 1.945-3.09 3.013-4.538.505-.685 1.003-1.362 1.467-2.039.156-.228.467-.286.695-.13z" fill="#000"/><path d="m118.738 110.376c.185-.205.501-.221.706-.036.487.439 1.037.934 1.624 1.353.59.422 1.177.737 1.73.849.27.055.445.318.391.589-.055.271-.319.446-.589.391-.755-.152-1.478-.561-2.114-1.015-.639-.457-1.229-.989-1.709-1.423l-.003-.002c-.205-.185-.221-.501-.036-.706z" fill="#000"/><path d="m112.912 96.8282c.216-.1721.531-.1365.703.0795.202.254.407.526.618.8065.405.5383.834 1.1082 1.316 1.6435.73.8103 1.475 1.4103 2.235 1.5803.269.061.439.328.378.598-.06.269-.328.439-.597.378-1.079-.242-2.001-1.046-2.759-1.887-.509-.5653-.992-1.2066-1.414-1.7656-.202-.2683-.39-.5176-.559-.7306-.172-.2159-.137-.5305.079-.7026z" fill="#000"/><path d="m113.22 84.2432c.276-.0021.502.2201.504.4962.028 3.7554.073 7.4905.365 11.2157.063.8087.152 1.5518.338 2.3046.066.2681-.097.5392-.365.6055-.269.0663-.54-.0972-.606-.3653-.205-.8303-.299-1.6358-.364-2.4666-.295-3.7648-.34-7.5326-.368-11.2864-.002-.2761.22-.5016.496-.5037z" fill="#000"/><path d="m132.423 88.1617c.275-.0216.516.184.537.4593.244 3.1061.298 6.2402.352 9.3514.022 1.2969.045 2.5896.08 3.8756.008.276-.209.506-.485.513-.276.008-.506-.209-.514-.485-.037-1.309-.059-2.6157-.082-3.9198-.053-3.0978-.106-6.1828-.348-9.2569-.021-.2753.184-.516.46-.5376z" fill="#000"/><path d="m130.916 97.3511c.167-.2196.481-.2618.701-.0944 1.183.9024 2.336 1.825 3.482 2.743 2.413 1.9313 4.801 3.8423 7.395 5.5023.233.149.301.458.152.691-.149.232-.458.3-.691.151-2.639-1.688-5.098-3.656-7.533-5.605-1.137-.9099-2.269-1.8156-3.412-2.6871-.219-.1674-.262-.4812-.094-.7008z" fill="#000"/><path d="m150.933 97.0422c.178.2112.151.5267-.06.7045-1.645 1.3848-3.357 2.6903-5.058 3.9883-.299.228-.598.456-.896.684-1.998 1.528-3.964 3.065-5.804 4.744-.203.186-.52.172-.706-.032s-.172-.52.032-.706c1.874-1.711 3.871-3.27 5.87-4.8.301-.23.601-.459.901-.688 1.702-1.2979 3.392-2.5873 5.017-3.9552.211-.1779.527-.1508.704.0604z" fill="#000"/><path d="m151.328 86.9495c.276.0192.483.258.464.5335-.335 4.8138-.597 7.4521-1.032 11.8336-.046.4574-.093.9334-.142 1.4334-.027.275-.272.476-.547.448-.275-.027-.476-.272-.448-.546.049-.5.096-.9765.142-1.4336.435-4.3808.695-7.0061 1.03-11.8049.019-.2754.258-.4832.533-.464z" fill="#000"/><path d="m143.22 82.2974c.149.2326.081.5419-.152.6907-2.02 1.2929-3.932 2.7447-5.837 4.2363-.428.3351-.856.6726-1.284 1.0108-1.474 1.1622-2.958 2.3319-4.483 3.4404-.223.1624-.536.1129-.698-.1104-.163-.2234-.113-.5361.11-.6985 1.508-1.0959 2.97-2.2492 4.442-3.4092.431-.34.863-.6806 1.297-1.0205 1.909-1.4953 3.852-2.9715 5.914-4.2912.233-.1488.542-.0809.691.1516z" fill="#000"/><path d="m142.094 83.1627c.152-.2307.462-.2946.693-.1428.643.423 1.294.8378 1.948 1.2537 2.437 1.5518 4.9 3.1193 7.027 5.1887.198.1926.202.5091.009.7071-.192.1979-.509.2022-.707.0096-2.045-1.9906-4.395-3.487-6.82-5.0314-.665-.4235-1.336-.8505-2.007-1.2924-.231-.1517-.295-.4618-.143-.6925z" fill="#000"/><path d="m144.973 84.0986c.276.0114.49.2442.479.5202l-.004.0843c-.162 3.9372-.324 7.8696-.427 11.8039-.007.276-.236.494-.513.4868-.276-.0072-.494-.2368-.486-.5129.102-3.9418.265-7.8807.427-11.8154.001-.0293.002-.0586.004-.0879.011-.276.244-.4904.52-.479z" fill="#000"/><path d="m144.664 95.8027c.141.2372.063.5441-.174.6855-1.468.8747-2.829 1.9023-4.214 2.9481-.038.0287-.076.0573-.114.086-1.416 1.0697-2.861 2.1537-4.435 3.0627-.239.138-.545.056-.683-.183s-.057-.545.183-.683c1.512-.874 2.911-1.9211 4.333-2.9948.043-.0328.087-.0656.13-.0984 1.373-1.0366 2.773-2.0934 4.288-2.9966.238-.1414.544-.0637.686.1735z" fill="#000"/><path d="m143.483 95.5838c.102-.2566.393-.3818.649-.2797 1.099.4373 2.234.8027 3.389 1.174.159.0513.319.1027.479.1544 1.311.4236 2.637.8672 3.905 1.4364.252.1131.364.4091.251.661s-.409.3644-.661.2512c-1.212-.5445-2.492-.9736-3.803-1.3971-.158-.0511-.317-.1023-.476-.1535-1.151-.3702-2.321-.7466-3.454-1.1973-.256-.1021-.381-.3929-.279-.6494z" fill="#000"/><path d="m113.157 93.6741c.196-.1952.512-.195.707.0004.066.0653.131.1305.196.1956 1.048 1.0507 2.067 2.0717 3.203 2.9545.218.1695.258.4836.088.7016-.169.2181-.483.2574-.701.088-1.188-.923-2.249-1.9861-3.287-3.0267-.069-.0689-.137-.1377-.206-.2063-.195-.1954-.195-.5119 0-.7071z" fill="#000"/><path d="m112.749 88.4307c.207-.183.523-.1636.706.0432.951 1.075 1.967 2.0645 2.999 3.0688.524.5095 1.051 1.0228 1.576 1.553.194.1963.192.5129-.004.7071-.196.1943-.513.1926-.707-.0036-.496-.5016-1.009-1.0009-1.526-1.5039-1.048-1.0208-2.113-2.057-3.087-3.1588-.183-.2068-.164-.5228.043-.7058z" fill="#000"/><path d="m122.016 82.5517c.169-.2185.483-.2587.702-.0899 1.097.8477 2.136 1.7713 3.157 2.6788.201.1788.401.357.601.5338.207.1829.226.4989.043.7058-.182.2069-.498.2263-.705.0434-.205-.1807-.408-.3615-.611-.5418-1.021-.9074-2.029-1.804-3.097-2.6287-.218-.1689-.258-.4829-.09-.7014z" fill="#000"/><path d="m123.406 71.1627c.129-.2441.432-.3372.676-.208.627.3318 1.289.6154 1.973.9084.103.044.206.0882.31.1328.784.3376 1.59.6966 2.336 1.1492.236.1431.312.4506.168.6868-.143.2361-.45.3115-.686.1683-.682-.4131-1.43-.7485-2.213-1.0857-.101-.0434-.203-.0869-.305-.1306-.681-.2916-1.385-.5927-2.051-.9454-.244-.1292-.337-.4318-.208-.6758z" fill="#000"/><path d="m126.944 67.9919c.198-.1927.515-.1885.707.0094.537.5515 1.205 1.214 1.924 1.7757.728.5684 1.46.9953 2.124 1.1295.271.0547.446.3185.391.5891-.055.2707-.318.4458-.589.3911-.894-.1806-1.775-.7226-2.542-1.3217-.775-.6057-1.482-1.3091-2.024-1.8661-.193-.1978-.189-.5144.009-.707z" fill="#000"/><path d="m145.639 66.721c.259-.0963.547.0353.643.2941.263.7061.471 1.454.672 2.1788.047.1696.094.3378.141.504.252.8907.515 1.7347.89 2.4925.122.2475.021.5474-.227.6699-.247.1224-.547.0211-.67-.2264-.419-.8466-.702-1.7675-.955-2.6639-.05-.1768-.099-.3523-.148-.5263-.2-.7216-.394-1.4177-.64-2.0796-.096-.2588.035-.5467.294-.6431z" fill="#000"/><path d="m160.493 82.3687c.27-.0593.537.1112.596.3809.188.8532.344 1.7206.499 2.5777.073.406.146.8097.222 1.2085.051.2713-.127.5329-.398.5843-.272.0514-.533-.1268-.585-.3981-.079-.4173-.153-.8306-.228-1.2413-.152-.8464-.303-1.6814-.487-2.5163-.059-.2697.112-.5364.381-.5957z" fill="#000"/><path d="m138.324 100.347c.115-.251.412-.3608.663-.246 1.38.634 2.724 1.316 4.053 2.048.242.133.33.437.196.679-.133.242-.437.33-.679.197-1.308-.721-2.63-1.392-3.987-2.015-.251-.115-.361-.412-.246-.663z" fill="#000"/><path d="m141.704 97.7615c.181-.2082.497-.2301.705-.0488 1.143.9946 2.538 1.8033 3.974 2.2179.266.0764.419.3534.342.6194-.077.265-.354.418-.619.341-1.595-.46-3.116-1.3473-4.353-2.424-.209-.1813-.23-.4972-.049-.7055z" fill="#000"/><path d="m144.176 91.8937c.057-.2702.322-.4432.592-.3863 1.201.2528 3.014.7178 4.576 1.1185.598.1535 1.16.2977 1.637.4168.268.067.431.3385.364.6064-.067.2678-.339.4307-.607.3638-.491-.1229-1.064-.2699-1.67-.4253-1.555-.3989-3.328-.8537-4.506-1.1016-.27-.0569-.443-.3221-.386-.5923z" fill="#000"/><path d="m144.598 87.8902c.024-.2751.267-.4781.542-.4536.867.0773 1.71.264 2.524.463.185.0453.368.091.55.1363.626.1567 1.235.3089 1.853.4224.272.0499.452.3105.402.5821s-.311.4514-.582.4015c-.652-.1199-1.302-.2823-1.934-.4403-.177-.0443-.353-.0881-.527-.1306-.805-.1969-1.587-.3681-2.375-.4384-.275-.0245-.478-.2674-.453-.5424z" fill="#000"/><path d="m120.251 106.552c.133-.241.438-.329.679-.196 1.382.763 2.587 1.818 3.733 2.822.221.194.441.386.659.574.209.18.233.496.053.705-.181.209-.496.233-.706.053-.231-.2-.46-.4-.687-.598-1.147-1.003-2.257-1.974-3.535-2.68-.242-.134-.33-.438-.196-.68z" fill="#000"/><path d="m65.4445 46.6065 6.8548-5.6278 4.2843 1.7316 1.7137 2.1646h3.4274l2.999-5.6278 6.8548 4.3291 2.1421 3.8961-2.1421 3.0304 2.1421 2.5975h3.8559l1.2852 2.5974-1.2852 9.0911h-4.7127l-3.4274 5.1949 1.7137 3.8962-7.2833 4.762-2.1421-3.8962h-5.1411l-3.4274 4.762-6.8548-3.8961-2.999-1.7317 2.999-5.1949v-1.7316h-2.999l-3.4274-3.0304v-8.6582l4.7127-.4329 2.999-4.3291zm8.5684 12.1215 6.8548-5.6278 2.1421 2.1645-.4284 6.9266-5.9979 4.762-2.5706-2.1646z" fill="#fff"/><path d="m65.4445 46.6065 6.8548-5.6278 4.2843 1.7316 1.7137 2.1646h3.4274l2.999-5.6278 6.8548 4.3291 2.1421 3.8961-2.1421 3.0304 2.1421 2.5975h3.8559l1.2852 2.5974-1.2852 9.0911h-4.7127l-3.4274 5.1949 1.7137 3.8962-7.2833 4.762-2.1421-3.8962h-5.1411l-3.4274 4.762-6.8548-3.8961-2.999-1.7317 2.999-5.1949v-1.7316h-2.999l-3.4274-3.0304v-8.6582l4.7127-.4329 2.999-4.3291zm8.5684 12.1215 6.8548-5.6278 2.1421 2.1645-.4284 6.9266-5.9979 4.762-2.5706-2.1646z" fill="#fff"/><path d="m71.7944 50.8238c.2408.1352.3264.44.1912.6808l-4.07 7.2512c-.1352.2408-.4399.3265-.6807.1913-.2409-.1352-.3265-.4399-.1913-.6807l4.07-7.2513c.1352-.2408.44-.3264.6808-.1913z" fill="#000"/><path d="m68.5455 47.7803c.2481-.1212.5475-.0182.6686.23.1026.2102.2038.4195.3044.6276.6537 1.3518 1.2834 2.6539 2.1196 3.8509.1581.2264.1028.5381-.1236.6962-.2263.1582-.538.1029-.6962-.1235-.8856-1.2677-1.553-2.6488-2.2038-3.9957-.0998-.2066-.1993-.4124-.2991-.6169-.1211-.2482-.0181-.5475.2301-.6686z" fill="#000"/><path d="m77.0609 42.6715c.2606-.0916.546.0454.6375.3059.4329 1.232.7897 2.483 1.1427 3.721.0663.2325.1325.4645.199.6959.1647.5728.2685.9187.5319 1.3178.152.2305.0885.5407-.142.6927-.2305.1521-.5407.0885-.6927-.142-.3553-.5384-.4937-1.0198-.6552-1.5815l-.0031-.0107c-.0677-.2357-.1347-.4706-.2015-.7048-.3532-1.2382-.7005-2.4558-1.1225-3.6568-.0916-.2606.0454-.546.3059-.6375z" fill="#000"/><path d="m77.7635 41.6964c.1415.2371.0641.544-.173.6856-3.1908 1.9052-6.3295 4.0647-8.7715 6.8283-.1828.207-.4988.2265-.7057.0436-.207-.1828-.2265-.4988-.0436-.7057 2.5453-2.8807 5.7903-5.1034 9.0081-7.0248.2371-.1415.5441-.0641.6857.173z" fill="#000"/><path d="m80.8395 48.3396c-.8259-.0488-1.6769.009-2.3972.0639-.2754.0209-.5156-.1853-.5365-.4606-.021-.2754.1852-.5156.4606-.5366.7185-.0547 1.631-.1182 2.5321-.065.8931.0528 1.8351.2226 2.5848.6772.2362.1431.3115.4506.1684.6868-.1432.2361-.4507.3115-.6868.1683-.543-.3292-1.2915-.4847-2.1254-.534z" fill="#000"/><path d="m87.7203 41.8916c.213.1757.2433.4908.0676.7039-1.3491 1.6359-2.3502 3.6762-3.3273 5.6676-.1198.2442-.2393.4877-.359.7296-.1225.2475-.4224.3489-.6699.2264-.2475-.1224-.3489-.4224-.2264-.6699.1183-.239.2373-.4818.3577-.7274.9689-1.9767 2.0241-4.1295 3.4534-5.8626.1757-.213.4908-.2433.7039-.0676z" fill="#000"/><path d="m94.0731 47.0084c.1963.1942.198.5108.0037.7071-1.171 1.1833-2.0592 2.7344-2.939 4.2709-.137.2392-.2737.478-.4113.7151-.1387.2388-.4447.32-.6835.1814s-.32-.4446-.1814-.6835c.1317-.2269.2648-.4596.3999-.6959.8731-1.5272 1.8334-3.207 3.1045-4.4914.1943-.1963.5109-.198.7071-.0037z" fill="#000"/><path d="m90.4617 50.6165c.2358-.1436.5435-.0689.6871.167.9096 1.4936 1.5576 3.0036 2.0843 4.6535.084.2631-.0612.5444-.3243.6284-.263.084-.5444-.0612-.6283-.3243-.5072-1.5886-1.1246-3.0235-1.9858-4.4375-.1436-.2358-.0689-.5435.167-.6871z" fill="#000"/><path d="m98.7193 55.7904c.0085.276-.2084.5066-.4844.515-.4219.013-.8469.0288-1.2743.0447-1.3571.0505-2.7371.1019-4.1103.0636-.276-.0077-.4935-.2377-.4858-.5138.0077-.276.2377-.4935.5137-.4858 1.3375.0373 2.672-.0123 4.0217-.0625.433-.0162.8676-.0323 1.3044-.0457.276-.0084.5066.2085.515.4845z" fill="#000"/><path d="m99.0154 55.4162c.275.0256.4772.2692.4516.5441-.0964 1.0379-.2187 2.0685-.3404 3.0943-.2584 2.1776-.5143 4.3336-.5143 6.4917 0 .2762-.2239.5-.5.5s-.5-.2238-.5-.5c0-2.2175.2675-4.4744.5293-6.6837.1198-1.011.2384-2.012.3297-2.9947.0255-.275.2691-.4772.5441-.4517z" fill="#000"/><path d="m99.4685 64.7589c.0164.2757-.1938.5124-.4695.5288-2.1432.1274-4.2883.2417-6.4366.3252-.2759.0107-.5083-.2043-.519-.4802-.0108-.2759.2042-.5083.4802-.5191 2.1389-.0831 4.2767-.197 6.4161-.3241.2757-.0164.5124.1938.5288.4694z" fill="#000"/><path d="m93.7124 62.4933c.2516.1138.3633.4101.2495.6616-.9991 2.2084-2.277 4.2383-3.542 6.2476-.2231.3544-.4458.7082-.6664 1.0621-.1461.2343-.4545.3059-.6889.1598-.2343-.1461-.3058-.4545-.1597-.6888.2252-.3613.4509-.7199.6756-1.0769 1.2657-2.0112 2.5019-3.9755 3.4703-6.1159.1138-.2516.41-.3633.6616-.2495z" fill="#000"/><path d="m88.8488 69.1273c.2337-.1472.5424-.0771.6896.1566.4862.7721.9268 1.5671 1.3585 2.3496.0157.0284.0314.0568.047.0851.4176.757.8281 1.5011 1.2743 2.2225.1453.2349.0726.543-.1622.6883-.2349.1452-.543.0726-.6883-.1622-.4596-.7432-.8809-1.5069-1.2953-2.258-.017-.0309-.034-.0618-.051-.0926-.4331-.7849-.8606-1.5557-1.3292-2.2998-.1471-.2337-.077-.5424.1566-.6895z" fill="#000"/><path d="m82.8563 74.2068c.0584.2699-.113.536-.3829.5945-2.3148.5012-4.3763.6318-6.7472.1077-.2697-.0596-.4399-.3264-.3803-.5961.0596-.2696.3265-.4399.5961-.3803 2.1939.485 4.1043.371 6.3198-.1087.2699-.0584.536.113.5945.3829z" fill="#000"/><path d="m81.7357 73.964c.2522-.1126.5479.0005.6604.2527.6548 1.4665 1.3794 2.8654 2.1289 4.3016.1277.2448.0328.5469-.212.6746-.2448.1278-.5468.0329-.6746-.212-.7485-1.4345-1.4865-2.8585-2.1554-4.3565-.1126-.2522.0006-.5478.2527-.6604z" fill="#000"/><path d="m91.7794 74.1416c.1543.229.0937.5398-.1353.694-.0815.055-.1631.1099-.2448.165-2.3326 1.572-4.7344 3.1906-7.3175 4.4175-.2494.1185-.5477.0124-.6661-.2371-.1185-.2494-.0124-.5477.2371-.6661 2.5139-1.1942 4.8605-2.7754 7.2108-4.3592.0739-.0498.1479-.0996.2218-.1494.229-.1543.5398-.0937.694.1353z" fill="#000"/><path d="m76.74 73.08c.2623.0865.4047.3692.3182.6315-.3765 1.1413-.8905 2.2269-1.4122 3.2805-.0938.1894-.1877.3775-.2811.5648-.4309.8632-.8524 1.7077-1.2114 2.5747-.1057.2552-.3981.3763-.6533.2707-.2551-.1057-.3763-.3981-.2706-.6533.3738-.9027.8144-1.7851 1.2459-2.6495.0921-.1845.1838-.3682.2744-.5511.5193-1.0488 1.0059-2.0807 1.3587-3.1501.0865-.2623.3692-.4047.6314-.3182z" fill="#000"/><path d="m71.1449 69.8375c.2001.1904.2079.5068.0176.7069-1.1345 1.1922-2.1416 2.4614-3.1684 3.7554-.4281.5396-.8598 1.0836-1.3054 1.628-.1749.2137-.49.2451-.7036.0702-.2137-.1749-.2451-.49-.0702-.7036.4245-.5187.8443-1.0476 1.2661-1.5793 1.0386-1.3087 2.0899-2.6335 3.257-3.8601.1904-.2.5069-.2079.7069-.0175z" fill="#000"/><path d="m65.553 75.1354c.1431-.2361.4506-.3115.6868-.1684 1.9515 1.1832 3.7948 2.5175 5.6228 3.8407.2355.1705.4708.3408.706.5106.0212.0152.0631.0483.1023.0792.021.0166.0412.0325.057.0448.0033.0025.0065.005.0097.0075.2444-.0491.4925.091.5726.3337.0198.0602.064.2048.0251.3679-.0235.0984-.0801.2138-.1934.3016-.1091.0846-.2254.1083-.3066.1122-.1413.0068-.2566-.0418-.3018-.0618-.0608-.027-.1175-.0599-.1632-.0887-.1496-.0942-.4012-.2959-.3869-.2856-.2364-.1706-.4721-.3412-.7074-.5115-1.8318-1.3258-3.6405-2.6349-5.5547-3.7954-.2361-.1432-.3115-.4507-.1683-.6868zm6.8075 4.9614c.003.009.0013.0068-.0014-.0045.0004.0015.0009.003.0014.0045z" fill="#000"/><path d="m68.0429 66.0264c.2727-.0437.5292.1418.5729.4145.238 1.4831.9689 3.119 2.0039 4.1648.1942.1963.1926.5129-.0037.7071s-.5129.1926-.7071-.0037c-1.2092-1.2218-2.0161-3.0628-2.2804-4.7098-.0438-.2726.1418-.5291.4144-.5729z" fill="#000"/><path d="m61.7439 66.0852c.0608-.2694.3285-.4384.5979-.3775 1.5637.3535 3.2202.3367 4.9045.3197.3623-.0036.726-.0073 1.0903-.0073.2762 0 .5.2239.5.5s-.2238.5-.5.5c-.3405 0-.6879.0037-1.0403.0075-1.687.018-3.486.0373-5.175-.3445-.2693-.0609-.4383-.3286-.3774-.5979z" fill="#000"/><path d="m62.073 57.6133c.0774-.2651.3551-.4171.6202-.3397 2.0506.5995 4.0402.4761 6.2234.2003.274-.0346.5241.1595.5587.4334.0346.274-.1594.5242-.4334.5588-2.209.279-4.371.4275-6.6293-.2326-.2651-.0775-.4171-.3552-.3396-.6202z" fill="#000"/><path d="m62.8818 57.254c.2761.0039.4967.231.4928.5071-.0161 1.1175-.0582 2.2336-.1001 3.3428-.0013.036-.0027.0721-.004.1081-.0433 1.1469-.0854 2.2867-.0982 3.426-.0104.918.0049 1.5132.2782 2.2495.0961.2589-.0359.5466-.2948.6427s-.5467-.0359-.6427-.2948c-.3423-.9224-.3511-1.6788-.3407-2.6087.013-1.1544.0557-2.3069.0989-3.4523.0013-.0347.0026-.0693.0039-.1039.042-1.1125.0837-2.2182.0996-3.3238.0039-.2761.231-.4967.5071-.4927z" fill="#000"/><path d="m59.6071 54.7175c.1825-.2073.4984-.2274.7057-.0449 1.1835 1.0418 2.1931 2.1366 3.2343 3.2656l.0161.0175c.1872.203.1744.5193-.0286.7065s-.5193.1744-.7065-.0286c-1.052-1.1407-2.0317-2.2031-3.176-3.2104-.2073-.1825-.2274-.4984-.045-.7057z" fill="#000"/><path d="m65.6228 54.6896c.0186.2755-.1897.5139-.4653.5324-.5845.0394-1.1481.0988-1.72.1591-.3609.038-.7251.0764-1.1001.1104-.9499.0859-1.924.1377-2.9312.0547-.2752-.0227-.4799-.2643-.4572-.5395s.2642-.4799.5394-.4572c.923.0762 1.8311.03 2.7589-.054.3426-.031.6948-.068 1.052-.1055.5901-.062 1.1939-.1255 1.791-.1657.2755-.0186.5139.1897.5325.4653z" fill="#000"/><path d="m68.4208 50.643c.1616.2239.1111.5364-.1128.698-1.3827.998-2.111 2.7169-2.5951 4.4884-.0728.2664-.3477.4233-.6141.3505s-.4233-.3477-.3505-.6141c.4948-1.8108 1.2967-3.8247 2.9744-5.0356.224-.1617.5365-.1112.6981.1128z" fill="#000"/><path d="m64.8529 45.969c.2323-.1492.5417-.0818.6909.1505.9303 1.4484 1.7036 2.9381 2.3933 4.5062.1112.2528-.0036.5478-.2563.659-.2528.1112-.5479-.0036-.659-.2564-.6725-1.5289-1.422-2.9712-2.3194-4.3684-.1492-.2323-.0818-.5417.1505-.6909z" fill="#000"/><path d="m64.5571 46.085c.1087-.2538.4026-.3715.6565-.2628.943.4039 1.8107.9169 2.6456 1.4188.0546.0329.1091.0657.1635.0984.7847.4722 1.5424.9282 2.3465 1.3032.2502.1167.3585.4142.2418.6645s-.4142.3585-.6645.2418c-.854-.3983-1.6547-.8803-2.4299-1.3469-.0577-.0348-.1152-.0694-.1726-.1039-.8375-.5035-1.6517-.983-2.5241-1.3566-.2539-.1087-.3715-.4026-.2628-.6565z" fill="#000"/><path d="m67.5871 50.5698c.1421-.2367.4493-.3134.686-.1712.8522.5118 1.7317.9251 2.659 1.3609l.028.0132c.2668.1254.5633.2647.8384.5427.1942.1963.1926.5128-.0037.7071-.1963.1942-.5128.1926-.7071-.0037-.1376-.1391-.2832-.2143-.5594-.3441l-.0418-.0197c-.9133-.4292-1.8322-.861-2.7282-1.3991-.2368-.1422-.3134-.4494-.1712-.6861z" fill="#000"/><path d="m64.7309 54.4213c.2266-.1578.5382-.1021.6961.1245.9559 1.3727 1.905 2.6721 3.0511 3.8303.1943.1962.1926.5128-.0037.7071-.1962.1942-.5128.1926-.7071-.0037-1.2109-1.2236-2.2011-2.584-3.161-3.9622-.1578-.2266-.102-.5382.1246-.696z" fill="#000"/><path d="m74.0295 39.9914c.1267.2453.0305.5469-.2149.6737-3.4679 1.791-6.7589 3.9323-9.0345 7.0987-.1612.2243-.4736.2754-.6978.1143-.2243-.1612-.2754-.4736-.1143-.6979 2.4148-3.3601 5.8756-5.5898 9.3878-7.4036.2453-.1268.5469-.0306.6737.2148z" fill="#000"/><path d="m71.6458 40.1987c.1319-.2426.4355-.3323.6781-.2004 1.6701.9082 3.3501 1.7459 5.0933 2.4664.2552.1055.3765.3979.271.6531s-.3978.3766-.653.2711c-1.7859-.7382-3.4991-1.5931-5.189-2.512-.2426-.132-.3323-.4356-.2004-.6782z" fill="#000"/><path d="m81.9393 45.3745c-1.4742 0-2.8844.0481-4.2983.316-.2713.0514-.5329-.1269-.5843-.3982s.1269-.533.3982-.5844c1.5083-.2857 2.9941-.3334 4.4844-.3334.2761 0 .5.2239.5.5 0 .2762-.2239.5-.5.5z" fill="#000"/><path d="m81.3918 44.3204c.2463-.125.5472-.0268.6723.2194.7061 1.3903 1.3729 2.8004 2.0356 4.2017.0733.155.1465.3098.2197.4646.1182.2496.0116.5477-.238.6658-.2496.1182-.5477.0116-.6658-.238-.0733-.1548-.1464-.3095-.2196-.4641-.6635-1.4032-1.3241-2.8002-2.0235-4.1772-.1251-.2462-.0269-.5471.2193-.6722z" fill="#000"/><path d="m85.0529 38.907c.2475.1224.3489.4223.2264.6698-.3489.7051-.7145 1.3833-1.0754 2.053-.7044 1.3068-1.3913 2.5812-1.903 3.96-.0961.2589-.3838.3909-.6427.2948s-.3909-.3839-.2948-.6427c.5349-1.4413 1.2802-2.8258 2.0044-4.171.3523-.6545.6996-1.2997 1.0152-1.9376.1225-.2475.4224-.3488.6699-.2263z" fill="#000"/><path d="m85.1632 39.0066c.2523-.1122.5478.0014.66.2537.6134 1.3795 1.2602 2.7345 1.921 4.0978.1204.2484.0166.5475-.2319.668-.2484.1204-.5475.0166-.668-.2319-.662-1.3658-1.3146-2.7327-1.9348-4.1275-.1122-.2524.0014-.5479.2537-.6601z" fill="#000"/><path d="m86.8597 42.4641c.1358-.2404.4408-.3252.6812-.1894 1.6116.9104 3.1069 2.0089 4.5742 3.0868.3845.2825.767.5635 1.1492.8393.2239.1616.2744.4741.1128.6981-.1616.2239-.4742.2744-.6981.1128-.3976-.2871-.7904-.5755-1.1812-.8625-1.4613-1.0733-2.8944-2.1258-4.4487-3.0038-.2404-.1358-.3253-.4408-.1894-.6813z" fill="#000"/><path d="m85.0832 39.1511c.1724-.2156.4871-.2507.7027-.0782.9561.7646 1.9824 1.385 3.0468 1.9893.254.1443.5112.2881.7702.433.8164.4566 1.6507.9231 2.4605 1.4438.2322.1494.2994.4587.1501.691-.1494.2323-.4587.2995-.691.1501-.7814-.5024-1.5781-.948-2.3883-1.4012-.2637-.1475-.5288-.2957-.7953-.447-1.0756-.6108-2.1578-1.2625-3.1775-2.078-.2157-.1725-.2507-.4871-.0782-.7028z" fill="#000"/><path d="m91.3114 42.5612c.2615-.0886.5454.0516.634.3132.2525.7453.5754 1.4578.9169 2.1845.0494.1051.0992.2106.1492.3165.2929.6201.5933 1.2564.8531 1.9127.1017.2567-.0241.5473-.2808.6489-.2568.1017-.5473-.0241-.649-.2808-.2469-.6239-.5319-1.2275-.8252-1.8488-.0506-.1071-.1014-.2148-.1524-.3232-.3429-.7299-.687-1.4861-.959-2.289-.0885-.2615.0517-.5454.3132-.634z" fill="#000"/><path d="m91.4353 50.1787c.2388-.1388.5448-.0578.6836.1809.5031.8655 1.0025 1.7326 1.5007 2.5997.1376.2394.055.545-.1844.6826s-.545.055-.6826-.1844c-.498-.8667-.9964-1.7321-1.4983-2.5953-.1387-.2387-.0577-.5448.181-.6835z" fill="#000"/><path d="m93.5424 51.8631c.2647.0786.4156.3569.337.6216-.3567 1.2017-.3803 2.5353-.4041 3.8814-.0012.0687-.0024.1375-.0037.2063-.0051.2761-.233.4959-.5091.4908s-.4958-.233-.4907-.5091c.0014-.0808.0028-.1622.0043-.2442.0225-1.3108.0476-2.7724.4447-4.1098.0786-.2647.3569-.4156.6216-.337z" fill="#000"/><path d="m92.6964 52.6725c.0569-.2702.322-.4432.5922-.3863.8003.1685 1.6112.2416 2.449.3025.1296.0094.2602.0185.3914.0277.7077.0496 1.4367.1006 2.1621.2054.2733.0394.4629.293.4234.5663-.0394.2733-.293.4629-.5663.4234-.6858-.099-1.3726-.1472-2.0807-.1969-.1333-.0094-.2674-.0188-.4024-.0286-.8427-.0612-1.7113-.1378-2.5825-.3212-.2702-.0569-.4431-.3221-.3862-.5923z" fill="#000"/><path d="m96.8843 52.351c.2344-.146.5427-.0742.6887.1602.716 1.1503 1.3839 2.311 2.0458 3.4814.1359.2404.0512.5454-.1891.6814-.2404.1359-.5455.0512-.6814-.1891-.6601-1.1673-1.3196-2.3133-2.0243-3.4452-.1459-.2344-.0742-.5428.1603-.6887z" fill="#000"/><path d="m65.7371 66.2553c.2658-.0751.5421.0794.6172.3451.2273.804.4552 1.5828.7374 2.3431.0961.2589-.0359.5466-.2948.6427s-.5467-.0359-.6427-.2948c-.2973-.8009-.5343-1.6132-.7622-2.4189-.0751-.2657.0794-.542.3451-.6172z" fill="#000"/><path d="m65.2317 68.1007c.1432-.2361.4506-.3115.6868-.1683.3704.2246.7463.4744 1.1187.7219.0342.0227.0683.0454.1024.068.4097.2721.8172.5404 1.2314.7847.8323.4908 1.6517.8599 2.4851.9535.2745.0308.4719.2783.4411.5527s-.2782.4719-.5526.4411c-1.0416-.117-2.0057-.5694-2.8816-1.086-.4399-.2594-.8677-.5414-1.2766-.8129-.0334-.0222-.0666-.0443-.0998-.0663-.3762-.25-.7348-.4884-1.0866-.7016-.2361-.1432-.3115-.4506-.1683-.6868z" fill="#000"/><path d="m66.477 69.03c.2278.156.286.4672.1299.695-.3832.5593-.7755 1.0911-1.1618 1.6147-.7743 1.0496-1.5245 2.0666-2.1292 3.2072-.1294.2439-.432.3369-.676.2075-.244-.1293-.3369-.432-.2075-.6759.6387-1.2048 1.4654-2.3268 2.2648-3.4116.375-.509.744-1.0097 1.0847-1.5071.1561-.2278.4673-.2859.6951-.1298z" fill="#000"/><path d="m63.3602 73.4366c.185-.2051.5012-.2213.7062-.0364.364.3284.7693.693 1.1998 1.0008.4346.3106.8556.534 1.242.612.2706.0547.4457.3185.391.5892-.0547.2706-.3185.4457-.5891.391-.5888-.119-1.1455-.4357-1.6254-.7787-.4823-.3447-.9269-.7458-1.2846-1.0685l-.0036-.0033c-.205-.1849-.2213-.5011-.0363-.7061z" fill="#000"/><path d="m59.0283 63.315c.216-.1721.5305-.1365.7026.0795.1553.1949.31.4006.4684.6112.2999.3986.6132.8151.9697 1.2107.5409.6004 1.0747 1.0223 1.6007 1.1404.2694.0605.4388.328.3783.5974s-.328.4388-.5974.3783c-.8451-.1898-1.556-.8156-2.1246-1.4467-.3835-.4257-.7512-.9136-1.0673-1.333-.1494-.1983-.2873-.3813-.4099-.5352-.1721-.2159-.1365-.5305.0795-.7026z" fill="#000"/><path d="m59.3361 53.8989c.2761-.002.5016.2201.5037.4963.0211 2.8018.0544 5.5841.2722 8.3582.0472.6005.1122 1.147.2487 1.6988.0664.2681-.0972.5391-.3652.6055-.2681.0663-.5392-.0973-.6055-.3653-.1557-.6293-.226-1.2381-.2749-1.8607-.2209-2.8138-.2541-5.6288-.2752-8.429-.0021-.2761.22-.5017.4962-.5038z" fill="#000"/><path d="m73.6533 56.8224c.2753-.0217.516.184.5376.4593.1823 2.3213.2227 4.6656.2627 6.9884.0166.9666.0332 1.9295.0599 2.8854.0077.2761-.2098.5061-.4858.5138s-.5061-.2098-.5138-.4858c-.0274-.9795-.0442-1.9558-.0609-2.9296-.0398-2.3094-.0792-4.6046-.2591-6.8939-.0216-.2753.1841-.516.4594-.5376z" fill="#000"/><path d="m72.4374 63.7276c.1675-.2196.4812-.2618.7008-.0944.8879.6772 1.7504 1.3675 2.6073 2.0534 1.7969 1.4383 3.569 2.8568 5.4991 4.092.2326.1488.3005.4581.1516.6907-.1488.2325-.4581.3004-.6906.1516-1.9745-1.2636-3.8179-2.7387-5.6379-4.1951-.8467-.6776-1.6884-1.3511-2.5359-1.9974-.2196-.1675-.2618-.4812-.0944-.7008z" fill="#000"/><path d="m87.5705 63.4924c.1778.2112.1508.5267-.0604.7045-1.2295 1.0353-2.5097 2.0117-3.7785 2.9795-.2232.1701-.446.3401-.6681.51-1.49 1.14-2.9535 2.2835-4.3211 3.5321-.2039.1862-.5202.1718-.7064-.0321-.1862-.204-.1718-.5202.0322-.7064 1.4022-1.2803 2.8959-2.4464 4.3877-3.5878.2245-.1718.4488-.3429.6728-.5138 1.2695-.9682 2.5279-1.9281 3.7372-2.9464.2113-.1779.5267-.1508.7046.0604z" fill="#000"/><path d="m87.5436 53.9002c.2755.0191.4833.258.4641.5335-.1151 1.653-.1778 3.3125-.2408 4.9812-.0121.3201-.0242.6405-.0367.9613-.0774 1.989-.1696 3.9881-.3664 5.977-.0272.2748-.272.4755-.5468.4483s-.4755-.272-.4483-.5468c.1936-1.9568.2849-3.9303.3623-5.9174.0124-.3183.0244-.637.0364-.9561.063-1.6687.1264-3.3466.2427-5.017.0192-.2755.2581-.4832.5335-.464z" fill="#000"/><path d="m81.8243 52.5059c.1489.2326.081.5418-.1516.6907-1.5018.9611-2.9244 2.0411-4.3448 3.1534-.3186.2495-.6374.5009-.957.7529-1.1.8673-2.2093 1.742-3.3494 2.5706-.2233.1624-.536.1129-.6984-.1104-.1623-.2234-.1129-.5361.1105-.6985 1.1227-.8159 2.2112-1.6743 3.3085-2.5394.3219-.2539.6447-.5084.9692-.7625 1.4252-1.1161 2.8786-2.2205 4.4224-3.2084.2326-.1488.5418-.081.6906.1516z" fill="#000"/><path d="m80.7718 53.15c.1518-.2307.4619-.2946.6925-.1428.4761.3132.9599.6211 1.4459.9304 1.8201 1.1585 3.6716 2.337 5.2686 3.8909.1979.1926.2022.5091.0097.7071-.1926.1979-.5092.2022-.7071.0096-1.5159-1.475-3.2545-2.5824-5.0619-3.7336-.4975-.3168-1.0001-.637-1.5048-.969-.2307-.1518-.2947-.4619-.1429-.6926z" fill="#000"/><path d="m83.0314 53.791c.2759.0113.4903.2442.479.5201l-.0026.0625c-.1212 2.9376-.2421 5.8705-.3185 8.8046-.0072.276-.2368.494-.5129.4868-.276-.0072-.494-.2368-.4868-.5128.0766-2.9418.1978-5.8811.3189-8.8162l.0027-.0661c.0114-.2759.2443-.4903.5202-.4789z" fill="#000"/><path d="m82.9045 62.5845c.1414.2372.0637.5441-.1736.6854-1.089.649-2.0995 1.4119-3.1345 2.1934-.0275.0208-.0551.0416-.0827.0624-1.0563.7974-2.1402 1.6107-3.3222 2.2933-.2391.138-.5449.0561-.683-.183-.1381-.2392-.0562-.545.183-.683 1.1208-.6472 2.1579-1.4238 3.2197-2.2254.033-.0249.0661-.0499.0991-.0749 1.0228-.7722 2.0718-1.5643 3.2087-2.2418.2372-.1414.5441-.0637.6855.1736z" fill="#000"/><path d="m81.7963 62.4392c.1022-.2565.3929-.3817.6495-.2796.8152.3245 1.6581.5957 2.5195.8729.1189.0382.2382.0766.3577.1152.9782.3161 1.9739.6489 2.9265 1.0767.2519.1131.3644.409.2512.6609-.1131.2519-.409.3644-.6609.2513-.8976-.4031-1.8466-.7214-2.8242-1.0373-.1179-.0381-.2364-.0762-.3551-.1144-.8582-.276-1.7356-.5582-2.5845-.8962-.2566-.1021-.3818-.3929-.2797-.6495z" fill="#000"/><path d="m59.2003 60.9715c.1954-.1952.512-.195.7071.0003.0482.0483.0963.0964.1443.1445.7837.7853 1.5387 1.5416 2.3794 2.1951.218.1695.2574.4836.0879.7016-.1694.2181-.4836.2574-.7016.088-.8924-.6937-1.6891-1.4921-2.4626-2.2673-.0517-.0518-.1033-.1036-.1548-.1551-.1952-.1954-.195-.512.0003-.7071z" fill="#000"/><path d="m58.9011 57.0547c.2069-.183.5228-.1636.7058.0432.7066.7987 1.459 1.531 2.2266 2.2781.3913.3808.7866.7655 1.1817 1.1648.1943.1962.1926.5128-.0037.7071-.1962.1942-.5128.1926-.7071-.0037-.3667-.3706-.7474-.7413-1.1319-1.1157-.7842-.7635-1.5843-1.5426-2.3146-2.368-.1829-.2068-.1636-.5228.0432-.7058z" fill="#000"/><path d="m65.7987 52.686c.1689-.2185.4829-.2588.7014-.0899.8222.6353 1.601 1.3277 2.3626 2.0048.1498.1332.2989.2658.4476.3972.2069.183.2263.4989.0434.7058s-.4989.2263-.7058.0434c-.153-.1353-.3051-.2705-.4567-.4052-.7614-.6769-1.5101-1.3424-2.3026-1.9547-.2185-.1689-.2587-.4829-.0899-.7014z" fill="#000"/><path d="m66.8238 44.2081c.1292-.2441.4318-.3372.6758-.208.4628.2449.9515.4542 1.4624.673.0767.0328.154.0659.2317.0994.5854.2519 1.1934.5227 1.7586.8653.2362.1432.3116.4507.1684.6868-.1432.2362-.4507.3115-.6868.1684-.5-.3032-1.0509-.5504-1.6355-.802-.0749-.0322-.1505-.0646-.2266-.0971-.5077-.2173-1.0379-.4443-1.54-.71-.244-.1292-.3372-.4317-.208-.6758z" fill="#000"/><path d="m69.4871 41.8107c.1979-.1926.5144-.1884.7071.0094.3999.4108.8932.8998 1.4224 1.3133.5378.4201 1.0655.724 1.5316.8182.2706.0547.4457.3185.391.5892-.0547.2706-.3184.4457-.5891.391-.6958-.1406-1.3721-.5596-1.9491-1.0104-.5856-.4575-1.118-.9874-1.5233-1.4036-.1926-.1979-.1884-.5144.0094-.7071z" fill="#000"/><path d="m83.478 40.8348c.2588-.0964.5467.0353.6431.2941.1982.5323.3549 1.0969.5051 1.638.035.1259.0696.2505.1043.3732.1877.6637.3813 1.2837.6554 1.8377.1225.2475.0211.5474-.2264.6699-.2475.1224-.5474.0211-.6699-.2264-.3181-.6429-.5321-1.3397-.7214-2.0091-.0377-.1333-.0743-.2651-.1106-.3955-.1494-.5379-.2919-1.0506-.4737-1.5389-.0963-.2588.0353-.5467.2941-.643z" fill="#000"/><path d="m94.5773 52.5035c.2697-.0593.5364.1112.5957.3809.1405.6388.2581 1.2901.3738 1.9309.0546.3022.1087.6021.1647.8973.0514.2713-.1269.533-.3982.5844s-.5329-.1269-.5843-.3982c-.0595-.3137-.1154-.6232-.1708-.9301-.1137-.6301-.2254-1.2489-.3619-1.8695-.0593-.2697.1113-.5364.381-.5957z" fill="#000"/><path d="m77.9501 65.9867c.1152-.2509.4121-.3609.663-.2456 1.0327.4743 2.0379.9839 3.0316 1.5316.2419.1333.3299.4374.1966.6793-.1333.2418-.4374.3298-.6793.1965-.9735-.5366-1.957-1.0351-2.9663-1.4987-.2509-.1153-.3609-.4121-.2456-.6631z" fill="#000"/><path d="m80.4911 64.0277c.1813-.2083.4971-.2302.7054-.0489.8403.7316 1.8653 1.325 2.9164 1.6284.2654.0766.4183.3538.3417.6191s-.3537.4183-.619.3417c-1.2096-.3492-2.3611-1.0213-3.2957-1.8349-.2083-.1813-.2302-.4972-.0488-.7054z" fill="#000"/><path d="m82.3067 59.7072c.0569-.2703.3221-.4432.5923-.3863.622.1309 1.2297.3124 1.8139.4869l.048.0144c.6059.1809 1.1876.3531 1.7758.4719.2706.0547.4457.3185.391.5892-.0547.2706-.3185.4457-.5891.391-.6395-.1292-1.2635-.3146-1.8639-.4939l-.0316-.0095c-.5961-.178-1.1692-.3492-1.7501-.4715-.2702-.0568-.4432-.322-.3863-.5922z" fill="#000"/><path d="m82.6192 56.7354c.0245-.275.2674-.4781.5424-.4536.6569.0586 1.2935.1998 1.9018.3485.1396.0342.277.0685.413.1025.4669.1167.9161.2289 1.3728.3128.2716.0499.4513.3106.4014.5822s-.3105.4513-.5821.4014c-.4909-.0902-.981-.2128-1.453-.3308-.1314-.0328-.2614-.0653-.3897-.0967-.5995-.1466-1.1751-.2723-1.753-.3239-.275-.0245-.4781-.2673-.4536-.5424z" fill="#000"/><path d="m64.4716 70.6075c.1335-.2418.4377-.3295.6794-.196 1.0437.5765 1.9546 1.3743 2.8096 2.123.1646.1441.3271.2864.4881.425.2092.1801.2329.4958.0527.7051-.1801.2093-.4958.2329-.7051.0528-.1745-.1502-.3462-.3003-.5163-.4491-.8556-.7481-1.6718-1.4618-2.6125-1.9814-.2417-.1335-.3294-.4377-.1959-.6794z" fill="#000"/></g></svg>