<svg fill="none" height="76" viewBox="0 0 99 76" width="99" xmlns="http://www.w3.org/2000/svg" xmlns:xlink="http://www.w3.org/1999/xlink"><clipPath id="a"><path d="m0 0h99v76h-99z"/></clipPath><g clip-path="url(#a)"><path d="m9.13606 75.8813-.00462.0302c-.00548-.0294-.01076-.0594-.01577-.089-.00916-.0478-.01711-.0956-.0246-.1438-.29727-1.881-.13368-3.8066.4766-5.6097.11731-.352.25091-.6975.40082-1.0365.57331-1.3131 1.38601-2.5067 2.39621-3.5192.328-.3374.7022-.626 1.1113-.8571.0601-.032.1205-.0623.1822-.0902.3784-.1846.8044-.2466 1.2194-.1776.1507.0284.2968.0777.4341.1464.0481.0236.0945.0494.14.077.2773.1828.5141.4212.6956.7002.1814.2791.3036.5928.3589.9215.0788.4903.0607.9914-.0531 1.4747-.0098.0462-.0203.0922-.0315.138-.0807.3221-.1821.6387-.3036.9476-1.2157 3.1441-3.8284 5.9337-6.98194 7.0875z" fill="#f2f2f2"/><g fill="#fff"><path d="m15.3037 64.5449c-.9487 1.3702-1.8448 2.7751-2.6884 4.2148-.8426 1.4385-1.6301 2.9077-2.3625 4.4077-.40971.8392-.80151 1.6869-1.17539 2.5431-.0414.0948.09825.1772.14018.0812.66771-1.5284 1.39231-3.03 2.17381-4.5046.781-1.4732 1.6169-2.9152 2.5076-4.3259.4984-.7893 1.0134-1.5677 1.5449-2.3351.0594-.0858-.081-.1667-.1402-.0812z"/><path d="m16.3187 67.7165c-.7129.9312-1.7622 1.5424-2.9205 1.7012-.3231.0443-.6502.0508-.9749.0194-.1038-.0099-.1045.1528-.0016.1626 1.2081.1022 2.4075-.2788 3.3378-1.0601.261-.2192.4957-.4682.6994-.7419.0623-.0834-.0783-.1641-.1402-.0812z"/><path d="m10.2302 72.7678c-.1657-.2373-.30342-.4932-.41031-.7625-.24421-.614-.33089-1.2798-.25208-1.9363.1173-.352.25091-.6975.40082-1.0365.00908.0133.01454.0288.01585.0449s-.00158.0323-.00838.0469c-.10556.2544-.18144.5202-.22614.7921-.16045.9696.06229 1.9638.62074 2.7707.0071.0088.0118.0193.0136.0305.0019.0111.0009.0226-.0029.0332-.0062.0142-.016.0264-.0284.0356-.0125.0091-.027.0148-.0423.0165s-.0308-.0006-.0449-.0068c-.0141-.0061-.0264-.0159-.0356-.0283z"/><path d="m13.5002 64.5532c-.1951.7815-.137 1.6051.1659 2.3511.0107.0186.0283.0322.049.0379.0206.0057.0427.0029.0613-.0077.0183-.011.0316-.0287.0372-.0494.0056-.0206.0031-.0427-.0071-.0615-.2836-.7078-.3362-1.4878-.1502-2.2276.0048-.0205.0015-.0421-.0092-.0603-.0107-.0181-.028-.0313-.0483-.0369-.0202-.0055-.0418-.003-.0602.0072-.0184.0101-.0322.0271-.0384.0472z"/></g><path d="m9.11615 71.9545.00982.0289c-.0184-.0234-.03695-.0476-.05506-.0714-.0302-.0381-.05936-.0768-.08824-.1159-1.1326-1.527-1.87763-3.3085-2.17053-5.1903-.05878-.3664-.10015-.7348-.1241-1.105-.09914-1.4305.06894-2.8669.49557-4.2352.13453-.4519.33255-.8823.58806-1.278.03841-.0563.07789-.1114.11964-.1649.2498-.3401.59838-.594.99771-.7266.14665-.0452.2988-.0697.45214-.073.05351-.0016.1065-.0004.15951.0028.33009.0324.65003.1329.93963.2953s.5428.3832.7437.6485c.2964.3974.512.8496.6346 1.3307.0127.0455.0246.0911.0358.1369.0774.323.1339.6506.1692.9809.3764 3.352-.6481 7.0422-2.90745 9.5363z" fill="#f2f2f2"/><path d="m9.3388 59.0358c-.20684 1.6563-.35112 3.3189-.43284 4.9877-.08137 1.6672-.09973 3.336-.05509 5.0063.02503.9344.06985 1.8681.13446 2.8009.00713.1032.16889.111.16167.0064-.11508-1.6652-.16735-3.3333-.15681-5.0041.01081-1.6692.08461-3.3364.22139-5.0016.07658-.9317.17287-1.8614.28888-2.7891.01296-.1038-.14875-.1099-.16166-.0065z" fill="#fff"/><path d="m11.7033 61.3705c-.2009 1.1574-.8476 2.1887-1.79996 2.8701-.26569.1901-.55239.3486-.85437.4723-.09653.0398-.02199.1842.07372.1448 1.11701-.4736 2.00311-1.371 2.46591-2.4972.1298-.316.2225-.646.2764-.9836.0167-.1029-.1451-.1087-.1617-.0064z" fill="#fff"/><path d="m8.64621 68.6864c-.25644-.1327-.49665-.295-.71577-.4836-.50002-.4297-.88451-.9789-1.11811-1.597-.05878-.3665-.10015-.7348-.1241-1.1051.01421.0076.0262.0188.03481.0324.0086.0137.01351.0293.01425.0455.02408.2745.07972.5453.16581.807.30602.9336.96278 1.71 1.83023 2.1639.01033.0045.01934.0115.02616.0205s.01123.0197.01281.0309c.00099.0154-.00205.0308-.00883.0447-.00677.0139-.01705.0257-.0298.0344-.01275.0086-.02753.0138-.04287.0149-.01535.0012-.03071-.0018-.04459-.0085z" fill="#fff"/><path d="m7.74549 59.8852c.18837.7831.62048 1.4853 1.23344 2.0045.01811.0115.04.0154.06091.0107.02091-.0046.03917-.0173.05081-.0354.01104-.0183.01464-.0402.01006-.0611-.00457-.0209-.01699-.0392-.03466-.0512-.57825-.4944-.98534-1.1606-1.16257-1.9025-.00521-.0204-.01811-.038-.03598-.0491-.01788-.0111-.03933-.0147-.05982-.0102-.0205.0046-.03845.0169-.05005.0345s-.01596.039-.01214.0598z" fill="#fff"/><path d="m9.18622 75.9013.02372.019c-.02804-.0097-.05661-.02-.08465-.0303-.04584-.0158-.09112-.0326-.13644-.0499-1.7725-.6735-3.35485-1.7713-4.60991-3.1983-.2459-.277-.47813-.5649-.69669-.8639-.85-1.1516-1.47807-2.453-1.85176-3.8368-.1288-.4536-.19253-.9234-.18926-1.3951.00216-.0683.00593-.136.0124-.2038.02826-.4217.18596-.8243.45135-1.1522.09936-.1175.21441-.2205.34187-.3063.04421-.0303.08952-.058.13589-.084.29549-.1514.61889-.2398.94995-.2598.33107-.0199.66267.029.97405.1438.46268.1744.88668.4387 1.24777.7778.03505.0314.06956.0634.10356.0959.23826.2302.46143.4757.6681.735 2.11326 2.6205 3.22733 6.2844 2.66005 9.6089z" fill="#f2f2f2"/><path d="m2.45153 64.8958c.7132 1.5076 1.48247 2.9865 2.3078 4.4368.8248 1.4489 1.7035 2.8649 2.63608 4.2481.5218.7738 1.05982 1.5362 1.61408 2.2872.06133.0831.20181.0021.13969-.0821-.98927-1.3408-1.92708-2.718-2.81345-4.1315-.88531-1.4123-1.71647-2.857-2.49347-4.3341-.43467-.8265-.85168-1.6619-1.25105-2.5065-.04468-.0944-.1842-.012-.13968.0821z" fill="#fff"/><path d="m5.69505 65.5829c.4509 1.0841.45853 2.303.02122 3.3927-.122.304-.27864.5927-.46677.8605-.06004.0857.08016.167.13969.082.68742-1.0037.9532-2.2394.73964-3.4389-.05995-.3365-.15864-.6648-.29409-.9783-.04113-.0959-.18054-.0131-.13969.082z" fill="#fff"/><path d="m7.03912 73.4022c-.28722.027-.57658.0202-.86225-.02-.65155-.0914-1.26977-.346-1.79781-.7404-.24589-.277-.47812-.5649-.69669-.8639.01603-.0013.03211.0016.04667.0084.01457.0068.0271.0174.03638.0306.16739.2183.35938.4163.57212.5902.75808.621 1.7275.9197 2.70158.8325.01111-.0018.0225-.0007.03307.0032s.01997.0104.0273.019c.00911.0125.01481.0271.01654.0425s-.00057.0309-.00667.0451c-.00611.0142-.0158.0266-.02813.0358-.01232.0093-.02684.0151-.04211.017z" fill="#fff"/><path d="m1.56433 66.4738c.57833.5579 1.3187.9157 2.11337 1.0214.04367.0058.08047-.0416.08088-.0813-.0005-.0214-.00919-.0418-.02425-.057-.01506-.0151-.03534-.0238-.05663-.0243-.75213-.1036-1.4521-.4445-1.99898-.9737-.07498-.0727-.18953.0421-.1144.1149z" fill="#fff"/><path d="m20.228 54.4563c.158-.1088.2903-.2512.3876-.417s.1573-.351.1757-.5427c.0184-.1916-.0052-.3849-.0692-.5664-.064-.1814-.1668-.3466-.3012-.4838l.5082-11.4022-2.5873.2919.1503 11.153c-.2144.2421-.3329.5549-.3332.879-.0002.3241.1178.6371.3318.8796s.509.3976.8292.4361c.3202.0384.6433-.0425.9081-.2275z" fill="#ffb8b8"/><path d="m24.948 73.7577 1.4726.2602 1.4555-5.5852-1.9295-.384z" fill="#ffb8b8"/><path d="m29.0203 75.8941-4.6282-.8178.3144-1.7972 2.84.5018c.2348.0415.4592.1291.6603.2577.2012.1287.3752.2959.512.4921.1369.1963.2339.4177.2857.6516.0517.2339.057.4758.0158.7118z" fill="#2f2e41"/><path d="m20.9062 74.4986 1.4952-.0001.7113-5.7966-2.2067.0001z" fill="#ffb8b8"/><path d="m25.2849 75.8939-4.6991.0002-.0001-1.8248 2.8836-.0002c.4815 0 .9433.1923 1.2838.5345s.5318.8063.5318 1.2903z" fill="#2f2e41"/><path d="m27.2666 72.9113c-.0234 0-.0467-.0014-.0699-.0042l-1.7598-.1455c-.0801-.0095-.1575-.0352-.2274-.0757-.07-.0404-.131-.0948-.1794-.1597-.0483-.0648-.0831-.1389-.1021-.2177-.0191-.0788-.0219-.1607-.0085-.2407l1.625-9.1544-1.098-5.8194c-.009-.0473-.0346-.0897-.0723-.1195-.0376-.0297-.0847-.0448-.1325-.0424s-.0932.0221-.1277.0554c-.0345.0334-.0559.0782-.0601.1261l-1.3727 15.5221c-.0151.1558-.0898.2996-.2083.401-.1186.1015-.2717.1527-.4271.1429l-1.658-.062c-.1453-.0104-.2818-.0738-.3837-.1784s-.1622-.2431-.1695-.3893l-.1115-18.6038 8.5957-1.0799.6005 9.3211-.0024.0099-2.0721 10.2569c-.0316.1303-.1057.2461-.2106.329-.1048.0829-.2343.128-.3676.1282z" fill="#2f2e41"/><path d="m23.5572 33.6555c1.6543 0 2.9954-1.348 2.9954-3.0107 0-1.6628-1.3411-3.0108-2.9954-3.0108-1.6544 0-2.9954 1.348-2.9954 3.0108 0 1.6627 1.341 3.0107 2.9954 3.0107z" fill="#ffb8b8"/><path d="m26.3796 55.3058c-.4685.0028-.928-.1293-1.3241-.3807-1.451-.9115-3.099-.5492-3.9523-.2521-.0846.0298-.1749.0399-.264.0297-.0892-.0102-.1749-.0405-.2507-.0887-.0749-.0473-.1383-.111-.1853-.1864s-.0764-.1605-.086-.249l-1.5516-13.9282c-.26-2.3337 1.1386-4.5278 3.3255-5.217.0822-.0259.1657-.0505.2507-.0737.6805-.1855 1.3932-.2188 2.088-.0976.6947.1212 1.3546.3939 1.9331.7991.5894.4095 1.0822.9439 1.444 1.5656.3617.6216.5834 1.3154.6497 2.0325l1.3062 14.0216c.0089.0908-.0033.1824-.0356.2676-.0324.0853-.0839.1618-.1507.2236-.4579.4258-1.7869 1.5336-3.1969 1.5337z" fill="#0278d5"/><path d="m21.6546 43.2372-3.5006-.3869c-.0996-.011-.1956-.0434-.2816-.0951s-.1599-.1214-.2167-.2044-.0951-.1773-.1123-.2765c-.0173-.0992-.013-.201.0124-.2984l.891-3.4135c.0589-.5118.3174-.9793.7187-1.3.4014-.3206.9128-.4682 1.4223-.4104.5094.0579.9752.3164 1.2953.7189s.4684.9161.4122 1.4283l.1323 3.5151c.0038.1006-.0141.2009-.0524.294-.0383.093-.096.1767-.1694.2453s-.1606.1205-.2557.1522-.1959.0424-.2955.0314z" fill="#0278d5"/><path d="m29.7486 53.9681c.1438-.1272.2581-.2845.3348-.4609.0768-.1764.1141-.3676.1094-.56-.0047-.1925-.0514-.3816-.1367-.5539-.0852-.1724-.2071-.3239-.3569-.4438l-.8626-11.3807-2.5353.5736 1.4882 11.0831c-.1838.2663-.2639.5912-.2253.9129.0386.3218.1933.6182.4348.833s.553.3331.8754.3325c.3225-.0006.6336-.1201.8742-.3358z" fill="#ffb8b8"/><path d="m25.3292 42.5218c-.0734-.0686-.1312-.1523-.1695-.2454-.0382-.0931-.0561-.1933-.0523-.294l.1323-3.515c-.0561-.5122.0921-1.0259.4122-1.4284s.786-.661 1.2954-.7188 1.0209.0898 1.4222.4104.6598.7881.7187 1.3l.8911 3.4134c.0254.0974.0296.1992.0124.2984-.0173.0992-.0556.1936-.1123.2765-.0568.083-.1307.1527-.2167.2044s-.1821.0842-.2817.0952l-3.5006.3869c-.0996.011-.2004.0003-.2955-.0313-.0952-.0317-.1824-.0837-.2557-.1523z" fill="#0278d5"/><path d="m23.3791 33.7689c-.0533-.0001-.1064-.0063-.1582-.0186l-.0152-.0037c-2.6336-.4049-3.2156-1.9382-3.3434-2.5785-.1322-.6629.0184-1.3028.3586-1.5513-.1855-.5887-.1557-1.1107.0887-1.5522.4263-.7698 1.3514-1.0301 1.4755-1.0619.7388-.5479 1.6228-.1822 1.7836-.108 1.4292-.5315 1.9754-.0891 2.0742.0097.6389.1153 1.0283.3634 1.1576.7374.2428.7025-.5251 1.5763-.5579 1.6132l-.0171.0191-1.1439.0548c-.1086.0052-.2148.0333-.3119.0824-.097.0491-.1827.1182-.2515.2028s-.1191.1827-.1477.2881-.0349.2156-.0184.3236c.031.1393.0701.2766.1172.4113.1953.6137.3417 1.1379.1529 1.3373-.0428.0385-.0955.0642-.1521.0741-.0566.0098-.1149.0035-.1681-.0184-.1788-.048-.3003-.0379-.3608.03-.0939.1054-.0652.372.0808.7509.0458.1198.0581.2499.0356.3762-.0224.1264-.0789.2441-.1632.3405-.0634.0753-.1424.1358-.2313.1774-.089.0417-.1859.0634-.284.0638z" fill="#2f2e41"/><path d="m58.7542 43.3935h-14.7569c-.5496-.0006-1.0766-.2203-1.4653-.611s-.6073-.9204-.6079-1.4728v-22.2891c.0006-.5524.2192-1.0821.6079-1.4728s.9157-.6104 1.4653-.611h14.7569c.5496.0006 1.0766.2203 1.4653.611s.6073.9204.6079 1.4728v22.2891c-.0006.5524-.2192 1.0821-.6079 1.4728s-.9157.6104-1.4653.611zm-14.7569-26.2116c-.485.0006-.95.1945-1.2929.5392-.343.3447-.5359.8121-.5364 1.2995v22.2891c.0005.4874.1934.9548.5364 1.2995.3429.3447.8079.5386 1.2929.5392h14.7569c.485-.0006.95-.1945 1.2929-.5392.343-.3447.5359-.8121.5364-1.2995v-22.2891c-.0005-.4874-.1934-.9548-.5364-1.2995-.3429-.3447-.8079-.5386-1.2929-.5392z" fill="#3f3d56"/><path d="m56.4978 27.6523h-10.2444c-.2748-.0003-.5383-.1102-.7326-.3055-.1944-.1954-.3037-.4602-.304-.7364v-4.9033c.0003-.2762.1096-.5411.304-.7364.1943-.1953.4578-.3052.7326-.3055h10.2444c.2749.0003.5384.1102.7327.3055.1943.1954.3037.4602.304.7364v4.9033c-.0003.2762-.1097.541-.304.7364-.1943.1953-.4578.3052-.7327.3055z" fill="#0278d5"/><path d="m55.7661 32.249h-8.7809c-.2588 0-.5069-.1033-.6899-.2872s-.2858-.4333-.2858-.6934.1028-.5095.2858-.6934.4311-.2872.6899-.2872h8.7809c.2588 0 .5069.1033.6899.2872s.2857.4333.2857.6934-.1027.5095-.2857.6934-.4311.2872-.6899.2872z" fill="#ccc"/><path d="m55.7661 35.9265h-8.7809c-.2588 0-.5069-.1033-.6899-.2873-.183-.1839-.2858-.4333-.2858-.6934s.1028-.5095.2858-.6934.4311-.2872.6899-.2872h8.7809c.2588 0 .5069.1033.6899.2872s.2857.4333.2857.6934-.1027.5095-.2857.6934c-.183.184-.4311.2873-.6899.2873z" fill="#ccc"/><path d="m55.7661 39.6039h-8.7809c-.2588 0-.5069-.1033-.6899-.2872s-.2858-.4334-.2858-.6934c0-.2601.1028-.5096.2858-.6935s.4311-.2872.6899-.2872h8.7809c.2588 0 .5069.1033.6899.2872s.2857.4334.2857.6935c0 .26-.1027.5095-.2857.6934s-.4311.2872-.6899.2872z" fill="#ccc"/><path d="m94.7315 55.8968h-14.7569c-.5496-.0007-1.0766-.2204-1.4653-.6111-.3887-.3906-.6073-.9203-.6079-1.4728v-22.289c.0006-.5525.2192-1.0822.6079-1.4729.3887-.3906.9157-.6104 1.4653-.611h14.7569c.5496.0006 1.0766.2204 1.4653.611.3887.3907.6073.9204.6079 1.4729v22.289c-.0006.5525-.2192 1.0822-.6079 1.4728-.3887.3907-.9157.6104-1.4653.6111zm-14.7569-26.2116c-.485.0005-.95.1944-1.2929.5391-.343.3447-.5359.8121-.5364 1.2996v22.289c.0005.4875.1934.9548.5364 1.2996.3429.3447.8079.5386 1.2929.5391h14.7569c.485-.0005.9499-.1944 1.2929-.5391.3429-.3448.5359-.8121.5364-1.2996v-22.289c-.0005-.4875-.1935-.9549-.5364-1.2996-.343-.3447-.8079-.5386-1.2929-.5391z" fill="#3f3d56"/><path d="m91.7436 34.9458h-8.7809c-.2587 0-.5069-.1033-.6899-.2872-.1829-.1839-.2857-.4333-.2857-.6934s.1028-.5095.2857-.6934c.183-.1839.4312-.2873.6899-.2873h8.7809c.2588 0 .507.1034.6899.2873.183.1839.2858.4333.2858.6934s-.1028.5095-.2858.6934c-.1829.1839-.4311.2872-.6899.2872z" fill="#ccc"/><path d="m91.7436 38.6233h-8.7809c-.2587 0-.5069-.1034-.6899-.2873-.1829-.1839-.2857-.4333-.2857-.6934s.1028-.5095.2857-.6934c.183-.1839.4312-.2872.6899-.2872h8.7809c.2588 0 .507.1033.6899.2872.183.1839.2858.4333.2858.6934s-.1028.5095-.2858.6934c-.1829.1839-.4311.2873-.6899.2873z" fill="#ccc"/><path d="m92.4754 48.0006h-10.2444c-.2749-.0003-.5383-.1102-.7327-.3055-.1943-.1954-.3036-.4602-.304-.7364v-4.9032c.0004-.2763.1097-.5411.304-.7364.1944-.1954.4578-.3053.7327-.3056h10.2444c.2748.0003.5383.1102.7326.3056.1944.1953.3037.4601.304.7364v4.9032c-.0003.2762-.1096.541-.304.7364-.1943.1953-.4578.3052-.7326.3055z" fill="#e6e6e6"/><path d="m91.7436 52.3523h-8.7809c-.2587 0-.5069-.1033-.6899-.2872-.1829-.184-.2857-.4334-.2857-.6935 0-.26.1028-.5095.2857-.6934.183-.1839.4312-.2872.6899-.2872h8.7809c.2588 0 .507.1033.6899.2872.183.1839.2858.4334.2858.6934 0 .2601-.1028.5095-.2858.6935-.1829.1839-.4311.2872-.6899.2872z" fill="#ccc"/><path d="m85.7066 20.471h-14.7569c-.5496-.0007-1.0766-.2204-1.4653-.6111-.3887-.3906-.6073-.9203-.6079-1.4728v-13.83097c.0006-.55249.2192-1.08217.6079-1.47283.3887-.39067.9157-.61042 1.4653-.61104h14.7569c.5496.00062 1.0766.22037 1.4653.61104.3887.39066.6073.92034.6079 1.47283v13.83097c-.0006.5525-.2192 1.0822-.6079 1.4728-.3887.3907-.9157.6104-1.4653.6111zm-14.7569-17.75358c-.485.00055-.95.19445-1.2929.53916-.343.3447-.5359.81206-.5364 1.29955v13.83097c.0005.4875.1934.9548.5364 1.2995.3429.3448.8079.5387 1.2929.5392h14.7569c.485-.0005.95-.1944 1.2929-.5392.343-.3447.5359-.812.5364-1.2995v-13.83097c-.0005-.48749-.1934-.95485-.5364-1.29955-.3429-.34471-.8079-.53861-1.2929-.53916z" fill="#3f3d56"/><path d="m82.7187 16.1297h-8.7809c-.2587 0-.5069-.1033-.6899-.2872s-.2857-.4334-.2857-.6935c0-.26.1027-.5095.2857-.6934s.4312-.2872.6899-.2872h8.7809c.2588 0 .507.1033.6899.2872.183.1839.2858.4334.2858.6934 0 .2601-.1028.5096-.2858.6935-.1829.1839-.4311.2872-.6899.2872z" fill="#ccc"/><path d="m82.7187 12.4523h-8.7809c-.2587 0-.5069-.1033-.6899-.2873-.183-.1839-.2857-.4333-.2857-.6934s.1027-.5095.2857-.6934.4312-.2872.6899-.2872h8.7809c.2588 0 .507.1033.6899.2872.183.1839.2858.4333.2858.6934s-.1028.5095-.2858.6934c-.1829.184-.4311.2873-.6899.2873z" fill="#ccc"/><path d="m82.7187 8.77486h-8.7809c-.2587 0-.5069-.10332-.6899-.28722-.183-.18391-.2857-.43334-.2857-.69343 0-.26008.1027-.50951.2857-.69342.183-.1839.4312-.28722.6899-.28722h8.7809c.2588 0 .507.10332.6899.28722.183.18391.2858.43334.2858.69342 0 .26009-.1028.50952-.2858.69343-.1829.1839-.4311.28722-.6899.28722z" fill="#ccc"/><path d="m59.6077 20.3484c1.5492 0 2.8051-1.2623 2.8051-2.8194s-1.2559-2.8193-2.8051-2.8193c-1.5491 0-2.805 1.2622-2.805 2.8193s1.2559 2.8194 2.805 2.8194z" fill="#0278d5"/><path d="m59.3297 18.6045c-.0632.0002-.1246-.0203-.1751-.0584l-.0031-.0024-.6592-.5072c-.0307-.0235-.0565-.0528-.0759-.0863-.0193-.0335-.032-.0705-.0371-.1089s-.0026-.0774.0073-.1149c.0099-.0374.0271-.0725.0505-.1033.0234-.0307.0527-.0565.0861-.0759s.0702-.0319.1085-.0369c.0382-.005.077-.0024.1142.0077s.0721.0275.1026.0511l.427.3291 1.009-1.3226c.0234-.0307.0526-.0564.0859-.0758.0333-.0193.0701-.0319.1082-.0369.0381-.0051.0769-.0026.114.0074.0372.01.072.0273.1025.0508l-.0062.0086.0064-.0085c.0616.0476.1018.1177.112.1951s-.0106.1556-.0578.2176l-1.1868 1.5558c-.0275.0358-.0628.0648-.1032.0847-.0404.02-.0848.0303-.1298.0301z" fill="#fff"/><path d="m96.1949 32.9742c1.5492 0 2.805-1.2623 2.805-2.8194s-1.2558-2.8193-2.805-2.8193-2.805 1.2622-2.805 2.8193 1.2558 2.8194 2.805 2.8194z" fill="#3f3d56"/><path d="m95.9171 31.2304c-.0632.0001-.1246-.0204-.1751-.0585l-.0031-.0023-.6592-.5073c-.0307-.0235-.0565-.0528-.0759-.0863-.0193-.0335-.032-.0705-.0371-.1089s-.0026-.0774.0073-.1148c.0099-.0375.0271-.0726.0505-.1033.0234-.0308.0527-.0566.0861-.076.0334-.0193.0702-.0319.1085-.0369.0382-.005.077-.0024.1142.0077s.0721.0275.1026.0512l.427.329 1.009-1.3226c.0234-.0307.0526-.0564.0859-.0758.0333-.0193.0701-.0319.1082-.0369.0381-.0051.0769-.0025.114.0075.0372.0099.072.0272.1025.0507l-.0062.0086.0064-.0085c.0616.0476.1018.1178.112.1951.0102.0774-.0106.1557-.0578.2177l-1.1868 1.5557c-.0275.0358-.0628.0648-.1032.0848-.0404.0199-.0848.0302-.1298.0301z" fill="#fff"/><path d="m87.2921 5.63871c1.5491 0 2.805-1.26227 2.805-2.81935 0-1.55709-1.2559-2.81936-2.805-2.81936-1.5492 0-2.805 1.26227-2.805 2.81936 0 1.55708 1.2558 2.81935 2.805 2.81935z" fill="#3f3d56"/><path d="m87.014 3.89488c-.0631.00012-.1246-.0204-.1751-.05844l-.0031-.00237-.6592-.50728c-.0307-.02346-.0564-.05277-.0758-.08626-.0194-.03348-.032-.07049-.0372-.10889-.0051-.0384-.0026-.07744.0073-.11488s.0271-.07254.0505-.1033c.0235-.03075.0527-.05655.0861-.07592s.0703-.03192.1085-.03693c.0382-.00502.077-.0024.1143.0077.0372.0101.072.02748.1026.05115l.4269.32908 1.0091-1.32263c.0234-.03068.0525-.05642.0858-.07576s.0701-.0319.1082-.03696c.0382-.00506.0769-.00252.1141.00747.0371.00999.072.02724.1025.05077l-.0063.00856.0064-.00844c.0616.04756.1019.11772.112.19509.0102.07737-.0106.15564-.0578.21762l-1.1868 1.55573c-.0275.03585-.0628.06487-.1032.08479s-.0848.03022-.1298.0301z" fill="#fff"/><path d="m46.5877 76h-46.465743c-.0323448 0-.0633652-.0129-.0862366-.0359-.0228715-.023-.0357204-.0542-.0357204-.0867s.0128489-.0637.0357204-.0866c.0228714-.023.0538918-.0359.0862366-.0359h46.465743c.0323 0 .0633.0129.0862.0359.0229.0229.0357.0541.0357.0866s-.0128.0637-.0357.0867-.0539.0359-.0862.0359z" fill="#3f3d56"/></g></svg>