<svg fill="none" height="16" viewBox="0 0 16 16" width="16" xmlns="http://www.w3.org/2000/svg"><path d="m2.66675 2.6665h4l1.33333 2h5.33332v8.6667h-10.66665z" stroke="#383946" stroke-linecap="round" stroke-linejoin="round"/><path d="m8.66675 2.66683h4.66665" opacity=".3" stroke="#383946" stroke-linecap="round" stroke-linejoin="round"/><path d="m7.99852 11c-.21977 0-.39793-.1782-.39793-.3979v-3.20417c0-.21977.17816-.39793.39793-.39793s.39793.17816.39793.39793v3.20417c0 .2197-.17816.3979-.39793.3979zm-1.60059-1.60355c-.21977 0-.39793-.17816-.39793-.39793s.17816-.39793.39793-.39793h3.20414c.21977 0 .39793.17816.39793.39793s-.17816.39793-.39793.39793z" fill="#383946"/></svg>