<svg fill="none" height="16" viewBox="0 0 16 16" width="16" xmlns="http://www.w3.org/2000/svg"><path d="m2.66675 2.6665h4l1.33333 2h5.33332v8.6667h-10.66665z" stroke="#383946" stroke-linecap="round" stroke-linejoin="round"/><path clip-rule="evenodd" d="m7.72102 6.71354c.15531-.15126.40285-.15126.55816 0l2.00002 1.94783c.1582.15413.1616.40737.0075.56563-.1542.15826-.40742.16161-.56568.00748l-1.32092-1.28646v3.05208c0 .2209-.17909.4-.4.4-.22092 0-.4-.1791-.4-.4v-3.05208l-1.32092 1.28646c-.15826.15413-.41151.15078-.56564-.00748s-.15078-.4115.00748-.56563z" fill="#383946" fill-rule="evenodd"/><path d="m8.66675 2.66683h4.66665" opacity=".3" stroke="#383946" stroke-linecap="round" stroke-linejoin="round"/></svg>