<svg fill="none" height="144" viewBox="0 0 234 144" width="234" xmlns="http://www.w3.org/2000/svg" xmlns:xlink="http://www.w3.org/1999/xlink"><radialGradient id="a" cx="0" cy="0" gradientTransform="matrix(-.51398581 29.65384591 -63.57845035 -1.10199606 125.773 92.9215)" gradientUnits="userSpaceOnUse" r="1"><stop offset="0"/><stop offset="1" stop-color="#3e7bfa" stop-opacity="0"/></radialGradient><path d="m233.382 89.7174c0 29.9796-52.106 54.2826-116.382 54.2826-64.2761 0-116.382324-24.303-116.382324-54.2826s52.106224-54.2828 116.382324-54.2828c64.276 0 116.382 24.3032 116.382 54.2828z" fill="url(#a)" fill-opacity=".1" opacity=".7"/><path d="m73.9482 77.4499v-67.73836l66.2918-6.76672 25.674 16.57158-1.867 57.9335h8.169l3.968 3.2179v30.1092l-56.95 7.935-3.968-3.734v-2.567l-14.646-13.7929h-8.0436z" fill="#fff"/><g clip-rule="evenodd" fill="#000" fill-rule="evenodd"><path d="m143.232 66.8274c-.267-.0715-.425-.3456-.353-.6124l2.327-8.6845c.071-.2667.345-.425.612-.3535s.425.3456.354.6124l-2.327 8.6845c-.072.2667-.346.425-.613.3535zm3.54 2.8947c-.266-.0715-.425-.3457-.353-.6124l3.102-11.5792c.072-.2667.346-.425.613-.3535s.425.3456.353.6124l-3.102 11.5791c-.072.2668-.346.4251-.613.3536zm3.103 2.3122c-.267-.0715-.425-.3456-.354-.6124l3.723-13.8914c.071-.2667.345-.425.612-.3535s.425.3456.354.6124l-3.723 13.8913c-.071.2668-.345.4251-.612.3536zm3.523 2.5256c-.267-.0714-.425-.3456-.354-.6123l1.297-4.8379c.071-.2667.345-.425.612-.3535.267.0714.425.3456.354.6123l-1.297 4.8379c-.071.2667-.345.425-.612.3535z"/><path d="m75.7989 80.0777c-.2668-.0715-.425-.3457-.3536-.6124l15.4738-57.7489c.0715-.2668.3456-.4251.6124-.3536.2667.0715.425.3457.3535.6124l-15.4737 57.7489c-.0715.2667-.3457.425-.6124.3536z"/><path d="m73.4571 41.5469c-.2667-.0715-.425-.3456-.3536-.6124l7.3045-27.2605c.0714-.2667.3456-.425.6123-.3535.2668.0715.425.3456.3536.6124l-7.3044 27.2604c-.0715.2668-.3457.4251-.6124.3536z"/><path d="m85.0212 92.2715c-.2659-.0743-.4212-.3501-.3469-.6161l5.8238-20.836c.0743-.266.3502-.4213.6161-.347.266.0744.4213.3502.347.6162l-5.8238 20.836c-.0744.2659-.3502.4213-.6162.3469z"/><path d="m78.3688 82.8377c-.2666-.072-.4244-.3465-.3524-.6131l14.4354-53.4632c.072-.2666.3465-.4243.6131-.3524.2666.072.4243.3465.3524.6131l-14.4355 53.4632c-.072.2666-.3464.4243-.613.3524z"/><path d="m73.042 55.4541c-.2667-.0715-.425-.3456-.3535-.6124l10.4695-39.0729c.0715-.2667.3457-.425.6124-.3535s.425.3456.3536.6124l-10.4696 39.0729c-.0715.2667-.3456.425-.6124.3535z"/><path d="m87.775 95.2764c-.2668-.0715-.4251-.3457-.3536-.6124l3.5702-13.324c.0714-.2667.3456-.425.6123-.3536.2668.0715.4251.3457.3536.6124l-3.5702 13.324c-.0714.2668-.3456.4251-.6123.3536z"/><path d="m72.3169 22.9829c-.2667-.0714-.425-.3456-.3535-.6123l3.3171-12.37956c.0714-.26673.3456-.42502.6123-.35355.2668.07147.4251.34564.3536.61241l-3.3171 12.3795c-.0715.2667-.3456.425-.6124.3535z"/><path d="m80.8031 86.0498c-.2667-.0716-.4249-.3459-.3533-.6126l10.4405-38.8962c.0716-.2667.3458-.4248.6125-.3533.2667.0716.4249.3459.3533.6126l-10.4405 38.8962c-.0716.2667-.3458.4249-.6125.3533z"/><path d="m73.3331 66.7266c-.2668-.0715-.4251-.3457-.3536-.6124l12.7969-47.7586c.0715-.2667.3456-.425.6124-.3535.2667.0714.425.3456.3535.6123l-12.7969 47.7586c-.0714.2668-.3456.425-.6123.3536z"/><path d="m90.4332 97.711c-.2668-.0715-.4251-.3457-.3536-.6124l1.8238-6.8065c.0715-.2667.3456-.425.6124-.3535.2667.0715.425.3456.3535.6124l-1.8238 6.8064c-.0714.2667-.3456.425-.6123.3536z"/><path d="m73.1055 31.3672c-.2667-.0715-.425-.3456-.3535-.6124l4.7867-17.8642c.0715-.2668.3456-.425.6124-.3536.2667.0715.425.3457.3535.6124l-4.7867 17.8642c-.0715.2668-.3456.4251-.6124.3536z"/><path d="m83.064 89.0088c-.2667-.0715-.425-.3456-.3535-.6124l8.0966-30.2168c.0714-.2668.3456-.4251.6123-.3536.2668.0715.4251.3456.3536.6124l-8.0966 30.2169c-.0715.2667-.3456.425-.6124.3535z"/><path d="m73.5918 77.0894c-.2667-.0715-.425-.3457-.3535-.6124l15.059-56.2011c.0715-.2667.3457-.425.6124-.3536.2667.0715.425.3457.3536.6124l-15.0591 56.2011c-.0714.2668-.3456.425-.6124.3536z"/><path d="m174.188 19.5446c.019.2755-.19.5139-.465.5324-2.688.1807-5.484.3707-8.364.5664-24.416 1.659-54.927 3.7321-77.7727 4.1058-.2761.0045-.5036-.2156-.5081-.4917s.2156-.5036.4917-.5081c22.8181-.3733 53.3001-2.4445 77.7221-4.1038 2.88-.1956 5.675-.3856 8.364-.5663.275-.0186.514.1898.532.4653z"/><path d="m70.5021 7.93657c.1484-.23293.4574-.3015.6904-.15317 3.2406 2.06368 6.6178 4.4966 10.0568 6.974 1.6126 1.1617 3.2389 2.3333 4.871 3.4811 5.13 3.6078 10.3361 6.9955 15.4637 9.208.254.1095.37.4037.261.6572-.109.2536-.404.3704-.657.261-5.2282-2.2559-10.5049-5.6948-15.643-9.3082-1.6542-1.1634-3.2922-2.3435-4.9106-3.5094-3.4254-2.4677-6.7627-4.872-9.9791-6.92021-.2329-.14833-.3015-.4574-.1532-.69032z"/><path d="m135.711.399124c.161-.22442.473-.275909.698-.115004.448.321348.896.642761 1.344.96414 6.9 4.94932 13.79 9.89144 20.919 14.47944.969.6238 2.385 1.4444 3.896 2.3201.371.2151.747.4335 1.125.6531 1.899 1.1052 3.814 2.2434 5.01 3.1131.223.1624.273.4751.11.6984-.162.2234-.475.2727-.698.1103-1.147-.834-3.016-1.946-4.925-3.0575-.371-.2159-.744-.4317-1.112-.6452-1.513-.8768-2.957-1.7137-3.947-2.3514-7.151-4.6021-14.061-9.55818-20.956-14.50422-.45-.3226-.899-.64515-1.349-.96756-.225-.160909-.276-.473276-.115-.697696z"/><path d="m146.549 2.45485c.035.27392-.159.52431-.433.55925-19.119 2.43916-56.4993 6.44033-75.7894 6.90906-.2761.00671-.5053-.21165-.512-.48771s.2116-.50529.4877-.512c19.234-.46737 56.5687-4.46232 75.6877-6.90131.274-.03494.524.15879.559.43271z"/><path d="m73.1878 3.64437c.2754.01974.4827.25902.463.53446-.4471 6.23807-.2942 13.94117-.1049 21.67647.0126.5138.0253 1.0277.038 1.5413.1786 7.2059.3557 14.354.0671 20.233-.4141 8.4338-.1437 22.2613 1.0182 30.5734.0383.2735-.1525.5261-.4259.5644-.2735.0382-.5262-.1525-.5644-.426-1.1733-8.3935-1.4427-22.2874-1.0267-30.7608.2867-5.8403.1105-12.9525-.0683-20.1717-.0126-.5093-.0252-1.0192-.0377-1.5292-.189-7.7249-.344-15.4776.1071-21.77235.0198-.27544.2591-.48272.5345-.46298z"/><path d="m94.5634 17.866c.2725.0444.4574.3014.4129.574-2.2708 13.9204-2.9547 28.1376-3.0583 41.8142v8.2205c.035 5.2354.1277 10.3751.2174 15.3561.1054 5.8463.2068 11.4741.2066 16.7812 0 .277-.2239.5-.5.5-.2762 0-.5-.223-.5-.5.0002-5.3133-.1009-10.9154-.2061-16.7444-.0898-4.9767-.1826-10.1188-.2179-15.3879-.0182-2.7158-.0209-5.4619 0-8.2312.1037-13.7017.7888-27.9768 3.0714-41.9695.0444-.2726.3014-.4575.574-.413z"/><path d="m165.584 13.1553c.275.0247.478.2676.453.5426-1.711 19.1196-2.155 51.0708-2.155 63.8199 0 .2761-.224.5-.5.5s-.5-.2239-.5-.5c0-12.7509.444-44.7411 2.159-63.909.025-.2751.268-.4781.543-.4535z"/><path d="m72.7257 75.7742c.2094-.18.5251-.1563.7052.0531 2.5827 3.0032 5.0355 6.062 7.4768 9.1065 4.6064 5.7445 9.1718 11.4381 14.4926 16.6112.198.192.2025.509.01.707s-.5091.202-.7071.01c-5.3612-5.2125-9.999-10.9948-14.6329-16.7722-2.4322-3.0325-4.8634-6.0637-7.3976-9.0105-.1801-.2093-.1563-.525.053-.7051z"/><path d="m101.557 97.9206c.025.275-.177.5182-.452.5432-1.088.0988-2.0508.1915-2.9389.2769-3.6634.3524-6.0475.5817-10.5843.6153-.2761.0021-.5016-.2201-.5037-.4963-.002-.2761.2202-.5016.4963-.5037 4.4901-.0332 6.8305-.2583 10.4853-.6097.8902-.0856 1.8584-.1787 2.9543-.2784.275-.025.518.1777.543.4527z"/><path d="m155.915 30.9242c.017.2756-.192.5131-.468.5304-14.272.8982-28.533 1.8587-42.796 2.8193-5.605.3775-11.21.7549-16.816 1.1287-.2755.0184-.5137-.1901-.5321-.4656-.0184-.2756.1901-.5138.4656-.5322 5.6045-.3736 11.2085-.7511 16.8125-1.1285 14.265-.9607 28.529-1.9213 42.804-2.8197.275-.0174.513.192.53.4676z"/><path d="m154.87 27.8628c.276 0 .5.2239.5.5v47.0272c0 .2762-.224.5-.5.5s-.5-.2238-.5-.5v-47.0272c0-.2761.224-.5.5-.5z"/><path d="m100.338 33.6547c.276.0204.482.2602.462.5355-.492 6.6473-.333 12.7148-.169 18.9985.085 3.2285.171 6.5141.171 9.9646 0 .2762-.224.5-.5.5s-.5001-.2238-.5001-.5c0-3.3943-.085-6.654-.169-9.8717-.1649-6.3162-.3255-12.4708.1698-19.1652.0204-.2753.2603-.4821.5353-.4617z"/><path d="m156.8 56.8594c.024.2751-.179.5177-.454.542-6.867.6059-13.492 1.1538-20.1 1.7003-11.995.992-23.931 1.9792-37.1445 3.2992-.2748.0274-.5198-.1731-.5472-.4478-.0275-.2748.173-.5198.4478-.5473 13.2199-1.3206 25.1729-2.3092 37.1739-3.3017 6.606-.5464 13.227-1.094 20.082-1.6988.275-.0243.518.179.542.4541z"/><path d="m100.16 61.484c.276.0063.495.2352.489.5113-.065 2.8144-.174 5.7292-.285 8.6808-.348 9.2961-.7102 18.9571.281 26.9961.033.274-.161.5236-.435.5574-.2745.0338-.524-.161-.5578-.4351-1.0017-8.1267-.6347-17.9076-.2852-27.2216.1101-2.9353.2185-5.8242.2818-8.6004.0063-.2761.2352-.4948.5112-.4885z"/><path d="m100.569 97.8795c.191-.1993.507-.2059.707-.0148 5.448 5.2263 9.52 9.5123 13.225 13.4123.12.127.24.253.36.379.19.2.182.517-.018.707-.201.19-.517.182-.707-.018-.119-.125-.238-.251-.358-.377-3.704-3.9-7.763-8.172-13.194-13.3816-.2-.1911-.206-.5076-.015-.7069z"/><path d="m98.9482 78.0498c.1953-.1953.5118-.1953.7071 0 5.1707 5.1711 11.3677 12.6997 15.4137 18.7676.153.2297.091.5402-.139.6933-.23.1532-.54.0911-.694-.1386-4.007-6.0118-10.162-13.4896-15.2878-18.6152-.1953-.1953-.1953-.5119 0-.7071z"/><path d="m114.145 113.952c.194-.197.51-.198.707-.004.194.192.387.384.579.576 1.407 1.4 2.777 2.764 4.356 3.87.226.158.281.47.123.696-.159.226-.471.281-.697.123-1.655-1.159-3.09-2.588-4.49-3.983-.192-.192-.384-.382-.575-.571-.196-.195-.198-.511-.003-.707z"/><path d="m177.837 110.507c.272-.046.53.137.577.409.046.272-.137.531-.409.577l-.084-.493zm-19.379 4.045c-11.383 1.67-25.999 3.623-38.915 4.749-.275.024-.517-.179-.541-.454-.024-.276.179-.518.455-.542 12.886-1.124 27.48-3.073 38.856-4.742 5.688-.834 10.569-1.598 14.028-2.154 1.73-.278 3.104-.503 4.046-.659.471-.078.833-.139 1.078-.18l.372-.063s0 0 .084.493.084.493.084.493l-.374.063c-.246.041-.609.102-1.081.18-.943.157-2.318.382-4.05.661-3.463.555-8.349 1.32-14.042 2.155z"/><path d="m140.646 65.0796c.171-.217.485-.2546.702-.0839 2.479 1.9496 6.474 5.088 9.849 7.7392l6.129 4.8143c0 .0001 0 .0004-.309.3937-.308.3932-.308.3931-.309.3931l-6.129-4.8148c-3.375-2.6511-7.37-5.7897-9.849-7.7395-.217-.1707-.255-.485-.084-.7021zm16.765 13.1721c-.171.2172-.485.2548-.703.0843l.309-.3931.309-.3937c.217.1706.255.4853.085.7025z"/><path d="m140.229 72.0917c.176-.2124.491-.2416.704-.0652 1.217 1.0107 2.044 1.717 2.728 2.3004 1.52 1.2978 2.328 1.987 5.127 4.0665.222.1647.268.4779.103.6996-.164.2216-.478.2678-.699.1032-2.827-2.1001-3.661-2.8114-5.194-4.1202-.683-.583-1.505-1.2845-2.704-2.2802-.213-.1764-.242-.4916-.065-.7041z"/><path d="m140.859 58.2921c.276.0064.495.2354.488.5114-.067 2.923-.048 5.3088-.025 8.1491.012 1.6124.026 3.3713.026 5.4581 0 .2761-.224.5-.5.5s-.5-.2239-.5-.5c0-2.0672-.014-3.819-.026-5.4298-.023-2.8528-.042-5.2634.026-8.2004.006-.2761.235-.4947.511-.4884z"/><path d="m140.685 72.7855c.028.2747-.172.5202-.446.5484-7.596.779-13.696 1.3479-19.795 1.9164l-.075.007c-6.074.5661-12.151 1.1326-19.71 1.9067-.274.0281-.52-.1717-.548-.4464-.028-.2748.172-.5203.446-.5484 7.564-.7745 13.645-1.3414 19.718-1.9074l.077-.0072c6.098-.5685 12.194-1.137 19.785-1.9155.274-.0282.52.1716.548.4464z"/></g><path d="m133.191 97.0501c14.477 0 26.213-11.7106 26.213-26.1564s-11.736-26.1564-26.213-26.1564-26.213 11.7106-26.213 26.1564 11.736 26.1564 26.213 26.1564z" fill="#00ade4" opacity=".1"/><path d="m132.631 87.3546c9.42 0 17.056-7.6197 17.056-17.0191s-7.636-17.0191-17.056-17.0191-17.056 7.6197-17.056 17.0191 7.636 17.0191 17.056 17.0191z" fill="#00ade4" opacity=".2"/><path d="m132.981 78.6354c4.942 0 8.947-3.9972 8.947-8.9281 0-4.9308-4.005-8.928-8.947-8.928-4.941 0-8.947 3.9972-8.947 8.928 0 4.9309 4.006 8.9281 8.947 8.9281z" fill="#00ade4" opacity=".3"/><path d="m115.605 83.5185v31.6685l3.151 2.837 58.139-6.775v-31.1969l-5.042-3.4662z" fill="#fff"/><path clip-rule="evenodd" d="m113.946 81.8016c.195-.1963.511-.1979.707-.0037.195.1922.388.3843.58.5757 1.407 1.4009 2.777 2.7649 4.355 3.8701.227.1584.282.4701.123.6964-.158.2262-.47.2812-.696.1228-1.655-1.1585-3.09-2.5881-4.49-3.983-.192-.1913-.384-.382-.575-.5712-.196-.1942-.198-.5108-.004-.7071z" fill="#000" fill-rule="evenodd"/><path clip-rule="evenodd" d="m115.052 82.1533c.276 0 .5.2239.5.5 0 3.0563.04 6.5335.082 10.1646.091 7.7691.189 16.2431-.083 22.8041-.011.276-.244.49-.52.479s-.49-.244-.479-.52c.271-6.535.173-14.957.083-22.7117-.043-3.6403-.083-7.1336-.083-10.216 0-.2761.224-.5.5-.5z" fill="#000" fill-rule="evenodd"/><path clip-rule="evenodd" d="m180.03 80.1845c.003.2761-.219.502-.495.5044-13.713.1225-28.461 1.99-42.788 3.8042-6.252.7917-12.424 1.5733-18.395 2.1953-.275.0286-.521-.1709-.549-.4455-.029-.2747.17-.5205.445-.5491 5.922-.6169 12.066-1.3948 18.303-2.1845 14.354-1.8175 29.201-3.6973 42.975-3.8203.276-.0025.502.2194.504.4955z" fill="#000" fill-rule="evenodd"/><path clip-rule="evenodd" d="m176.005 75.9481c.044.2725-.141.5294-.413.5738-10.259 1.67-20.615 2.7251-30.972 3.6948-1.652.1547-3.304.3072-4.956.4597-8.707.8037-17.403 1.6065-26.048 2.723-.274.0353-.525-.158-.56-.4319-.035-.2738.158-.5245.432-.5599 8.664-1.119 17.382-1.9237 26.088-2.7274 1.651-.1524 3.301-.3047 4.951-.4592 10.355-.9694 20.682-2.022 30.904-3.6861.273-.0444.529.1406.574.4132z" fill="#000" fill-rule="evenodd"/><path clip-rule="evenodd" d="m170.115 75.6601c.134-.2413.439-.3279.68-.1935 2.898 1.6143 5.813 3.1836 8.742 4.7456.244.13.336.4329.206.6765-.13.2437-.433.3358-.676.2059-2.931-1.563-5.853-3.1357-8.759-4.7544-.241-.1344-.327-.4389-.193-.6801z" fill="#000" fill-rule="evenodd"/><path clip-rule="evenodd" d="m176.775 78.4041c.275-.0152.511.1961.526.4718.31 5.6367.127 15.5628-.017 23.3331-.064 3.495-.121 6.555-.121 8.591 0 .276-.224.5-.5.5s-.5-.224-.5-.5c0-2.074.057-5.164.122-8.683.144-7.7539.325-17.586.018-23.1863-.015-.2757.196-.5115.472-.5266z" fill="#000" fill-rule="evenodd"/><path clip-rule="evenodd" d="m118.772 83.1543c.276-.0171.513.1925.53.4681.558 9.0015.349 18.4846.164 26.8986-.085 3.831-.164 7.441-.164 10.682 0 .277-.224.5-.5.5s-.5-.223-.5-.5c0-3.282.08-6.916.165-10.762.185-8.394.392-17.797-.163-26.7567-.017-.2756.193-.5129.468-.53z" fill="#000" fill-rule="evenodd"/><path clip-rule="evenodd" d="m199.721 96.2963c-.064.2686-.334.4344-.603.3702l-11.621-2.7741c-.269-.0641-.434-.3339-.37-.6024.064-.2686.333-.4344.602-.3703l11.621 2.7742c.269.0641.435.3338.371.6024z" fill="#000" fill-rule="evenodd"/><path clip-rule="evenodd" d="m104.642 111.277c.048.272-.133.532-.405.58l-11.7626 2.095c-.2719.049-.5315-.133-.5799-.404-.0484-.272.1327-.532.4046-.58l11.7629-2.095c.272-.049.531.132.58.404z" fill="#000" fill-rule="evenodd"/><path clip-rule="evenodd" d="m175.454 67.6016c-.259-.0951-.392-.3823-.297-.6416l4.023-10.9701c.095-.2593.383-.3924.642-.2973s.392.3823.297.6416l-4.023 10.9701c-.095.2593-.383.3924-.642.2973z" fill="#000" fill-rule="evenodd"/><path clip-rule="evenodd" d="m186.168 76.4074c-.14-.2379-.061-.5444.177-.6847l10.733-6.3279c.238-.1403.544-.0612.684.1767.141.2379.061.5444-.176.6847l-10.733 6.328c-.238.1402-.545.0611-.685-.1768z" fill="#000" fill-rule="evenodd"/><path clip-rule="evenodd" d="m108.511 119.491c.209.181.232.497.052.706l-5.763 6.672c-.18.209-.496.232-.705.051-.209-.18-.232-.496-.052-.705l5.763-6.672c.18-.209.496-.232.705-.052z" fill="#000" fill-rule="evenodd"/><path clip-rule="evenodd" d="m173.035 121.114c.243-.13.546-.039.677.205.714 1.33 1.254 2.699 1.76 4.054.096.256.19.512.285.767.406 1.1.806 2.183 1.283 3.253.112.252-.001.547-.254.66-.252.112-.547-.001-.66-.253-.491-1.103-.905-2.224-1.312-3.325-.093-.252-.186-.503-.279-.753-.503-1.348-1.024-2.663-1.704-3.93-.131-.244-.039-.547.204-.678z" fill="#000" fill-rule="evenodd"/><path clip-rule="evenodd" d="m143.804 136.748c-.276-.011-.491-.243-.48-.519.07-1.782.071-4.162.053-6.102-.009-.968-.022-1.825-.033-2.439-.006-.308-.011-.554-.014-.724l-.004-.195-.002-.066.5-.013.5-.012.001.069.005.196c.003.171.008.418.014.727.011.616.024 1.476.033 2.448.018 1.942.018 4.342-.053 6.15-.011.276-.244.491-.52.48zm.008-10.558c.276-.006.505.212.512.488l-.5.012-.5.012c-.006-.276.212-.505.488-.512z" fill="#000" fill-rule="evenodd"/></svg>