<svg width="40" height="41" viewBox="0 0 40 41" fill="none" xmlns="http://www.w3.org/2000/svg">
<g clip-path="url(#clip0_1186_178367)">
<path d="M0.550781 33.9917V3.62567L0.683536 3.02643C0.857775 2.29498 1.26519 1.64682 1.83913 1.18796C2.41307 0.729102 3.11953 0.48673 3.84291 0.500561C9.79 0.500561 15.7282 0.500561 21.6753 0.500561C21.7915 0.497916 21.907 0.52122 22.0139 0.568924C22.1206 0.616627 22.2164 0.687612 22.2948 0.777107C24.578 3.16778 26.8612 5.54623 29.1446 7.91232C29.2163 7.98298 29.2724 8.069 29.3092 8.1645C29.3459 8.26002 29.3622 8.3627 29.3569 8.46542C29.3569 11.231 29.3569 13.9136 29.3569 16.6423C29.3569 16.7621 29.3569 16.8912 29.3569 17.0571C27.9667 17.1002 26.5897 17.3517 25.2683 17.8038C23.9361 18.2897 22.6849 18.9895 21.5603 19.878L19.4009 17.6378L17.0646 20.0532L19.1974 22.2933C16.038 27.0408 15.6574 31.9267 18.1884 37.089H15.2149C11.383 37.089 7.55099 37.089 3.71017 37.089C2.96217 37.0745 2.24369 36.7825 1.68398 36.2653C1.12429 35.7483 0.760122 35.04 0.656988 34.2682C0.628807 34.1732 0.593282 34.0807 0.550781 33.9917ZM10.6573 17.7208L4.77214 23.8512L10.6573 29.9907C11.4738 29.2537 12.2287 28.4457 12.914 27.5755L9.29441 23.8235L12.914 20.0532L10.6573 17.7208ZM27.7729 10.5119C27.587 10.1616 20.0646 2.33505 19.808 2.2152V10.5119H27.7729Z" fill="#2BB1F2"/>
<path opacity="0.5" d="M29.3746 40.4998C27.48 40.5069 25.6259 39.9286 24.0469 38.8379C22.468 37.7471 21.2352 36.1931 20.5045 34.3721C19.7738 32.5513 19.5781 30.5456 19.9421 28.6088C20.3061 26.6719 21.2136 24.8913 22.5494 23.4918C23.8854 22.0924 25.5899 21.1374 27.4472 20.7474C29.3045 20.3574 31.231 20.5503 32.983 21.3013C34.7352 22.0523 36.2339 23.3278 37.2898 24.9664C38.3458 26.6051 38.9112 28.5333 38.9147 30.5068C38.9182 31.8154 38.6742 33.1119 38.1966 34.3224C37.719 35.5329 37.0173 36.6334 36.1315 37.5614C35.2456 38.4893 34.193 39.2264 33.0336 39.7306C31.8742 40.2348 30.6309 40.4961 29.3746 40.4998ZM34.1888 28.7921H31.0472V24.2381C31.0472 23.7956 31.0472 23.7864 30.5958 23.7773H28.1621C27.7285 23.7773 27.7197 23.7773 27.7197 24.2381C27.7197 26.7641 27.7197 29.2931 27.7197 31.8251C27.7197 32.2399 27.7197 32.2583 28.1445 32.2583H33.773H34.1888V28.7921Z" fill="#2BB1F2"/>
</g>
<defs>
<clipPath id="clip0_1186_178367">
<rect width="40" height="40" fill="white" transform="translate(0 0.5)"/>
</clipPath>
</defs>
</svg>
