<svg width="20" height="21" viewBox="0 0 20 21" fill="none" xmlns="http://www.w3.org/2000/svg">
<g filter="url(#filter0_d_1213_184737)">
<circle cx="10" cy="9.98328" r="7.66071" fill="#0278D5" stroke="white" stroke-width="0.678571"/>
<path fill-rule="evenodd" clip-rule="evenodd" d="M10.0003 6.92685C9.81619 6.92685 9.66695 6.77762 9.66695 6.59352V5.49416C9.66695 5.31007 9.81619 5.16083 10.0003 5.16083C10.1844 5.16083 10.3336 5.31007 10.3336 5.49416V6.59352C10.3336 6.77762 10.1844 6.92685 10.0003 6.92685ZM12.6339 5.76992C12.4883 5.69625 12.3105 5.74352 12.2206 5.87982L11.5686 6.8689C11.463 7.02916 11.5204 7.24568 11.6917 7.33243C11.8374 7.40626 12.0153 7.35903 12.1052 7.22264L12.7572 6.23357C12.8629 6.07322 12.8053 5.85658 12.6339 5.76992ZM6.72151 8.511C6.8578 8.57991 7.0241 8.53577 7.10827 8.40834C7.20742 8.25824 7.15354 8.05526 6.993 7.97408L5.78744 7.36449C5.65106 7.29553 5.48465 7.33979 5.40054 7.46738C5.30159 7.61748 5.35552 7.82029 5.51595 7.90141L6.72151 8.511ZM7.36646 13.8937C7.51215 13.9673 7.68992 13.9201 7.77977 13.7838L8.43179 12.7947C8.53744 12.6344 8.47995 12.4179 8.30873 12.3311C8.16301 12.2573 7.9851 12.3046 7.89519 12.4409L7.24317 13.43C7.13747 13.5904 7.19508 13.807 7.36646 13.8937ZM12.8923 11.2552C12.9764 11.1278 13.1427 11.0837 13.279 11.1526L14.4846 11.7622C14.645 11.8433 14.699 12.0461 14.6 12.1962C14.5159 12.3238 14.3495 12.368 14.2131 12.2991L13.0075 11.6895C12.847 11.6083 12.7931 11.4053 12.8923 11.2552ZM6.68331 9.83179C6.68331 9.99302 6.5526 10.1237 6.39137 10.1237H4.95878C4.79755 10.1237 4.66685 9.99302 4.66685 9.83179C4.66685 9.67056 4.79755 9.53986 4.95878 9.53986H6.39137C6.5526 9.53986 6.68331 9.67056 6.68331 9.83179ZM5.40054 12.1962C5.48465 12.3238 5.65106 12.368 5.78744 12.2991L6.993 11.6895C7.15354 11.6083 7.20742 11.4053 7.10827 11.2552C7.0241 11.1278 6.8578 11.0837 6.72151 11.1526L5.51595 11.7622C5.35552 11.8433 5.30159 12.0461 5.40054 12.1962ZM13.3172 9.83179C13.3172 9.67056 13.4479 9.53986 13.6091 9.53986H15.0417C15.203 9.53986 15.3337 9.67056 15.3337 9.83179C15.3337 9.99302 15.203 10.1237 15.0417 10.1237H13.6091C13.4479 10.1237 13.3172 9.99302 13.3172 9.83179ZM13.0075 7.97408C12.847 8.05525 12.7931 8.25824 12.8922 8.40834C12.9764 8.53577 13.1427 8.57991 13.279 8.511L14.4845 7.90141C14.645 7.82028 14.6989 7.61748 14.6 7.46738C14.5158 7.33978 14.3494 7.29553 14.213 7.36449L13.0075 7.97408ZM7.36646 5.76992C7.19508 5.85658 7.13747 6.07322 7.24317 6.23357L7.89519 7.22264C7.9851 7.35903 8.16301 7.40626 8.30873 7.33243C8.47995 7.24568 8.53744 7.02916 8.43179 6.8689L7.77977 5.87982C7.68992 5.74352 7.51215 5.69625 7.36646 5.76992ZM10.0003 12.7367C10.1844 12.7367 10.3336 12.886 10.3336 13.0701V14.1694C10.3336 14.3535 10.1844 14.5028 10.0003 14.5028C9.81619 14.5028 9.66695 14.3535 9.66695 14.1694V13.0701C9.66695 12.886 9.81619 12.7367 10.0003 12.7367ZM12.6339 13.8937C12.8053 13.807 12.8629 13.5904 12.7572 13.43L12.1052 12.4409C12.0153 12.3046 11.8374 12.2573 11.6917 12.3311C11.5204 12.4179 11.463 12.6344 11.5686 12.7947L12.2206 13.7838C12.3105 13.9201 12.4883 13.9673 12.6339 13.8937Z" fill="white"/>
</g>
<defs>
<filter id="filter0_d_1213_184737" x="0" y="0.983276" width="20" height="20" filterUnits="userSpaceOnUse" color-interpolation-filters="sRGB">
<feFlood flood-opacity="0" result="BackgroundImageFix"/>
<feColorMatrix in="SourceAlpha" type="matrix" values="0 0 0 0 0 0 0 0 0 0 0 0 0 0 0 0 0 0 127 0" result="hardAlpha"/>
<feOffset dy="1"/>
<feGaussianBlur stdDeviation="1"/>
<feColorMatrix type="matrix" values="0 0 0 0 0.376471 0 0 0 0 0.380392 0 0 0 0 0.439216 0 0 0 0.16 0"/>
<feBlend mode="normal" in2="BackgroundImageFix" result="effect1_dropShadow_1213_184737"/>
<feBlend mode="normal" in="SourceGraphic" in2="effect1_dropShadow_1213_184737" result="shape"/>
</filter>
</defs>
</svg>
