<svg width="38" height="39" viewBox="0 0 38 39" fill="none" xmlns="http://www.w3.org/2000/svg">
<g clip-path="url(#clip0_1186_178441)">
<path d="M32.3138 3.97385L30.383 5.88928C27.3113 5.43091 24.1738 5.69325 21.2227 6.65536L30.9335 16.2892C31.9064 13.362 32.1682 10.2481 31.6976 7.20148L33.6365 5.28615C33.7309 5.20177 33.8071 5.09912 33.8603 4.98459C33.9135 4.87007 33.9426 4.74602 33.946 4.61996C33.9493 4.49389 33.9267 4.36846 33.8796 4.25134C33.8325 4.13421 33.7619 4.0278 33.672 3.93863C33.5821 3.84946 33.4749 3.77942 33.3568 3.73268C33.2387 3.68595 33.1123 3.66352 32.9853 3.66682C32.8582 3.67012 32.7331 3.6991 32.6177 3.75189C32.5023 3.80468 32.3988 3.88015 32.3138 3.97385Z" fill="#6938C0"/>
<path d="M18.1497 15.401C17.7577 15.7895 17.4905 16.2848 17.3822 16.824C17.2738 17.3632 17.3291 17.9222 17.5411 18.4302C17.7531 18.9382 18.1121 19.3724 18.573 19.6779C19.0337 19.9835 19.5755 20.1466 20.1297 20.1466C20.6839 20.1466 21.2256 19.9835 21.6864 19.6779C22.1472 19.3724 22.5063 18.9382 22.7182 18.4302C22.9302 17.9222 22.9855 17.3632 22.8771 16.824C22.7688 16.2848 22.5018 15.7895 22.1097 15.401C21.5833 14.8824 20.8715 14.5913 20.1297 14.5913C19.3878 14.5913 18.676 14.8824 18.1497 15.401Z" fill="#6938C0"/>
<path opacity="0.5" d="M30.1524 18.1387L19.3325 7.4292C17.9074 8.126 16.606 9.04816 15.4794 10.1596C12.5628 13.0529 11.6755 15.3106 10.55 18.1714C10.016 19.508 9.40802 21.0567 8.49609 22.8824L14.5428 28.8891C16.3913 27.9844 17.9522 27.3813 19.2996 26.8515C22.1834 25.735 24.4507 24.8547 27.3755 21.9613C28.4947 20.8458 29.4243 19.5576 30.1277 18.1469L30.1524 18.1387ZM23.4321 20.6491C22.7805 21.3031 21.9477 21.7502 21.0394 21.9334C20.131 22.1168 19.1883 22.028 18.331 21.6786C17.4737 21.3293 16.7405 20.7348 16.2243 19.971C15.7082 19.2073 15.4328 18.3085 15.4328 17.389C15.4328 16.4694 15.7082 15.5706 16.2243 14.8068C16.7405 14.043 17.4737 13.4487 18.331 13.0993C19.1883 12.7498 20.131 12.6611 21.0394 12.8445C21.9477 13.0278 22.7805 13.4748 23.4321 14.1288C24.2962 14.9969 24.7814 16.1673 24.7828 17.3873C24.7844 18.6072 24.3022 19.7789 23.4402 20.6491H23.4321Z" fill="#6938C0"/>
<path d="M5.60391 26.542C4.52767 27.6016 3.5911 31.4323 3.23783 33.0623C3.21087 33.2085 3.21994 33.359 3.26428 33.5009C3.30863 33.6428 3.38693 33.7719 3.49251 33.8774C3.60423 33.9866 3.74142 34.0668 3.89189 34.1109C4.04238 34.1551 4.20152 34.1616 4.35516 34.1299C5.9572 33.7795 9.81031 32.8503 10.8865 31.7826C11.2554 31.4435 11.5516 31.0342 11.7572 30.5789C11.9629 30.1237 12.0738 29.6319 12.0834 29.133C12.0929 28.6343 12.001 28.1387 11.813 27.676C11.625 27.2132 11.3448 26.793 10.9892 26.4402C10.6336 26.0875 10.2099 25.8094 9.74348 25.6229C9.27706 25.4364 8.77751 25.3452 8.27472 25.3547C7.77193 25.3642 7.27624 25.4742 6.81732 25.6782C6.3584 25.8822 5.94571 26.176 5.60391 26.542Z" fill="#6938C0"/>
<path opacity="0.5" d="M2.15964 21.7904C2.27284 21.9658 2.44134 22.0995 2.63894 22.1702C2.83655 22.2409 3.05218 22.2449 3.2523 22.1816C4.39517 21.7133 5.66999 21.6699 6.84253 22.0593C7.72159 20.2987 8.31312 18.7992 8.83071 17.495C8.98679 17.0876 9.1429 16.6799 9.30721 16.2969C7.55764 16.3589 5.89647 17.0752 4.65718 18.302L2.2993 20.6493C2.15036 20.7963 2.0556 20.9888 2.03027 21.1958C2.00494 21.4027 2.05051 21.6122 2.15964 21.7904Z" fill="#6938C0"/>
<path opacity="0.5" d="M15.6754 35.1986C15.8551 35.3069 16.0661 35.3522 16.2747 35.327C16.4834 35.3019 16.6774 35.2078 16.8256 35.0601L19.1916 32.721C20.4283 31.4915 21.1502 29.8435 21.2127 28.1079L20.0051 28.5805C18.6824 29.0941 17.1788 29.6808 15.4043 30.553C15.7903 31.7171 15.7465 32.9796 15.281 34.1147C15.2157 34.3131 15.2191 34.5275 15.2905 34.7239C15.3619 34.9202 15.4974 35.0874 15.6754 35.1986Z" fill="#6938C0"/>
</g>
<defs>
<clipPath id="clip0_1186_178441">
<rect width="33.25" height="31.6667" fill="white" transform="translate(1.58203 3.6665)"/>
</clipPath>
</defs>
</svg>
