<svg width="40" height="41" viewBox="0 0 40 41" fill="none" xmlns="http://www.w3.org/2000/svg">
<circle cx="20" cy="20.5" r="16" fill="#ECFFFF"/>
<path fill-rule="evenodd" clip-rule="evenodd" d="M23.9905 16.7627C23.7847 16.7243 23.5723 16.7737 23.4045 16.8989L19.3832 19.8989C19.0902 20.1175 18.9975 20.5155 19.1637 20.8411L20.951 24.3411C21.0568 24.5483 21.2527 24.6946 21.4814 24.7373L26.8431 25.7373C27.0489 25.7757 27.2613 25.7263 27.4291 25.6011L31.4504 22.6011C31.7434 22.3825 31.8361 21.9845 31.6698 21.6589L29.8826 18.1589C29.7768 17.9517 29.5809 17.8054 29.3522 17.7627L23.9905 16.7627ZM28.7145 19.1697L30.0461 21.7774L26.7953 24.2025L22.1191 23.3304L20.7875 20.7227L24.0382 18.2975L28.7145 19.1697Z" fill="#24807F"/>
<path fill-rule="evenodd" clip-rule="evenodd" d="M16.8419 11.7627C16.6362 11.7243 16.4237 11.7737 16.2559 11.8989L12.2347 14.8989C11.9416 15.1175 11.8489 15.5155 12.0152 15.8411L13.8024 19.3411C13.9082 19.5483 14.1042 19.6946 14.3329 19.7373L19.6946 20.7373C20.1018 20.8132 20.4934 20.5447 20.5694 20.1375C20.6453 19.7303 20.3768 19.3387 19.9696 19.2627L14.9706 18.3304L13.639 15.7227L16.8897 13.2975L21.5659 14.1697L23.1854 17.3411C23.3738 17.71 23.8255 17.8563 24.1944 17.668C24.5633 17.4796 24.7097 17.0278 24.5213 16.6589L22.7341 13.1589C22.6283 12.9517 22.4323 12.8054 22.2036 12.7627L16.8419 11.7627Z" fill="#24807F"/>
<path fill-rule="evenodd" clip-rule="evenodd" d="M15.0601 18.5375C14.8047 18.2115 14.3333 18.1542 14.0072 18.4096L9.53912 21.9096C9.25656 22.1309 9.17043 22.5215 9.33366 22.8411L11.1209 26.3411C11.2267 26.5483 11.4226 26.6947 11.6513 26.7373L17.013 27.7373C17.2188 27.7757 17.4313 27.7263 17.599 27.6012L21.6203 24.6012C21.9523 24.3535 22.0207 23.8836 21.773 23.5516C21.5253 23.2196 21.0554 23.1512 20.7234 23.3989L16.9653 26.2025L12.289 25.3304L10.9506 22.7094L14.9322 19.5905C15.2583 19.335 15.3156 18.8636 15.0601 18.5375Z" fill="#24807F"/>
</svg>
