<svg width="40" height="41" viewBox="0 0 40 41" fill="none" xmlns="http://www.w3.org/2000/svg">
<g clip-path="url(#clip0_1186_178243)">
<path opacity="0.5" d="M31.361 4.5H7.93545C7.00493 4.5 6.1124 4.8845 5.45372 5.56917C4.79503 6.25385 4.42398 7.18273 4.422 8.15204V32.5146C4.42398 33.484 4.79503 34.4129 5.45372 35.0975C6.1124 35.7822 7.00493 36.1667 7.93545 36.1667H29.8627L27.046 33.2325C25.2915 33.8865 23.3757 33.8989 21.6138 33.2676C19.8517 32.6362 18.3486 31.3989 17.3517 29.759C16.3547 28.1194 15.9235 26.1748 16.1288 24.2458C16.3341 22.3166 17.1638 20.5177 18.4814 19.1453C19.799 17.7728 21.5259 16.9085 23.3779 16.6946C25.2299 16.4807 27.0965 16.9299 28.6708 17.9684C30.245 19.0069 31.4328 20.5727 32.0389 22.408C32.6449 24.2435 32.6331 26.2392 32.0053 28.0666L34.8219 31.0008V8.15204C34.8202 7.19213 34.4563 6.27139 33.8089 5.58827C33.1615 4.90515 32.2824 4.51433 31.361 4.5ZM13.8162 30.6886C13.8162 30.85 13.7546 31.0049 13.645 31.119C13.5355 31.2331 13.3868 31.2973 13.2319 31.2973H8.55724C8.40226 31.2973 8.25363 31.2331 8.14405 31.119C8.03447 31.0049 7.97291 30.85 7.97291 30.6886V29.4635C7.97291 29.302 8.03447 29.1472 8.14405 29.0331C8.25363 28.919 8.40226 28.8548 8.55724 28.8548H13.2319C13.3868 28.8548 13.5355 28.919 13.645 29.0331C13.7546 29.1472 13.8162 29.302 13.8162 29.4635V30.6886ZM13.8162 25.8114C13.8162 25.9728 13.7546 26.1277 13.645 26.2418C13.5355 26.3559 13.3868 26.4201 13.2319 26.4201H8.55724C8.40226 26.4201 8.25363 26.3559 8.14405 26.2418C8.03447 26.1277 7.97291 25.9728 7.97291 25.8114V24.5941C7.97291 24.4326 8.03447 24.2778 8.14405 24.1637C8.25363 24.0495 8.40226 23.9854 8.55724 23.9854H13.2319C13.3868 23.9854 13.5355 24.0495 13.645 24.1637C13.7546 24.2778 13.8162 24.4326 13.8162 24.5941V25.8114ZM13.8162 20.942C13.8162 21.1035 13.7546 21.2583 13.645 21.3724C13.5355 21.4865 13.3868 21.5507 13.2319 21.5507H8.55724C8.40226 21.5507 8.25363 21.4865 8.14405 21.3724C8.03447 21.2583 7.97291 21.1035 7.97291 20.942V19.7247C7.97291 19.5632 8.03447 19.4084 8.14405 19.2943C8.25363 19.1801 8.40226 19.116 8.55724 19.116H13.2319C13.3868 19.116 13.5355 19.1801 13.645 19.2943C13.7546 19.4084 13.8162 19.5632 13.8162 19.7247V20.942ZM17.3297 16.0648C17.3297 16.1454 17.3143 16.2252 17.2844 16.2996C17.2547 16.3739 17.211 16.4414 17.1559 16.498C17.1008 16.5546 17.0355 16.5993 16.9637 16.6294C16.892 16.6595 16.8151 16.6745 16.7379 16.6735H8.51977C8.44276 16.6746 8.36634 16.6595 8.29499 16.6293C8.22364 16.5991 8.15881 16.5543 8.10436 16.4976C8.04989 16.4408 8.00689 16.3733 7.97788 16.299C7.94887 16.2246 7.93445 16.145 7.93545 16.0648V14.8475C7.93545 14.686 7.99702 14.5312 8.1066 14.4171C8.21618 14.3029 8.36481 14.2388 8.51977 14.2388H16.7004C16.7778 14.2377 16.8545 14.2528 16.9262 14.2829C16.998 14.313 17.0634 14.3577 17.1184 14.4143C17.1735 14.4709 17.2172 14.5383 17.2469 14.6127C17.2768 14.6871 17.2922 14.7669 17.2922 14.8475L17.3297 16.0648ZM31.361 11.1954C31.361 11.3569 31.2995 11.5117 31.1898 11.6258C31.0802 11.7399 30.9316 11.8041 30.7766 11.8041H8.51977C8.36481 11.8041 8.21618 11.7399 8.1066 11.6258C7.99702 11.5117 7.93545 11.3569 7.93545 11.1954V9.97808C7.93545 9.81665 7.99702 9.66181 8.1066 9.54765C8.21618 9.43351 8.36481 9.36938 8.51977 9.36938H30.7392C30.8941 9.36938 31.0428 9.43351 31.1524 9.54765C31.262 9.66181 31.3235 9.81665 31.3235 9.97808L31.361 11.1954Z" fill="#FF832B"/>
<path d="M34.0717 33.6543L29.1798 28.5587C29.982 27.2956 30.3053 25.7673 30.087 24.2701C29.8688 22.7728 29.1245 21.4133 27.9986 20.4552C26.8726 19.4972 25.4452 19.0089 23.9932 19.0849C22.5412 19.161 21.1681 19.7959 20.14 20.8668C19.112 21.9376 18.5025 23.368 18.4294 24.8805C18.3564 26.393 18.8252 27.8799 19.745 29.0527C20.6647 30.2256 21.9699 31.0009 23.4071 31.2282C24.8446 31.4556 26.3117 31.1188 27.5242 30.2832L32.4161 35.3789C32.4705 35.4363 32.5352 35.4819 32.6066 35.5129C32.678 35.544 32.7545 35.56 32.8319 35.56C32.9092 35.56 32.9858 35.544 33.0572 35.5129C33.1286 35.4819 33.1933 35.4363 33.2476 35.3789L34.0717 34.5205C34.1793 34.4043 34.2394 34.249 34.2394 34.0875C34.2394 33.926 34.1793 33.7707 34.0717 33.6543ZM24.3329 28.8552C23.6394 28.8552 22.9617 28.6409 22.3851 28.2397C21.8086 27.8384 21.3592 27.268 21.0938 26.6008C20.8285 25.9334 20.759 25.1992 20.8943 24.4907C21.0296 23.7822 21.3635 23.1316 21.8538 22.6208C22.3442 22.1101 22.9689 21.7623 23.6489 21.6214C24.329 21.4804 25.0339 21.5527 25.6746 21.829C26.3153 22.1055 26.8627 22.5736 27.2481 23.1742C27.6332 23.7748 27.8388 24.4809 27.8388 25.2031C27.8379 25.6851 27.7456 26.1621 27.5671 26.6067C27.3888 27.0514 27.1277 27.455 26.7993 27.7944C26.4707 28.1336 26.0811 28.4021 25.6527 28.5841C25.2243 28.7661 24.7656 28.8582 24.3029 28.8552H24.3329Z" fill="#FF832B"/>
</g>
<defs>
<clipPath id="clip0_1186_178243">
<rect width="31.6667" height="31.6667" fill="white" transform="translate(4.00012 4.5)"/>
</clipPath>
</defs>
</svg>
