<svg width="29" height="15" viewBox="0 0 29 15" fill="none" xmlns="http://www.w3.org/2000/svg">
<g clip-path="url(#clip0_1147_176227)">
<path opacity="0.2" d="M3.22066 13.4384L6.05529 8.03821C6.1932 7.7762 6.26563 7.48328 6.26609 7.18562C6.26655 6.88796 6.19504 6.59481 6.05794 6.33237L3.24009 0.923408C3.07046 0.597991 2.78156 0.354936 2.43696 0.247714C2.09237 0.140492 1.72028 0.177884 1.40258 0.351667C1.08488 0.525448 0.847567 0.821383 0.742864 1.17437C0.638162 1.52736 0.67464 1.90848 0.844272 2.2339L3.1799 6.71654C3.25476 6.85991 3.2938 7.02005 3.29355 7.18264C3.2933 7.34524 3.25376 7.50525 3.17845 7.64839L0.828921 12.1238C0.741996 12.2848 0.687131 12.4619 0.667508 12.6448C0.647885 12.8278 0.663892 13.0129 0.714603 13.1894C0.765314 13.3659 0.849719 13.5305 0.962927 13.6733C1.07614 13.8161 1.2159 13.9347 1.37413 14.0218C1.53236 14.1089 1.70589 14.163 1.88469 14.181C2.06348 14.199 2.24398 14.1804 2.41573 14.1264C2.58747 14.0724 2.74705 13.984 2.88522 13.8664C3.02339 13.7487 3.13741 13.6042 3.22066 13.4411L3.22066 13.4384Z" fill="#0BC8D6"/>
<path opacity="0.5" d="M14.0556 13.455L16.8903 8.05482C17.0281 7.7928 17.1006 7.49988 17.1011 7.20222C17.1015 6.90456 17.03 6.61141 16.8929 6.34897L14.0751 0.94001C13.9054 0.614593 13.6165 0.371538 13.2719 0.264316C12.9273 0.157093 12.5552 0.194486 12.2376 0.368268C11.9198 0.54205 11.6825 0.837986 11.5778 1.19097C11.4731 1.54396 11.5096 1.92508 11.6792 2.2505L14.0149 6.73314C14.0897 6.87652 14.1288 7.03665 14.1285 7.19925C14.1283 7.36184 14.0887 7.52185 14.0134 7.66499L11.6638 12.1404C11.577 12.3014 11.5221 12.4785 11.5025 12.6614C11.4828 12.8444 11.4988 13.0295 11.5496 13.206C11.6002 13.3825 11.6847 13.5471 11.7978 13.6899C11.9111 13.8327 12.0508 13.9513 12.2091 14.0384C12.3673 14.1255 12.5408 14.1796 12.7197 14.1976C12.8984 14.2156 13.0789 14.197 13.2507 14.143C13.4225 14.089 13.582 14.0006 13.7202 13.883C13.8584 13.7653 13.9723 13.6208 14.0556 13.4577L14.0556 13.455Z" fill="#0BC8D6"/>
<path d="M24.8906 13.4716L27.7252 8.07142C27.8632 7.8094 27.9355 7.51649 27.936 7.21882C27.9365 6.92116 27.865 6.62801 27.7279 6.36557L24.91 0.956611C24.7404 0.631194 24.4515 0.38814 24.1069 0.280917C23.7623 0.173695 23.3902 0.211088 23.0725 0.38487C22.7548 0.558651 22.5176 0.854587 22.4128 1.20757C22.3081 1.56056 22.3446 1.94168 22.5142 2.2671L24.8498 6.74975C24.9247 6.89312 24.9637 7.05325 24.9635 7.21584C24.9632 7.37844 24.9237 7.53846 24.8484 7.68159L22.4989 12.157C22.4119 12.318 22.357 12.4951 22.3374 12.678C22.3178 12.861 22.3339 13.0461 22.3845 13.2226C22.4353 13.3991 22.5197 13.5637 22.6329 13.7065C22.7461 13.8493 22.8859 13.9679 23.0441 14.055C23.2023 14.1421 23.3759 14.1962 23.5546 14.2142C23.7334 14.2322 23.914 14.2136 24.0856 14.1596C24.2574 14.1056 24.417 14.0172 24.5551 13.8996C24.6933 13.7819 24.8074 13.6374 24.8906 13.4743L24.8906 13.4716Z" fill="#0BC8D6"/>
</g>
<defs>
<clipPath id="clip0_1147_176227">
<rect width="28" height="14" fill="white" transform="translate(0.0217285 0.18457) rotate(0.0889287)"/>
</clipPath>
</defs>
</svg>
