<svg width="24" height="23" viewBox="0 0 24 23" fill="none" xmlns="http://www.w3.org/2000/svg">
<path d="M5.12415 21.9917C4.49823 21.9917 3.99023 21.4837 3.99023 20.8578V3.28211C3.99023 2.65619 4.49823 2.14819 5.12415 2.14819C5.75007 2.14819 6.25806 2.65619 6.25806 3.28211V20.8578C6.25806 21.4837 5.75007 21.9917 5.12415 21.9917Z" fill="#8899A6"/>
<path d="M5.12415 2.14819C4.49766 2.14819 3.99023 2.65562 3.99023 3.28211V20.8578C3.99023 21.0142 4.11723 21.1412 4.27371 21.1412C4.43019 21.1412 4.55719 21.0142 4.55719 20.8578V4.08378C4.55719 3.64099 4.91607 3.28211 5.35887 3.28211H6.25806C6.25806 2.65562 5.75063 2.14819 5.12415 2.14819Z" fill="#AAB8C2"/>
<path d="M5.12415 21.9917C4.49823 21.9917 3.99023 21.4837 3.99023 20.8578V3.28211C3.99023 2.65619 4.49823 2.14819 5.12415 2.14819C5.75007 2.14819 6.25806 2.65619 6.25806 3.28211V20.8578C6.25806 21.4837 5.75007 21.9917 5.12415 21.9917Z" fill="#8899A6"/>
<path d="M5.12415 2.14819C4.49766 2.14819 3.99023 2.65562 3.99023 3.28211V20.8578C3.99023 21.0142 4.11723 21.1412 4.27371 21.1412C4.43019 21.1412 4.55719 21.0142 4.55719 20.8578V4.08378C4.55719 3.64099 4.91607 3.28211 5.35887 3.28211H6.25806C6.25806 2.65562 5.75063 2.14819 5.12415 2.14819Z" fill="#AAB8C2"/>
<path d="M20.6583 3.32457C19.7148 2.91693 18.7096 2.71452 17.599 2.69638L16.8194 2.91182L14.1972 3.27808L13.6303 3.20551C13.4959 3.23442 13.3604 3.26164 13.2272 3.29055C11.9974 3.55645 10.8289 3.79741 9.66157 3.8473L9.09461 4.41199L5.69287 3.84503V14.6172H9.09461L9.66157 15.7511H9.70522C10.9775 15.6967 12.2407 15.4359 13.4658 15.1717L13.6303 15.1371L13.9965 14.7714L17.0796 14.37L17.599 14.6025C18.5514 14.6206 19.4093 14.7924 20.2092 15.1377C20.3844 15.2131 20.5863 15.1961 20.745 15.0912C20.9049 14.9857 21.0007 14.8083 21.0007 14.6172V3.84503C21.0007 3.61882 20.8663 3.41415 20.6583 3.32457Z" fill="#00ADE4"/>
<path d="M9.66157 3.85467C9.52606 3.86034 9.39056 3.87452 9.25506 3.87452C8.23624 3.87452 7.32967 3.69706 6.48434 3.33194C6.30972 3.2554 6.10732 3.27354 5.94857 3.379C5.78869 3.48332 5.69287 3.66191 5.69287 3.85241V7.25414C5.69287 7.25414 7.55929 7.8211 9.66157 7.8211V3.85467ZM13.6303 7.25414C13.6303 7.25414 11.5042 7.8211 9.66157 7.8211V11.7898C11.3624 11.7898 13.6303 11.2228 13.6303 11.2228V7.25414ZM17.599 6.68719V2.70375C17.5445 2.70262 17.4935 2.69638 17.4385 2.69638C16.1532 2.69638 14.8753 2.94698 13.6303 3.21288V7.25414C13.6303 7.25414 14.8589 6.68719 17.599 6.68719ZM6.03531 15.145C6.88575 15.5124 7.78721 15.708 8.76804 15.7585H9.66157V11.7898C7.29906 11.7898 5.69287 11.2228 5.69287 11.2228V14.6246C5.69287 14.8508 5.82724 15.0555 6.03531 15.145ZM13.6303 11.2228V15.1439C14.9416 14.861 16.1878 14.6025 17.4385 14.6025C17.4935 14.6025 17.5445 14.6087 17.599 14.6098V10.6559C15.0477 10.6559 13.6303 11.2228 13.6303 11.2228ZM17.599 10.6559C19.1161 10.6559 20.3317 10.9734 21.0007 11.1968V7.20198C20.3504 6.98597 19.1689 6.68719 17.599 6.68719V10.6559Z" fill="#E1E8ED"/>
</svg>
