<svg width="33" height="41" viewBox="0 0 33 41" fill="none" xmlns="http://www.w3.org/2000/svg">
<path d="M30.2105 27.4723C30.3696 27.3824 30.526 27.2981 30.6787 27.2196C32.3051 26.3846 33.0401 27.7802 31.1112 27.6375C30.8029 27.6147 30.5025 27.5584 30.2105 27.4723C27.773 28.8487 24.6759 31.5254 23.659 34.2635C24.3456 36.3472 24.6415 38.4222 24.3698 39.7485C24.1446 40.8478 23.6181 39.6765 23.5104 39.2337C23.1987 37.9522 23.1705 36.6372 23.3729 35.3383C23.4286 34.9809 23.526 34.6217 23.659 34.2635C22.6416 31.1757 20.7661 28.069 18.6086 27.3517C17.5951 28.132 16.7007 28.3484 16.1631 27.6375C16.9972 27.1464 17.8217 27.0901 18.6086 27.3517C20.5838 25.8311 23.0116 22.1691 24.1338 19.0558C23.4978 16.6283 23.5301 14.6338 24.3698 14.6338C25.0093 15.5274 24.8051 17.1934 24.1338 19.0558C25.0106 22.4022 27.1574 26.5712 30.2105 27.4723Z" fill="#FDD13B"/>
<path d="M14.4414 27.6375C19.1052 24.8915 23.4694 35.7397 22.6481 39.7485C22.4229 40.8478 21.8964 39.6765 21.7887 39.2337C21.477 37.9522 21.4488 36.6372 21.6512 35.3383C22.1605 32.0695 26.1585 28.6566 28.957 27.2196C30.5834 26.3846 31.3184 27.7802 29.3895 27.6375C23.52 27.2035 20.5402 14.6338 22.6481 14.6338C24.9051 17.7877 16.6537 30.5626 14.4414 27.6375Z" stroke="black" stroke-width="0.996138" stroke-linecap="round" stroke-linejoin="round"/>
<path d="M16.7691 13.8385C16.9282 13.7486 17.0846 13.6643 17.2373 13.5858C18.8637 12.7508 19.5987 14.1464 17.6698 14.0037C17.3615 13.9809 17.0611 13.9247 16.7691 13.8385C14.3315 15.2149 11.2345 17.8916 10.2176 20.6297C10.9042 22.7134 11.2001 24.7884 10.9284 26.1147C10.7032 27.214 10.1767 26.0427 10.069 25.5999C9.75725 24.3184 9.72911 23.0034 9.93148 21.7046C9.98718 21.3471 10.0846 20.9879 10.2176 20.6297C9.20016 17.5419 7.32472 14.4352 5.16721 13.7179C4.1537 14.4982 3.25934 14.7146 2.72168 14.0037C3.55576 13.5126 4.38025 13.4563 5.16721 13.7179C7.1424 12.1973 9.57016 8.53526 10.6924 5.42203C10.0564 2.99454 10.0887 1 10.9284 1C11.5679 1.89361 11.3637 3.55961 10.6924 5.42203C11.5691 8.76837 13.716 12.9374 16.7691 13.8385Z" fill="#FDD13B"/>
<path d="M1 14.0037C5.6638 11.2577 10.028 22.1059 9.20669 26.1147C8.98148 27.214 8.455 26.0427 8.3473 25.5999C8.03557 24.3184 8.00743 23.0034 8.20981 21.7046C8.71911 18.4357 12.7171 15.0228 15.5156 13.5858C17.142 12.7508 17.877 14.1464 15.9481 14.0037C10.0786 13.5697 7.09883 1 9.20668 1C11.4637 4.15387 3.21232 16.9289 1 14.0037Z" stroke="black" stroke-width="0.996138" stroke-linecap="round" stroke-linejoin="round"/>
</svg>
