<svg width="40" height="41" viewBox="0 0 40 41" fill="none" xmlns="http://www.w3.org/2000/svg">
<path fill-rule="evenodd" clip-rule="evenodd" d="M15.001 4.86612C15.4892 5.35427 15.4892 6.14573 15.001 6.63388L8.75102 12.8839C8.26287 13.372 7.47141 13.372 6.98326 12.8839C6.4951 12.3957 6.4951 11.6043 6.98326 11.1161L10.1083 7.99112L13.2333 4.86612C13.7214 4.37796 14.5129 4.37796 15.001 4.86612ZM18.4833 5.61611C18.9715 5.12796 19.7629 5.12796 20.2511 5.61611C20.7392 6.10427 20.7392 6.89572 20.2511 7.38388L8.76874 18.8657C8.28059 19.3539 7.48913 19.3539 7.00098 18.8657C6.51282 18.3776 6.51282 17.5861 7.00098 17.098L18.4833 5.61611ZM20.2511 11.8656C20.7392 12.3538 20.7392 13.1453 20.2511 13.6334L8.37607 25.5084C7.88792 25.9966 7.09646 25.9966 6.6083 25.5084C6.12015 25.0203 6.12015 24.2288 6.6083 23.7406L18.4833 11.8656C18.9715 11.3775 19.7629 11.3775 20.2511 11.8656ZM20.2511 18.1156C20.7392 18.6038 20.7392 19.3953 20.2511 19.8834L10.8761 29.2584C10.3879 29.7466 9.59646 29.7466 9.1083 29.2584C8.62015 28.7703 8.62015 27.9788 9.1083 27.4906L18.4833 18.1156C18.9715 17.6275 19.7629 17.6275 20.2511 18.1156ZM20.2511 23.7406C20.7392 24.2288 20.7392 25.0203 20.2511 25.5084L14.0011 31.7584C13.5129 32.2466 12.7215 32.2466 12.2333 31.7584C11.7452 31.2703 11.7452 30.4788 12.2333 29.9906L18.4833 23.7406C18.9715 23.2525 19.7629 23.2525 20.2511 23.7406ZM20.2511 29.3656C20.7392 29.8538 20.7392 30.6453 20.2511 31.1334L17.7511 33.6334C17.2629 34.1216 16.4715 34.1216 15.9833 33.6334C15.4952 33.1453 15.4952 32.3538 15.9833 31.8656L18.4833 29.3656C18.9715 28.8775 19.7629 28.8775 20.2511 29.3656Z" fill="url(#paint0_linear_1186_178482)"/>
<path fill-rule="evenodd" clip-rule="evenodd" d="M10.002 6.75C9.3116 6.75 8.75195 7.30964 8.75195 8V27.7718C8.75195 28.2277 9.00012 28.6474 9.39955 28.8671L19.3996 34.3671C19.7747 34.5734 20.2292 34.5734 20.6043 34.3671L30.6043 28.8671C31.0038 28.6474 31.2519 28.2277 31.2519 27.7718V17.8025C31.2519 17.1122 31.8116 16.5525 32.5019 16.5525C33.1923 16.5525 33.7519 17.1122 33.7519 17.8025V27.7718C33.7519 29.1394 33.0075 30.3986 31.8091 31.0576L21.8091 36.5576C20.6838 37.1766 19.3201 37.1766 18.1948 36.5576L8.19476 31.0576C6.99645 30.3986 6.25195 29.1394 6.25195 27.7718V8C6.25195 5.92893 7.93089 4.25 10.002 4.25H22.7582C23.4486 4.25 24.0082 4.80964 24.0082 5.5C24.0082 6.19036 23.4486 6.75 22.7582 6.75H10.002Z" fill="#2E1CF3"/>
<path d="M36.4877 4.16494L29.0373 11.9662L25.1407 8.29019C24.7102 7.88413 24.0321 7.90388 23.6261 8.3343C23.22 8.76472 23.2398 9.44282 23.6702 9.84888L28.3414 14.2557C28.7699 14.66 29.4445 14.6424 29.8514 14.2163L38.0374 5.64492C38.4461 5.21699 38.4305 4.53877 38.0025 4.13009C37.5746 3.7214 36.8964 3.737 36.4877 4.16494Z" fill="#2E1CF3"/>
<defs>
<linearGradient id="paint0_linear_1186_178482" x1="13.4297" y1="4.5" x2="22.0982" y2="63.7838" gradientUnits="userSpaceOnUse">
<stop stop-color="#2E1CF3"/>
<stop offset="0.541667" stop-color="#2E1CF3" stop-opacity="0"/>
</linearGradient>
</defs>
</svg>
