<svg width="40" height="41" viewBox="0 0 40 41" fill="none" xmlns="http://www.w3.org/2000/svg">
<path opacity="0.2" d="M34.9999 20.5002C35.0022 22.6038 34.5608 24.6843 33.7046 26.6058C32.8485 28.5273 31.5968 30.2467 30.0312 31.6518C29.0899 29.8004 27.6545 28.2457 25.884 27.1599C24.1134 26.0741 22.0769 25.4997 19.9999 25.5002C21.2361 25.5002 22.4444 25.1337 23.4722 24.4469C24.5 23.7601 25.3011 22.784 25.7742 21.642C26.2472 20.4999 26.371 19.2433 26.1298 18.0309C25.8887 16.8185 25.2934 15.7049 24.4193 14.8308C23.5453 13.9567 22.4316 13.3615 21.2192 13.1203C20.0069 12.8791 18.7502 13.0029 17.6082 13.476C16.4661 13.949 15.49 14.7501 14.8032 15.7779C14.1165 16.8057 13.7499 18.0141 13.7499 19.2502C13.7499 20.9078 14.4084 22.4975 15.5805 23.6696C16.7526 24.8417 18.3423 25.5002 19.9999 25.5002C17.923 25.4997 15.8864 26.0741 14.1159 27.1599C12.3453 28.2457 10.9099 29.8004 9.96867 31.6518C7.10536 29.0762 5.34237 25.4981 5.04486 21.6583C4.74734 17.8186 5.93809 14.0116 8.37048 11.0257C10.8029 8.03985 14.2905 6.10395 18.1111 5.61897C21.9317 5.13399 25.7924 6.1371 28.8937 8.42052C28.738 8.86479 28.711 9.34397 28.8157 9.80292C28.9203 10.2619 29.1525 10.6819 29.4853 11.0148C29.8182 11.3477 30.2383 11.5798 30.6972 11.6845C31.1562 11.7891 31.6353 11.7621 32.0796 11.6065C33.9807 14.1816 35.0044 17.2993 34.9999 20.5002Z" fill="#24807F"/>
<path d="M35.6625 10.3547L34.9344 9.93438C35.0198 9.48212 35.0198 9.01788 34.9344 8.56562L35.6625 8.14531C35.9497 7.97955 36.1593 7.7065 36.2451 7.38622C36.331 7.06595 36.2861 6.72468 36.1203 6.4375C35.9546 6.15032 35.6815 5.94075 35.3612 5.85489C35.041 5.76904 34.6997 5.81393 34.4125 5.97969L33.6828 6.40156C33.3336 6.10196 32.9321 5.86942 32.4985 5.71563V4.875C32.4985 4.54348 32.3668 4.22554 32.1323 3.99112C31.8979 3.7567 31.58 3.625 31.2485 3.625C30.9169 3.625 30.599 3.7567 30.3646 3.99112C30.1301 4.22554 29.9985 4.54348 29.9985 4.875V5.71563C29.5648 5.86942 29.1633 6.10196 28.8141 6.40156L28.0844 5.97969C27.9422 5.89761 27.7852 5.84435 27.6224 5.82293C27.4597 5.80152 27.2943 5.81238 27.1357 5.85489C26.9771 5.89741 26.8284 5.97074 26.6982 6.0707C26.5679 6.17066 26.4587 6.2953 26.3766 6.4375C26.2945 6.5797 26.2412 6.73667 26.2198 6.89945C26.1984 7.06223 26.2093 7.22764 26.2518 7.38622C26.2943 7.54481 26.3676 7.69347 26.4676 7.82371C26.5676 7.95396 26.6922 8.06324 26.8344 8.14531L27.5625 8.56562C27.4771 9.01788 27.4771 9.48212 27.5625 9.93438L26.8344 10.3547C26.5959 10.4922 26.4096 10.7046 26.3042 10.9589C26.1988 11.2131 26.1803 11.4951 26.2515 11.761C26.3227 12.0269 26.4797 12.2618 26.6981 12.4293C26.9165 12.5969 27.1841 12.6876 27.4594 12.6875C27.6789 12.6882 27.8946 12.6305 28.0844 12.5203L28.8141 12.0984C29.1633 12.398 29.5648 12.6306 29.9985 12.7844V13.625C29.9985 13.9565 30.1301 14.2745 30.3646 14.5089C30.599 14.7433 30.9169 14.875 31.2485 14.875C31.58 14.875 31.8979 14.7433 32.1323 14.5089C32.3668 14.2745 32.4985 13.9565 32.4985 13.625V12.7844C32.9321 12.6306 33.3336 12.398 33.6828 12.0984L34.4125 12.5203C34.6023 12.6305 34.818 12.6882 35.0375 12.6875C35.3128 12.6876 35.5804 12.5969 35.7988 12.4293C36.0172 12.2618 36.1742 12.0269 36.2454 11.761C36.3167 11.4951 36.2981 11.2131 36.1927 10.9589C36.0873 10.7046 35.901 10.4922 35.6625 10.3547ZM29.9985 9.25C29.9985 9.00277 30.0718 8.7611 30.2091 8.55554C30.3465 8.34998 30.5417 8.18976 30.7701 8.09515C30.9985 8.00054 31.2498 7.97579 31.4923 8.02402C31.7348 8.07225 31.9575 8.1913 32.1323 8.36612C32.3072 8.54093 32.4262 8.76366 32.4744 9.00614C32.5227 9.24861 32.4979 9.49995 32.4033 9.72835C32.3087 9.95676 32.1485 10.152 31.9429 10.2893C31.7374 10.4267 31.4957 10.5 31.2485 10.5C30.9169 10.5 30.599 10.3683 30.3646 10.1339C30.1301 9.89946 29.9985 9.58152 29.9985 9.25ZM34.5844 16.7672C34.2574 16.8219 33.9656 17.0043 33.7731 17.2741C33.5806 17.544 33.5031 17.8793 33.5578 18.2063C33.6848 18.9642 33.7485 19.7315 33.7485 20.5C33.7514 23.8659 32.5143 27.115 30.2735 29.6266C28.8793 27.6064 26.9191 26.0435 24.6391 25.1344C25.8638 24.1698 26.7575 22.8475 27.1958 21.3514C27.6342 19.8553 27.5955 18.2598 27.085 16.7868C26.5746 15.3137 25.6178 14.0364 24.3477 13.1323C23.0777 12.2283 21.5574 11.7425 19.9985 11.7425C18.4395 11.7425 16.9193 12.2283 15.6492 13.1323C14.3791 14.0364 13.4223 15.3137 12.9119 16.7868C12.4014 18.2598 12.3627 19.8553 12.8011 21.3514C13.2394 22.8475 14.1331 24.1698 15.3578 25.1344C13.0779 26.0435 11.1176 27.6064 9.72345 29.6266C7.9652 27.6453 6.81669 25.1982 6.41602 22.5798C6.01535 19.9613 6.37958 17.2828 7.46492 14.8664C8.55025 12.4499 10.3105 10.3985 12.534 8.9586C14.7574 7.51875 17.3495 6.75181 19.9985 6.75C20.767 6.74988 21.5342 6.81364 22.2922 6.94063C22.6177 6.99198 22.9503 6.91274 23.2177 6.72014C23.485 6.52754 23.6655 6.23716 23.7199 5.91216C23.7743 5.58716 23.6981 5.25384 23.508 4.9847C23.3179 4.71557 23.0292 4.53238 22.7047 4.475C19.3101 3.90393 15.8218 4.42646 12.7435 5.96715C9.66522 7.50783 7.15621 9.98695 5.57874 13.0466C4.00127 16.1062 3.43698 19.5879 3.96732 22.9892C4.49767 26.3904 6.09522 29.5351 8.52931 31.9691C10.9634 34.4032 14.1081 36.0008 17.5093 36.5311C20.9105 37.0615 24.3923 36.4972 27.4519 34.9197C30.5115 33.3422 32.9906 30.8332 34.5313 27.7549C36.072 24.6767 36.5945 21.1884 36.0235 17.7937C35.9687 17.4668 35.7864 17.175 35.5165 16.9824C35.2466 16.7899 34.9114 16.7125 34.5844 16.7672ZM14.9985 19.25C14.9985 18.2611 15.2917 17.2944 15.8411 16.4721C16.3905 15.6499 17.1714 15.009 18.085 14.6306C18.9987 14.2522 20.004 14.1531 20.9739 14.3461C21.9438 14.539 22.8347 15.0152 23.534 15.7145C24.2332 16.4137 24.7095 17.3046 24.9024 18.2745C25.0953 19.2445 24.9963 20.2498 24.6179 21.1634C24.2394 22.077 23.5986 22.8579 22.7763 23.4073C21.9541 23.9568 20.9874 24.25 19.9985 24.25C18.6724 24.25 17.4006 23.7232 16.4629 22.7855C15.5252 21.8479 14.9985 20.5761 14.9985 19.25ZM11.5735 31.3594C12.4777 29.9451 13.7235 28.7813 15.1958 27.9751C16.6682 27.1689 18.3198 26.7463 19.9985 26.7463C21.6771 26.7463 23.3287 27.1689 24.8011 27.9751C26.2734 28.7813 27.5192 29.9451 28.4235 31.3594C26.0146 33.2328 23.0501 34.2499 19.9985 34.2499C16.9469 34.2499 13.9823 33.2328 11.5735 31.3594Z" fill="#24807F"/>
</svg>
