<svg width="40" height="41" viewBox="0 0 40 41" fill="none" xmlns="http://www.w3.org/2000/svg">
<path opacity="0.5" d="M33.0067 24.7739C32.2129 23.9958 31.2185 23.4537 30.1344 23.2077C29.0504 22.9618 27.9193 23.0218 26.8673 23.3811L17.4817 14.0597L17.5995 13.5989C17.8655 12.6029 17.866 11.5546 17.6009 10.5584C17.3359 9.56208 16.8145 8.65259 16.0888 7.92037C15.3625 7.19281 14.4563 6.67071 13.4626 6.40722C12.4689 6.14373 11.4231 6.14826 10.4317 6.42036C10.2902 6.46131 10.1616 6.53803 10.0584 6.64313C9.95516 6.74823 9.88078 6.87814 9.84239 7.02036C9.80374 7.16128 9.80324 7.30994 9.84089 7.45113C9.87854 7.59232 9.953 7.72097 10.0567 7.82393L12.3067 10.0739C12.5489 10.3952 12.668 10.7927 12.6423 11.1942C12.6165 11.5957 12.4477 11.9748 12.1665 12.2625C11.8852 12.5502 11.5101 12.7276 11.1093 12.7625C10.7084 12.7973 10.3084 12.6874 9.98168 12.4525L7.7317 10.1918C7.62478 10.0908 7.49416 10.0182 7.35189 9.98076C7.20961 9.94331 7.06023 9.94219 6.91741 9.97752C6.77571 10.0146 6.64645 10.0887 6.54289 10.1923C6.43933 10.2958 6.36521 10.4251 6.32814 10.5668C6.05918 11.5559 6.05725 12.5986 6.32264 13.5886C6.58803 14.5786 7.11121 15.4806 7.83883 16.2025C8.62996 16.9848 9.6244 17.53 10.7095 17.7761C11.7945 18.0223 12.9268 17.9597 13.9781 17.5954L23.3317 26.9597C22.9686 28.0111 22.9067 29.1431 23.1527 30.2279C23.3989 31.3127 23.9434 32.3071 24.7246 33.0989C25.449 33.8293 26.3551 34.3533 27.3495 34.6171C28.3438 34.8807 29.3905 34.8744 30.3816 34.5989C30.5241 34.5599 30.6537 34.4838 30.7572 34.3784C30.8608 34.2731 30.9346 34.1421 30.971 33.9989C31.0063 33.8578 31.0052 33.7101 30.9679 33.5694C30.9304 33.4288 30.8577 33.3001 30.7567 33.1954L28.496 30.9453C28.217 30.6234 28.0706 30.2076 28.0863 29.7819C28.102 29.3562 28.2786 28.9523 28.5805 28.6517C28.8824 28.3512 29.2871 28.1763 29.713 28.1626C30.1387 28.1488 30.5539 28.2971 30.8745 28.5776L33.1245 30.8276C33.2275 30.9312 33.3561 31.0057 33.4974 31.0433C33.6385 31.0809 33.7871 31.0804 33.9281 31.0418C34.0704 31.0034 34.2002 30.9291 34.3054 30.8258C34.4105 30.7226 34.4871 30.5941 34.5281 30.4526C34.8027 29.4562 34.8065 28.4047 34.5391 27.4064C34.2716 26.4082 33.7426 25.4994 33.0067 24.7739Z" fill="#42AB45"/>
<path d="M15.0696 21.1094L7.07677 29.0594C6.44736 29.6889 6.09375 30.5425 6.09375 31.4326C6.09375 32.3228 6.44736 33.1765 7.07677 33.8059C7.70618 34.4352 8.55988 34.7889 9.45001 34.7889C10.3401 34.7889 11.1938 34.4352 11.8232 33.8059L19.8053 25.813L15.0696 21.1094ZM11.0518 31.2022C10.9744 31.2804 10.8824 31.3425 10.781 31.385C10.6796 31.4275 10.5709 31.4496 10.4609 31.4501C10.351 31.4506 10.242 31.4295 10.1403 31.3879C10.0385 31.3462 9.94597 31.285 9.86788 31.2076C9.78979 31.1302 9.72769 31.0382 9.68517 30.9369C9.64264 30.8355 9.62047 30.7267 9.61997 30.6167C9.61947 30.5069 9.64062 30.3979 9.68223 30.2961C9.72384 30.1944 9.78513 30.1018 9.86252 30.0238L14.9518 24.9344C15.0295 24.8557 15.1221 24.7933 15.2242 24.7505C15.3263 24.7079 15.4358 24.6859 15.5464 24.6859C15.6571 24.6859 15.7666 24.7079 15.8686 24.7505C15.9707 24.7933 16.0633 24.8557 16.1411 24.9344C16.2949 25.0941 16.3809 25.3072 16.3809 25.5291C16.3809 25.7509 16.2949 25.964 16.1411 26.1237L11.0518 31.2022Z" fill="#42AB45"/>
<path d="M34.4645 7.9099L33.0181 6.46348C32.886 6.31497 32.7041 6.21991 32.5068 6.19623C32.3094 6.17255 32.1103 6.22187 31.9468 6.3349L27.5003 9.00277C27.3914 9.06814 27.299 9.15745 27.2299 9.2639C27.1608 9.37035 27.1168 9.49115 27.1013 9.61715C27.0858 9.74314 27.0991 9.87102 27.1405 9.99104C27.1818 10.1111 27.2499 10.2201 27.3396 10.3099L27.6931 10.6635L22.0468 16.2885L24.4145 18.6564L30.061 13.0421L30.5646 13.5349C30.6544 13.6246 30.7634 13.6927 30.8835 13.734C31.0035 13.7754 31.1314 13.7888 31.2573 13.7733C31.3833 13.7578 31.5041 13.7138 31.6106 13.6447C31.717 13.5755 31.8064 13.483 31.8718 13.3742L34.5395 8.92778C34.643 8.7743 34.692 8.59045 34.6784 8.40584C34.6648 8.22123 34.5894 8.04655 34.4645 7.9099Z" fill="#42AB45"/>
</svg>
