<svg width="40" height="41" viewBox="0 0 40 41" fill="none" xmlns="http://www.w3.org/2000/svg">
<g clip-path="url(#clip0_1149_177144)">
<path d="M26.2489 31.28L20.8443 28.4538C20.5821 28.3163 20.2891 28.2443 19.9914 28.2443C19.6937 28.2443 19.4007 28.3163 19.1385 28.4538L13.7339 31.28C13.4087 31.4501 13.1661 31.7394 13.0594 32.0842C12.9528 32.4289 12.9907 32.801 13.165 33.1184C13.3393 33.4358 13.6356 33.6727 13.9887 33.7768C14.3419 33.881 14.7229 33.8439 15.0481 33.6738L19.5271 31.3312C19.6704 31.2561 19.8304 31.2168 19.993 31.2168C20.1556 31.2168 20.3157 31.2561 20.459 31.3312L24.938 33.6738C25.0992 33.7605 25.2763 33.8151 25.4593 33.8344C25.6423 33.8537 25.8273 33.8374 26.0038 33.7865C26.1802 33.7355 26.3446 33.6508 26.4872 33.5374C26.63 33.4239 26.7483 33.284 26.8351 33.1256C26.922 32.9673 26.9759 32.7937 26.9935 32.6148C27.0113 32.436 26.9924 32.2555 26.9381 32.0839C26.8839 31.9122 26.7952 31.7528 26.6774 31.6148C26.5595 31.4768 26.4148 31.363 26.2516 31.28H26.2489Z" fill="#42AB45"/>
<path opacity="0.5" d="M26.2489 20.445L20.8443 17.6188C20.5821 17.4813 20.2891 17.4093 19.9914 17.4093C19.6937 17.4093 19.4007 17.4813 19.1385 17.6188L13.7339 20.445C13.4087 20.6152 13.1661 20.9045 13.0594 21.2493C12.9528 21.594 12.9907 21.9661 13.165 22.2834C13.3393 22.6009 13.6356 22.8377 13.9887 22.9419C14.3419 23.0461 14.7229 23.009 15.0481 22.8389L19.5271 20.4962C19.6704 20.4212 19.8304 20.3819 19.993 20.3819C20.1556 20.3819 20.3157 20.4212 20.459 20.4962L24.938 22.8389C25.0992 22.9255 25.2763 22.9801 25.4593 22.9994C25.6423 23.0188 25.8273 23.0025 26.0038 22.9515C26.1802 22.9006 26.3446 22.8159 26.4872 22.7025C26.63 22.589 26.7483 22.4491 26.8351 22.2907C26.922 22.1323 26.9759 21.9587 26.9935 21.7799C27.0113 21.6011 26.9924 21.4206 26.9381 21.2489C26.8839 21.0772 26.7952 20.9178 26.6774 20.7798C26.5595 20.6418 26.4148 20.5281 26.2516 20.445H26.2489Z" fill="#42AB45"/>
<path opacity="0.2" d="M26.2489 9.6101L20.8443 6.78385C20.5821 6.6463 20.2891 6.57437 19.9914 6.57437C19.6937 6.57437 19.4007 6.6463 19.1385 6.78385L13.7339 9.6101C13.4087 9.7802 13.1661 10.0695 13.0594 10.4142C12.9528 10.759 12.9907 11.131 13.165 11.4485C13.3393 11.7659 13.6356 12.0027 13.9887 12.1069C14.3419 12.211 14.7229 12.1739 15.0481 12.0038L19.5271 9.66129C19.6704 9.58621 19.8304 9.54692 19.993 9.54692C20.1556 9.54692 20.3157 9.58621 20.459 9.66129L24.938 12.0038C25.0992 12.0905 25.2763 12.1451 25.4593 12.1645C25.6423 12.1838 25.8273 12.1675 26.0038 12.1165C26.1802 12.0655 26.3446 11.9808 26.4872 11.8674C26.63 11.754 26.7483 11.614 26.8351 11.4556C26.922 11.2974 26.9759 11.1237 26.9935 10.9449C27.0113 10.7661 26.9924 10.5855 26.9381 10.414C26.8839 10.2423 26.7952 10.0829 26.6774 9.94487C26.5595 9.80688 26.4148 9.69305 26.2516 9.6101H26.2489Z" fill="#42AB45"/>
</g>
<defs>
<clipPath id="clip0_1149_177144">
<rect width="28" height="14" fill="white" transform="matrix(0 -1 1 0 13 34.5)"/>
</clipPath>
</defs>
</svg>
