<svg width="18" height="18" viewBox="0 0 18 18" fill="none" xmlns="http://www.w3.org/2000/svg">
<path fill-rule="evenodd" clip-rule="evenodd" d="M9 18C13.9706 18 18 13.9706 18 9C18 4.02944 13.9706 0 9 0C7.57362 0 6.22474 0.331821 5.02634 0.922481L7.46767 3.22869C7.74168 3.03965 8.07185 2.92929 8.42722 2.92929C9.37615 2.92929 10.1454 3.71619 10.1454 4.68687C10.1454 5.00038 10.0652 5.29472 9.92453 5.54957L12.285 7.77938C12.505 7.67464 12.7504 7.61616 13.009 7.61616C13.958 7.61616 14.7272 8.40306 14.7272 9.37374C14.7272 10.3444 13.958 11.1313 13.009 11.1313C12.0601 11.1313 11.2909 10.3444 11.2909 9.37374C11.2909 9.09623 11.3537 8.83374 11.4657 8.60037L9.05526 6.32333C8.9202 6.37761 8.7768 6.41489 8.62757 6.43262L7.35057 12.5811C7.82595 12.8937 8.14085 13.4396 8.14085 14.0606C8.14085 15.0313 7.3716 15.8182 6.42267 15.8182C5.47374 15.8182 4.70448 15.0313 4.70448 14.0606C4.70448 13.1547 5.37444 12.4089 6.23516 12.3134L7.51035 6.17356C7.02881 5.86216 6.70903 5.31272 6.70903 4.68687C6.70903 4.50936 6.73476 4.33799 6.7826 4.17646L3.98 1.52897C1.57925 3.14529 0 5.88822 0 9C0 13.9706 4.02944 18 9 18Z" fill="url(#paint0_linear_2129_195924)"/>
<defs>
<linearGradient id="paint0_linear_2129_195924" x1="3.81818" y1="-2.5332e-07" x2="18" y2="18" gradientUnits="userSpaceOnUse">
<stop stop-color="#F96459"/>
<stop offset="1" stop-color="#EA473B"/>
</linearGradient>
</defs>
</svg>
