<svg width="16" height="16" viewBox="0 0 16 16" fill="none" xmlns="http://www.w3.org/2000/svg">
<path fill-rule="evenodd" clip-rule="evenodd" d="M9.43804 11.4539L5.7425 9.31992C5.44419 9.62429 5.03669 9.79706 4.61054 9.79992C4.18437 9.80269 3.77466 9.63546 3.47224 9.33501C3.1699 9.03464 2.99982 8.62607 2.99982 8.19992C2.99982 7.77375 3.16991 7.36511 3.47224 7.06474C3.77464 6.76438 4.18437 6.59716 4.61054 6.59992C5.03672 6.60278 5.44421 6.77555 5.7425 7.07992L9.43804 4.94591C9.32483 4.43466 9.46894 3.90029 9.82394 3.51537C10.1789 3.13037 10.6998 2.94349 11.2186 3.01492C11.7373 3.08643 12.1883 3.40724 12.4259 3.87393C12.6636 4.34054 12.6578 4.89393 12.4105 5.35553C12.1632 5.81713 11.7057 6.12847 11.1855 6.1892C10.6655 6.24991 10.1485 6.05215 9.80161 5.65992L6.14287 7.77233C6.22019 8.0527 6.22019 8.34877 6.14287 8.62911L9.80161 10.7415C10.1471 10.3518 10.6614 10.1558 11.1787 10.2166C11.6959 10.2774 12.1507 10.5873 12.3964 11.0465C12.6421 11.5057 12.6478 12.0561 12.4114 12.5201C12.1751 12.9842 11.7267 13.3034 11.2108 13.3748C10.6949 13.446 10.1768 13.2606 9.8234 12.878C9.47001 12.4954 9.32607 11.9641 9.43805 11.4556L9.43804 11.4539Z" fill="#0278D5"/>
</svg>
