<svg width="24" height="24" viewBox="0 0 24 24" fill="none" xmlns="http://www.w3.org/2000/svg">
<mask id="path-1-inside-1_19_693" fill="white">
<path fill-rule="evenodd" clip-rule="evenodd" d="M4.30314 12C6.69358 14.736 9.25686 16 12 16C14.7431 16 17.3064 14.736 19.6969 12C17.3064 9.26402 14.7431 8 12 8C9.25686 8 6.69358 9.26402 4.30314 12ZM3 12C5.66996 8.66667 8.66996 7 12 7C15.33 7 18.33 8.66667 21 12C18.33 15.3333 15.33 17 12 17C8.66996 17 5.66996 15.3333 3 12ZM8.5 12C8.5 10.067 10.067 8.5 12 8.5C13.933 8.5 15.5 10.067 15.5 12C15.5 13.933 13.933 15.5 12 15.5C10.067 15.5 8.5 13.933 8.5 12ZM12 9.5C10.6193 9.5 9.5 10.6193 9.5 12C9.5 13.3807 10.6193 14.5 12 14.5C13.3807 14.5 14.5 13.3807 14.5 12C14.5 10.6193 13.3807 9.5 12 9.5Z"/>
</mask>
<path d="M4.30314 12L3.55008 11.342C3.22083 11.7189 3.22083 12.2811 3.55008 12.658L4.30314 12ZM19.6969 12L20.4499 12.658C20.7792 12.2811 20.7792 11.7189 20.4499 11.342L19.6969 12ZM3 12L2.21951 11.3748C1.92683 11.7402 1.92683 12.2598 2.21951 12.6252L3 12ZM21 12L21.7805 12.6252C22.0732 12.2598 22.0732 11.7402 21.7805 11.3748L21 12ZM12 15C9.61162 15 7.30508 13.916 5.0562 11.342L3.55008 12.658C6.08207 15.5559 8.90209 17 12 17V15ZM18.9438 11.342C16.6949 13.916 14.3884 15 12 15V17C15.0979 17 17.9179 15.5559 20.4499 12.658L18.9438 11.342ZM12 9C14.3884 9 16.6949 10.084 18.9438 12.658L20.4499 11.342C17.9179 8.44405 15.0979 7 12 7V9ZM5.0562 12.658C7.30508 10.084 9.61162 9 12 9V7C8.90209 7 6.08207 8.44405 3.55008 11.342L5.0562 12.658ZM3.78049 12.6252C6.31893 9.45603 9.05587 8 12 8V6C8.28405 6 5.02099 7.8773 2.21951 11.3748L3.78049 12.6252ZM12 8C14.9441 8 17.6811 9.45603 20.2195 12.6252L21.7805 11.3748C18.979 7.8773 15.716 6 12 6V8ZM20.2195 11.3748C17.6811 14.544 14.9441 16 12 16V18C15.716 18 18.979 16.1227 21.7805 12.6252L20.2195 11.3748ZM12 16C9.05587 16 6.31893 14.544 3.78049 11.3748L2.21951 12.6252C5.02099 16.1227 8.28405 18 12 18V16ZM12 7.5C9.51472 7.5 7.5 9.51472 7.5 12H9.5C9.5 10.6193 10.6193 9.5 12 9.5V7.5ZM16.5 12C16.5 9.51472 14.4853 7.5 12 7.5V9.5C13.3807 9.5 14.5 10.6193 14.5 12H16.5ZM12 16.5C14.4853 16.5 16.5 14.4853 16.5 12H14.5C14.5 13.3807 13.3807 14.5 12 14.5V16.5ZM7.5 12C7.5 14.4853 9.51472 16.5 12 16.5V14.5C10.6193 14.5 9.5 13.3807 9.5 12H7.5ZM10.5 12C10.5 11.1716 11.1716 10.5 12 10.5V8.5C10.067 8.5 8.5 10.067 8.5 12H10.5ZM12 13.5C11.1716 13.5 10.5 12.8284 10.5 12H8.5C8.5 13.933 10.067 15.5 12 15.5V13.5ZM13.5 12C13.5 12.8284 12.8284 13.5 12 13.5V15.5C13.933 15.5 15.5 13.933 15.5 12H13.5ZM12 10.5C12.8284 10.5 13.5 11.1716 13.5 12H15.5C15.5 10.067 13.933 8.5 12 8.5V10.5Z" fill="#0278D5" mask="url(#path-1-inside-1_19_693)"/>
</svg>
