<svg width="22" height="22" viewBox="0 0 22 22" fill="none" xmlns="http://www.w3.org/2000/svg">
<path d="M10.8416 17.434L5.90822 21.2007C5.66378 21.4007 5.39711 21.4949 5.10822 21.4833C4.81933 21.4727 4.56378 21.3895 4.34156 21.234C4.11933 21.0784 3.94733 20.8673 3.82555 20.6007C3.70289 20.334 3.69711 20.0451 3.80822 19.734L5.70822 13.5673L0.874888 10.134C0.608222 9.95621 0.441555 9.72287 0.374888 9.43398C0.308222 9.1451 0.319333 8.87843 0.408222 8.63398C0.497111 8.38954 0.652666 8.17265 0.874888 7.98332C1.09711 7.79487 1.36378 7.70065 1.67489 7.70065H7.64156L9.57489 1.30065C9.686 0.98954 9.85844 0.750429 10.0922 0.583318C10.3251 0.417096 10.5749 0.333984 10.8416 0.333984C11.1082 0.333984 11.358 0.417096 11.5909 0.583318C11.8247 0.750429 11.9971 0.98954 12.1082 1.30065L14.0416 7.70065H20.0082C20.3193 7.70065 20.586 7.79487 20.8082 7.98332C21.0304 8.17265 21.186 8.38954 21.2749 8.63398C21.3638 8.87843 21.3749 9.1451 21.3082 9.43398C21.2416 9.72287 21.0749 9.95621 20.8082 10.134L15.9749 13.5673L17.8749 19.734C17.986 20.0451 17.9807 20.334 17.8589 20.6007C17.7362 20.8673 17.5638 21.0784 17.3416 21.234C17.1193 21.3895 16.8638 21.4727 16.5749 21.4833C16.286 21.4949 16.0193 21.4007 15.7749 21.2007L10.8416 17.434Z" fill="url(#paint0_radial_1764_128542)"/>
<defs>
<radialGradient id="paint0_radial_1764_128542" cx="0" cy="0" r="1" gradientUnits="userSpaceOnUse" gradientTransform="translate(10.8416 10.9091) rotate(90) scale(10.5751 10.5095)">
<stop stop-color="#F5E6BF"/>
<stop offset="1" stop-color="#FBC028"/>
</radialGradient>
</defs>
</svg>
