<svg width="25" height="24" viewBox="0 0 25 24" fill="none" xmlns="http://www.w3.org/2000/svg">
<path fill-rule="evenodd" clip-rule="evenodd" d="M2.72754 12C2.72754 17.5228 7.20469 22 12.7275 22C18.2504 22 22.7275 17.5228 22.7275 12C22.7275 6.47715 18.2504 2 12.7275 2C7.20469 2 2.72754 6.47715 2.72754 12ZM18.3782 8.51594C18.6601 8.83377 18.631 9.31994 18.3131 9.60185L12.5284 14.7329L11.9894 15.2109L11.4771 14.7044L8.47023 11.7317C8.16811 11.433 8.16533 10.946 8.46401 10.6439C8.76269 10.3418 9.24973 10.339 9.55185 10.6376L12.0464 13.1039L17.2923 8.45091C17.6101 8.169 18.0963 8.19812 18.3782 8.51594Z" fill="#F6FFF2"/>
</svg>
