<svg width="32" height="32" viewBox="0 0 32 32" fill="none" xmlns="http://www.w3.org/2000/svg">
<path d="M8.47128 16.842C9.10273 16.0001 14.7858 13.0533 15.4172 12.6323C15.2067 10.738 15.9644 6.57045 17.3115 6.73884C18.9954 6.94932 18.9247 9.37068 18.5744 9.89608C18.1534 10.5275 17.3115 12.6323 18.5744 12.6323C19.8373 12.6323 26.7832 8.4227 24.8889 9.89608C22.9945 11.3695 20.6792 15.5791 20.4687 16.0001C20.2582 16.421 20.0478 18.5259 19.2058 20.2097C18.3639 21.8936 14.3647 23.1565 14.7857 23.7879C14.9962 24.1037 14.9962 24.4194 14.7857 24.8403C14.5752 25.2613 11.8389 26.1032 11.418 26.1032C10.997 26.1032 9.73412 25.4718 9.10268 24.8403C8.59752 24.3352 9.31316 23.9282 9.73412 23.7879L8.68171 22.7355C8.17655 22.2303 8.75187 21.8234 9.10268 21.6831C8.89221 21.5428 8.38709 21.0516 8.05032 20.2097C7.62935 19.1573 9.10273 19.5783 8.47128 18.9468C7.83983 18.3154 7.83983 17.6839 8.47128 16.842Z" fill="#FCC62D"/>
<path fill-rule="evenodd" clip-rule="evenodd" d="M21.0878 15.2379C20.8029 15.8469 20.6644 16.3259 20.6791 16.6208L20.6797 16.6315L20.6791 16.6423C20.5699 18.7169 19.4941 20.2025 18.2984 21.3357C17.7013 21.9016 17.07 22.3837 16.5115 22.8076L16.4694 22.8395C15.9227 23.2543 15.4597 23.6056 15.1489 23.9326L14.8438 23.6427C15.1786 23.2902 15.6658 22.9206 16.1952 22.5191C16.2158 22.5035 16.2363 22.4879 16.257 22.4722C16.8166 22.0476 17.4306 21.5781 18.0088 21.0302C19.1614 19.9377 20.1539 18.5497 20.2582 16.6304C20.2417 16.2246 20.4217 15.6682 20.7064 15.0595C20.9986 14.4349 21.4175 13.7216 21.9104 12.9977C22.8946 11.5523 24.1891 10.0428 25.3904 9.09888L25.6505 9.42989C24.4945 10.3382 23.2281 11.8105 22.2583 13.2347C21.7742 13.9456 21.3678 14.6391 21.0878 15.2379Z" fill="black"/>
<path fill-rule="evenodd" clip-rule="evenodd" d="M14.6371 18.798C14.7193 18.7158 14.8526 18.7158 14.9348 18.798C15.1712 19.0344 15.3001 19.2825 15.345 19.531C15.3895 19.7781 15.3479 20.0084 15.2718 20.2063C15.1241 20.5902 14.8352 20.8791 14.7278 20.9864L14.7243 20.99C14.683 21.0313 14.612 21.084 14.5356 21.1376C14.4541 21.1948 14.3505 21.2638 14.2327 21.3401C13.997 21.4929 13.6991 21.6782 13.3957 21.8629C12.7923 22.2302 12.1531 22.6034 11.9333 22.7133C11.6621 22.8489 11.344 22.8406 11.0612 22.784C10.774 22.7266 10.4927 22.6133 10.2717 22.5028C10.1921 22.463 10.1216 22.4317 10.0464 22.3982C10.027 22.3896 10.0073 22.3808 9.98699 22.3718C9.88907 22.3279 9.7843 22.279 9.65843 22.2091C9.40729 22.0696 9.08131 21.8512 8.55044 21.4265C8.27068 21.2027 8.08669 20.9803 7.98654 20.7559C7.88442 20.5272 7.87475 20.3079 7.92521 20.106C8.01845 19.7331 8.31711 19.4347 8.51753 19.2345C8.52279 19.2292 8.52797 19.2241 8.53309 19.2189L8.83076 19.5166C8.60997 19.7374 8.39578 19.9594 8.3336 20.2081C8.30513 20.322 8.30862 20.4447 8.37094 20.5843C8.43523 20.7283 8.56696 20.9006 8.81341 21.0978C9.33495 21.515 9.64042 21.7175 9.86287 21.8411C9.97379 21.9027 10.0664 21.946 10.1592 21.9876C10.1771 21.9957 10.1953 22.0037 10.2138 22.0119C10.2899 22.0458 10.371 22.0818 10.4599 22.1263C10.6598 22.2262 10.9047 22.3234 11.1438 22.3712C11.3871 22.4199 11.5953 22.4116 11.745 22.3368C11.9462 22.2362 12.5699 21.8727 13.1768 21.5033C13.4785 21.3197 13.7726 21.1366 14.0039 20.9868C14.1196 20.9118 14.2183 20.846 14.2938 20.793C14.3744 20.7364 14.4153 20.7036 14.4266 20.6923C14.5327 20.5862 14.7651 20.351 14.8789 20.0552C14.9343 19.9111 14.9585 19.7599 14.9307 19.6057C14.9032 19.4531 14.8216 19.2802 14.6371 19.0956C14.5549 19.0134 14.5549 18.8802 14.6371 18.798Z" fill="black"/>
<path fill-rule="evenodd" clip-rule="evenodd" d="M14.637 20.6923C14.7192 20.6101 14.8525 20.6101 14.9347 20.6923C15.1711 20.9287 15.3001 21.1767 15.3449 21.4253C15.3895 21.6724 15.3479 21.9027 15.2717 22.1006C15.1241 22.4845 14.8352 22.7734 14.7278 22.8807L14.7242 22.8843C14.6786 22.9299 14.6027 22.981 14.5266 23.0288C14.444 23.0807 14.3396 23.1417 14.2216 23.2082C13.9851 23.3414 13.6868 23.5005 13.3836 23.6587C12.7767 23.9754 12.1438 24.2918 11.9333 24.3971C11.4603 24.6336 10.8825 24.5057 10.3943 24.2999C9.89444 24.0892 9.42524 23.7703 9.12638 23.5312C8.84662 23.3074 8.66263 23.085 8.56248 22.8607C8.46035 22.632 8.45068 22.4126 8.50113 22.2108C8.59436 21.8378 8.89303 21.5395 9.09345 21.3392C9.0987 21.334 9.10388 21.3288 9.10899 21.3237L9.40665 21.6214C9.18587 21.8422 8.9717 22.0642 8.90953 22.3129C8.88106 22.4268 8.88455 22.5495 8.94687 22.6891C9.01117 22.8331 9.14291 23.0054 9.38936 23.2025C9.66874 23.426 10.1045 23.7209 10.5578 23.912C11.0229 24.108 11.4466 24.1698 11.745 24.0206C11.9555 23.9153 12.5855 23.6003 13.1888 23.2855C13.4907 23.128 13.7844 22.9714 14.0149 22.8415C14.1304 22.7764 14.2282 22.7191 14.3027 22.6723C14.3399 22.6489 14.3698 22.6291 14.3923 22.613C14.4036 22.605 14.4121 22.5985 14.4184 22.5935C14.425 22.5882 14.4271 22.586 14.4266 22.5866C14.5326 22.4805 14.7651 22.2453 14.8788 21.9495C14.9343 21.8054 14.9584 21.6542 14.9306 21.5C14.9031 21.3474 14.8216 21.1745 14.637 20.9899C14.5548 20.9077 14.5548 20.7745 14.637 20.6923Z" fill="black"/>
<path fill-rule="evenodd" clip-rule="evenodd" d="M14.1773 23.0608C14.23 22.9572 14.3568 22.916 14.4604 22.9688C14.7534 23.1179 14.9446 23.3046 15.0437 23.5207C15.1429 23.7372 15.1374 23.9564 15.088 24.1469C14.9923 24.5153 14.7226 24.8165 14.614 24.9177C14.5704 24.9583 14.4993 25.0027 14.4304 25.043C14.3549 25.0872 14.2596 25.1391 14.152 25.1956C13.9365 25.3087 13.6646 25.4438 13.3884 25.5781C12.8355 25.8468 12.259 26.1153 12.0673 26.2046C11.6334 26.4067 11.1055 26.2974 10.66 26.1225C10.2034 25.9432 9.77487 25.6719 9.5016 25.4682C9.24565 25.2775 9.07386 25.0855 8.97927 24.8881C8.88203 24.6852 8.87225 24.4884 8.92084 24.3073C8.96779 24.1323 9.06627 23.9824 9.16899 23.8589C9.27044 23.7369 9.38645 23.6288 9.4802 23.5415L9.48387 23.5381L9.77081 23.8461C9.67348 23.9368 9.57554 24.0284 9.49262 24.1281C9.40963 24.2279 9.35236 24.3235 9.32743 24.4164C9.30414 24.5032 9.30635 24.5966 9.35889 24.7062C9.41408 24.8214 9.52985 24.9643 9.75316 25.1307C10.0066 25.3195 10.4022 25.569 10.8138 25.7306C11.2365 25.8966 11.6208 25.9482 11.8895 25.823C12.0812 25.7337 12.6549 25.4665 13.2043 25.1994C13.4792 25.0658 13.7465 24.933 13.9563 24.8229C14.0614 24.7677 14.1503 24.7192 14.2178 24.6797C14.2516 24.6599 14.2785 24.6433 14.2986 24.6299C14.319 24.6164 14.3267 24.6099 14.3271 24.6096C14.3271 24.6096 14.3271 24.6096 14.327 24.6097C14.4101 24.5323 14.6139 24.2976 14.6805 24.041C14.7122 23.919 14.7101 23.8033 14.661 23.6961C14.6117 23.5885 14.5026 23.4626 14.2694 23.3439C14.1658 23.2912 14.1246 23.1644 14.1773 23.0608Z" fill="black"/>
<path fill-rule="evenodd" clip-rule="evenodd" d="M18.1411 6.67283C18.8292 6.97198 19.2356 7.82217 18.9874 8.6908C18.7777 9.4247 18.5304 10.4117 18.4333 11.2105C18.3843 11.6133 18.3763 11.9482 18.4201 12.1744C18.4421 12.2877 18.4734 12.3534 18.5011 12.387C18.5171 12.4065 18.532 12.4166 18.5538 12.4202C18.5623 12.4172 18.5734 12.4131 18.5872 12.4078C18.6308 12.3911 18.6927 12.3655 18.7721 12.3314C18.9302 12.2635 19.1503 12.1649 19.4162 12.0429C19.9477 11.7991 20.6582 11.4642 21.4143 11.1006C22.9288 10.3723 24.617 9.53327 25.4169 9.08118C25.5181 9.02398 25.6465 9.05965 25.7037 9.16085C25.7609 9.26205 25.7252 9.39046 25.624 9.44766C24.8102 9.90765 23.1097 10.7525 21.5967 11.48C20.8391 11.8443 20.1262 12.1804 19.5917 12.4255C19.3246 12.548 19.101 12.6483 18.9382 12.7182C18.8571 12.7531 18.7893 12.7812 18.738 12.8009C18.7126 12.8106 18.6888 12.8192 18.6683 12.8257C18.6581 12.8289 18.6463 12.8324 18.6342 12.8353C18.6257 12.8373 18.6024 12.8426 18.5745 12.8426C18.4103 12.8426 18.2737 12.7733 18.176 12.6544C18.0853 12.5442 18.0353 12.401 18.0069 12.2545C17.95 11.9611 17.9652 11.5724 18.0154 11.1597C18.1166 10.3272 18.3713 9.31461 18.5826 8.57514C18.7788 7.88872 18.4486 7.26553 17.9732 7.05889C17.7397 6.9574 17.4599 6.94963 17.1638 7.09394C16.8639 7.24013 16.5353 7.54918 16.2336 8.10231C15.6248 9.2184 15.5226 10.2323 15.5226 11.0272C15.5226 11.2268 15.529 11.4125 15.5355 11.5844C15.5362 11.6017 15.5369 11.6189 15.5375 11.6359C15.5434 11.7869 15.5488 11.9294 15.5488 12.0566C15.5488 12.1973 15.5423 12.3317 15.5183 12.4494C15.4943 12.5666 15.449 12.6876 15.3556 12.781C15.2842 12.8524 15.1389 12.9533 14.9637 13.0663C14.7808 13.1843 14.5439 13.3289 14.2717 13.4906C13.7271 13.8141 13.0348 14.2097 12.3374 14.6044C11.9784 14.8077 11.619 15.0101 11.2779 15.2023C10.286 15.7611 9.44816 16.2331 9.21956 16.3855C8.9221 16.5838 8.47319 16.9841 8.20369 17.4251C8.06936 17.645 7.98905 17.8596 7.98117 18.054C7.97365 18.2397 8.03111 18.4192 8.19926 18.5873C8.58575 18.9738 9.06954 19.3824 9.59487 19.6931C10.122 20.005 10.6761 20.2095 11.2077 20.2095C11.3193 20.2095 11.5348 20.1491 11.8316 20.0288C12.1174 19.9129 12.4483 19.7545 12.7758 19.5868C13.4302 19.2515 14.0573 18.8857 14.2566 18.7661C14.6995 18.5004 14.8283 18.0657 14.7628 17.694C14.6941 17.3051 14.4357 17.0523 14.1544 17.0523C13.3711 17.0523 12.3594 17.4486 11.316 18.0747C11.2163 18.1345 11.087 18.1022 11.0272 18.0025C10.9674 17.9028 10.9997 17.7735 11.0994 17.7137C12.1608 17.0769 13.2539 16.6313 14.1544 16.6313C14.7151 16.6313 15.0881 17.1152 15.1773 17.6208C15.2696 18.1437 15.0827 18.7614 14.4732 19.1271C14.2689 19.2497 13.6331 19.6205 12.9677 19.9614C12.6352 20.1318 12.292 20.2964 11.9897 20.4189C11.6984 20.537 11.4118 20.6305 11.2077 20.6305C10.5723 20.6305 9.94282 20.3881 9.38054 20.0555C8.81648 19.7218 8.30511 19.2885 7.90159 18.885C7.64876 18.6321 7.54836 18.338 7.56056 18.037C7.5724 17.7446 7.68942 17.4594 7.84449 17.2056C8.15382 16.6994 8.65207 16.2579 8.98605 16.0352C9.22897 15.8733 10.0948 15.3855 11.0965 14.8213C11.4319 14.6323 11.7825 14.4348 12.1301 14.2381C12.8271 13.8435 13.5162 13.4498 14.0568 13.1287C14.3272 12.968 14.559 12.8265 14.7354 12.7126C14.9195 12.5938 15.0242 12.5171 15.058 12.4833C15.0698 12.4715 15.0903 12.4412 15.1058 12.3651C15.1213 12.2896 15.1279 12.1889 15.1279 12.0566C15.1279 11.9381 15.1227 11.8042 15.1168 11.6512C15.1162 11.6346 15.1155 11.6176 15.1149 11.6005C15.1083 11.4279 15.1016 11.2354 15.1016 11.0272C15.1016 10.1909 15.2099 9.09996 15.864 7.90073C16.1938 7.29621 16.5784 6.91098 16.9794 6.71554C17.3842 6.5182 17.7928 6.52143 18.1411 6.67283Z" fill="black"/>
<path d="M9.32758 12.8727C9.32758 12.8727 10.5153 9.88608 12.1781 9.505C10.5153 9.37297 9.68755 7.04977 9.32758 5.89673C9.06249 7.17291 8.13986 9.36447 6.47705 9.36447C8.37741 9.36447 9.32758 12.8727 9.32758 12.8727Z" fill="white"/>
<path fill-rule="evenodd" clip-rule="evenodd" d="M9.31716 5.68654C9.41151 5.68181 9.49714 5.74211 9.52561 5.83332C9.70477 6.40721 9.9953 7.2545 10.4401 7.97184C10.8883 8.69447 11.4623 9.23708 12.1942 9.2952C12.2967 9.30333 12.3779 9.38606 12.3853 9.48986C12.3927 9.59366 12.3241 9.68735 12.2238 9.71033C11.8586 9.79403 11.505 10.0249 11.1746 10.3443C10.8454 10.6624 10.5511 11.0567 10.3039 11.4457C10.0572 11.8339 9.86078 12.2114 9.72591 12.4922C9.65857 12.6324 9.60681 12.7481 9.57203 12.8283C9.55465 12.8684 9.54152 12.8996 9.53283 12.9206L9.52314 12.9442L9.52083 12.9499L9.52031 12.9512C9.48698 13.0349 9.4045 13.0881 9.31547 13.0829C9.22644 13.0777 9.15061 13.0156 9.12699 12.9285L9.12651 12.9267L9.12465 12.92C9.12296 12.914 9.12034 12.9047 9.1168 12.8925C9.10973 12.868 9.09898 12.8316 9.08455 12.785C9.05569 12.6917 9.01218 12.5578 8.95406 12.3969C8.83758 12.0743 8.66352 11.6462 8.43256 11.2199C8.20077 10.792 7.91683 10.3755 7.58398 10.0682C7.25225 9.76201 6.88423 9.57498 6.47689 9.57498C6.3621 9.57498 6.26904 9.48075 6.26904 9.3645C6.26904 9.24825 6.3621 9.15402 6.47689 9.15402C7.20767 9.15402 7.79918 8.67366 8.25404 7.99142C8.70691 7.31216 8.99544 6.47244 9.12403 5.85344C9.14347 5.75983 9.22281 5.69127 9.31716 5.68654ZM7.34701 9.38171C7.53343 9.48235 7.70584 9.6111 7.86402 9.75711C8.24381 10.1077 8.55373 10.5682 8.79703 11.0174C9.04116 11.4681 9.22341 11.9171 9.34448 12.2523C9.34948 12.2662 9.35438 12.2798 9.35918 12.2933C9.49876 12.0038 9.70061 11.6172 9.95435 11.2179C10.2119 10.8126 10.5264 10.3888 10.8876 10.0397C11.0797 9.85404 11.2886 9.68615 11.5124 9.55373C10.9083 9.29443 10.4419 8.76626 10.0881 8.19572C9.77033 7.68328 9.52935 7.11469 9.35051 6.62103C9.18304 7.14611 8.93413 7.72367 8.59857 8.22698C8.27595 8.71087 7.8605 9.14364 7.34701 9.38171Z" fill="black"/>
<path d="M19.4602 22.3444C19.4602 22.3444 20.6479 19.3578 22.3107 18.9767C20.6479 18.8447 19.8201 16.5215 19.4602 15.3684C19.1951 16.6446 18.2724 18.8361 16.6096 18.8361C18.51 18.8361 19.4602 22.3444 19.4602 22.3444Z" fill="white"/>
<path fill-rule="evenodd" clip-rule="evenodd" d="M19.45 15.1582C19.5443 15.1535 19.6299 15.2138 19.6584 15.305C19.8376 15.8789 20.1281 16.7262 20.573 17.4435C21.0211 18.1661 21.5951 18.7088 22.327 18.7669C22.4295 18.775 22.5107 18.8577 22.5181 18.9615C22.5255 19.0653 22.4569 19.159 22.3567 19.182C21.9914 19.2657 21.6378 19.4966 21.3074 19.816C20.9782 20.1341 20.684 20.5284 20.4367 20.9174C20.19 21.3056 19.9936 21.6831 19.8587 21.9639C19.7914 22.1041 19.7396 22.2197 19.7048 22.3C19.6875 22.3401 19.6743 22.3713 19.6656 22.3923L19.6559 22.4159L19.6536 22.4216L19.6531 22.4229C19.6198 22.5066 19.5373 22.5598 19.4483 22.5546C19.3593 22.5494 19.2834 22.4872 19.2598 22.4002L19.2593 22.3984L19.2575 22.3917C19.2558 22.3856 19.2532 22.3764 19.2496 22.3641C19.2425 22.3396 19.2318 22.3032 19.2174 22.2566C19.1885 22.1634 19.145 22.0295 19.0869 21.8686C18.9704 21.546 18.7963 21.1179 18.5654 20.6915C18.3336 20.2636 18.0496 19.8471 17.7168 19.5399C17.3851 19.2337 17.017 19.0467 16.6097 19.0467C16.4949 19.0467 16.4019 18.9524 16.4019 18.8362C16.4019 18.7199 16.4949 18.6257 16.6097 18.6257C17.3405 18.6257 17.932 18.1453 18.3869 17.4631C18.8397 16.7838 19.1283 15.9441 19.2568 15.3251C19.2763 15.2315 19.3556 15.1629 19.45 15.1582ZM17.4798 18.8534C17.6662 18.954 17.8387 19.0828 17.9968 19.2288C18.3766 19.5794 18.6865 20.0399 18.9298 20.4891C19.174 20.9398 19.3562 21.3887 19.4773 21.724C19.4823 21.7378 19.4872 21.7515 19.492 21.765C19.6316 21.4755 19.8334 21.0889 20.0872 20.6896C20.3447 20.2843 20.6592 19.8605 21.0204 19.5114C21.2125 19.3257 21.4214 19.1578 21.6452 19.0254C21.0411 18.7661 20.5747 18.2379 20.2209 17.6674C19.9031 17.155 19.6622 16.5864 19.4833 16.0927C19.3159 16.6178 19.0669 17.1953 18.7314 17.6987C18.4088 18.1825 17.9933 18.6153 17.4798 18.8534Z" fill="black"/>
</svg>
