<svg fill="none" height="22" viewBox="0 0 14 22" width="14" xmlns="http://www.w3.org/2000/svg"><path d="m.392578 6.9996c1.160302-1.21307 3.041562-1.21307 4.201872 0 1.16031-1.21307 3.04157-1.21307 4.20187 0 1.16031-1.21307 3.04158-1.21307 4.20188 0 0-3.63926-2.8219-6.589444-6.30281-6.589444-3.48096 0-6.302812 2.950184-6.302812 6.589444z" fill="#adeefa"/><path d="m6.69583.410156c-1.16082 0-2.10188 2.949604-2.10208 6.588334.00035.00037.00075.00074.00114.00111 1.16031-1.21307 3.04157-1.21307 4.20188 0 .00035-.00037.00074-.00074.00114-.00111-.0002-3.63873-.94126-6.588334-2.10208-6.588334z" fill="#ff7d97"/><path d="m3.86864 11.4127h5.65486c.8675 0 1.5708.7353 1.5708 1.6422v5.9121c0 .9069-.7033 1.6422-1.5708 1.6422h-5.65486c-.86751 0-1.57079-.7353-1.57079-1.6422v-5.9121c0-.9069.70328-1.6422 1.57079-1.6422z" fill="#ffec80"/><path d="m5.12598 14.6163v-3.2042h3.14158v3.2042l-1.57079-1.177z" fill="#fff"/><g fill="#6b6d85"><path d="m13.391 7c0-3.85981-3.0036-7-6.69549-7-3.69192 0-6.69551 3.14019-6.69551 7 0 .12818.0571376.24638.1506.32299l4.4909 3.67991h-.77342c-1.08267 0-1.96349.9209-1.96349 2.0528v1.1085c0 .2267.17581.4106.3927.4106.21688 0 .39269-.1839.39269-.4106v-1.1085c0-.6791.5285-1.2317 1.1781-1.2317h.86448v2.7937c0 .1539.08235.2949.21328.3653.13093.0702.28855.0581.40821-.0316l1.34201-1.0056 1.342 1.0056c.06798.0509.14821.0769.22883.0769.0613 0 .1228-.015.17938-.0453.13093-.0704.21328-.2113.21328-.3653v-2.7937h.86338c.64957 0 1.17807.5526 1.17807 1.2317v5.912c0 .6792-.5285 1.2317-1.17807 1.2317h-5.65485c-.6496 0-1.1781-.5525-1.1781-1.2317v-1.1085c0-.2267-.17581-.4105-.39269-.4105-.21689 0-.3927.1838-.3927.4105v1.1085c0 1.1319.88082 2.0528 1.96349 2.0528h5.65485c1.08267 0 1.96347-.9209 1.96347-2.0528v-5.912c0-1.1319-.8808-2.0528-1.96347-2.0528h-.77341l4.49088-3.67991c.0935-.07661.1506-.19481.1506-.32299zm-.8436-.86866c-1.0452-.61444-2.3399-.59912-3.37302.04492-.05797-1.49283-.27297-2.87797-.61992-3.96557-.16552-.51887-.34451-.92109-.52802-1.231388 2.35636.569078 4.17826 2.615288 4.52096 5.152038zm-5.85189-5.310226c.27112 0 .72551.431946 1.11385 1.649336.32044 1.00447.5206 2.2909.57817 3.68692-.52104-.31691-1.10635-.47608-1.69202-.47608s-1.17099.15917-1.69202.47608c.05757-1.39602.25773-2.68245.57817-3.68692.38834-1.21739.84273-1.649336 1.11385-1.649336zm1.6286 6.285266-1.62805 3.87922-1.62833-3.87996c.94464-.80511 2.31197-.80482 3.25638.00074zm-4.05752.13396 1.54283 3.67626-4.79414-3.9281c.98685-.72286 2.35274-.6389 3.25131.25184zm4.85976-.00193c.89865-.88894 2.26325-.97228 3.24935-.24991l-4.79242 3.9267zm-3.76174-6.259108c-.18351.310298-.3625.712478-.52802 1.231388-.34695 1.0876-.56195 2.47278-.61991 3.96561-1.03315-.64404-2.32788-.65936-3.373046-.04492.342706-2.53679 2.164556-4.583 4.520976-5.152078zm2.50954 12.838998-.94931-.7113c-.06841-.0512-.14859-.0769-.22878-.0769s-.16038.0257-.22879.0769l-.94931.7113v-1.9943h2.35619z"/><path d="m9.36592 19.036c.21689 0 .3927-.1839.3927-.4106s-.17581-.4106-.3927-.4106h-1.21736c-.21689 0-.3927.1839-.3927.4106s.17581.4106.3927.4106z"/><path d="m2.297 16.4227c.10327 0 .20459-.044.27763-.1204.07305-.0763.11506-.1822.11506-.2902s-.04201-.2139-.11506-.2902c-.07304-.0764-.17436-.1203-.27763-.1203-.10328 0-.2046.0439-.27764.1203-.07304.0763-.11506.1822-.11506.2902s.04202.2139.11506.2902c.07304.0764.17436.1204.27764.1204z"/></g></svg>