<svg xmlns="http://www.w3.org/2000/svg" viewBox="0 0 326 200"><path fill="#fff" d="M89.259 141.284c-10.427-1.969-17.339 6.741-23.1 14.361-8.051 6.542-6.272 10.487-5.664 11.795 3.91 8.405 8.983 23.282 22.74 25.074 8.136 1.06 22.976-10.934 27.593-19.637 3.71-6.992-5.88-16.419-7.848-19.692-4.561-7.587-7.192-10.668-13.721-11.901Z"/><path fill="#FCFEFF" fill-rule="evenodd" d="M76.96 142.288c2.113-2.074 8.538-.594 11.43 2.244 4.571 4.488 17.144 20.194 17.144 23.56 0 3.366-1.674 7.253-5.715 11.219-4.572 4.488-14.859 11.22-17.145 12.342-2.285 1.122-4.571 1.122-11.43-7.854-6.857-8.975-12.572-17.951-11.429-20.194.915-1.796 10.287-14.585 17.145-21.317Zm-2.731 12.341 5.714 7.853 6.858-6.731c-1.143-2.244-3.886-6.732-5.715-6.732-1.829 0-5.334 3.74-6.858 5.61Zm10.286 13.463 8-6.731c1.525 1.869 4.573 5.834 4.573 6.731 0 2.706-2.216 4.686-4.272 6.525a41.32 41.32 0 0 0-1.443 1.329l-6.858-7.854Zm1.143 12.341-5.715-7.853-6.858 5.609c.158.309.315.638.478.98 1.023 2.147 2.28 4.784 5.237 5.752 1.735.568 6.096-2.992 6.858-4.488ZM75.371 166.97l-5.714-7.853-.255.262c-1.893 1.942-5.358 5.498-3.174 8.713l.001.002c1.23 1.812 2.285 3.364 3.428 4.486l5.714-5.61Z" clip-rule="evenodd" opacity=".5"/><path fill-rule="evenodd" d="M87.626 145.331c-4.471-4.388-9.678-3.149-11.753-1.113-3.554 3.489-11.286 13.297-13.543 16.62-2.504 3.687-1.089 7.317.032 9.516l-.321.158.32-.158c1.308 2.567 3.674 6.273 5.948 9.571 2.284 3.312 4.43 6.145 5.297 6.995.316.311.65.661.984 1.011.255.268.51.536.757.785.594.601 1.206 1.166 1.876 1.626 1.317.906 2.869 1.414 4.97.899 1.05-.258 2.445-.95 4.053-1.958 1.598-1.002 3.368-2.292 5.165-3.709 3.594-2.835 7.266-6.162 9.822-8.671 2.72-2.67 3.239-5.299 2.973-7.519-.242-2.011-1.125-3.706-1.727-4.86l-.208-.401c-.233-.459-.974-1.581-2.056-3.109a194.119 194.119 0 0 0-3.946-5.353c-2.992-3.926-6.404-8.132-8.643-10.33Zm-12.473-1.82c2.462-2.416 8.314-3.676 13.194 1.113 2.296 2.255 5.747 6.514 8.738 10.438a195.791 195.791 0 0 1 3.967 5.382c1.069 1.511 1.857 2.695 2.131 3.232.06.118.127.247.2.386.599 1.146 1.57 3.002 1.834 5.205.301 2.511-.314 5.447-3.264 8.343-2.577 2.53-6.276 5.881-9.903 8.743-1.814 1.431-3.616 2.744-5.256 3.772-1.629 1.022-3.137 1.787-4.354 2.086-2.434.597-4.285-.007-5.802-1.05-.747-.513-1.411-1.131-2.022-1.748-.283-.286-.543-.56-.796-.825a37.3 37.3 0 0 0-.935-.961c-.948-.931-3.148-3.849-5.42-7.141-2.28-3.306-4.676-7.057-6.014-9.685-1.148-2.252-2.801-6.347.031-10.518 2.28-3.356 10.054-13.221 13.671-16.772Z" clip-rule="evenodd"/><path fill-rule="evenodd" d="M94.775 143.992c-4.478-4.397-9.236-3.589-12.359-2.976-2.767.543-4.39 1.349-5.734 2.404-.681.535-1.3 1.141-1.969 1.833-.192.198-.389.404-.592.617-.5.524-1.04 1.09-1.65 1.687l-.72-.707c.597-.585 1.119-1.132 1.615-1.651.206-.216.408-.428.609-.635.677-.7 1.334-1.346 2.07-1.924 1.49-1.171 3.27-2.035 6.172-2.605 3.168-.622 8.407-1.532 13.279 3.25 2.297 2.254 5.748 6.513 8.739 10.437a197.705 197.705 0 0 1 3.967 5.382c1.069 1.511 1.857 2.696 2.13 3.232.06.118.128.247.201.387.599 1.145 1.57 3.002 1.834 5.205.301 2.511-.315 5.447-3.264 8.342-2.567 2.52-6.349 6.204-10.06 9.399-1.855 1.598-3.7 3.08-5.372 4.235-1.658 1.145-3.196 2.005-4.427 2.307-4.566 1.12-8.12 1.158-10.557-.038l.456-.894c2.099 1.03 5.348 1.067 9.854-.038 1.036-.255 2.443-1.019 4.088-2.155 1.63-1.126 3.444-2.582 5.286-4.168 3.683-3.172 7.444-6.835 10.011-9.355 2.72-2.67 3.239-5.299 2.973-7.518-.241-2.012-1.125-3.707-1.726-4.86l-.208-.401c-.234-.459-.975-1.581-2.056-3.109a194.55 194.55 0 0 0-3.946-5.353c-2.992-3.926-6.404-8.132-8.644-10.33Z" clip-rule="evenodd"/><path fill-rule="evenodd" d="M79.294 149.617c.622-.388 1.284-.686 1.889-.686.647 0 1.278.384 1.826.853.568.486 1.138 1.144 1.673 1.854 1.072 1.421 2.05 3.117 2.626 4.247l.164.323-7.488 7.35-6.243-8.579.24-.295c.768-.942 2.033-2.353 3.342-3.535.654-.589 1.33-1.133 1.971-1.532Zm-4.275 5.398 5.095 7.001 6.117-6.004c-.57-1.079-1.437-2.545-2.368-3.78-.514-.681-1.034-1.276-1.523-1.694-.508-.435-.897-.607-1.157-.607-.302 0-.756.165-1.343.53-.57.355-1.197.855-1.828 1.425-1.132 1.022-2.24 2.232-2.993 3.129Zm-5.12 3.649 6.28 8.629-6.335 6.219-.36-.354c-1.17-1.148-2.24-2.722-3.441-4.492l-.025-.036c-1.288-1.897-.795-3.881.158-5.533.861-1.493 2.155-2.82 3.045-3.732l.253-.261.425-.44Zm-2.837 4.926c-.866 1.502-1.176 3.043-.196 4.485 1.097 1.616 2.025 2.979 2.986 4.014l4.996-4.904-5.06-6.955c-.877.902-1.981 2.069-2.726 3.36Zm25.529-2.632.329.404a78.39 78.39 0 0 1 2.854 3.727c.476.667.91 1.314 1.229 1.855a7.3 7.3 0 0 1 .39.745c.09.205.174.444.174.663 0 1.849-.945 3.356-2.113 4.646-.585.646-1.24 1.252-1.88 1.827l-.417.375c-.496.444-.973.87-1.409 1.297l-.389.382-7.493-8.581 8.725-7.34Zm-7.288 7.449 6.118 7.006c.343-.32.702-.641 1.06-.962l.406-.363c.635-.572 1.257-1.149 1.806-1.755 1.1-1.214 1.855-2.49 1.855-3.981v.002s-.001-.02-.015-.067a1.724 1.724 0 0 0-.076-.204 6.315 6.315 0 0 0-.337-.639 25.446 25.446 0 0 0-1.18-1.782 75.331 75.331 0 0 0-2.488-3.27l-7.15 6.015Zm-5.159 3.669 6.167 8.474-.137.27c-.227.445-.687.99-1.235 1.53-.558.55-1.243 1.13-1.96 1.643-.714.513-1.474.971-2.182 1.266-.68.283-1.425.466-2.043.263-1.842-.602-3.058-1.808-3.948-3.118-.64-.942-1.134-1.978-1.565-2.883-.157-.33-.306-.643-.451-.928l-.18-.354 7.534-6.163Zm-6.265 6.427c.106.216.211.437.317.66.422.884.864 1.812 1.458 2.686.81 1.194 1.863 2.214 3.422 2.725.242.079.683.031 1.323-.235.611-.255 1.302-.667 1.98-1.153a15.85 15.85 0 0 0 1.839-1.542c.398-.392.702-.745.893-1.022l-5.158-7.088-6.074 4.969ZM102.447 176.216a.496.496 0 0 1 .256-.661l8.439-3.729a.514.514 0 0 1 .674.251.496.496 0 0 1-.256.661l-8.439 3.729a.514.514 0 0 1-.674-.251Zm1.995-6.134a.497.497 0 0 1 .283-.642l7.244-2.91c.252-.101.54.01.655.252a.495.495 0 0 1-.224.653c-1.103.571-2.941 1.308-4.481 1.895a135.764 135.764 0 0 1-2.604.963l-.166.059-.059.021a.512.512 0 0 1-.648-.291Zm-1.114-4.189a.496.496 0 0 1 .222-.673l5.947-2.979a.515.515 0 0 1 .686.218.496.496 0 0 1-.223.673l-5.947 2.979a.514.514 0 0 1-.685-.218ZM95.162 153.377a.496.496 0 0 1 .213-.676l4.867-2.517a.514.514 0 0 1 .688.21.495.495 0 0 1-.213.675l-4.867 2.517a.514.514 0 0 1-.688-.209Zm2.526 4.258a.495.495 0 0 1 .213-.675l5.585-2.888a.514.514 0 0 1 .688.209.495.495 0 0 1-.213.675l-5.585 2.888a.514.514 0 0 1-.688-.209Zm2.894 3.75a.496.496 0 0 1 .213-.676l5.678-2.936a.513.513 0 0 1 .688.21.495.495 0 0 1-.213.675l-5.678 2.936a.514.514 0 0 1-.688-.209ZM85.428 142.997a.495.495 0 0 1 .214-.675l4.158-2.15a.514.514 0 0 1 .688.209.496.496 0 0 1-.214.676l-4.157 2.15a.514.514 0 0 1-.689-.21Zm4.158 3.415a.495.495 0 0 1 .214-.675l4.764-2.464a.514.514 0 0 1 .688.209.496.496 0 0 1-.213.676l-4.765 2.464a.514.514 0 0 1-.688-.21Zm3.142 3.245a.496.496 0 0 1 .214-.676l4.866-2.516a.514.514 0 0 1 .688.209.495.495 0 0 1-.213.675l-4.866 2.517a.514.514 0 0 1-.689-.209ZM86.186 189.621a.502.502 0 0 1 .429-.569l8.111-1.194a.508.508 0 0 1 .58.42.502.502 0 0 1-.429.569l-8.111 1.194a.508.508 0 0 1-.58-.42Zm4.07-3.119a.499.499 0 0 1 .347-.62l10.545-3.017a.512.512 0 0 1 .632.34.5.5 0 0 1-.347.62l-10.545 3.017a.511.511 0 0 1-.631-.34Zm6.506-4.731a.497.497 0 0 1 .284-.65c1.515-.595 2.742-1.017 3.866-1.404.389-.133.765-.263 1.136-.393a38.988 38.988 0 0 0 4.691-1.964.515.515 0 0 1 .684.221.496.496 0 0 1-.225.672 40.102 40.102 0 0 1-4.806 2.012c-.382.134-.765.266-1.158.401-1.119.385-2.317.797-3.81 1.383a.512.512 0 0 1-.662-.278Z" clip-rule="evenodd"/><path fill="#9293AB" fill-rule="evenodd" d="M171.598 142.415a.498.498 0 0 1-.301.643c-12.864 4.669-32.618 11.661-45.529 16.201a.512.512 0 0 1-.651-.302.498.498 0 0 1 .308-.64c12.91-4.539 32.66-11.529 45.518-16.197a.512.512 0 0 1 .655.295Z" clip-rule="evenodd"/><path fill="#9293AB" fill-rule="evenodd" d="M154.494 145.347a.5.5 0 0 1 .38-.6l.534-.126c1.388-.327 4.759-1.123 8.035-1.766 1.921-.377 3.826-.705 5.287-.855.727-.074 1.368-.107 1.855-.074.24.017.474.052.67.122.183.065.445.201.553.495l.056.153-.047.156c-.101.34-.316.658-.578.95a7.135 7.135 0 0 1-.985.883c-.765.584-1.757 1.188-2.827 1.788-.987.553-2.056 1.112-3.097 1.656l-.274.143c-1.132.592-2.218 1.164-3.137 1.699a.515.515 0 0 1-.698-.174.494.494 0 0 1 .178-.685c.943-.55 2.049-1.132 3.178-1.722l.272-.142c1.044-.546 2.1-1.098 3.072-1.643 1.059-.594 2.001-1.17 2.708-1.709.353-.27.637-.522.845-.754a2.46 2.46 0 0 0 .169-.207 3.224 3.224 0 0 0-.13-.011c-.397-.028-.967-.002-1.677.071-1.413.144-3.28.465-5.194.841-3.252.638-6.594 1.427-7.99 1.756l-.546.128a.51.51 0 0 1-.612-.373Zm16.446-2.346-.006-.003.006.003ZM120.107 147.257a.496.496 0 0 1 .301-.642c7.21-2.618 16.395-5.683 25.342-8.669 6.995-2.334 13.845-4.62 19.493-6.606a.512.512 0 0 1 .651.302.497.497 0 0 1-.307.639c-5.691 2.001-12.55 4.29-19.544 6.623-8.922 2.978-18.065 6.029-25.282 8.648a.51.51 0 0 1-.654-.295Z" clip-rule="evenodd"/><path fill="#9293AB" fill-rule="evenodd" d="M137.21 144.324a.5.5 0 0 1-.38.601l-.534.126c-1.388.327-4.758 1.123-8.034 1.766-1.922.377-3.826.705-5.287.855-.727.074-1.369.107-1.855.074a2.591 2.591 0 0 1-.671-.122c-.182-.065-.445-.202-.552-.495l-.056-.153.046-.156c.102-.34.316-.658.578-.951a7.2 7.2 0 0 1 .985-.883c.766-.583 1.757-1.187 2.828-1.787a119.708 119.708 0 0 1 3.371-1.799c1.131-.592 2.217-1.164 3.137-1.7a.515.515 0 0 1 .698.175.494.494 0 0 1-.178.685c-.943.55-2.05 1.132-3.178 1.722l-.272.142a120.672 120.672 0 0 0-3.073 1.643c-1.059.594-2 1.17-2.708 1.709-.353.27-.637.522-.845.754a2.63 2.63 0 0 0-.169.206c.04.005.083.009.13.012.397.028.968.002 1.678-.071 1.412-.145 3.279-.465 5.193-.841 3.252-.638 6.594-1.427 7.99-1.756l.546-.128a.51.51 0 0 1 .612.372Zm-16.445 2.346.005.004-.005-.004Z" clip-rule="evenodd"/><path fill-rule="evenodd" d="M224.833 104.03a.51.51 0 0 1-.639-.327c-.215-.669-.434-1.34-.653-2.013-.929-2.847-1.869-5.727-2.539-8.674-.268-1.178-.584-2.6-.6-4.018-.017-1.424.266-2.893 1.238-4.138 1.602-2.053 3.918-3.053 6.242-3.835.557-.187 1.112-.362 1.659-.534 1.782-.56 3.488-1.098 4.953-1.979.931-.56 1.443-1.275 1.696-2.08.257-.819.253-1.76.09-2.77-.163-1.008-.479-2.049-.815-3.055l-.281-.825c-.241-.7-.474-1.375-.634-1.968a.5.5 0 0 1 .362-.612.51.51 0 0 1 .623.355c.151.56.366 1.185.602 1.87.096.28.196.57.296.868.34 1.016.677 2.12.853 3.21.176 1.09.198 2.2-.123 3.222-.325 1.037-.994 1.95-2.137 2.638-1.579.95-3.448 1.537-5.254 2.105-.528.165-1.051.33-1.56.501-2.293.772-4.356 1.694-5.764 3.498-.784 1.005-1.042 2.224-1.027 3.518.015 1.299.305 2.623.575 3.81.66 2.9 1.582 5.727 2.509 8.57.221.677.442 1.356.661 2.036a.499.499 0 0 1-.333.627Z" clip-rule="evenodd"/><path fill-rule="evenodd" d="M221.923 105.812a.494.494 0 0 1-.165-.688l.052-.083a12.054 12.054 0 0 1-.406-.724 29.13 29.13 0 0 1-.598-1.238l-.029-.062c-.162-.35-.281-.609-.361-.75-.808-1.425-1.517-2.965-2.209-4.467-.299-.65-.595-1.293-.895-1.916a.51.51 0 0 1 .114-.596c.143-.132.312-.14.345-.142h.002c.101-.006.202.015.258.027.136.03.321.085.524.151.414.136.978.342 1.56.563 1.167.441 2.437.952 2.793 1.1.554.23 1.275.351 2.008.416.555.05 1.083.064 1.526.076l.395.012c.229.009.468.02.63.058.044.01.108.027.174.06.053.025.189.099.266.262a.52.52 0 0 1-.032.505.65.65 0 0 1-.176.182 1.61 1.61 0 0 1-.3.158c-.11.047-.247.098-.409.154l-.2.068a.508.508 0 0 1 .154.201c.054.126.043.241.041.271l-.001.002a1.134 1.134 0 0 1-.053.231c-.084.258-.285.709-.523 1.205-.482 1.004-1.186 2.336-1.616 2.991 0-.001 0-.001 0 0a.233.233 0 0 0-.017.03l-.047.089c-.037.075-.084.17-.137.282-.087.182-.188.399-.292.62l-.069.148c-.126.268-.25.534-.348.732a5.997 5.997 0 0 1-.13.252c-.018.031-.04.07-.065.106-.011.015-.036.05-.072.086-.017.016-.057.054-.117.086a.523.523 0 0 1-.393.045 1.42 1.42 0 0 1-.548-.319 2.508 2.508 0 0 1-.157-.153.515.515 0 0 1-.477-.031Zm1.103-.788.047.056c.066-.137.138-.291.213-.451l-.26.395Zm2.842-5.796-.253.076a.511.511 0 0 1-.636-.332.496.496 0 0 1 .182-.546 16.206 16.206 0 0 1-.336-.027c-.765-.067-1.612-.2-2.313-.491-.346-.144-1.606-.65-2.763-1.088a55.38 55.38 0 0 0-1.056-.39c.156.334.31.669.463 1.003.684 1.484 1.363 2.96 2.15 4.348.102.178.238.474.387.796l.041.089c.171.37.367.791.578 1.197.039.076.079.15.118.223.86-1.293 1.77-2.55 2.674-3.801l.736-1.019a.687.687 0 0 1 .028-.038Z" clip-rule="evenodd"/><path d="M178.473 31.675c-.13 0-.277-.104-.44-.312-.163-.208-.236-.408-.22-.6.016-.256.09-.624.22-1.104.13-.48.277-.968.44-1.464.163-.496.31-.888.44-1.176l.171-.672c.066-.208.106-.344.123-.408.049-.064.122-.232.22-.504a5.79 5.79 0 0 0 .269-.792c.032-.128.097-.368.195-.72.114-.368.245-.792.391-1.272.163-.48.318-.952.465-1.416a53.541 53.541 0 0 0 .636-1.92 2.61 2.61 0 0 0 .293-.552 4.34 4.34 0 0 0 .122-.36.354.354 0 0 0 .171-.24c.017-.112.025-.2.025-.264 0-.08.024-.144.073-.192.065-.048.098-.104.098-.168a.321.321 0 0 0 .122-.216.5.5 0 0 1 .147-.288l.122-.408 1.443-.024c-.033.192-.082.432-.147.72-.065.272-.22.64-.464 1.104-.082.32-.18.608-.294.864-.098.256-.138.424-.122.504-.033.032-.106.192-.22.48-.098.288-.22.64-.367 1.056-.13.416-.269.832-.416 1.248-.13.416-.252.784-.366 1.104a10.66 10.66 0 0 1-.196.576 8.48 8.48 0 0 0-.44 1.128 45.765 45.765 0 0 1-.733 2.016c-.131.256-.294.64-.489 1.152-.18.512-.326.976-.441 1.392a32.222 32.222 0 0 1-.391 1.296c-.065.256-.122.392-.171.408-.049.032-.138.04-.269.024Zm.196-14.304c-.457.016-.799-.008-1.027-.072-.212-.064-.285-.224-.22-.48a.673.673 0 0 1 .318-.432c.163-.096.399-.168.709-.216l.684-.12c.294-.048.571-.096.832-.144.537-.064.978-.12 1.32-.168.358-.048.725-.088 1.1-.12.375-.032.848-.064 1.418-.096.473-.032.872-.056 1.198-.072l.514-.048c.049 0 .22.016.513.048.294.032.611.072.954.12.342.048.595.104.758.168.375.08.644.192.807.336.179.144.301.352.366.624.049.192.049.312 0 .36-.049.032-.138.08-.269.144-.375.112-.652.168-.831.168-.179 0-.383-.04-.611-.12a1.398 1.398 0 0 0-.294-.216c-.097-.064-.277-.112-.538-.144-.244-.048-.635-.088-1.173-.12a11.65 11.65 0 0 1-1.198.072c-.342 0-.514.04-.514.12l-1.442.072-1.198.12c-.163.016-.391.04-.685.072-.293.016-.578.04-.856.072-.277.016-.489.04-.635.072ZM188.966 29.78a2.168 2.168 0 0 1-1.198.503 2.597 2.597 0 0 1-1.296-.192 2.605 2.605 0 0 1-1.051-.864 2.695 2.695 0 0 1-.538-1.2c-.081-.464-.09-1.064-.024-1.8.049-.624.252-1.248.611-1.872.358-.64.79-1.208 1.296-1.704.521-.496 1.035-.84 1.54-1.032.245-.16.448-.232.611-.216.18 0 .449.016.807.048.375.048.652.12.831.216.196.096.351.224.465.384.245.24.408.48.489.72.082.224.122.448.122.672-.065.352-.309.784-.733 1.296-.408.496-.946.904-1.614 1.224-.359.112-.75.16-1.174.144-.423-.016-.774-.12-1.051-.312-.31-.128-.513-.104-.611.072-.098.16-.188.56-.269 1.2-.065.608-.016 1.056.147 1.344.163.272.383.432.66.48.326.064.578.112.758.144.195.016.432-.056.709-.216.261-.16.424-.248.489-.264a.557.557 0 0 0 .146-.096l.318-.312c.114-.112.204-.192.269-.24a.307.307 0 0 1 .22-.096c.082 0 .155.04.22.12a.784.784 0 0 0 .196.144c.163 0 .196.096.098.288-.082.192-.253.424-.514.696-.26.256-.57.496-.929.72Zm-.024-5.089c.179-.08.367-.192.562-.336.196-.16.359-.328.489-.504.147-.192.22-.352.22-.48 0-.224-.106-.408-.318-.552-.212-.16-.529-.184-.953-.072-.18.048-.383.168-.611.36a5.663 5.663 0 0 0-.661.6 10.3 10.3 0 0 0-.489.6c-.114.176-.154.28-.122.312.049.08.188.144.416.192.228.032.481.04.758.024.293-.016.529-.064.709-.144ZM193.079 29.78a1.2 1.2 0 0 1-.318-.337c-.049-.112-.049-.328 0-.648.049-.448.114-.84.195-1.176.082-.352.18-.752.294-1.2.032-.192.122-.52.269-.984.163-.464.358-.968.586-1.512.229-.544.457-1.056.685-1.536.228-.496.424-.864.587-1.104a.656.656 0 0 1 .464-.12.762.762 0 0 1 .489.216c.18.144.204.4.074.768-.114.352-.359.912-.734 1.68-.195.432-.342.76-.44.984-.098.208-.138.336-.122.384.016.032.09.008.22-.072.098-.176.277-.376.538-.6.261-.24.538-.472.831-.696.294-.224.571-.424.831-.6.261-.176.441-.288.538-.336a1.83 1.83 0 0 1 .44-.192c.18-.064.302-.112.367-.144.375-.176.758-.24 1.149-.192.392.048.636.192.734.432a.412.412 0 0 0 .147.288l.146.096c.065 0 .098.024.098.072l.025.072c0 .112-.09.184-.269.216-.163.016-.375.032-.636.048a1.931 1.931 0 0 0-.562.12c-.163.064-.359.144-.587.24-.62.352-1.215.696-1.785 1.032a7.657 7.657 0 0 0-1.614 1.344c-.114.128-.228.28-.342.456-.114.176-.236.368-.367.576-.081.08-.163.256-.244.528-.082.272-.155.536-.22.792-.049.24-.074.384-.074.432l-.073.24a1.461 1.461 0 0 1-.245.432c-.195.256-.358.384-.489.384-.13 0-.326-.128-.586-.384ZM202.916 29.875c-.049.016-.13.008-.244-.024a2.855 2.855 0 0 1-.343-.12.804.804 0 0 1-.22-.12 1.116 1.116 0 0 1-.195-.288c-.049-.128-.049-.312 0-.552.049-.256.212-.584.489-.984.081-.16.179-.4.293-.72.114-.32.228-.656.342-1.008.131-.368.245-.696.343-.984.114-.288.195-.488.244-.6.033-.272.016-.464-.049-.576-.049-.128-.187-.2-.415-.216-.163 0-.294-.016-.392-.048-.081-.032-.122-.192-.122-.48.033-.224.09-.376.171-.456.098-.096.228-.2.391-.312a1.97 1.97 0 0 1 .489-.168c.18-.032.351-.04.514-.024a.626.626 0 0 1 .391.168c.114.064.188.208.22.432.033.208.049.424.049.648.016.224.033.392.049.504.163-.128.383-.304.66-.528.294-.24.546-.464.758-.672.261-.176.571-.352.929-.528.359-.192.62-.288.783-.288.179 0 .358.048.537.144.18.08.302.184.367.312.163.272.237.512.22.72 0 .208-.089.424-.269.648a1.258 1.258 0 0 1-.611.432c-.228.08-.375.12-.44.12-.098 0-.22-.072-.367-.216-.146-.144-.228-.264-.244-.36 0-.048-.106 0-.318.144a6.638 6.638 0 0 0-.66.504 7.385 7.385 0 0 0-.612.528c-.277.336-.57.792-.88 1.368-.309.576-.676 1.272-1.1 2.088-.196.4-.334.744-.416 1.032-.081.272-.195.432-.342.48ZM212.313 29.923c-.13.032-.301.048-.513.048a4.828 4.828 0 0 1-.562-.072c-.147-.048-.22-.096-.22-.144 0-.08-.041-.12-.123-.12l-.122-.096a1.072 1.072 0 0 0-.318-.192 1.296 1.296 0 0 1-.22-.72c0-.272.074-.696.22-1.272.049-.4.204-.864.465-1.392.277-.544.611-1.096 1.002-1.656.391-.56.799-1.064 1.223-1.512.44-.448.839-.776 1.198-.984.228-.224.505-.344.831-.36.326-.016.636.056.929.216.163.08.326.208.489.384.163.176.318.368.465.576.146.208.269.416.367.624.048.176.073.336.073.48.016.128.016.288 0 .48 0 .192-.025.48-.073.864-.082.288-.155.64-.221 1.056a9.629 9.629 0 0 0-.073 1.08c-.032.304 0 .52.098.648.114.128.277.136.489.024.196-.096.383-.136.562-.12.18 0 .318.048.416.144.114.096.171.24.171.432s-.098.392-.293.6a2.52 2.52 0 0 1-.685.504 1.715 1.715 0 0 1-.758.192c-.179 0-.35-.104-.513-.312a4.046 4.046 0 0 1-.44-.792c-.115-.32-.22-.624-.318-.912l-.147-.552-1.051.984c-.212.224-.424.432-.636.624-.196.176-.318.304-.367.384-.081.144-.236.288-.464.432a4.43 4.43 0 0 1-.881.432Zm.074-1.416c.277-.16.595-.392.953-.696.359-.32.709-.664 1.052-1.032.342-.384.627-.736.855-1.056.278-.368.489-.712.636-1.032.147-.32.253-.624.318-.912a2.148 2.148 0 0 0-.318-.552c-.147-.208-.277-.32-.391-.336-.359 0-.742.224-1.149.672-.391.432-.774.904-1.149 1.416-.066.08-.155.208-.269.384-.114.176-.228.344-.343.504l-.195.288c-.049.064-.147.248-.294.552-.13.288-.26.584-.391.888-.13.288-.195.48-.195.576 0 .096.008.2.024.312.033.112.114.184.245.216.13.032.334-.032.611-.192ZM221.442 33.02a1.158 1.158 0 0 1-.366-.193c-.131-.08-.196-.152-.196-.216.016-.112.041-.216.073-.312.033-.08.057-.16.074-.24.032-.16.049-.352.049-.576 0-.208.024-.608.073-1.2l.122-1.608c.049-.432.098-.816.147-1.152.049-.352.106-.704.171-1.056.082-.352.179-.768.293-1.248.082-.544.082-.88 0-1.008-.065-.128-.187-.2-.366-.216a5.57 5.57 0 0 1-.832-.144c-.228-.08-.375-.216-.44-.408-.163-.16-.203-.288-.122-.384.082-.096.245-.168.489-.216.261-.064.538-.088.831-.072.277-.016.489-.032.636-.048a.627.627 0 0 0 .391-.24c.098-.144.196-.384.294-.72.032-.144.089-.344.171-.6.098-.256.179-.488.244-.696l.123-.312a.522.522 0 0 0 .22-.432c.016-.224.122-.52.317-.888.212-.384.546-.92 1.003-1.608.554-.704 1.051-1.256 1.491-1.656.457-.4.986-.648 1.59-.744.065-.032.211-.048.44-.048h.464c.343.016.579.08.709.192.131.112.269.304.416.576.13.208.147.496.049.864-.082.352-.188.624-.318.816a2.592 2.592 0 0 1-.367.432c-.146.16-.293.304-.44.432-.13.112-.228.168-.293.168a.48.48 0 0 1-.245-.072.432.432 0 0 0-.195-.12c-.147-.064-.172-.176-.074-.336.098-.176.204-.344.318-.504.163-.24.269-.432.318-.576a.833.833 0 0 0 .049-.384 2.789 2.789 0 0 0-.098-.408l.22.216a.638.638 0 0 0-.391-.072c-.147.016-.31.056-.489.12-.31.16-.562.336-.758.528a14.92 14.92 0 0 0-.489.456 3.979 3.979 0 0 0-.954 1.224l-.684 1.344c-.065.128-.179.368-.342.72-.147.336-.286.656-.416.96a9.03 9.03 0 0 1-.342.768c-.115.208-.172.336-.172.384-.048.112-.024.168.074.168.114 0 .334-.008.66-.024.799-.096 1.394-.12 1.785-.072.407.032.644.176.709.432.277.384.236.624-.122.72-.343.08-.978.184-1.908.312l-.782.048c-.261 0-.432.008-.513.024a.949.949 0 0 0-.196.072c-.065.032-.139.192-.22.48a6.868 6.868 0 0 1-.098.648c-.032.24-.057.472-.073.696a3.652 3.652 0 0 0-.147.6 1.441 1.441 0 0 1-.147.552c-.097.88-.163 1.696-.195 2.448a24.968 24.968 0 0 1-.147 1.896c-.049.528-.179.936-.391 1.224a1.202 1.202 0 0 1-.367.288c-.114.08-.22.08-.318 0ZM229.633 30.475a1.24 1.24 0 0 1-.513-.048 9.348 9.348 0 0 1-.489-.264c-.359-.272-.628-.544-.807-.816-.163-.288-.236-.568-.22-.84a.754.754 0 0 0 0-.384l-.024-.168c-.098-.08-.131-.128-.098-.144a.305.305 0 0 0 .073-.144c.131-.032.147-.12.049-.264-.049-.128-.024-.416.073-.864.115-.464.261-.896.441-1.296.081-.176.195-.408.342-.696.163-.288.342-.576.538-.864.195-.304.375-.544.538-.72.358-.4.676-.696.953-.888.294-.208.62-.376.978-.504.326-.128.563-.2.709-.216.147-.016.351.08.611.288.392.112.685.272.881.48.212.192.375.496.489.912.13.464.171 1.016.122 1.656-.033.624-.31 1.432-.831 2.424-.31.624-.62 1.096-.929 1.416-.294.32-.652.656-1.076 1.008-.31.256-.595.456-.856.6a3.476 3.476 0 0 1-.954.336Zm1.956-2.856c.326-.48.579-.92.758-1.32.196-.416.351-.936.465-1.56.033-.176.041-.392.024-.648a3.381 3.381 0 0 0-.122-.744c-.049-.224-.122-.344-.22-.36-.212-.08-.448-.08-.709 0-.261.064-.546.256-.856.576a6.82 6.82 0 0 0-.758 1.08c-.212.4-.407.84-.586 1.32-.18.48-.351.992-.514 1.536-.163.608-.155 1.072.025 1.392.195.32.513.4.953.24.44-.176.954-.68 1.54-1.512ZM236.248 29.78a1.2 1.2 0 0 1-.318-.337c-.049-.112-.049-.328 0-.648.049-.448.114-.84.196-1.176.081-.352.179-.752.293-1.2.033-.192.123-.52.269-.984.163-.464.359-.968.587-1.512.228-.544.456-1.056.685-1.536.228-.496.423-.864.586-1.104a.66.66 0 0 1 .465-.12.762.762 0 0 1 .489.216c.179.144.204.4.073.768-.114.352-.358.912-.733 1.68-.196.432-.342.76-.44.984-.098.208-.139.336-.123.384.017.032.09.008.221-.072.097-.176.277-.376.537-.6.261-.24.538-.472.832-.696.293-.224.57-.424.831-.6s.44-.288.538-.336c.13-.08.277-.144.44-.192.179-.064.302-.112.367-.144.375-.176.758-.24 1.149-.192.391.048.636.192.733.432a.42.42 0 0 0 .147.288l.147.096c.065 0 .098.024.098.072l.024.072c0 .112-.09.184-.269.216-.163.016-.375.032-.636.048a1.939 1.939 0 0 0-.562.12c-.163.064-.359.144-.587.24-.619.352-1.214.696-1.785 1.032a7.628 7.628 0 0 0-1.613 1.344c-.114.128-.228.28-.343.456-.114.176-.236.368-.366.576-.082.08-.163.256-.245.528-.081.272-.155.536-.22.792-.049.24-.073.384-.073.432l-.074.24c-.048.144-.13.288-.244.432-.196.256-.359.384-.489.384s-.326-.128-.587-.384ZM245.279 29.731a1.575 1.575 0 0 1-.147-.24.766.766 0 0 1-.049-.24.395.395 0 0 0-.024-.12c0-.048-.033-.072-.098-.072-.049-.048-.016-.232.098-.552.13-.336.293-.72.489-1.152.212-.432.424-.848.635-1.248.229-.416.416-.744.563-.984a.286.286 0 0 0 .146-.192c.033-.096.033-.144 0-.144l.123-.216c.098-.16.171-.264.22-.312.13-.224.228-.448.293-.672.065-.24.082-.44.049-.6-.065-.08-.138-.104-.22-.072l-.122.048a3.112 3.112 0 0 0-.294.096c-.114.032-.22.08-.317.144-.375.256-.628.376-.758.36-.131-.032-.278-.24-.441-.624-.065-.176-.089-.304-.073-.384.016-.08.082-.168.196-.264a.993.993 0 0 1 .366-.216c.115-.048.204-.096.269-.144a3.29 3.29 0 0 1 .441-.24c.13-.048.228-.08.293-.096.424-.128.782-.152 1.076-.072.293.08.513.288.66.624.228.272.342.584.342.936 0 .336-.114.728-.342 1.176l-.245.36c-.081.16-.097.24-.049.24.066 0 .139-.056.221-.168.048-.064.146-.16.293-.288.147-.128.244-.192.293-.192l.049-.024c.049-.016.074-.08.074-.192l.146-.144.098-.072c.065 0 .188-.072.367-.216.195-.16.424-.344.684-.552.18-.128.343-.192.489-.192.375-.112.677.008.905.36.245.352.367.808.367 1.368l-.514 1.296.881-1.056a3.04 3.04 0 0 1 .293-.336c.114-.096.212-.176.293-.24.033-.112.082-.176.147-.192l.098-.024h.049c.032-.016.049-.048.049-.096a1.49 1.49 0 0 1 .269-.168.547.547 0 0 0 .195-.192c.277-.112.53-.128.758-.048.228.064.424.264.587.6.114.192.179.36.196.504.016.144.024.36.024.648-.033.24-.065.432-.098.576l-.049.408c-.016.144-.04.344-.073.6a1.183 1.183 0 0 0-.122.408v.408c0 .208.008.352.024.432.016.064.082.096.196.096.228-.048.538-.16.929-.336.407-.192.709-.376.905-.552.244-.224.456-.336.635-.336.196-.016.318.072.367.264.033.064-.024.208-.171.432-.131.224-.285.44-.465.648-.163.208-.285.312-.366.312-.049 0-.106.048-.172.144a.812.812 0 0 1-.22.192 6.044 6.044 0 0 1-.342.312.474.474 0 0 1-.342.144.588.588 0 0 0-.245.072.8.8 0 0 1-.293.048c-.163.048-.416.024-.758-.072-.326-.096-.538-.32-.636-.672-.065-.176-.122-.456-.171-.84-.049-.4-.041-.8.024-1.2a5.21 5.21 0 0 0 .123-.792c.016-.24.049-.408.098-.504V25.1c0-.192-.025-.288-.074-.288-.065 0-.22.12-.464.36-.229.224-.506.512-.832.864-.309.352-.619.72-.929 1.104-.309.384-.562.728-.758 1.032a2.784 2.784 0 0 0-.391.648c-.114.256-.196.4-.244.432-.115.128-.253.144-.416.048a1.46 1.46 0 0 1-.416-.456 1.263 1.263 0 0 1-.098-.24 1.007 1.007 0 0 1 0-.312c.033-.144.09-.352.172-.624.097-.272.228-.656.391-1.152.179-.544.334-1.032.464-1.464l.22-.672c0-.064-.122 0-.366.192-.245.176-.53.4-.856.672-.147.176-.391.44-.734.792-.342.352-.717.752-1.124 1.2-.408.448-.799.92-1.174 1.416-.473.656-.807 1.056-1.002 1.2-.18.144-.359.104-.538-.12ZM178.449 56.963a25.72 25.72 0 0 1-.758-.312 2.508 2.508 0 0 1-.709-.504c-.212-.208-.4-.504-.563-.888a7.282 7.282 0 0 1-.342-1.368c-.049-.448-.065-.968-.049-1.56 0-.832.057-1.552.171-2.16a11.01 11.01 0 0 1 .587-1.896c.033-.048.09-.184.171-.408.098-.24.204-.496.318-.768.13-.272.228-.48.293-.624.131-.272.326-.632.587-1.08.277-.464.571-.912.88-1.344.473-.688.864-1.232 1.174-1.632.31-.4.603-.736.88-1.008s.587-.528.929-.768c.359-.256.815-.568 1.37-.936a2.116 2.116 0 0 1 1.173-.408c.44-.016.848.08 1.223.288.375.192.652.48.831.864.179.336.269.744.269 1.224 0 .464-.073.96-.22 1.488-.147.512-.351 1-.611 1.464a4.425 4.425 0 0 1-.905 1.152c-.212.192-.408.264-.587.216-.163-.048-.358-.176-.587-.384a5.852 5.852 0 0 1-.244-.48c0-.048.032-.08.098-.096.097-.112.228-.304.391-.576.163-.272.326-.56.489-.864.163-.32.277-.576.342-.768.131-.672.22-1.144.269-1.416.049-.288 0-.504-.147-.648-.065-.064-.163-.088-.293-.072-.114.016-.31.096-.587.24-.375.16-.864.52-1.467 1.08a12.823 12.823 0 0 0-1.662 1.824 44.56 44.56 0 0 0-1.639 2.256 8.312 8.312 0 0 0-1.002 2.016c-.033.064-.09.184-.171.36l-.098.264c.016.064-.008.224-.073.48-.065.24-.139.448-.22.624-.18.736-.286 1.504-.318 2.304-.033.784.008 1.48.122 2.088.13.608.318 1.032.562 1.272.212.144.498.192.856.144.375-.048.799-.16 1.272-.336a34.33 34.33 0 0 0 1.442-.576c.391-.16.75-.336 1.076-.528.326-.192.57-.36.733-.504.131-.096.294-.192.489-.288.212-.112.392-.168.538-.168.229-.08.359-.112.392-.096.032.016.048.088.048.216 0 .224-.13.472-.391.744-.244.272-.562.52-.953.744a3.775 3.775 0 0 1-.514.408 2.855 2.855 0 0 1-.66.336 7.503 7.503 0 0 1-1.271.744 8.078 8.078 0 0 1-1.541.552c-.505.128-.97.152-1.393.072ZM188.047 55.62c-.31.08-.562.015-.758-.193-.179-.208-.285-.528-.318-.96-.033-.432.016-.944.147-1.536.081-.192.146-.376.195-.552.049-.192.074-.344.074-.456.032-.16.098-.392.195-.696.098-.32.204-.648.318-.984.114-.336.22-.632.318-.888.114-.272.187-.44.22-.504.065 0 .122-.056.171-.168a.833.833 0 0 0 .074-.336c0-.128.024-.272.073-.432.065-.16.13-.272.196-.336a.84.84 0 0 1 .048-.264.72.72 0 0 0 .074-.264c0-.064.016-.128.049-.192a.314.314 0 0 0 .073-.192 9.74 9.74 0 0 0 .44-.984c.196-.464.399-.976.611-1.536a41.84 41.84 0 0 0 1.101-3.024c.13-.384.195-.616.195-.696 0-.128.033-.224.098-.288.065-.064.163-.096.293-.096a.364.364 0 0 1 .172-.096c.081-.016.154-.024.22-.024l.097.096.294.288c.13.112.204.24.22.384.032.144.049.312.049.504 0 .208-.025.392-.074.552-.048.16-.146.392-.293.696l-.685 1.416c-.13.32-.269.624-.415.912-.147.272-.22.44-.22.504s-.033.16-.098.288c-.049.128-.106.288-.171.48-.065.128-.155.32-.269.576-.114.24-.237.504-.367.792-.114.272-.212.512-.293.72-.082.192-.123.304-.123.336a.789.789 0 0 1-.024.192c0 .064-.033.128-.098.192-.065 0-.106.048-.122.144v.12c0 .16-.13.584-.391 1.272-.261.88-.506 1.688-.734 2.424-.212.736-.318 1.328-.318 1.776a7.7 7.7 0 0 1-.024.768c-.016.112-.09.2-.22.264ZM193.131 55.26c-.212 0-.383-.04-.513-.12a8.817 8.817 0 0 1-.44-.337c-.31-.32-.53-.624-.661-.912-.13-.304-.171-.592-.122-.864a.717.717 0 0 0 .049-.36v-.192c-.081-.08-.106-.128-.073-.144a.584.584 0 0 0 .098-.144c.097 0 .13-.088.097-.264-.032-.128.033-.408.196-.84a6.66 6.66 0 0 1 .611-1.224c.098-.16.245-.368.44-.624.196-.272.408-.536.636-.792a6.21 6.21 0 0 1 .66-.648c.408-.336.766-.584 1.076-.744.31-.16.644-.28 1.002-.36.359-.08.603-.12.734-.12.147 0 .342.128.587.384.375.16.644.352.807.576.179.224.293.552.342.984.049.48.008 1.032-.122 1.656-.115.608-.498 1.368-1.15 2.28-.407.576-.782 1.008-1.124 1.296a9.97 9.97 0 0 1-1.223.816 5.5 5.5 0 0 1-.929.504c-.277.096-.603.16-.978.192Zm2.347-2.545a7.73 7.73 0 0 0 .929-1.224c.245-.384.473-.872.685-1.464a2.3 2.3 0 0 0 .122-.648c.017-.272.008-.52-.024-.744-.016-.24-.074-.376-.171-.408-.196-.112-.432-.144-.709-.096-.277.032-.579.184-.905.456a5.998 5.998 0 0 0-1.32 1.56 19.273 19.273 0 0 0-1.101 2.088c-.244.576-.301 1.04-.171 1.392.147.336.449.456.905.36.473-.112 1.059-.536 1.76-1.272ZM205.809 55.571c-.114.064-.269.04-.464-.072a2.218 2.218 0 0 1-.538-.504 2.088 2.088 0 0 1-.245-.624 7.016 7.016 0 0 1-.048-.936c.016-.32 0-.528-.049-.624-.033-.096-.123-.08-.269.048-.147.112-.4.344-.758.696-.408.4-.799.712-1.174.936-.358.224-.652.328-.88.312-.114 0-.245-.056-.391-.168a2.64 2.64 0 0 1-.367-.456 4.737 4.737 0 0 1-.293-.576c-.098-.352-.115-.8-.049-1.344.081-.56.212-1.144.391-1.752.179-.608.383-1.184.611-1.728.245-.544.489-.984.734-1.32.26-.336.489-.504.684-.504.131 0 .245.064.343.192.114.128.228.328.342.6.065.112.089.208.073.288 0 .08-.065.176-.195.288a5.9 5.9 0 0 0-.514.864c-.179.384-.358.8-.538 1.248-.163.448-.309.88-.44 1.296-.13.416-.22.76-.269 1.032-.049.256-.041.384.025.384.228 0 .497-.088.806-.264.326-.192.636-.424.93-.696.342-.336.643-.704.904-1.104.277-.4.554-.824.832-1.272.211-.32.431-.672.66-1.056.244-.384.399-.656.464-.816.228-.416.4-.696.514-.84a.776.776 0 0 1 .415-.312H207.399c.097.016.212.088.342.216.13.064.204.128.22.192a.624.624 0 0 1 .024.192c-.065.16-.171.4-.317.72-.131.304-.229.528-.294.672-.31.688-.619 1.368-.929 2.04a9.106 9.106 0 0 0-.636 2.016c-.032.224-.04.488-.024.792.033.288.081.496.147.624l.171.336c.081.112.171.208.269.288.146.096.171.2.073.312a1.014 1.014 0 0 1-.342.288c-.147.064-.245.096-.294.096ZM215.372 55.38c-.065 0-.163-.009-.293-.025a.546.546 0 0 1-.294-.216c-.244-.288-.399-.528-.464-.72-.065-.192-.073-.472-.025-.84.033-.24.049-.448.049-.624.017-.192.033-.352.049-.48-.065-.064-.187-.016-.367.144-.163.144-.391.328-.684.552-.554.624-1.051 1.104-1.492 1.44-.423.32-.806.536-1.149.648-.342.096-.668.128-.978.096a.977.977 0 0 1-.66-.336 1.669 1.669 0 0 1-.318-.792 5.552 5.552 0 0 1 0-1.032c.065-.528.18-1.032.343-1.512.179-.48.464-1.016.855-1.608.18-.32.416-.632.709-.936.31-.32.644-.6 1.003-.84.375-.256.733-.44 1.076-.552a3.596 3.596 0 0 1 1.149-.24c.391-.032.741 0 1.051.096.196.096.351.144.465.144.13 0 .228-.08.293-.24.082-.128.163-.32.245-.576.081-.272.179-.504.293-.696l.538-1.56c.179-.432.375-.888.587-1.368.212-.48.464-1.064.758-1.752.277-.512.505-.808.684-.888.18-.096.383-.032.611.192.18.208.245.448.196.72-.049.256-.196.672-.44 1.248a5.525 5.525 0 0 0-.293.504 9.963 9.963 0 0 0-.343.696c-.212.496-.407.944-.587 1.344-.179.384-.366.824-.562 1.32-.065.256-.155.552-.269.888-.098.336-.179.64-.244.912a7.948 7.948 0 0 1-.171.72c-.049.208-.106.312-.172.312-.13.144-.252.4-.366.768-.114.352-.212.72-.294 1.104a46.88 46.88 0 0 1-.171.96c-.033.192-.057.44-.073.744-.017.304-.025.6-.025.888v.576c0 .352-.008.576-.024.672-.016.096-.082.144-.196.144Zm-5.208-1.513c.343 0 .701-.144 1.076-.432.391-.288.783-.608 1.174-.96.244-.224.505-.52.782-.888.294-.368.571-.736.831-1.104.278-.368.498-.688.661-.96.163-.288.244-.464.244-.528 0-.08-.073-.136-.22-.168a2.432 2.432 0 0 0-.513-.048 1.252 1.252 0 0 0-.44.024 3.18 3.18 0 0 0-1.076.48c-.343.24-.717.6-1.125 1.08a8.615 8.615 0 0 0-1.051 1.584c-.261.544-.424 1-.489 1.368-.066.368-.017.552.146.552ZM225.856 56.22c-.082 0-.18-.04-.294-.12a1.215 1.215 0 0 1-.318-.265.604.604 0 0 1-.122-.36l-.024-.144a.665.665 0 0 0-.098-.336v-.432c.016-.176.057-.352.122-.528 0-.176.024-.368.073-.576.049-.224.106-.392.172-.504 0-.176.04-.4.122-.672.098-.288.179-.552.244-.792l.391-1.152c.098-.24.163-.416.196-.528.033-.128.049-.256.049-.384.049-.128.122-.36.22-.696.098-.336.196-.68.293-1.032a8.89 8.89 0 0 0 .22-.792c.066-.064.098-.12.098-.168a.744.744 0 0 0 .025-.192l.171-.552c.114-.368.261-.792.44-1.272.293-.848.489-1.464.587-1.848.114-.384.163-.656.146-.816 0-.16-.04-.32-.122-.48-.114-.208-.114-.368 0-.48a1.13 1.13 0 0 0 .171-.216l.074-.144c0-.032.106-.088.318-.168.211-.08.472-.168.782-.264.31-.112.619-.216.929-.312l.807-.24h1.002c.424.064.856.184 1.296.36.457.176.84.424 1.149.744.196.176.367.384.514.624.163.24.367.632.611 1.176 0 .064.016.2.049.408.049.192.073.384.073.576 0 .48-.122.984-.366 1.512a7.311 7.311 0 0 1-1.052 1.608 12.992 12.992 0 0 1-1.662 1.584c-.685.544-1.394.912-2.128 1.104-.733.192-1.385.232-1.956.12a.75.75 0 0 1-.317-.288 1.59 1.59 0 0 1-.172-.432c-.032-.144-.024-.24.025-.288.13-.032.326-.04.587-.024.261 0 .676-.104 1.247-.312.179-.064.366-.136.562-.216.196-.096.35-.176.465-.24a11.5 11.5 0 0 0 1.124-.84c.424-.352.815-.808 1.174-1.368.147-.224.293-.488.44-.792a7.7 7.7 0 0 0 .367-.96c.114-.32.171-.584.171-.792.13-.416.049-.76-.245-1.032-.277-.288-.725-.464-1.344-.528-.196-.048-.498-.032-.905.048a8.935 8.935 0 0 0-1.174.264c-.375.112-.627.208-.758.288-.065 0-.106.048-.122.144a1.207 1.207 0 0 1-.122.336c0 .112-.049.352-.147.72a7.87 7.87 0 0 1-.342.984 26.5 26.5 0 0 1-.416 1.176c-.163.416-.277.744-.342.984a5.633 5.633 0 0 1-.245.744l-.122.36c0 .064-.049.2-.146.408a6.62 6.62 0 0 0-.221.672c-.065.304-.154.648-.268 1.032a6.968 6.968 0 0 1-.343 1.032 23.7 23.7 0 0 0-.464 1.776c-.131.576-.139.952-.025 1.128.18 0 .245.144.196.432-.049.272-.196.648-.44 1.128-.163.4-.286.672-.367.816-.082.16-.155.248-.22.264a1.324 1.324 0 0 1-.293.024ZM237.149 55.067c-.081.16-.203.208-.366.144a2.506 2.506 0 0 1-.367-.192.464.464 0 0 1-.294-.096.517.517 0 0 1-.171-.288.76.76 0 0 1-.024-.336 3.08 3.08 0 0 1 .098-.48c.065-.192.13-.4.195-.624.131-.528.22-.912.269-1.152.049-.24.098-.448.147-.624.049-.176.114-.432.195-.768.131-.32.237-.632.318-.936.082-.304.204-.608.367-.912.114-.416.253-.808.416-1.176.179-.384.35-.704.513-.96.033-.048.09-.112.171-.192.098-.08.18-.12.245-.12.13-.128.244-.176.342-.144.114.016.253.088.416.216a.797.797 0 0 1 .22.72c-.033.272-.228.672-.587 1.2-.196.496-.375.928-.538 1.296a4.584 4.584 0 0 0-.342 1.008 4.93 4.93 0 0 1 .587-.696l.562-.552c.359-.352.652-.608.88-.768.245-.16.53-.344.856-.552a7.62 7.62 0 0 1 .562-.336c.18-.112.375-.192.587-.24.228-.048.473-.048.734 0a.432.432 0 0 1 .391.144c.114.112.204.264.269.456.065.192.106.416.122.672-.375-.08-.709-.064-1.002.048a2.98 2.98 0 0 0-.758.36c-.196.144-.351.256-.465.336-.244.16-.554.376-.929.648-.375.256-.75.568-1.125.936-.293.32-.546.592-.758.816a10.3 10.3 0 0 0-.489.6c-.114.176-.203.36-.269.552-.163.368-.334.768-.513 1.2-.179.432-.334.696-.465.792ZM247.207 55.475c-.212.016-.383 0-.514-.048a9.348 9.348 0 0 1-.489-.264c-.358-.272-.627-.544-.806-.816-.163-.288-.237-.568-.22-.84a.777.777 0 0 0 0-.384l-.025-.168c-.098-.08-.13-.128-.098-.144a.305.305 0 0 0 .074-.144c.13-.032.146-.12.049-.264-.049-.128-.025-.416.073-.864.114-.464.261-.896.44-1.296.081-.176.196-.408.342-.696.163-.288.343-.576.538-.864a5.32 5.32 0 0 1 .538-.72c.359-.4.677-.696.954-.888a4 4 0 0 1 .978-.504c.326-.128.562-.2.709-.216.146-.016.35.08.611.288.391.112.685.272.88.48.212.192.375.496.489.912.131.464.171 1.016.122 1.656-.032.624-.309 1.432-.831 2.424-.31.624-.619 1.096-.929 1.416-.293.32-.652.656-1.076 1.008-.31.256-.595.456-.856.6-.26.144-.578.256-.953.336Zm1.956-2.856c.326-.48.579-.92.758-1.32.195-.416.35-.936.464-1.56.033-.176.041-.392.025-.648a3.381 3.381 0 0 0-.122-.744c-.049-.224-.123-.344-.22-.36-.212-.08-.449-.08-.71 0-.26.064-.546.256-.855.576-.277.32-.53.68-.758 1.08-.212.4-.408.84-.587 1.32-.179.48-.35.992-.513 1.536-.163.608-.155 1.072.024 1.392.196.32.513.4.954.24.44-.176.953-.68 1.54-1.512ZM255.386 54.155c-.114-.096-.26-.384-.44-.864-.163-.48-.326-1.04-.489-1.68a43.66 43.66 0 0 1-.366-1.8 5.848 5.848 0 0 0-.221-.816 13.123 13.123 0 0 0-.171-.552c-.081-.288-.106-.528-.073-.72.033-.192.147-.344.342-.456a.796.796 0 0 1 .294-.096.665.665 0 0 1 .293-.024c.196.064.375.36.538.888.163.512.31 1.192.44 2.04.065.496.147.92.245 1.272.097.352.146.56.146.624.065.128.139.256.22.384.098.112.212.104.343-.024.065-.064.195-.208.391-.432.212-.224.415-.464.611-.72.342-.448.611-.816.807-1.104.212-.288.448-.592.709-.912.114-.16.244-.336.391-.528.147-.192.294-.368.44-.528.163-.176.31-.28.44-.312.392-.064.603.016.636.24.033.224-.114.56-.44 1.008-.13.192-.236.376-.318.552-.065.16-.13.272-.195.336a9.193 9.193 0 0 1-.612.984c-.277.384-.546.744-.807 1.08-.26.32-.44.528-.537.624a6.178 6.178 0 0 1-.441.36c-.211.176-.415.4-.611.672-.391.368-.701.592-.929.672-.228.08-.44.024-.636-.168ZM261.959 54.851a1.203 1.203 0 0 1-.293-.48c-.049-.192-.066-.384-.049-.576.016-.192.057-.352.122-.48 0-.128.016-.224.049-.288.049-.08.065-.152.049-.216-.017-.064 0-.176.049-.336.049-.16.097-.312.146-.456.114-.256.237-.56.367-.912.131-.368.253-.728.367-1.08.114-.352.212-.656.293-.912.082-.256.131-.416.147-.48 0-.192.13-.296.391-.312.196-.064.342-.064.44 0 .098.048.228.2.391.456.131.128.18.32.147.576-.032.256-.138.576-.318.96a7.878 7.878 0 0 0-.244.552c-.082.24-.139.456-.171.648a7.36 7.36 0 0 0-.245.552c-.081.224-.155.44-.22.648-.032.08-.065.2-.098.36a9.489 9.489 0 0 1-.122.48 1.74 1.74 0 0 1-.196.432c-.146.656-.285 1.04-.415 1.152-.114.112-.31.016-.587-.288Zm2.372-9.744a1.093 1.093 0 0 1-.22-.336 1.75 1.75 0 0 1-.123-.432c-.016-.144 0-.216.049-.216.131-.016.286-.152.465-.408.179-.256.252-.48.22-.672 0-.064.024-.12.073-.168a.308.308 0 0 1 .171-.12c.196-.128.383-.144.563-.048.195.08.375.248.538.504.146.304.187.56.122.768-.065.192-.245.464-.538.816-.245.32-.473.496-.685.528-.195.032-.407-.04-.635-.216ZM272.51 55.38c-.065 0-.163-.009-.294-.025a.54.54 0 0 1-.293-.216c-.245-.288-.399-.528-.465-.72-.065-.192-.073-.472-.024-.84.033-.24.049-.448.049-.624.016-.192.032-.352.049-.48-.065-.064-.188-.016-.367.144-.163.144-.391.328-.685.552-.554.624-1.051 1.104-1.491 1.44-.424.32-.807.536-1.149.648a2.61 2.61 0 0 1-.978.096.977.977 0 0 1-.66-.336 1.669 1.669 0 0 1-.318-.792 5.385 5.385 0 0 1 0-1.032 7.563 7.563 0 0 1 .342-1.512c.179-.48.465-1.016.856-1.608.179-.32.416-.632.709-.936.31-.32.644-.6 1.002-.84.375-.256.734-.44 1.076-.552a3.596 3.596 0 0 1 1.149-.24c.392-.032.742 0 1.052.096.195.096.35.144.464.144.131 0 .228-.08.294-.24a2.57 2.57 0 0 0 .244-.576c.082-.272.179-.504.294-.696l.537-1.56c.18-.432.375-.888.587-1.368.212-.48.465-1.064.758-1.752.277-.512.505-.808.685-.888.179-.096.383-.032.611.192a.828.828 0 0 1 .196.72c-.049.256-.196.672-.44 1.248a5.547 5.547 0 0 0-.294.504c-.081.144-.195.376-.342.696-.212.496-.408.944-.587 1.344-.179.384-.367.824-.562 1.32-.066.256-.155.552-.269.888-.098.336-.18.64-.245.912a7.948 7.948 0 0 1-.171.72c-.049.208-.106.312-.171.312-.13.144-.253.4-.367.768-.114.352-.212.72-.293 1.104a46.88 46.88 0 0 1-.171.96c-.033.192-.057.44-.074.744-.016.304-.024.6-.024.888v.576c0 .352-.008.576-.025.672-.016.096-.081.144-.195.144Zm-5.208-1.513c.342 0 .701-.144 1.076-.432.391-.288.782-.608 1.173-.96.245-.224.506-.52.783-.888.293-.368.57-.736.831-1.104.277-.368.497-.688.66-.96.163-.288.245-.464.245-.528 0-.08-.074-.136-.22-.168a2.435 2.435 0 0 0-.514-.048 1.253 1.253 0 0 0-.44.024c-.359.08-.717.24-1.076.48-.342.24-.717.6-1.124 1.08a8.622 8.622 0 0 0-1.052 1.584c-.261.544-.424 1-.489 1.368-.065.368-.016.552.147.552ZM278.196 55.691c-.717 0-1.304-.264-1.76-.792-.457-.544-.677-1.216-.66-2.016a8.038 8.038 0 0 1 .342-1.848c.212-.672.489-1.312.831-1.92a9.142 9.142 0 0 1 1.125-1.632c.408-.464.831-.792 1.271-.984.163-.08.335-.144.514-.192a2.45 2.45 0 0 1 .587-.072c.179 0 .366.032.562.096.196.048.359.104.489.168.277.112.489.248.636.408.146.16.277.408.391.744.049.304.073.52.073.648s-.04.32-.122.576a5.36 5.36 0 0 1-.758 1.488c-.31.416-.725.768-1.247 1.056-.13.08-.285.144-.464.192a2.777 2.777 0 0 1-1.467-.12 1.722 1.722 0 0 1-.709-.552l-.172-.192-.073.192c-.163.432-.293.832-.391 1.2a4.662 4.662 0 0 0-.122 1.008c0 .192.016.376.049.552.048.176.114.328.195.456a.587.587 0 0 0 .318.216c.163.032.334.048.513.048h.343a1.37 1.37 0 0 0 .366-.096c.278-.096.498-.2.661-.312.179-.112.358-.232.538-.36l.097-.048h-.024a4.8 4.8 0 0 0 .513-.288l.245-.144c.065 0 .13-.04.195-.12.131-.064.294-.04.489.072.212.112.318.256.318.432-.016.08-.089.208-.22.384-.13.16-.277.312-.44.456-.147.144-.269.224-.367.24a.934.934 0 0 1-.171.096.524.524 0 0 0-.195.096h.024c-.147.192-.293.288-.44.288h-.196c-.065.112-.277.24-.635.384a3.119 3.119 0 0 1-1.052.192Zm1.101-5.28c.293 0 .546-.08.758-.24.228-.176.423-.368.586-.576.326-.432.514-.848.563-1.248.065-.416.016-.704-.147-.864a.617.617 0 0 0-.269-.072c-.065-.016-.204.008-.416.072-.146.032-.35.152-.611.36s-.521.44-.782.696a7.217 7.217 0 0 0-.563.648l-.317.504a1.06 1.06 0 0 1 .366-.072c.131-.016.204-.008.22.024 0 .144.025.28.074.408.065.112.138.2.22.264a.568.568 0 0 0 .318.096ZM285.023 55.067c-.082.16-.204.208-.367.144a2.506 2.506 0 0 1-.367-.192.459.459 0 0 1-.293-.096.506.506 0 0 1-.171-.288.745.745 0 0 1-.025-.336 3.08 3.08 0 0 1 .098-.48c.065-.192.13-.4.196-.624.13-.528.22-.912.268-1.152.049-.24.098-.448.147-.624.049-.176.114-.432.196-.768.13-.32.236-.632.318-.936.081-.304.203-.608.366-.912.114-.416.253-.808.416-1.176.179-.384.35-.704.513-.96.033-.048.09-.112.172-.192.097-.08.179-.12.244-.12.131-.128.245-.176.342-.144.115.016.253.088.416.216a.794.794 0 0 1 .22.72c-.032.272-.228.672-.587 1.2-.195.496-.375.928-.538 1.296a4.584 4.584 0 0 0-.342 1.008 4.93 4.93 0 0 1 .587-.696l.562-.552c.359-.352.652-.608.88-.768.245-.16.53-.344.856-.552.196-.128.383-.24.563-.336.179-.112.374-.192.586-.24.229-.048.473-.048.734 0a.432.432 0 0 1 .391.144c.114.112.204.264.269.456.065.192.106.416.122.672-.375-.08-.709-.064-1.002.048a2.997 2.997 0 0 0-.758.36c-.196.144-.351.256-.465.336-.244.16-.554.376-.929.648a8.23 8.23 0 0 0-1.124.936c-.294.32-.547.592-.758.816a9.532 9.532 0 0 0-.489.6c-.115.176-.204.36-.269.552-.163.368-.335.768-.514 1.2-.179.432-.334.696-.464.792Z"/><path fill-rule="evenodd" d="M81.86 128.132a.516.516 0 0 1-.719.031c-.527-.475-1.058-.948-1.59-1.423-2.255-2.01-4.536-4.043-6.618-6.266-.832-.889-1.83-1.965-2.566-3.185-.74-1.225-1.243-2.636-1.036-4.191.342-2.564 1.838-4.567 3.452-6.385.387-.436.779-.859 1.165-1.277 1.258-1.36 2.462-2.663 3.282-4.145.52-.942.6-1.813.409-2.633-.195-.836-.678-1.65-1.333-2.444-.655-.793-1.458-1.54-2.262-2.245-.221-.194-.444-.387-.664-.576-.566-.489-1.11-.96-1.551-1.394a.494.494 0 0 1 .001-.707.516.516 0 0 1 .72.001c.416.41.921.846 1.475 1.325.226.194.46.396.698.606.812.713 1.666 1.503 2.374 2.36.707.858 1.292 1.81 1.535 2.851.246 1.058.132 2.177-.507 3.333-.884 1.599-2.203 3.025-3.478 4.402a78.75 78.75 0 0 0-1.096 1.2c-1.592 1.793-2.91 3.605-3.21 5.858-.167 1.255.23 2.438.902 3.551.675 1.117 1.6 2.122 2.44 3.018 2.048 2.187 4.286 4.182 6.538 6.19.536.478 1.073.957 1.609 1.439a.493.493 0 0 1 .03.706Z" clip-rule="evenodd"/><path fill-rule="evenodd" d="M80.249 131.104a.504.504 0 0 1-.494-.516l.003-.097a12.035 12.035 0 0 1-.72-.428 30.755 30.755 0 0 1-1.148-.778l-.057-.04c-.319-.224-.554-.39-.695-.472-1.426-.838-2.824-1.823-4.189-2.785-.59-.416-1.174-.827-1.75-1.22a.526.526 0 0 1-.175-.2.501.501 0 0 1-.03-.372c.056-.184.198-.274.226-.292l.002-.001a.973.973 0 0 1 .236-.103 5.58 5.58 0 0 1 .531-.126 39.93 39.93 0 0 1 1.638-.279c1.236-.19 2.596-.372 2.98-.418.597-.073 1.283-.322 1.95-.625.506-.23.971-.476 1.361-.683.124-.066.24-.128.348-.183.203-.106.416-.213.575-.26a.836.836 0 0 1 .18-.034.578.578 0 0 1 .365.097.529.529 0 0 1 .23.453.635.635 0 0 1-.06.244 1.566 1.566 0 0 1-.18.284 6.344 6.344 0 0 1-.276.334c-.042.05-.088.102-.138.157.103.016.184.06.237.099.11.082.16.188.172.215v.001c.037.078.06.166.073.227.058.264.114.753.16 1.3.094 1.106.163 2.605.124 3.383v.035l.006.1c.005.083.014.189.024.311a88.684 88.684 0 0 0 .079.842c.028.294.055.586.071.805.008.108.014.207.016.283.001.035.001.08-.002.123a.52.52 0 0 1-.075.242.513.513 0 0 1-.318.231 1.456 1.456 0 0 1-.638-.007 2.476 2.476 0 0 1-.213-.055.514.514 0 0 1-.43.208Zm.553-1.225.07.026-.045-.496c-.01.157-.017.313-.025.47Zm-.49-6.414-.18.19a.515.515 0 0 1-.72.024.493.493 0 0 1-.122-.562c-.1.048-.201.096-.304.142-.697.317-1.498.618-2.254.71-.372.046-1.722.225-2.947.414-.4.061-.782.123-1.112.181.305.213.608.427.911.64 1.348.95 2.689 1.895 4.077 2.711.179.105.448.294.74.5l.082.057a29.901 29.901 0 0 0 1.326.888c.086-1.542.233-3.078.38-4.605l.117-1.243.005-.047Z" clip-rule="evenodd"/><path d="m32.34 50.611-.074-.048a1.718 1.718 0 0 0-.196-.048 1.047 1.047 0 0 0-.244-.024.815.815 0 0 1-.563-.432.924.924 0 0 1-.073-.696c.065-.064.114-.2.147-.408a3.41 3.41 0 0 0 .049-.504 2.47 2.47 0 0 0 .122-.264l.122-.48c.05-.272.13-.648.245-1.128l.415-1.584c.163-.56.318-1.096.465-1.608.147-.512.277-.944.391-1.296.13-.352.22-.552.27-.6v-.264l.024-.216a1.5 1.5 0 0 1 .244-.528c.065-.176.122-.368.171-.576.05-.208.074-.344.074-.408.065-.08.154-.272.268-.576.13-.32.253-.632.367-.936.098-.256.204-.528.318-.816.13-.288.236-.536.318-.744l.147-.312v-.12c.065-.064.22-.384.464-.96a93.78 93.78 0 0 1 1.052-2.28c.065-.128.146-.272.244-.432.098-.16.147-.272.147-.336a.336.336 0 0 1 .342-.168c.147 0 .294.048.44.144a.9.9 0 0 1 .367.408l.244.384-.88 1.728c-.26.448-.48.856-.66 1.224-.163.368-.244.584-.244.648l-.147.384c-.098.256-.212.56-.342.912-.13.352-.245.672-.343.96-.179.496-.35.904-.513 1.224-.147.32-.22.512-.22.576 0-.032.18-.056.538-.072.358-.016.815-.024 1.369-.024h1.687c.587-.016 1.1-.024 1.54-.024.457-.016.766-.04.93-.072l1.27-.12.832-2.472c.13-.448.302-.992.514-1.632.211-.64.399-1.184.562-1.632.26-.736.464-1.192.611-1.368.147-.176.318-.264.514-.264.049 0 .114.016.195.048a.582.582 0 0 1 .27.12c.097.048.162.12.195.216.195.176.285.376.269.6 0 .224-.13.52-.392.888-.26.432-.48.904-.66 1.416-.163.496-.31.904-.44 1.224 0 .192-.024.352-.073.48a.832.832 0 0 1-.171.264c-.033.032-.098.152-.196.36s-.187.416-.269.624c-.081.208-.122.336-.122.384 0 .112-.025.248-.073.408-.05.16-.106.272-.172.336-.032.096-.106.336-.22.72-.114.384-.244.84-.39 1.368a41.126 41.126 0 0 1-.465 1.512c-.163.48-.31.88-.44 1.2 0 .112-.041.256-.123.432a.97.97 0 0 0-.122.432l-.244.72c-.098.288-.147.472-.147.552-.082.368-.171.744-.27 1.128-.08.384-.154.712-.22.984a5.437 5.437 0 0 0-.072.504c-.066.064-.163.072-.294.024l-.465-.168c-.31-.176-.497-.368-.562-.576-.049-.192.017-.472.196-.84.081-.128.18-.44.293-.936.13-.512.261-1.016.391-1.512.098-.24.204-.56.318-.96l.343-1.248c.114-.432.211-.792.293-1.08.081-.304.139-.472.171-.504v-.24c-.032-.032-.236-.056-.611-.072a12.57 12.57 0 0 0-1.394-.024c-.554 0-1.133.016-1.736.048-.587.016-1.116.056-1.589.12h-1.784l-.172.504c-.098.288-.212.64-.342 1.056-.13.4-.27.816-.416 1.248-.13.416-.245.8-.342 1.152-.082.336-.139.576-.171.72-.066.288-.155.648-.27 1.08-.097.432-.211.872-.342 1.32-.114.464-.22.864-.318 1.2a9.88 9.88 0 0 1-.17.648ZM45.554 47.755a.728.728 0 0 0-.245-.288c-.097-.08-.146-.152-.146-.216a.775.775 0 0 0-.025-.192.296.296 0 0 0-.097-.216c-.082-.096-.074-.312.024-.648.098-.352.26-.776.489-1.272a21.01 21.01 0 0 1 .807-1.608c.13-.128.26-.296.391-.504.13-.208.228-.344.293-.408 0-.064.025-.12.074-.168.049-.064.106-.096.17-.096v-.144c0-.08.074-.216.221-.408.163-.192.359-.4.587-.624.228-.24.464-.464.709-.672.244-.224.448-.384.611-.48.342-.224.693-.36 1.051-.408.375-.048.693.032.954.24l.245.24.39.384c.164.128.327.264.49.408l.904.792-.44 1.2c-.212.64-.269 1.2-.17 1.68.113.48.276.896.488 1.248.082.176.245.344.49.504.26.16.504.256.733.288.13.016.252.064.366.144.114.08.172.208.172.384 0 .16-.033.288-.098.384-.066.096-.18.16-.343.192a2.172 2.172 0 0 1-1.516-.384c-.456-.32-.88-.848-1.27-1.584a3.858 3.858 0 0 1-.27-.528 5.16 5.16 0 0 1-.171-.528l-.367.456c-.18.208-.318.36-.415.456-1.158 1.152-2.16 1.928-3.008 2.328-.831.384-1.524.4-2.078.048Zm.88-1.344c0 .112.171.112.514 0 .358-.128.741-.352 1.149-.672a24.222 24.222 0 0 0 1.662-1.536c.57-.56 1.027-1.08 1.37-1.56l.538-.864c-.163-.368-.343-.616-.538-.744-.18-.144-.335-.216-.465-.216-.212 0-.53.192-.953.576-.408.384-.848.896-1.32 1.536-.474.64-.922 1.344-1.346 2.112-.163.32-.31.632-.44.936l-.17.432ZM56.52 47.78a1.206 1.206 0 0 1-.318-.337c-.048-.112-.048-.328 0-.648.05-.448.115-.84.196-1.176.082-.352.18-.752.293-1.2.033-.192.123-.52.27-.984.163-.464.358-.968.586-1.512a36.16 36.16 0 0 1 .685-1.536c.228-.496.424-.864.587-1.104a.658.658 0 0 1 .464-.12.763.763 0 0 1 .49.216c.178.144.203.4.073.768-.114.352-.359.912-.734 1.68-.196.432-.342.76-.44.984-.098.208-.139.336-.122.384.016.032.09.008.22-.072.098-.176.277-.376.538-.6.26-.24.538-.472.831-.696.293-.224.57-.424.831-.6s.44-.288.538-.336c.13-.08.277-.144.44-.192.18-.064.302-.112.367-.144.375-.176.758-.24 1.15-.192.39.048.635.192.733.432a.414.414 0 0 0 .146.288l.147.096c.065 0 .098.024.098.072l.024.072c0 .112-.09.184-.269.216-.163.016-.374.032-.635.048-.212.016-.4.056-.563.12-.163.064-.358.144-.587.24-.619.352-1.214.696-1.784 1.032a7.64 7.64 0 0 0-1.614 1.344c-.114.128-.228.28-.342.456-.114.176-.237.368-.367.576-.082.08-.163.256-.245.528-.081.272-.154.536-.22.792-.049.24-.073.384-.073.432l-.073.24c-.05.144-.13.288-.245.432-.195.256-.358.384-.489.384-.13 0-.326-.128-.587-.384ZM72.446 48.331c-.163 0-.334-.088-.513-.264a2.852 2.852 0 0 1-.44-.648 1.99 1.99 0 0 1-.172-.768c0-.24.057-.688.171-1.344.13-.656.286-1.32.465-1.992.13-.416.171-.656.122-.72-.049-.064-.269.024-.66.264a4.346 4.346 0 0 0-.611.36c-.18.112-.334.24-.465.384a9.222 9.222 0 0 0-.367.312 6.33 6.33 0 0 1-.513.408c-.212.16-.48.384-.807.672l-.978.864c-.31.288-.546.512-.709.672a.542.542 0 0 1-.367.264.871.871 0 0 1-.269-.048 1.171 1.171 0 0 1-.513-.312.793.793 0 0 1-.22-.552c0-.16.065-.432.196-.816.13-.4.301-.88.513-1.44.228-.56.489-1.152.782-1.776.05-.08.09-.176.123-.288.032-.128.057-.264.073-.408a1.85 1.85 0 0 0 .049-.408c0-.08.008-.16.024-.24.033-.096.066-.184.098-.264a.806.806 0 0 1 .122-.192c.066-.128.18-.16.343-.096.163.048.301.16.415.336.245.224.367.504.367.84.016.336-.065.752-.244 1.248a3.266 3.266 0 0 0-.172.336 4.747 4.747 0 0 1-.097.264c-.033.064-.057.12-.074.168l-.024.048c.065 0 .212-.072.44-.216.228-.144.497-.304.807-.48.244-.176.456-.336.636-.48.195-.16.358-.28.489-.36.13-.096.211-.144.244-.144a.585.585 0 0 0 .245-.072.931.931 0 0 0 .244-.168c.065-.064.114-.096.147-.096l.073-.024h.098a.434.434 0 0 0 .195-.12c.13-.096.302-.12.514-.072.212.032.407.112.587.24.179.128.269.272.269.432 0 .064.016.12.049.168l.073.048c.13 0 .212.2.244.6.05.4.009.784-.122 1.152 0 .24-.049.528-.147.864a36.97 36.97 0 0 0-.22.96c-.13.4-.22.752-.269 1.056-.049.304-.057.56-.024.768.033.208.09.376.171.504.065.112.065.24 0 .384-.065.128-.196.192-.391.192ZM78.22 48.691c-.716 0-1.303-.264-1.76-.792-.456-.544-.676-1.216-.66-2.016a8.093 8.093 0 0 1 .343-1.848c.212-.672.489-1.312.83-1.92a9.079 9.079 0 0 1 1.126-1.632c.407-.464.83-.792 1.271-.984.163-.08.334-.144.513-.192.196-.048.392-.072.587-.072.18 0 .367.032.563.096.195.048.358.104.489.168.277.112.489.248.635.408.147.16.277.408.392.744.048.304.073.52.073.648s-.04.32-.122.576a5.357 5.357 0 0 1-.758 1.488c-.31.416-.726.768-1.247 1.056a1.75 1.75 0 0 1-.465.192 2.783 2.783 0 0 1-1.467-.12 1.728 1.728 0 0 1-.709-.552l-.171-.192-.073.192c-.163.432-.294.832-.392 1.2a4.695 4.695 0 0 0-.122 1.008c0 .192.016.376.05.552.048.176.113.328.195.456a.588.588 0 0 0 .318.216c.162.032.334.048.513.048h.342c.13-.016.253-.048.367-.096.277-.096.497-.2.66-.312.18-.112.359-.232.538-.36l.098-.048h-.025a4.82 4.82 0 0 0 .514-.288l.244-.144c.066 0 .13-.04.196-.12.13-.064.293-.04.489.072.212.112.318.256.318.432-.016.08-.09.208-.22.384-.13.16-.277.312-.44.456-.147.144-.27.224-.367.24a.957.957 0 0 1-.171.096.534.534 0 0 0-.196.096h.025c-.147.192-.294.288-.44.288h-.196c-.065.112-.277.24-.636.384a3.116 3.116 0 0 1-1.051.192Zm1.101-5.28c.294 0 .546-.08.758-.24a3.3 3.3 0 0 0 .587-.576c.326-.432.513-.848.562-1.248.065-.416.017-.704-.146-.864a.617.617 0 0 0-.27-.072c-.065-.016-.203.008-.415.072-.147.032-.35.152-.611.36s-.522.44-.783.696a7.18 7.18 0 0 0-.562.648l-.318.504c.13-.048.253-.072.367-.072.13-.016.204-.008.22.024 0 .144.024.28.073.408.065.112.139.2.22.264a.57.57 0 0 0 .318.096ZM86.074 48.283c-.815 0-1.41-.288-1.785-.864a.823.823 0 0 1-.17-.48c.015-.176.064-.296.146-.36.098-.064.212-.008.342.168.228.128.554.192.978.192.212 0 .432-.016.66-.048.228-.048.457-.112.685-.192.244-.112.407-.208.489-.288.081-.096.065-.176-.049-.24h.024a5.821 5.821 0 0 1-1.295-.528 6.685 6.685 0 0 1-1.1-.816c-.31-.304-.49-.576-.539-.816a2.42 2.42 0 0 1 .098-1.512 4.3 4.3 0 0 1 .831-1.392c.13-.08.294-.176.49-.288.195-.128.35-.2.464-.216v.024c.31-.32.685-.576 1.125-.768a16.79 16.79 0 0 1 1.442-.528l.367-.048a3.13 3.13 0 0 1 .49-.048c-.017 0 .015.016.097.048.081.016.155.032.22.048.098.048.18.072.244.072.212.032.408.128.587.288.18.16.318.352.416.576a.913.913 0 0 1 .122.6c-.032.304-.13.576-.293.816-.147.24-.326.376-.538.408.032-.016.008-.04-.073-.072a2.582 2.582 0 0 0-.22-.144l-.074.048-.024-.048a.381.381 0 0 0-.05-.168.677.677 0 0 1-.073-.312c0-.128.008-.264.025-.408.032-.176.032-.28 0-.312-.016-.032-.122-.056-.318-.072-.228-.048-.562-.008-1.002.12a3.353 3.353 0 0 0-1.076.528c-.359.224-.66.44-.905.648a3.29 3.29 0 0 0-.587.576 2.942 2.942 0 0 0-.39.624 3.946 3.946 0 0 0-.221.336.589.589 0 0 0-.073.264c0 .176.13.36.39.552.278.176.686.384 1.223.624.424.176.783.368 1.076.576.294.208.497.448.611.72.033.064.041.144.025.24 0 .08-.016.136-.049.168.033.032.049.056.049.072v-.024c.13.192.13.392 0 .6-.114.208-.318.392-.611.552-.278.144-.62.256-1.027.336h.024a4.543 4.543 0 0 1-.636.144 6.907 6.907 0 0 1-.562.024ZM93.65 48.715a4.02 4.02 0 0 1-.881-.504c-.277-.224-.456-.408-.538-.552 0-.144.025-.24.074-.288.048-.064.187-.088.415-.072.245 0 .636.032 1.174.096.195 0 .44-.016.733-.048.294-.032.563-.08.807-.144.26-.064.408-.144.44-.24.082 0 .098-.024.05-.072a1.814 1.814 0 0 0-.172-.192.444.444 0 0 1-.22-.072c-.082-.064-.155-.096-.22-.096 0-.08-.082-.168-.245-.264a1.92 1.92 0 0 0-.464-.264 37.119 37.119 0 0 1-.93-.768c-.26-.24-.358-.4-.293-.48v-.12c-.114 0-.244-.16-.39-.48-.131-.32-.197-.608-.197-.864 0-.192.057-.432.172-.72a5.53 5.53 0 0 1 .464-.936c.196-.32.4-.584.611-.792a9.93 9.93 0 0 1 1.1-.864c.44-.32.873-.6 1.296-.84.44-.256.807-.424 1.1-.504a2.28 2.28 0 0 1 .808-.168c.26 0 .489.056.684.168.163.08.31.2.44.36.147.144.27.296.367.456.114.144.188.272.22.384 0 .192-.016.408-.049.648a2.942 2.942 0 0 1-.147.6c-.048.176-.13.264-.244.264l-.073.024c-.033 0-.05.04-.05.12 0 .16-.121.344-.366.552-.31.208-.579.336-.807.384-.228.032-.367-.056-.416-.264a.621.621 0 0 1-.097-.168c-.017-.048-.057-.072-.123-.072l-.073-.072c-.049-.048-.073-.128-.073-.24 0-.064.024-.12.073-.168l.073-.096c.082 0 .188-.088.318-.264.13-.192.245-.392.343-.6.114-.224.17-.376.17-.456 0-.096-.015-.152-.048-.168-.016-.016-.09-.024-.22-.024-.228.096-.505.224-.831.384-.327.16-.636.32-.93.48-.277.144-.48.28-.61.408a6.025 6.025 0 0 0-.123.216c-.016.016-.057.024-.122.024 0-.064-.057-.032-.171.096-.098.112-.229.272-.392.48l-.44.624-.293.432c-.033.032-.074.128-.122.288a1.85 1.85 0 0 0-.05.408c-.065.192-.056.328.025.408.082.064.26.208.538.432.57.416 1.019.76 1.345 1.032.326.272.57.496.733.672.163.176.261.336.294.48.293.48.383.848.269 1.104-.115.256-.392.48-.832.672-.163.08-.432.144-.806.192a9.042 9.042 0 0 1-1.15.072c-.39.016-.7.008-.929-.024ZM31.85 79.771c-.195 0-.358-.104-.489-.312a.745.745 0 0 1-.195-.408c-.017-.16.04-.456.17-.888.131-.448.351-1.128.661-2.04.163-.608.293-1.048.391-1.32.098-.288.147-.496.147-.624 0-.176.016-.32.049-.432.049-.128.073-.248.073-.36.098 0 .196-.088.294-.264.097-.176.179-.416.244-.72.065-.272.122-.488.171-.648.065-.176.098-.296.098-.36.081-.128.163-.328.245-.6.097-.272.244-.6.44-.984.13-.48.277-.976.44-1.488.163-.528.326-1.016.489-1.464.179-.464.326-.824.44-1.08.18-.496.318-.84.416-1.032.097-.208.097-.344 0-.408-.115-.08-.14-.216-.074-.408.065-.192.245-.408.538-.648.18-.208.334-.352.465-.432a.803.803 0 0 1 .489-.144c.212 0 .513.016.904.048.294.016.603.024.93.024h.635c.147.064.326.136.538.216.212.064.4.128.562.192.18.064.27.12.27.168 0 .096.032.16.097.192l.245.048c.114 0 .268.088.464.264.196.16.4.368.611.624.212.24.375.496.49.768.13.272.227.528.293.768.081.24.081.584 0 1.032-.017.24-.057.48-.122.72-.05.24-.106.4-.172.48a1.253 1.253 0 0 0-.269.24c-.081.096-.122.184-.122.264 0 .064-.057.192-.171.384a11.766 11.766 0 0 1-1.027 1.344c-.212.24-.416.448-.611.624a4.603 4.603 0 0 1-.758.72c-.277.224-.53.408-.758.552-.424.192-.897.384-1.418.576-.505.192-.995.352-1.467.48-.457.128-.84.184-1.15.168-.472.064-.782.128-.928.192-.13.048-.229.184-.294.408-.081.208-.163.424-.244.648-.066.208-.098.352-.098.432-.033.064-.114.264-.245.6-.114.32-.244.696-.39 1.128-.131.432-.262.856-.392 1.272-.13.416-.228.76-.293 1.032-.066.224-.147.352-.245.384a.83.83 0 0 1-.367.072Zm3.032-7.44c.065.064.318.072.758.024.44-.048.913-.168 1.418-.36.326-.112.652-.248.978-.408.343-.16.669-.336.978-.528a8.75 8.75 0 0 0 .734-.6c.326-.288.652-.632.978-1.032.049-.08.13-.232.244-.456.13-.24.245-.464.343-.672.146-.224.293-.552.44-.984.146-.448.179-.816.097-1.104-.081-.416-.293-.8-.635-1.152a2.553 2.553 0 0 0-1.223-.744 5.304 5.304 0 0 0-.904-.096c-.229 0-.481.024-.758.072-.261.08-.457.192-.587.336-.114.144-.27.448-.465.912-.114.224-.277.568-.489 1.032-.212.448-.391.872-.538 1.272-.293 1.056-.587 1.928-.88 2.616a52.756 52.756 0 0 0-.513 1.272c.016.176.008.304-.025.384-.032.064-.016.136.05.216ZM43.92 78.62c-.31.08-.563.015-.758-.193-.18-.208-.286-.528-.318-.96-.033-.432.016-.944.146-1.536.082-.192.147-.376.196-.552.049-.192.074-.344.074-.456a7.13 7.13 0 0 1 .195-.696 33.639 33.639 0 0 1 .636-1.872c.114-.272.187-.44.22-.504.065 0 .122-.056.171-.168a.834.834 0 0 0 .073-.336c0-.128.025-.272.074-.432.065-.16.13-.272.195-.336 0-.08.017-.168.05-.264a.718.718 0 0 0 .072-.264.42.42 0 0 1 .05-.192.316.316 0 0 0 .073-.192c.114-.208.26-.536.44-.984.196-.464.4-.976.611-1.536a42.46 42.46 0 0 0 1.1-3.024c.13-.384.196-.616.196-.696 0-.128.033-.224.098-.288.065-.064.163-.096.293-.096a.364.364 0 0 1 .171-.096c.082-.016.155-.024.22-.024l.098.096.294.288c.13.112.203.24.22.384.032.144.048.312.048.504 0 .208-.024.392-.073.552a5.41 5.41 0 0 1-.293.696l-.685 1.416c-.13.32-.269.624-.416.912-.146.272-.22.44-.22.504s-.032.16-.097.288c-.05.128-.106.288-.171.48-.066.128-.155.32-.27.576-.114.24-.236.504-.366.792-.114.272-.212.512-.294.72-.081.192-.122.304-.122.336a.775.775 0 0 1-.024.192c0 .064-.033.128-.098.192-.065 0-.106.048-.122.144v.12c0 .16-.13.584-.392 1.272-.26.88-.505 1.688-.733 2.424-.212.736-.318 1.328-.318 1.776 0 .384-.008.64-.024.768-.017.112-.09.2-.22.264ZM47.488 77.755a.728.728 0 0 0-.245-.288c-.097-.08-.146-.152-.146-.216a.775.775 0 0 0-.025-.192.296.296 0 0 0-.098-.216c-.081-.096-.073-.312.025-.648.098-.352.26-.776.489-1.272.228-.512.497-1.048.807-1.608.13-.128.26-.296.391-.504.13-.208.228-.344.294-.408 0-.064.024-.12.073-.168.049-.064.106-.096.17-.096v-.144c0-.08.074-.216.221-.408.163-.192.359-.4.587-.624.228-.24.464-.464.709-.672.244-.224.448-.384.611-.48.342-.224.693-.36 1.052-.408.374-.048.692.032.953.24l.244.24.392.384c.163.128.326.264.489.408l.904.792-.44 1.2c-.212.64-.269 1.2-.17 1.68.113.48.276.896.488 1.248.082.176.245.344.49.504.26.16.504.256.733.288.13.016.252.064.366.144.115.08.172.208.172.384 0 .16-.033.288-.098.384-.066.096-.18.16-.343.192a2.172 2.172 0 0 1-1.515-.384c-.457-.32-.88-.848-1.272-1.584a3.861 3.861 0 0 1-.269-.528 5.172 5.172 0 0 1-.171-.528l-.367.456c-.179.208-.318.36-.415.456-1.158 1.152-2.16 1.928-3.008 2.328-.831.384-1.524.4-2.078.048Zm.88-1.344c0 .112.171.112.514 0 .358-.128.741-.352 1.149-.672a24.222 24.222 0 0 0 1.662-1.536c.57-.56 1.027-1.08 1.37-1.56l.537-.864c-.163-.368-.342-.616-.537-.744-.18-.144-.335-.216-.465-.216-.212 0-.53.192-.953.576-.408.384-.848.896-1.32 1.536-.474.64-.922 1.344-1.346 2.112-.163.32-.31.632-.44.936l-.17.432ZM61.046 78.571a2.727 2.727 0 0 1-.562-.216 6.341 6.341 0 0 1-.587-.456 4.777 4.777 0 0 1-.465-.72 2.66 2.66 0 0 1-.195-.768 11.148 11.148 0 0 1-.05-1.152c0-.192.034-.48.099-.864.081-.384.17-.784.269-1.2.114-.432.212-.816.293-1.152.098-.336.155-.552.171-.648.05-.208-.032-.328-.244-.36a3.382 3.382 0 0 0-.71-.024c-.244 0-.407-.024-.488-.072-.066-.016-.098-.04-.098-.072v-.072c0-.064-.008-.104-.025-.12 0-.032-.024-.088-.073-.168-.033-.064-.016-.152.049-.264a.552.552 0 0 1 .391-.24c.147-.032.342-.056.587-.072.26-.032.521-.088.782-.168.261-.096.473-.24.636-.432.147-.352.318-.744.514-1.176.195-.432.382-.816.562-1.152.195-.352.326-.568.391-.648.277-.144.48-.2.611-.168.13.016.277.152.44.408.082.112.139.2.172.264.048.064.057.16.024.288-.033.128-.122.328-.269.6-.13.272-.334.664-.611 1.176l-.22.432-.098.168c.065.016.163.024.293.024.13 0 .294-.008.49-.024.179-.032.407-.056.684-.072.277-.032.497-.032.66 0 .375 0 .652.072.831.216.18.128.278.352.294.672.032.176-.008.28-.122.312-.098.032-.367.048-.807.048-.147 0-.375.008-.685.024l-.978.048c-.326.016-.611.04-.856.072-.228.016-.342.04-.342.072-.049.032-.13.184-.245.456-.097.272-.203.584-.317.936-.098.336-.188.64-.27.912a18.909 18.909 0 0 0-.268 1.632 8.428 8.428 0 0 0-.025 1.416c.033.4.123.68.27.84.146.144.431.176.855.096.424-.096.766-.248 1.027-.456.293-.24.53-.36.709-.36.196 0 .302.088.318.264.032.16-.057.392-.27.696-.195.288-.44.544-.733.768-.293.208-.603.36-.929.456-.31.08-.603.08-.88 0ZM67.478 81.02a1.165 1.165 0 0 1-.367-.193c-.13-.08-.196-.152-.196-.216.017-.112.041-.216.074-.312.032-.08.057-.16.073-.24.033-.16.049-.352.049-.576 0-.208.024-.608.073-1.2.05-.64.09-1.176.123-1.608.049-.432.097-.816.146-1.152.05-.352.106-.704.171-1.056l.294-1.248c.081-.544.081-.88 0-1.008-.065-.128-.188-.2-.367-.216a5.555 5.555 0 0 1-.831-.144c-.228-.08-.375-.216-.44-.408-.163-.16-.204-.288-.123-.384.082-.096.245-.168.49-.216.26-.064.537-.088.83-.072.278-.016.49-.032.636-.048a.627.627 0 0 0 .392-.24c.098-.144.195-.384.293-.72a7.79 7.79 0 0 1 .171-.6c.098-.256.18-.488.245-.696l.122-.312a.52.52 0 0 0 .22-.432c.016-.224.122-.52.318-.888.212-.384.546-.92 1.002-1.608.554-.704 1.052-1.256 1.492-1.656.456-.4.986-.648 1.589-.744.065-.032.212-.048.44-.048h.465c.342.016.578.08.709.192.13.112.269.304.415.576.13.208.147.496.05.864-.082.352-.188.624-.319.816a2.565 2.565 0 0 1-.366.432c-.147.16-.294.304-.44.432-.13.112-.229.168-.294.168a.478.478 0 0 1-.244-.072.434.434 0 0 0-.196-.12c-.147-.064-.171-.176-.073-.336.097-.176.204-.344.318-.504.163-.24.269-.432.317-.576.05-.144.066-.272.05-.384a2.837 2.837 0 0 0-.099-.408l.22.216a.639.639 0 0 0-.39-.072c-.147.016-.31.056-.49.12-.31.16-.562.336-.758.528a15.79 15.79 0 0 0-.489.456 3.967 3.967 0 0 0-.953 1.224l-.685 1.344c-.065.128-.179.368-.342.72-.147.336-.285.656-.416.96a9.025 9.025 0 0 1-.342.768c-.114.208-.171.336-.171.384-.049.112-.025.168.073.168.114 0 .334-.008.66-.024.8-.096 1.394-.12 1.785-.072.408.032.644.176.71.432.276.384.236.624-.123.72-.342.08-.978.184-1.907.312l-.782.048c-.261 0-.432.008-.514.024a.967.967 0 0 0-.195.072c-.066.032-.14.192-.22.48a6.992 6.992 0 0 1-.098.648c-.033.24-.057.472-.074.696a3.592 3.592 0 0 0-.146.6 1.455 1.455 0 0 1-.147.552c-.098.88-.163 1.696-.196 2.448a24.677 24.677 0 0 1-.146 1.896c-.05.528-.18.936-.392 1.224a1.21 1.21 0 0 1-.366.288c-.115.08-.22.08-.318 0ZM75.767 77.707c-.343.064-.563.088-.66.072-.082-.032-.212-.128-.392-.288a2.245 2.245 0 0 1-.66-.48 2.129 2.129 0 0 1-.367-.6c-.065-.224-.09-.408-.073-.552.049-.56.188-1.16.416-1.8.228-.64.505-1.256.831-1.848a8.047 8.047 0 0 1 1.051-1.512c.392-.432.767-.712 1.125-.84a1.95 1.95 0 0 1 .93-.144.758.758 0 0 1 .635.456c.244.464.187.76-.171.888-.05 0-.106.024-.171.072-.066.032-.098.08-.098.144.065.032.244.04.538.024.293-.032.587-.08.88-.144.31-.08.513-.16.611-.24a.57.57 0 0 1 .22-.072c.05 0 .171.016.367.048.277.08.416.176.416.288 0 .064.024.128.073.192a.237.237 0 0 0 .171.072c.114.016.098.088-.049.216-.13.128-.358.304-.684.528-.31.192-.506.32-.587.384-.065.048-.073.16-.025.336.13.304.139.656.025 1.056-.114.4-.318.808-.611 1.224a6.604 6.604 0 0 1-1.076 1.176 7.418 7.418 0 0 1-1.32.912c-.457.24-.905.384-1.345.432Zm-.416-1.056c.065 0 .18-.032.342-.096l.392-.192c.065-.064.146-.136.244-.216.114-.096.204-.152.269-.168a.585.585 0 0 0 .245-.072c.097-.064.236-.184.415-.36.18-.192.416-.472.71-.84.325-.352.578-.672.757-.96.18-.304.228-.584.147-.84-.016-.064-.065-.104-.147-.12a1.182 1.182 0 0 1-.269-.12.956.956 0 0 1-.464-.12c-.13-.096-.286-.216-.465-.36l-.391-.48-.416.408c-.26.256-.538.64-.831 1.152a10.931 10.931 0 0 0-.71 1.536c-.195.512-.309.92-.341 1.224-.017.24.024.4.122.48.098.08.228.128.391.144ZM82.284 77.78a1.206 1.206 0 0 1-.318-.337c-.05-.112-.05-.328 0-.648.049-.448.114-.84.195-1.176.082-.352.18-.752.294-1.2.032-.192.122-.52.269-.984.163-.464.358-.968.587-1.512a36.16 36.16 0 0 1 .684-1.536c.228-.496.424-.864.587-1.104a.658.658 0 0 1 .464-.12.763.763 0 0 1 .49.216c.179.144.203.4.073.768-.114.352-.359.912-.734 1.68-.195.432-.342.76-.44.984-.098.208-.138.336-.122.384.016.032.09.008.22-.072.098-.176.277-.376.538-.6.26-.24.538-.472.831-.696.294-.224.57-.424.832-.6.26-.176.44-.288.537-.336.13-.08.278-.144.44-.192.18-.064.302-.112.367-.144.375-.176.758-.24 1.15-.192.39.048.635.192.733.432a.414.414 0 0 0 .147.288l.146.096c.066 0 .098.024.098.072l.024.072c0 .112-.09.184-.268.216-.163.016-.375.032-.636.048-.212.016-.4.056-.563.12-.163.064-.358.144-.586.24-.62.352-1.215.696-1.785 1.032a7.64 7.64 0 0 0-1.614 1.344c-.114.128-.228.28-.342.456-.114.176-.236.368-.367.576-.081.08-.163.256-.244.528-.082.272-.155.536-.22.792-.05.24-.074.384-.074.432l-.073.24c-.049.144-.13.288-.245.432-.195.256-.358.384-.489.384-.13 0-.326-.128-.586-.384ZM91.314 77.731a1.575 1.575 0 0 1-.146-.24.777.777 0 0 1-.05-.24.388.388 0 0 0-.024-.12c0-.048-.032-.072-.098-.072-.048-.048-.016-.232.098-.552.13-.336.294-.72.49-1.152.211-.432.423-.848.635-1.248.228-.416.416-.744.562-.984a.286.286 0 0 0 .147-.192c.032-.096.032-.144 0-.144l.122-.216c.098-.16.171-.264.22-.312.13-.224.228-.448.294-.672.065-.24.081-.44.049-.6-.066-.08-.139-.104-.22-.072l-.123.048a3.04 3.04 0 0 0-.293.096c-.114.032-.22.08-.318.144-.375.256-.628.376-.758.36-.13-.032-.277-.24-.44-.624-.065-.176-.09-.304-.073-.384.016-.08.081-.168.195-.264a.998.998 0 0 1 .367-.216c.114-.048.204-.096.269-.144.18-.112.326-.192.44-.24.13-.048.228-.08.293-.096.424-.128.783-.152 1.076-.072.294.08.514.288.66.624.228.272.343.584.343.936 0 .336-.115.728-.343 1.176l-.244.36c-.082.16-.098.24-.05.24.066 0 .14-.056.221-.168.049-.064.147-.16.293-.288.147-.128.245-.192.294-.192l.049-.024c.049-.016.073-.08.073-.192l.147-.144.097-.072c.066 0 .188-.072.367-.216.196-.16.424-.344.685-.552.18-.128.342-.192.489-.192.375-.112.676.008.904.36.245.352.367.808.367 1.368l-.513 1.296.88-1.056a3.15 3.15 0 0 1 .293-.336c.114-.096.212-.176.294-.24.032-.112.081-.176.147-.192l.097-.024h.05c.032-.016.048-.048.048-.096.082-.064.171-.12.27-.168a.552.552 0 0 0 .195-.192c.277-.112.529-.128.758-.048.228.064.423.264.586.6.115.192.18.36.196.504.016.144.024.36.024.648-.032.24-.065.432-.097.576a55.03 55.03 0 0 1-.123 1.008 1.183 1.183 0 0 0-.122.408v.408c0 .208.008.352.025.432.016.064.081.096.195.096.228-.048.538-.16.929-.336.408-.192.709-.376.905-.552.244-.224.456-.336.636-.336.195-.016.318.072.366.264.033.064-.024.208-.171.432-.13.224-.285.44-.464.648-.163.208-.286.312-.367.312-.049 0-.106.048-.171.144a.827.827 0 0 1-.22.192 5.73 5.73 0 0 1-.343.312.47.47 0 0 1-.342.144.58.58 0 0 0-.244.072.809.809 0 0 1-.294.048c-.163.048-.415.024-.758-.072-.326-.096-.538-.32-.635-.672-.066-.176-.123-.456-.172-.84-.048-.4-.04-.8.025-1.2a5.2 5.2 0 0 0 .122-.792c.016-.24.049-.408.098-.504V73.1c0-.192-.024-.288-.073-.288-.066 0-.22.12-.465.36-.228.224-.505.512-.831.864-.31.352-.62.72-.93 1.104-.309.384-.562.728-.757 1.032a2.763 2.763 0 0 0-.392.648c-.114.256-.195.4-.244.432-.114.128-.253.144-.416.048a1.456 1.456 0 0 1-.415-.456 1.221 1.221 0 0 1-.098-.24.988.988 0 0 1 0-.312c.032-.144.09-.352.171-.624.098-.272.228-.656.391-1.152.18-.544.334-1.032.465-1.464l.22-.672c0-.064-.122 0-.367.192-.244.176-.53.4-.856.672-.146.176-.39.44-.733.792-.342.352-.717.752-1.125 1.2-.407.448-.799.92-1.173 1.416-.473.656-.807 1.056-1.003 1.2-.18.144-.359.104-.538-.12Z"/><path fill-rule="evenodd" d="m206.232 115.246 12.118 6.866v13.733l-12.118-6.865v-13.734ZM219.676 122.112v13.733l12.119-6.866V115.24l-12.119 6.872ZM192.783 107.576v13.733l12.119 6.873v-13.739l-12.119-6.868v.001Zm13.449 36.641 12.113 6.873v-13.739l-12.113-6.867v13.733Z" clip-rule="evenodd"/></svg>