<svg xmlns="http://www.w3.org/2000/svg" width="388" height="205" fill="none"><path fill="url(#a)" fill-opacity=".1" d="M320 87.5c0 30.376-52.83 55-118 55s-118-24.624-118-55 52.83-55 118-55 118 24.624 118 55Z" opacity=".7"/><path fill="url(#b)" fill-opacity=".1" d="M236 147.5c0 30.376-52.83 55-118 55S0 177.876 0 147.5s52.83-55 118-55 118 24.624 118 55Z" opacity=".7"/><path fill="url(#c)" fill-opacity=".1" d="M388 141.5c0 30.376-52.83 55-118 55s-118-24.624-118-55 52.83-55 118-55 118 24.624 118 55Z" opacity=".7"/><path fill="#000" fill-rule="evenodd" d="M301.963 51.598a.5.5 0 0 1-.275.651c-25.67 10.45-98.962 45.983-121.964 57.52l-2.043 1.023c-4.849 2.43-8.924 4.471-12.136 6.236-3.673 2.019-6.142 3.638-7.357 5.018-.603.685-.838 1.245-.83 1.714.008.453.245.946.883 1.497.641.555 1.638 1.125 3.044 1.718 1.4.592 3.177 1.196 5.355 1.831 3.142.917 8.178 2.341 14.33 4.081 17.312 4.897 43.469 12.295 61.181 17.923 4.513 1.434 8.352 2.907 11.399 4.434 3.039 1.523 5.332 3.118 6.711 4.813 1.398 1.717 1.873 3.566 1.195 5.503-.662 1.888-2.393 3.769-5.174 5.674-7.315 5.011-37.031 23.192-54.538 32.989a.5.5 0 0 1-.488-.873c17.493-9.789 47.181-27.953 54.461-32.941 2.719-1.862 4.238-3.592 4.795-5.18.539-1.54.202-3.031-1.026-4.541-1.247-1.532-3.392-3.051-6.383-4.55-2.984-1.494-6.769-2.95-11.255-4.375-17.695-5.622-43.813-13.01-61.126-17.907-6.162-1.742-11.208-3.17-14.362-4.09-2.197-.641-4.014-1.257-5.464-1.869-1.444-.61-2.552-1.228-3.309-1.883-.761-.659-1.215-1.398-1.229-2.238-.013-.825.401-1.62 1.079-2.391 1.347-1.531 3.972-3.225 7.627-5.233 3.23-1.776 7.324-3.827 12.169-6.254l2.043-1.023c22.997-11.534 96.323-47.084 122.035-57.552a.5.5 0 0 1 .652.275Z" clip-rule="evenodd"/><path fill="#000" fill-rule="evenodd" d="M294.446 43.56a.5.5 0 0 1-.219.672c-14.763 7.506-45.658 21.654-75.223 35.103-4.779 2.174-9.524 4.33-14.159 6.436-24.057 10.93-45.197 20.535-53.154 24.498-1.417.706-2.817 1.397-4.186 2.074-3.226 1.593-6.287 3.105-9.035 4.541-3.918 2.048-7.159 3.922-9.303 5.631-1.074.856-1.842 1.647-2.288 2.373-.441.717-.543 1.326-.373 1.87.175.561.673 1.166 1.678 1.787 1 .619 2.449 1.221 4.424 1.797 2.052.598 5.069 1.471 8.782 2.545 17.995 5.205 52.329 15.135 72.23 21.458 4.5 1.43 8.486 2.763 11.726 4.069 3.229 1.303 5.769 2.599 7.341 3.974.789.691 1.366 1.428 1.645 2.229.285.816.245 1.657-.13 2.505-.726 1.645-2.705 3.31-5.961 5.102-7.698 4.238-17.331 9.795-27.294 15.543-8.861 5.111-17.982 10.373-26.235 14.991a.5.5 0 1 1-.488-.873c8.218-4.598 17.338-9.859 26.204-14.974 9.982-5.757 19.642-11.33 27.331-15.563 3.244-1.786 4.948-3.315 5.528-4.63.279-.63.297-1.209.101-1.772-.202-.579-.645-1.18-1.359-1.805-1.437-1.257-3.842-2.502-7.057-3.799-3.202-1.292-7.157-2.615-11.655-4.044-19.887-6.318-54.199-16.243-72.197-21.449a4608.019 4608.019 0 0 1-8.792-2.547c-2.017-.589-3.562-1.221-4.67-1.906-1.104-.684-1.83-1.454-2.107-2.341-.282-.904-.063-1.815.476-2.691.534-.868 1.404-1.744 2.516-2.631 2.227-1.775 5.543-3.686 9.464-5.735 2.758-1.442 5.835-2.962 9.067-4.558 1.367-.675 2.762-1.364 4.171-2.066 7.974-3.972 29.138-13.588 53.192-24.517 4.635-2.106 9.377-4.26 14.153-6.432 29.575-13.453 60.445-27.59 75.183-35.084a.501.501 0 0 1 .673.219Z" clip-rule="evenodd"/><path fill="#fff" d="m143.776 148.632-25.448 10.708-22.452-7.07v-28.498l29.158-10.808 18.742 7.077v28.591Z"/><path fill="#000" fill-rule="evenodd" d="M121.049 112.57a.5.5 0 0 1 .615-.35c3.863 1.057 7.802 2.37 11.877 3.742l.751.253c3.845 1.296 7.817 2.634 11.984 3.86a.5.5 0 1 1-.282.959c-4.186-1.231-8.175-2.575-12.018-3.87l-.754-.254c-4.078-1.373-7.991-2.677-11.822-3.725a.501.501 0 0 1-.351-.615ZM95.877 121.81a.5.5 0 0 1 .5.5v30.568a.5.5 0 0 1-1 0V122.31a.5.5 0 0 1 .5-.5Z" clip-rule="evenodd"/><path fill="#000" fill-rule="evenodd" d="M143.776 119.018a.5.5 0 0 1 .5.5v29.445a.5.5 0 0 1-1 0v-29.445a.5.5 0 0 1 .5-.5Zm-24.253 8.501a.5.5 0 0 1 .5.5v31.858a.5.5 0 0 1-1 0v-31.858a.5.5 0 0 1 .5-.5Z" clip-rule="evenodd"/><path fill="#000" fill-rule="evenodd" d="M94.788 152.743a.5.5 0 0 1 .614-.351c4.246 1.162 8.781 2.332 13.524 3.555 3.857.994 7.851 2.024 11.939 3.114a.5.5 0 1 1-.258.966c-4.066-1.084-8.057-2.113-11.916-3.108-4.755-1.226-9.308-2.401-13.553-3.562a.5.5 0 0 1-.35-.614ZM96 123.63a.5.5 0 0 1 .615-.35c4.246 1.162 8.781 2.331 13.523 3.554 3.857.995 7.852 2.025 11.939 3.115a.5.5 0 1 1-.257.966 1504.033 1504.033 0 0 0-11.917-3.109c-4.754-1.226-9.308-2.4-13.552-3.561a.5.5 0 0 1-.35-.615Z" clip-rule="evenodd"/><path fill="#000" fill-rule="evenodd" d="M147.277 147.85a.5.5 0 0 1-.295.643c-5.483 2.032-24.755 9.835-30.157 12.096a.501.501 0 0 1-.386-.923c5.404-2.261 24.692-10.071 30.195-12.111a.5.5 0 0 1 .643.295ZM145.244 119.344a.5.5 0 0 1-.295.642c-3.716 1.378-11.907 4.921-18.49 7.768a795.758 795.758 0 0 1-7.642 3.281.499.499 0 1 1-.386-.922 833.542 833.542 0 0 0 7.576-3.253c6.596-2.853 14.854-6.425 18.594-7.811a.5.5 0 0 1 .643.295ZM124.305 112.538a.5.5 0 0 1-.295.643c-4.679 1.734-17.909 7.29-25.048 10.288l-3.061 1.284a.5.5 0 1 1-.386-.923c.788-.329 1.829-.766 3.05-1.279 7.132-2.995 20.395-8.565 25.097-10.308a.5.5 0 0 1 .643.295ZM133.838 116.188a.5.5 0 0 1-.274.652c-3.636 1.488-9.169 3.918-14.273 6.16-3.904 1.715-7.557 3.319-9.919 4.308a.5.5 0 0 1-.386-.923c2.313-.968 5.953-2.566 9.856-4.28 5.133-2.254 10.721-4.709 14.344-6.191a.5.5 0 0 1 .652.274Z" clip-rule="evenodd"/><path fill="#000" fill-rule="evenodd" d="M129.724 125.47c.252.109.4.411.331.677-1.318 5.089-2.955 10.803-4.576 16.453l-.053.187-.056.193-4.375 15.721a.419.419 0 0 1-.588.28.597.597 0 0 1-.331-.677c1.232-4.756 2.796-10.215 4.379-15.734l4.681-16.821a.42.42 0 0 1 .588-.279Zm-5.758 2.464c.252.11.399.411.331.677-.743 2.869-1.401 5.101-2.051 7.305l-.013.044-.013.045-1.988 7.077a.42.42 0 0 1-.589.278.597.597 0 0 1-.33-.676c.712-2.751 1.352-4.921 1.992-7.094l2.073-7.378a.42.42 0 0 1 .588-.278ZM144.222 119.38a.596.596 0 0 1 .335.678l-8.349 32.24a.42.42 0 0 1-.586.29.596.596 0 0 1-.336-.678l8.35-32.24a.419.419 0 0 1 .586-.29Zm-5.564 2.918a.596.596 0 0 1 .335.678l-8.098 31.269a.419.419 0 0 1-.586.289.594.594 0 0 1-.335-.678l8.098-31.268a.419.419 0 0 1 .586-.29Zm-4.75 1.97a.596.596 0 0 1 .335.678l-8.155 31.614a.42.42 0 0 1-.586.29.597.597 0 0 1-.336-.678l8.156-31.614a.42.42 0 0 1 .586-.29Zm10.323 12.044a.596.596 0 0 1 .324.684l-3.676 13.156a.42.42 0 0 1-.592.277.597.597 0 0 1-.324-.684l3.675-13.156a.42.42 0 0 1 .593-.277Z" clip-rule="evenodd"/><path fill="#fff" d="M112.375 66.663c-1.059 4.083-4.594 9.297-8.01 9.525-7.357.49-7.578-4.75-7.578-9.093.454-4.082 4.153-9.092 7.578-9.092 4.762 0 8.917 2.157 8.01 8.66Z"/><path fill="#000" fill-rule="evenodd" d="M107.127 62.54c.716.086 1.401.592 1.985 1.48a.5.5 0 1 1-.835.55c-.497-.755-.957-1-1.27-1.037-.295-.036-.586.099-.811.415-.458.642-.535 1.951.599 3.038 1.405 1.346 1.79 3.3.982 4.495-.424.626-1.138.966-2.029.878-.863-.085-1.873-.566-3.002-1.506a.499.499 0 1 1 .64-.769c1.05.875 1.875 1.222 2.46 1.28.557.055.902-.147 1.103-.444.443-.654.34-2.076-.846-3.212-1.458-1.397-1.494-3.256-.721-4.34.39-.548 1.012-.916 1.745-.828Z" clip-rule="evenodd"/><path fill="#000" fill-rule="evenodd" d="M108.102 61.635a.5.5 0 0 1 .348.615c-.913 3.285-2.188 7.112-3.476 10.615a.5.5 0 0 1-.939-.345c1.282-3.486 2.548-7.286 3.451-10.537a.5.5 0 0 1 .616-.348ZM100.721 59.186a.498.498 0 0 1 .614-.349l3.344.929c.266.074.422.35.349.616a.498.498 0 0 1-.614.348l-3.343-.928a.501.501 0 0 1-.35-.616Zm1.668-.916a.499.499 0 0 1 .605-.365 38.25 38.25 0 0 1 1.529.41l.015.005c.38.109.751.216 1.429.384a.502.502 0 0 1 .366.607.498.498 0 0 1-.604.364 36.392 36.392 0 0 1-1.466-.394l-.013-.003c-.384-.11-.774-.222-1.495-.402a.502.502 0 0 1-.366-.606ZM97.606 63.061a.498.498 0 0 1 .617-.343l3.03.866c.266.076.42.352.345.618a.498.498 0 0 1-.617.344l-3.03-.866a.502.502 0 0 1-.345-.619Zm.876-1.546a.498.498 0 0 1 .637-.303l3.031 1.083c.26.093.396.379.304.64a.497.497 0 0 1-.637.302l-3.031-1.082a.502.502 0 0 1-.305-.64Zm1.079-1.289a.498.498 0 0 1 .631-.316l3.247 1.082c.262.088.404.37.318.633a.498.498 0 0 1-.631.317l-3.248-1.083a.502.502 0 0 1-.317-.633ZM96.307 66.308a.498.498 0 0 1 .617-.343l3.03.866c.266.075.42.352.345.618a.498.498 0 0 1-.616.344l-3.031-.866a.502.502 0 0 1-.345-.619Zm.65-1.732a.498.498 0 0 1 .616-.343l3.031.866c.265.075.42.352.345.618a.498.498 0 0 1-.617.344l-3.03-.866a.502.502 0 0 1-.346-.618Zm-.867 4.114a.498.498 0 0 1 .617-.344l3.031.866c.266.076.42.353.345.618a.498.498 0 0 1-.617.344l-3.03-.866a.502.502 0 0 1-.346-.618ZM96.3 70.88a.498.498 0 0 1 .599-.375l2.814.65a.501.501 0 0 1-.222.974l-2.814-.65a.502.502 0 0 1-.377-.6Zm.869 1.94a.498.498 0 0 1 .605-.365l2.597.65a.502.502 0 0 1 .366.606.499.499 0 0 1-.605.365l-2.598-.65a.502.502 0 0 1-.365-.606Z" clip-rule="evenodd"/><path fill="#000" fill-rule="evenodd" d="M103.132 62.261c-1.486 1.77-2.575 4.038-2.817 5.979-.43 3.43.03 5.818 1.373 7.162.02.02.039.043.056.066.141.202.381.36.73.458.348.098.771.126 1.215.094a5.427 5.427 0 0 0 1.264-.246c.388-.127.672-.276.823-.403a.504.504 0 0 1 .12-.073c1.39-.612 2.661-1.897 3.673-3.538a15.608 15.608 0 0 0 2.044-5.448c.316-1.878.211-3.619-.367-4.878-.56-1.22-1.572-2.016-3.216-2.065-1.601-.048-3.396 1.104-4.898 2.892Zm-.765-.643c1.566-1.865 3.628-3.31 5.693-3.249 2.039.061 3.382 1.097 4.095 2.648.693 1.51.778 3.477.444 5.46a16.563 16.563 0 0 1-2.179 5.808c-1.059 1.72-2.446 3.17-4.061 3.9-.286.222-.679.403-1.096.54a6.422 6.422 0 0 1-1.501.293c-.522.037-1.068.009-1.56-.13-.478-.135-.937-.384-1.251-.809-1.663-1.69-2.063-4.485-1.629-7.963.272-2.173 1.463-4.614 3.045-6.498Z" clip-rule="evenodd"/><path fill="#000" fill-rule="evenodd" d="M99.955 61.16c-1.438 1.634-2.468 3.734-2.67 5.558a.495.495 0 0 1-.015.076c-.3 1.1-.305 2.481-.046 3.775.26 1.303.772 2.44 1.433 3.1.02.021.039.044.056.067.385.551 1.058 1.046 1.909 1.461.844.412 1.823.726 2.769.936a.5.5 0 0 1-.217.976c-1.003-.223-2.059-.559-2.99-1.013-.909-.443-1.74-1.02-2.265-1.75-.838-.856-1.398-2.193-1.676-3.58-.28-1.398-.287-2.924.052-4.197.24-2.063 1.378-4.33 2.91-6.07 1.532-1.738 3.557-3.057 5.608-2.996 1.279.038 2.368.403 4.03.96l.443.148a.5.5 0 0 1-.316.949l-.391-.13c-1.725-.577-2.671-.894-3.796-.927-1.616-.049-3.38 1.014-4.828 2.658Z" clip-rule="evenodd"/><path fill="#fff" d="M138.375 80.663c-1.059 4.083-4.594 9.297-8.01 9.525-7.357.49-7.578-4.75-7.578-9.093.454-4.082 4.153-9.092 7.578-9.092 4.762 0 8.917 2.157 8.01 8.66Z"/><path fill="#000" fill-rule="evenodd" d="M133.127 76.54c.716.086 1.401.592 1.985 1.48a.5.5 0 1 1-.835.55c-.497-.755-.957-1-1.27-1.037-.295-.036-.586.099-.811.415-.458.642-.535 1.951.599 3.038 1.405 1.346 1.79 3.3.982 4.495-.424.626-1.138.966-2.029.878-.863-.085-1.873-.566-3.002-1.506a.499.499 0 1 1 .64-.769c1.05.875 1.875 1.222 2.46 1.28.557.055.902-.147 1.103-.444.443-.654.34-2.076-.846-3.212-1.458-1.397-1.494-3.256-.721-4.34.39-.548 1.012-.916 1.745-.828Z" clip-rule="evenodd"/><path fill="#000" fill-rule="evenodd" d="M134.102 75.635a.5.5 0 0 1 .348.615c-.913 3.285-2.188 7.112-3.476 10.615a.5.5 0 0 1-.939-.345c1.282-3.486 2.548-7.286 3.451-10.537a.5.5 0 0 1 .616-.348ZM126.721 73.186a.498.498 0 0 1 .614-.349l3.344.929c.266.074.422.35.349.616a.498.498 0 0 1-.614.348l-3.343-.928a.501.501 0 0 1-.35-.616Zm1.668-.916a.499.499 0 0 1 .605-.365 38.25 38.25 0 0 1 1.529.41l.015.005c.38.109.751.216 1.429.384a.502.502 0 0 1 .366.607.498.498 0 0 1-.604.364 36.392 36.392 0 0 1-1.466-.394l-.013-.004c-.384-.11-.774-.222-1.495-.4a.502.502 0 0 1-.366-.607ZM123.606 77.061a.498.498 0 0 1 .616-.343l3.031.866c.266.076.42.352.345.618a.498.498 0 0 1-.617.344l-3.03-.866a.501.501 0 0 1-.345-.619Zm.875-1.546a.499.499 0 0 1 .638-.303l3.031 1.083c.26.093.396.379.304.64a.497.497 0 0 1-.637.302l-3.031-1.082a.502.502 0 0 1-.305-.64Zm1.079-1.289a.5.5 0 0 1 .632-.316l3.247 1.082c.262.088.404.37.318.633a.498.498 0 0 1-.631.317l-3.248-1.083a.502.502 0 0 1-.318-.633ZM122.307 80.308a.498.498 0 0 1 .617-.343l3.031.866a.502.502 0 0 1 .344.618.498.498 0 0 1-.616.344l-3.031-.866a.502.502 0 0 1-.345-.619Zm.649-1.732a.499.499 0 0 1 .617-.343l3.031.866c.265.075.42.352.345.618a.498.498 0 0 1-.617.344l-3.031-.866a.502.502 0 0 1-.345-.618Zm-.866 4.114a.5.5 0 0 1 .617-.344l3.031.866c.266.076.42.353.345.618a.498.498 0 0 1-.617.344l-3.031-.866a.502.502 0 0 1-.345-.618ZM122.301 84.88a.498.498 0 0 1 .598-.375l2.814.65a.501.501 0 0 1-.222.974l-2.814-.65a.501.501 0 0 1-.376-.6Zm.868 1.94a.498.498 0 0 1 .604-.365l2.598.65a.502.502 0 0 1 .366.606.499.499 0 0 1-.605.365l-2.598-.65a.5.5 0 0 1-.365-.606Z" clip-rule="evenodd"/><path fill="#000" fill-rule="evenodd" d="M129.132 76.261c-1.486 1.77-2.575 4.038-2.817 5.979-.429 3.43.03 5.818 1.373 7.162.02.02.039.043.056.066.141.202.381.36.73.458.348.098.771.126 1.215.094a5.427 5.427 0 0 0 1.264-.246c.388-.127.672-.276.823-.403a.504.504 0 0 1 .12-.073c1.39-.612 2.661-1.897 3.673-3.538a15.608 15.608 0 0 0 2.044-5.448c.316-1.878.211-3.619-.367-4.878-.56-1.22-1.572-2.016-3.216-2.065-1.601-.048-3.396 1.104-4.898 2.892Zm-.765-.643c1.566-1.865 3.628-3.31 5.693-3.249 2.039.061 3.382 1.097 4.095 2.647.693 1.511.778 3.478.444 5.462a16.563 16.563 0 0 1-2.179 5.807c-1.059 1.72-2.446 3.17-4.061 3.9-.286.222-.679.403-1.096.54a6.422 6.422 0 0 1-1.501.293c-.522.037-1.068.009-1.56-.13-.478-.135-.937-.384-1.251-.809-1.663-1.69-2.064-4.485-1.629-7.963.272-2.173 1.463-4.615 3.045-6.498Z" clip-rule="evenodd"/><path fill="#000" fill-rule="evenodd" d="M125.955 75.16c-1.438 1.634-2.468 3.734-2.67 5.558a.496.496 0 0 1-.015.076c-.3 1.1-.305 2.481-.046 3.775.26 1.303.772 2.44 1.433 3.1.02.021.039.044.056.067.385.551 1.058 1.046 1.909 1.461.844.412 1.823.726 2.769.936a.5.5 0 0 1-.217.976c-1.003-.223-2.059-.559-2.99-1.013-.909-.443-1.74-1.02-2.265-1.75-.838-.856-1.398-2.193-1.676-3.58-.279-1.398-.287-2.924.052-4.197.24-2.063 1.378-4.33 2.91-6.07 1.532-1.738 3.557-3.057 5.608-2.996 1.279.038 2.368.403 4.03.96l.443.148a.5.5 0 0 1-.316.949l-.391-.13c-1.725-.577-2.671-.894-3.796-.927-1.616-.049-3.38 1.014-4.828 2.658Z" clip-rule="evenodd"/><path fill="#fff" d="M136.375 37.663c-1.059 4.083-4.594 9.298-8.01 9.525-7.357.49-7.578-4.75-7.578-9.093.454-4.082 4.153-9.092 7.578-9.092 4.762 0 8.917 2.157 8.01 8.66Z"/><path fill="#000" fill-rule="evenodd" d="M131.127 33.54c.716.086 1.401.592 1.985 1.48a.5.5 0 1 1-.835.55c-.497-.755-.957-1-1.27-1.037-.295-.036-.586.099-.811.415-.458.642-.535 1.951.599 3.038 1.405 1.346 1.79 3.3.982 4.495-.424.626-1.138.966-2.029.878-.863-.085-1.873-.566-3.002-1.506a.499.499 0 1 1 .64-.769c1.05.875 1.875 1.222 2.46 1.28.557.055.902-.146 1.103-.444.443-.654.34-2.076-.846-3.212-1.458-1.397-1.494-3.256-.721-4.34.39-.548 1.012-.916 1.745-.828Z" clip-rule="evenodd"/><path fill="#000" fill-rule="evenodd" d="M132.102 32.635a.5.5 0 0 1 .348.615c-.913 3.285-2.188 7.112-3.476 10.615a.5.5 0 0 1-.939-.345c1.282-3.486 2.548-7.286 3.451-10.538a.5.5 0 0 1 .616-.347ZM124.721 30.186a.498.498 0 0 1 .614-.349l3.344.929c.266.074.422.35.349.616a.498.498 0 0 1-.614.348l-3.343-.928a.501.501 0 0 1-.35-.616Zm1.668-.916a.499.499 0 0 1 .605-.365 38.25 38.25 0 0 1 1.529.41l.015.005c.38.109.751.216 1.429.384a.502.502 0 0 1 .366.607.498.498 0 0 1-.604.364 36.392 36.392 0 0 1-1.466-.394l-.013-.003c-.384-.11-.774-.223-1.495-.402a.502.502 0 0 1-.366-.606ZM121.606 34.061a.498.498 0 0 1 .616-.343l3.031.866c.266.076.42.352.345.618a.498.498 0 0 1-.617.344l-3.03-.866a.501.501 0 0 1-.345-.619Zm.875-1.546a.499.499 0 0 1 .638-.303l3.031 1.083c.26.093.396.379.304.64a.497.497 0 0 1-.637.302l-3.031-1.082a.502.502 0 0 1-.305-.64Zm1.079-1.289a.5.5 0 0 1 .632-.316l3.247 1.082c.262.088.404.37.318.633a.498.498 0 0 1-.631.317l-3.248-1.083a.502.502 0 0 1-.318-.633ZM120.307 37.308a.498.498 0 0 1 .617-.343l3.031.866a.502.502 0 0 1 .344.618.498.498 0 0 1-.616.344l-3.031-.866a.502.502 0 0 1-.345-.619Zm.649-1.731a.499.499 0 0 1 .617-.344l3.031.866c.265.076.42.352.345.618a.498.498 0 0 1-.617.344l-3.031-.866a.502.502 0 0 1-.345-.618Zm-.866 4.113a.5.5 0 0 1 .617-.344l3.031.866c.266.076.42.353.345.618a.498.498 0 0 1-.617.344l-3.031-.866a.502.502 0 0 1-.345-.618ZM120.301 41.88a.498.498 0 0 1 .598-.375l2.814.65a.501.501 0 0 1-.222.974l-2.814-.65a.501.501 0 0 1-.376-.6Zm.868 1.94a.498.498 0 0 1 .604-.365l2.598.65a.502.502 0 0 1 .366.607.499.499 0 0 1-.605.364l-2.598-.65a.5.5 0 0 1-.365-.607Z" clip-rule="evenodd"/><path fill="#000" fill-rule="evenodd" d="M127.132 33.261c-1.486 1.77-2.575 4.038-2.817 5.979-.429 3.43.03 5.818 1.373 7.161.02.021.039.043.056.067.141.202.381.36.73.458.348.098.771.127 1.215.094a5.427 5.427 0 0 0 1.264-.246c.388-.127.672-.276.823-.403a.504.504 0 0 1 .12-.074c1.39-.61 2.661-1.895 3.673-3.537a15.608 15.608 0 0 0 2.044-5.448c.316-1.878.211-3.619-.367-4.878-.56-1.22-1.572-2.016-3.216-2.065-1.601-.048-3.396 1.104-4.898 2.892Zm-.765-.643c1.566-1.865 3.628-3.31 5.693-3.249 2.039.061 3.382 1.097 4.095 2.648.693 1.51.778 3.477.444 5.46a16.563 16.563 0 0 1-2.179 5.808c-1.059 1.72-2.446 3.17-4.061 3.9-.286.222-.679.403-1.096.54a6.422 6.422 0 0 1-1.501.293c-.522.038-1.068.009-1.56-.13-.478-.135-.937-.384-1.251-.809-1.663-1.69-2.064-4.485-1.629-7.963.272-2.173 1.463-4.614 3.045-6.498Z" clip-rule="evenodd"/><path fill="#000" fill-rule="evenodd" d="M123.955 32.16c-1.438 1.634-2.468 3.734-2.67 5.558a.496.496 0 0 1-.015.076c-.3 1.1-.305 2.481-.046 3.775.26 1.303.772 2.44 1.433 3.1.02.021.039.044.056.067.385.551 1.058 1.046 1.909 1.461.844.412 1.823.726 2.769.936a.5.5 0 0 1-.217.976c-1.003-.223-2.059-.559-2.99-1.013-.909-.443-1.74-1.02-2.265-1.75-.838-.856-1.398-2.193-1.676-3.58-.279-1.398-.287-2.924.052-4.197.24-2.063 1.378-4.33 2.91-6.07 1.532-1.738 3.557-3.057 5.608-2.996 1.279.038 2.368.403 4.03.96l.443.148a.5.5 0 0 1-.316.949l-.391-.13c-1.725-.577-2.671-.894-3.796-.927-1.616-.049-3.38 1.014-4.828 2.658ZM103.5 15.286a.5.5 0 0 1 .5.5v28.48a.5.5 0 0 1-1 0v-28.48a.5.5 0 0 1 .5-.5Zm0 67.184a.5.5 0 0 1 .5.5v17.316a.5.5 0 0 1-1 0V82.97a.5.5 0 0 1 .5-.5Zm0 32.132a.5.5 0 0 1 .5.5v10.684a.5.5 0 0 1-1 0v-10.684a.5.5 0 0 1 .5-.5ZM116.5 15.286a.5.5 0 0 1 .5.5v21.83a.5.5 0 0 1-1 0v-21.83a.5.5 0 0 1 .5-.5Zm0 38.204a.5.5 0 0 1 .5.5v15.593a.5.5 0 0 1-1 0V53.99a.5.5 0 0 1 .5-.5Zm0 35.864a.5.5 0 0 1 .5.5v17.932a.5.5 0 0 1-1 0V89.854a.5.5 0 0 1 .5-.5ZM127.505 5.286a.5.5 0 0 1 .495.505l-.188 20.928a.5.5 0 0 1-1-.01L127 5.783a.5.5 0 0 1 .505-.496Zm-.401 44.472a.5.5 0 0 1 .496.505l-.165 18.312a.5.5 0 0 1-1-.01l.165-18.311a.5.5 0 0 1 .504-.496Zm-.405 44.472a.5.5 0 0 1 .5.5v19.556a.5.5 0 0 1-1 0V94.73a.5.5 0 0 1 .5-.5Z" clip-rule="evenodd"/><path fill="#fff" d="M269.167 19.786V3.12l29.333 4v16.666l-29.333-4Z"/><path fill="#000" fill-rule="evenodd" d="M268.65.584a.5.5 0 0 1 .5.5v54.702a.5.5 0 0 1-1 0V1.084a.5.5 0 0 1 .5-.5ZM266.5 0a.5.5 0 0 1 .5.5v56.286a.5.5 0 0 1-1 0V.5a.5.5 0 0 1 .5-.5Z" clip-rule="evenodd"/><path fill="#000" fill-rule="evenodd" d="M266.006 1.004a.5.5 0 0 1 .574-.414c2.616.424 9.023 1.152 15.819 1.922l.284.033c6.699.759 13.718 1.555 17.758 2.132a.5.5 0 0 1-.142.99c-4.025-.575-11.034-1.37-17.745-2.13l-.267-.031c-6.779-.769-13.22-1.5-15.867-1.928a.5.5 0 0 1-.414-.574ZM268.34 17.374a.5.5 0 0 1 .557-.436c7.147.875 14.969 1.97 22.445 3.017 2.542.356 5.044.706 7.466 1.04a.5.5 0 1 1-.136.99c-2.427-.334-4.932-.685-7.476-1.041-7.474-1.046-15.283-2.14-22.421-3.013a.5.5 0 0 1-.435-.557Z" clip-rule="evenodd"/><path fill="#000" fill-rule="evenodd" d="M298.034 3.503a.5.5 0 0 1 .5.5v17.744a.5.5 0 0 1-1 0V4.002a.5.5 0 0 1 .5-.5Z" clip-rule="evenodd"/><path fill="#fff" d="M247.474 145.579v-9.453l14.552-4.944 31.525-.47 7.939 6.938v9.911l-11.894 6.443h-30.229l-11.893-8.425Z"/><path fill="#000" fill-rule="evenodd" d="M244.113 142.729a.499.499 0 0 1 .703-.071c2.998 2.447 5.247 4.351 7.332 6.116l.001.001c2.085 1.765 4.006 3.392 6.354 5.289a.5.5 0 1 1-.629.778c-2.357-1.905-4.285-3.538-6.37-5.303l-.001-.001c-2.086-1.765-4.329-3.664-7.319-6.105a.5.5 0 0 1-.071-.704Z" clip-rule="evenodd"/><path fill="#000" fill-rule="evenodd" d="m290.487 154.504-32.119-.496a.5.5 0 1 1 .016-1l32.119.496a.5.5 0 1 1-.016 1ZM247.62 133.284a.5.5 0 0 1 .5.5v14.769a.5.5 0 0 1-1 0v-14.769a.5.5 0 0 1 .5-.5Z" clip-rule="evenodd"/><path fill="#000" fill-rule="evenodd" d="M259.367 141.115a.5.5 0 0 1 .5.5v11.398a.5.5 0 0 1-1 0v-11.398a.5.5 0 0 1 .5-.5ZM289.596 140.619a.5.5 0 0 1 .5.5v13.875a.5.5 0 0 1-1 0v-13.875a.5.5 0 0 1 .5-.5ZM301.489 133.682a.5.5 0 0 1 .5.5v13.875a.5.5 0 0 1-1 0v-13.875a.5.5 0 0 1 .5-.5Z" clip-rule="evenodd"/><path fill="#000" fill-rule="evenodd" d="M246.361 134.79a.5.5 0 0 1 .691-.15c4.409 2.835 6.078 3.889 8.109 5.172 1.165.736 2.449 1.547 4.437 2.812a.5.5 0 0 1-.537.844 1353.013 1353.013 0 0 0-4.43-2.808c-2.034-1.285-3.708-2.342-8.12-5.179a.5.5 0 0 1-.15-.691Z" clip-rule="evenodd"/><path fill="#000" fill-rule="evenodd" d="M258.83 143.046a.5.5 0 0 1 .5-.5h30.724a.5.5 0 0 1 0 1H259.33a.5.5 0 0 1-.5-.5ZM290.296 128.49a.5.5 0 0 1 .699-.107l-.296.403-.295.403a.5.5 0 0 1-.108-.699Zm.403.296-.295.403.375.276 1.024.75 3.378 2.469c2.638 1.924 5.777 4.207 7.776 5.635a.5.5 0 0 0 .581-.814 1100.74 1100.74 0 0 1-7.767-5.629 4685.458 4685.458 0 0 1-4.401-3.218l-.375-.275-.296.403ZM267.218 129.199a.499.499 0 0 1-.316.632c-5.126 1.709-17.665 6.269-20.505 7.405a.499.499 0 1 1-.372-.928c2.863-1.146 15.421-5.712 20.561-7.425a.499.499 0 0 1 .632.316Z" clip-rule="evenodd"/><path fill="#000" fill-rule="evenodd" d="M280.228 130.908c-6.359.044-12.75.089-19.187.089a.5.5 0 1 1 0-1c6.433 0 12.821-.044 19.18-.089l.091-.001c6.328-.044 12.629-.089 18.916-.089a.5.5 0 1 1 0 1c-6.284 0-12.582.045-18.911.089l-.089.001ZM304.947 135.978a.498.498 0 0 1-.223.67c-3.802 1.901-7.227 3.444-10.509 4.922-1.856.836-3.666 1.651-5.473 2.499a.5.5 0 0 1-.424-.906 386.525 386.525 0 0 1 5.517-2.519c3.267-1.471 6.654-2.996 10.441-4.89a.5.5 0 0 1 .671.224Zm-1.028 10.865a.5.5 0 0 1-.224.671l-.004.002c-5.944 2.972-9.913 4.956-14.949 7.319a.5.5 0 1 1-.424-.905c5.024-2.357 8.983-4.337 14.93-7.311a.5.5 0 0 1 .671.224ZM251.579 137.666a.5.5 0 0 1 .339.621l-2.479 8.425a.5.5 0 0 1-.959-.283l2.478-8.424a.5.5 0 0 1 .621-.339Zm3.453 1.978a.5.5 0 0 1 .359.609c-.395 1.535-.962 3.116-1.516 4.664l-.004.012c-.556 1.553-1.1 3.07-1.472 4.516a.5.5 0 0 1-.969-.25c.385-1.491.941-3.044 1.491-4.578l.013-.037c.557-1.557 1.107-3.094 1.489-4.576a.5.5 0 0 1 .609-.36Zm3.495 2.485a.5.5 0 0 1 .325.628l-3.039 9.566a.5.5 0 1 1-.953-.303l3.039-9.565a.5.5 0 0 1 .628-.326ZM271.653 142.617a.5.5 0 0 1 .359.609c-.45 1.745-.881 3.481-1.311 5.209l-.007.03c-.427 1.718-.852 3.429-1.29 5.131a.5.5 0 0 1-.969-.25c.438-1.697.862-3.405 1.289-5.124l.007-.028c.429-1.728.862-3.468 1.313-5.218a.5.5 0 0 1 .609-.359Zm-4.232 0a.5.5 0 0 1 .359.609 261.251 261.251 0 0 1-1.417 5.202l-.009.031c-.477 1.706-.95 3.394-1.386 5.084a.5.5 0 1 1-.968-.249c.438-1.7.913-3.397 1.39-5.1l.01-.035c.48-1.716.962-3.438 1.412-5.183a.5.5 0 0 1 .609-.359Zm-4.68.498a.5.5 0 0 1 .347.616l-2.744 9.822a.5.5 0 0 1-.963-.269l2.744-9.822a.5.5 0 0 1 .616-.347ZM283.854 143.117a.5.5 0 0 1 .359.609l-2.557 9.924a.5.5 0 1 1-.969-.249l2.558-9.925a.5.5 0 0 1 .609-.359Zm-4.46 0a.5.5 0 0 1 .359.609l-2.558 9.924a.5.5 0 1 1-.968-.249l2.558-9.925a.5.5 0 0 1 .609-.359Zm-3.965-.018a.5.5 0 0 1 .36.609l-2.558 9.924a.5.5 0 1 1-.968-.249l2.557-9.925a.5.5 0 0 1 .609-.359Z" clip-rule="evenodd"/><path fill="#000" fill-rule="evenodd" d="M297.265 139.148a.5.5 0 0 1 .359.609l-2.937 11.398a.5.5 0 1 1-.968-.25l2.937-11.397a.5.5 0 0 1 .609-.36Zm-4.554 2.483a.5.5 0 0 1 .338.621l-3.518 11.893a.5.5 0 1 1-.959-.283l3.518-11.894a.5.5 0 0 1 .621-.337Zm-4.689 1.482a.5.5 0 0 1 .359.609l-2.682 10.406a.5.5 0 1 1-.968-.249l2.682-10.407a.5.5 0 0 1 .609-.359ZM301.229 137.166c.267.07.427.343.358.61l-3.083 11.893a.5.5 0 1 1-.968-.251l3.083-11.893a.5.5 0 0 1 .61-.359Z" clip-rule="evenodd"/><path fill="#fff" fill-rule="evenodd" d="M270.908 136.41h-3.91l-4.208-5.191 2.609-2.745v-6.911h-2.609l2.609-9.049h2.899l2.61-2.32v-4.639l6.379-3.479 3.479 2.337v4.041l2.32-4.041 4.818 2.302 1.27 5.799-2.899 2.609v4.639h2.899l-1.27 8.712-3.756-1.031-3.382 3.776 1.023 5.191-5.664 2.36-5.217-.944v-1.416Zm3.027-16.34 3.582-2.388 2.388 1.194-1.592 4.776-2.786 1.99-1.592-.796v-4.776Z" clip-rule="evenodd"/><path fill="#000" fill-rule="evenodd" d="M262.347 121.125a.5.5 0 0 1 .631-.319c.427.14.857.229 1.335.32 1.418.27 2.838.506 4.264.744.661.11 1.322.22 1.986.334a.5.5 0 1 1-.169.985c-.653-.112-1.309-.221-1.967-.331a186.825 186.825 0 0 1-4.301-.75c-.481-.091-.966-.19-1.46-.352a.5.5 0 0 1-.319-.631ZM263.744 112.257a.5.5 0 0 1 .573-.414c.506.081.984.172 1.503.334 1.589.496 3.169 1.044 4.74 1.588.715.248 1.427.495 2.138.736a.5.5 0 0 1-.322.947c-.724-.246-1.443-.495-2.161-.744a157.477 157.477 0 0 0-4.693-1.572 9.534 9.534 0 0 0-1.364-.302.5.5 0 0 1-.414-.573ZM270.003 105.169a.5.5 0 0 1 .631-.319c1.649.543 3.336.961 5.039 1.383.71.176 1.423.352 2.137.539a.5.5 0 1 1-.253.967c-.687-.179-1.384-.352-2.085-.526-1.718-.425-3.464-.857-5.151-1.413a.5.5 0 0 1-.318-.631ZM275.284 101.612a.5.5 0 0 1 .643-.294c1.668.619 3.348 1.203 5.033 1.789l1.134.395a.5.5 0 1 1-.329.944l-1.129-.393a255.774 255.774 0 0 1-5.057-1.798.5.5 0 0 1-.295-.643Z" clip-rule="evenodd"/><path fill="#000" fill-rule="evenodd" d="M282.28 104.438a.5.5 0 0 1 .602-.371c1.325.315 2.637.761 3.917 1.195.492.167.98.333 1.461.488a.5.5 0 1 1-.308.952c-.511-.166-1.017-.337-1.519-.508-1.263-.428-2.507-.85-3.783-1.154a.5.5 0 0 1-.37-.602ZM286.077 119.745a.5.5 0 0 1 .605-.366c.521.129 1.044.257 1.568.385l1.842.452a.5.5 0 1 1-.239.971c-.615-.152-1.226-.302-1.838-.451l-1.572-.386a.5.5 0 0 1-.366-.605ZM283.824 127.409a.5.5 0 0 1 .6-.375c.875.202 1.75.431 2.617.658.399.105.796.209 1.19.31a.5.5 0 1 1-.248.969c-.407-.104-.811-.21-1.214-.316-.859-.225-1.71-.448-2.57-.647a.5.5 0 0 1-.375-.599ZM281.529 130.438a.5.5 0 0 1 .573.414c.054.333.088.642.096.997a105.39 105.39 0 0 1-.006 3.772c-.008.585-.016 1.168-.019 1.747a.5.5 0 0 1-1-.006c.003-.596.011-1.188.019-1.778.017-1.242.034-2.475.006-3.712a6.105 6.105 0 0 0-.083-.861.499.499 0 0 1 .414-.573ZM276.101 133.586a.499.499 0 0 1 .537.459c.087 1.107.111 2.244.135 3.362.015.697.03 1.387.059 2.059a.5.5 0 1 1-.999.044 87.285 87.285 0 0 1-.061-2.135c-.023-1.089-.045-2.162-.131-3.252a.5.5 0 0 1 .46-.537ZM274.161 133.522a.5.5 0 0 1 .032.706c-.285.311-.566.638-.854.975l-.069.081c-.265.309-.535.625-.813.935-.604.673-1.258 1.335-2.009 1.874a.5.5 0 0 1-.583-.813c.664-.476 1.262-1.075 1.847-1.729.27-.3.533-.608.799-.919l.068-.079c.288-.336.579-.675.876-1a.499.499 0 0 1 .706-.031ZM271.875 127.89a.5.5 0 0 1-.028.707c-.413.38-.83.745-1.244 1.108-1.036.907-2.048 1.793-2.889 2.828a.5.5 0 1 1-.776-.63c.898-1.106 2.009-2.079 3.069-3.007.399-.35.791-.693 1.162-1.035a.5.5 0 0 1 .706.029Z" clip-rule="evenodd"/><path fill="#000" fill-rule="evenodd" d="M270.697 121.432a.5.5 0 0 1 .402.581c-.466 2.562-.059 5.133.193 6.729l.049.307a.5.5 0 0 1-.988.154l-.05-.318c-.252-1.588-.685-4.314-.188-7.051a.501.501 0 0 1 .582-.402ZM276.962 111.387a.499.499 0 0 1-.194.68c-2.227 1.237-3.067 2.39-3.672 3.419a.5.5 0 1 1-.862-.507c.682-1.159 1.643-2.45 4.049-3.787a.499.499 0 0 1 .679.195Z" clip-rule="evenodd"/><path fill="#000" fill-rule="evenodd" d="M276.151 105.919a.5.5 0 0 1 .489.511l-.021.96c-.044 1.996-.088 3.989-.108 5.982a.5.5 0 0 1-1-.009c.02-2.001.064-4 .108-5.996l.021-.959a.5.5 0 0 1 .511-.489ZM280.965 103.538a.5.5 0 0 1 .5.5v5.726a.5.5 0 0 1-1 0v-5.726a.5.5 0 0 1 .5-.5Z" clip-rule="evenodd"/><path fill="#000" fill-rule="evenodd" d="M279.821 109.25a.5.5 0 0 1 .5-.5 6.35 6.35 0 0 1 1.986.316c.677.229 1.357.613 1.824 1.235a.5.5 0 1 1-.8.6c-.305-.407-.783-.698-1.344-.888a5.384 5.384 0 0 0-1.666-.263.5.5 0 0 1-.5-.5Z" clip-rule="evenodd"/><path fill="#000" fill-rule="evenodd" d="M289.17 104.459a.5.5 0 0 1-.005.707l-1.412 1.398c-1.098 1.088-2.198 2.179-3.309 3.256a9.893 9.893 0 0 1-.992.859.5.5 0 1 1-.6-.8c.319-.239.596-.486.896-.777 1.106-1.073 2.2-2.158 3.297-3.244.472-.468.944-.936 1.418-1.403a.5.5 0 0 1 .707.004ZM290.582 110.761a.5.5 0 0 1 .003.707c-.383.387-.767.766-1.149 1.143-.829.818-1.648 1.625-2.425 2.48a1.45 1.45 0 0 0-.248.409.501.501 0 0 1-.915-.404c.1-.226.224-.458.423-.677.796-.876 1.647-1.716 2.486-2.543.377-.373.752-.742 1.118-1.112a.5.5 0 0 1 .707-.003Z" clip-rule="evenodd"/><path fill="#000" fill-rule="evenodd" d="M286.963 105.404a.5.5 0 0 1 .68.193c.338.607.489 1.21.638 1.808l.025.101c.132.528.248 1.045.362 1.555.193.864.382 1.709.639 2.553a.498.498 0 0 0 .023.062l.005.011a.5.5 0 0 1-.357.933c-.41-.137-.565-.509-.627-.715-.267-.872-.473-1.791-.673-2.686-.113-.502-.223-.996-.342-1.47l-.016-.063c-.157-.629-.279-1.114-.551-1.602a.5.5 0 0 1 .194-.68ZM286.197 114.23a.5.5 0 0 1 .596.379c.521 2.342.705 4.082-.018 6.07a.499.499 0 1 1-.94-.342c.623-1.713.491-3.22-.018-5.511a.5.5 0 0 1 .38-.596ZM288.866 119.821a.5.5 0 0 1 .571.417c.241 1.552-.054 3.323-.486 4.928-.387 1.44-.899 2.794-1.276 3.795l-.13.344a.5.5 0 0 1-.936-.351l.13-.347c.379-1.003.872-2.312 1.246-3.701.421-1.564.672-3.171.464-4.514a.5.5 0 0 1 .417-.571ZM284.555 126.154a.5.5 0 0 1 .287.646c-.447 1.162-.87 2.056-1.439 2.862-.571.809-1.272 1.507-2.252 2.301a.5.5 0 1 1-.629-.777c.937-.759 1.564-1.392 2.064-2.1.5-.71.888-1.517 1.322-2.645a.501.501 0 0 1 .647-.287ZM283.07 135.92a.5.5 0 0 1-.262.657c-1.094.469-1.913.81-2.603 1.097-1.302.542-2.142.891-3.498 1.546-.436.211-.75.302-1.193.376a.5.5 0 0 1-.164-.987 2.94 2.94 0 0 0 .922-.289c1.381-.667 2.255-1.031 3.576-1.581.689-.287 1.499-.624 2.566-1.081a.5.5 0 0 1 .656.262Z" clip-rule="evenodd"/><path fill="#000" fill-rule="evenodd" d="M271.012 137.942a.5.5 0 0 1 .561-.43c.893.118 1.773.325 2.625.525l.283.066c.95.221 1.868.423 2.794.5a.5.5 0 0 1-.083.997c-1.007-.084-1.989-.302-2.938-.523a121.46 121.46 0 0 1-.281-.066c-.859-.201-1.691-.396-2.531-.507a.5.5 0 0 1-.43-.562Z" clip-rule="evenodd"/><path fill="#000" fill-rule="evenodd" d="M271.243 135.52a.5.5 0 0 1 .566.424c.037.256.071.509.106.761.068.498.135.989.214 1.483a.499.499 0 1 1-.987.158 67.015 67.015 0 0 1-.22-1.52c-.034-.249-.068-.497-.103-.741a.5.5 0 0 1 .424-.565ZM270.417 113.309a.5.5 0 0 1 .054.705c-.693.809-1.314 2.323-1.727 4.008-.41 1.672-.592 3.413-.471 4.624a.499.499 0 1 1-.995.1c-.136-1.363.068-3.225.495-4.962.423-1.726 1.089-3.429 1.939-4.421a.5.5 0 0 1 .705-.054ZM266.214 111.963a.5.5 0 0 1 .199.678c-1.518 2.784-2.582 6.013-2.512 9.079a.5.5 0 0 1-1 .022c-.075-3.296 1.064-6.701 2.634-9.579a.5.5 0 0 1 .679-.2ZM271.158 110.702a.499.499 0 0 1-.011.707c-.207.201-.415.404-.623.609-.681.666-1.373 1.344-2.096 1.981a.501.501 0 0 1-.661-.751c.701-.618 1.367-1.27 2.044-1.932l.64-.625a.5.5 0 0 1 .707.011Z" clip-rule="evenodd"/><path fill="#000" fill-rule="evenodd" d="M270.929 105.019a.5.5 0 0 1 .5.5c0 .986-.038 1.978-.075 2.959-.017.451-.034.9-.047 1.345l-.001.019c-.007.265-.01.345.033.473a.5.5 0 0 1-.949.316c-.101-.302-.092-.551-.085-.777l.002-.061c.014-.462.031-.921.049-1.376.036-.971.073-1.931.073-2.898a.5.5 0 0 1 .5-.5Z" clip-rule="evenodd"/><path fill="#000" fill-rule="evenodd" d="M269.614 110.648a.5.5 0 0 1 .624-.332c1.03.314 1.952.54 2.845.759l.155.038c.939.23 1.853.458 2.808.777a.499.499 0 1 1-.316.948c-.912-.303-1.79-.523-2.73-.754a51.383 51.383 0 0 1-3.054-.812.5.5 0 0 1-.332-.624ZM284.069 103.361a.501.501 0 0 1 .146.692c-.335.513-.669 1.024-1.004 1.534-.634.966-1.266 1.93-1.89 2.903a.5.5 0 1 1-.841-.54c.626-.977 1.263-1.949 1.899-2.918.334-.509.667-1.017.998-1.525a.501.501 0 0 1 .692-.146ZM277.615 101.687a.5.5 0 0 1-.218.673c-.798.408-1.6.803-2.399 1.197-1.644.81-3.277 1.614-4.848 2.522a.5.5 0 0 1-.501-.866c1.6-.924 3.285-1.754 4.946-2.572.792-.391 1.578-.778 2.347-1.171a.5.5 0 0 1 .673.217ZM283.642 102.617a.499.499 0 0 1-.164.688c-1.129.696-2.293 1.337-3.443 1.971l-.737.407c-.307.17-.618.348-.934.529-.919.526-1.876 1.074-2.862 1.501a.5.5 0 1 1-.398-.917c.932-.404 1.817-.91 2.722-1.429a81.01 81.01 0 0 1 1.733-.97c1.15-.634 2.288-1.262 3.395-1.943a.5.5 0 0 1 .688.163ZM266.361 122.003a.5.5 0 0 1 .5.5c0 .849.063 1.698.127 2.569l.001.01c.064.862.129 1.745.129 2.632a.5.5 0 0 1-1 0c0-.847-.063-1.697-.127-2.568l-.001-.008c-.064-.862-.129-1.746-.129-2.635a.5.5 0 0 1 .5-.5Z" clip-rule="evenodd"/><path fill="#000" fill-rule="evenodd" d="M265.543 127.48a.5.5 0 0 1 .606-.364c1.189.297 2.272.541 3.595.839.665.149 1.392.313 2.222.503a.5.5 0 1 1-.223.975c-.82-.188-1.541-.35-2.205-.5-1.33-.299-2.431-.547-3.631-.847a.5.5 0 0 1-.364-.606Z" clip-rule="evenodd"/><path fill="#000" fill-rule="evenodd" d="M267.154 127.029a.5.5 0 0 1 .019.707c-.916.966-1.835 1.933-2.763 2.892-.074.076-.15.157-.228.24-.33.35-.699.741-1.137 1.05a.5.5 0 1 1-.576-.817c.347-.245.63-.544.953-.886.086-.091.176-.186.27-.283.924-.954 1.839-1.918 2.755-2.884a.5.5 0 0 1 .707-.019Z" clip-rule="evenodd"/><path fill="#000" fill-rule="evenodd" d="M262.006 131.307a.5.5 0 0 1 .569-.42c1.046.158 1.938.336 2.898.528l.079.016c.938.188 1.948.391 3.247.607a.5.5 0 0 1-.164.986 94.053 94.053 0 0 1-3.277-.612l-.082-.016a56.978 56.978 0 0 0-2.851-.52.5.5 0 0 1-.419-.569ZM272.824 133.446a.5.5 0 0 1 .608-.361c1.326.336 2.675.428 4.084.5a.5.5 0 1 1-.051.999c-1.408-.072-2.847-.166-4.279-.53a.5.5 0 0 1-.362-.608Z" clip-rule="evenodd"/><path fill="#000" fill-rule="evenodd" d="M267.095 131.62a.501.501 0 0 1 .699.11c.726.997 1.394 2.046 2.053 3.08.303.475.603.946.906 1.408.081.123.148.232.214.338.085.139.168.272.272.423.166.241.328.433.504.565a.5.5 0 1 1-.6.8c-.303-.228-.538-.522-.728-.798-.106-.154-.223-.342-.327-.508-.064-.103-.123-.198-.171-.271-.319-.487-.628-.971-.934-1.452-.65-1.02-1.29-2.024-1.997-2.996a.5.5 0 0 1 .109-.699ZM262.304 131.066a.5.5 0 0 1 .705.054 182.632 182.632 0 0 1 3.433 4.174c.331.411.649.806.95 1.177a.5.5 0 0 1-.776.63c-.306-.376-.627-.775-.96-1.189-1.058-1.313-2.237-2.776-3.407-4.141a.5.5 0 0 1 .055-.705Z" clip-rule="evenodd"/><path fill="#000" fill-rule="evenodd" d="M265.475 136.39a.5.5 0 0 1 .509-.49c.943.018 1.852.257 2.7.491l.176.049c.801.221 1.547.428 2.303.491a.5.5 0 0 1-.083.997c-.854-.072-1.688-.303-2.469-.52l-.193-.053c-.855-.236-1.652-.44-2.453-.455a.5.5 0 0 1-.49-.51ZM273.027 124.147a.5.5 0 0 1 .696-.125c.343.239.671.465.984.681 1.788 1.237 3.123 2.16 4.455 3.27a.5.5 0 1 1-.64.768c-1.295-1.079-2.588-1.973-4.378-3.211l-.992-.687a.5.5 0 0 1-.125-.696Z" clip-rule="evenodd"/><path fill="#000" fill-rule="evenodd" d="M274.779 118.081a.501.501 0 0 1 .442.552c-.101.906-.203 1.988-.306 3.076-.156 1.65-.313 3.314-.468 4.403a.5.5 0 0 1-.99-.141c.153-1.073.305-2.683.458-4.306.103-1.094.207-2.195.312-3.142a.5.5 0 0 1 .552-.442Z" clip-rule="evenodd"/><path fill="#000" fill-rule="evenodd" d="M279.752 115.697a.5.5 0 0 1-.088.702c-.457.355-1.412 1.034-2.414 1.746l-.443.315c-1.17.832-2.31 1.649-2.793 2.048a.5.5 0 0 1-.637-.772c.519-.428 1.697-1.271 2.851-2.091l.442-.315c1.009-.716 1.942-1.379 2.38-1.72a.5.5 0 0 1 .702.087Z" clip-rule="evenodd"/><path fill="#000" fill-rule="evenodd" d="M277.26 115.61a.5.5 0 0 1 .69-.157c1.142.717 2.374 1.284 3.63 1.861.516.238 1.036.477 1.555.729.143.069.296.134.465.207l.285.122c.272.119.572.261.831.434a.5.5 0 1 1-.554.832 4.57 4.57 0 0 0-.679-.35l-.244-.105c-.184-.079-.377-.161-.541-.241-.478-.232-.973-.459-1.475-.69-1.279-.589-2.605-1.199-3.805-1.953a.5.5 0 0 1-.158-.689ZM283.134 124.504a.5.5 0 0 1-.181.683c-.251.146-.769.46-1.401.842-1.472.891-3.557 2.153-4.289 2.519a.5.5 0 0 1-.447-.895c.696-.348 2.664-1.539 4.123-2.423.666-.403 1.226-.742 1.511-.907a.5.5 0 0 1 .684.181Z" clip-rule="evenodd"/><path fill="#000" fill-rule="evenodd" d="M283.326 117.834a.5.5 0 0 1 .379.597c-.254 1.143-.445 2.288-.638 3.448l-.001.006c-.193 1.154-.387 2.323-.648 3.494a.5.5 0 1 1-.976-.217c.254-1.142.445-2.287.638-3.448l.002-.006c.192-1.154.387-2.323.647-3.494a.5.5 0 0 1 .597-.38ZM279.91 117.703a.5.5 0 0 1 .386.593l-.125.594c-.154.737-.309 1.478-.477 2.216l-.204.88c-.128.551-.255 1.098-.374 1.65l-.019.086-.009.047c-.002.013-.004.024-.004.053a.5.5 0 1 1-1 0 1.44 1.44 0 0 1 .055-.396c.12-.56.251-1.122.38-1.678.068-.29.135-.578.2-.864.166-.729.319-1.459.473-2.194l.126-.601a.5.5 0 0 1 .592-.386Z" clip-rule="evenodd"/><path fill="#000" fill-rule="evenodd" d="M279.311 123.643a.5.5 0 0 1-.194.679c-.487.271-1.004.505-1.496.728-.153.069-.303.136-.449.204l-.457.215c-.5.236-1.023.483-1.556.685a.5.5 0 1 1-.355-.935c.492-.187.966-.41 1.458-.643.161-.076.324-.153.49-.229.163-.076.325-.149.484-.221.483-.219.947-.429 1.395-.678a.5.5 0 0 1 .68.195ZM277.108 117.325a.5.5 0 0 1 .671-.223l.002.001c1.022.511 1.523.761 2.791 1.268a.5.5 0 0 1-.372.929c-1.305-.522-1.833-.786-2.868-1.304a.5.5 0 0 1-.224-.671Z" clip-rule="evenodd"/><path fill="#000" fill-rule="evenodd" d="M284.744 118.533a.5.5 0 0 1-.452.543 60.725 60.725 0 0 1-4.936.227.5.5 0 0 1 0-1c1.528 0 3.51-.101 4.845-.223a.5.5 0 0 1 .543.453ZM277.519 123.544a.5.5 0 0 1 .602-.371l.876.211c.684.165 1.362.329 2.048.481l.359.081c.639.144 1.245.28 1.863.342a.5.5 0 0 1-.1.995c-.684-.068-1.358-.221-1.996-.365l-.343-.077a108.17 108.17 0 0 1-2.077-.488l-.861-.207a.5.5 0 0 1-.371-.602Z" clip-rule="evenodd"/><path fill="#000" fill-rule="evenodd" d="M283.063 122.029a.5.5 0 0 1-.594.383 785.373 785.373 0 0 1-3.552-.772.5.5 0 1 1 .216-.977c1.178.26 2.358.516 3.546.772a.5.5 0 0 1 .384.594Zm-1.747-4.987a.5.5 0 0 1-.271.653 65.32 65.32 0 0 1-2.13.837.5.5 0 0 1-.348-.937 64.749 64.749 0 0 0 2.096-.824.5.5 0 0 1 .653.271ZM280.204 126.672a.5.5 0 0 1-.662.248l-3.413-1.552a.5.5 0 0 1 .414-.91l3.412 1.552a.5.5 0 0 1 .249.662ZM276.504 136.352a.5.5 0 0 1-.573.413l-3.709-.602a.5.5 0 1 1 .16-.987l3.709.602a.499.499 0 0 1 .413.574Zm-7.292-1.515a.5.5 0 0 1-.559.432l-3.86-.494a.5.5 0 0 1 .127-.992l3.86.494a.5.5 0 0 1 .432.56ZM286.398 108.248a.5.5 0 0 1-.61.357 34.734 34.734 0 0 1-2.239-.671 35.619 35.619 0 0 0-1.52-.468.5.5 0 1 1 .266-.964c.546.151 1.051.315 1.564.481l.22.072c.592.191 1.214.387 1.962.583a.499.499 0 0 1 .357.61ZM269.654 130.392a.5.5 0 0 1-.592.388c-.75-.157-1.41-.307-2.056-.455l-.138-.031c-.6-.137-1.191-.272-1.841-.411a.5.5 0 1 1 .208-.978c.658.14 1.256.277 1.855.414l.138.032c.646.147 1.299.295 2.039.45a.5.5 0 0 1 .387.591Zm.926-4.899a.5.5 0 0 1-.594.383l-3.346-.724a.5.5 0 1 1 .212-.977l3.345.724c.27.058.442.324.383.594ZM268.589 119.277a.5.5 0 0 1-.592.387l-4.698-.985a.5.5 0 1 1 .205-.979l4.698.985a.5.5 0 0 1 .387.592Zm.443-2.822a.5.5 0 0 1-.596.381l-3.86-.847a.5.5 0 0 1 .214-.977l3.86.847c.27.06.441.326.382.596ZM276.412 109.554a.5.5 0 0 1-.592.388l-5.412-1.123a.5.5 0 1 1 .203-.979l5.413 1.123a.5.5 0 0 1 .388.591Zm-2.746 4.329a.5.5 0 0 1-.643.293l-3.586-1.345a.5.5 0 1 1 .351-.936l3.586 1.345a.5.5 0 0 1 .292.643ZM279.505 105.541a.5.5 0 0 1-.617.342 102.48 102.48 0 0 1-1.983-.584l-3.302-.972a.5.5 0 0 1 .262-.964 36.1 36.1 0 0 1 2.326.668c.307.096.647.202 1.051.325l1.924.566a.5.5 0 0 1 .339.619Z" clip-rule="evenodd"/><path fill="#fff" d="M158.681 94.841V35.21l36.353-15.944 51.659 10.204v57.4l-33.483 18.495-12.755-2.233-.46-18.156-27.682 12.9-13.632-3.035Z"/><path fill="#000" fill-rule="evenodd" d="M171.551 59.812a.5.5 0 0 1 .5.5V83.8l.001 14.882a.5.5 0 0 1-1 0l-.001-14.881c0-6.523-.001-12.763 0-23.489a.5.5 0 0 1 .5-.5ZM200.162 67.305a.5.5 0 0 1 .5.5v21.638l.001 14.149a.5.5 0 1 1-1 0l-.001-14.148V67.805a.5.5 0 0 1 .5-.5ZM158.875 33.837a.5.5 0 0 1 .5.5l-.001 43.351v16.923a.5.5 0 1 1-1 0V77.686l.001-43.35a.5.5 0 0 1 .5-.5ZM213.786 35.97a.5.5 0 0 1 .5.5v50.123l.001 19.568a.5.5 0 0 1-1 0l-.001-19.567V36.47a.5.5 0 0 1 .5-.5ZM246.483 25.07a.5.5 0 0 1 .5.5v61.587a.5.5 0 1 1-1 0V25.57a.5.5 0 0 1 .5-.5Z" clip-rule="evenodd"/><path fill="#000" fill-rule="evenodd" d="M197.414 18.007a.5.5 0 0 1-.29.645c-9.667 3.667-32.265 13.36-41.506 17.323l-1.115.479a.5.5 0 0 1-.394-.92l1.123-.48c9.237-3.963 31.849-13.662 41.538-17.337a.499.499 0 0 1 .644.29ZM252.386 26.038a.5.5 0 0 1-.239.666 10380.293 10380.293 0 0 1-43.6 20.45.5.5 0 1 1-.422-.907c18.242-8.509 27.177-12.712 43.596-20.448a.5.5 0 0 1 .665.24ZM249.31 85.284a.5.5 0 0 1-.209.675c-7.967 4.201-14.53 7.855-20.283 11.058-7.74 4.309-14.013 7.803-20.271 10.714a.5.5 0 1 1-.422-.907c6.235-2.901 12.454-6.364 20.157-10.653 5.749-3.202 12.326-6.864 20.353-11.097a.5.5 0 0 1 .675.21Z" clip-rule="evenodd"/><path fill="#000" fill-rule="evenodd" d="M190.097 17.695a.5.5 0 0 1 .583-.4c7.194 1.337 21.787 4.177 36.197 6.98 8.374 1.63 16.686 3.247 23.448 4.55a.5.5 0 1 1-.19.983c-6.767-1.305-15.082-2.923-23.458-4.553-14.405-2.803-28.989-5.64-36.18-6.977a.5.5 0 0 1-.4-.583Zm-37.089 15.588a.5.5 0 0 1 .583-.4c2.552.473 6.101 1.148 10.31 1.95 15.262 2.906 39.2 7.465 55.75 9.998a.5.5 0 1 1-.151.988c-16.571-2.536-40.542-7.1-55.802-10.007-4.202-.8-7.744-1.475-10.289-1.946a.5.5 0 0 1-.401-.583Zm16.686 31.377a.5.5 0 0 1 .573-.414c8.034 1.298 13.865 2.367 20.034 3.499 4.419.81 9.013 1.652 14.713 2.633a.5.5 0 0 1-.169.985 1282.39 1282.39 0 0 1-14.743-2.638c-6.155-1.129-11.963-2.194-19.994-3.492a.5.5 0 0 1-.414-.573ZM158.391 94.48a.5.5 0 0 1 .614-.352 205.462 205.462 0 0 0 11.895 2.856.5.5 0 1 1-.204.98 206.609 206.609 0 0 1-11.953-2.871.5.5 0 0 1-.352-.614ZM196.954 101.735a.5.5 0 0 1 .614-.352c6.364 1.727 15.793 3.579 22.301 4.699a.5.5 0 1 1-.17.985c-6.518-1.121-15.983-2.979-22.393-4.719a.5.5 0 0 1-.352-.613Z" clip-rule="evenodd"/><path fill="#000" fill-rule="evenodd" d="M226.767 37.915a.5.5 0 0 1 .36.608L214.652 86.93a.5.5 0 0 1-.968-.25l12.474-48.406a.5.5 0 0 1 .609-.36Zm-4.257 1.913a.5.5 0 0 1 .36.609l-8.218 31.888a.5.5 0 0 1-.968-.25l8.217-31.888a.5.5 0 0 1 .609-.36Zm-3.754 1.79a.5.5 0 0 1 .359.609l-5.126 19.894a.5.5 0 0 1-.969-.25l5.127-19.894a.5.5 0 0 1 .609-.359ZM239.123 32.175a.5.5 0 0 1 .359.609l-17.586 68.241a.5.5 0 1 1-.968-.249l17.586-68.242a.5.5 0 0 1 .609-.36Zm-4.175 1.594a.5.5 0 0 1 .359.61l-17.832 69.197a.5.5 0 1 1-.968-.249l17.832-69.198a.5.5 0 0 1 .609-.36Zm-3.786 1.914a.5.5 0 0 1 .359.608l-17.188 66.697a.5.5 0 1 1-.968-.249l17.188-66.697a.5.5 0 0 1 .609-.36ZM246.764 30.261a.5.5 0 0 1 .36.61l-16.765 65.052a.5.5 0 1 1-.968-.25l16.764-65.052a.5.5 0 0 1 .609-.36Zm-3.293 0a.5.5 0 0 1 .359.61l-17.257 66.965a.5.5 0 1 1-.968-.25l17.257-66.965a.5.5 0 0 1 .609-.36Zm4.016 11.8a.5.5 0 0 1 .36.608l-13.149 51.022a.5.5 0 1 1-.968-.25l13.148-51.021a.5.5 0 0 1 .609-.36ZM246.552 60.38a.5.5 0 0 1 .359.608l-7.77 30.151a.5.5 0 1 1-.968-.25l7.77-30.15a.5.5 0 0 1 .609-.36Zm0 13.887a.5.5 0 0 1 .359.61l-3.615 14.03a.5.5 0 0 1-.969-.25l3.616-14.03a.5.5 0 0 1 .609-.36ZM183.686 66.782a.5.5 0 0 1-.241.665l-11.824 5.526a.499.499 0 1 1-.423-.906l11.824-5.526a.499.499 0 0 1 .664.241Zm-6.103-1.17a.5.5 0 0 1-.241.664l-5.721 2.674a.499.499 0 1 1-.423-.906l5.721-2.674a.5.5 0 0 1 .664.242ZM200.588 69.897a.5.5 0 0 1-.241.665l-28.381 13.264a.5.5 0 0 1-.424-.906l28.381-13.264a.5.5 0 0 1 .665.241Zm-6.697-.893a.5.5 0 0 1-.241.665l-21.684 10.134a.5.5 0 0 1-.424-.906l21.685-10.134a.5.5 0 0 1 .664.241Zm-5.047-1.161a.5.5 0 0 1-.242.665l-16.636 7.775a.5.5 0 0 1-.424-.906l16.637-7.775a.5.5 0 0 1 .665.24ZM200.864 73.352a.5.5 0 0 1-.241.665L171.966 87.41a.5.5 0 1 1-.423-.906l28.656-13.393a.5.5 0 0 1 .665.241Zm0 3.52a.5.5 0 0 1-.241.665L171.966 90.93a.5.5 0 1 1-.423-.906l28.656-13.393a.5.5 0 0 1 .665.242Zm-.595 4.302a.5.5 0 0 1-.241.664l-28.062 13.115a.5.5 0 1 1-.423-.906l28.062-13.115a.5.5 0 0 1 .664.242Zm0 3.59a.5.5 0 0 1-.241.665l-28.062 13.115a.5.5 0 1 1-.423-.906l28.062-13.115a.5.5 0 0 1 .664.241Z" clip-rule="evenodd"/><defs><radialGradient id="a" cx="0" cy="0" r="1" gradientTransform="rotate(90.994 60.854 149.008) scale(30.0502 64.4718)" gradientUnits="userSpaceOnUse"><stop/><stop offset="1" stop-color="#3E7BFA" stop-opacity="0"/></radialGradient><radialGradient id="b" cx="0" cy="0" r="1" gradientTransform="rotate(90.994 -10.63 137.73) scale(30.0502 64.4718)" gradientUnits="userSpaceOnUse"><stop/><stop offset="1" stop-color="#3E7BFA" stop-opacity="0"/></radialGradient><radialGradient id="c" cx="0" cy="0" r="1" gradientTransform="rotate(90.994 68.319 209.423) scale(30.0502 64.4718)" gradientUnits="userSpaceOnUse"><stop/><stop offset="1" stop-color="#3E7BFA" stop-opacity="0"/></radialGradient></defs></svg>