<svg fill="none" height="43" viewBox="0 0 47 43" width="47" xmlns="http://www.w3.org/2000/svg"><path d="m13.8858 15.3506-9.09706 6.3681c-.5133.1881-1.35995.9821-.6401 2.6531.8998 2.0887 6.02686 12.1621 7.91776 14.0221 1.8908 1.86 2.5793.3509 5.0035 0 2.4243-.3509 6.9019-3.5067 9.0974-4.8487l.0479-.0293c2.1802-1.3325 4.3981-2.6882 4.1709-3.672-.2288-.9911-5.3546-10.3182-5.5834-11.3093-.2288-.991-2.8867-3.6797-4.5487-4.5486-1.3296-.6952-4.8639.9476-6.3682 1.3646z" fill="#01c9cc"/><path d="m15.251 25.8131-2.7292-4.5487c.9098-.4548 3.0022-1.4556 4.0938-1.8195 1.0917-.3638 2.2744 2.5776 2.7293 4.0939z" fill="#fff"/><path d="m13.4316 27.1777-2.7292-4.5487c-2.27436.9098-2.72923 2.2744-2.27436 3.1841.36389.7278 1.3646 2.4259 1.81946 3.1841z" fill="#fff"/><path d="m17.9803 34.4556-3.184-5.0036-2.7292 2.2744c.4548.9097 1.6374 2.9111 2.7292 3.6389 1.0917.7278 2.5776-.3032 3.184-.9097z" fill="#fff"/><path d="m20.2547 33.5458-3.6391-5.0035 4.5488-2.2743c.1516.3032.7278 1.3646 1.8195 3.184 1.0916 1.8195-1.3646 3.4873-2.7292 4.0938z" fill="#fff"/><g clip-rule="evenodd" fill="#000" fill-rule="evenodd"><path d="m20.1082 13.8283c1.719.3683 2.9397 1.4729 3.6663 2.6835l.0019.0031.0311.0516.0961.1598c.0839.1399.2067.345.362.606.3106.522.7516 1.2678 1.2734 2.1635 1.0432 1.791 2.4102 4.1832 3.7033 6.5848 1.2648 2.3488 1.1882 3.9605.7019 5.0141-.2387.5171-.5649.8737-.8328 1.1015-.134.114-.2543.1965-.3434.2517-.0446.0276-.0816.0485-.1089.0631-.0116.0063-.0215.0114-.0295.0154l-.0129.0078-.076.0452c-.0662.0394-.1627.0966-.2841.168-.2427.1428-.5853.3427-.9851.5711-.7982.4561-1.829 1.0289-2.7484 1.4886-.1945.0973-.4311.0184-.5283-.1761-.0973-.1945-.0184-.431.1761-.5283.9-.45 1.9161-1.0144 2.7099-1.468.3963-.2265.736-.4246.9765-.5661.1203-.0707.2157-.1273.281-.1661l.0745-.0444.0251-.015c.0111-.0067.0229-.013.0347-.0186m0 0c.0023-.0011.0068-.0035.0139-.0073.014-.0075.037-.0204.067-.039.0602-.0372.1477-.0968.2477-.1819.2001-.1702.4468-.439.628-.8316.3535-.7659.5043-2.1108-.6803-4.3107-1.2874-2.391-2.6496-4.7749-3.6904-6.5618-.5203-.8933-.9601-1.6369-1.2697-2.1572-.1548-.2601-.277-.4643-.3605-.6034l-.0954-.1587-.0321-.0533-.0005-.0007-.0007-.0012c-.6381-1.0634-1.6916-2.0055-3.1564-2.3194-1.4629-.3135-3.4047-.0148-5.8468 1.5392-.1834.1168-.4268.0627-.5436-.1208-.1167-.1834-.0626-.4268.1208-.5436 2.5615-1.63 4.7135-2.0136 6.4346-1.6448m8.1644 17.9962c-.0011.0006-.0019.0009-.0017.0008l.0007-.0003z"/><path d="m9.69937 29.2859c-.10699-.1893-.04025-.4295.14908-.5365l3.38985-1.9157c.1893-.107.4295-.0402.5365.1491s.0403.4295-.1491.5365l-3.3898 1.9157c-.1893.107-.42953.0402-.53653-.1491zm5.53963-3.1018c-.1052-.1903-.0362-.4299.1542-.5351 1.5333-.8475 2.9828-1.6425 4.2178-2.3187.1908-.1045.4301-.0345.5345.1562.1045.1908.0345.4301-.1563.5345-1.2346.6761-2.6831 1.4705-4.2151 2.3173-.1903.1052-.4299.0362-.5351-.1542zm7.4-4.0624c-.1046-.1905-.035-.4298.1555-.5345l.0004-.0003 2.7282-1.5001.0006-.0003c.1904-.1047.4297-.0354.5346.155.1049.1903.0357.4296-.1545.5347-.8838.488-1.7966.9895-2.7299 1.5011-.0001.0001-.0003.0001-.0004.0002-.1906.1045-.4299.0348-.5345-.1558z"/><path d="m11.2694 31.6379c-.1066-.1893-.0398-.429.1492-.5359 1.0479-.5927 2.1138-1.1892 3.1867-1.7854.1899-.1055.4293-.0374.5351.1523.1059.1897.0381.4292-.1514.5354l-.0012.0007-3.1815 1.7825-.0013.0007c-.1895.1062-.4291.0389-.5356-.1503zm5.4567-3.0454c-.105-.1905-.0357-.43.1547-.5349 1.5283-.8423 2.8705-1.5785 4.0948-2.2489.1907-.1045.43-.0345.5345.1562.1044.1908.0345.4301-.1563.5345-1.2239.6702-2.5654 1.406-4.0928 2.2479-.1905.105-.43.0357-.5349-.1548zm2.2745-11.6876c-.1052-.1903-.0362-.4299.1541-.5351.1928-.1066.3837-.2121.5717-.3161.7969-.4407 1.5417-.8525 2.1583-1.1917.1905-.1048.4299-.0353.5348.1553.1048.1905.0353.4299-.1553.5348-.6154.3385-1.3587.7495-2.155 1.1898-.1885.1043-.38.2102-.5734.3171-.1904.1052-.4299.0362-.5352-.1541zm1.8195 2.7292c-.1052-.1903-.0362-.4299.1541-.5351.1927-.1065.3835-.212.5714-.3159.797-.4408 1.5418-.8526 2.1585-1.1919.1906-.1048.43-.0353.5348.1553.1048.1905.0353.43-.1552.5348-.6155.3385-1.359.7497-2.1555 1.1901-.1883.1042-.3797.2099-.573.3168-.1903.1052-.4299.0362-.5351-.1541zm3.184 4.9561c-.1051-.1903-.0361-.4299.1542-.5351 0 0 .0001 0 .0001-.0001.0002-.0001.0004-.0002.0007-.0003.1926-.1065.3833-.212.5711-.3158.7965-.4405 1.541-.8521 2.1574-1.1912.0002-.0001.0004-.0002.0006-.0003.1904-.1048.4297-.0354.5346.1549s.0358.4297-.1544.5348l-.0006.0003-2.7277 1.5065c-.0002.0001-.0005.0003-.0008.0004l-.0001.0001c-.1904.1051-.4299.0361-.5351-.1542zm1.3647 2.4646c-.1052-.1904-.0363-.4299.1541-.5352.1928-.1066.3838-.2122.5719-.3162.7968-.4406 1.5415-.8524 2.158-1.1915.1906-.1048.43-.0353.5348.1552.1048.1906.0353.43-.1552.5348-.6158.3387-1.3597.75-2.1565 1.1907-.1881.104-.379.2096-.572.3162-.1903.1053-.4299.0363-.5351-.154zm1.3646 3.0455c-.1052-.1903-.0363-.4299.1541-.5351.1929-.1067.3839-.2123.572-.3163.7967-.4406 1.5414-.8524 2.1579-1.1915.1906-.1048.43-.0353.5348.1552.1048.1906.0353.43-.1552.5348-.6157.3387-1.3593.7499-2.156 1.1904-.1882.1041-.3793.2098-.5725.3166-.1903.1052-.4299.0362-.5351-.1541z"/><path d="m10.4895 22.296c.1829-.1176.4265-.0647.5441.1183.4959.7714.928 1.5047 1.3609 2.2463.0474.0812.0948.1624.1422.2438.3871.6638.7804 1.3383 1.2297 2.0642.1145.185.0574.4276-.1275.5421-.185.1145-.4276.0573-.5421-.1276-.4551-.7353-.8537-1.4189-1.2404-2.0819-.0475-.0815-.0948-.1627-.142-.2436-.4324-.7406-.8572-1.4614-1.3432-2.2175-.1176-.1829-.0647-.4265.1183-.5441zm4.256 7.0681c.1873-.1104.4287-.048.5391.1393l2.7994 4.7504c.1104.1874.048.4288-.1393.5392-.1874.1104-.4288.048-.5392-.1393l-2.7994-4.7505c-.1104-.1873-.048-.4287.1394-.5391z"/><path d="m12.3098 20.9317c.1829-.1176.4265-.0646.5441.1183.9385 1.4598 1.9004 2.9906 2.8695 4.5542.1145.1848.0576.4276-.1273.5421-.1848.1146-.4276.0576-.5421-.1272-.9675-1.561-1.927-3.088-2.8625-4.5432-.1176-.1829-.0646-.4266.1183-.5442zm4.5561 7.2781c.1855-.1135.4279-.0551.5414.1304.4427.7238.9831 1.5559 1.5291 2.3967l.0048.0073c.546.8408 1.0974 1.6899 1.5537 2.4361.1134.1855.055.4279-.1305.5414-.1855.1134-.4279.055-.5414-.1305-.4496-.7353-.9947-1.5749-1.5423-2.418l-.0087-.0135c-.5431-.8363-1.0882-1.6757-1.5365-2.4085-.1135-.1855-.0551-.4279.1304-.5414z"/><path d="m17.1098 14.8675c1.3404.3078 2.4711 1.3241 3.4817 3.0085 2.2609 3.7681 3.3112 5.6687 4.6071 8.0139.2708.4901.5523.9996.8579 1.5497.8913 1.6042 1.3756 2.9873 1.1534 4.238-.2269 1.2768-1.1638 2.2941-2.7972 3.2274-.8625.4928-1.5831.9116-2.2303 1.2878-1.7329 1.0072-2.9398 1.7087-4.9365 2.707-2.0216 1.0108-3.5021.897-4.6246.213-1.0409-.6343-1.7041-1.7262-2.2063-2.5531-.0168-.0276-.0333-.0549-.0497-.0818l-.0005-.0008-.1111-.183c-.0733-.1206-.182-.2992-.32324-.5307-.28254-.4632-.69551-1.1384-1.2171-1.9864-1.04317-1.696-2.52071-4.083-4.25794-6.8464-.76104-1.2106-1.04539-2.5623-.80253-3.81.24399-1.2535 1.01504-2.3724 2.30487-3.1096 2.19318-1.2534 3.73125-2.2 5.07564-3.0275.6052-.3724 1.1712-.7208 1.74-1.062 1.5638-.9384 3.0003-1.3609 4.3364-1.054zm-.1763.7675c-1.0471-.2405-2.2652.0679-3.7549.9618-.5573.3344-1.1175.6791-1.7193 1.0494-1.3487.8301-2.90663 1.7889-5.11078 3.0486-1.09791.6274-1.72391 1.5554-1.9226 2.5763-.19981 1.0265.02753 2.1766.69624 3.2404 1.73885 2.766 3.21776 5.1552 4.262 6.8529.52213.8489.93564 1.5249 1.21864 1.9888.1415.232.2503.4109.3239.5319l.1113.1834.0134.022c.5285.8688 1.105 1.8168 1.9797 2.3498.8351.5088 2.0186.6771 3.8626-.2449 1.9732-.9865 3.1544-1.6731 4.8783-2.675.6492-.3774 1.3755-.7995 2.25-1.2992 1.5507-.8861 2.2457-1.7429 2.4125-2.6814.1714-.9647-.1888-2.138-1.0664-3.7178-.3064-.5515-.5884-1.0618-.8595-1.5523-1.2948-2.3432-2.339-4.2329-4.5924-7.9885-.9582-1.5971-1.9397-2.4066-2.9827-2.6462z"/><path d="m16.1595 19.0576c.7543.0642 1.3988.5218 1.9509 1.3806.5703.8872 1.2571 1.9723 1.9482 3.0804.1151.1845.0588.4274-.1258.5425-.1845.1151-.4274.0588-.5425-.1258-.6894-1.1054-1.3743-2.1875-1.9424-3.0712-.4697-.7307-.9234-.9851-1.3553-1.0218-.4623-.0394-1.0077.1584-1.675.5736-.4274.2659-1.0186.6252-1.693 1.0311-.1863.1122-.4283.052-.5404-.1343-.1122-.1863-.052-.4283.1343-.5404.6736-.4054 1.2607-.7623 1.683-1.025.7056-.4391 1.4341-.7514 2.158-.6897zm-5.2824 3.0366c.1113.1869.05.4285-.1369.5398-.5181.3085-1.04206.6196-1.54705.9189-.61128.3623-.80643.8023-.82502 1.2276-.01993.4559.16273.947.4121 1.363.52763.8704 1.09568 1.8106 1.65047 2.7305.1123.1862.0524.4282-.1338.5405-.1863.1124-.42827.0524-.54059-.1338-.55476-.9198-1.12268-1.8598-1.65006-2.7299l-.00095-.0015c-.2902-.4838-.55331-1.1316-.52395-1.8031.0307-.7024.38014-1.3788 1.21026-1.8708.50464-.2991 1.02817-.6099 1.54569-.9181.1869-.1112.4286-.0499.5398.1369zm10.0823 3.6312c.1857-.1131.428-.0541.541.1317.7564 1.2433 1.4124 2.3533 1.7772 3.0343.4374.8167.7117 1.5365.4562 2.2433-.1255.347-.3648.6509-.6917.941-.3258.2893-.7578.5816-1.2967.901-.5227.3097-.9603.571-1.3486.8029l-.0515.0308c-.1867.1115-.4284.0505-.5399-.1362s-.0506-.4284.1361-.5399l.0509-.0304c.3885-.232.8272-.4941 1.3515-.8047.523-.31.905-.5724 1.1754-.8124.2694-.2392.4085-.4392.4739-.6199.1261-.3488.0314-.7799-.4098-1.6036-.3535-.6598-.9991-1.7532-1.7558-2.9969-.113-.1858-.054-.428.1318-.541zm-9.6173 5.4247c.1864-.1121.4283-.052.5404.1344.5002.8315.9341 1.5537 1.2429 2.068l.4922.82.0005.0009c.0051.0085.0099.0173.0144.0262.2145.4283.5675.8473 1.0253 1.0657.438.2089 1.0177.2572 1.7629-.1292.4355-.2258.852-.4518 1.2652-.6835.1896-.1064.4296-.0389.536.1508s.0388.4297-.1508.5361c-.4197.2353-.8437.4654-1.2879.6957-.945.4901-1.7848.4652-2.4645.1409-.6541-.312-1.1144-.8789-1.3834-1.4101l-.485-.8081c-.3088-.5142-.7426-1.2362-1.2426-2.0674-.1121-.1864-.0519-.4283.1344-.5404z"/></g><path d="m43.1957 2.34805c1.7238.91856 3.8047 2.96984 2.927 5.91748-1.8674 6.27077-12.6933 8.40377-16.2268 5.67147-8.2232 4.8957-11.9755 12.6991-2.6978-2.156-2.8857-.997-6.058-4.58862-2.8495-7.95699 2.5625-2.69019 5.9025-3.295146 9.028-3.409727 3.2884-.120549 6.7247.284875 9.8191 1.933767z" fill="#fff"/><path clip-rule="evenodd" d="m33.3625.0200159c3.3269-.1219639 6.8405.2862311 10.0187 1.9797641.9044.48197 1.9152 1.26647 2.5872 2.33582.6795 1.08129 1.0066 2.44746.5319 4.04154-.99 3.32456-4.3219 5.48696-7.7568 6.47786-1.7291.4988-3.5163.7117-5.1058.6227-1.4643-.082-2.7995-.4227-3.761-1.0702-3.2445 1.9712-5.7463 4.3624-6.9965 5.5572-.2741.262-.488.4664-.6364.5963-.0534.0468-.1056.0904-.1529.1248-.0235.0171-.0521.0366-.0834.054-.0243.0135-.0823.0444-.1586.0566-.0821.0131-.2799.0118-.4049-.1741-.0905-.1346-.0691-.2724-.0645-.3021l.0001-.0003c.0133-.0855.0511-.1659.073-.2108.1016-.2088.3607-.6202.7658-1.2496.1521-.2364.3272-.5071.5261-.8146.8412-1.3004 2.1088-3.2599 3.8678-6.07-1.3761-.5925-2.747-1.7091-3.4732-3.10185-.4068-.78028-.6158-1.65729-.4948-2.57708.1213-.9214.5693-1.85183 1.4195-2.74431 2.6702-2.803347 6.1405-3.415869 9.2987-3.5316441zm9.6483 2.6747841c-3.0106-1.60426-6.3697-2.006917-9.6195-1.887782-3.0929.113386-6.3026.710772-8.7573 3.287812-.7541.7917-1.1127 1.57335-1.2089 2.3039-.0963.73213.0665 1.44691.4123 2.11021.6987 1.33984 2.1251 2.42776 3.4895 2.89916.1134.0391.2027.1278.2427.2409.0399.113.0262.2381-.0373.3398-1.7976 2.8783-3.107 4.9075-3.9886 6.2706 1.4451-1.3224 3.5869-3.1349 6.1511-4.6615.1389-.0827.3143-.0721.4423.0268.7946.6145 2.043.9827 3.5446 1.0667 1.4926.0836 3.191-.1164 4.8435-.5931 3.3283-.9602 6.343-2.9997 7.2203-5.94592.4031-1.35355.1286-2.48684-.4439-3.39774-.5799-.92284-1.4715-1.62326-2.2908-2.05984z" fill="#000" fill-rule="evenodd"/><path d="m30.8645 7.67201c0 1.00486-.8146 1.81947-1.8194 1.81947-1.0049 0-1.8195-.81461-1.8195-1.81947 0-1.00487.8146-1.81947 1.8195-1.81947 1.0048 0 1.8194.8146 1.8194 1.81947z" fill="#01c9cc"/><path clip-rule="evenodd" d="m29.0451 8.70395c.5699 0 1.0319-.46202 1.0319-1.03194 0-.56993-.462-1.03194-1.0319-1.03194-.57 0-1.032.46201-1.032 1.03194 0 .56992.462 1.03194 1.032 1.03194zm0 .78753c1.0048 0 1.8194-.81461 1.8194-1.81947 0-1.00487-.8146-1.81947-1.8194-1.81947-1.0049 0-1.8195.8146-1.8195 1.81947 0 1.00486.8146 1.81947 1.8195 1.81947z" fill="#000" fill-rule="evenodd"/><path d="m40.8723 7.67201c0 1.00486-.8146 1.81947-1.8194 1.81947-1.0049 0-1.8195-.81461-1.8195-1.81947 0-1.00487.8146-1.81947 1.8195-1.81947 1.0048 0 1.8194.8146 1.8194 1.81947z" fill="#01c9cc"/><path clip-rule="evenodd" d="m39.0529 8.70395c.5699 0 1.0319-.46202 1.0319-1.03194 0-.56993-.462-1.03194-1.0319-1.03194-.57 0-1.032.46201-1.032 1.03194 0 .56992.462 1.03194 1.032 1.03194zm0 .78753c1.0048 0 1.8194-.81461 1.8194-1.81947 0-1.00487-.8146-1.81947-1.8194-1.81947-1.0049 0-1.8195.8146-1.8195 1.81947 0 1.00486.8146 1.81947 1.8195 1.81947z" fill="#000" fill-rule="evenodd"/><path clip-rule="evenodd" d="m38.0365 2.48402c.1017.1922.0284.43049-.1638.53224l-7.7327 4.09381-.3685-.69601 7.7327-4.09381c.1922-.10175.4305-.02843.5323.16377z" fill="#000" fill-rule="evenodd"/></svg>