<svg fill="none" height="49" viewBox="0 0 52 49" width="52" xmlns="http://www.w3.org/2000/svg"><path d="m18.0703 13.4308 7.0688-5.65503c-1.7672-1.64939-4.0292-5.30162 1.0604-6.71539 5.0895-1.413765 6.3619 1.53158 6.3619 3.18097h10.9567c-2.1207.35345-7.493 1.48446-7.7757 1.76721-.2828.28275 4.2413 8.01134 4.9482 8.48264-2.1207 1.6493-8.9536-3.8224-12.7239-4.2413-3.181-.35349-6.362 1.4137-9.8964 3.1809z" fill="#fff"/><g clip-rule="evenodd" fill="#000" fill-rule="evenodd"><path d="m23.6072 1.52807c1.8072-1.4514824 4.209-1.868159 6.4163-1.25326.5883.163895 1.2427.438303 1.7967.84325.5543.40512 1.0293.95731 1.2084 1.67773.2174.87455-.0687 1.7471-.5246 2.47043-.4577.72607-1.1131 1.34719-1.725 1.74546-1.1769.7661-2.658 1.05-4.0193.92725-.421-.03796-.8884-.12199-1.3542-.25909-.0086.03124-.0216.06181-.0392.09085-.1015.16674-.319.21963-.4857.11814-.104-.0633-.2112-.12694-.3204-.19176-.9153-.5432-1.97-1.16915-2.4249-2.36952-.5992-1.58135.4185-2.95349 1.4719-3.79948zm.7603.31254c.0689.11248.0717.25915-.0048.37719-.0502.07741-.1006.15431-.1507.23079-.3448.52629-.6767 1.033-.8573 1.55524-.197.56978-.2008 1.12362.1954 1.70439.311.45607.8268.81366 1.4337 1.07199.6036.25694 1.2688.40325 1.8394.45469 1.2309.11099 2.5477-.15008 3.5702-.81565.5348-.3481 1.1144-.89835 1.5126-1.52996.3998-.63437.59-1.30582.4366-1.92295-.1269-.5104-.4713-.93538-.9395-1.27758-.4684-.34237-1.0396-.58544-1.5693-.732995-1.8752-.52239-3.89-.220681-5.4663.884845z"/><path d="m25.45 7.42897c.1206.15347.094.37567-.0595.4963-2.8562 2.24523-4.9735 4.00963-7.094 5.77673-.1499.125-.3728.1047-.4978-.0453-.1249-.1499-.1047-.3728.0453-.4978l.0007-.0006c2.1206-1.7671 4.2444-3.537 7.109-5.78877.1534-.12063.3756-.09402.4963.05944z"/><path d="m23.0053 11.3774c-1.6931.6078-3.349 1.4786-4.7477 2.3528-.1655.1035-.3836.0531-.487-.1124-.1035-.1655-.0532-.3836.1124-.487 1.4288-.8931 3.1306-1.7895 4.8835-2.4187 1.749-.6278 3.574-.99888 5.2392-.81386.194.02155.3338.19626.3122.39026-.0215.1941-.1963.3339-.3903.3123-1.5158-.1684-3.2252.1674-4.9223.7766z"/><path d="m44.5272 4.75492c-3.5037-.51309-7.7169-.51386-11.9658-.51386-.1952 0-.3534-.15824-.3534-.35344s.1582-.35344.3534-.35344h.0184c4.2277 0 8.4899-.00001 12.0499.52131.1931.02829.3268.20779.2985.40093s-.2078.32678-.401.2985z"/><path d="m44.5296 3.88282c.0233.00006.0907.00021.1573.0217.1857.05993.2878.25911.2278.44488-.0544.16877-.2238.26841-.3936.24032-.0132.00013-.0346.00097-.0658.00315-.0695.00485-.1687.01496-.2964.03042-.2541.03081-.6049.08088-1.0226.14554-.8344.12918-1.9256.31495-3.0231.51642-1.0978.20154-2.1984.41813-3.0525.60882-.4277.09549-.7892.18351-1.056.25906-.1088.0308-.1984.05855-.2685.0829.0081.02365.0181.05064.0303.08115.0815.20421.2307.48982.4362.83852.4083.69304 1.0085 1.58474 1.6393 2.47373.6298.88747 1.2853 1.76547 1.8011 2.42907.2582.3321.4797.6084.6447.8046.0828.0985.1488.1736.1965.2244.0213.0226.0363.0376.0458.0466.1443.0936.2023.2812.129.4425-.0808.1777-.2903.2563-.468.1755-.065-.0295-.1154-.0756-.1332-.0919l-.001-.0009c-.0279-.0255-.0578-.0559-.0878-.0878-.0606-.0646-.136-.1509-.2223-.2534-.1732-.2059-.4009-.4901-.6618-.8257-.5222-.6718-1.1838-1.558-1.8195-2.4539-.6346-.89435-1.2484-1.80514-1.6719-2.52397-.2104-.35723-.3816-.6799-.4836-.9351-.05-.12519-.0918-.25453-.1063-.37382-.0116-.09467-.0227-.31645.1578-.46814.0824-.0692.1981-.11612.2826-.14759.1005-.03743.2257-.0766.368-.1169.2856-.08086.6619-.17221 1.0945-.2688.8665-.19346 1.9769-.41188 3.079-.6142 1.1025-.20239 2.2003-.38932 3.0426-.51971.4207-.06513.7802-.11656 1.0457-.14872.1321-.01602.245-.02777.3321-.03385.0432-.00301.0849-.00499.1219-.00488zm-3.9884 9.26108c.0001.0001-.0015-.0011-.0049-.0041.0031.0024.0048.0039.0049.0041zm-4.8367-7.03774c.0002.00021.0005.00347.0003.00914-.0006-.00652-.0005-.00936-.0003-.00914zm8.8313-1.51612c-.0001.00007-.0024.00003-.0064-.00031.0045.00007.0065.00024.0064.00031z"/><path d="m30.3174 3.75014c.1828-.06854.3865.02406.4551.20683.2235.59612-.1784 1.06762-.5303 1.33955-.3733.28842-.8526.49159-1.1737.59039-.6738.20732-1.3241.16745-1.9364.03612-.4606-.09878-.9217-.25539-1.3563-.40299-.1322-.0449-.262-.08897-.3885-.13033-.1855-.06063-.2868-.2602-.2262-.44574.0607-.18555.2602-.28681.4458-.22617.1442.04712.2853.09501.4244.1422.4259.14454.8325.28253 1.249.37186.5409.116 1.0602.13945 1.5803-.02057.2703-.08318.6645-.25403.9494-.47414.3062-.23659.3471-.40811.3006-.53197-.0685-.18277.0241-.3865.2068-.45504z"/></g><path d="m38.8718 31.0221s6.9889.2609 6.3191-4.6147c-.2722-1.9855-.9854-3.6539-3.326-5.0475 1.8814-7.4609-4.2575-12.01484-8.5746-9.7106-.1998.1066-3.9639-4.13687-7.807-1.75255-3.8429 2.38415-4.9485 6.84265-3.0532 10.20905 1.8949 3.3671 16.4417 10.9163 16.4417 10.9163z" fill="#01c9cc"/><path clip-rule="evenodd" d="m43.2019 22.3874c.7505.2564 1.5023.7339 1.8716 1.4083v.0001c.7126 1.3025.9637 2.9863.1341 4.5158-.8567 1.5793-1.9428 2.9315-3.7636 3.2329-.3693.0611-.8016.0093-1.2581-.1054-.4617-.1159-.9757-.3032-1.5195-.5376-1.0875-.4686-2.3256-1.1387-3.554-1.8468-.8292-.4779-1.6614-.9776-2.4435-1.4471-.376-.2257-.7403-.4445-1.0872-.6505-1.0795-.6413-1.9791-1.1529-2.5668-1.3972-.1783-.0742-.2635-.2807-.1903-.4612.0732-.1806.2771-.2669.4554-.1927.642.2669 1.5857.8063 2.6549 1.4413.3525.2094.7199.43 1.0974.6567.7791.4678 1.6014.9615 2.4254 1.4364 1.2226.7047 2.4326 1.3585 3.482 1.8107.5247.2261 1.0014.3983 1.4142.5019.4178.1049.7435.1326.9774.0939 1.4902-.2467 2.4343-1.3453 3.2644-2.8756.685-1.2628.4965-2.6826-.1328-3.8329-.2513-.4588-.8182-.8537-1.4841-1.0812-.6692-.2286-1.3311-.2518-1.727-.0868-.1782.0743-.3822-.0119-.4555-.1924-.0734-.1805.0117-.387.1899-.4613.6159-.2566 1.4683-.1846 2.2157.0707z" fill="#000" fill-rule="evenodd"/><path clip-rule="evenodd" d="m40.3604 12.2411c1.7428 1.6062 2.7844 4.1125 2.7556 6.5891v.0003c-.0064.5128-.1286 2.0522-.7806 3.632-.0744.1801-.2788.2651-.4567.1898-.1778-.0753-.2617-.2823-.1874-.4624.6077-1.4722.7211-2.9159.7267-3.3682.0265-2.2855-.9399-4.5946-2.5275-6.0578-1.5731-1.4498-3.757-2.0744-6.2391-1.0208m6.709.498c-1.7574-1.6196-4.2264-2.31837-6.979-1.1499zm-6.979-1.1499-.0002.0001zm-.0002.0001c-.6119.2601-1.3591.7238-1.8904 1.1763zm.27.6519c-.545.2316-1.232.6574-1.7111 1.0654-.1475.1256-.3677.1063-.4918-.043-.124-.1494-.105-.3724.0425-.498" fill="#000" fill-rule="evenodd"/><path clip-rule="evenodd" d="m26.0043 9.10067c2.4105-.89164 5.1754-.37331 6.6796 1.58643l-.2755.2169.2754-.2172c0 .0001.0001.0002.0001.0003.1456.1894.3373.5465.4968.8865.159.3389.3146.7218.3658.969.0396.1911-.0813.3784-.2699.4185-.1887.04-.3737-.0824-.4133-.2734-.0325-.1572-.1549-.4734-.3131-.8108-.1577-.3362-.3223-.6323-.4172-.7558l-.0002-.0002c-1.2757-1.66198-3.6928-2.16864-5.889-1.35626-2.1721.80346-4.0998 2.89786-4.3303 6.40716v.0001c-.1007 1.5253.0158 3.3558 1.0183 4.635-.0082-.0071-.0163-.0141-.0245-.0212l-.2276.2679.2716-.222c-.0065-.0082-.013-.0164-.0195-.0247 1.6179 1.4023 3.836 2.6496 5.519 3.596.4921.2767.9384.5277 1.3106.7493.1662.0989.2217.3155.124.4838s-.3116.2245-.4778.1255c-.347-.2066-.7733-.4461-1.2501-.7141-1.6934-.9517-4.0242-2.2616-5.7054-3.7258-.016-.0139-.0307-.0293-.0439-.046-1.1978-1.5026-1.2943-3.5882-1.1912-5.1507l.3482.0235-.3482-.0236v.0001c.2486-3.7851 2.3526-6.1237 4.7873-7.02423z" fill="#000" fill-rule="evenodd"/><path clip-rule="evenodd" d="m32.6445 15.2348c.9915-.564 2.6827-.2605 3.621 1.4332.0946.1707.0329.3858-.1379.4804-.1707.0946-.3858.0329-.4804-.1379-.7744-1.3979-2.05-1.5044-2.6531-1.1613-.2906.1653-.4144.4127-.3476.7024.0758.3289.4175.8129 1.3289 1.3383 1.0108.5827 1.5018 1.3299 1.5078 2.0999.0059.7568-.4594 1.4141-1.0978 1.8182-.643.407-1.4998.586-2.3641.371-.8715-.2168-1.7204-.8262-2.3597-1.9412-.0971-.1693-.0386-.3853.1308-.4824.1693-.0971.3853-.0385.4824.1308.5564.9703 1.2562 1.4424 1.9172 1.6068.6682.1663 1.3277.0263 1.8154-.2823.4924-.3117.7724-.7667.7689-1.2154-.0034-.4356-.2766-.9872-1.1539-1.493-.9766-.563-1.5235-1.1792-1.6647-1.7919-.1504-.6519.1801-1.1873.6868-1.4756z" fill="#000" fill-rule="evenodd"/><path clip-rule="evenodd" d="m35.6152 14.4614c.1695.0968.2284.3127.1316.4822-.9804 1.7166-3.3953 5.8455-4.7341 7.9655-.1042.165-.3225.2143-.4875.1101-.1651-.1042-.2144-.3225-.1102-.4876 1.3302-2.1063 3.7388-6.2241 4.718-7.9386.0968-.1695.3127-.2284.4822-.1316z" fill="#000" fill-rule="evenodd"/><path d="m9.99891 21.6525-6.77235 10.0105 16.68424-.8342c-1.5698-2.9068-5.2403-9.3432-3.2382-10.0106 2.5026-.8342 1.6684-4.171 1.6684-5.0052s-4.171-2.5026-8.34209 0c-3.33684 2.0021-1.39035 4.7272 0 5.8395z" fill="#fff"/><path clip-rule="evenodd" d="m9.3845 16.03c1.8072-1.4515 4.209-1.8681 6.4163-1.2532.5884.1639 1.2427.4383 1.7968.8432.5542.4051 1.0293.9573 1.2084 1.6777.2174.8746-.0688 1.7471-.5247 2.4705-.4577.726-1.1131 1.3472-1.7249 1.7454-1.177.7661-2.658 1.05-4.0194.9273-.421-.038-.8883-.122-1.3542-.2591-.0085.0312-.0215.0618-.0392.0908-.1015.1668-.3189.2197-.4857.1182-.104-.0633-.2112-.127-.3204-.1918-.91526-.5432-1.96994-1.1691-2.42482-2.3695-.59925-1.5813.41848-2.9535 1.47182-3.7995zm.7603.3126c.0689.1124.0718.2591-.0048.3772-.0502.0774-.1006.1543-.15067.2307-.34474.5263-.67667 1.033-.85726 1.5553-.19703.5698-.20083 1.1236.19533 1.7044.31109.456.8268.8136 1.4337 1.072.6036.2569 1.2688.4032 1.8394.4547 1.231.1109 2.5478-.1501 3.5702-.8157.5348-.3481 1.1145-.8983 1.5126-1.53.3998-.6343.5901-1.3058.4367-1.9229-.1269-.5104-.4714-.9354-.9396-1.2776-.4684-.3424-1.0395-.5854-1.5692-.733-1.8753-.5224-3.89-.2207-5.4664.8849z" fill="#000" fill-rule="evenodd"/><path clip-rule="evenodd" d="m10.4377 21.5894c.1788.0784.2601.2869.1818.4656-.76431 1.7432-1.86371 3.7416-2.88281 5.5394-.23391.4126-.46314.8139-.68313 1.1991-.74512 1.3045-1.38427 2.4235-1.74056 3.1685-.08422.1761-.29525.2505-.47135.1663-.17609-.0842-.25057-.2952-.16635-.4713.36852-.7706 1.02702-1.9233 1.77578-3.2341.21757-.3809.44275-.7751.67066-1.1771 1.01934-1.7982 2.10221-3.7683 2.85033-5.4746.07843-.1788.28683-.2602.46563-.1818z" fill="#000" fill-rule="evenodd"/><path clip-rule="evenodd" d="m15.5301 21.4887c.1739-.0885.3867-.0193.4753.1546.337.6619.6783 1.3172 1.0173 1.9679 1.1731 2.2521 2.317 4.448 3.1468 6.6609.0685.1827-.0241.3865-.2069.455-.1827.0685-.3865-.0241-.455-.2068-.8132-2.1687-1.93-4.3129-3.0992-6.5577-.3419-.6565-.6883-1.3217-1.0329-1.9985-.0886-.174-.0194-.3868.1546-.4754z" fill="#000" fill-rule="evenodd"/><path clip-rule="evenodd" d="m14.2685 18.562c.0801-.178.2894-.2574.4674-.1773.6917.3113 1.3029.4707 1.8965.4771.591.0065 1.1883-.1384 1.8532-.4709.1746-.0873.3869-.0165.4742.1581s.0165.3869-.1581.4742c-.7474.3737-1.4552.5533-2.177.5455-.7192-.0078-1.4283-.2016-2.1789-.5393-.178-.0801-.2574-.2894-.1773-.4674z" fill="#000" fill-rule="evenodd"/><path d="m20.6371 45.8251s6.9592.2597 6.2923-4.5951c-.2711-1.9771-.9813-3.6384-3.3119-5.0261 1.8734-7.4292-4.2394-11.9638-8.5382-9.6694-.6751.3601-4.0979-4.7455-7.92462-2.3713-3.82662 2.374-4.77671 7.4398-2.88947 10.7919 1.88691 3.3528 16.37189 10.87 16.37189 10.87z" fill="#01c9cc"/><path clip-rule="evenodd" d="m24.9488 37.2259c.7475.2554 1.4965.7311 1.8645 1.4031v.0001c.7097 1.2972.9599 2.9745.1335 4.498-.8531 1.5727-1.9349 2.9197-3.7487 3.2199-.368.061-.7986.0093-1.2533-.1049-.4598-.1154-.9717-.302-1.5132-.5354-1.083-.4666-2.3159-1.134-3.5391-1.839-.8257-.4759-1.6544-.9735-2.4332-1.441-.3744-.2248-.7372-.4426-1.0826-.6478-1.0749-.6385-1.9706-1.1479-2.5557-1.3912-.1783-.0741-.2635-.2806-.1903-.4612s.2771-.2668.4554-.1927c.6394.2659 1.5792.803 2.6438 1.4354.351.2085.7169.4281 1.0928.6538.7758.4658 1.5946.9574 2.4151 1.4303 1.2174.7018 2.4222 1.3527 3.4671 1.803.5224.2251.997.3965 1.4079.4997.4159.1045.74.1319.9727.0934 1.4832-.2455 2.423-1.3389 3.2495-2.8626.6817-1.2568.4942-2.67-.1322-3.815-.25-.4565-.8141-.8496-1.4771-1.0761-.6661-.2275-1.3248-.2505-1.7186-.0864-.1782.0742-.3822-.0119-.4555-.1924-.0734-.1805.0117-.3871.1899-.4614.6137-.2556 1.4629-.1839 2.2073.0704z" fill="#000" fill-rule="evenodd"/><path clip-rule="evenodd" d="m22.1204 27.1233c1.7357 1.5997 2.773 4.0957 2.7443 6.5622v.0003c-.0063.5107-.128 2.0438-.7774 3.6171-.0743.1801-.2788.2651-.4566.1898-.1779-.0753-.2618-.2823-.1874-.4624.6049-1.4657.7179-2.9031.7234-3.3534.0264-2.2753-.9357-4.5742-2.5162-6.0309-1.5661-1.4433-3.7402-2.0651-6.2112-1.0161-.5426.2307-1.2266.6545-1.7035 1.0607-.1476.1256-.3677.1063-.4918-.0431s-.105-.3723.0425-.4979c.5291-.4507 1.2733-.9125 1.8828-1.1715l.0001-.0001c2.7415-1.1638 5.2007-.4678 6.951 1.1453z" fill="#000" fill-rule="evenodd"/><path clip-rule="evenodd" d="m14.4757 25.5752c.1451.1887.3362.5446.495.8833.1583.3374.3134.7189.3644.9652.0396.191-.0813.3784-.27.4185-.1886.04-.3736-.0824-.4132-.2734-.0324-.1563-.1541-.4711-.3117-.807-.157-.3348-.3208-.6295-.4153-.7523l-.0002-.0003c-1.2698-1.6542-3.6758-2.1587-5.86232-1.35-2.16231.7999-4.08138 2.8849-4.31091 6.3787l-.00001.0001c-.10023 1.5187.01578 3.3409 1.01358 4.6142 1.61087 1.3961 3.81936 2.638 5.49516 3.5804.49.2755.9345.5255 1.3051.7462.1662.0989.2217.3155.124.4838-.0977.1682-.3116.2244-.4778.1255-.3454-.2057-.7699-.4442-1.2446-.711-1.68624-.9477-4.00738-2.2521-5.6815-3.7102-.01601-.014-.03074-.0294-.044-.046-1.19307-1.4967-1.28912-3.574-1.18644-5.1299.24765-3.7696 2.34302-6.0988 4.76792-6.9957 2.40062-.888 5.15442-.3719 6.65282 1.5799z" fill="#000" fill-rule="evenodd"/><path clip-rule="evenodd" d="m15.1776 30.1097c1.0073-.5351 2.6891-.1828 3.578 1.5373.0897.1734.0217.3866-.1517.4762s-.3866.0217-.4762-.1517c-.7337-1.4197-2.0057-1.563-2.6185-1.2375-.2952.1569-.4261.4006-.3677.692.0663.331.3938.8247 1.2897 1.3762.9935.6117 1.4626 1.3728 1.4464 2.1426-.016.7567-.5001 1.4003-1.1499 1.7857-.6545.3882-1.5161.5424-2.3738.3025-.8649-.2419-1.6958-.8756-2.3027-2.0085-.0921-.1721-.0273-.3863.1447-.4785.1721-.0922.3863-.0274.4785.1447.5281.9859 1.214 1.4781 1.8699 1.6616.6631.1854 1.3264.0647 1.8228-.2298.5012-.2973.7943-.744.8038-1.1926.0092-.4356-.248-.9948-1.1103-1.5257-.96-.591-1.4888-1.2228-1.6123-1.8393-.1314-.656.2144-1.1817.7293-1.4552z" fill="#000" fill-rule="evenodd"/><path clip-rule="evenodd" d="m18.1699 29.4222c.1666.1017.2193.3192.1176.4858-1.0296 1.6876-3.5629 5.745-4.9624 7.8253-.1089.162-.3285.205-.4905.096-.162-.1089-.2049-.3286-.096-.4905 1.3905-2.067 3.9172-6.1135 4.9455-7.799.1017-.1666.3192-.2192.4858-.1176z" fill="#000" fill-rule="evenodd"/></svg>