<svg fill="none" height="60" viewBox="0 0 113 60" width="113" xmlns="http://www.w3.org/2000/svg" xmlns:xlink="http://www.w3.org/1999/xlink"><radialGradient id="a" cx="0" cy="0" gradientTransform="matrix(-.04723536 10.17049031 -24.57333498 -.11412728 62.1106 43.0976)" gradientUnits="userSpaceOnUse" r="1"><stop offset="0" stop-color="#c4c4c4"/><stop offset="1" stop-color="#c4c4c4" stop-opacity="0"/></radialGradient><clipPath id="b"><path d="m29 .916992h10v8.778h-10z"/></clipPath><clipPath id="c"><path d="m73 5h12v9.65704h-12z"/></clipPath><mask id="d" height="22" maskUnits="userSpaceOnUse" width="23" x="59" y="15"><path d="m67.9015 33.5224-2.6771 2.9154h-1.4066l-3.9477-8.3362 9.5741-12.4815h8.5305l3.3578 4.3275z" fill="#c4c4c4"/></mask><g clip-path="url(#b)"><path d="m34.4636.916992-2.948 2.812088-2.5156 4.96691h2.2682zm.3922.657948-1.2582 3.90072 2.4124 3.33395-4.6799.88452h7.6699z" fill="#0072c6"/></g><path d="m93.8275 42.2736c.1889 7.3273-13.8582 13.6361-31.3749 14.0911-17.5168.4551-31.87-5.1159-32.0589-12.4432-.1888-7.3273 13.8582-13.6361 31.3749-14.0911 17.5168-.4551 31.87 5.116 32.0589 12.4432z" fill="url(#a)" fill-opacity=".2"/><g clip-rule="evenodd" fill-rule="evenodd"><path d="m60.6061 33.1284c-.7202.1687-1.4402.3369-2.1613.5013-.0437.01-.0804.0345-.1062.0672l.0406-.0068-.0658.0491c-.0155.0357-.0201.0765-.0109.1174.0231.1021.1243.1661.226.1429.8266-.1885 1.6523-.382 2.4773-.5753l.219-.0513c.2954.0715 2.3817.551 2.6762.6266.1011.0259.2039-.0353.2297-.1368.0258-.1014-.0351-.2047-.1362-.2306-.0699-.018-1.9313-.4416-2.0013-.4593.0535-.0444.0805-.1168.0637-.1892-.0236-.102-.1251-.1654-.2267-.1417-.2014.047-.4028.0941-.6041.1413-.132-.0318-.2641-.0631-.3963-.0939-.1016-.0237-.2031.0398-.2267.1417-.0077.0334-.0061.0668.003.0974zm-6.0078 1.6613c.0209.1026-.0449.2028-.1471.2238-.2495.0512-.4056.0812-.5163.1025-.0332.0064-.0624.0121-.0888.0172l.0006-.0021-.3525-.3538c.054-.1799.111-.37.1716-.5729.0299-.1003.1352-.1572.2351-.1271s.1566.1358.1267.2361c-.0441.1475-.0862.2882-.1267.4231.1119-.0217.2608-.0506.4746-.0945.1022-.021.2019.0451.2228.1477zm-1.2502.0797-.1004.4282-.0273.0086c-.0735.023-.1597.0499-.2619.0818-.0996.031-.2055-.0249-.2364-.1249s.0248-.2062.1244-.2373c.0972-.0302.1804-.0563.2527-.0789.1023-.0321.1826-.0572.2489-.0775zm-.5058 2.0958c-.1066.3662-.2145.7451-.336 1.1822-.2002-.0478-.4006-.0943-.6013-.1394-.1018-.0229-.2028.0414-.2256.1436s.0413.2036.143.2264c.1946.0437.3888.0888.5829.135l-.0155.0562c-.0277.101.0314.2054.1319.2332l.003.0008v2.8651c-.107-.0336-.2139-.0673-.3209-.1012-.0995-.0315-.2055.0239-.2369.1238-.0314.0998.0238.2063.1232.2378.1458.0462.2916.0921.4377.1379.016.0883.0931.1553.1857.1553.0523 0 .0996-.0213.1337-.0557 1.1988.3726 2.407.7327 3.614 1.0925l.0005.0001c1.1303.3369 2.2595.6735 3.379 1.0197-.0577.0107-.1155.0214-.1735.032-.1026.0189-.1706.1176-.1518.2206.0187.103.1171.1713.2197.1525.1152-.0212.2298-.0425.3438-.0639v.0669c0 .1047.0845.1896.1888.1896s.1889-.0849.1889-.1896v-.1389c2.2229-.4292 4.2345-.9151 6.3612-1.4289l.0014-.0003c.3925-.0949.789-.1907 1.1915-.2872v.149c0 .1047.0846.1896.1889.1896s.1888-.0849.1888-.1896v-.2394c.2016-.0481.4048-.0964.6099-.1448.1015-.024.1644-.1261.1405-.228-.0239-.102-.1255-.1651-.2271-.1412-.1758.0416-.3502.083-.5233.1242v-3.1627c0-.0718.0019-.1492.0055-.2316.1999-.0497.4024-.1008.6078-.1535.1011-.0259.1621-.1291.1363-.2306s-.1287-.1627-.2297-.1368c-.1647.0422-.3274.0834-.4884.1237.0379-.4576.1052-1.0057.1744-1.5692l.0052-.0421c.0632-.5149.1274-1.0406.1687-1.5099.0995.0246.2009-.0351.2276-.135.0117-.044.0071-.0886-.0103-.1271l-.6333.6358c-.0368.3475-.0819.7181-.1276 1.0898l-.008.065c-.0664.5406-.1328 1.0815-.1716 1.5438-.0216.0308-.0343.0684-.0343.1089v.0413c-2.5581.6264-4.7055 1.0252-7.2778 1.5028l-.001.0002-.2753.0512v-.0787c0-.1047-.0846-.1896-.1889-.1896s-.1888.0849-.1888.1896v.148c-.8594-.2715-1.7239-.523-2.5864-.7726l-.3375-.0977c-1.4076-.4078-2.8235-.818-4.2526-1.1706v-.0031h-.3777zm13.7892-2.153.2733-.3137c-.1403-.0421-.2809-.0845-.4198-.1263-.5287-.1591-1.0331-.3109-1.4074-.4201l-.1361.3552c.3675.107.8785.2608 1.418.4231.09.0271.1809.0544.272.0818zm1.3792 4.2389v.1373 3.253c-.4342.1041-.861.2072-1.2828.3091l-.0037.0009-.0006.0001-.0004.0001c-2.1019.5078-4.0824.9862-6.2666 1.41v-3.3578c.3582.117.715.238 1.0699.3644.0983.035.2063-.0166.2412-.1153.0349-.0986-.0166-.207-.1149-.242-.271-.0966-.5431-.19-.8159-.2808 2.5264-.4692 4.6555-.8652 7.1738-1.479zm-8.718 1.3865c-.0774.0352-.124.1199-.1077.2075.0191.103.1178.1708.2203.1516.2207-.0413.4377-.0818.6515-.1216l.0221.007v3.2733c-1.1751-.3644-2.3472-.7137-3.5182-1.0626-1.2201-.3636-2.4389-.7268-3.6583-1.1064v-3.1524c1.3902.3455 2.7702.7453 4.1504 1.1451l.335.097c.637.1844 1.2726.3691 1.9049.5615z" fill="#000"/><path d="m11.119 25.1234c.0002.003.0004.0061.0008.0091-.6406.0932-1.27889.1827-1.91777.2724-.80158.1124-1.60403.225-2.41279.3451-.29637.0441-.60689.1013-.91531.1582-.23805.0439-.47486.0876-.70294.1247l.00961-.0064c.08655-.0585.10954-.1763.05134-.2632s-.17555-.1099-.2621-.0515c-.12874.0869-.25759.1737-.38646.2605l-.00029.0002-.24716.1665c-.25606.0207-.51005.0278-.76182.0148-.10417-.0054-.19296.075-.19833.1796-.00537.1045.07472.1937.17888.1991.06349.0032.12699.0053.19048.0063-.78746.5357-1.56898 1.0822-2.3252 1.6682-.02288-.0099-.0481-.0153-.07459-.0153-.1043 0-.18886.0848-.18886.1896v.0324c-.10612.0842-.211683.1693-.316644.2554-.050264-.0146-.100536-.0291-.150819-.0436-.100288-.0287-.204816.0296-.23347.1303-.021407.0752.005591.1528.062436.1992-.035577.0665-.029439.1507.021909.212.067184.0801.186323.0903.266104.0229.039817-.0337.079731-.0672.119742-.1006.077002.0228.153912.0457.230742.0689v2.8359l-.12277-.046c-.097711-.0366-.206504.0132-.242997.1113-.036494.0981.013131.2073.110839.244 1.561218.5854 3.133448 1.1447 4.708418 1.6906-.01407.0327-.01915.0697-.01265.1074.01779.1032.11553.1724.2183.1545.10208-.0177.20417-.0353.30628-.0528.03418.0343.08144.0556.13365.0556.0268 0 .05229-.0056.07538-.0157.14338.0493.28676.0986.43015.1477.09871.0339.20605-.019.23975-.1181.02615-.0769.0003-.159-.05869-.2077 2.32933-.3857 4.66455-.7159 7.00805-1.0227l-.0136.02c-.0584.0867-.0358.2046.0505.2633.0864.0587.2038.036.2623-.0507.0678-.1004.1362-.1999.2054-.2985.0997-.0167.169-.1098.156-.2112l-.0009-.0065c.5613-.7773 1.1671-1.4986 1.815-2.1992.0094.0015.019.0022.0288.0022.1043 0 .1888-.0849.1888-.1896v-.0454c.2284-.2419.4618-.4818.7001-.7211.0738-.0741.0738-.1941 0-.2681-.0737-.0741-.1933-.0741-.267 0-.1461.1466-.2905.2936-.4331.4412v-2.7022c.0556-.0543.111-.1087.1664-.1632.1005.0292.2011.058.3019.0864.1004.0284.2047-.0304.2329-.1312s-.0303-.2055-.1307-.2338c-.0318-.009-.0636-.018-.0953-.027.0594-.0592.1186-.1185.1777-.1778.0738-.0741.0738-.1941 0-.2681-.0737-.0741-.1933-.0741-.2671 0-.1083.1087-.2171.2172-.3263.3253-.2581-.0761-.5155-.1542-.7727-.2336l-.302.3032c.2222.0692.4448.1376.6679.2047-.0192.0297-.0304.0652-.0304.1032v.0517c-.7138.6954-1.4427 1.3799-2.1738 2.0604-.023.0137-.0428.0322-.0581.0541-.0878.0816-.1755.1632-.2633.2447-.2749.04-.5501.0799-.8254.1198h-.0001c-2.1694.3142-4.34811.6298-6.49969 1.0494v-.1674c0-.1047-.08455-.1896-.18885-.1896s-.18886.0849-.18886.1896v.0985c-.53337-.1755-1.06759-.3563-1.60274-.5375h-.00005-.00003c-.97338-.3296-1.9498-.6601-2.92968-.9612v-.2791c.94353-.739 1.93123-1.4147 2.93152-2.0895.25584-.0239.51029-.0596.76205-.1006.251-.0408.49191-.0854.72943-.1294h.00001.00001.00001.00002.00001c.2967-.0549.5881-.1088.88725-.1533.79597-.1182 1.5999-.231 2.40471-.344h.00003.00006c.90219-.1266 1.80549-.2534 2.69989-.3881.0043-.0006.0085-.0014.0127-.0023.48.1387.9534.2946 1.4302.4516.2543.0837.5095.1678.7672.2497l.3036.0966.0001.0001c.1006.032.2012.064.3019.0961l.301-.3022c-.163-.0517-.3259-.1036-.4891-.1555l-.3035-.0966c-.2497-.0793-.5009-.1621-.7533-.2452-.5059-.1666-1.0165-.3347-1.5289-.4806-.2408-.0685-.4396-.1003-.6963-.0831-.104.0069-.1828.0973-.1758.2018zm-5.0523 8.6276c-1.51633-.5238-3.02945-1.0587-4.5325-1.6162v-2.8613c.93613.2897 1.86239.6034 2.79133.9181h.00002.00001.00002l.00013.0001h.00013.00012l.00028.0001.00003.0001c.46115.1562.92295.3126 1.38695.4664-.0215.0383-.02986.0843-.02041.1308.02088.1026.12064.1688.22283.1479.05034-.0104.10069-.0206.15106-.0308zm10.1981-3.5751v-2.7324c-.6056.5849-1.2203 1.1622-1.8355 1.7352.3984-.0587.7962-.1182 1.1932-.1791.1031-.0158.1995.0553.2152.1588.0158.1035-.055.2002-.1581.2161-.4342.0665-.8687.1314-1.3033.1953v2.8668c.5856-.8007 1.2164-1.5419 1.8885-2.2607zm-2.2661 2.4775c-2.5246.3299-5.0421.6866-7.55429 1.1102v-2.8662c.18539.0597.37125.1188.55768.177.09959.0311.20544-.0247.23643-.1247.03098-.1-.02464-.2062-.12423-.2373l-.01887-.0059c1.95148-.3637 3.92138-.649 5.89228-.9345h.0001.0001l.3189-.0462c-.0299.0672-.0191.1487.0338.2061.0708.0769.1903.0816.2668.0105l.0386-.0358.0014-.0012.2926-.2717.0586-.0085v3.0219z" fill="#000"/><path d="m72.7658 17.9226c.0466-.2756.0909-.5642.12-.817.4896-.0486.9723-.0963 1.4502-.1435h.0001c1.4489-.1431 2.8529-.2817 4.2665-.4276.6784.1068 1.3769.2048 2.0854.3042 1.3297.1866 2.6944.3782 4.0264.6412.3239.9631.3671 1.077.4776 1.3687l.0001.0001c.0406.1073.0904.2387.1667.4453-.1858.0285-.3701.0569-.5535.0851l-.0017.0002c-1.8302.2814-3.5539.5464-5.4623.7803v-.1205c0-.1047-.0845-.1896-.1888-.1896s-.1889.0849-.1889.1896v.0835c-.4361-.0791-.8349-.1508-1.2046-.2173l-.0007-.0002h-.0001c-2.1556-.3878-3.3263-.5985-5.1649-1.0461l.0047-.0238c.0075-.0382.0156-.0794.0241-.1232h-.4572v.0414c-.0472-.0117-.0949-.0237-.1431-.0358-.0141-.0035-.0282-.0054-.0422-.0056h-.0075c-.0831.0016-.1582.0587-.1793.1436-.0253.1016.0362.2045.1374.2299.0795.02.1577.0395.2347.0586v3.0131l-.1537-.0292c-.1025-.0195-.2013.0481-.2207.1509-.0195.1029.0478.2021.1503.2217 1.481.2821 2.976.5501 4.47.8179h.0001l.0006.0001.0003.0001c.5665.1015 1.1329.203 1.6983.3053l-.1213.0199c-.103.017-.1727.1145-.1558.2178.0169.1034.114.1734.2169.1564.3137-.0516.6189-.1015.9173-.1503.017.0871.0935.1528.1853.1528.0985 0 .1794-.0757.1881-.1723.3039.056.6074.1123.9103.1691.1025.0192.2012-.0486.2203-.1515.0189-.1013-.0462-.1987-.1459-.2202 1.7189-.283 3.2802-.5525 5.0594-.9306v.0732c0 .1047.0845.1896.1888.1896s.1889-.0849.1889-.1896v-.1545c.1995-.0433.4019-.0881.6079-.1345.1018-.0229.1657-.1244.1429-.2265-.0228-.1022-.1238-.1664-.2256-.1435-.1776.04-.3525.0788-.5252.1165v-2.2066c.0213 0 .043-.0037.0643-.0114.0981-.0357.1487-.1444.1132-.2428-.0238-.066-.0462-.1278-.0673-.1861.2835-.0432.5706-.0868.862-.1306.1032-.0155.1743-.1121.1588-.2156-.0154-.1036-.1116-.1749-.2147-.1594-.3124.0469-.6194.0936-.9223.1398-.0086-.033-.0257-.0626-.049-.0861-.0747-.2022-.1235-.3308-.1632-.4355l-.0001-.0003-.0002-.0006c-.1003-.2646-.1431-.3775-.4014-1.1433l.0144.003c.1021.0216.2022-.044.2237-.1464.0215-.1025-.0438-.203-.1459-.2246-.0772-.0163-.1546-.0324-.2321-.0482l-.0056-.0164c-.0333-.0992-.1404-.1526-.2392-.1191-.0388.0131-.0705.0375-.0927.0684-1.3039-.2527-2.6495-.4418-3.9496-.6245-.3401-.0478-.6771-.0951-1.0094-.1431.0107-.0274.0152-.0577.0119-.0889-.0109-.1042-.1038-.1797-.2075-.1688-.3.0316-.599.0627-.8975.0936-.1897-.03-.3772-.0606-.5622-.092-.1028-.0175-.2003.0521-.2177.1553-.0009.0056-.0016.0112-.002.0168-1.1665.1188-2.3329.2339-3.5306.3522-.4557.045-.9158.0905-1.3823.1367.0014-.0335.0021-.0652.0021-.0949 0-.1047-.0846-.1896-.1889-.1896s-.1888.0849-.1888.1896c0 .0397-.0015.0842-.0043.1327-.1925.0191-.3861.0384-.581.0579-.1038.0103-.1795.1032-.1692.2074s.1028.1803.2066.1699l.5061-.0505c-.027.217-.0647.462-.1055.7044zm5.8214 2.5176-.0001-.0004c-.3161-.0572-.6123-.1105-.8921-.1608h-.0002c-2.1431-.3856-3.3231-.5979-5.1522-1.0422v2.9918c1.3084.2459 2.6184.4807 3.9293.7156h.0001v.0001h.0001.0001c.8301.1488 1.6606.2976 2.4914.4494v-2.8067c-.0555.0066-.1112.0131-.167.0197-.1036.012-.1974-.0625-.2094-.1665zm6.2776-.6867h-.0001c-1.7305.2661-3.3713.5183-5.1626.7434-.0349.0772-.1188.1238-.2057.108l-.1551-.0283v2.846c2.1262-.347 3.927-.6432 6.0434-1.0952v-2.6537l-.5196.0798h-.0002z" fill="#000"/><path d="m35.3169 11.2516c.1288.0331.2576.0665.3869.1h.0001c.7444.193 1.5053.3902 2.3617.5652l-.027.0272-.0002.0002c-.2412.2434-.4806.4849-.7193.7237-.0269-.0149-.0579-.0233-.0908-.0233-.1043 0-.1889.0849-.1889.1896v.0441c-.8445.057-1.7089.1381-2.5704.2227-.175.0172-.3499.0345-.5244.0518-.7316.0724-1.4579.1443-2.1672.2033-.7765-.1486-1.5497-.3088-2.325-.4693h-.0001c-.3446-.0714-.6896-.1428-1.0355-.2133.563-.3526 1.0999-.7339 1.6303-1.1333.0155-.0117.0288-.0254.0396-.0404 1.3353-.1083 2.6787-.2264 4.0105-.4223l.1586-.4775c-.0182-.0042-.0363-.0084-.0545-.0125-.0953-.0218-.1901.033-.2208.1239-1.4691.2134-2.9565.3329-4.4449.4524-.1478.0119-.2955.0238-.4432.0357-.104.0085-.1815.0999-.1731.2043.0084.1043.0995.1821.2034.1737l.2665-.0215c-.4937.3584-.9944.6965-1.519 1.007l-.0478-.0096c-.1023-.0204-.2017.0463-.2221.149-.0203.1027.0462.2025.1485.2229l.1122.0225c.0038.0009.0076.0016.0114.0023l.102.0205v2.1083c-.0579-.0064-.116-.0119-.1742-.0164-.104-.0081-.1948.0699-.2029.1743s.0696.1956.1736.2037c.0681.0054.1359.012.2035.02v.028c0 .1047.0846.1896.1889.1896.0947 0 .1731-.07.1867-.1613.4605.0831.9161.2129 1.3804.3452.1237.0353.2481.0707.3734.1055.1101.0306.22.0607.3296.0908l.0004.0001c.3853.1057.7666.2103 1.1421.3295.0301.0763.1076.1269.1932.1189l.1293-.0121c.0245.0085.0491.0171.0735.0258.0738.0261.1528.0035.2024-.051.7058-.0635 1.4157-.1212 2.1265-.1789h.0001c.9079-.0737 1.8173-.1476 2.7218-.234.0231.002.0465-.0002.069-.0067.1385-.0133.2769-.027.4152-.041.1038-.0105.1794-.1034.169-.2076-.0082-.0812-.0662-.1452-.1405-.1646.4849-.4919.7277-.7641 1.3512-1.5465.0651-.0818.0519-.2011-.0295-.2665-.0815-.0654-.2003-.0522-.2655.0296l-.0413.0519v-1.8939c.1134.0211.2287.0417.3458.0618.1028.0176.2004-.0517.218-.1549s-.0515-.2012-.1543-.2189c-.0415-.0071-.0827-.0143-.1237-.0215l.0366-.0367c.0737-.0741.0737-.1941 0-.2681-.0738-.0741-.1934-.0741-.2671 0-.052.0521-.1038.1042-.1555.1562-.0264-.0142-.0566-.0222-.0887-.0222-.0523 0-.0997.0214-.1339.0559-.878-.1762-1.6453-.3753-2.4063-.5727l-.0002-.0001c-.1235-.032-.2469-.064-.3706-.0959zm.1521-.4071c.048-.0093.0959-.0188.1438-.0284.1023-.0206.1686-.1205.1482-.2231-.015-.0755-.0728-.1315-.1429-.1477zm-3.7175 5.2016v-2.3073c-.1855.0152-.3699.0296-.553.0429-.104.0075-.1944-.0711-.2019-.1755-.0004-.0056-.0006-.0112-.0005-.0167-.5435-.1084-1.0858-.2207-1.6276-.3329-.339-.0702-.6777-.1403-1.0164-.2094v2.0852c.509.0872 1.0062.2291 1.4899.3671.1217.0347.2425.0692.3625.1025.1077.0299.216.0596.3247.0894.4059.1113.8168.224 1.2223.3547zm5.2059-.3642.104-.1045c-.014-.0265-.022-.0568-.022-.0889v-2.1107c-.0406-.0051-.0799-.0235-.1109-.0551-.0159-.0162-.0283-.0345-.0372-.0541-.7829.0557-1.5834.131-2.3856.2098-.1732.017-.3464.0341-.5196.0513l-.0012.0001h-.0004l-.0017.0002h-.0004l-.0001.0001c-.3455.0342-.6907.0684-1.0339.1012.0252.0387.0364.0868.0279.1359-.0179.1032-.1157.1723-.2185.1543-.2097-.0366-.4193-.0744-.6286-.1132v2.2846c.7192-.0649 1.435-.123 2.1499-.181h.0001.0001c.8928-.0724 1.784-.1448 2.6781-.23zm1.2161-1.3114c-.2855.3458-.4871.5687-.7564.8461v-1.9824c.1296-.0077.2587-.0147.387-.0211.1042-.0051.1845-.094.1794-.1986s-.0937-.1852-.1979-.1801c-.0343.0017-.0687.0034-.1031.0052.1629-.1633.3262-.3279.4901-.4931v2.0044c0 .0067.0003.0132.0009.0196z" fill="#000"/><path d="m59.0162 39.9511c.1019.0224.1664.1234.1442.2257l-.7837 3.6023c-.0223.1023-.1229.1671-.2248.1448-.1019-.0224-.1665-.1234-.1442-.2257l.7837-3.6023c.0222-.1023.1229-.1671.2248-.1448zm1.1155.3808c.101.0262.1618.1295.1357.2309l-.8273 3.2232c-.026.1014-.129.1624-.23.1362-.101-.0261-.1618-.1295-.1358-.2309l.8274-3.2231c.026-.1014.129-.1624.23-.1363zm-2.164-.3792c.1011.0262.1618.1296.1358.2309l-.8274 3.2232c-.026.1014-.129.1624-.23.1362-.101-.0261-.1617-.1295-.1357-.2309l.8273-3.2231c.0261-.1014.129-.1624.23-.1363z" fill="#000"/><path d="m64.0045 39.5734c.101.0262.1618.1296.1358.231l-1.0221 3.9814c-.026.1014-.129.1624-.23.1363s-.1618-.1295-.1357-.2309l1.022-3.9815c.026-.1014.129-.1624.23-.1363zm-1.285.3079c.101.0262.1617.1296.1357.231l-1.0198 3.9727c-.026.1014-.129.1624-.23.1362-.101-.0261-.1618-.1295-.1357-.2309l1.0197-3.9727c.0261-.1014.1291-.1624.2301-.1363zm-1.1223.2609c.101.0262.1618.1295.1358.2309l-1.0221 3.9815c-.026.1014-.129.1624-.23.1363s-.1617-.1295-.1357-.2309l1.022-3.9815c.026-.1014.129-.1624.23-.1363z" fill="#000"/><path d="m54.7835 38.7319c.101.0261.1617.1295.1357.2309l-.8491 3.3077c-.026.1014-.129.1625-.23.1363-.101-.0261-.1618-.1295-.1357-.2309l.8491-3.3077c.026-.1014.129-.1624.23-.1363zm.9848.2742c.101.0261.1618.1295.1358.2309l-.876 3.4127c-.0261.1014-.129.1624-.23.1363s-.1618-.1295-.1358-.2309l.876-3.4127c.0261-.1014.129-.1624.23-.1363zm1.1087.3792c.101.0261.1618.1295.1358.2309l-.8761 3.4127c-.026.1014-.129.1624-.23.1363s-.1617-.1295-.1357-.2309l.876-3.4127c.026-.1014.129-.1624.23-.1363z" fill="#000"/><path d="m67.5504 39.0051c.101.0261.1618.1295.1358.2309l-.9734 3.7919c-.026.1014-.129.1624-.23.1363s-.1618-.1295-.1357-.2309l.9733-3.7919c.0261-.1014.129-.1624.23-.1363zm-1.2693.2466c.101.0261.1618.1295.1358.2309l-1.0075 3.9245c-.026.1014-.129.1624-.23.1363-.101-.0262-.1617-.1295-.1357-.2309l1.0074-3.9245c.026-.1014.129-.1624.23-.1363zm-1.0553 0c.101.0261.1618.1295.1358.2309l-1.0074 3.9245c-.0261.1014-.129.1624-.23.1363-.101-.0262-.1618-.1295-.1358-.2309l1.0074-3.9245c.026-.1014.129-.1624.23-.1363z" fill="#000"/><path d="m53.636 38.435c.101.0261.1618.1295.1358.2309l-.8274 3.2231c-.026.1014-.129.1624-.23.1363s-.1618-.1295-.1358-.2309l.8274-3.2231c.026-.1014.129-.1624.23-.1363z" fill="#000"/><path d="m4.86452 29.8959c.101.0262.16178.1296.13575.231l-.78089 3.042c-.02603.1014-.12901.1624-.23001.1363s-.16178-.1295-.13575-.2309l.78089-3.0421c.02603-.1014.12901-.1624.23001-.1363zm2.11307.5774c.101.0261.16178.1295.13575.2309l-.87602 3.4127c-.02603.1014-.12901.1624-.23001.1363s-.16178-.1295-.13575-.2309l.87603-3.4127c.02602-.1014.129-.1624.23-.1363zm-1.20601 0c.101.0261.16178.1295.13575.2309l-.73002 2.8439c-.02603.1014-.12901.1624-.23001.1363s-.16178-.1295-.13575-.2309l.73002-2.8439c.02603-.1014.12901-.1624.23001-.1363z" fill="#000"/><path d="m10.8033 29.9045c.101.0261.1618.1295.1358.2309l-.8213 3.1994c-.026.1014-.12898.1624-.22998.1362-.101-.0261-.16178-.1295-.13575-.2309l.82123-3.1993c.0261-.1014.129-.1624.23-.1363zm-1.20598 0c.10101.0261.16178.1295.13575.2309l-.87602 3.4127c-.02603.1014-.12901.1624-.23001.1363s-.16178-.1295-.13575-.2309l.87603-3.4127c.02602-.1014.129-.1624.23-.1363zm-1.1526.3792c.101.0261.16178.1295.13575.2309l-.87602 3.4127c-.02603.1014-.12901.1624-.23001.1363-.101-.0262-.16178-.1295-.13575-.2309l.87602-3.4127c.02603-.1014.12901-.1624.23001-.1363z" fill="#000"/><path d="m1.58229 29.0649c.101.0261.16178.1295.13575.2309l-.26416 1.0291c-.02603.1014-.129.1624-.23001.1363-.101-.0262-.16177-.1295-.13575-.2309l.26417-1.0291c.02602-.1014.129-.1624.23-.1363zm.98578.2707c.101.0261.16178.1295.13575.2309l-.77869 3.0335c-.02603.1014-.12901.1624-.23001.1363s-.16178-.1295-.13575-.2309l.77869-3.0335c.02603-.1014.12901-.1624.23001-.1363zm1.09362.4379c.101.0261.16178.1295.13575.2309l-.75742 2.9506c-.02602.1014-.129.1624-.23.1363-.10101-.0261-.16178-.1295-.13575-.2309l.75741-2.9507c.02603-.1014.12901-.1624.23001-.1362z" fill="#000"/><path d="m14.3492 29.3361c.101.0262.1618.1296.1358.231l-.8698 3.3885c-.0261.1014-.129.1624-.23.1363-.101-.0262-.1618-.1296-.1358-.231l.8698-3.3885c.0261-.1014.129-.1624.23-.1363zm-1.2546.1896c.101.0262.1617.1296.1357.2309l-.876 3.4128c-.0261.1014-.129.1624-.23.1363-.101-.0262-.1618-.1296-.1358-.231l.876-3.4127c.0261-.1014.1291-.1624.2301-.1363zm-1.104.1896c.101.0262.1618.1295.1358.2309l-.8761 3.4128c-.026.1014-.129.1624-.23.1363-.101-.0262-.1617-.1296-.1357-.231l.876-3.4127c.026-.1014.129-.1624.23-.1363z" fill="#000"/><path d="m15.8529 27.6697c.1043.0018.1874.0881.1857.1928l-.048 2.8526c-.0018.1047-.0877.1881-.192.1863-.1043-.0017-.1874-.088-.1857-.1927l.048-2.8526c.0018-.1047.0877-.1882.192-.1864zm-1.0411.8529c.1042-.0041.192.0773.1962.1819l.122 3.0594c.0041.1046-.077.1928-.1812.197s-.1921-.0772-.1962-.1818l-.122-3.0594c-.0042-.1047.0769-.1929.1812-.1971z" fill="#000"/><path d="m82.6148 20.0461c.101.0261.1618.1295.1358.2309l-.8274 3.2231c-.026.1014-.129.1624-.23.1363s-.1617-.1295-.1357-.2309l.8273-3.2231c.0261-.1014.129-.1624.23-.1363zm-1.206 0c.101.0261.1618.1295.1358.2309l-.8274 3.2231c-.026.1014-.129.1624-.23.1363s-.1617-.1295-.1357-.2309l.8273-3.2231c.0261-.1014.129-.1624.23-.1363zm-1.0751.0776c.101.0261.1618.1295.1357.2309l-.8074 3.1456c-.0261.1014-.129.1624-.23.1363-.101-.0262-.1618-.1296-.1358-.231l.8075-3.1456c.026-.1014.129-.1624.23-.1362z" fill="#000"/><path d="m79.3141 20.0461c.101.0261.1618.1295.1357.2309l-.8273 3.2231c-.026.1014-.129.1624-.23.1363s-.1618-.1295-.1358-.2309l.8274-3.2231c.026-.1014.129-.1624.23-.1363zm-1.206 0c.101.0261.1617.1295.1357.2309l-.73 2.8439c-.026.1014-.129.1624-.23.1363s-.1618-.1295-.1358-.2309l.7301-2.8439c.026-.1014.129-.1624.23-.1363zm-1.0553 0c.101.0261.1618.1295.1358.2309l-.7301 2.8439c-.026.1014-.129.1624-.23.1363s-.1618-.1295-.1357-.2309l.73-2.8439c.026-.1014.129-.1624.23-.1363z" fill="#000"/><path d="m85.1012 19.2877c.101.0261.1617.1295.1357.2309l-.8202 3.1951c-.026.1014-.129.1624-.23.1363-.101-.0262-.1618-.1295-.1357-.2309l.8201-3.1951c.0261-.1014.129-.1624.2301-.1363zm-1.1527.3792c.101.0261.1618.1295.1358.2309l-.7787 3.0335c-.026.1014-.129.1624-.23.1363s-.1618-.1295-.1358-.2309l.7787-3.0335c.0261-.1014.129-.1624.23-.1363zm1.872 1.5167c.101.0262.1618.1296.1357.2309l-.3334 1.2992c-.0261.1014-.129.1624-.2301.1363-.101-.0262-.1617-.1295-.1357-.2309l.3335-1.2992c.026-.1014.129-.1624.23-.1363z" fill="#000"/><path d="m74.8043 19.2877c.101.0261.1617.1295.1357.2309l-.7787 3.0335c-.026.1014-.129.1624-.23.1363s-.1618-.1295-.1357-.2309l.7787-3.0335c.026-.1014.129-.1624.23-.1363zm1.1086.3792c.101.0261.1618.1295.1358.2309l-.7787 3.0335c-.026.1014-.129.1624-.23.1363s-.1618-.1295-.1358-.2309l.7787-3.0335c.0261-.1014.129-.1624.23-.1363zm-2.1639-.3792c.101.0261.1618.1295.1357.2309l-.7786 3.0335c-.0261.1014-.129.1624-.23.1363s-.1618-.1295-.1358-.2309l.7787-3.0335c.026-.1014.129-.1624.23-.1363zm-5.4022 21.045c.101.0262.1618.1295.1358.2309l-.5354 2.0856c-.026.1014-.129.1624-.23.1363-.101-.0262-.1617-.1295-.1357-.2309l.5353-2.0856c.0261-.1014.129-.1624.23-.1363z" fill="#000"/><path d="m32.3043 13.4104c.101.0261.1618.1295.1358.2309l-.6814 2.6543c-.026.1014-.129.1624-.23.1363s-.1618-.1295-.1357-.2309l.6813-2.6544c.026-.1014.129-.1624.23-.1362zm-2.1639-.3792c.101.0261.1618.1295.1357.2309l-.6076 2.3671c-.026.1014-.129.1624-.23.1363-.101-.0262-.1618-.1296-.1358-.231l.6077-2.367c.026-.1014.129-.1625.23-.1363zm.9579.3792c.101.0261.1618.1295.1358.2309l-.5841 2.2751c-.026.1014-.129.1624-.23.1363s-.1618-.1295-.1357-.2309l.584-2.2752c.026-.1014.129-.1624.23-.1362z" fill="#000"/><path d="m28.9524 12.8403c.101.0261.1618.1295.1358.2309l-.554 2.1581c-.0261.1014-.129.1624-.23.1363s-.1618-.1295-.1358-.2309l.554-2.1581c.026-.1014.129-.1624.23-.1363z" fill="#000"/><path d="m35.8385 13.2209c.101.0261.1618.1295.1357.2309l-.6396 2.492c-.0261.1014-.129.1624-.23.1363s-.1618-.1295-.1358-.2309l.6397-2.492c.026-.1014.129-.1624.23-.1363zm-1.206 0c.101.0261.1618.1295.1357.2309l-.73 2.8439c-.026.1014-.129.1625-.23.1363-.101-.0261-.1618-.1295-.1358-.2309l.7301-2.8439c.026-.1014.129-.1624.23-.1363zm-1.1126.2231c.101.0262.1618.1295.1358.2309l-.6728 2.6208c-.026.1014-.129.1625-.23.1363-.101-.0261-.1617-.1295-.1357-.2309l.6727-2.6208c.0261-.1014.129-.1624.23-.1363z" fill="#000"/><path d="m38.4683 11.8932c.101.0261.1618.1295.1358.2309l-.8761 3.4127c-.026.1014-.129.1624-.23.1363-.101-.0262-.1617-.1295-.1357-.2309l.876-3.4128c.026-.1013.129-.1624.23-.1362zm-1.3472 1.1375c.101.0262.1617.1295.1357.2309l-.73 2.844c-.026.1014-.129.1624-.23.1363-.101-.0262-.1618-.1296-.1358-.231l.73-2.8439c.0261-.1014.1291-.1624.2301-.1363z" fill="#000"/><path d="m57.8123 35.5853-3.7771-.7584 1.1331-.3783c-2.0774-9.4797-6.6099-29.00801-12.4644-30.14557-3.3465-.65025-7.3653 5.87747-7.9319 8.34217l1.322.5688-3.7771.1896.7554-1.5168.5666.3792c.8813-2.71752 3.4749-8.38008 9.065-8.53176s12.0237 20.22346 14.3529 30.33516l1.322-.1904zm6.9115-.4706-.7554-1.5168 1.5108.3792c.3777-7.015 2.7061-17.5923 8.6873-15.7364 2.4324.7548 2.6952.6605 3.0828.5215.1842-.0661.3965-.1423.8831-.1423l.7555 1.5168-2.4551-.5688c-.2519-.5056-2.153-.9859-3.2106-.3792-.0324.0186-.0666.0381-.1025.0584l-.0008.0005c-1.4225.8079-5.3968 3.0649-6.3177 15.0833-.0089.1162.0838.1171.0838.321.231.0857-.473.0641-.1966.175zm46.7232 11.8043.566 11.5653-11.709-3.7919 5.1-1.7063c-.423-.8251-.868-1.7472-1.346-2.7365v-.0004-.0004c-3.586-7.4215-8.997-18.62-19.995-20.9621-9.1406-1.9465-18.3189 9.1006-18.3189 9.1006s.9443.1896 2.2663.1896l-6.4211 1.3691.5666-2.3171 1.8125.2316-.4905.7163c4.5325-6.025 13.4842-13.6887 22.0959-12.3236 13.9752 2.2153 22.8512 25.2161 22.8512 25.2161s2.266-2.5279 3.022-4.5503zm-58.1672-12.0921 2.0773 2.0856-3.0216 1.8959.5665-1.8959c-4.0288-6.383-13.2198-17.8219-23.0402-17.4427-8.0921.3124-13.2198 5.8774-14.7306 7.5838l-1.1331 2.0855-2.4551-2.0855h2.4551c3.0216-3.6023 10.7647-8.5318 15.2972-8.5318 5.6656 0 9.6315.5688 15.486 6.067 4.6836 4.3986 7.1765 8.7214 8.4985 11.5653z" fill="#01c9cc"/></g><g mask="url(#d)"><path clip-rule="evenodd" d="m67.9739 22.7626c-1.5054 3.2669-2.3204 7.6457-2.5085 11.138-.003.0565-.0311.1087-.0764.1423-.0454.0337-.1033.0452-.158.0314l-1.1124-.2792.5191 1.0425 2.6464-.0178c-.0945-.0353-.1829-.0688-.2633-.1005-.1547-.061-.2906-.1195-.3888-.1764-.0484-.028-.0984-.0616-.1379-.1023-.0371-.0383-.0913-.1107-.0836-.2109.4736-6.1806 1.7536-9.8089 3.0965-11.9931 1.2816-2.0847 2.6136-2.8414 3.3163-3.2406.0359-.0204.0703-.0399.1029-.0586.5829-.3344 1.3736-.3606 2.0323-.2499.3328.056.6438.1488.8919.2637.2089.0968.4034.223.5106.3802l.3032.1318 1.6809.3274-.5166-1.0373c-.4007.0962-.691.1476-.8876.175-.11.0153-.1907.0232-.2452.0272-.0273.002-.0479.003-.0624.0036-.0072.0003-.0129.0004-.0171.0005l-.0045.0001c-.225.0064-.3713-.041-.6435-.1406-.0311-.0114-.0643-.0236-.0997-.0367-.2735-.1009-.6853-.2527-1.3936-.4725-1.4327-.4446-2.6728-.1455-3.747.6638-1.0829.8159-2.001 2.1546-2.754 3.7889zm8.6342-4.1821h.0008c.0018-.0001.0052-.0001.0101-.0003.0099-.0004.0261-.0012.049-.0029.0459-.0034.1185-.0103.221-.0246.205-.0286.5288-.0864.9953-.2034.0858-.0215.1751.0197.2147.0991l.7554 1.5168c.0322.0646.025.1419-.0185.1994-.0435.0576-.1158.0853-.1864.0715l-2.0774-.4046c-.0134-.0026-.0265-.0067-.0391-.0121l-.3777-.1642c-.0407-.0177-.074-.0493-.0938-.0892-.0324-.065-.1461-.167-.3694-.2705-.2123-.0983-.4899-.1825-.796-.234-.6193-.1041-1.3079-.0671-1.7825.2051-.033.0189-.0676.0386-.1039.0592-.6837.3881-1.95 1.1071-3.1813 3.1099-1.2967 2.1092-2.562 5.6559-3.0365 11.761.0076.0051.0171.011.0287.0177.0717.0415.1845.0913.3383.1519.1259.0497.2721.1039.4357.1646.0338.0126.0684.0254.1038.0385.2049.0762.4318.1614.6702.2572.0839.0336.1322.1222.1155.2112-.0168.0891-.094.1538-.1843.1544l-3.7771.0254c-.072.0005-.138-.0402-.1702-.1048l-.7554-1.5168c-.033-.0662-.0246-.1457.0216-.2034.0461-.0578.1216-.0833.1931-.0653l1.2896.3237c.2123-3.4841 1.0309-7.7952 2.5296-11.0476.7656-1.6613 1.7164-3.0637 2.8702-3.933 1.1627-.876 2.5273-1.2062 4.0852-.7228.7178.2227 1.1371.3774 1.4119.4787.0354.0131.0683.0253.0992.0366.2696.0986.3568.1221.505.1177l.0049-.0001z" fill="#22222a" fill-rule="evenodd"/></g><path clip-rule="evenodd" d="m57.1972 33.8388 1.3244-.3332c.0688-.0173.1415.0056.1882.0592.0466.0536.0594.129.0331.1951l-.7554 1.896c-.0338.0848-.1231.1334-.2124.1155l-3.7771-.7584c-.084-.0169-.1461-.0883-.1515-.1741-.0053-.0858.0476-.1645.1288-.1917l.9719-.3252c-1.0407-4.7419-2.6774-11.8877-4.7734-18.0132-1.0607-3.0996-2.236-5.929-3.5066-8.05101-.6353-1.06093-1.2907-1.93888-1.9628-2.58458-.6724-.64609-1.3522-1.05092-2.0365-1.1839-.7694-.1495-1.5975.11003-2.4326.65533-.8337.54428-1.6531 1.36-2.393 2.28055-1.4219 1.76922-2.5179 3.88491-2.848 5.10951l1.174.5052c.0808.0347.127.1208.1115.2077-.0156.0869-.0887.1515-.1765.1559l-3.7771.1896c-.067.0033-.1308-.0293-.1675-.0857s-.0409-.1282-.0108-.1885l.7554-1.5167c.0242-.0487.0681-.0845.1204-.0985.0524-.0139.1082-.0047.1533.0255l.3608.2415c.4659-1.3699 1.3264-3.35417 2.722-5.05324 1.4803-1.80233 3.5732-3.29485 6.4389-3.3726.7583-.02058 1.5123.3074 2.2477.88542.7357.5783 1.467 1.41773 2.1856 2.44938 1.4373 2.06362 2.8446 4.92714 4.1457 8.10134 2.5712 6.2726 4.7427 13.7952 5.9195 18.8578zm-12.4837-29.10996c-.6955-.54671-1.3654-.82227-2.0046-.80493-2.7244.07392-4.7234 1.48852-6.1577 3.23478-1.4365 1.7489-2.296 3.81921-2.7329 5.16611-.0183.0565-.0618.101-.1176.1205-.0558.0194-.1175.0115-.1667-.0214l-.3886-.2601-.5151 1.0343 2.6391-.1324-.5719-.2461c-.084-.0361-.1302-.1275-.1096-.2169.2919-1.2698 1.456-3.54359 2.9605-5.41562.754-.93818 1.6021-1.78651 2.4809-2.36031.8773-.57278 1.8065-.88537 2.7104-.70974.7792.15141 1.5217.60565 2.2259 1.28224.7046.67697 1.3799 1.58529 2.0253 2.66316 1.2907 2.15557 2.4761 5.01377 3.5401 8.12317 2.1285 6.2204 3.7829 13.4818 4.8216 18.2216.0208.0947-.0331.1899-.1247.2206l-.4585.1534 2.9257.5874.5598-1.405-1.1523.2899c-.0492.0123-.1012.0043-.1445-.0222-.0432-.0266-.074-.0695-.0854-.119-1.163-5.0487-3.3509-12.6601-5.9443-18.987-1.2971-3.1645-2.692-5.99831-4.106-8.02835-.7071-1.01518-1.4137-1.82167-2.1089-2.36811z" fill="#22222a" fill-rule="evenodd"/><path clip-rule="evenodd" d="m21.1745 21.6015c-2.8686 1.676-5.5403 3.796-7.0326 5.575-.0358.0428-.0887.0675-.1444.0675h-1.9396l1.8847 1.6009 1.0222-1.8813c.0069-.0126.0151-.0244.0247-.0352 1.515-1.7111 6.6888-7.3316 14.8645-7.6473 4.9838-.1924 9.7836 2.6122 13.8249 6.2336 4.0461 3.6255 7.3618 8.0963 9.3821 11.2971.0293.0464.0371.1033.0214.156l-.4226 1.414 2.3954-1.503-1.5872-1.5933v.8694c0 .0889-.0615.1659-.1479.1851-.0865.0193-.1746-.0244-.2121-.1049-1.3141-2.827-3.794-7.1284-8.4563-11.507-2.9138-2.7365-5.3464-4.2359-7.7456-5.0543-2.401-.8191-4.7832-.9616-7.6114-.9616-2.2138 0-5.2461 1.2101-8.1202 2.8893zm-.19-.3277c2.886-1.6862 5.9915-2.9408 8.3102-2.9408 2.8374 0 5.2709.1419 7.7329.9818 2.4638.8405 4.9415 2.3746 7.8821 5.1364 4.3103 4.048 6.775 8.0336 8.1806 10.8733v-.4967c0-.0767.046-.1459.1166-.1752.0706-.0294.1518-.0131.2058.0411l2.0774 2.0855c.0407.0409.0606.0981.0541.1556-.0065.0574-.0387.1087-.0875.1393l-3.0217 1.8959c-.0667.0419-.1522.0378-.2147-.01-.0625-.0479-.0889-.1296-.0663-.2052l.5418-1.813c-2.0127-3.1769-5.2872-7.5768-9.2684-11.1442-4.0164-3.5991-8.7223-6.3243-13.5589-6.1376-7.9834.3083-13.0581 5.7841-14.5824 7.5042l-1.1228 2.0665c-.0272.05-.0754.0851-.1312.0956-.0557.0104-.1133-.0048-.1566-.0417l-2.4551-2.0855c-.0605-.0514-.0826-.1352-.0554-.2099.0273-.0748.0981-.1244.1774-.1244h2.3676c1.5392-1.8086 4.2187-3.9225 7.0745-5.591z" fill="#22222a" fill-rule="evenodd"/><path clip-rule="evenodd" d="m73.098 29.8028c-3.859 2.4843-7.2143 5.8899-9.4695 8.8877-.0619.0823-.1779.0998-.2611.0396-.0833-.0603-.1034-.1763-.0452-.2612l.315-.4601-1.3381-.171-.4547 1.8595 4.715-1.0054c-.0705-.0072-.1373-.0146-.2-.022-.2037-.0241-.3657-.0482-.4774-.0664-.0558-.009-.099-.0167-.1286-.022-.0147-.0027-.0261-.0049-.0339-.0064l-.009-.0017-.0024-.0005-.0007-.0001s-.0004-.0001.0366-.186c-.145-.1215-.1448-.1217-.1448-.1217l.0018-.0021.0053-.0063.0205-.0243c.018-.0213.0447-.0527.0799-.0934.0702-.0814.1742-.2001.3095-.3503.2707-.3004.6672-.7266 1.1714-1.2318 1.008-1.01 2.4483-2.337 4.1768-3.6035 3.4476-2.5261 8.0852-4.8434 12.7377-3.8527 6.2974 1.3411 10.7713 5.5545 14.1137 10.2903 2.5552 3.6207 4.4622 7.5667 6.0162 10.7842.477.9865.92 1.9046 1.339 2.7238.027.0518.028.113.004.1659s-.071.0917-.128.1051l-3.643.868 9.265 4.5628v-10.4317c-.558.8449-1.122 1.6253-1.572 2.226-.273.3635-.504.6615-.667.8689-.081.1037-.146.1847-.19.2399-.022.0276-.039.0488-.051.063l-.013.0163-.003.0042-.001.001-.001.0004s0 .0001-.146-.12c-.176.0685-.176.0683-.176.0683l-.001-.0037-.005-.0121c-.004-.0108-.011-.0271-.019-.0486-.017-.0431-.043-.1074-.077-.1914-.068-.168-.17-.415-.304-.7305-.269-.6311-.669-1.5356-1.193-2.6283-1.048-2.1857-2.59-5.1221-4.567-8.1265-1.978-3.0052-4.387-6.0733-7.1676-8.5263-2.7809-2.4533-5.9242-4.2833-9.3711-4.8297-4.2418-.6724-8.5851.8771-12.4463 3.3628zm35.327 21.666-.176.0683c.024.0629.08.1083.146.1189.067.0107.134-.015.176-.0672zm.055-.3718c-.068-.1681-.165-.4027-.29-.6954-.271-.6355-.673-1.5452-1.2-2.6435-1.053-2.1962-2.603-5.1485-4.592-8.1711-1.989-3.0219-4.419-6.1194-7.2333-8.6021-2.8138-2.4824-6.0208-4.3582-9.5615-4.9195-4.3699-.6927-8.8084.9071-12.7091 3.4182-3.5643 2.2946-6.6983 5.3617-8.9498 8.1823l-1.7646-.2256c-.0953-.0122-.1844.0493-.2073.1429l-.5666 2.3171c-.0155.0634.0026.1303.0478.1772.0453.0468.1113.0671.1749.0535l6.421-1.3692c.0946-.0201.1587-.1087.1486-.2052-.0101-.0966-.0911-.1698-.1878-.1698-.6522 0-1.2113-.0468-1.6068-.0935-.1123-.0133-.2114-.0266-.2956-.0387.0534-.0608.1164-.1316.1884-.2115.267-.2962.659-.7177 1.1581-1.2178.9985-1.0005 2.424-2.3136 4.1327-3.5656 3.4267-2.5108 7.9485-4.7438 12.4366-3.788 6.167 1.3133 10.5693 5.442 13.884 10.1385 2.5353 3.5923 4.4223 7.4968 5.9753 10.7111.438.9078.85 1.7605 1.243 2.5355l-3.921.9342c-.078.0185-.135.0839-.144.1634s.033.1561.104.1913l10.01 4.9295c.058.0288.128.0253.183-.0093s.089-.0955.089-.1609v-11.3757c0-.0843-.056-.1585-.136-.182-.081-.0236-.167.0091-.212.0802-.658 1.0372-1.363 2.0177-1.904 2.7396-.271.3608-.5.6565-.661.862-.019.0238-.037.0465-.054.0679zm-42.736-12.7102-.1448-.1217c-.0427.0514-.0554.1217-.0332.1847.0221.0631.0761.1098.1414.123z" fill="#22222a" fill-rule="evenodd"/><path d="m65.4712 23.712-2.7591-2.7734c-.3267-.3102-.7159-.5463-1.1413-.6926-.9426-.315-1.8807-.0691-2.6405.6926l-2.7658 2.7734c-.3089.328-.5441.7188-.6898 1.1459-.3149.9464-.07 1.8882.6898 2.6499l2.7624 2.7734c.3262.3102.7151.5464 1.1402.6925.2576.0874.5274.1326.7993.1338.6627 0 1.2971-.2811 1.8412-.8263l2.7613-2.7734c.3093-.328.5449-.7187.6909-1.1459.3139-.9464.0689-1.8871-.6909-2.6499zm-4.4411-1.9687c.2087.0671.401.1776.5644.3241l.8162.8206-1.5917 1.597-1.5918-1.5981.8207-.8251c.2202-.2199.5306-.4534.9844-.3197zm-4.0618 3.6518c.0671-.2097.1775-.4028.324-.5667l.8162-.8195 1.5917 1.5981-1.5929 1.5981-.8207-.8251c-.2201-.2198-.4515-.5315-.3195-.9872zm3.6373 4.078c-.2089-.0666-.4014-.1771-.5644-.3242l-.814-.8103 1.5918-1.5993 1.5917 1.5981-.8207.8251c-.2201.2199-.5294.4534-.9844.3197zm4.0641-3.6439c-.0671.2094-.1771.4025-.3229.5667l-.8162.8092-1.5918-1.5981 1.5918-1.5981.8207.824c.2202.2199.4516.5316.3195.9872" fill="#00abe4"/><path d="m5.91913 18.678c0 .1474.01586.2668.04363.3544.03172.0876.07138.1831.12691.2867.01983.0318.02776.0637.02776.0915 0 .0399-.0238.0797-.07535.1195l-.24986.1672c-.03569.0239-.07139.0358-.10311.0358-.03966 0-.07932-.0199-.11898-.0557-.05552-.0597-.10312-.1234-.14278-.1871-.03965-.0677-.07931-.1434-.12294-.2349-.30934.3663-.698.5494-1.16599.5494-.33313 0-.59885-.0955-.79318-.2867-.19433-.1911-.29348-.4459-.29348-.7644 0-.3384.11898-.6132.3609-.8202s.56316-.3106.97165-.3106c.13484 0 .27365.012.42039.0319s.29745.0518.45609.0876v-.2907c0-.3026-.06346-.5136-.1864-.637-.12691-.1234-.34107-.1831-.64645-.1831-.13881 0-.28158.0159-.42832.0517s-.28952.0796-.42832.1354c-.06346.0279-.11105.0438-.13881.0517-.02776.008-.04759.012-.06346.012-.05552 0-.08328-.0398-.08328-.1234v-.1951c0-.0637.00793-.1115.02776-.1394s.05552-.0557.11105-.0836c.1388-.0717.30537-.1314.4997-.1792.19434-.0517.40056-.0756.61869-.0756.47195 0 .81698.1075 1.03908.3225.21812.215.32917.5415.32917.9794v1.29zm-1.61017.6052c.13088 0 .26572-.0239.40849-.0716.14278-.0478.26969-.1354.37677-.2549.06345-.0756.11104-.1592.13484-.2548.02379-.0955.03966-.211.03966-.3464v-.1672c-.11502-.0279-.23796-.0517-.36487-.0677-.12691-.0159-.24985-.0239-.3728-.0239-.26572 0-.46005.0518-.59092.1593-.13088.1075-.19433.2588-.19433.4579 0 .1871.04759.3265.14674.422.09518.0996.23399.1473.41642.1473zm3.18465.43c-.07139 0-.11898-.0119-.15071-.0398-.03172-.0239-.05949-.0796-.08328-.1553l-.932-3.0777c-.02379-.0796-.03569-.1313-.03569-.1592 0-.0637.03173-.0996.09518-.0996h.38866c.07536 0 .12691.012.15467.0399.03173.0238.05553.0796.07932.1552l.66628 2.6358.61869-2.6358c.01983-.0796.04362-.1314.07535-.1552.03173-.0239.08725-.0399.15864-.0399h.31727c.07536 0 .12691.012.15864.0399.03173.0238.05949.0796.07535.1552l.62662 2.6676.6861-2.6676c.0238-.0796.0516-.1314.0793-.1552.0318-.0239.0833-.0399.1547-.0399h.3688c.0635 0 .0992.0319.0992.0996 0 .0199-.004.0398-.008.0637-.0039.0239-.0118.0557-.0277.0995l-.9558 3.0777c-.0238.0797-.0516.1314-.0833.1553-.03172.0239-.08327.0398-.1507.0398h-.34107c-.07535 0-.12691-.0119-.15863-.0398-.03173-.0279-.05949-.0796-.07536-.1593l-.61472-2.568-.61075 2.5641c-.01983.0796-.04363.1313-.07535.1592-.03173.0279-.08725.0398-.15864.0398zm5.09619.1075c-.2062 0-.4124-.0239-.6107-.0716-.1983-.0478-.353-.0996-.4561-.1593-.0635-.0358-.1071-.0756-.1229-.1115-.0159-.0358-.0238-.0756-.0238-.1115v-.203c0-.0836.0317-.1234.0912-.1234.0238 0 .0476.0039.0714.0119s.0595.0239.0991.0398c.1349.0597.2816.1075.4363.1394.1586.0318.3133.0477.4719.0477.2499 0 .4442-.0437.579-.1313.1349-.0876.2063-.215.2063-.3783 0-.1115-.0357-.203-.1071-.2787-.0714-.0756-.2062-.1433-.4006-.207l-.575-.1792c-.2895-.0916-.5037-.2269-.6346-.4061-.1309-.1752-.1983-.3703-.1983-.5773 0-.1672.0357-.3146.1071-.442s.1666-.2389.2855-.3265c.119-.0915.2539-.1592.4125-.207s.3252-.0677.4997-.0677c.0873 0 .1785.004.2657.016.0912.0119.1745.0278.2578.0437.0793.02.1547.0399.2261.0638.0714.0238.1269.0477.1665.0716.0556.0319.0952.0637.119.0996.0238.0318.0357.0756.0357.1313v.1872c0 .0836-.0317.1274-.0912.1274-.0317 0-.0833-.0159-.1507-.0478-.2261-.1035-.4799-.1553-.7615-.1553-.226 0-.4045.0359-.5274.1115-.123.0757-.1864.1911-.1864.3544 0 .1114.0396.207.1189.2826.0794.0757.2261.1513.4363.219l.5632.1792c.2855.0916.4917.219.6147.3822.1229.1633.1824.3504.1824.5574 0 .1712-.0357.3265-.1031.4619-.0714.1354-.1666.2548-.2895.3504-.123.0995-.2697.1712-.4402.2229-.1785.0558-.3649.0836-.5672.0836z" fill="#252f3e"/><path d="m13.3393 21.7547c-1.3048.9675-3.2005 1.4811-4.83053 1.4811-2.28438 0-4.3427-.848-5.89735-2.2575-.12294-.1115-.0119-.2628.13484-.1752 1.68156.9795 3.75575 1.5727 5.90132 1.5727 1.44752 0 3.03792-.3026 4.50132-.9237.2181-.0995.4045.1433.1904.3026zm.5433-.6211c-.1665-.215-1.1025-.1035-1.5269-.0518-.1269.016-.1467-.0955-.0317-.1791.7456-.5256 1.9711-.3743 2.1139-.1991.1427.1792-.0397 1.4094-.7377 1.9987-.1071.0916-.2102.0438-.1626-.0757.1586-.3941.5116-1.282.345-1.493z" fill="#f90"/><g clip-path="url(#c)"><path d="m80.614 7.65911h.3662l1.0432-1.04321.0513-.44264c-1.941-1.71321-4.9042-1.52861-6.6174.41246-.4764.53921-.8219 1.18053-1.01 1.87467.1162-.04779.2449-.05533.3661-.02213l2.086-.34405s.1061-.17555.1609-.16448c.9281-1.01908 2.4899-1.13778 3.5613-.27062z" fill="#ea4335"/><path d="m83.5097 8.46036c-.2399-.88276-.7318-1.67648-1.4164-2.2836l-1.4637 1.46372c.6182.50501.9703 1.26604.9552 2.0643v.26005c.7198 0 1.3027.58347 1.3027 1.30277 0 .7198-.5834 1.3028-1.3027 1.3028h-2.606l-.26.2635v1.5628l.26.2601h2.606c1.4939.0116 2.8193-.9567 3.2629-2.3832.4426-1.427-.1006-2.97625-1.338-3.81324z" fill="#4285f4"/><path d="m76.3684 14.6426h2.6061v-2.0859h-2.6061c-.1856 0-.3692-.0398-.5382-.1172l-.3661.1131-1.0503 1.0432-.0915.3662c.589.4447 1.3077.6836 2.0461.6806z" fill="#34a853"/><path d="m76.3688 7.87502c-1.4476.00855-2.7297.93557-3.1915 2.30728-.4617 1.3716-.0015 2.8857 1.1458 3.7679l1.5116-1.5115c-.656-.2963-.9472-1.0679-.6509-1.7238.2962-.6559 1.0678-.9471 1.7237-.6508.2888.1307.5201.3621.6509.6508l1.5115-1.51147c-.6433-.8405-1.6428-1.33193-2.7011-1.32841z" fill="#fbbc05"/></g></svg>