<svg xmlns="http://www.w3.org/2000/svg" fill="none" viewBox="0 0 775 162"><rect width="774.763" height="160.959" y=".469" fill="#FAFCFF" rx="8.204"/><path stroke="#9293AB" stroke-linecap="round" stroke-linejoin="round" d="M268.218 94.91h160.295m0 0-6.977 4.25m6.977-4.25-7.085-4.126M428.146 103.285H267.22m0 0 6.977 4.25m-6.977-4.25 7.085-4.126"/><path fill="#00ADE4" fill-rule="evenodd" d="M194.807 67.352c-8.035 4.694-10.803 14.976-6.211 23.07l16.035 28.257c4.63 8.159 14.992 11.026 23.157 6.407l2.685-1.52c8.089-4.576 11.004-14.8 6.544-22.954l-15.616-28.551c-4.595-8.402-15.22-11.352-23.489-6.522l-3.105 1.813Zm-.994 19.781a5.764 5.764 0 0 1 2.106-7.821l2.295-1.34 8.835 14.58-7.615 4.487-5.621-9.906Zm18.822 2.127-8.822-14.559 3.971-2.32a5.764 5.764 0 0 1 7.964 2.212l5.308 9.705-8.421 4.962Zm5.477 9.316 8.132-4.792 5.395 9.864a5.763 5.763 0 0 1-2.219 7.782l-2.815 1.593-8.493-14.447Zm-5.586 3.292 8.434 14.348-3.047 1.724a5.764 5.764 0 0 1-7.851-2.172l-5.294-9.329 7.758-4.571Z" clip-rule="evenodd"/><path fill="#fff" d="M528.412 99.42 504.661 85.51V57.235l23.751-14.458 24.478 14.458v28.274L528.412 99.42Z"/><path fill="#F3F3FA" d="M552.89 85.509 528.412 99.42V70.574l24.478-13.34V85.51Z"/><path stroke="#B0B1C3" stroke-linecap="round" d="m504.538 85.527 24.155 13.946M528.693 42.883l24.156 13.946M504.538 56.828l24.155 13.946M528.692 99.473l24.156-13.946M528.693 70.773l24.156-13.946M504.538 56.828l24.155-13.946M528.692 99.156V71.264M552.848 85.113V57.221M504.538 85.113V57.221"/><path fill="#fff" d="m496.12 120.225-23.751-13.911V78.039l23.751-14.457 24.478 14.457v28.275l-24.478 13.911Z"/><path fill="#F3F3FA" d="m520.598 106.313-24.478 13.912V91.378l24.478-13.339v28.274Z"/><path stroke="#4F5162" stroke-linecap="round" d="m472.246 106.332 24.155 13.946M496.401 63.688l24.156 13.945M472.246 77.633l24.155 13.946M496.4 120.277l24.156-13.946M496.401 91.578l24.156-13.946M472.246 77.633l24.155-13.946M496.4 119.961V92.069M520.556 105.918V78.026M472.246 105.918V78.026"/><path fill="#00ADE4" fill-rule="evenodd" d="M476.463 89.883a4.381 4.381 0 0 0-1.601 5.946l7.403 13.048a4.382 4.382 0 0 0 5.969 1.651l3.898-2.205a4.383 4.383 0 0 0 1.687-5.917l-7.231-13.22a4.382 4.382 0 0 0-6.055-1.68l-4.07 2.377Zm1.094 6.23a2.063 2.063 0 0 1 .753-2.798l.821-.48 3.161 5.217-2.724 1.605-2.011-3.544Zm6.734.761-3.156-5.209 1.42-.83a2.063 2.063 0 0 1 2.85.792l1.899 3.472-3.013 1.775Zm1.96 3.333 2.909-1.714 1.93 3.529a2.061 2.061 0 0 1-.794 2.784l-1.007.57-3.038-5.169Zm-1.999 1.178 3.018 5.134-1.091.616a2.061 2.061 0 0 1-2.809-.777l-1.894-3.337 2.776-1.636Z" clip-rule="evenodd"/><path fill="#fff" d="m560.704 120.225-23.751-13.911V78.039l23.751-14.457 24.478 14.457v28.275l-24.478 13.911Z"/><path fill="#F3F3FA" d="m585.182 106.313-24.478 13.912V91.378l24.478-13.339v28.274Z"/><path stroke="#B0B1C3" stroke-linecap="round" d="m536.83 106.332 24.155 13.946M560.985 63.688l24.156 13.945M536.83 77.633l24.155 13.946M560.984 120.277l24.156-13.946M560.985 91.578l24.156-13.946M536.83 77.633l24.155-13.946M560.984 119.961V92.069M585.14 105.918V78.026M536.83 105.918V78.026"/><path fill="#fff" d="m528.412 141.03-23.751-13.912V98.844l23.751-14.457 24.478 14.457v28.274l-24.478 13.912Z"/><path fill="#F3F3FA" d="m552.89 127.118-24.478 13.911v-28.846l24.478-13.34v28.275Z"/><path stroke="#B0B1C3" stroke-linecap="round" d="m504.538 127.137 24.155 13.946M528.693 84.492l24.156 13.946M504.538 98.438l24.155 13.945M528.692 141.082l24.156-13.946M528.693 112.383l24.156-13.946M504.538 98.438l24.155-13.947M528.692 140.766v-27.892M552.848 126.723V98.831M504.538 126.723V98.831"/><path fill="#000" d="M383.641 51.752c-.254.04-.487.06-.7.06-.214.013-.527-.034-.94-.14-.214-.067-.367-.147-.46-.24-.08-.094-.22-.267-.42-.52a2.618 2.618 0 0 1-.32-.6c-.054-.174-.06-.314-.02-.42.04-.094.126-.12.26-.08.04.013.1.053.18.12.093.08.18.173.26.28.186.2.413.333.68.4.266.066.62.073 1.06.02.186-.04.413-.1.68-.18.266-.067.526-.154.78-.26.253-.107.453-.214.6-.32.706-.48 1.273-.86 1.7-1.14l.64-.42a.25.25 0 0 1 .14-.12 2.9 2.9 0 0 1 .28-.12l.38-.38c.186-.174.36-.347.52-.52.173-.174.28-.274.32-.3a1.78 1.78 0 0 1 .08-.28c.026-.08.04-.16.04-.24.106-.107.246-.327.42-.66.186-.347.373-.727.56-1.14.186-.427.32-.814.4-1.16.186-.934.233-1.72.14-2.36-.094-.64-.287-1.187-.58-1.64a4.953 4.953 0 0 0-1.06-1.24 3.433 3.433 0 0 0-.62-.38 5.528 5.528 0 0 0-.8-.38c-.28-.107-.527-.194-.74-.26-.2-.067-.32-.094-.36-.08-.054.013-.167.226-.34.64-.16.4-.354.913-.58 1.54a172.46 172.46 0 0 1-.74 2l-.72 2c-.08.253-.167.52-.26.8-.094.28-.174.526-.24.74-.067.2-.1.333-.1.4-.147.226-.267.526-.36.9-.08.373-.174.993-.28 1.86-.12.453-.207.8-.26 1.04-.054.226-.107.333-.16.32l-.02.02-.06.06c0 .08-.054.12-.16.12-.107 0-.234-.027-.38-.08a1.211 1.211 0 0 1-.32-.22 2.54 2.54 0 0 1-.08-.42c0-.134.053-.394.16-.78l.24-.92c.106-.374.22-.754.34-1.14.12-.4.233-.767.34-1.1l.24-.76c.093-.227.226-.654.4-1.28l.32-1.04c.12-.347.233-.654.34-.92.106-.28.18-.46.22-.54.066-.174.166-.467.3-.88.133-.414.306-.874.52-1.38l.14-.66-.22-.1a.883.883 0 0 1-.38.06 1.43 1.43 0 0 1-.16-.06c-.08.026-.194.006-.34-.06a1.584 1.584 0 0 1-.4-.26.775.775 0 0 1-.2-.28.69.69 0 0 1-.06-.2v-.14c.013-.08.113-.154.3-.22.186-.08.426-.147.72-.2.306-.054.633-.087.98-.1a6.76 6.76 0 0 1 1.04 0c.346.026.673.1.98.22.306.12.64.246 1 .38.426.16.873.44 1.34.84.48.386.913.846 1.3 1.38.4.533.666 1.093.8 1.68.04.16.08.386.12.68.04.293.06.58.06.86.013.266-.014.44-.08.52a.69.69 0 0 0-.06.2c0 .066.026.113.08.14a20.63 20.63 0 0 1-.36 1.12 4.191 4.191 0 0 1-.24 1.08c-.134.373-.28.726-.44 1.06-.16.32-.307.593-.44.82a.351.351 0 0 0-.16.04c-.04.013-.034.026.02.04 0 .066-.074.193-.22.38-.054.04-.14.14-.26.3a1.695 1.695 0 0 1-.26.3.422.422 0 0 1-.12.24c-.067.053-.127.08-.18.08h-.04c-.014 0-.02.026-.02.08a4.14 4.14 0 0 1-.5.58c-.227.213-.487.44-.78.68-.28.226-.574.44-.88.64a4.47 4.47 0 0 1-.84.46 1.839 1.839 0 0 1-.42.22c-.147.066-.287.133-.42.2-.067.053-.214.126-.44.22a7.903 7.903 0 0 1-.74.3c-.254.093-.48.16-.68.2Zm12.777-2.6c-.28.24-.606.38-.98.42a2.09 2.09 0 0 1-1.06-.16c-.346-.16-.633-.4-.86-.72a2.272 2.272 0 0 1-.44-1c-.066-.387-.073-.887-.02-1.5.04-.52.207-1.04.5-1.56a6.29 6.29 0 0 1 1.06-1.42c.427-.414.847-.7 1.26-.86.2-.134.367-.194.5-.18.147 0 .367.013.66.04.307.04.534.1.68.18.16.08.287.186.38.32.2.2.334.4.4.6.067.186.1.373.1.56-.053.293-.253.653-.6 1.08-.333.413-.773.753-1.32 1.02a2.792 2.792 0 0 1-.96.12c-.346-.014-.633-.1-.86-.26-.253-.107-.42-.087-.5.06-.08.133-.153.466-.22 1-.053.506-.013.88.12 1.12.134.226.314.36.54.4.267.053.474.093.62.12.16.013.354-.047.58-.18.214-.134.347-.207.4-.22a.445.445 0 0 0 .12-.08l.26-.26c.094-.094.167-.16.22-.2a.25.25 0 0 1 .18-.08c.067 0 .127.033.18.1a.646.646 0 0 0 .16.12c.134 0 .16.08.08.24-.066.16-.206.353-.42.58a4.405 4.405 0 0 1-.76.6Zm-.02-4.24c.147-.067.3-.16.46-.28.16-.134.294-.274.4-.42.12-.16.18-.294.18-.4 0-.187-.086-.34-.26-.46-.173-.134-.433-.154-.78-.06-.146.04-.313.14-.5.3a4.81 4.81 0 0 0-.54.5c-.16.186-.293.353-.4.5-.093.146-.126.233-.1.26.04.066.154.12.34.16.187.026.394.033.62.02a1.64 1.64 0 0 0 .58-.12Zm3.8 4.94c-.254.066-.46.013-.62-.16-.147-.174-.234-.44-.26-.8-.027-.36.013-.787.12-1.28.066-.16.12-.314.16-.46.04-.16.06-.287.06-.38a5.83 5.83 0 0 1 .16-.58 26.447 26.447 0 0 1 .52-1.56c.093-.227.153-.367.18-.42.053 0 .1-.047.14-.14a.706.706 0 0 0 .06-.28c0-.107.02-.227.06-.36a.84.84 0 0 1 .16-.28c0-.067.013-.14.04-.22a.608.608 0 0 0 .06-.22.35.35 0 0 1 .04-.16.266.266 0 0 0 .06-.16 8.4 8.4 0 0 0 .36-.82c.16-.387.326-.814.5-1.28.186-.467.36-.927.52-1.38.16-.454.286-.834.38-1.14.106-.32.16-.514.16-.58 0-.107.026-.187.08-.24.053-.054.133-.08.24-.08a.293.293 0 0 1 .14-.08.911.911 0 0 1 .18-.02l.08.08.24.24c.106.093.166.2.18.32.026.12.04.26.04.42 0 .173-.02.326-.06.46-.04.133-.12.326-.24.58l-.56 1.18c-.107.266-.22.52-.34.76-.12.226-.18.366-.18.42a.62.62 0 0 1-.08.24c-.04.106-.087.24-.14.4a10.01 10.01 0 0 0-.22.48c-.094.2-.194.42-.3.66-.094.226-.174.426-.24.6-.067.16-.1.253-.1.28a.675.675 0 0 1-.02.16c0 .053-.027.106-.08.16-.054 0-.087.04-.1.12v.1c0 .133-.107.486-.32 1.06-.214.733-.414 1.406-.6 2.02-.174.613-.26 1.106-.26 1.48 0 .32-.007.533-.02.64-.014.093-.074.166-.18.22Zm4.699.06c-.587 0-1.067-.22-1.44-.66-.374-.454-.554-1.014-.54-1.68.026-.48.12-.994.28-1.54.173-.56.4-1.094.68-1.6.28-.52.586-.974.92-1.36.333-.387.68-.66 1.04-.82a1.973 1.973 0 0 1 .9-.22c.146 0 .3.026.46.08.16.04.293.086.4.14.226.093.4.206.52.34.12.133.226.34.32.62.04.253.06.433.06.54 0 .106-.034.266-.1.48-.16.48-.367.893-.62 1.24-.254.346-.594.64-1.02.88-.107.066-.234.12-.38.16a2.237 2.237 0 0 1-1.2-.1 1.413 1.413 0 0 1-.58-.46l-.14-.16-.06.16c-.134.36-.24.693-.32 1a3.96 3.96 0 0 0-.1.84c0 .16.013.313.04.46.04.146.093.273.16.38.053.08.14.14.26.18.133.026.273.04.42.04h.28c.106-.014.206-.04.3-.08.226-.08.406-.167.54-.26a9.14 9.14 0 0 0 .44-.3l.08-.04h-.02c.16-.08.3-.16.42-.24l.2-.12c.053 0 .106-.034.16-.1.106-.054.24-.034.4.06.173.093.26.213.26.36-.014.066-.074.173-.18.32-.107.133-.227.26-.36.38-.12.12-.22.186-.3.2a.81.81 0 0 1-.14.08.427.427 0 0 0-.16.08h.02c-.12.16-.24.24-.36.24h-.16c-.054.093-.227.2-.52.32-.294.106-.58.16-.86.16Zm.9-4.4c.24 0 .446-.067.62-.2.186-.147.346-.307.48-.48.266-.36.42-.707.46-1.04.053-.347.013-.587-.12-.72a.5.5 0 0 0-.22-.06c-.054-.014-.167.006-.34.06-.12.026-.287.126-.5.3a8.185 8.185 0 0 0-.64.58c-.2.213-.354.393-.46.54l-.26.42a.851.851 0 0 1 .3-.06c.106-.014.166-.007.18.02 0 .12.02.233.06.34a.75.75 0 0 0 .18.22c.08.053.166.08.26.08Zm5.403 8.1c-.146.013-.373-.02-.68-.1a4.715 4.715 0 0 1-.66-.22 2.929 2.929 0 0 1-.52-.54 3.512 3.512 0 0 1-.42-.7c-.093-.227-.133-.4-.12-.52.014-.107.114-.127.3-.06.2.066.334.153.4.26.12.146.26.286.42.42.16.133.32.233.48.3.16.08.287.113.38.1.334-.054.607-.22.82-.5a3.87 3.87 0 0 0 .6-1.02c.107-.294.187-.54.24-.74.067-.187.127-.4.18-.64.067-.24.147-.574.24-1 .12-.48.2-.82.24-1.02.054-.214.08-.354.08-.42 0-.067-.02-.114-.06-.14l-.26.14a20.45 20.45 0 0 1-.58.3 8.27 8.27 0 0 0-.46.26c-.373.12-.74.193-1.1.22-.36.026-.64.006-.84-.06-.093-.04-.193-.134-.3-.28a2.737 2.737 0 0 1-.24-.48 1.324 1.324 0 0 1-.06-.48c.014-.107.074-.267.18-.48.107-.214.227-.44.36-.68.147-.24.274-.44.38-.6.12-.174.194-.26.22-.26.054 0 .08-.02.08-.06a.425.425 0 0 0 .02-.14c.014-.054.114-.167.3-.34.2-.187.467-.414.8-.68.467-.427.887-.754 1.26-.98.374-.227.72-.354 1.04-.38.094.013.18.02.26.02h.14l.12.08c.094.04.214.093.36.16.2.08.38.22.54.42.16.186.287.406.38.66.107.24.167.48.18.72-.013.293-.08.58-.2.86-.106.28-.213.413-.32.4-.106-.014-.24.033-.4.14-.146.106-.22.186-.22.24 0 .053-.02.12-.06.2-.026.08-.113.206-.26.38-.013.066-.053.246-.12.54-.053.28-.12.6-.2.96l-.22.98c-.053.28-.086.46-.1.54-.013.053-.046.173-.1.36-.04.173-.1.373-.18.6-.066.226-.14.44-.22.64-.053.386-.126.673-.22.86-.08.2-.213.413-.4.64a2.4 2.4 0 0 1-.72.78c-.28.2-.533.313-.76.34Zm-.82-6.72c.027.133.207.18.54.14a3.286 3.286 0 0 0 1-.34c.294-.147.56-.267.8-.36.24-.094.407-.227.5-.4a2.77 2.77 0 0 0 .2-.4 8.46 8.46 0 0 0 .2-.58.51.51 0 0 1 .1-.18c.067-.08.127-.127.18-.14a.323.323 0 0 1 .16 0c.067.013.147.04.24.08.067-.027.114-.094.14-.2a.645.645 0 0 0 .02-.36c-.013-.094-.08-.22-.2-.38a1.279 1.279 0 0 0-.46-.38c-.2-.107-.433-.04-.7.2l-.98.88c-.306.28-.6.573-.88.88-.28.306-.506.593-.68.86-.16.266-.22.493-.18.68Zm7.45 2.3a.927.927 0 0 1-.52-.08 1.586 1.586 0 0 1-.5-.34c-.133-.147-.22-.3-.26-.46-.053-.28-.02-.627.1-1.04.133-.427.32-.874.56-1.34.253-.48.533-.94.84-1.38.32-.44.647-.82.98-1.14.347-.334.667-.56.96-.68.147-.094.26-.154.34-.18a.407.407 0 0 1 .28-.02c.107.026.26.093.46.2.187.053.327.113.42.18.093.066.213.2.36.4.107.2.187.4.24.6.053.2.1.426.14.68.107.333.147.553.12.66a.505.505 0 0 1-.12.22c-.107.133-.133.2-.08.2l-.02.08c0 .04-.027.106-.08.2-.093.293-.167.6-.22.92-.04.306-.033.56.02.76.107.293.3.466.58.52.28.053.567-.067.86-.36.147-.107.287-.2.42-.28.133-.094.2-.087.2.02l.06.06c.04.026.087.04.14.04.067 0 .107.026.12.08.027.053.027.126 0 .22a.788.788 0 0 1-.12.28c-.2.2-.3.333-.3.4l-.08.08c-.04.04-.113.106-.22.2-.24.146-.547.22-.92.22-.36 0-.64-.074-.84-.22a2.438 2.438 0 0 1-.56-.6 2.652 2.652 0 0 1-.32-.66l-.1-.2-.58.38a5.016 5.016 0 0 1-.48.42c-.16.133-.267.226-.32.28a.706.706 0 0 1-.14.14.192.192 0 0 1-.14.06h-.2c0 .053-.067.12-.2.2a1.69 1.69 0 0 1-.44.2c-.16.053-.307.08-.44.08Zm-.2-1.08c.08 0 .22-.06.42-.18.213-.134.447-.287.7-.46.267-.174.5-.347.7-.52.213-.174.36-.307.44-.4l.26-.26c.12-.134.227-.247.32-.34.307-.347.52-.727.64-1.14.12-.427.107-.76-.04-1-.053-.147-.12-.227-.2-.24-.08-.014-.247.033-.5.14-.16.093-.36.273-.6.54a14.589 14.589 0 0 0-1.46 1.94c-.227.36-.413.693-.56 1-.147.306-.22.546-.22.72 0 .053.013.1.04.14l.06.06Zm8.963 2.74c-.44-.067-.74-.234-.9-.5-.147-.254-.18-.647-.1-1.18.08-.254.127-.48.14-.68.027-.214.087-.347.18-.4l.02-.06c.027-.04.02-.08-.02-.12 0-.174.06-.414.18-.72.027-.08.06-.174.1-.28l.08-.18c-.067-.107-.067-.194 0-.26.067-.067.133-.127.2-.18.08-.067.087-.14.02-.22-.027-.054.007-.174.1-.36.093-.2.2-.407.32-.62.12-.214.2-.38.24-.5 0-.027.033-.12.1-.28a42.413 42.413 0 0 1 .5-1.14l.18-.34c.133-.067.08-.114-.16-.14a4.727 4.727 0 0 0-.76-.02 14.495 14.495 0 0 1-1-.06 1.517 1.517 0 0 1-.6-.18c-.16-.187-.22-.32-.18-.4.053-.094.213-.147.48-.16.173-.014.307-.02.4-.02.107 0 .24-.007.4-.02.173-.027.44-.06.8-.1l1.02-.08.06-.34c.107-.174.193-.327.26-.46.08-.147.147-.294.2-.44.053-.147.093-.3.12-.46l.18-.32c.12-.227.193-.46.22-.7.16-.267.3-.507.42-.72l.22-.42c.147-.12.247-.18.3-.18.067 0 .2.066.4.2.12.066.227.146.32.24a.653.653 0 0 1 .18.3c.027.093-.013.186-.12.28a3.136 3.136 0 0 0-.12.3 3.822 3.822 0 0 0-.12.34 3.05 3.05 0 0 0-.3.46c-.107.2-.18.406-.22.62-.107.226-.207.433-.3.62-.093.173-.167.26-.22.26.027.133.107.2.24.2.133-.014.353-.027.66-.04a3.62 3.62 0 0 0 .52-.08c.107-.04.227-.027.36.04.067.093.12.2.16.32.04.12.047.233.02.34a.246.246 0 0 1-.16.2c-.067 0-.207.04-.42.12-.2.066-.453.106-.76.12l-1.06.1-.34.68a8.433 8.433 0 0 0-.24.48 1.224 1.224 0 0 1-.14.24c0 .08-.047.2-.14.36l-.26.52c-.08.226-.173.433-.28.62l-.14.28c-.053 0-.08.04-.08.12.067.16.047.28-.06.36a.571.571 0 0 0-.18.18l-.06.1c.053.053.06.12.02.2-.027.08-.067.166-.12.26 0 .106-.033.26-.1.46-.053.2-.113.386-.18.56.013.24.027.393.04.46.013.066.047.093.1.08a.41.41 0 0 0 .18 0 .654.654 0 0 1 .16-.02c.187-.08.087.386-.3 1.4-.213.333-.36.573-.44.72-.08.16-.153.24-.22.24Zm8.341-1.7c-.28.24-.607.38-.98.42a2.09 2.09 0 0 1-1.06-.16c-.347-.16-.633-.4-.86-.72a2.26 2.26 0 0 1-.44-1c-.067-.387-.073-.887-.02-1.5.04-.52.207-1.04.5-1.56a6.26 6.26 0 0 1 1.06-1.42c.427-.414.847-.7 1.26-.86.2-.134.367-.194.5-.18.147 0 .367.013.66.04.307.04.533.1.68.18.16.08.287.186.38.32a1.578 1.578 0 0 1 .5 1.16c-.053.293-.253.653-.6 1.08-.333.413-.773.753-1.32 1.02a2.792 2.792 0 0 1-.96.12c-.347-.014-.633-.1-.86-.26-.253-.107-.42-.087-.5.06-.08.133-.153.466-.22 1-.053.506-.013.88.12 1.12.133.226.313.36.54.4.267.053.473.093.62.12.16.013.353-.047.58-.18.213-.134.347-.207.4-.22a.48.48 0 0 0 .12-.08l.26-.26c.093-.094.167-.16.22-.2a.247.247 0 0 1 .18-.08c.067 0 .127.033.18.1a.628.628 0 0 0 .16.12c.133 0 .16.08.08.24-.067.16-.207.353-.42.58a4.444 4.444 0 0 1-.76.6Zm-.02-4.24c.147-.067.3-.16.46-.28.16-.134.293-.274.4-.42.12-.16.18-.294.18-.4 0-.187-.087-.34-.26-.46-.173-.134-.433-.154-.78-.06-.147.04-.313.14-.5.3a4.643 4.643 0 0 0-.54.5c-.16.186-.293.353-.4.5-.093.146-.127.233-.1.26.04.066.153.12.34.16.187.026.393.033.62.02.24-.014.433-.054.58-.12ZM647.189 89.046c-.2-.08-.406-.167-.62-.26a2.068 2.068 0 0 1-.58-.42c-.173-.174-.326-.42-.46-.74a6.259 6.259 0 0 1-.28-1.14c-.04-.374-.053-.807-.04-1.3 0-.694.047-1.294.14-1.8.107-.52.267-1.047.48-1.58.027-.04.074-.154.14-.34.08-.2.167-.414.26-.64.107-.227.187-.4.24-.52.107-.227.267-.527.48-.9.227-.387.467-.76.72-1.12.387-.574.707-1.027.96-1.36.254-.334.494-.614.72-.84.227-.227.48-.44.76-.64.294-.214.667-.474 1.12-.78.294-.214.614-.327.96-.34.36-.014.694.066 1 .24.307.16.534.4.68.72.147.28.22.62.22 1.02 0 .386-.06.8-.18 1.24-.12.426-.286.833-.5 1.22-.213.386-.46.706-.74.96-.173.16-.333.22-.48.18-.133-.04-.293-.147-.48-.32a5.133 5.133 0 0 1-.2-.4c0-.04.027-.067.08-.08.08-.094.187-.254.32-.48.134-.227.267-.467.4-.72.134-.267.227-.48.28-.64.107-.56.18-.954.22-1.18.04-.24 0-.42-.12-.54-.053-.054-.133-.074-.24-.06-.093.013-.253.08-.48.2-.306.133-.706.433-1.2.9-.493.453-.946.96-1.36 1.52-.533.706-.98 1.333-1.34 1.88a6.995 6.995 0 0 0-.82 1.68c-.026.053-.073.153-.14.3l-.08.22c.014.053-.006.186-.06.4-.053.2-.113.373-.18.52a10.025 10.025 0 0 0-.26 1.92 7.955 7.955 0 0 0 .1 1.74c.107.506.26.86.46 1.06.174.12.407.16.7.12.307-.04.654-.134 1.04-.28a27.4 27.4 0 0 0 1.18-.48c.32-.134.614-.28.88-.44.267-.16.467-.3.6-.42.107-.08.24-.16.4-.24.174-.094.32-.14.44-.14.187-.067.294-.094.32-.08.027.013.04.073.04.18 0 .186-.106.393-.32.62-.2.226-.46.433-.78.62-.106.106-.246.22-.42.34-.173.12-.353.213-.54.28-.28.213-.626.42-1.04.62-.413.2-.833.353-1.26.46-.413.106-.793.126-1.14.06Zm7.851-1.12c-.253.066-.46.013-.62-.16-.146-.174-.233-.44-.26-.8-.026-.36.014-.787.12-1.28.067-.16.12-.314.16-.46.04-.16.06-.287.06-.38.027-.134.08-.327.16-.58a29.458 29.458 0 0 1 .52-1.56c.094-.227.154-.367.18-.42.054 0 .1-.047.14-.14a.706.706 0 0 0 .06-.28c0-.107.02-.227.06-.36a.876.876 0 0 1 .16-.28.72.72 0 0 1 .04-.22.608.608 0 0 0 .06-.22c0-.054.014-.107.04-.16a.266.266 0 0 0 .06-.16c.094-.174.214-.447.36-.82.16-.387.327-.814.5-1.28a35.292 35.292 0 0 0 .9-2.52c.107-.32.16-.514.16-.58 0-.107.027-.187.08-.24.054-.054.134-.08.24-.08a.298.298 0 0 1 .14-.08.927.927 0 0 1 .18-.02l.08.08.24.24a.49.49 0 0 1 .18.32c.027.12.04.26.04.42 0 .173-.02.326-.06.46-.04.133-.12.326-.24.58l-.56 1.18c-.106.266-.22.52-.34.76-.12.226-.18.366-.18.42a.603.603 0 0 1-.08.24c-.04.106-.086.24-.14.4-.053.106-.126.266-.22.48-.093.2-.193.42-.3.66-.093.226-.173.426-.24.6-.066.16-.1.253-.1.28a.627.627 0 0 1-.02.16c0 .053-.026.106-.08.16-.053 0-.086.04-.1.12v.1c0 .133-.106.486-.32 1.06-.213.733-.413 1.406-.6 2.02-.173.613-.26 1.106-.26 1.48 0 .32-.006.533-.02.64-.013.093-.073.166-.18.22Zm7.559-.04a2.744 2.744 0 0 1-.4-.54 3.519 3.519 0 0 1-.32-.82 1.937 1.937 0 0 1-.04-.44c.014-.187.014-.32 0-.4-.04.093-.106.193-.2.3-.08.093-.16.173-.24.24-.053.053-.173.16-.36.32a3.267 3.267 0 0 1-.56.36c-.44.28-.806.433-1.1.46-.28.026-.546-.12-.8-.44a1.567 1.567 0 0 1-.46-.58c-.08-.214-.08-.507 0-.88.027-.467.094-.92.2-1.36.107-.454.327-1.054.66-1.8.28-.547.494-.947.64-1.2.147-.267.24-.427.28-.48.2-.067.367-.06.5.02.134.066.214.193.24.38.08.133.067.36-.04.68-.093.32-.26.713-.5 1.18-.186.453-.36.906-.52 1.36-.146.453-.233.84-.26 1.16-.026.32.054.513.24.58.12.066.327.046.62-.06.307-.107.647-.374 1.02-.8.387-.427.76-1.074 1.12-1.94.107-.267.187-.5.24-.7a3.61 3.61 0 0 0 .1-.7.878.878 0 0 1 .02-.42.71.71 0 0 1 .32-.34.772.772 0 0 1 .22-.18c.094-.067.154-.067.18 0l.32-.02c.054-.014.087.02.1.1a.452.452 0 0 0 .14.18c.147.12.187.38.12.78-.066.4-.253.96-.56 1.68-.253.546-.426.96-.52 1.24-.08.28-.126.553-.14.82 0 .24.047.466.14.68.094.213.24.406.44.58.147.093.227.2.24.32.027.12.034.26.02.42-.026.12-.106.22-.24.3-.12.066-.26.1-.42.1a.752.752 0 0 1-.44-.14Zm4.523-.14a3.271 3.271 0 0 1-.96-.06 1.974 1.974 0 0 1-.76-.34c-.2-.174-.34-.38-.42-.62-.094-.187-.14-.314-.14-.38 0-.08.046-.147.14-.2.106 0 .2.033.28.1.093.053.213.113.36.18.2.173.44.266.72.28.293.013.56-.034.8-.14.24-.107.373-.24.4-.4 0-.054-.02-.147-.06-.28a8.003 8.003 0 0 0-.14-.42 6.088 6.088 0 0 1-.8-1.5c-.16-.507-.24-.92-.24-1.24 0-.24.073-.494.22-.76.146-.28.346-.514.6-.7.24-.254.506-.48.8-.68.293-.2.586-.374.88-.52a5.08 5.08 0 0 1 .82-.32c.146 0 .34.02.58.06.24.04.406.086.5.14.146.053.286.2.42.44.133.226.2.453.2.68 0 .093-.027.213-.08.36a3.18 3.18 0 0 1-.26.52 4.29 4.29 0 0 1-.18.42c-.067.12-.1.206-.1.26-.067.146-.16.22-.28.22a.654.654 0 0 1-.34-.18 1.465 1.465 0 0 1-.26-.42c-.054-.2-.074-.36-.06-.48a.957.957 0 0 1 .16-.42c.146-.147.22-.247.22-.3 0-.054-.074-.08-.22-.08-.094 0-.267.06-.52.18-.24.106-.5.253-.78.44-.267.173-.5.36-.7.56-.254.24-.407.413-.46.52-.04.106-.06.273-.06.5 0 .186.04.42.12.7.093.28.186.466.28.56l.14.28c.093.173.206.36.34.56.386.853.486 1.466.3 1.84-.187.373-.674.586-1.46.64Zm6.716 1.18c-.44-.067-.74-.234-.9-.5-.147-.254-.18-.647-.1-1.18.08-.254.127-.48.14-.68.027-.214.087-.347.18-.4l.02-.06c.027-.04.02-.08-.02-.12 0-.174.06-.414.18-.72.027-.08.06-.174.1-.28l.08-.18c-.067-.107-.067-.194 0-.26.067-.067.133-.127.2-.18.08-.067.087-.14.02-.22-.027-.054.007-.174.1-.36.093-.2.2-.407.32-.62.12-.214.2-.38.24-.5 0-.027.033-.12.1-.28a42.413 42.413 0 0 1 .5-1.14l.18-.34c.133-.067.08-.114-.16-.14a4.727 4.727 0 0 0-.76-.02 14.495 14.495 0 0 1-1-.06 1.517 1.517 0 0 1-.6-.18c-.16-.187-.22-.32-.18-.4.053-.094.213-.147.48-.16.173-.014.307-.02.4-.02.107 0 .24-.007.4-.02.173-.027.44-.06.8-.1l1.02-.08.06-.34c.107-.174.193-.327.26-.46.08-.147.147-.294.2-.44.053-.147.093-.3.12-.46l.18-.32c.12-.227.193-.46.22-.7.16-.267.3-.507.42-.72l.22-.42c.147-.12.247-.18.3-.18.067 0 .2.066.4.2.12.066.227.146.32.24a.653.653 0 0 1 .18.3c.027.093-.013.186-.12.28a3.136 3.136 0 0 0-.12.3 3.822 3.822 0 0 0-.12.34 3.05 3.05 0 0 0-.3.46c-.107.2-.18.406-.22.62-.107.226-.207.433-.3.62-.093.173-.167.26-.22.26.027.133.107.2.24.2.133-.014.353-.027.66-.04a3.62 3.62 0 0 0 .52-.08c.107-.04.227-.027.36.04.067.093.12.2.16.32.04.12.047.233.02.34a.246.246 0 0 1-.16.2c-.067 0-.207.04-.42.12-.2.066-.453.106-.76.12l-1.06.1-.34.68a8.433 8.433 0 0 0-.24.48 1.224 1.224 0 0 1-.14.24c0 .08-.047.2-.14.36l-.26.52c-.08.226-.173.433-.28.62l-.14.28c-.053 0-.08.04-.08.12.067.16.047.28-.06.36a.571.571 0 0 0-.18.18l-.06.1c.053.053.06.12.02.2-.027.08-.067.166-.12.26 0 .106-.033.26-.1.46-.053.2-.113.386-.18.56.013.24.027.393.04.46.013.066.047.093.1.08a.41.41 0 0 0 .18 0 .654.654 0 0 1 .16-.02c.187-.08.087.386-.3 1.4-.213.333-.36.573-.44.72-.08.16-.153.24-.22.24Zm6.741-.94c-.586 0-1.066-.22-1.44-.66-.373-.454-.553-1.014-.54-1.68.027-.48.12-.994.28-1.54.174-.56.4-1.094.68-1.6.28-.52.587-.974.92-1.36.334-.387.68-.66 1.04-.82a1.973 1.973 0 0 1 .9-.22c.147 0 .3.026.46.08.16.04.294.086.4.14.227.093.4.206.52.34.12.133.227.34.32.62.04.253.06.433.06.54 0 .106-.033.266-.1.48-.16.48-.366.893-.62 1.24-.253.346-.593.64-1.02.88-.106.066-.233.12-.38.16a2.246 2.246 0 0 1-1.2-.1 1.42 1.42 0 0 1-.58-.46l-.14-.16-.06.16c-.133.36-.24.693-.32 1-.066.306-.1.586-.1.84 0 .16.014.313.04.46.04.146.094.273.16.38.054.08.14.14.26.18.134.026.274.04.42.04h.28c.107-.014.207-.04.3-.08.227-.08.407-.167.54-.26.147-.094.294-.194.44-.3l.08-.04h-.02c.16-.08.3-.16.42-.24l.2-.12c.054 0 .107-.034.16-.1.107-.054.24-.034.4.06.174.093.26.213.26.36-.013.066-.073.173-.18.32-.106.133-.226.26-.36.38-.12.12-.22.186-.3.2a.769.769 0 0 1-.14.08.435.435 0 0 0-.16.08h.02c-.12.16-.24.24-.36.24h-.16c-.053.093-.226.2-.52.32-.293.106-.58.16-.86.16Zm.9-4.4c.24 0 .447-.067.62-.2.187-.147.347-.307.48-.48.267-.36.42-.707.46-1.04.054-.347.014-.587-.12-.72a.497.497 0 0 0-.22-.06c-.053-.014-.166.006-.34.06-.12.026-.286.126-.5.3a8.563 8.563 0 0 0-.64.58c-.2.213-.353.393-.46.54l-.26.42a.86.86 0 0 1 .3-.06c.107-.014.167-.007.18.02 0 .12.02.233.06.34a.783.783 0 0 0 .18.22.46.46 0 0 0 .26.08Zm4.064 3.64a.994.994 0 0 1-.26-.28c-.04-.094-.04-.274 0-.54.04-.374.093-.7.16-.98.067-.294.147-.627.24-1 .027-.16.1-.434.22-.82.133-.387.293-.807.48-1.26.187-.454.373-.88.56-1.28.187-.414.347-.72.48-.92a.53.53 0 0 1 .38-.1.62.62 0 0 1 .4.18c.147.12.167.333.06.64-.093.293-.293.76-.6 1.4-.16.36-.28.633-.36.82-.08.173-.113.28-.1.32.013.026.073.006.18-.06.08-.147.227-.314.44-.5.213-.2.44-.394.68-.58.24-.187.467-.354.68-.5.213-.147.36-.24.44-.28.107-.067.227-.12.36-.16.147-.054.247-.094.3-.12.307-.147.62-.2.94-.16.32.04.52.16.6.36a.345.345 0 0 0 .12.24l.12.08c.053 0 .08.02.08.06l.02.06c0 .093-.073.153-.22.18-.133.013-.307.026-.52.04a1.554 1.554 0 0 0-.46.1c-.133.053-.293.12-.48.2-.507.293-.993.58-1.46.86-.453.28-.893.653-1.32 1.12a3.118 3.118 0 0 0-.28.38c-.093.146-.193.306-.3.48-.067.066-.133.213-.2.44-.067.226-.127.446-.18.66-.04.2-.06.32-.06.36l-.06.2c-.04.12-.107.24-.2.36-.16.213-.293.32-.4.32-.107 0-.267-.107-.48-.32Zm8.727.52a3.276 3.276 0 0 1-.96-.06 1.981 1.981 0 0 1-.76-.34c-.2-.174-.34-.38-.42-.62-.093-.187-.14-.314-.14-.38 0-.08.047-.147.14-.2.107 0 .2.033.28.1.093.053.213.113.36.18.2.173.44.266.72.28.293.013.56-.034.8-.14.24-.107.373-.24.4-.4 0-.054-.02-.147-.06-.28a8.003 8.003 0 0 0-.14-.42 6.088 6.088 0 0 1-.8-1.5c-.16-.507-.24-.92-.24-1.24 0-.24.073-.494.22-.76.147-.28.347-.514.6-.7.24-.254.507-.48.8-.68.293-.2.587-.374.88-.52.307-.147.58-.254.82-.32.147 0 .34.02.58.06.24.04.407.086.5.14.147.053.287.2.42.44.133.226.2.453.2.68 0 .093-.027.213-.08.36-.053.146-.14.32-.26.52a3.855 3.855 0 0 1-.18.42c-.067.12-.1.206-.1.26-.067.146-.16.22-.28.22a.654.654 0 0 1-.34-.18 1.487 1.487 0 0 1-.26-.42c-.053-.2-.073-.36-.06-.48a.97.97 0 0 1 .16-.42c.147-.147.22-.247.22-.3 0-.054-.073-.08-.22-.08-.093 0-.267.06-.52.18-.24.106-.5.253-.78.44-.267.173-.5.36-.7.56-.253.24-.407.413-.46.52-.04.106-.06.273-.06.5 0 .186.04.42.12.7.093.28.187.466.28.56l.14.28c.093.173.207.36.34.56.387.853.487 1.466.3 1.84-.187.373-.673.586-1.46.64Z"/><path stroke="#000" stroke-linejoin="round" d="M633.156 81.485c-2.608-1.14-8.753-1.809-12.47 4.646-4.645 8.069-8.802 15.893-15.159 15.648-5.086-.195-4.727-.081-3.912 0m0 0c4.744-1.196 7.335-4.84 7.335-6.601 0-1.76.978 8.068 1.467 13.203-1.467-2.2-5.282-6.602-8.802-6.602Z"/><path fill="#000" d="m70.584 77.484-.06-.04a1.408 1.408 0 0 0-.16-.04.844.844 0 0 0-.2-.02.669.669 0 0 1-.46-.36.782.782 0 0 1-.06-.58c.054-.053.094-.166.12-.34.027-.173.04-.313.04-.42.054-.106.087-.18.1-.22l.1-.4c.04-.226.107-.54.2-.94l.34-1.32c.134-.466.26-.913.38-1.34.12-.426.227-.786.32-1.08.107-.293.18-.46.22-.5v-.22l.02-.18a1.26 1.26 0 0 1 .2-.44 4.11 4.11 0 0 0 .2-.82c.054-.066.127-.226.22-.48a30.7 30.7 0 0 0 .3-.78c.08-.213.167-.44.26-.68.107-.24.194-.446.26-.62l.12-.26v-.1c.054-.053.18-.32.38-.8.214-.493.5-1.126.86-1.9.054-.106.12-.226.2-.36.08-.133.12-.226.12-.28a.274.274 0 0 1 .28-.14c.12 0 .24.04.36.12.134.08.234.194.3.34l.2.32-.72 1.44c-.213.374-.393.714-.54 1.02-.133.307-.2.487-.2.54l-.12.32c-.08.214-.173.467-.28.76-.106.294-.2.56-.28.8a9.246 9.246 0 0 1-.42 1.02c-.12.267-.18.427-.18.48 0-.026.147-.046.44-.06.294-.013.667-.02 1.12-.02h1.38c.48-.013.9-.02 1.26-.02.374-.013.627-.033.76-.06l1.04-.1.68-2.06c.107-.373.247-.826.42-1.36.174-.533.327-.986.46-1.36.214-.613.38-.993.5-1.14.12-.146.26-.22.42-.22.04 0 .094.014.16.04.08.014.154.047.22.1.08.04.134.1.16.18.16.147.234.314.22.5 0 .187-.106.434-.32.74a6.36 6.36 0 0 0-.54 1.18c-.133.414-.253.754-.36 1.02 0 .16-.02.294-.06.4a.694.694 0 0 1-.14.22c-.026.027-.08.127-.16.3a8.64 8.64 0 0 0-.22.52c-.066.174-.1.28-.1.32 0 .094-.02.207-.06.34a.677.677 0 0 1-.14.28c-.026.08-.086.28-.18.6-.093.32-.2.7-.32 1.14-.12.427-.246.847-.38 1.26-.133.4-.253.734-.36 1a.924.924 0 0 1-.1.36.82.82 0 0 0-.1.36l-.2.6c-.08.24-.12.394-.12.46-.066.307-.14.62-.22.94-.066.32-.126.594-.18.82-.04.24-.06.38-.06.42-.053.054-.133.06-.24.02l-.38-.14c-.253-.146-.406-.306-.46-.48-.04-.16.014-.393.16-.7.067-.106.147-.366.24-.78.107-.426.214-.846.32-1.26.08-.2.167-.466.26-.8l.28-1.04c.094-.36.174-.66.24-.9.067-.253.114-.393.14-.42v-.2c-.026-.026-.193-.046-.5-.06a10.119 10.119 0 0 0-1.14-.02c-.453 0-.926.014-1.42.04-.48.014-.913.047-1.3.1h-1.46l-.14.42c-.08.24-.173.534-.28.88-.106.334-.22.68-.34 1.04-.106.347-.2.667-.28.96l-.14.6c-.053.24-.126.54-.22.9-.08.36-.173.727-.28 1.1-.093.387-.18.72-.26 1-.066.28-.113.46-.14.54Zm10.81-2.38a.605.605 0 0 0-.2-.24c-.08-.066-.12-.126-.12-.18a.66.66 0 0 0-.02-.16.25.25 0 0 0-.08-.18c-.067-.08-.06-.26.02-.54.08-.293.213-.646.4-1.06.187-.426.407-.873.66-1.34a2.29 2.29 0 0 0 .32-.42c.107-.173.187-.286.24-.34 0-.053.02-.1.06-.14.04-.053.087-.08.14-.08v-.12c0-.066.06-.18.18-.34.133-.16.293-.333.48-.52.187-.2.38-.386.58-.56.2-.186.367-.32.5-.4.28-.186.567-.3.86-.34.307-.04.567.027.78.2l.2.2.32.32c.133.107.267.22.4.34l.74.66-.36 1c-.173.534-.22 1-.14 1.4.093.4.227.747.4 1.04.067.147.2.287.4.42.213.134.413.214.6.24a.65.65 0 0 1 .3.12c.093.067.14.174.14.32 0 .134-.027.24-.08.32-.053.08-.147.134-.28.16a1.751 1.751 0 0 1-1.24-.32c-.373-.266-.72-.706-1.04-1.32a3.235 3.235 0 0 1-.22-.44 4.346 4.346 0 0 1-.14-.44l-.3.38c-.147.174-.26.3-.34.38-.947.96-1.767 1.607-2.46 1.94-.68.32-1.247.334-1.7.04Zm.72-1.12c0 .094.14.094.42 0 .293-.106.607-.293.94-.56.453-.386.907-.813 1.36-1.28.467-.466.84-.9 1.12-1.3l.44-.72c-.133-.306-.28-.513-.44-.62-.147-.12-.273-.18-.38-.18-.173 0-.433.16-.78.48-.333.32-.693.747-1.08 1.28-.387.534-.753 1.12-1.1 1.76a13.27 13.27 0 0 0-.36.78l-.14.36Zm8.25 1.14a.996.996 0 0 1-.26-.28c-.04-.093-.04-.273 0-.54.04-.373.094-.7.16-.98.067-.293.147-.626.24-1 .027-.16.1-.433.22-.82.134-.386.294-.806.48-1.26.187-.453.374-.88.56-1.28.187-.413.347-.72.48-.92a.53.53 0 0 1 .38-.1.62.62 0 0 1 .4.18c.147.12.167.334.06.64-.093.294-.293.76-.6 1.4-.16.36-.28.634-.36.82-.08.174-.113.28-.1.32.014.027.074.007.18-.06.08-.146.227-.313.44-.5.214-.2.44-.393.68-.58.24-.186.467-.353.68-.5.214-.146.36-.24.44-.28.107-.066.227-.12.36-.16.147-.053.247-.093.3-.12.307-.146.62-.2.94-.16.32.04.52.16.6.36a.347.347 0 0 0 .12.24l.12.08c.054 0 .08.02.08.06l.02.06c0 .094-.073.154-.22.18-.133.014-.306.027-.52.04a1.56 1.56 0 0 0-.46.1c-.133.054-.293.12-.48.2-.506.294-.993.58-1.46.86-.453.28-.893.654-1.32 1.12a3.123 3.123 0 0 0-.28.38l-.3.48c-.066.067-.133.214-.2.44-.066.227-.126.447-.18.66-.04.2-.06.32-.06.36l-.06.2c-.04.12-.106.24-.2.36-.16.214-.293.32-.4.32-.106 0-.266-.106-.48-.32Zm13.027.46c-.133 0-.273-.073-.42-.22a2.398 2.398 0 0 1-.36-.54 1.691 1.691 0 0 1-.14-.64c0-.2.047-.573.14-1.12.107-.546.234-1.1.38-1.66.107-.346.14-.546.1-.6-.04-.053-.22.02-.54.22a3.613 3.613 0 0 0-.5.3c-.146.094-.273.2-.38.32-.066.054-.166.14-.3.26-.133.12-.273.234-.42.34-.173.134-.393.32-.66.56l-.8.72c-.253.24-.446.427-.58.56a.439.439 0 0 1-.3.22.7.7 0 0 1-.22-.04.954.954 0 0 1-.42-.26.667.667 0 0 1-.18-.46c0-.133.054-.36.16-.68.107-.333.247-.733.42-1.2.187-.466.4-.96.64-1.48a.999.999 0 0 0 .1-.24 2.56 2.56 0 0 0 .06-.34c.027-.12.04-.233.04-.34 0-.066.007-.133.02-.2.027-.08.054-.153.08-.22a.673.673 0 0 1 .1-.16c.054-.106.147-.133.28-.08.134.04.247.134.34.28.2.187.3.42.3.7.014.28-.053.627-.2 1.04-.053.094-.1.187-.14.28-.026.08-.053.154-.08.22-.026.054-.046.1-.06.14l-.02.04c.054 0 .174-.06.36-.18.187-.12.407-.253.66-.4.2-.146.374-.28.52-.4.16-.133.294-.233.4-.3.107-.08.174-.12.2-.12a.47.47 0 0 0 .2-.06.754.754 0 0 0 .2-.14c.054-.053.094-.08.12-.08l.06-.02h.08a.348.348 0 0 0 .16-.1c.107-.08.247-.1.42-.06.174.027.334.094.48.2.147.107.22.227.22.36 0 .054.014.1.04.14l.06.04c.107 0 .174.167.2.5.04.334.007.654-.1.96 0 .2-.04.44-.12.72-.066.28-.126.547-.18.8a6.12 6.12 0 0 0-.22.88c-.04.254-.046.467-.02.64.027.174.074.314.14.42.054.094.054.2 0 .32-.053.107-.16.16-.32.16Zm4.724.3c-.586 0-1.066-.22-1.44-.66-.373-.453-.553-1.013-.54-1.68.027-.48.12-.993.28-1.54.174-.56.4-1.093.68-1.6.28-.52.587-.973.92-1.36.334-.386.68-.66 1.04-.82.134-.066.274-.12.42-.16.16-.04.32-.06.48-.06.147 0 .3.027.46.08.16.04.294.087.4.14.227.094.4.207.52.34.12.134.227.34.32.62.04.254.06.434.06.54 0 .107-.033.267-.1.48-.16.48-.366.894-.62 1.24-.253.347-.593.64-1.02.88-.106.067-.233.12-.38.16a2.243 2.243 0 0 1-1.2-.1 1.419 1.419 0 0 1-.58-.46l-.14-.16-.06.16c-.133.36-.24.694-.32 1-.066.307-.1.587-.1.84 0 .16.014.314.04.46.04.147.094.274.16.38.054.08.14.14.26.18.134.027.274.04.42.04h.28c.107-.013.207-.04.3-.08.227-.08.407-.166.54-.26.147-.093.294-.193.44-.3l.08-.04h-.02c.16-.08.3-.16.42-.24l.2-.12c.054 0 .107-.033.16-.1.107-.053.24-.033.4.06.174.094.26.214.26.36-.013.067-.073.174-.18.32-.106.134-.226.26-.36.38-.12.12-.22.187-.3.2a.762.762 0 0 1-.14.08.439.439 0 0 0-.16.08h.02c-.12.16-.24.24-.36.24h-.16c-.053.094-.226.2-.52.32-.293.107-.58.16-.86.16Zm.9-4.4c.24 0 .447-.066.62-.2.187-.146.347-.306.48-.48.267-.36.42-.706.46-1.04.054-.346.014-.586-.12-.72a.497.497 0 0 0-.22-.06c-.053-.013-.166.007-.34.06-.12.027-.286.127-.5.3a8.607 8.607 0 0 0-.64.58c-.2.214-.353.394-.46.54l-.26.42a.86.86 0 0 1 .3-.06c.107-.013.167-.006.18.02 0 .12.02.234.06.34a.78.78 0 0 0 .18.22.46.46 0 0 0 .26.08Zm5.524 4.06c-.666 0-1.153-.24-1.46-.72a.696.696 0 0 1-.14-.4c.014-.146.054-.246.12-.3.08-.053.174-.006.28.14.187.107.454.16.8.16a3.8 3.8 0 0 0 .54-.04c.187-.04.374-.093.56-.16.2-.093.334-.173.4-.24.067-.08.054-.146-.04-.2h.02c-.346-.093-.7-.24-1.06-.44a5.532 5.532 0 0 1-.9-.68c-.253-.253-.4-.48-.44-.68a2.057 2.057 0 0 1 .08-1.26c.16-.44.387-.826.68-1.16.107-.066.24-.146.4-.24.16-.106.287-.166.38-.18v.02c.254-.266.56-.48.92-.64.374-.16.767-.306 1.18-.44l.3-.04c.16-.026.294-.04.4-.04-.013 0 .014.014.08.04.067.014.127.027.18.04.08.04.147.06.2.06a.91.91 0 0 1 .48.24c.147.134.26.294.34.48.094.174.127.34.1.5-.026.254-.106.48-.24.68-.12.2-.266.314-.44.34.027-.013.007-.033-.06-.06a2.007 2.007 0 0 0-.18-.12l-.06.04-.02-.04a.318.318 0 0 0-.04-.14.573.573 0 0 1-.06-.26c0-.106.007-.22.02-.34.027-.146.027-.233 0-.26-.013-.026-.1-.046-.26-.06-.186-.04-.46-.006-.82.1-.346.107-.64.254-.88.44-.293.187-.54.367-.74.54-.2.16-.36.32-.48.48-.12.147-.226.32-.32.52a3.68 3.68 0 0 0-.18.28.498.498 0 0 0-.06.22c0 .147.107.3.32.46.227.147.56.32 1 .52.347.147.64.307.88.48.24.174.407.374.5.6.027.054.034.12.02.2 0 .067-.013.114-.04.14.027.027.04.047.04.06v-.02c.107.16.107.327 0 .5-.093.174-.26.327-.5.46-.226.12-.506.214-.84.28h.02a3.61 3.61 0 0 1-.52.12 5.51 5.51 0 0 1-.46.02Zm6.197.36a3.238 3.238 0 0 1-.72-.42c-.227-.186-.374-.34-.44-.46 0-.12.02-.2.06-.24.04-.053.153-.073.34-.06.2 0 .52.027.96.08.16 0 .36-.013.6-.04.24-.026.46-.066.66-.12.213-.053.333-.12.36-.2.066 0 .08-.02.04-.06a1.55 1.55 0 0 0-.14-.16.355.355 0 0 1-.18-.06c-.067-.053-.127-.08-.18-.08 0-.066-.067-.14-.2-.22a1.573 1.573 0 0 0-.38-.22c-.294-.24-.547-.453-.76-.64-.214-.2-.294-.333-.24-.4v-.1c-.094 0-.2-.133-.32-.4a1.958 1.958 0 0 1-.16-.72c0-.16.046-.36.14-.6a4.62 4.62 0 0 1 .38-.78 3.39 3.39 0 0 1 .5-.66c.24-.226.54-.466.9-.72.36-.266.713-.5 1.06-.7.36-.213.66-.353.9-.42.24-.093.46-.14.66-.14.213 0 .4.047.56.14.133.067.253.167.36.3.12.12.22.247.3.38.093.12.153.227.18.32 0 .16-.014.34-.04.54a2.545 2.545 0 0 1-.12.5c-.04.147-.107.22-.2.22l-.06.02c-.027 0-.04.034-.04.1 0 .134-.1.287-.3.46-.254.174-.474.28-.66.32-.187.027-.3-.046-.34-.22a.51.51 0 0 1-.08-.14c-.014-.04-.047-.06-.1-.06l-.06-.06c-.04-.04-.06-.106-.06-.2 0-.053.02-.1.06-.14l.06-.08c.066 0 .153-.073.26-.22.106-.16.2-.326.28-.5.093-.186.14-.313.14-.38 0-.08-.014-.126-.04-.14-.014-.013-.074-.02-.18-.02-.187.08-.414.187-.68.32-.267.134-.52.267-.76.4-.227.12-.394.234-.5.34a3.82 3.82 0 0 0-.1.18c-.014.014-.047.02-.1.02 0-.053-.047-.026-.14.08-.08.094-.187.227-.32.4l-.36.52-.24.36c-.027.027-.06.107-.1.24a1.55 1.55 0 0 0-.04.34c-.054.16-.047.274.02.34l.44.36c.466.347.833.634 1.1.86.266.227.466.414.6.56.133.147.213.28.24.4.24.4.313.707.22.92-.094.214-.32.4-.68.56-.134.067-.354.12-.66.16-.307.04-.62.06-.94.06a4.35 4.35 0 0 1-.76-.02Z"/><path stroke="#000" stroke-linejoin="round" d="M138.404 69.665c2.608-1.141 8.754-1.809 12.47 4.646 4.646 8.069 8.803 15.893 15.16 15.648 5.086-.196 4.727-.081 3.912 0m0 0c-4.744-1.196-7.335-4.841-7.335-6.602 0-1.76-.978 8.07-1.467 13.204 1.467-2.2 5.281-6.602 8.802-6.602ZM433.467 56.343c-1.532 24.879 11.934 5.179 25.173 21.907 3.158 3.99 3.012 3.644 2.544 2.972m0 0c-3.994-2.826-8.448-2.424-9.785-1.28-1.338 1.145 5.493-5.99 9.076-9.7-.717 2.545-1.581 8.305.709 10.98Z"/></svg>