<svg xmlns="http://www.w3.org/2000/svg" fill="none" viewBox="0 0 849 587"><path fill="#fff" d="M.043.332h848.914v586.281H.043z"/><path stroke="#9293AB" stroke-linecap="round" stroke-linejoin="round" stroke-width="2.653" d="m372.249 402.312 122.783-72.052m0 0-12.068 22.286m12.068-22.286h-25.434M469.492 301.381l-123.537 70.752m0 0 25.337.6m-25.337-.6 12.638-22.072"/><path fill="#00ADE4" fill-rule="evenodd" d="M175.215 366.974c-21.317 12.452-28.661 39.729-16.477 61.2l57.229 100.855c12.282 21.643 39.772 29.248 61.431 16.995l21.523-12.177c21.459-12.14 29.191-39.263 17.36-60.893l-55.826-102.07c-12.191-22.288-40.376-30.114-62.313-17.301l-22.927 13.391Zm3.428 57.564c-4.83-8.512-1.918-19.326 6.533-24.263l7.119-4.158 27.407 45.23-23.622 13.919-17.437-30.728Zm58.388 6.598-27.367-45.164 12.318-7.195c8.697-5.08 19.872-1.978 24.705 6.859l16.466 30.107-26.122 15.393Zm16.99 28.9 25.228-14.866 16.735 30.598c4.69 8.576 1.625 19.328-6.883 24.141l-8.734 4.942-26.346-44.815Zm-17.33 10.211 26.166 44.51-9.453 5.348c-8.587 4.858-19.486 1.843-24.355-6.738l-16.422-28.94 24.064-14.18Z" clip-rule="evenodd"/><path fill="#fff" d="m608.487 308.948-73.678-43.154v-87.711l73.678-44.849 75.934 44.849v87.711l-75.934 43.154Z"/><path fill="#F3F3FA" d="m684.422 265.797-75.934 43.154v-89.485l75.934-41.38v87.711Z"/><path stroke="#000" stroke-linecap="round" stroke-width="2.653" d="m534.43 265.836 29.68 17.551M580.094 291.379l28.392 16.778M609.363 133.555l74.933 43.262M534.43 176.82l74.932 43.263M609.357 309.098l74.933-43.263M609.363 220.082l74.933-43.262M534.43 176.82l74.932-43.262M609.357 308.125V221.6M684.289 264.559v-86.525M534.43 264.559v-86.525"/><path fill="#00ADE4" fill-rule="evenodd" d="M547.513 214.828c-6.425 3.753-8.639 11.975-4.967 18.446l22.968 40.475c3.701 6.524 11.988 8.816 18.516 5.123l12.091-6.841c6.468-3.659 8.798-11.834 5.232-18.354l-22.43-41.01c-3.674-6.718-12.17-9.077-18.782-5.215l-12.628 7.376Zm3.395 19.327a6.396 6.396 0 0 1 2.337-8.68l2.547-1.488 9.806 16.182-8.452 4.98-6.238-10.994Zm20.89 2.361-9.792-16.159 4.408-2.574a6.397 6.397 0 0 1 8.838 2.454l5.892 10.772-9.346 5.507Zm6.078 10.34 9.026-5.319 5.988 10.947a6.398 6.398 0 0 1-2.463 8.638l-3.125 1.768-9.426-16.034Zm-6.2 3.653 9.362 15.925-3.382 1.913a6.397 6.397 0 0 1-8.714-2.41l-5.875-10.354 8.609-5.074Z" clip-rule="evenodd"/><path fill="#000" d="m55.646 221.613-.191-.128a4.413 4.413 0 0 0-.51-.127 2.648 2.648 0 0 0-.636-.064c-.68-.17-1.167-.552-1.464-1.146-.297-.552-.361-1.167-.191-1.846.17-.17.297-.531.382-1.083.084-.551.127-.997.127-1.337a6.59 6.59 0 0 0 .318-.7l.319-1.273c.127-.722.34-1.719.636-2.993l1.083-4.202c.424-1.485.827-2.907 1.21-4.266.381-1.358.721-2.504 1.018-3.438.34-.934.573-1.464.7-1.591V196.718l.064-.573c.085-.424.297-.891.637-1.401.17-.466.318-.976.445-1.528.128-.551.191-.912.191-1.082.17-.212.404-.722.7-1.528.34-.849.659-1.677.956-2.483.255-.679.53-1.401.828-2.165.34-.764.615-1.422.827-1.974l.382-.827v-.319c.17-.169.573-1.018 1.21-2.546a250.19 250.19 0 0 1 2.738-6.049c.17-.339.382-.721.636-1.146.255-.424.382-.721.382-.891.213-.34.51-.488.892-.446.382 0 .764.127 1.146.382.424.255.743.616.955 1.083l.636 1.018-2.291 4.584a50.993 50.993 0 0 0-1.72 3.247c-.424.977-.636 1.55-.636 1.719l-.382 1.019c-.255.679-.552 1.486-.892 2.42-.34.933-.636 1.782-.891 2.546-.467 1.316-.913 2.399-1.337 3.247-.382.849-.573 1.359-.573 1.528 0-.084.467-.148 1.4-.191a82.181 82.181 0 0 1 3.566-.063h4.393c1.528-.043 2.865-.064 4.011-.064 1.189-.042 1.995-.106 2.42-.191l3.31-.318 2.165-6.558c.34-1.189.785-2.632 1.337-4.33.552-1.697 1.04-3.141 1.465-4.329.679-1.953 1.21-3.162 1.591-3.629.382-.467.828-.7 1.337-.7.128 0 .297.042.51.127.254.042.488.148.7.318a.97.97 0 0 1 .51.573c.509.467.742.998.7 1.592 0 .594-.34 1.379-1.019 2.356a20.273 20.273 0 0 0-1.719 3.756 51.898 51.898 0 0 1-1.146 3.247c0 .51-.064.934-.191 1.274-.127.297-.276.53-.446.7-.085.085-.254.403-.509.955a27.786 27.786 0 0 0-.7 1.655c-.213.552-.319.892-.319 1.019 0 .297-.063.658-.19 1.082-.128.425-.277.722-.446.892-.085.254-.276.891-.573 1.91a218.937 218.937 0 0 0-1.02 3.629 110.776 110.776 0 0 1-1.209 4.011 59.087 59.087 0 0 1-1.146 3.183c0 .298-.106.68-.318 1.147-.212.424-.318.806-.318 1.146l-.637 1.91c-.255.764-.382 1.252-.382 1.464a98.944 98.944 0 0 1-.7 2.992 106.306 106.306 0 0 1-.574 2.611c-.127.764-.19 1.21-.19 1.337-.17.17-.425.191-.765.064-.34-.128-.742-.276-1.21-.446-.806-.467-1.294-.976-1.464-1.528-.127-.51.043-1.252.51-2.229.212-.339.467-1.167.764-2.483a547 547 0 0 1 1.018-4.011c.255-.636.53-1.485.828-2.547l.891-3.31c.297-1.146.552-2.101.765-2.865.212-.807.36-1.253.445-1.337v-.637c-.085-.085-.615-.149-1.592-.191-.976-.085-2.186-.106-3.629-.064-1.443 0-2.95.043-4.52.128a38.111 38.111 0 0 0-4.139.318h-4.647l-.446 1.337a130.46 130.46 0 0 0-.892 2.801c-.339 1.062-.7 2.165-1.082 3.311a99.456 99.456 0 0 0-.891 3.056c-.212.892-.361 1.528-.446 1.91-.17.764-.403 1.719-.7 2.865a60.53 60.53 0 0 1-.892 3.502 81.043 81.043 0 0 1-.827 3.184c-.212.891-.361 1.464-.446 1.719Zm34.411-7.577c-.17-.34-.382-.594-.636-.764-.255-.212-.382-.403-.382-.573 0-.17-.022-.34-.064-.509a.789.789 0 0 0-.255-.573c-.212-.255-.19-.828.064-1.719.255-.934.68-2.059 1.273-3.375a56.297 56.297 0 0 1 2.102-4.266c.339-.339.679-.785 1.018-1.337.34-.551.594-.912.764-1.082 0-.17.064-.318.191-.446.127-.169.276-.254.446-.254v-.382c0-.213.19-.573.573-1.083.424-.509.934-1.061 1.528-1.655a24.255 24.255 0 0 1 1.846-1.783c.637-.594 1.168-1.019 1.592-1.273.891-.594 1.804-.955 2.738-1.083.976-.127 1.804.085 2.483.637l.637.637 1.018 1.018c.425.34.849.701 1.274 1.083l2.355 2.101-1.146 3.183c-.551 1.698-.7 3.184-.445 4.457.297 1.273.721 2.377 1.273 3.311.212.467.637.912 1.273 1.337.68.424 1.316.679 1.91.764.34.042.658.17.955.382.298.212.446.552.446 1.019 0 .424-.085.764-.255 1.018-.169.255-.466.425-.891.51-1.401.169-2.716-.17-3.947-1.019-1.189-.849-2.292-2.25-3.311-4.202-.17-.255-.403-.722-.7-1.401-.255-.721-.404-1.188-.446-1.401-.17.213-.488.616-.955 1.21-.467.552-.828.955-1.083 1.21-3.013 3.056-5.624 5.115-7.83 6.176-2.165 1.018-3.97 1.061-5.413.127Zm2.293-3.565c0 .297.445.297 1.337 0 .933-.34 1.93-.934 2.992-1.783a63.365 63.365 0 0 0 4.329-4.075c1.486-1.485 2.674-2.865 3.566-4.138l1.401-2.292c-.425-.977-.892-1.635-1.401-1.974-.467-.382-.87-.573-1.21-.573-.552 0-1.379.509-2.483 1.528-1.061 1.019-2.207 2.377-3.438 4.075a50.51 50.51 0 0 0-3.502 5.603 41.546 41.546 0 0 0-1.146 2.483l-.445 1.146Zm26.264 3.629c-.382-.297-.658-.595-.827-.892-.128-.297-.128-.87 0-1.719.127-1.188.297-2.228.509-3.119.212-.934.467-1.995.764-3.184.085-.509.318-1.379.7-2.61a74.338 74.338 0 0 1 1.528-4.011 97.459 97.459 0 0 1 1.783-4.075c.594-1.316 1.104-2.292 1.528-2.929.34-.255.743-.361 1.21-.318.509.042.934.233 1.273.573.467.382.531 1.061.191 2.037-.297.934-.934 2.42-1.91 4.457a247.902 247.902 0 0 0-1.146 2.61c-.255.552-.361.892-.318 1.019.042.085.233.021.573-.191.254-.467.721-.997 1.4-1.592a31.222 31.222 0 0 1 2.165-1.846 46.263 46.263 0 0 1 2.165-1.592c.679-.467 1.146-.764 1.401-.891a4.673 4.673 0 0 1 1.146-.509c.467-.17.785-.298.955-.383.976-.466 1.973-.636 2.992-.509s1.656.509 1.91 1.146c.043.34.17.594.382.764l.382.255c.17 0 .255.064.255.191l.064.191c0 .297-.234.488-.701.573-.424.042-.976.085-1.655.127a4.976 4.976 0 0 0-1.465.319 71.01 71.01 0 0 0-1.528.636 347.083 347.083 0 0 0-4.647 2.738c-1.444.891-2.844 2.08-4.203 3.565-.297.34-.594.743-.891 1.21-.297.467-.615.976-.955 1.528-.212.212-.424.679-.637 1.401a53.633 53.633 0 0 0-.573 2.101c-.127.637-.191 1.019-.191 1.146l-.191.637a3.872 3.872 0 0 1-.636 1.146c-.51.679-.934 1.018-1.274 1.018-.339 0-.849-.339-1.528-1.018Zm41.471 1.464c-.425 0-.87-.233-1.337-.7-.425-.467-.807-1.04-1.146-1.719-.297-.722-.446-1.401-.446-2.038 0-.636.149-1.825.446-3.565.339-1.74.743-3.502 1.209-5.285.34-1.103.446-1.74.319-1.91-.127-.169-.701.064-1.719.701-.594.297-1.125.615-1.592.955-.467.297-.87.636-1.21 1.018-.212.17-.53.446-.955.828-.424.382-.87.743-1.337 1.082a37.997 37.997 0 0 0-2.101 1.783l-2.547 2.292a106.61 106.61 0 0 0-1.846 1.783c-.085.17-.212.318-.382.446a1.4 1.4 0 0 1-.573.254c-.212 0-.446-.042-.7-.127-.467-.127-.913-.403-1.337-.828a2.123 2.123 0 0 1-.573-1.464c0-.425.169-1.146.509-2.165.34-1.061.785-2.334 1.337-3.82a98.613 98.613 0 0 1 2.037-4.711c.128-.213.234-.467.319-.764a8.29 8.29 0 0 0 .191-1.083 4.99 4.99 0 0 0 .127-1.082c0-.212.021-.425.064-.637.085-.255.17-.488.254-.7.128-.255.234-.425.319-.51.17-.339.467-.424.891-.254.425.127.785.424 1.083.891.636.594.955 1.337.955 2.229.042.891-.17 1.994-.637 3.31a8.83 8.83 0 0 0-.446.892c-.085.254-.17.488-.254.7-.085.17-.149.318-.191.446l-.064.127c.17 0 .552-.191 1.146-.573a53.138 53.138 0 0 1 2.101-1.273 39.836 39.836 0 0 0 1.655-1.274c.51-.424.934-.743 1.274-.955.339-.254.552-.382.636-.382.17 0 .382-.063.637-.191.255-.127.467-.276.637-.445.17-.17.297-.255.382-.255l.191-.064h.254c.17-.042.34-.148.51-.318.339-.255.785-.318 1.337-.191a3.458 3.458 0 0 1 1.528.637c.467.339.7.721.7 1.146 0 .169.043.318.128.445l.191.128c.339 0 .551.53.636 1.591a6.737 6.737 0 0 1-.318 3.056c0 .637-.127 1.401-.382 2.292-.212.892-.403 1.741-.573 2.547-.34 1.061-.573 1.995-.7 2.802-.128.806-.149 1.485-.064 2.037.085.552.233.997.446 1.337.169.297.169.637 0 1.019-.17.339-.51.509-1.019.509Zm15.038.955c-1.868 0-3.396-.7-4.584-2.101-1.189-1.443-1.762-3.226-1.719-5.348.085-1.528.382-3.162.891-4.903a27.07 27.07 0 0 1 2.165-5.093c.891-1.655 1.868-3.099 2.929-4.33 1.061-1.23 2.164-2.101 3.311-2.61.424-.212.87-.382 1.337-.509a6.24 6.24 0 0 1 1.528-.191c.466 0 .955.085 1.464.254.509.128.934.276 1.273.446.722.297 1.274.658 1.656 1.082.382.425.721 1.083 1.018 1.974.128.807.191 1.38.191 1.719 0 .34-.106.849-.318 1.528-.509 1.528-1.167 2.844-1.974 3.948-.806 1.103-1.888 2.037-3.247 2.801a4.508 4.508 0 0 1-1.209.509 7.139 7.139 0 0 1-3.821-.318 4.512 4.512 0 0 1-1.846-1.464l-.446-.51-.191.51a33.744 33.744 0 0 0-1.018 3.183c-.213.976-.319 1.868-.319 2.674 0 .51.043.998.128 1.465.127.467.297.87.509 1.209.17.255.446.446.828.573.424.085.87.128 1.337.128h.891c.34-.043.658-.128.955-.255.722-.255 1.295-.531 1.719-.828.467-.297.934-.615 1.401-.955l.255-.127h-.064a12.52 12.52 0 0 0 1.337-.764l.637-.382c.169 0 .339-.106.509-.318.34-.17.764-.107 1.273.191.552.297.828.679.828 1.146-.042.212-.233.551-.573 1.018-.34.425-.722.828-1.146 1.21-.382.382-.7.594-.955.637-.042.042-.191.127-.446.254-.254.085-.424.17-.509.255h.064c-.382.509-.764.764-1.146.764h-.51c-.17.297-.721.637-1.655 1.019-.934.339-1.847.509-2.738.509Zm2.865-14.007c.764 0 1.422-.212 1.974-.637a8.696 8.696 0 0 0 1.528-1.528c.849-1.146 1.337-2.249 1.464-3.31.17-1.104.043-1.868-.382-2.293-.254-.127-.488-.191-.7-.191-.17-.042-.531.022-1.082.191-.382.085-.913.404-1.592.956a26.76 26.76 0 0 0-2.038 1.846c-.636.679-1.124 1.252-1.464 1.719l-.828 1.337c.34-.127.658-.191.955-.191.34-.042.531-.021.573.064 0 .382.064.742.191 1.082.17.297.361.531.573.7.255.17.531.255.828.255Zm17.585 12.925c-2.122 0-3.671-.764-4.648-2.292-.297-.425-.445-.849-.445-1.274.042-.467.169-.785.382-.955.254-.169.551-.021.891.446.594.34 1.443.509 2.547.509.552 0 1.125-.042 1.719-.127a14.083 14.083 0 0 0 1.783-.509c.636-.297 1.061-.552 1.273-.764.212-.255.17-.467-.127-.637h.063c-1.103-.297-2.228-.764-3.374-1.401-1.104-.679-2.059-1.4-2.865-2.165-.807-.806-1.274-1.528-1.401-2.164-.34-1.316-.255-2.653.255-4.011a11.456 11.456 0 0 1 2.164-3.693c.34-.212.764-.467 1.274-.764.509-.34.912-.531 1.209-.573v.063c.807-.848 1.783-1.528 2.929-2.037a43.554 43.554 0 0 1 3.757-1.401l.955-.127a7.984 7.984 0 0 1 1.273-.127c-.042 0 .043.042.255.127.212.043.403.085.573.127.254.128.467.191.636.191.552.085 1.062.34 1.528.764a4.37 4.37 0 0 1 1.083 1.528c.297.552.403 1.083.318 1.592a4.728 4.728 0 0 1-.764 2.165c-.382.637-.849.997-1.401 1.082.085-.042.022-.106-.191-.191a6.7 6.7 0 0 0-.573-.382l-.191.128-.063-.128c0-.127-.043-.276-.128-.445a1.832 1.832 0 0 1-.191-.828c0-.34.022-.7.064-1.082.085-.467.085-.743 0-.828-.042-.085-.318-.149-.828-.191-.594-.128-1.464-.021-2.61.318-1.104.34-2.037.807-2.801 1.401-.934.594-1.719 1.167-2.356 1.719-.637.509-1.146 1.019-1.528 1.528a7.84 7.84 0 0 0-1.019 1.655c-.212.297-.403.595-.573.892-.127.254-.191.488-.191.7 0 .467.34.955 1.019 1.464.721.467 1.782 1.019 3.183 1.656 1.104.467 2.038.976 2.802 1.528.764.552 1.294 1.188 1.591 1.91.085.17.106.382.064.637 0 .212-.042.36-.127.445.085.085.127.149.127.191v-.063c.34.509.34 1.04 0 1.591-.297.552-.828 1.04-1.592 1.465-.721.382-1.613.679-2.674.891h.064c-.552.17-1.104.297-1.656.382-.509.043-.997.064-1.464.064Zm19.726 1.146a10.405 10.405 0 0 1-2.292-1.337c-.722-.594-1.189-1.083-1.401-1.465 0-.382.064-.636.191-.764.127-.169.488-.233 1.083-.191.636 0 1.655.085 3.056.255.509 0 1.146-.042 1.91-.127a14.425 14.425 0 0 0 2.101-.382c.679-.17 1.061-.382 1.146-.637.212 0 .254-.064.127-.191a4.628 4.628 0 0 0-.446-.509c-.169 0-.36-.064-.573-.191-.212-.17-.403-.255-.573-.255 0-.212-.212-.446-.636-.7a4.969 4.969 0 0 0-1.21-.701 96.928 96.928 0 0 1-2.419-2.037c-.68-.637-.934-1.061-.764-1.274v-.318c-.298 0-.637-.424-1.019-1.273-.34-.849-.509-1.613-.509-2.292 0-.51.148-1.146.445-1.91.297-.807.701-1.635 1.21-2.483.509-.849 1.04-1.55 1.592-2.101.764-.722 1.719-1.486 2.865-2.293a35.761 35.761 0 0 1 3.374-2.228c1.146-.679 2.101-1.125 2.865-1.337.764-.297 1.465-.446 2.101-.446.679 0 1.274.149 1.783.446a3.46 3.46 0 0 1 1.146.955c.382.382.7.785.955 1.21.297.382.488.721.573 1.018 0 .51-.042 1.083-.127 1.719a7.943 7.943 0 0 1-.382 1.592c-.128.467-.34.701-.637.701l-.191.063c-.085 0-.127.106-.127.319 0 .424-.319.912-.955 1.464-.807.552-1.507.891-2.101 1.019-.595.085-.955-.149-1.083-.701a1.64 1.64 0 0 1-.254-.445c-.043-.128-.149-.191-.319-.191l-.191-.191c-.127-.128-.191-.34-.191-.637 0-.17.064-.318.191-.446l.191-.254c.212 0 .488-.234.828-.701.339-.509.637-1.04.891-1.592.297-.594.446-.997.446-1.209 0-.255-.042-.403-.127-.446-.043-.042-.234-.064-.573-.064-.595.255-1.316.595-2.165 1.019-.849.425-1.655.849-2.42 1.274-.721.382-1.252.742-1.591 1.082-.17.297-.276.488-.319.573-.042.042-.148.064-.318.064 0-.17-.148-.085-.446.254-.254.297-.594.722-1.018 1.274l-1.146 1.655-.764 1.146c-.085.085-.191.34-.319.764a4.99 4.99 0 0 0-.127 1.082c-.17.51-.149.871.064 1.083.212.17.679.552 1.4 1.146 1.486 1.103 2.653 2.016 3.502 2.738.849.721 1.486 1.315 1.91 1.782.425.467.679.892.764 1.274.764 1.273.998 2.249.701 2.928-.298.68-1.019 1.274-2.165 1.783-.425.212-1.125.382-2.101.509-.976.128-1.974.191-2.993.191-1.018.043-1.825.022-2.419-.063ZM342.022 82.804a66.785 66.785 0 0 1-1.974-.828c-.637-.297-1.252-.743-1.847-1.337-.551-.552-1.039-1.337-1.464-2.356a19.635 19.635 0 0 1-.891-3.629c-.128-1.188-.17-2.568-.128-4.138 0-2.208.149-4.118.446-5.73.34-1.656.849-3.333 1.528-5.03.085-.128.234-.488.446-1.083.254-.636.53-1.316.827-2.037.34-.722.595-1.273.764-1.655.34-.722.849-1.677 1.529-2.866a50.688 50.688 0 0 1 2.292-3.565c1.231-1.825 2.249-3.268 3.056-4.33.806-1.06 1.57-1.952 2.292-2.673a19.14 19.14 0 0 1 2.419-2.038c.934-.679 2.122-1.507 3.566-2.483.933-.68 1.952-1.04 3.056-1.082a5.9 5.9 0 0 1 3.183.764A4.738 4.738 0 0 1 363.287 39c.467.891.7 1.974.7 3.247 0 1.23-.191 2.547-.573 3.947a18.184 18.184 0 0 1-1.592 3.884c-.679 1.231-1.464 2.25-2.355 3.056-.552.51-1.061.7-1.528.573-.425-.127-.934-.467-1.528-1.019-.382-.721-.595-1.146-.637-1.273 0-.127.085-.212.255-.255.254-.297.594-.806 1.018-1.528.425-.721.849-1.485 1.274-2.292.424-.849.721-1.528.891-2.037.34-1.783.573-3.035.7-3.756.128-.764 0-1.337-.382-1.72-.169-.17-.424-.233-.764-.19-.297.042-.806.254-1.528.636-.976.425-2.249 1.38-3.82 2.865a33.88 33.88 0 0 0-4.329 4.839c-1.698 2.25-3.12 4.245-4.266 5.985-1.146 1.74-2.016 3.523-2.61 5.348-.085.17-.234.488-.446.955l-.255.7c.043.17-.021.595-.191 1.274-.17.637-.361 1.188-.573 1.655a31.667 31.667 0 0 0-.828 6.112c-.084 2.08.022 3.927.319 5.54.339 1.612.828 2.737 1.464 3.374.552.382 1.295.51 2.229.382.976-.127 2.079-.425 3.31-.891a87.81 87.81 0 0 0 3.757-1.529 21.512 21.512 0 0 0 2.801-1.4c.849-.51 1.486-.955 1.91-1.337.34-.255.764-.51 1.274-.764.551-.297 1.018-.446 1.4-.446.595-.212.934-.297 1.019-.255.085.043.127.234.127.573 0 .595-.339 1.253-1.018 1.974-.637.722-1.465 1.38-2.483 1.974-.34.34-.786.7-1.337 1.082a7.379 7.379 0 0 1-1.719.892c-.892.679-1.995 1.337-3.311 1.973a20.76 20.76 0 0 1-4.011 1.465c-1.316.34-2.526.403-3.629.19Zm24.993-3.566c-.806.213-1.464.043-1.973-.51-.467-.55-.743-1.4-.828-2.546-.085-1.146.042-2.504.382-4.075.212-.509.382-.997.509-1.464.128-.51.191-.913.191-1.21.085-.424.255-1.04.51-1.846.254-.849.53-1.72.827-2.61.298-.892.573-1.677.828-2.356a28.46 28.46 0 0 1 .573-1.337c.17 0 .318-.149.446-.446.127-.297.191-.594.191-.891 0-.34.063-.722.191-1.146.17-.425.339-.722.509-.892 0-.212.043-.445.128-.7.127-.297.191-.53.191-.7 0-.17.042-.34.127-.51a.849.849 0 0 0 .191-.51c.297-.55.679-1.421 1.146-2.61.509-1.23 1.04-2.589 1.592-4.074.594-1.486 1.146-2.95 1.655-4.393a90.44 90.44 0 0 0 1.21-3.63c.339-1.018.509-1.634.509-1.846 0-.34.085-.594.255-.764.17-.17.424-.255.764-.255a.945.945 0 0 1 .445-.254c.213-.043.404-.064.573-.064l.255.255.764.764c.34.297.531.636.573 1.018.085.383.127.828.127 1.337 0 .552-.063 1.04-.191 1.465-.127.424-.382 1.04-.764 1.846l-1.782 3.757c-.34.849-.701 1.655-1.083 2.42-.382.72-.573 1.166-.573 1.336 0 .17-.085.425-.254.764-.128.34-.276.764-.446 1.273-.17.34-.403.85-.7 1.529-.297.636-.616 1.337-.955 2.1a88.518 88.518 0 0 0-.764 1.91c-.213.51-.319.807-.319.892 0 .17-.021.34-.063.51 0 .17-.085.339-.255.509-.17 0-.276.127-.318.382v.318c0 .425-.34 1.55-1.019 3.375a548.194 548.194 0 0 1-1.91 6.43c-.552 1.953-.828 3.523-.828 4.712 0 1.018-.021 1.697-.064 2.037-.042.297-.233.53-.573.7Zm24.064-.127c-.425-.425-.849-.998-1.274-1.72a11.142 11.142 0 0 1-1.018-2.61c-.085-.34-.128-.806-.128-1.4.043-.594.043-1.019 0-1.274-.127.297-.339.616-.636.955a6.56 6.56 0 0 1-.764.764c-.17.17-.552.51-1.146 1.02-.595.466-1.189.848-1.783 1.145-1.401.891-2.568 1.38-3.502 1.465-.891.084-1.74-.382-2.547-1.401-.679-.552-1.167-1.167-1.464-1.847-.255-.679-.255-1.612 0-2.801.085-1.486.297-2.929.637-4.33.339-1.443 1.04-3.353 2.101-5.73.891-1.74 1.57-3.013 2.037-3.82.467-.849.764-1.358.891-1.528.637-.212 1.168-.19 1.592.064.425.212.679.615.764 1.21.255.424.212 1.146-.127 2.164-.297 1.02-.828 2.271-1.592 3.757a90.208 90.208 0 0 0-1.655 4.33c-.467 1.442-.743 2.673-.828 3.692-.085 1.019.17 1.634.764 1.846.382.213 1.04.149 1.974-.19.976-.34 2.058-1.19 3.247-2.547 1.231-1.359 2.419-3.417 3.565-6.176.34-.85.595-1.592.764-2.229.17-.679.276-1.422.319-2.228-.085-.51-.064-.955.063-1.337.17-.424.51-.785 1.019-1.082.17-.213.403-.404.7-.573.298-.213.489-.213.573 0l1.019-.064c.17-.043.276.064.318.318.085.212.234.404.446.573.467.382.594 1.21.382 2.483-.212 1.274-.806 3.056-1.783 5.349-.806 1.74-1.358 3.056-1.655 3.947a11.615 11.615 0 0 0-.446 2.61c0 .764.149 1.486.446 2.165.297.68.764 1.295 1.401 1.846.467.298.721.637.764 1.02.085.381.106.827.063 1.336-.084.382-.339.7-.764.955-.382.213-.827.319-1.337.319-.509 0-.976-.149-1.4-.446Zm14.396-.446c-1.061.085-2.08.021-3.056-.19-.934-.213-1.74-.574-2.419-1.083a4.425 4.425 0 0 1-1.337-1.974c-.297-.594-.446-.997-.446-1.21 0-.254.149-.466.446-.636.339 0 .636.106.891.318.297.17.679.36 1.146.573.637.552 1.401.85 2.292.892.934.042 1.783-.107 2.547-.446.764-.34 1.188-.764 1.273-1.274 0-.17-.063-.467-.191-.89a25.03 25.03 0 0 0-.445-1.338c-1.146-1.613-1.995-3.205-2.547-4.775-.51-1.613-.764-2.929-.764-3.948 0-.764.233-1.57.7-2.419a6.454 6.454 0 0 1 1.91-2.228 15.597 15.597 0 0 1 2.547-2.165 24.241 24.241 0 0 1 2.801-1.655c.977-.467 1.847-.807 2.611-1.02.467 0 1.082.064 1.846.192.764.127 1.295.276 1.592.445.467.17.912.637 1.337 1.401.424.722.637 1.443.637 2.165 0 .297-.085.68-.255 1.146-.17.467-.446 1.019-.828 1.655-.17.467-.361.913-.573 1.337-.212.382-.318.658-.318.828-.212.467-.509.7-.891.7-.34-.042-.701-.233-1.083-.573a4.765 4.765 0 0 1-.828-1.337c-.169-.636-.233-1.146-.191-1.528.043-.424.213-.87.51-1.337.467-.467.7-.785.7-.955 0-.17-.233-.254-.7-.254-.297 0-.849.19-1.656.573-.764.34-1.591.806-2.483 1.4a13.676 13.676 0 0 0-2.228 1.783c-.806.764-1.295 1.316-1.464 1.655-.128.34-.191.87-.191 1.592 0 .594.127 1.337.382 2.229.297.89.594 1.485.891 1.782l.446.892c.297.551.658 1.146 1.082 1.782 1.231 2.717 1.549 4.67.955 5.858-.594 1.188-2.143 1.868-4.648 2.037Zm21.381 3.757c-1.4-.212-2.355-.743-2.865-1.592-.467-.806-.573-2.059-.318-3.756.255-.807.403-1.528.446-2.165.085-.68.276-1.104.573-1.274l.063-.19c.085-.128.064-.255-.063-.383 0-.551.191-1.315.573-2.292.085-.254.191-.551.318-.891l.255-.573c-.213-.34-.213-.615 0-.828.212-.212.424-.403.636-.573.255-.212.276-.445.064-.7-.085-.17.021-.552.318-1.146a29.79 29.79 0 0 1 1.019-1.974c.382-.679.637-1.21.764-1.591 0-.085.106-.383.318-.892.213-.51.467-1.103.765-1.783.297-.679.573-1.294.827-1.846.297-.552.488-.913.573-1.082.425-.213.255-.361-.509-.446a15.09 15.09 0 0 0-2.42-.064c-1.315-.042-2.377-.106-3.183-.19-.764-.086-1.401-.277-1.91-.574-.509-.594-.7-1.018-.573-1.273.17-.297.679-.467 1.528-.51.552-.042.976-.063 1.273-.063.34 0 .764-.021 1.274-.064.552-.085 1.4-.19 2.546-.318l3.248-.255.191-1.082c.339-.552.615-1.04.827-1.465.255-.467.467-.933.637-1.4.17-.467.297-.955.382-1.465l.573-1.018a6.196 6.196 0 0 0 .7-2.229c.51-.849.955-1.613 1.337-2.292.382-.721.616-1.167.701-1.337.467-.382.785-.573.955-.573.212 0 .636.212 1.273.637.382.212.722.467 1.019.764.297.297.488.615.573.955.085.297-.043.594-.382.891-.085.17-.212.488-.382.955-.17.425-.297.785-.382 1.083-.255.297-.573.785-.955 1.464a6.874 6.874 0 0 0-.701 1.974c-.339.721-.657 1.38-.955 1.973-.297.552-.53.828-.7.828.085.425.34.637.764.637a42.621 42.621 0 0 1 2.101-.127c.807-.085 1.358-.17 1.656-.255.339-.127.721-.085 1.146.127.212.297.382.637.509 1.019.127.382.148.743.064 1.082-.043.297-.213.51-.51.637-.212 0-.658.127-1.337.382-.637.212-1.443.34-2.419.382l-3.375.318-1.082 2.165a25.505 25.505 0 0 0-.764 1.528c-.212.425-.361.68-.446.764 0 .255-.148.637-.445 1.146l-.828 1.656c-.255.721-.552 1.379-.891 1.973l-.446.892c-.17 0-.255.127-.255.382.212.509.149.89-.191 1.146a1.844 1.844 0 0 0-.573.573l-.191.318c.17.17.191.382.064.637-.085.254-.212.53-.382.827 0 .34-.106.828-.319 1.465-.169.636-.36 1.23-.573 1.782.043.764.085 1.253.128 1.465.042.212.148.297.318.254.212.043.403.043.573 0 .17-.042.34-.063.51-.063.594-.255.275 1.23-.956 4.457-.679 1.06-1.146 1.825-1.4 2.292-.255.509-.488.764-.701.764Zm21.46-2.993c-1.867 0-3.395-.7-4.584-2.1-1.188-1.444-1.761-3.227-1.719-5.349.085-1.528.382-3.162.891-4.902a27.053 27.053 0 0 1 2.165-5.094c.891-1.655 1.868-3.098 2.929-4.33 1.061-1.23 2.165-2.1 3.311-2.61.424-.212.87-.382 1.337-.51a6.27 6.27 0 0 1 1.528-.19c.467 0 .955.085 1.464.255a6.28 6.28 0 0 1 1.273.445c.722.297 1.274.658 1.656 1.083.382.424.721 1.082 1.019 1.973.127.807.191 1.38.191 1.72 0 .339-.107.848-.319 1.527-.509 1.529-1.167 2.844-1.974 3.948-.806 1.103-1.888 2.037-3.247 2.801a4.498 4.498 0 0 1-1.209.51 7.127 7.127 0 0 1-3.82-.318 4.515 4.515 0 0 1-1.847-1.465l-.446-.51-.191.51a33.73 33.73 0 0 0-1.018 3.183c-.212.977-.319 1.868-.319 2.674 0 .51.043.998.128 1.465.127.467.297.87.509 1.21.17.254.446.445.828.572a6.8 6.8 0 0 0 1.337.128h.891c.34-.043.658-.128.955-.255.722-.254 1.295-.53 1.719-.828.467-.297.934-.615 1.401-.954l.255-.128h-.064c.509-.255.955-.51 1.337-.764l.637-.382c.17 0 .339-.106.509-.318.34-.17.764-.106 1.273.19.552.298.828.68.828 1.147-.042.212-.233.552-.573 1.018a10.12 10.12 0 0 1-1.146 1.21c-.382.382-.7.594-.955.637-.042.042-.191.127-.446.254-.254.085-.424.17-.509.255h.064c-.382.51-.764.764-1.146.764h-.51c-.169.297-.721.637-1.655 1.019-.934.34-1.846.51-2.738.51Zm2.865-14.007c.764 0 1.422-.212 1.974-.636a8.666 8.666 0 0 0 1.528-1.529c.849-1.146 1.337-2.25 1.464-3.31.17-1.104.043-1.868-.382-2.292-.254-.128-.488-.191-.7-.191-.17-.043-.531.02-1.082.19-.382.085-.913.404-1.592.956a26.695 26.695 0 0 0-2.037 1.846c-.637.68-1.125 1.252-1.465 1.72l-.827 1.336c.339-.127.657-.19.955-.19.339-.043.53-.022.573.063 0 .382.063.743.191 1.082.169.297.36.53.573.7.254.17.53.255.827.255Zm12.937 11.588c-.382-.297-.657-.594-.827-.892-.128-.297-.128-.87 0-1.718.127-1.189.297-2.229.509-3.12.212-.934.467-1.995.764-3.184.085-.51.318-1.38.7-2.61a73.6 73.6 0 0 1 1.529-4.011 96.796 96.796 0 0 1 1.782-4.075c.594-1.316 1.104-2.292 1.528-2.929.34-.254.743-.36 1.21-.318a1.97 1.97 0 0 1 1.273.573c.467.382.531 1.061.191 2.037-.297.934-.933 2.42-1.91 4.457a245.329 245.329 0 0 0-1.146 2.61c-.254.552-.361.892-.318 1.02.042.084.233.02.573-.192.255-.467.722-.997 1.401-1.592a30.84 30.84 0 0 1 2.164-1.846 45.96 45.96 0 0 1 2.165-1.592c.679-.467 1.146-.764 1.401-.891a4.677 4.677 0 0 1 1.146-.51c.467-.17.785-.296.955-.381.976-.467 1.974-.637 2.992-.51 1.019.128 1.656.51 1.91 1.146.043.34.17.595.382.764l.382.255c.17 0 .255.064.255.191l.064.191c0 .297-.234.488-.701.573-.424.042-.976.085-1.655.127a4.952 4.952 0 0 0-1.464.319c-.425.17-.934.382-1.528.636a341.072 341.072 0 0 0-4.648 2.738c-1.443.892-2.844 2.08-4.202 3.566-.297.34-.595.742-.892 1.21-.297.466-.615.976-.955 1.527-.212.213-.424.68-.636 1.401a50.506 50.506 0 0 0-.573 2.101c-.128.637-.191 1.019-.191 1.146l-.191.637c-.128.382-.34.764-.637 1.146-.509.679-.934 1.019-1.274 1.019-.339 0-.848-.34-1.528-1.02ZM542.384 450.564a14.4 14.4 0 0 1-2.228.191c-.68.043-1.677-.106-2.993-.446-.679-.212-1.167-.466-1.464-.764a59.418 59.418 0 0 1-1.337-1.655c-.467-.679-.807-1.316-1.019-1.91-.17-.552-.191-.997-.064-1.337.128-.297.404-.382.828-.255.127.043.318.17.573.382.297.255.573.552.828.892a4.343 4.343 0 0 0 2.165 1.273c.848.212 1.973.233 3.374.064a29.31 29.31 0 0 0 2.165-.573 17.097 17.097 0 0 0 2.483-.828c.806-.34 1.443-.679 1.91-1.019a427.683 427.683 0 0 1 5.412-3.629l2.037-1.337c.085-.17.234-.297.446-.382.254-.127.552-.255.891-.382l1.21-1.21a30.028 30.028 0 0 0 1.655-1.655c.552-.552.892-.87 1.019-.955.085-.382.17-.679.255-.891.084-.255.127-.51.127-.764.339-.34.785-1.04 1.337-2.101a58.841 58.841 0 0 0 1.783-3.63c.594-1.358 1.018-2.589 1.273-3.692.594-2.972.743-5.476.446-7.513-.297-2.038-.913-3.778-1.847-5.221a15.713 15.713 0 0 0-3.374-3.947c-.467-.382-1.125-.786-1.974-1.21a17.509 17.509 0 0 0-2.547-1.21 42.569 42.569 0 0 0-2.355-.828c-.637-.212-1.019-.297-1.146-.254-.17.042-.531.721-1.083 2.037a162.533 162.533 0 0 0-1.846 4.903 495.843 495.843 0 0 1-2.356 6.366c-.806 2.25-1.57 4.372-2.292 6.367-.255.807-.53 1.656-.828 2.547-.297.891-.551 1.677-.764 2.356-.212.636-.318 1.061-.318 1.273-.467.722-.849 1.677-1.146 2.865-.255 1.189-.552 3.162-.891 5.921a93.088 93.088 0 0 0-.828 3.311c-.17.722-.34 1.061-.509 1.019l-.064.064-.191.191c0 .254-.17.382-.509.382-.34 0-.743-.085-1.21-.255-.425-.212-.764-.446-1.019-.7a8.185 8.185 0 0 1-.254-1.337c0-.425.169-1.253.509-2.484.212-.806.467-1.782.764-2.928.339-1.189.7-2.398 1.082-3.629.382-1.274.743-2.441 1.083-3.502.339-1.061.594-1.868.764-2.42.297-.721.721-2.079 1.273-4.074l1.019-3.311c.382-1.104.742-2.08 1.082-2.929.34-.891.573-1.464.7-1.719.213-.552.531-1.486.955-2.801a54.966 54.966 0 0 1 1.656-4.393l.446-2.102-.701-.318c-.509.17-.912.234-1.21.191a4.638 4.638 0 0 1-.509-.191c-.255.085-.615.021-1.082-.191a5.037 5.037 0 0 1-1.274-.828c-.339-.339-.551-.636-.636-.891a2.246 2.246 0 0 1-.191-.637v-.445c.042-.255.36-.488.955-.701.594-.254 1.358-.467 2.292-.636.976-.17 2.016-.276 3.12-.319a21.506 21.506 0 0 1 3.31 0c1.104.085 2.144.319 3.12.701.976.382 2.037.785 3.183 1.209 1.359.51 2.781 1.401 4.266 2.674 1.528 1.231 2.908 2.696 4.139 4.394 1.273 1.697 2.122 3.48 2.546 5.348.128.509.255 1.231.382 2.164.128.934.191 1.847.191 2.738.043.849-.042 1.401-.254 1.656a2.239 2.239 0 0 0-.191.636c0 .212.085.361.254.446-.042.127-.191.615-.445 1.464a58.994 58.994 0 0 1-.701 2.101c-.084 1.104-.339 2.25-.764 3.438a34.901 34.901 0 0 1-1.4 3.375 44.633 44.633 0 0 1-1.401 2.61c-.17 0-.34.043-.509.128-.128.042-.106.085.063.127 0 .212-.233.615-.7 1.21-.17.127-.446.445-.828.955-.339.467-.615.785-.827.955-.043.297-.17.552-.382.764-.213.17-.404.254-.573.254h-.128c-.042 0-.063.085-.063.255-.34.509-.871 1.125-1.592 1.847-.722.679-1.549 1.4-2.483 2.164a33.722 33.722 0 0 1-2.802 2.038c-.933.636-1.825 1.124-2.674 1.464-.424.297-.87.531-1.337.7-.467.213-.912.425-1.337.637-.212.17-.679.403-1.401.7a24.47 24.47 0 0 1-2.355.955c-.807.298-1.528.51-2.165.637Zm40.677-8.277a5.596 5.596 0 0 1-3.119 1.337 6.64 6.64 0 0 1-3.375-.509 6.798 6.798 0 0 1-2.738-2.292 7.199 7.199 0 0 1-1.4-3.184c-.213-1.231-.234-2.822-.064-4.775.127-1.655.658-3.31 1.592-4.966a19.882 19.882 0 0 1 3.374-4.52c1.358-1.316 2.695-2.229 4.011-2.738.637-.425 1.167-.616 1.592-.573.467 0 1.167.042 2.101.127.976.128 1.698.319 2.165.573.509.255.912.594 1.209 1.019.637.637 1.062 1.273 1.274 1.91.212.594.318 1.188.318 1.783-.17.934-.806 2.08-1.91 3.438-1.061 1.316-2.462 2.398-4.202 3.247-.934.297-1.953.424-3.056.382-1.104-.043-2.016-.318-2.738-.828-.806-.339-1.337-.276-1.592.191-.254.425-.488 1.486-.7 3.184-.17 1.613-.042 2.801.382 3.565.425.722.998 1.146 1.719 1.273.849.17 1.507.298 1.974.383.509.042 1.125-.149 1.846-.574.679-.424 1.104-.657 1.274-.7.169-.085.297-.17.382-.255l.827-.827c.297-.297.531-.51.701-.637a.789.789 0 0 1 .573-.255c.212 0 .403.107.573.319.169.17.339.297.509.382.424 0 .509.254.255.764-.213.509-.658 1.125-1.337 1.846a14.123 14.123 0 0 1-2.42 1.91Zm-.063-13.498a7.968 7.968 0 0 0 1.464-.891c.509-.424.934-.87 1.273-1.337.382-.509.573-.934.573-1.273 0-.595-.276-1.083-.827-1.465-.552-.424-1.38-.488-2.483-.191-.467.128-.998.446-1.592.955-.594.467-1.167.998-1.719 1.592-.51.594-.934 1.125-1.274 1.592-.297.467-.403.743-.318.827.127.213.488.382 1.082.51a9.928 9.928 0 0 0 1.974.064c.764-.043 1.38-.17 1.847-.383Zm12.094 15.727c-.806.212-1.464.042-1.974-.51-.466-.552-.742-1.4-.827-2.546-.085-1.146.042-2.505.382-4.075.212-.51.382-.998.509-1.465.127-.509.191-.912.191-1.209.085-.425.255-1.04.509-1.847.255-.849.531-1.719.828-2.61a67.51 67.51 0 0 1 .828-2.356c.297-.721.488-1.167.573-1.337.17 0 .318-.148.446-.446.127-.297.191-.594.191-.891 0-.34.063-.722.191-1.146.169-.424.339-.722.509-.891 0-.213.042-.446.127-.701.128-.297.191-.53.191-.7 0-.17.043-.34.128-.509a.85.85 0 0 0 .191-.51c.297-.552.679-1.422 1.146-2.61.509-1.231 1.04-2.589 1.591-4.075.595-1.486 1.146-2.95 1.656-4.393a90.214 90.214 0 0 0 1.209-3.629c.34-1.019.51-1.634.51-1.847 0-.339.085-.594.254-.764.17-.169.425-.254.764-.254a.947.947 0 0 1 .446-.255c.212-.042.403-.064.573-.064l.255.255.764.764c.339.297.53.637.573 1.019.085.382.127.827.127 1.337 0 .552-.063 1.04-.191 1.464-.127.425-.382 1.04-.764 1.847l-1.783 3.756c-.339.849-.7 1.655-1.082 2.419-.382.722-.573 1.168-.573 1.337 0 .17-.085.425-.255.764-.127.34-.276.765-.445 1.274-.17.339-.404.849-.701 1.528-.297.637-.615 1.337-.955 2.101a94.506 94.506 0 0 0-.764 1.91c-.212.509-.318.807-.318.891 0 .17-.021.34-.064.51 0 .17-.085.339-.254.509-.17 0-.276.127-.319.382v.318c0 .425-.339 1.55-1.018 3.375a568.436 568.436 0 0 1-1.91 6.43c-.552 1.953-.828 3.523-.828 4.712 0 1.019-.021 1.698-.064 2.037-.042.297-.233.531-.573.701Zm14.959.191c-1.868 0-3.396-.701-4.584-2.101-1.189-1.444-1.762-3.226-1.719-5.349.084-1.528.382-3.162.891-4.902a26.987 26.987 0 0 1 2.165-5.094c.891-1.655 1.867-3.098 2.928-4.329 1.062-1.231 2.165-2.101 3.311-2.61.425-.213.87-.382 1.337-.51a6.302 6.302 0 0 1 1.528-.191c.467 0 .955.085 1.465.255.509.127.933.276 1.273.446.722.297 1.273.657 1.655 1.082.382.424.722 1.082 1.019 1.974.127.806.191 1.379.191 1.719 0 .339-.106.849-.318 1.528-.51 1.528-1.168 2.844-1.974 3.947-.806 1.104-1.889 2.038-3.247 2.802-.34.212-.743.382-1.21.509a7.132 7.132 0 0 1-3.82-.318 4.514 4.514 0 0 1-1.846-1.465l-.446-.509-.191.509a33.982 33.982 0 0 0-1.019 3.184c-.212.976-.318 1.867-.318 2.674 0 .509.042.997.127 1.464.128.467.297.87.51 1.21.169.255.445.446.827.573.425.085.871.127 1.337.127h.892a3.52 3.52 0 0 0 .955-.254c.721-.255 1.294-.531 1.719-.828.467-.297.934-.616 1.401-.955l.254-.128h-.063a12.35 12.35 0 0 0 1.337-.764l.636-.382c.17 0 .34-.106.51-.318.339-.17.764-.106 1.273.191.552.297.828.679.828 1.146-.043.212-.234.552-.573 1.019-.34.424-.722.828-1.146 1.21-.382.382-.701.594-.955.636-.043.043-.191.128-.446.255-.255.085-.425.17-.509.255h.063c-.382.509-.764.764-1.146.764h-.509c-.17.297-.722.636-1.655 1.018-.934.34-1.847.51-2.738.51Zm2.865-14.007c.764 0 1.422-.213 1.974-.637a8.696 8.696 0 0 0 1.528-1.528c.849-1.146 1.337-2.25 1.464-3.311.17-1.104.042-1.868-.382-2.292-.255-.127-.488-.191-.7-.191-.17-.042-.531.021-1.083.191-.382.085-.912.403-1.591.955a26.59 26.59 0 0 0-2.038 1.846c-.637.68-1.125 1.253-1.464 1.719l-.828 1.337c.34-.127.658-.191.955-.191.34-.042.531-.021.573.064 0 .382.064.743.191 1.083.17.297.361.53.573.7.255.17.531.255.828.255Zm17.203 25.785c-.467.043-1.189-.063-2.165-.318-.934-.255-1.634-.488-2.101-.7-.552-.425-1.104-.998-1.655-1.719a11.058 11.058 0 0 1-1.337-2.229c-.298-.721-.425-1.273-.382-1.655.042-.34.36-.403.955-.191.636.212 1.061.488 1.273.827.382.467.828.913 1.337 1.338a6.07 6.07 0 0 0 1.528.955c.509.254.913.36 1.21.318 1.061-.17 1.931-.7 2.61-1.592.722-.849 1.358-1.931 1.91-3.247.34-.934.594-1.719.764-2.356.212-.594.403-1.273.573-2.037.212-.764.467-1.825.764-3.183.382-1.529.637-2.611.764-3.248.17-.679.255-1.124.255-1.337 0-.212-.064-.36-.191-.445l-.828.445c-.552.297-1.167.616-1.846.955-.637.34-1.125.616-1.464.828a15.027 15.027 0 0 1-3.502.7c-1.146.085-2.038.022-2.674-.191-.297-.127-.616-.424-.955-.891a8.55 8.55 0 0 1-.764-1.528c-.17-.594-.234-1.104-.191-1.528.042-.34.233-.849.573-1.528.339-.679.721-1.401 1.146-2.165.467-.764.87-1.4 1.209-1.91.382-.552.616-.828.701-.828.169 0 .254-.063.254-.191.043-.127.064-.275.064-.445.043-.17.361-.531.955-1.083.637-.594 1.486-1.315 2.547-2.164 1.485-1.359 2.822-2.398 4.011-3.12 1.188-.722 2.292-1.125 3.311-1.21.297.043.573.064.827.064h.446l.382.255c.297.127.679.297 1.146.509.637.255 1.21.7 1.719 1.337.51.594.913 1.295 1.21 2.101a6.53 6.53 0 0 1 .573 2.292 7.817 7.817 0 0 1-.637 2.738c-.339.891-.679 1.316-1.018 1.273-.34-.042-.765.106-1.274.446-.467.339-.7.594-.7.764 0 .17-.064.382-.191.637-.085.254-.361.658-.828 1.209-.042.213-.17.786-.382 1.719-.17.892-.382 1.91-.637 3.056a626.138 626.138 0 0 1-.7 3.12c-.17.892-.276 1.465-.318 1.719-.043.17-.149.552-.319 1.146a17.816 17.816 0 0 1-.573 1.91 22.67 22.67 0 0 1-.7 2.038c-.17 1.231-.403 2.143-.7 2.737-.255.637-.679 1.316-1.274 2.038-.636 1.061-1.4 1.889-2.292 2.483-.891.637-1.698.997-2.419 1.082Zm-2.611-21.392c.085.424.658.573 1.719.445 1.062-.169 2.123-.53 3.184-1.082a30.396 30.396 0 0 1 2.547-1.146c.764-.297 1.294-.722 1.591-1.273.255-.425.467-.849.637-1.274.17-.424.382-1.04.637-1.846.042-.17.148-.361.318-.573.212-.255.403-.403.573-.446.17-.042.34-.042.509 0 .213.043.467.127.764.255.213-.085.361-.297.446-.637.127-.339.149-.721.064-1.146-.043-.297-.255-.7-.637-1.21a4.082 4.082 0 0 0-1.464-1.209c-.637-.34-1.38-.128-2.229.636l-3.119 2.802a43.295 43.295 0 0 0-2.802 2.801c-.891.976-1.613 1.889-2.165 2.738-.509.849-.7 1.57-.573 2.165Zm23.715 7.322c-.509.084-1.061 0-1.655-.255a5.057 5.057 0 0 1-1.592-1.082c-.425-.467-.701-.956-.828-1.465-.17-.891-.064-1.995.318-3.311.425-1.358 1.019-2.78 1.783-4.265a41.957 41.957 0 0 1 2.674-4.394c1.019-1.4 2.059-2.61 3.12-3.629 1.104-1.061 2.122-1.782 3.056-2.164.467-.297.828-.489 1.082-.573.298-.128.595-.149.892-.064.339.085.828.297 1.464.637.594.169 1.04.36 1.337.573.297.212.679.636 1.146 1.273a8.91 8.91 0 0 1 .764 1.91c.17.637.319 1.358.446 2.165.34 1.061.467 1.761.382 2.101-.085.297-.212.53-.382.7-.34.425-.424.637-.255.637l-.063.255c0 .127-.085.339-.255.636a20.98 20.98 0 0 0-.7 2.929c-.128.976-.106 1.783.063 2.419.34.934.955 1.486 1.847 1.656.891.17 1.804-.212 2.737-1.146.467-.34.913-.637 1.337-.892.425-.297.637-.275.637.064l.191.191a.786.786 0 0 0 .446.127c.212 0 .339.085.382.255.085.17.085.403 0 .7-.043.255-.17.552-.382.892-.637.636-.955 1.061-.955 1.273l-.255.255c-.127.127-.361.339-.7.637-.764.466-1.74.7-2.929.7-1.146 0-2.037-.234-2.674-.7-.637-.467-1.231-1.104-1.783-1.911-.509-.806-.849-1.506-1.018-2.101l-.319-.636-1.846 1.209a15.57 15.57 0 0 1-1.528 1.337c-.51.425-.849.722-1.019.892-.127.17-.276.318-.446.446a.611.611 0 0 1-.445.191h-.637c0 .169-.212.382-.637.636-.382.255-.849.467-1.4.637-.51.17-.977.255-1.401.255Zm-.637-3.439c.255 0 .701-.191 1.337-.573a64.408 64.408 0 0 0 2.229-1.464 20.421 20.421 0 0 0 2.228-1.655c.679-.552 1.146-.977 1.401-1.274l.827-.827c.382-.425.722-.786 1.019-1.083.976-1.103 1.656-2.313 2.038-3.629.382-1.358.339-2.419-.128-3.183-.17-.467-.382-.722-.636-.764-.255-.043-.786.106-1.592.445-.51.297-1.146.871-1.91 1.719a50.518 50.518 0 0 0-2.356 2.866 46.025 46.025 0 0 0-2.292 3.31 31.653 31.653 0 0 0-1.783 3.184c-.467.976-.7 1.74-.7 2.292 0 .17.042.318.127.445l.191.191Zm28.534 8.723c-1.401-.212-2.356-.743-2.865-1.592-.467-.806-.573-2.058-.319-3.756.255-.807.404-1.528.446-2.165.085-.679.276-1.103.573-1.273l.064-.191c.085-.128.063-.255-.064-.382 0-.552.191-1.316.573-2.292.085-.255.191-.552.318-.892l.255-.573c-.212-.339-.212-.615 0-.827.212-.213.424-.404.637-.573.254-.213.276-.446.063-.701-.085-.17.022-.552.319-1.146.297-.636.636-1.294 1.018-1.973.382-.68.637-1.21.764-1.592 0-.085.107-.382.319-.892.212-.509.467-1.103.764-1.782s.573-1.295.827-1.847c.298-.551.489-.912.573-1.082.425-.212.255-.361-.509-.446a15.01 15.01 0 0 0-2.419-.063 46.838 46.838 0 0 1-3.184-.191c-.764-.085-1.4-.276-1.91-.573-.509-.595-.7-1.019-.573-1.274.17-.297.679-.467 1.528-.509.552-.043.977-.064 1.274-.064.339 0 .764-.021 1.273-.063a68.38 68.38 0 0 1 2.547-.319l3.247-.254.191-1.083c.339-.552.615-1.04.828-1.464.254-.467.466-.934.636-1.401.17-.467.297-.955.382-1.464l.573-1.019a6.2 6.2 0 0 0 .701-2.228c.509-.849.955-1.613 1.337-2.292.382-.722.615-1.168.7-1.338.467-.382.785-.573.955-.573.212 0 .637.213 1.273.637.382.212.722.467 1.019.764.297.297.488.616.573.955.085.297-.042.594-.382.892-.085.169-.212.488-.382.955-.17.424-.297.785-.382 1.082-.255.297-.573.785-.955 1.464a6.877 6.877 0 0 0-.7 1.974c-.34.722-.658 1.38-.955 1.974-.297.552-.531.827-.701.827.085.425.34.637.764.637a42.72 42.72 0 0 1 2.101-.127c.807-.085 1.359-.17 1.656-.255.339-.127.721-.085 1.146.127.212.298.382.637.509 1.019.128.382.149.743.064 1.083-.043.297-.212.509-.509.636-.213 0-.658.128-1.338.382-.636.212-1.443.34-2.419.382l-3.374.319-1.083 2.164a25.535 25.535 0 0 0-.764 1.528c-.212.425-.361.68-.445.764 0 .255-.149.637-.446 1.146l-.828 1.656a12.106 12.106 0 0 1-.891 1.974l-.446.891c-.17 0-.255.127-.255.382.213.509.149.891-.191 1.146a1.838 1.838 0 0 0-.573.573l-.191.318c.17.17.191.382.064.637a4.646 4.646 0 0 1-.382.828c0 .339-.106.827-.318 1.464-.17.637-.361 1.231-.573 1.783.042.764.085 1.252.127 1.464.043.212.149.297.318.255.213.042.404.042.573 0 .17-.043.34-.064.51-.064.594-.255.276 1.231-.955 4.457-.679 1.061-1.146 1.825-1.401 2.292-.255.509-.488.764-.7.764Zm26.553-5.412a5.596 5.596 0 0 1-3.12 1.337 6.636 6.636 0 0 1-3.374-.509 6.798 6.798 0 0 1-2.738-2.292 7.2 7.2 0 0 1-1.401-3.184c-.212-1.231-.233-2.822-.063-4.775.127-1.655.658-3.31 1.591-4.966a19.916 19.916 0 0 1 3.375-4.52c1.358-1.316 2.695-2.229 4.011-2.738.637-.425 1.167-.616 1.592-.573.467 0 1.167.042 2.101.127.976.128 1.698.319 2.164.573.51.255.913.594 1.21 1.019.637.637 1.061 1.273 1.274 1.91.212.594.318 1.188.318 1.783-.17.934-.807 2.08-1.91 3.438-1.061 1.316-2.462 2.398-4.202 3.247-.934.297-1.953.424-3.056.382-1.104-.043-2.017-.318-2.738-.828-.807-.339-1.337-.276-1.592.191-.255.425-.488 1.486-.7 3.184-.17 1.613-.043 2.801.382 3.565.424.722.997 1.146 1.719 1.273.849.17 1.507.298 1.974.383.509.042 1.124-.149 1.846-.574.679-.424 1.104-.657 1.273-.7.17-.085.297-.17.382-.255l.828-.827c.297-.297.531-.51.7-.637a.792.792 0 0 1 .573-.255c.213 0 .404.107.573.319.17.17.34.297.51.382.424 0 .509.254.254.764-.212.509-.657 1.125-1.337 1.846a14.114 14.114 0 0 1-2.419 1.91Zm-.064-13.498a7.973 7.973 0 0 0 1.465-.891c.509-.424.933-.87 1.273-1.337.382-.509.573-.934.573-1.273 0-.595-.276-1.083-.828-1.465-.551-.424-1.379-.488-2.483-.191-.467.128-.997.446-1.591.955-.595.467-1.168.998-1.719 1.592-.51.594-.934 1.125-1.274 1.592-.297.467-.403.743-.318.827.127.213.488.382 1.082.51a9.922 9.922 0 0 0 1.974.064c.764-.043 1.379-.17 1.846-.383Z"/><path stroke="#000" stroke-linejoin="round" stroke-width="2.653" d="M638.929 392.259c11.148-50.818-82.382-22.419-70.926-88.555 2.695-15.556 2.196-14.501 1.61-12.029m0 0c1.726 15.08 11.867 24.547 17.28 25.271 5.413.725-25.212-.313-41.201-.923 7.37-3.605 22.472-13.522 23.921-24.348ZM125.833 240.254c-3.539 8.091-5.61 27.154 14.414 38.683 25.029 14.412 49.301 27.307 48.542 47.027-.607 15.777-.253 14.665 0 12.137m0 0c-3.711-14.718-15.018-22.755-20.479-22.755-5.462 0 25.03-3.034 40.959-4.551-6.827 4.551-20.48 16.383-20.48 27.306ZM410.6 104.782c3.389 45.701 94.949-22.658 121.591 37.921 6.356 14.452 6.188 13.297 5.309 10.913m0 0c-9.775-11.611-23.459-13.892-28.37-11.503-4.911 2.389 21.181-13.678 34.84-22.01-4.147 7.078-11.248 23.692-6.47 33.513Z"/></svg>