<svg xmlns="http://www.w3.org/2000/svg" fill="none" viewBox="0 0 61 56"><rect width="59.266" height="54.574" x=".934" y=".508" fill="#FAFBFC" rx="4"/><path fill="#B0B1C3" d="M43.871 22.512c.398 0 .78-.154 1.06-.427.282-.274.44-.645.44-1.032V15.22a1.48 1.48 0 0 0-.93-1.342 1.537 1.537 0 0 0-.57-.116h-6c-.398 0-.78.153-1.06.427-.282.273-.44.644-.44 1.031 0 .387.158.758.44 1.031.28.274.662.427 1.06.427h2.385l-9.885 9.61-9.885-9.61h2.385c.398 0 .78-.153 1.06-.427.282-.273.44-.644.44-1.03 0-.388-.158-.759-.44-1.032a1.522 1.522 0 0 0-1.06-.427h-6c-.196.002-.39.042-.57.116a1.48 1.48 0 0 0-.93 1.342v5.833c0 .387.158.758.44 1.032.28.273.662.427 1.06.427s.78-.154 1.06-.427c.282-.274.44-.645.44-1.032v-2.318l9.885 9.61-9.885 9.61v-2.318c0-.387-.158-.758-.44-1.032a1.522 1.522 0 0 0-1.06-.427c-.398 0-.78.154-1.06.428-.282.273-.44.644-.44 1.03v5.834a1.48 1.48 0 0 0 .93 1.342c.18.074.374.114.57.116h6c.398 0 .78-.153 1.06-.427.282-.273.44-.644.44-1.03 0-.388-.158-.759-.44-1.032a1.522 1.522 0 0 0-1.06-.427h-2.385l9.885-9.61 9.885 9.61h-2.385c-.398 0-.78.153-1.06.427-.282.273-.44.644-.44 1.031 0 .387.158.758.44 1.031.28.274.662.427 1.06.427h6c.196-.002.39-.042.57-.116a1.48 1.48 0 0 0 .93-1.342v-5.833c0-.387-.158-.758-.44-1.032a1.522 1.522 0 0 0-1.06-.427c-.398 0-.78.154-1.06.428-.282.273-.44.644-.44 1.03v2.32l-9.885-9.61 9.885-9.611v2.318c0 .387.158.758.44 1.032.28.273.662.427 1.06.427Z"/></svg>