<svg fill="none" height="101" width="190" xmlns="http://www.w3.org/2000/svg"><path d="m45.379 10.185 141.877-8.498v80.915L43.162 97.64z" fill="#fffbee"/><path d="m56.049 16.546 120.81-7.716v68.256L56.049 91.628z" fill="#fff"/><g clip-rule="evenodd" fill="#000" fill-rule="evenodd"><path d="M189.992 1.272a.5.5 0 0 1-.47.528C141.084 4.629 93 7.457 39.612 10.64a.5.5 0 1 1-.059-1C92.941 6.46 141.026 3.63 189.464.803a.5.5 0 0 1 .528.47zM178.276 8.48a.5.5 0 0 1-.47.529c-25.019 1.461-43.332 2.638-62.548 3.874-17.996 1.157-36.784 2.365-62.612 3.904a.5.5 0 1 1-.06-.998c25.808-1.539 44.6-2.747 62.602-3.904 19.226-1.236 37.551-2.414 62.56-3.874a.5.5 0 0 1 .528.47zM180.043 76.705a.5.5 0 0 1-.456.541c-31.737 2.74-51.817 5.11-76.447 8.018-13.504 1.594-28.376 3.35-47.288 5.416a.5.5 0 0 1-.108-.994c18.892-2.064 33.758-3.82 47.261-5.413 24.642-2.909 44.744-5.282 76.496-8.023a.5.5 0 0 1 .542.455zM189.284 81.86a.501.501 0 0 1-.444.551c-19.514 2.102-36.56 4.34-52.901 6.484-29.83 3.916-57.308 7.522-93.147 9.429a.5.5 0 1 1-.053-.999c35.804-1.904 63.217-5.503 93.02-9.415 16.346-2.146 33.411-4.386 52.974-6.493a.5.5 0 0 1 .551.444z"/><path d="M185.604.45a.5.5 0 0 1 .5.5v80.257a.5.5 0 1 1-1 0V.95a.5.5 0 0 1 .5-.5zM44.533 8.58a.5.5 0 0 1 .5.5V100.3a.5.5 0 0 1-1 0V9.08a.5.5 0 0 1 .5-.5zM55.798 14.02a.5.5 0 0 1 .5.5v77.43a.5.5 0 1 1-1 0V14.52a.5.5 0 0 1 .5-.5zM176.009 6.596a.5.5 0 0 1 .5.5v70.359a.5.5 0 0 1-1 0V7.095a.5.5 0 0 1 .5-.5zM130.905 30.941a.5.5 0 0 1-.464.534c-11.373.806-22.317 1.096-33.475 1.393-8.438.224-17 .451-25.961.907a.5.5 0 1 1-.05-.999c9.024-.459 17.595-.686 26.03-.91 11.125-.294 22.012-.583 33.386-1.388a.5.5 0 0 1 .534.463zM94.246 46.36c-8.874.405-17.804.718-21.9.324a.5.5 0 0 1 .095-.995c4.009.385 12.851.08 21.759-.328 2.348-.108 4.7-.222 6.964-.332 6.292-.307 11.91-.58 14.915-.58a.5.5 0 1 1 0 1c-2.978 0-8.555.271-14.835.577-2.27.11-4.633.225-6.998.333zM114.63 59.387a.5.5 0 0 1-.431.56c-8.814 1.142-32.656 1.561-41.47 1.242a.5.5 0 0 1 .037-1c8.79.32 32.57-.102 41.304-1.234a.5.5 0 0 1 .56.432z"/></g><path d="M14.625 65.811c.486-.753.694-1.421.771-1.857l-.032-.113c0-.646.138-.484.032.113 1.816 6.33 4.82 8.772 7.326 9.524.641-.22 1.327-.417 2.06-.588 4.402-1.028 1.746 1.73-2.06.588-6.176 2.119-8.227 6.35-8.686 9.796.215.773.413 1.6.59 2.48 1.086 5.419-1.213 2.19-.59-2.48-1.767-6.355-4.71-9.152-6.879-9.503-1.868 1.568-3.1 2.272-2.336 1 .476-.793 1.321-1.164 2.336-1 2.4-2.014 5.852-5.455 7.468-7.96z" fill="#fedf76"/><path clip-rule="evenodd" d="M15.935 63.604c-.001.09-.01.197-.028.318 1.748 6.004 4.55 8.292 6.81 9.03a21.899 21.899 0 0 1 1.951-.55 9.391 9.391 0 0 1 1.408-.234c.364-.027.68-.013.924.063a.887.887 0 0 1 .38.222.655.655 0 0 1 .186.513.777.777 0 0 1-.172.415 1.329 1.329 0 0 1-.275.253c-.386.274-1.027.498-1.793.586a6.85 6.85 0 0 1-2.59-.218c-5.797 2.044-7.73 5.998-8.19 9.237.207.757.398 1.562.57 2.416.271 1.354.35 2.243.284 2.722-.017.12-.048.265-.122.393a.595.595 0 0 1-.573.309.687.687 0 0 1-.446-.248c-.08-.09-.145-.2-.2-.309-.217-.428-.422-1.164-.537-2.066a12.717 12.717 0 0 1 .005-3.146c-.867-3.078-2.007-5.27-3.17-6.728-1.092-1.366-2.18-2.059-3.064-2.274-.853.706-1.599 1.25-2.076 1.479a1.36 1.36 0 0 1-.436.137.672.672 0 0 1-.325-.044.584.584 0 0 1-.316-.314.67.67 0 0 1-.044-.336c.01-.087.033-.17.059-.242.051-.144.134-.304.237-.475.554-.922 1.513-1.369 2.61-1.266 2.376-2.018 5.663-5.32 7.203-7.708.407-.63.596-1.187.677-1.564l-.018-.065v-.07c0-.174.009-.316.027-.422a.724.724 0 0 1 .07-.22.509.509 0 0 1 .344-.261.508.508 0 0 1 .54.23.57.57 0 0 1 .085.265c.005.055.007.113.006.172zM8.18 73.551c.979.407 1.998 1.205 2.958 2.407 1.024 1.282 1.999 3.045 2.807 5.35.86-2.895 2.95-5.956 7.403-7.84-2.161-1.078-4.407-3.412-5.98-7.944-.092.18-.2.366-.322.557l-.42-.27.42.27c-1.503 2.328-4.517 5.405-6.866 7.47zm18.538-.36-.002-.001h.002zm-10.84-9.614-.001.008a.046.046 0 0 1 .001-.008z" fill="#000" fill-rule="evenodd"/><path d="M13.112 58.822c-3.483.65-5.76 2.78-6.081 4.872.056.204.09.397.102.572.129 1.957-.264.597-.11-.52a3.4 3.4 0 0 1 .008-.052c-.488-1.774-2.558-4.482-4.547-5.093a8.018 8.018 0 0 1-1.931.221c.591-.394 1.257-.428 1.931-.221 4.574-1.132 4.708-6.225 4.738-6.193.643 3.027.533 5.878 5.89 6.414z" fill="#fedf76"/><path clip-rule="evenodd" d="M2.49 58.084c-.74-.196-1.515-.144-2.215.323a.5.5 0 0 0 .278.916c.698 0 1.332-.072 1.909-.202.828.295 1.716 1.016 2.477 1.914.765.902 1.344 1.913 1.582 2.696-.075.603-.015 1.26.065 1.558a.926.926 0 0 0 .053.151.521.521 0 0 0 .346.3.51.51 0 0 0 .481-.122.541.541 0 0 0 .132-.193.787.787 0 0 0 .047-.195c.023-.183.02-.51-.013-.996a3.25 3.25 0 0 0-.09-.561c.334-1.78 2.359-3.743 5.662-4.359a.5.5 0 0 0-.042-.989c-2.587-.258-3.727-1.059-4.339-2.04-.319-.511-.518-1.107-.676-1.786a24.49 24.49 0 0 1-.242-1.202c-.06-.322-.123-.656-.194-.992a.5.5 0 0 0-.973-.025.58.58 0 0 0-.014.068v.001a1.567 1.567 0 0 0-.011.096l-.013.119a8.304 8.304 0 0 1-.602 2.306c-.556 1.29-1.6 2.671-3.607 3.214zm4.161 7.029zm.33-2.847c.697-1.368 2.1-2.585 3.976-3.34-1.473-.44-2.391-1.164-2.982-2.112-.387-.619-.613-1.304-.78-1.997a8.387 8.387 0 0 1-.179.45c-.537 1.243-1.503 2.62-3.223 3.408.7.445 1.354 1.06 1.91 1.714.501.592.944 1.243 1.278 1.877z" fill="#000" fill-rule="evenodd"/></svg>