<svg xmlns="http://www.w3.org/2000/svg" width="168" height="30" fill="none"><path stroke="#0092E4" stroke-width=".557" d="M-11.16 12.933h170.881"/><g filter="url(#a)"><rect width="33.758" height="17.306" x="51.673" y="4.54" fill="#fff" rx="4.074"/></g><g filter="url(#b)"><rect width="33.758" height="17.306" x="93.222" y="4.54" fill="#0278D5" rx="4.074"/></g><g filter="url(#c)"><rect width="15.711" height="8.117" x="143.47" y="9.135" fill="#fff" rx="4.058"/></g><g filter="url(#d)"><rect width="15.711" height="8.117" x="19.473" y="9.135" fill="#fff" rx="4.058"/></g><path fill="url(#e)" fill-rule="evenodd" d="M72.138 13.116c0 .522-.085 1.03-.235 1.497-.028.086-.12.107-.176.043l-1.1-1.283a.198.198 0 0 1-.024-.204c.12-.27.179-.577.179-.899.015-1.048-.718-1.913-1.622-1.913-.287 0-.55.085-.78.23a.13.13 0 0 1-.171-.026l-.98-1.14c-.069-.08-.048-.218.043-.259.398-.18.822-.276 1.28-.276 1.98 0 3.586 1.894 3.586 4.23Zm-5.662-3.442c.064-.054.15-.043.206.023l1.113 1.313c.05.058.053.15.015.218-.174.308-.272.67-.272 1.06 0 1.067.733 1.932 1.638 1.932.33 0 .638-.115.899-.32a.13.13 0 0 1 .185.017l1.205 1.421c.056.067.065.17.018.246-.662 1.067-1.718 1.763-2.931 1.763-1.98 0-3.587-1.895-3.587-4.23 0-1.434.591-2.68 1.51-3.444Zm2.7 3.81c.608 0 1.091-.57 1.091-1.287 0-.718-.483-1.288-1.091-1.288-.609 0-1.092.57-1.092 1.288 0 .717.483 1.287 1.091 1.287Z" clip-rule="evenodd"/><mask id="f" fill="#fff"><ellipse cx="35.183" cy="13.27" rx=".779" ry=".919"/></mask><ellipse cx="35.183" cy="13.27" fill="#fff" rx=".779" ry=".919"/><path fill="#0092E4" d="M34.944 13.27c0 .023-.008.016.013-.01.024-.027.1-.09.226-.09v2.037c1.144 0 1.798-1.032 1.798-1.938h-2.037Zm.24-.1c.125 0 .202.063.225.09.022.026.014.033.014.01h-2.037c0 .905.653 1.937 1.797 1.937V13.17Zm.239.1c0-.024.008-.017-.014.008a.301.301 0 0 1-.226.091v-2.037c-1.144 0-1.797 1.032-1.797 1.938h2.037Zm-.24.099a.301.301 0 0 1-.226-.09c-.021-.026-.013-.033-.013-.01h2.037c0-.905-.654-1.937-1.798-1.937v2.037Z" mask="url(#f)"/><mask id="g" fill="#fff"><ellipse cx="51.673" cy="13.27" rx=".779" ry=".919"/></mask><ellipse cx="51.673" cy="13.27" fill="#fff" rx=".779" ry=".919"/><path fill="#0092E4" d="M51.434 13.27c0 .023-.009.016.013-.01.024-.027.1-.09.226-.09v2.037c1.144 0 1.797-1.032 1.797-1.938h-2.036Zm.24-.1c.125 0 .201.063.225.09.022.026.013.033.013.01h-2.036c0 .905.653 1.937 1.797 1.937V13.17Zm.238.1c0-.024.009-.017-.013.008a.3.3 0 0 1-.226.091v-2.037c-1.144 0-1.797 1.032-1.797 1.938h2.036Zm-.239.099a.301.301 0 0 1-.226-.09c-.022-.026-.013-.033-.013-.01h2.037c0-.905-.654-1.937-1.798-1.937v2.037Z" mask="url(#g)"/><mask id="h" fill="#fff"><ellipse cx="85.432" cy="13.27" rx=".779" ry=".919"/></mask><ellipse cx="85.432" cy="13.27" fill="#fff" rx=".779" ry=".919"/><path fill="#0092E4" d="M85.192 13.27c0 .023-.008.016.014-.01.023-.027.1-.09.226-.09v2.037c1.144 0 1.797-1.032 1.797-1.938h-2.037Zm.24-.1c.126 0 .202.063.226.09.022.026.013.033.013.01h-2.037c0 .905.654 1.937 1.798 1.937V13.17Zm.24.1c0-.024.008-.017-.014.008a.3.3 0 0 1-.226.091v-2.037c-1.144 0-1.798 1.032-1.798 1.938h2.037Zm-.24.099a.301.301 0 0 1-.226-.09c-.022-.026-.014-.033-.014-.01h2.037c0-.905-.653-1.937-1.797-1.937v2.037Z" mask="url(#h)"/><mask id="i" fill="#fff"><ellipse cx="93.222" cy="13.27" rx=".779" ry=".919"/></mask><ellipse cx="93.222" cy="13.27" fill="#fff" rx=".779" ry=".919"/><path fill="#0092E4" d="M92.983 13.27c0 .023-.009.016.013-.01.024-.027.1-.09.226-.09v2.037c1.144 0 1.797-1.032 1.797-1.938h-2.037Zm.239-.1c.126 0 .202.063.226.09.022.026.013.033.013.01h-2.037c0 .905.654 1.937 1.798 1.937V13.17Zm.24.1c0-.024.008-.017-.014.008a.3.3 0 0 1-.226.091v-2.037c-1.144 0-1.797 1.032-1.797 1.938h2.036Zm-.24.099a.3.3 0 0 1-.226-.09c-.022-.026-.013-.033-.013-.01h2.036c0-.905-.653-1.937-1.797-1.937v2.037Z" mask="url(#i)"/><mask id="j" fill="#fff"><ellipse cx="126.98" cy="13.27" rx=".779" ry=".919"/></mask><ellipse cx="126.98" cy="13.27" fill="#fff" rx=".779" ry=".919"/><path fill="#0092E4" d="M126.741 13.27c0 .023-.008.016.013-.01.024-.027.1-.09.226-.09v2.037c1.144 0 1.798-1.032 1.798-1.938h-2.037Zm.239-.1a.3.3 0 0 1 .226.09c.022.026.014.033.014.01h-2.037c0 .905.653 1.937 1.797 1.937V13.17Zm.24.1c0-.024.008-.017-.014.008a.3.3 0 0 1-.226.091v-2.037c-1.144 0-1.797 1.032-1.797 1.938h2.037Zm-.24.099a.302.302 0 0 1-.226-.09c-.021-.026-.013-.033-.013-.01h2.037c0-.905-.654-1.937-1.798-1.937v2.037Z" mask="url(#j)"/><mask id="k" fill="#fff"><ellipse cx="143.47" cy="13.27" rx=".779" ry=".919"/></mask><ellipse cx="143.47" cy="13.27" fill="#fff" rx=".779" ry=".919"/><path fill="#0092E4" d="M143.231 13.27c0 .023-.009.016.013-.01.024-.027.1-.09.226-.09v2.037c1.144 0 1.797-1.032 1.797-1.938h-2.036Zm.239-.1c.126 0 .202.063.226.09.022.026.013.033.013.01h-2.036c0 .905.653 1.937 1.797 1.937V13.17Zm.239.1c0-.024.009-.017-.013.008a.302.302 0 0 1-.226.091v-2.037c-1.144 0-1.797 1.032-1.797 1.938h2.036Zm-.239.099a.302.302 0 0 1-.226-.09c-.022-.026-.013-.033-.013-.01h2.036c0-.905-.653-1.937-1.797-1.937v2.037Z" mask="url(#k)"/><mask id="l" fill="#fff"><ellipse cx="159.18" cy="13.27" rx=".779" ry=".919"/></mask><ellipse cx="159.18" cy="13.27" fill="#fff" rx=".779" ry=".919"/><path fill="#0092E4" d="M158.941 13.27c0 .023-.008.016.013-.01.024-.027.1-.09.226-.09v2.037c1.144 0 1.798-1.032 1.798-1.938h-2.037Zm.239-.1a.3.3 0 0 1 .226.09c.022.026.014.033.014.01h-2.037c0 .905.654 1.937 1.797 1.937V13.17Zm.24.1c0-.024.008-.017-.014.008a.3.3 0 0 1-.226.091v-2.037c-1.143 0-1.797 1.032-1.797 1.938h2.037Zm-.24.099a.302.302 0 0 1-.226-.09c-.021-.026-.013-.033-.013-.01h2.037c0-.905-.654-1.937-1.798-1.937v2.037Z" mask="url(#l)"/><mask id="m" fill="#fff"><ellipse cx="19.472" cy="13.27" rx=".779" ry=".919"/></mask><ellipse cx="19.472" cy="13.27" fill="#fff" rx=".779" ry=".919"/><path fill="#0092E4" d="M19.233 13.27c0 .023-.008.016.014-.01.023-.027.1-.09.225-.09v2.037c1.144 0 1.798-1.032 1.798-1.938h-2.037Zm.24-.1c.126 0 .202.063.225.09.022.026.014.033.014.01h-2.037c0 .905.654 1.937 1.797 1.937V13.17Zm.239.1c0-.024.008-.017-.014.008a.3.3 0 0 1-.226.091v-2.037c-1.143 0-1.797 1.032-1.797 1.938h2.037Zm-.24.099a.3.3 0 0 1-.226-.09c-.021-.026-.013-.033-.013-.01h2.037c0-.905-.654-1.937-1.798-1.937v2.037Z" mask="url(#m)"/><path fill="#9293AB" d="M151.182 14.187v-1.99h.287v1.99h-.287Zm-.701-.826v-.338h1.688v.338h-1.688ZM27.185 14.187v-1.99h.286v1.99h-.286Zm-.701-.826v-.338h1.688v.338h-1.688Z"/><path stroke="#fff" stroke-width=".557" d="M113.328 11.737c0 1.752-1.195 3.09-2.577 3.09-1.383 0-2.578-1.338-2.578-3.09 0-1.751 1.195-3.09 2.578-3.09 1.382 0 2.577 1.339 2.577 3.09ZM107.764 16.819h5.843"/><defs><filter id="a" width="45.979" height="29.526" x="47.6" y=".466" color-interpolation-filters="sRGB" filterUnits="userSpaceOnUse"><feFlood flood-opacity="0" result="BackgroundImageFix"/><feColorMatrix in="SourceAlpha" result="hardAlpha" values="0 0 0 0 0 0 0 0 0 0 0 0 0 0 0 0 0 0 127 0"/><feOffset dx="2.037" dy="2.037"/><feGaussianBlur stdDeviation="3.055"/><feComposite in2="hardAlpha" operator="out"/><feColorMatrix values="0 0 0 0 0.0376042 0 0 0 0 0.0569208 0 0 0 0 0.158333 0 0 0 0.2 0"/><feBlend in2="BackgroundImageFix" result="effect1_dropShadow_994_176297"/><feBlend in="SourceGraphic" in2="effect1_dropShadow_994_176297" result="shape"/></filter><filter id="b" width="45.979" height="29.526" x="89.148" y=".466" color-interpolation-filters="sRGB" filterUnits="userSpaceOnUse"><feFlood flood-opacity="0" result="BackgroundImageFix"/><feColorMatrix in="SourceAlpha" result="hardAlpha" values="0 0 0 0 0 0 0 0 0 0 0 0 0 0 0 0 0 0 127 0"/><feOffset dx="2.037" dy="2.037"/><feGaussianBlur stdDeviation="3.055"/><feComposite in2="hardAlpha" operator="out"/><feColorMatrix values="0 0 0 0 0.0376042 0 0 0 0 0.0569208 0 0 0 0 0.158333 0 0 0 0.2 0"/><feBlend in2="BackgroundImageFix" result="effect1_dropShadow_994_176297"/><feBlend in="SourceGraphic" in2="effect1_dropShadow_994_176297" result="shape"/></filter><filter id="c" width="27.931" height="20.338" x="139.396" y="5.061" color-interpolation-filters="sRGB" filterUnits="userSpaceOnUse"><feFlood flood-opacity="0" result="BackgroundImageFix"/><feColorMatrix in="SourceAlpha" result="hardAlpha" values="0 0 0 0 0 0 0 0 0 0 0 0 0 0 0 0 0 0 127 0"/><feOffset dx="2.037" dy="2.037"/><feGaussianBlur stdDeviation="3.055"/><feComposite in2="hardAlpha" operator="out"/><feColorMatrix values="0 0 0 0 0.0376042 0 0 0 0 0.0569208 0 0 0 0 0.158333 0 0 0 0.2 0"/><feBlend in2="BackgroundImageFix" result="effect1_dropShadow_994_176297"/><feBlend in="SourceGraphic" in2="effect1_dropShadow_994_176297" result="shape"/></filter><filter id="d" width="27.931" height="20.338" x="15.399" y="5.061" color-interpolation-filters="sRGB" filterUnits="userSpaceOnUse"><feFlood flood-opacity="0" result="BackgroundImageFix"/><feColorMatrix in="SourceAlpha" result="hardAlpha" values="0 0 0 0 0 0 0 0 0 0 0 0 0 0 0 0 0 0 127 0"/><feOffset dx="2.037" dy="2.037"/><feGaussianBlur stdDeviation="3.055"/><feComposite in2="hardAlpha" operator="out"/><feColorMatrix values="0 0 0 0 0.0376042 0 0 0 0 0.0569208 0 0 0 0 0.158333 0 0 0 0.2 0"/><feBlend in2="BackgroundImageFix" result="effect1_dropShadow_994_176297"/><feBlend in="SourceGraphic" in2="effect1_dropShadow_994_176297" result="shape"/></filter><linearGradient id="e" x1="62.648" x2="68.429" y1="11.619" y2="19.206" gradientUnits="userSpaceOnUse"><stop stop-color="#73DFE7"/><stop offset="1" stop-color="#0095F7"/></linearGradient></defs></svg>