<svg xmlns="http://www.w3.org/2000/svg" width="85" height="88" fill="none"><g filter="url(#a)" opacity=".6"><path fill="#fff" d="M41.237 57.515c-.529.542-1.543 3.385-1.983 4.74l-7.935-21.666 4.628-2.709c-2.645-4.74.662-12.118 6.613-12.118 4.761 0 9.919 6.025 11.902 10.764.662-2.708 1.323-6.69 8.597-6.094 10.58.867 9.257 8.802 6.612 12.188 3.086 4.74 9.787 14.353 9.258 14.895-.53.542-12.564-9.479-13.225-8.125 2.865 8.35 8.464 25.052 7.935 25.052-.661 0-13.225-14.219-14.548-14.896-1.058-.541-3.967 1.58-5.29 2.709.441 1.805 1.058 5.958 0 8.124-1.322 2.709-1.983-.677-2.645-.677-.661 0-5.29-7.447-6.612-10.156-1.323-2.708-2.645-2.708-3.306-2.031Z"/><path fill="#fff" d="M12.175 72.586c-.677-2.079 3.947-18.187 6.343-25.981-6.09 1.386-6.767 10.104-6.344 14.29-2.537-2.166-7.02-7.535-4.652-11.692 2.368-4.157 9.445-7.217 12.687-8.227-2.679-4.475-12.687-12.99 3.806-11.259 11.188 1.175 8.176 8.805 5.498 11.259 1.55-.145 3.552-.953 7.612 3.897 4.06 4.85 4.042 11.585.943 13.817 0 0-.633-4.278-1.377-6.698-.985-3.201-4.476-6.463-4.476-6.463 4.476 10.341 8.034 21.152 8.034 21.152s1.721 10.223-9.41-3.173c-2.5-3.008-9.08.129-10.63 2.15-2.396 3.175-7.358 9.007-8.034 6.928Z"/><path fill="#00ADE4" d="m14.788 48.036-2.645-2.031 7.773-5.306c-.078-.08.015-.11.162-.11l-.162.11c.157.16 1 .521 3.468 1.243 4.629 1.355 4.629-1.354 7.274-1.354 2.116 0 5.29 3.16 6.612 4.74l-4.629 1.354 3.307 8.802-21.822 2.03 3.307-10.832-2.645 1.354ZM35.948 29.078l-.662 3.385 17.854 1.355-1.322-3.386-15.87-1.354ZM71.655 45.328l-4.629 3.385 3.307 2.708 3.967-2.708-2.645-3.385Z"/><path fill="#000" fill-rule="evenodd" d="M23.631 28.693c-1.843-.245-3.732-.224-5.567.227-.694.17-1.474.422-2.147.844-.68.427-1.274 1.044-1.538 1.944-.132.449-.181.91-.166 1.372-.167 1.45.336 2.82 1.195 4.019.867 1.21 2.118 2.276 3.503 3.137a17.07 17.07 0 0 0 4.41 1.939c1.47.403 2.915.554 4.087.337a7.92 7.92 0 0 0 2.249-.798c.138-.057.274-.118.407-.184a3.922 3.922 0 0 0 1.118-.841c.166-.14.327-.284.482-.435 1.192-1.16 2.066-2.7 2.174-4.437.122-1.963-1.023-3.393-2.413-4.387-.89-.637-1.917-1.125-2.879-1.493-1.172-.528-2.455-.83-3.789-1.062-.373-.07-.748-.132-1.126-.182Zm.973 1.255a50.93 50.93 0 0 0-1.115-.182c-1.74-.23-3.494-.207-5.178.207-.653.16-1.307.38-1.84.715-.527.33-.91.756-1.08 1.332-.294 1.003-.039 2.196.549 3.374a10.334 10.334 0 0 0 2.245 2.945c1.305 1.167 3.34 2.14 5.487 2.604 1.983.43 3.985.41 5.544-.216a7.77 7.77 0 0 0 1.242-.832c.547-.599.957-1.448 1.194-2.386.349-1.384.264-2.745-.143-3.467-.874-1.549-2.007-2.485-3.361-3.1a19.146 19.146 0 0 0-1.419-.476 22.976 22.976 0 0 0-2.125-.518ZM37.437 45.842l-3.967 1.354-.335-1.027 3.968-1.354.334 1.027ZM14.414 48.42l-2.645-2.709.748-.766 2.645 2.709-.748.766Zm21.583 7.604-21.16 2.03-.099-1.078 21.16-2.031.099 1.079Z" clip-rule="evenodd"/><path fill="#000" fill-rule="evenodd" d="M31.752 44.607a.547.547 0 0 0-.261.718c1.728 3.867 2.682 6.333 3.743 9.074.74 1.912 1.533 3.958 2.675 6.707.293.703 1.043 2.685 1.499 4.662.228.991.375 1.951.365 2.737-.01.728-.153 1.18-.362 1.417-.415.064-.952-.108-1.643-.572-.74-.498-1.546-1.255-2.398-2.118-.301-.305-.61-.624-.922-.947-.553-.574-1.117-1.158-1.667-1.687-.86-.828-1.744-1.582-2.606-2.023-2.263-1.159-4.486-1.124-6.607-.12-2.094.99-4.062 2.912-5.899 5.48-.852 1.191-1.758 2.42-2.895 3.257-1.11.818-2.438 1.26-4.175.865a.529.529 0 0 0-.632.411.542.542 0 0 0 .402.646c2.069.471 3.701-.07 5.023-1.042 1.294-.953 2.291-2.323 3.13-3.497 1.787-2.496 3.626-4.255 5.49-5.137 1.837-.87 3.723-.901 5.69.106.715.366 1.506 1.027 2.355 1.843a63.269 63.269 0 0 1 1.616 1.636c.315.327.632.655.953.98.855.865 1.725 1.69 2.562 2.253.82.55 1.728.931 2.614.688a.526.526 0 0 0 .195-.102c.64-.53.822-1.44.834-2.323.012-.914-.157-1.973-.394-3-.474-2.057-1.248-4.101-1.554-4.837a271.149 271.149 0 0 1-2.65-6.642c-1.073-2.772-2.048-5.288-3.78-9.166a.524.524 0 0 0-.701-.267Z" clip-rule="evenodd"/><path fill="#000" fill-rule="evenodd" d="M18.285 46.532a.525.525 0 0 0-.683.312c-.701 1.878-2.484 6.736-3.916 12.069-.716 2.666-1.347 5.46-1.71 8.066-.364 2.597-.467 5.047-.1 7.008a.53.53 0 0 0 .618.43.541.541 0 0 0 .42-.634c-.333-1.786-.248-4.097.108-6.65.356-2.546.975-5.292 1.684-7.933 1.419-5.28 3.186-10.1 3.884-11.969a.546.546 0 0 0-.305-.699Z" clip-rule="evenodd"/><path fill="#000" fill-rule="evenodd" d="M20.502 40.196a.522.522 0 0 0-.727-.178c-.483.303-.967.604-1.451.904-2.867 1.78-5.733 3.56-8.277 5.943-2.386 2.236-3.744 5-3.433 7.749.314 2.768 2.297 5.328 6.186 7.195.264.127.58.01.703-.26a.547.547 0 0 0-.254-.721c-3.69-1.77-5.327-4.072-5.584-6.34-.259-2.285.861-4.73 3.096-6.824 2.46-2.306 5.227-4.024 8.097-5.806.488-.303.978-.608 1.47-.917a.55.55 0 0 0 .174-.745ZM30.14 40.477c-.06.293.123.58.409.642 3.827.825 7 3.825 8.502 7.36 1.325 3.118 1.322 6.57-.596 9.275-.234-3.56-1.467-8.55-6.046-12.847a.52.52 0 0 0-.748.033.55.55 0 0 0 .033.765c4.927 4.625 5.75 10.083 5.75 13.458 0 .219.128.416.326.5a.52.52 0 0 0 .576-.118c3.139-3.214 3.298-7.68 1.676-11.498-1.62-3.81-5.047-7.081-9.255-7.988a.53.53 0 0 0-.627.418ZM31.294 34.627a.526.526 0 0 0-.67.342c-.523 1.61-2.322 2.446-4.584 2.499-2.235.052-4.632-.683-5.988-1.873a.52.52 0 0 0-.745.059.55.55 0 0 0 .057.764c1.605 1.408 4.282 2.189 6.7 2.133 2.39-.056 4.82-.952 5.564-3.24a.545.545 0 0 0-.334-.684Z" clip-rule="evenodd"/><path fill="#000" fill-rule="evenodd" d="M20.64 45.817a.527.527 0 0 0-.654-.372c-3.03.886-6.132 2.677-7.813 5.488-1.708 2.857-1.879 6.645.732 11.323.145.26.468.35.722.202a.549.549 0 0 0 .197-.74c-2.464-4.415-2.212-7.772-.748-10.22 1.49-2.492 4.31-4.166 7.2-5.012a.544.544 0 0 0 .364-.67ZM43.892 25.828c-4.89-.17-7.81 1.385-9.057 3.815-1.231 2.399-.71 5.425.782 7.933 1.498 2.52 4.042 4.642 7.068 5.238 3.056.602 6.512-.37 9.758-3.87l.018-.02.016-.02c1.248-1.643 1.565-3.328 1.24-4.92-.32-1.568-1.248-2.992-2.395-4.18-1.15-1.19-2.55-2.177-3.877-2.867-1.307-.68-2.605-1.106-3.553-1.109Zm7.765 12.39c-3.03 3.255-6.126 4.053-8.772 3.532-2.682-.528-4.992-2.43-6.365-4.737-1.379-2.32-1.745-4.925-.749-6.866.98-1.909 3.4-3.402 8.093-3.236h.019c.702 0 1.827.338 3.082.991 1.24.646 2.545 1.567 3.605 2.664 1.063 1.101 1.848 2.347 2.111 3.639.257 1.26.03 2.616-1.024 4.013Z" clip-rule="evenodd"/><path fill="#000" fill-rule="evenodd" d="M38.562 35.399a.522.522 0 0 1 .726.185c.89 1.52 2.756 2.631 4.77 2.903 2.004.27 4.039-.302 5.318-1.987a.52.52 0 0 1 .742-.095.55.55 0 0 1 .093.76c-1.569 2.066-4.021 2.702-6.29 2.396-2.258-.305-4.447-1.554-5.54-3.42a.549.549 0 0 1 .181-.742ZM62.797 29.89c2.118-.013 4.259.428 5.99 1.365 1.355.732 2.363 1.717 2.967 2.957.605 1.238.784 2.685.56 4.302-.218 1.56-1.114 3.02-2.274 4.163-1.161 1.146-2.632 2.02-4.076 2.38-1.927.482-3.943.107-5.754-.774a.519.519 0 0 1-.573.049c-2.047-1.121-4.23-3.494-5.193-6-.484-1.26-.679-2.602-.341-3.855.342-1.27 1.211-2.375 2.707-3.177 1.73-.927 3.868-1.396 5.987-1.41Zm-5.884 2.596a.576.576 0 0 1-.025.019c-1.343.98-1.85 2.234-1.8 3.557.053 1.353.693 2.826 1.75 4.16 2.131 2.69 5.742 4.566 8.875 3.783 1.239-.31 2.548-1.077 3.593-2.108 1.048-1.033 1.786-2.285 1.96-3.536.201-1.446.031-2.662-.458-3.665-.489-1.002-1.319-1.837-2.514-2.483-1.546-.836-3.507-1.252-5.49-1.239-1.985.013-3.95.453-5.504 1.286a6.253 6.253 0 0 0-.387.226Z" clip-rule="evenodd"/><path fill="#000" fill-rule="evenodd" d="M58.528 37.949c.267-.12.579.006.696.28.502 1.181 1.614 2.136 3.022 2.635a6.465 6.465 0 0 0 4.584-.102.525.525 0 0 1 .687.302.546.546 0 0 1-.294.704 7.5 7.5 0 0 1-5.323.12c-1.621-.575-3-1.707-3.646-3.227a.547.547 0 0 1 .274-.712ZM36.45 37.71a.545.545 0 0 1-.335.684c-1.59.543-3.371 1.517-5.037 2.428-.514.281-1.017.556-1.5.81a.523.523 0 0 1-.713-.233.548.548 0 0 1 .228-.73c.448-.235.927-.497 1.425-.77 1.68-.919 3.578-1.957 5.263-2.532a.526.526 0 0 1 .669.342ZM54.903 38.934a.55.55 0 0 1-.147.75c-1.404.96-2.952 2.77-3.686 3.735.69 2.913 2.058 10.062 2.86 16.368.414 3.244.682 6.297.623 8.443-.03 1.057-.138 1.967-.39 2.573-.126.303-.321.612-.638.779-.346.182-.713.135-1.034-.024-.654-.322-1.295-.899-1.893-1.57-.603-.679-1.191-1.489-1.734-2.317-1.087-1.657-2.02-3.431-2.561-4.47l-.005-.01-.004-.008c-.883-1.858-1.655-3.263-2.341-4.207-.343-.472-.65-.81-.924-1.03-.275-.222-.486-.3-.641-.312-.261-.02-.656.155-1.159 1.085-.486.898-.968 2.323-1.462 4.344a.528.528 0 0 1-.641.394.543.543 0 0 1-.385-.657c.498-2.042 1.008-3.58 1.563-4.606.538-.995 1.233-1.708 2.159-1.64.438.031.846.239 1.22.54.374.302.746.722 1.119 1.236.745 1.025 1.55 2.5 2.439 4.37.54 1.038 1.45 2.764 2.501 4.367.527.804 1.083 1.566 1.639 2.191.561.632 1.094 1.09 1.57 1.324.05.026.08.032.094.033a.222.222 0 0 0 .039-.041c.03-.039.066-.1.106-.196.168-.403.277-1.135.305-2.178.056-2.056-.201-5.037-.613-8.273-.823-6.463-2.244-13.814-2.9-16.5l-.06-.25.15-.206c.67-.915 2.433-3.052 4.097-4.188a.521.521 0 0 1 .734.15Zm-1.848 31.68c0 .001-.002.002-.008.002.005-.002.008-.002.008-.001Z" clip-rule="evenodd"/><path fill="#000" fill-rule="evenodd" d="M69.347 42.192a.52.52 0 0 1 .742.095c1.547 2.036 3.867 5.193 5.803 8.047.967 1.426 1.844 2.785 2.48 3.894.318.554.582 1.055.768 1.477.175.396.318.802.318 1.133 0 .255-.042.519-.177.741a.894.894 0 0 1-.629.426 1.353 1.353 0 0 1-.64-.068 3.15 3.15 0 0 1-.584-.272c-.735-.428-1.58-1.19-2.142-1.76-.992-.679-2.146-1.528-3.302-2.383l-.309-.228c-1.073-.794-2.138-1.582-3.08-2.242-.933-.655-1.712-1.16-2.246-1.427.363 1.01.988 2.64 1.741 4.603.863 2.25 1.894 4.94 2.89 7.633.996 2.688 1.952 5.371 2.661 7.598.355 1.113.649 2.118.855 2.956.203.824.333 1.53.333 2.027 0 .25-.058.686-.463.875a.81.81 0 0 1-.502.052 1.465 1.465 0 0 1-.391-.146c-.455-.238-1.044-.759-1.692-1.405-1.297-1.291-3.032-3.297-4.825-5.37l-.109-.125c-1.84-2.127-3.739-4.317-5.322-5.926-.793-.806-1.49-1.448-2.05-1.862a3.496 3.496 0 0 0-.68-.414c-.14-.059-.2-.057-.207-.058-.894.307-1.493.764-2.045 1.249-.098.085-.197.175-.297.265-.453.41-.943.853-1.547 1.162a.523.523 0 0 1-.71-.242.548.548 0 0 1 .237-.727c.469-.24.834-.569 1.279-.97.11-.099.226-.203.35-.31.602-.53 1.323-1.087 2.408-1.458.326-.11.662-.026.931.086.283.117.587.307.9.538.628.464 1.372 1.155 2.177 1.972 1.612 1.638 3.534 3.857 5.368 5.977l.085.097c1.812 2.095 3.527 4.077 4.794 5.34.524.522.938.887 1.234 1.091a11.52 11.52 0 0 0-.282-1.453 46.659 46.659 0 0 0-.835-2.885c-.7-2.202-1.65-4.867-2.643-7.55a699.464 699.464 0 0 0-2.874-7.589c-.877-2.288-1.587-4.14-1.913-5.085a1.305 1.305 0 0 1-.082-.563.713.713 0 0 1 .425-.592.932.932 0 0 1 .559-.035c.155.033.319.093.481.164.64.282 1.572.888 2.605 1.613.954.669 2.03 1.465 3.1 2.256l.31.23c1.176.87 2.33 1.719 3.313 2.39l.044.029.037.038c.541.554 1.327 1.258 1.953 1.622.154.089.283.149.385.183a.83.83 0 0 0 .062.017.943.943 0 0 0 .003-.085c0-.075-.05-.29-.225-.688a15.23 15.23 0 0 0-.715-1.373c-.616-1.075-1.476-2.407-2.437-3.825-1.922-2.833-4.23-5.973-5.77-8a.55.55 0 0 1 .094-.76Zm4.419 32.32.002-.012a.04.04 0 0 1-.002.012ZM65.86 49.438h.005-.005ZM51.11 30.972l-15.208-1.354.092-1.079 15.209 1.354-.092 1.08Zm-15.784.952 17.853 1.354-.078 1.08-17.853-1.354.078-1.08Z" clip-rule="evenodd"/><path fill="#000" fill-rule="evenodd" d="m72 45.74-4.63 4.062-.688-.823 4.629-4.062.688.822Zm-1.998 5.259 3.306-2.708.661.846-3.306 2.708-.66-.846Z" clip-rule="evenodd"/></g><defs><filter id="a" width="92.64" height="94.664" x="-3.76" y=".642" color-interpolation-filters="sRGB" filterUnits="userSpaceOnUse"><feFlood flood-opacity="0" result="BackgroundImageFix"/><feColorMatrix in="SourceAlpha" result="hardAlpha" values="0 0 0 0 0 0 0 0 0 0 0 0 0 0 0 0 0 0 127 0"/><feOffset dy="4"/><feGaussianBlur stdDeviation="2"/><feComposite in2="hardAlpha" operator="out"/><feColorMatrix values="0 0 0 0 0 0 0 0 0 0 0 0 0 0 0 0 0 0 0.25 0"/><feBlend in2="BackgroundImageFix" result="effect1_dropShadow_979_174219"/><feBlend in="SourceGraphic" in2="effect1_dropShadow_979_174219" result="shape"/></filter></defs></svg>