<svg fill="none" height="101" viewBox="0 0 190 101" width="190" xmlns="http://www.w3.org/2000/svg"><path d="m45.3787 10.1853 141.8773-8.4978v80.9145l-144.0939 15.0376z" fill="#fffbee"/><path d="m56.0488 16.5455 120.8102-7.71542v68.25632l-120.8101 14.5415z" fill="#fff"/><g clip-rule="evenodd" fill="#000" fill-rule="evenodd"><path d="m189.992 1.27164c.016.27568-.194.5122-.47.52831-48.438 2.82903-96.5217 5.65695-149.9092 8.83925-.2757.0164-.5125-.1937-.5289-.4694-.0164-.27564.1937-.51242.4694-.52885 53.388-3.18231 101.4727-6.01025 149.9107-8.839303.276-.016101.512.194324.528.469993z"/><path d="m178.276 8.48063c.016.27567-.194.5122-.47.5283-25.019 1.46127-43.332 2.63857-62.548 3.87387-17.9965 1.1569-36.7841 2.3647-62.612 3.9042-.2757.0164-.5125-.1937-.5289-.4694-.0164-.2756.1937-.5124.4694-.5288 25.8078-1.5384 44.5996-2.7464 62.6015-3.9036 19.226-1.2359 37.551-2.41392 62.56-3.87457.275-.0161.512.19432.528.47z"/><path d="m180.043 76.7051c.023.2751-.18.5174-.456.5411-31.737 2.7399-51.817 5.1102-76.447 8.0178-13.5042 1.5941-28.3763 3.3497-47.2878 5.4163-.2745.03-.5213-.1683-.5513-.4428s.1682-.5213.4427-.5513c18.8925-2.0645 33.7584-3.8194 47.2614-5.4133 24.642-2.9089 44.744-5.2819 76.496-8.023.276-.0237.518.1801.542.4552z"/><path d="m189.284 81.8606c.029.2745-.17.5211-.444.5506-19.514 2.1015-36.56 4.339-52.901 6.4839-29.83 3.9156-57.3083 7.5223-93.1468 9.4286-.2758.0147-.5112-.1969-.5259-.4727-.0146-.2758.197-.5112.4728-.5259 35.8042-1.9044 63.2169-5.503 93.0199-9.4153 16.346-2.1459 33.411-4.3861 52.974-6.4928.274-.0296.521.169.551.4436z"/><path d="m185.604.449219c.277 0 .5.223857.5.5v80.257981c0 .2761-.223.5-.5.5-.276 0-.5-.2239-.5-.5v-80.257981c0-.276143.224-.5.5-.5z"/><path d="m44.5332 8.58008c.2761 0 .5.22386.5.5v91.21892c0 .276-.2239.5-.5.5s-.5-.224-.5-.5v-91.21892c0-.27614.2239-.5.5-.5z"/><path d="m55.7979 14.0195c.2761 0 .5.2239.5.5v77.4305c0 .2762-.2239.5-.5.5-.2762 0-.5-.2238-.5-.5v-77.4305c0-.2761.2238-.5.5-.5z"/><path d="m176.009 6.5957c.276 0 .5.22386.5.5v70.3591c0 .2762-.224.5-.5.5s-.5-.2238-.5-.5v-70.3591c0-.27614.224-.5.5-.5z"/><path d="m130.905 30.9413c.019.2754-.188.5145-.464.534-11.373.8053-22.317 1.0959-33.475 1.3923-8.4382.2241-16.9991.4515-25.9611.9071-.2758.0141-.5107-.1981-.5248-.4739-.014-.2758.1982-.5107.474-.5248 9.0244-.4588 17.5961-.6859 26.0311-.9095 11.1248-.2949 22.0118-.5834 33.3858-1.3887.275-.0195.514.188.534.4635z"/><path d="m94.2455 46.3595c-8.8738.406-17.8032.7185-21.8998.3246-.2748-.0264-.4762-.2706-.4498-.5455s.2707-.4763.5455-.4499c4.0084.3854 12.851.0794 21.7584-.3281 2.3484-.1074 4.6997-.2218 6.9642-.332 6.292-.3061 11.91-.5794 14.915-.5794.277 0 .5.2239.5.5 0 .2762-.223.5-.5.5-2.978 0-8.555.2713-14.835.5768-2.2705.1104-4.6333.2253-6.9985.3335z"/><path d="m114.63 59.387c.036.2739-.158.5246-.431.5601-8.814 1.1416-32.6556 1.5614-41.4691 1.2421-.2759-.01-.4915-.2418-.4815-.5178s.2418-.4916.5178-.4816c8.7898.3185 32.5698-.103 41.3038-1.2344.274-.0355.525.1577.56.4316z"/></g><path d="m14.6253 65.811c.4861-.7535.6934-1.421.7707-1.8569-.0107-.0375-.0215-.0752-.0321-.113 0-.6463.138-.4838.0321.113 1.8159 6.3291 4.8204 8.7722 7.3264 9.5242.6411-.2199 1.3266-.417 2.0594-.5882 4.402-1.028 1.7462 1.73-2.0594.5882-6.1767 2.1185-8.2272 6.3494-8.6865 9.7957.215.7735.4127 1.5997.5894 2.4806 1.0869 5.4181-1.2119 2.189-.5894-2.4806-1.767-6.3548-4.70972-9.1519-6.87863-9.5028-1.86825 1.5677-3.10039 2.272-2.33667 1.0003.47628-.7932 1.32175-1.1646 2.33667-1.0003 2.40067-2.0146 5.85173-5.4549 7.46803-7.9602z" fill="#fedf76"/><path clip-rule="evenodd" d="m15.9355 63.604c-.0019.0902-.0107.1972-.0281.318 1.7476 6.0038 4.5498 8.2916 6.8091 9.0297.6123-.2043 1.2622-.3882 1.9516-.5492.5671-.1324 1.0338-.2071 1.4083-.2348.3641-.0269.68-.0126.9238.0629.1224.0379.2653.1029.3806.2222.1288.1333.202.3147.1856.5133-.0148.1779-.097.3186-.1726.4144-.0783.099-.1752.1829-.2745.2534-.3863.2742-1.0278.4979-1.7937.5857-.7388.0846-1.6294.0472-2.5889-.2177-5.798 2.0437-7.7316 5.9981-8.1915 9.2375.2078.7568.3989 1.5616.5703 2.4161.2716 1.3538.3497 2.2427.2841 2.7211-.0165.1199-.0478.265-.1215.3929-.0794.1379-.2679.3386-.5732.3095-.2338-.0223-.383-.1749-.4463-.2477-.0793-.0912-.1451-.2007-.2-.3092-.2168-.4285-.4219-1.1638-.5364-2.0664-.1127-.888-.1421-1.9715.0048-3.1457-.8669-3.0784-2.0067-5.2702-3.1704-6.7276-1.09115-1.3665-2.17883-2.0592-3.06325-2.2745-.85337.706-1.5991 1.2509-2.07591 1.4787-.12585.0601-.28027.1219-.43632.1374-.08037.008-.19938.0079-.32467-.044-.1414-.0586-.25502-.169-.31627-.314-.05438-.1288-.05393-.2518-.04461-.336.00968-.0874.03313-.17.05904-.242.05164-.1436.13458-.3036.23733-.4747.55368-.922 1.5132-1.3688 2.6104-1.2664 2.37588-2.0183 5.66286-5.3208 7.20286-7.7077.4071-.631.5962-1.1875.6771-1.5642l-.0184-.0653v-.0693c0-.1739.0089-.3167.0269-.4228.0065-.0376.0228-.1307.071-.2201.0144-.0266.041-.071.0847-.1163.0421-.0437.1271-.1162.2589-.1447.3319-.0718.5098.1831.5396.2314.0447.0724.062.1407.0684.1674.0085.0359.0132.0694.0161.0965.0059.0548.0073.1136.006.1722zm-7.75559 9.9467c.97874.4069 1.99809 1.2054 2.95809 2.4077 1.0236 1.282 1.9986 3.0446 2.8068 5.35.86-2.8951 2.9507-5.9563 7.4031-7.8409-2.1611-1.0779-4.4072-3.4115-5.9798-7.9431-.0926.1798-.1996.3661-.3226.5569l-.4202-.2711.4202.2711c-1.5021 2.3281-4.5161 5.405-6.86559 7.4694zm18.53819-.36c0 .0001-.0009-.0003-.0025-.001.0017.0006.0025.001.0025.001zm-10.8397-9.6137c.0001.0001-.0004.003-.0017.0081.001-.0058.0016-.0083.0017-.0081z" fill="#000" fill-rule="evenodd"/><path d="m13.1119 58.8221c-3.48265.6492-5.76009 2.7798-6.08139 4.8717.05622.2047.09135.3969.10283.572.12832 1.9568-.2645.5971-.11051-.5194.00242-.0175.00498-.0351.00768-.0526-.48707-1.7734-2.55707-4.482-4.54615-5.0929-.57169.1415-1.21274.2212-1.931626.2212.591246-.3942 1.256776-.4284 1.931626-.2212 4.57363-1.1321 4.70772-6.2252 4.73739-6.1925.64301 3.0264.53303 5.8779 5.89015 6.4137z" fill="#fedf76"/><path clip-rule="evenodd" d="m2.4907 58.0835c-.74151-.1955-1.516-.143-2.215277.3232-.1833285.1222-.2650449.3501-.2011958.5609.0638488.2109.2582128.3551.4785458.3551.697867 0 1.332367-.0713 1.908917-.2019.82791.2955 1.71585 1.0163 2.4777 1.9147.76471.9017 1.34313 1.9123 1.58131 2.6957-.07477.6031-.01483 1.26.06482 1.5574.01106.0413.02785.0967.05348.1515.0124.0266.03515.0711.07208.1179.02902.0367.11646.1394.27414.1815.20409.0545.37961-.0262.48117-.1215.08107-.076.11742-.1595.13112-.1935.03054-.076.04175-.1511.04718-.1943.02309-.1836.01952-.51-.01238-.9964-.0119-.1815-.04372-.37-.09084-.5613.33439-1.7789 2.35945-3.7426 5.66213-4.3582.2446-.0456.4185-.2641.4079-.5127-.0105-.2486-.2022-.4516-.4498-.4764-2.587-.2587-3.72626-1.0588-4.33841-2.04-.31923-.5117-.51781-1.1076-.67635-1.7863-.07912-.3387-.14672-.6907-.2157-1.0593-.00885-.0473-.01772-.0948-.02664-.1427-.06007-.322-.12236-.6559-.19373-.9918-.01841-.0866-.05952-.1669-.11911-.2324-.06729-.074-.24106-.2085-.48601-.1503-.18898.045-.2803.1791-.29945.2076-.04902.0728-.06677.1432-.06844.1499-.00006.0002-.0001.0003-.00012.0004-.00881.0325-.0129.061-.01389.0679l-.00011.0008c-.00294.0202-.0054.0436-.0071.0599-.00118.0113-.00239.0232-.00369.036-.00331.0326-.0072.0709-.01256.119-.01457.1305-.03864.3197-.08028.5513-.08355.4647-.23693 1.0945-.52209 1.7552-.55651 1.2892-1.60003 2.671-3.60732 3.2131zm4.16066 7.0295c-.00002-.0002.0002-.0017.00074-.0045-.00044.0032-.00072.0046-.00074.0045zm.32987-2.8471c.69692-1.3684 2.09992-2.585 3.97597-3.3391-1.47285-.4403-2.3915-1.1652-2.98234-2.1123-.38639-.6193-.61307-1.3042-.78011-1.9972-.0537.1473-.11304.2974-.17861.4494-.53693 1.2438-1.50298 2.6207-3.22351 3.4084.69967.4449 1.35448 1.0592 1.90943 1.7136.50201.5919.94458 1.243 1.27917 1.8772z" fill="#000" fill-rule="evenodd"/></svg>