<svg width="320" height="200" fill="none" xmlns="http://www.w3.org/2000/svg"><path d="M86.97 136.472c-10.234-1.969-17.019 6.741-22.674 14.362-7.903 6.542-6.157 10.487-5.56 11.795 3.839 8.404 8.818 23.282 22.322 25.073 7.986 1.06 22.553-10.934 27.086-19.637 3.641-6.991-5.773-16.419-7.704-19.691-4.477-7.588-7.06-10.669-13.47-11.902Z" fill="#fff"/><path opacity=".5" fill-rule="evenodd" clip-rule="evenodd" d="M74.898 137.475c2.075-2.074 8.381-.594 11.22 2.244 4.487 4.488 16.828 20.195 16.828 23.561 0 3.365-1.643 7.252-5.61 11.219-4.487 4.488-14.584 11.219-16.828 12.341-2.244 1.122-4.488 1.122-11.22-7.853-6.731-8.976-12.34-17.951-11.219-20.195.898-1.795 10.098-14.585 16.83-21.317Zm-2.68 12.342 5.609 7.853 6.731-6.732c-1.122-2.243-3.814-6.731-5.61-6.731-1.794 0-5.235 3.74-6.73 5.61Zm10.096 13.463 7.854-6.732c1.496 1.87 4.488 5.834 4.488 6.732 0 2.705-2.175 4.686-4.194 6.524-.493.449-.976.889-1.416 1.329l-6.732-7.853Zm1.122 12.341-5.61-7.854-6.73 5.61c.153.308.308.638.468.979v.001c1.004 2.147 2.238 4.784 5.14 5.751 1.704.568 5.985-2.991 6.732-4.487ZM73.34 162.158l-5.61-7.854-.25.263c-1.857 1.942-5.258 5.498-3.115 8.713l.001.001c1.208 1.812 2.243 3.365 3.365 4.486l5.61-5.609Z" fill="#FCFEFF"/><path fill-rule="evenodd" clip-rule="evenodd" d="M85.368 140.52c-4.388-4.389-9.5-3.149-11.536-1.113-3.489 3.488-11.08 13.297-13.294 16.619-2.458 3.687-1.069 7.317.03 9.517l-.314.157.315-.157c1.283 2.566 3.605 6.273 5.838 9.571 2.242 3.311 4.348 6.144 5.199 6.994.31.311.638.662.966 1.012.25.268.5.536.743.785.583.6 1.184 1.165 1.841 1.626 1.294.905 2.817 1.414 4.88.898 1.03-.258 2.399-.95 3.977-1.958 1.569-1.002 3.307-2.291 5.07-3.709 3.528-2.835 7.132-6.162 9.642-8.671 2.67-2.67 3.179-5.299 2.918-7.518-.237-2.012-1.105-3.707-1.695-4.86a51.926 51.926 0 0 1-.204-.401c-.23-.459-.957-1.581-2.018-3.109a193.271 193.271 0 0 0-3.874-5.353c-2.937-3.926-6.286-8.132-8.484-10.33Zm-12.243-1.82c2.416-2.417 8.16-3.677 12.95 1.113 2.255 2.254 5.642 6.513 8.578 10.438a194.802 194.802 0 0 1 3.894 5.381c1.05 1.511 1.823 2.696 2.092 3.232.058.118.125.247.196.387.588 1.145 1.542 3.002 1.801 5.205.295 2.511-.309 5.447-3.204 8.342-2.53 2.53-6.161 5.882-9.722 8.744-1.78 1.43-3.549 2.744-5.158 3.772-1.6 1.021-3.08 1.787-4.274 2.085-2.39.598-4.206-.007-5.695-1.049-.734-.514-1.386-1.131-1.985-1.748-.278-.287-.534-.56-.782-.826-.308-.33-.604-.647-.917-.96-.931-.931-3.091-3.849-5.32-7.142-2.238-3.306-4.59-7.057-5.904-9.684-1.127-2.253-2.75-6.347.03-10.518 2.238-3.356 9.869-13.222 13.42-16.772Z" fill="#000"/><path fill-rule="evenodd" clip-rule="evenodd" d="M92.386 139.18c-4.396-4.396-9.067-3.588-12.132-2.976-2.716.544-4.309 1.349-5.629 2.405-.668.535-1.275 1.141-1.932 1.832-.189.198-.382.405-.581.618-.491.523-1.022 1.09-1.62 1.687l-.707-.707c.586-.586 1.099-1.133 1.585-1.652.203-.216.4-.427.598-.635.665-.699 1.31-1.345 2.033-1.924 1.463-1.17 3.209-2.034 6.057-2.604 3.11-.622 8.253-1.533 13.035 3.249 2.254 2.254 5.642 6.514 8.578 10.438a194.503 194.503 0 0 1 3.894 5.382c1.049 1.511 1.823 2.695 2.091 3.232.059.118.126.247.197.386.588 1.146 1.541 3.002 1.801 5.205.295 2.511-.309 5.447-3.204 8.343-2.52 2.519-6.233 6.204-9.875 9.399-1.821 1.597-3.632 3.079-5.273 4.234-1.628 1.145-3.137 2.005-4.346 2.307-4.482 1.121-7.97 1.158-10.362-.038l.447-.894c2.06 1.03 5.25 1.068 9.672-.038 1.018-.254 2.4-1.019 4.013-2.155 1.6-1.126 3.382-2.582 5.19-4.168 3.615-3.171 7.307-6.835 9.827-9.355 2.67-2.67 3.179-5.298 2.917-7.518-.236-2.011-1.104-3.706-1.694-4.86a55.948 55.948 0 0 1-.204-.401c-.23-.459-.957-1.581-2.018-3.109a194.482 194.482 0 0 0-3.874-5.353c-2.937-3.926-6.286-8.132-8.484-10.33Z" fill="#000"/><path fill-rule="evenodd" clip-rule="evenodd" d="M77.19 144.806c.61-.388 1.26-.687 1.854-.687.635 0 1.255.384 1.793.854.556.486 1.117 1.144 1.641 1.853 1.052 1.421 2.013 3.118 2.578 4.248l.161.322-7.35 7.351-6.128-8.58.236-.295c.753-.942 1.995-2.353 3.28-3.534.642-.59 1.306-1.133 1.934-1.532Zm-4.196 5.398 5 7.001 6.004-6.004c-.559-1.08-1.41-2.546-2.323-3.78-.505-.682-1.016-1.276-1.496-1.695-.498-.435-.88-.607-1.135-.607-.297 0-.742.165-1.319.531-.558.355-1.174.855-1.793 1.424-1.112 1.022-2.199 2.232-2.938 3.13Zm-5.026 3.649 6.163 8.629-6.218 6.218-.353-.353c-1.148-1.148-2.198-2.723-3.378-4.493l-.024-.036c-1.265-1.897-.78-3.881.155-5.532.845-1.493 2.115-2.82 2.989-3.733l.249-.261.417-.439Zm-2.785 4.926c-.85 1.502-1.154 3.042-.193 4.485 1.077 1.615 1.988 2.978 2.931 4.014l4.904-4.904-4.968-6.955c-.86.902-1.943 2.069-2.674 3.36Zm25.058-2.633.323.404a78.277 78.277 0 0 1 2.802 3.727c.468.668.894 1.315 1.206 1.856.156.27.288.523.383.745.088.204.171.443.171.663 0 1.849-.927 3.355-2.074 4.645-.574.647-1.217 1.252-1.844 1.828l-.41.374c-.488.444-.956.87-1.383 1.298l-.382.382-7.355-8.581 8.563-7.341Zm-7.153 7.449 6.006 7.007c.336-.321.688-.642 1.04-.962l.398-.363c.624-.573 1.234-1.149 1.773-1.755 1.08-1.215 1.821-2.491 1.821-3.981v.002s-.001-.021-.015-.067a1.704 1.704 0 0 0-.075-.205 6.362 6.362 0 0 0-.33-.639 25.777 25.777 0 0 0-1.16-1.782 76.52 76.52 0 0 0-2.44-3.27l-7.018 6.015Zm-5.064 3.669 6.054 8.475-.135.269c-.223.445-.674.991-1.212 1.53-.548.55-1.22 1.13-1.924 1.644-.701.512-1.448.97-2.142 1.265-.667.284-1.399.466-2.006.264-1.808-.603-3.001-1.808-3.875-3.119-.628-.942-1.113-1.978-1.536-2.882a39.63 39.63 0 0 0-.443-.928l-.177-.354 7.396-6.164Zm-6.15 6.427c.104.216.207.437.312.661.413.884.847 1.811 1.43 2.685.796 1.194 1.829 2.215 3.36 2.725.237.08.67.032 1.298-.235.6-.255 1.278-.667 1.943-1.152a15.74 15.74 0 0 0 1.806-1.543c.39-.392.69-.745.877-1.022l-5.063-7.088-5.963 4.969ZM99.917 171.405a.5.5 0 0 1 .251-.661l8.283-3.729a.5.5 0 1 1 .411.911l-8.284 3.729a.5.5 0 0 1-.661-.25Zm2.724-5.635a.5.5 0 0 1 .209-.675l6.37-3.356a.5.5 0 0 1 .466.885l-6.37 3.356a.5.5 0 0 1-.675-.21Zm-.796-5.145a.5.5 0 0 1 .209-.676l4.777-2.516a.5.5 0 1 1 .466.884l-4.777 2.517a.5.5 0 0 1-.675-.209ZM92.765 148.565a.5.5 0 0 1 .21-.676l4.777-2.516a.5.5 0 1 1 .466.885l-4.777 2.516a.5.5 0 0 1-.676-.209Zm2.48 4.258a.5.5 0 0 1 .21-.675l5.482-2.888a.5.5 0 1 1 .466.885l-5.482 2.888a.5.5 0 0 1-.676-.21Zm2.297 3.66a.5.5 0 0 1 .21-.676l5.573-2.936a.5.5 0 1 1 .466.885l-5.573 2.936a.5.5 0 0 1-.675-.209ZM83.211 138.186a.5.5 0 0 1 .21-.675l4.08-2.151a.5.5 0 0 1 .467.885l-4.081 2.15a.5.5 0 0 1-.676-.209Zm4.082 3.415a.5.5 0 0 1 .209-.676l4.677-2.463a.5.5 0 1 1 .466.884l-4.677 2.464a.5.5 0 0 1-.675-.209Zm3.084 3.244a.5.5 0 0 1 .21-.675l4.776-2.517a.5.5 0 0 1 .466.885l-4.777 2.517a.5.5 0 0 1-.675-.21ZM83.955 184.81a.5.5 0 0 1 .42-.569l7.963-1.195a.5.5 0 0 1 .148.989l-7.962 1.195a.5.5 0 0 1-.569-.42Zm3.996-3.12a.5.5 0 0 1 .34-.62l10.35-3.017a.5.5 0 0 1 .28.961l-10.35 3.016a.5.5 0 0 1-.62-.34Zm6.385-4.731a.5.5 0 0 1 .279-.65 86.33 86.33 0 0 1 3.795-1.403c.381-.134.75-.263 1.115-.394a37.753 37.753 0 0 0 4.604-1.963.5.5 0 1 1 .451.892 38.617 38.617 0 0 1-4.717 2.012c-.376.135-.751.267-1.137.402-1.099.385-2.275.797-3.74 1.383a.5.5 0 0 1-.65-.279Z" fill="#000"/><path fill-rule="evenodd" clip-rule="evenodd" d="M167.794 137.604a.5.5 0 0 1-.295.642c-12.627 4.67-32.017 11.662-44.69 16.201a.5.5 0 0 1-.338-.941c12.673-4.54 32.059-11.53 44.681-16.198a.5.5 0 0 1 .642.296Z" fill="#9293AB"/><path fill-rule="evenodd" clip-rule="evenodd" d="M151.006 140.537a.5.5 0 0 1 .373-.601l.524-.125c1.362-.328 4.671-1.123 7.886-1.767 1.886-.377 3.756-.705 5.19-.854.714-.075 1.343-.108 1.821-.074.236.016.465.051.658.121.179.065.437.202.542.495l.055.153-.045.156c-.1.34-.31.659-.567.951a7.112 7.112 0 0 1-.968.883c-.751.584-1.724 1.187-2.775 1.788-.968.552-2.017 1.111-3.04 1.655l-.269.144c-1.111.591-2.177 1.163-3.079 1.699a.5.5 0 1 1-.511-.86c.926-.549 2.012-1.132 3.12-1.722l.267-.142c1.025-.546 2.062-1.098 3.016-1.643 1.04-.594 1.964-1.169 2.658-1.709.347-.269.626-.521.83-.754.064-.073.119-.142.165-.206a1.973 1.973 0 0 0-.127-.012c-.39-.027-.95-.002-1.647.071-1.386.145-3.219.465-5.098.841-3.192.638-6.472 1.427-7.843 1.757l-.535.128a.5.5 0 0 1-.601-.373Zm16.142-2.346-.005-.003.005.003ZM117.251 142.446a.5.5 0 0 1 .295-.642c7.078-2.618 16.094-5.683 24.876-8.669 6.867-2.334 13.591-4.62 19.135-6.606a.5.5 0 1 1 .337.942c-5.586 2-12.319 4.289-19.184 6.623-8.758 2.977-17.733 6.028-24.817 8.648a.5.5 0 0 1-.642-.296Z" fill="#9293AB"/><path fill-rule="evenodd" clip-rule="evenodd" d="M134.04 139.514a.5.5 0 0 1-.373.601l-.524.125c-1.363.328-4.671 1.123-7.887 1.766-1.886.378-3.756.706-5.19.855-.713.075-1.343.108-1.82.074a2.499 2.499 0 0 1-.659-.121c-.179-.065-.437-.202-.542-.496l-.055-.153.046-.156c.099-.339.31-.658.567-.95.26-.296.591-.591.967-.883.751-.584 1.724-1.187 2.775-1.788.968-.553 2.018-1.111 3.04-1.656l.269-.143c1.111-.592 2.177-1.163 3.08-1.699a.5.5 0 1 1 .51.86c-.926.549-2.012 1.132-3.119 1.722l-.267.142c-1.026.546-2.062 1.097-3.017 1.643-1.039.593-1.963 1.169-2.658 1.709a6.107 6.107 0 0 0-.829.753c-.065.074-.12.142-.166.207l.128.012c.389.027.949.001 1.646-.071 1.387-.145 3.219-.465 5.098-.841 3.192-.639 6.473-1.427 7.843-1.757l.536-.128a.5.5 0 0 1 .601.373Zm-16.143 2.346.006.003-.006-.003Z" fill="#9293AB"/><path fill-rule="evenodd" clip-rule="evenodd" d="M235.638 92.18a.5.5 0 0 1-.384-.593c.147-.687.291-1.376.435-2.068.611-2.926 1.229-5.886 2.109-8.775.352-1.155.784-2.544 1.469-3.786.688-1.247 1.654-2.388 3.098-3 2.38-1.011 4.851-.76 7.221-.316.568.107 1.128.224 1.681.339 1.798.375 3.52.734 5.205.676 1.072-.037 1.861-.411 2.473-.989.624-.588 1.085-1.41 1.444-2.367.358-.955.601-2.013.81-3.051.057-.286.112-.572.167-.854.139-.726.274-1.426.429-2.02a.5.5 0 0 1 .968.254 30.22 30.22 0 0 0-.408 1.919c-.056.29-.114.59-.176.897-.21 1.049-.466 2.172-.854 3.206-.386 1.033-.916 2.01-1.693 2.744-.789.744-1.811 1.215-3.126 1.26-1.818.062-3.703-.331-5.524-.712-.534-.111-1.061-.222-1.58-.319-2.339-.438-4.555-.635-6.647.253-1.165.495-1.987 1.43-2.612 2.563-.628 1.138-1.033 2.43-1.388 3.594-.866 2.842-1.473 5.747-2.083 8.67-.145.696-.291 1.393-.44 2.09a.5.5 0 0 1-.594.385Z" fill="#000"/><path fill-rule="evenodd" clip-rule="evenodd" d="M232.275 92.323a.5.5 0 0 1 .198-.679l.086-.047c-.007-.27-.002-.551.01-.826a28.947 28.947 0 0 1 .106-1.434c.035-.384.06-.667.061-.828.013-1.631.167-3.314.317-4.955.065-.71.129-1.413.18-2.1a.51.51 0 0 1 .392-.464c.187-.045.335.029.364.043l.002.001a.95.95 0 0 1 .206.149c.103.092.233.229.373.385.287.318.667.77 1.056 1.245.778.949 1.611 2.008 1.842 2.309.36.468.916.923 1.51 1.334.449.311.893.58 1.265.805.119.071.23.138.331.201.192.118.39.245.51.355.033.03.079.077.119.136a.532.532 0 0 1-.178.782.65.65 0 0 1-.24.073 1.571 1.571 0 0 1-.334-.008 6.492 6.492 0 0 1-.426-.064 13.045 13.045 0 0 1-.204-.038c.038.095.04.186.033.25-.016.136-.083.23-.1.255v.001c-.05.07-.115.134-.16.176-.199.183-.593.478-1.041.795-.907.64-2.165 1.458-2.855 1.82.001 0 .001 0 0 0a12.21 12.21 0 0 0-.369.251c-.165.116-.358.256-.555.398l-.132.096c-.24.172-.477.343-.658.468-.09.061-.172.117-.236.157-.03.018-.069.041-.108.06a.58.58 0 0 1-.246.059.504.504 0 0 1-.357-.152 1.394 1.394 0 0 1-.311-.543 2.235 2.235 0 0 1-.059-.208.498.498 0 0 1-.392-.258Zm1.331-.152.012.072.405-.29a69.34 69.34 0 0 0-.417.218Zm5.284-3.667a134.53 134.53 0 0 1-.252-.056.5.5 0 0 1 .045-.984c-.091-.06-.183-.123-.275-.186-.619-.429-1.277-.954-1.733-1.547-.224-.292-1.05-1.343-1.823-2.284-.251-.307-.495-.6-.709-.85-.032.366-.065.732-.099 1.097-.148 1.621-.295 3.235-.308 4.823-.001.204-.031.528-.062.88a28.205 28.205 0 0 0-.115 1.67c1.372-.709 2.769-1.363 4.158-2.013.378-.177.755-.353 1.13-.53l.043-.02ZM63.807 130.322a.5.5 0 0 1-.707.03c-.517-.474-1.038-.948-1.562-1.423-2.212-2.009-4.451-4.042-6.495-6.266-.817-.888-1.796-1.965-2.519-3.185-.726-1.225-1.22-2.636-1.016-4.19.335-2.565 1.804-4.568 3.388-6.386.38-.435.764-.859 1.144-1.277 1.234-1.36 2.416-2.662 3.22-4.144.512-.943.59-1.813.402-2.633-.19-.836-.665-1.65-1.308-2.444-.643-.793-1.431-1.54-2.22-2.245-.218-.195-.436-.387-.652-.577-.555-.488-1.09-.959-1.523-1.394a.5.5 0 1 1 .709-.705c.408.41.904.846 1.447 1.324l.685.606c.797.713 1.636 1.503 2.33 2.361.695.857 1.269 1.809 1.507 2.851.242 1.057.13 2.176-.498 3.333-.867 1.598-2.162 3.024-3.414 4.401-.366.403-.728.802-1.075 1.2-1.563 1.794-2.856 3.605-3.15 5.858-.165 1.256.225 2.439.884 3.551.663 1.118 1.572 2.123 2.395 3.019 2.01 2.186 4.208 4.182 6.418 6.189.526.478 1.054.957 1.58 1.439a.5.5 0 0 1 .03.707Z" fill="#000"/><path fill-rule="evenodd" clip-rule="evenodd" d="M62.224 133.293a.5.5 0 0 1-.484-.515l.003-.097a12.309 12.309 0 0 1-.707-.428 30.218 30.218 0 0 1-1.183-.819 13.43 13.43 0 0 0-.682-.472c-1.4-.838-2.773-1.823-4.112-2.784a131.84 131.84 0 0 0-1.718-1.22.513.513 0 0 1-.202-.573c.056-.184.195-.274.222-.292l.002-.001a.986.986 0 0 1 .233-.103 5.71 5.71 0 0 1 .52-.126c.42-.086 1.003-.184 1.609-.279 1.212-.19 2.548-.371 2.924-.418.586-.073 1.26-.321 1.915-.625.496-.229.953-.476 1.336-.683l.34-.183c.2-.105.41-.212.566-.26a.758.758 0 0 1 .177-.033.533.533 0 0 1 .583.55.64.64 0 0 1-.058.243 1.531 1.531 0 0 1-.177.284c-.07.095-.16.207-.27.335l-.137.157c.102.015.181.059.233.099.108.082.157.187.17.214v.001c.035.079.057.166.07.227.058.264.112.754.157 1.3.093 1.106.16 2.606.122 3.384 0-.001 0-.001 0 0v.034l.006.101c.005.082.014.188.024.311a79.379 79.379 0 0 0 .077.842c.028.294.054.585.07.804.008.109.014.208.016.283 0 .035 0 .08-.002.123a.512.512 0 0 1-.386.474 1.403 1.403 0 0 1-.626-.007 2.417 2.417 0 0 1-.21-.056.499.499 0 0 1-.42.208Zm.544-1.225.068.027a62.226 62.226 0 0 0-.045-.496l-.023.469Zm-.483-6.414a18.93 18.93 0 0 1-.176.19.5.5 0 0 1-.825-.538c-.099.048-.199.096-.3.143-.683.316-1.47.617-2.212.71-.365.045-1.69.225-2.893.413-.392.062-.767.123-1.091.181l.895.641c1.322.95 2.638 1.894 4.001 2.71.176.105.44.294.727.5l.08.057c.33.236.707.505 1.089.753l.213.135c.084-1.541.228-3.077.372-4.604.04-.415.078-.83.116-1.243l.004-.048Z" fill="#000"/><path d="M197.604 56.3a10.656 10.656 0 0 1-.754-.234l-.286-.078c.035-.087.017-.165-.052-.234-.052-.07-.173-.113-.364-.13a3.332 3.332 0 0 1-.728-.598 4.437 4.437 0 0 1-.52-.676 4.952 4.952 0 0 1-.312-.572c-.121-.26-.182-.416-.182-.468.017-.07.121-.147.312-.234.191-.139.329-.182.416-.13.104.052.225.225.364.52.225.399.607.702 1.144.91.555.208 1.17.303 1.846.286a5.502 5.502 0 0 0 1.976-.468c.641-.26 1.04-.529 1.196-.806.173-.295.113-.667-.182-1.118a1.24 1.24 0 0 0-.182-.338 3.01 3.01 0 0 0-.338-.338 43.706 43.706 0 0 0-.702-.676l-.728-.338-.676-.338a10.752 10.752 0 0 1-1.014-.598c-.381-.277-.745-.58-1.092-.91-.347-.33-.598-.633-.754-.91-.277-.26-.485-.615-.624-1.066a4.18 4.18 0 0 1-.156-1.482c.035-.52.165-.988.39-1.404.104-.243.277-.537.52-.884a17.445 17.445 0 0 1 1.768-2.08c.295-.295.537-.503.728-.624.139-.139.286-.277.442-.416l.234-.234c.017-.087.043-.13.078-.13h.078c.087-.052.277-.139.572-.26.295-.121.615-.347.962-.676 1.161-.555 2.106-.962 2.834-1.222.728-.26 1.326-.39 1.794-.39a2.61 2.61 0 0 1 1.17.312c.364.173.659.407.884.702.243.295.39.65.442 1.066.121.416.087.901-.104 1.456a5.42 5.42 0 0 1-.858 1.534c-.364.468-.763.823-1.196 1.066-.485.208-.815.303-.988.286-.156-.035-.225-.217-.208-.546 0-.139.043-.303.13-.494.104-.19.373-.529.806-1.014.555-.815.893-1.465 1.014-1.95.121-.485.009-.754-.338-.806-.104-.035-.295-.035-.572 0-.26.035-.555.087-.884.156a6.288 6.288 0 0 0-.806.182c-.225.052-.338.095-.338.13v.078c0 .052-.035.07-.104.052-.035 0-.182.07-.442.208-.26.139-.572.32-.936.546l-1.092.676a33.58 33.58 0 0 0-.936.598c-.243.156-.373.251-.39.286-.035.19-.234.364-.598.52-.347.208-.667.511-.962.91-.277.399-.589.893-.936 1.482a3.744 3.744 0 0 0-.624 1.3c-.121.45-.121.815 0 1.092.087.277.355.633.806 1.066.451.433 1.014.85 1.69 1.248.589.33 1.118.659 1.586.988a7.54 7.54 0 0 1 1.144.91c.312.295.52.555.624.78.208.295.355.598.442.91.104.295.156.58.156.858a2.12 2.12 0 0 1-.078.754c-.121.277-.338.563-.65.858-.295.295-.546.433-.754.416a1.54 1.54 0 0 0-.442.182 1.36 1.36 0 0 1-.312.182c-.121.07-.381.139-.78.208-.381.07-.806.113-1.274.13-.468.035-.901.043-1.3.026Zm7.627 4.524h-.26c-.104.017-.2-.052-.286-.208-.07-.087-.113-.217-.13-.39 0-.173.043-.485.13-.936.086-.295.156-.59.208-.884.052-.277.078-.485.078-.624 0-.07.017-.208.052-.416.052-.19.078-.33.078-.416.086-.139.156-.33.208-.572a3.14 3.14 0 0 0 .078-.65c0-.208.104-.399.312-.572 0-.139.026-.312.078-.52.069-.208.104-.347.104-.416.052-.243.164-.667.338-1.274.19-.624.416-1.326.676-2.106.277-.78.546-1.543.806-2.288.26-.745.494-1.378.702-1.898.208-.485.346-.901.416-1.248.086-.364.13-.633.13-.806 0-.07.017-.121.052-.156.034-.052.112-.147.234-.286.173-.173.32-.225.442-.156.138.07.303.173.494.312.138.225.234.416.286.572.069.156.069.425 0 .806 0 .26-.044.485-.13.676-.087.19-.165.338-.234.442-.07.087-.087.121-.052.104.71-.33 1.334-.503 1.872-.52.554-.035 1.014.06 1.378.286.381.208.667.503.858.884.19.381.286.823.286 1.326 0 .208-.044.46-.13.754-.087.277-.2.537-.338.78-.122.225-.234.39-.338.494-.07 0-.139.06-.208.182-.07.104-.139.225-.208.364-.139.173-.364.373-.676.598-.295.208-.59.381-.884.52-.295.121-.512.156-.65.104l-.078.026c-.035 0-.052.043-.052.13 0 .035-.139.113-.416.234-.278.104-.598.208-.962.312a4.22 4.22 0 0 1-.962.13c-.364 0-.624-.07-.78-.208a1.485 1.485 0 0 0-.13.156.414.414 0 0 0-.052.182c0 .104-.044.303-.13.598-.07.277-.156.546-.26.806-.104.26-.2.39-.286.39l-.052.078c-.035.052-.018.121.052.208l-.026.286a.97.97 0 0 1-.13.52c0 .139-.026.347-.078.624a2.51 2.51 0 0 1-.182.624c0 .208-.035.407-.104.598-.052.208-.113.312-.182.312-.07.017-.113.121-.13.312a5.77 5.77 0 0 0-.026.442c-.018.433-.104.771-.26 1.014-.156.243-.338.364-.546.364Zm3.146-8.684c.138 0 .424-.06.858-.182.433-.121.875-.269 1.326-.442.468-.19.814-.381 1.04-.572.45-.399.797-.85 1.04-1.352.26-.52.242-1.014-.052-1.482-.139-.243-.39-.338-.754-.286-.364.035-.763.173-1.196.416a6.024 6.024 0 0 0-1.222.91 3.88 3.88 0 0 0-.572.832c-.174.33-.321.659-.442.988-.104.33-.165.607-.182.832-.018.225.034.338.156.338Zm9.488 2.47c-.226 0-.408-.043-.546-.13a8.914 8.914 0 0 1-.468-.364c-.33-.347-.564-.676-.702-.988-.139-.33-.182-.641-.13-.936.052-.139.069-.269.052-.39v-.208c-.087-.087-.113-.139-.078-.156a.633.633 0 0 0 .104-.156c.104 0 .138-.095.104-.286-.035-.139.034-.442.208-.91.173-.468.39-.91.65-1.326a8.42 8.42 0 0 1 .468-.676c.208-.295.433-.58.676-.858.26-.295.494-.529.702-.702.433-.364.814-.633 1.144-.806a4.333 4.333 0 0 1 1.066-.39c.381-.087.641-.13.78-.13.156 0 .364.139.624.416.398.173.684.381.858.624.19.243.312.598.364 1.066.052.52.008 1.118-.13 1.794-.122.659-.529 1.482-1.222 2.47-.434.624-.832 1.092-1.196 1.404a10.6 10.6 0 0 1-1.3.884 5.844 5.844 0 0 1-.988.546 4.254 4.254 0 0 1-1.04.208Zm2.496-2.756a8.45 8.45 0 0 0 .988-1.326c.26-.416.502-.945.728-1.586.069-.19.112-.425.13-.702a4.118 4.118 0 0 0-.026-.806c-.018-.26-.078-.407-.182-.442-.208-.121-.46-.156-.754-.104-.295.035-.616.2-.962.494a6.436 6.436 0 0 0-1.404 1.69 20.85 20.85 0 0 0-1.17 2.262c-.26.624-.321 1.127-.182 1.508.156.364.476.494.962.39.502-.121 1.126-.58 1.872-1.378Zm8.126 3.094a2.857 2.857 0 0 1-.598-.234 6.766 6.766 0 0 1-.624-.494 5.158 5.158 0 0 1-.494-.78 2.904 2.904 0 0 1-.208-.832c-.035-.33-.052-.745-.052-1.248 0-.208.034-.52.104-.936.086-.416.182-.85.286-1.3.121-.468.225-.884.312-1.248.104-.364.164-.598.182-.702.052-.225-.035-.355-.26-.39a3.533 3.533 0 0 0-.754-.026c-.26 0-.434-.026-.52-.078-.07-.017-.104-.043-.104-.078v-.078c0-.07-.009-.113-.026-.13 0-.035-.026-.095-.078-.182-.035-.07-.018-.165.052-.286.086-.139.225-.225.416-.26.156-.035.364-.06.624-.078.277-.035.554-.095.832-.182a1.59 1.59 0 0 0 .676-.468c.156-.381.338-.806.546-1.274a21.5 21.5 0 0 1 .598-1.248c.208-.381.346-.615.416-.702.294-.156.511-.217.65-.182.138.017.294.165.468.442.086.121.147.217.182.286.052.07.06.173.026.312-.035.139-.13.355-.286.65-.139.295-.356.72-.65 1.274l-.234.468-.104.182c.069.017.173.026.312.026.138 0 .312-.009.52-.026.19-.035.433-.06.728-.078.294-.035.528-.035.702 0 .398 0 .693.078.884.234.19.139.294.381.312.728.034.19-.009.303-.13.338-.104.035-.39.052-.858.052-.156 0-.399.009-.728.026-.33.017-.676.035-1.04.052-.347.017-.65.043-.91.078-.243.017-.364.043-.364.078-.052.035-.139.2-.26.494-.104.295-.217.633-.338 1.014-.104.364-.2.693-.286.988-.122.59-.217 1.179-.286 1.768-.052.59-.061 1.1-.026 1.534.034.433.13.737.286.91.156.156.459.19.91.104.45-.104.814-.269 1.092-.494.312-.26.563-.39.754-.39.208 0 .32.095.338.286.034.173-.061.425-.286.754a3.54 3.54 0 0 1-.78.832 3.31 3.31 0 0 1-.988.494c-.33.087-.642.087-.936 0Zm12.954.702c-.087 0-.191-.043-.312-.13a1.297 1.297 0 0 1-.338-.286.656.656 0 0 1-.13-.39l-.026-.156a.731.731 0 0 0-.104-.364v-.468a2.27 2.27 0 0 1 .13-.572c0-.19.026-.399.078-.624.052-.243.113-.425.182-.546 0-.19.043-.433.13-.728.104-.312.191-.598.26-.858l.416-1.248c.104-.26.173-.45.208-.572.035-.139.052-.277.052-.416.052-.139.13-.39.234-.754.104-.364.208-.737.312-1.118.121-.399.199-.685.234-.858.069-.07.104-.13.104-.182a.871.871 0 0 0 .026-.208l.182-.598c.121-.399.277-.858.468-1.378.312-.919.52-1.586.624-2.002.121-.416.173-.71.156-.884a1.15 1.15 0 0 0-.13-.52c-.121-.225-.121-.399 0-.52.069-.07.13-.147.182-.234l.078-.156c0-.035.113-.095.338-.182.225-.087.503-.182.832-.286.329-.121.659-.234.988-.338.347-.104.633-.19.858-.26h1.066c.451.07.91.2 1.378.39.485.19.893.46 1.222.806.208.19.39.416.546.676.173.26.39.685.65 1.274 0 .07.017.217.052.442.052.208.078.416.078.624 0 .52-.13 1.066-.39 1.638-.26.572-.633 1.153-1.118 1.742a13.966 13.966 0 0 1-1.768 1.716c-.728.59-1.482.988-2.262 1.196-.78.208-1.473.251-2.08.13a.812.812 0 0 1-.338-.312 1.742 1.742 0 0 1-.182-.468c-.035-.156-.026-.26.026-.312.139-.035.347-.043.624-.026.277 0 .719-.113 1.326-.338.191-.07.39-.147.598-.234.208-.104.373-.19.494-.26.347-.225.745-.529 1.196-.91.451-.381.867-.875 1.248-1.482a7.66 7.66 0 0 0 .468-.858c.156-.347.286-.693.39-1.04.121-.347.182-.633.182-.858.139-.45.052-.823-.26-1.118-.295-.312-.771-.503-1.43-.572-.208-.052-.529-.035-.962.052-.433.07-.849.165-1.248.286-.399.121-.667.225-.806.312-.069 0-.113.052-.13.156a1.33 1.33 0 0 1-.13.364c0 .121-.052.381-.156.78a8.476 8.476 0 0 1-.364 1.066c-.121.381-.269.806-.442 1.274-.173.45-.295.806-.364 1.066a6.197 6.197 0 0 1-.26.806l-.13.39c0 .07-.052.217-.156.442a7.023 7.023 0 0 0-.234.728c-.069.33-.165.702-.286 1.118a7.66 7.66 0 0 1-.364 1.118 26.123 26.123 0 0 0-.494 1.924c-.139.624-.147 1.031-.026 1.222.191 0 .26.156.208.468-.052.295-.208.702-.468 1.222a8.898 8.898 0 0 1-.39.884c-.087.173-.165.269-.234.286a1.384 1.384 0 0 1-.312.026Zm12.01-1.248c-.087.173-.217.225-.39.156a2.65 2.65 0 0 1-.39-.208.482.482 0 0 1-.312-.104.551.551 0 0 1-.182-.312.81.81 0 0 1-.026-.364 3.4 3.4 0 0 1 .104-.52c.069-.208.138-.433.208-.676.138-.572.234-.988.286-1.248.052-.26.104-.485.156-.676.052-.19.121-.468.208-.832.138-.347.251-.685.338-1.014.086-.33.216-.659.39-.988.121-.45.268-.875.442-1.274.19-.416.372-.763.546-1.04.034-.052.095-.121.182-.208.104-.087.19-.13.26-.13.138-.139.26-.19.364-.156.121.017.268.095.442.234a.872.872 0 0 1 .234.78c-.035.295-.243.728-.624 1.3a38.352 38.352 0 0 1-.572 1.404 4.988 4.988 0 0 0-.364 1.092c.19-.277.398-.529.624-.754l.598-.598c.381-.381.693-.659.936-.832.26-.173.563-.373.91-.598.208-.139.407-.26.598-.364.19-.121.398-.208.624-.26.242-.052.502-.052.78 0a.456.456 0 0 1 .416.156c.121.121.216.286.286.494.069.208.112.45.13.728-.399-.087-.754-.07-1.066.052a3.164 3.164 0 0 0-.806.39c-.208.156-.373.277-.494.364-.26.173-.59.407-.988.702a8.794 8.794 0 0 0-1.196 1.014 81.92 81.92 0 0 1-.806.884c-.208.243-.382.46-.52.65a2.66 2.66 0 0 0-.286.598 54.77 54.77 0 0 0-.546 1.3c-.191.468-.356.754-.494.858Zm10.799-.39c-.364.07-.598.095-.702.078-.087-.035-.225-.139-.416-.312a2.399 2.399 0 0 1-.702-.52 2.331 2.331 0 0 1-.39-.65c-.069-.243-.095-.442-.078-.598a7.987 7.987 0 0 1 .442-1.95c.243-.693.537-1.36.884-2.002a8.725 8.725 0 0 1 1.118-1.638c.416-.468.815-.771 1.196-.91.347-.139.676-.19.988-.156.312.035.537.2.676.494.26.503.199.823-.182.962-.052 0-.113.026-.182.078-.069.035-.104.087-.104.156.069.035.26.043.572.026a8.8 8.8 0 0 0 .936-.156c.329-.087.546-.173.65-.26a.599.599 0 0 1 .234-.078c.052 0 .182.017.39.052.295.087.442.19.442.312 0 .07.026.139.078.208a.25.25 0 0 0 .182.078c.121.017.104.095-.052.234-.139.139-.381.33-.728.572a9.188 9.188 0 0 0-.624.416c-.069.052-.078.173-.026.364.139.33.147.71.026 1.144a4.456 4.456 0 0 1-.65 1.326c-.312.45-.693.875-1.144 1.274-.433.381-.901.71-1.404.988-.485.26-.962.416-1.43.468Zm-.442-1.144c.069 0 .191-.035.364-.104l.416-.208c.069-.07.156-.147.26-.234.121-.104.217-.165.286-.182a.615.615 0 0 0 .26-.078c.104-.07.251-.2.442-.39.191-.208.442-.511.754-.91a7.1 7.1 0 0 0 .806-1.04c.191-.33.243-.633.156-.91-.017-.07-.069-.113-.156-.13a1.245 1.245 0 0 1-.286-.13c-.173 0-.338-.043-.494-.13a15.253 15.253 0 0 1-.494-.39l-.416-.52-.442.442c-.277.277-.572.693-.884 1.248a11.907 11.907 0 0 0-.754 1.664c-.208.555-.329.997-.364 1.326-.017.26.026.433.13.52a.751.751 0 0 0 .416.156Zm9.036.546c-.121-.104-.277-.416-.468-.936a24.984 24.984 0 0 1-.52-1.82c-.156-.71-.286-1.36-.39-1.95a6.302 6.302 0 0 0-.234-.884c-.069-.243-.13-.442-.182-.598-.087-.312-.113-.572-.078-.78.035-.208.156-.373.364-.494a.832.832 0 0 1 .312-.104.697.697 0 0 1 .312-.026c.208.07.399.39.572.962.173.555.329 1.291.468 2.21.069.537.156.997.26 1.378.104.381.156.607.156.676.069.139.147.277.234.416.104.121.225.113.364-.026.069-.07.208-.225.416-.468.225-.243.442-.503.65-.78.364-.485.65-.884.858-1.196.225-.312.477-.641.754-.988.121-.173.26-.364.416-.572.156-.208.312-.399.468-.572.173-.19.329-.303.468-.338.416-.07.641.017.676.26.035.243-.121.607-.468 1.092a4.278 4.278 0 0 0-.338.598 1.116 1.116 0 0 1-.208.364 9.841 9.841 0 0 1-.65 1.066 43.19 43.19 0 0 1-.858 1.17 9.916 9.916 0 0 1-.572.676c-.069.07-.225.2-.468.39a3.88 3.88 0 0 0-.65.728c-.416.399-.745.641-.988.728-.243.087-.468.026-.676-.182Zm6.943.312a.856.856 0 0 1-.26-.052l-.13-.078a.613.613 0 0 0-.078-.26.877.877 0 0 1-.052-.26c-.121-.07-.19-.139-.208-.208-.017-.087.009-.225.078-.416.104-.173.243-.45.416-.832.174-.399.356-.823.546-1.274.191-.468.373-.927.546-1.378l.442-1.144c.122-.33.191-.529.208-.598 0-.07.026-.156.078-.26a.997.997 0 0 1 .182-.26c.139-.121.286-.13.442-.026.156.087.286.243.39.468.122.208.182.442.182.702 0 .121-.086.433-.26.936a27.863 27.863 0 0 1-.702 1.742 30.05 30.05 0 0 1-.936 2.054c-.26.503-.424.823-.494.962-.069.121-.199.182-.39.182Zm3.822-9.854c-.208 0-.433-.078-.676-.234a2.95 2.95 0 0 1-.598-.624 1.505 1.505 0 0 1-.234-.78c0-.087.052-.208.156-.364l.312-.468c.104-.156.156-.251.156-.286.139 0 .243.009.312.026.087 0 .191.035.312.104.191.433.425.789.702 1.066.295.277.442.511.442.702 0 .381-.034.624-.104.728-.069.087-.329.13-.78.13Zm7.19 10.868c-.069 0-.173-.009-.312-.026a.581.581 0 0 1-.312-.234c-.26-.312-.425-.572-.494-.78-.069-.208-.078-.511-.026-.91.035-.26.052-.485.052-.676.017-.208.035-.381.052-.52-.069-.07-.199-.017-.39.156-.173.156-.416.355-.728.598-.589.676-1.118 1.196-1.586 1.56-.451.347-.858.58-1.222.702-.364.104-.711.139-1.04.104a1.031 1.031 0 0 1-.702-.364c-.173-.225-.286-.511-.338-.858a5.958 5.958 0 0 1 0-1.118 8.34 8.34 0 0 1 .364-1.638c.191-.52.494-1.1.91-1.742.191-.347.442-.685.754-1.014.329-.347.685-.65 1.066-.91.399-.277.78-.477 1.144-.598a3.764 3.764 0 0 1 1.222-.26c.416-.035.789 0 1.118.104.208.104.373.156.494.156.139 0 .243-.087.312-.26a2.81 2.81 0 0 0 .26-.624c.087-.295.191-.546.312-.754l.572-1.69c.191-.468.399-.962.624-1.482.225-.52.494-1.153.806-1.898.295-.555.537-.875.728-.962.191-.104.407-.035.65.208.191.225.26.485.208.78-.052.277-.208.728-.468 1.352-.121.19-.225.373-.312.546-.087.156-.208.407-.364.754a85.855 85.855 0 0 1-.624 1.456c-.191.416-.39.893-.598 1.43a13.29 13.29 0 0 1-.286.962c-.104.364-.191.693-.26.988a8.755 8.755 0 0 1-.182.78c-.052.225-.113.338-.182.338-.139.156-.269.433-.39.832-.121.381-.225.78-.312 1.196-.069.416-.13.763-.182 1.04a7.3 7.3 0 0 0-.078.806c-.017.33-.026.65-.026.962v.624c0 .381-.009.624-.026.728-.017.104-.087.156-.208.156Zm-5.538-1.638c.364 0 .745-.156 1.144-.468.416-.312.832-.659 1.248-1.04a7.1 7.1 0 0 0 .832-.962c.312-.399.607-.797.884-1.196.295-.399.529-.745.702-1.04.173-.312.26-.503.26-.572 0-.087-.078-.147-.234-.182a2.537 2.537 0 0 0-.546-.052 1.308 1.308 0 0 0-.468.026 3.36 3.36 0 0 0-1.144.52c-.364.26-.763.65-1.196 1.17a9.37 9.37 0 0 0-1.118 1.716c-.277.59-.451 1.083-.52 1.482s-.017.598.156.598Zm13.665.988a2.288 2.288 0 0 1-1.274.546 2.715 2.715 0 0 1-1.378-.208 2.778 2.778 0 0 1-1.118-.936 2.938 2.938 0 0 1-.572-1.3c-.087-.503-.095-1.153-.026-1.95.052-.676.269-1.352.65-2.028a8.142 8.142 0 0 1 1.378-1.846c.555-.537 1.101-.91 1.638-1.118.26-.173.477-.251.65-.234.191 0 .477.017.858.052.399.052.693.13.884.234.208.104.373.243.494.416.26.26.433.52.52.78.087.243.13.485.13.728-.069.381-.329.85-.78 1.404-.433.537-1.005.98-1.716 1.326a3.63 3.63 0 0 1-1.248.156c-.451-.017-.823-.13-1.118-.338-.329-.139-.546-.113-.65.078-.104.173-.199.607-.286 1.3-.069.659-.017 1.144.156 1.456.173.295.407.468.702.52.347.07.615.121.806.156.208.017.459-.06.754-.234.277-.173.451-.269.52-.286a.617.617 0 0 0 .156-.104l.338-.338c.121-.121.217-.208.286-.26a.322.322 0 0 1 .234-.104c.087 0 .165.043.234.13.069.07.139.121.208.156.173 0 .208.104.104.312-.087.208-.269.46-.546.754a5.776 5.776 0 0 1-.988.78Zm-.026-5.512c.191-.087.39-.208.598-.364.208-.173.381-.355.52-.546.156-.208.234-.381.234-.52 0-.243-.113-.442-.338-.598-.225-.173-.563-.2-1.014-.078-.191.052-.407.182-.65.39-.243.19-.477.407-.702.65-.208.243-.381.46-.52.65-.121.19-.165.303-.13.338.052.087.199.156.442.208.243.035.511.043.806.026.312-.017.563-.07.754-.156Zm5.205 5.824c-.087.173-.217.225-.39.156a2.65 2.65 0 0 1-.39-.208.485.485 0 0 1-.312-.104.557.557 0 0 1-.182-.312.824.824 0 0 1-.026-.364 3.4 3.4 0 0 1 .104-.52c.069-.208.139-.433.208-.676.139-.572.234-.988.286-1.248.052-.26.104-.485.156-.676.052-.19.121-.468.208-.832.139-.347.251-.685.338-1.014.087-.33.217-.659.39-.988a9.17 9.17 0 0 1 .442-1.274c.191-.416.373-.763.546-1.04.035-.052.095-.121.182-.208.104-.087.191-.13.26-.13.139-.139.26-.19.364-.156.121.017.269.095.442.234a.872.872 0 0 1 .234.78c-.035.295-.243.728-.624 1.3a38.352 38.352 0 0 1-.572 1.404 5.042 5.042 0 0 0-.364 1.092 5.39 5.39 0 0 1 .624-.754l.598-.598c.381-.381.693-.659.936-.832.26-.173.563-.373.91-.598.208-.139.407-.26.598-.364.191-.121.399-.208.624-.26.243-.052.503-.052.78 0a.456.456 0 0 1 .416.156c.121.121.217.286.286.494.069.208.113.45.13.728-.399-.087-.754-.07-1.066.052a3.164 3.164 0 0 0-.806.39c-.208.156-.373.277-.494.364-.26.173-.589.407-.988.702a8.855 8.855 0 0 0-1.196 1.014 81.92 81.92 0 0 1-.806.884c-.208.243-.381.46-.52.65-.121.19-.217.39-.286.598a64.63 64.63 0 0 0-.546 1.3c-.191.468-.355.754-.494.858ZM13.657 48.771l-.078-.052a1.777 1.777 0 0 0-.208-.052 1.09 1.09 0 0 0-.26-.026.87.87 0 0 1-.598-.468 1.018 1.018 0 0 1-.078-.754c.07-.07.122-.216.156-.442.035-.225.052-.407.052-.546.07-.138.113-.234.13-.286l.13-.52c.052-.294.139-.702.26-1.222l.442-1.716c.174-.606.338-1.187.494-1.742.156-.554.295-1.022.416-1.404.139-.381.234-.598.286-.65v-.286l.026-.234c.035-.173.122-.364.26-.572.07-.19.13-.398.182-.624.052-.225.078-.372.078-.442.07-.086.165-.294.286-.624.139-.346.269-.684.39-1.014.104-.277.217-.572.338-.884.139-.312.252-.58.338-.806l.156-.338v-.13c.07-.07.234-.416.494-1.04.278-.641.65-1.464 1.118-2.47.07-.138.156-.294.26-.468.104-.173.156-.294.156-.364a.356.356 0 0 1 .364-.182c.156 0 .312.052.468.156a.969.969 0 0 1 .39.442l.26.416-.936 1.872c-.277.486-.511.928-.702 1.326-.173.399-.26.633-.26.702l-.156.416c-.104.278-.225.607-.364.988-.138.382-.26.728-.364 1.04-.19.538-.372.98-.546 1.326-.156.347-.234.555-.234.624 0-.034.191-.06.572-.078.382-.017.867-.026 1.456-.026h1.794c.624-.017 1.17-.026 1.638-.026.486-.017.815-.043.988-.078l1.352-.13.884-2.678a52.9 52.9 0 0 1 .546-1.768c.226-.693.425-1.282.598-1.768.278-.797.494-1.291.65-1.482.156-.19.338-.286.546-.286.052 0 .122.018.208.052.104.018.2.06.286.13.104.052.174.13.208.234.208.19.304.408.286.65 0 .243-.138.564-.416.962a8.28 8.28 0 0 0-.702 1.534c-.173.538-.329.98-.468 1.326 0 .208-.026.382-.078.52a.903.903 0 0 1-.182.286c-.034.035-.104.165-.208.39-.104.226-.199.45-.286.676-.086.226-.13.364-.13.416 0 .122-.026.269-.078.442-.052.174-.112.295-.182.364-.034.104-.112.364-.234.78-.121.416-.26.91-.416 1.482-.156.555-.32 1.1-.494 1.638-.173.52-.329.954-.468 1.3 0 .122-.043.278-.13.468-.086.174-.13.33-.13.468l-.26.78c-.104.312-.156.512-.156.598-.086.399-.182.806-.286 1.222-.086.416-.164.772-.234 1.066a6.004 6.004 0 0 0-.078.546c-.069.07-.173.078-.312.026a51.646 51.646 0 0 0-.494-.182c-.329-.19-.528-.398-.598-.624-.052-.208.018-.511.208-.91.087-.138.191-.476.312-1.014.139-.554.278-1.1.416-1.638.104-.26.217-.606.338-1.04l.364-1.352c.122-.468.226-.858.312-1.17.087-.33.148-.511.182-.546v-.26c-.034-.034-.251-.06-.65-.078a13.098 13.098 0 0 0-1.482-.026c-.589 0-1.204.018-1.846.052-.624.018-1.187.06-1.69.13h-1.898l-.182.546c-.104.312-.225.694-.364 1.144-.138.434-.286.884-.442 1.352-.138.45-.26.867-.364 1.248-.086.364-.147.624-.182.78-.069.312-.164.702-.286 1.17-.104.468-.225.945-.364 1.43-.121.503-.234.936-.338 1.3-.086.364-.147.598-.182.702Zm14.053-3.094a.784.784 0 0 0-.26-.312c-.104-.086-.156-.164-.156-.234a.85.85 0 0 0-.026-.208.323.323 0 0 0-.104-.234c-.087-.104-.078-.338.026-.702.104-.381.277-.84.52-1.378a22.94 22.94 0 0 1 .858-1.742c.138-.138.277-.32.416-.546.138-.225.242-.372.312-.442 0-.07.026-.13.078-.182.052-.07.112-.104.182-.104v-.156c0-.086.078-.234.234-.442.173-.208.381-.433.624-.676.242-.26.494-.502.754-.728.26-.242.476-.416.65-.52.364-.242.736-.39 1.118-.442.398-.052.736.035 1.014.26l.26.26.416.416c.173.139.346.286.52.442l.962.858-.468 1.3c-.226.694-.286 1.3-.182 1.82.121.52.294.97.52 1.352.086.19.26.373.52.546.277.174.537.278.78.312.138.018.268.07.39.156.121.087.182.226.182.416a.739.739 0 0 1-.104.416c-.07.104-.19.174-.364.208-.572.07-1.11-.07-1.612-.416-.486-.346-.936-.918-1.352-1.716a4.225 4.225 0 0 1-.286-.572 5.7 5.7 0 0 1-.182-.572c-.07.087-.2.252-.39.494-.19.226-.338.39-.442.494-1.23 1.248-2.297 2.089-3.198 2.522-.884.416-1.62.434-2.21.052Zm.936-1.456c0 .122.182.122.546 0 .381-.138.788-.381 1.222-.728a25.948 25.948 0 0 0 1.768-1.664c.606-.606 1.092-1.17 1.456-1.69l.572-.936c-.174-.398-.364-.667-.572-.806-.19-.156-.356-.234-.494-.234-.226 0-.564.208-1.014.624-.434.416-.902.97-1.404 1.664-.503.694-.98 1.456-1.43 2.288-.174.347-.33.685-.468 1.014l-.182.468Zm10.725 1.482a1.3 1.3 0 0 1-.338-.364c-.052-.121-.052-.355 0-.702.052-.485.122-.91.208-1.274.087-.381.191-.814.312-1.3.035-.208.13-.563.286-1.066.174-.502.382-1.048.624-1.638.243-.59.486-1.144.728-1.664.243-.537.451-.936.624-1.196a.69.69 0 0 1 .494-.13.805.805 0 0 1 .52.234c.191.156.217.434.078.832-.121.382-.381.988-.78 1.82-.208.468-.364.824-.468 1.066-.104.226-.147.364-.13.416.018.035.096.009.234-.078.104-.19.295-.407.572-.65.278-.26.572-.511.884-.754.312-.242.607-.46.884-.65.278-.19.468-.312.572-.364.139-.086.295-.156.468-.208.191-.07.321-.121.39-.156a2.16 2.16 0 0 1 1.222-.208c.416.052.676.208.78.468.018.139.07.243.156.312l.156.104c.07 0 .104.026.104.078l.026.078c0 .122-.095.2-.286.234a19.18 19.18 0 0 1-.676.052c-.225.018-.424.06-.598.13-.173.07-.381.156-.624.26-.658.382-1.291.754-1.898 1.118-.589.364-1.161.85-1.716 1.456a4.067 4.067 0 0 0-.364.494c-.121.19-.251.399-.39.624-.086.087-.173.278-.26.572-.086.295-.164.58-.234.858-.052.26-.078.416-.078.468l-.078.26a1.583 1.583 0 0 1-.26.468c-.208.278-.381.416-.52.416-.138 0-.346-.138-.624-.416Zm16.935.598c-.173 0-.355-.095-.545-.286a3.096 3.096 0 0 1-.469-.702 2.192 2.192 0 0 1-.181-.832c0-.26.06-.745.181-1.456.14-.71.304-1.43.494-2.158.14-.45.182-.71.13-.78-.051-.07-.285.026-.701.286-.243.122-.46.252-.65.39-.191.122-.356.26-.494.416a9.77 9.77 0 0 0-.39.338 6.748 6.748 0 0 1-.546.442c-.226.174-.512.416-.858.728l-1.04.936c-.33.312-.581.555-.755.728a.572.572 0 0 1-.39.286.913.913 0 0 1-.285-.052 1.241 1.241 0 0 1-.547-.338.868.868 0 0 1-.233-.598c0-.173.069-.468.207-.884.14-.433.321-.953.547-1.56.242-.606.52-1.248.831-1.924.052-.086.096-.19.13-.312.035-.138.061-.286.079-.442a2.04 2.04 0 0 0 .052-.442c0-.086.008-.173.026-.26.034-.104.069-.2.103-.286a.872.872 0 0 1 .13-.208c.07-.138.191-.173.364-.104.174.052.321.174.442.364.26.243.39.546.39.91.018.364-.069.815-.26 1.352a3.56 3.56 0 0 0-.181.364c-.035.104-.07.2-.105.286-.034.07-.06.13-.077.182l-.026.052c.069 0 .225-.078.468-.234.242-.156.528-.33.858-.52.26-.19.485-.364.675-.52.209-.173.382-.303.52-.39.14-.104.226-.156.26-.156.07 0 .157-.026.26-.078a.99.99 0 0 0 .26-.182c.07-.07.122-.104.157-.104l.078-.026h.103a.46.46 0 0 0 .209-.13c.138-.104.32-.13.545-.078.226.035.434.122.624.26.191.139.287.295.287.468 0 .07.017.13.052.182l.078.052c.138 0 .225.217.26.65.052.434.008.85-.13 1.248 0 .26-.053.572-.157.936-.086.364-.164.71-.233 1.04a7.832 7.832 0 0 0-.287 1.144 2.76 2.76 0 0 0-.026.832c.035.226.096.408.182.546.07.122.07.26 0 .416-.069.139-.208.208-.416.208Zm6.142.39c-.763 0-1.387-.286-1.872-.858-.486-.59-.72-1.317-.702-2.184a8.91 8.91 0 0 1 .364-2.002c.225-.728.52-1.421.884-2.08a9.837 9.837 0 0 1 1.196-1.768c.433-.502.884-.858 1.352-1.066.173-.086.355-.156.546-.208.208-.052.416-.078.624-.078.19 0 .39.035.598.104.208.052.38.113.52.182.294.122.52.269.676.442.156.174.294.442.416.806.052.33.078.564.078.702 0 .139-.044.347-.13.624a5.846 5.846 0 0 1-.806 1.612c-.33.45-.772.832-1.326 1.144a1.846 1.846 0 0 1-.494.208 2.912 2.912 0 0 1-1.56-.13 1.842 1.842 0 0 1-.754-.598l-.182-.208-.078.208c-.174.468-.312.902-.416 1.3-.087.399-.13.763-.13 1.092 0 .208.017.408.052.598.052.19.12.356.208.494.069.104.182.182.338.234.173.035.355.052.546.052h.364c.138-.017.268-.052.39-.104.294-.104.528-.216.702-.338.19-.121.38-.251.572-.39l.104-.052h-.026a5.1 5.1 0 0 0 .546-.312l.26-.156c.069 0 .138-.043.208-.13.138-.07.312-.043.52.078.225.122.338.278.338.468-.018.087-.096.226-.234.416a4.176 4.176 0 0 1-.468.494c-.156.156-.286.243-.39.26a1.02 1.02 0 0 1-.182.104.562.562 0 0 0-.208.104h.026c-.156.208-.312.312-.468.312h-.208c-.07.122-.295.26-.676.416a3.262 3.262 0 0 1-1.118.208Zm1.17-5.72c.312 0 .58-.086.806-.26.242-.19.45-.398.624-.624.346-.468.546-.918.598-1.352.069-.45.017-.762-.156-.936a.647.647 0 0 0-.286-.078c-.07-.017-.217.009-.442.078-.156.035-.373.165-.65.39-.278.226-.555.477-.832.754-.26.278-.46.512-.598.702l-.338.546c.138-.052.268-.078.39-.078.138-.017.216-.008.234.026 0 .156.026.304.078.442.069.122.147.217.234.286.104.07.216.104.338.104Zm7.18 5.278c-.866 0-1.499-.312-1.897-.936a.903.903 0 0 1-.182-.52c.017-.19.069-.32.156-.39.104-.07.225-.008.364.182.242.139.589.208 1.04.208.225 0 .459-.017.702-.052.242-.052.485-.121.728-.208.26-.121.433-.225.52-.312.086-.104.069-.19-.052-.26h.026a6.13 6.13 0 0 1-1.378-.572 7.128 7.128 0 0 1-1.17-.884c-.33-.33-.52-.624-.572-.884a2.668 2.668 0 0 1 .104-1.638 4.677 4.677 0 0 1 .884-1.508c.138-.086.312-.19.52-.312.208-.138.372-.216.494-.234v.026a3.7 3.7 0 0 1 1.196-.832c.485-.208.996-.398 1.534-.572l.39-.052c.208-.034.381-.052.52-.052-.018 0 .017.018.104.052.086.018.164.035.234.052.104.052.19.078.26.078.225.035.433.139.624.312.19.174.338.382.442.624.121.226.164.442.13.65-.035.33-.139.624-.312.884-.156.26-.347.408-.572.442.034-.017.008-.043-.078-.078a2.73 2.73 0 0 0-.234-.156l-.078.052-.026-.052a.418.418 0 0 0-.052-.182.745.745 0 0 1-.078-.338c0-.138.008-.286.026-.442.034-.19.034-.303 0-.338-.018-.034-.13-.06-.338-.078-.243-.052-.598-.008-1.066.13-.451.139-.832.33-1.144.572a8.18 8.18 0 0 0-.962.702 3.53 3.53 0 0 0-.624.624c-.156.19-.295.416-.416.676a4.3 4.3 0 0 0-.234.364.647.647 0 0 0-.078.286c0 .19.138.39.416.598.294.19.728.416 1.3.676.45.19.832.399 1.144.624.312.226.528.486.65.78a.42.42 0 0 1 .026.26c0 .087-.018.148-.052.182.034.035.052.06.052.078v-.026c.138.208.138.425 0 .65-.122.226-.338.425-.65.598a4.029 4.029 0 0 1-1.092.364h.026c-.226.07-.451.122-.676.156a7.223 7.223 0 0 1-.598.026Zm8.056.468a4.256 4.256 0 0 1-.936-.546c-.295-.242-.485-.442-.572-.598 0-.156.026-.26.078-.312.052-.07.2-.095.442-.078.26 0 .676.035 1.248.104.208 0 .468-.017.78-.052.312-.034.598-.086.858-.156.277-.07.433-.156.468-.26.087 0 .104-.026.052-.078a1.947 1.947 0 0 0-.182-.208.466.466 0 0 1-.234-.078c-.087-.07-.165-.104-.234-.104 0-.086-.087-.182-.26-.286a2.03 2.03 0 0 0-.494-.286c-.381-.312-.71-.59-.988-.832-.277-.26-.381-.433-.312-.52v-.13c-.121 0-.26-.173-.416-.52-.139-.346-.208-.658-.208-.936 0-.208.06-.468.182-.78.121-.33.286-.667.494-1.014a4.43 4.43 0 0 1 .65-.858c.312-.294.702-.606 1.17-.936.468-.346.927-.65 1.378-.91.468-.277.858-.46 1.17-.546.312-.121.598-.182.858-.182.277 0 .52.06.728.182.173.087.33.217.468.39.156.156.286.32.39.494.121.156.2.295.234.416 0 .208-.017.442-.052.702-.035.243-.087.46-.156.65-.052.19-.139.286-.26.286l-.078.026c-.035 0-.052.044-.052.13 0 .174-.13.373-.39.598-.33.226-.615.364-.858.416-.243.035-.39-.06-.442-.286a.676.676 0 0 1-.104-.182c-.017-.052-.06-.078-.13-.078l-.078-.078c-.052-.052-.078-.138-.078-.26 0-.07.026-.13.078-.182l.078-.104c.087 0 .2-.095.338-.286.139-.208.26-.424.364-.65.121-.242.182-.407.182-.494 0-.104-.017-.164-.052-.182-.017-.017-.095-.026-.234-.026-.243.104-.537.243-.884.416-.347.174-.676.347-.988.52-.295.156-.511.304-.65.442-.07.122-.113.2-.13.234-.017.018-.06.026-.13.026 0-.07-.06-.034-.182.104-.104.122-.243.295-.416.52l-.468.676-.312.468c-.035.035-.078.139-.13.312a2.039 2.039 0 0 0-.052.442c-.07.208-.06.356.026.442l.572.468c.607.45 1.083.824 1.43 1.118.347.295.607.538.78.728.173.19.277.364.312.52.312.52.407.919.286 1.196-.121.278-.416.52-.884.728-.173.087-.46.156-.858.208a9.44 9.44 0 0 1-1.222.078 5.681 5.681 0 0 1-.988-.026ZM13.137 74.861c-.208 0-.381-.112-.52-.338a.813.813 0 0 1-.208-.442c-.017-.173.044-.494.182-.962.139-.485.373-1.222.702-2.21.174-.658.312-1.135.416-1.43.104-.312.156-.537.156-.676 0-.19.018-.346.052-.468.052-.138.078-.268.078-.39.104 0 .208-.095.312-.286.104-.19.191-.45.26-.78.07-.294.13-.528.182-.702.07-.19.104-.32.104-.39.087-.138.174-.355.26-.65.104-.294.26-.65.468-1.066.139-.52.295-1.057.468-1.612.174-.572.347-1.1.52-1.586.191-.502.347-.892.468-1.17.191-.537.338-.91.442-1.118.104-.225.104-.372 0-.442-.121-.086-.147-.234-.078-.442.07-.208.26-.442.572-.702.191-.225.356-.381.494-.468a.842.842 0 0 1 .52-.156c.226 0 .546.018.962.052.312.018.642.026.988.026h.676c.156.07.347.148.572.234.226.07.425.139.598.208.191.07.286.13.286.182 0 .104.035.174.104.208l.26.052c.122 0 .286.096.494.286a4.9 4.9 0 0 1 .65.676c.226.26.399.538.52.832.139.295.243.572.312.832.087.26.087.633 0 1.118-.017.26-.06.52-.13.78-.052.26-.112.434-.182.52-.104.07-.199.156-.286.26-.086.104-.13.2-.13.286 0 .07-.06.208-.182.416a12.738 12.738 0 0 1-1.092 1.456 8.23 8.23 0 0 1-.65.676 4.937 4.937 0 0 1-.806.78 8.658 8.658 0 0 1-.806.598c-.45.208-.953.416-1.508.624-.537.208-1.057.382-1.56.52-.485.139-.892.2-1.222.182-.502.07-.832.139-.988.208-.138.052-.242.2-.312.442-.086.226-.173.46-.26.702-.069.226-.104.382-.104.468-.034.07-.121.286-.26.65-.121.347-.26.754-.416 1.222-.138.468-.277.928-.416 1.378-.138.45-.242.824-.312 1.118-.069.243-.156.382-.26.416a.868.868 0 0 1-.39.078Zm3.224-8.06c.07.07.338.078.806.026a6.06 6.06 0 0 0 1.508-.39 8.911 8.911 0 0 0 1.04-.442c.364-.173.711-.364 1.04-.572.174-.121.434-.338.78-.65a9.396 9.396 0 0 0 1.04-1.118c.052-.086.139-.251.26-.494.139-.26.26-.502.364-.728.156-.242.312-.598.468-1.066.156-.485.191-.884.104-1.196-.086-.45-.312-.866-.676-1.248a2.706 2.706 0 0 0-1.3-.806 5.533 5.533 0 0 0-.962-.104c-.242 0-.511.026-.806.078-.277.087-.485.208-.624.364-.121.156-.286.486-.494.988-.121.243-.294.616-.52 1.118-.225.486-.416.945-.572 1.378-.312 1.144-.624 2.089-.936 2.834a58.446 58.446 0 0 0-.546 1.378c.018.19.009.33-.026.416-.034.07-.017.148.052.234Zm9.61 6.812c-.329.087-.597.018-.805-.208-.19-.225-.303-.572-.338-1.04-.035-.468.017-1.022.156-1.664.086-.208.156-.407.208-.598.052-.208.078-.372.078-.494a7.84 7.84 0 0 1 .208-.754 37.01 37.01 0 0 1 .676-2.028c.121-.294.2-.476.234-.546.07 0 .13-.06.182-.182a.918.918 0 0 0 .078-.364c0-.138.026-.294.078-.468.07-.173.139-.294.208-.364a.91.91 0 0 1 .052-.286.79.79 0 0 0 .078-.286.46.46 0 0 1 .052-.208.346.346 0 0 0 .078-.208c.121-.225.277-.58.468-1.066.208-.502.425-1.057.65-1.664a46.519 46.519 0 0 0 1.17-3.276c.139-.416.208-.667.208-.754 0-.138.034-.242.104-.312.07-.07.173-.104.312-.104a.386.386 0 0 1 .182-.104 1.2 1.2 0 0 1 .234-.026 76.468 76.468 0 0 0 .416.416.64.64 0 0 1 .234.416c.034.156.052.338.052.546 0 .226-.026.425-.078.598a5.928 5.928 0 0 1-.312.754l-.728 1.534c-.139.347-.286.676-.442.988-.156.295-.234.477-.234.546 0 .07-.035.174-.104.312-.052.139-.113.312-.182.52-.07.139-.165.347-.286.624-.122.26-.252.546-.39.858-.122.295-.226.555-.312.78-.087.208-.13.33-.13.364 0 .07-.009.139-.026.208 0 .07-.035.139-.104.208-.07 0-.113.052-.13.156v.13c0 .174-.139.633-.416 1.378-.277.954-.538 1.829-.78 2.626-.226.798-.338 1.439-.338 1.924 0 .416-.009.694-.026.832-.017.122-.096.217-.234.286Zm3.795-.936a.785.785 0 0 0-.26-.312c-.104-.086-.156-.164-.156-.234a.856.856 0 0 0-.026-.208.323.323 0 0 0-.104-.234c-.086-.104-.078-.338.026-.702.104-.381.278-.84.52-1.378.243-.554.529-1.135.858-1.742a2.99 2.99 0 0 0 .416-.546c.139-.225.243-.372.312-.442 0-.07.026-.13.078-.182.052-.07.113-.104.182-.104v-.156c0-.086.078-.234.234-.442.174-.208.382-.433.624-.676a9.89 9.89 0 0 1 .754-.728c.26-.242.477-.416.65-.52.364-.242.737-.39 1.118-.442.399-.052.737.035 1.014.26l.26.26.416.416c.174.139.347.286.52.442l.962.858-.468 1.3c-.225.694-.286 1.3-.182 1.82.122.52.295.97.52 1.352.087.19.26.373.52.546.278.174.538.278.78.312.139.018.269.07.39.156.122.087.182.226.182.416a.74.74 0 0 1-.104.416c-.069.104-.19.174-.364.208-.572.07-1.109-.07-1.612-.416-.485-.346-.936-.918-1.352-1.716a4.2 4.2 0 0 1-.286-.572 5.672 5.672 0 0 1-.182-.572l-.39.494c-.19.226-.338.39-.442.494-1.23 1.248-2.296 2.089-3.198 2.522-.884.416-1.62.434-2.21.052Zm.936-1.456c0 .122.182.122.546 0 .382-.138.789-.381 1.222-.728a25.995 25.995 0 0 0 1.768-1.664c.607-.606 1.092-1.17 1.456-1.69l.572-.936c-.173-.398-.364-.667-.572-.806-.19-.156-.355-.234-.494-.234-.225 0-.563.208-1.014.624-.433.416-.901.97-1.404 1.664-.502.694-.979 1.456-1.43 2.288-.173.347-.329.685-.468 1.014l-.182.468Zm13.482 2.34a2.874 2.874 0 0 1-.598-.234 6.766 6.766 0 0 1-.624-.494 5.192 5.192 0 0 1-.494-.78 2.927 2.927 0 0 1-.208-.832c-.035-.33-.052-.745-.052-1.248 0-.208.035-.52.104-.936.087-.416.182-.85.286-1.3.121-.468.225-.884.312-1.248a8.64 8.64 0 0 0 .182-.702c.052-.225-.035-.355-.26-.39a3.524 3.524 0 0 0-.754-.026c-.26 0-.433-.026-.52-.078-.07-.017-.104-.043-.104-.078v-.078c0-.07-.009-.112-.026-.13 0-.034-.026-.095-.078-.182-.035-.07-.017-.164.052-.286a.585.585 0 0 1 .416-.26c.156-.034.364-.06.624-.078.277-.034.555-.095.832-.182.277-.104.503-.26.676-.468.156-.381.338-.806.546-1.274.208-.468.407-.884.598-1.248.208-.381.347-.615.416-.702.295-.156.511-.216.65-.182.139.018.295.165.468.442.087.122.147.217.182.286.052.07.06.174.026.312-.035.139-.13.356-.286.65-.139.295-.355.72-.65 1.274l-.234.468-.104.182c.07.018.173.026.312.026s.312-.008.52-.026c.19-.034.433-.06.728-.078.295-.034.529-.034.702 0 .399 0 .693.078.884.234.19.139.295.382.312.728.035.19-.009.304-.13.338-.104.035-.39.052-.858.052-.156 0-.399.009-.728.026-.33.018-.676.035-1.04.052-.347.018-.65.044-.91.078-.243.018-.364.044-.364.078-.052.035-.139.2-.26.494-.104.295-.217.633-.338 1.014-.104.364-.2.694-.286.988-.121.59-.217 1.179-.286 1.768-.052.59-.06 1.1-.026 1.534.035.434.13.737.286.91.156.156.46.19.91.104.45-.104.815-.268 1.092-.494.312-.26.563-.39.754-.39.208 0 .32.096.338.286.035.174-.06.425-.286.754a3.54 3.54 0 0 1-.78.832c-.312.226-.641.39-.988.494-.33.087-.641.087-.936 0Zm6.84 2.652a1.232 1.232 0 0 1-.39-.208c-.14-.086-.209-.164-.209-.234.018-.121.044-.234.078-.338a1.48 1.48 0 0 0 .078-.26c.035-.173.052-.381.052-.624 0-.225.026-.658.078-1.3l.13-1.742c.052-.468.104-.884.156-1.248.052-.381.113-.762.182-1.144l.312-1.352c.087-.59.087-.953 0-1.092-.069-.138-.199-.216-.39-.234a5.817 5.817 0 0 1-.884-.156c-.242-.086-.398-.234-.468-.442-.173-.173-.216-.312-.13-.416.087-.104.26-.182.52-.234.278-.07.572-.095.884-.078.295-.017.52-.034.676-.052a.666.666 0 0 0 .416-.26c.104-.156.208-.416.312-.78.035-.156.096-.372.182-.65.104-.277.191-.528.26-.754l.13-.338a.567.567 0 0 0 .234-.468c.018-.242.13-.563.338-.962.226-.416.581-.996 1.066-1.742.59-.762 1.118-1.36 1.586-1.794a3.275 3.275 0 0 1 1.69-.806c.07-.034.226-.052.468-.052h.494c.364.018.616.087.754.208.14.122.286.33.442.624.14.226.156.538.052.936-.086.382-.199.676-.338.884a2.776 2.776 0 0 1-.39.468c-.156.174-.312.33-.468.468-.138.122-.242.182-.312.182a.502.502 0 0 1-.26-.078.46.46 0 0 0-.208-.13c-.156-.07-.182-.19-.078-.364.104-.19.217-.372.338-.546.174-.26.286-.468.338-.624a.916.916 0 0 0 .052-.416 3.114 3.114 0 0 0-.104-.442l.234.234a.668.668 0 0 0-.416-.078c-.156.018-.329.06-.52.13-.329.174-.598.364-.806.572-.208.19-.38.356-.52.494a4.288 4.288 0 0 0-1.014 1.326l-.728 1.456c-.069.139-.19.399-.364.78-.156.364-.303.71-.442 1.04-.12.312-.242.59-.364.832-.12.226-.182.364-.182.416-.052.122-.026.182.078.182.122 0 .356-.008.702-.026.85-.104 1.482-.13 1.898-.078.434.035.685.19.754.468.295.416.252.676-.13.78-.364.087-1.04.2-2.028.338l-.832.052c-.277 0-.459.009-.546.026-.069.018-.138.044-.208.078-.069.035-.147.208-.234.52-.017.19-.052.425-.104.702-.034.26-.06.512-.078.754-.069.208-.12.425-.156.65-.017.226-.069.425-.156.598a40.438 40.438 0 0 0-.208 2.652 27.261 27.261 0 0 1-.156 2.054c-.052.572-.19 1.014-.416 1.326a1.29 1.29 0 0 1-.39.312c-.12.087-.234.087-.338 0Zm8.814-3.588c-.364.07-.598.096-.702.078-.087-.034-.226-.138-.416-.312a2.391 2.391 0 0 1-.702-.52 2.317 2.317 0 0 1-.39-.65c-.07-.242-.096-.442-.078-.598a8 8 0 0 1 .442-1.95c.242-.693.537-1.36.884-2.002a8.718 8.718 0 0 1 1.118-1.638c.416-.468.815-.771 1.196-.91.346-.138.676-.19.988-.156.312.035.537.2.676.494.26.503.2.824-.182.962-.052 0-.113.026-.182.078-.07.035-.104.087-.104.156.07.035.26.044.572.026a8.8 8.8 0 0 0 .936-.156c.33-.086.546-.173.65-.26a.599.599 0 0 1 .234-.078c.052 0 .182.018.39.052.294.087.442.19.442.312 0 .07.026.139.078.208a.25.25 0 0 0 .182.078c.121.018.104.096-.052.234-.139.139-.382.33-.728.572-.33.208-.538.347-.624.416-.07.052-.078.174-.026.364.139.33.147.71.026 1.144a4.463 4.463 0 0 1-.65 1.326 7.11 7.11 0 0 1-1.144 1.274c-.433.382-.901.71-1.404.988-.486.26-.962.416-1.43.468Zm-.442-1.144c.07 0 .19-.034.364-.104l.416-.208c.07-.07.156-.147.26-.234.121-.104.217-.164.286-.182.07 0 .156-.026.26-.078.104-.07.251-.2.442-.39.19-.208.442-.511.754-.91.347-.381.615-.728.806-1.04.19-.33.242-.632.156-.91-.017-.07-.07-.112-.156-.13a1.25 1.25 0 0 1-.286-.13c-.173 0-.338-.043-.494-.13a15.253 15.253 0 0 1-.494-.39l-.416-.52-.442.442c-.277.278-.572.694-.884 1.248a11.942 11.942 0 0 0-.754 1.664c-.208.555-.33.997-.364 1.326-.017.26.026.434.13.52a.752.752 0 0 0 .416.156Zm7.372 1.222a1.3 1.3 0 0 1-.338-.364c-.052-.121-.052-.355 0-.702.052-.485.121-.91.208-1.274.087-.381.19-.814.312-1.3.034-.208.13-.563.286-1.066.173-.502.381-1.048.624-1.638.243-.59.485-1.144.728-1.664.243-.537.45-.936.624-1.196a.69.69 0 0 1 .494-.13.805.805 0 0 1 .52.234c.19.156.216.434.078.832-.121.382-.382.988-.78 1.82-.208.468-.364.824-.468 1.066-.104.226-.147.364-.13.416.017.035.095.009.234-.078.104-.19.294-.407.572-.65.277-.26.572-.511.884-.754.312-.242.606-.46.884-.65.277-.19.468-.312.572-.364.138-.086.294-.156.468-.208.19-.07.32-.121.39-.156a2.16 2.16 0 0 1 1.222-.208c.416.052.676.208.78.468.017.139.07.243.156.312l.156.104c.07 0 .104.026.104.078l.026.078c0 .122-.096.2-.286.234a19.18 19.18 0 0 1-.676.052c-.226.018-.425.06-.598.13s-.381.156-.624.26c-.659.382-1.291.754-1.898 1.118-.59.364-1.162.85-1.716 1.456a4.067 4.067 0 0 0-.364.494c-.121.19-.252.399-.39.624-.087.087-.174.278-.26.572-.087.295-.165.58-.234.858-.052.26-.078.416-.078.468l-.078.26a1.583 1.583 0 0 1-.26.468c-.208.278-.382.416-.52.416-.139 0-.347-.138-.624-.416Zm9.603-.052a1.716 1.716 0 0 1-.156-.26.855.855 0 0 1-.052-.26.429.429 0 0 0-.026-.13c0-.052-.035-.078-.104-.078-.052-.052-.017-.251.104-.598.139-.364.312-.78.52-1.248.225-.468.45-.918.676-1.352.243-.45.442-.806.598-1.066a.31.31 0 0 0 .156-.208c.035-.104.035-.156 0-.156l.13-.234c.104-.173.182-.286.234-.338a3.3 3.3 0 0 0 .312-.728c.07-.26.087-.476.052-.65-.07-.086-.147-.112-.234-.078l-.13.052a3.17 3.17 0 0 0-.312.104 1.195 1.195 0 0 0-.338.156c-.399.278-.667.408-.806.39-.139-.034-.295-.26-.468-.676-.07-.19-.095-.33-.078-.416.017-.086.087-.182.208-.286.139-.121.269-.2.39-.234.121-.052.217-.104.286-.156.19-.121.347-.208.468-.26a3.17 3.17 0 0 1 .312-.104c.45-.138.832-.164 1.144-.078.312.087.546.312.702.676.243.295.364.633.364 1.014 0 .364-.121.789-.364 1.274l-.26.39c-.087.174-.104.26-.052.26.07 0 .147-.06.234-.182.052-.07.156-.173.312-.312.156-.138.26-.208.312-.208l.052-.026c.052-.017.078-.086.078-.208l.156-.156.104-.078c.07 0 .2-.078.39-.234.208-.173.45-.372.728-.598.19-.138.364-.208.52-.208.399-.121.72.009.962.39.26.382.39.876.39 1.482l-.546 1.404.936-1.144c.104-.138.208-.26.312-.364.121-.104.225-.19.312-.26.035-.121.087-.19.156-.208l.104-.026h.052c.035-.017.052-.052.052-.104.087-.07.182-.13.286-.182a.59.59 0 0 0 .208-.208c.295-.121.563-.138.806-.052.243.07.45.286.624.65.121.208.19.39.208.546.017.156.026.39.026.702-.035.26-.07.468-.104.624-.017.139-.035.286-.052.442a53.59 53.59 0 0 1-.078.65 1.3 1.3 0 0 0-.13.442v.442c0 .226.009.382.026.468.017.07.087.104.208.104.243-.052.572-.173.988-.364.433-.208.754-.407.962-.598.26-.242.485-.364.676-.364.208-.017.338.078.39.286.035.07-.026.226-.182.468a4.701 4.701 0 0 1-.494.702c-.173.226-.303.338-.39.338-.052 0-.113.052-.182.156a.883.883 0 0 1-.234.208 6.523 6.523 0 0 1-.364.338.499.499 0 0 1-.364.156.613.613 0 0 0-.26.078.841.841 0 0 1-.312.052c-.173.052-.442.026-.806-.078-.347-.104-.572-.346-.676-.728-.07-.19-.13-.494-.182-.91a4.666 4.666 0 0 1 .026-1.3 5.76 5.76 0 0 0 .13-.858c.017-.26.052-.442.104-.546v-.364c0-.208-.026-.312-.078-.312-.07 0-.234.13-.494.39-.243.243-.537.555-.884.936-.33.382-.659.78-.988 1.196-.33.416-.598.789-.806 1.118-.156.19-.295.425-.416.702-.121.278-.208.434-.26.468-.121.139-.269.156-.442.052a1.566 1.566 0 0 1-.442-.494 1.336 1.336 0 0 1-.104-.26 1.086 1.086 0 0 1 0-.338c.035-.156.095-.381.182-.676.104-.294.243-.71.416-1.248.19-.59.355-1.118.494-1.586l.234-.728c0-.07-.13 0-.39.208-.26.19-.563.434-.91.728-.156.19-.416.477-.78.858-.364.382-.763.815-1.196 1.3-.433.486-.85.997-1.248 1.534-.503.71-.858 1.144-1.066 1.3-.19.156-.381.113-.572-.13Z" fill="#000"/><circle cx="232.226" cy="127.56" r="12.405" fill="#FF00CE"/><path fill-rule="evenodd" clip-rule="evenodd" d="M196.811 139.206h17.244v-.051c10.158-.733 18.171-9.207 18.171-19.552 0-10.827-8.776-19.604-19.603-19.604-6.299 0-11.904 2.971-15.491 7.588a16.966 16.966 0 0 0-.321-.004c-8.732 0-15.811 7.079-15.811 15.812 0 8.613 6.887 15.618 15.454 15.807v.004h.357Z" fill="#0086FF"/><path fill-rule="evenodd" clip-rule="evenodd" d="M231.722 115.165c-6.617.265-11.9 5.713-11.9 12.395 0 3.307 1.294 6.311 3.403 8.535 5.415-3.488 9.001-9.571 9.001-16.492 0-1.526-.174-3.012-.504-4.438Z" fill="#1E1E9A"/></svg>