<svg viewBox="0 0 80 80" fill="none" xmlns="http://www.w3.org/2000/svg"><g clip-path="url(#a)"><path d="M31.758 59.553 12.181 49.146V34.914l18.232-10.047 37.68 21.675v13.726l-17.78 10.2-18.556-10.915Z" fill="#fff"/><path fill-rule="evenodd" clip-rule="evenodd" d="M49.625 54.1c.272 0 .493.22.493.493v16.509a.494.494 0 1 1-.987 0V54.593c0-.272.22-.493.494-.493Zm18.078-11.772c.272 0 .493.221.493.494v18.111a.494.494 0 0 1-.987 0V42.822c0-.273.221-.494.494-.494Zm-55.76-9.859c.273 0 .494.22.494.493v16.84a.494.494 0 1 1-.988 0v-16.84c0-.272.221-.493.494-.493Z" fill="#000"/><path fill-rule="evenodd" clip-rule="evenodd" d="M10.968 34.262a.494.494 0 0 1 .673-.187l40.082 22.656a.494.494 0 1 1-.486.86L11.155 34.934a.494.494 0 0 1-.187-.673ZM10.597 48.2a.494.494 0 0 1 .673-.187l40.082 22.655a.494.494 0 1 1-.486.86L10.784 48.873a.494.494 0 0 1-.187-.673ZM30.81 25.446a.494.494 0 0 1 .673-.187l36.851 20.83a.494.494 0 1 1-.486.859l-36.851-20.83a.494.494 0 0 1-.187-.672Z" fill="#000"/><path fill-rule="evenodd" clip-rule="evenodd" d="M10.966 35.368a.494.494 0 0 1 .193-.67l19.857-10.98a.494.494 0 1 1 .478.865L11.637 35.562a.494.494 0 0 1-.67-.194ZM49.2 57.145a.494.494 0 0 1 .173-.676l18.69-11.061a.494.494 0 1 1 .503.85l-18.69 11.06a.494.494 0 0 1-.676-.173Zm-.828 14.459a.494.494 0 0 1 .18-.674l20.034-11.557a.494.494 0 1 1 .494.855L49.046 71.785a.494.494 0 0 1-.674-.181Z" fill="#000"/><path fill-rule="evenodd" clip-rule="evenodd" d="M65.77 47.006a.494.494 0 0 1 .345.606L61.53 64.365a.494.494 0 0 1-.953-.26l4.587-16.753a.494.494 0 0 1 .606-.346Zm-5.28 3.519a.494.494 0 0 1 .347.606l-4.59 16.903a.494.494 0 1 1-.953-.259l4.59-16.903a.494.494 0 0 1 .606-.347Zm7.73 1.711c.264.07.42.342.35.605l-2.454 9.107a.494.494 0 0 1-.954-.257l2.454-9.107a.494.494 0 0 1 .605-.348Zm-13.25 1.9a.494.494 0 0 1 .348.606l-4.307 15.86a.494.494 0 0 1-.953-.26l4.307-15.858a.494.494 0 0 1 .606-.347ZM23.84 48.12c.027.335-.134.626-.366.859-.352.351-.865.484-1.318.43-.457-.053-.945-.312-1.152-.85a.494.494 0 0 1-.098-.639l.001-.007a.78.78 0 0 1 .412-.588c.208-.197.483-.332.837-.337.393-.005.923.135 1.28.422.184.148.38.383.405.71Zm-1.92.072c.05.002.107.007.173.017a.494.494 0 0 0 .446-.17.92.92 0 0 1 .303.162.524.524 0 0 1-.067.08c-.103.103-.3.172-.504.148-.195-.023-.306-.116-.348-.23l-.003-.007Zm.944.034-.002-.002.002.002Zm-.007-.052.001-.004v.004Zm7.667 3.618c.027.334-.135.626-.367.858-.352.352-.865.485-1.317.432-.457-.054-.946-.313-1.153-.851a.494.494 0 0 1-.12-.595l.023-.044v-.007a.78.78 0 0 1 .412-.589c.209-.197.484-.33.838-.336.392-.005.922.135 1.28.421.184.149.379.384.404.71Zm-1.92.071c.049.002.107.008.173.017a.493.493 0 0 0 .446-.168.918.918 0 0 1 .303.161.53.53 0 0 1-.067.08c-.104.103-.3.172-.504.148-.195-.023-.306-.116-.348-.23l-.003-.008Zm.943.035-.001-.002.001.002Zm-.006-.052.001-.004-.001.004Zm8.362 4.239c.027.334-.135.626-.367.858-.352.352-.865.485-1.318.432-.456-.054-.945-.313-1.152-.851a.494.494 0 0 1-.12-.595l.023-.044v-.007a.78.78 0 0 1 .412-.589c.209-.197.484-.33.838-.336.392-.005.922.135 1.279.421.185.149.38.384.405.71Zm-1.92.071c.049.002.106.008.173.017a.493.493 0 0 0 .446-.168.92.92 0 0 1 .303.161.524.524 0 0 1-.067.08c-.104.103-.3.172-.504.148-.196-.023-.306-.116-.348-.23l-.003-.008Zm.943.035-.001-.002.001.002Zm-.006-.052v-.004.004Z" fill="#000"/><path d="M52.782 45.727s12.37.456 11.185-8.065c-.482-3.47-1.745-6.387-5.887-8.822 3.33-13.04-7.536-21-15.177-16.973-1.2.632-7.284-8.33-14.086-4.162-6.802 4.167-8.49 13.059-5.136 18.943 3.354 5.885 29.101 19.08 29.101 19.08Z" fill="#CF2318"/><path fill-rule="evenodd" clip-rule="evenodd" d="M60.407 30.753c1.314.443 2.611 1.264 3.244 2.404 1.246 2.25 1.68 5.147.237 7.774-1.511 2.751-3.409 5.07-6.573 5.587-.63.103-1.375.017-2.177-.182-.808-.2-1.711-.525-2.67-.933-1.918-.816-4.105-1.985-6.278-3.222-1.466-.834-2.938-1.707-4.321-2.527-.666-.395-1.312-.778-1.927-1.138-1.908-1.12-3.508-2.019-4.558-2.45a.494.494 0 1 1 .375-.913c1.126.462 2.789 1.4 4.683 2.511.623.365 1.273.75 1.94 1.147a283.25 283.25 0 0 0 4.297 2.512c2.165 1.232 4.311 2.378 6.175 3.171.932.397 1.783.7 2.522.884.747.185 1.342.237 1.78.166 2.696-.44 4.393-2.406 5.867-5.089 1.237-2.254.893-4.782-.236-6.819-.465-.84-1.502-1.544-2.695-1.947-1.199-.404-2.404-.453-3.144-.149a.494.494 0 1 1-.376-.913c1.051-.432 2.526-.315 3.835.126Z" fill="#000"/><path fill-rule="evenodd" clip-rule="evenodd" d="M55.333 12.994c3.058 2.782 4.888 7.128 4.837 11.423-.011.886-.226 3.56-1.372 6.302a.494.494 0 1 1-.911-.38c1.083-2.592 1.286-5.133 1.296-5.934.047-4.028-1.677-8.098-4.514-10.68-2.817-2.565-6.733-3.67-11.175-1.808m11.84 1.077c-3.078-2.801-7.398-4.01-12.222-1.987l12.221 1.987Zm-12.222-1.987Zm0 0c-1.071.45-2.383 1.253-3.314 2.036l3.314-2.036Zm.382.91c-.976.41-2.203 1.161-3.06 1.882a.494.494 0 1 1-.636-.756" fill="#000"/><path fill-rule="evenodd" clip-rule="evenodd" d="M30.048 7.527c4.228-1.545 9.06-.64 11.682 2.732l-.39.303.39-.303c.249.32.583.933.865 1.527.281.592.551 1.25.638 1.666a.494.494 0 1 1-.966.203c-.061-.29-.284-.855-.564-1.445-.28-.589-.575-1.117-.752-1.344-2.3-2.958-6.64-3.845-10.564-2.411-3.892 1.42-7.335 5.124-7.746 11.306-.179 2.675.024 5.921 1.837 8.196l-.035-.03-.322.375.384-.31-.027-.035c2.875 2.464 6.823 4.656 9.805 6.312.869.482 1.655.919 2.31 1.304a.494.494 0 0 1-.501.85c-.619-.363-1.377-.784-2.223-1.254-2.997-1.663-7.105-3.943-10.07-6.492a.496.496 0 0 1-.062-.065c-2.089-2.587-2.263-6.19-2.081-8.916l.492.033-.492-.033c.437-6.567 4.13-10.612 8.392-12.169Z" fill="#000"/><path d="M45.89 24.93c5.488 10.56-.973 15.77-2.085 16.396l-3.473 2.014c-5.225 1.112-9.31-3.705-10.7-6.252-3.89-8.727.278-13.873 2.849-15.355 6.002-4.113 11.44.417 13.409 3.196Z" fill="#fff"/><path d="M32.57 37.996c.746 1.208 4.869 3.347 6.83 2.671 9.364-5.24-1.251-16.059.507-17.31 1.758-1.25 7.776 8.216 4.7 16.296-.49 1.286-1.877 2.497-2.57 2.84-2.739 1.352-4.497 1.116-6.897.304-2.6-.878-4.767-4.429-6.559-8.046-1.792-3.618 1.082-10.244 1.792-11.394.71-1.15 5.51-3.752 8.689-3.178 3.178.575 6.22 4.632 7.674 6.931 1.454 2.3 1.454 8.08 1.15 8.824-.305.744-1.108 4.429-2.908 4.429-.372 0 1.42-3.685.879-8.283-.147-1.246-2.197-6.187-4.09-8.215-1.894-2.029-4.464-2.84-6.627-2.942-2.164-.101-4.023 5.376-4.767 6.728-.744 1.352-1.454 4.429 2.197 10.345Z" fill="#CF2318"/><path d="m31.049 25.552.236-2.299 3.314-2.366 7.573 1.42-1.014 4.023c-.925-.676-3.24-2.157-5.106-2.671-1.866-.514-4.113 1.048-5.003 1.893Z" fill="#CF2318"/><path d="M39.467 25.383 33.043 38.23l1.657 1.488 6.49-12.07-1.723-2.265Z" fill="#CF2318"/><path fill-rule="evenodd" clip-rule="evenodd" d="M29.055 26.67c-.766 2.345-.765 5.252.213 8.158.977 2.906 2.734 5.223 4.761 6.628 2.028 1.406 4.295 1.883 6.345 1.194 2.05-.69 3.568-2.441 4.333-4.786.766-2.345.765-5.253-.213-8.159-.977-2.905-2.734-5.222-4.762-6.628-2.027-1.405-4.295-1.883-6.344-1.193-2.05.69-3.568 2.44-4.333 4.786Zm-.94-.307c.839-2.566 2.544-4.603 4.958-5.415 2.413-.812 5.003-.22 7.222 1.318 2.219 1.538 4.096 4.037 5.135 7.124 1.039 3.087 1.054 6.214.216 8.78-.838 2.566-2.544 4.604-4.957 5.416-2.413.812-5.004.22-7.222-1.318-2.219-1.538-4.097-4.038-5.135-7.125-1.039-3.087-1.054-6.213-.216-8.78Z" fill="#000"/><path fill-rule="evenodd" clip-rule="evenodd" d="M30.825 28.03c-.575 1.763-.576 3.955.163 6.15.738 2.195 2.063 3.94 3.587 4.997 1.524 1.056 3.215 1.407 4.736.895 1.52-.511 2.656-1.813 3.23-3.576.576-1.762.577-3.954-.161-6.15-.739-2.194-2.064-3.94-3.588-4.996-1.524-1.056-3.215-1.407-4.736-.895-1.52.511-2.655 1.813-3.23 3.576Zm-.938-.306c.647-1.984 1.97-3.572 3.854-4.205 1.884-.634 3.898-.17 5.614 1.02 1.715 1.188 3.161 3.117 3.96 5.493.8 2.376.813 4.787.166 6.77-.648 1.984-1.971 3.572-3.855 4.206-1.884.634-3.898.169-5.613-1.02-1.715-1.189-3.162-3.117-3.961-5.493-.8-2.377-.813-4.787-.165-6.771Z" fill="#000"/><path fill-rule="evenodd" clip-rule="evenodd" d="M40.882 21.39c-2.47-1.146-5.435-1.13-8.555.902a.494.494 0 1 1-.539-.827c3.395-2.212 6.72-2.265 9.51-.972 2.764 1.282 4.955 3.863 6.188 6.847 1.234 2.985 1.532 6.43.44 9.47-1.097 3.061-3.585 5.66-7.81 6.952a.494.494 0 1 1-.29-.944c3.947-1.206 6.185-3.593 7.171-6.341.994-2.768.735-5.956-.424-8.76-1.16-2.806-3.197-5.171-5.691-6.328Z" fill="#000"/><path fill-rule="evenodd" clip-rule="evenodd" d="M41.925 20.586a.494.494 0 0 1-.256.65 10.327 10.327 0 0 0-.759.376 19.42 19.42 0 0 1-.613.313c-.494.237-1.059.459-1.66.48a.494.494 0 1 1-.037-.986c.394-.015.808-.163 1.27-.384.192-.093.381-.192.578-.295l.112-.06c.232-.12.474-.245.715-.35a.494.494 0 0 1 .65.256Zm2.218 2.192a.494.494 0 0 1-.327.617 11.55 11.55 0 0 0-1.088.412 67.74 67.74 0 0 0-.23.098c-.296.125-.603.256-.913.373a.494.494 0 0 1-.346-.925c.287-.108.568-.228.86-.352.081-.035.162-.07.245-.104.376-.159.77-.319 1.182-.445.26-.08.536.066.617.326Zm1.602 2.665a.494.494 0 0 1-.313.625 37.2 37.2 0 0 0-.693.241c-.344.123-.701.25-1.039.356a.494.494 0 0 1-.295-.942c.336-.106.645-.216.963-.33.241-.086.486-.173.752-.262a.494.494 0 0 1 .625.312Zm1.76 2.737a.494.494 0 0 1-.233.658l-.055.026c-.677.323-1.388.662-2.155.893a.494.494 0 0 1-.285-.946c.694-.209 1.346-.52 2.044-.852l.026-.012a.494.494 0 0 1 .658.233Zm.393 3.02a.494.494 0 0 1-.375.588 2.666 2.666 0 0 0-.476.17l-.22.09c-.418.17-.807.169-1.14.168h-.055a.494.494 0 1 1 0-.987c.378 0 .59-.002.826-.096l.148-.062c.199-.085.444-.189.703-.247a.494.494 0 0 1 .589.375Zm.114 3.422a.494.494 0 0 1-.347.606c-.558.152-1.096.212-1.637.254a.494.494 0 1 1-.076-.985c.523-.04.986-.094 1.454-.222a.494.494 0 0 1 .606.347Zm-.817 3.058a.494.494 0 0 1-.447.536c-.23.02-.461.04-.688.057l-.03.002c-.239.02-.474.038-.707.06a.494.494 0 0 1-.092-.983c.242-.023.483-.042.72-.06l.029-.003c.229-.018.454-.036.679-.056a.494.494 0 0 1 .536.447Zm-7.432-12.058-6.525 12.613-.877-.454 6.524-12.613.878.454Zm1.851 1.944-6.83 12.531-.867-.472 6.83-12.531.867.472Z" fill="#000"/></g><defs><clipPath id="a"><path fill="#fff" d="M.43.809h79v79h-79z"/></clipPath></defs></svg>