<svg fill="none" viewBox="0 0 30 21" xmlns="http://www.w3.org/2000/svg"><path d="m20.705 6.01c-.514-.952-1.234-3.428 0-4.19 1.235-.762 5.728-.952 5.91 2.206-1.272 1.434-1.453 2.937-2.63 3.227-.294.072-.042 1.249.269.896 1.452-2.869 4.78-7.119 5.446-6.329.772.914-3.465 5.206-5.716 7.238l2.701 6.285s.965 1.714-9.454 0c-.193-.032.761 2.238 1.544 3.81.697 1.398-.124 1.926-.965 1.333-6.753-4.762-7.91-2.476-7.91-2.476l-1.93 1.523-1.35.19-.386-7.808-3.473-4.952c-1.028-.064-2.777-.496-1.541-1.714 1.234-1.22 2.315.317 2.315.952l3.087 5.142.579-1.333c-.9-.825-2.161-2.857 0-4.38 2.16-1.524 4.437-.128 5.402.761.128-.635.694-2.057 1.157-2.666.463-.61 1.094-.635 1.351-.572.303.124.772.762.386 1.334-.579.571-.35-.568-.965.19-.706.872-1.682 5.041-1.596 5.498l.053.026c-.027.026-.045.016-.053-.026l-.719-.355 3.087 2.666s1.35-4 3.28-5.523c.193-.153-3.087-3.81-3.087-3.81l-.773-2.285c.618-.305 3.345 3.746 4.438 5.714z" fill="#e4f7e1"/><g clip-rule="evenodd" fill="#1e5c1f" fill-rule="evenodd"><path d="m22.905 1.207c1.25-.007 2.552.462 3.368 1.278.444.444.602.992.564 1.552a.128.128 0 0 1 -.137.117.127.127 0 0 1 -.12-.135c.035-.498-.104-.971-.489-1.356-.76-.76-1.992-1.21-3.185-1.203-.73.004-1.435.178-2.004.548a.128.128 0 0 1 -.064.042c-.27.186-.507.417-.7.697a1.733 1.733 0 0 0 -.02.103c-.066.411-.005.897.046 1.295l.004.032c.124.984.335 1.675 1.115 2.22a4.33 4.33 0 0 0 1.395.627c.517.128 1.046.15 1.5.011.181-.056.368-.142.554-.253a.13.13 0 0 1 .177.042.126.126 0 0 1 -.044.174c-.2.12-.406.216-.611.279-.328.1-.683.125-1.039.094a.125.125 0 0 1 .024.12.129.129 0 0 1 -.16.082c-1.056-.33-2.244-.846-2.987-1.613-.373-.385-.64-.839-.714-1.367-.075-.528.043-1.117.411-1.768a3.03 3.03 0 0 1 .11-.18 1.24 1.24 0 0 1 .229-.478c.141-.175.34-.3.608-.355.623-.412 1.391-.6 2.169-.605zm-3.072 2.103c-.2.465-.253.88-.201 1.249.066.463.3.87.645 1.227a3.9 3.9 0 0 0 .228.215c-.367-.5-.503-1.091-.592-1.791l-.006-.045c-.031-.25-.07-.552-.074-.855z"/><path d="m20.632 5.787a.126.126 0 0 1 -.071.164c-.47.186-.834.476-1.31.864a.13.13 0 0 1 -.18-.017.126.126 0 0 1 .017-.178c.472-.385.865-.702 1.377-.904a.129.129 0 0 1 .167.07zm-1.914 1.223a.126.126 0 0 1 -.005.18c-1.461 1.37-2.73 3.493-3.36 5.48a.128.128 0 0 1 -.245-.075c.64-2.023 1.931-4.185 3.429-5.59a.13.13 0 0 1 .18.005zm8.177 7.839c.07.008.12.072.112.141-.07.55-.405.863-.825 1.034-.411.168-.911.204-1.341.214-2.588.062-5.188-.266-7.7-.903a.126.126 0 1 1 .063-.246c2.493.632 5.07.957 7.63.896.429-.01.887-.046 1.25-.195.355-.144.612-.39.668-.831a.128.128 0 0 1 .143-.11z"/><path d="m24.082 7.137c.071 0 .129.056.129.126 0 2.63.918 4.5 1.98 6.667.233.472.471.959.709 1.47a.126.126 0 0 1 -.063.168.129.129 0 0 1 -.17-.062 66.563 66.563 0 0 0 -.7-1.45c-1.065-2.17-2.013-4.1-2.013-6.793 0-.07.058-.126.128-.126z"/><path d="m28.102 2.721c-1.012.946-2.375 2.716-3.732 5.485a.129.129 0 0 1 -.172.059.126.126 0 0 1 -.06-.17c1.367-2.788 2.747-4.585 3.788-5.558.517-.483.962-.773 1.287-.87.16-.049.32-.058.444.015.133.079.179.224.173.378a.125.125 0 0 1 -.006.036c-.373 1.101-1.342 2.374-2.407 3.626-.384.452-.78.901-1.169 1.341-.697.79-1.368 1.55-1.891 2.24a.13.13 0 0 1 -.18.024.126.126 0 0 1 -.025-.177c.528-.695 1.21-1.469 1.912-2.264.387-.439.78-.884 1.156-1.326 1.063-1.25 1.995-2.48 2.354-3.526 0-.092-.03-.123-.05-.134-.03-.019-.101-.032-.237.009-.267.08-.676.336-1.185.812zm-13.188-1.328c.018.162.052.326.09.453.201.686.74 1.425 1.194 2.005a40.3 40.3 0 0 0 1.587 1.866l.146.166c.592.669 1.183 1.345 1.72 2.066a.126.126 0 0 1 -.027.177.13.13 0 0 1 -.18-.027c-.53-.712-1.114-1.38-1.706-2.05l-.147-.166a40.558 40.558 0 0 1 -1.596-1.877c-.451-.576-1.02-1.35-1.238-2.09a3.007 3.007 0 0 1 -.098-.495 1.635 1.635 0 0 1 .008-.504.492.492 0 0 1 .09-.206.286.286 0 0 1 .216-.11.473.473 0 0 1 .255.078c.086.05.18.127.284.23 1.069 1.054 1.702 2.195 2.388 3.43l.292.524c.355.63.724 1.25 1.084 1.784a.126.126 0 0 1 -.035.175.13.13 0 0 1 -.178-.035 26.667 26.667 0 0 1 -1.095-1.801l-.294-.527c-.687-1.237-1.302-2.344-2.343-3.372a1.269 1.269 0 0 0 -.234-.19c-.062-.037-.098-.043-.114-.042-.009 0-.015.002-.025.014a.251.251 0 0 0 -.04.101 1.4 1.4 0 0 0 -.004.423zm6.932 2.575a.13.13 0 0 1 .172-.056c.527.26 1.081.486 1.646.715l.157.064c.138.057.28.11.423.165.338.129.683.26 1.009.433a.858.858 0 0 1 .15.096.28.28 0 0 1 .053.058.17.17 0 0 1 .029.099c-.003.093-.08.135-.11.148a.496.496 0 0 1 -.125.033 3.137 3.137 0 0 1 -.297.022h-.01a4.3 4.3 0 0 0 -.288.02c-.613.072-1.006-.008-1.334-.246a2.312 2.312 0 0 1 -.436-.437c-.098-.122-.198-.26-.308-.41l-.141-.191a.125.125 0 0 1 -.022-.103 14.687 14.687 0 0 1 -.511-.24.126.126 0 0 1 -.057-.17zm.954.577c.103.141.196.267.286.38a2.1 2.1 0 0 0 .387.39c.257.186.576.266 1.152.198a4.35 4.35 0 0 1 .302-.02h.015a7.72 7.72 0 0 0 .137-.008c-.295-.152-.598-.267-.91-.386a20.353 20.353 0 0 1 -.604-.238c-.256-.104-.512-.208-.765-.316zm2.471.913-.001.001h.001zm-16.161-.384c1.25-.006 2.552.462 3.369 1.278.05.05.049.13-.002.18a.13.13 0 0 1 -.18-.002c-.761-.76-1.993-1.209-3.186-1.203-.73.004-1.435.179-2.004.548a.128.128 0 0 1 -.064.042c-.27.186-.507.417-.7.697a1.693 1.693 0 0 0 -.02.103c-.066.411-.005.897.046 1.295l.004.033c.124.983.335 1.675 1.115 2.219a4.33 4.33 0 0 0 1.395.627c.517.128 1.046.15 1.5.011.616-.189 1.281-.72 1.758-1.39a.13.13 0 0 1 .18-.03c.057.04.07.119.03.176-.5.7-1.207 1.276-1.892 1.486a2.74 2.74 0 0 1 -1.039.094.125.125 0 0 1 .024.12.129.129 0 0 1 -.16.082c-1.056-.329-2.244-.845-2.987-1.612-.373-.386-.64-.84-.714-1.368-.075-.528.043-1.117.411-1.768.035-.062.072-.122.11-.18a1.24 1.24 0 0 1 .23-.478c.14-.174.34-.3.607-.355.623-.412 1.391-.6 2.169-.605zm-3.072 2.102c-.2.465-.253.88-.201 1.25.066.462.3.87.646 1.227.071.073.147.145.227.214-.367-.5-.503-1.091-.592-1.79l-.005-.046a7.78 7.78 0 0 1 -.075-.855z"/><path d="m7.188 10.2c.06.038.076.117.038.175-.853 1.299-1.004 3.026-.934 4.735.034.835.12 1.658.2 2.418l.006.05c.08.772.154 1.482.154 2.061 0 .07-.057.127-.128.127a.127.127 0 0 1 -.128-.127c0-.563-.072-1.259-.153-2.034l-.006-.053a38.283 38.283 0 0 1 -.201-2.431c-.07-1.72.076-3.516.975-4.884a.13.13 0 0 1 .177-.037z"/><path d="m12.116 17.23a.13.13 0 0 1 .06.014c.68.335 1.446.755 2.213 1.18l.309.172c.665.369 1.322.734 1.92 1.045.692.36 1.293.641 1.726.772.22.067.379.089.48.075.047-.007.072-.02.085-.033.012-.01.024-.028.029-.066a.128.128 0 0 1 .143-.11c.07.009.12.072.111.141a.35.35 0 0 1 -.109.221.41.41 0 0 1 -.223.098c-.16.022-.364-.015-.59-.084-.46-.138-1.08-.43-1.772-.79-.6-.313-1.262-.68-1.927-1.049l-.307-.17a55.698 55.698 0 0 0 -2.173-1.162c-.887.026-1.523.244-2.018.534-.49.287-.846.648-1.176.981-.008.01-.017.018-.026.027-.33.335-.65.655-1.055.793-.417.143-.9.088-1.545-.255a.126.126 0 0 1 -.053-.172.13.13 0 0 1 .174-.051c.609.323 1.014.35 1.34.239.337-.115.615-.386.956-.73l.031-.033c.327-.33.704-.712 1.223-1.017.54-.316 1.229-.547 2.174-.57z"/><path d="m12.86 10.22a.13.13 0 0 1 .18-.013c1.907 1.635 3.443 3.67 4.503 5.573 1.057 1.899 1.65 3.683 1.65 4.815 0 .07-.057.126-.128.126a.127.127 0 0 1 -.128-.126c0-1.068-.569-2.806-1.619-4.692-1.048-1.882-2.566-3.893-4.446-5.505a.126.126 0 0 1 -.012-.179z"/><path d="m13.683 3.855c-.035.06-.07.117-.102.168-1.259 1.978-1.227 4.506-.976 6.852.174-.85.357-1.7.569-2.542.133-.532.295-1.058.455-1.58l.06-.195c.18-.587.355-1.171.485-1.764a7.66 7.66 0 0 1 .064-.258l.022-.085c.03-.12.06-.24.08-.361.042-.244.046-.465-.03-.64-.073-.164-.129-.181-.14-.183-.019-.002-.065.008-.147.093a1.98 1.98 0 0 0 -.23.313l-.107.178zm-.983 7.838c.223-1.106.448-2.208.723-3.299.132-.526.291-1.045.452-1.567l.06-.195c.18-.588.357-1.18.49-1.784.017-.077.038-.158.06-.246l.024-.09c.03-.12.061-.25.084-.38.044-.257.059-.538-.048-.782-.079-.18-.186-.314-.342-.334-.15-.02-.277.077-.365.169-.095.098-.184.23-.262.355a5.507 5.507 0 0 0 -.11.181l-.004.005-.098.163c-1.453 2.282-1.241 5.246-.923 7.794l-.027.135-.143.702a6.534 6.534 0 0 0 -.08.546l-.02.17a3.196 3.196 0 0 1 -.144.668.126.126 0 0 0 .078.162.129.129 0 0 0 .164-.077c.085-.238.125-.483.156-.721l.022-.18c.02-.177.041-.348.076-.518l.082-.406a.127.127 0 0 0 .137-.142l-.042-.33zm-10.471-6.054c.018.162.052.326.09.453.201.686.74 1.425 1.195 2.005a40.336 40.336 0 0 0 1.586 1.866l.147.166c.592.669 1.183 1.345 1.72 2.066a.126.126 0 0 1 -.028.177.13.13 0 0 1 -.179-.027c-.53-.712-1.114-1.38-1.706-2.05l-.148-.166a40.379 40.379 0 0 1 -1.595-1.877c-.452-.576-1.021-1.35-1.239-2.09a3.02 3.02 0 0 1 -.098-.495 1.636 1.636 0 0 1 .009-.504.493.493 0 0 1 .09-.206.286.286 0 0 1 .215-.11.473.473 0 0 1 .256.078c.085.05.18.127.283.23.978.964 1.634 2.183 2.27 3.366.158.293.315.583.474.867.118.209.253.417.392.631.07.107.14.215.209.325.206.328.403.671.524 1.029a.126.126 0 0 1 -.081.16.129.129 0 0 1 -.163-.08c-.11-.328-.294-.65-.498-.975a26.204 26.204 0 0 0 -.2-.313 11.226 11.226 0 0 1 -.407-.654c-.165-.293-.325-.59-.485-.887-.635-1.18-1.269-2.356-2.216-3.29a1.274 1.274 0 0 0 -.234-.192c-.062-.036-.098-.042-.113-.041-.01 0-.016.002-.025.014a.25.25 0 0 0 -.04.101 1.4 1.4 0 0 0 -.005.423zm7.711 3.027a2.087 2.087 0 0 1 -.095.005c-.322.008-.643.027-.968.046l-.13.008c-.368.022-.74.042-1.113.042a.127.127 0 0 1 -.128-.127c0-.07.057-.127.128-.127.365 0 .73-.02 1.098-.04l.13-.009c.324-.019.65-.038.977-.046.024 0 .051-.002.083-.004h.008c.029-.003.06-.005.093-.006a.736.736 0 0 1 .224.018.13.13 0 0 1 .095.132.19.19 0 0 1 -.007.043.567.567 0 0 1 -.022.062 4.007 4.007 0 0 1 -.207.415c-.246.386-.574.649-1.05.734-.288.052-.542.072-.778.012-.24-.06-.446-.2-.646-.436a.126.126 0 0 1 .016-.179.13.13 0 0 1 .181.017c.174.206.337.308.513.353.18.045.39.034.668-.016.392-.07.663-.282.879-.62a4.226 4.226 0 0 0 .145-.282 3.15 3.15 0 0 0 -.086.005z"/><path d="m2.57 5.32c.17.11.304.269.32.482.006.09.003.174-.01.253.025.152.02.31.004.458a.663.663 0 0 1 -.16.385.383.383 0 0 1 -.195.11.463.463 0 0 1 -.248-.02 1.366 1.366 0 0 1 -.336-.159 1.186 1.186 0 0 1 -.894-.359.61.61 0 0 1 -.139-.263 1.174 1.174 0 0 1 .01-.64.54.54 0 0 1 .157-.249.735.735 0 0 0 -.19.056.129.129 0 0 1 -.171-.057.126.126 0 0 1 .057-.17c.13-.064.323-.097.526-.106.208-.008.441.008.663.052.22.043.438.116.607.227zm-.86 1.237a.932.932 0 0 1 -.474-.262.368.368 0 0 1 -.076-.155.925.925 0 0 1 .006-.494.284.284 0 0 1 .083-.137.35.35 0 0 1 .189-.052c.091-.005.2.004.313.025.04.007.079.015.117.024v.001l-.05.15c-.035.1-.068.2-.094.29-.04.137-.068.275-.06.407a.6.6 0 0 0 .046.203zm.63.184.024.008a.21.21 0 0 0 .11.012.126.126 0 0 0 .065-.038.353.353 0 0 0 .077-.164.953.953 0 0 1 -.276.182zm.279-.687a.65.65 0 0 1 -.459.484.836.836 0 0 1 -.135.03.323.323 0 0 1 -.106-.23.994.994 0 0 1 .052-.322 5.16 5.16 0 0 1 .087-.27l.054-.16a.12.12 0 0 0 .003-.01c.083.029.153.058.202.083a.554.554 0 0 1 .302.395zm12.367-3.11c.412.116.83.433.83.888v.06c.001.123.002.28-.017.433-.023.175-.076.371-.213.507a.314.314 0 0 1 -.252.077.894.894 0 0 1 -.237-.06 2.967 2.967 0 0 1 -.286-.13 1.454 1.454 0 0 1 -.755-.317.918.918 0 0 1 -.31-.479.88.88 0 0 1 .092-.625c.216-.416.736-.47 1.148-.354zm.364 1.712h.004c.037.004.05-.003.051-.004a.347.347 0 0 0 .057-.077.545.545 0 0 1 -.112.081zm0-1.24a1.1 1.1 0 0 0 -.435-.229c-.322-.09-.628-.042-.789.139a.128.128 0 0 1 .147.121c.01.299.034.487.112.633.074.14.208.257.484.383l.016.008c.086.007.171.005.253-.007.105-.016.184-.087.242-.202a.895.895 0 0 0 .083-.382.652.652 0 0 0 -.016-.18c-.004-.014-.008-.018-.008-.019h-.002a.267.267 0 0 0 -.095-.011l-.1.001-.133.002a.127.127 0 0 1 -.128-.127c0-.07.058-.126.128-.126l.126-.002h.004c.037 0 .073-.002.106-.001h.005zm-1.331.104c.01.22.03.41.093.576a.601.601 0 0 1 -.117-.232.587.587 0 0 1 .024-.344z"/></g></svg>