<svg viewBox="0 0 55 31" fill="none" xmlns="http://www.w3.org/2000/svg"><path d="m40.763 21.046 3.99 6.868c5.622-4.032 6.301-6.346 6.82-9.26l-3.361-5.323-3.378 5.157-4.07 2.558Z" fill="#FF479F"/><path fill-rule="evenodd" clip-rule="evenodd" d="M44.236 29.17a.405.405 0 0 1 .227-.528c.745-.296 2.693-1.272 4.351-2.924 1.652-1.647 2.983-3.929 2.609-6.867a.407.407 0 0 1 .356-.454.41.41 0 0 1 .458.353c.416 3.268-1.08 5.785-2.84 7.54-1.756 1.75-3.809 2.78-4.627 3.106a.412.412 0 0 1-.534-.225Z" fill="#000"/><path fill-rule="evenodd" clip-rule="evenodd" d="M40.781 21.487a.413.413 0 0 1 .558.16c1.21 2.178 2.11 3.634 3.259 5.488.421.681.876 1.416 1.392 2.26a.404.404 0 0 1-.139.558.413.413 0 0 1-.564-.137c-.51-.836-.962-1.566-1.383-2.245-1.152-1.86-2.065-3.336-3.285-5.532a.404.404 0 0 1 .162-.552Z" fill="#000"/><path fill-rule="evenodd" clip-rule="evenodd" d="M40.038 22.338a.405.405 0 0 1 .25-.518c3.643-1.274 5.934-3.6 8.027-7.725a.412.412 0 0 1 .55-.181c.203.1.285.345.183.545-2.156 4.252-4.587 6.763-8.486 8.127a.412.412 0 0 1-.524-.248Z" fill="#000"/><path fill-rule="evenodd" clip-rule="evenodd" d="M47.991 13.848a.413.413 0 0 1 .571.102c.7.999 1.336 1.96 1.968 2.916l.001.002c.634.957 1.264 1.91 1.957 2.899a.404.404 0 0 1-.103.565.413.413 0 0 1-.572-.102c-.7-.999-1.335-1.96-1.967-2.916l-.002-.002c-.633-.957-1.263-1.91-1.956-2.899a.404.404 0 0 1 .103-.565Z" fill="#000"/><path d="M35.366 2.72c-.4 1.22 1.394 7.007 2.751 9.575-3.01.987-10.558 2.744-12.67 4.195 3.474-5.1 10.32-14.992 9.919-13.77Z" fill="#00ADE4"/><path fill-rule="evenodd" clip-rule="evenodd" d="M39.389 12.73a.412.412 0 0 1-.534-.226c-1.073-2.666-2.584-7.099-3.324-10.754a.41.41 0 0 1 .805-.16c.727 3.591 2.22 7.974 3.282 10.613a.405.405 0 0 1-.23.528Z" fill="#000"/><path fill-rule="evenodd" clip-rule="evenodd" d="M39.759 12.244a.407.407 0 0 1-.354.456c-2.226.29-4.843.78-7.227 1.493-2.398.716-4.508 1.642-5.767 2.775a.413.413 0 0 1-.58-.027.403.403 0 0 1 .028-.574c1.4-1.26 3.656-2.228 6.081-2.952 2.439-.729 5.101-1.227 7.358-1.52a.41.41 0 0 1 .46.349Z" fill="#000"/><path fill-rule="evenodd" clip-rule="evenodd" d="M25.574 17.234a.403.403 0 0 1-.037-.573c2.031-2.282 3.813-4.86 5.536-7.507.517-.793 1.028-1.593 1.54-2.393 1.19-1.863 2.381-3.725 3.627-5.49a.413.413 0 0 1 .571-.101.404.404 0 0 1 .102.565c-1.235 1.75-2.409 3.587-3.595 5.442-.514.804-1.03 1.612-1.554 2.417-1.73 2.656-3.538 5.275-5.61 7.604a.413.413 0 0 1-.58.036Z" fill="#000"/><path d="M7.756 15.148c2.059-.734 4.511-.744 9.022 1.116-5.263 4.465-8.107 5.86-9.022 8.186H1.74s1.88-4.465 6.015-9.302Z" fill="#EE8625"/><path fill-rule="evenodd" clip-rule="evenodd" d="M20.117 15.42a.334.334 0 0 0-.43-.191c-2.103.793-4.401 2.457-6.359 4.447-1.958 1.99-3.606 4.338-4.38 6.525-.062.171.03.36.203.42.173.06.363-.03.424-.202.733-2.068 2.314-4.336 4.23-6.284 1.916-1.948 4.136-3.543 6.12-4.29a.328.328 0 0 0 .192-.426Z" fill="#000"/><path fill-rule="evenodd" clip-rule="evenodd" d="M10.397 14.749a.329.329 0 0 0 .236.403c2.329.61 4.661 1.206 6.992 1.802l1.92.49a.329.329 0 1 0 .167-.638l-1.921-.49c-2.331-.596-4.661-1.192-6.988-1.801a.333.333 0 0 0-.406.234Z" fill="#000"/><path fill-rule="evenodd" clip-rule="evenodd" d="M11.802 13.829a.335.335 0 0 0-.467-.056C6.674 17.398 4.199 21.8 2.69 25.287a.328.328 0 0 0 .175.433.334.334 0 0 0 .436-.173c1.486-3.43 3.904-7.724 8.445-11.255a.327.327 0 0 0 .056-.462Z" fill="#000"/><path fill-rule="evenodd" clip-rule="evenodd" d="M1.274 25.038c3.682 0 7.344.164 11.031.352.184.01.34-.13.35-.312a.33.33 0 0 0-.315-.346c-3.688-.188-7.365-.353-11.066-.353a.331.331 0 0 0-.332.33c0 .181.149.329.332.329Zm20.883 1.392c.011-.161.204-.285.43-.277 1.422.05 2.84.074 4.265.074.226 0 .41.13.41.291 0 .161-.184.292-.41.292-1.437 0-2.87-.024-4.306-.075-.226-.008-.4-.145-.39-.306Zm6.021-2.71c.214-.054.448.026.523.178.33.667.546 1.298.546 2.027 0 .162-.184.292-.41.292-.227 0-.411-.13-.411-.292 0-.64-.188-1.203-.5-1.834-.074-.152.038-.318.252-.371Zm2.027 2.703c.017-.161.214-.282.44-.27 1.033.054 2.064.074 3.105.074.227 0 .41.13.41.291 0 .161-.183.292-.41.292a60.85 60.85 0 0 1-3.165-.075c-.227-.012-.396-.152-.38-.312Zm-1.656.7c.222-.032.438.07.483.229.226.803.331 1.56.215 2.388-.023.16-.224.277-.45.26-.225-.015-.39-.158-.367-.318.106-.754.012-1.45-.203-2.216-.045-.158.1-.312.322-.343ZM12.055 5.794a.41.41 0 0 1 .446-.366c.97.09 1.902.101 2.888.101.227 0 .41.182.41.406a.408.408 0 0 1-.41.407c-.99 0-1.953-.012-2.964-.105a.407.407 0 0 1-.37-.443Zm6.288-4.084a.41.41 0 0 1 .48.323 16.63 16.63 0 0 1 .32 3.18.408.408 0 0 1-.41.405.408.408 0 0 1-.41-.406c0-1.024-.111-2.01-.307-3.027a.406.406 0 0 1 .327-.475Zm2.597 4.28a.41.41 0 0 1 .457-.354c.97.116 1.94.212 2.918.31.226.021.39.22.368.444a.41.41 0 0 1-.45.364c-.976-.097-1.955-.194-2.934-.312a.407.407 0 0 1-.358-.452Zm-2.515 1.3a.408.408 0 0 1 .405.411 16.883 16.883 0 0 1-.214 2.33.41.41 0 0 1-.466.341.407.407 0 0 1-.346-.46 16.09 16.09 0 0 0 .205-2.222.409.409 0 0 1 .416-.4Zm29.497-1.516a.405.405 0 0 1-.216.533l-2.748 1.166a.412.412 0 0 1-.539-.214.405.405 0 0 1 .216-.533l2.748-1.166a.412.412 0 0 1 .539.214Zm-1.034-3.978a.413.413 0 0 1 .577.055c.472.565.863 1.146 1.255 1.73l.079.116a.404.404 0 0 1-.114.564.413.413 0 0 1-.57-.113l-.073-.11c-.397-.59-.766-1.138-1.21-1.67a.403.403 0 0 1 .056-.572Zm5.011 2.501c-.305.127-.616.256-.886.346a.412.412 0 0 1-.52-.255.405.405 0 0 1 .258-.515c.252-.084.504-.19.779-.304.193-.08.397-.166.62-.251.503-.194 1.066-.373 1.611-.373.227 0 .41.182.41.407a.408.408 0 0 1-.41.406c-.383 0-.826.13-1.314.317-.172.066-.359.144-.548.222Zm-1.852 1.961a.413.413 0 0 1 .575.08c.467.613.832 1.216 1.205 1.854a.404.404 0 0 1-.15.555.413.413 0 0 1-.56-.148c-.37-.633-.715-1.2-1.15-1.773a.403.403 0 0 1 .08-.568Z" fill="#000"/></svg>