<svg fill="none" height="201" width="334" xmlns="http://www.w3.org/2000/svg" xmlns:xlink="http://www.w3.org/1999/xlink"><clipPath id="a"><path d="m0 0h27v15.54h-27z" transform="translate(237.008 81.612)"/></clipPath><path clip-rule="evenodd" d="m27.555 135.037a.5.5 0 0 1 -.616-.348 432.71 432.71 0 0 0 -.573-2.034c-.815-2.876-1.64-5.785-2.199-8.753-.223-1.186-.485-2.617-.453-4.035.032-1.424.359-2.883 1.354-4.095 1.64-1.999 3.946-2.922 6.252-3.627a82.48 82.48 0 0 1 1.647-.479c1.766-.501 3.458-.981 4.925-1.814.932-.529 1.459-1.227 1.733-2.022.28-.81.308-1.752.182-2.766-.126-1.013-.4-2.064-.697-3.08-.081-.28-.165-.559-.248-.834-.212-.708-.418-1.39-.555-1.988a.5.5 0 0 1 .975-.224c.13.564.32 1.196.528 1.89.084.282.172.574.26.876.3 1.027.593 2.14.73 3.236.136 1.095.12 2.206-.23 3.216-.353 1.026-1.04 1.916-2.184 2.566-1.582.898-3.436 1.423-5.226 1.93a71.66 71.66 0 0 0 -1.547.45c-2.276.695-4.331 1.549-5.772 3.305-.804.978-1.099 2.189-1.127 3.482-.03 1.299.21 2.632.436 3.828.55 2.919 1.359 5.775 2.173 8.647.194.684.388 1.37.58 2.057a.5.5 0 0 1 -.348.616z" fill="#000" fill-rule="evenodd"/><path clip-rule="evenodd" d="m24.64 136.722a.5.5 0 0 1 -.139-.694l.054-.08a11.906 11.906 0 0 1 -.373-.738 29.496 29.496 0 0 1 -.572-1.32 12.187 12.187 0 0 0 -.329-.761c-.745-1.452-1.388-3.014-2.016-4.538-.272-.659-.54-1.311-.814-1.944a.513.513 0 0 1 .132-.593c.145-.127.31-.129.343-.13h.002c.1-.002.198.022.252.036.133.034.312.095.509.168.401.149.948.374 1.512.614 1.13.48 2.359 1.032 2.703 1.192.536.248 1.24.393 1.956.482.542.068 1.06.1 1.495.127.137.008.267.016.386.025.225.016.459.036.617.078a.814.814 0 0 1 .168.065.533.533 0 0 1 .204.776.662.662 0 0 1 -.178.176 1.63 1.63 0 0 1 -.3.147 6.67 6.67 0 0 1 -.407.141l-.199.061a.514.514 0 0 1 .145.207.556.556 0 0 1 .03.272v.001c-.01.085-.039.171-.06.23-.09.254-.303.698-.554 1.186-.506.988-1.242 2.296-1.686 2.936l-.018.03a17.137 17.137 0 0 0 -.193.364l-.306.61c-.025.049-.05.097-.073.146-.133.264-.264.525-.366.72a6.11 6.11 0 0 1 -.137.248c-.018.03-.041.069-.067.103a.535.535 0 0 1 -.19.167.504.504 0 0 1 -.388.031c-.21-.068-.386-.2-.527-.337a2.513 2.513 0 0 1 -.149-.158.498.498 0 0 1 -.467-.046zm1.11-.752.043.058c.07-.134.146-.287.225-.444l-.269.386zm2.982-5.699-.25.068a.5.5 0 0 1 -.416-.893c-.109-.011-.219-.024-.33-.037-.747-.093-1.574-.254-2.252-.568-.335-.155-1.554-.703-2.674-1.179a53.11 53.11 0 0 0 -1.022-.423l.42 1.016c.62 1.506 1.238 3.004 1.963 4.417.093.182.217.482.352.809l.038.09a28.596 28.596 0 0 0 .635 1.443c.887-1.264 1.822-2.491 2.751-3.711l.756-.994zm235.147-54.595a.5.5 0 0 1 -.569-.42c-.104-.694-.213-1.39-.321-2.088-.459-2.954-.924-5.942-1.117-8.956-.078-1.205-.163-2.657.041-4.06.205-1.41.707-2.818 1.842-3.9 1.872-1.784 4.273-2.42 6.648-2.839.569-.1 1.134-.188 1.692-.275 1.815-.282 3.553-.553 5.109-1.2.99-.413 1.598-1.04 1.967-1.797.377-.77.519-1.701.517-2.724-.001-1.02-.146-2.096-.316-3.141-.047-.288-.097-.575-.145-.858-.125-.729-.246-1.43-.309-2.041a.5.5 0 1 1 .994-.104c.06.576.172 1.226.294 1.94.05.29.102.591.153.902.172 1.055.328 2.197.329 3.3.002 1.104-.149 2.205-.618 3.165-.477.975-1.267 1.775-2.481 2.28-1.68.7-3.583.995-5.422 1.28-.538.084-1.071.166-1.591.258-2.343.413-4.487 1.01-6.131 2.578-.916.874-1.356 2.04-1.542 3.32-.187 1.285-.111 2.638-.033 3.852.19 2.964.646 5.897 1.104 8.847.109.703.219 1.407.325 2.112a.5.5 0 0 1 -.42.57z" fill="#000" fill-rule="evenodd"/><path clip-rule="evenodd" d="m260.78 76.993a.5.5 0 0 1 -.053-.705l.064-.073a12.151 12.151 0 0 1 -.282-.778 30.437 30.437 0 0 1 -.387-1.314l-.019-.065a12.294 12.294 0 0 0 -.234-.797c-.563-1.53-1.011-3.16-1.449-4.749-.19-.687-.377-1.367-.571-2.029a.51.51 0 0 1 .203-.572.537.537 0 0 1 .356-.087h.002a.97.97 0 0 1 .246.066c.128.05.298.133.485.23.38.196.895.486 1.426.792a120.28 120.28 0 0 1 2.538 1.512c.501.312 1.182.542 1.882.717.531.133 1.041.228 1.469.308l.38.072c.221.043.451.091.602.153a.779.779 0 0 1 .16.085.555.555 0 0 1 .217.3.531.531 0 0 1 -.109.494.653.653 0 0 1 -.199.153c-.095.049-.21.083-.315.11a5.68 5.68 0 0 1 -.422.09l-.204.037c.069.076.103.16.119.222.033.133.004.245-.003.274l-.001.001a1.125 1.125 0 0 1 -.087.221c-.121.242-.386.656-.694 1.11-.623.919-1.513 2.128-2.031 2.71 0-.001 0-.001 0 0a64.464 64.464 0 0 0 -.636.933l-.09.136c-.164.246-.326.489-.451.67-.062.089-.12.17-.166.23a1.054 1.054 0 0 1 -.079.094.582.582 0 0 1 -.21.142.504.504 0 0 1 -.388-.016 1.392 1.392 0 0 1 -.482-.4 2.306 2.306 0 0 1 -.128-.174.501.501 0 0 1 -.459-.103zm1.193-.611.037.063.276-.414zm3.654-5.293-.256.037a.5.5 0 0 1 -.305-.937c-.106-.025-.214-.05-.322-.077-.731-.184-1.532-.444-2.167-.838-.313-.194-1.456-.887-2.51-1.496a54.235 54.235 0 0 0 -.963-.544l.293 1.06c.433 1.57.863 3.132 1.411 4.623a13.115 13.115 0 0 1 .277.94 28.273 28.273 0 0 0 .455 1.508c1.034-1.146 2.112-2.25 3.183-3.348l.871-.894a2.14 2.14 0 0 1 .033-.034z" fill="#000" fill-rule="evenodd"/><path d="m33.877 150.459c-6.428-1.237-10.689 4.233-14.24 9.019-4.963 4.108-3.866 6.586-3.491 7.407 2.41 5.278 5.537 14.621 14.017 15.746 5.016.666 14.163-6.866 17.01-12.332 2.287-4.39-3.625-10.311-4.838-12.366-2.812-4.765-4.433-6.7-8.458-7.474z" fill="#fff"/><path clip-rule="evenodd" d="m32.738 153.132c-2.681-2.681-5.773-1.906-6.981-.699-2.18 2.18-6.939 8.329-8.326 10.409-1.483 2.226-.654 4.418.031 5.79.8 1.6 2.253 3.92 3.654 5.99 1.41 2.083 2.724 3.846 3.243 4.365.194.194.407.421.616.645.158.168.313.335.46.485.362.374.73.719 1.129.998.776.543 1.677.845 2.912.536.617-.154 1.455-.575 2.443-1.206.977-.624 2.063-1.429 3.168-2.317a79.938 79.938 0 0 0 6.04-5.432c1.634-1.635 1.936-3.229 1.778-4.568-.144-1.228-.673-2.262-1.044-2.988l-.13-.255c-.136-.274-.585-.966-1.253-1.929-.66-.949-1.51-2.128-2.429-3.357-1.844-2.465-3.94-5.097-5.31-6.467zm-7.688-1.406c1.588-1.588 5.313-2.383 8.396.699 1.426 1.427 3.56 4.111 5.404 6.575a124.664 124.664 0 0 1 2.449 3.385c.657.946 1.151 1.702 1.327 2.053l.122.24c.369.717.984 1.914 1.15 3.333.192 1.631-.205 3.532-2.065 5.392a80.796 80.796 0 0 1 -6.12 5.504c-1.12.901-2.237 1.73-3.256 2.381-1.008.644-1.958 1.138-2.739 1.333-1.561.391-2.756-.007-3.728-.687-.475-.332-.894-.73-1.273-1.12-.182-.187-.343-.36-.498-.526-.19-.203-.37-.397-.567-.594-.6-.599-1.966-2.448-3.364-4.512-1.406-2.078-2.89-4.441-3.72-6.103-.712-1.424-1.775-4.082.031-6.792 1.41-2.113 6.21-8.319 8.45-10.561z" fill="#000" fill-rule="evenodd"/><path clip-rule="evenodd" d="m37.146 152.292c-2.69-2.689-5.535-2.201-7.45-1.818-1.682.336-2.654.831-3.456 1.473-.41.327-.784.7-1.195 1.133l-.362.385c-.31.329-.646.689-1.023 1.066l-.707-.707c.365-.366.684-.705.989-1.031l.378-.402c.419-.44.83-.854 1.295-1.225.945-.756 2.07-1.31 3.884-1.673 1.961-.392 5.279-.983 8.354 2.092 1.426 1.426 3.56 4.11 5.404 6.575a121.83 121.83 0 0 1 2.45 3.385c.656.945 1.15 1.701 1.326 2.052l.122.24c.37.718.984 1.914 1.15 3.333.193 1.631-.204 3.532-2.064 5.392-1.583 1.583-3.918 3.9-6.21 5.911-1.147 1.006-2.29 1.941-3.328 2.672-1.024.721-1.996 1.278-2.79 1.477-2.826.706-5.073.744-6.636-.038l.447-.894c1.232.616 3.18.653 5.946-.038.603-.151 1.447-.613 2.458-1.325.997-.702 2.11-1.612 3.243-2.605 2.265-1.987 4.58-4.284 6.162-5.867 1.635-1.635 1.937-3.228 1.78-4.568-.145-1.228-.674-2.262-1.045-2.988l-.13-.254c-.136-.274-.584-.967-1.253-1.93-.659-.948-1.51-2.128-2.429-3.356-1.844-2.466-3.94-5.098-5.31-6.467z" fill="#000" fill-rule="evenodd"/><path clip-rule="evenodd" d="m27.634 155.535c.39-.247.836-.46 1.264-.46.47 0 .903.281 1.248.582.364.318.725.743 1.059 1.193a19.58 19.58 0 0 1 1.635 2.696l.161.322-4.866 4.866-4.058-5.681.237-.295a21.395 21.395 0 0 1 2.079-2.24 9.17 9.17 0 0 1 1.241-.983zm-2.3 3.556 2.929 4.101 3.519-3.519a18.399 18.399 0 0 0 -1.381-2.228c-.313-.423-.625-.784-.912-1.034-.306-.267-.502-.336-.59-.336-.132 0-.373.079-.729.305a8.16 8.16 0 0 0 -1.1.874 20.321 20.321 0 0 0 -1.737 1.837zm-3.371 1.991 4.093 5.731-4.148 4.148-.353-.354c-.734-.733-1.402-1.735-2.137-2.837l-.023-.035c-.85-1.276-.512-2.604.09-3.669.544-.959 1.357-1.809 1.904-2.381l.157-.163zm-1.607 3.477c-.519.916-.676 1.801-.129 2.622.63.943 1.16 1.736 1.694 2.353l2.83-2.829-2.898-4.056c-.508.538-1.092 1.194-1.497 1.91zm15.6-2.011.322.404c.47.588 1.177 1.505 1.767 2.35.295.421.566.832.766 1.179.1.173.187.339.25.487.057.132.123.311.123.49 0 1.228-.617 2.217-1.35 3.041-.367.413-.776.799-1.171 1.161l-.26.237c-.306.279-.595.542-.86.807l-.382.382-4.871-5.682 5.665-4.856zm-4.256 4.964 3.524 4.111c.17-.159.343-.317.516-.474l.247-.226c.391-.359.768-.716 1.1-1.089.661-.743 1.091-1.497 1.097-2.359-.002-.005-.01-.04-.042-.113a3.83 3.83 0 0 0 -.197-.382c-.179-.31-.431-.694-.72-1.105a46.937 46.937 0 0 0 -1.407-1.893zm-3.407 2.013 3.983 5.576-.135.269c-.153.308-.455.667-.795 1.009-.352.353-.782.723-1.23 1.052-.448.326-.93.623-1.383.815-.426.181-.941.321-1.391.171-1.187-.396-1.966-1.187-2.53-2.032-.402-.604-.717-1.275-.984-1.846a23.81 23.81 0 0 0 -.27-.567l-.177-.354zm-3.667 4.358.14.298c.257.55.52 1.113.879 1.65.485.728 1.104 1.334 2.013 1.637.081.027.297.022.684-.142.36-.153.773-.403 1.183-.703a9.633 9.633 0 0 0 1.112-.949 5.3 5.3 0 0 0 .454-.511l-2.986-4.18-3.48 2.9zm17.211-1.41a.5.5 0 0 1 .25-.661l5.203-2.342a.5.5 0 0 1 .41.912l-5.202 2.342a.5.5 0 0 1 -.661-.251zm1.716-3.528a.5.5 0 0 1 .21-.675l4-2.107a.5.5 0 1 1 .465.884l-4 2.108a.5.5 0 0 1 -.675-.21zm-.5-3.231a.5.5 0 0 1 .21-.675l3-1.581a.5.5 0 1 1 .465.885l-3 1.58a.5.5 0 0 1 -.675-.209zm-5.703-7.574a.5.5 0 0 1 .21-.675l3-1.581a.5.5 0 0 1 .466.885l-3 1.581a.5.5 0 0 1 -.675-.21zm1.558 2.675a.5.5 0 0 1 .21-.676l3.442-1.813a.5.5 0 1 1 .466.884l-3.443 1.814a.5.5 0 0 1 -.675-.209zm1.443 2.298a.5.5 0 0 1 .209-.676l3.5-1.844a.5.5 0 0 1 .466.885l-3.5 1.844a.5.5 0 0 1 -.675-.209zm-9.001-11.49a.5.5 0 0 1 .21-.676l2.563-1.35a.5.5 0 1 1 .466.885l-2.563 1.35a.5.5 0 0 1 -.675-.209zm2.564 2.144a.5.5 0 0 1 .209-.675l2.937-1.547a.5.5 0 1 1 .466.884l-2.937 1.548a.5.5 0 0 1 -.675-.21zm1.936 2.038a.5.5 0 0 1 .21-.676l3-1.58a.5.5 0 1 1 .466.885l-3 1.58a.5.5 0 0 1 -.676-.209zm-4.052 25.037a.5.5 0 0 1 .42-.568l5-.75a.5.5 0 1 1 .15.988l-5 .751a.5.5 0 0 1 -.57-.421zm2.515-1.934a.5.5 0 0 1 .34-.62l6.5-1.895a.5.5 0 0 1 .28.96l-6.5 1.895a.5.5 0 0 1 -.62-.34zm4.016-2.954a.5.5 0 0 1 .278-.65c.938-.375 1.7-.642 2.394-.885.239-.084.47-.165.696-.246a23.602 23.602 0 0 0 2.87-1.224.5.5 0 1 1 .452.892 24.406 24.406 0 0 1 -2.984 1.273l-.718.254a53.48 53.48 0 0 0 -2.338.864.5.5 0 0 1 -.65-.278z" fill="#000" fill-rule="evenodd"/><path d="m187.74 97.01c-4.549-.923-7.549 3.077-10.049 6.577-3.5 3-2.719 4.819-2.451 5.422 1.717 3.875 3.951 10.733 9.951 11.578 3.549.5 10-5 12-9 1.607-3.213-2.589-7.568-3.451-9.078-2-3.5-3.152-4.922-6-5.5z" fill="#fff"/><g clip-rule="evenodd" fill-rule="evenodd"><path d="m182.191 98.087c.924-.924 3.735-.265 5 1 2 2 7.5 9 7.5 10.5s-.732 3.233-2.5 5c-2 2-6.5 5-7.5 5.5s-2 .5-5-3.5-5.5-8-5-9c.4-.8 4.5-6.5 7.5-9.5zm-1.195 5.5 2.5 3.5 3-3c-.5-1-1.7-3-2.5-3s-2.333 1.667-3 2.5zm4.5 6 3.5-3c.667.834 2 2.6 2 3 .001 1.206-.969 2.089-1.868 2.908-.22.2-.435.396-.631.592zm.5 5.5-2.5-3.5-2.999 2.5c.068.138.137.285.208.437.448.957.998 2.132 2.292 2.563.758.253 2.666-1.333 2.999-2zm-4.5-6-2.5-3.5a5.682 5.682 0 0 1 -.111.117c-.828.866-2.344 2.45-1.388 3.883v.001c.538.807 1 1.499 1.499 1.999z" fill="#00ace4"/><path d="m192.491 114.563a.5.5 0 0 1 .251-.661l4-1.801a.5.5 0 0 1 .41.912l-4 1.801a.5.5 0 0 1 -.661-.251zm1.621-3.57a.5.5 0 0 1 .209-.676l2.893-1.523a.5.5 0 1 1 .466.884l-2.893 1.524a.5.5 0 0 1 -.675-.209zm-.931-3.004a.5.5 0 0 1 .209-.676l2.324-1.224a.5.5 0 1 1 .466.885l-2.324 1.224a.5.5 0 0 1 -.675-.209zm-5.574-7.773a.5.5 0 0 1 .214-.665 13.28 13.28 0 0 1 1.129-.534l1.081-.511a.5.5 0 0 1 .447.894c-.509.269-.819.401-1.118.529l-1.092.516a.5.5 0 0 1 -.661-.229zm2.003 2.505a.5.5 0 0 1 .211-.671c.586-.308.855-.435 1.121-.559l1.079-.539a.5.5 0 0 1 .457.889c-.572.301-.838.427-1.1.55l-1.1.549a.499.499 0 0 1 -.668-.219zm1.517 2.531a.5.5 0 0 1 .168-.687l2.191-1.326a.5.5 0 0 1 .518.856l-2.191 1.326a.5.5 0 0 1 -.686-.169zm-5.52-6.536a.5.5 0 0 1 .224-.67l2-1a.5.5 0 0 1 .447.894l-2 1a.5.5 0 0 1 -.671-.224zm1.144 20.535a.5.5 0 0 1 .424-.566l3.032-.433a.5.5 0 1 1 .142.99l-3.032.433a.5.5 0 0 1 -.566-.424zm3.043-2.209a.5.5 0 0 1 .353-.607c.465-.126.907-.226 1.337-.32l1.954-.468a.5.5 0 0 1 .254.967c-.593.17-1.143.292-1.677.408l-.102.023-.206.045-1.312.314a.5.5 0 0 1 -.601-.362z" fill="#000"/><path d="m186.701 99.847c-1.861-1.862-3.983-1.31-4.793-.5-1.55 1.55-4.949 5.94-5.938 7.423-1.015 1.523-.455 3.026.031 3.999l-.444.222.445-.222c.568 1.137 1.602 2.789 2.604 4.269 1.01 1.492 1.942 2.742 2.302 3.101.139.139.296.307.448.47.113.12.223.238.323.34.257.265.513.505.787.697.527.369 1.131.571 1.967.362.418-.105 1.002-.395 1.706-.845a26.433 26.433 0 0 0 2.253-1.648 57.037 57.037 0 0 0 4.309-3.876c1.137-1.137 1.34-2.233 1.232-3.15-.1-.851-.467-1.568-.733-2.088l-.093-.184c-.092-.185-.406-.672-.886-1.363a88.52 88.52 0 0 0 -1.735-2.397c-1.319-1.764-2.813-3.639-3.785-4.61zm-5.5-1.208c1.19-1.19 3.945-1.762 6.207.5 1.028 1.029 2.56 2.957 3.879 4.719a90.176 90.176 0 0 1 1.755 2.425c.468.674.828 1.224.959 1.486l.087.17c.263.512.715 1.39.838 2.433.142 1.208-.156 2.612-1.518 3.974a57.898 57.898 0 0 1 -4.389 3.948 27.748 27.748 0 0 1 -2.342 1.712c-.724.463-1.42.827-2.001.972-1.164.291-2.061-.007-2.783-.513a6.539 6.539 0 0 1 -.932-.819c-.135-.139-.25-.263-.361-.381a17.213 17.213 0 0 0 -.399-.419c-.44-.44-1.426-1.774-2.423-3.248-1.007-1.487-2.072-3.184-2.671-4.381l.447-.224-.447.224c-.513-1.027-1.307-2.994.031-5.001 1.011-1.517 4.451-5.965 6.063-7.577z" fill="#000"/><path d="m189.853 99.245c-1.868-1.869-3.836-1.534-5.201-1.261-1.184.237-1.857.582-2.41 1.025a8.63 8.63 0 0 0 -.841.797l-.256.273c-.222.237-.465.496-.737.768l-.707-.707c.259-.26.485-.5.702-.732.092-.098.182-.195.273-.29a9.41 9.41 0 0 1 .941-.89c.697-.557 1.523-.962 2.839-1.225 1.41-.282 3.85-.72 6.105 1.535 1.028 1.028 2.56 2.956 3.879 4.719a88.603 88.603 0 0 1 1.755 2.425c.468.674.828 1.224.959 1.486l.086.169c.264.512.716 1.391.838 2.434.143 1.208-.155 2.612-1.518 3.974-1.131 1.132-2.805 2.793-4.449 4.235-.821.721-1.643 1.393-2.392 1.92-.734.517-1.448.93-2.043 1.078-2.03.508-3.679.546-4.845-.037l.447-.895c.834.417 2.185.455 4.155-.038.404-.101.99-.418 1.711-.926.708-.498 1.499-1.145 2.308-1.854 1.616-1.418 3.269-3.058 4.401-4.19 1.138-1.137 1.34-2.234 1.232-3.15-.1-.851-.466-1.569-.732-2.089a16.4 16.4 0 0 1 -.093-.184c-.093-.185-.407-.671-.887-1.362a86.74 86.74 0 0 0 -1.734-2.397c-1.32-1.764-2.814-3.639-3.786-4.61z" fill="#000"/><path d="m183.074 101.344c.284-.18.631-.351.98-.351.391 0 .734.231.987.452.271.236.536.55.778.876.484.655.924 1.431 1.183 1.949l.161.322-3.672 3.672-3.063-4.288.236-.295c.344-.431.912-1.076 1.502-1.618.294-.271.606-.527.908-.719zm-1.389 2.671 1.933 2.707 2.324-2.323a12.792 12.792 0 0 0 -.927-1.483 4.616 4.616 0 0 0 -.632-.718 1.24 1.24 0 0 0 -.24-.172c-.061-.031-.089-.033-.089-.033-.051 0-.195.037-.444.196-.232.147-.495.36-.767.61-.425.39-.842.844-1.158 1.216zm-2.576 1.195 3.098 4.337-3.153 3.153-.353-.353c-.535-.535-1.02-1.262-1.541-2.044l-.022-.032c-.651-.978-.384-1.991.059-2.774.398-.703.993-1.324 1.383-1.731l.112-.117zm-1.041 2.78c-.359.633-.446 1.203-.098 1.726.413.619.761 1.138 1.102 1.552l1.829-1.829-1.901-2.662c-.329.356-.681.768-.932 1.213zm11.054-1.713.323.404c.337.422.844 1.081 1.269 1.688.212.303.409.601.555.854.072.126.138.25.186.364.042.096.099.248.099.406 0 .929-.468 1.67-1.001 2.27a11.99 11.99 0 0 1 -.848.841l-.188.171c-.218.199-.422.385-.609.572l-.382.382-3.677-4.29zm-2.863 3.77 2.332 2.72.263-.24.175-.16c.279-.256.545-.508.777-.769.457-.514.737-1.014.748-1.572a2.467 2.467 0 0 0 -.152-.303 10.805 10.805 0 0 0 -.507-.781c-.291-.415-.625-.86-.911-1.23zm-2.611 1.217 2.988 4.184-.134.269c-.121.241-.35.511-.596.758-.257.258-.57.528-.897.767a5.315 5.315 0 0 1 -1.017.599c-.311.132-.721.251-1.096.127-.888-.297-1.469-.889-1.883-1.51-.294-.442-.527-.938-.719-1.349-.067-.143-.129-.276-.187-.392l-.177-.354zm-2.474 3.364.058.123c.182.39.364.778.613 1.152.336.504.756.912 1.367 1.116l-.001-.001s.028.007.096-.004c.074-.012.172-.041.294-.093.243-.104.529-.276.818-.487a6.74 6.74 0 0 0 .778-.664c.101-.101.183-.192.248-.27l-1.984-2.778z" fill="#000"/><path d="m230.3 91.124a.5.5 0 0 1 -.295.643c-7.643 2.826-19.38 7.058-27.05 9.806a.5.5 0 0 1 -.338-.941c7.67-2.748 19.403-6.978 27.041-9.803a.5.5 0 0 1 .642.295z" fill="#9293ab"/><path d="m219.762 93.013a.5.5 0 0 1 .373-.601l.315-.076c.823-.198 2.831-.68 4.782-1.07 1.143-.23 2.282-.43 3.159-.52.435-.046.83-.068 1.136-.046.151.01.311.033.452.085.128.046.353.158.447.418l.055.153-.046.157a1.755 1.755 0 0 1 -.384.65 4.55 4.55 0 0 1 -.613.56c-.466.362-1.064.733-1.703 1.097-.588.336-1.226.676-1.844 1.005l-.164.087c-.672.358-1.314.702-1.855 1.024a.5.5 0 0 1 -.511-.86 49.672 49.672 0 0 1 2.057-1.132 70.04 70.04 0 0 0 1.821-.992c.627-.358 1.177-.701 1.586-1.019.107-.084.202-.163.285-.239-.174.006-.38.021-.615.046-.83.086-1.931.279-3.067.506-1.928.386-3.908.862-4.739 1.061l-.326.078a.5.5 0 0 1 -.601-.373zm-15.269 14.976a.5.5 0 0 1 .296-.642c4.282-1.584 9.747-3.442 15.067-5.251 4.156-1.413 8.224-2.796 11.571-3.995a.5.5 0 1 1 .337.942c-3.389 1.213-7.465 2.599-11.62 4.011-5.296 1.801-10.72 3.644-15.009 5.231a.5.5 0 0 1 -.642-.296z" fill="#9293ab"/><path d="m215.032 106.101a.5.5 0 0 1 -.373.601l-.315.075c-.823.198-2.831.681-4.782 1.071-1.143.228-2.282.428-3.159.52-.435.045-.83.067-1.137.045-.15-.01-.31-.033-.452-.085-.127-.046-.353-.157-.446-.418l-.055-.153.046-.156c.071-.245.219-.462.384-.65.169-.192.379-.379.613-.56.465-.362 1.064-.733 1.703-1.098a71.702 71.702 0 0 1 2.007-1.092 47.059 47.059 0 0 0 1.856-1.024.5.5 0 0 1 .511.86c-.565.336-1.227.69-1.896 1.047l-.162.086a70.71 70.71 0 0 0 -1.82.991c-.627.358-1.177.701-1.586 1.019a4.69 4.69 0 0 0 -.285.239c.174-.006.38-.021.615-.046.829-.086 1.931-.279 3.067-.506 1.927-.385 3.907-.861 4.739-1.061l.326-.078a.5.5 0 0 1 .601.373zm-144.717 50.199a.5.5 0 0 1 -.373.601l-.315.075c-.823.198-2.83.681-4.781 1.071-1.143.229-2.282.429-3.16.52-.435.046-.83.067-1.136.046a1.73 1.73 0 0 1 -.452-.085c-.128-.047-.353-.158-.447-.419l-.055-.153.046-.156a1.76 1.76 0 0 1 .384-.65c.17-.192.38-.379.613-.56.466-.362 1.065-.733 1.703-1.098.589-.336 1.226-.675 1.845-1.005l.163-.086a49.695 49.695 0 0 0 1.856-1.024.5.5 0 1 1 .51.86c-.565.335-1.226.689-1.896 1.046l-.161.086c-.621.331-1.246.663-1.821.992-.627.358-1.176.701-1.586 1.018a4.845 4.845 0 0 0 -.284.239 9.34 9.34 0 0 0 .614-.045c.83-.087 1.932-.279 3.068-.507 1.927-.385 3.907-.861 4.738-1.061l.326-.078a.5.5 0 0 1 .601.373z" fill="#9293ab"/><path d="m60.104 158.012a.5.5 0 0 1 .296-.643c2.389-.883 93.781-33.859 96.196-34.76 5.303-1.977 10.644-3.969 15.917-5.858a.5.5 0 0 1 .337.942c-5.266 1.886-10.597 3.874-15.897 5.851-2.416.901-93.812 33.878-96.206 34.763a.5.5 0 0 1 -.643-.295z" fill="#9293ab"/></g><path d="m68.178 131.767.529-22.359 5.65-2.448 69.117 24.437-.651 27.519-4.351 2.048-35.782-15.044-.854-3.971-5.115 1.679z" fill="#fff"/><path clip-rule="evenodd" d="m72.026 114.579a.5.5 0 0 1 .488.512l-.112 4.73a.5.5 0 0 1 -1-.024l.112-4.73a.5.5 0 0 1 .512-.488zm6.337 2.731a.5.5 0 0 1 .488.512l-.102 4.3a.5.5 0 0 1 -1-.024l.102-4.3a.5.5 0 0 1 .512-.488zm6.347 2.302a.499.499 0 0 1 .488.511l-.102 4.3a.5.5 0 1 1 -1-.024l.102-4.299a.5.5 0 0 1 .512-.488zm7.413 2.326a.5.5 0 0 1 .488.512l-.109 4.592a.5.5 0 0 1 -1-.023l.11-4.593a.5.5 0 0 1 .511-.488zm-20.33 2.536a.5.5 0 0 1 .487.512l-.091 3.871a.5.5 0 0 1 -1-.024l.091-3.871a.5.5 0 0 1 .512-.488zm29.322.694a.5.5 0 0 1 .488.512l-.112 4.731a.5.5 0 1 1 -1-.024l.112-4.731a.5.5 0 0 1 .512-.488zm-22.962 1.035a.499.499 0 0 1 .487.511l-.108 4.588a.5.5 0 0 1 -1-.023l.109-4.588a.5.5 0 0 1 .511-.488zm31.428 1.891a.5.5 0 0 1 .488.512l-.122 5.161a.5.5 0 0 1 -1-.023l.122-5.162a.5.5 0 0 1 .512-.488zm-25.085.554a.5.5 0 0 1 .488.512l-.112 4.723a.5.5 0 0 1 -1-.024l.112-4.723a.5.5 0 0 1 .512-.488zm33.001 3.076a.501.501 0 0 1 .488.512l-.098 4.149a.501.501 0 0 1 -1-.024l.098-4.149a.501.501 0 0 1 .512-.488zm-25.608.104a.5.5 0 0 1 .488.511l-.105 4.453a.5.5 0 0 1 -1-.024l.105-4.452a.5.5 0 0 1 .512-.488zm35.147 2.552a.501.501 0 0 1 .488.512l-.112 4.73a.501.501 0 0 1 -1-.024l.112-4.73a.501.501 0 0 1 .512-.488zm-26.165 1.102a.5.5 0 0 1 .488.512l-.105 4.453a.5.5 0 0 1 -1-.023l.105-4.454a.5.5 0 0 1 .512-.488zm34.364 1.826a.501.501 0 0 1 .488.512l-.129 5.437a.5.5 0 1 1 -.999-.024l.128-5.437a.501.501 0 0 1 .512-.488zm-25.905 1.386a.499.499 0 0 1 .488.511l-.109 4.598a.499.499 0 1 1 -.999-.023l.108-4.598a.5.5 0 0 1 .512-.488zm7.936 2.78a.499.499 0 0 1 .488.511l-.112 4.719a.499.499 0 1 1 -.999-.024l.111-4.718a.5.5 0 0 1 .512-.488zm9.508 3.955a.499.499 0 0 1 .488.511l-.115 4.861a.5.5 0 1 1 -.999-.024l.115-4.86a.499.499 0 0 1 .511-.488zm8.2 2.906a.5.5 0 0 1 .488.512l-.112 4.729a.5.5 0 0 1 -1-.023l.112-4.73a.5.5 0 0 1 .512-.488zm-60.724-37.574a.5.5 0 0 1 .489.512l-.106 4.445a.5.5 0 0 1 -1-.024l.106-4.445a.5.5 0 0 1 .511-.488zm6.347 2.301a.5.5 0 0 1 .488.512l-.108 4.589a.5.5 0 1 1 -1-.024l.109-4.589a.5.5 0 0 1 .511-.488zm6.344 2.447a.499.499 0 0 1 .488.511l-.099 4.155a.5.5 0 0 1 -1-.024l.1-4.154a.5.5 0 0 1 .51-.488zm7.41 2.47a.5.5 0 0 1 .488.512l-.095 4.01a.5.5 0 0 1 -1-.023l.095-4.011a.5.5 0 0 1 .511-.488zm8.999 2.939a.501.501 0 0 1 .488.512l-.119 5.018a.501.501 0 0 1 -1-.024l.119-5.018a.5.5 0 0 1 .512-.488zm-29.33-.407a.5.5 0 0 1 .488.512l-.095 4.009a.5.5 0 0 1 -1-.024l.095-4.009a.5.5 0 0 1 .512-.488zm6.354 2.011a.499.499 0 0 1 .488.511l-.112 4.73a.5.5 0 0 1 -1-.024l.112-4.729a.5.5 0 0 1 .512-.488zm31.435 1.609a.5.5 0 0 1 .488.512l-.122 5.161a.5.5 0 0 1 -1-.024l.122-5.161a.5.5 0 0 1 .512-.488zm-25.106 1.414a.5.5 0 0 1 .488.512l-.095 4.014a.5.5 0 0 1 -1-.023l.096-4.015a.5.5 0 0 1 .511-.488zm33.042 1.35a.5.5 0 0 1 .488.512l-.116 4.88a.499.499 0 1 1 -.999-.023l.115-4.881a.5.5 0 0 1 .512-.488zm-25.622.684a.5.5 0 0 1 .488.512l-.118 5.024a.499.499 0 1 1 -1-.023l.119-5.025a.5.5 0 0 1 .511-.488zm35.157 2.13a.499.499 0 0 1 .488.511l-.115 4.875a.5.5 0 0 1 -1-.023l.116-4.875a.499.499 0 0 1 .511-.488zm-55.467-.452a.499.499 0 0 1 .488.511l-.095 4.015a.5.5 0 1 1 -1-.024l.095-4.014a.5.5 0 0 1 .512-.488zm29.303 1.547a.5.5 0 0 1 .488.511l-.122 5.16a.501.501 0 0 1 -1-.024l.122-5.159a.5.5 0 0 1 .512-.488zm-22.956.747a.5.5 0 0 1 .488.512l-.112 4.729a.5.5 0 0 1 -1-.023l.112-4.73a.5.5 0 0 1 .512-.488zm31.411 2.616a.5.5 0 0 1 .488.512l-.129 5.438a.5.5 0 1 1 -.999-.024l.128-5.438a.501.501 0 0 1 .512-.488zm-25.075.115a.5.5 0 0 1 .489.512l-.112 4.73a.5.5 0 0 1 -1-.024l.112-4.73a.5.5 0 0 1 .511-.488zm33.005 2.932a.501.501 0 0 1 .488.512l-.112 4.73a.501.501 0 0 1 -1-.024l.112-4.73a.501.501 0 0 1 .512-.488zm-25.645.254a.5.5 0 0 1 .488.512l-.102 4.299a.5.5 0 0 1 -1-.023l.102-4.3a.5.5 0 0 1 .512-.488zm35.155 3.639a.501.501 0 0 1 .488.512l-.107 4.504a.501.501 0 0 1 -1-.024l.107-4.504a.5.5 0 0 1 .512-.488zm-17.677 3.096a.501.501 0 0 1 .488.512l-.119 5.018a.5.5 0 0 1 -1-.023l.119-5.019a.5.5 0 0 1 .512-.488zm7.922 3.331a.498.498 0 0 1 .488.511l-.111 4.73a.5.5 0 0 1 -1-.024l.112-4.729a.499.499 0 0 1 .511-.488zm9.515 3.681a.5.5 0 0 1 .488.512l-.121 5.145a.501.501 0 0 1 -1-.024l.122-5.145a.5.5 0 0 1 .511-.488zm10.014-20.297a.501.501 0 0 1 .488.512l-.794 33.538a.501.501 0 0 1 -1-.024l.794-33.538a.5.5 0 0 1 .512-.488zm-70.007-23.168a.5.5 0 0 1 .488.512l-.55 23.218a.5.5 0 0 1 -1-.023l.55-23.219a.5.5 0 0 1 .512-.488z" fill="#000" fill-rule="evenodd"/><path clip-rule="evenodd" d="m140.314 161.259a.478.478 0 0 1 -.596.356c-6.926-1.896-20.598-7.833-37.183-15.1a.52.52 0 0 1 -.276-.664.479.479 0 0 1 .643-.262c16.627 7.286 30.209 13.18 37.045 15.051.266.073.43.35.367.619zm4.105-29.997a.478.478 0 0 1 -.611.329c-17.506-5.576-69.294-23.802-73.012-25.405a.522.522 0 0 1 -.28-.663.48.48 0 0 1 .641-.266c3.667 1.581 55.412 19.794 72.92 25.371a.523.523 0 0 1 .342.634zm-3.488 3.388a.48.48 0 0 1 -.63.291c-7.523-2.9-25.799-9.299-42.668-15.176l-7.5-2.611c-13.71-4.772-25.101-8.738-26.687-9.421a.522.522 0 0 1 -.28-.663.478.478 0 0 1 .641-.266c1.55.668 12.899 4.619 26.629 9.398 2.436.848 4.947 1.722 7.49 2.609 16.861 5.873 35.157 12.279 42.7 15.187a.522.522 0 0 1 .305.652zm-43.016 9.776a.48.48 0 0 1 -.628.296c-8.389-3.168-13.928-5.531-19.378-7.857-3.534-1.507-7.03-2.999-11.242-4.684a.521.521 0 0 1 -.297-.655.479.479 0 0 1 .634-.283c4.26 1.704 7.766 3.2 11.3 4.708 5.426 2.315 10.918 4.659 19.302 7.825a.523.523 0 0 1 .31.65z" fill="#000" fill-rule="evenodd"/><path clip-rule="evenodd" d="m143.957 129.189a.5.5 0 0 1 .488.511l-.774 32.678a.499.499 0 1 1 -.999-.023l.773-32.678a.5.5 0 0 1 .512-.488z" fill="#000" fill-rule="evenodd"/><path clip-rule="evenodd" d="m145.977 130.502a.5.5 0 0 1 -.237.667l-1.483.708c-2.133 1.021-3.626 1.736-5.41 2.45a.5.5 0 0 1 -.372-.929c1.751-.7 3.211-1.399 5.341-2.418.463-.222.958-.459 1.495-.714a.5.5 0 0 1 .666.236zm-1.406 27.344a.5.5 0 0 1 -.197.679c-2.286 1.258-4.621 2.327-7.013 3.302a.5.5 0 0 1 -.378-.926c2.367-.965 4.665-2.017 6.909-3.252a.5.5 0 0 1 .679.197zm-67.022-51.266a.5.5 0 0 1 -.333.624c-1.386.423-2.782.811-4.172 1.197l-.054.015c-1.374.382-2.742.762-4.1 1.174a.5.5 0 0 1 -.29-.957c1.37-.416 2.747-.798 4.118-1.179l.058-.016c1.392-.387 2.776-.772 4.148-1.19a.5.5 0 0 1 .624.332zm24.842 33.671a.5.5 0 0 1 .491.509l-.093 5.291a.5.5 0 0 1 -1-.018l.093-5.291a.5.5 0 0 1 .509-.491zm-5.074-2.272a.5.5 0 0 0 -.512.488l-.135 5.721a.499.499 0 1 0 1 .023l.135-5.72a.5.5 0 0 0 -.488-.512z" fill="#000" fill-rule="evenodd"/><path clip-rule="evenodd" d="m100.362 143.453a.5.5 0 0 1 -.3.64l-4.65 1.686a.5.5 0 0 1 -.341-.94l4.65-1.686a.5.5 0 0 1 .641.3z" fill="#9293ab" fill-rule="evenodd"/><path clip-rule="evenodd" d="m138.602 139.185a.478.478 0 0 1 -.623.305c-10.24-3.685-22.824-8.285-35.404-12.885l-.282-.103c-12.487-4.565-24.955-9.124-35.11-12.78a.521.521 0 0 1 -.32-.644.478.478 0 0 1 .624-.305c10.157 3.656 22.627 8.215 35.113 12.781l.283.103c12.582 4.6 25.163 9.2 35.399 12.883a.522.522 0 0 1 .32.645zm.294 5.61a.48.48 0 0 1 -.63.292c-7.299-2.804-23.112-8.677-37.882-14.162-15.67-5.82-30.165-11.203-32.072-12.023a.521.521 0 0 1 -.28-.662.478.478 0 0 1 .64-.266c1.893.813 16.296 6.162 31.907 11.959 14.79 5.493 30.665 11.388 38.011 14.21.259.1.395.391.306.652zm.825 5.824a.478.478 0 0 1 -.626.298c-15.14-5.646-67.754-26.09-71.476-27.647a.523.523 0 0 1 -.288-.66.478.478 0 0 1 .638-.272c3.703 1.548 56.301 21.987 71.438 27.632.26.097.4.387.314.649zm-.22 4.947a.475.475 0 0 1 -.628.291c-15.083-5.836-67.485-26.761-71.193-28.365a.525.525 0 0 1 -.282-.664.477.477 0 0 1 .64-.265c3.688 1.595 56.072 22.514 71.157 28.35.258.1.395.392.306.653z" fill="#000" fill-rule="evenodd"/><path clip-rule="evenodd" d="m137.866 161.071a.5.5 0 0 1 .209-.675l5.084-2.679a.501.501 0 0 1 .466.885l-5.084 2.679a.5.5 0 0 1 -.675-.21zm-.077-2.59a.5.5 0 0 1 .209-.675l5.269-2.776a.5.5 0 1 1 .466.885l-5.269 2.776a.499.499 0 0 1 -.675-.21zm0-3.006a.5.5 0 0 1 .209-.675l5.161-2.719a.5.5 0 1 1 .466.885l-5.161 2.719a.5.5 0 0 1 -.675-.21zm.18-3.63a.5.5 0 0 1 .209-.676l4.993-2.63a.5.5 0 1 1 .466.885l-4.993 2.63a.5.5 0 0 1 -.675-.209zm0-2.631a.5.5 0 0 1 .209-.675l5.268-2.775a.5.5 0 1 1 .466.885l-5.268 2.775a.5.5 0 0 1 -.675-.21zm.133-3.076a.501.501 0 0 1 .21-.676l5.134-2.704a.5.5 0 1 1 .466.884l-5.134 2.705a.5.5 0 0 1 -.676-.209zm.117-3.141a.5.5 0 0 1 .209-.675l5.162-2.719a.5.5 0 1 1 .466.884l-5.161 2.719a.5.5 0 0 1 -.676-.209zm.187-2.729a.5.5 0 0 1 .209-.675l4.975-2.621a.5.5 0 0 1 .466.885l-4.975 2.621a.5.5 0 0 1 -.675-.21zm0-3.006a.5.5 0 0 1 .209-.675l4.975-2.621a.5.5 0 1 1 .466.885l-4.975 2.62a.5.5 0 0 1 -.675-.209zm-5.349-5.414a.5.5 0 0 1 .21-.675l4.716-2.485a.5.5 0 1 1 .466.885l-4.716 2.484a.5.5 0 0 1 -.676-.209zm3.075 1.386a.5.5 0 0 1 .21-.675l5.527-2.912a.5.5 0 1 1 .466.885l-5.527 2.912a.5.5 0 0 1 -.676-.21zm-12.536-5.117a.5.5 0 0 1 .209-.675l4.165-2.194a.5.5 0 1 1 .466.885l-4.165 2.194a.5.5 0 0 1 -.675-.21zm3.01 1.42a.5.5 0 0 1 .21-.675l4.411-2.324a.5.5 0 1 1 .466.885l-4.411 2.324a.5.5 0 0 1 -.676-.21zm2.873 1.117a.5.5 0 0 1 .209-.675l4.816-2.537a.5.5 0 1 1 .466.885l-4.815 2.537a.5.5 0 0 1 -.676-.21zm-15.776-6.012a.5.5 0 0 1 .21-.676l4.098-2.159a.5.5 0 0 1 .466.885l-4.098 2.159a.5.5 0 0 1 -.676-.209zm3.441 1.193a.499.499 0 0 1 .21-.675l3.914-2.063a.501.501 0 0 1 .466.885l-3.914 2.063a.5.5 0 0 1 -.676-.21zm2.581 1.271a.5.5 0 0 1 .209-.675l4.301-2.266a.5.5 0 1 1 .466.885l-4.301 2.265a.5.5 0 0 1 -.675-.209zm-16.018-5.914a.5.5 0 0 1 .209-.675l4.082-2.15a.5.5 0 1 1 .466.884l-4.082 2.151a.5.5 0 0 1 -.675-.21zm3.115 1.365a.5.5 0 0 1 .209-.675l4.301-2.266a.5.5 0 1 1 .466.885l-4.3 2.266a.5.5 0 0 1 -.676-.21zm2.581 1.271a.5.5 0 0 1 .209-.675l5.003-2.636a.5.5 0 1 1 .466.885l-5.003 2.635a.5.5 0 0 1 -.675-.209zm-16.344-6.199a.5.5 0 0 1 .21-.675l4.3-2.266a.5.5 0 1 1 .466.884l-4.3 2.266a.5.5 0 0 1 -.676-.209zm3.44 1.193a.5.5 0 0 1 .21-.675l3.871-2.039a.5.5 0 1 1 .466.885l-3.87 2.039a.5.5 0 0 1 -.676-.21zm3.011 1.045a.5.5 0 0 1 .21-.676l4.248-2.237a.5.5 0 1 1 .466.884l-4.248 2.238a.5.5 0 0 1 -.676-.209zm-16.236-5.556a.5.5 0 0 1 .21-.676l4.193-2.209a.5.5 0 1 1 .466.885l-4.194 2.209a.5.5 0 0 1 -.675-.209zm2.903 1.476a.5.5 0 0 1 .21-.675l4.435-2.337a.5.5 0 1 1 .466.885l-4.435 2.336a.5.5 0 0 1 -.675-.209zm3.714.674a.5.5 0 0 1 .21-.675l3.597-1.896a.5.5 0 1 1 .467.885l-3.599 1.895a.5.5 0 0 1 -.675-.209zm-16.616-5.599a.5.5 0 0 1 .21-.675l4.3-2.266a.5.5 0 1 1 .466.885l-4.3 2.266a.5.5 0 0 1 -.676-.21zm3.01 1.42a.5.5 0 0 1 .21-.675l4.73-2.492a.5.5 0 1 1 .467.884l-4.731 2.493a.5.5 0 0 1 -.676-.21zm3.441.818a.5.5 0 0 1 .21-.675l4.247-2.238a.5.5 0 1 1 .466.885l-4.248 2.238a.5.5 0 0 1 -.675-.21zm-10.322-3.278a.5.5 0 0 1 .21-.675l5.16-2.719a.5.5 0 1 1 .466.885l-5.16 2.719a.5.5 0 0 1 -.676-.21z" fill="#000" fill-rule="evenodd"/><path d="m12.232 55.41-.078-.052a1.782 1.782 0 0 0 -.208-.052 1.09 1.09 0 0 0 -.26-.026.87.87 0 0 1 -.598-.468 1.017 1.017 0 0 1 -.078-.754c.069-.07.12-.217.156-.442a3.85 3.85 0 0 0 .052-.546 2.73 2.73 0 0 0 .13-.286l.13-.52c.052-.295.138-.702.26-1.222l.442-1.716c.173-.607.338-1.187.494-1.742a42.12 42.12 0 0 1 .416-1.404c.138-.381.234-.598.286-.65v-.286l.026-.234c.034-.173.12-.364.26-.572.069-.19.13-.399.182-.624s.078-.373.078-.442c.069-.087.164-.295.286-.624.138-.347.268-.685.39-1.014.104-.277.216-.572.338-.884.138-.312.25-.58.338-.806l.156-.338v-.13c.069-.07.234-.416.494-1.04.277-.641.65-1.465 1.118-2.47.069-.139.156-.295.26-.468s.156-.295.156-.364a.355.355 0 0 1 .364-.182c.156 0 .312.052.468.156a.97.97 0 0 1 .39.442l.26.416-.936 1.872a19.93 19.93 0 0 0 -.702 1.326c-.174.399-.26.633-.26.702l-.156.416a90.7 90.7 0 0 0 -.364.988c-.14.381-.26.728-.364 1.04-.191.537-.373.98-.546 1.326-.156.347-.234.555-.234.624 0-.035.19-.06.572-.078.38-.017.866-.026 1.456-.026h1.794c.624-.017 1.17-.026 1.638-.026.485-.017.814-.043.988-.078l1.352-.13.884-2.678c.138-.485.32-1.075.546-1.768.225-.693.424-1.283.598-1.768.277-.797.494-1.291.65-1.482.156-.19.338-.286.546-.286.052 0 .12.017.208.052.104.017.199.06.286.13.104.052.173.13.208.234.208.19.303.407.286.65 0 .243-.14.563-.416.962a8.21 8.21 0 0 0 -.702 1.534c-.174.537-.33.98-.468 1.326 0 .208-.026.381-.078.52a.905.905 0 0 1 -.182.286c-.035.035-.104.165-.208.39s-.2.45-.286.676c-.087.225-.13.364-.13.416 0 .121-.026.269-.078.442s-.113.295-.182.364a30.04 30.04 0 0 0 -.234.78c-.122.416-.26.91-.416 1.482a46.06 46.06 0 0 1 -.494 1.638 24.3 24.3 0 0 1 -.468 1.3c0 .121-.044.277-.13.468-.087.173-.13.33-.13.468l-.26.78c-.104.312-.156.511-.156.598a40.76 40.76 0 0 1 -.286 1.222 47.15 47.15 0 0 1 -.234 1.066 6.004 6.004 0 0 0 -.078.546c-.07.07-.174.078-.312.026a53.738 53.738 0 0 0 -.494-.182c-.33-.19-.53-.399-.598-.624-.052-.208.017-.511.208-.91.086-.139.19-.477.312-1.014.138-.555.277-1.1.416-1.638.104-.26.216-.607.338-1.04.12-.45.242-.901.364-1.352.12-.468.225-.858.312-1.17.086-.33.147-.511.182-.546v-.26c-.035-.035-.252-.06-.65-.078a13.1 13.1 0 0 0 -1.482-.026c-.59 0-1.205.017-1.846.052-.624.017-1.188.06-1.69.13h-1.898l-.182.546c-.104.312-.226.693-.364 1.144-.14.433-.286.884-.442 1.352-.14.45-.26.867-.364 1.248-.087.364-.148.624-.182.78-.07.312-.165.702-.286 1.17-.104.468-.226.945-.364 1.43-.122.503-.234.936-.338 1.3a11.63 11.63 0 0 1 -.182.702zm14.052-3.094a.785.785 0 0 0 -.26-.312c-.104-.087-.156-.165-.156-.234a.856.856 0 0 0 -.026-.208.323.323 0 0 0 -.104-.234c-.087-.104-.078-.338.026-.702.104-.381.277-.84.52-1.378.243-.555.529-1.135.858-1.742a2.99 2.99 0 0 0 .416-.546c.139-.225.243-.373.312-.442 0-.07.026-.13.078-.182.052-.07.113-.104.182-.104v-.156c0-.087.078-.234.234-.442.173-.208.381-.433.624-.676a9.89 9.89 0 0 1 .754-.728 4.19 4.19 0 0 1 .65-.52c.364-.243.737-.39 1.118-.442.399-.052.737.035 1.014.26l.26.26.416.416c.173.139.347.286.52.442l.962.858-.468 1.3c-.225.693-.286 1.3-.182 1.82.121.52.295.97.52 1.352.087.19.26.373.52.546.277.173.537.277.78.312.139.017.269.07.39.156.121.087.182.225.182.416a.74.74 0 0 1 -.104.416c-.07.104-.19.173-.364.208-.572.07-1.11-.07-1.612-.416-.485-.347-.936-.919-1.352-1.716a4.2 4.2 0 0 1 -.286-.572 5.672 5.672 0 0 1 -.182-.572c-.07.087-.2.251-.39.494-.19.225-.338.39-.442.494-1.23 1.248-2.297 2.089-3.198 2.522-.884.416-1.62.433-2.21.052zm.936-1.456c0 .121.182.121.546 0 .381-.139.789-.381 1.222-.728a25.995 25.995 0 0 0 1.768-1.664c.607-.607 1.092-1.17 1.456-1.69l.572-.936c-.173-.399-.364-.667-.572-.806-.19-.156-.355-.234-.494-.234-.225 0-.563.208-1.014.624-.433.416-.901.97-1.404 1.664-.503.693-.98 1.456-1.43 2.288-.173.347-.33.685-.468 1.014zm10.726 1.482a1.298 1.298 0 0 1 -.338-.364c-.052-.121-.052-.355 0-.702.052-.485.12-.91.208-1.274.086-.381.19-.815.312-1.3.034-.208.13-.563.286-1.066a37.932 37.932 0 0 1 1.352-3.302c.242-.537.45-.936.624-1.196a.69.69 0 0 1 .494-.13.805.805 0 0 1 .52.234c.19.156.216.433.078.832-.122.381-.382.988-.78 1.82-.208.468-.364.823-.468 1.066-.104.225-.148.364-.13.416.017.035.095.009.234-.078.104-.19.294-.407.572-.65.277-.26.572-.511.884-.754s.606-.46.884-.65c.277-.19.468-.312.572-.364.138-.087.294-.156.468-.208a4.4 4.4 0 0 0 .39-.156 2.16 2.16 0 0 1 1.222-.208c.416.052.676.208.78.468a.448.448 0 0 0 .156.312l.156.104c.069 0 .104.026.104.078l.026.078c0 .121-.096.2-.286.234-.174.017-.4.035-.676.052-.226.017-.425.06-.598.13-.174.07-.382.156-.624.26-.66.381-1.292.754-1.898 1.118-.59.364-1.162.85-1.716 1.456a4.046 4.046 0 0 0 -.364.494c-.122.19-.252.399-.39.624-.087.087-.174.277-.26.572-.087.295-.165.58-.234.858-.052.26-.078.416-.078.468l-.078.26a1.585 1.585 0 0 1 -.26.468c-.208.277-.382.416-.52.416-.14 0-.347-.139-.624-.416zm16.935.598c-.174 0-.356-.095-.546-.286a3.096 3.096 0 0 1 -.468-.702 2.192 2.192 0 0 1 -.182-.832c0-.26.06-.745.182-1.456.138-.71.303-1.43.494-2.158.138-.45.182-.71.13-.78s-.286.026-.702.286c-.243.121-.46.251-.65.39-.191.121-.356.26-.494.416a9.77 9.77 0 0 0 -.39.338 6.748 6.748 0 0 1 -.546.442c-.226.173-.512.416-.858.728l-1.04.936c-.33.312-.581.555-.754.728a.572.572 0 0 1 -.39.286.913.913 0 0 1 -.286-.052 1.241 1.241 0 0 1 -.546-.338.868.868 0 0 1 -.234-.598c0-.173.069-.468.208-.884.138-.433.32-.953.546-1.56.242-.607.52-1.248.832-1.924.052-.087.095-.19.13-.312a3.59 3.59 0 0 0 .078-.442 2.04 2.04 0 0 0 .052-.442c0-.087.008-.173.026-.26.034-.104.069-.2.104-.286a.872.872 0 0 1 .13-.208c.069-.139.19-.173.364-.104.173.052.32.173.442.364.26.243.39.546.39.91.017.364-.07.815-.26 1.352a3.56 3.56 0 0 0 -.182.364c-.035.104-.07.2-.104.286-.035.07-.061.13-.078.182l-.026.052c.069 0 .225-.078.468-.234.242-.156.528-.33.858-.52.26-.19.485-.364.676-.52.208-.173.381-.303.52-.39.138-.104.225-.156.26-.156a.615.615 0 0 0 .26-.078.99.99 0 0 0 .26-.182c.069-.07.121-.104.156-.104l.078-.026h.104a.46.46 0 0 0 .208-.13c.138-.104.32-.13.546-.078.225.035.433.121.624.26.19.139.286.295.286.468 0 .07.017.13.052.182l.078.052c.138 0 .225.217.26.65.052.433.008.85-.13 1.248 0 .26-.052.572-.156.936-.087.364-.165.71-.234 1.04a7.832 7.832 0 0 0 -.286 1.144 2.76 2.76 0 0 0 -.026.832c.034.225.095.407.182.546.069.121.069.26 0 .416-.07.139-.208.208-.416.208zm6.14.39c-.762 0-1.386-.286-1.871-.858-.486-.59-.72-1.317-.702-2.184a8.91 8.91 0 0 1 .364-2.002c.225-.728.52-1.421.884-2.08a9.837 9.837 0 0 1 1.196-1.768c.433-.503.884-.858 1.352-1.066.173-.087.355-.156.546-.208.208-.052.416-.078.624-.078.19 0 .39.035.598.104.208.052.381.113.52.182.294.121.52.269.676.442s.294.442.416.806c.052.33.078.563.078.702s-.044.347-.13.624a5.846 5.846 0 0 1 -.806 1.612c-.33.45-.772.832-1.326 1.144a1.846 1.846 0 0 1 -.494.208 2.912 2.912 0 0 1 -1.56-.13 1.842 1.842 0 0 1 -.754-.598l-.182-.208-.078.208c-.174.468-.312.901-.416 1.3a5.16 5.16 0 0 0 -.13 1.092c0 .208.017.407.052.598.052.19.121.355.208.494.07.104.182.182.338.234.173.035.355.052.546.052h.364c.138-.017.268-.052.39-.104.294-.104.528-.217.702-.338.19-.121.381-.251.572-.39l.104-.052h-.026a5.1 5.1 0 0 0 .546-.312l.26-.156c.07 0 .138-.043.208-.13.138-.07.312-.043.52.078.225.121.338.277.338.468-.018.087-.096.225-.234.416a4.176 4.176 0 0 1 -.468.494c-.156.156-.286.243-.39.26a1.02 1.02 0 0 1 -.182.104.562.562 0 0 0 -.208.104h.026c-.156.208-.312.312-.468.312h-.208c-.07.121-.295.26-.676.416a3.262 3.262 0 0 1 -1.118.208zm1.17-5.72c.313 0 .581-.087.807-.26.242-.19.45-.399.624-.624.346-.468.546-.919.598-1.352.07-.45.017-.763-.156-.936a.647.647 0 0 0 -.286-.078c-.07-.017-.217.009-.442.078-.156.035-.373.165-.65.39-.278.225-.555.477-.832.754-.26.277-.46.511-.598.702l-.338.546c.138-.052.268-.078.39-.078.138-.017.216-.009.234.026 0 .156.026.303.078.442.07.121.147.217.234.286a.59.59 0 0 0 .338.104zm7.182 5.278c-.867 0-1.5-.312-1.898-.936a.902.902 0 0 1 -.182-.52c.017-.19.07-.32.156-.39.104-.07.225-.009.364.182.242.139.59.208 1.04.208.225 0 .46-.017.702-.052a5.73 5.73 0 0 0 .728-.208c.26-.121.433-.225.52-.312.087-.104.07-.19-.052-.26h.026a6.129 6.129 0 0 1 -1.378-.572 7.12 7.12 0 0 1 -1.17-.884c-.33-.33-.52-.624-.572-.884a2.667 2.667 0 0 1 .104-1.638 4.676 4.676 0 0 1 .884-1.508c.139-.087.312-.19.52-.312.208-.139.372-.217.494-.234v.026a3.7 3.7 0 0 1 1.196-.832c.485-.208.996-.399 1.534-.572l.39-.052c.208-.035.381-.052.52-.052-.018 0 .017.017.104.052.087.017.164.035.234.052a.61.61 0 0 0 .26.078c.225.035.433.139.624.312.19.173.338.381.442.624.121.225.165.442.13.65-.035.33-.139.624-.312.884-.156.26-.347.407-.572.442.034-.017.008-.043-.078-.078a2.761 2.761 0 0 0 -.234-.156l-.078.052-.026-.052a.42.42 0 0 0 -.052-.182.745.745 0 0 1 -.078-.338c0-.139.008-.286.026-.442.035-.19.035-.303 0-.338-.017-.035-.13-.06-.338-.078-.243-.052-.598-.009-1.066.13-.45.139-.832.33-1.144.572a8.17 8.17 0 0 0 -.962.702 3.53 3.53 0 0 0 -.624.624c-.156.19-.295.416-.416.676a4.25 4.25 0 0 0 -.234.364.647.647 0 0 0 -.078.286c0 .19.139.39.416.598.294.19.728.416 1.3.676.45.19.832.399 1.144.624s.529.485.65.78a.42.42 0 0 1 .026.26c0 .087-.017.147-.052.182.034.035.052.06.052.078v-.026c.138.208.138.425 0 .65-.121.225-.338.425-.65.598a4.03 4.03 0 0 1 -1.092.364h.026a4.71 4.71 0 0 1 -.676.156 7.225 7.225 0 0 1 -.598.026zm8.055.468a4.26 4.26 0 0 1 -.936-.546c-.294-.243-.485-.442-.572-.598 0-.156.026-.26.078-.312.052-.07.2-.095.442-.078.26 0 .676.035 1.248.104.208 0 .468-.017.78-.052s.598-.087.858-.156c.278-.07.434-.156.468-.26.087 0 .104-.026.052-.078a1.947 1.947 0 0 0 -.182-.208.466.466 0 0 1 -.234-.078c-.087-.07-.165-.104-.234-.104 0-.087-.087-.182-.26-.286a2.03 2.03 0 0 0 -.494-.286c-.381-.312-.71-.59-.988-.832-.277-.26-.381-.433-.312-.52v-.13c-.121 0-.26-.173-.416-.52-.138-.347-.208-.659-.208-.936 0-.208.06-.468.182-.78.121-.33.286-.667.494-1.014s.425-.633.65-.858c.312-.295.702-.607 1.17-.936.468-.347.928-.65 1.378-.91.468-.277.858-.46 1.17-.546.312-.121.598-.182.858-.182.278 0 .52.06.728.182.174.087.33.217.468.39.156.156.286.32.39.494.121.156.2.295.234.416 0 .208-.017.442-.052.702a3.28 3.28 0 0 1 -.156.65c-.052.19-.138.286-.26.286l-.078.026c-.035 0-.052.043-.052.13 0 .173-.13.373-.39.598-.33.225-.615.364-.858.416-.243.035-.39-.06-.442-.286a.676.676 0 0 1 -.104-.182c-.017-.052-.06-.078-.13-.078l-.078-.078c-.052-.052-.078-.139-.078-.26 0-.07.026-.13.078-.182l.078-.104c.087 0 .2-.095.338-.286a4.77 4.77 0 0 0 .364-.65c.121-.243.182-.407.182-.494 0-.104-.017-.165-.052-.182-.017-.017-.095-.026-.234-.026-.243.104-.537.243-.884.416s-.676.347-.988.52c-.294.156-.511.303-.65.442-.07.121-.112.2-.13.234-.017.017-.06.026-.13.026 0-.07-.06-.035-.182.104-.104.121-.243.295-.416.52l-.468.676-.312.468c-.035.035-.078.139-.13.312a2.039 2.039 0 0 0 -.052.442c-.07.208-.06.355.026.442.087.07.278.225.572.468.607.45 1.084.823 1.43 1.118.347.295.607.537.78.728.174.19.278.364.312.52.312.52.407.919.286 1.196s-.416.52-.884.728c-.173.087-.46.156-.858.208a9.44 9.44 0 0 1 -1.222.078 5.682 5.682 0 0 1 -.988-.026zm-65.716 28.144c-.208 0-.382-.113-.52-.338a.812.812 0 0 1 -.208-.442c-.018-.173.043-.494.182-.962.138-.485.372-1.222.702-2.21.173-.659.312-1.135.416-1.43.104-.312.156-.537.156-.676 0-.19.017-.347.052-.468.052-.139.078-.269.078-.39.104 0 .208-.095.312-.286.104-.19.19-.45.26-.78.069-.295.13-.529.182-.702.069-.19.104-.32.104-.39.086-.139.173-.355.26-.65.104-.295.26-.65.468-1.066.138-.52.294-1.057.468-1.612.173-.572.346-1.1.52-1.586.19-.503.346-.893.468-1.17.19-.537.338-.91.442-1.118.104-.225.104-.373 0-.442-.122-.087-.148-.234-.078-.442.069-.208.26-.442.572-.702.19-.225.355-.381.494-.468a.842.842 0 0 1 .52-.156c.225 0 .546.017.962.052.312.017.64.026.988.026h.676c.156.07.346.147.572.234.225.07.424.139.598.208.19.07.286.13.286.182 0 .104.034.173.104.208l.26.052c.12 0 .286.095.494.286.208.173.424.399.65.676.225.26.398.537.52.832.138.295.242.572.312.832.086.26.086.633 0 1.118-.018.26-.061.52-.13.78-.052.26-.113.433-.182.52-.104.07-.2.156-.286.26-.087.104-.13.2-.13.286 0 .07-.061.208-.182.416a12.859 12.859 0 0 1 -1.092 1.456c-.226.26-.442.485-.65.676a4.941 4.941 0 0 1 -.806.78 8.684 8.684 0 0 1 -.806.598c-.451.208-.954.416-1.508.624-.538.208-1.058.381-1.56.52-.486.139-.893.2-1.222.182-.503.07-.832.139-.988.208-.14.052-.243.2-.312.442-.087.225-.174.46-.26.702-.07.225-.104.381-.104.468-.035.07-.122.286-.26.65-.122.347-.26.754-.416 1.222-.14.468-.278.927-.416 1.378-.14.45-.243.823-.312 1.118-.07.243-.156.381-.26.416a.868.868 0 0 1 -.39.078zm3.224-8.06c.069.07.338.078.806.026a6.06 6.06 0 0 0 1.508-.39 8.926 8.926 0 0 0 1.04-.442c.364-.173.71-.364 1.04-.572.173-.121.433-.338.78-.65a9.413 9.413 0 0 0 1.04-1.118 9.19 9.19 0 0 0 .26-.494c.138-.26.26-.503.364-.728.156-.243.312-.598.468-1.066.156-.485.19-.884.104-1.196-.087-.45-.312-.867-.676-1.248a2.707 2.707 0 0 0 -1.3-.806 5.534 5.534 0 0 0 -.962-.104 4.67 4.67 0 0 0 -.806.078c-.278.087-.486.208-.624.364-.122.156-.286.485-.494.988-.122.243-.295.615-.52 1.118a16.58 16.58 0 0 0 -.572 1.378c-.312 1.144-.624 2.089-.936 2.834a57.51 57.51 0 0 0 -.546 1.378c.017.19.008.33-.026.416-.035.07-.018.147.052.234zm9.61 6.812c-.33.087-.598.017-.806-.208-.19-.225-.303-.572-.338-1.04s.017-1.023.156-1.664c.087-.208.156-.407.208-.598a2.17 2.17 0 0 0 .078-.494 7.84 7.84 0 0 1 .208-.754 37.01 37.01 0 0 1 .676-2.028c.121-.295.2-.477.234-.546.07 0 .13-.06.182-.182a.918.918 0 0 0 .078-.364c0-.139.026-.295.078-.468.07-.173.139-.295.208-.364a.91.91 0 0 1 .052-.286.79.79 0 0 0 .078-.286.46.46 0 0 1 .052-.208.346.346 0 0 0 .078-.208c.121-.225.277-.58.468-1.066.208-.503.425-1.057.65-1.664a46.519 46.519 0 0 0 1.17-3.276c.139-.416.208-.667.208-.754 0-.139.035-.243.104-.312.07-.07.173-.104.312-.104a.386.386 0 0 1 .182-.104 1.2 1.2 0 0 1 .234-.026l.104.104.312.312a.64.64 0 0 1 .234.416c.035.156.052.338.052.546 0 .225-.026.425-.078.598a5.928 5.928 0 0 1 -.312.754l-.728 1.534c-.139.347-.286.676-.442.988-.156.295-.234.477-.234.546 0 .07-.035.173-.104.312-.052.139-.113.312-.182.52-.07.139-.165.347-.286.624-.121.26-.251.546-.39.858-.121.295-.225.555-.312.78-.087.208-.13.33-.13.364 0 .07-.009.139-.026.208 0 .07-.035.139-.104.208-.07 0-.113.052-.13.156v.13c0 .173-.139.633-.416 1.378a211.12 211.12 0 0 1 -.78 2.626c-.225.797-.338 1.439-.338 1.924 0 .416-.009.693-.026.832-.017.121-.095.217-.234.286zm3.795-.936a.784.784 0 0 0 -.26-.312c-.104-.087-.156-.165-.156-.234a.856.856 0 0 0 -.026-.208.323.323 0 0 0 -.104-.234c-.087-.104-.078-.338.026-.702.104-.381.277-.84.52-1.378a22.94 22.94 0 0 1 .858-1.742c.138-.139.277-.32.416-.546.138-.225.242-.373.312-.442 0-.07.026-.13.078-.182.052-.07.112-.104.182-.104v-.156c0-.087.078-.234.234-.442.173-.208.38-.433.624-.676.242-.26.494-.503.754-.728.26-.243.476-.416.65-.52.364-.243.736-.39 1.118-.442.398-.052.736.035 1.014.26l.26.26.416.416c.173.139.346.286.52.442l.962.858-.468 1.3c-.226.693-.286 1.3-.182 1.82.12.52.294.97.52 1.352.086.19.26.373.52.546.277.173.537.277.78.312.138.017.268.07.39.156.12.087.182.225.182.416a.74.74 0 0 1 -.104.416c-.07.104-.191.173-.364.208-.572.07-1.11-.07-1.612-.416-.486-.347-.936-.919-1.352-1.716a4.213 4.213 0 0 1 -.286-.572 5.672 5.672 0 0 1 -.182-.572c-.07.087-.2.251-.39.494-.191.225-.338.39-.442.494-1.231 1.248-2.297 2.089-3.198 2.522-.884.416-1.621.433-2.21.052zm.936-1.456c0 .121.182.121.546 0 .38-.139.788-.381 1.222-.728a25.972 25.972 0 0 0 1.768-1.664c.606-.607 1.092-1.17 1.456-1.69l.572-.936c-.174-.399-.364-.667-.572-.806-.191-.156-.356-.234-.494-.234-.226 0-.564.208-1.014.624-.434.416-.902.97-1.404 1.664-.503.693-.98 1.456-1.43 2.288-.174.347-.33.685-.468 1.014zm13.481 2.34a2.874 2.874 0 0 1 -.598-.234 6.766 6.766 0 0 1 -.624-.494 5.192 5.192 0 0 1 -.494-.78 2.927 2.927 0 0 1 -.208-.832 12.21 12.21 0 0 1 -.052-1.248c0-.208.035-.52.104-.936.087-.416.182-.85.286-1.3.122-.468.226-.884.312-1.248a8.64 8.64 0 0 0 .182-.702c.052-.225-.034-.355-.26-.39a3.524 3.524 0 0 0 -.754-.026c-.26 0-.433-.026-.52-.078-.07-.017-.104-.043-.104-.078v-.078c0-.07-.008-.113-.026-.13 0-.035-.026-.095-.078-.182-.035-.07-.017-.165.052-.286a.585.585 0 0 1 .416-.26 4.37 4.37 0 0 1 .624-.078c.278-.035.555-.095.832-.182.278-.104.503-.26.676-.468.156-.381.338-.806.546-1.274a21.5 21.5 0 0 1 .598-1.248c.208-.381.347-.615.416-.702.295-.156.511-.217.65-.182.139.017.295.165.468.442.087.121.148.217.182.286.052.07.06.173.026.312s-.13.355-.286.65c-.139.295-.355.72-.65 1.274l-.234.468-.104.182c.07.017.173.026.312.026s.312-.009.52-.026c.19-.035.433-.06.728-.078.295-.035.529-.035.702 0 .399 0 .694.078.884.234.19.139.295.381.312.728.035.19-.008.303-.13.338-.104.035-.39.052-.858.052-.156 0-.398.009-.728.026s-.676.035-1.04.052c-.346.017-.65.043-.91.078-.242.017-.364.043-.364.078-.052.035-.139.2-.26.494a34.28 34.28 0 0 0 -.338 1.014c-.104.364-.2.693-.286.988-.121.59-.216 1.179-.286 1.768-.052.59-.06 1.1-.026 1.534.035.433.13.737.286.91.156.156.46.19.91.104.45-.104.815-.269 1.092-.494.312-.26.563-.39.754-.39.208 0 .32.095.338.286.035.173-.06.425-.286.754a3.54 3.54 0 0 1 -.78.832c-.312.225-.641.39-.988.494a1.71 1.71 0 0 1 -.936 0zm6.84 2.652a1.232 1.232 0 0 1 -.39-.208c-.139-.087-.208-.165-.208-.234a1.88 1.88 0 0 1 .078-.338 1.48 1.48 0 0 0 .078-.26c.034-.173.052-.381.052-.624 0-.225.026-.659.078-1.3l.13-1.742c.052-.468.104-.884.156-1.248.052-.381.112-.763.182-1.144.086-.381.19-.832.312-1.352.086-.59.086-.953 0-1.092-.07-.139-.2-.217-.39-.234a5.817 5.817 0 0 1 -.884-.156c-.243-.087-.399-.234-.468-.442-.174-.173-.217-.312-.13-.416.086-.104.26-.182.52-.234a2.94 2.94 0 0 1 .884-.078c.294-.017.52-.035.676-.052a.666.666 0 0 0 .416-.26c.104-.156.208-.416.312-.78a8.61 8.61 0 0 1 .182-.65c.104-.277.19-.529.26-.754l.13-.338a.567.567 0 0 0 .234-.468c.017-.243.13-.563.338-.962.225-.416.58-.997 1.066-1.742.589-.763 1.118-1.36 1.586-1.794a3.275 3.275 0 0 1 1.69-.806c.069-.035.225-.052.468-.052h.494c.364.017.615.087.754.208.138.121.286.33.442.624.138.225.156.537.052.936-.087.381-.2.676-.338.884a2.766 2.766 0 0 1 -.39.468 5.9 5.9 0 0 1 -.468.468c-.139.121-.243.182-.312.182a.502.502 0 0 1 -.26-.078.459.459 0 0 0 -.208-.13c-.156-.07-.182-.19-.078-.364.104-.19.216-.373.338-.546.173-.26.286-.468.338-.624a.914.914 0 0 0 .052-.416 3.114 3.114 0 0 0 -.104-.442l.234.234a.668.668 0 0 0 -.416-.078c-.156.017-.33.06-.52.13a3.29 3.29 0 0 0 -.806.572c-.208.19-.382.355-.52.494a4.288 4.288 0 0 0 -1.014 1.326l-.728 1.456c-.07.139-.191.399-.364.78-.156.364-.304.71-.442 1.04-.122.312-.243.59-.364.832-.122.225-.182.364-.182.416-.052.121-.026.182.078.182.121 0 .355-.009.702-.026.849-.104 1.482-.13 1.898-.078.433.035.684.19.754.468.294.416.251.676-.13.78-.364.087-1.04.2-2.028.338l-.832.052c-.278 0-.46.009-.546.026a.959.959 0 0 0 -.208.078c-.07.035-.148.208-.234.52-.018.19-.052.425-.104.702-.035.26-.061.511-.078.754-.07.208-.122.425-.156.65-.018.225-.07.425-.156.598a40.438 40.438 0 0 0 -.208 2.652 27.157 27.157 0 0 1 -.156 2.054c-.052.572-.191 1.014-.416 1.326a1.29 1.29 0 0 1 -.39.312c-.122.087-.234.087-.338 0zm8.814-3.588c-.364.07-.598.095-.702.078-.087-.035-.225-.139-.416-.312a2.391 2.391 0 0 1 -.702-.52 2.317 2.317 0 0 1 -.39-.65c-.07-.243-.095-.442-.078-.598.052-.607.2-1.257.442-1.95.243-.693.537-1.36.884-2.002a8.723 8.723 0 0 1 1.118-1.638c.416-.468.815-.771 1.196-.91.347-.139.676-.19.988-.156.312.035.537.2.676.494.26.503.2.823-.182.962-.052 0-.113.026-.182.078-.07.035-.104.087-.104.156.07.035.26.043.572.026a8.8 8.8 0 0 0 .936-.156c.33-.087.546-.173.65-.26a.599.599 0 0 1 .234-.078c.052 0 .182.017.39.052.295.087.442.19.442.312 0 .07.026.139.078.208a.25.25 0 0 0 .182.078c.121.017.104.095-.052.234-.139.139-.381.33-.728.572-.33.208-.537.347-.624.416-.07.052-.078.173-.026.364.139.33.147.71.026 1.144a4.463 4.463 0 0 1 -.65 1.326 7.11 7.11 0 0 1 -1.144 1.274c-.433.381-.901.71-1.404.988-.485.26-.962.416-1.43.468zm-.442-1.144c.07 0 .19-.035.364-.104l.416-.208c.07-.07.156-.147.26-.234.121-.104.217-.165.286-.182a.61.61 0 0 0 .26-.078c.104-.07.251-.2.442-.39.19-.208.442-.511.754-.91.347-.381.615-.728.806-1.04.19-.33.243-.633.156-.91-.017-.07-.07-.113-.156-.13a1.251 1.251 0 0 1 -.286-.13 1 1 0 0 1 -.494-.13 15.363 15.363 0 0 1 -.494-.39l-.416-.52-.442.442c-.277.277-.572.693-.884 1.248a11.954 11.954 0 0 0 -.754 1.664c-.208.555-.33.997-.364 1.326-.017.26.026.433.13.52a.752.752 0 0 0 .416.156zm7.372 1.222a1.3 1.3 0 0 1 -.338-.364c-.052-.121-.052-.355 0-.702.052-.485.121-.91.208-1.274.087-.381.19-.815.312-1.3.035-.208.13-.563.286-1.066.173-.503.381-1.049.624-1.638.243-.59.485-1.144.728-1.664.243-.537.45-.936.624-1.196a.69.69 0 0 1 .494-.13.805.805 0 0 1 .52.234c.19.156.217.433.078.832-.121.381-.381.988-.78 1.82-.208.468-.364.823-.468 1.066-.104.225-.147.364-.13.416.017.035.095.009.234-.078.104-.19.295-.407.572-.65.277-.26.572-.511.884-.754s.607-.46.884-.65.468-.312.572-.364c.139-.087.295-.156.468-.208.19-.07.32-.121.39-.156a2.16 2.16 0 0 1 1.222-.208c.416.052.676.208.78.468.017.139.07.243.156.312l.156.104c.07 0 .104.026.104.078l.026.078c0 .121-.095.2-.286.234a19.18 19.18 0 0 1 -.676.052c-.225.017-.425.06-.598.13s-.381.156-.624.26c-.659.381-1.291.754-1.898 1.118-.59.364-1.161.85-1.716 1.456a4.067 4.067 0 0 0 -.364.494c-.121.19-.251.399-.39.624-.087.087-.173.277-.26.572s-.165.58-.234.858c-.052.26-.078.416-.078.468l-.078.26a1.583 1.583 0 0 1 -.26.468c-.208.277-.381.416-.52.416s-.347-.139-.624-.416zm9.603-.052a1.716 1.716 0 0 1 -.156-.26.855.855 0 0 1 -.052-.26.429.429 0 0 0 -.026-.13c0-.052-.034-.078-.104-.078-.052-.052-.017-.251.104-.598.139-.364.312-.78.52-1.248.226-.468.45-.919.676-1.352a27.7 27.7 0 0 1 .598-1.066.31.31 0 0 0 .156-.208c.035-.104.035-.156 0-.156l.13-.234c.104-.173.182-.286.234-.338a3.29 3.29 0 0 0 .312-.728c.07-.26.087-.477.052-.65-.07-.087-.147-.113-.234-.078l-.13.052c-.07.017-.173.052-.312.104a1.196 1.196 0 0 0 -.338.156c-.398.277-.667.407-.806.39-.139-.035-.294-.26-.468-.676-.07-.19-.095-.33-.078-.416.017-.087.087-.182.208-.286.139-.121.269-.2.39-.234a1.41 1.41 0 0 0 .286-.156c.19-.121.347-.208.468-.26.139-.052.243-.087.312-.104.45-.139.832-.165 1.144-.078s.546.312.702.676c.243.295.364.633.364 1.014 0 .364-.121.789-.364 1.274l-.26.39c-.087.173-.104.26-.052.26.07 0 .147-.06.234-.182.052-.07.156-.173.312-.312s.26-.208.312-.208l.052-.026c.052-.017.078-.087.078-.208l.156-.156.104-.078c.07 0 .2-.078.39-.234.208-.173.45-.373.728-.598.19-.139.364-.208.52-.208.399-.121.72.009.962.39.26.381.39.875.39 1.482l-.546 1.404.936-1.144c.104-.139.208-.26.312-.364.121-.104.225-.19.312-.26.035-.121.087-.19.156-.208l.104-.026h.052c.035-.017.052-.052.052-.104.087-.07.182-.13.286-.182a.59.59 0 0 0 .208-.208c.295-.121.563-.139.806-.052.243.07.45.286.624.65.121.208.19.39.208.546s.026.39.026.702a7.69 7.69 0 0 1 -.104.624c-.017.139-.035.286-.052.442s-.043.373-.078.65c-.07.139-.112.286-.13.442v.442c0 .225.009.381.026.468.017.07.087.104.208.104.243-.052.572-.173.988-.364.434-.208.754-.407.962-.598.26-.243.486-.364.676-.364.208-.017.338.078.39.286.035.07-.026.225-.182.468a4.694 4.694 0 0 1 -.494.702c-.173.225-.303.338-.39.338-.052 0-.112.052-.182.156a.88.88 0 0 1 -.234.208 6.488 6.488 0 0 1 -.364.338.499.499 0 0 1 -.364.156.613.613 0 0 0 -.26.078.841.841 0 0 1 -.312.052c-.173.052-.442.026-.806-.078-.347-.104-.572-.347-.676-.728-.07-.19-.13-.494-.182-.91a4.67 4.67 0 0 1 .026-1.3 5.62 5.62 0 0 0 .13-.858c.018-.26.052-.442.104-.546v-.364c0-.208-.026-.312-.078-.312-.07 0-.234.13-.494.39-.243.243-.537.555-.884.936-.33.381-.659.78-.988 1.196-.33.416-.598.789-.806 1.118-.156.19-.294.425-.416.702-.121.277-.208.433-.26.468-.121.139-.269.156-.442.052a1.567 1.567 0 0 1 -.442-.494 1.336 1.336 0 0 1 -.104-.26 1.093 1.093 0 0 1 0-.338c.035-.156.095-.381.182-.676a73.848 73.848 0 0 0 .91-2.834l.234-.728c0-.07-.13 0-.39.208-.26.19-.563.433-.91.728-.156.19-.416.477-.78.858s-.763.815-1.196 1.3-.85.997-1.248 1.534c-.502.71-.858 1.144-1.066 1.3-.19.156-.381.113-.572-.13zm93.593 103.158c-.33.052-.633.078-.91.078-.278.017-.685-.044-1.222-.182-.278-.087-.477-.191-.598-.312a27.464 27.464 0 0 1 -.546-.676 3.439 3.439 0 0 1 -.416-.78c-.07-.226-.078-.408-.026-.546.052-.122.164-.156.338-.104a.86.86 0 0 1 .234.156c.121.104.234.225.338.364.242.26.537.433.884.52.346.086.806.095 1.378.026.242-.052.537-.13.884-.234.346-.087.684-.2 1.014-.338.329-.139.589-.278.78-.416.918-.624 1.655-1.118 2.21-1.482l.832-.546a.32.32 0 0 1 .182-.156 3.78 3.78 0 0 1 .364-.156l.494-.494c.242-.226.468-.451.676-.676.225-.226.364-.356.416-.39.034-.156.069-.278.104-.364a1 1 0 0 0 .052-.312c.138-.139.32-.425.546-.858.242-.451.485-.945.728-1.482a8.791 8.791 0 0 0 .52-1.508c.242-1.214.303-2.236.181-3.068-.121-.832-.372-1.543-.753-2.132a6.43 6.43 0 0 0 -1.378-1.612 4.436 4.436 0 0 0 -.806-.494 7.086 7.086 0 0 0 -1.04-.494 16.291 16.291 0 0 0 -.962-.338c-.26-.087-.416-.122-.468-.104-.07.017-.217.294-.442.832a64.19 64.19 0 0 0 -.754 2.002c-.295.814-.616 1.681-.962 2.6l-.936 2.6c-.104.329-.217.676-.338 1.04-.122.364-.226.684-.312.962-.087.26-.13.433-.13.52-.191.294-.347.684-.468 1.17-.104.485-.226 1.291-.364 2.418-.156.589-.269 1.04-.338 1.352-.07.294-.139.433-.208.416l-.026.026-.078.078c0 .104-.07.156-.208.156-.139 0-.304-.035-.495-.104a1.595 1.595 0 0 1 -.415-.286 3.323 3.323 0 0 1 -.104-.546c0-.174.069-.512.208-1.014l.311-1.196c.139-.486.287-.98.443-1.482.156-.52.303-.997.442-1.43.138-.434.242-.763.312-.988.121-.295.294-.85.52-1.664l.416-1.352c.156-.451.303-.85.442-1.196.138-.364.234-.598.285-.702.087-.226.217-.607.391-1.144.173-.538.398-1.136.676-1.794l.182-.858-.287-.13c-.207.069-.372.095-.493.078a2.006 2.006 0 0 1 -.208-.078c-.104.034-.252.008-.442-.078a2.085 2.085 0 0 1 -.52-.338c-.139-.139-.226-.26-.26-.364a.91.91 0 0 1 -.078-.26v-.182c.017-.104.147-.2.39-.286a4.39 4.39 0 0 1 .936-.26c.398-.07.823-.113 1.274-.13a8.714 8.714 0 0 1 1.352 0c.45.034.875.13 1.274.286.398.156.832.32 1.3.494.554.208 1.135.572 1.742 1.092a9.254 9.254 0 0 1 1.69 1.794c.52.693.866 1.421 1.04 2.184.052.208.104.502.156.884.052.381.078.754.078 1.118.017.346-.018.572-.104.676a.9.9 0 0 0 -.078.26c0 .086.034.147.104.182a26.805 26.805 0 0 1 -.468 1.456c-.035.45-.139.918-.312 1.404-.174.485-.364.944-.572 1.378-.208.416-.399.771-.572 1.066a.454.454 0 0 0 -.208.052c-.052.017-.044.034.025.052 0 .086-.095.251-.285.494-.07.052-.182.182-.338.39-.139.19-.252.32-.339.39a.54.54 0 0 1 -.155.312c-.087.069-.165.104-.234.104h-.052c-.018 0-.026.034-.026.104a5.377 5.377 0 0 1 -.65.754c-.295.277-.633.572-1.014.884-.364.294-.746.572-1.144.832-.382.26-.746.459-1.092.598a2.417 2.417 0 0 1 -.546.286c-.191.086-.373.173-.546.26-.087.069-.278.164-.572.286-.295.138-.616.268-.962.39-.33.121-.624.208-.884.26zm16.611-3.38a2.288 2.288 0 0 1 -1.274.546 2.72 2.72 0 0 1 -1.378-.208 2.772 2.772 0 0 1 -1.118-.936 2.932 2.932 0 0 1 -.572-1.3c-.087-.503-.096-1.153-.026-1.95.052-.676.268-1.352.65-2.028a8.09 8.09 0 0 1 1.378-1.846c.554-.538 1.1-.91 1.638-1.118.26-.174.476-.252.65-.234.19 0 .476.017.858.052.398.052.693.13.884.234.208.104.372.242.494.416.26.26.433.52.52.78.086.242.13.485.13.728-.07.381-.33.849-.78 1.404-.434.537-1.006.979-1.716 1.326a3.651 3.651 0 0 1 -1.248.156c-.451-.018-.824-.13-1.118-.338-.33-.139-.546-.113-.65.078-.104.173-.2.606-.286 1.3-.07.658-.018 1.144.156 1.456.173.294.407.468.702.52.346.069.615.121.806.156.208.017.459-.061.754-.234.277-.174.45-.269.52-.286a.645.645 0 0 0 .156-.104l.338-.338c.121-.122.216-.208.286-.26a.32.32 0 0 1 .234-.104c.086 0 .164.043.234.13a.813.813 0 0 0 .208.156c.173 0 .208.104.104.312-.087.208-.269.459-.546.754a5.845 5.845 0 0 1 -.988.78zm-.026-5.512c.19-.087.39-.208.598-.364.208-.174.381-.356.52-.546.156-.208.234-.382.234-.52 0-.243-.113-.442-.338-.598-.226-.174-.564-.2-1.014-.078-.191.052-.408.182-.65.39-.243.19-.477.407-.702.65-.208.242-.382.459-.52.65-.122.19-.165.303-.13.338.052.086.199.156.442.208.242.034.511.043.806.026.312-.018.563-.07.754-.156zm4.939 6.422c-.33.086-.598.017-.806-.208-.191-.226-.304-.572-.338-1.04-.035-.468.017-1.023.156-1.664a5.1 5.1 0 0 0 .208-.598 2.17 2.17 0 0 0 .078-.494 7.57 7.57 0 0 1 .208-.754 34.676 34.676 0 0 1 .676-2.028c.121-.295.199-.477.234-.546.069 0 .13-.061.182-.182a.921.921 0 0 0 .078-.364c0-.139.026-.295.078-.468.069-.174.138-.295.208-.364a.9.9 0 0 1 .052-.286.794.794 0 0 0 .078-.286c0-.07.017-.139.052-.208a.348.348 0 0 0 .078-.208c.121-.226.277-.581.468-1.066.208-.503.424-1.058.65-1.664.242-.607.468-1.205.676-1.794.208-.59.372-1.084.494-1.482.138-.416.208-.668.208-.754 0-.139.034-.243.104-.312.069-.07.173-.104.312-.104a.38.38 0 0 1 .182-.104c.086-.018.164-.026.234-.026l.104.104.312.312c.138.121.216.26.234.416.034.156.052.338.052.546 0 .225-.026.424-.078.598a5.983 5.983 0 0 1 -.312.754l-.728 1.534c-.139.346-.286.676-.442.988-.156.294-.234.476-.234.546 0 .069-.035.173-.104.312-.052.138-.113.312-.182.52-.07.138-.165.346-.286.624-.122.26-.252.546-.39.858a28.66 28.66 0 0 0 -.312.78c-.087.208-.13.329-.13.364a.878.878 0 0 1 -.026.208c0 .069-.035.138-.104.208-.07 0-.113.052-.13.156v.13c0 .173-.139.632-.416 1.378-.278.953-.538 1.828-.78 2.626-.226.797-.338 1.438-.338 1.924 0 .416-.009.693-.026.832-.018.121-.096.216-.234.286zm6.108.078c-.762 0-1.386-.286-1.872-.858-.485-.59-.719-1.318-.702-2.184a8.927 8.927 0 0 1 .364-2.002c.226-.728.52-1.422.884-2.08a9.836 9.836 0 0 1 1.196-1.768c.434-.503.884-.858 1.352-1.066a2.97 2.97 0 0 1 .546-.208c.208-.052.416-.078.624-.078.191 0 .39.034.598.104.208.052.382.112.52.182.295.121.52.268.676.442.156.173.295.442.416.806.052.329.078.563.078.702 0 .138-.043.346-.13.624a5.83 5.83 0 0 1 -.806 1.612c-.329.45-.771.832-1.326 1.144a1.85 1.85 0 0 1 -.494.208 2.924 2.924 0 0 1 -1.56-.13 1.847 1.847 0 0 1 -.754-.598l-.182-.208-.078.208c-.173.468-.312.901-.416 1.3-.086.398-.13.762-.13 1.092 0 .208.018.407.052.598.052.19.122.355.208.494.07.104.182.182.338.234.174.034.356.052.546.052h.364c.139-.018.269-.052.39-.104a2.95 2.95 0 0 0 .702-.338c.191-.122.382-.252.572-.39l.104-.052h-.026a5.1 5.1 0 0 0 .546-.312l.26-.156c.07 0 .139-.044.208-.13.139-.07.312-.044.52.078.226.121.338.277.338.468-.017.086-.095.225-.234.416a4.087 4.087 0 0 1 -.468.494c-.156.156-.286.242-.39.26a1.023 1.023 0 0 1 -.182.104.552.552 0 0 0 -.208.104h.026c-.156.208-.312.312-.468.312h-.208c-.069.121-.294.26-.676.416a3.274 3.274 0 0 1 -1.118.208zm1.17-5.72c.312 0 .581-.087.806-.26.243-.191.451-.399.624-.624.347-.468.546-.919.598-1.352.07-.451.018-.763-.156-.936a.646.646 0 0 0 -.286-.078c-.069-.018-.216.008-.442.078-.156.034-.372.164-.65.39-.277.225-.554.476-.832.754a7.7 7.7 0 0 0 -.598.702l-.338.546c.139-.052.269-.078.39-.078.139-.018.217-.009.234.026 0 .156.026.303.078.442.07.121.148.216.234.286a.6.6 0 0 0 .338.104zm7.025 10.53c-.19.017-.485-.026-.884-.13a6.197 6.197 0 0 1 -.858-.286 3.835 3.835 0 0 1 -.676-.702 4.564 4.564 0 0 1 -.546-.91c-.121-.295-.173-.52-.156-.676.018-.139.148-.165.39-.078.26.086.434.199.52.338.156.19.338.372.546.546.208.173.416.303.624.39.208.104.373.147.494.13.434-.07.789-.286 1.066-.65.295-.347.555-.789.78-1.326.139-.382.243-.702.312-.962.087-.243.165-.52.234-.832.087-.312.191-.746.312-1.3.156-.624.26-1.066.312-1.326.07-.278.104-.46.104-.546 0-.087-.026-.148-.078-.182l-.338.182a28.66 28.66 0 0 1 -.754.39c-.26.138-.459.251-.598.338a6.166 6.166 0 0 1 -1.43.286c-.468.034-.832.008-1.092-.078-.121-.052-.251-.174-.39-.364a3.564 3.564 0 0 1 -.312-.624 1.719 1.719 0 0 1 -.078-.624c.018-.139.096-.347.234-.624.139-.278.295-.572.468-.884.191-.312.356-.572.494-.78.156-.226.252-.338.286-.338.07 0 .104-.026.104-.078a.559.559 0 0 0 .026-.182c.018-.07.148-.217.39-.442.26-.243.607-.538 1.04-.884.607-.555 1.153-.98 1.638-1.274.486-.295.936-.46 1.352-.494.122.017.234.026.338.026h.182l.156.104c.122.052.278.121.468.208.26.104.494.286.702.546.208.242.373.528.494.858.139.312.217.624.234.936a3.18 3.18 0 0 1 -.26 1.118c-.138.364-.277.537-.416.52-.138-.018-.312.043-.52.182-.19.138-.286.242-.286.312a.615.615 0 0 1 -.078.26c-.034.104-.147.268-.338.494-.017.086-.069.32-.156.702-.069.364-.156.78-.26 1.248s-.199.892-.286 1.274c-.069.364-.112.598-.13.702-.017.069-.06.225-.13.468-.052.225-.13.485-.234.78a9.19 9.19 0 0 1 -.286.832c-.069.502-.164.875-.286 1.118a3.23 3.23 0 0 1 -.52.832c-.26.433-.572.771-.936 1.014-.364.26-.693.407-.988.442zm-1.066-8.736c.035.173.269.234.702.182.434-.07.867-.217 1.3-.442a12.31 12.31 0 0 1 1.04-.468c.312-.122.529-.295.65-.52.104-.174.191-.347.26-.52.07-.174.156-.425.26-.754a.648.648 0 0 1 .13-.234c.087-.104.165-.165.234-.182a.407.407 0 0 1 .208 0c.087.017.191.052.312.104.087-.035.148-.122.182-.26a.84.84 0 0 0 .026-.468c-.017-.122-.104-.286-.26-.494a1.66 1.66 0 0 0 -.598-.494c-.26-.139-.563-.052-.91.26l-1.274 1.144c-.398.364-.78.745-1.144 1.144a8.814 8.814 0 0 0 -.884 1.118c-.208.346-.286.641-.234.884zm9.684 2.99a1.21 1.21 0 0 1 -.676-.104 2.082 2.082 0 0 1 -.65-.442 1.401 1.401 0 0 1 -.338-.598c-.069-.364-.026-.815.13-1.352.174-.555.416-1.136.728-1.742.33-.624.694-1.222 1.092-1.794.416-.572.841-1.066 1.274-1.482.451-.434.867-.728 1.248-.884.191-.122.338-.2.442-.234a.528.528 0 0 1 .364-.026c.139.034.338.121.598.26.243.069.425.147.546.234.122.086.278.26.468.52.139.26.243.52.312.78.07.26.13.554.182.884.139.433.191.719.156.858a.64.64 0 0 1 -.156.286c-.138.173-.173.26-.104.26l-.026.104c0 .052-.034.138-.104.26-.121.381-.216.78-.286 1.196-.052.398-.043.728.026.988.139.381.39.606.754.676.364.069.737-.087 1.118-.468.191-.139.373-.26.546-.364.174-.122.26-.113.26.026l.078.078a.326.326 0 0 0 .182.052c.087 0 .139.034.156.104.035.069.035.164 0 .286a1.03 1.03 0 0 1 -.156.364c-.26.26-.39.433-.39.52l-.104.104a7.058 7.058 0 0 1 -.286.26c-.312.19-.71.286-1.196.286-.468 0-.832-.096-1.092-.286a3.201 3.201 0 0 1 -.728-.78c-.208-.33-.346-.616-.416-.858l-.13-.26-.754.494c-.19.19-.398.372-.624.546a7.214 7.214 0 0 0 -.416.364.897.897 0 0 1 -.182.182.248.248 0 0 1 -.182.078h-.26c0 .069-.086.156-.26.26a2.2 2.2 0 0 1 -.572.26 1.828 1.828 0 0 1 -.572.104zm-.26-1.404c.104 0 .286-.078.546-.234.278-.174.581-.373.91-.598.347-.226.65-.451.91-.676a4.88 4.88 0 0 0 .572-.52l.338-.338c.156-.174.295-.321.416-.442.399-.451.676-.945.832-1.482.156-.555.139-.988-.052-1.3-.069-.191-.156-.295-.26-.312-.104-.018-.32.043-.65.182-.208.121-.468.355-.78.702a18.835 18.835 0 0 0 -1.898 2.522c-.294.468-.537.901-.728 1.3-.19.398-.286.71-.286.936 0 .069.018.13.052.182zm11.653 3.562c-.572-.087-.962-.304-1.17-.65-.191-.33-.234-.841-.13-1.534.104-.33.164-.624.182-.884.034-.278.112-.451.234-.52l.026-.078c.034-.052.026-.104-.026-.156 0-.226.078-.538.234-.936a8.98 8.98 0 0 1 .13-.364l.104-.234c-.087-.139-.087-.252 0-.338.086-.087.173-.165.26-.234.104-.087.112-.182.026-.286-.035-.07.008-.226.13-.468.121-.26.26-.529.416-.806.156-.278.26-.494.312-.65 0-.035.043-.156.13-.364a35.2 35.2 0 0 1 .312-.728c.121-.278.234-.529.338-.754.121-.226.199-.373.234-.442.173-.087.104-.148-.208-.182a6.05 6.05 0 0 0 -.988-.026 19.567 19.567 0 0 1 -1.3-.078 1.981 1.981 0 0 1 -.78-.234c-.208-.243-.286-.416-.234-.52.069-.122.277-.191.624-.208.225-.018.398-.026.52-.026.138 0 .312-.009.52-.026.225-.035.572-.078 1.04-.13l1.326-.104.078-.442c.138-.226.251-.425.338-.598.104-.191.19-.382.26-.572a3.43 3.43 0 0 0 .156-.598l.234-.416c.156-.295.251-.598.286-.91.208-.347.39-.659.546-.936.156-.295.251-.477.286-.546.19-.156.32-.234.39-.234.086 0 .26.086.52.26.156.086.294.19.416.312a.844.844 0 0 1 .234.39c.034.121-.018.242-.156.364a4.066 4.066 0 0 0 -.156.39c-.07.173-.122.32-.156.442a3.92 3.92 0 0 0 -.39.598c-.139.26-.234.528-.286.806-.139.294-.269.563-.39.806-.122.225-.217.338-.286.338.034.173.138.26.312.26.173-.018.459-.035.858-.052.329-.035.554-.07.676-.104.138-.052.294-.035.468.052.086.121.156.26.208.416s.06.303.026.442a.322.322 0 0 1 -.208.26c-.087 0-.269.052-.546.156-.26.086-.59.138-.988.156l-1.378.13-.442.884a9.526 9.526 0 0 0 -.312.624 1.668 1.668 0 0 1 -.182.312c0 .104-.061.26-.182.468l-.338.676a5.022 5.022 0 0 1 -.364.806l-.182.364c-.07 0-.104.052-.104.156.086.208.06.364-.078.468a.745.745 0 0 0 -.234.234l-.078.13c.069.069.078.156.026.26a1.977 1.977 0 0 1 -.156.338c0 .138-.044.338-.13.598-.07.26-.148.502-.234.728.017.312.034.511.052.598.017.086.06.121.13.104a.542.542 0 0 0 .234 0 .818.818 0 0 1 .208-.026c.242-.104.112.502-.39 1.82-.278.433-.468.745-.572.936-.104.208-.2.312-.286.312zm10.843-2.21a2.288 2.288 0 0 1 -1.274.546 2.722 2.722 0 0 1 -1.378-.208 2.778 2.778 0 0 1 -1.118-.936 2.943 2.943 0 0 1 -.572-1.3c-.087-.503-.095-1.153-.026-1.95.052-.676.269-1.352.65-2.028a8.12 8.12 0 0 1 1.378-1.846c.555-.538 1.101-.91 1.638-1.118.26-.174.477-.252.65-.234.191 0 .477.017.858.052.399.052.693.13.884.234.208.104.373.242.494.416.26.26.433.52.52.78.087.242.13.485.13.728-.069.381-.329.849-.78 1.404-.433.537-1.005.979-1.716 1.326a3.645 3.645 0 0 1 -1.248.156c-.451-.018-.823-.13-1.118-.338-.329-.139-.546-.113-.65.078-.104.173-.199.606-.286 1.3-.069.658-.017 1.144.156 1.456.173.294.407.468.702.52.347.069.615.121.806.156.208.017.459-.061.754-.234.277-.174.451-.269.52-.286a.645.645 0 0 0 .156-.104l.338-.338c.121-.122.217-.208.286-.26a.32.32 0 0 1 .234-.104c.087 0 .165.043.234.13a.83.83 0 0 0 .208.156c.173 0 .208.104.104.312-.087.208-.269.459-.546.754a5.806 5.806 0 0 1 -.988.78zm-.026-5.512a3.26 3.26 0 0 0 .598-.364c.208-.174.381-.356.52-.546.156-.208.234-.382.234-.52 0-.243-.113-.442-.338-.598-.225-.174-.563-.2-1.014-.078-.191.052-.407.182-.65.39-.243.19-.477.407-.702.65-.208.242-.381.459-.52.65-.121.19-.165.303-.13.338.052.086.199.156.442.208.243.034.511.043.806.026.312-.018.563-.07.754-.156zm5.491 6.526a4.298 4.298 0 0 1 -.936-.546c-.295-.243-.485-.442-.572-.598 0-.156.026-.26.078-.312.052-.07.199-.096.442-.078.26 0 .676.034 1.248.104a7.47 7.47 0 0 0 1.638-.208c.277-.07.433-.156.468-.26.087 0 .104-.026.052-.078a1.894 1.894 0 0 0 -.182-.208.468.468 0 0 1 -.234-.078c-.087-.07-.165-.104-.234-.104 0-.087-.087-.182-.26-.286a2.007 2.007 0 0 0 -.494-.286c-.381-.312-.711-.59-.988-.832-.277-.26-.381-.434-.312-.52v-.13c-.121 0-.26-.174-.416-.52-.139-.347-.208-.659-.208-.936 0-.208.061-.468.182-.78.121-.33.286-.668.494-1.014.208-.347.425-.633.65-.858.312-.295.702-.607 1.17-.936.468-.347.927-.65 1.378-.91.468-.278.858-.46 1.17-.546.312-.122.598-.182.858-.182.277 0 .52.06.728.182a1.4 1.4 0 0 1 .468.39c.156.156.286.32.39.494.121.156.199.294.234.416 0 .208-.017.442-.052.702a3.314 3.314 0 0 1 -.156.65c-.052.19-.139.286-.26.286l-.078.026c-.035 0-.052.043-.052.13 0 .173-.13.372-.39.598-.329.225-.615.364-.858.416-.243.034-.39-.061-.442-.286a.677.677 0 0 1 -.104-.182c-.017-.052-.061-.078-.13-.078l-.078-.078c-.052-.052-.078-.139-.078-.26 0-.07.026-.13.078-.182l.078-.104c.087 0 .199-.096.338-.286a4.77 4.77 0 0 0 .364-.65c.121-.243.182-.408.182-.494 0-.104-.017-.165-.052-.182-.017-.018-.095-.026-.234-.026a24.17 24.17 0 0 0 -1.872.936c-.295.156-.511.303-.65.442a5.96 5.96 0 0 0 -.13.234c-.017.017-.061.026-.13.026 0-.07-.061-.035-.182.104-.104.121-.243.294-.416.52l-.468.676-.312.468c-.035.034-.078.138-.13.312a2.018 2.018 0 0 0 -.052.442c-.069.208-.061.355.026.442.087.069.277.225.572.468.607.45 1.083.823 1.43 1.118.347.294.607.537.78.728.173.19.277.364.312.52.312.52.407.918.286 1.196-.121.277-.416.52-.884.728-.173.086-.459.156-.858.208a9.443 9.443 0 0 1 -1.222.078 5.775 5.775 0 0 1 -.988-.026zm-29.492-147.972c-.312-.173-.485-.364-.52-.572-.017-.208.104-.572.364-1.092s.668-1.326 1.222-2.418c.416-.78.728-1.387.936-1.82.226-.45.373-.771.442-.962.087-.19.13-.312.13-.364-.034-.156-.017-.277.052-.364a.768.768 0 0 1 .338-.26c.087-.087.226-.243.416-.468.208-.225.399-.494.572-.806.156-.364.338-.737.546-1.118s.486-.858.832-1.43c.347-.59.798-1.352 1.352-2.288.347-.607.728-1.222 1.144-1.846.416-.641.858-1.274 1.326-1.898a4.48 4.48 0 0 1 .52-.572c.156-.156.312-.225.468-.208.208 0 .442.07.702.208.278.139.529.32.754.546.226.225.39.468.494.728.087.139.122.433.104.884-.017.45-.052.997-.104 1.638a137.77 137.77 0 0 1 -.182 2.054c-.052.71-.13 1.551-.234 2.522-.104.97-.208 1.985-.312 3.042-.086 1.057-.156 2.08-.208 3.068-.052.97-.052 1.82 0 2.548.018.156.018.303 0 .442a2.915 2.915 0 0 0 -.026.338c-.104.104-.277.147-.52.13-.225 0-.45-.052-.676-.156-.208-.104-.329-.234-.364-.39a.4.4 0 0 1 -.104-.208c0-.104.009-.312.026-.624.018-.312.035-.806.052-1.482l.13-4.212-.338.026c-.156 0-.45.017-.884.052a25.49 25.49 0 0 0 -1.404.156c-.502.052-.97.113-1.404.182-.416.052-.702.104-.858.156-.156 0-.346.104-.572.312a3.904 3.904 0 0 0 -.598.806 2.713 2.713 0 0 1 -.39.78c-.173.26-.26.433-.26.52a1.34 1.34 0 0 0 -.312.312l-.104.182c0 .104-.086.364-.26.78-.156.399-.355.85-.598 1.352-.242.485-.485.91-.728 1.274l-.546.832zm5.382-8.372.26-.052c.191-.035.408-.07.65-.104.26-.052.494-.078.702-.078a23.74 23.74 0 0 1 1.586-.338c.33-.07.555-.104.676-.104.139 0 .26.026.364.078.07.087.13.139.182.156l.104.026c.018-.035.044-.234.078-.598l.13-1.352c.07-.537.13-1.092.182-1.664.07-.59.122-1.127.156-1.612l.078-1.144c.018-.33.035-.624.052-.884l.026-.416c-.104 0-.329.19-.676.572-.329.381-.702.884-1.118 1.508a20.231 20.231 0 0 0 -1.17 2.002c-.173.33-.338.624-.494.884s-.277.39-.364.39c-.034.035-.138.19-.312.468-.156.26-.329.563-.52.91-.19.33-.346.633-.468.91-.121.26-.156.407-.104.442zm18.315 8.892a.993.993 0 0 1 -.624-.156.85.85 0 0 1 -.364-.416 7.361 7.361 0 0 1 -.312-.442 1.617 1.617 0 0 1 -.26-.624 27.44 27.44 0 0 1 -.104-1.612c0-.52.026-1.248.078-2.184.052-.763.148-1.5.286-2.21.156-.728.304-1.378.442-1.95.156-.572.278-1.023.364-1.352.087-.347.104-.52.052-.52-.069 0-.173.13-.312.39-.138.243-.294.546-.468.91l-.52 1.092c-.173.347-.32.633-.442.858a25.61 25.61 0 0 1 -.858 1.716 39.55 39.55 0 0 1 -.962 1.716c-.329.555-.615 1.04-.858 1.456a5.76 5.76 0 0 0 -.546.754 51.37 51.37 0 0 1 -.676.988 4.655 4.655 0 0 1 -.754.858c-.381.364-.762.563-1.144.598a1.197 1.197 0 0 1 -.936-.286 6.535 6.535 0 0 1 -.182-.26 1.203 1.203 0 0 1 -.104-.91 11.888 11.888 0 0 1 0-1.118c.035-.52.087-1.083.156-1.69.07-.624.139-1.222.208-1.794.087-.572.165-1.049.234-1.43.156-1.11.364-2.245.624-3.406.278-1.161.529-2.331.754-3.51.139-.347.26-.737.364-1.17.122-.45.243-.867.364-1.248.018-.381.104-.633.26-.754a.532.532 0 0 1 .52-.13.725.725 0 0 1 .494.312c.174.173.304.442.39.806.104.364.035.823-.208 1.378-.346.85-.684 1.89-1.014 3.12-.312 1.213-.598 2.687-.858 4.42-.069.416-.147.91-.234 1.482a85.344 85.344 0 0 0 -.234 1.664 43.86 43.86 0 0 0 -.156 1.352c-.017.364-.008.555.026.572.139.035.33-.07.572-.312.243-.26.46-.598.65-1.014a89.72 89.72 0 0 0 2.106-3.692 137.85 137.85 0 0 0 2.028-3.848c.295-.503.59-1.049.884-1.638.312-.607.607-1.161.884-1.664.295-.52.564-.988.806-1.404.243-.433.451-.789.624-1.066.174-.277.312-.433.416-.468.278.017.512.087.702.208.208.104.382.33.52.676.035.087.026.234-.026.442a3.29 3.29 0 0 1 -.182.546c-.017.121-.095.373-.234.754-.121.381-.234.806-.338 1.274a22.64 22.64 0 0 0 -.468 1.404c-.121.45-.208.823-.26 1.118a58.304 58.304 0 0 1 -.52 2.47 47.99 47.99 0 0 0 -.546 2.652 18 18 0 0 0 -.234 2.34c-.017.485-.017.867 0 1.144.035.277.087.494.156.65.035.139.139.225.312.26a.452.452 0 0 0 .468-.182c.347-.433.642-.823.884-1.17.26-.364.503-.728.728-1.092.226-.381.46-.806.702-1.274a46.08 46.08 0 0 0 1.326-2.652c.468-.988.91-1.967 1.326-2.938.434-.97.806-1.82 1.118-2.548.33-.936.59-1.681.78-2.236.208-.555.39-.97.546-1.248.156-.277.321-.468.494-.572a.569.569 0 0 1 .364-.104c.156 0 .312.07.468.208.07.07.13.182.182.338a.96.96 0 0 1 .078.52c-.086.277-.242.72-.468 1.326-.208.607-.45 1.274-.728 2.002-.277.728-.546 1.421-.806 2.08s-.485 1.187-.676 1.586c-.19.364-.372.676-.546.936-.173.26-.26.46-.26.598 0 .07-.086.286-.26.65a35.07 35.07 0 0 1 -.676 1.274c-.26.503-.546 1.023-.858 1.56a65.358 65.358 0 0 1 -.884 1.482c-.277.45-.511.797-.702 1.04-.433.537-.858.98-1.274 1.326-.398.347-.745.598-1.04.754-.294.156-.502.234-.624.234zm8.923-.052c-.156-.07-.338-.208-.546-.416a2.72 2.72 0 0 1 -.832-.832c-.19-.295-.303-.72-.338-1.274 0-.087.078-.225.234-.416.156-.208.356-.373.598-.494.243-.121.494-.087.754.104a5.486 5.486 0 0 0 -.234.91.732.732 0 0 0 .208.598c.156.139.46.26.91.364.295.07.572.095.832.078.278-.017.607-.06.988-.13.399-.035.746-.07 1.04-.104.312-.035.529-.113.65-.234a5.74 5.74 0 0 0 1.326-.728c.416-.295.694-.59.832-.884.208-.277.321-.494.338-.65.018-.156.026-.425.026-.806a6.67 6.67 0 0 0 -.078-.832 2.184 2.184 0 0 0 -.182-.676c-.104-.26-.286-.65-.546-1.17 0-.104-.13-.303-.39-.598l-.754-.858c-.121-.277-.277-.59-.468-.936-.173-.347-.381-.598-.624-.754a2.082 2.082 0 0 1 -.208-.468c-.069-.208-.13-.32-.182-.338l-.078-.13c-.034-.087-.078-.19-.13-.312-.242-.52-.268-1.153-.078-1.898.191-.745.572-1.447 1.144-2.106a5.11 5.11 0 0 1 .624-.78c.295-.312.572-.58.832-.806.278-.225.451-.338.52-.338l.156-.052a2.56 2.56 0 0 0 .442-.26c.208-.052.425-.13.65-.234.243-.104.477-.156.702-.156a7.94 7.94 0 0 1 .702-.208c.156-.052.312-.07.468-.052.156 0 .399.017.728.052.451.121.806.295 1.066.52.26.208.442.485.546.832l.182 1.118-1.092.806c-.208.07-.442.104-.702.104a7.61 7.61 0 0 1 -.676-.026l-.26-.052c-.104 0-.147-.052-.13-.156.018-.104.087-.156.208-.156a.98.98 0 0 0 .208-.234c.104-.121.243-.26.416-.416.191-.33.234-.529.13-.598-.086-.087-.433-.095-1.04-.026a4.032 4.032 0 0 0 -1.742.468 3.716 3.716 0 0 0 -1.404 1.248c-.45.381-.771.771-.962 1.17-.19.399-.286.745-.286 1.04.035.121.087.295.156.52.07.208.165.433.286.676a60.773 60.773 0 0 0 1.586 2.158c.33.416.494.667.494.754v.13c.018 0 .087.113.208.338.139.225.269.468.39.728.122.243.182.399.182.468l.052.156c.052.087.113.217.182.39.07.052.13.251.182.598s.096.71.13 1.092c.052.381.078.676.078.884s-.052.433-.156.676c-.104.225-.234.45-.39.676a6.063 6.063 0 0 1 -.52.65c-.19.208-.485.468-.884.78a13.25 13.25 0 0 1 -1.274.832c-.433.277-.84.46-1.222.546-.26.104-.598.182-1.014.234-.398.07-.814.113-1.248.13-.416.017-.788 0-1.118-.052-.312-.035-.511-.095-.598-.182zm18.448.13a1.273 1.273 0 0 0 -.39-.13 1.127 1.127 0 0 1 -.416-.182.417.417 0 0 1 -.208-.338l-.052-.156c0-.052.026-.173.078-.364.052-.173.13-.468.234-.884.104-.347.191-.65.26-.91.087-.26.13-.407.13-.442.069.035.139.017.208-.052.069-.07.104-.251.104-.546-.017-.07 0-.182.052-.338a5.67 5.67 0 0 1 .234-.468c0-.052.017-.217.052-.494l.156-.832c.243-.815.494-1.534.754-2.158.277-.624.485-1.075.624-1.352 0-.035.026-.13.078-.286s.113-.312.182-.468c.069-.173.121-.286.156-.338.017-.156.061-.355.13-.598.087-.26.182-.503.286-.728.121-.243.234-.407.338-.494 0-.104.043-.277.13-.52s.191-.494.312-.754c.121-.277.234-.511.338-.702.104-.19.165-.286.182-.286l.026-.156c.035-.104.139-.269.312-.494l.026-.26a.665.665 0 0 1 .26-.416c.069-.26.113-.433.13-.52.017-.104-.009-.173-.078-.208-.156-.45-.017-.685.416-.702.104 0 .225-.147.364-.442.087-.156.251-.251.494-.286.26-.035.641-.104 1.144-.208.329-.052.641-.104.936-.156l.442-.078c.243 0 .555.017.936.052.399.035.711.078.936.13.624.295 1.101.667 1.43 1.118.329.45.52.875.572 1.274.035.208 0 .52-.104.936a11.24 11.24 0 0 1 -.364 1.274c-.139.45-.303.858-.494 1.222-.173.347-.338.58-.494.702.087-.017.052.078-.104.286a4.969 4.969 0 0 1 -.598.65c-.225.208-.399.33-.52.364l-.182.338a1.3 1.3 0 0 1 -.52.494 8.872 8.872 0 0 0 -.676.442 2.054 2.054 0 0 0 -.546.546c0-.139-.043-.182-.13-.13a.9.9 0 0 0 -.286.208 1.472 1.472 0 0 1 -.26.182 8.355 8.355 0 0 1 -1.17.598 6.473 6.473 0 0 1 -1.092.312c-.087.07-.225.113-.416.13a5.233 5.233 0 0 1 -.52.026l-.884-.13-.546 1.482a39.247 39.247 0 0 1 -.598 1.846l-.52 1.612a65.34 65.34 0 0 0 -.572 1.82c-.069.468-.173.771-.312.91s-.269.156-.39.052zm3.536-9.1c.641 0 1.196-.07 1.664-.208a4.468 4.468 0 0 0 1.3-.598c.399-.277.771-.58 1.118-.91.139-.139.329-.347.572-.624s.494-.572.754-.884c.277-.33.511-.624.702-.884.277-.381.477-.806.598-1.274a6.72 6.72 0 0 0 .208-1.326c.017-.416-.026-.71-.13-.884-.225-.33-.546-.52-.962-.572a3.057 3.057 0 0 0 -1.248.052 4.693 4.693 0 0 0 -1.17.442c-.087.035-.243.234-.468.598-.208.364-.451.823-.728 1.378-.26.537-.529 1.118-.806 1.742-.26.607-.503 1.196-.728 1.768a31.346 31.346 0 0 0 -.546 1.43c-.121.399-.165.65-.13.754zm8.396 6.734a1.293 1.293 0 0 1 -.338-.364c-.052-.121-.052-.355 0-.702.052-.485.121-.91.208-1.274.086-.381.19-.815.312-1.3.034-.208.13-.563.286-1.066a37.932 37.932 0 0 1 1.352-3.302c.242-.537.45-.936.624-1.196a.689.689 0 0 1 .494-.13.805.805 0 0 1 .52.234c.19.156.216.433.078.832-.122.381-.382.988-.78 1.82-.208.468-.364.823-.468 1.066-.104.225-.148.364-.13.416.017.035.095.009.234-.078.104-.19.294-.407.572-.65.277-.26.572-.511.884-.754s.606-.46.884-.65c.277-.19.468-.312.572-.364.138-.087.294-.156.468-.208.19-.07.32-.121.39-.156a2.16 2.16 0 0 1 1.222-.208c.416.052.676.208.78.468a.45.45 0 0 0 .156.312l.156.104c.069 0 .104.026.104.078l.026.078c0 .121-.096.2-.286.234-.174.017-.399.035-.676.052-.226.017-.425.06-.598.13-.174.07-.382.156-.624.26-.659.381-1.292.754-1.898 1.118-.59.364-1.162.85-1.716 1.456a3.954 3.954 0 0 0 -.364.494c-.122.19-.252.399-.39.624-.087.087-.174.277-.26.572-.087.295-.165.58-.234.858-.052.26-.078.416-.078.468l-.078.26a1.592 1.592 0 0 1 -.26.468c-.208.277-.382.416-.52.416-.139 0-.347-.139-.624-.416zm10.669.52c-.226 0-.408-.043-.546-.13a8.914 8.914 0 0 1 -.468-.364c-.33-.347-.564-.676-.702-.988-.139-.33-.182-.641-.13-.936a.792.792 0 0 0 .052-.39v-.208c-.087-.087-.113-.139-.078-.156a.633.633 0 0 0 .104-.156c.104 0 .138-.095.104-.286-.035-.139.034-.442.208-.91.173-.468.39-.91.65-1.326a8.42 8.42 0 0 1 .468-.676c.208-.295.433-.58.676-.858a6.59 6.59 0 0 1 .702-.702c.433-.364.814-.633 1.144-.806a4.325 4.325 0 0 1 1.066-.39c.381-.087.641-.13.78-.13.156 0 .364.139.624.416.398.173.684.381.858.624.19.243.312.598.364 1.066.052.52.008 1.118-.13 1.794-.122.659-.529 1.482-1.222 2.47-.434.624-.832 1.092-1.196 1.404-.364.295-.798.59-1.3.884a5.858 5.858 0 0 1 -.988.546 4.254 4.254 0 0 1 -1.04.208zm2.496-2.756a8.45 8.45 0 0 0 .988-1.326c.26-.416.502-.945.728-1.586a2.57 2.57 0 0 0 .13-.702 4.118 4.118 0 0 0 -.026-.806c-.018-.26-.078-.407-.182-.442-.208-.121-.46-.156-.754-.104-.295.035-.616.2-.962.494a6.434 6.434 0 0 0 -1.404 1.69 20.83 20.83 0 0 0 -1.17 2.262c-.26.624-.321 1.127-.182 1.508.156.364.476.494.962.39.502-.121 1.126-.58 1.872-1.378zm7.528 2.314c-.174.121-.295.182-.364.182-.07-.017-.2-.121-.39-.312-.33-.312-.564-.901-.702-1.768-.122-.884-.182-2.123-.182-3.718.069-.71.104-1.317.104-1.82.017-.503.026-.789.026-.858.052-.07.156-.104.312-.104a.88.88 0 0 1 .442.104.626.626 0 0 1 .338.39c.069.173.112.485.13.936.017.433.026 1.1.026 2.002-.052.693-.078 1.3-.078 1.82 0 .503.026.789.078.858.069.121.147.156.234.104.104-.07.286-.234.546-.494.138-.19.312-.442.52-.754.208-.33.372-.59.494-.78.19-.243.364-.477.52-.702.173-.225.294-.373.364-.442a1.88 1.88 0 0 1 .26-.39c.104-.121.19-.243.26-.364.19-.33.39-.598.598-.806.208-.225.346-.338.416-.338.069.052.13.07.182.052a.458.458 0 0 1 .208-.052c.121-.121.286-.121.494 0 .069.052.13.113.182.182a.25.25 0 0 1 .078.182c0 .087-.07.269-.208.546a5.32 5.32 0 0 1 -.442.806c-.156.243-.278.39-.364.442l-.078.078-.182.182c-.035.121-.148.338-.338.65-.191.295-.425.633-.702 1.014-.278.381-.564.763-.858 1.144-.295.381-.555.72-.78 1.014-.174.243-.373.46-.598.65a3.736 3.736 0 0 1 -.546.364zm7.255.026c-.26-.035-.485-.217-.676-.546-.173-.347-.277-.659-.312-.936.018-.139.035-.338.052-.598.035-.26.07-.529.104-.806.07-.33.165-.728.286-1.196l.364-1.456c.139-.485.26-.901.364-1.248s.174-.555.208-.624c.087-.139.226-.173.416-.104.191.07.347.173.468.312a.945.945 0 0 1 .182.494c.035.19.009.468-.078.832-.069.364-.208.901-.416 1.612-.19.693-.338 1.257-.442 1.69a5.54 5.54 0 0 0 -.104 1.326c-.069.59-.121.953-.156 1.092-.034.121-.121.173-.26.156zm2.99-10.374a.344.344 0 0 1 -.208.078 1.74 1.74 0 0 1 -.286-.156c-.121-.017-.277-.095-.468-.234a6.073 6.073 0 0 1 -.468-.468c-.121-.173-.182-.277-.182-.312a2.948 2.948 0 0 1 .026-.65c.052-.277.148-.52.286-.728a.724.724 0 0 1 .598-.364c.07 0 .13.009.182.026s.208.078.468.182c.139.26.278.555.416.884.139.312.2.624.182.936-.017.295-.199.563-.546.806zm6.358 11.102c-.191.07-.329.095-.416.078-.069-.035-.251-.165-.546-.39a1.998 1.998 0 0 1 -.234-.546 10.803 10.803 0 0 1 -.026-.91c.035-.26.104-.633.208-1.118.121-.485.26-.997.416-1.534s.295-1.023.416-1.456c.139-.433.243-.728.312-.884.121-.416.147-.667.078-.754-.069-.104-.277-.173-.624-.208-.693-.087-1.317.139-1.872.676s-1.109 1.24-1.664 2.106c-.416.641-.667 1.196-.754 1.664-.069.45-.078.763-.026.936.052.139.173.217.364.234.191 0 .399-.043.624-.13.243-.087.451-.173.624-.26.121-.07.269-.139.442-.208.191-.087.373-.165.546-.234.104 0 .173.035.208.104.052.052.078.165.078.338 0 .07.026.13.078.182a.7.7 0 0 0 .182.13c.069.07-.035.225-.312.468-.26.243-.667.52-1.222.832-.52.121-.945.182-1.274.182-.312 0-.615-.113-.91-.338-.485-.295-.763-.771-.832-1.43-.052-.676.087-1.5.416-2.47.329-.78.693-1.413 1.092-1.898a20.14 20.14 0 0 1 1.274-1.456c.069-.07.225-.173.468-.312.26-.156.581-.295.962-.416a5.724 5.724 0 0 1 1.222-.26c.381-.035.711.043.988.234.312.07.511.06.598-.026.087-.104.234-.416.442-.936.347-.867.685-1.742 1.014-2.626.329-.901.685-1.811 1.066-2.73.173-.33.277-.58.312-.754.052-.19.113-.32.182-.39h.494c.069 0 .191.06.364.182a.954.954 0 0 1 .364.494c0 .156-.069.503-.208 1.04-.139.52-.364 1.144-.676 1.872-.277.641-.555 1.291-.832 1.95-.26.641-.511 1.326-.754 2.054-.191.537-.364.97-.52 1.3a4.06 4.06 0 0 0 -.312.858 7.25 7.25 0 0 1 -.39 1.222c-.139.347-.234.59-.286.728-.225.659-.407 1.196-.546 1.612-.139.399-.243.737-.312 1.014-.069.26-.113.529-.13.806 0 .26.026.572.078.936 0 .07-.009.139-.026.208-.017.07-.087.147-.208.234zm6.229-.546c-.676-.277-1.118-.659-1.326-1.144-.191-.503-.225-1.274-.104-2.314.035-.537.052-.893.052-1.066s-.095-.347-.286-.52a2.13 2.13 0 0 0 -.286-.286c-.121-.121-.173-.225-.156-.312a1.012 1.012 0 0 1 .026-.39c.035-.156.087-.234.156-.234a.462.462 0 0 0 .208-.052.275.275 0 0 1 .234 0c.069 0 .147.009.234.026s.13.06.13.13c.069.121.182.139.338.052.156-.104.321-.33.494-.676.173-.277.399-.555.676-.832.295-.277.581-.529.858-.754a4.98 4.98 0 0 1 .728-.52c.087-.035.217-.078.39-.13a4.98 4.98 0 0 1 .546-.13 1.85 1.85 0 0 1 .52-.026c.312.017.572.104.78.26.225.156.433.338.624.546a.968.968 0 0 1 .416.624c.069.26.087.537.052.832a2.436 2.436 0 0 1 -.234.806c-.052.173-.199.381-.442.624s-.52.477-.832.702-.598.39-.858.494c-.225.052-.52.095-.884.13a9.973 9.973 0 0 1 -.988.052c-.295-.017-.494-.052-.598-.104-.121-.07-.217.026-.286.286s-.121.633-.156 1.118c-.035.381-.035.659 0 .832s.069.295.104.364c.121.121.286.277.494.468.225.173.537.2.936.078.329-.087.65-.312.962-.676a8.44 8.44 0 0 1 .91-.884.416.416 0 0 1 .338-.208c.173-.035.355-.026.546.026.191.121.269.269.234.442-.017.156-.104.399-.26.728-.052.121-.173.277-.364.468a9.823 9.823 0 0 1 -.598.546 4.684 4.684 0 0 1 -.572.416c-.52.277-1.005.425-1.456.442a3.67 3.67 0 0 1 -1.3-.234zm1.534-5.278c.381-.087.685-.147.91-.182a1.45 1.45 0 0 0 .65-.286c.208-.173.468-.494.78-.962a1.08 1.08 0 0 0 .052-.572c-.017-.19-.061-.32-.13-.39a.512.512 0 0 0 -.572-.156 1.727 1.727 0 0 0 -.598.286c-.121.052-.303.182-.546.39-.225.19-.451.416-.676.676a5.554 5.554 0 0 0 -.546.676c-.139.208-.173.33-.104.364-.035.07.061.113.286.13.243.017.407.026.494.026zm5.595 4.992a1.293 1.293 0 0 1 -.338-.364c-.052-.121-.052-.355 0-.702.052-.485.121-.91.208-1.274.087-.381.191-.815.312-1.3.035-.208.13-.563.286-1.066.173-.503.381-1.049.624-1.638.243-.59.485-1.144.728-1.664.243-.537.451-.936.624-1.196a.69.69 0 0 1 .494-.13.805.805 0 0 1 .52.234c.191.156.217.433.078.832-.121.381-.381.988-.78 1.82-.208.468-.364.823-.468 1.066-.104.225-.147.364-.13.416.017.035.095.009.234-.078.104-.19.295-.407.572-.65.277-.26.572-.511.884-.754s.607-.46.884-.65.468-.312.572-.364c.139-.087.295-.156.468-.208a4.36 4.36 0 0 0 .39-.156 2.16 2.16 0 0 1 1.222-.208c.416.052.676.208.78.468a.45.45 0 0 0 .156.312l.156.104c.069 0 .104.026.104.078l.026.078c0 .121-.095.2-.286.234-.173.017-.399.035-.676.052-.225.017-.425.06-.598.13a29.6 29.6 0 0 0 -.624.26c-.659.381-1.291.754-1.898 1.118-.589.364-1.161.85-1.716 1.456a4.056 4.056 0 0 0 -.364.494c-.121.19-.251.399-.39.624-.087.087-.173.277-.26.572s-.165.58-.234.858c-.052.26-.078.416-.078.468l-.078.26a1.592 1.592 0 0 1 -.26.468c-.208.277-.381.416-.52.416s-.347-.139-.624-.416z" fill="#000"/><g clip-path="url(#a)"><path d="m244.682 87.282c0 .316.035.572.097.76a4.5 4.5 0 0 0 .284.614.358.358 0 0 1 .063.197c0 .085-.054.17-.169.256l-.56.359a.437.437 0 0 1 -.231.076.412.412 0 0 1 -.266-.12 2.688 2.688 0 0 1 -.32-.4 6.56 6.56 0 0 1 -.275-.504c-.693.785-1.563 1.178-2.611 1.178-.746 0-1.341-.205-1.777-.615-.435-.41-.657-.956-.657-1.639 0-.726.267-1.315.808-1.759.542-.444 1.262-.666 2.176-.666.302 0 .613.026.942.068.328.043.666.111 1.021.188v-.623c0-.65-.142-1.102-.417-1.366-.284-.265-.764-.393-1.448-.393-.311 0-.631.034-.959.11a7.24 7.24 0 0 0 -.959.291 2.6 2.6 0 0 1 -.311.111.565.565 0 0 1 -.142.026c-.125 0-.187-.085-.187-.265v-.418c0-.137.018-.24.062-.3a.672.672 0 0 1 .249-.178 5.25 5.25 0 0 1 1.119-.385 5.59 5.59 0 0 1 1.386-.162c1.057 0 1.829.23 2.327.692.488.46.737 1.161.737 2.1v2.767zm-3.606 1.298c.293 0 .595-.052.914-.154.32-.103.604-.29.844-.547.142-.162.249-.341.302-.546a2.97 2.97 0 0 0 .089-.743v-.359a7.692 7.692 0 0 0 -.817-.145 6.952 6.952 0 0 0 -.835-.05c-.595 0-1.03.11-1.323.34-.293.231-.436.556-.436.983 0 .4.107.7.329.905.213.213.524.316.933.316zm7.132.922c-.16 0-.267-.026-.338-.086-.071-.05-.133-.17-.187-.333l-2.087-6.6a1.463 1.463 0 0 1 -.08-.342c0-.136.071-.213.214-.213h.87c.169 0 .284.026.346.085.071.052.125.171.178.333l1.492 5.654 1.386-5.653c.044-.17.097-.281.168-.333a.643.643 0 0 1 .356-.085h.71c.169 0 .284.026.355.085.071.052.134.171.169.333l1.403 5.721 1.537-5.72c.053-.171.115-.282.178-.334a.605.605 0 0 1 .346-.085h.826c.142 0 .222.068.222.213 0 .043-.009.086-.018.137s-.026.12-.062.214l-2.14 6.6c-.054.17-.116.282-.187.333a.583.583 0 0 1 -.337.085h-.764c-.169 0-.284-.025-.356-.085-.071-.06-.133-.17-.168-.342l-1.377-5.507-1.368 5.499c-.044.17-.097.282-.168.341-.071.06-.196.086-.356.086h-.763zm11.412.23c-.462 0-.923-.05-1.367-.153-.445-.103-.791-.214-1.022-.342-.142-.077-.24-.162-.275-.239a.575.575 0 0 1 -.053-.24v-.434c0-.18.071-.265.204-.265.053 0 .106.008.16.025.053.017.133.052.222.086.302.128.63.23.977.299.355.068.701.102 1.057.102.559 0 .994-.094 1.296-.282s.462-.46.462-.81a.814.814 0 0 0 -.24-.599c-.159-.162-.461-.307-.897-.444l-1.287-.384c-.649-.196-1.128-.487-1.422-.87a1.985 1.985 0 0 1 -.444-1.239c0-.358.08-.674.24-.948.16-.273.373-.512.64-.7a2.86 2.86 0 0 1 .923-.444 4.022 4.022 0 0 1 1.119-.145c.196 0 .4.009.595.034.205.026.391.06.578.094.177.043.346.085.506.137.16.051.284.102.373.153a.775.775 0 0 1 .267.214.449.449 0 0 1 .079.282v.401c0 .18-.071.273-.204.273-.071 0-.186-.034-.337-.102a4.208 4.208 0 0 0 -1.706-.333c-.506 0-.906.077-1.181.239s-.417.41-.417.76c0 .239.089.444.266.606.178.162.506.325.977.47l1.261.384c.64.196 1.102.47 1.377.82s.409.751.409 1.195c0 .367-.08.7-.231.99-.16.29-.373.547-.649.752a2.906 2.906 0 0 1 -.986.478 4.36 4.36 0 0 1 -1.27.18z" fill="#252f3e"/><g clip-rule="evenodd" fill="#f90" fill-rule="evenodd"><path d="m261.299 93.882c-2.922 2.075-7.167 3.176-10.818 3.176-5.116 0-9.725-1.818-13.207-4.841-.275-.24-.026-.564.302-.376 3.766 2.1 8.411 3.373 13.216 3.373 3.242 0 6.803-.649 10.081-1.981.488-.213.906.307.426.649z"/><path d="m262.516 92.55c-.373-.46-2.469-.222-3.42-.11-.284.033-.328-.206-.071-.385 1.67-1.127 4.414-.803 4.734-.427.32.384-.089 3.023-1.652 4.287-.24.196-.471.093-.364-.163.355-.845 1.146-2.75.773-3.202z"/></g></g><path clip-rule="evenodd" d="m190.041 131.851a.5.5 0 0 1 .373.6c-.054.233-.11.464-.166.696-.491 2.036-.975 4.045-.23 6.132 1.069 2.992 4.011 4.155 6.461 5.124l.237.094c1.44.57 2.904 1.022 4.393 1.481.471.145.943.291 1.418.441 1.967.623 3.952 1.321 5.87 2.369.896.49 1.522 1.065 1.913 1.721.393.66.527 1.366.497 2.078-.058 1.387-.746 2.854-1.386 4.175a.499.499 0 1 1 -.9-.436c.66-1.361 1.239-2.638 1.287-3.781.023-.553-.081-1.059-.357-1.524-.279-.468-.754-.929-1.533-1.355-1.831-1-3.742-1.675-5.693-2.293-.458-.146-.92-.288-1.384-.431-1.497-.462-3.014-.929-4.494-1.516a120.64 120.64 0 0 0 -.327-.129c-2.371-.933-5.718-2.251-6.943-5.681-.853-2.387-.29-4.697.198-6.701.057-.235.113-.465.165-.691a.5.5 0 0 1 .601-.373z" fill="#000" fill-rule="evenodd"/><path clip-rule="evenodd" d="m189.43 133.47c-.847.931-1.527 2.013-2.237 3.143l-.2.318c-.464.737-.947 1.487-1.5 2.196l.345-.066.143-.027c.467-.089.992-.19 1.563-.305a3.58 3.58 0 0 1 -.443.012.5.5 0 0 1 .042-.999c.401.017 1.105-.105 1.939-.308.815-.199 1.695-.46 2.419-.69l.053-.017a9.548 9.548 0 0 1 -1.249-1.372 5.498 5.498 0 0 1 -.674-1.163 2.988 2.988 0 0 1 -.201-.722zm-6.152 6.565a5.716 5.716 0 0 1 -.119.1.5.5 0 1 0 .637.771c.075-.062.149-.125.221-.189 1.525.357 3.064-.289 4.42-1.038.105-.058.211-.118.317-.179a67.171 67.171 0 0 0 4.315-1.055 28.402 28.402 0 0 0 1.525-.158c.364-.05.649-.105.833-.179a.844.844 0 0 0 .172-.09.592.592 0 0 0 .207-.249.543.543 0 0 0 -.015-.459.599.599 0 0 0 -.185-.213 1.11 1.11 0 0 0 -.281-.14 3.746 3.746 0 0 0 -.289-.085 20.205 20.205 0 0 0 -.911-.196 46.736 46.736 0 0 1 -.463-.094.497.497 0 0 0 -.015-.075.864.864 0 0 0 -.243-.26.506.506 0 0 0 -.326-.04h-.001l-.028.006-.039.011a13.085 13.085 0 0 0 -.321.104l-.051-.02c-.053-.023-.075-.037-.079-.039 0-.001 0-.001 0 0a8.424 8.424 0 0 1 -1.449-1.507 4.522 4.522 0 0 1 -.553-.947c-.126-.309-.168-.569-.14-.775a3.87 3.87 0 0 1 .04-.227l.021-.106c.01-.055.021-.121.028-.186a.796.796 0 0 0 -.017-.275.541.541 0 0 0 -.462-.409.653.653 0 0 0 -.405.094 2.752 2.752 0 0 0 -.487.406c-1.131 1.103-1.972 2.443-2.778 3.727l-.21.334c-.705 1.118-1.404 2.182-2.281 3.083a1.74 1.74 0 0 0 -.102.034.967.967 0 0 0 -.274.143.572.572 0 0 0 -.212.377zm8.448-2.261c.131-.064.26-.123.387-.177.232-.075.441-.145.621-.206l.231.06-.027.002a.44.44 0 0 0 -.095.017c-.377.107-.75.208-1.117.304z" fill="#000" fill-rule="evenodd"/></svg>