<svg fill="none" height="90" viewBox="0 0 67 90" width="67" xmlns="http://www.w3.org/2000/svg"><path d="m3.30112 82.894-.47885-8.0618c2.77645-2.2762 7.81223-2.2003 6.12726-2.2762-1.68498-.0759-4.46768-2.8769-5.64841-4.268-.15962-.8852-.38308-3.9645 0-9.1999.38309-5.2355 8.07388-8.6309 11.87128-9.6742v-26.3668l4.2125-1.1382 4.9783 1.1382v25.5132l4.7869-.5691v-31.0142l4.9783-1.0433 4.1167 1.0433v31.0142l2.6807.5691v-33.7649h6.5101l2.5849 1.1383v33.4802c10.263 1.821 13.85 5.9435 14.3606 7.7771v9.5794c-3.1402 6.9807-15.2861 10.0535-20.9665 10.7174l-9.2865-12.6143-4.9783 1.8969 9.6694 13.1834-.5744 7.967c-15.0882 3.4903-29.58272-1.8969-34.94398-5.0268z" fill="#fff"/><g clip-rule="evenodd" fill="#000" fill-rule="evenodd"><path d="m14.2239 22.6097c.0469-.1294.1908-.1966.3215-.1501 2.0334.7238 4.0729 1.3496 6.1427 1.9777.1327.0402.2074.1795.1667.3109-.0406.1315-.1812.2055-.3139.1652-2.0694-.628-4.1194-1.2568-6.1655-1.9852-.1306-.0465-.1985-.1891-.1515-.3185z"/><path d="m14.2239 55.6082c.0469-.1294.1908-.1966.3215-.1501 2.0334.7239 4.0729 1.3496 6.1427 1.9777.1327.0403.2074.1795.1667.311-.0406.1315-.1812.2054-.3139.1651-2.0694-.628-4.1194-1.2568-6.1655-1.9852-.1306-.0465-.1985-.1891-.1515-.3185z"/><path d="m18.6793 21.7189c.0335-.1335.1698-.2148.3045-.1817.6377.1568 1.272.3241 1.9052.4912 1.4844.3917 2.9622.7816 4.4605 1.029.1369.0226.2294.1509.2066.2866-.0228.1356-.1523.2272-.2893.2046-1.5229-.2514-3.0382-.6512-4.533-1.0456-.6276-.1656-1.2516-.3302-1.8711-.4825-.1347-.0331-.2168-.1682-.1834-.3016z"/><path d="m24.4716 22.9248c.0411.1313-.033.2708-.1656.3116-2.1546.6624-4.3657 1.0394-6.5746 1.38-.1371.0211-.2656-.0719-.287-.2078-.0213-.1359.0726-.2631.2097-.2843 2.2073-.3403 4.3865-.7128 6.5029-1.3635.1326-.0408.2734.0326.3146.164z"/><path d="m25.5356 56.1715c.0415.1312-.0323.2709-.1647.312-2.0169.6258-4.0915.9989-6.1644 1.3395-.137.0225-.2664-.0693-.2891-.2049-.0227-.1357.0699-.2639.2068-.2864 2.0715-.3404 4.1159-.7089 6.0964-1.3234.1325-.0411.2735.0319.315.1632z"/><path d="m21.0169 21.2808c.0228.1357-.0697.264-.2066.2866-.5602.0925-1.0967.2354-1.6587.3851-.0572.0152-.1146.0305-.1724.0459-1.5836.4202-3.1888.7423-4.7851 1.0625-.0482.0097-.0965.0194-.1448.0291-.136.0273-.2686-.0598-.2962-.1946s.0604-.2662.1964-.2935c.0464-.0093.0927-.0186.139-.0279 1.6006-.3211 3.1923-.6405 4.7606-1.0566.0581-.0154.1161-.0309.1742-.0464.5583-.1488 1.1186-.2981 1.7043-.3948.137-.0226.2665.069.2893.2046z"/><path d="m15.1537 20.6919c.1388 0 .2513.1115.2513.249v37.1901c0 .1375-.1125.249-.2513.249s-.2514-.1115-.2514-.249v-37.1901c0-.1375.1126-.249.2514-.249zm9.2312 0c.1388 0 .2513.1115.2513.249v37.1901c0 .1375-.1125.249-.2513.249-.1389 0-.2514-.1115-.2514-.249v-37.1901c0-.1375.1125-.249.2514-.249zm-4.9233 1.829c.1388 0 .2513.1115.2513.249v35.3611c0 .1375-.1125.249-.2513.249s-.2514-.1115-.2514-.249v-35.3611c0-.1375.1126-.249.2514-.249z"/><path d="m27.5325 16.5892c.0469-.1294.1908-.1966.3215-.1501 2.0334.7238 4.0729 1.3495 6.1427 1.9776.1327.0403.2074.1796.1667.311-.0406.1315-.1812.2055-.3139.1652-2.0695-.628-4.1194-1.2568-6.1655-1.9852-.1306-.0465-.1985-.1891-.1515-.3185z"/><path d="m28.3285 53.1499c.0581-.1249.2074-.1795.3335-.122 1.9624.8958 3.9394 1.6943 5.9465 2.4978.1287.0515.1909.1966.1389.3241s-.1985.1891-.3272.1376c-2.0067-.8033-3.9939-1.6058-5.9686-2.5072-.1261-.0575-.1812-.2054-.1231-.3303z"/><path d="m32.4489 15.3942c.0334-.1335.1697-.2149.3044-.1817.6377.1567 1.2721.3241 1.9052.4912 1.4844.3917 2.9622.7816 4.4605 1.029.1369.0226.2294.1509.2066.2865-.0228.1357-.1523.2273-.2892.2047-1.523-.2514-3.0383-.6512-4.533-1.0456-.6277-.1656-1.2517-.3302-1.8711-.4825-.1348-.0331-.2169-.1682-.1834-.3016z"/><path d="m40.6299 16.6193c.0301.1343-.0553.2673-.1908.2971-2.3452.5163-4.8715.8983-6.9268 1.209-.3807.0576-.7452.1127-1.0895.1658-.1371.0211-.2656-.0719-.287-.2078-.0213-.1359.0726-.2632.2097-.2843.3468-.0535.7132-.1089 1.0951-.1666 2.0559-.3109 4.5625-.6899 6.8894-1.2022.1355-.0298.2698.0548.2999.189z"/><path d="m39.7007 53.784c.0445.1303-.026.2716-.1575.3157-2.6333.8822-5.3362 1.3845-8.0389 1.8386-.1368.023-.2666-.0683-.2898-.2038-.0232-.1356.0689-.2642.2058-.2872 2.7006-.4537 5.3694-.9508 7.9618-1.8194.1315-.044.2742.0259.3186.1561z"/><path d="m35.5124 16.0154c.0109.1371-.0925.2569-.2309.2677-.5661.0441-1.1131.1405-1.686.2414-.0583.0103-.1169.0206-.1758.0309-1.6144.2828-3.2418.466-4.86.6482-.0489.0055-.0979.011-.1468.0165-.1379.0155-.2624-.0827-.2781-.2193s.0834-.26.2213-.2755c.047-.0053.094-.0106.141-.0159 1.6226-.1826 3.2362-.3643 4.835-.6443.0592-.0104.1184-.0208.1776-.0313.5692-.1003 1.1404-.201 1.7324-.2471.1384-.0108.2594.0916.2703.2287z"/><path d="m28.9232 14.9004c.1388 0 .2513.1115.2513.249v39.9337c0 .1375-.1125.249-.2513.249s-.2513-.1115-.2513-.249v-39.9337c0-.1375.1125-.249.2513-.249zm9.2312.9145c.1388 0 .2513.1115.2513.249v39.0192c0 .1375-.1125.249-.2513.249s-.2513-.1115-.2513-.249v-39.0192c0-.1375.1125-.249.2513-.249zm-4.9233 1.829c.1388 0 .2513.1115.2513.249v37.1902c0 .1375-.1125.249-.2513.249s-.2513-.1115-.2513-.249v-37.1902c0-.1375.1125-.249.2513-.249z"/><path d="m45.3801 14.1502c.047-.1294.1909-.1966.3215-.1501 2.0335.7239 4.0729 1.3496 6.1428 1.9777.1327.0403.2073.1795.1667.311-.0407.1315-.1812.2054-.314.1651-2.0694-.628-4.1194-1.2568-6.1655-1.9852-.1306-.0465-.1984-.1891-.1515-.3185z"/><path d="m39.8951 56.7403c.0955-.0998.2545-.104.3553-.0094 1.4199 1.333 2.8442 2.4856 4.2929 3.6451.108.0864.1248.2431.0376.3501s-.2455.1236-.3535.0372c-1.4488-1.1595-2.887-2.323-4.3228-3.671-.1007-.0946-.105-.2522-.0095-.352z"/><path d="m39.4332 14.7523c.051-.1278.1971-.1905.3261-.1399.611.2393 1.2173.4887 1.8224.7377 1.4187.5837 2.8311 1.1648 4.2829 1.6072.1326.0405.2071.1798.1663.3112-.0408.1315-.1815.2052-.3141.1648-1.4757-.4498-2.924-1.0455-4.3525-1.6332-.5999-.2468-1.1963-.4921-1.7898-.7247-.1291-.0505-.1923-.1952-.1413-.3231z"/><path d="m51.5217 15.9619c.0104.1371-.0934.2566-.2318.2669-2.3957.1778-4.9512.197-7.0302.2127-.3851.0029-.7539.0056-1.1022.0093-.1388.0014-.2525-.1089-.254-.2464-.0014-.1375.1099-.2501.2487-.2516.3509-.0037.7215-.0064 1.1078-.0094 2.0797-.0156 4.6152-.0347 6.9923-.2112.1384-.0103.259.0925.2694.2297z"/><path d="m51.4048 59.3215c.0159.1367-.083.2602-.2209.2759-4.0129.4587-5.5618.4589-8.3369.4589-.1388 0-.2513-.1115-.2513-.249s.1125-.249.2513-.249h.0033c2.7616 0 4.2902 0 8.276-.4556.1379-.0157.2626.0822.2785.2188z"/><path d="m48.9459 14.8434c.0004.1375-.1118.2493-.2506.2497l-8.4158.0232c-.1388.0004-.2517-.1108-.2521-.2483s.1119-.2493.2507-.2497l8.4158-.0232c.1388-.0004.2516.1108.252.2483z"/><path d="m40.6927 13.6807c.1388 0 .2514.1114.2514.249v43.5917c0 .1375-.1126.249-.2514.249s-.2513-.1115-.2513-.249v-43.5917c0-.1376.1125-.249.2513-.249zm9.5389 0c.1388 0 .2514.1114.2514.249v45.1159c0 .1375-.1126.249-.2514.249s-.2513-.1115-.2513-.249v-45.1159c0-.1376.1125-.249.2513-.249zm-6.7695 1.829c.1388 0 .2513.1115.2513.249v44.5062c0 .1375-.1125.249-.2513.249s-.2513-.1115-.2513-.249v-44.5062c0-.1375.1125-.249.2513-.249z"/><path d="m34.778 57.4423c.0442.1304-.0267.2715-.1583.3153-1.904.6331-3.8042 1.2758-5.7045 1.9185-6.2596 2.1173-12.5203 4.2349-18.92417 6.011-.13367.037-.27236-.0403-.30979-.1727-.03742-.1324.04061-.2698.17427-.3069 6.38899-1.772 12.63149-3.8834 18.88839-5.9997 1.9024-.6434 3.8062-1.2874 5.7159-1.9223.1316-.0438.274.0264.3182.1568z"/><path d="m33.1432 57.3335c.1048-.0902.2635-.0791.3545.0247.3995.4557.797.91 1.1932 1.3628 3.4561 3.9502 6.8154 7.7895 10.5646 11.5038.0981.0972.0981.2549 0 .3521-.0982.0972-.2573.0972-.3555 0-3.7626-3.7276-7.1338-7.5806-10.5884-11.5291-.3965-.4531-.794-.9075-1.1934-1.3631-.091-.1038-.0798-.2611.025-.3512z"/><path d="m33.7733 64.7903c.1115-.082.2689-.059.3517.0514 3.9999 5.3343 6.7676 8.9902 10.1501 13.2551.0858.1081.0668.2647-.0423.3496-.1091.085-.2671.0662-.3529-.0419-3.387-4.2705-6.158-7.9308-10.1584-13.2658-.0828-.1104-.0596-.2664.0518-.3484z"/><path d="m49.9884 49.5316c.0358-.1329.1735-.2119.3077-.1765.4713.1246.9347.2447 1.3903.3628 3.9848 1.033 7.3793 1.913 10.3928 4.2545 1.9145 1.4875 2.5988 3.0929 2.3752 4.69-.2201 1.5724-1.3129 3.0701-2.7968 4.3811-2.9659 2.6201-7.6363 4.6187-10.7599 5.0867-1.0508.274-2.7643.5128-4.4639.7157-.8567.1022-1.7072.195-2.476.2789-.777.0848-1.4706.1604-2.0028.2275-.1377.0174-.2636-.0791-.2811-.2155s.0799-.2611.2176-.2784c.5297-.0668 1.233-.1436 2.0176-.2293.7721-.0843 1.623-.1772 2.4646-.2777 1.7124-.2043 3.3985-.441 4.4086-.7061.009-.0023.018-.0042.0271-.0055 3.0305-.4504 7.619-2.4107 10.5137-4.968 1.4486-1.2797 2.4374-2.6777 2.6334-4.0778.1926-1.3755-.3724-2.8195-2.1875-4.2298-2.9267-2.274-6.2165-3.1279-10.2174-4.1662-.4524-.1175-.914-.2372-1.3851-.3617-.1341-.0354-.2138-.1719-.1781-.3047z"/><path d="m64.4156 57.5875c.1331.039.2091.1776.1696.3094-.0286.0959-.0555.311-.0762.6456-.02.325-.0331.738-.0423 1.2116-.0116.5969-.0169 1.2837-.0224 2.0048-.0033.4244-.0066.8606-.0114 1.2975-.0129 1.1758-.0361 2.3535-.0962 3.2948-.03.4703-.0695.8869-.1226 1.2172-.0266.165-.0572.313-.0933.4376-.0348.1203-.0797.2374-.1433.3274-2.3234 3.2896-5.911 5.6009-9.9852 7.1276-4.0753 1.5271-8.6532 2.2753-12.982 2.4285-.1387.0049-.2552-.1026-.2601-.24-.005-.1374.1034-.2528.2422-.2577 4.287-.1517 8.8088-.8927 12.822-2.3966 4.0143-1.5042 7.5039-3.7654 9.7512-6.9473.0158-.0222.0423-.0764.072-.1791.0285-.0983.0553-.2249.0801-.3788.0494-.3076.0878-.7063.1174-1.1702.0591-.927.0823-2.0932.0951-3.2688.0048-.4328.0081-.8673.0114-1.291.0056-.7237.0109-1.4161.0225-2.0155.0092-.4757.0225-.8969.0432-1.2324.0201-.3259.0484-.5976.096-.7566.0394-.1319.1793-.2071.3123-.168z"/><path d="m29.542 64.4397c.0518.1275-.0105.2726-.1392.324-7.3122 2.9192-13.2338 5.0727-19.73357 7.4364-2.66658.9698-5.43047 1.9749-8.42762 3.0828-.13005.0481-.274814-.0174-.32334-.1462-.048525-.1289.017562-.2723.14761-.3203 3.00238-1.1099 5.76896-2.116 8.4368-3.0862 6.49662-2.3626 12.40762-4.5122 19.71222-7.4284.1287-.0514.2752.0103.3271.1379z"/><path d="m27.3147 64.1793c.1124-.0807.2695-.056.351.0553.5923.8088 1.1868 1.6165 1.7815 2.4246 3.258 4.4267 6.5226 8.8622 9.4595 13.5174.0735.1166.0378.2703-.0799.3431-.1178.0729-.2728.0375-.3464-.0791-2.9265-4.6388-6.1789-9.0579-9.4371-13.4849-.5953-.8088-1.1907-1.6179-1.7844-2.4286-.0816-.1113-.0566-.267.0558-.3478z"/><path d="m.781205 73.5547c.068867-.1194.222395-.1609.342915-.0927 2.1308 1.2063 5.60078 2.4833 7.33606 3.0272 10.44162 3.2729 24.10702 4.9655 33.09542 2.7394.1347-.0334.2712.0477.3048.1811.0337.1335-.0482.2686-.1828.302-9.1174 2.2581-22.8866.5379-33.36905-2.7477-1.7469-.5476-5.25675-1.8371-7.433823-3.0696-.120519-.0682-.16239-.2203-.093522-.3397z"/><path d="m2.83205 72.7435c.13862-.0071.25683.0984.26403.2357.308 5.8738.30805 7.7074.30805 12.2827 0 .1375-.11253.2489-.25134.2489-.1388 0-.25133-.1114-.25133-.2489v-.002c0-4.5684 0-6.3932-.30737-12.2548-.0072-.1374.09934-.2545.23796-.2616z"/><path d="m38.6194 77.5445c.1388.0016.25.1144.2483.2519-.0186 1.5508-.1062 3.313-.1928 5.0577-.0049.0968-.0097.1935-.0145.2902-.0913 1.8417-.1773 3.6491-.1773 5.166 0 .1375-.1125.249-.2513.249s-.2513-.1115-.2513-.249c0-1.5314.0867-3.3514.1779-5.1904.0047-.0956.0095-.1912.0142-.2868.0869-1.7479.174-3.5015.1925-5.0426.0017-.1375.1155-.2477.2543-.246z"/><path d="m1.71871 82.0686c.08068-.1119.23765-.1378.3506-.0578 4.26413 3.0174 10.65799 5.1859 17.54589 6.1953 6.8851 1.009 14.2349.8554 20.3998-.7465.1342-.0349.2716.0447.3069.1777.0352.133-.0451.2691-.1794.304-6.2443 1.6226-13.6644 1.7739-20.6009.7574-6.9335-1.0161-13.41282-3.2034-17.76446-6.2827-.11295-.08-.13911-.2355-.05843-.3474z"/><path d="m34.1593 64.7487c.0498.1284-.0149.2724-.1445.3217-.7313.2781-1.3198.5078-1.8323.7079-1.1649.4548-1.9377.7565-3.1046 1.1258-.1322.0419-.2737-.0304-.3159-.1614-.0423-.131.0307-.2711.1629-.3129 1.1505-.3642 1.9034-.6581 3.0589-1.1092.5138-.2006 1.1073-.4323 1.8508-.7151.1296-.0493.275.0148.3247.1432z"/><path d="m3.14247 67.1953c.13013-.0478.27478.0179.32307.1468.87773 2.3429 3.05267 4.1446 5.3933 5.0365.12956.0494.19419.1934.14436.3218-.04983.1283-.19525.1923-.3248.143-2.43762-.9288-4.74366-2.8176-5.68411-5.328-.0483-.1289.01804-.2722.14818-.3201z"/><path d="m3.46526 59.1016c.13877.0029.24893.1167.24604.2541-.06176 2.937-.04404 4.4863-.02354 6.2774.01134.9913.02353 2.0566.02355 3.4722.00001.1376-.11252.249-.25133.249-.1388 0-.25133-.1114-.25133-.249-.00003-1.4047-.01216-2.4669-.02347-3.4577-.02051-1.7967-.03834-3.3584.02356-6.3022.00289-.1375.11774-.2466.25652-.2438z"/><path d="m33.9301 57.2725c.1388.0029.2489.1167.246.2541-.0606 2.8819-.0446 4.0622-.0246 5.542.0116.8633.0247 1.8286.0247 3.2931 0 .1376-.1125.249-.2513.249s-.2514-.1114-.2514-.249c0-1.4516-.013-2.4141-.0246-3.2776-.02-1.4865-.0361-2.6792.0247-5.5678.0029-.1375.1177-.2466.2565-.2438z"/><path d="m43.8188 68.2466c.1387.0029.2489.1167.246.2542-.0606 2.8818-.0447 4.0621-.0247 5.5419.0117.8634.0248 1.8286.0248 3.2932 0 .1375-.1125.249-.2513.249-.1389 0-.2514-.1115-.2514-.249 0-1.4517-.013-2.4142-.0246-3.2776-.02-1.4866-.0361-2.6792.0246-5.5679.0029-.1375.1178-.2466.2566-.2438z"/><path d="m10.5863 64.2837c.1388.0029.2489.1167.246.2542-.0571 2.7146-.0463 3.1617-.0281 3.9145.0124.5139.0282 1.1701.0282 2.7867 0 .1375-.1125.249-.2513.249s-.2513-.1115-.2513-.249c-.0001-1.5908-.0157-2.2475-.028-2.7652-.0183-.7646-.0292-1.226.028-3.9464.0029-.1375.1177-.2466.2565-.2438z"/><path d="m2.5091 57.2742c.13786-.0161.26276.0816.27898.2182.13135 1.1061.69931 2.1678 1.4729 3.1255.77238.9563 1.73739 1.7935 2.636 2.4483 1.70539 1.2428 3.63012 2.2943 5.70842 2.2085.1387-.0057.2558.101.2615.2384.0058.1374-.1019.2534-.2406.2591-2.2586.0933-4.30287-1.0483-6.02717-2.3048-.92177-.6717-1.92273-1.5381-2.73063-2.5383-.80669-.9988-1.43333-2.1464-1.57964-3.3785-.01622-.1366.08238-.2603.22024-.2764z"/><path d="m15.3974 49.7944c.0348.1331-.0458.269-.1802.3036-3.1637.8134-6.24753 1.945-8.57251 4.1734-1.16573 1.1173-2.28723 2.5799-2.73702 4.1077-.28734.976-.09694 1.904.32233 2.8534.05564.126-.00235.2728-.12952.3279-.12717.0552-.27536-.0023-.331-.1283-.44482-1.0072-.67721-2.0619-.34436-3.1925.48433-1.6451 1.67397-3.1797 2.87006-4.3261 2.42134-2.3207 5.61052-3.4785 8.79572-4.2975.1344-.0346.2716.0453.3065.1784z"/></g><path d="m24.386 48.3765c1.1816-.1879 2.7377-.372 4.3079-.4947z" fill="#22222a"/><path clip-rule="evenodd" d="m28.9424 47.8577c.0133.1351-.0851.2558-.2212.2714l-4.3079.4948c-.1357.0156-.2592-.0792-.2779-.2133s.0742-.2584.2092-.2799c1.189-.1891 2.7519-.3739 4.3279-.4971.1366-.0107.2567.089.2699.2241z" fill="#000" fill-rule="evenodd"/><path clip-rule="evenodd" d="m37.9815 48.0495c.0124-.137.1345-.238.2728-.2257.3523.0313.6171.05.8631.0674.4552.0323.8459.0599 1.6072.1542.1378.0171.2355.1415.2183.278-.0173.1364-.1429.2332-.2806.2161-.7497-.0928-1.1207-.119-1.5666-.1504-.2469-.0175-.5166-.0365-.8863-.0693-.1383-.0123-.2403-.1333-.2279-.2703z" fill="#000" fill-rule="evenodd"/><path clip-rule="evenodd" d="m23.7395 22.8341c.1344.0343.2153.1701.1806.3033l-4.0441 15.5467c-.0346.1331-.1717.2133-.3061.1789-.1344-.0343-.2153-.17-.1806-.3032l4.0441-15.5467c.0346-.1332.1717-.2133.3061-.179zm.6092 4.2677c.1344.0343.2153.1701.1807.3033l-4.4406 17.0709c-.0347.1331-.1717.2133-.3061.1789-.1345-.0343-.2153-.17-.1807-.3032l4.4406-17.0709c.0346-.1332.1717-.2133.3061-.179zm.0989 7.3161c.1344.0343.2153.1701.1807.3033-.8704 3.3458-1.6689 6.3799-2.4499 9.3468l-.0488.1853c-.7641 2.9025-1.5124 5.7452-2.2961 8.7581-.0347.1332-.1717.2133-.3061.179-.1345-.0343-.2153-.1701-.1807-.3033.7839-3.0134 1.5323-5.8566 2.2963-8.7587l.049-.1861c.781-2.9669 1.5794-6.0004 2.4495-9.3454.0347-.1332.1717-.2133.3061-.179zm-7.3814 28.6557c.1339.0362.2128.1732.1762.3058l-1.8505 6.7064c-.0366.1327-.1748.2108-.3087.1745-.1339-.0362-.2128-.1731-.1762-.3058l1.8505-6.7064c.0366-.1327.1748-.2108.3087-.1745zm-2.3527 1.0684c.1345.0343.2153.1701.1807.3032l-1.7042 6.5516c-.0347.1332-.1717.2133-.3061.179-.1345-.0343-.2153-.1701-.1807-.3033l1.7042-6.5515c.0347-.1332.1717-.2133.3061-.179zm-1.7193 0c.1344.0343.2153.1701.1806.3032l-1.7042 6.5516c-.0347.1332-.1717.2133-.3061.179s-.2153-.1701-.1807-.3033l1.7043-6.5515c.0346-.1332.1717-.2133.3061-.179zm-3.24629 12.4795c.13441.0343.2153.1701.18066.3032l-2.18492 8.3995c-.03464.1331-.17168.2133-.3061.1789-.13441-.0343-.2153-.17-.18066-.3032l2.18492-8.3994c.03464-.1332.17168-.2133.3061-.179zm1.54199.6818c.1344.0343.2153.1701.1807.3033l-2.00757 7.7176c-.03464.1331-.17169.2133-.30611.1789-.13441-.0343-.2153-.17-.18066-.3032l2.00754-7.7176c.0347-.1332.1717-.2133.3061-.179zm1.7194.9443c.1344.0343.2153.17.1807.3032l-1.9999 7.6879c-.0346.1331-.1716.2133-.3061.179-.1344-.0344-.2153-.1701-.1806-.3033l1.9998-7.6879c.0346-.1331.1717-.2133.3061-.1789z" fill="#000" fill-rule="evenodd"/><path d="m5.92209 75.8118c-.36811 1.4151-.69981 2.6608-1.02921 3.8981l-.98295 3.7228c.34622-1.3309.6635-2.5229.98295-3.7228z" fill="#22222a"/><path clip-rule="evenodd" d="m21.4014 23.7484c.1345.0343.2153.1701.1807.3032l-1.965 7.554c-.0346.1332-.1717.2133-.3061.179s-.2153-.1701-.1807-.3033l1.965-7.5539c.0347-.1332.1717-.2133.3061-.179zm-13.99288 39.6288c.13442.0343.2153.1701.18066.3033l-1.73045 6.6523c-.03463.1331-.17168.2133-.3061.179-.13441-.0344-.2153-.1701-.18066-.3033l1.73045-6.6523c.03464-.1332.17169-.2133.3061-.179zm3.44648.9145c.1344.0343.2153.1701.1807.3033l-1.96503 7.554c-.03464.1331-.17169.2133-.3061.1789-.13442-.0343-.21531-.17-.18067-.3032l1.965-7.554c.0346-.1332.1717-.2133.3061-.179zm-1.965 0c.13442.0344.2153.1701.18066.3033l-1.90311 7.3161c-.03464.1331-.17168.2133-.3061.1789-.13441-.0343-.2153-.17-.18066-.3032l1.90311-7.3161c.03464-.1332.17169-.2133.3061-.179zm-4.49475 10.6693c.13442.0344.2153.1701.18066.3033l-1.18944 4.5725c-.03464.1332-.17169.2133-.3061.179-.13442-.0343-.2153-.1701-.18066-.3032l1.18944-4.5726c.03464-.1332.17169-.2133.3061-.179zm1.59097.6098c.13418.0345.21481.1702.18022.3032-.36553 1.4052-.69517 2.6433-1.0221 3.8714l-.00733.0275-.00013.0005-.9826 3.7215-.00023.0009c-.03508.1328-.17213.2125-.30631.178-.13418-.0346-.21481-.1702-.18022-.3032.3464-1.3316.66383-2.5242.98324-3.724.00003 0 .00005-.0001.00007-.0002l1.02885-3.8967.00023-.0009c.03508-.1328.17213-.2125.30631-.178zm1.69692.9144c.13442.0343.2153.1701.18066.3033l-2.00507 7.708c-.03464.1332-.17168.2133-.3061.179-.13441-.0343-.2153-.1701-.18066-.3033l2.00507-7.708c.03464-.1332.17169-.2133.3061-.179z" fill="#000" fill-rule="evenodd"/><path clip-rule="evenodd" d="m4.44065 61.2433c.13441.0343.2153.1701.18066.3032l-.87226 3.3532c-.03464.1332-.17169.2133-.3061.179-.13442-.0343-.2153-.1701-.18066-.3032l.87226-3.3532c.03464-.1332.17168-.2133.3061-.179zm1.64781 1.2193c.13442.0343.2153.1701.18066.3033l-1.64781 6.3346c-.03464.1332-.17169.2133-.3061.179-.13442-.0343-.2153-.1701-.18066-.3033l1.64781-6.3346c.03464-.1332.17169-.2133.3061-.179z" fill="#000" fill-rule="evenodd"/><path clip-rule="evenodd" d="m34.1632 17.347c.1344.0343.2153.1701.1806.3033l-.7137 2.7435c-.0346.1332-.1716.2133-.3061.179-.1344-.0343-.2153-.1701-.1806-.3033l.7137-2.7435c.0346-.1332.1716-.2133.3061-.179zm-9.7902 23.4725c.1344.0343.2153.1701.1806.3032l-4.2027 16.1564c-.0346.1332-.1717.2133-.3061.179s-.2153-.1701-.1807-.3033l4.2028-16.1563c.0346-.1332.1716-.2133.3061-.179zm0 6.6097c.1344.0343.2153.1701.1806.3033l-2.4833 9.5466c-.0347.1332-.1717.2133-.3061.179s-.2153-.1701-.1807-.3033l2.4834-9.5466c.0346-.1332.1716-.2133.3061-.179zm.2746 6.4983c.1344.0343.2153.1701.1806.3032l-.6875 2.6433c-.0347.1331-.1717.2132-.3061.1789-.1345-.0343-.2153-.1701-.1807-.3032l.6876-2.6432c.0346-.1332.1717-.2133.3061-.179zm-1.9824 7.6209c.1344.0343.2153.1701.1806.3033l-1.5859 6.0967c-.0346.1332-.1717.2133-.3061.179s-.2153-.1701-.1807-.3033l1.586-6.0967c.0346-.1332.1716-.2133.3061-.179zm-2.0827.4523c.1344.0343.2153.1701.1807.3033l-1.7855 6.8638c-.0346.1331-.1717.2133-.3061.1789-.1344-.0343-.2153-.17-.1806-.3032l1.7854-6.8638c.0347-.1332.1717-.2133.3061-.179zm-1.9189.7671c.1344.0343.2153.1701.1807.3032l-1.586 6.0968c-.0346.1331-.1716.2133-.3061.1789-.1344-.0343-.2153-.17-.1806-.3032l1.5859-6.0967c.0346-.1332.1717-.2133.3061-.179zm-2.2454 15.2418c.1344.0344.2153.1701.1806.3033-.412 1.584-.7412 2.8947-1.0679 4.1955l-.0216.0864c-.3338 1.3291-.6669 2.6539-1.0846 4.2537-.0347.1332-.1718.2132-.3062.1788-.1344-.0345-.2152-.1703-.1804-.3034.417-1.5975.7496-2.9202 1.0834-4.2494l.0218-.0869c.3266-1.3005.6562-2.613 1.0688-4.199.0346-.1332.1716-.2133.3061-.179zm1.8064.6097c.1344.0343.2153.1701.1806.3033-.42 1.6147-.8658 3.2917-1.3043 4.9415-.3544 1.3332-.704 2.6487-1.0316 3.8991-.0348.1332-.172.2131-.3064.1785-.1343-.0345-.215-.1704-.1801-.3035.3289-1.2558.6787-2.5716 1.0329-3.9043.4378-1.6469.8823-3.3194 1.3028-4.9356.0346-.1332.1716-.2133.3061-.179zm-3.5258-.6097c.1344.0344.2153.1701.1806.3033l-2.2203 8.5354c-.0346.1332-.1716.2133-.3061.179-.1344-.0343-.2153-.1701-.1806-.3032l2.2203-8.5355c.0346-.1331.1717-.2133.3061-.179z" fill="#000" fill-rule="evenodd"/><path clip-rule="evenodd" d="m37.4377 16.7374c.1344.0343.2153.1701.1807.3033l-3.8856 14.937c-.0346.1332-.1716.2133-.3061.179-.1344-.0343-.2153-.1701-.1806-.3033l3.8855-14.937c.0347-.1332.1717-.2133.3061-.179zm-1.7194 0c.1345.0343.2153.1701.1807.3033l-2.3475 9.0246c-.0347.1331-.1717.2132-.3061.1789-.1345-.0343-.2153-.1701-.1807-.3032l2.3475-9.0246c.0347-.1332.1717-.2133.3061-.179zm2.495 4.5726c.1344.0343.2153.1701.1806.3032l-4.8424 18.6158c-.0347.1331-.1717.2133-.3061.179-.1345-.0344-.2153-.1701-.1807-.3033l4.8425-18.6157c.0346-.1332.1716-.2133.3061-.179zm-9.9121 38.1047c.1344.0343.2153.17.1807.3032l-1.5067 5.7919c-.0346.1332-.1717.2133-.3061.179s-.2153-.1701-.1806-.3033l1.5066-5.7919c.0346-.1331.1717-.2133.3061-.1789zm-2.2029.9145c.1344.0343.2153.1701.1807.3032l-1.5067 5.7919c-.0346.1332-.1716.2133-.3061.179-.1344-.0343-.2153-.1701-.1806-.3033l1.5066-5.7919c.0347-.1331.1717-.2132.3061-.1789zm-1.8779.6096c.1344.0344.2153.1701.1806.3033l-1.5859 6.0967c-.0347.1332-.1717.2133-.3061.179s-.2153-.1701-.1807-.3032l1.586-6.0968c.0346-.1332.1716-.2133.3061-.179zm-3.0385 18.2903c.1345.0343.2153.1701.1807.3032l-2.3789 9.1451c-.0346.1332-.1717.2133-.3061.179s-.2153-.1701-.1807-.3032l2.3789-9.1452c.0347-.1331.1717-.2132.3061-.1789zm1.8064.6096c.1345.0344.2153.1701.1807.3033-.4004 1.5394-.8209 3.154-1.2349 4.7441-.338 1.2982-.6718 2.58-.987 3.7914-.0347.1331-.1717.2132-.3061.1789s-.2153-.1701-.1807-.3032c.3153-1.2117.6491-2.4936.9871-3.7918.414-1.5899.8344-3.2042 1.2348-4.7437.0347-.1331.1717-.2133.3061-.179zm-3.5257-.6096c.1344.0343.2153.1701.1806.3032l-2.2203 8.5355c-.0346.1331-.1717.2133-.3061.1789-.1344-.0343-.2153-.17-.1806-.3032l2.2203-8.5354c.0346-.1332.1717-.2133.3061-.179z" fill="#000" fill-rule="evenodd"/><path clip-rule="evenodd" d="m41.8117 15.213c.1345.0343.2153.1701.1807.3033l-.9516 3.658c-.0346.1332-.1716.2133-.3061.179-.1344-.0343-.2153-.1701-.1806-.3033l.9515-3.658c.0347-.1332.1717-.2133.3061-.179zm1.5608.6097c.1344.0343.2153.1701.1807.3032l-2.5124 9.6582c-.0346.1331-.1716.2132-.3061.1789-.1344-.0343-.2153-.1701-.1806-.3032l2.5123-9.6581c.0347-.1332.1717-.2133.3061-.179zm0 7.554c.1344.0343.2153.1701.1807.3032l-2.5124 9.6581c-.0346.1332-.1716.2133-.3061.179-.1344-.0343-.2153-.1701-.1806-.3032l2.5123-9.6581c.0347-.1332.1717-.2133.3061-.179zm-5.367 6.4685c.1344.0343.2153.1701.1807.3033l-4.6785 17.9854c-.0347.1331-.1717.2132-.3061.1789s-.2153-.1701-.1807-.3032l4.6785-17.9854c.0346-.1332.1717-.2133.3061-.179zm.292 5.4871c.1345.0343.2153.1701.1807.3032l-4.9705 19.1081c-.0347.1332-.1717.2133-.3061.179s-.2153-.1701-.1807-.3033l4.9705-19.108c.0347-.1332.1717-.2133.3061-.179zm0 7.554c.1345.0343.2153.1701.1807.3032l-3.0055 11.5541c-.0347.1332-.1717.2133-.3061.179s-.2153-.1701-.1807-.3033l3.0055-11.5541c.0347-.1331.1717-.2132.3061-.1789zm-3.9822 15.3088c.1344.0343.2153.1701.1807.3032l-1.7446 6.7064c-.0346.1332-.1716.2133-.3061.179-.1344-.0343-.2153-.1701-.1806-.3032l1.7445-6.7064c.0346-.1332.1717-.2133.3061-.179zm-1.965 0c.1344.0343.2153.1701.1807.3032l-2.0617 7.9258c-.0347.1332-.1717.2133-.3061.179-.1345-.0343-.2153-.1701-.1807-.3033l2.0617-7.9258c.0346-.1331.1717-.2132.3061-.1789zm-1.878.6096c.1345.0344.2153.1701.1807.3033l-1.7445 6.7064c-.0347.1332-.1717.2133-.3061.179s-.2153-.1701-.1807-.3033l1.7445-6.7064c.0347-.1331.1717-.2133.3061-.179zm-1.787 21.0338c.1344.0343.2153.1701.1806.3033l-2.4582 9.4499c-.0346.1332-.1717.2133-.3061.179s-.2153-.1701-.1806-.3032l2.4582-9.45c.0346-.1332.1716-.2133.3061-.179zm-1.965 0c.1344.0343.2153.1701.1806.3033l-2.2996 8.8403c-.0346.1331-.1717.2132-.3061.1789s-.2153-.1701-.1806-.3032l2.2996-8.8403c.0346-.1332.1716-.2133.3061-.179zm-1.7194 0c.1344.0343.2153.1701.1806.3033l-2.2996 8.8403c-.0346.1331-.1716.2132-.3061.1789-.1344-.0343-.2153-.1701-.1806-.3032l2.2996-8.8403c.0346-.1332.1717-.2133.3061-.179z" fill="#000" fill-rule="evenodd"/><path clip-rule="evenodd" d="m43.386 29.8453c.1344.0344.2153.1701.1806.3033l-2.7754 10.6693c-.0346.1332-.1716.2133-.3061.179-.1344-.0343-.2153-.1701-.1806-.3033l2.7754-10.6693c.0346-.1331.1716-.2133.3061-.179zm.2127 5.7919c.1344.0344.2153.1701.1807.3033l-2.8547 10.9741c-.0347.1332-.1717.2133-.3061.179s-.2153-.1701-.1807-.3032l2.8547-10.9742c.0346-.1331.1717-.2133.3061-.179zm0 7.554c.1344.0343.2153.1701.1807.3033l-2.8547 10.9741c-.0347.1332-.1717.2133-.3061.179s-.2153-.1701-.1807-.3032l2.8547-10.9742c.0346-.1332.1717-.2133.3061-.179zm-5.367 6.4686c.1344.0343.2153.17.1806.3032l-1.1894 4.5726c-.0346.1331-.1717.2133-.3061.1789-.1344-.0343-.2153-.17-.1807-.3032l1.1895-4.5726c.0346-.1331.1717-.2133.3061-.1789zm-2.6961 10.3644c.1344.0343.2153.1701.1807.3033l-1.3481 5.1822c-.0346.1332-.1717.2133-.3061.179s-.2153-.1701-.1806-.3033l1.348-5.1822c.0346-.1332.1717-.2133.3061-.179zm1.5066.8179c.1345.0343.2153.17.1807.3032l-1.5066 5.7919c-.0347.1332-.1717.2133-.3061.179s-.2153-.1701-.1807-.3033l1.5066-5.7919c.0347-.1331.1717-.2133.3061-.1789zm1.4641 1.9257c.1344.0343.2153.17.1807.3032l-1.4641 5.6283c-.0346.1332-.1717.2133-.3061.179s-.2153-.1701-.1807-.3033l1.4641-5.6283c.0347-.1331.1717-.2133.3061-.1789zm-4.5199 17.3757c.1344.0343.2153.1701.1807.3032l-2.2203 8.5355c-.0347.1331-.1717.2133-.3061.1789-.1344-.0343-.2153-.17-.1807-.3032l2.2203-8.5354c.0347-.1332.1717-.2133.3061-.179zm-1.965 0c.1344.0343.2153.1701.1807.3032l-2.3789 9.1451c-.0347.1332-.1717.2133-.3061.179s-.2153-.1701-.1807-.3032l2.3789-9.1451c.0347-.1332.1717-.2133.3061-.179zm-1.7194 0c.1345.0343.2153.1701.1807.3032l-2.2203 8.5355c-.0346.1331-.1717.2133-.3061.1789-.1344-.0343-.2153-.17-.1807-.3032l2.2203-8.5354c.0347-.1332.1717-.2133.3061-.179z" fill="#000" fill-rule="evenodd"/><path clip-rule="evenodd" d="m43.5246 51.2125c.1344.0343.2153.1701.1807.3033l-1.8164 6.9826c-.0346.1331-.1717.2133-.3061.179-.1344-.0344-.2153-.1701-.1806-.3033l1.8163-6.9826c.0347-.1332.1717-.2133.3061-.179zm.1409 6.0681c.1344.0343.2153.1701.1807.3033l-.5551 2.1338c-.0346.1332-.1717.2133-.3061.179s-.2153-.1701-.1806-.3032l.555-2.1339c.0347-.1332.1717-.2133.3061-.179zm-3.7018 7.621c.1345.0343.2153.17.1807.3032l-1.5066 5.7919c-.0347.1332-.1717.2133-.3061.179s-.2153-.1701-.1807-.3033l1.5066-5.7919c.0347-.1331.1717-.2133.3061-.1789zm1.3229 1.5241c.1344.0344.2153.1701.1807.3033l-1.5066 5.7919c-.0347.1332-.1717.2133-.3061.179-.1345-.0343-.2153-.1701-.1807-.3033l1.5066-5.7919c.0347-.1331.1717-.2133.3061-.179zm1.7271.9146c.1345.0343.2153.17.1807.3032l-1.8238 7.0113c-.0347.1331-.1717.2133-.3061.1789-.1344-.0343-.2153-.17-.1807-.3032l1.8238-7.0113c.0347-.1331.1717-.2133.3061-.1789zm-5.2954 12.8031c.1344.0343.2153.1701.1807.3033l-2.2203 8.5354c-.0347.1332-.1717.2133-.3061.179-.1345-.0343-.2153-.1701-.1807-.3032l2.2203-8.5355c.0346-.1332.1717-.2133.3061-.179zm-1.7194 0c.1344.0343.2153.1701.1807.3033l-2.2203 8.5354c-.0347.1332-.1717.2133-.3061.179s-.2153-.1701-.1807-.3033l2.2203-8.5354c.0347-.1332.1717-.2133.3061-.179zm2.6535 3.9629c.1345.0343.2153.1701.1807.3033l-1.0309 3.9629c-.0346.1331-.1716.2132-.3061.1789-.1344-.0343-.2153-.1701-.1806-.3032l1.0308-3.9629c.0347-.1332.1717-.2133.3061-.179z" fill="#000" fill-rule="evenodd"/><path clip-rule="evenodd" d="m48.4542 68.2547c.1344.0343.2153.1701.1806.3033l-2.2996 8.8403c-.0346.1331-.1717.2132-.3061.1789s-.2153-.1701-.1806-.3032l2.2996-8.8403c.0346-.1332.1717-.2133.3061-.179zm-1.965 0c.1344.0343.2153.1701.1806.3033l-2.2996 8.8403c-.0346.1331-.1717.2132-.3061.1789s-.2153-.1701-.1806-.3032l2.2996-8.8403c.0346-.1332.1717-.2133.3061-.179zm-1.7194 0c.1344.0343.2153.1701.1807.3033l-.9516 3.658c-.0346.1332-.1717.2133-.3061.179s-.2153-.1701-.1807-.3033l.9516-3.658c.0346-.1332.1717-.2133.3061-.179z" fill="#000" fill-rule="evenodd"/><path clip-rule="evenodd" d="m54.6026 66.5223c.1344.0343.2153.1701.1807.3033l-2.3537 9.0481c-.0346.1332-.1717.2133-.3061.179s-.2153-.1701-.1807-.3033l2.3537-9.0481c.0346-.1332.1717-.2133.3061-.179zm-2.2808 1.214c.1344.0344.2153.1701.1807.3033l-2.2758 8.7486c-.0346.1332-.1717.2133-.3061.179s-.2153-.1701-.1806-.3033l2.2757-8.7486c.0346-.1331.1717-.2133.3061-.179zm-1.7194 0c.1344.0344.2153.1701.1807.3033l-2.2758 8.7486c-.0346.1332-.1716.2133-.3061.179-.1344-.0343-.2153-.1701-.1806-.3033l2.2757-8.7486c.0347-.1331.1717-.2133.3061-.179z" fill="#000" fill-rule="evenodd"/><path clip-rule="evenodd" d="m61.4952 63.0726c.1344.0343.2153.1701.1806.3032l-2.4581 9.45c-.0347.1332-.1717.2133-.3061.179-.1345-.0343-.2153-.1701-.1807-.3033l2.4582-9.4499c.0346-.1332.1717-.2133.3061-.179zm-2.3615 1.5242c.1344.0343.2153.1701.1807.3032l-2.3789 9.1451c-.0347.1332-.1717.2133-.3061.179s-.2153-.1701-.1807-.3032l2.3789-9.1451c.0346-.1332.1717-.2133.3061-.179zm-1.9573.9145c.1345.0343.2153.1701.1807.3032l-2.3789 9.1452c-.0346.1331-.1717.2132-.3061.1789s-.2153-.1701-.1807-.3032l2.3789-9.1451c.0347-.1332.1717-.2133.3061-.179z" fill="#000" fill-rule="evenodd"/><path clip-rule="evenodd" d="m64.4485 58.8468c.1344.0343.2153.1701.1806.3033l-3.1609 12.1515c-.0347.1332-.1717.2133-.3061.179-.1345-.0343-.2153-.1701-.1807-.3033l3.161-12.1515c.0346-.1332.1716-.2133.3061-.179zm0 6.6097c.1344.0344.2153.1701.1806.3033l-.8072 3.1031c-.0346.1332-.1717.2133-.3061.179s-.2153-.1701-.1806-.3033l.8072-3.1031c.0346-.1331.1716-.2133.3061-.179z" fill="#000" fill-rule="evenodd"/><path d="m58.8646 26.4106c-2.4986 0-4.0603 5.5695-4.9973 8.3542-.9369 2.7848-1.855 4.7211 2.4987 4.6412 3.225-.0799 11.3149 1.1189 9.0574-2.4753-1.6931-2.7157-4.3725-10.52-6.5588-10.5201z" fill="#ee5f54"/><path clip-rule="evenodd" d="m56.9737 27.158c.5353-.5909 1.164-.9964 1.8902-.9964.35 0 .6841.1557.9938.3926.3107.2378.6169.5727.9165.969.5992.7928 1.2002 1.8699 1.7789 3.0178.4499.8922.8907 1.8365 1.3095 2.7336.1207.2585.2396.5132.3564.7615.5246 1.116 1.0034 2.0994 1.4176 2.7637l-.2138.1308.2134-.1315c.2955.4706.443.8949.429 1.2757-.0145.3934-.2.7056-.4936.9412-.2855.2292-.6729.3867-1.1099.4975-.44.1116-.9489.1805-1.4929.221-1.0875.0809-2.3433.0502-3.5199.0053-.248-.0095-.492-.0196-.7302-.0295-.9005-.0372-1.7179-.071-2.3471-.0554h-.0016c-1.1002.0202-1.9012-.0853-2.4613-.3194-.5766-.241-.9018-.6214-1.0212-1.1182-.1137-.4733-.0331-1.024.1188-1.6038.1188-.4537.2894-.9525.4683-1.4757.0509-.1487.1024-.2995.1536-.4517l.2374.0783-.2374-.0783c.0867-.2576.1792-.5407.2777-.8421.4292-1.3135.9727-2.9764 1.646-4.4059.4142-.8792.8853-1.6878 1.4218-2.2801zm-2.5853 6.8267c-.0998.3053-.1941.5939-.2833.8588-.0535.1591-.1066.3143-.1583.4657-.1777.5197-.3402.9949-.4539 1.4294-.1478.5639-.2002 1.0145-.1164 1.3634.0782.3253.2812.5881.7276.7747.4629.1934 1.1796.3 2.2558.2803.6476-.016 1.488.0188 2.3906.0562.2358.0098.4758.0197.7177.0289 1.1768.045 2.407.0744 3.4629-.0042.5277-.0393 1.0049-.1051 1.4059-.2068.4039-.1025.7125-.2369.9182-.4021.1978-.1587.2992-.3431.3076-.5724.009-.2419-.0846-.5664-.3534-.9944l-.0004-.0007c-.4324-.6935-.9234-1.704-1.4457-2.8152-.118-.2509-.2377-.5073-.3589-.767-.4184-.896-.8549-1.831-1.3009-2.7158-.5761-1.1426-1.1607-2.1864-1.7317-2.9418-.2855-.3777-.5606-.6738-.8214-.8734-.262-.2005-.4898-.2887-.6865-.2887-.5231 0-1.0266.2907-1.5161.831-.4883.5391-.9347 1.2969-1.3404 2.1581-.6586 1.3983-1.1896 3.0226-1.619 4.336z" fill="#000" fill-rule="evenodd"/><path d="m57.9961 28.4038c.4837 1.7572.2419 3.5943.9675 5.3515.2419.5591.1612-.1598.1612-.3195 0-1.0384 0-2.0767-.1612-3.1151-.0806-.3993-.3225-1.198-.1613-1.5974.0807-.1597.8869 1.1981.8869 1.278.4837 1.1182.645 2.5559.2419 3.6741" fill="#ee5f54"/><path clip-rule="evenodd" d="m57.9314 28.1636c.1339-.0362.272.0421.3086.1747.2138.7766.2899 1.5692.3638 2.3392.0121.1264.0242.2522.0368.3773.0535.5293.1167 1.0488.2313 1.5591-.0082-.7565-.0391-1.5039-.1545-2.2497-.0117-.0576-.0293-.1335-.0494-.22-.0398-.1717-.0893-.3852-.1223-.5812-.0263-.1565-.046-.3203-.0475-.4755-.0014-.1525.0146-.314.0722-.4566.0026-.0065.0054-.0128.0085-.0189.0201-.0397.0555-.086.1136-.1176.0585-.0318.1176-.0365.1635-.0312.0786.009.1358.049.1593.0663.0564.0417.1109.1028.1562.158.0962.1174.2108.2844.3179.4513.1084.1686.2141.3448.2933.485.0394.0699.0735.1329.0984.1827.0122.0245.0238.0489.0329.0709.0045.0108.0098.0245.0145.0393l.0001.0006c.0005.0017.0013.0042.0023.0074.4945 1.1566.6654 2.6496.2383 3.8345-.0467.1295-.1905.1969-.3213.1507-.1307-.0463-.1988-.1887-.1521-.3182.3764-1.0443.2296-2.4155-.2362-3.4923-.0054-.0125-.0098-.0254-.013-.0385-.0033-.0073-.0084-.0183-.0161-.0336-.0195-.0392-.0491-.094-.0865-.1603-.0745-.1318-.1753-.3-.2786-.4609-.0152-.0236-.0304-.047-.0454-.0699.006.0472.0133.0956.0216.1449.0315.1873.0716.359.1086.517.0225.0962.0438.1873.0612.2738l.0022.011h-.0002c.1642 1.0572.1642 2.1115.1642 3.1439v.009c0 .0202.0016.0511.0039.0938.0014.0258.003.056.0046.0906.0038.0804.0072.1819.0008.264-.0028.0364-.0091.0952-.0311.1499-.0105.0261-.036.0813-.0938.125-.0737.0557-.1668.068-.2493.0408-.065-.0215-.1071-.0619-.1274-.0836-.0234-.0251-.0425-.0523-.0577-.0767-.0305-.0489-.0614-.1118-.0936-.1862l-.0017-.0038h.0001c-.3776-.9144-.501-1.844-.5919-2.7453-.0131-.1293-.0255-.2579-.0378-.3858-.0744-.772-.1462-1.5173-.3477-2.2491-.0365-.1327.0424-.2696.1764-.3058z" fill="#000" fill-rule="evenodd"/><path d="m59.5295 35.9914c-.1613 1.278 1.3706 1.278 1.3706.2397 0-.7988-1.1288-.4793-1.2094-.0799-.0806.7188 1.29-.7189.7256-.5591-.3225.0799-.7256.639-.7256.5591" fill="#ee5f54"/><path clip-rule="evenodd" d="m59.8958 36.5897c.074.087.1741.1334.2787.142.2213.0183.4736-.1321.4736-.5007 0-.0978-.0228-.1494-.0462-.1783-.0594.073-.1268.1446-.1934.208-.0726.0692-.1517.1358-.2308.1909-.0758.0529-.1658.1053-.2588.1321-.0071.002-.0148.0041-.0231.006zm.9037-1.0094c.0235.0127.0465.027.0688.0428.1857.132.2824.345.2824.6079 0 .6698-.5136 1.0386-1.0179.997-.2493-.0206-.494-.1416-.6606-.3668-.1668-.2256-.2392-.5328-.1928-.9007.0172-.1364.1428-.2332.2806-.2162.0312.0039.0604.0133.0867.0271.0425-.0382.0877-.0712.1317-.0988.0478-.0301.0994-.0572.1534-.0809.0269-.0225.0545-.0447.0827-.0658.092-.0691.2083-.1418.336-.1744.0481-.0133.1068-.0245.1682-.0199.0659.005.1613.0316.2274.1211.0316.0428.0469.0874.0534.1276z" fill="#000" fill-rule="evenodd"/><path d="m21.974 1c-2.4986-.000021-4.0603 5.56946-4.9973 8.3542-.9369 2.7847-1.855 4.721 2.4987 4.6412 3.2249-.0799 11.3149 1.1189 9.0574-2.4754-1.6931-2.71562-4.3725-10.51998-6.5588-10.52z" fill="#ee5f54"/><path clip-rule="evenodd" d="m20.0831 1.74739c.5353-.59092 1.164-.99642 1.8902-.996413.3499.000003.6841.155677.9937.392593.3108.23781.617.57271.9166.96903.5992.7928 1.2002 1.86981 1.7789 3.01777.4498.8922.8907 1.83644 1.3095 2.73357.1207.25855.2396.51318.3563.76153.5246 1.11594 1.0035 2.09933 1.4177 2.76373l-.2138.1308.2134-.1315c.2955.4705.443.8949.429 1.2756-.0145.3935-.2.7057-.4936.9412-.2856.2292-.6729.3867-1.11.4976-.4399.1116-.9488.1805-1.4928.2209-1.0875.081-2.3434.0503-3.52.0053-.2479-.0095-.4919-.0196-.7302-.0294-.9004-.0372-1.7178-.071-2.347-.0555l-.0016.0001c-1.1003.0202-1.9012-.0854-2.4613-.3195-.5766-.241-.9018-.6213-1.0212-1.1182-.1138-.4733-.0331-1.0239.1188-1.6038.1188-.4537.2894-.9525.4683-1.47561.0508-.14878.1024-.29953.1536-.45176l.2374.07837-.2374-.07837c.0867-.25759.1792-.54063.2777-.84208.4292-1.31349.9726-2.9764 1.646-4.40586.4142-.87926.8853-1.68786 1.4218-2.2801zm-2.5853 6.82664c-.0998.30535-.1942.59389-.2833.85887-.0535.15906-.1066.31426-.1584.46569-.1776.51961-.3401.99491-.4539 1.42931-.1477.5639-.2001 1.0146-.1163 1.3634.0782.3254.2812.5881.7276.7747.4629.1935 1.1796.3001 2.2557.2804.6476-.016 1.4881.0188 2.3907.0562.2358.0097.4758.0196.7177.0289 1.1767.045 2.4069.0744 3.4629-.0042.5277-.0393 1.0048-.1051 1.4059-.2068.4039-.1025.7124-.237.9182-.4021.1978-.1587.2992-.3432.3076-.5724.0089-.242-.0846-.5665-.3534-.9945l-.0005-.0007c-.4323-.6935-.9233-1.70395-1.4456-2.8151-.118-.25096-.2377-.50735-.3589-.76701-.4184-.89606-.8549-1.83099-1.301-2.71581-.576-1.1426-1.1606-2.18641-1.7316-2.9418-.2856-.37777-.5606-.6738-.8215-.87341-.262-.2005-.4898-.28871-.6864-.28871-.5231-.00001-1.0266.29067-1.5161.83104-.4883.53906-.9347 1.29687-1.3404 2.15808-.6587 1.3983-1.1897 3.02259-1.619 4.33595z" fill="#000" fill-rule="evenodd"/><path d="m21.1055 2.99268c.4837 1.75719.2419 3.59425.9675 5.35144.2418.55911.1612-.15974.1612-.31949 0-1.03834 0-2.07668-.1612-3.11502-.0807-.39936-.3225-1.19808-.1613-1.59744.0806-.15975.8869 1.19808.8869 1.27795.4837 1.11822.645 2.55592.2419 3.67413" fill="#ee5f54"/><path clip-rule="evenodd" d="m21.0407 2.75249c.134-.03618.2721.04203.3086.1747.2138.77657.2899 1.56921.3639 2.33916.0121.12643.0242.25226.0368.3773.0534.52935.1167 1.04881.2313 1.55913-.0083-.75652-.0391-1.50388-.1545-2.24967-.0118-.05768-.0293-.13354-.0494-.22001-.0398-.17169-.0893-.38519-.1223-.58125-.0263-.15644-.0461-.32025-.0475-.47547-.0014-.15251.0146-.31403.0721-.45666.0026-.00641.0055-.0127.0086-.01888.0201-.03972.0554-.08599.1136-.11758.0585-.03178.1176-.03652.1635-.03124.0786.00905.1357.049.1592.06638.0565.0417.111.10272.1562.15793.0963.11747.2108.28446.318.45131.1083.16863.2141.34488.2933.48507.0394.06982.0735.13286.0983.18263.0123.0245.0239.04896.033.07096.0045.01081.0098.02449.0144.03931l.0002.00055c.0005.00168.0013.00418.0022.00739.4946 1.15665.6655 2.64961.2383 3.83447-.0466.1295-.1905.19699-.3212.15074s-.1988-.18872-.1521-.31823c.3764-1.04422.2296-2.41548-.2362-3.4923-.0054-.01247-.0098-.02534-.013-.03845-.0033-.0073-.0085-.01835-.0161-.03361-.0196-.03916-.0491-.09405-.0865-.16026-.0745-.13187-.1753-.30007-.2787-.46092-.0152-.02366-.0303-.047-.0454-.06991.0061.04718.0134.09561.0216.1449.0315.18726.0717.35894.1087.51702.0224.09616.0437.18728.0612.27381l.0022.01093-.0002.00004c.1641 1.05716.1641 2.11145.1641 3.14385v.00903c0 .02019.0017.05112.004.09378.0014.02585.003.056.0046.09068.0037.08037.0072.18189.0008.26395-.0028.03636-.0091.09516-.0311.14993-.0105.02605-.036.08126-.0938.12494-.0737.05568-.1668.06807-.2493.04084-.065-.02147-.1071-.06187-.1274-.08358-.0235-.0251-.0425-.05238-.0577-.07671-.0306-.04893-.0615-.11185-.0936-.18626l-.0017-.00379v-.00001c-.3775-.91437-.5009-1.84396-.5919-2.74523-.013-.12937-.0254-.25795-.0377-.3858-.0744-.77203-.1462-1.51728-.3477-2.24918-.0365-.13267.0424-.26955.1763-.30573z" fill="#000" fill-rule="evenodd"/><path d="m22.6388 10.5808c-.1612 1.278 1.3707 1.278 1.3707.2396 0-.7987-1.1288-.4792-1.2094-.0799-.0806.7189 1.29-.7188.7256-.5591-.3225.0799-.7256.639-.7256.5591" fill="#ee5f54"/><path clip-rule="evenodd" d="m23.0052 11.1791c.074.0869.174.1333.2787.142.2212.0182.4736-.1321.4736-.5007 0-.0978-.0228-.1495-.0462-.1783-.0595.0729-.1268.1445-.1935.208-.0725.0691-.1517.1358-.2308.1909-.0757.0528-.1658.1053-.2587.132-.0071.0021-.0149.0041-.0231.0061zm.9037-1.0094c.0235.0127.0465.0269.0688.0428.1857.132.2824.345.2824.6079 0 .6697-.5136 1.0386-1.018.9969-.2493-.0206-.4939-.1415-.6605-.3668-.1669-.2255-.2392-.5327-.1928-.9006.0172-.1365.1428-.2333.2806-.2162.0312.0039.0604.0133.0866.0271.0426-.0383.0878-.0712.1318-.0989.0478-.03.0994-.0572.1534-.0808.0268-.0226.0545-.0447.0826-.0659.0921-.0691.2084-.14172.3361-.1743.048-.01333.1067-.02454.1682-.01992.0658.00496.1613.03155.2274.12112.0316.0428.0469.0873.0534.1276z" fill="#000" fill-rule="evenodd"/></svg>