<svg fill="none" height="141" viewBox="0 0 252 141" width="252" xmlns="http://www.w3.org/2000/svg" xmlns:xlink="http://www.w3.org/1999/xlink"><radialGradient id="a" cx="0" cy="0" gradientTransform="matrix(0 23.943 -96.2621 0 135.725 116.116)" gradientUnits="userSpaceOnUse" r="1"><stop offset="0" stop-color="#c4c4c4"/><stop offset="1" stop-color="#c4c4c4" stop-opacity="0"/></radialGradient><linearGradient id="b"><stop offset="0" stop-color="#f6b4e2"/><stop offset="1" stop-color="#f5b1e1" stop-opacity="0"/></linearGradient><linearGradient id="c" gradientUnits="userSpaceOnUse" x1="235.515" x2="245.173" xlink:href="#b" y1="90.7547" y2="78.111"/><linearGradient id="d"><stop offset=".3" stop-color="#f4aee0"/><stop offset=".98" stop-color="#f6b3e2" stop-opacity="0"/></linearGradient><linearGradient id="e" gradientUnits="userSpaceOnUse" x1="235.964" x2="245.902" xlink:href="#d" y1="91.3215" y2="78.3144"/><linearGradient id="f" gradientUnits="userSpaceOnUse" x1="235.553" x2="255.458" y1="89.1773" y2="69.5386"><stop offset=".12" stop-color="#feb7d5"/><stop offset=".6" stop-color="#feb7d5" stop-opacity="0"/></linearGradient><linearGradient id="g"><stop offset=".21" stop-color="#ffc5a1"/><stop offset=".85" stop-color="#ffc5a1" stop-opacity="0"/></linearGradient><linearGradient id="h" gradientUnits="userSpaceOnUse" x1="239.129" x2="246.986" xlink:href="#g" y1="92.346" y2="87.5664"/><linearGradient id="i"><stop offset=".44" stop-color="#70ffd6"/><stop offset=".77" stop-color="#70ffd6" stop-opacity="0"/></linearGradient><linearGradient id="j" gradientUnits="userSpaceOnUse" x1="237.391" x2="254.319" xlink:href="#i" y1="106.082" y2="95.629"/><linearGradient id="k"><stop offset=".18" stop-color="#bbecd8"/><stop offset=".71" stop-color="#bbecd8" stop-opacity="0"/></linearGradient><linearGradient id="l" gradientUnits="userSpaceOnUse" x1="233.553" x2="254.497" xlink:href="#k" y1="109.41" y2="89.6983"/><linearGradient id="m"><stop offset=".26" stop-color="#9ebcfd"/><stop offset=".88" stop-color="#fff" stop-opacity="0"/></linearGradient><linearGradient id="n" gradientUnits="userSpaceOnUse" x1="198.389" x2="199.529" xlink:href="#m" y1="90.9522" y2="81.4115"/><linearGradient id="o"><stop offset=".37" stop-color="#9ebcfd"/><stop offset="1" stop-color="#fff" stop-opacity="0"/></linearGradient><linearGradient id="p" gradientUnits="userSpaceOnUse" x1="197.679" x2="197.679" xlink:href="#o" y1="91.0828" y2="83.0288"/><linearGradient id="q" gradientUnits="userSpaceOnUse" x1="193.98" x2="205.423" y1="90.3236" y2="80.3645"><stop offset=".32" stop-color="#9ebcfd"/><stop offset=".6" stop-color="#9ebcfd" stop-opacity="0"/></linearGradient><linearGradient id="r"><stop offset="0" stop-color="#b1a7cb"/><stop offset="1" stop-color="#b1a6cd"/></linearGradient><linearGradient id="s" gradientUnits="userSpaceOnUse" x1="194.568" x2="201.675" xlink:href="#r" y1="47.9176" y2="47.9176"/><linearGradient id="t"><stop offset=".08" stop-color="#b1a6cc"/><stop offset=".85" stop-color="#fff" stop-opacity="0"/></linearGradient><linearGradient id="u" gradientUnits="userSpaceOnUse" x1="198.65" x2="198.537" xlink:href="#t" y1="50.5424" y2="37.5209"/><linearGradient id="v"><stop offset=".5" stop-color="#b1a6cc"/><stop offset=".79" stop-color="#fff" stop-opacity="0"/></linearGradient><linearGradient id="w" gradientUnits="userSpaceOnUse" x1="195.463" x2="205.198" xlink:href="#v" y1="55.1381" y2="36.6675"/><linearGradient id="x" gradientUnits="userSpaceOnUse" x1="189.945" x2="206.872" xlink:href="#i" y1="62.2848" y2="51.8321"/><linearGradient id="y" gradientUnits="userSpaceOnUse" x1="186.107" x2="207.051" xlink:href="#k" y1="65.6127" y2="45.9014"/><linearGradient id="z"><stop offset=".21" stop-color="#efe59c"/><stop offset=".85" stop-color="#efe59c" stop-opacity="0"/></linearGradient><linearGradient id="A" gradientUnits="userSpaceOnUse" x1="191.331" x2="191.331" xlink:href="#z" y1="86.8465" y2="76.7337"/><linearGradient id="B"><stop offset=".44" stop-color="#ffc5a1"/><stop offset=".91" stop-color="#ffc5a1" stop-opacity="0"/></linearGradient><linearGradient id="C" gradientUnits="userSpaceOnUse" x1="184.538" x2="185.289" xlink:href="#B" y1="21.6907" y2="12.7328"/><linearGradient id="D" gradientUnits="userSpaceOnUse" x1="188.456" x2="182.586" xlink:href="#g" y1="20.4787" y2="13.3997"/><linearGradient id="E" gradientUnits="userSpaceOnUse" x1="125.693" x2="134.383" xlink:href="#k" y1="78.983" y2="49.118"/><linearGradient id="F" gradientUnits="userSpaceOnUse" x1="126.776" x2="137.303" xlink:href="#i" y1="74.3527" y2="54.3787"/><linearGradient id="G" gradientUnits="userSpaceOnUse" x1="127.788" x2="144.139" y1="68.6475" y2="54.4201"><stop offset=".4" stop-color="#bbecd8"/><stop offset="1" stop-color="#bbecd8" stop-opacity="0"/></linearGradient><linearGradient id="H" gradientUnits="userSpaceOnUse" x1="124.269" x2="127.124" xlink:href="#z" y1="108.793" y2="103.35"/><linearGradient id="I" gradientUnits="userSpaceOnUse" x1="130.837" x2="124.368" xlink:href="#z" y1="110.999" y2="103.198"/><linearGradient id="J" gradientUnits="userSpaceOnUse" x1="112.017" x2="113.228" xlink:href="#g" y1="120.31" y2="111.193"/><linearGradient id="K" gradientUnits="userSpaceOnUse" x1="110.311" x2="107.349" xlink:href="#b" y1="67.2334" y2="53.2097"/><linearGradient id="L" gradientUnits="userSpaceOnUse" x1="111.429" x2="108.375" xlink:href="#d" y1="67.1614" y2="52.7067"/><linearGradient id="M" gradientUnits="userSpaceOnUse" x1="100.075" x2="109.81" xlink:href="#v" y1="108.521" y2="90.05"/><linearGradient id="N" gradientUnits="userSpaceOnUse" x1="103.277" x2="103.158" xlink:href="#t" y1="104.763" y2="91.0188"/><linearGradient id="O" gradientUnits="userSpaceOnUse" x1="99.5141" x2="102.805" xlink:href="#r" y1="101.451" y2="101.451"/><linearGradient id="P" gradientUnits="userSpaceOnUse" x1="110.32" x2="115.996" xlink:href="#z" y1="121.99" y2="119.63"/><linearGradient id="Q" gradientUnits="userSpaceOnUse" x1="73.3735" x2="76.4859" xlink:href="#z" y1="94.5139" y2="88.5873"/><linearGradient id="R" gradientUnits="userSpaceOnUse" x1="78.9196" x2="77.0017" xlink:href="#z" y1="97.64" y2="88.9901"/><linearGradient id="S" gradientUnits="userSpaceOnUse" x1="83.152" x2="89.446" xlink:href="#B" y1="10.2877" y2="3.87481"/><linearGradient id="T" gradientUnits="userSpaceOnUse" x1="86.7985" x2="86.7985" xlink:href="#g" y1="11.8052" y2="2.6311"/><linearGradient id="U" gradientUnits="userSpaceOnUse" x1="82.8031" x2="94.848" y1="10.812" y2=".329702"><stop offset=".32" stop-color="#ffc5a1"/><stop offset="1"/></linearGradient><linearGradient id="V" gradientUnits="userSpaceOnUse" x1="83.2177" x2="77.0984" xlink:href="#m" y1="26.5225" y2="19.1047"/><linearGradient id="W" gradientUnits="userSpaceOnUse" x1="82.8078" x2="76.9756" xlink:href="#o" y1="27.1432" y2="21.5756"/><linearGradient id="X" gradientUnits="userSpaceOnUse" x1="61.6517" x2="69.2002" xlink:href="#z" y1="12.6296" y2="5.89976"/><path clip-rule="evenodd" d="m85.3128 95.6991v9.9149h5.7027v-10.7234c1.1276-.1474 2.2683-.2894 3.4217-.4259v4.3064l1.3686 2.2809h6.1592v-7.3817c1.8-.1677 3.625-.3224 5.474-.4637v7.8454l1.141 1.597h6.615v-9.9472c.908-.049 1.82-.0949 2.737-.1375v3.4695l1.597 2.7373 6.159-1.1406v-5.3459c2.11-.0544 4.239-.0918 6.387-.1117v6.5982l2.053 2.2809h5.703v-8.8747c1.223.0128 2.439.0313 3.65.0553v14.9784l2.281 1.825h5.931v-16.552c1.843.0765 3.668.1661 5.474.2683v14.4587l2.738 3.422h6.158v-17.2632c1.929.1592 3.831.3332 5.703.5214v11.7228l1.597 1.597h5.475v-12.5244c1.231.1538 2.448.3139 3.649.4803v7.4821l1.597 1.369h6.387v-7.614c1.317.2269 2.61.4618 3.878.7044v5.5406l2.737 2.965 5.475-1.596.238-5.0906c18.003 4.3526 29.188 10.4416 29.188 17.1796 0 13.228-43.098 23.952-96.262 23.952-53.1641 0-96.2621-10.724-96.2621-23.952 0-8.629 18.3398-16.1919 45.8499-20.4079zm-20.986 16.9869 2.2811 11.177 5.2465-1.597 2.5092 4.106v-4.106l4.7903 1.597z" fill="url(#a)" fill-opacity=".2" fill-rule="evenodd"/><path d="m70.4858 7.75586h67.5203v42.8845h-67.5203z" fill="#f9fafc"/><path d="m149.411 25.0921c7.665-15.14645 21.899-12.6981 28.058-9.5806 2.737 2.2811 8.531 8.7593 9.809 16.4238 1.277 7.6645-5.399 16.2718-8.897 19.6174-.684-.6843-.457-1.4239-.912-.9124-3.65 4.1059-12.394 4.0299-16.88 3.1935-6.92-3.2696-18.842-13.5953-11.178-28.7417z" fill="#fdfdfd"/><path d="m168.801 36.4975-11.177-20.5298c1.064-1.2927 6.432-3.0567 11.177-2.5093 4.745.5475 7.071.9125 8.668 1.3687z" fill="#f3f5f8"/><path d="m168.344 35.5851-10.949-19.3893c-10.949 7.482-8.972 21.8224-6.615 28.0574z" fill="#f7f8fa"/><path d="m227.881 13.9146-23.952 8.6681 3.422-4.3341-5.247-2.053z" fill="#fae9df"/><path d="m64.7832 112.914 8.8963 8.668v3.535c.0515.421.0383.853 0 1.256v-1.256c-.1528-1.247-.8742-2.394-3.1936-2.394-3.1023 0-4.258.684-4.334 1.597z" fill="#fae9df"/><g clip-rule="evenodd" fill-rule="evenodd"><path d="m89.1436 79.1826c.1101-.0612.249-.0214.3101.0887.7769 1.3996 1.6055 2.747 2.4504 4.1114.0663.1071.0333.2477-.0738.314s-.2477.0333-.3141-.0738c-.8447-1.3641-1.6786-2.72-2.4614-4.1302-.0611-.1101-.0214-.249.0888-.3101z" fill="#000"/><path d="m82.9231 102.724c.1038-.071.2458-.045.3172.059.3738.544.6509.98.9085 1.387.4635.73.8639 1.362 1.6512 2.336.0792.098.0639.242-.0341.321s-.2416.064-.3208-.034c-.8017-.993-1.2243-1.658-1.6981-2.404-.2565-.404-.528-.832-.8826-1.348-.0714-.103-.0452-.245.0587-.317z" fill="#000"/><path d="m82.9496 79.1973c.1021-.0739.2447-.051.3185.051.2865.3959.5656.7957.8438 1.1943.6513.9331 1.2984 1.8601 2.0264 2.7164.0816.096.0699.24-.026.3216-.096.0816-.24.0699-.3216-.0261-.7427-.8736-1.41-1.8294-2.0668-2.7704-.2754-.3944-.5489-.7863-.8254-1.1683-.0738-.1021-.051-.2447.0511-.3185z" fill="#000"/><path d="m91.9284 82.0228c0 .126-.1021.2281-.2281.2281-.8413 0-1.7547.0044-2.6597.0088-1.7881.0087-3.5435.0172-4.6454-.0088-.1259-.003-.2256-.1075-.2226-.2335.0029-.1259.1075-.2256.2334-.2226 1.0955.0258 2.8383.0174 4.6215.0087.9071-.0044 1.8247-.0088 2.6728-.0088.126 0 .2281.1021.2281.2281z" fill="#000"/><path d="m92.3829 105.596c.0105.125-.0828.235-.2084.246-2.7468.229-5.9654.229-7.7715.229h-.0029c-.0001 0 .0001 0 0 0-.1259 0-.2282-.102-.2283-.228-.0002-.126.1018-.228.2278-.228 1.8087 0 5.0107 0 7.737-.228.1256-.01.2358.083.2463.209z" fill="#000"/><path d="m91.0154 80.3924c-.0016.1259-.1049.2268-.2309.2253-1.8207-.0217-3.3737-.0155-5.1627-.0083-.9906.004-2.0537.0083-3.2746.0083-.126 0-.2281-.1021-.2281-.2281s.1021-.2281.2281-.2281c1.2165 0 2.2778-.0043 3.268-.0083 1.7917-.0072 3.3507-.0135 5.1748.0083.126.0016.2269.1049.2254.2309z" fill="#000"/><path d="m83.4879 78.9258c.126 0 .2281.1021.2281.2281v26.2321c0 .126-.1021.229-.2281.229s-.2281-.103-.2281-.229v-26.2321c0-.126.1021-.2281.2281-.2281zm1.5967 2.2811c.126 0 .2281.1021.2281.2281v25.548c0 .126-.1021.228-.2281.228-.1259 0-.2281-.102-.2281-.228v-25.548c0-.126.1022-.2281.2281-.2281zm5.9309 0c.126 0 .2281.1021.2281.2281v24.636c0 .126-.1021.228-.2281.228s-.2281-.102-.2281-.228v-24.636c0-.126.1021-.2281.2281-.2281z" fill="#000"/><path d="m100.093 68.6894c.11-.0611.249-.0214.31.0888.777 1.3995 1.606 2.7469 2.451 4.1113.066.1071.033.2477-.074.3141-.107.0663-.248.0332-.314-.0739-.845-1.3641-1.679-2.7199-2.461-4.1301-.0616-.1102-.0219-.249.088-.3102z" fill="#000"/><path d="m93.4061 97.4345c.1083-.0643.2483-.0286.3126.0797.3367.5673.5841 1.0217.8141 1.4441.4137.7599.7712 1.4167 1.4917 2.4417.0725.103.0477.245-.0554.318-.1031.072-.2453.047-.3178-.056-.7337-1.043-1.1111-1.7358-1.5341-2.5119-.229-.4201-.4713-.8648-.7908-1.403-.0643-.1083-.0287-.2483.0797-.3126z" fill="#000"/><path d="m93.4428 68.7041c.102-.0738.2446-.051.3185.0511.2865.3958.5655.7956.8438 1.1943.6513.933 1.2984 1.86 2.0264 2.7164.0816.096.0699.2399-.0261.3215s-.2399.07-.3215-.026c-.7427-.8737-1.41-1.8295-2.0669-2.7705-.2753-.3944-.5488-.7862-.8253-1.1683-.0739-.102-.051-.2446.0511-.3185z" fill="#000"/><path d="m102.649 71.9857c0 .126-.102.2281-.228.2281-.841 0-1.755.0044-2.6597.0088-1.7881.0087-3.5435.0172-4.6454-.0088-.1259-.003-.2256-.1075-.2226-.2335.0029-.1259.1075-.2256.2334-.2226 1.0955.0258 2.8383.0174 4.6216.0087.9067-.0044 1.8247-.0088 2.6727-.0088.126 0 .228.1021.228.2281z" fill="#000"/><path d="m103.333 101.261c.01.126-.083.236-.209.246-2.747.229-5.9652.229-7.7713.229h-.0029c-.0001 0 .0001 0 0 0-.1259 0-.2282-.102-.2283-.227-.0002-.126.1018-.229.2278-.229 1.8087 0 5.0107 0 7.7367-.227.126-.011.236.083.247.208z" fill="#000"/><path d="m102.421 70.1272c-.002.126-.105.2269-.231.2254-1.821-.0218-3.3739-.0155-5.1629-.0083-.9907.004-2.0537.0083-3.2746.0082-.126 0-.2281-.1021-.2281-.2281 0-.1259.1021-.2281.2281-.2281 1.2164.0001 2.2777-.0042 3.2679-.0082 1.7918-.0072 3.3506-.0135 5.1746.0083.126.0015.227.1049.226.2308z" fill="#000"/><path d="m94.2091 68.2046c.1259 0 .2281.1021.2281.2281v32.0483c0 .126-.1022.228-.2281.228-.126 0-.2281-.102-.2281-.228v-32.0483c0-.126.1021-.2281.2281-.2281zm7.7559 2.7373c.126 0 .228.1021.228.2281v30.223c0 .126-.102.228-.228.228s-.228-.102-.228-.228v-30.223c0-.126.102-.2281.228-.2281zm-5.9311.4562c.126 0 .2281.1021.2281.2281v30.6798c0 .126-.1021.228-.2281.228-.1259 0-.2281-.102-.2281-.228v-30.6798c0-.126.1022-.2281.2281-.2281z" fill="#000"/><path d="m112.455 65.0795c.088-.0901.232-.0917.322-.0036 1.145 1.1192 2.324 2.1736 3.523 3.2396.095.0837.103.2279.019.3221-.083.0941-.227.1026-.322.019-1.199-1.0658-2.386-2.1269-3.539-3.2546-.09-.088-.091-.2325-.003-.3225z" fill="#000"/><path d="m106.733 99.9388c.093-.0849.237-.0782.322.0148.445.4874.779.8824 1.089 1.2494.559.661 1.042 1.231 1.955 2.089.092.087.097.231.01.323-.086.092-.23.096-.322.01-.93-.874-1.439-1.476-2.011-2.15-.309-.365-.636-.751-1.058-1.214-.085-.093-.078-.237.015-.3222z" fill="#000"/><path d="m106.497 65.0776c.09-.089.234-.089.323.0001.346.3455.684.6961 1.022 1.0457.791.8183 1.577 1.6312 2.431 2.3616.096.0819.107.2258.025.3216s-.226.107-.322.0252c-.871-.7452-1.681-1.5834-2.479-2.4086-.334-.3459-.666-.6895-1-1.023-.089-.089-.089-.2335 0-.3226z" fill="#000"/><path d="m115.88 67.8797c0 .126-.103.2281-.229.2281-.841.0001-1.754.0045-2.659.0089-1.788.0086-3.544.0171-4.646-.0089-.126-.003-.225-.1075-.222-.2334.003-.126.107-.2257.233-.2227 1.096.0259 2.838.0174 4.622.0088.907-.0044 1.824-.0089 2.672-.0089.126 0 .229.1021.229.2281z" fill="#000"/><path d="m116.332 102.52c.011.125-.083.236-.208.246-2.807.234-6.096.234-7.942.234h-.002c-.001 0 0 0 0 0-.126 0-.229-.102-.229-.228s.102-.228.228-.228c1.848 0 5.121 0 7.907-.233.126-.01.236.083.246.209z" fill="#000"/><path d="m116.107 66.2493c-.001.126-.105.2269-.231.2254-1.82-.0218-3.373-.0155-5.162-.0083-.991.004-2.054.0082-3.275.0082-.126 0-.228-.1021-.228-.2281s.102-.2281.228-.2281c1.216 0 2.278-.0043 3.268-.0082 1.792-.0073 3.351-.0135 5.175.0083.126.0015.227.1048.225.2308z" fill="#000"/><path d="m107.439 64.5547c.126 0 .228.1021.228.2281v37.2952c0 .126-.102.228-.228.228s-.228-.102-.228-.228v-37.2952c0-.126.102-.2281.228-.2281zm1.825 2.9654c.126 0 .228.1021.228.2281v35.5848c0 .126-.102.228-.228.228s-.228-.102-.228-.228v-35.5848c0-.126.102-.2281.228-.2281zm5.931 0c.126 0 .228.1021.228.2281v36.1538c0 .126-.102.229-.228.229s-.228-.103-.228-.229v-36.1538c0-.126.102-.2281.228-.2281z" fill="#000"/><path d="m122.359 57.3387c.08-.0974.224-.1116.321-.0317 1.238 1.0149 2.505 1.9623 3.793 2.9195.101.0752.122.2181.047.3192s-.218.1221-.319.047c-1.288-.957-2.563-1.9103-3.81-2.933-.098-.0798-.112-.2236-.032-.321z" fill="#000"/><path d="m117.226 95.1488c.093-.0849.238-.0783.323.0148.444.4874.778.8823 1.089 1.2495.559.6605 1.042 1.2312 1.955 2.0892.092.0862.096.2306.01.3224s-.231.0963-.322.01c-.93-.8736-1.44-1.4753-2.011-2.1497-.309-.3651-.637-.7515-1.058-1.2139-.085-.0931-.079-.2374.014-.3223z" fill="#000"/><path d="m116.953 57.3274c.086-.092.23-.0968.322-.0108.357.3338.708.6728 1.057 1.0109.818.7912 1.63 1.5773 2.509 2.2786.098.0786.114.2221.035.3205-.078.0985-.222.1146-.32.036-.896-.7154-1.734-1.526-2.559-2.3239-.345-.3345-.689-.6667-1.033-.9888-.092-.0861-.097-.2304-.011-.3225z" fill="#000"/><path d="m126.829 60.1239c0 .126-.102.2281-.228.2281-.841 0-1.754.0044-2.66.0088-1.788.0087-3.543.0172-4.645-.0089-.126-.0029-.226-.1074-.223-.2334.003-.1259.108-.2256.234-.2226 1.095.0258 2.838.0174 4.621.0087.908-.0044 1.825-.0088 2.673-.0088.126 0 .228.1021.228.2281z" fill="#000"/><path d="m126.826 97.7293c.01.1255-.083.2358-.208.2462-2.807.234-6.096.234-7.942.234h-.003c-.126 0-.228-.1019-.228-.2277 0-.126.101-.2283.227-.2285 1.849 0 5.121-.0002 7.908-.2324.125-.0105.235.0828.246.2084z" fill="#000"/><path d="m126.145 58.2654c-.002.126-.105.2269-.231.2254-1.821-.0218-3.374-.0155-5.163-.0083-.99.004-2.053.0083-3.274.0082-.126 0-.229-.1021-.228-.2281 0-.126.102-.2281.228-.2281 1.216 0 2.277-.0042 3.268-.0082 1.791-.0072 3.35-.0135 5.174.0083.126.0015.227.1048.226.2308z" fill="#000"/><path d="m117.933 57.4829c.126 0 .228.1021.228.2281v39.5758c0 .126-.102.2282-.228.2282s-.228-.1022-.228-.2282v-39.5758c0-.126.102-.2281.228-.2281zm7.755 1.5968c.126 0 .229.1021.229.2281v39.8039c0 .126-.103.2281-.229.2281s-.228-.1021-.228-.2281v-39.8039c0-.126.102-.2281.228-.2281zm-5.93.4562c.126 0 .228.1021.228.2281v38.7786c0 .1259-.102.2281-.228.2281s-.229-.1022-.229-.2281v-38.7786c0-.126.103-.2281.229-.2281z" fill="#000"/><path d="m136.884 52.7852c.075-.1011.218-.1222.319-.0471 1.285.9545 2.596 1.8401 3.928 2.7345.105.0702.133.2119.063.3165s-.212.1325-.317.0623c-1.332-.8942-2.651-1.7853-3.946-2.7471-.101-.0751-.122-.218-.047-.3191z" fill="#000"/><path d="m131.369 98.3427c.094-.0849.238-.0783.323.0148.444.4874.778.8823 1.089 1.2494.559.6601 1.042 1.2311 1.955 2.0891.092.086.096.231.01.323-.086.091-.23.096-.322.01-.93-.874-1.44-1.476-2.011-2.1502-.309-.365-.637-.7515-1.058-1.2139-.085-.0931-.079-.2373.014-.3222z" fill="#000"/><path d="m130.932 52.7905c.072-.1031.214-.128.317-.0556.4.2808.794.5677 1.188.8538.92.6697 1.833 1.3351 2.801 1.9072.108.0642.144.2041.08.3125s-.204.1443-.312.0802c-.987-.5837-1.93-1.2697-2.858-1.9451-.388-.2831-.775-.5643-1.161-.8353-.103-.0724-.128-.2146-.055-.3177z" fill="#000"/><path d="m140.972 55.1058c0 .126-.102.2281-.228.2281-.841 0-1.754.0044-2.659.0088-1.789.0087-3.544.0172-4.646-.0088-.126-.003-.225-.1075-.222-.2334.002-.126.107-.2257.233-.2227 1.095.0258 2.838.0174 4.621.0088.908-.0044 1.825-.0089 2.673-.0089.126 0 .228.1021.228.2281z" fill="#000"/><path d="m140.969 100.923c.01.126-.083.236-.208.246-2.807.234-6.096.234-7.942.234h-.003c-.125 0-.228-.102-.228-.227 0-.126.102-.229.228-.229 1.848 0 5.12 0 7.907-.232.125-.011.236.083.246.208z" fill="#000"/><path d="m139.832 53.4754c-.002.1259-.105.2268-.231.2253-1.821-.0217-3.374-.0155-5.163-.0083-.99.004-2.053.0083-3.274.0083-.126 0-.228-.1021-.228-.2281s.102-.2281.228-.2281c1.216 0 2.277-.0043 3.268-.0083 1.791-.0072 3.35-.0135 5.174.0084.126.0015.227.1048.226.2308z" fill="#000"/><path d="m132.076 52.2368c.126 0 .228.1021.228.2281v48.0161c0 .126-.102.228-.228.228s-.228-.102-.228-.228v-48.0161c0-.126.102-.2281.228-.2281zm1.825 1.8249c.126 0 .228.1021.228.2281v47.4462c0 .126-.102.229-.228.229s-.228-.103-.228-.229v-47.4462c0-.126.102-.2281.228-.2281zm5.93 0c.126 0 .229.1021.229.2281v48.0162c0 .126-.103.228-.229.228s-.228-.102-.228-.228v-48.0162c0-.126.102-.2281.228-.2281z" fill="#000"/><path d="m142.657 56.4618c.06-.1106.199-.1514.31-.0911.429.2339.853.4746 1.275.7145.99.5617 1.973 1.1197 2.999 1.5791.115.0515.166.1865.115.3014-.052.115-.187.1665-.302.115-1.046-.4687-2.06-1.044-3.058-1.6104-.418-.2375-.834-.4733-1.248-.6991-.11-.0603-.151-.1988-.091-.3094z" fill="#000"/><path d="m142.369 106.655c.076-.1.219-.12.32-.045.39.295.774.595 1.157.894.897.701 1.788 1.397 2.735 2.002.106.067.137.209.07.315-.068.106-.209.137-.315.069-.967-.617-1.885-1.334-2.79-2.041-.379-.296-.755-.59-1.132-.874-.1-.076-.12-.219-.045-.32z" fill="#000"/><path d="m148.588 56.0052c.06-.1106.199-.1514.309-.0911.429.234.853.4746 1.276.7146.99.5617 1.973 1.1197 2.999 1.5791.115.0515.166.1864.115.3014-.052.115-.187.1664-.302.1149-1.046-.4686-2.06-1.044-3.058-1.6104-.419-.2374-.834-.4733-1.248-.699-.111-.0603-.152-.1989-.091-.3095z" fill="#000"/><path d="m152.834 58.2992c0 .1259-.102.2281-.228.2281-.841 0-1.755.0044-2.66.0088-1.788.0086-3.543.0172-4.645-.0089-.126-.0029-.226-.1074-.223-.2334.003-.1259.108-.2256.234-.2227 1.095.0259 2.838.0175 4.621.0088.907-.0044 1.825-.0088 2.673-.0088.126 0 .228.1021.228.2281z" fill="#000"/><path d="m152.831 108.678c.01.126-.083.236-.209.247-2.806.234-6.095.234-7.941.234h-.003c-.126 0-.228-.102-.228-.228-.001-.126.101-.228.227-.229 1.849 0 5.121 0 7.908-.232.125-.01.235.083.246.208z" fill="#000"/><path d="m151.694 56.6687c-.002.126-.105.2269-.231.2254-1.821-.0218-3.374-.0155-5.163-.0083-.991.004-2.054.0083-3.275.0083-.126-.0001-.228-.1022-.228-.2282 0-.1259.102-.2281.228-.2281 1.217.0001 2.278-.0042 3.268-.0082 1.792-.0072 3.351-.0135 5.175.0083.126.0015.227.1049.226.2308z" fill="#000"/><path d="m143.481 55.4302c.126 0 .228.1021.228.2281v52.3497c0 .126-.102.228-.228.228s-.228-.102-.228-.228v-52.3497c0-.126.102-.2281.228-.2281zm8.668.6843c.126 0 .228.1021.228.2281v52.8064c0 .126-.102.228-.228.228s-.228-.102-.228-.228v-52.8064c0-.126.102-.2281.228-.2281zm-6.387 1.3687c.126 0 .228.1021.228.2281v51.7807c0 .126-.102.228-.228.228s-.228-.102-.228-.228v-51.7807c0-.126.102-.2281.228-.2281z" fill="#000"/><path d="m162.225 63.0756c.061-.1102.2-.15.31-.0889 1.4.7764 2.816 1.4811 4.255 2.1916.113.0558.159.1926.103.3055-.055.113-.192.1593-.305.1036-1.439-.7104-2.864-1.4195-4.274-2.2017-.11-.0611-.15-.2-.089-.3101z" fill="#000"/><path d="m156.548 107.681c.088-.091.233-.092.323-.004.472.461.828.835 1.16 1.184.596.627 1.111 1.169 2.072 1.972.097.081.11.225.029.322-.081.096-.225.109-.321.028-.979-.818-1.523-1.389-2.132-2.029-.33-.347-.679-.714-1.127-1.151-.09-.088-.092-.232-.004-.322z" fill="#000"/><path d="m156.717 63.3189c.053-.1145.188-.1646.303-.112.444.2041.883.4153 1.321.6259 1.026.4929 2.045.9825 3.099 1.3709.119.0435.179.1747.136.2929-.044.1182-.175.1788-.293.1352-1.076-.3962-2.127-.9011-3.161-1.3981-.434-.2083-.865-.4153-1.293-.6123-.114-.0526-.165-.188-.112-.3025z" fill="#000"/><path d="m168.362 65.1423c0 .126-.102.2282-.228.2282-1.081 0-2.254.0057-3.416.0113-2.295.0111-4.546.022-5.959-.0114-.126-.0029-.226-.1075-.223-.2334s.107-.2256.233-.2227c1.407.0333 3.646.0224 5.936.0113 1.164-.0056 2.341-.0113 3.429-.0114.126 0 .228.1022.228.2281z" fill="#000"/><path d="m167.146 110.381c.01.125-.083.235-.209.246-2.806.234-6.095.234-7.941.234h-.003c-.126 0-.228-.102-.228-.228s.102-.228.228-.228m8.153-.024c-.011-.126-.121-.219-.247-.209zm-.247-.209c-2.786.232-6.058.233-7.906.233z" fill="#000"/><path d="m165.836 63.512c-.002.126-.105.2269-.231.2254-1.821-.0218-3.374-.0156-5.163-.0083-.991.004-2.054.0082-3.274.0082-.126 0-.229-.1021-.229-.2281s.103-.2281.229-.2281c1.216 0 2.277-.0043 3.267-.0082 1.792-.0073 3.351-.0135 5.175.0083.126.0015.227.1048.226.2308z" fill="#000"/><path d="m157.396 62.2734c.126 0 .228.1022.228.2281v46.7625c0 .126-.102.228-.228.228s-.228-.102-.228-.228v-46.7625c0-.1259.102-.2281.228-.2281zm2.281 1.3687c.126 0 .228.1021.228.2281v47.9028c0 .126-.102.228-.228.228s-.228-.102-.228-.228v-47.9028c0-.126.102-.2281.228-.2281zm5.931.2281c.126 0 .228.1021.228.2281v47.6747c0 .126-.102.228-.228.228s-.228-.102-.228-.228v-47.6747c0-.126.102-.2281.228-.2281z" fill="#000"/><path d="m176.486 67.8512c.069-.1053.21-.1345.315-.0653 1.338.8795 2.697 1.6887 4.078 2.5055.109.0641.145.204.081.3124-.064.1085-.204.1444-.313.0803-1.381-.8166-2.749-1.6308-4.096-2.517-.105-.0692-.135-.2107-.065-.3159z" fill="#000"/><path d="m170.675 105.275c.078-.099.222-.115.32-.037.517.41.911.746 1.276 1.058.658.563 1.226 1.049 2.265 1.749.104.07.132.212.061.317-.07.104-.212.132-.316.061-1.058-.713-1.658-1.225-2.33-1.799-.363-.311-.748-.64-1.239-1.029-.099-.078-.115-.221-.037-.32z" fill="#000"/><path d="m170.936 68.3247c.06-.1109.198-.1523.309-.0926.43.2318.856.4704 1.28.7083.992.5567 1.978 1.1099 3.006 1.5642.115.0509.167.1856.116.3008s-.185.1674-.3.1165c-1.049-.4635-2.066-1.0339-3.067-1.5953-.419-.2354-.836-.4691-1.251-.6928-.111-.0598-.153-.1981-.093-.3091z" fill="#000"/><path d="m181.118 69.8016c0 .126-.102.2281-.228.2281-.841 0-1.754.0044-2.659.0088-1.789.0087-3.544.0172-4.646-.0088-.126-.003-.225-.1075-.222-.2334.002-.126.107-.2257.233-.2227 1.095.0259 2.838.0174 4.621.0088.908-.0044 1.825-.0089 2.673-.0089.126 0 .228.1021.228.2281z" fill="#000"/><path d="m180.659 107.192c.011.126-.082.236-.208.246-2.807.234-6.096.234-7.942.234h-.002c-.126 0-.229-.101-.229-.227s.102-.229.228-.229c1.848 0 5.121 0 7.907-.232.126-.011.236.083.246.208z" fill="#000"/><path d="m178.609 68.5305c-.001.126-.105.2269-.231.2254-1.82-.0218-3.373-.0155-5.162-.0083-.991.004-2.054.0083-3.275.0083-.126 0-.228-.1022-.228-.2281 0-.126.102-.2282.228-.2282 1.216.0001 2.278-.0042 3.268-.0082 1.792-.0072 3.351-.0135 5.175.0083.126.0015.227.1049.225.2308z" fill="#000"/><path d="m171.31 67.52c.126 0 .228.1021.228.2281v38.2069c0 .126-.102.228-.228.228s-.228-.102-.228-.228v-38.2069c0-.126.102-.2281.228-.2281zm8.212 0c.126 0 .228.1021.228.2281v40.1469c0 .126-.102.228-.228.228s-.228-.102-.228-.228v-40.1469c0-.126.102-.2281.228-.2281zm-5.931 1.3687c.126 0 .228.1021.228.2281v39.0062c0 .126-.102.229-.228.229s-.228-.103-.228-.229v-39.0062c0-.126.102-.2281.228-.2281z" fill="#000"/><path d="m181.531 71.0412c.071-.1041.213-.1308.317-.0598 1.322.9027 2.667 1.7355 4.034 2.5762.107.066.141.2065.075.3138s-.207.1408-.314.0748c-1.367-.8405-2.72-1.6785-4.052-2.588-.104-.0711-.131-.213-.06-.317z" fill="#000"/><path d="m181.627 102.025c.08-.097.224-.111.321-.031.51.419.897.762 1.257 1.08.648.574 1.208 1.07 2.234 1.788.103.073.129.215.056.318-.072.103-.214.128-.317.056-1.046-.731-1.636-1.254-2.298-1.84-.358-.317-.738-.652-1.221-1.05-.098-.08-.112-.223-.032-.321z" fill="#000"/><path d="m187.535 70.5775c.075-.1011.218-.1222.319-.047.392.2915.779.589 1.164.8857.901.6944 1.797 1.3842 2.749 1.9823.106.0671.138.2079.071.3146-.067.1066-.208.1387-.314.0717-.971-.6102-1.895-1.3215-2.804-2.0217-.381-.2936-.759-.5851-1.138-.8665-.101-.0751-.122-.218-.047-.3191z" fill="#000"/><path d="m191.612 72.8983c0 .126-.102.2281-.228.2281-.841 0-1.754.0044-2.659.0088-1.788.0087-3.544.0172-4.646-.0088-.126-.003-.225-.1075-.222-.2335.003-.1259.107-.2256.233-.2226 1.096.0258 2.838.0174 4.622.0087.907-.0044 1.824-.0088 2.672-.0088.126 0 .228.1021.228.2281z" fill="#000"/><path d="m191.839 103.999c.01.125-.083.235-.208.246-2.747.229-5.966.229-7.772.229h-.003c-.126 0-.228-.102-.228-.228s.102-.228.228-.229c1.808 0 5.01 0 7.737-.227.125-.01.235.083.246.209z" fill="#000"/><path d="m189.787 71.17c0 .126-.102.228-.228.228-1.672-.0009-3.099.0228-4.743.05-.91.0151-1.887.0312-3.01.045-.126.0015-.229-.0994-.23-.2253-.002-.126.099-.2294.225-.2309 1.117-.0137 2.092-.0298 3.002-.0449 1.647-.0273 3.08-.051 4.756-.0501.126 0 .229.1022.228.2282z" fill="#000"/><path d="m182.26 70.9419c.126 0 .228.1021.228.2281v32.048c0 .126-.102.228-.228.228s-.228-.102-.228-.228v-32.048c0-.126.102-.2281.228-.2281zm2.281 1.1405c.126 0 .228.1022.228.2281v32.7325c0 .126-.102.228-.228.228s-.228-.102-.228-.228v-32.7325c0-.1259.102-.2281.228-.2281zm5.931 0c.126 0 .228.1022.228.2281v32.1635c0 .126-.102.228-.228.228s-.228-.102-.228-.228v-32.1635c0-.1259.102-.2281.228-.2281z" fill="#000"/><path d="m198.835 84.7316c.069-.1055.21-.1352.315-.0664 1.341.8749 2.703 1.6794 4.087 2.4914.109.0637.145.2035.081.3121-.063.1087-.203.1451-.312.0814-1.384-.8118-2.754-1.6213-4.105-2.5028-.105-.0689-.135-.2102-.066-.3157z" fill="#000"/><path d="m193.019 102.339c.07-.105.212-.133.316-.063.549.367.968.67 1.357.952.701.507 1.307.946 2.399 1.56.11.062.149.201.087.311-.062.109-.201.148-.311.087-1.112-.626-1.751-1.088-2.467-1.606-.388-.28-.798-.577-1.318-.925-.105-.07-.133-.211-.063-.316z" fill="#000"/><path d="m193.82 85.1924c.066-.1072.207-.1403.314-.074.415.257.826.5204 1.235.7832.957.6149 1.908 1.2258 2.907 1.7406.112.0577.156.1953.099.3073-.058.1119-.196.156-.308.0983-1.019-.5252-2-1.1551-2.965-1.7752-.405-.26-.807-.5182-1.208-.7662-.107-.0663-.141-.2069-.074-.314z" fill="#000"/><path d="m203.929 87.0409c0 .1259-.102.2281-.228.2281-.841 0-1.754.0044-2.659.0088-1.789.0086-3.544.0171-4.646-.0089-.126-.0029-.225-.1074-.222-.2334.003-.1259.107-.2256.233-.2227 1.095.0259 2.838.0175 4.622.0088.907-.0044 1.824-.0088 2.672-.0088.126 0 .228.1021.228.2281z" fill="#000"/><path d="m204.387 104.455c.01.125-.083.235-.209.246-2.746.229-5.965.229-7.771.229h-.003c-.126 0-.228-.102-.228-.228s.102-.228.228-.228m7.983-.019c-.011-.126-.121-.219-.246-.209zm-.246-.209c-2.727.227-5.929.228-7.737.228z" fill="#000"/><path d="m201.877 85.4104c-.002.126-.105.2269-.231.2254-1.821-.0218-3.374-.0155-5.163-.0083-.991.004-2.054.0083-3.274.0083-.126-.0001-.229-.1022-.229-.2282 0-.1259.103-.2281.229-.2281 1.216.0001 2.277-.0042 3.267-.0082 1.792-.0072 3.351-.0135 5.175.0083.126.0015.227.1049.226.2308z" fill="#000"/><path d="m194.349 84.1719c.126 0 .228.1021.228.2281v19.845c0 .126-.102.229-.228.229s-.228-.103-.228-.229v-19.845c0-.126.102-.2281.228-.2281zm8.44 1.3686c.126 0 .228.1022.228.2281v19.8454c0 .126-.102.228-.228.228s-.228-.102-.228-.228v-19.8454c0-.1259.102-.2281.228-.2281zm-5.702.4562c.125 0 .228.1022.228.2282v20.0731c0 .126-.103.229-.228.229-.126 0-.229-.103-.229-.229v-20.0731c0-.126.103-.2282.229-.2282z" fill="#000"/><path d="m95.0685 69.1238c.122.0315.1955.1558.164.2778l-.9405 3.6498c-.0315.122-.1559.1954-.2778.1639-.122-.0314-.1955-.1558-.164-.2778l.9405-3.6497c.0315-.122.1559-.1954.2778-.164zm.7456 2.053c.122.0314.1954.1558.164.2778l-1.646 6.3871c-.0314.122-.1558.1954-.2778.1639-.122-.0314-.1954-.1558-.164-.2778l1.646-6.387c.0314-.122.1558-.1954.2778-.164zm.281 4.5622c.122.0314.1954.1558.164.2778l-1.7635 6.8433c-.0315.122-.1559.1954-.2779.1639-.122-.0314-.1954-.1558-.1639-.2778l1.7635-6.8432c.0314-.122.1558-.1955.2778-.164z" fill="#000"/><path d="m96.1447 81.3362c.122.0315.1954.1558.164.2778l-1.8786 7.2899c-.0315.1219-.1558.1954-.2778.1639-.122-.0314-.1954-.1558-.164-.2778l1.8786-7.2898c.0314-.122.1558-.1954.2778-.164zm-.1634 5.5803c.122.0315.1954.1558.1639.2778l-1.7151 6.6556c-.0315.122-.1558.1954-.2778.164-.122-.0315-.1954-.1558-.164-.2778l1.7152-6.6556c.0314-.122.1558-.1954.2778-.164zm.1634 5.0184c.122.0315.1954.1558.164.2778l-1.7635 6.8433c-.0315.122-.1559.1954-.2779.164-.122-.0315-.1954-.1558-.1639-.2778l1.7635-6.8433c.0314-.122.1558-.1954.2778-.164z" fill="#000"/><path d="m96.0915 97.0213c.122.0314.1954.1558.164.2778l-.8642 3.3539c-.0315.122-.1559.195-.2779.164-.1219-.032-.1954-.156-.1639-.278l.8642-3.3538c.0314-.1219.1558-.1954.2778-.1639z" fill="#000"/><path d="m108.209 66.3865c.122.0315.196.1558.164.2778l-.882 3.4217c-.031.122-.155.1954-.277.1639-.122-.0314-.196-.1558-.164-.2778l.881-3.4216c.032-.122.156-.1954.278-.164zm1.04.9125c.122.0314.195.1558.164.2778l-1.705 6.6151c-.032.122-.156.1954-.278.164s-.195-.1558-.164-.2778l1.705-6.6152c.031-.122.156-.1954.278-.1639zm0 5.6526c.122.0314.195.1558.164.2778l-1.705 6.6152c-.032.122-.156.1954-.278.1639-.122-.0314-.195-.1558-.164-.2778l1.705-6.6151c.031-.122.156-.1955.278-.164z" fill="#000"/><path d="m109.32 77.792c.122.031.196.1551.165.2772l-1.907 7.5276c-.031.1221-.155.196-.277.1651s-.196-.155-.165-.2771l1.907-7.5276c.031-.1222.155-.1961.277-.1652zm.082 5.2468c.122.0314.195.1558.164.2778l-1.823 7.0714c-.031.122-.155.1954-.277.164-.122-.0315-.196-.1558-.164-.2778l1.822-7.0714c.031-.122.156-.1954.278-.164zm-.189 6.3871c.122.0314.195.1558.164.2778l-1.799 6.9784c-.031.122-.156.1954-.278.164s-.195-.1558-.164-.2778l1.799-6.9785c.031-.122.156-.1954.278-.1639z" fill="#000"/><path d="m118.759 58.1746c.122.0314.195.1558.164.2778l-.823 3.1935c-.031.122-.156.1955-.278.164-.122-.0314-.195-.1558-.164-.2778l.823-3.1935c.032-.122.156-.1954.278-.164zm.922 1.3687c.122.0314.195.1558.164.2778l-1.745 6.7709c-.031.122-.156.1954-.278.164-.122-.0315-.195-.1559-.164-.2778l1.745-6.771c.032-.122.156-.1954.278-.1639zm.105 5.2465c.122.0314.195.1558.164.2778l-1.85 7.177c-.031.122-.156.1954-.278.164s-.195-.1558-.164-.2778l1.85-7.1771c.031-.122.156-.1954.278-.1639zm-10.55 30.3385c.122.0314.195.1558.164.2778l-1.411 5.4749c-.031.122-.156.195-.278.164-.122-.032-.195-.156-.164-.278l1.411-5.4748c.032-.1219.156-.1954.278-.1639zm.275 3.8778c.122.0315.196.1559.164.2779l-.764 2.965c-.031.122-.156.196-.278.164-.122-.031-.195-.155-.164-.277l.764-2.9659c.032-.122.156-.1954.278-.164z" fill="#000"/><path d="m119.676 71.8611c.122.0315.195.1558.164.2778l-1.881 7.2995c-.032.122-.156.1954-.278.164s-.195-.1558-.164-.2778l1.881-7.2995c.032-.122.156-.1954.278-.164zm.216 4.106c.122.0314.196.1558.164.2778l-1.881 7.2995c-.031.122-.155.1954-.277.164-.122-.0315-.196-.1559-.164-.2779l1.881-7.2994c.031-.122.155-.1954.277-.164zm-.13 6.1589c.122.0315.195.1559.164.2779l-1.646 6.387c-.031.122-.156.1954-.278.164-.122-.0315-.195-.1558-.164-.2778l1.646-6.3871c.032-.122.156-.1954.278-.164z" fill="#000"/><path d="m119.667 87.8289c.122.0314.196.1558.164.2778l-1.822 7.0714c-.032.122-.156.1954-.278.164-.122-.0315-.195-.1559-.164-.2779l1.822-7.0713c.032-.122.156-.1954.278-.164zm.099 4.5622c.122.0314.196.1558.164.2778l-.999 3.8779c-.032.1219-.156.1954-.278.1639-.122-.0314-.195-.1558-.164-.2778l.999-3.8778c.032-.122.156-.1955.278-.164z" fill="#000"/><path d="m84.5168 80.7576c.122.0314.1954.1558.164.2778l-1.1757 4.5622c-.0315.122-.1558.1954-.2778.164-.122-.0315-.1954-.1558-.164-.2778l1.1757-4.5622c.0314-.122.1558-.1954.2778-.164zm.7513 2.7373c.122.0315.1954.1558.1639.2778l-1.6459 6.3871c-.0315.122-.1558.1954-.2778.164-.122-.0315-.1954-.1559-.164-.2779l1.646-6.387c.0314-.122.1558-.1954.2778-.164z" fill="#000"/><path d="m85.1418 89.3201c.122.0314.1954.1558.164.2778l-1.6732 6.4925c-.0314.122-.1558.1954-.2778.164-.122-.0315-.1954-.1559-.1639-.2779l1.6731-6.4924c.0314-.122.1558-.1954.2778-.164zm.0718 4.6676c.1219.0314.1954.1558.1639.2778l-1.7449 6.7705c-.0314.122-.1558.196-.2778.164-.122-.031-.1954-.155-.1639-.277l1.7448-6.7713c.0315-.122.1559-.1954.2779-.164zm0 5.6526c.1219.0315.1954.1559.1639.2778l-1.1886 4.6119c-.0314.122-.1558.196-.2778.164-.122-.031-.1954-.155-.164-.277l1.1886-4.6127c.0315-.122.1559-.1954.2779-.164z" fill="#000"/><path d="m132.739 53.8406c.122.0315.195.1558.164.2778l-.882 3.4217c-.031.122-.156.1954-.278.1639-.122-.0314-.195-.1558-.164-.2778l.882-3.4216c.032-.122.156-.1954.278-.164zm1.039.9125c.122.0314.196.1558.164.2778l-1.646 6.387c-.031.122-.155.1954-.277.164s-.196-.1558-.164-.2778l1.646-6.3871c.031-.122.155-.1954.277-.1639zm.164 5.0184c.122.0314.195.1558.164.2778l-1.94 7.5276c-.031.122-.156.1954-.278.1639-.122-.0314-.195-.1558-.164-.2778l1.94-7.5276c.031-.122.156-.1954.278-.1639z" fill="#000"/><path d="m133.965 65.4744c.122.0314.195.1558.164.2778l-1.999 7.7557c-.032.122-.156.1954-.278.164s-.195-.1558-.164-.2778l1.999-7.7557c.031-.122.156-.1954.278-.164zm0 4.9461c.122.0314.195.1558.164.2778l-1.841 7.1437c-.032.122-.156.1954-.278.164-.122-.0315-.196-.1558-.164-.2778l1.841-7.1438c.031-.122.156-.1954.278-.1639zm0 5.6526c.122.0314.195.1558.164.2778l-1.841 7.1437c-.032.122-.156.1954-.278.164s-.196-.1558-.164-.2778l1.841-7.1437c.031-.122.156-.1954.278-.164z" fill="#000"/><path d="m133.897 81.2137c.122.0314.195.1558.164.2778l-1.764 6.8433c-.031.1219-.156.1954-.278.1639-.122-.0314-.195-.1558-.164-.2778l1.764-6.8433c.031-.122.156-.1954.278-.1639zm0 4.946c.122.0315.195.1558.164.2778l-1.764 6.8433c-.031.122-.156.1954-.278.164-.122-.0315-.195-.1558-.164-.2778l1.764-6.8433c.031-.122.156-.1954.278-.164zm0 5.6527c.122.0314.195.1558.164.2778l-1.678 6.5095c-.031.122-.156.1954-.278.1639-.122-.0314-.195-.1558-.164-.2778l1.678-6.5095c.031-.122.156-.1954.278-.1639z" fill="#000"/><path d="m144.293 57.2625c.122.0314.195.1558.164.2778l-.765 2.9654c-.031.122-.155.1954-.277.164s-.196-.1558-.164-.2778l.764-2.9654c.031-.122.156-.1954.278-.164zm1.157.4562c.122.0314.195.1558.164.2778l-1.999 7.7557c-.031.122-.156.1954-.278.164s-.195-.1558-.164-.2778l1.999-7.7557c.031-.122.156-.1954.278-.164zm.281 4.5622c.122.0314.195.1558.164.2778l-2.28 8.8462c-.031.122-.156.1954-.278.1639-.122-.0314-.195-.1558-.164-.2778l2.28-8.8461c.031-.122.156-.1954.278-.164zm-11.726 34.9007c.122.0314.196.1558.164.2778l-.764 2.9656c-.031.122-.156.195-.278.164-.122-.032-.195-.156-.164-.278l.765-2.9654c.031-.122.155-.1954.277-.164z" fill="#000"/><path d="m145.798 67.7552c.122.0314.195.1558.164.2778l-2.293 8.8962c-.031.122-.155.1954-.277.164s-.196-.1558-.164-.2778l2.292-8.8963c.032-.122.156-.1954.278-.1639zm0 4.946c.122.0315.195.1558.164.2778l-2.194 8.5124c-.031.122-.155.1954-.277.164-.122-.0315-.196-.1558-.164-.2778l2.193-8.5124c.032-.122.156-.1954.278-.164zm.204 4.8627c.122.0314.195.1558.164.2778l-2.497 9.6862c-.031.122-.155.1954-.277.164s-.196-.1558-.164-.2778l2.496-9.6863c.031-.122.156-.1954.278-.1639z" fill="#000"/><path d="m145.848 83.951c.122.0314.195.1558.164.2778l-2.234 8.6681c-.031.122-.156.1954-.278.164s-.195-.1558-.164-.2778l2.234-8.6682c.031-.122.156-.1954.278-.1639zm0 4.946c.122.0315.195.1558.164.2778l-2.234 8.6682c-.031.122-.156.1954-.278.164-.122-.0315-.195-.1559-.164-.2779l2.234-8.6681c.031-.122.156-.1954.278-.164zm-.09 6.0032c.122.0314.195.1558.163.2778l-2.143 8.318c-.031.122-.156.195-.278.164-.122-.032-.195-.156-.164-.278l2.144-8.3178c.031-.122.156-.1954.278-.164z" fill="#000"/><path d="m158.255 63.6491c.122.0314.196.1558.164.2778l-.94 3.6497c-.032.122-.156.1955-.278.164-.122-.0314-.196-.1558-.164-.2778l.94-3.6497c.032-.122.156-.1955.278-.164zm-12.489 37.8659c.122.032.195.156.164.278l-1.646 6.387c-.032.122-.156.195-.278.164s-.195-.156-.164-.278l1.646-6.387c.031-.122.156-.195.278-.164zm.157 4.334c.122.032.196.156.164.278l-.646 2.509c-.032.122-.156.196-.278.164-.122-.031-.195-.156-.164-.278l.647-2.509c.031-.122.155-.195.277-.164z" fill="#000"/><path d="m159.505 64.1336c.122.0314.195.1558.164.2778l-2.168 8.4116c-.031.122-.155.1955-.277.164-.122-.0314-.196-.1558-.164-.2778l2.167-8.4116c.032-.122.156-.1955.278-.164zm.165 4.3057c.122.0314.196.1558.164.2778l-2.333 9.052c-.031.122-.155.1954-.277.164-.122-.0315-.196-.1558-.164-.2778l2.332-9.0521c.032-.122.156-.1954.278-.1639zm0 5.6526c.122.0314.196.1558.164.2778l-2.333 9.052c-.031.122-.155.1954-.277.164s-.196-.1558-.164-.2778l2.332-9.052c.032-.122.156-.1954.278-.164z" fill="#000"/><path d="m159.821 78.9324c.121.0315.195.1558.163.2778l-2.351 9.1244c-.031.122-.156.1954-.278.164-.122-.0315-.195-.1559-.164-.2779l2.352-9.1243c.031-.122.156-.1954.278-.164zm0 4.9461c.121.0314.195.1558.163.2778l-2.351 9.1243c-.031.122-.156.1955-.278.164-.122-.0314-.195-.1558-.164-.2778l2.352-9.1244c.031-.122.156-.1954.278-.1639zm-.208 6.4594c.122.0314.195.1558.164.2778l-2.175 8.44c-.032.122-.156.1954-.278.164s-.196-.1558-.164-.2778l2.175-8.4401c.031-.122.156-.1954.278-.1639z" fill="#000"/><path d="m159.694 95.8128c.122.0314.195.1558.164.2778l-2.234 8.6684c-.031.122-.156.195-.278.164-.122-.032-.195-.156-.164-.278l2.234-8.6682c.032-.122.156-.1955.278-.164zm0 4.9462c.122.031.195.156.164.278l-1.959 7.6c-.031.122-.155.195-.277.164-.122-.032-.196-.156-.164-.278l1.958-7.6c.032-.122.156-.196.278-.164zm.086 5.319c.122.031.195.156.164.278l-.941 3.649c-.031.122-.155.196-.277.164-.122-.031-.196-.156-.164-.278l.94-3.649c.032-.122.156-.196.278-.164z" fill="#000"/><path d="m172.051 68.284c.122.0314.196.1558.164.2778l-.804 3.121c-.031.122-.156.1954-.278.164-.122-.0315-.195-.1558-.164-.2778l.805-3.1211c.031-.122.155-.1954.277-.1639zm1.195 1.0183c.122.0314.195.1558.164.2778l-1.894 7.3492c-.032.122-.156.1954-.278.164-.122-.0315-.195-.1558-.164-.2778l1.894-7.3493c.031-.122.156-.1954.278-.1639z" fill="#000"/><path d="m173.648 73.531c.122.0315.196.1559.164.2779l-2.274 8.8232c-.031.122-.155.1954-.277.164s-.196-.1558-.164-.2778l2.273-8.8233c.032-.122.156-.1954.278-.164zm-.117 5.4017c.122.0314.195.1558.164.2778l-2.157 8.3677c-.031.122-.155.1954-.277.164-.122-.0315-.196-.1559-.164-.2779l2.156-8.3677c.031-.122.156-.1954.278-.1639zm.117 5.197c.122.0315.196.1559.164.2779l-2.274 8.8232c-.031.122-.155.1954-.277.164s-.196-.1558-.164-.2778l2.273-8.8233c.032-.122.156-.1954.278-.164z" fill="#000"/><path d="m173.644 89.8816c.122.0315.195.1559.164.2778l-2.175 8.4401c-.032.122-.156.1954-.278.164-.122-.0315-.196-.1559-.164-.2779l2.175-8.44c.031-.122.156-.1954.278-.164zm.099 4.5622c.122.0315.195.1558.164.2778l-2.352 9.1244c-.031.122-.156.195-.278.164s-.195-.156-.164-.278l2.352-9.1242c.031-.122.156-.1954.278-.164zm-.099 6.0362c.122.032.195.156.164.278l-1.443 5.597c-.031.122-.155.196-.277.164-.122-.031-.196-.156-.164-.278l1.442-5.597c.031-.122.156-.195.278-.164z" fill="#000"/><path d="m182.629 71.4051c.122.0314.196.1558.164.2778l-.588 2.2811c-.031.122-.156.1954-.278.1639-.122-.0314-.195-.1558-.164-.2778l.588-2.2811c.032-.122.156-.1954.278-.1639zm1.098.6843c.122.0314.196.1558.164.2778l-1.528 5.9309c-.032.1219-.156.1954-.278.1639-.122-.0314-.195-.1558-.164-.2778l1.529-5.9308c.031-.122.155-.1954.277-.164zm.752 2.7373c.122.0314.195.1558.164.2778l-1.999 7.7557c-.031.122-.156.1954-.278.164s-.195-.1558-.164-.2778l1.999-7.7557c.031-.122.156-.1954.278-.164z" fill="#000"/><path d="m184.605 80.9856c.122.0315.195.1559.164.2779l-2.293 8.8962c-.031.122-.156.1954-.278.164-.122-.0315-.195-.1558-.164-.2778l2.293-8.8963c.031-.122.156-.1954.278-.164zm-.078 5.2465c.122.0315.196.1559.164.2779l-1.998 7.7557c-.032.122-.156.1954-.278.1639-.122-.0314-.196-.1558-.164-.2778l1.998-7.7557c.032-.122.156-.1954.278-.164zm.078 5.3522c.122.0315.195.1559.164.2778l-2.293 8.8959c-.031.122-.156.196-.278.164-.122-.031-.195-.155-.164-.277l2.293-8.8967c.031-.122.156-.1954.278-.164z" fill="#000"/><path d="m184.478 97.4095c.122.0314.196.1558.164.2778l-1.469 5.7027c-.032.122-.156.195-.278.164s-.196-.156-.164-.278l1.469-5.7026c.032-.122.156-.1954.278-.1639zm.275 3.8775c.122.032.196.156.164.278l-.705 2.737c-.031.122-.156.196-.278.164-.122-.031-.195-.155-.164-.277l.706-2.738c.031-.122.155-.195.277-.164z" fill="#000"/><path d="m195.744 86.2322c.122.0315.196.1558.164.2778l-1.338 5.1931c-.031.122-.156.1954-.278.164s-.195-.1558-.164-.2778l1.339-5.1931c.031-.122.155-.1954.277-.164zm1.099.6843c.122.0315.195.1559.164.2779l-2.528 9.8087c-.032.122-.156.1954-.278.1639-.122-.0314-.195-.1558-.164-.2778l2.528-9.8087c.031-.122.156-.1954.278-.164zm.294 4.5088c.122.0314.196.1558.164.2778l-2.822 10.9529c-.032.122-.156.195-.278.164-.122-.032-.195-.156-.164-.278l2.823-10.9527c.031-.122.155-.1954.277-.164z" fill="#000"/><path d="m197.088 96.4969c.122.0314.195.1558.164.2778l-1.764 6.8433c-.031.122-.156.195-.278.164-.122-.032-.195-.156-.164-.278l1.764-6.8432c.031-.122.156-.1954.278-.1639zm.099 4.5621c.122.031.195.156.163.278l-.822 3.193c-.032.122-.156.196-.278.164-.122-.031-.196-.155-.164-.277l.823-3.194c.031-.122.156-.195.278-.164z" fill="#000"/><path d="m228.132 13.8435c.18-.0258.383-.0468.571-.0217.029.0039.165.0328.195.1821.011.0562-.002.1013-.01.1241-.009.0241-.02.0416-.027.051-.02.0292-.043.0482-.047.0512l-.001.0003c-.014.0119-.03.0229-.041.0303-.026.0169-.061.0388-.101.0628-.081.0486-.191.1125-.302.1761-.22.1265-.453.2572-.476.2692-2.137 1.1381-4.21 2.3962-6.163 3.8227-2.075 1.5153-4.058 3.191-5.755 5.1059-.005.0055-.021.024-.044.0521-.093.1128-.313.3808-.516.5993-.131.1411-.273.283-.397.3777-.059.0452-.133.0939-.21.1186-.04.0127-.097.0244-.162.0128-.072-.0129-.136-.0524-.181-.1141-.497-.6906-.914-1.4489-1.324-2.1925l-.003-.0051c-.412-.7497-.817-1.4844-1.296-2.1491-.076-.1063-.163-.1539-.257-.1725-.103-.0202-.23-.0085-.38.0331-.15.0414-.306.1076-.464.1813-.056.0261-.114.0543-.172.0825-.097.0468-.193.0934-.276.1291-.967.4182-1.931.8433-2.896 1.2688l-.068.03c-.987.4354-1.975.8709-2.967 1.2992-.116.0499-.25-.0034-.3-.119-.05-.1157.004-.2499.119-.2999.99-.4274 1.977-.8623 2.964-1.2977l.069-.0304c.965-.4253 1.93-.8509 2.898-1.2697.076-.0329.155-.0711.243-.1137.059-.0289.123-.0598.193-.0925.164-.0767.348-.1559.535-.2076.185-.0514.39-.0804.59-.0412.207.0409.395.1528.539.3536.496.6887.913 1.4455 1.322 2.1884l.004.0072c.388.7048.77 1.397 1.212 2.0308.091-.0703.207-.1849.331-.3183.188-.2027.355-.4054.459-.5324.042-.051.074-.0898.093-.1115 1.726-1.9471 3.737-3.6444 5.828-5.1716 1.971-1.44 4.06-2.7079 6.21-3.8528-.125.0098-.234-.0822-.245-.2068-.012-.1254.081-.2364.206-.2478.096-.0087.194-.0245.303-.042.062-.0099.127-.0203.197-.0303z" fill="#000"/><path d="m226.962 13.9736c.031.1222-.044.2461-.166.2766-2.19.5476-4.3 1.3936-6.416 2.2421-.654.2621-1.308.5244-1.966.7782-.927.358-1.867.6631-2.805.9605-.123.0392-.247.0782-.37.1173-.814.2576-1.624.5137-2.425.7998-.429.1532-.866.2914-1.297.4278-.22.0696-.439.1387-.655.2092-.644.2107-1.273.437-1.876.7342-1.87.9203-3.634 1.9564-5.436 3.0149l-.075.0439c-.109.0638-.248.0275-.312-.0812-.064-.1086-.028-.2484.081-.3122l.081-.0476c1.798-1.056 3.575-2.0994 5.459-3.0271.633-.3115 1.286-.5457 1.936-.7585.225-.0735.448-.144.67-.2142.427-.1348.849-.2683 1.271-.4188.809-.2891 1.627-.548 2.441-.8054.123-.039.246-.078.369-.117.937-.2972 1.866-.5987 2.779-.9512.645-.249 1.291-.5081 1.94-.7683 2.122-.851 4.272-1.7131 6.495-2.269.123-.0305.246.0438.277.166z" fill="#000"/><path d="m201.763 16.6519c0-.1259.102-.2281.228-.2281.932 0 1.886.1907 2.814.4346.465.1221.927.2585 1.378.3921l.041.0123c.438.1297.865.2562 1.281.3662.274.0724.48.214.554.4478.068.215-.002.4373-.087.614-.09.1839-.221.3683-.347.5304-.064.0821-.129.161-.188.2333-.007.008-.013.0159-.02.0237-.052.0636-.099.1208-.14.1724-.698.8887-1.567 1.6654-2.466 2.3893-.426.3431-.861.676-1.289 1.0035-.024.0183-.047.0366-.071.0548-.452.3459-.895.6861-1.316 1.0299-.097.0797-.241.0652-.321-.0323-.08-.0976-.065-.2413.032-.321.428-.3491.876-.6934 1.328-1.0389.023-.0179.046-.0359.07-.0538.429-.3284.86-.6581 1.281-.9975.89-.7162 1.727-1.4676 2.394-2.3159.043-.0559.094-.1173.146-.1801.006-.008.013-.0159.019-.0239.06-.072.121-.1469.181-.2238.121-.1557.228-.3096.296-.4491.071-.1469.077-.2334.063-.2773-.008-.0252-.041-.0928-.236-.1445-.422-.1117-.855-.2399-1.291-.369l-.044-.0131c-.451-.1338-.907-.2682-1.364-.3883-.915-.2403-1.824-.4196-2.698-.4196-.126 0-.228-.1021-.228-.2281z" fill="#000"/><path d="m226.74 13.7886c.007.1258-.09.2332-.216.24-3.911.2115-7.803.7168-11.707 1.2235-.214.0278-.429.0557-.644.0835-4.116.5334-8.245 1.0503-12.402 1.2024-.126.0046-.232-.0937-.237-.2196-.004-.1259.094-.2317.22-.2363 4.133-.1512 8.243-.6653 12.36-1.1989.217-.028.433-.0561.649-.0842 3.9-.5062 7.808-1.0135 11.737-1.2259.126-.0068.233.0897.24.2155z" fill="#000"/><path d="m222.744 15.4648c.025.1234-.054.2442-.177.2699-1.006.2096-2.002.4644-3.001.7251-.11.0287-.22.0574-.33.0862-.89.2323-1.783.4658-2.685.6705-1.528.3471-3.076.5564-4.615.7646-.874.1182-1.745.2361-2.609.3786-.124.0205-.241-.0636-.262-.1879-.02-.1243.064-.2417.188-.2623.892-.1472 1.776-.2665 2.655-.3852 1.522-.2056 3.03-.4093 4.542-.7527.894-.2029 1.78-.4345 2.67-.6671.11-.0287.22-.0574.33-.0862 1-.2607 2.006-.5181 3.024-.7303.123-.0257.244.0535.27.1768z" fill="#000"/><path d="m213.829 23.3129c.101-.0757.244-.0555.32.0452.571.7597.706 1.166 1.107 2.3711.021.0653.044.1329.067.2031.04.1195-.024.2487-.144.2885-.119.0399-.249-.0247-.288-.1443-.022-.0632-.042-.1243-.062-.1834-.406-1.2207-.519-1.5614-1.045-2.2608-.076-.1007-.055-.2437.045-.3194z" fill="#000"/><path d="m216.637 22.6498c.089.0891.089.2335 0 .3226-.676.6762-1.225 1.3278-1.7 1.9114-.098.1205-.193.2386-.286.3538-.354.4384-.673.8337-.975 1.1523-.087.0913-.231.095-.323.0082-.091-.0867-.095-.2311-.008-.3225.289-.3038.592-.6799.944-1.1158.094-.1171.192-.2385.294-.364.479-.5881 1.039-1.2535 1.731-1.946.09-.0891.234-.0891.323 0z" fill="#000"/><path d="m211.809 17.8176c.113-.0574.25-.013.307.0991.058.1121.013.2496-.099.307l-.104-.2031zm-16.56 23.3186c.55-1.2306.998-2.6053 1.447-4.0534.078-.249.155-.5002.233-.7533.378-1.2294.771-2.5044 1.24-3.7968 1.129-3.113 2.695-6.3052 5.537-9.103.995-.9795 3.061-2.2775 4.902-3.3407.916-.5289 1.769-.9954 2.392-1.3297.312-.1671.567-.3012.743-.3934.088-.046.157-.0817.204-.1057l.052-.0274.014-.0069.003-.0017.001-.0004v-.0001s0 0-.104-.2031c-.104-.203-.104-.203-.104-.203v.0002l-.001.0004-.003.0018-.014.0071-.054.0278c-.047.0243-.116.0603-.205.1067-.178.0928-.434.2276-.747.3956-.627.3359-1.484.8048-2.405 1.3367-1.833 1.0584-3.951 2.3836-4.994 3.4107-2.909 2.8638-4.504 6.1258-5.646 9.2725-.473 1.3038-.87 2.5913-1.248 3.8207-.078.2525-.155.5026-.231.7498-.452 1.4547-.895 2.8116-1.436 4.0188-.005.0111-.009.0226-.012.0344-3.652 13.6695-11.882 26.3727-24.067 32.9338-11.084 5.9684-20.07 10.7833-30.678 10.1514 1.142-.617 2.276-1.2611 3.371-1.925 3.191-1.9358 6.066-4.0519 7.821-6.1696.879-1.0594 1.489-2.1336 1.71-3.1987.222-1.0738.044-2.1262-.633-3.1196-.071-.1042-.212-.1311-.317-.0603-.104.0709-.131.2128-.06.317.605.8885.76 1.8144.563 2.7705-.2.9648-.761 1.9718-1.614 2.9999-1.706 2.0575-4.526 4.1417-7.707 6.0707-1.29.7825-2.636 1.5375-3.985 2.2529-2.753-.238-5.62-.8444-8.664-1.8921-1.841-.6335-6.208-2.5059-9.512-4.9791-1.654-1.2384-3.017-2.6095-3.676-4.0304-.328-.7069-.48-1.4207-.412-2.1358.068-.7141.356-1.4451.931-2.1855.078-.0994.06-.2427-.04-.3201-.099-.0773-.242-.0594-.32.04-.621.7994-.948 1.611-1.025 2.4226-.077.8107.097 1.6057.452 2.3709.707 1.5233 2.142 2.9496 3.817 4.2035 3.354 2.5112 7.769 4.4026 9.636 5.0453 2.826.9726 5.502 1.569 8.076 1.8471-5.052 2.6233-10.025 4.6612-12.188 5.4796-33.3268 12.6102-68.6944 20.8592-102.0024 2.5227-6.1815-3.4029-18.44851-12.5418-23.915719-17.0838-.096903-.0805-.240721-.0672-.3212253.0297-.0805045.0969-.0672104.2407.0296931.3212 5.4738112 4.5475 17.7672512 13.7085 23.9872512 17.1326 33.498 18.4408 69.0402 10.1208 102.3834-2.4957 2.26-.8551 7.574-3.0353 12.859-5.8271 11.08.9115 20.328-4.0565 31.65-10.1531 12.319-6.6336 20.61-19.4518 24.287-33.2001zm-55.43 22.7347c1.285-.0655 2.504.1348 3.949.5225.122.0326.194.1578.161.2794-.033.1217-.158.1939-.279.1612-1.421-.3812-2.588-.5696-3.808-.5075-.125.0064-.233-.0904-.239-.2162s.09-.233.216-.2394zm-7.041.1981c.016.1219-.068.2346-.189.2547l-6.863 1.1406c-.121.02-.236-.0584-.261-.1778-.025-.1195.048-.2376.166-.2681 2.229-.5752 4.477-.913 6.899-1.1468.122-.0118.232.0755.248.1974z" fill="#000"/><path d="m19.8646 96.8557c.0501-.1156.1844-.1687.3-.1186 20.2092 8.7589 41.1775 8.6499 66.9375 4.5459.1244-.019.2413.065.2611.19.0198.124-.0649.241-.1894.261-25.7927 4.108-46.8638 4.232-67.1906-4.5783-.1156-.0501-.1687-.1844-.1186-.3z" fill="#000"/><path d="m205.483 15.9744c.122.0314.195.1558.164.2778l-.294 1.1405c-.032.122-.156.1954-.278.164s-.195-.1558-.164-.2778l.294-1.1406c.031-.122.156-.1954.278-.1639zm-1.457 0c.122.0314.196.1558.164.2778l-.176.6843c-.032.122-.156.1954-.278.164-.122-.0315-.195-.1558-.164-.2778l.176-.6844c.032-.122.156-.1954.278-.1639z" fill="#22222a"/><path d="m209.917 15.1588c.122.0315.195.1559.164.2779l-1.141 4.4258c-.031.122-.156.1954-.278.164-.122-.0315-.195-.1559-.163-.2779l1.14-4.4258c.031-.122.156-.1954.278-.164zm-1.549.3594c.122.0315.195.1558.164.2778l-.941 3.6498c-.031.122-.156.1954-.278.1639-.122-.0314-.195-.1558-.164-.2778l.941-3.6497c.031-.122.156-.1954.278-.164zm-1.275 0c.122.0315.195.1558.164.2778l-.47 1.8249c-.032.122-.156.1954-.278.164-.122-.0315-.196-.1558-.164-.2778l.47-1.8249c.032-.122.156-.1954.278-.164z" fill="#22222a"/><path d="m214.386 15.0622c.122.0314.196.1558.164.2778l-.588 2.2811c-.031.122-.156.1954-.278.1639-.122-.0314-.195-.1558-.164-.2778l.588-2.2811c.032-.122.156-.1954.278-.1639zm-1.457 0c.122.0314.196.1558.164.2778l-.587 2.2811c-.032.122-.156.1954-.278.1639-.122-.0314-.196-.1558-.164-.2778l.588-2.2811c.031-.122.155-.1954.277-.1639zm-1.274 0c.122.0314.195.1558.164.2778l-.823 3.1935c-.032.122-.156.1954-.278.164-.122-.0315-.195-.1558-.164-.2778l.823-3.1936c.031-.122.156-.1954.278-.1639z" fill="#22222a"/><path d="m218.669 14.3776c.122.0314.195.1558.164.2778l-.47 1.8249c-.032.122-.156.1954-.278.164-.122-.0315-.196-.1559-.164-.2779l.47-1.8248c.031-.122.156-.1954.278-.164zm-1.457 0c.122.0314.196.1558.164.2778l-.588 2.2811c-.031.122-.156.1954-.278.164-.122-.0315-.195-.1558-.164-.2778l.588-2.2811c.032-.122.156-.1954.278-.164zm-1.392.4562c.122.0315.195.1558.164.2778l-.47 1.8249c-.032.122-.156.1954-.278.164-.122-.0315-.196-.1558-.164-.2778l.47-1.8249c.032-.122.156-.1954.278-.164z" fill="#22222a"/><path d="m223.147 13.8449c.122.0314.195.1558.164.2778l-.314 1.2173c-.031.122-.156.1954-.278.1639-.122-.0314-.195-.1558-.164-.2778l.314-1.2172c.031-.122.156-.1955.278-.164zm-1.535.3048c.122.0314.195.1558.164.2778l-.412 1.5968c-.031.122-.156.1954-.278.164-.122-.0315-.195-.1559-.164-.2779l.412-1.5967c.031-.122.156-.1954.278-.164zm-1.275 0c.122.0314.195.1558.164.2778l-.412 1.5968c-.031.122-.155.1954-.277.164-.122-.0315-.196-.1559-.164-.2779l.411-1.5967c.032-.122.156-.1954.278-.164z" fill="#22222a"/><path d="m224.678 13.6936c.122.0315.196.1559.164.2779l-.235.9124c-.031.122-.156.1954-.278.164-.122-.0315-.195-.1559-.164-.2779l.236-.9124c.031-.122.155-.1954.277-.164z" fill="#22222a"/><path d="m64.4383 111.773c.126-.001.2293.1.2308.226.0682 5.799 1.2199 11.795 4.6331 16.521.0737.102.0507.245-.0514.318-.1021.074-.2447.051-.3185-.051-3.4906-4.833-4.6506-10.936-4.7194-16.783-.0015-.126.0994-.229.2254-.231z" fill="#22222a"/><path d="m69.292 123.006c-.0622.021-.1222.041-.1794.06-1.6902.558-3.2941 1.275-4.9175 2.031-.1142.053-.2499.003-.3031-.111s-.0037-.25.1105-.303c1.6256-.757 3.2499-1.484 4.9672-2.05.0543-.018.1122-.037.1732-.058.3861-.129.8965-.3 1.4104-.399.5861-.113 1.2387-.145 1.7375.14.3586.205.6115.559.8015.911.1507.28.2734.583.3774.839.0272.067.0532.132.0781.191.0961.231.211.458.3312.696.0569.113.1149.228.1727.347.1753.36.3418.743.4216 1.142.0247.123-.0554.244-.1789.268-.1236.025-.2437-.055-.2685-.179-.0679-.339-.2128-.679-.3844-1.032-.0512-.105-.1055-.213-.1605-.321-.1242-.246-.2518-.499-.3544-.745-.028-.068-.0562-.137-.0849-.208-.1032-.254-.2134-.526-.3511-.781-.1761-.327-.3787-.591-.6261-.732-.3479-.199-.8575-.197-1.425-.088-.4813.092-.9596.252-1.3475.382z" fill="#22222a"/><path d="m63.3386 111.989c.0699-.105.2115-.133.3164-.063.6399.427 1.2251 1.003 1.7736 1.596.2361.256.4618.511.6828.76.3025.342.5961.673.895.983.4281.443.8873.856 1.3534 1.274.0917.083.1837.165.2758.249.5566.502 1.1133 1.021 1.6063 1.606.1481.175.2876.35.4251.522.2272.284.4489.561.6954.825.1916.206.423.379.6733.566.0493.037.0993.074.1498.113.2974.225.6102.479.8296.816.259.399.4324.848.575 1.293.0649.202.1243.407.1823.606.0057.02.0115.039.0172.059.0638.219.1263.431.1946.635.1384.412.2984.816.4618 1.225.0076.019.0151.038.0227.057.1554.389.313.784.4526 1.187.0412.119-.0219.249-.1409.29-.1191.041-.249-.022-.2902-.141-.136-.393-.29-.778-.4464-1.17l-.0215-.054c-.163-.408-.3276-.823-.4705-1.249-.0717-.213-.1366-.434-.2002-.652-.0057-.02-.0114-.04-.0171-.059-.0583-.2-.116-.399-.1789-.595-.1382-.431-.2969-.835-.523-1.183-.1721-.265-.4268-.478-.7224-.701-.0453-.035-.0917-.069-.1389-.105-.2502-.186-.5206-.388-.7428-.627-.2554-.274-.4992-.578-.7358-.874-.1352-.168-.2681-.334-.3995-.49-.4716-.559-1.0083-1.061-1.5634-1.562-.0901-.081-.1807-.163-.2717-.244-.4661-.419-.9395-.844-1.3799-1.3-.3009-.312-.6102-.661-.9214-1.012-.2209-.249-.4428-.499-.6634-.738-.5421-.587-1.0978-1.131-1.6915-1.526-.1048-.07-.1332-.212-.0633-.317z" fill="#22222a"/><path d="m74.8644 122.043c.1235.025.2036.145.1789.268-.0316.159-.0639.314-.0959.468-.2513 1.21-.4771 2.297-.136 3.533.0335.121-.0378.247-.1592.281-.1214.033-.2471-.038-.2806-.16-.3722-1.349-.1219-2.547.1291-3.748.0322-.154.0644-.309.0953-.463.0247-.124.1448-.204.2684-.179z" fill="#22222a"/><path d="m64.1409 112.47c.1195-.04.2487.025.2885.144.203.609.7214 1.233 1.3432 1.821.4999.472 1.0458.903 1.5117 1.27.1102.087.2158.17.3154.25.4006.32.8073.639 1.2162.959 2.1658 1.698 4.3903 3.441 6.0723 5.672.0758.1.0558.243-.0448.319s-.2436.056-.3195-.045c-1.6427-2.178-3.8121-3.879-5.9781-5.577-.4117-.323-.8232-.646-1.2309-.972-.0956-.076-.1984-.157-.3066-.242-.4664-.368-1.0327-.815-1.5491-1.303-.6324-.598-1.2221-1.286-1.4626-2.008-.0398-.119.0248-.248.1443-.288z" fill="#22222a"/><path d="m63.6667 112.014c.0564-.113.1934-.159.3061-.102.2019.101.3942.277.5592.437.0415.04.0814.079.12.117.1259.124.2382.234.347.319 1.7909 1.389 3.6127 2.736 5.4442 4.076.688.504 1.3891.998 2.0927 1.494 1.9802 1.397 3.9798 2.807 5.7599 4.467.1146.107.242.219.3781.338.0261.023.0524.046.0791.069.1644.144.3377.298.5042.46.3299.319.6506.685.8282 1.091.0084.019.0305.075.0138.147-.0212.091-.0881.143-.1445.164-.0455.017-.0848.015-.0998.014-.019-.001-.0347-.005-.0446-.007-.0345-.008-.07-.023-.0941-.034-.0559-.025-.1332-.065-.2211-.112-.1781-.096-.4204-.234-.6694-.378-.2497-.144-.5082-.296-.7194-.421-.0769-.045-.1473-.087-.2086-.123-.1081-.064-.1881-.112-.2268-.134-.1713-.099-.353-.215-.5342-.331-.101-.064-.2019-.128-.3007-.189-.2838-.176-.5644-.337-.8402-.447-.2757-.111-.5335-.166-.7739-.146-.2348.021-.4692.115-.7018.334-.0917.086-.2361.082-.3225-.01-.0863-.091-.0819-.236.0098-.322.3034-.286.6328-.426.9751-.456.3368-.029.6695.05.9832.176s.6215.304.9107.483c.1099.068.2156.135.3184.201.1746.111.3407.217.505.312.0403.024.1235.073.2336.138.0609.036.1301.077.2048.121.2108.124.468.276.716.419.0355.021.0708.041.1057.061-.0697-.075-.1435-.149-.2202-.224-.1578-.153-.3238-.3-.4876-.444-.0258-.023-.0516-.045-.0773-.068-.136-.119-.2699-.236-.3901-.348-1.7554-1.637-3.7174-3.021-5.6898-4.412-.7087-.5-1.4188-1.001-2.1211-1.514-1.8324-1.341-3.6584-2.691-5.4544-4.085-.1323-.102-.2714-.239-.4009-.367-.0354-.035-.0701-.069-.1038-.102-.1684-.163-.3149-.291-.446-.356-.1127-.056-.1583-.193-.102-.306z" fill="#22222a"/><path d="m247.872 83.7311c.118-.0452.25.0134.295.131.88 2.2891 1.533 4.1012 1.723 5.9697.19 1.8772-.089 3.7959-1.038 6.308-1.661 4.3932-4.332 7.9792-8.194 10.6752-4.126 2.881-8.877 4.724-13.755 6.217-2.292.702-4.616 1.328-6.917 1.948l-.445.12c-2.449.66-4.869 1.318-7.204 2.061-.347.11-.796.236-1.315.381-.871.243-1.936.541-3.031.911.447.52.794 1.161 1 1.957.199.771.307 1.781.172 2.73-.134.947-.516 1.871-1.332 2.409-.922.608-2.337.808-3.582.563-1.246-.245-2.405-.955-2.697-2.249-.26-1.154.155-2.136.929-2.954.767-.811 1.898-1.474 3.118-2.021.504-.225 1.027-.433 1.552-.624-1.093-.919-2.633-1.333-4.248-1.602-7.397-1.233-15.14-.638-22.833.673-5.454.929-10.87 2.215-16.117 3.461-2.159.513-4.289 1.019-6.381 1.49-4.518 1.018-9.068 2.18-13.647 3.36-.372.096-.744.192-1.117.288-4.209 1.085-8.442 2.177-12.69 3.174-9.246 2.172-18.575 3.901-27.919 4.158-6.7482.186-13.2694-.503-19.6279-2.878-3.3429-1.249-6.6508-2.519-8.6302-5.721-.0663-.107-.0331-.247.074-.314.1072-.066.2478-.033.314.074 1.8854 3.05 5.0373 4.277 8.4019 5.533 6.2876 2.349 12.7466 3.035 19.4552 2.85 9.299-.256 18.593-1.977 27.828-4.146 4.243-.996 8.47-2.086 12.681-3.172.372-.096.744-.192 1.117-.288 4.578-1.18 9.134-2.344 13.659-3.363 2.082-.469 4.206-.973 6.361-1.485 5.253-1.247 10.692-2.539 16.161-3.471 7.717-1.314 15.517-1.918 22.985-.673 1.706.284 3.457.746 4.665 1.878 1.195-.412 2.366-.739 3.293-.998.505-.141.938-.262 1.262-.366 2.347-.746 4.776-1.407 7.224-2.067l.443-.119c2.303-.62 4.62-1.244 6.904-1.944 4.862-1.488 9.559-3.314 13.628-6.155 3.781-2.639 6.398-6.149 8.028-10.4625.931-2.4637 1.192-4.3104 1.011-6.1007-.183-1.799-.812-3.5567-1.695-5.8519-.045-.1176.014-.2496.131-.2948zm-40.35 34.8839c-.585.208-1.173.437-1.737.69-1.199.537-2.267 1.171-2.973 1.918-.7.739-1.033 1.572-.815 2.539.236 1.044 1.182 1.675 2.339 1.902 1.158.228 2.444.031 3.244-.496.662-.437 1.006-1.21 1.131-2.092.125-.879.026-1.827-.162-2.552-.203-.787-.559-1.411-1.027-1.909z" fill="#000"/><path d="m65.4357 113.883c.122.032.1954.156.164.278l-.6337 2.459c-.0315.122-.1558.195-.2778.164s-.1954-.156-.164-.278l.6337-2.459c.0315-.122.1558-.195.2778-.164zm1.1757 1.091c.122.031.1954.155.164.277l-1.1757 4.563c-.0314.122-.1558.195-.2778.164-.122-.032-.1954-.156-.164-.278l1.1757-4.562c.0314-.122.1558-.196.2778-.164z" fill="#22222a"/><path d="m67.8093 116.114c.122.031.1954.156.1639.278l-1.5483 6.008c-.0315.122-.1558.196-.2778.164-.122-.031-.1954-.156-.164-.278l1.5484-6.008c.0314-.122.1558-.195.2778-.164zm1.0263.912c.122.032.1955.156.1643.278l-.8369 3.273c-.2761 1.084-.5497 2.158-.7962 3.114-.0315.122-.1557.196-.2777.164-.1219-.031-.1954-.155-.1642-.277l.796-3.113c.0023-.01.0047-.019.0071-.028l.007-.028c.2808-1.102.5638-2.213.823-3.219.0314-.121.1557-.195.2776-.164zm1.1171 1.369c.122.032.1954.156.164.278l-1.1169 4.334c-.0314.122-.1558.195-.2778.164s-.1954-.156-.164-.278l1.1169-4.334c.0315-.122.1558-.195.2778-.164z" fill="#22222a"/><path d="m70.9162 119.536c.122.031.1954.156.164.278l-.5732 2.224h.8035l.3674-1.426c.0314-.122.1558-.195.2778-.164.122.032.1954.156.1639.278l-.4114 1.597c-.026.101-.1169.171-.2209.171h-1.2746c-.0706 0-.1371-.033-.1803-.088-.0433-.056-.0582-.129-.0406-.197l.6466-2.509c.0314-.122.1558-.196.2778-.164zm2.261 1.825c.122.031.1954.156.164.278l-.3527 1.368c-.0314.122-.1558.196-.2778.164-.122-.031-.1954-.156-.164-.278l.3527-1.368c.0315-.122.1558-.196.2778-.164z" fill="#22222a"/><path d="m87.0901 21.3027c.0772.0995.0591.2428-.0405.32-2.2907 1.7766-4.5531 3.5866-6.8047 5.4215l-.0105.0085c-1.3456 1.0966-2.697 2.1979-4.088 3.2418-.457.343-.9239.6781-1.4555.9341-.1135.0546-.2498.0069-.3045-.1066-.0546-.1135-.007-.2498.1066-.3045.4882-.2351.9246-.5465 1.3795-.8879 1.3837-1.0384 2.7293-2.1349 4.0773-3.2334l.0069-.0057c2.2537-1.8366 4.519-3.6489 6.8133-5.4283.0996-.0772.2429-.0591.3201.0405z" fill="#d9dae6"/><path d="m84.5151 21.6569c.0074-.1257.1155-.2216.2412-.2141 1.2767.076 2.4455.6342 3.5419 1.1579.1282.0612.2553.122.3816.1814 1.2505.5888 2.4871 1.2113 3.7202 1.8321.4684.2358.9362.4713 1.4042.7047.4722.2354.9562.4641 1.4437.6945 1.197.5655 2.4151 1.141 3.532 1.8517.1063.0676.1376.2086.07.3149-.0677.1063-.2087.1376-.3149.07-1.0914-.6945-2.2682-1.2504-3.4543-1.8108-.4936-.2331-.9888-.4671-1.4801-.7121-.4714-.235-.9413-.4716-1.4109-.708-1.2312-.6198-2.4596-1.2382-3.7043-1.8243-.1273-.0599-.2541-.1204-.3807-.1807-1.1086-.5283-2.1937-1.0456-3.3755-1.1159-.1257-.0075-.2216-.1155-.2141-.2413z" fill="#d9dae6"/><path d="m116.068 14.6984c.071.104.044.246-.06.3171-3.046 2.0846-5.995 4.3074-8.948 6.5338l-.107.0807c-2.988 2.2523-5.981 4.5066-9.0799 6.6161-.1041.0709-.246.044-.3169-.0601-.0709-.1042-.044-.2461.0602-.317 3.0876-2.1024 6.0726-4.3501 9.0616-6.6033l.111-.0835c2.951-2.2245 5.906-4.4527 8.962-6.5432.104-.0711.246-.0445.317.0594z" fill="#d9dae6"/><path d="m113.027 15.5427c.109-.0634.249-.0264.312.0825.629 1.0801 1.179 2.2048 1.68 3.3532-.037-.1748-.069-.3591-.101-.5412-.025-.1396-.049-.2779-.075-.4098-.091-.4631-.204-.8616-.401-1.1242-.075-.1008-.055-.2437.046-.3193s.244-.0552.319.0456c.266.3543.393.8477.484 1.31.031.156.057.308.083.4544.054.3101.104.5952.179.8403.597 1.9524 1.378 3.8408 2.162 5.7372.368.8913.738 1.7844 1.089 2.6868.63 1.6185 1.167 3.2669 1.686 4.9153.104.3292.207.6584.31.9873.313.9996.625 1.9971.954 2.9885.282.6321.572 1.2603.87 1.884.532 1.112 1.091 2.2008 1.737 3.2414.009.0142.028.04.06.0834.006.0089.013.0185.021.0289.04.0555.09.1249.137.1978.046.0717.094.1537.129.2347.03.0706.069.1854.043.303-.01.0475-.031.1016-.073.1493-.044.0499-.1.0805-.158.094-.104.0239-.199-.0091-.256-.0338-.124-.0536-.259-.1571-.372-.2545-.119-.102-.236-.2154-.325-.3066-.083-.0857-.156-.1655-.179-.1964-.46-.6256-.777-1.3735-1.038-2.1255-.131-.3768-.248-.7585-.362-1.1288l-.007-.0213c-.112-.3642-.22-.7165-.335-1.0492-.108-.311-.214-.6228-.318-.9351-1.563-3.5039-2.895-7.12-4.168-10.7225-.119-.3358-.237-.6724-.355-1.0093-1.098-3.1287-2.206-6.2857-3.86-9.1282-.063-.1089-.026-.2485.082-.3119zm6.656 16.0014c-.404-1.2526-.827-2.496-1.304-3.7204-.234-.602-.479-1.204-.727-1.8071.654 1.8479 1.324 3.6958 2.031 5.5275zm3.195 8.4286c.235.6356.51 1.232.878 1.7315-.001-.0014-.001-.0007.002.0025.005.0052.015.0174.034.0377.025.0281.06.0654.102.1079.034.0354.073.0739.114.1132-.014-.0187-.026-.036-.034-.0502-.394-.6338-.755-1.2836-1.096-1.9426zm1.584 2.3469c0 .0001-.001-.0001-.002-.0006.001.0003.002.0006.002.0006z" fill="#d9dae6"/><path d="m128.183 22.4127c.007.0729.015.1553.015.2211 0 2.2376-.373 4.3073-.959 6.4596-.291 1.0706-.6 2.1334-.908 3.1941-.726 2.5021-1.449 4.993-1.939 7.5481-.01.048-.021.1316-.036.2395-.05.3495-.135.954-.285 1.4301-.051.1604-.112.3159-.185.4508-.073.1328-.165.2599-.286.3476-.129.0929-.285.1381-.458.1039-.164-.0323-.318-.1304-.463-.2711-.091-.0875-.094-.2319-.006-.3225.087-.0906.232-.0932.322-.0057.112.1078.19.1428.235.1517.035.007.065.0013.102-.0258.045-.0322.098-.0942.153-.1965.055-.1003.105-.226.151-.3699.137-.4335.209-.9467.259-1.3013.019-.1314.034-.241.049-.3167.494-2.5769 1.226-5.1006 1.955-7.6118.307-1.056.613-2.1098.9-3.1644.579-2.1272.942-4.1549.942-6.3397 0-.0429-.005-.0986-.011-.1715-.002-.0162-.003-.0333-.005-.0513-.008-.0887-.016-.1981-.01-.2949.003-.0486.011-.1055.03-.1605.018-.0541.056-.1272.132-.1781.082-.0548.174-.0601.25-.0438.072.0152.138.05.197.0893.105.0699.133.2115.063.3163-.049.0741-.134.1099-.217.1.002.0392.005.0833.01.1315.001.0135.002.0275.003.0419z" fill="#d9dae6"/><path d="m128.721 22.1938c.089-.0891.233-.0891.322 0 .102.1017.14.2359.154.3499.015.1172.008.2437-.007.3626-.025.2072-.08.4279-.121.5903-.005.0233-.011.0453-.016.066-.234.9542-.559 1.8846-.896 2.8018-.078.2094-.155.4179-.233.6259-.263.7061-.524 1.4057-.751 2.113-.893 2.7822-1.744 5.599-2.325 8.4539-.093.4559-.168.912-.244 1.373-.041.2493-.082.5-.126.7529-.125.7143-.274 1.4332-.512 2.1345-.041.1193-.17.1832-.29.1428-.119-.0405-.183-.17-.142-.2894.226-.668.371-1.3598.495-2.0667.042-.2422.082-.4879.123-.735.077-.4672.154-.9395.249-1.4032.586-2.8805 1.444-5.717 2.338-8.5022.23-.7183.496-1.4313.76-2.1393.077-.2064.154-.4124.229-.6179.337-.9142.654-1.8247.882-2.7527.005-.0227.011-.0461.017-.07.041-.165.089-.3563.111-.5339.012-.1011.015-.1858.007-.25-.008-.0631-.023-.0823-.024-.0837 0-.0001 0-.0001 0 0-.089-.0891-.089-.2336 0-.3226z" fill="#d9dae6"/><path d="m134.826 20.6155c-.1.0459-.192.0884-.252.1116-.671.2622-1.347.5072-2.02.7499-.061.0221-.123.0443-.184.0664-.612.2205-1.222.4402-1.829.6714-.313.1193-.628.2434-.944.3681-.351.1383-.704.2773-1.058.4111.102-.0109.206-.0206.294-.0206.126 0 .228.1022.228.2282 0 .1259-.102.2281-.228.2281-.069 0-.16.0086-.276.0213-.017.0018-.034.0037-.052.0057-.099.0108-.209.023-.318.0306-.128.0091-.265.0127-.393-.0005-.127-.013-.264-.0439-.381-.1182-.033-.0211-.11-.0783-.125-.1865-.016-.1145.048-.1915.078-.2207.033-.0318.069-.0523.093-.0643.027-.0135.054-.0248.079-.0342.05-.0186.106-.0353.151-.0485.007-.0022.014-.0042.02-.0061.039-.0114.066-.0193.085-.0259.546-.1946 1.083-.4062 1.624-.6194.318-.1253.637-.2512.961-.3745.611-.2328 1.224-.4539 1.836-.6741.061-.0222.123-.0444.185-.0666.673-.2427 1.343-.4859 2.008-.7457.046-.0179.125-.0543.232-.1032.01-.0047.02-.0095.031-.0144.118-.054.257-.1178.394-.1745.135-.0558.277-.109.397-.1386.059-.0144.126-.0265.19-.0257.053.0008.168.0112.249.108.08.0968.067.2406-.03.3213-.071.0598-.169.068-.248.0289-.012.0018-.029.005-.052.0106-.086.021-.201.0631-.331.117-.128.053-.261.1134-.378.1675-.012.0055-.024.011-.036.0165zm.819-.3136c.005.0001.004.0005 0 0zm-7.982 3.0032s.001-.0003.002-.0008c-.001.0006-.002.0008-.002.0008z" fill="#d9dae6"/><path d="m85.2078 21.0376c.0346-.1212.1609-.1913.282-.1567.1471.042.3816.1275.6258.2479.1382.0376.2735.0989.3915.1804.0871.0603.1697.1354.2363.2247.1303.1157.2458.2524.3117.4099.0971.2322.0757.4859-.1015.7245-.1561.2101-.3663.3066-.59.3053-.2107-.0013-.4129-.0886-.5807-.2006-.1703-.1136-.3236-.2647-.44-.4226-.1137-.1543-.2068-.3347-.2305-.5098-.0068-.0504-.0094-.0992-.0077-.1462-.0076-.0363-.0137-.0734-.0182-.1113-.0117-.0996.0427-.1918.1285-.2327.0192-.0269.0409-.0523.0649-.0758-.0664-.0562-.0975-.148-.0721-.237zm.7485.5216c-.0258-.0056-.0515-.01-.077-.013-.1312-.0153-.2209.0096-.2652.0418-.0164.0119-.0371.0317-.0475.0731.0917.3088.3615.5226.6015.5804.1371.0331.2125.0041.2407-.0209.0191-.017.0734-.0844.0252-.2968-.0062-.0272-.0174-.0552-.0339-.0832-.0217-.0179-.0448-.036-.0693-.0541-.1141-.0844-.2444-.161-.3745-.2273z" fill="#d9dae6"/><path d="m98.8477 27.6327c.0654.2869-.0009.5986-.2433.8882-.2395.286-.5449.392-.8383.3575-.2825-.0332-.5349-.1938-.6975-.4042s-.2547-.4985-.1608-.7863c.0487-.1492.1415-.2809.2755-.3913.0017-.0189.0038-.0379.0066-.057.0207-.145.0803-.2725.1836-.3651.1023-.0917.2277-.1315.3489-.1388.2344-.0142.4852.0889.6828.2397.2008.1534.3796.3808.4425.6573zm-1.4617.4976c.0125.0218.027.0435.0436.0649.0964.1247.2426.2128.3897.2301.0313.0037.0635.0043.0963.001-.0124-.0047-.0246-.0096-.0366-.0148-.1206-.0518-.2433-.1339-.3516-.24-.0504.0022-.1003-.0124-.1414-.0412zm.2721-.5942c.0583.2066.2246.3804.401.4562.1199.0516.1801.0307.1942.021.0044-.0031.0662-.0487.0386-.2696-.0305-.2434-.1781-.3778-.3268-.4239-.0199.0719-.0746.1326-.151.1569-.0586.0186-.1104.0385-.156.0594z" fill="#d9dae6"/><path d="m114.331 15.2723c.165.1648.301.3634.352.5802.113.4882-.01.8757-.315 1.1098-.12.0917-.259.1531-.407.1888-.069.0941-.159.1775-.274.2435-.382.2197-.747.2301-1.041.0816-.258-.1297-.432-.3662-.515-.6189-.054-.0258-.097-.0724-.117-.1333-.092-.275-.208-.6373-.207-.9866 0-.3657.129-.7364.534-.9792.208-.1247.454-.1518.689-.1266.237.0253.481.105.703.2159.222.1111.432.2578.598.4248zm-1.093-.1334c.096.0293.195.0687.291.1168.183.0917.351.2107.479.3389.131.1305.206.2569.23.3613.069.2951.012.4744-.084.5846.001-.0523 0-.1043-.005-.1552-.031-.3638-.198-.7432-.449-.9677-.078-.0699-.208-.1518-.35-.2245-.036-.0182-.073-.0364-.112-.0542zm.429 1.5944c.028-.0892.038-.1934.028-.3092-.019-.2144-.102-.4241-.21-.5683 0 .0099-.001.0199-.003.03-.017.1247-.133.2114-.258.1935-.343-.0491-.515.0447-.597.1415-.014.0166-.026.0347-.037.0541.01.0117.02.0233.031.0346.198.2125.485.3545.773.4048.096.0167.187.0226.273.019zm-1.295-.9009c-.021-.1078-.024-.2247-.005-.351.006-.0377.016-.0503.019-.0534.003-.0036.013-.0119.038-.0186.061-.0157.166-.0107.31.0281.137.0371.283.0976.408.1617.01.0052.02.0104.03.0156-.335-.0258-.607.0523-.8.2176zm.312 1.1019c.137.0793.284.1404.431.1831-.106.0088-.194-.0132-.264-.0486-.063-.0316-.119-.0779-.167-.1345z" fill="#d9dae6"/><path d="m128.453 21.4709c.362.0451.75.2426.936.5592.093.1585.153.3143.182.4642.112.2364.154.5166.077.8274-.087.3558-.411.4956-.703.5207-.298.0255-.638-.0529-.917-.2046-.008-.0041-.015-.0083-.023-.0126.018.0365.036.0733.054.1104.057.1127.011.2497-.102.306-.112.0564-.249.0107-.306-.102-.282-.5656-.576-1.2572-.202-2.0036.204-.4082.639-.5105 1.004-.4651zm.68 1.1694c-.113-.2064-.311-.3624-.529-.4375-.139-.0481-.263-.0536-.358-.0297-.004.0039-.008.0076-.012.0113-.1.0872-.174.1679-.227.2419-.017.0652-.025.1474-.019.251.018.3099.138.4678.262.5434.131.0802.307.0932.477.0342.17-.0588.309-.1812.372-.3396.03-.0753.046-.1671.034-.275z" fill="#d9dae6"/><path d="m123.913 43.3014c-.051.0231-.104.0434-.16.0608-.392.1217-.791-.0019-1.076-.2348-.284-.2324-.484-.5978-.448-.9985.031-.3341.122-.5855.318-.7447.077-.1834.211-.3541.41-.4973.365-.2611.734-.2902 1.044-.1207.29.159.482.468.575.7916.031.1059.052.2172.062.3306.102.2163.138.4687.049.7281-.075.2179-.185.39-.332.509-.133.1087-.286.1642-.442.1759zm-.04-2.07c-.029-.0261-.06-.0478-.091-.065-.105-.0575-.245-.0787-.426.0108.053-.0015.107-.0025.161-.0035.046-.0008.089.0121.125.0348.078-.0048.156.0039.231.0229zm-.072 1.6137c.158-.0956.262-.2377.323-.4044.048-.1318.069-.2791.065-.4274-.058-.0973-.141-.1854-.241-.2528-.119-.0806-.226-.1047-.295-.095-.047.0068-.104.0321-.144.1506-.039.1195-.169.1841-.288.1443-.12-.0399-.184-.169-.144-.2886.002-.0065.004-.013.006-.0194-.063.0086-.113.0201-.153.0344-.012.0625-.013.126-.007.1895.023.2342.156.4838.348.6765.175.1754.37.2755.53.2923z" fill="#d9dae6"/><path d="m157.508 16.9114c.108-.0639.248-.0276.312.081 2.743 4.6634 5.377 9.4372 7.972 14.1416.675 1.2244 1.348 2.4441 2.02 3.656.061.1102.021.249-.089.3101-.11.061-.249.0212-.31-.089-.673-1.2135-1.346-2.4344-2.022-3.6595-2.595-4.7038-5.225-9.4705-7.964-14.1279-.064-.1086-.028-.2484.081-.3123zm10.88 19.3866c.11-.0613.249-.0217.31.0883 2.89 5.1903 5.767 10.2101 8.734 14.8145.069.1059.038.2471-.068.3153-.106.0683-.247.0378-.315-.0681-2.976-4.6173-5.858-9.6476-8.749-14.8397-.062-.1101-.022-.249.088-.3103z" fill="#22222a"/><path d="m158.192 15.7708c.108-.0639.248-.0276.312.0809 3.634 6.1788 7.733 13.2579 11.635 20.076.062.1093.024.2487-.085.3113s-.249.0246-.311-.0847c-3.901-6.8169-7.999-13.8944-11.632-20.0712-.064-.1086-.028-.2484.081-.3123zm10.809 20.0722c.109-.0625.248-.0246.311.0847 3.445 6.0204 6.846 11.8332 9.945 16.6417.068.1059.038.2471-.068.3153-.106.0683-.247.0377-.316-.0682-3.105-4.8193-6.511-10.6411-9.957-16.6622-.063-.1093-.025-.2487.085-.3113z" fill="#22222a"/><path d="m168.437 36.287c.053.1141.004.2499-.11.3031-1.429.6667-2.766 1.4899-4.117 2.3212-.468.2883-.938.5775-1.413.8615-1.809 1.0794-3.655 2.1192-5.499 3.1574-1.497.8431-2.993 1.6851-4.464 2.5464-.109.0636-.248.0271-.312-.0817-.064-.1087-.027-.2484.082-.3121 1.491-.8728 2.988-1.7155 4.482-2.5571 1.834-1.0321 3.664-2.0625 5.477-3.1446.463-.2768.926-.5615 1.39-.8471 1.357-.8353 2.726-1.6785 4.181-2.3573.114-.0532.25-.0039.303.1103z" fill="#22222a"/><path d="m167.862 35.0233c.058.1118.015.2495-.097.3076-2.44 1.2687-4.879 2.6627-7.324 4.0594-.407.2329-.815.4658-1.223.6982-2.851 1.6253-5.709 3.2257-8.568 4.5982-.113.0545-.25.0066-.304-.107-.055-.1135-.007-.2498.107-.3043 2.843-1.3649 5.688-2.958 8.54-4.5833.406-.2319.814-.4645 1.221-.6972 2.444-1.3965 4.892-2.7956 7.34-4.0687.112-.0582.25-.0147.308.0971z" fill="#22222a"/><path d="m150.36 43.7872c.068-.1059.209-.1364.315-.0682.923.5948 2.007.9847 3.095 1.1056.125.0139.216.1267.202.2519s-.127.2154-.252.2015c-1.16-.1288-2.311-.5432-3.292-1.1755-.106-.0682-.137-.2094-.068-.3153z" fill="#22222a"/><path d="m153.051 44.0251c.126-.0053.233.0924.238.2182.222 5.2147 4.379 8.4095 9.43 9.51 5.053 1.1011 10.902.0767 14.368-3.0544.094-.0844.238-.0771.323.0164.084.0935.077.2377-.017.3222-3.604 3.2559-9.617 4.2845-14.771 3.1615-5.157-1.1235-9.554-4.4298-9.789-9.9363-.005-.1259.093-.2322.218-.2376z" fill="#22222a"/><path d="m160.889 14.5874c-7.858 3.0281-13.645 10.7067-13.303 20.077.411 11.2886 8.115 19.1793 19.407 20.0827.126.01.22.12.21.2456-.01.1255-.12.2192-.246.2091-11.518-.9214-19.407-8.9959-19.827-20.5207-.349-9.5828 5.573-17.4325 13.604-20.523.006-.0023.013-.0043.019-.0061 3.553-1.0317 5.987-1.2981 8.163-1.1701 1.695.0997 3.233.4395 5.004.8309.493.109 1.004.222 1.542.335.01.0021.02.0048.029.0082.74.2617 1.44.5725 2.101.9263.075.0397.121.117.121.2012v.5617c4.029 2.6822 6.772 6.6262 8.305 10.6418 1.544 4.0455 1.869 8.1881 1.022 11.2127-.532 1.9011-1.87 4.8287-3.471 7.5064-.802 1.3406-1.673 2.6242-2.547 3.6897-.871 1.0618-1.757 1.922-2.591 2.3989-.11.0625-.249.0245-.311-.0849-.063-.1094-.025-.2488.084-.3113.763-.4356 1.607-1.2452 2.465-2.2921.856-1.0432 1.715-2.3071 2.508-3.6344 1.59-2.6579 2.907-5.5471 3.424-7.3953.814-2.9063.51-6.9463-1.009-10.927-1.518-3.9765-4.24-7.8694-8.232-10.4912-.138-.0906-.222-.2119-.254-.3491-.029-.1299-.007-.2525.023-.3461.011-.0318.023-.062.036-.0902-.575-.295-1.178-.557-1.812-.782-.544-.1145-1.059-.2281-1.552-.337-1.764-.3897-3.256-.7194-4.911-.8168-2.11-.1241-4.488.131-8.001 1.1501z" fill="#22222a"/><path d="m158.034 16.7431c.075.1008.055.2438-.046.3194-5.428 4.0712-7.904 8.809-8.636 13.5955-.734 4.7949.28 9.6579 1.87 13.9724.044.1182-.017.2494-.135.2929-.118.0436-.25-.0169-.293-.1351-1.604-4.3537-2.643-9.2993-1.893-14.1991.75-4.9081 3.292-9.7509 8.813-13.8916.101-.0756.244-.0552.32.0456z" fill="#22222a"/><path d="m157.169 17.081c.015-.125.128-.2144.253-.1995.219.0261.442.0506.668.0755.999.1099 2.05.2256 3.018.502.121.0346.191.1608.156.282-.034.1211-.161.1912-.282.1566-.926-.2646-1.93-.3753-2.926-.4852-.23-.0254-.46-.0507-.688-.0779-.125-.0149-.214-.1284-.199-.2535z" fill="#22222a"/><path d="m176.724 15.047c-4.978-1.3576-9.629-1.0242-12.641-.004-1.721.583-3.156 1.3521-4.75 2.2631-.109.0625-.249.0245-.311-.0849-.063-.1094-.025-.2487.085-.3112 1.599-.9139 3.066-1.7014 4.83-2.2991 3.104-1.0516 7.849-1.3837 12.907-.004.122.0331.193.1585.16.2801-.033.1215-.158.1932-.28.16z" fill="#22222a"/><path d="m177.953 13.9973c.116.0507.168.1852.117.3006-.498 1.1349-1.01 2.2632-1.522 3.39-.022.0501-.045.1003-.068.1505-.535 1.1773-1.068 2.3534-1.584 3.5367-2.114 4.846-3.927 9.7075-5.536 14.7357-.038.12-.167.1862-.287.1478s-.186-.1668-.148-.2868c1.614-5.042 3.432-9.918 5.553-14.7791.518-1.1869 1.052-2.3659 1.587-3.5429.022-.0499.045-.0998.068-.1497.511-1.1275 1.023-2.2534 1.52-3.3856.05-.1154.185-.1678.3-.1172z" fill="#22222a"/><path d="m176.899 51.3152c.005-.1259.111-.2239.237-.2188.51.0204 1.01.0967 1.496.1707.041.0064.082.0127.124.0189.528.0803 1.042.1524 1.564.1524.126 0 .228.1021.228.2281 0 .1259-.102.2281-.228.2281-.561 0-1.105-.0774-1.633-.1575-.04-.0061-.08-.0122-.12-.0183-.49-.0747-.965-.1472-1.45-.1666-.125-.005-.223-.1111-.218-.237z" fill="#22222a"/><path d="m148.751 42.2721c.087-.0919.231-.0965.323-.0103l4.62 4.3341c.092.0862.097.2305.011.3224-.087.0919-.231.0965-.323.0103l-4.62-4.3341c-.092-.0862-.097-.2305-.011-.3224zm1.829 3.6497c.087-.0918.231-.0965.323-.0103l5.107 4.7903c.092.0862.096.2306.01.3225-.086.0918-.231.0965-.322.0103l-5.107-4.7903c-.092-.0862-.097-.2306-.011-.3225z" fill="#000"/><path d="m147.42 35.7274c.086-.0919.23-.0965.322-.0104l1.384 1.2984c.092.0862.097.2305.011.3224-.087.0919-.231.0965-.323.0103l-1.384-1.2983c-.092-.0862-.097-.2306-.01-.3224zm0 1.934c.086-.0918.23-.0965.322-.0103l1.825 1.7118c.092.0862.096.2306.01.3225-.086.0918-.23.0965-.322.0103l-1.825-1.7118c-.092-.0862-.097-.2306-.01-.3225zm.679 2.3297c.086-.0919.231-.0965.323-.0103l1.945 1.8249c.092.0862.096.2305.01.3224s-.23.0965-.322.0103l-1.946-1.8249c-.091-.0862-.096-.2305-.01-.3224zm3.891 3.6498c.086-.0919.23-.0965.322-.0104l.973.9125c.092.0862.097.2305.01.3224-.086.0919-.23.0965-.322.0103l-.973-.9124c-.092-.0862-.096-.2306-.01-.3224zm.973-.7799c.086-.0919.23-.0965.322-.0103l1.072 1.0057c.092.0862.097.2305.011.3224-.087.0919-.231.0965-.323.0103l-1.072-1.0057c-.092-.0862-.097-.2306-.01-.3224zm1.434-.5888c.086-.0919.23-.0965.322-.0103l.973.9124c.092.0862.096.2306.01.3225-.086.0918-.23.0965-.322.0103l-.973-.9125c-.092-.0862-.096-.2305-.01-.3224z" fill="#000"/><path d="m147.256 29.9661c.086-.0919.231-.0965.323-.0103l1.471 1.3803c.092.0861.096.2305.01.3224s-.23.0965-.322.0103l-1.472-1.3802c-.091-.0862-.096-.2306-.01-.3225zm-.292 1.6598c.086-.0919.23-.0965.322-.0104l1.825 1.7118c.092.0862.096.2306.01.3225s-.23.0965-.322.0103l-1.825-1.7118c-.092-.0862-.097-.2306-.01-.3224zm.292 1.9666c.086-.0919.231-.0965.323-.0103l1.471 1.3803c.092.0862.096.2305.01.3224s-.23.0965-.322.0103l-1.472-1.3802c-.091-.0862-.096-.2306-.01-.3225zm8.524 7.9954c.086-.0918.23-.0965.322-.0103l1.075 1.008c.092.0862.096.2306.01.3225-.086.0918-.231.0965-.322.0103l-1.075-1.008c-.092-.0862-.097-.2306-.01-.3225zm1.074-.6843c.086-.0919.231-.0965.323-.0103l1.058.993c.092.0862.097.2306.011.3225-.087.0918-.231.0965-.323.0103l-1.058-.9931c-.092-.0861-.097-.2305-.011-.3224zm1.333-.6843c.086-.0919.23-.0965.322-.0103l1.095 1.0271c.092.0862.096.2305.01.3224s-.23.0965-.322.0103l-1.095-1.0271c-.092-.0862-.097-.2305-.01-.3224z" fill="#000"/><path d="m148.671 25.7039c.086-.0919.23-.0965.322-.0103l1.268 1.1894c.092.0861.096.2305.01.3224s-.23.0965-.322.0103l-1.268-1.1894c-.092-.0861-.097-.2305-.01-.3224zm-.572 1.5183c.082-.0924.222-.1035.317-.025l.494.4084c.145.1088.297.223.505.4179.09.0843.097.2247.015.3171-.081.0925-.221.1036-.316.0251l-.486-.4015c-.147-.11-.301-.2256-.514-.4248-.089-.0843-.096-.2247-.015-.3172zm-.222 1.3634c.086-.0919.23-.0965.322-.0103l1.216 1.1405c.092.0862.097.2306.01.3225-.086.0918-.23.0965-.322.0103l-1.216-1.1406c-.092-.0862-.096-.2305-.01-.3224zm11.672 10.9492c.086-.0919.231-.0965.323-.0103l.972.9125c.092.0861.097.2305.011.3224-.087.0919-.231.0965-.323.0103l-.972-.9124c-.092-.0862-.097-.2306-.011-.3225zm.973-.7799c.086-.0918.23-.0965.322-.0103l1.041.9764c.092.0862.097.2305.01.3224-.086.0919-.23.0965-.322.0103l-1.041-.9763c-.092-.0862-.096-.2306-.01-.3225zm1.497-.5298c.086-.0918.231-.0965.322-.0103l.91.8535c.092.0862.097.2305.011.3224-.087.0919-.231.0965-.323.0103l-.91-.8534c-.092-.0862-.096-.2306-.01-.3225z" fill="#000"/><path d="m150.796 22.0892c.086-.0919.23-.0965.322-.0103l.846.7935c.092.0862.097.2305.01.3224-.086.0919-.23.0965-.322.0103l-.846-.7935c-.092-.0862-.097-.2305-.01-.3224zm-.867 1.1213c.086-.0919.231-.0965.323-.0103l.866.8127c.092.0862.097.2306.01.3225-.086.0919-.23.0965-.322.0103l-.866-.8128c-.092-.0862-.097-.2305-.011-.3224zm-.456 1.2644c.086-.0919.231-.0965.322-.0103l.913.8559c.092.0862.096.2305.01.3224s-.23.0965-.322.0103l-.913-.8559c-.092-.0862-.096-.2305-.01-.3224zm13.687 12.8385c.086-.0919.23-.0965.322-.0103l1.141 1.0698c.091.0862.096.2306.01.3225-.086.0918-.231.0965-.323.0103l-1.14-1.0699c-.092-.0862-.097-.2305-.01-.3224zm1.14-.6225c.086-.0919.231-.0965.323-.0103l1.14 1.0699c.092.0862.097.2305.01.3224-.086.0919-.23.0965-.322.0103l-1.141-1.0699c-.091-.0861-.096-.2305-.01-.3224zm1.141-.8642c.086-.0919.23-.0965.322-.0103l1.141 1.0699c.091.0862.096.2305.01.3224s-.231.0965-.323.0103l-1.14-1.0699c-.092-.0862-.097-.2305-.01-.3224zm5.655 5.3047c.086-.0918.23-.0965.322-.0103l1.946 1.8249c.092.0862.096.2306.01.3224-.086.0919-.231.0965-.322.0103l-1.946-1.8248c-.092-.0862-.096-.2306-.01-.3225zm2.315 4.106c.086-.0919.231-.0965.323-.0103l2.086 1.9574c.092.0862.097.2306.011.3224-.087.0919-.231.0965-.323.0104l-2.087-1.9575c-.091-.0862-.096-.2305-.01-.3224zm2.087 3.6497c.086-.0918.23-.0964.322-.0103l2.261 2.1206c.092.0862.096.2306.01.3225s-.23.0965-.322.0103l-2.261-2.1206c-.092-.0862-.096-.2306-.01-.3225z" fill="#000"/><path d="m152.466 19.6893c.087-.0919.231-.0965.323-.0103l1.092 1.0243c.092.0862.096.2306.01.3224-.086.0919-.23.0965-.322.0103l-1.092-1.0243c-.092-.0862-.097-.2305-.011-.3224zm1.092-.9098c.087-.0919.231-.0965.323-.0103l.705.6614c.092.0862.096.2306.01.3224-.086.0919-.23.0965-.322.0104l-.705-.6614c-.092-.0862-.097-.2306-.011-.3225zm-1.804 1.9341c.086-.0919.231-.0965.323-.0103l.853.8005c.092.0862.097.2306.01.3225-.086.0919-.23.0965-.322.0103l-.853-.8006c-.092-.0861-.097-.2305-.011-.3224zm12.546 8.1422c.086-.0919.231-.0965.323-.0103l3.193 2.9956c.092.0862.097.2306.01.3225-.086.0919-.23.0965-.322.0103l-3.193-2.9957c-.092-.0861-.097-.2305-.011-.3224zm2.271 4.0638c.086-.0919.23-.0965.322-.0103l2.52 2.3638c.092.0861.096.2305.01.3224s-.23.0965-.322.0103l-2.52-2.3638c-.092-.0862-.097-.2305-.01-.3224zm.467 2.1303c.086-.0919.23-.0965.322-.0103l3.079 2.8881c.092.0862.096.2305.01.3224s-.23.0965-.322.0103l-3.079-2.8881c-.092-.0861-.097-.2305-.01-.3224z" fill="#000"/><path d="m154.492 17.8297c.086-.0919.23-.0965.322-.0103l.684.6419c.092.0862.097.2306.011.3225-.087.0919-.231.0965-.323.0103l-.684-.6419c-.092-.0862-.097-.2306-.01-.3225zm.868-.8777c.086-.0919.23-.0965.322-.0103l.936.8777c.092.0862.097.2306.01.3224-.086.0919-.23.0965-.322.0104l-.936-.8778c-.092-.0862-.096-.2305-.01-.3224zm1.089-.9125c.086-.0918.231-.0964.322-.0103l4.378 4.106c.092.0862.096.2306.01.3224-.086.0919-.231.0965-.322.0103l-4.378-4.1059c-.092-.0862-.096-.2306-.01-.3225zm3.517 5.2333c.086-.0919.231-.0965.323-.0103l2.737 2.5677c.092.0862.096.2305.01.3224s-.23.0965-.322.0103l-2.738-2.5677c-.091-.0862-.096-.2305-.01-.3224zm2.053 3.6181c.086-.0919.231-.0965.323-.0103l3.421 3.2096c.092.0862.097.2305.01.3224-.086.0919-.23.0965-.322.0103l-3.422-3.2096c-.091-.0862-.096-.2305-.01-.3224z" fill="#000"/><path d="m158.141 15.3527c.086-.0919.23-.0965.322-.0103l1.369 1.2838c.092.0862.097.2306.01.3224-.086.0919-.23.0965-.322.0104l-1.369-1.2839c-.092-.0862-.096-.2305-.01-.3224zm1.321-.4532c.086-.0919.23-.0965.322-.0103l.973.9124c.092.0862.097.2305.01.3224-.086.0919-.23.0965-.322.0103l-.973-.9124c-.092-.0862-.096-.2305-.01-.3224zm1.332-.6844c.086-.0918.231-.0965.323-.0103l1.212 1.1376c.092.0862.097.2305.011.3224-.087.0919-.231.0965-.323.0103l-1.212-1.1375c-.092-.0862-.097-.2306-.011-.3225z" fill="#000"/><path d="m162.42 13.7584c.086-.0918.23-.0965.322-.0103l.973.9125c.092.0862.096.2305.01.3224s-.23.0965-.322.0103l-.973-.9124c-.092-.0862-.096-.2306-.01-.3225zm1.424-.3567c.086-.0918.23-.0965.322-.0103l.867.8129c.092.0862.096.2306.01.3225s-.231.0965-.322.0103l-.867-.8129c-.092-.0862-.097-.2306-.01-.3225zm1.824-.2223c.087-.0918.231-.0965.323-.0103l.684.642c.092.0862.097.2305.011.3224-.087.0919-.231.0965-.323.0103l-.684-.6419c-.092-.0862-.097-.2306-.011-.3225z" fill="#000"/><path d="m167.336 13.0744c.086-.0919.23-.0965.322-.0104l.635.5954c.092.0862.096.2305.01.3224s-.23.0965-.322.0103l-.635-.5953c-.092-.0862-.096-.2306-.01-.3224zm1.804 0c.086-.0919.23-.0965.322-.0104l.635.5954c.092.0862.096.2305.01.3224s-.23.0965-.322.0103l-.635-.5953c-.092-.0862-.096-.2306-.01-.3224z" fill="#000"/></g><path d="m237.589 85.0896c1.658-.8274 3.125-3.2776 3.763-4.6778.415-.9228.766-3.0548 2.488-4.0413s3.157 2.2911 2.391 3.7231c-1.403 2.6412-3.571 6.1734-5.708 5.7597-3.317-.6683-2.934-.7637-2.934-.7637z" fill="url(#c)" opacity=".69"/><path d="m237.461 85.0575c1.659-.8274 3.253-1.6547 3.891-3.0867.415-.9228 2.551-3.8504 4.273-4.8686 1.722-1.0183 1.786 2.5457 1.021 3.9776-1.403 2.6412-3.189 5.537-5.326 5.1233-3.316-.6683-3.859-1.1456-3.859-1.1456z" fill="url(#e)" opacity=".22"/><path d="m237.63 84.7776c1.659-.8274 2.105-1.082 2.934-1.8457.351-.3182 1.148.5092 2.519.7001.798.0955-1.339 2.0048-2.71 1.782-3.317-.5091-2.743-.6364-2.743-.6364z" fill="url(#f)" opacity=".65"/><path d="m239.654 88.3683c.814.1518 2.44-.1895 2.881-.3502 3.272-1.0343 3.512-3.3199 5.24-2.389 1.76.9355.047 5.8088-1.578 5.9246-2.989.2055-4.391-.3228-6.419-1.8456-.318-.2402-.124-1.3398-.124-1.3398z" fill="url(#h)" opacity=".8"/><path d="m243.781 88.4686c.428-.0661-.042 1.6053-.05 2.3134-.002.4509-1.232-.3744-3.032-.381-.094-.0139-.979-1.4332-.799-1.5678.858-.5832 2.559-.5589 3.881-.3646z" fill="#ffc5a1" opacity=".65"/><g opacity=".65"><path d="m241.198 99.9522c1.208.0538 1.384-.3213 2.635-1.2232.821-.5698 3.166-3.1467 5.141-3.1543 1.976-.0077 2.493 4.1014 1.543 5.3993-1.629 2.258-2.817 3.163-5.467 1.895-.749-.352-1.917-.596-3.717-.229-1.319.292-.135-2.6878-.135-2.6878z" fill="url(#j)" opacity=".2"/><path d="m241.027 102.371c1.778-1.294-1.896-.34 1.906-4.895 1.176-1.3521 1.592-4.9727 3.921-5.0603 2.329-.0877 3.979 5.7639 1.916 7.7463-1.53 1.464-4.905.707-5.772.86-.546.104-1.848 1.45-1.971 1.349z" fill="url(#l)" opacity=".8"/><path d="m242.835 98.8217c.419-.109.092 1.5043.158 2.1773.043.449-.659.482-1.973 1.381-.066.061-.025-2.3.173-2.4504.793-.635.339-1.166 1.642-1.1079z" fill="#bbecd8" opacity=".65"/></g><path d="m194.928 88.9859c.638-1.1774.16-8.019 1.882-9.0054 1.722-.9865 6.761 3.4367 5.995 4.8686-1.403 2.6412-4.72 5.6642-6.665 4.6778-.383-.2228-.797-.3819-1.212-.541z" fill="url(#n)" opacity=".38"/><path d="m194.705 88.9222c.637-.7956.733-1.0183.924-1.4638.574-1.5593-.223-4.7732 1.499-5.7597s4.146 2.323 3.381 3.7549c-1.404 2.6412-2.169 3.6595-3.445 3.9777-.829.1909-1.69 0-2.359-.5091z" fill="url(#p)" opacity=".8"/><path d="m194.577 88.7634c1.658-.8273 1.371-1.8138 2.201-2.5457.35-.3182.701.3819 1.307 1.1774.16.1909-.414 2.0684-1.499 1.9729-.701-.0636-1.371-.2546-2.009-.6046z" fill="url(#q)" opacity=".65"/><path d="m194.577 48.9974c1.658-.8274 2.551-2.2593 3.381-3.0231.35-.3182 2.232.6683 3.635.8592.797.0955-3.827 3.4686-5.134 3.0549-.67-.2546-1.308-.541-1.882-.891z" fill="url(#s)" opacity=".65"/><path d="m194.609 48.8066c.861-2.0048 1.34-2.8003 1.786-5.0278.351-1.782-.988-5.3778.989-6.6189 1.977-1.241 5.485 3.4049 5.198 6.237-.383 3.6913-2.105 5.2824-4.784 6.4916-.478.2227-3.189-1.0819-3.189-1.0819z" fill="url(#u)" opacity=".8"/><path d="m194.833 48.902c1.052-.5728 2.615-2.4184 3.252-3.8186.415-.9228 1.116-4.3277 2.839-5.3142 1.722-.9864 4.592 2.323 4.082 3.8822-.766 2.3548-.192 3.7232-7.144 5.9506-2.105.6683-3.029-.7-3.029-.7z" fill="url(#w)" opacity=".2"/><g opacity=".65"><path d="m193.751 56.1554c1.208.0539 1.384-.3214 2.635-1.2232.822-.5699 3.166-3.1468 5.142-3.1544 1.975-.0077 2.492 4.1015 1.542 5.3998-1.629 2.2576-2.816 3.1623-5.467 1.8949-.749-.3526-1.917-.5963-3.717-.2297-1.319.2924-.135-2.6874-.135-2.6874z" fill="url(#x)" opacity=".2"/><path d="m193.58 58.5739c1.778-1.2933-1.896-.3399 1.907-4.8948 1.175-1.3521 1.591-4.9727 3.92-5.0603s3.98 5.7639 1.916 7.7468c-1.53 1.464-4.905.7069-5.772.8598-.546.1033-1.848 1.4498-1.971 1.3485z" fill="url(#y)" opacity=".8"/><path d="m195.388 55.0249c.419-.109.093 1.5044.158 2.1777.044.4489-.659.4814-1.973 1.3804-.066.0609-.025-2.2995.173-2.4503.793-.635.339-1.166 1.642-1.1078z" fill="#bbecd8" opacity=".65"/></g><path d="m188.5 82.6271c-.127-.4137.128-1.4002.606-2.1002.255-.3819 1.946 1.8774 2.456 2.9594.351.7318.096.6682-.797 1.5274-.351.3182-1.754-1.7502-2.265-2.3866z" fill="#efe59c" opacity=".65"/><path d="m188.332 82.4933-.128-2.5457c-.095-1.4638.255-3.9458 1.946-4.9641 1.69-1.0183 4.975 2.9912 4.209 4.4232-1.403 2.6411-1.244 4.5186-3.572 5.4732-.414.1591-2.455-2.3866-2.455-2.3866z" fill="url(#A)" opacity=".8"/><g opacity=".65"><path d="m184.445 20.5378c-.255-1.3046-.096-2.673-.638-4.1368-1.116-2.9275-3.125-3.5958-2.456-5.4732.67-1.87749 7.622-.4455 7.973 1.1455.638 2.9276-2.073 8.4327-4.241 8.4327-2.265-.0318-.638.0318-.638.0318z" fill="url(#C)" opacity=".17"/><path d="m184.445 20.5375c.032-.8274-.542-2.3866-.766-2.8003-1.499-3.0867-3.795-2.9912-3.125-4.8368.67-1.8775 5.74-.891 6.091.7.638 2.9276.319 4.3914-.893 6.6189-.191.35-1.307.3182-1.307.3182z" fill="url(#D)" opacity=".8"/><path d="m183.944 16.439c-.127-.4137 1.595-.191 2.296-.2864.447-.0637-.191 1.2728.064 3.0548 0 .0955-1.276 1.1774-1.435 1.0183-.702-.7637-.925-2.4502-.925-3.7867z" fill="#ffc5a1" opacity=".65"/></g><path d="m126.952 67.7942c.861-2.0048.829-3.3095 1.307-5.537.351-1.782-1.148-5.0914.829-6.3642 1.978-1.2729 6.347 2.9275 5.581 5.696-.574 2.0366-1.722 4.2004-2.392 4.7732-.446.35-5.166 1.4638-5.325 1.432z" fill="url(#E)" opacity=".8"/><path d="m126.696 68.1444c1.053-.5728 2.296-3.914 2.934-5.3142.415-.891 1.116-4.3277 2.838-5.3141 1.723-.9865 4.242 2.2593 4.082 3.8822-.255 2.7684-1.371 5.3141-4.305 5.5687-2.423.2228-5.549 1.1774-5.549 1.1774z" fill="url(#F)" opacity=".2"/><path d="m126.601 67.826c1.658-.8274 2.487-2.2912 3.284-3.0231.351-.3182 1.85.9865 2.488 1.782.159.191-.702.5728-1.786.5092-1.084-.0637-3.986.7319-3.986.7319z" fill="url(#G)" opacity=".65"/><path d="m125.758 109.402c-.287-1.304-.351-1.845-.765-3.341-.255-.955-2.679-3.596-2.009-5.473.669-1.8777 5.804-2.1323 6.155-.541.637 2.927 1.913 9.673-.287 9.642-2.233 0-3.094-.287-3.094-.287z" fill="url(#H)" opacity=".17"/><path d="m125.663 109.466-1.754-1.877c-1.021-1.05-2.36-3.182-1.69-5.06.669-1.877 5.74-.923 6.091.668.638 2.928 1.977 4.265.797 6.492-.255.414-3.444-.223-3.444-.223z" fill="url(#I)" opacity=".8"/><path d="m129.085 109.759c.159.413-2.137.063-2.806.191-.447.095-1.404-.637-2.169-1.751-.446-.668 0 .478 2.2-.191.479-.127 1.244.7 2.775 1.751z" fill="#efe59c" opacity=".65"/><path d="m109.25 117.405c.629-.538 1.384-2.019 1.536-2.463 1.249-3.197-.38-4.817 1.429-5.579 1.833-.783 4.552 3.609 3.622 4.947-1.716 2.456-3.007 3.216-5.465 3.839-.387.097-1.122-.744-1.122-.744z" fill="url(#J)" opacity=".8"/><path d="m111.92 114.255c.217-.375 1.223 1.041 1.769 1.491.35.284-1.064.724-2.199 2.121-.071.065-1.731-.137-1.722-.362.084-1.034 1.17-2.343 2.152-3.25z" fill="#ffc5a1" opacity=".65"/><path d="m108.43 60.5335c-1.052-1.1138-1.849-1.4956-2.487-2.8958-.702-1.3683-.925-2.8957-.702-4.4232.351-1.9411 3.795-.891 4.401.6365 1.116 2.7684 1.85 4.6141.67 8.0826-.159.4455-1.882-1.4001-1.882-1.4001z" fill="url(#K)" opacity=".69"/><path d="m109.547 61.4245c-.765-1.1456-1.499-.8274-2.137-2.2275-.414-.891-.797-4.9005-.446-6.8734.351-1.973 3.093.2863 3.699 1.8138 1.116 2.7684 2.073 5.9506.415 7.3825-1.244 1.082-1.531-.0954-1.531-.0954z" fill="url(#L)" opacity=".22"/><path d="m110.13 62.8946c-.382-1.8138-2.2-2.482-2.71-3.4685-.224-.4137.956-.35 1.881-.7637.223-.0955 1.18-.3819.829.6364-.35 1.0183 0 3.5958 0 3.5958z" fill="#feb7d5" opacity=".65"/><path d="m99.4507 102.279c1.0523-.572 2.6153-2.418 3.2533-3.8181.414-.891 1.116-4.3278 2.838-5.3142 1.722-.9865 4.592 2.3229 4.082 3.8822-.766 2.323-.192 3.7231-7.144 5.9501-2.104.669-3.0293-.7-3.0293-.7z" fill="url(#M)" opacity=".1"/><path d="m99.2275 102.184c.8615-2.005 1.3395-2.8003 1.7855-5.0278.351-1.782-.956-5.3778.989-6.6188 1.945-1.2411 5.485 3.4049 5.198 6.237-.383 3.6916-3.157 6.0146-5.836 7.2236-.478.191-2.1365-1.814-2.1365-1.814z" fill="url(#N)" opacity=".6"/><path d="m99.6193 101.204c.0957-.414 1.2437-1.9415 2.0087-2.3234.447-.1909.447 2.0364 1.117 3.5324.318.732-.447.891-1.372 1.591-.382.254-2.3277-1.273-1.7537-2.8z" fill="url(#O)" opacity=".65"/><g opacity=".65"><path d="m110.679 123.547c.638-1.178.925-1.623 1.562-3.055.415-.891.287-4.455 2.009-5.474 1.723-1.018 5.836 2.101 5.071 3.533-1.403 2.641-4.784 8.623-6.442 7.191-1.722-1.432-2.2-2.195-2.2-2.195z" fill="url(#P)" opacity=".17"/><path d="m75.663 94.7798c-.287-1.3047-.4784-2.7048-.893-4.2004-.2551-.9547-2.5512-2.7367-1.8815-4.5823s5.8041-2.1639 6.1549-.5728c.6378 2.9276 0 10.6284-2.2005 10.6284-2.2323-.0319-1.1799-1.2729-1.1799-1.2729z" fill="url(#Q)" opacity=".17"/><path d="m75.376 95.5117-.7016-2.4821c-.4146-1.4001-.6378-3.914.8292-5.2505 1.4669-1.3365 5.517 1.8457 5.1024 3.4049-.7972 2.8639-1.8496 3.7549-3.9544 5.1869-.3508.2546-1.2756-.8592-1.2756-.8592z" fill="url(#R)" opacity=".8"/><path d="m76.6618 96.3773c-.3508.2545-.3827-.3819-1.2118-.6047-.4465-.1272 1.5626-2.3866 2.0729-3.9458.2551-.7637.6378.4455 1.722 1.0501.4146.1909-1.1161 2.7048-2.5831 3.5004z" fill="#efe59c" opacity=".65"/></g><path d="m83.6804 9.44063c.6378-1.17739 1.6583-2.10021 2.1685-3.564 1.0205-2.95939-.0637-4.77321 1.6264-5.759671 1.6902-.986463 6.123 4.550461 5.3576 5.982421-1.4032 2.64118-7.0159 5.15512-8.6742 3.72311-1.6901-1.49561-.4783-.38186-.4783-.38186z" fill="url(#S)" opacity=".17"/><path d="m83.6802 9.44087c.5421-.63642 1.1161-2.16385 1.2118-2.64117.8292-3.30942-.9886-4.70956.7016-5.72785 1.6902-1.0182798 4.9749 2.99121 4.2095 4.42317-1.4031 2.64118-2.5831 3.564-4.943 4.51868-.3827.1591-1.1799-.57283-1.1799-.57283z" fill="url(#T)" opacity=".8"/><path d="m83.6582 9.41527c1.4032-1.20921 1.4351-2.10021 2.2642-2.86392.3508-.31822.893.85917 1.4989 1.65471.1594.19093-2.041 1.97294-2.9977 1.782-.3189-.09546-.5741-.28639-.7654-.57279z" fill="url(#U)" opacity=".65"/><path d="m80.3381 26.0069c-.0881.4239-.2548 1.3859-.9839 1.7831-.4079.2111-1.5164-3.1265-3.0254-4.2863-.6366-.4966 1.2342.5357 2.1199-.2113.3241-.2573 2.3231 1.1366 1.8894 2.7145z" fill="#9ebcfd" opacity=".65"/><path d="m79.4239 27.6646c-.4146-1.2729-5.7084-5.6642-5.2619-7.5735.4464-1.9093 7.1434-2.5139 7.6536-.9546.9568 2.8321.8611 7.3189-1.2118 8.0189-.3827.1273-.7972.3183-1.1799.5092z" fill="url(#V)" opacity=".38"/><path d="m79.2003 27.7919c-.1594-1.0183-.2232-1.241-.4465-1.6547-.7334-1.4956-3.6036-3.1185-3.1571-5.0596s4.5603-1.4002 5.0706.1591c.9567 2.8321 1.148 4.1049.5102 5.2187-.3827.7001-1.1161 1.2092-1.9772 1.3365z" fill="url(#W)" opacity=".8"/><path d="m62.9181 7.70892c.2239-.37051 1.13-.83654 1.9709-.94536.4548-.06369-.1069 2.70142-.5749 3.80224-.3128.7489-.4351.5161-1.6706.4214-.471-.0501.1391-2.4739.2746-3.27828z" fill="#efe59c" opacity=".65"/><path d="m62.9049 7.49373 1.8153-1.78931c1.0289-1.04552 3.115-2.43543 4.9999-1.85148 1.8848.58396 1.0779 5.70395-.5002 6.0856-2.9053.71026-4.2005 2.07866-6.4623.97626-.3947-.2035.1473-3.42107.1473-3.42107z" fill="url(#X)" opacity=".8"/></svg>