<svg fill="none" height="124" viewBox="0 0 140 124" width="140" xmlns="http://www.w3.org/2000/svg" xmlns:xlink="http://www.w3.org/1999/xlink"><radialGradient id="a" cx="0" cy="0" gradientTransform="matrix(0 31.0502 -69.6573 0 69.6573 31.0502)" gradientUnits="userSpaceOnUse" r="1"><stop offset="0" stop-color="#c4c4c4" stop-opacity=".5"/><stop offset="1" stop-color="#c4c4c4" stop-opacity="0"/></radialGradient><clipPath id="b"><path d="m32.2305 0h66.4722v67.4395h-66.4722z"/></clipPath><g clip-path="url(#b)"><g clip-rule="evenodd" fill="#000" fill-rule="evenodd"><path d="m67.1955 33.8435c.6975.4894 1.243 1.4416 2.1648.4466.9913.5749 1.6622 1.4408 2.4525 2.1706 1.4578 1.3432 2.9268 2.6779 4.3958 4.0109.5472.4954 1.1253.9574 1.6536 1.4708.4811.4671.5069 1.1345.6804 1.7368.0627.2216.1495.5142.3213.6168 1.7541 1.0481 3.1088 2.5745 4.6946 3.821 1.8624 1.4648 3.7661 2.8774 5.6654 4.295 1.0781.8043 2.182 1.582 3.2781 2.3631.7311.5202 1.5008.9916 2.1975 1.5546.7396.5938 1.4423.3585 2.1484.024 1.0747-.5091 1.7035-1.4314 2.1846-2.4701.1331-.2892.2242-.5997.3144-.9069.3814-1.3064.2242-1.6855-.8513-2.4974-2.0188-1.5246-4.0221-3.0681-6.0185-4.6218-2.1751-1.6906-4.3459-3.3864-6.49-5.1129-.622-.5023-1.2061-1.0712-1.7018-1.6932-.3694-.462-.7963-.6725-1.3229-.5981-1.0214.142-1.7602-.2832-2.4999-.9266-1.5213-1.3218-3.0934-2.5864-4.662-3.8501-.646-.5201-1.3444-.9796-2.0213-1.4621-.7345-.5245-1.3307-1.1405-1.755-1.9687-.2474-.4817-.7929-.8162-1.1486-1.1619.4244-1.5126.9295-2.9329 1.1975-4.3951.1985-1.0866.1615-2.2296.1065-3.3453-.1091-2.2775-.8899-4.3549-2.0359-6.3193-.8642-1.481-1.9483-2.7643-3.2317-3.8954-.0481-.0419-.0816-.1027-.1332-.1369-1.7318-1.14732-3.3373-2.47859-5.2556-3.33845-1.0549-.47142-2.1364-.64339-3.279-.60147-1.5308.05647-3.053-.07529-4.583.34138-1.4775.40469-2.8004 1.11225-4.1517 1.75478-1.5532.73665-2.8512 1.83266-3.8056 3.28796-.3487.5339-.6537 1.0994-.9965 1.6376-1.0626 1.6658-1.243 3.5926-1.6098 5.4577-.3703 1.8669-.3978 3.7671-.0301 5.628.3746 1.9122.9836 3.7371 2.3074 5.29.981 1.1508 1.9449 2.2844 3.1596 3.1973 1.1889.8907 2.4955 1.5683 3.8914 2.038 2.2482.758 4.583.9317 6.9402.8025.5412-.0299 1.0833-.1309 1.6108-.2627.9939-.2455 1.9878-.4979 2.9594-.817.6949-.2293 1.359-.557 2.0222-.8719.426-.2027.8281-.4628 1.237-.6921zm11.5713 8.9715c2.2799-.3465 3.2111-1.8779 3.5899-3.8783.7027-.0539 1.2465.166 1.7061.6058.323.3123.6091.663.9501.9539.9742.8308 1.9552 1.6564 2.9542 2.4564 1.9475 1.5657 3.8975 3.1263 5.8682 4.6603 1.4165 1.1011 2.8752 2.1492 4.3021 3.2349.8075.6161.9621 1.0456.6511 1.9935-.1873.5707-.4776 1.1089-.7379 1.6539-.3685.7657-.9948 1.2551-1.7988 1.4784-.2809.0813-.6624.0873-.9089-.0419-.823-.4235-1.6391-.8804-2.3985-1.4074-1.6064-1.1123-3.2059-2.2374-4.7479-3.4335-2.2773-1.7642-4.5031-3.5968-6.7452-5.4029-.3479-.2798-.6675-.5938-1.0137-.877-.6408-.5236-1.3298-1.007-1.6708-1.9961zm-35.4364-19.7116c.0472-.7332.0996-1.4656.1357-2.2005.1263-2.6968.8883-5.219 2.2919-7.5111.8144-1.3304 1.7972-2.5727 3.2859-3.2803.8668-.41065 1.7224-.85128 2.5608-1.31671 1.347-.74948 2.8099-1.05236 4.3236-1.16358.7679-.05647 1.5428-.10353 2.3108-.07529.9853.03165 1.9844.02053 2.9096.49024 1.4337.73066 2.7773 1.58453 4.0976 2.50684 2.0377 1.4194 3.7136 3.1211 4.8278 5.3533 1.0584 2.121 1.7027 4.3447 1.6863 6.7283-.0163 2.18-.5884 4.2308-1.5686 6.1712-.2594.5134-.5618 1.0054-.8384 1.5101-1.2989 2.3734-3.273 3.8963-5.8664 4.639-1.0455.2994-2.1012.5766-3.1527.8555-.3101.0813-.6323.1985-.9432.1849-1.2731-.0617-2.5437-.196-3.8193-.2524-2.1786-.0959-4.1681-.8488-5.9738-1.9585-1.9002-1.1678-3.407-2.8276-4.5744-4.7262-1.1116-1.8078-1.5704-3.8364-1.6932-5.9548zm28.5177 8.1776c.1503.0984.3702.2233.5686.3791 1.8435 1.4399 3.6914 2.8704 5.5134 4.3352.9939.7982 1.9543 1.6427 2.9061 2.4905.6701.5964.8333 1.2902.4966 1.9773-.305.6194-.7878 1.0874-1.3934 1.4091-.5635.2995-1.0695.2558-1.5875-.1951-.8178-.7169-1.6992-1.3612-2.5505-2.0414-.2277-.1788-.4519-.3602-.6589-.5595-1.5652-1.5161-3.1269-3.0322-4.6801-4.5611-.2182-.2147-.3788-.4885-.5214-.6776.6683-.8984 1.2774-1.7137 1.9071-2.5565zm-4.0075 2.1843c.9501-1.3407 1.8556-2.618 2.7636-3.8997.8564.7238.8324.7486.4982 1.6333-.4278 1.1311-1.353 1.8224-2.2052 2.5727-.4123.3628-.5575.2875-1.0566-.3063z"/><path d="m44.3948 21.7813c-.0438 1.7634.348 3.4446.9596 5.0676.9638 2.5565 2.7584 4.4413 5.0572 5.8547 1.5411.9463 3.1965 1.6273 5.0211 1.8327.3453.0385.6812.1719 1.0205.2652 1.5094.4081 2.999.1625 4.4748-.1609 1.0652-.2327 2.1373-.4765 3.1535-.8555.6993-.2644 1.445-.6494 1.9295-1.1919 1.127-1.2585 2.2661-2.5556 3.108-4.0058 1.091-1.8788 1.8349-3.9031 1.5153-6.2046-.2508-1.8155-.4827-3.6217-1.3581-5.2515-.5721-1.0652-1.2121-2.109-1.9509-3.0647-1.5136-1.9524-3.4886-3.4095-5.6731-4.50033-1.7327-.86413-3.6621-1.18154-5.6139-.87268-1.2911.20363-2.5934.43549-3.8373.82477-1.8384.57324-3.3967 1.60764-4.5882 3.17164-1.1537 1.5161-1.9474 3.2212-2.7575 4.9204-.1083.2276-.1744.4877-.1967.7366-.1023 1.1448-.1779 2.2896-.2638 3.4343zm.5859-1.1747c0-.4457-.0438-.8983.0112-1.339.0627-.4996.1271-1.0301.3445-1.475.707-1.457 1.3031-2.9603 2.3142-4.2796.8771-1.1456 1.877-2.1012 3.0702-2.8653.4777-.3063 1.0369-.5142 1.5876-.66562.8616-.23613 1.7627-.33795 2.6209-.58435 1.8959-.54244 3.742-.34566 5.5795.24555 1.5196.49022 2.7893 1.39462 3.9971 2.40072.4424.3679.9484.6759 1.341 1.0909 2.0119 2.1278 3.5736 4.4977 4.0332 7.4692.244 1.5819.3866 3.157-.0361 4.721-.658 2.4341-2.0248 4.4619-3.7008 6.3142-.9543 1.054-2.0625 1.7993-3.4971 2.0226-.4098.0641-.8015.2233-1.2053.3225-1.8185.4475-3.6354.8308-5.4798.1087-.2354-.0907-.5-.1087-.7551-.1506-1.9612-.3209-3.7686-1.0335-5.3587-2.2228-1.7112-1.2825-3.1776-2.8037-3.9851-4.8195-.8041-2.0131-1.1563-4.1161-.8814-6.2936z"/><path d="m49.9221 13.376c-.8453.3807-.8135 1.0523-.8401 1.6281-.0439.9249.018 1.8541.0438 2.7789.0111.4141.1219.8402.0498 1.2372-.1108.6186.2551 1.102.3522 1.6573.061.3516.4055.4594.9149.3174.067-.5656.1984-1.1867.2044-1.8087.0181-1.5332-.0455-3.0681-.0283-4.6021.0086-.5827-.3874-.8205-.6967-1.2081zm.1675 6.7967c-.0902-.0026-.1812-.006-.2723-.0086-.1125-.9668-.3823-1.9481-.2947-2.8961.0894-.936-.3805-1.9456.3033-2.9098.1245.1531.286.2566.2886.3679.0799 1.8181.2973 3.6387-.0249 5.4466z"/><path d="m66.0948 21.9844c-.4785.3987-.8067.7212-.8264 1.1892-.0602 1.2988-.0782 2.601-.1031 3.9006-.0026.1566.0361.3174.0756.4697.0962.3722.3041.652.7259.6289.5197-.0266.4656-.4501.4613-.7846-.0121-1.558-.0335-3.1177-.0713-4.674-.0069-.1985-.1392-.3953-.262-.7298zm-.2938 2.0208c.2774 1.173.3668 2.3452.0094 3.5156-.542-1.1747-.0902-2.3434-.0094-3.5156z"/></g><path d="m38.2316 59.0275c.184 1.1616.3486 1.9339.679 3.9636" stroke="#000" stroke-linecap="round"/><path d="m40.3222 46.7994c.5005-2 .5001-1.4996 1.3453-3.767" stroke="#000" stroke-linecap="round"/></g><ellipse fill="url(#a)" fill-opacity=".5" opacity=".5" rx="69.6573" ry="31.0502" transform="matrix(-1 0 -.0110375 -.999939 70 92.9517)"/><path d="m90.9047 82.736c4.8775-.6385 11.5163-7.4496 14.2263-10.7753-2.439-3.1925-11.7875-5.9859-11.7875-5.9859 2.8452-2.7941 5.6904-12.3717-8.1293-7.982-7.196 2.2858-.4065 10.3764 2.8452 9.578-.8129 3.0596-2.4387 9.9771-2.4387 13.1698 0 3.9908-.813 2.7936 5.284 1.9954z" fill="#fff"/><g stroke="#000" stroke-linecap="round" stroke-linejoin="round"><path d="m89.9858 56.3849c2.4555-.0472 4.4207 1.3678 5.5162 3.5189.7826 1.5369.2772 2.6977-.6649 3.9575-1.3529 1.8094-3.4206 3.1101-5.6928 3.4271-2.0379.2845-3.8146.1191-5.2772-1.4177-1.2362-1.2989-2.178-3.4221-1.7453-5.2223.4873-2.0269 2.8827-3.2616 4.7371-3.7484 2.4788-.6506 5.0598-.2231 7.4069.6987 1.756.6896 3.784 2.0078 3.8384 4.0646.0551 2.0805-1.7631 3.2912-3.2567 4.4522"/><path d="m93.1664 65.9321c2.1573.0416 12.7966 4.8335 11.6656 6.2219-3.961 4.8611-8.1305 8.3789-13.9095 10.6689-2.9188 1.1566-6.4906 2.1046-5.5685-2.4224 2.4881-12.2145 2.2027-9.6949 2.7633-13.734"/><path d="m96.6267 67.4927c1.5008-.6386 2.29-1.8913 3.2723-3.1772.836-1.0945 1.807-2.2705 2.202-3.6158.25-.8489.239-1.8574.229-2.7336-.03-2.5396-1.483-4.6736-3.0439-6.589-.1508-.185-.696-1.1215-.696-.4998 0 .3232.2141.4016.4674.5508"/><path d="m89.1465 70.2466c-4.7697 1.7809-9.6321 3.4085-14.5021 4.9009-1.3326.4084-2.8101.7803-4.2228.7803-.2799 0-.713-.1074-.4727-.4692.4057-.6107 1.4439-.9682 2.088-1.2443.7729-.3313 1.6023-.6946 2.4257-.8823.3156-.0719 1.2326-.3325 1.5323-.0918.6328.5084-1.0243 1.4125-1.3193 1.5045-.2813.0876-1.0492.4345-1.0492-.0918 0-.2382.4754-.9711.7271-.5508.4479.7476-1.0292.5932-1.1946.918"/><path d="m100.273 52.9883c-.2772-.4204-.6233-1.2172-1.1734-1.3667-.398-.1083-1.88-.4039-2.1712.0102-.345.4906.9373 1.3894 1.2414 1.535.4569.2188.9977.5864 1.5375.4539.5407-.1327.1636-1.0083-.0156-1.2546-.3911-.5375-.9276-.9701-1.5479-1.2137-.396-.1556-.331.0857-.1558.3672.1743.28.3743.549.5558.8261.1678.2564.6047.2357.8882.2754"/><path d="m89.8008 61.8931c-3.7398 2.9375-6.7457 2.3709-7.475 1.739"/></g><path d="m26.5916 79.955c1.8987-2.0683 6.2031-7.8314 10.1207-11.0947l8.8714-5.175s-6.1736-3.7159.1426-9.1874c2.9048-2.5164 7.8438-3.0622 9.8399.2207 4.1039 6.7495-2.8541 9.8411-2.8541 9.8411-4.5742 6.5839 1.2939 18.6625.6481 19.6353s-18.6571 2.0149-26.7686-4.24z" fill="#fff"/><path d="m38.9976 62.6606c.261.522 2.2844 2.6098 3.2634 3.5885l.9791.6524 1.6321-1.3052c-.7615-.435-2.4804-1.5658-3.2636-2.6097-.979-1.305-.9788-2.9363-.9786-4.2413.0001-1.044.8709-4.3503 1.3062-5.8729-.4351-.1087-1.6319.3917-2.9378 3.263-1.6324 3.5891-.3271 5.8727-.0008 6.5252z" fill="#fff"/><path d="m43.567 64.9441c-1.9581-.9786-3.1377-3.3155-3.0501-4.8528.0956-1.6787.8221-3.219 1.3605-4.7854.1695-.493.7879-1.8577.3493-2.379-.2938-.3493-1.1335.533-1.2874.6889-1.4399 1.4583-2.3055 3.5049-2.5256 5.5287-.3044 2.7993 1.1774 5.0802 3.4398 6.5339" stroke="#000" stroke-linecap="round" stroke-linejoin="round"/><path d="m45.2296 63.8884c-.0425.1923-.0907.4655-.1876.6344-14.4009 3.7913-16.362 16.7019-16.6867 17.1695" stroke="#000" stroke-linecap="round" stroke-linejoin="round"/><path d="m27.377 81.0386c3.5948 2.8664 20.9018 6.1063 27.7496 3.9147" stroke="#000" stroke-linecap="round" stroke-linejoin="round"/><path d="m52.1891 65.3768c-3.591 6.5259-1.6331 13.0515 2.6101 19.5768" stroke="#000" stroke-linecap="round" stroke-linejoin="round"/><path d="m45.5642 54.849c-.725.4718-1.6632 1.0887-2.3236 1.6966-.7832.7211-.9938 2.2059-.807 3.2206.4543 2.4677 3.6507 4.0684 5.8004 4.7295 1.0299.3168 2.2284.5787 3.3124.4794 1.106-.1014 2.1228-.6552 2.9976-1.3081 1.2331-.9202 1.9646-2.0464 2.4278-3.5103.4112-1.2999.5822-2.4451-.1158-3.667-2.1538-3.7708-8.5212-4.2278-11.8532-1.979-1.9184 1.2948-3.6033 3.6907-2.8069 6.1121.8081 2.4572 3.6414 4.2633 5.9375 4.6916" stroke="#000" stroke-linecap="round" stroke-linejoin="round"/><path d="m50.0429 59.44c1.6864 1.9154 6.2569.9365 4.8373-1.1859" stroke="#000" stroke-linecap="round" stroke-linejoin="round"/><path d="m53.3626 73.4274c2.9382-1.6312 6.8558-2.6098 7.1823-2.6098.6529.2175 1.3059.8483-1.3059 1.6312-3.2646.9787-6.2027 4.2412-7.1821 5.8725-.9793 1.6312-2.2852 2.6099-3.2646 2.9362-.7835.2609-.9794-.7613-.9794-1.3051.8705-1.6313 3.1992-5.22 5.5497-6.525z" fill="#fff"/><path d="m67.0743 71.7966-.653-1.6313c.9794.3262 4.2441.3263 5.5499.0001 1.0447-.2609 3.6999-1.8486 4.897-2.6099.8705-.3262 2.5464-.7177 2.2853.3263-.3265 1.3051-3.9176 2.9362-5.5499 3.915-1.3058.7829-4.897.3261-6.5293-.0002z" fill="#fff"/><path d="m75.4536 93.1178c-.4669 1.07-17.0734 4.8146-26.1493.062 3.7316-7.68 6.967-15.8921 10.5398-23.4232 0 0-6.726-2.5885-1.4568-9.0723 2.4234-2.9819 7.1926-4.3762 9.7291-1.4895 5.215 5.935-1.1001 10.1863-1.1001 10.1863 1.972 6.4315 8.9042 22.6667 8.4373 23.7367z" fill="#fff"/><path d="m59.5308 70.0185c-.0084.1968-.0084.4742-.0745.6574-.432 1.1978-1.9038 4.3421-2.1423 4.8588-2.4072 5.2147-4.923 10.379-7.3272 15.5948-.3561.7728-.5848 1.5505-.7468 2.3807" stroke="#000" stroke-linecap="round" stroke-linejoin="round"/><path d="m48.6172 92.5615c4.1174 3.7058 20.5383 5.1335 26.8023-.0961" stroke="#000" stroke-linecap="round" stroke-linejoin="round"/><path d="m67.2305 70.3496c.0396.5436.1356.8485.3297 1.4394 1.36 4.1399 2.8962 8.2242 4.374 12.3229.7706 2.1373 1.5654 4.2766 2.2316 6.4496.3693 1.2043.723 2.4108 1.1155 3.6082.1868.5698.456 1.113.5616 1.7041" stroke="#000" stroke-linecap="round" stroke-linejoin="round"/><path d="m58.2888 61.0574c-.6321.5904-1.4488 1.3606-1.9934 2.0739-.646.8459-.5953 2.3446-.2349 3.3114.8763 2.3514 4.3025 3.3733 6.5345 3.6514 1.0694.1333 2.2953.1834 3.3455-.1025 1.0716-.2917 1.9768-1.0135 2.7248-1.8081 1.0544-1.1202 1.579-2.356 1.7807-3.878.1791-1.3514.1483-2.5088-.7514-3.5911-2.7766-3.3397-9.127-2.6853-12.0175.1073-1.6643 1.6078-2.9072 4.2594-1.7019 6.5059 1.2231 2.2795 4.3274 3.5666 6.6631 3.5902" stroke="#000" stroke-linecap="round" stroke-linejoin="round"/><path d="m59.565 70.8177c-2.2852.9788-5.5605 2.0495-7.5085 3.915-.572.5478-5.5497 5.2202-3.2644 6.5253 2.2853.0001 2.7748-2.9363 4.2438-4.5676 1.7629-1.9576 3.9175-3.5889 5.8763-4.2413" stroke="#000" stroke-linecap="round" stroke-linejoin="round"/><path d="m67.7273 71.9228c3.9177 1.1782 9.1101-1.118 10.4469-3.0629 1.9587-1.9575.2057-2.8967-2.6118-.6526-2.0116 1.6022-4.5704 2.9362-8.4881 1.9573" stroke="#000" stroke-linecap="round" stroke-linejoin="round"/></svg>