<svg fill="none" height="92" viewBox="0 0 202 92" width="202" xmlns="http://www.w3.org/2000/svg"><path d="m85.9161 51.1564c0 18.8614-15.2411 34.1516-34.042 34.1516s-34.0421-15.2902-34.0421-34.1516c0-18.8613 15.2412-34.1515 34.0421-34.1515s34.042 15.2902 34.042 34.1515z" fill="#01c9cc" opacity=".5"/><path d="m45.3669 55.6761-14.0173 21.5959c10.8134 10.8481 30.8715 7.5334 39.5489 4.52-4.6725-8.203-13.3165-24.9105-10.513-26.1159 3.5043-1.5066 10.2805-8.2675 7.0086-15.0668-7.0086-14.5647-19.9504-13.6027-28.0346-4.0179-5.5068 6.5291.6675 15.2343 6.0074 19.0847z" fill="#fff"/><g clip-rule="evenodd" fill="#000" fill-rule="evenodd"><path d="m53.7684 29.6935c-5.0615-.3775-10.2746 2.2278-14.2948 6.9943-2.705 3.2071-2.549 6.9498-1.0411 10.3899 1.5099 3.4444 4.3688 6.5636 7.0216 8.4764l.1159.0835-14.0289 21.6137c5.3635 5.3193 12.9937 7.1789 20.3864 7.3284 7.3335.1483 14.4096-1.3871 18.7506-2.871-2.3324-4.1046-5.6101-10.2468-7.9771-15.5379-1.1981-2.6783-2.1659-5.1452-2.6583-7.0214-.2458-.9366-.3762-1.7372-.3525-2.3477.0234-.6028.2013-1.0771.6355-1.2637 1.7211-.74 4.2689-2.7851 5.9778-5.491 1.7066-2.7023 2.5607-6.036.9549-9.3731-3.4877-7.2477-8.435-10.6034-13.49-10.9804zm.0224-.2992c5.1891.387 10.217 3.8326 13.7379 11.1496 1.6661 3.4622.7681 6.9086-.9715 9.6633-1.7374 2.7509-4.3298 4.8397-6.113 5.6064-.2667.1146-.432.4262-.4542.9998-.022.5659.0995 1.3325.3429 2.2599.4859 1.8517 1.4455 4.3004 2.642 6.975 2.3919 5.3468 5.7184 11.5699 8.0534 15.6691l.0892.1568-.1704.0592c-4.3526 1.5115-11.5543 3.0974-19.0257 2.9463-7.4695-.1511-15.233-2.0391-20.6786-7.5022l-.0856-.0859 14.0059-21.5781c-2.6543-1.9442-5.4918-5.0625-7.0053-8.5154-1.5375-3.5074-1.7153-7.3818 1.0865-10.7037 4.064-4.8185 9.3639-7.4866 14.5465-7.1001z"/><path d="m52.6943 29.5654c5.4924.1224 11.0058 2.5502 14.0191 7.2908 1.9852 3.1233 2.0959 8.1161.7064 12.2864-1.3867 4.162-4.3663 7.7616-8.7914 7.7717-5.3691.3946-9.5024-.0541-12.6472-1.2261.1929.0907.3873.1782.5828.2623.2542.1092.3719.4045.263.6594-.1089.255-.4032.3731-.6574.2638-3.8152-1.6403-7.2536-4.53-8.9839-8.1567-1.7444-3.6561-1.7286-8.0171 1.3038-12.4789 3.1359-4.614 8.7127-6.795 14.2048-6.6727zm-12.9838 21.2827c-1.5798-2.408-2.3249-5.3909-2.5806-8.735-.3329 2.2084.0631 4.2927.9589 6.1702.4309.9033.9793 1.7618 1.6217 2.5648zm-1.6869-11.7409c.0004 5.4878.9593 9.9568 3.9271 12.9149 2.9629 2.9531 8.0532 4.5216 16.6223 3.8891.0122-.0009.0245-.0013.0367-.0013 3.7968 0 6.5282-3.0868 7.8605-7.0857 1.3316-3.9965 1.1669-8.6466-.601-11.4279-2.7934-4.3946-7.9561-6.7099-13.1971-6.8267-5.2414-.1167-10.4553 1.9673-13.3554 6.2344-.5268.7752-.9552 1.5439-1.2931 2.3032z"/><path d="m38.3651 36.1534c3.1711-4.6659 8.8024-6.8615 14.3321-6.7383 5.5303.1231 11.0962 2.5679 14.1424 7.3603 2.0176 3.1742 2.1202 8.2181.7221 12.4142-1.3944 4.1851-4.4099 7.8611-8.928 7.8743-4.806.3528-8.6355.0323-11.6588-.8832.0575.1524.0586.3263-.0104.4878-.1414.3309-.5239.4848-.8545.3426-3.8406-1.6512-7.3107-4.5632-9.0601-8.2299-1.7675-3.7047-1.7469-8.1223 1.3152-12.6278zm14.3255-6.4384c-5.4544-.1215-10.9768 2.0449-14.0774 6.6071-3.0027 4.4181-3.0137 8.7224-1.2925 12.3299 1.7112 3.5868 5.118 6.4541 8.9078 8.0835.1776.0764.3837-.006.4601-.1849.0766-.1792-.0063-.3863-.1842-.4627-.1971-.0848-.393-.1729-.5874-.2643-.0728-.0343-.1056-.1198-.0744-.1939.0311-.0742.1152-.1105.1906-.0824 3.1172 1.1617 7.2268 1.6107 12.5838 1.217l.0106-.0008v.0004c4.3292-.0099 7.271-3.5317 8.6495-7.6691 1.3809-4.1445 1.2621-9.0863-.6907-12.1585-2.9804-4.6889-8.4413-7.0998-13.8958-7.2213zm-.0223 1.0042c-5.2036-.1159-10.3631 1.9535-13.2279 6.1687-.5154.7585-.9351 1.5097-1.2672 2.2508.0042 5.4627.9648 9.8681 3.883 12.7767 2.9172 2.9076 7.9531 4.4771 16.5054 3.8458.0159-.0011.0318-.0017.0477-.0017 3.7011 0 6.3943-3.0095 7.7182-6.9831 1.3229-3.9706 1.1502-8.5697-.5853-11.3-2.7605-4.343-7.8707-6.6413-13.0739-6.7572zm-13.476 6.0001c2.9353-4.3189 8.2035-6.4176 13.4827-6.3 5.2789.1176 10.4942 2.4499 13.3204 6.8961 1.8003 2.8323 1.9569 7.5334.6167 11.5558-1.3407 4.0241-4.1102 7.1883-8.0028 7.1883-.0085 0-.0171.0003-.0257.0009-8.5858.6338-13.7305-.9338-16.7392-3.9325-3.0116-3.0018-3.9707-7.523-3.9712-13.0211 0-.021.0044-.0418.0129-.061.3419-.7679.7746-1.5444 1.3062-2.3265zm-2.0573 5.2435c.0762.0028.1382.0624.144.1384.2548 3.3306.9959 6.2855 2.5565 8.6643.0439.0669.0275.1566-.0373.2036-.0649.0471-.1552.0349-.2053-.0277-.6489-.8111-1.2036-1.6794-1.6399-2.5939-.9073-1.9016-1.3096-4.0161-.9719-6.2572.0114-.0754.0776-.1303.1539-.1275zm.0298 1.9128c.2103 1.5337.5461 2.9801 1.0456 4.3147-.6365-1.3432-1.0132-2.7915-1.0456-4.3147z"/><path d="m45.1691 55.7793c.2195.1686.2612.4838.0931.704-2.8578 3.7447-4.8567 6.9905-6.7987 10.2916-.3592.6106-.7167 1.2236-1.0775 1.8422-1.5889 2.7241-3.2415 5.5575-5.3829 8.78-.1533.2307-.4641.2931-.6942.1392-.23-.1538-.2922-.4656-.1388-.6964 2.1236-3.1957 3.7592-5.9998 5.347-8.7221.3621-.6208.7218-1.2374 1.0842-1.8534 1.9504-3.3155 3.9727-6.6006 6.8659-10.3917.1681-.2202.4823-.2621.7019-.0934z"/><path d="m44.3476 55.7823c.2184-.2861.627-.3407.9125-.1214.2851.219.3391.6282.121.914-2.8525 3.7378-4.848 6.9777-6.7887 10.2766-.359.6104-.7164 1.2231-1.0772 1.8418l-.0007.0011c-1.5885 2.7236-3.243 5.5602-5.3868 8.7863-.1992.2998-.6034.381-.9026.1809-.2989-.1999-.3794-.6046-.1803-.9041 2.1209-3.1917 3.7544-5.9923 5.3424-8.7147.3621-.6208.7218-1.2376 1.0844-1.8539 1.9517-3.3177 3.9775-6.6086 6.876-10.4066zm.7297.1165c-.1536-.118-.3734-.0888-.4912.0655-2.8879 3.7842-4.9068 7.0634-6.8559 10.3767-.3623.6157-.7218 1.2321-1.0839 1.853l-.0006.001c-1.5876 2.7219-3.225 5.5291-5.3511 8.7285-.1077.1621-.0639.381.0973.4888.1609.1076.3784.0641.4859-.0977 2.1387-3.2183 3.7893-6.0482 5.3782-8.7724v-.0001c.3608-.6186.7185-1.2318 1.0779-1.8427 1.9432-3.3032 3.9456-6.5549 6.8087-10.3065.118-.1546.0886-.3759-.0653-.4941z"/><path d="m59.6433 56.3134c.2589-.0974.5475.0342.6446.2939 3.1874 8.5273 6.5063 16.6769 10.8294 24.6281.1324.2435.043.5486-.1997.6814s-.5468.0431-.6792-.2004c-4.3568-8.0132-7.695-16.2144-10.888-24.7564-.0971-.2598.0341-.5492.2929-.6466z"/><path d="m59.5911 56.1736c.3369-.1267.7119.0447.8379.3818 3.1866 8.5251 6.5026 16.667 10.8207 24.609.1718.316.056.712-.2595.8847-.3158.1727-.7111.0558-.883-.2604-4.3618-8.0224-7.7029-16.2314-10.8967-24.7756-.1259-.3369.044-.7129.3806-.8395zm.5569.4868c-.0682-.1823-.2703-.2741-.4512-.206-.1812.0681-.2735.2711-.2053.4537 3.1922 8.5398 6.5275 16.7334 10.8793 24.7373.0928.1708.3057.2333.4754.1405.17-.093.233-.3071.14-.4782-4.3282-7.9605-7.6499-16.1178-10.8382-24.6473z"/><path d="m35.1675 20.0541c12.6338-5.0698 23.6515-5.0451 35.4668 1.3477.0149.0081.0294.0169.0434.0264 11.2011 7.6217 17.1466 15.5759 19.3793 23.2405 2.235 7.6722.7283 14.9813-2.8302 21.2581-3.5543 6.2694-9.1602 11.5216-15.1654 15.1259-5.9978 3.5998-12.4504 5.5889-17.7157 5.2587-20.7153-1.2989-35.9933-14.7254-37.0128-32.6152-.0005-.0096-.0008-.0191-.0008-.0287-.0005-10.2274 6.6062-24.4588 20.7842-32.2639.2423-.1335.5467-.0445.6797.1987.133.2431.0443.5484-.1981.6819-13.8499 7.6245-20.2588 21.5081-20.2646 31.369.9913 17.2592 15.7463 30.381 36.0748 31.6557 4.997.3133 11.2474-1.582 17.1393-5.1182 5.8844-3.5317 11.3547-8.6672 14.8091-14.7605 3.4503-6.0861 4.8849-13.1151 2.7395-20.4798-2.1462-7.3677-7.8966-15.1442-18.9593-22.6766-11.5013-6.2155-22.1906-6.2586-34.5667-1.2994-7.9133 4.4722-13.3522 10.2593-17.3128 16.6165-.1465.2352-.4554.3067-.6898.1597-.2345-.147-.3057-.4568-.1592-.692 4.0441-6.4914 9.6089-12.4102 17.6998-16.9759.0191-.0108.039-.0204.0595-.0286z"/><path d="m35.1112 19.9145c12.6694-5.084 23.7344-5.0618 35.5941 1.355.0194.0105.0382.0219.0564.0343l-.0837.1231.0837-.1231c11.2198 7.6344 17.1936 15.6144 19.439 23.3225 2.2483 7.718.7308 15.0688-2.8437 21.374-3.5692 6.2958-9.1954 11.5655-15.2188 15.1806-6.0136 3.6093-12.4966 5.6125-17.8023 5.2798-20.7727-1.3025-36.1283-14.7738-37.1531-32.7564-.0007-.0124-.0011-.0247-.0011-.0372-.0005-10.2817 6.6357-24.5637 20.8618-32.3953.3154-.1736.711-.0577.8837.2581.1726.3155.0577.7118-.2573.8853-13.7998 7.5969-20.1794 21.427-20.1869 31.2333.9882 17.1644 15.6649 30.2393 35.9341 31.5103 4.9566.3108 11.1767-1.5704 17.0527-5.0971 5.8663-3.5209 11.3163-8.6388 14.7559-14.7059 3.4341-6.0576 4.8579-13.0449 2.7259-20.3638-2.1331-7.3228-7.8536-15.072-18.8934-22.5903-11.4515-6.1863-22.0893-6.2324-34.4235-1.2922-7.8843 4.4578-13.3032 10.2243-17.2505 16.5603-.1903.3055-.5919.3987-.8969.2075-.3046-.191-.3969-.5932-.2068-.8985 4.0559-6.5102 9.6382-12.4477 17.7534-17.0272.0249-.014.0507-.0264.0773-.0371zm35.4514 1.6189c-11.7709-6.3688-22.7414-6.396-35.3397-1.3405-.0143.0058-.0282.0124-.0416.02-8.0666 4.5521-13.6138 10.452-17.6462 16.9246-.1029.1652-.0527.3827.1116.4856.164.1028.3801.053.4828-.1119 3.9723-6.3761 9.4288-12.1819 17.3664-16.6678.0058-.0033.0118-.0062.018-.0086 12.4116-4.9735 23.148-4.9328 34.6937 1.3066.0045.0025.0089.0051.0131.008 11.0814 7.5451 16.86 15.3474 19.019 22.7587 2.1586 7.4105.7134 14.4812-2.7531 20.5957-3.4693 6.1196-8.9599 11.2725-14.8624 14.8151-5.9078 3.5458-12.1886 5.4552-17.2259 5.1393-20.386-1.2783-35.2185-14.445-36.2151-31.7968l-.0005-.0087h.0003c.0057-9.9152 6.4441-23.8493 20.3422-31.5003.1698-.0935.2322-.3077.1388-.4786-.0933-.1705-.3063-.2325-.4758-.1392-14.1298 7.7786-20.707 21.9595-20.7065 32.1325 0 .0067.0002.0135.0006.0201 1.0142 17.797 16.2146 31.1788 36.8724 32.4741 5.225.3276 11.6472-1.6474 17.6291-5.2376 5.9871-3.5934 11.5728-8.8281 15.1122-15.0713 3.5423-6.2484 5.0383-13.5157 2.8167-21.1422-2.2201-7.621-8.1374-15.5495-19.3198-23.1584l.0844-.124-.0844.124c-.0098-.0066-.0199-.0128-.0303-.0184l.0713-.132z"/><path d="m63.2311 43.4897c.2301.1538.2922.4657.1389.6964-.8152 1.2267-1.6636 2.3022-2.7243 3.1029-1.0713.8089-2.3373 1.3212-3.9606 1.4588-3.6251.3073-5.988-1.0221-8.6802-3.0277-.2219-.1654-.2683-.48-.1034-.7026.1648-.2227.4784-.2692.7003-.1038 2.6222 1.9534 4.7375 3.1097 7.999 2.8332 1.4427-.1223 2.5277-.5695 3.4429-1.2605.9259-.699 1.6997-1.6634 2.4932-2.8574.1533-.2308.4642-.2932.6942-.1393z"/><path d="m62.4116 43.5456c.1992-.2998.6033-.3811.9025-.181.2989.1999.3794.6047.1804.9042-.8183 1.2315-1.6779 2.3236-2.7588 3.1396-1.0948.8265-2.3879 1.3486-4.0383 1.4885-3.6798.312-6.0798-1.0435-8.7825-3.0569-.2883-.2148-.3483-.6231-.1344-.9122.2142-.2893.6219-.3498.9106-.1348 2.6117 1.9456 4.6898 3.076 7.8967 2.8041 1.4155-.12 2.4733-.5575 3.3651-1.2307.9057-.6838 1.6684-1.6316 2.4587-2.8208zm.7357.0684c-.1609-.1076-.3784-.0642-.4859.0976-.7967 1.1989-1.5816 2.18-2.5277 2.8942-.9386.7086-2.0507 1.1656-3.5206 1.2902-3.3162.2811-5.4686-.9012-8.1013-2.8624-.1552-.1157-.3746-.0833-.4902.0727-.1157.1564-.083.3772.0726.4931 2.6817 1.9978 5.0074 3.3013 8.5779 2.9986 1.5961-.1354 2.8349-.6379 3.8829-1.4291 1.0405-.7855 1.8778-1.8444 2.6896-3.0661.1077-.1621.0639-.381-.0973-.4888z"/><path d="m9.4403 11.7357c-.4506.1122-.93076.4031-1.42482.9731-.73476.8477-1.52372 1.5262-2.48046 1.9311 2.45039.7756 4.85298 1.6724 7.24208 2.5642l.1484.0554c1.124.4195 2.2452.8374 3.3692 1.2415-.6635-1.2728-1.4444-2.5937-2.2911-3.736-1.0333-1.394-2.1136-2.4509-3.1421-2.8796-.5012-.2089-.97239-.2615-1.4212-.1497zm8.2198 7.248c-.7744-1.5874-1.7578-3.3405-2.853-4.818-1.059-1.4287-2.2736-2.6711-3.5614-3.2079-.657-.2738-1.34926-.3706-2.04663-.1969-.69559.1732-1.3443.6025-1.93913 1.2888-1.07555 1.2408-2.16104 1.963-3.73872 1.9988-.26644-.0617-.49995-.1025-.6958-.1273-.1566-.0199-.29334-.0301-.40638-.0318-.09556-.0015-.224.0015-.33515.0339-.03079.009-.08638.0275-.14601.065-.05078.032-.17984.1252-.22712.31-.05425.2121.03777.3776.1034.4567.06017.0725.12641.1123.1573.1294.1117.0621.25074.0891.34274.1046.22746.0381.58512.0653 1.08287.0653h.01217c.10981.0272.22647.0585.34957.0944 2.93665.8571 5.8001 1.9259 8.68399 3.0024l.1336.0498c1.4463.5398 2.898 1.0807 4.3628 1.5947.6208 1.3067 1.0846 2.4664 1.3268 3.1952.0874.2631.3709.4053.6332.3176s.4041-.3721.3166-.6353c-.1961-.5901-.528-1.4437-.9663-2.4268 1.0665.3587 2.141.6989 3.2266 1.01.2658.0762.5429-.0782.6189-.3449.0759-.2667-.078-.5447-.3439-.6209-1.3771-.3947-2.7376-.8373-4.091-1.3068z"/><path d="m9.16256 10.6159c.73476-.183 1.46024-.0795 2.14054.2041 1.3268.553 2.5615 1.8232 3.6242 3.2569 1.0898 1.4702 2.0675 3.2084 2.8402 4.786 1.3322.4613 2.6707.8959 4.0247 1.284.3458.0991.5453.4603.4468.8062-.0986.3461-.4586.5472-.8045.448-.979-.2806-1.9488-.5847-2.9113-.9045.3724.8555.6578 1.5973.8347 2.1298.1134.3414-.0703.7108-.4114.8249-.3413.1141-.7097-.0711-.8231-.4126-.2363-.7112-.6877-1.8422-1.2932-3.1217-1.4464-.5083-2.8798-1.0424-4.3065-1.5749l-.1336-.0499c-2.88477-1.0768-5.74308-2.1436-8.67357-2.9989-.11453-.0334-.22327-.0627-.32588-.0884-.49869-.0002-.86353-.0275-1.10152-.0674-.092-.0154-.25425-.0455-.39077-.1213-.03824-.0213-.12272-.0718-.1999-.1648-.08341-.1005-.20368-.3145-.13328-.5897.0612-.2392.22834-.3593.29253-.3997.07604-.0479.1463-.0711.18392-.0821.13424-.0391.28199-.0414.37946-.0399.11977.0019.26217.0126.42293.033.19667.0249.42889.0653.6922.1257 1.51052-.0398 2.55516-.7296 3.61012-1.9467.60986-.7036 1.28381-1.1537 2.01622-1.3361zm2.02514.481c-.6336-.2642-1.29266-.3543-1.95264-.1899-.65877.1641-1.28223.5726-1.86203 1.2415-1.09181 1.2596-2.21389 2.0134-3.84866 2.0506-.01253.0002-.02505-.0011-.03726-.0039-.26191-.0607-.49041-.1005-.68081-.1246-.15244-.0193-.28352-.029-.38983-.0306-.09366-.0015-.20277.0022-.29084.0279-.02395.007-.06488.0207-.10809.0479-.03738.0236-.12837.0899-.16172.2203-.03809.1489.02568.2661.07352.3237.04315.052.09115.081.11471.0941.08687.0483.20269.0723.29469.0877.21596.0362.56443.0633 1.05807.0633h.0119c.01223 0 .02441.0015.03629.0044.11184.0277.2305.0595.35557.096 2.94194.8586 5.80968 1.929 8.69183 3.0049l.1362.0508c1.4464.5399 2.8968 1.0803 4.36 1.5937.0377.0132.0686.041.0858.0772.6228 1.3107 1.0891 2.4761 1.3337 3.2122.0614.1847.26.284.4433.2227.1835-.0614.2833-.2608.2218-.4458-.1941-.5843-.5241-1.4331-.961-2.4131-.0242-.0543-.014-.1179.0261-.1619.04-.0441.1023-.0603.1588-.0413 1.0648.3581 2.1371.6976 3.22 1.0081.1858.0532.38-.0546.4333-.2419.0534-.1875-.0549-.3823-.2409-.4356-1.3804-.3957-2.7436-.8392-4.0988-1.3093-.0375-.0129-.0682-.0403-.0856-.0759-.7722-1.5826-1.751-3.3269-2.8388-4.7945-1.0551-1.4235-2.2496-2.6381-3.4986-3.1587zm-.3841.9275c-.4778-.1991-.91581-.245-1.32732-.1425-.41383.103-.86873.3731-1.34771.9257-.65267.753-1.35438 1.382-2.18322 1.8066 2.32763.7492 4.61285 1.6023 6.88225 2.4493l.1501.0561c1.0025.3742 2.0021.7467 3.0032 1.1094-.6204-1.1605-1.3328-2.3417-2.098-3.374-1.0296-1.389-2.0898-2.4181-3.0793-2.8306zm-1.39981-.4336c.48612-.1211.99051-.062 1.51521.1567 1.0673.4449 2.1678 1.5297 3.2049 2.9288.8528 1.1506 1.6378 2.4788 2.3035 3.7559.0286.0548.0206.1215-.02.168-.0406.0466-.1056.0634-.1637.0425-1.125-.4044-2.247-.8226-3.3709-1.2421l-.1484-.0554c-2.3897-.892-4.78874-1.7874-7.2349-2.5616-.05989-.019-.10162-.0733-.10457-.136-.00295-.0628.03352-.1207.09136-.1452.92794-.3928 1.69918-1.0532 2.42559-1.8913.50913-.5874 1.01455-.899 1.50191-1.0203z"/><path d="m46.4911 1.36439c.0759.2667-.078.54467-.3439.62087-3.5603 1.02052-7.3367 3.49068-9.338 6.60522-.0104.01619-.0207.03266-.031.04939.2276.09856.4434.20267.6446.3108.4853.26081 1.0125.86545 1.4606 1.53213.4625.688.8968 1.5265 1.1681 2.3415.2632.7907.408 1.6618.1604 2.3545-.131.3667-.3723.6817-.7443.8854-.362.1983-.8058.2684-1.3113.2346-1.0107-.0676-1.7695-.5091-2.2894-1.1785-.5075-.6535-.7651-1.4936-.8594-2.3456-.1321-1.1928.0461-2.5065.4131-3.56586-.6361-.19628-1.3292-.34112-2.0227-.40248-1.3236-.11709-2.5638.07641-3.4191.69669-.8217.59585-1.2066 1.60895-1.3767 2.82865-.1188.8522-.1252 1.7196-.1312 2.5374-.0027.3657-.0053.7214-.0179 1.0615-.0102.2772-.2425.4936-.5188.4833-.2762-.0102-.4919-.2433-.4817-.5205.0105-.284.013-.6059.0156-.9513.0065-.8443.0141-1.8295.1424-2.7495.1827-1.31.6257-2.66524 1.7817-3.50359 1.1337-.82219 2.6574-1.01028 4.0936-.88322.8034.07107 1.606.2428 2.3404.47795.0458-.08275.093-.16202.1415-.23749 2.1583-3.35888 6.16-5.9535 9.9045-7.0268.2658-.076197.5429.07823.6189.34494zm-10.1299 8.18896c-.3089.89975-.4755 2.05465-.3586 3.11045.0819.7393.2978 1.3803.6541 1.8392.344.4429.8394.7449 1.5662.7936.383.0256.6206-.035.7649-.114.1343-.0735.2243-.1824.2817-.3428.1291-.3613.0789-.9567-.1676-1.6973-.2385-.7162-.6287-1.4735-1.0486-2.0981-.4342-.646-.8474-1.07079-1.1033-1.20832-.1822-.09797-.3795-.19277-.5888-.28273z"/><path d="m45.8305.874918c.3459-.099161.7059.101941.8044.448042.0986.34591-.101.70705-.4467.80615-3.4952 1.00184-7.1959 3.41221-9.1896 6.44435.1725.0786.3379.1604.4949.24474.5196.27926 1.0638.91075 1.514 1.5805.4689.6976.9097 1.5482 1.186 2.3779.2657.7982.4245 1.7103.1593 2.4524-.142.3973-.4058.7432-.8136.9665-.3947.2161-.8694.2877-1.3933.2526-1.0534-.0704-1.8517-.5329-2.3978-1.2362-.5301-.6825-.7939-1.5523-.8901-2.4211-.1286-1.1615.031-2.4319.3708-3.48314-.5859-.17097-1.2155-.29658-1.8445-.35222-1.3066-.11559-2.5043.07868-3.3178.66869-.7717.55967-1.148 1.52167-1.3162 2.72797-.1173.8408-.1238 1.6984-.1298 2.5178v.0013c-.0027.3647-.0053.7223-.0179 1.0646-.0133.3595-.3148.641-.6743.6277-.3595-.0134-.6394-.3164-.6261-.6759.0104-.2815.0129-.601.0155-.947l.0001-.0044c.0065-.8416.0141-1.8349.1438-2.7647.1845-1.3232.6361-2.72962 1.8422-3.60426 1.1755-.85248 2.7417-1.03977 4.1949-.91121.7731.0684 1.5446.22853 2.2568.44804.028-.0476.0566-.09404.0856-.13925 2.1818-3.39538 6.2172-6.00867 9.9894-7.089902zm.5159.530212c-.0533-.1873-.2475-.29506-.4333-.24182-3.7168 1.06536-7.6848 3.64131-9.8196 6.96369-.0466.07253-.0921.14897-.1365.22905-.0346.06263-.1087.09203-.1769.0702-.7248-.23206-1.5165-.40138-2.3079-.47139-1.4193-.12556-2.9004.06334-3.9923.85524-1.106.80206-1.5404 2.1062-1.7212 3.4028-.1267.9087-.1345 1.884-.141 2.73v.0016c-.0026.3442-.0051.6679-.0157.9541-.0072.1949.1444.3579.3374.3651.1931.0072.3562-.1441.3634-.339.0124-.3374.015-.6909.0177-1.057v-.0045c.006-.815.0124-1.6906.1326-2.5525.172-1.2332.5656-2.2973 1.4372-2.92942.8971-.65055 2.1798-.84328 3.5204-.72468.7051.06238 1.4086.20948 2.0537.40856.0389.012.0712.03926.0896.07554s.0213.07847.0079.1169c-.3603 1.0401-.5351 2.3314-.4057 3.5002.0925.8353.3439 1.6457.8288 2.2701.4936.6356 1.2129 1.0561 2.1809 1.1209.4872.0326.8999-.0361 1.2292-.2165.3364-.1842.5551-.4683.6752-.8043.2299-.6434.0992-1.4735-.1615-2.2566-.2664-.8003-.6941-1.6267-1.1503-2.3053-.446-.66349-.9561-1.24128-1.4071-1.48365-.1972-.10598-.4091-.20827-.6332-.30527-.0399-.01729-.0704-.05106-.0835-.09256-.013-.0415-.0075-.08664.0153-.1237.0108-.01752.0217-.03481.0327-.05187 2.0247-3.15102 5.8348-5.63986 9.4228-6.66832.186-.0533.2943-.24811.2409-.4356zm-10.0464 8.01073c.0382-.01691.0817-.01715.12-.00066.213.09154.4142.18821.6007.28841.1496.08042.3302.2352.5236.44359.1958.2108.4124.4848.6331.8132.4262.634.8231 1.4035 1.0664 2.1344.249.748.3133 1.3844.1665 1.7951-.0683.1913-.181.3309-.3508.4239-.1769.0969-.4455.1589-.847.1321-.7695-.0515-1.3044-.3745-1.6746-.8513-.3789-.4879-.6011-1.1586-.6848-1.9147-.1196-1.0802.0505-2.2574.3658-3.17561.0136-.03948.043-.07152.0811-.08843zm.1516.34123c-.2694.85651-.4079 1.91821-.3003 2.88981.08.7226.2898 1.3339.6235 1.7637.3177.4091.7736.6902 1.4577.736.3645.0243.5712-.0347.6829-.0959.0988-.0541.1661-.1322.2124-.2617.1115-.312.0754-.8663-.1686-1.5994-.2336-.7015-.6173-1.4468-1.0308-2.0619-.2135-.3176-.4206-.579-.6039-.7764-.1857-.1999-.3396-.3263-.4459-.38344-.1341-.07209-.2769-.14259-.427-.21077z"/><path d="m7.75199 73.9353c-2.68234-.0303-4.86149-.0295-6.2076.0889-.27542.0243-.51828-.1801-.54244-.4564-.024165-.2763.17953-.5199.45495-.5442 1.40532-.1236 3.63787-.1229 6.30638-.0927.74391.0084 1.52301.0192 2.32992.0303 2.1009.0289 4.3905.0605 6.7389.0605.2765 0 .5006.2248.5006.5022s-.2241.5022-.5006.5022c-2.3557 0-4.6563-.0317-6.7593-.0606-.80523-.0111-1.58149-.0218-2.32081-.0302z"/><path d="m1.44337 72.8738c1.41422-.1244 3.65478-.1234 6.32122-.0932.7441.0084 1.52336.0191 2.33021.0302h.0001c2.1011.029 4.3897.0605 6.7368.0605.3598 0 .6506.2924.6506.6522s-.2908.6522-.6506.6522c-2.3567 0-4.6581-.0317-6.7609-.0606h-.0005c-.80524-.0111-1.5813-.0218-2.32039-.0302-2.68443-.0303-4.85555-.0293-6.19275.0884-.35843.0315-.673688-.2344-.705028-.5928-.031335-.3584.232878-.6751.591238-.7067zm6.31783.2067c-2.67058-.0302-4.89511-.0307-6.29153.0922-.19249.0169-.33566.1874-.31868.3817.01698.1942.18745.337.37987.32 1.35501-.1192 3.54219-.1198 6.22245-.0895.73945.0084 1.51582.0191 2.32089.0302h.0003c2.1031.029 4.4027.0606 6.7572.0606.1932 0 .3506-.1572.3506-.3522s-.1574-.3522-.3506-.3522c-2.3494 0-4.6398-.0316-6.7405-.0605h-.0004c-.80699-.0111-1.58591-.0219-2.3296-.0303z"/><path d="m20.5255 79.6869c.237.1427.3139.4512.1717.689-.4984.8333-2.209 3.0861-3.9036 5.2797-.7781 1.0072-1.5574 2.0078-2.2285 2.8694-.8058 1.0345-1.4557 1.8689-1.7604 2.2744-.1664.2215-.4803.2657-.7011.0987-.2208-.1669-.2648-.4818-.0984-.7033.3085-.4106.9689-1.2584 1.7825-2.303.671-.8616 1.4464-1.8571 2.2145-2.8515 1.7172-2.2228 3.3773-4.4134 3.8364-5.1812.1423-.2378.4498-.3149.6869-.1722z"/><path d="m19.7105 79.7828c.1847-.3089.5845-.4094.8929-.2238.3081.1854.4077.5859.2231.8945-.5042.843-2.2224 3.1052-3.9136 5.2944-.7781 1.0074-1.5575 2.0079-2.2285 2.8695-.8064 1.0352-1.4555 1.8685-1.7592 2.2727-.2162.2878-.6244.3454-.9115.1283-.2868-.2169-.3439-.6256-.1278-.9131.3092-.4116.9699-1.2598 1.7821-2.3026l.0019-.0025c.6711-.8616 1.4463-1.8569 2.2142-2.851 1.7206-2.2272 3.3731-4.4085 3.8264-5.1664zm.7382.0332c-.1658-.0998-.381-.046-.4808.1208-.465.7775-2.1326 2.9774-3.8464 5.1958-.7683.9947-1.5438 1.9904-2.2149 2.852-.8142 1.0453-1.4734 1.8917-1.7809 2.3009-.1169.1555-.0858.3766.069.4936.1544.1168.374.086.4907-.0692.3055-.4065.9557-1.2414 1.7601-2.2741l.0019-.0023c.6711-.8617 1.4503-1.8621 2.2281-2.869 1.6979-2.1979 3.401-4.4415 3.8935-5.2649.1-.1671.0458-.3836-.1203-.4836z"/><path d="m104.079 51.1562c0-.2761.224-.5.5-.5h96.421c.276 0 .5.2239.5.5 0 .2762-.224.5-.5.5h-96.421c-.276 0-.5-.2238-.5-.5zm0 10.2755c0-.2761.224-.5.5-.5h73.464c.276 0 .5.2239.5.5s-.224.5-.5.5h-73.464c-.276 0-.5-.2239-.5-.5zm0 11.3384c0-.2761.224-.5.5-.5h73.464c.276 0 .5.2239.5.5 0 .2762-.224.5-.5.5h-73.464c-.276 0-.5-.2238-.5-.5z"/><path d="m111.041 34.5c0-.2761-.224-.5-.5-.5l-4.656-.0003c-.276 0-.5.2238-.5.5 0 .2761.224.5.5.5l4.656.0003c.276 0 .5-.2238.5-.5z"/><path d="m123.291 34.4873c0-.2761-.224-.5-.5-.5h-4.665c-.276 0-.5.2239-.5.5s.224.5.5.5h4.665c.276 0 .5-.2239.5-.5z"/><path d="m112.829 34.4876c0 .8257.666 1.4896 1.481 1.4896.816 0 1.482-.6639 1.482-1.4896s-.666-1.4896-1.482-1.4896c-.815 0-1.481.6639-1.481 1.4896zm-1 0c0 1.375 1.111 2.4896 2.481 2.4896 1.371 0 2.482-1.1146 2.482-2.4896 0-1.3749-1.111-2.4896-2.482-2.4896-1.37 0-2.481 1.1147-2.481 2.4896z"/></g></svg>