<svg width="38" height="39" fill="none" xmlns="http://www.w3.org/2000/svg"><g clip-path="url(#a)"><path d="M22.174 21.847a.593.593 0 0 0-.371.05.607.607 0 0 0-.294.786l-.004.006 1.39 3.358a7.094 7.094 0 0 0 2.867-3.602l-3.582-.605-.006.007Zm-5.572.476a.607.607 0 0 0-.701-.46l-.006-.008-3.55.602a7.121 7.121 0 0 0 2.858 3.577l1.376-3.325-.011-.013a.6.6 0 0 0 .034-.373Zm2.973 1.304a.607.607 0 0 0-1.069.001h-.002l-1.746 3.157a7.112 7.112 0 0 0 3.88.2c.24-.054.473-.12.7-.195l-1.75-3.163h-.013Zm5.527-7.334-2.686 2.405.001.007a.608.608 0 0 0 .238 1.042l.003.015 3.48 1.002a7.216 7.216 0 0 0-1.036-4.47Zm-4.99.27a.607.607 0 0 0 .963.463l.01.004 2.94-2.084a7.147 7.147 0 0 0-4.121-1.987l.204 3.603h.003Zm-3.113.476a.606.606 0 0 0 .962-.465l.015-.007.204-3.608a7.084 7.084 0 0 0-4.146 1.986l2.959 2.097.006-.003Zm-1.578 2.726a.605.605 0 0 0 .239-1.042l.003-.015-2.702-2.416a7.082 7.082 0 0 0-1.005 4.484l3.463-1 .002-.011Zm2.624 1.061.996.48.994-.479.247-1.072-.688-.86h-1.107l-.69.858.248 1.073Z" fill="#326CE5"/><path d="m35.514 22.94-2.84-12.333a2.218 2.218 0 0 0-1.188-1.479L19.993 3.641a2.214 2.214 0 0 0-1.908 0L6.595 9.13a2.216 2.216 0 0 0-1.19 1.478L2.572 22.942a2.17 2.17 0 0 0 .08 1.227 2.135 2.135 0 0 0 .343.618l7.954 9.888c.034.044.073.083.11.123a2.189 2.189 0 0 0 1.049.62c.182.05.37.076.559.078h.123l12.631-.003a2.1 2.1 0 0 0 .554-.075 2.273 2.273 0 0 0 .637-.277c.2-.126.378-.283.527-.467l.243-.301 7.708-9.59a2.149 2.149 0 0 0 .425-.898 2.16 2.16 0 0 0 0-.945Zm-11.921 4.796c.032.095.07.188.114.278a.54.54 0 0 0-.053.406c.167.382.372.748.61 1.091.133.176.256.359.369.549.027.051.064.13.09.185a.69.69 0 1 1-1.244.588c-.026-.054-.062-.126-.085-.177a5.751 5.751 0 0 1-.2-.63c-.119-.4-.277-.787-.471-1.157a.543.543 0 0 0-.351-.213l-.148-.264a8.9 8.9 0 0 1-6.347-.016l-.156.281a.56.56 0 0 0-.296.145 4.81 4.81 0 0 0-.533 1.236c-.054.213-.12.424-.198.63-.022.05-.059.121-.085.175l-.001.003a.69.69 0 1 1-1.242-.59c.026-.054.06-.133.088-.184.112-.19.235-.374.368-.55.243-.353.452-.727.623-1.12a.683.683 0 0 0-.061-.388l.125-.3a8.95 8.95 0 0 1-3.966-4.952l-.3.05a.762.762 0 0 0-.396-.139c-.41.079-.811.197-1.199.353-.2.09-.407.17-.617.236-.05.014-.121.028-.178.04l-.013.005h-.01a.69.69 0 1 1-.306-1.34l.01-.002.006-.001c.057-.014.131-.033.184-.043.218-.03.439-.048.66-.053.416-.027.829-.095 1.232-.203a.95.95 0 0 0 .296-.298l.288-.084a8.9 8.9 0 0 1 1.404-6.205l-.22-.196a.765.765 0 0 0-.139-.397 6.416 6.416 0 0 0-1.023-.72 5.742 5.742 0 0 1-.57-.333c-.042-.03-.097-.078-.143-.114l-.01-.008a.729.729 0 0 1-.17-1.014.663.663 0 0 1 .549-.242.82.82 0 0 1 .48.18c.046.038.11.087.152.122.16.152.311.312.453.481.281.309.592.59.927.838.126.066.273.08.409.04.082.06.164.118.248.176a8.847 8.847 0 0 1 5.738-2.759l.016-.29a.749.749 0 0 0 .223-.356 6.43 6.43 0 0 0-.076-1.248 5.792 5.792 0 0 1-.094-.654c-.002-.05 0-.12.001-.176l-.001-.02a.69.69 0 1 1 1.375 0c0 .06.004.14.002.196a5.7 5.7 0 0 1-.095.654 6.45 6.45 0 0 0-.078 1.247c.028.14.108.263.225.344.003.05.01.216.017.307a9.013 9.013 0 0 1 5.71 2.759l.26-.187c.142.024.286.008.418-.045.336-.25.646-.53.927-.84a5.7 5.7 0 0 1 .455-.48c.042-.036.105-.085.152-.122a.692.692 0 1 1 .857 1.075c-.046.038-.107.09-.151.123a5.74 5.74 0 0 1-.572.333 6.438 6.438 0 0 0-1.023.719.544.544 0 0 0-.129.39l-.244.218a8.937 8.937 0 0 1 1.433 6.19l.278.081c.07.125.172.228.296.298a6.43 6.43 0 0 0 1.234.204c.22.005.44.022.659.052.058.011.142.034.2.048a.69.69 0 1 1-.306 1.34l-.01-.002c-.004 0-.008-.003-.013-.004-.057-.013-.128-.025-.178-.038a5.737 5.737 0 0 1-.617-.238 6.43 6.43 0 0 0-1.2-.353.544.544 0 0 0-.384.143 10.033 10.033 0 0 0-.294-.052 8.95 8.95 0 0 1-3.965 4.988Z" fill="#326CE5"/><path d="M37.013 23.256 33.915 9.8a2.417 2.417 0 0 0-1.297-1.614L20.08 2.201a2.416 2.416 0 0 0-2.081 0L5.462 8.191a2.418 2.418 0 0 0-1.298 1.613L1.072 23.259a2.39 2.39 0 0 0 .462 2.013l8.677 10.79a2.442 2.442 0 0 0 1.874.894l13.916-.004a2.441 2.441 0 0 0 1.874-.893l8.675-10.79a2.4 2.4 0 0 0 .463-2.013Zm-1.499.63a2.225 2.225 0 0 1-.425.898l-7.708 9.589-.243.302a2.274 2.274 0 0 1-.768.6c-.056.026-.112.05-.17.07a2.257 2.257 0 0 1-.78.148l-12.63.003h-.124a2.27 2.27 0 0 1-1.187-.35 2.19 2.19 0 0 1-.42-.348c-.038-.04-.077-.08-.111-.122l-7.954-9.89a2.196 2.196 0 0 1-.423-1.844l2.835-12.333a2.216 2.216 0 0 1 1.189-1.478l11.49-5.49a2.215 2.215 0 0 1 1.908 0l11.493 5.487a2.216 2.216 0 0 1 1.188 1.48l2.84 12.332c.07.311.07.635 0 .946Z" fill="#fff"/><path d="M30.56 21.952c-.058-.014-.142-.037-.2-.048a5.821 5.821 0 0 0-.66-.053 6.434 6.434 0 0 1-1.233-.202.774.774 0 0 1-.296-.299l-.278-.08a8.937 8.937 0 0 0-1.433-6.19c.071-.065.206-.184.244-.22a.544.544 0 0 1 .13-.389c.316-.272.659-.513 1.022-.719.197-.1.388-.211.572-.333.044-.033.105-.085.151-.122a.691.691 0 1 0-.857-1.076c-.047.037-.11.086-.152.122-.16.151-.313.312-.455.48a6.44 6.44 0 0 1-.927.84.765.765 0 0 1-.417.045l-.262.187a9.014 9.014 0 0 0-5.71-2.759l-.016-.307a.545.545 0 0 1-.224-.344 6.442 6.442 0 0 1 .078-1.247c.043-.216.075-.435.093-.654.003-.056 0-.136 0-.196a.694.694 0 0 0-.689-.76.692.692 0 0 0-.687.76l.001.02c0 .057-.003.126-.001.176.018.22.05.438.094.654.065.413.091.83.076 1.248a.75.75 0 0 1-.223.355l-.016.291a8.848 8.848 0 0 0-5.737 2.759 12.28 12.28 0 0 1-.25-.176.544.544 0 0 1-.408-.04 6.421 6.421 0 0 1-.927-.838 5.743 5.743 0 0 0-.453-.48c-.042-.037-.106-.085-.153-.123a.82.82 0 0 0-.48-.18.663.663 0 0 0-.547.242.729.729 0 0 0 .169 1.014l.01.008c.046.036.101.084.143.114.183.122.374.233.57.334.364.206.706.446 1.023.719.082.117.13.254.138.396l.22.197a8.9 8.9 0 0 0-1.403 6.205l-.288.084a.95.95 0 0 1-.296.298 6.418 6.418 0 0 1-1.233.203 5.76 5.76 0 0 0-.66.053c-.052.01-.126.028-.183.043l-.006.001-.01.003a.69.69 0 1 0 .306 1.34l.01-.001c.004-.001.008-.004.013-.004.057-.014.128-.027.178-.04.21-.068.416-.147.617-.237a6.437 6.437 0 0 1 1.2-.353c.141.009.278.057.394.14l.3-.051a8.95 8.95 0 0 0 3.967 4.952l-.125.3c.058.12.08.256.061.389a6.71 6.71 0 0 1-.622 1.118c-.134.176-.257.36-.37.55-.026.052-.061.131-.087.185a.69.69 0 1 0 1.242.59v-.003c.027-.054.064-.125.086-.175.078-.206.144-.417.198-.63.119-.435.298-.851.533-1.236a.559.559 0 0 1 .296-.145l.156-.282a8.901 8.901 0 0 0 6.347.016l.147.265c.14.022.267.099.351.213.195.37.353.757.473 1.157.054.214.12.424.2.63.021.051.058.122.084.177a.69.69 0 1 0 1.244-.588c-.026-.055-.063-.134-.09-.185a5.709 5.709 0 0 0-.369-.549 6.407 6.407 0 0 1-.61-1.092.54.54 0 0 1 .053-.405 2.361 2.361 0 0 1-.114-.278 8.95 8.95 0 0 0 3.965-4.988c.088.014.244.041.294.052a.544.544 0 0 1 .384-.143c.41.078.813.196 1.2.353.2.091.407.17.617.238.05.013.12.025.178.038l.013.005.01.001a.69.69 0 1 0 .306-1.34Zm-6.535-7.006-2.94 2.084-.01-.005a.607.607 0 0 1-.963-.462l-.004-.002-.204-3.602a7.147 7.147 0 0 1 4.121 1.987Zm-5.537 3.949h1.106l.688.86-.247 1.072-.994.478-.996-.48-.247-1.072.69-.858Zm-1.041-5.81c.242-.055.487-.097.734-.126l-.205 3.607-.015.008a.607.607 0 0 1-.962.464l-.006.004-2.958-2.098a7.084 7.084 0 0 1 3.412-1.86Zm-4.485 3.207 2.7 2.416-.002.015a.606.606 0 0 1-.238 1.042l-.003.012-3.462.999a7.083 7.083 0 0 1 1.005-4.484Zm3.616 6.418-1.375 3.324a7.12 7.12 0 0 1-2.858-3.577l3.55-.603.006.008a.6.6 0 0 1 .618.266.607.607 0 0 1 .05.569l.01.013Zm4.061 4.275a7.112 7.112 0 0 1-3.881-.2l1.746-3.157h.003a.609.609 0 0 1 1.068 0h.013l1.75 3.162a7.41 7.41 0 0 1-.699.195Zm2.256-.938-1.39-3.358.004-.006a.607.607 0 0 1 .665-.836l.006-.007 3.582.605a7.094 7.094 0 0 1-2.867 3.602Zm3.243-5.283-3.48-1.002-.003-.015a.606.606 0 0 1-.238-1.042l-.001-.007 2.686-2.404a7.215 7.215 0 0 1 1.036 4.47Z" fill="#fff"/></g><path fill-rule="evenodd" clip-rule="evenodd" d="M.25 9.545 10.435 0 9.068 5.455h3.427L2.31 15l1.367-5.455H.25Z" fill="#00ADE4"/><defs><clipPath id="a"><path fill="#fff" transform="translate(.25 1.25)" d="M0 0h37.5v36.4H0z"/></clipPath></defs></svg>