<svg fill="none" height="16" viewBox="0 0 14 16" width="14" xmlns="http://www.w3.org/2000/svg"><g fill="#0092e4"><path clip-rule="evenodd" d="m13.5502.169189h-6.5022c-1.34954 0-2.54215.824616-3.04246 2.065851-1.67323.144-3.00554 1.55446-3.00554 3.25476v9.2708c0 .1698.13785.3077.30769.3077h6.50216c1.35015 0 2.54335-.8253 3.04245-2.0659 1.6732-.144 3.0055-1.5544 3.0055-3.25475v-9.270768c0-.170462-.1372-.307693-.3076-.307693zm-5.74035 14.283111h-6.19447v-8.96249c0-1.29908.95447-2.39939 2.19877-2.62401-.00092.00524-.00123.01047-.00153.0157-.00031.00523-.00062.01046-.00154.01569-.03139.18277-.04985.36738-.04985.552v9.27081c0 .1698.13785.3077.30769.3077h6.10528c-.45728.867-1.36066 1.4246-2.36435 1.4246zm2.82585-2.0406c1.4375-.032 2.6068-1.2265 2.6068-2.66466v-8.962466h-6.1945c-1.152 0-2.17108.734766-2.53662 1.828306-.08923.27385-.13476.55508-.13476.83631v8.96251z" fill-rule="evenodd"/><path d="m4.00554 2.23504.01072.12454.07651-.00659.0287-.07122zm6.84676 10.76736-.0107-.1245-.0766.0066-.0287.0713zm-9.23692 1.4499h-.125v.125h.125zm2.19877-11.5865.1231.02173.03116-.17659-.17646.03185zm-.00153.0157.12478.00734v-.00001zm-.00154.01569-.1231-.02172-.0001.00056zm6.36312 10.13051.1105.0583.0967-.1833h-.2072zm.4615-.616v.125l.0028-.0001zm2.6068-11.627126h.125v-.125h-.125zm-8.73112 1.828306-.11855-.03963-.0003.00091zm-.13476 9.79882h-.125v.125h.125zm2.67138-12.117511h6.5022v-.2499995h-6.5022zm-2.92653 1.987581c.48163-1.19489 1.629-1.987581 2.92653-1.987581v-.2499995c-1.40155 0-2.63941.8565385-3.1584 2.1441105zm-2.99647 3.20803c0-1.63394 1.28118-2.99166 2.89126-3.13022l-.02144-.24908c-1.73638.14943-3.11982 1.61263-3.11982 3.3793zm0 9.2708v-9.2708h-.25v9.2708zm.18269.1827c-.10081 0-.18269-.0819-.18269-.1827h-.25c0 .2389.19381.4327.43269.4327zm6.50216 0h-6.50216v.25h6.50216zm2.92645-1.9875c-.4804 1.1941-1.62828 1.9875-2.92645 1.9875v.25c1.40213 0 2.64065-.8572 3.15845-2.1442zm2.9965-3.20815c0 1.63395-1.2811 2.99165-2.8912 3.13025l.0214.2491c1.7364-.1495 3.1198-1.6127 3.1198-3.37935zm0-9.270768v9.270768h.25v-9.270768zm-.1826-.182693c.1014 0 .1826.081267.1826.182693h.25c0-.239497-.1931-.4326925-.4326-.4326925zm-11.93482 14.283111h6.19447v-.25h-6.19447zm-.125-9.08749v8.96249h.25v-8.96249zm2.30157-2.74702c-1.30243.23511-2.30157 1.38607-2.30157 2.74702h.25c0-1.23722.9098-2.28687 2.09598-2.50099zm.14545.14604c.00017-.00291.00023-.0037.00027-.00419.00002-.00027-.00007.00089-.00042.00289l-.24619-.04345c-.00239.01354-.00299.02599-.00323.03008zm-.00323.03008c.00239-.01354.00299-.02598.00323-.03007l-.24957-.01469c-.00017.00292-.00023.00371-.00027.0042-.00002.00028.00007-.00089.00042-.00288zm-.04794.53028c0-.17634.01764-.35378.04804-.53085l-.24639-.04231c-.03236.18848-.05165.38026-.05165.57316zm0 9.27081v-9.27081h-.25v9.27081zm.18269.1827c-.10081 0-.18269-.0819-.18269-.1827h-.25c0 .2388.19381.4327.43269.4327zm6.10528 0h-6.10528v.25h6.10528zm-2.36435 1.6746c1.05055 0 1.99624-.5837 2.47485-1.4913l-.2211-.1167c-.43584.8265-1.29692 1.358-2.25375 1.358zm5.30765-4.83026c0 1.37016-1.1149 2.50916-2.4846 2.53966l.0056.2499c1.5054-.0335 2.729-1.2834 2.729-2.78956zm0-8.962466v8.962466h.25v-8.962466zm-6.0695.125h6.1945v-.25h-6.1945zm-2.41806 1.742936c.34852-1.04264 1.31992-1.742936 2.41806-1.742936v-.25c-1.20586 0-2.27261.769246-2.65517 1.913676zm-.12832.79668c0-.26767.04333-.53584.12861-.79758l-.2377-.07745c-.09317.28595-.14091.58023-.14091.87503zm0 8.96251v-8.96251h-.25v8.96251zm6.13408-.125h-6.25908v.25h6.25908z"/></g></svg>