<svg width="256" height="160" fill="none" xmlns="http://www.w3.org/2000/svg"><g clip-path="url(#a)"><path opacity=".1" d="M109.558 101.42c23.163 0 41.941-18.737 41.941-41.85 0-23.114-18.778-41.85-41.941-41.85-23.164 0-41.941 18.736-41.941 41.85 0 23.113 18.777 41.85 41.941 41.85Z" fill="#00ADE4"/><path opacity=".2" d="M108.663 85.907c15.071 0 27.289-12.191 27.289-27.23s-12.218-27.23-27.289-27.23c-15.072 0-27.29 12.191-27.29 27.23s12.218 27.23 27.29 27.23Z" fill="#00ADE4"/><path opacity=".3" d="M109.222 71.957c7.907 0 14.316-6.395 14.316-14.285 0-7.889-6.409-14.284-14.316-14.284-7.906 0-14.316 6.395-14.316 14.284 0 7.89 6.41 14.285 14.316 14.285Z" fill="#00ADE4"/><path d="m140.078 71.185 3.335 16.885 2.263-7.554.264.377 6.892 11.465 5.204-3.302-9.225-9.737 7.598-1.11-16.331-7.024Z" fill="#fff"/><path fill-rule="evenodd" clip-rule="evenodd" d="M140.751 71.309a.8.8 0 0 1 .883.707l1.757 15.813a.8.8 0 0 1-1.591.177l-1.756-15.814a.8.8 0 0 1 .707-.883Z" fill="#000"/><path fill-rule="evenodd" clip-rule="evenodd" d="M145.749 80.709a.8.8 0 0 1 .488 1.02l-.443 1.263c-.821 2.344-1.646 4.698-2.64 7.02a.8.8 0 1 1-1.471-.629c.971-2.269 1.776-4.564 2.597-6.91l.449-1.276a.8.8 0 0 1 1.02-.488Z" fill="#000"/><path fill-rule="evenodd" clip-rule="evenodd" d="M144.73 80.72a.8.8 0 0 1 1.123.133c2.393 3.037 4.557 6.242 6.705 9.422a433.892 433.892 0 0 0 2.227 3.277.8.8 0 0 1-1.318.907 461.074 461.074 0 0 1-2.263-3.33c-2.138-3.165-4.254-6.3-6.608-9.286a.8.8 0 0 1 .134-1.124ZM147.625 79.272a.8.8 0 0 1 1.122-.144c2.808 2.168 5.308 4.762 7.749 7.296.947.981 1.884 1.954 2.827 2.889a.8.8 0 0 1-1.127 1.136c-1-.991-1.97-1.998-2.935-3-2.409-2.5-4.783-4.963-7.491-7.055a.8.8 0 0 1-.145-1.122Z" fill="#000"/><path fill-rule="evenodd" clip-rule="evenodd" d="M147.462 79.83a.8.8 0 0 1 .727-.866c2.966-.259 5.909-.613 8.879-.971l.546-.066a.8.8 0 0 1 .191 1.589l-.552.066c-2.964.357-5.932.715-8.925.976a.8.8 0 0 1-.866-.727Z" fill="#000"/><path fill-rule="evenodd" clip-rule="evenodd" d="M139.205 71.722a.8.8 0 0 1 1.038-.45c1.984.784 3.988 1.55 5.996 2.316 3.821 1.46 7.659 2.925 11.413 4.541a.8.8 0 1 1-.633 1.47c-3.726-1.604-7.505-3.048-11.305-4.499a554.647 554.647 0 0 1-6.059-2.34.8.8 0 0 1-.45-1.038ZM159.962 89.118a.8.8 0 0 1-.351 1.075l-1.087.554c-2.144 1.093-4.296 2.191-6.504 3.204a.8.8 0 0 1-.667-1.454c2.175-.998 4.294-2.079 6.439-3.172l1.094-.558a.8.8 0 0 1 1.076.35Z" fill="#000"/><path opacity=".7" d="M214.975 125.793c0 29.288-50.939 53.031-113.776 53.031-62.838 0-113.777-23.743-113.777-53.031 0-29.289 50.94-53.032 113.777-53.032s113.776 23.743 113.776 53.032Z" fill="url(#b)" fill-opacity=".1"/><path d="M59.458 146.207c-1.668-5.003 9.726-43.771 15.632-62.53-15.009 3.335-16.675 24.317-15.632 34.391-6.254-5.211-17.302-18.133-11.466-28.138 5.836-10.005 23.275-17.369 31.265-19.8-6.602-10.77-31.265-31.265 9.379-27.096 27.569 2.828 20.148 21.19 13.548 27.095 3.821-.347 8.754-2.292 18.759 9.38 10.004 11.672 11.116 28.138 5.21 32.306 0 0-3.376-10.851-5.21-16.674-2.428-7.705-13.548-15.632-13.548-15.632 33.885 71.425 18.758 61.247 18.758 61.247s.807 7.498-20.036-16.471c-6.237-7.173-23.04.384-26.86 5.247-5.905 7.643-18.132 21.677-19.8 16.675Z" fill="#fff"/><path fill-rule="evenodd" clip-rule="evenodd" d="M87.619 41.066c-4.49-.581-9.08-.53-13.529.538-1.692.406-3.554.996-5.145 1.971-1.603.982-2.967 2.38-3.573 4.393a9.698 9.698 0 0 0-.385 3.177c-.407 3.344.77 6.53 2.845 9.355 2.087 2.843 5.112 5.368 8.487 7.418 3.379 2.052 7.142 3.647 10.738 4.61 3.584.96 7.062 1.307 9.852.802 1.828-.33 3.673-.977 5.42-1.883.339-.136.671-.282.997-.438.986-.475 1.861-1.141 2.627-1.94.408-.332.804-.68 1.185-1.042 2.87-2.728 4.946-6.32 5.203-10.345.285-4.473-2.376-7.77-5.733-10.115-2.153-1.504-4.649-2.662-6.995-3.538-2.831-1.248-5.947-1.966-9.22-2.524a50.754 50.754 0 0 0-2.774-.44Zm2.542 2.023c-.898-.154-1.816-.297-2.752-.437-4.335-.56-8.723-.506-12.945.507-1.63.391-3.302.934-4.683 1.78-1.37.84-2.414 1.953-2.877 3.49-.78 2.594-.09 5.607 1.385 8.495 1.468 2.872 3.653 5.496 5.648 7.239 3.295 2.877 8.393 5.248 13.75 6.38 4.951 1.047 10.004 1.011 13.976-.553a19.688 19.688 0 0 0 3.196-2.094c1.436-1.526 2.487-3.672 3.084-5.984.875-3.39.694-6.82-.404-8.721-2.221-3.847-5.11-6.163-8.528-7.679a48.566 48.566 0 0 0-3.547-1.16 58.235 58.235 0 0 0-5.303-1.263Zm17.58 7.462c1.976 1.914 3.182 4.228 3.003 7.03-.101 1.585-.526 3.111-1.204 4.54.872-3.528.757-7.353-.615-9.73a22.147 22.147 0 0 0-1.184-1.84ZM107.913 79.328a.8.8 0 0 0-.395 1.06c4.26 9.313 6.622 15.27 9.243 21.882 1.824 4.603 3.775 9.523 6.579 16.112.727 1.708 2.587 6.507 3.719 11.302.567 2.402.94 4.759.914 6.709-.026 1.89-.424 3.187-1.148 3.871-1.246.259-2.759-.233-4.572-1.423-1.871-1.227-3.886-3.082-5.989-5.16-.751-.742-1.515-1.516-2.285-2.295-1.36-1.375-2.736-2.768-4.084-4.035-2.114-1.988-4.249-3.759-6.304-4.787-5.434-2.717-10.753-2.636-15.844-.283-5.051 2.335-9.839 6.885-14.341 13.032-2.094 2.858-4.37 5.881-7.247 7.95-2.837 2.039-6.254 3.15-10.693 2.163a.8.8 0 1 0-.347 1.562c4.94 1.098 8.818-.157 11.974-2.426 3.114-2.24 5.528-5.47 7.603-8.304 4.426-6.042 9.02-10.351 13.722-12.524 4.662-2.155 9.47-2.232 14.458.261 1.833.917 3.827 2.55 5.923 4.521 1.33 1.251 2.665 2.602 4.008 3.961.775.784 1.552 1.57 2.332 2.342 2.107 2.082 4.22 4.037 6.236 5.36 1.992 1.307 4.069 2.118 6.035 1.59a.793.793 0 0 0 .296-.151c1.391-1.125 1.838-3.11 1.867-5.204.029-2.14-.377-4.644-.956-7.097-1.161-4.915-3.058-9.805-3.805-11.561-2.767-6.503-4.713-11.409-6.54-16.016-2.64-6.656-5.032-12.69-9.299-22.017a.8.8 0 0 0-1.06-.395Z" fill="#000"/><path fill-rule="evenodd" clip-rule="evenodd" d="M74.337 83.973a.8.8 0 0 0-1.033.462c-1.726 4.515-6.112 16.188-9.635 28.998-1.761 6.405-3.31 13.108-4.203 19.351-.891 6.231-1.137 12.062-.25 16.7a.8.8 0 1 0 1.572-.301c-.838-4.38-.62-10.006.261-16.173.88-6.153 2.412-12.785 4.163-19.153 3.502-12.733 7.865-24.349 9.587-28.851a.8.8 0 0 0-.462-1.033Z" fill="#000"/><path fill-rule="evenodd" clip-rule="evenodd" d="M79.552 68.517a.8.8 0 0 0-1.1-.263c-1.194.734-2.39 1.459-3.585 2.183-7.067 4.285-14.082 8.538-20.31 14.24-5.808 5.315-9.043 11.818-8.3 18.219.746 6.429 5.469 12.471 14.957 16.918a.8.8 0 1 0 .679-1.448c-9.187-4.307-13.386-9.965-14.047-15.655-.663-5.716 2.211-11.748 7.79-16.854 6.103-5.586 12.968-9.75 20.04-14.038 1.199-.728 2.404-1.459 3.613-2.201a.8.8 0 0 0 .263-1.1ZM102.448 68.923a.8.8 0 0 0 .618.948c9.623 2.026 18.015 9.413 22.213 18.09 3.907 8.078 4.117 17.104-1.488 23.915-.344-8.535-3.051-21.135-14.81-31.914a.8.8 0 1 0-1.081 1.18c12.283 11.259 14.331 24.554 14.331 32.758a.801.801 0 0 0 1.366.566c7.573-7.574 7.508-18.135 3.122-27.201-4.381-9.057-13.147-16.817-23.323-18.96a.8.8 0 0 0-.948.618ZM106.415 55.328a.8.8 0 0 0-1.012.505c-1.396 4.19-6.129 6.23-11.765 6.358-5.593.127-11.635-1.663-15.093-4.628a.8.8 0 0 0-1.041 1.215c3.836 3.288 10.3 5.146 16.17 5.013 5.828-.133 11.517-2.26 13.247-7.452a.8.8 0 0 0-.506-1.011Z" fill="#000"/><path fill-rule="evenodd" clip-rule="evenodd" d="M79.835 81.92a.8.8 0 0 0-.99-.55c-7.4 2.115-14.908 6.37-18.96 12.989-4.093 6.685-4.552 15.601 1.811 26.738a.8.8 0 0 0 1.39-.794c-6.142-10.749-5.56-19.028-1.837-25.109 3.765-6.148 10.847-10.23 18.036-12.285a.8.8 0 0 0 .55-.989ZM213.502 27.42a.8.8 0 0 1-.099 1.127 374.718 374.718 0 0 1-9.685 7.868.8.8 0 1 1-.986-1.26 373.17 373.17 0 0 0 9.643-7.835.8.8 0 0 1 1.127.1ZM205.549 45.282a.8.8 0 0 1 .8-.8h15.453a.8.8 0 1 1 0 1.6h-15.453a.8.8 0 0 1-.8-.8ZM148.996 56.117c-.368.09-.812.217-1.195.435-.09.05-.492.322-.392.846a.8.8 0 0 0 .347.52.838.838 0 0 0 .214.101c.055.017.109.029.137.034.069.014.16.03.256.045a81.217 81.217 0 0 0 1.855.253c4.971.522 9.909 1.324 14.745 2.54 5.141 1.293 10.223 2.96 14.938 5.303l.015.007.038.02.121.066h.002c.097.054.224.123.37.2.292.156.666.35 1.04.525.363.17.767.343 1.107.436.159.043.382.092.607.075.117-.009.294-.04.47-.15a.913.913 0 0 0 .402-.56c.423-1.73.637-3.525.844-5.263l.003-.021c.21-1.763.414-3.466.811-5.09a.499.499 0 0 1 .221-.334c.122-.08.317-.147.612-.18.291-.034.621-.03.976-.011.117.006.246.014.378.023.228.015.464.03.655.035 2.178.052 4.356.12 6.537.186l.155.005c2.231.069 4.467.137 6.703.189a.8.8 0 1 0 .037-1.6c-2.229-.051-4.459-.12-6.691-.188l-.157-.005a932.117 932.117 0 0 0-6.546-.186 12.104 12.104 0 0 1-.528-.029c-.137-.009-.287-.019-.459-.028a7.56 7.56 0 0 0-1.242.019c-.422.048-.893.16-1.305.43a2.094 2.094 0 0 0-.9 1.294c-.422 1.726-.636 3.517-.843 5.253l-.003.027c-.182 1.529-.361 3.015-.664 4.444a9.428 9.428 0 0 1-.501-.22c-.511-.239-.95-.478-1.248-.64a10.293 10.293 0 0 0-.305-.162c-4.85-2.41-10.05-4.111-15.26-5.422-4.721-1.187-9.526-1.983-14.349-2.513a.8.8 0 0 0-1.009-.954c-.181.054-.364.096-.577.145-.128.03-.266.061-.422.1Z" fill="#000"/><path fill-rule="evenodd" clip-rule="evenodd" d="M151.097 55.823a.8.8 0 0 0 .903.68c4.602-.646 9.276-.66 13.989-.676 1.461-.005 2.926-.01 4.394-.033 2.067-.033 4.118-.179 6.147-.336.268-.02.535-.042.802-.063 1.763-.138 3.508-.274 5.261-.347.947-.04 1.904-.114 2.842-.188.474-.037.944-.074 1.405-.106 1.394-.095 2.758-.148 4.124-.048 4.288.313 8.467.93 12.75 1.561l.172.026a.8.8 0 0 0 .233-1.583l-.197-.03c-4.266-.629-8.494-1.253-12.841-1.57-1.479-.108-2.931-.05-4.35.048-.496.034-.982.072-1.464.11a73.86 73.86 0 0 1-2.741.181c-1.784.074-3.561.214-5.321.351l-.798.063c-2.028.157-4.036.299-6.05.331-1.42.023-2.855.028-4.298.032-4.736.015-9.561.03-14.281.693a.8.8 0 0 0-.681.904Z" fill="#000"/><path fill-rule="evenodd" clip-rule="evenodd" d="M202.145 41.227a.8.8 0 0 0-1.041-.441c-1.827.74-3.535 1.865-5.135 3.06a94.585 94.585 0 0 0-2.347 1.828l-.068.054c-.741.59-1.458 1.162-2.166 1.692-.516.387-.897.914-.845 1.577.046.594.431 1.04.75 1.328.34.308.76.573 1.134.789.19.11.378.213.549.306l.055.03c.151.082.282.153.396.219 2.062 1.18 4.359 2.005 6.654 2.698 1.087.329 2.184.63 3.258.927l.181.05c1.136.312 2.245.62 3.314.95a.8.8 0 1 0 .473-1.528 109.895 109.895 0 0 0-3.538-1.014 134.28 134.28 0 0 1-3.225-.916c-2.254-.681-4.416-1.464-6.321-2.556a20.66 20.66 0 0 0-.483-.266c-.169-.092-.342-.186-.512-.285-.349-.202-.65-.4-.862-.59a.996.996 0 0 1-.217-.25.842.842 0 0 1 .199-.189 97.222 97.222 0 0 0 2.195-1.714l.076-.06a93.004 93.004 0 0 1 2.307-1.798c1.561-1.166 3.14-2.196 4.778-2.859a.8.8 0 0 0 .441-1.041Zm-10.013 7.694c.001 0 .003-.004.005-.013-.005.009-.006.013-.005.013Z" fill="#000"/><path fill-rule="evenodd" clip-rule="evenodd" d="M151.392 55.357a.8.8 0 0 0 1.016.497c7.655-2.627 15.504-4.677 23.388-6.736l1.297-.339c8.31-2.172 16.646-4.389 24.755-7.33a.8.8 0 1 0-.546-1.505c-8.03 2.913-16.299 5.114-24.613 7.287-.438.115-.876.23-1.314.343-7.87 2.056-15.772 4.12-23.486 6.766a.8.8 0 0 0-.497 1.017ZM160.347 55.42a.8.8 0 0 0 .93.645c2.083-.378 4.184-.661 6.304-.937l.7-.09c1.886-.245 3.787-.492 5.68-.8 3.213-.522 6.373-1.33 9.499-2.128 1.765-.45 3.52-.898 5.266-1.29a.8.8 0 0 0-.35-1.562c-1.847.415-3.643.874-5.424 1.33-3.069.785-6.092 1.558-9.248 2.071-1.866.303-3.74.547-5.629.791l-.7.091c-2.121.276-4.257.564-6.383.95a.8.8 0 0 0-.645.929ZM183.948 63.18a.8.8 0 0 0-.979.567c-.519 1.953-.46 2.887-.294 5.5l.029.455a.8.8 0 0 0 1.597-.1l-.024-.383c-.169-2.671-.213-3.363.238-5.06a.8.8 0 0 0-.567-.98Z" fill="#000"/><path fill-rule="evenodd" clip-rule="evenodd" d="M177.661 64.277a.8.8 0 0 0 .425 1.048c1.806.766 3.353 1.584 4.714 2.333l.816.452c1.02.567 1.955 1.087 2.796 1.469a.8.8 0 0 0 .662-1.457c-.777-.353-1.635-.83-2.646-1.392l-.857-.474c-1.378-.758-2.98-1.606-4.861-2.404a.8.8 0 0 0-1.049.425ZM193.982 42.68a.8.8 0 0 0-.168 1.118l1.449 1.96a.8.8 0 0 0 1.287-.951l-1.449-1.96a.8.8 0 0 0-1.119-.168Zm2.794-1.132a.8.8 0 0 0-.167 1.12l.869 1.175a.8.8 0 0 0 1.287-.951l-.87-1.176a.8.8 0 0 0-1.119-.168ZM184.843 44.557a.8.8 0 0 0-.168 1.118l5.624 7.605a.8.8 0 0 0 1.287-.951l-5.624-7.605a.8.8 0 0 0-1.119-.167Zm4.721-.495a.8.8 0 0 0-.167 1.119l2.318 3.136a.8.8 0 0 0 1.287-.952l-2.319-3.135a.8.8 0 0 0-1.119-.168ZM175.272 48.029a.8.8 0 0 0-.167 1.118l2.898 3.92a.8.8 0 0 0 1.287-.951l-2.899-3.92a.8.8 0 0 0-1.119-.167Zm4.771-1.616a.8.8 0 0 0-.186 1.116l3.205 4.489a.8.8 0 1 0 1.302-.93l-3.205-4.489a.8.8 0 0 0-1.116-.186ZM166.568 50.032a.8.8 0 0 0-.168 1.12l2.319 3.135a.8.8 0 0 0 1.286-.952l-2.318-3.135a.8.8 0 0 0-1.119-.168Zm4.303-.881a.8.8 0 0 0-.166 1.119l2.543 3.433a.8.8 0 0 0 1.287-.951l-1.632-2.203-.912-1.23-.001-.002a.8.8 0 0 0-1.119-.166ZM158.443 52.306a.8.8 0 0 0-.167 1.12l1.546 2.09a.8.8 0 0 0 1.287-.95l-1.547-2.092a.8.8 0 0 0-1.119-.168Zm4.287-.877a.8.8 0 0 0-.168 1.119l2.029 2.743a.8.8 0 0 0 1.287-.95l-2.029-2.745a.8.8 0 0 0-1.119-.167ZM155.388 53.203a.8.8 0 0 0-.168 1.119l1.16 1.568a.8.8 0 1 0 1.286-.952l-1.159-1.567a.8.8 0 0 0-1.119-.168Z" fill="#000"/><path d="M183.042 33.408c.015 4.653-3.865 8.435-8.666 8.447-4.802.012-8.706-3.75-8.722-8.403-.015-4.654 3.865-8.436 8.666-8.448 4.802-.012 8.706 3.75 8.722 8.404Z" fill="#fff"/><path fill-rule="evenodd" clip-rule="evenodd" d="M171.054 23.815c2.384-.627 4.996-.583 7.139.215 1.467.546 3.277 1.953 4.423 3.903 1.167 1.985 1.665 4.576.379 7.397-1.144 2.51-3.061 4.378-5.391 5.279-2.337.903-5.034.81-7.676-.505-2.699-1.342-4.412-3.685-4.95-6.617a8.764 8.764 0 0 1 .395-4.525.8.8 0 0 1-.295-1.144c1.338-2.052 3.593-3.377 5.976-4.003Zm3.779 1.178c-3.785.013-5.949 1.343-7.12 2.947-1.199 1.641-1.449 3.691-1.161 5.26.449 2.45 1.853 4.36 4.087 5.472 2.264 1.126 4.492 1.177 6.387.444 1.903-.735 3.525-2.282 4.514-4.45 1.035-2.272.644-4.312-.303-5.923-.968-1.647-2.495-2.802-3.601-3.214-.848-.315-1.805-.494-2.803-.536Z" fill="#000"/><path fill-rule="evenodd" clip-rule="evenodd" d="M182.265 22.233a.8.8 0 0 1-.273 1.098c-5.485 3.298-7.684 7.256-8.555 10.154-.438 1.458-.543 2.66-.551 3.39-.002.196.002.354.009.471a.833.833 0 0 1 .031.149c.006.058.011.111.013.158.001.023.003.05.002.08v.002c0 .016 0 .092-.018.179a.805.805 0 0 1-.274.452.8.8 0 0 1-1.148-.133c-.076-.1-.11-.195-.117-.215l-.001-.002a.7.7 0 0 1-.025-.08 1.49 1.49 0 0 1-.03-.16l-.01-.08c-.806-2.079-2.016-3.585-3.504-4.988a.8.8 0 0 1 1.097-1.164c.969.914 1.857 1.896 2.609 3.052.092-.486.216-1.013.384-1.572.979-3.258 3.419-7.551 9.263-11.065a.8.8 0 0 1 1.098.274Z" fill="#000"/></g><defs><radialGradient id="b" cx="0" cy="0" r="1" gradientUnits="userSpaceOnUse" gradientTransform="matrix(-.5025 28.97034 -62.15505 -1.07808 109.775 128.923)"><stop/><stop offset="1" stop-color="#3E7BFA" stop-opacity="0"/></radialGradient><clipPath id="a"><path fill="#fff" d="M0 0h256v160H0z"/></clipPath></defs></svg>